<?xml version="1.0" encoding="UTF-8" standalone="no"?>
<!DOCTYPE svg PUBLIC "-//W3C//DTD SVG 1.1//EN"
 "http://www.w3.org/Graphics/SVG/1.1/DTD/svg11.dtd">
<!-- Generated by graphviz version 2.38.0 (20140413.2041)
 -->
<!-- Pages: 1 -->
<svg width="1062pt" height="692pt"
 viewBox="0.00 0.00 1061.89 692.00" xmlns="http://www.w3.org/2000/svg" xmlns:xlink="http://www.w3.org/1999/xlink">
<g id="graph0" class="graph" transform="scale(1 1) rotate(0) translate(4 688)">
<polygon fill="white" stroke="none" points="-4,4 -4,-688 1057.89,-688 1057.89,4 -4,4"/>
<!-- env -->
<g id="node1" class="node"><title>env</title>
<ellipse fill="none" stroke="black" cx="246.894" cy="-450" rx="27" ry="18"/>
<text text-anchor="middle" x="246.894" y="-446.3" font-family="Times,serif" font-size="14.00">env</text>
</g>
<!-- random_deviate -->
<g id="node2" class="node"><title>random_deviate</title>
<ellipse fill="none" stroke="black" cx="95.8943" cy="-450" rx="67.6881" ry="18"/>
<text text-anchor="middle" x="95.8943" y="-446.3" font-family="Times,serif" font-size="14.00">random_deviate</text>
</g>
<!-- expression -->
<g id="node8" class="node"><title>expression</title>
<ellipse fill="none" stroke="black" cx="94.8943" cy="-162" rx="48.1917" ry="18"/>
<text text-anchor="middle" x="94.8943" y="-158.3" font-family="Times,serif" font-size="14.00">expression</text>
</g>
<!-- random_deviate&#45;&gt;expression -->
<g id="edge1" class="edge"><title>random_deviate&#45;&gt;expression</title>
<path fill="none" stroke="black" d="M78.1254,-432.452C55.7656,-410.284 18.52,-368.546 3.8943,-324 -13.5841,-270.766 35.0532,-215.294 67.7889,-185.373"/>
<polygon fill="black" stroke="black" points="70.165,-187.944 75.3131,-178.684 65.5141,-182.712 70.165,-187.944"/>
</g>
<!-- random -->
<g id="node14" class="node"><title>random</title>
<ellipse fill="none" stroke="black" cx="110.894" cy="-378" rx="38.1938" ry="18"/>
<text text-anchor="middle" x="110.894" y="-374.3" font-family="Times,serif" font-size="14.00">random</text>
</g>
<!-- random_deviate&#45;&gt;random -->
<g id="edge2" class="edge"><title>random_deviate&#45;&gt;random</title>
<path fill="none" stroke="black" d="M99.6022,-431.697C101.255,-423.983 103.242,-414.712 105.084,-406.112"/>
<polygon fill="black" stroke="black" points="108.556,-406.616 107.229,-396.104 101.711,-405.149 108.556,-406.616"/>
</g>
<!-- element -->
<g id="node3" class="node"><title>element</title>
<ellipse fill="none" stroke="black" cx="180.894" cy="-90" rx="38.9931" ry="18"/>
<text text-anchor="middle" x="180.894" y="-86.3" font-family="Times,serif" font-size="14.00">element</text>
</g>
<!-- ext -->
<g id="node6" class="node"><title>ext</title>
<ellipse fill="none" stroke="black" cx="180.894" cy="-18" rx="27" ry="18"/>
<text text-anchor="middle" x="180.894" y="-14.3" font-family="Times,serif" font-size="14.00">ext</text>
</g>
<!-- element&#45;&gt;ext -->
<g id="edge3" class="edge"><title>element&#45;&gt;ext</title>
<path fill="none" stroke="black" d="M180.894,-71.6966C180.894,-63.9827 180.894,-54.7125 180.894,-46.1124"/>
<polygon fill="black" stroke="black" points="184.394,-46.1043 180.894,-36.1043 177.394,-46.1044 184.394,-46.1043"/>
</g>
<!-- error -->
<g id="node24" class="node"><title>error</title>
<ellipse fill="none" stroke="black" cx="461.894" cy="-18" rx="27.8951" ry="18"/>
<text text-anchor="middle" x="461.894" y="-14.3" font-family="Times,serif" font-size="14.00">error</text>
</g>
<!-- element&#45;&gt;error -->
<g id="edge4" class="edge"><title>element&#45;&gt;error</title>
<path fill="none" stroke="black" d="M214.51,-80.6259C267.884,-67.3299 371.55,-41.5056 426.199,-27.8921"/>
<polygon fill="black" stroke="black" points="427.27,-31.2323 436.128,-25.4188 425.578,-24.4399 427.27,-31.2323"/>
</g>
<!-- boolean_graph -->
<g id="node4" class="node"><title>boolean_graph</title>
<ellipse fill="none" stroke="black" cx="772.894" cy="-162" rx="63.0888" ry="18"/>
<text text-anchor="middle" x="772.894" y="-158.3" font-family="Times,serif" font-size="14.00">boolean_graph</text>
</g>
<!-- linear_map -->
<g id="node20" class="node"><title>linear_map</title>
<ellipse fill="none" stroke="black" cx="772.894" cy="-90" rx="50.8918" ry="18"/>
<text text-anchor="middle" x="772.894" y="-86.3" font-family="Times,serif" font-size="14.00">linear_map</text>
</g>
<!-- boolean_graph&#45;&gt;linear_map -->
<g id="edge5" class="edge"><title>boolean_graph&#45;&gt;linear_map</title>
<path fill="none" stroke="black" d="M772.894,-143.697C772.894,-135.983 772.894,-126.712 772.894,-118.112"/>
<polygon fill="black" stroke="black" points="776.394,-118.104 772.894,-108.104 769.394,-118.104 776.394,-118.104"/>
</g>
<!-- event -->
<g id="node22" class="node"><title>event</title>
<ellipse fill="none" stroke="black" cx="319.894" cy="-90" rx="29.795" ry="18"/>
<text text-anchor="middle" x="319.894" y="-86.3" font-family="Times,serif" font-size="14.00">event</text>
</g>
<!-- boolean_graph&#45;&gt;event -->
<g id="edge6" class="edge"><title>boolean_graph&#45;&gt;event</title>
<path fill="none" stroke="black" d="M721.614,-151.524C706.587,-148.904 690.107,-146.184 674.894,-144 534.976,-123.912 495.414,-144.646 358.894,-108 356.46,-107.347 353.982,-106.565 351.514,-105.702"/>
<polygon fill="black" stroke="black" points="352.757,-102.43 342.169,-102.061 350.216,-108.952 352.757,-102.43"/>
</g>
<!-- logger -->
<g id="node25" class="node"><title>logger</title>
<ellipse fill="none" stroke="black" cx="400.894" cy="-90" rx="33.2948" ry="18"/>
<text text-anchor="middle" x="400.894" y="-86.3" font-family="Times,serif" font-size="14.00">logger</text>
</g>
<!-- boolean_graph&#45;&gt;logger -->
<g id="edge7" class="edge"><title>boolean_graph&#45;&gt;logger</title>
<path fill="none" stroke="black" d="M721.56,-151.34C646.864,-137.285 509.717,-111.477 441.56,-98.6522"/>
<polygon fill="black" stroke="black" points="442.102,-95.1928 431.627,-96.7831 440.807,-102.072 442.102,-95.1928"/>
</g>
<!-- zbdd -->
<g id="node5" class="node"><title>zbdd</title>
<ellipse fill="none" stroke="black" cx="874.894" cy="-234" rx="27.8951" ry="18"/>
<text text-anchor="middle" x="874.894" y="-230.3" font-family="Times,serif" font-size="14.00">zbdd</text>
</g>
<!-- zbdd&#45;&gt;boolean_graph -->
<g id="edge10" class="edge"><title>zbdd&#45;&gt;boolean_graph</title>
<path fill="none" stroke="black" d="M856.186,-220.161C841.787,-210.279 821.554,-196.394 804.636,-184.784"/>
<polygon fill="black" stroke="black" points="806.365,-181.725 796.139,-178.952 802.404,-187.497 806.365,-181.725"/>
</g>
<!-- bdd -->
<g id="node13" class="node"><title>bdd</title>
<ellipse fill="none" stroke="black" cx="929.894" cy="-306" rx="27" ry="18"/>
<text text-anchor="middle" x="929.894" y="-302.3" font-family="Times,serif" font-size="14.00">bdd</text>
</g>
<!-- zbdd&#45;&gt;bdd -->
<g id="edge9" class="edge"><title>zbdd&#45;&gt;bdd</title>
<path fill="none" stroke="black" d="M891.52,-249.108C899.666,-257.978 909.173,-269.673 916.803,-280.072"/>
<polygon fill="black" stroke="black" points="914.069,-282.267 922.7,-288.411 919.784,-278.225 914.069,-282.267"/>
</g>
<!-- settings -->
<g id="node35" class="node"><title>settings</title>
<ellipse fill="none" stroke="black" cx="627.894" cy="-162" rx="37.8943" ry="18"/>
<text text-anchor="middle" x="627.894" y="-158.3" font-family="Times,serif" font-size="14.00">settings</text>
</g>
<!-- zbdd&#45;&gt;settings -->
<g id="edge8" class="edge"><title>zbdd&#45;&gt;settings</title>
<path fill="none" stroke="black" d="M853.256,-222.255C848.281,-220.01 842.961,-217.786 837.894,-216 822.171,-210.457 727.445,-187.157 670.726,-173.364"/>
<polygon fill="black" stroke="black" points="671.489,-169.948 660.946,-170.988 669.837,-176.75 671.489,-169.948"/>
</g>
<!-- risk_analysis -->
<g id="node7" class="node"><title>risk_analysis</title>
<ellipse fill="none" stroke="black" cx="720.894" cy="-522" rx="56.59" ry="18"/>
<text text-anchor="middle" x="720.894" y="-518.3" font-family="Times,serif" font-size="14.00">risk_analysis</text>
</g>
<!-- risk_analysis&#45;&gt;random -->
<g id="edge11" class="edge"><title>risk_analysis&#45;&gt;random</title>
<path fill="none" stroke="black" d="M689.192,-507.04C643.271,-487.374 555.162,-451.717 476.894,-432 417.352,-417 242.467,-394.828 157.837,-384.575"/>
<polygon fill="black" stroke="black" points="158.081,-381.079 147.734,-383.355 157.242,-388.028 158.081,-381.079"/>
</g>
<!-- uncertainty_analysis -->
<g id="node16" class="node"><title>uncertainty_analysis</title>
<ellipse fill="none" stroke="black" cx="720.894" cy="-450" rx="83.3857" ry="18"/>
<text text-anchor="middle" x="720.894" y="-446.3" font-family="Times,serif" font-size="14.00">uncertainty_analysis</text>
</g>
<!-- risk_analysis&#45;&gt;uncertainty_analysis -->
<g id="edge12" class="edge"><title>risk_analysis&#45;&gt;uncertainty_analysis</title>
<path fill="none" stroke="black" d="M720.894,-503.697C720.894,-495.983 720.894,-486.712 720.894,-478.112"/>
<polygon fill="black" stroke="black" points="724.394,-478.104 720.894,-468.104 717.394,-478.104 724.394,-478.104"/>
</g>
<!-- importance_analysis -->
<g id="node18" class="node"><title>importance_analysis</title>
<ellipse fill="none" stroke="black" cx="904.894" cy="-450" rx="83.3857" ry="18"/>
<text text-anchor="middle" x="904.894" y="-446.3" font-family="Times,serif" font-size="14.00">importance_analysis</text>
</g>
<!-- risk_analysis&#45;&gt;importance_analysis -->
<g id="edge14" class="edge"><title>risk_analysis&#45;&gt;importance_analysis</title>
<path fill="none" stroke="black" d="M755.936,-507.669C784.285,-496.884 824.528,-481.574 856.04,-469.586"/>
<polygon fill="black" stroke="black" points="857.415,-472.808 865.517,-465.981 854.926,-466.265 857.415,-472.808"/>
</g>
<!-- model -->
<g id="node21" class="node"><title>model</title>
<ellipse fill="none" stroke="black" cx="324.894" cy="-450" rx="33.2948" ry="18"/>
<text text-anchor="middle" x="324.894" y="-446.3" font-family="Times,serif" font-size="14.00">model</text>
</g>
<!-- risk_analysis&#45;&gt;model -->
<g id="edge13" class="edge"><title>risk_analysis&#45;&gt;model</title>
<path fill="none" stroke="black" d="M671.243,-513.352C608.907,-503.595 498.755,-485.835 404.894,-468 391.906,-465.532 377.783,-462.61 365.069,-459.892"/>
<polygon fill="black" stroke="black" points="365.736,-456.455 355.223,-457.767 364.26,-463.298 365.736,-456.455"/>
</g>
<!-- mocus -->
<g id="node34" class="node"><title>mocus</title>
<ellipse fill="none" stroke="black" cx="929.894" cy="-378" rx="34.394" ry="18"/>
<text text-anchor="middle" x="929.894" y="-374.3" font-family="Times,serif" font-size="14.00">mocus</text>
</g>
<!-- risk_analysis&#45;&gt;mocus -->
<g id="edge15" class="edge"><title>risk_analysis&#45;&gt;mocus</title>
<path fill="none" stroke="black" d="M762.669,-509.687C770.682,-507.674 779.027,-505.685 786.894,-504 833.192,-494.087 966.374,-504.198 996.894,-468 1007.21,-455.768 1003.86,-446.402 996.894,-432 989.633,-416.997 975.835,-404.953 962.639,-396.16"/>
<polygon fill="black" stroke="black" points="964.466,-393.175 954.129,-390.854 960.762,-399.115 964.466,-393.175"/>
</g>
<!-- expression&#45;&gt;element -->
<g id="edge16" class="edge"><title>expression&#45;&gt;element</title>
<path fill="none" stroke="black" d="M113.98,-145.465C125.947,-135.725 141.535,-123.036 154.656,-112.357"/>
<polygon fill="black" stroke="black" points="156.906,-115.039 162.452,-106.011 152.487,-109.61 156.906,-115.039"/>
</g>
<!-- parameter -->
<g id="node9" class="node"><title>parameter</title>
<ellipse fill="none" stroke="black" cx="180.894" cy="-306" rx="46.2923" ry="18"/>
<text text-anchor="middle" x="180.894" y="-302.3" font-family="Times,serif" font-size="14.00">parameter</text>
</g>
<!-- parameter&#45;&gt;expression -->
<g id="edge17" class="edge"><title>parameter&#45;&gt;expression</title>
<path fill="none" stroke="black" d="M149.326,-292.678C122.73,-281.578 87.783,-265.049 79.8943,-252 68.4872,-233.132 74.1517,-208.117 81.5672,-189.413"/>
<polygon fill="black" stroke="black" points="84.8765,-190.579 85.6462,-180.012 78.4549,-187.793 84.8765,-190.579"/>
</g>
<!-- constant -->
<g id="node10" class="node"><title>constant</title>
<ellipse fill="none" stroke="black" cx="128.894" cy="-234" rx="40.0939" ry="18"/>
<text text-anchor="middle" x="128.894" y="-230.3" font-family="Times,serif" font-size="14.00">constant</text>
</g>
<!-- constant&#45;&gt;expression -->
<g id="edge18" class="edge"><title>constant&#45;&gt;expression</title>
<path fill="none" stroke="black" d="M120.664,-216.055C116.696,-207.887 111.851,-197.912 107.438,-188.824"/>
<polygon fill="black" stroke="black" points="110.566,-187.255 103.049,-179.789 104.27,-190.313 110.566,-187.255"/>
</g>
<!-- version -->
<g id="node11" class="node"><title>version</title>
<ellipse fill="none" stroke="black" cx="831.894" cy="-522" rx="36.2938" ry="18"/>
<text text-anchor="middle" x="831.894" y="-518.3" font-family="Times,serif" font-size="14.00">version</text>
</g>
<!-- fault_tree_analysis -->
<g id="node12" class="node"><title>fault_tree_analysis</title>
<ellipse fill="none" stroke="black" cx="769.894" cy="-306" rx="77.1866" ry="18"/>
<text text-anchor="middle" x="769.894" y="-302.3" font-family="Times,serif" font-size="14.00">fault_tree_analysis</text>
</g>
<!-- preprocessor -->
<g id="node29" class="node"><title>preprocessor</title>
<ellipse fill="none" stroke="black" cx="772.894" cy="-234" rx="55.7903" ry="18"/>
<text text-anchor="middle" x="772.894" y="-230.3" font-family="Times,serif" font-size="14.00">preprocessor</text>
</g>
<!-- fault_tree_analysis&#45;&gt;preprocessor -->
<g id="edge19" class="edge"><title>fault_tree_analysis&#45;&gt;preprocessor</title>
<path fill="none" stroke="black" d="M770.636,-287.697C770.966,-279.983 771.364,-270.712 771.732,-262.112"/>
<polygon fill="black" stroke="black" points="775.23,-262.245 772.161,-252.104 768.236,-261.945 775.23,-262.245"/>
</g>
<!-- analysis -->
<g id="node36" class="node"><title>analysis</title>
<ellipse fill="none" stroke="black" cx="659.894" cy="-234" rx="38.9931" ry="18"/>
<text text-anchor="middle" x="659.894" y="-230.3" font-family="Times,serif" font-size="14.00">analysis</text>
</g>
<!-- fault_tree_analysis&#45;&gt;analysis -->
<g id="edge20" class="edge"><title>fault_tree_analysis&#45;&gt;analysis</title>
<path fill="none" stroke="black" d="M744.658,-288.941C728.562,-278.698 707.599,-265.357 690.547,-254.506"/>
<polygon fill="black" stroke="black" points="692.349,-251.505 682.033,-249.089 688.591,-257.41 692.349,-251.505"/>
</g>
<!-- bdd&#45;&gt;boolean_graph -->
<g id="edge23" class="edge"><title>bdd&#45;&gt;boolean_graph</title>
<path fill="none" stroke="black" d="M939.192,-288.872C948.909,-269.646 960.715,-237.43 944.894,-216 922.078,-185.095 881.508,-171.65 845.498,-166.023"/>
<polygon fill="black" stroke="black" points="845.867,-162.541 835.481,-164.635 844.906,-169.474 845.867,-162.541"/>
</g>
<!-- bdd&#45;&gt;zbdd -->
<g id="edge21" class="edge"><title>bdd&#45;&gt;zbdd</title>
<path fill="none" stroke="black" d="M913.832,-291.503C905.54,-282.538 895.736,-270.498 887.918,-259.837"/>
<polygon fill="black" stroke="black" points="890.773,-257.811 882.141,-251.667 885.057,-261.852 890.773,-257.811"/>
</g>
<!-- bdd&#45;&gt;settings -->
<g id="edge22" class="edge"><title>bdd&#45;&gt;settings</title>
<path fill="none" stroke="black" d="M931.678,-287.933C932.757,-267.783 931.132,-234.658 911.894,-216 877.75,-182.883 747.523,-189.398 700.894,-180 690.944,-177.995 680.281,-175.633 670.262,-173.318"/>
<polygon fill="black" stroke="black" points="671.043,-169.907 660.509,-171.035 669.447,-176.722 671.043,-169.907"/>
</g>
<!-- exponential -->
<g id="node15" class="node"><title>exponential</title>
<ellipse fill="none" stroke="black" cx="64.8943" cy="-306" rx="51.9908" ry="18"/>
<text text-anchor="middle" x="64.8943" y="-302.3" font-family="Times,serif" font-size="14.00">exponential</text>
</g>
<!-- exponential&#45;&gt;expression -->
<g id="edge24" class="edge"><title>exponential&#45;&gt;expression</title>
<path fill="none" stroke="black" d="M55.9878,-288.125C47.5972,-269.864 37.5944,-240.123 46.8943,-216 51.2462,-204.712 59.2406,-194.338 67.4737,-185.817"/>
<polygon fill="black" stroke="black" points="69.9384,-188.302 74.6847,-178.83 65.0674,-183.275 69.9384,-188.302"/>
</g>
<!-- probability_analysis -->
<g id="node17" class="node"><title>probability_analysis</title>
<ellipse fill="none" stroke="black" cx="782.894" cy="-378" rx="81.7856" ry="18"/>
<text text-anchor="middle" x="782.894" y="-374.3" font-family="Times,serif" font-size="14.00">probability_analysis</text>
</g>
<!-- uncertainty_analysis&#45;&gt;probability_analysis -->
<g id="edge25" class="edge"><title>uncertainty_analysis&#45;&gt;probability_analysis</title>
<path fill="none" stroke="black" d="M735.903,-432.055C743.518,-423.457 752.907,-412.857 761.285,-403.397"/>
<polygon fill="black" stroke="black" points="764.014,-405.596 768.024,-395.789 758.774,-400.954 764.014,-405.596"/>
</g>
<!-- probability_analysis&#45;&gt;fault_tree_analysis -->
<g id="edge26" class="edge"><title>probability_analysis&#45;&gt;fault_tree_analysis</title>
<path fill="none" stroke="black" d="M779.681,-359.697C778.248,-351.983 776.527,-342.712 774.929,-334.112"/>
<polygon fill="black" stroke="black" points="778.338,-333.297 773.071,-324.104 771.456,-334.575 778.338,-333.297"/>
</g>
<!-- probability_analysis&#45;&gt;bdd -->
<g id="edge27" class="edge"><title>probability_analysis&#45;&gt;bdd</title>
<path fill="none" stroke="black" d="M815.518,-361.465C840.459,-349.588 874.607,-333.327 899.085,-321.671"/>
<polygon fill="black" stroke="black" points="900.754,-324.753 908.278,-317.293 897.745,-318.433 900.754,-324.753"/>
</g>
<!-- importance_analysis&#45;&gt;probability_analysis -->
<g id="edge28" class="edge"><title>importance_analysis&#45;&gt;probability_analysis</title>
<path fill="none" stroke="black" d="M876.905,-432.941C859.856,-423.159 837.885,-410.552 819.47,-399.986"/>
<polygon fill="black" stroke="black" points="821.169,-396.926 810.753,-394.985 817.685,-402.997 821.169,-396.926"/>
</g>
<!-- ccf_group -->
<g id="node19" class="node"><title>ccf_group</title>
<ellipse fill="none" stroke="black" cx="290.894" cy="-306" rx="46.2923" ry="18"/>
<text text-anchor="middle" x="290.894" y="-302.3" font-family="Times,serif" font-size="14.00">ccf_group</text>
</g>
<!-- ccf_group&#45;&gt;constant -->
<g id="edge30" class="edge"><title>ccf_group&#45;&gt;constant</title>
<path fill="none" stroke="black" d="M261.181,-292.161C234.427,-280.601 194.993,-263.561 166.14,-251.094"/>
<polygon fill="black" stroke="black" points="167.363,-247.81 156.795,-247.056 164.586,-254.235 167.363,-247.81"/>
</g>
<!-- ccf_group&#45;&gt;event -->
<g id="edge31" class="edge"><title>ccf_group&#45;&gt;event</title>
<path fill="none" stroke="black" d="M289.341,-287.849C290.832,-250.57 302.593,-161.938 311.683,-117.442"/>
<polygon fill="black" stroke="black" points="315.109,-118.155 313.811,-107.641 308.269,-116.67 315.109,-118.155"/>
</g>
<!-- arithmetic -->
<g id="node32" class="node"><title>arithmetic</title>
<ellipse fill="none" stroke="black" cx="233.894" cy="-234" rx="46.5926" ry="18"/>
<text text-anchor="middle" x="233.894" y="-230.3" font-family="Times,serif" font-size="14.00">arithmetic</text>
</g>
<!-- ccf_group&#45;&gt;arithmetic -->
<g id="edge29" class="edge"><title>ccf_group&#45;&gt;arithmetic</title>
<path fill="none" stroke="black" d="M277.386,-288.411C270.358,-279.781 261.631,-269.062 253.842,-259.497"/>
<polygon fill="black" stroke="black" points="256.334,-257.014 247.306,-251.47 250.906,-261.434 256.334,-257.014"/>
</g>
<!-- fault_tree -->
<g id="node31" class="node"><title>fault_tree</title>
<ellipse fill="none" stroke="black" cx="306.894" cy="-378" rx="44.393" ry="18"/>
<text text-anchor="middle" x="306.894" y="-374.3" font-family="Times,serif" font-size="14.00">fault_tree</text>
</g>
<!-- model&#45;&gt;fault_tree -->
<g id="edge32" class="edge"><title>model&#45;&gt;fault_tree</title>
<path fill="none" stroke="black" d="M320.537,-432.055C318.533,-424.261 316.106,-414.822 313.857,-406.079"/>
<polygon fill="black" stroke="black" points="317.217,-405.089 311.337,-396.275 310.437,-406.832 317.217,-405.089"/>
</g>
<!-- event&#45;&gt;ccf_group -->
<g id="edge33" class="edge"><title>event&#45;&gt;ccf_group</title>
<path fill="none" stroke="black" d="M321.444,-108.232C319.946,-145.403 308.288,-233.352 299.22,-277.996"/>
<polygon fill="black" stroke="black" points="295.782,-277.336 297.096,-287.849 302.625,-278.811 295.782,-277.336"/>
</g>
<!-- initializer -->
<g id="node23" class="node"><title>initializer</title>
<ellipse fill="none" stroke="black" cx="365.894" cy="-522" rx="44.393" ry="18"/>
<text text-anchor="middle" x="365.894" y="-518.3" font-family="Times,serif" font-size="14.00">initializer</text>
</g>
<!-- initializer&#45;&gt;env -->
<g id="edge34" class="edge"><title>initializer&#45;&gt;env</title>
<path fill="none" stroke="black" d="M341.813,-506.834C322.613,-495.541 295.678,-479.696 275.403,-467.77"/>
<polygon fill="black" stroke="black" points="277.001,-464.649 266.607,-462.596 273.452,-470.683 277.001,-464.649"/>
</g>
<!-- initializer&#45;&gt;random_deviate -->
<g id="edge35" class="edge"><title>initializer&#45;&gt;random_deviate</title>
<path fill="none" stroke="black" d="M329.761,-511.632C284.402,-499.872 206.082,-479.567 152.682,-465.723"/>
<polygon fill="black" stroke="black" points="153.242,-462.252 142.684,-463.131 151.485,-469.028 153.242,-462.252"/>
</g>
<!-- initializer&#45;&gt;exponential -->
<g id="edge39" class="edge"><title>initializer&#45;&gt;exponential</title>
<path fill="none" stroke="black" d="M324.304,-515.704C290.303,-509.455 242.802,-496.1 210.894,-468 170.768,-432.662 194.516,-398.957 157.894,-360 143.933,-345.148 124.862,-333.293 107.623,-324.594"/>
<polygon fill="black" stroke="black" points="108.807,-321.279 98.279,-320.087 105.765,-327.584 108.807,-321.279"/>
</g>
<!-- initializer&#45;&gt;model -->
<g id="edge36" class="edge"><title>initializer&#45;&gt;model</title>
<path fill="none" stroke="black" d="M356.178,-504.411C351.276,-496.042 345.224,-485.71 339.754,-476.37"/>
<polygon fill="black" stroke="black" points="342.615,-474.33 334.541,-467.47 336.575,-477.868 342.615,-474.33"/>
</g>
<!-- initializer&#45;&gt;logger -->
<g id="edge38" class="edge"><title>initializer&#45;&gt;logger</title>
<path fill="none" stroke="black" d="M367.288,-503.878C372.655,-437.939 392.017,-200.058 398.648,-118.594"/>
<polygon fill="black" stroke="black" points="402.174,-118.422 399.497,-108.171 395.197,-117.854 402.174,-118.422"/>
</g>
<!-- xml -->
<g id="node28" class="node"><title>xml</title>
<ellipse fill="none" stroke="black" cx="440.894" cy="-450" rx="27" ry="18"/>
<text text-anchor="middle" x="440.894" y="-446.3" font-family="Times,serif" font-size="14.00">xml</text>
</g>
<!-- initializer&#45;&gt;xml -->
<g id="edge37" class="edge"><title>initializer&#45;&gt;xml</title>
<path fill="none" stroke="black" d="M382.913,-505.116C393.307,-495.415 406.73,-482.887 418.042,-472.329"/>
<polygon fill="black" stroke="black" points="420.551,-474.775 425.474,-465.393 415.775,-469.657 420.551,-474.775"/>
</g>
<!-- initializer&#45;&gt;settings -->
<g id="edge40" class="edge"><title>initializer&#45;&gt;settings</title>
<path fill="none" stroke="black" d="M397.976,-509.405C426.958,-498.295 466.601,-481.299 476.894,-468 506.824,-429.331 479.409,-405.27 497.894,-360 525.716,-291.866 578.486,-222.37 607.504,-186.959"/>
<polygon fill="black" stroke="black" points="610.316,-189.051 614,-179.118 604.926,-184.586 610.316,-189.051"/>
</g>
<!-- cycle -->
<g id="node37" class="node"><title>cycle</title>
<ellipse fill="none" stroke="black" cx="535.894" cy="-378" rx="29.4969" ry="18"/>
<text text-anchor="middle" x="535.894" y="-374.3" font-family="Times,serif" font-size="14.00">cycle</text>
</g>
<!-- initializer&#45;&gt;cycle -->
<g id="edge41" class="edge"><title>initializer&#45;&gt;cycle</title>
<path fill="none" stroke="black" d="M398.826,-509.719C440.086,-495.462 505.917,-472.259 509.894,-468 525.467,-451.323 531.766,-425.827 534.286,-406.392"/>
<polygon fill="black" stroke="black" points="537.781,-406.621 535.333,-396.313 530.819,-405.898 537.781,-406.621"/>
</g>
<!-- logger&#45;&gt;error -->
<g id="edge42" class="edge"><title>logger&#45;&gt;error</title>
<path fill="none" stroke="black" d="M414.432,-73.4647C422.599,-64.0924 433.146,-51.9898 442.222,-41.5742"/>
<polygon fill="black" stroke="black" points="444.882,-43.8499 448.813,-34.0114 439.604,-39.2511 444.882,-43.8499"/>
</g>
<!-- xml_stream -->
<g id="node26" class="node"><title>xml_stream</title>
<ellipse fill="none" stroke="black" cx="979.894" cy="-162" rx="53.0913" ry="18"/>
<text text-anchor="middle" x="979.894" y="-158.3" font-family="Times,serif" font-size="14.00">xml_stream</text>
</g>
<!-- xml_stream&#45;&gt;error -->
<g id="edge43" class="edge"><title>xml_stream&#45;&gt;error</title>
<path fill="none" stroke="black" d="M959.824,-145.184C932.7,-124.706 882.06,-89.5663 832.894,-72 716.576,-30.4408 568.749,-21.3737 500.114,-19.4628"/>
<polygon fill="black" stroke="black" points="499.876,-15.9561 489.795,-19.2137 499.707,-22.9541 499.876,-15.9561"/>
</g>
<!-- scram -->
<g id="node27" class="node"><title>scram</title>
<ellipse fill="none" stroke="black" cx="460.894" cy="-666" rx="32.4942" ry="18"/>
<text text-anchor="middle" x="460.894" y="-662.3" font-family="Times,serif" font-size="14.00">scram</text>
</g>
<!-- scram&#45;&gt;initializer -->
<g id="edge44" class="edge"><title>scram&#45;&gt;initializer</title>
<path fill="none" stroke="black" d="M450.181,-648.987C433.734,-624.403 402.126,-577.157 382.637,-548.026"/>
<polygon fill="black" stroke="black" points="385.477,-545.977 377.008,-539.612 379.659,-549.869 385.477,-545.977"/>
</g>
<!-- config -->
<g id="node30" class="node"><title>config</title>
<ellipse fill="none" stroke="black" cx="460.894" cy="-522" rx="33.2948" ry="18"/>
<text text-anchor="middle" x="460.894" y="-518.3" font-family="Times,serif" font-size="14.00">config</text>
</g>
<!-- scram&#45;&gt;config -->
<g id="edge45" class="edge"><title>scram&#45;&gt;config</title>
<path fill="none" stroke="black" d="M460.894,-647.871C460.894,-623.67 460.894,-579.211 460.894,-550.393"/>
<polygon fill="black" stroke="black" points="464.394,-550.189 460.894,-540.189 457.394,-550.189 464.394,-550.189"/>
</g>
<!-- reporter -->
<g id="node33" class="node"><title>reporter</title>
<ellipse fill="none" stroke="black" cx="775.894" cy="-594" rx="38.1938" ry="18"/>
<text text-anchor="middle" x="775.894" y="-590.3" font-family="Times,serif" font-size="14.00">reporter</text>
</g>
<!-- scram&#45;&gt;reporter -->
<g id="edge46" class="edge"><title>scram&#45;&gt;reporter</title>
<path fill="none" stroke="black" d="M490.529,-658.415C546.208,-646.041 666.693,-619.267 731.879,-604.781"/>
<polygon fill="black" stroke="black" points="732.846,-608.152 741.848,-602.566 731.327,-601.319 732.846,-608.152"/>
</g>
<!-- xml&#45;&gt;error -->
<g id="edge47" class="edge"><title>xml&#45;&gt;error</title>
<path fill="none" stroke="black" d="M441.73,-431.878C444.951,-365.939 456.568,-128.058 460.547,-46.5935"/>
<polygon fill="black" stroke="black" points="464.064,-46.3296 461.056,-36.1708 457.072,-45.9881 464.064,-46.3296"/>
</g>
<!-- preprocessor&#45;&gt;boolean_graph -->
<g id="edge48" class="edge"><title>preprocessor&#45;&gt;boolean_graph</title>
<path fill="none" stroke="black" d="M772.894,-215.697C772.894,-207.983 772.894,-198.712 772.894,-190.112"/>
<polygon fill="black" stroke="black" points="776.394,-190.104 772.894,-180.104 769.394,-190.104 776.394,-190.104"/>
</g>
<!-- config&#45;&gt;env -->
<g id="edge49" class="edge"><title>config&#45;&gt;env</title>
<path fill="none" stroke="black" d="M435.767,-510.231C430.256,-508.037 424.417,-505.84 418.894,-504 359.575,-484.231 341.63,-489.439 282.894,-468 281.044,-467.325 279.159,-466.589 277.271,-465.815"/>
<polygon fill="black" stroke="black" points="278.505,-462.534 267.941,-461.723 275.694,-468.945 278.505,-462.534"/>
</g>
<!-- config&#45;&gt;xml -->
<g id="edge50" class="edge"><title>config&#45;&gt;xml</title>
<path fill="none" stroke="black" d="M456.053,-504.055C453.793,-496.145 451.049,-486.54 448.519,-477.688"/>
<polygon fill="black" stroke="black" points="451.804,-476.443 445.691,-467.789 445.073,-478.366 451.804,-476.443"/>
</g>
<!-- config&#45;&gt;settings -->
<g id="edge51" class="edge"><title>config&#45;&gt;settings</title>
<path fill="none" stroke="black" d="M482.988,-508.53C498.593,-498.929 519.251,-484.53 533.894,-468 611.638,-380.241 582.817,-329.58 611.894,-216 614.097,-207.394 616.795,-198.094 619.343,-189.723"/>
<polygon fill="black" stroke="black" points="622.714,-190.67 622.334,-180.082 616.028,-188.596 622.714,-190.67"/>
</g>
<!-- fault_tree&#45;&gt;parameter -->
<g id="edge54" class="edge"><title>fault_tree&#45;&gt;parameter</title>
<path fill="none" stroke="black" d="M281.699,-363.003C262.681,-352.437 236.37,-337.82 215.397,-326.168"/>
<polygon fill="black" stroke="black" points="216.919,-323.01 206.478,-321.213 213.519,-329.129 216.919,-323.01"/>
</g>
<!-- fault_tree&#45;&gt;ccf_group -->
<g id="edge52" class="edge"><title>fault_tree&#45;&gt;ccf_group</title>
<path fill="none" stroke="black" d="M303.021,-360.055C301.24,-352.261 299.082,-342.822 297.084,-334.079"/>
<polygon fill="black" stroke="black" points="300.483,-333.244 294.843,-324.275 293.659,-334.804 300.483,-333.244"/>
</g>
<!-- fault_tree&#45;&gt;event -->
<g id="edge53" class="edge"><title>fault_tree&#45;&gt;event</title>
<path fill="none" stroke="black" d="M322.974,-360.92C331.583,-351.143 341.333,-337.893 345.894,-324 369.576,-251.859 344.939,-161.134 329.827,-117.216"/>
<polygon fill="black" stroke="black" points="333.052,-115.84 326.406,-107.589 326.457,-118.184 333.052,-115.84"/>
</g>
<!-- arithmetic&#45;&gt;expression -->
<g id="edge55" class="edge"><title>arithmetic&#45;&gt;expression</title>
<path fill="none" stroke="black" d="M206.432,-219.17C184.919,-208.336 154.799,-193.168 131.28,-181.324"/>
<polygon fill="black" stroke="black" points="132.805,-178.173 122.299,-176.801 129.656,-184.425 132.805,-178.173"/>
</g>
<!-- reporter&#45;&gt;risk_analysis -->
<g id="edge58" class="edge"><title>reporter&#45;&gt;risk_analysis</title>
<path fill="none" stroke="black" d="M763.138,-576.765C756.364,-568.143 747.895,-557.365 740.322,-547.727"/>
<polygon fill="black" stroke="black" points="742.894,-545.334 733.963,-539.633 737.39,-549.659 742.894,-545.334"/>
</g>
<!-- reporter&#45;&gt;version -->
<g id="edge56" class="edge"><title>reporter&#45;&gt;version</title>
<path fill="none" stroke="black" d="M788.883,-576.765C795.95,-567.93 804.83,-556.83 812.683,-547.014"/>
<polygon fill="black" stroke="black" points="815.463,-549.142 818.976,-539.147 809.996,-544.77 815.463,-549.142"/>
</g>
<!-- reporter&#45;&gt;xml_stream -->
<g id="edge57" class="edge"><title>reporter&#45;&gt;xml_stream</title>
<path fill="none" stroke="black" d="M813.676,-590.837C889.686,-584.234 1053.89,-557.63 1053.89,-451 1053.89,-451 1053.89,-451 1053.89,-305 1053.89,-259.4 1023.51,-213.937 1001.68,-187.157"/>
<polygon fill="black" stroke="black" points="1004.34,-184.874 995.227,-179.466 998.977,-189.375 1004.34,-184.874"/>
</g>
<!-- mocus&#45;&gt;zbdd -->
<g id="edge60" class="edge"><title>mocus&#45;&gt;zbdd</title>
<path fill="none" stroke="black" d="M916.795,-361.246C909.05,-351.173 899.659,-337.504 893.894,-324 885.43,-304.172 880.59,-280.196 877.917,-262.127"/>
<polygon fill="black" stroke="black" points="881.355,-261.431 876.55,-251.988 874.418,-262.366 881.355,-261.431"/>
</g>
<!-- mocus&#45;&gt;bdd -->
<g id="edge59" class="edge"><title>mocus&#45;&gt;bdd</title>
<path fill="none" stroke="black" d="M929.894,-359.697C929.894,-351.983 929.894,-342.712 929.894,-334.112"/>
<polygon fill="black" stroke="black" points="933.394,-334.104 929.894,-324.104 926.394,-334.104 933.394,-334.104"/>
</g>
<!-- settings&#45;&gt;error -->
<g id="edge61" class="edge"><title>settings&#45;&gt;error</title>
<path fill="none" stroke="black" d="M610.129,-145.804C580.213,-120.212 519.749,-68.4905 486.021,-39.6382"/>
<polygon fill="black" stroke="black" points="487.931,-36.6662 478.056,-32.8255 483.38,-41.9855 487.931,-36.6662"/>
</g>
<!-- analysis&#45;&gt;settings -->
<g id="edge62" class="edge"><title>analysis&#45;&gt;settings</title>
<path fill="none" stroke="black" d="M652.148,-216.055C648.453,-207.973 643.95,-198.121 639.831,-189.112"/>
<polygon fill="black" stroke="black" points="642.91,-187.429 635.569,-179.789 636.544,-190.339 642.91,-187.429"/>
</g>
<!-- cycle&#45;&gt;parameter -->
<g id="edge64" class="edge"><title>cycle&#45;&gt;parameter</title>
<path fill="none" stroke="black" d="M507.526,-373.195C453.995,-365.749 334.597,-347.874 235.894,-324 232.282,-323.126 228.558,-322.148 224.832,-321.113"/>
<polygon fill="black" stroke="black" points="225.616,-317.696 215.038,-318.277 223.67,-324.42 225.616,-317.696"/>
</g>
<!-- cycle&#45;&gt;event -->
<g id="edge63" class="edge"><title>cycle&#45;&gt;event</title>
<path fill="none" stroke="black" d="M523.974,-361.216C488.053,-313.655 380.701,-171.513 337.849,-114.774"/>
<polygon fill="black" stroke="black" points="340.598,-112.606 331.778,-106.735 335.012,-116.824 340.598,-112.606"/>
</g>
</g>
</svg>
