<?xml version="1.0" encoding="UTF-8" standalone="no"?>
<!DOCTYPE svg PUBLIC "-//W3C//DTD SVG 1.1//EN"
 "http://www.w3.org/Graphics/SVG/1.1/DTD/svg11.dtd">
<!-- Generated by graphviz version 2.38.0 (20140413.2041)
 -->
<!-- Title: analysis.h Pages: 1 -->
<svg width="653pt" height="364pt"
 viewBox="0.00 0.00 653.24 364.00" xmlns="http://www.w3.org/2000/svg" xmlns:xlink="http://www.w3.org/1999/xlink">
<g id="graph0" class="graph" transform="scale(1 1) rotate(0) translate(4 360)">
<title>analysis.h</title>
<polygon fill="white" stroke="none" points="-4,4 -4,-360 649.24,-360 649.24,4 -4,4"/>
<!-- Node1 -->
<g id="node1" class="node"><title>Node1</title>
<polygon fill="#bfbfbf" stroke="black" points="230.5,-336.5 230.5,-355.5 291.5,-355.5 291.5,-336.5 230.5,-336.5"/>
<text text-anchor="middle" x="261" y="-343.5" font-family="Helvetica,sans-Serif" font-size="10.00">analysis.h</text>
</g>
<!-- Node2 -->
<g id="node2" class="node"><title>Node2</title>
<g id="a_node2"><a xlink:href="analysis_8cc.xhtml" target="_top" xlink:title="Implementation of common facilities for all analysis classes. ">
<polygon fill="white" stroke="black" points="0,-280.5 0,-299.5 66,-299.5 66,-280.5 0,-280.5"/>
<text text-anchor="middle" x="33" y="-287.5" font-family="Helvetica,sans-Serif" font-size="10.00">analysis.cc</text>
</a>
</g>
</g>
<!-- Node1&#45;&gt;Node2 -->
<g id="edge1" class="edge"><title>Node1&#45;&gt;Node2</title>
<path fill="none" stroke="midnightblue" d="M220.462,-335.399C176.482,-324.983 107.093,-308.548 66.2141,-298.867"/>
<polygon fill="midnightblue" stroke="midnightblue" points="219.713,-338.818 230.251,-337.717 221.327,-332.007 219.713,-338.818"/>
</g>
<!-- Node3 -->
<g id="node3" class="node"><title>Node3</title>
<g id="a_node3"><a xlink:href="fault__tree__analysis_8h.xhtml" target="_top" xlink:title="Fault Tree Analysis. ">
<polygon fill="white" stroke="black" points="207.5,-280.5 207.5,-299.5 314.5,-299.5 314.5,-280.5 207.5,-280.5"/>
<text text-anchor="middle" x="261" y="-287.5" font-family="Helvetica,sans-Serif" font-size="10.00">fault_tree_analysis.h</text>
</a>
</g>
</g>
<!-- Node1&#45;&gt;Node3 -->
<g id="edge2" class="edge"><title>Node1&#45;&gt;Node3</title>
<path fill="none" stroke="midnightblue" d="M261,-325.805C261,-316.91 261,-306.78 261,-299.751"/>
<polygon fill="midnightblue" stroke="midnightblue" points="257.5,-326.083 261,-336.083 264.5,-326.083 257.5,-326.083"/>
</g>
<!-- Node5 -->
<g id="node5" class="node"><title>Node5</title>
<g id="a_node5"><a xlink:href="probability__analysis_8h.xhtml" target="_top" xlink:title="Contains functionality to do numerical analysis of probabilities. ">
<polygon fill="white" stroke="black" points="312,-224.5 312,-243.5 422,-243.5 422,-224.5 312,-224.5"/>
<text text-anchor="middle" x="367" y="-231.5" font-family="Helvetica,sans-Serif" font-size="10.00">probability_analysis.h</text>
</a>
</g>
</g>
<!-- Node1&#45;&gt;Node5 -->
<g id="edge23" class="edge"><title>Node1&#45;&gt;Node5</title>
<path fill="none" stroke="midnightblue" d="M284.088,-331.041C296.451,-322.908 311.464,-311.921 323,-300 340.248,-282.178 355.21,-256.843 362.419,-243.686"/>
<polygon fill="midnightblue" stroke="midnightblue" points="282.189,-328.101 275.642,-336.431 285.955,-334.002 282.189,-328.101"/>
</g>
<!-- Node11 -->
<g id="node11" class="node"><title>Node11</title>
<g id="a_node11"><a xlink:href="risk__analysis_8h.xhtml" target="_top" xlink:title="Contains the main system for performing analysis. ">
<polygon fill="white" stroke="black" points="529,-112.5 529,-131.5 611,-131.5 611,-112.5 529,-112.5"/>
<text text-anchor="middle" x="570" y="-119.5" font-family="Helvetica,sans-Serif" font-size="10.00">risk_analysis.h</text>
</a>
</g>
</g>
<!-- Node1&#45;&gt;Node11 -->
<g id="edge24" class="edge"><title>Node1&#45;&gt;Node11</title>
<path fill="none" stroke="midnightblue" d="M301.74,-343.471C385.297,-337.794 573.923,-311.267 642,-188 655.84,-162.939 619.548,-142.499 593.603,-131.593"/>
<polygon fill="midnightblue" stroke="midnightblue" points="301.381,-339.986 291.614,-344.091 301.809,-346.973 301.381,-339.986"/>
</g>
<!-- Node14 -->
<g id="node14" class="node"><title>Node14</title>
<g id="a_node14"><a xlink:href="uncertainty__analysis_8h.xhtml" target="_top" xlink:title="Provides functionality for uncertainty analysis with Monte Carlo method. ">
<polygon fill="white" stroke="black" points="183,-168.5 183,-187.5 297,-187.5 297,-168.5 183,-168.5"/>
<text text-anchor="middle" x="240" y="-175.5" font-family="Helvetica,sans-Serif" font-size="10.00">uncertainty_analysis.h</text>
</a>
</g>
</g>
<!-- Node1&#45;&gt;Node14 -->
<g id="edge25" class="edge"><title>Node1&#45;&gt;Node14</title>
<path fill="none" stroke="midnightblue" d="M235.663,-331.26C223.053,-323.425 208.336,-312.646 198,-300 180.751,-278.896 178.68,-270.658 173,-244 171.148,-235.306 168.819,-231.844 173,-224 182.293,-206.565 201.674,-194.684 217.212,-187.529"/>
<polygon fill="midnightblue" stroke="midnightblue" points="233.995,-334.34 244.381,-336.43 237.565,-328.319 233.995,-334.34"/>
</g>
<!-- Node4 -->
<g id="node4" class="node"><title>Node4</title>
<g id="a_node4"><a xlink:href="fault__tree__analysis_8cc.xhtml" target="_top" xlink:title="Implementation of fault tree analysis. ">
<polygon fill="white" stroke="black" points="182,-224.5 182,-243.5 294,-243.5 294,-224.5 182,-224.5"/>
<text text-anchor="middle" x="238" y="-231.5" font-family="Helvetica,sans-Serif" font-size="10.00">fault_tree_analysis.cc</text>
</a>
</g>
</g>
<!-- Node3&#45;&gt;Node4 -->
<g id="edge3" class="edge"><title>Node3&#45;&gt;Node4</title>
<path fill="none" stroke="midnightblue" d="M253.201,-270.69C249.325,-261.589 244.821,-251.014 241.727,-243.751"/>
<polygon fill="midnightblue" stroke="midnightblue" points="250.063,-272.254 257.202,-280.083 256.503,-269.511 250.063,-272.254"/>
</g>
<!-- Node3&#45;&gt;Node5 -->
<g id="edge4" class="edge"><title>Node3&#45;&gt;Node5</title>
<path fill="none" stroke="midnightblue" d="M287.056,-275.726C306.684,-265.727 333.028,-252.307 350.012,-243.655"/>
<polygon fill="midnightblue" stroke="midnightblue" points="285.352,-272.666 278.031,-280.324 288.53,-278.903 285.352,-272.666"/>
</g>
<!-- Node8 -->
<g id="node8" class="node"><title>Node8</title>
<g id="a_node8"><a xlink:href="reporter_8h.xhtml" target="_top" xlink:title="Reporter of results. ">
<polygon fill="white" stroke="black" points="337,-56.5 337,-75.5 395,-75.5 395,-56.5 337,-56.5"/>
<text text-anchor="middle" x="366" y="-63.5" font-family="Helvetica,sans-Serif" font-size="10.00">reporter.h</text>
</a>
</g>
</g>
<!-- Node3&#45;&gt;Node8 -->
<g id="edge21" class="edge"><title>Node3&#45;&gt;Node8</title>
<path fill="none" stroke="midnightblue" d="M222.487,-276.506C205.411,-269.311 186.235,-258.72 173,-244 131.746,-198.118 90.6684,-159.54 130,-112 155.924,-80.6661 279.285,-70.9577 336.603,-68.1102"/>
<polygon fill="midnightblue" stroke="midnightblue" points="221.651,-279.939 232.237,-280.355 224.221,-273.428 221.651,-279.939"/>
</g>
<!-- Node3&#45;&gt;Node11 -->
<g id="edge22" class="edge"><title>Node3&#45;&gt;Node11</title>
<path fill="none" stroke="midnightblue" d="M324.534,-280.731C419.144,-266.962 589.836,-236.011 626,-188 641.952,-166.822 608.647,-143.67 586.871,-131.528"/>
<polygon fill="midnightblue" stroke="midnightblue" points="323.908,-277.285 314.505,-282.168 324.901,-284.215 323.908,-277.285"/>
</g>
<!-- Node6 -->
<g id="node6" class="node"><title>Node6</title>
<g id="a_node6"><a xlink:href="importance__analysis_8h.xhtml" target="_top" xlink:title="Contains functionality to do numerical analysis of importance factors. ">
<polygon fill="white" stroke="black" points="353,-168.5 353,-187.5 467,-187.5 467,-168.5 353,-168.5"/>
<text text-anchor="middle" x="410" y="-175.5" font-family="Helvetica,sans-Serif" font-size="10.00">importance_analysis.h</text>
</a>
</g>
</g>
<!-- Node5&#45;&gt;Node6 -->
<g id="edge5" class="edge"><title>Node5&#45;&gt;Node6</title>
<path fill="none" stroke="midnightblue" d="M380.422,-216.144C387.914,-206.736 396.937,-195.405 403.032,-187.751"/>
<polygon fill="midnightblue" stroke="midnightblue" points="377.592,-214.08 374.101,-224.083 383.068,-218.44 377.592,-214.08"/>
</g>
<!-- Node5&#45;&gt;Node8 -->
<g id="edge15" class="edge"><title>Node5&#45;&gt;Node8</title>
<path fill="none" stroke="midnightblue" d="M355.578,-215.442C351.017,-207.419 346.307,-197.582 344,-188 341.166,-176.228 338.556,-139.869 345,-112 348.108,-98.5605 355.534,-84.3423 360.667,-75.5685"/>
<polygon fill="midnightblue" stroke="midnightblue" points="352.711,-217.463 360.895,-224.191 358.692,-213.827 352.711,-217.463"/>
</g>
<!-- Node5&#45;&gt;Node11 -->
<g id="edge16" class="edge"><title>Node5&#45;&gt;Node11</title>
<path fill="none" stroke="midnightblue" d="M432.145,-230.067C496.28,-225.652 587.765,-214.731 610,-188 625.422,-169.46 598.698,-144.429 581.96,-131.506"/>
<polygon fill="midnightblue" stroke="midnightblue" points="431.853,-226.579 422.102,-230.722 432.308,-233.564 431.853,-226.579"/>
</g>
<!-- Node13 -->
<g id="node13" class="node"><title>Node13</title>
<g id="a_node13"><a xlink:href="probability__analysis_8cc.xhtml" target="_top" xlink:title="Implementations of functions to provide probability analysis. ">
<polygon fill="white" stroke="black" points="485,-168.5 485,-187.5 601,-187.5 601,-168.5 485,-168.5"/>
<text text-anchor="middle" x="543" y="-175.5" font-family="Helvetica,sans-Serif" font-size="10.00">probability_analysis.cc</text>
</a>
</g>
</g>
<!-- Node5&#45;&gt;Node13 -->
<g id="edge14" class="edge"><title>Node5&#45;&gt;Node13</title>
<path fill="none" stroke="midnightblue" d="M404.689,-221.436C437.872,-211.255 485.428,-196.664 515.243,-187.516"/>
<polygon fill="midnightblue" stroke="midnightblue" points="403.421,-218.164 394.888,-224.444 405.475,-224.856 403.421,-218.164"/>
</g>
<!-- Node5&#45;&gt;Node14 -->
<g id="edge17" class="edge"><title>Node5&#45;&gt;Node14</title>
<path fill="none" stroke="midnightblue" d="M337.609,-220.503C313.8,-210.38 280.894,-196.388 260.029,-187.516"/>
<polygon fill="midnightblue" stroke="midnightblue" points="336.304,-223.751 346.876,-224.444 339.043,-217.31 336.304,-223.751"/>
</g>
<!-- Node7 -->
<g id="node7" class="node"><title>Node7</title>
<g id="a_node7"><a xlink:href="importance__analysis_8cc.xhtml" target="_top" xlink:title="Implementations of functions to provide quantitative importance informations. ">
<polygon fill="white" stroke="black" points="353.5,-112.5 353.5,-131.5 472.5,-131.5 472.5,-112.5 353.5,-112.5"/>
<text text-anchor="middle" x="413" y="-119.5" font-family="Helvetica,sans-Serif" font-size="10.00">importance_analysis.cc</text>
</a>
</g>
</g>
<!-- Node6&#45;&gt;Node7 -->
<g id="edge6" class="edge"><title>Node6&#45;&gt;Node7</title>
<path fill="none" stroke="midnightblue" d="M411.066,-157.805C411.561,-148.91 412.123,-138.78 412.514,-131.751"/>
<polygon fill="midnightblue" stroke="midnightblue" points="407.556,-157.904 410.495,-168.083 414.545,-158.293 407.556,-157.904"/>
</g>
<!-- Node6&#45;&gt;Node8 -->
<g id="edge7" class="edge"><title>Node6&#45;&gt;Node8</title>
<path fill="none" stroke="midnightblue" d="M442.897,-164.112C468.176,-152.204 496.51,-133.193 482,-112 462.657,-83.7494 422.8,-73.2309 395.245,-69.3166"/>
<polygon fill="midnightblue" stroke="midnightblue" points="441.165,-161.052 433.454,-168.317 444.013,-167.446 441.165,-161.052"/>
</g>
<!-- Node6&#45;&gt;Node11 -->
<g id="edge10" class="edge"><title>Node6&#45;&gt;Node11</title>
<path fill="none" stroke="midnightblue" d="M445.046,-165.172C475.174,-155.004 517.896,-140.585 544.766,-131.516"/>
<polygon fill="midnightblue" stroke="midnightblue" points="443.708,-161.929 435.352,-168.444 445.947,-168.562 443.708,-161.929"/>
</g>
<!-- Node9 -->
<g id="node9" class="node"><title>Node9</title>
<g id="a_node9"><a xlink:href="reporter_8cc.xhtml" target="_top" xlink:title="Implements Reporter class. ">
<polygon fill="white" stroke="black" points="334.5,-0.5 334.5,-19.5 397.5,-19.5 397.5,-0.5 334.5,-0.5"/>
<text text-anchor="middle" x="366" y="-7.5" font-family="Helvetica,sans-Serif" font-size="10.00">reporter.cc</text>
</a>
</g>
</g>
<!-- Node8&#45;&gt;Node9 -->
<g id="edge8" class="edge"><title>Node8&#45;&gt;Node9</title>
<path fill="none" stroke="midnightblue" d="M366,-45.8045C366,-36.9102 366,-26.7798 366,-19.7511"/>
<polygon fill="midnightblue" stroke="midnightblue" points="362.5,-46.083 366,-56.083 369.5,-46.083 362.5,-46.083"/>
</g>
<!-- Node10 -->
<g id="node10" class="node"><title>Node10</title>
<g id="a_node10"><a xlink:href="scram_8cc.xhtml" target="_top" xlink:title="Main entrance. ">
<polygon fill="white" stroke="black" points="498.5,-0.5 498.5,-19.5 555.5,-19.5 555.5,-0.5 498.5,-0.5"/>
<text text-anchor="middle" x="527" y="-7.5" font-family="Helvetica,sans-Serif" font-size="10.00">scram.cc</text>
</a>
</g>
</g>
<!-- Node8&#45;&gt;Node10 -->
<g id="edge9" class="edge"><title>Node8&#45;&gt;Node10</title>
<path fill="none" stroke="midnightblue" d="M401.265,-53.172C431.581,-43.0039 474.57,-28.5852 501.608,-19.5164"/>
<polygon fill="midnightblue" stroke="midnightblue" points="399.879,-49.9452 391.511,-56.4435 402.105,-56.5819 399.879,-49.9452"/>
</g>
<!-- Node11&#45;&gt;Node8 -->
<g id="edge11" class="edge"><title>Node11&#45;&gt;Node8</title>
<path fill="none" stroke="midnightblue" d="M527.778,-109.824C488.15,-99.3339 429.921,-83.9203 395.199,-74.729"/>
<polygon fill="midnightblue" stroke="midnightblue" points="527.113,-113.268 537.676,-112.444 528.904,-106.501 527.113,-113.268"/>
</g>
<!-- Node11&#45;&gt;Node10 -->
<g id="edge13" class="edge"><title>Node11&#45;&gt;Node10</title>
<path fill="none" stroke="midnightblue" d="M565.705,-102.622C562.36,-89.4131 557.242,-71.3094 551,-56 545.651,-42.8819 537.613,-28.5833 532.337,-19.7041"/>
<polygon fill="midnightblue" stroke="midnightblue" points="562.318,-103.507 568.083,-112.396 569.12,-101.852 562.318,-103.507"/>
</g>
<!-- Node12 -->
<g id="node12" class="node"><title>Node12</title>
<g id="a_node12"><a xlink:href="risk__analysis_8cc.xhtml" target="_top" xlink:title="Implementation of risk analysis handler. ">
<polygon fill="white" stroke="black" points="454.5,-56.5 454.5,-75.5 541.5,-75.5 541.5,-56.5 454.5,-56.5"/>
<text text-anchor="middle" x="498" y="-63.5" font-family="Helvetica,sans-Serif" font-size="10.00">risk_analysis.cc</text>
</a>
</g>
</g>
<!-- Node11&#45;&gt;Node12 -->
<g id="edge12" class="edge"><title>Node11&#45;&gt;Node12</title>
<path fill="none" stroke="midnightblue" d="M550.134,-106.101C537.177,-96.3824 520.703,-84.0269 509.779,-75.8339"/>
<polygon fill="midnightblue" stroke="midnightblue" points="548.332,-109.124 558.432,-112.324 552.532,-103.524 548.332,-109.124"/>
</g>
<!-- Node14&#45;&gt;Node8 -->
<g id="edge19" class="edge"><title>Node14&#45;&gt;Node8</title>
<path fill="none" stroke="midnightblue" d="M256.556,-161.36C270.797,-148.025 291.988,-128.458 311,-112 325.925,-99.0803 343.678,-84.7321 354.894,-75.7878"/>
<polygon fill="midnightblue" stroke="midnightblue" points="253.933,-159.022 249.044,-168.421 258.728,-164.122 253.933,-159.022"/>
</g>
<!-- Node14&#45;&gt;Node11 -->
<g id="edge18" class="edge"><title>Node14&#45;&gt;Node11</title>
<path fill="none" stroke="midnightblue" d="M302.215,-166.819C368.63,-155.951 471.97,-139.041 528.902,-129.725"/>
<polygon fill="midnightblue" stroke="midnightblue" points="301.593,-163.375 292.289,-168.444 302.723,-170.283 301.593,-163.375"/>
</g>
<!-- Node15 -->
<g id="node15" class="node"><title>Node15</title>
<g id="a_node15"><a xlink:href="uncertainty__analysis_8cc.xhtml" target="_top" xlink:title="Implements the functionality to run Monte Carlo simulations. ">
<polygon fill="white" stroke="black" points="139.5,-112.5 139.5,-131.5 258.5,-131.5 258.5,-112.5 139.5,-112.5"/>
<text text-anchor="middle" x="199" y="-119.5" font-family="Helvetica,sans-Serif" font-size="10.00">uncertainty_analysis.cc</text>
</a>
</g>
</g>
<!-- Node14&#45;&gt;Node15 -->
<g id="edge20" class="edge"><title>Node14&#45;&gt;Node15</title>
<path fill="none" stroke="midnightblue" d="M226.983,-159.855C219.883,-150.505 211.396,-139.327 205.644,-131.751"/>
<polygon fill="midnightblue" stroke="midnightblue" points="224.395,-162.235 233.23,-168.083 229.97,-158.002 224.395,-162.235"/>
</g>
</g>
</svg>
