<?xml version="1.0" encoding="UTF-8" standalone="no"?>
<!DOCTYPE svg PUBLIC "-//W3C//DTD SVG 1.1//EN"
 "http://www.w3.org/Graphics/SVG/1.1/DTD/svg11.dtd">
<!-- Generated by graphviz version 2.38.0 (20140413.2041)
 -->
<!-- Title: arithmetic.h Pages: 1 -->
<svg width="633pt" height="207pt"
 viewBox="0.00 0.00 633.00 207.00" xmlns="http://www.w3.org/2000/svg" xmlns:xlink="http://www.w3.org/1999/xlink">
<g id="graph0" class="graph" transform="scale(1 1) rotate(0) translate(4 203)">
<title>arithmetic.h</title>
<polygon fill="white" stroke="none" points="-4,4 -4,-203 629,-203 629,4 -4,4"/>
<!-- Node1 -->
<g id="node1" class="node"><title>Node1</title>
<polygon fill="#bfbfbf" stroke="black" points="506,-179.5 506,-198.5 574,-198.5 574,-179.5 506,-179.5"/>
<text text-anchor="middle" x="540" y="-186.5" font-family="Helvetica,sans-Serif" font-size="10.00">arithmetic.h</text>
</g>
<!-- Node2 -->
<g id="node2" class="node"><title>Node2</title>
<polygon fill="white" stroke="#bfbfbf" points="581,-6 581,-25 625,-25 625,-6 581,-6"/>
<text text-anchor="middle" x="603" y="-13" font-family="Helvetica,sans-Serif" font-size="10.00">vector</text>
</g>
<!-- Node1&#45;&gt;Node2 -->
<g id="edge1" class="edge"><title>Node1&#45;&gt;Node2</title>
<path fill="none" stroke="midnightblue" d="M543.211,-179.26C553.027,-152.536 582.79,-71.5174 596.255,-34.8618"/>
<polygon fill="midnightblue" stroke="midnightblue" points="599.708,-35.613 599.87,-25.0194 593.137,-33.1992 599.708,-35.613"/>
</g>
<!-- Node3 -->
<g id="node3" class="node"><title>Node3</title>
<g id="a_node3"><a xlink:href="expression_8h.xhtml" target="_top" xlink:title="Provides the base class for all expressions and units for expression values. ">
<polygon fill="white" stroke="black" points="381.5,-123.5 381.5,-142.5 470.5,-142.5 470.5,-123.5 381.5,-123.5"/>
<text text-anchor="middle" x="426" y="-130.5" font-family="Helvetica,sans-Serif" font-size="10.00">src/expression.h</text>
</a>
</g>
</g>
<!-- Node1&#45;&gt;Node3 -->
<g id="edge2" class="edge"><title>Node1&#45;&gt;Node3</title>
<path fill="none" stroke="midnightblue" d="M521.936,-179.444C503.425,-170.675 474.419,-156.935 453.145,-146.858"/>
<polygon fill="midnightblue" stroke="midnightblue" points="454.515,-143.634 443.979,-142.516 451.518,-149.96 454.515,-143.634"/>
</g>
<!-- Node3&#45;&gt;Node2 -->
<g id="edge5" class="edge"><title>Node3&#45;&gt;Node2</title>
<path fill="none" stroke="midnightblue" d="M462.751,-123.451C487.582,-116.448 520.227,-104.759 545,-87 565.055,-72.6236 582.168,-49.6588 592.5,-33.8689"/>
<polygon fill="midnightblue" stroke="midnightblue" points="595.653,-35.4318 598.023,-25.1055 589.73,-31.6996 595.653,-35.4318"/>
</g>
<!-- Node4 -->
<g id="node4" class="node"><title>Node4</title>
<polygon fill="white" stroke="#bfbfbf" points="0,-6 0,-25 46,-25 46,-6 0,-6"/>
<text text-anchor="middle" x="23" y="-13" font-family="Helvetica,sans-Serif" font-size="10.00">cstdint</text>
</g>
<!-- Node3&#45;&gt;Node4 -->
<g id="edge3" class="edge"><title>Node3&#45;&gt;Node4</title>
<path fill="none" stroke="midnightblue" d="M386.643,-123.468C318.196,-108.149 173.233,-73.5728 55,-31 53.3824,-30.4176 51.7331,-29.7876 50.0787,-29.1276"/>
<polygon fill="midnightblue" stroke="midnightblue" points="51.3035,-25.845 40.732,-25.1417 48.5575,-32.2839 51.3035,-25.845"/>
</g>
<!-- Node5 -->
<g id="node5" class="node"><title>Node5</title>
<polygon fill="white" stroke="#bfbfbf" points="349,-67.5 349,-86.5 401,-86.5 401,-67.5 349,-67.5"/>
<text text-anchor="middle" x="375" y="-74.5" font-family="Helvetica,sans-Serif" font-size="10.00">memory</text>
</g>
<!-- Node3&#45;&gt;Node5 -->
<g id="edge4" class="edge"><title>Node3&#45;&gt;Node5</title>
<path fill="none" stroke="midnightblue" d="M417.578,-123.083C410.152,-115.22 399.148,-103.569 390.188,-94.0813"/>
<polygon fill="midnightblue" stroke="midnightblue" points="392.676,-91.618 383.265,-86.7511 387.587,-96.4244 392.676,-91.618"/>
</g>
<!-- Node6 -->
<g id="node6" class="node"><title>Node6</title>
<polygon fill="white" stroke="#bfbfbf" points="419.5,-67.5 419.5,-86.5 536.5,-86.5 536.5,-67.5 419.5,-67.5"/>
<text text-anchor="middle" x="478" y="-74.5" font-family="Helvetica,sans-Serif" font-size="10.00">boost/noncopyable.hpp</text>
</g>
<!-- Node3&#45;&gt;Node6 -->
<g id="edge6" class="edge"><title>Node3&#45;&gt;Node6</title>
<path fill="none" stroke="midnightblue" d="M434.587,-123.083C442.159,-115.22 453.378,-103.569 462.514,-94.0813"/>
<polygon fill="midnightblue" stroke="midnightblue" points="465.158,-96.3821 469.573,-86.7511 460.115,-91.5266 465.158,-96.3821"/>
</g>
<!-- Node7 -->
<g id="node7" class="node"><title>Node7</title>
<g id="a_node7"><a xlink:href="element_8h.xhtml" target="_top" xlink:title="Helper classes, structs, and properties common to all other classes. ">
<polygon fill="white" stroke="black" points="271.5,-67.5 271.5,-86.5 330.5,-86.5 330.5,-67.5 271.5,-67.5"/>
<text text-anchor="middle" x="301" y="-74.5" font-family="Helvetica,sans-Serif" font-size="10.00">element.h</text>
</a>
</g>
</g>
<!-- Node3&#45;&gt;Node7 -->
<g id="edge7" class="edge"><title>Node3&#45;&gt;Node7</title>
<path fill="none" stroke="midnightblue" d="M406.193,-123.444C385.713,-114.596 353.517,-100.687 330.135,-90.5865"/>
<polygon fill="midnightblue" stroke="midnightblue" points="331.282,-87.2692 320.714,-86.5164 328.506,-93.6953 331.282,-87.2692"/>
</g>
<!-- Node7&#45;&gt;Node2 -->
<g id="edge10" class="edge"><title>Node7&#45;&gt;Node2</title>
<path fill="none" stroke="midnightblue" d="M330.763,-68.8965C333.875,-68.2241 336.998,-67.5785 340,-67 442.46,-47.2554 472.184,-61.4099 572,-31 573.876,-30.4286 575.783,-29.7635 577.682,-29.0385"/>
<polygon fill="midnightblue" stroke="midnightblue" points="579.123,-32.2288 586.933,-25.0691 576.363,-25.796 579.123,-32.2288"/>
</g>
<!-- Node7&#45;&gt;Node4 -->
<g id="edge8" class="edge"><title>Node7&#45;&gt;Node4</title>
<path fill="none" stroke="midnightblue" d="M271.28,-72.9401C224.462,-67.5938 131.036,-54.7867 55,-31 53.1227,-30.4127 51.2105,-29.7433 49.3021,-29.0217"/>
<polygon fill="midnightblue" stroke="midnightblue" points="50.5457,-25.7481 39.9696,-25.1185 47.8447,-32.206 50.5457,-25.7481"/>
</g>
<!-- Node8 -->
<g id="node8" class="node"><title>Node8</title>
<polygon fill="white" stroke="#bfbfbf" points="64.5,-6 64.5,-25 105.5,-25 105.5,-6 64.5,-6"/>
<text text-anchor="middle" x="85" y="-13" font-family="Helvetica,sans-Serif" font-size="10.00">string</text>
</g>
<!-- Node7&#45;&gt;Node8 -->
<g id="edge9" class="edge"><title>Node7&#45;&gt;Node8</title>
<path fill="none" stroke="midnightblue" d="M271.239,-71.004C233.822,-64.2344 167.954,-50.6887 114,-31 112.612,-30.4935 111.204,-29.9384 109.794,-29.35"/>
<polygon fill="midnightblue" stroke="midnightblue" points="111.214,-26.1507 100.667,-25.1459 108.285,-32.5086 111.214,-26.1507"/>
</g>
<!-- Node9 -->
<g id="node9" class="node"><title>Node9</title>
<polygon fill="white" stroke="#bfbfbf" points="123.5,-6 123.5,-25 280.5,-25 280.5,-6 123.5,-6"/>
<text text-anchor="middle" x="202" y="-13" font-family="Helvetica,sans-Serif" font-size="10.00">boost/multi_index_container.hpp</text>
</g>
<!-- Node7&#45;&gt;Node9 -->
<g id="edge11" class="edge"><title>Node7&#45;&gt;Node9</title>
<path fill="none" stroke="midnightblue" d="M286.816,-67.4751C270.642,-57.7548 243.974,-41.7266 224.857,-30.2372"/>
<polygon fill="midnightblue" stroke="midnightblue" points="226.532,-27.1606 216.158,-25.0091 222.926,-33.1603 226.532,-27.1606"/>
</g>
<!-- Node10 -->
<g id="node10" class="node"><title>Node10</title>
<polygon fill="white" stroke="#bfbfbf" points="299,-0.5 299,-30.5 427,-30.5 427,-0.5 299,-0.5"/>
<text text-anchor="start" x="307" y="-18.5" font-family="Helvetica,sans-Serif" font-size="10.00">boost/multi_index/hashed</text>
<text text-anchor="middle" x="363" y="-7.5" font-family="Helvetica,sans-Serif" font-size="10.00">_index.hpp</text>
</g>
<!-- Node7&#45;&gt;Node10 -->
<g id="edge12" class="edge"><title>Node7&#45;&gt;Node10</title>
<path fill="none" stroke="midnightblue" d="M309.883,-67.4751C317.966,-59.7179 330.235,-47.9435 340.946,-37.6645"/>
<polygon fill="midnightblue" stroke="midnightblue" points="343.596,-39.9724 348.388,-30.523 338.749,-34.9218 343.596,-39.9724"/>
</g>
<!-- Node11 -->
<g id="node11" class="node"><title>Node11</title>
<polygon fill="white" stroke="#bfbfbf" points="445,-0.5 445,-30.5 563,-30.5 563,-0.5 445,-0.5"/>
<text text-anchor="start" x="453" y="-18.5" font-family="Helvetica,sans-Serif" font-size="10.00">boost/multi_index/mem</text>
<text text-anchor="middle" x="504" y="-7.5" font-family="Helvetica,sans-Serif" font-size="10.00">_fun.hpp</text>
</g>
<!-- Node7&#45;&gt;Node11 -->
<g id="edge13" class="edge"><title>Node7&#45;&gt;Node11</title>
<path fill="none" stroke="midnightblue" d="M330.085,-67.4751C360.276,-58.6259 408.304,-44.5487 446.247,-33.4277"/>
<polygon fill="midnightblue" stroke="midnightblue" points="447.545,-36.6944 456.157,-30.523 445.576,-29.977 447.545,-36.6944"/>
</g>
</g>
</svg>
