<?xml version="1.0" encoding="UTF-8" standalone="no"?>
<!DOCTYPE svg PUBLIC "-//W3C//DTD SVG 1.1//EN"
 "http://www.w3.org/Graphics/SVG/1.1/DTD/svg11.dtd">
<!-- Generated by graphviz version 2.38.0 (20140413.2041)
 -->
<!-- Title: arithmetic.cc Pages: 1 -->
<!--zoomable 263 -->
<svg id="main" version="1.1" xmlns="http://www.w3.org/2000/svg" xmlns:xlink="http://www.w3.org/1999/xlink" xml:space="preserve" onload="init(evt)">
<style type="text/css"><![CDATA[
.edge:hover path { stroke: red; }
.edge:hover polygon { stroke: red; fill: red; }
]]></style>
<script type="text/javascript"><![CDATA[
var edges = document.getElementsByTagName('g');
if (edges && edges.length) {
  for (var i=0;i<edges.length;i++) {
    if (edges[i].id.substr(0,4)=='edge') {
      edges[i].setAttribute('class','edge');
    }
  }
}
]]></script>
        <defs>
                <circle id="rim" cx="0" cy="0" r="7"/>
                <circle id="rim2" cx="0" cy="0" r="3.5"/>
                <g id="zoomPlus">
                        <use xlink:href="#rim" fill="#404040">
                                <set attributeName="fill" to="#808080" begin="zoomplus.mouseover" end="zoomplus.mouseout"/>
                        </use>
                        <path d="M-4,0h8M0,-4v8" fill="none" stroke="white" stroke-width="1.5" pointer-events="none"/>
                </g>
                <g id="zoomMin">
                        <use xlink:href="#rim" fill="#404040">
                                <set attributeName="fill" to="#808080" begin="zoomminus.mouseover" end="zoomminus.mouseout"/>
                        </use>
                        <path d="M-4,0h8" fill="none" stroke="white" stroke-width="1.5" pointer-events="none"/>
                </g>
                <g id="dirArrow">
                        <path fill="none" stroke="white" stroke-width="1.5" d="M0,-3.0v7 M-2.5,-0.5L0,-3.0L2.5,-0.5"/>
                </g>
               <g id="resetDef">
                       <use xlink:href="#rim2" fill="#404040">
                               <set attributeName="fill" to="#808080" begin="reset.mouseover" end="reset.mouseout"/>
                       </use>
               </g>
        </defs>

<script type="text/javascript">
var viewWidth = 649;
var viewHeight = 263;
var sectionId = 'dynsection-0';
</script>
<script xlink:href="svgpan.js"/>
<svg id="graph" class="graph">
<g id="viewport">
<title>arithmetic.cc</title>
<polygon fill="white" stroke="none" points="-4,4 -4,-259 645,-259 645,4 -4,4"/>
<!-- Node1 -->
<g id="node1" class="node"><title>Node1</title>
<polygon fill="#bfbfbf" stroke="black" points="499.5,-235.5 499.5,-254.5 572.5,-254.5 572.5,-235.5 499.5,-235.5"/>
<text text-anchor="middle" x="536" y="-242.5" font-family="Helvetica,sans-Serif" font-size="10.00">arithmetic.cc</text>
</g>
<!-- Node2 -->
<g id="node2" class="node"><title>Node2</title>
<g id="a_node2"><a xlink:href="arithmetic_8h.xhtml" target="_top" xlink:title="A collection of arithmetic expressions. ">
<polygon fill="white" stroke="black" points="167,-179.5 167,-198.5 235,-198.5 235,-179.5 167,-179.5"/>
<text text-anchor="middle" x="201" y="-186.5" font-family="Helvetica,sans-Serif" font-size="10.00">arithmetic.h</text>
</a>
</g>
</g>
<!-- Node1&#45;&gt;Node2 -->
<g id="edge1" class="edge"><title>Node1&#45;&gt;Node2</title>
<path fill="none" stroke="midnightblue" d="M499.191,-238.067C437.237,-228.08 312.365,-207.951 245.559,-197.183"/>
<polygon fill="midnightblue" stroke="midnightblue" points="245.784,-193.674 235.355,-195.538 244.67,-200.585 245.784,-193.674"/>
</g>
<!-- Node13 -->
<g id="node13" class="node"><title>Node13</title>
<polygon fill="white" stroke="#bfbfbf" points="585,-179.5 585,-198.5 641,-198.5 641,-179.5 585,-179.5"/>
<text text-anchor="middle" x="613" y="-186.5" font-family="Helvetica,sans-Serif" font-size="10.00">algorithm</text>
</g>
<!-- Node1&#45;&gt;Node13 -->
<g id="edge15" class="edge"><title>Node1&#45;&gt;Node13</title>
<path fill="none" stroke="midnightblue" d="M548.371,-235.324C560.158,-227.058 578.132,-214.453 592.136,-204.632"/>
<polygon fill="midnightblue" stroke="midnightblue" points="594.482,-207.262 600.659,-198.655 590.462,-201.531 594.482,-207.262"/>
</g>
<!-- Node14 -->
<g id="node14" class="node"><title>Node14</title>
<g id="a_node14"><a xlink:href="error_8h.xhtml" target="_top" xlink:title="Exceptions for SCRAM. ">
<polygon fill="white" stroke="black" points="505.5,-179.5 505.5,-198.5 566.5,-198.5 566.5,-179.5 505.5,-179.5"/>
<text text-anchor="middle" x="536" y="-186.5" font-family="Helvetica,sans-Serif" font-size="10.00">src/error.h</text>
</a>
</g>
</g>
<!-- Node1&#45;&gt;Node14 -->
<g id="edge16" class="edge"><title>Node1&#45;&gt;Node14</title>
<path fill="none" stroke="midnightblue" d="M536,-235.083C536,-228.006 536,-217.861 536,-208.986"/>
<polygon fill="midnightblue" stroke="midnightblue" points="539.5,-208.751 536,-198.751 532.5,-208.751 539.5,-208.751"/>
</g>
<!-- Node3 -->
<g id="node3" class="node"><title>Node3</title>
<polygon fill="white" stroke="#bfbfbf" points="0,-6 0,-25 44,-25 44,-6 0,-6"/>
<text text-anchor="middle" x="22" y="-13" font-family="Helvetica,sans-Serif" font-size="10.00">vector</text>
</g>
<!-- Node2&#45;&gt;Node3 -->
<g id="edge2" class="edge"><title>Node2&#45;&gt;Node3</title>
<path fill="none" stroke="midnightblue" d="M189.98,-179.335C178.878,-170.485 161.379,-156.21 147,-143 105.532,-104.904 59.7054,-56.883 36.778,-32.4151"/>
<polygon fill="midnightblue" stroke="midnightblue" points="39.3023,-29.9901 29.9199,-25.0686 34.1853,-34.7669 39.3023,-29.9901"/>
</g>
<!-- Node4 -->
<g id="node4" class="node"><title>Node4</title>
<g id="a_node4"><a xlink:href="expression_8h.xhtml" target="_top" xlink:title="Provides the base class for all expressions and units for expression values. ">
<polygon fill="white" stroke="black" points="156.5,-123.5 156.5,-142.5 245.5,-142.5 245.5,-123.5 156.5,-123.5"/>
<text text-anchor="middle" x="201" y="-130.5" font-family="Helvetica,sans-Serif" font-size="10.00">src/expression.h</text>
</a>
</g>
</g>
<!-- Node2&#45;&gt;Node4 -->
<g id="edge3" class="edge"><title>Node2&#45;&gt;Node4</title>
<path fill="none" stroke="midnightblue" d="M201,-179.083C201,-172.006 201,-161.861 201,-152.986"/>
<polygon fill="midnightblue" stroke="midnightblue" points="204.5,-152.751 201,-142.751 197.5,-152.751 204.5,-152.751"/>
</g>
<!-- Node4&#45;&gt;Node3 -->
<g id="edge6" class="edge"><title>Node4&#45;&gt;Node3</title>
<path fill="none" stroke="midnightblue" d="M187.546,-123.319C156.965,-103.586 81.9753,-55.1991 44.3274,-30.9068"/>
<polygon fill="midnightblue" stroke="midnightblue" points="45.9105,-27.7629 35.6102,-25.282 42.1152,-33.6448 45.9105,-27.7629"/>
</g>
<!-- Node5 -->
<g id="node5" class="node"><title>Node5</title>
<polygon fill="white" stroke="#bfbfbf" points="62,-6 62,-25 108,-25 108,-6 62,-6"/>
<text text-anchor="middle" x="85" y="-13" font-family="Helvetica,sans-Serif" font-size="10.00">cstdint</text>
</g>
<!-- Node4&#45;&gt;Node5 -->
<g id="edge4" class="edge"><title>Node4&#45;&gt;Node5</title>
<path fill="none" stroke="midnightblue" d="M192.281,-123.319C172.883,-104.004 125.913,-57.2366 101.052,-32.4827"/>
<polygon fill="midnightblue" stroke="midnightblue" points="103.376,-29.8576 93.82,-25.282 98.4368,-34.818 103.376,-29.8576"/>
</g>
<!-- Node6 -->
<g id="node6" class="node"><title>Node6</title>
<polygon fill="white" stroke="#bfbfbf" points="249,-67.5 249,-86.5 301,-86.5 301,-67.5 249,-67.5"/>
<text text-anchor="middle" x="275" y="-74.5" font-family="Helvetica,sans-Serif" font-size="10.00">memory</text>
</g>
<!-- Node4&#45;&gt;Node6 -->
<g id="edge5" class="edge"><title>Node4&#45;&gt;Node6</title>
<path fill="none" stroke="midnightblue" d="M212.889,-123.324C224.15,-115.107 241.287,-102.602 254.709,-92.8069"/>
<polygon fill="midnightblue" stroke="midnightblue" points="256.88,-95.5559 262.894,-86.8339 252.753,-89.9014 256.88,-95.5559"/>
</g>
<!-- Node7 -->
<g id="node7" class="node"><title>Node7</title>
<polygon fill="white" stroke="#bfbfbf" points="319.5,-67.5 319.5,-86.5 436.5,-86.5 436.5,-67.5 319.5,-67.5"/>
<text text-anchor="middle" x="378" y="-74.5" font-family="Helvetica,sans-Serif" font-size="10.00">boost/noncopyable.hpp</text>
</g>
<!-- Node4&#45;&gt;Node7 -->
<g id="edge7" class="edge"><title>Node4&#45;&gt;Node7</title>
<path fill="none" stroke="midnightblue" d="M229.046,-123.444C259.082,-114.28 306.913,-99.6876 340.243,-89.5192"/>
<polygon fill="midnightblue" stroke="midnightblue" points="341.542,-92.7822 350.085,-86.5164 339.499,-86.0869 341.542,-92.7822"/>
</g>
<!-- Node8 -->
<g id="node8" class="node"><title>Node8</title>
<g id="a_node8"><a xlink:href="element_8h.xhtml" target="_top" xlink:title="Helper classes, structs, and properties common to all other classes. ">
<polygon fill="white" stroke="black" points="171.5,-67.5 171.5,-86.5 230.5,-86.5 230.5,-67.5 171.5,-67.5"/>
<text text-anchor="middle" x="201" y="-74.5" font-family="Helvetica,sans-Serif" font-size="10.00">element.h</text>
</a>
</g>
</g>
<!-- Node4&#45;&gt;Node8 -->
<g id="edge8" class="edge"><title>Node4&#45;&gt;Node8</title>
<path fill="none" stroke="midnightblue" d="M201,-123.083C201,-116.006 201,-105.861 201,-96.9865"/>
<polygon fill="midnightblue" stroke="midnightblue" points="204.5,-96.751 201,-86.7511 197.5,-96.7511 204.5,-96.751"/>
</g>
<!-- Node8&#45;&gt;Node3 -->
<g id="edge11" class="edge"><title>Node8&#45;&gt;Node3</title>
<path fill="none" stroke="midnightblue" d="M171.379,-68.3312C141.2,-60.2077 93.2435,-46.4398 53,-31 51.5785,-30.4546 50.131,-29.8732 48.6769,-29.2683"/>
<polygon fill="midnightblue" stroke="midnightblue" points="49.7525,-25.9169 39.1915,-25.0712 46.92,-32.3183 49.7525,-25.9169"/>
</g>
<!-- Node8&#45;&gt;Node5 -->
<g id="edge9" class="edge"><title>Node8&#45;&gt;Node5</title>
<path fill="none" stroke="midnightblue" d="M184.38,-67.4751C165.085,-57.578 133.041,-41.1416 110.569,-29.6151"/>
<polygon fill="midnightblue" stroke="midnightblue" points="112.084,-26.4589 101.589,-25.0091 108.89,-32.6873 112.084,-26.4589"/>
</g>
<!-- Node9 -->
<g id="node9" class="node"><title>Node9</title>
<polygon fill="white" stroke="#bfbfbf" points="584.5,-6 584.5,-25 625.5,-25 625.5,-6 584.5,-6"/>
<text text-anchor="middle" x="605" y="-13" font-family="Helvetica,sans-Serif" font-size="10.00">string</text>
</g>
<!-- Node8&#45;&gt;Node9 -->
<g id="edge10" class="edge"><title>Node8&#45;&gt;Node9</title>
<path fill="none" stroke="midnightblue" d="M230.737,-68.7514C233.854,-68.1072 236.985,-67.508 240,-67 387.665,-42.1195 431.029,-72.1872 575,-31 576.877,-30.463 578.781,-29.8156 580.671,-29.0962"/>
<polygon fill="midnightblue" stroke="midnightblue" points="582.08,-32.3004 589.831,-25.0773 579.267,-25.8902 582.08,-32.3004"/>
</g>
<!-- Node10 -->
<g id="node10" class="node"><title>Node10</title>
<polygon fill="white" stroke="#bfbfbf" points="126.5,-6 126.5,-25 283.5,-25 283.5,-6 126.5,-6"/>
<text text-anchor="middle" x="205" y="-13" font-family="Helvetica,sans-Serif" font-size="10.00">boost/multi_index_container.hpp</text>
</g>
<!-- Node8&#45;&gt;Node10 -->
<g id="edge12" class="edge"><title>Node8&#45;&gt;Node10</title>
<path fill="none" stroke="midnightblue" d="M201.573,-67.4751C202.137,-59.0803 203.018,-45.9806 203.745,-35.1631"/>
<polygon fill="midnightblue" stroke="midnightblue" points="207.249,-35.2214 204.428,-25.0091 200.265,-34.7518 207.249,-35.2214"/>
</g>
<!-- Node11 -->
<g id="node11" class="node"><title>Node11</title>
<polygon fill="white" stroke="#bfbfbf" points="302,-0.5 302,-30.5 430,-30.5 430,-0.5 302,-0.5"/>
<text text-anchor="start" x="310" y="-18.5" font-family="Helvetica,sans-Serif" font-size="10.00">boost/multi_index/hashed</text>
<text text-anchor="middle" x="366" y="-7.5" font-family="Helvetica,sans-Serif" font-size="10.00">_index.hpp</text>
</g>
<!-- Node8&#45;&gt;Node11 -->
<g id="edge13" class="edge"><title>Node8&#45;&gt;Node11</title>
<path fill="none" stroke="midnightblue" d="M224.64,-67.4751C248.763,-58.7765 286.893,-45.0264 317.476,-33.9981"/>
<polygon fill="midnightblue" stroke="midnightblue" points="318.893,-37.2078 327.113,-30.523 316.518,-30.6228 318.893,-37.2078"/>
</g>
<!-- Node12 -->
<g id="node12" class="node"><title>Node12</title>
<polygon fill="white" stroke="#bfbfbf" points="448,-0.5 448,-30.5 566,-30.5 566,-0.5 448,-0.5"/>
<text text-anchor="start" x="456" y="-18.5" font-family="Helvetica,sans-Serif" font-size="10.00">boost/multi_index/mem</text>
<text text-anchor="middle" x="507" y="-7.5" font-family="Helvetica,sans-Serif" font-size="10.00">_fun.hpp</text>
</g>
<!-- Node8&#45;&gt;Node12 -->
<g id="edge14" class="edge"><title>Node8&#45;&gt;Node12</title>
<path fill="none" stroke="midnightblue" d="M230.778,-68.9737C233.888,-68.2862 237.005,-67.6161 240,-67 324.942,-49.5263 349.133,-48.4322 437.736,-31.2102"/>
<polygon fill="midnightblue" stroke="midnightblue" points="438.543,-34.6187 447.684,-29.2618 437.198,-27.7492 438.543,-34.6187"/>
</g>
<!-- Node14&#45;&gt;Node9 -->
<g id="edge18" class="edge"><title>Node14&#45;&gt;Node9</title>
<path fill="none" stroke="midnightblue" d="M538.05,-179.449C541.161,-166.887 547.512,-142.794 555,-123 567.173,-90.8208 584.973,-54.8819 595.725,-34.0614"/>
<polygon fill="midnightblue" stroke="midnightblue" points="598.859,-35.6224 600.382,-25.1376 592.653,-32.3839 598.859,-35.6224"/>
</g>
<!-- Node15 -->
<g id="node15" class="node"><title>Node15</title>
<polygon fill="white" stroke="#bfbfbf" points="564.5,-123.5 564.5,-142.5 623.5,-142.5 623.5,-123.5 564.5,-123.5"/>
<text text-anchor="middle" x="594" y="-130.5" font-family="Helvetica,sans-Serif" font-size="10.00">exception</text>
</g>
<!-- Node14&#45;&gt;Node15 -->
<g id="edge17" class="edge"><title>Node14&#45;&gt;Node15</title>
<path fill="none" stroke="midnightblue" d="M545.319,-179.324C553.893,-171.341 566.812,-159.313 577.188,-149.653"/>
<polygon fill="midnightblue" stroke="midnightblue" points="579.578,-152.21 584.512,-142.834 574.808,-147.086 579.578,-152.21"/>
</g>
</g>
</svg>
        <g id="navigator" transform="translate(0 0)" fill="#404254">
                <rect fill="#f2f5e9" fill-opacity="0.5" stroke="#606060" stroke-width=".5" x="0" y="0" width="60" height="60"/>
                <use id="zoomplus" xlink:href="#zoomPlus" x="17" y="9" onmousedown="handleZoom(evt,'in')"/>
                <use id="zoomminus" xlink:href="#zoomMin" x="42" y="9" onmousedown="handleZoom(evt,'out')"/>
                <use id="reset" xlink:href="#resetDef" x="30" y="36" onmousedown="handleReset()"/>
                <g id="arrowUp" xlink:href="#dirArrow" transform="translate(30 24)" onmousedown="handlePan(0,-1)">
                  <use xlink:href="#rim" fill="#404040">
                        <set attributeName="fill" to="#808080" begin="arrowUp.mouseover" end="arrowUp.mouseout"/>
                  </use>
                  <path fill="none" stroke="white" stroke-width="1.5" d="M0,-3.0v7 M-2.5,-0.5L0,-3.0L2.5,-0.5"/>
                </g>
                <g id="arrowRight" xlink:href="#dirArrow" transform="rotate(90) translate(36 -43)" onmousedown="handlePan(1,0)">
                  <use xlink:href="#rim" fill="#404040">
                        <set attributeName="fill" to="#808080" begin="arrowRight.mouseover" end="arrowRight.mouseout"/>
                  </use>
                  <path fill="none" stroke="white" stroke-width="1.5" d="M0,-3.0v7 M-2.5,-0.5L0,-3.0L2.5,-0.5"/>
                </g>
                <g id="arrowDown" xlink:href="#dirArrow" transform="rotate(180) translate(-30 -48)" onmousedown="handlePan(0,1)">
                  <use xlink:href="#rim" fill="#404040">
                        <set attributeName="fill" to="#808080" begin="arrowDown.mouseover" end="arrowDown.mouseout"/>
                  </use>
                  <path fill="none" stroke="white" stroke-width="1.5" d="M0,-3.0v7 M-2.5,-0.5L0,-3.0L2.5,-0.5"/>
                </g>
                <g id="arrowLeft" xlink:href="#dirArrow" transform="rotate(270) translate(-36 17)" onmousedown="handlePan(-1,0)">
                  <use xlink:href="#rim" fill="#404040">
                        <set attributeName="fill" to="#808080" begin="arrowLeft.mouseover" end="arrowLeft.mouseout"/>
                  </use>
                  <path fill="none" stroke="white" stroke-width="1.5" d="M0,-3.0v7 M-2.5,-0.5L0,-3.0L2.5,-0.5"/>
                </g>
        </g>
        <svg viewBox="0 0 15 15" width="100%" height="30px" preserveAspectRatio="xMaxYMin meet">
         <g id="arrow_out" transform="scale(0.3 0.3)">
          <a xlink:href="arithmetic_8cc__incl_org.svg" target="_base">
           <rect id="button" ry="5" rx="5" y="6" x="6" height="38" width="38"
                fill="#f2f5e9" fill-opacity="0.5" stroke="#606060" stroke-width="1.0"/>
           <path id="arrow"
             d="M 11.500037,31.436501 C 11.940474,20.09759 22.043105,11.32322 32.158766,21.979434 L 37.068811,17.246167 C 37.068811,17.246167 37.088388,32 37.088388,32 L 22.160133,31.978069 C 22.160133,31.978069 26.997745,27.140456 26.997745,27.140456 C 18.528582,18.264221 13.291696,25.230495 11.500037,31.436501 z"
             style="fill:#404040;"/>
          </a>
         </g>
        </svg>
</svg>
