<?xml version="1.0" encoding="UTF-8" standalone="no"?>
<!DOCTYPE svg PUBLIC "-//W3C//DTD SVG 1.1//EN"
 "http://www.w3.org/Graphics/SVG/1.1/DTD/svg11.dtd">
<!-- Generated by graphviz version 2.38.0 (20140413.2041)
 -->
<!-- Title: bdd.h Pages: 1 -->
<!--zoomable 308 -->
<svg id="main" version="1.1" xmlns="http://www.w3.org/2000/svg" xmlns:xlink="http://www.w3.org/1999/xlink" xml:space="preserve" onload="init(evt)">
<style type="text/css"><![CDATA[
.edge:hover path { stroke: red; }
.edge:hover polygon { stroke: red; fill: red; }
]]></style>
<script type="text/javascript"><![CDATA[
var edges = document.getElementsByTagName('g');
if (edges && edges.length) {
  for (var i=0;i<edges.length;i++) {
    if (edges[i].id.substr(0,4)=='edge') {
      edges[i].setAttribute('class','edge');
    }
  }
}
]]></script>
        <defs>
                <circle id="rim" cx="0" cy="0" r="7"/>
                <circle id="rim2" cx="0" cy="0" r="3.5"/>
                <g id="zoomPlus">
                        <use xlink:href="#rim" fill="#404040">
                                <set attributeName="fill" to="#808080" begin="zoomplus.mouseover" end="zoomplus.mouseout"/>
                        </use>
                        <path d="M-4,0h8M0,-4v8" fill="none" stroke="white" stroke-width="1.5" pointer-events="none"/>
                </g>
                <g id="zoomMin">
                        <use xlink:href="#rim" fill="#404040">
                                <set attributeName="fill" to="#808080" begin="zoomminus.mouseover" end="zoomminus.mouseout"/>
                        </use>
                        <path d="M-4,0h8" fill="none" stroke="white" stroke-width="1.5" pointer-events="none"/>
                </g>
                <g id="dirArrow">
                        <path fill="none" stroke="white" stroke-width="1.5" d="M0,-3.0v7 M-2.5,-0.5L0,-3.0L2.5,-0.5"/>
                </g>
               <g id="resetDef">
                       <use xlink:href="#rim2" fill="#404040">
                               <set attributeName="fill" to="#808080" begin="reset.mouseover" end="reset.mouseout"/>
                       </use>
               </g>
        </defs>

<script type="text/javascript">
var viewWidth = 790;
var viewHeight = 308;
var sectionId = 'dynsection-1';
</script>
<script xlink:href="svgpan.js"/>
<svg id="graph" class="graph">
<g id="viewport">
<title>bdd.h</title>
<polygon fill="white" stroke="none" points="-4,4 -4,-304 785.625,-304 785.625,4 -4,4"/>
<!-- Node1 -->
<g id="node1" class="node"><title>Node1</title>
<polygon fill="#bfbfbf" stroke="black" points="277.5,-280.5 277.5,-299.5 318.5,-299.5 318.5,-280.5 277.5,-280.5"/>
<text text-anchor="middle" x="298" y="-287.5" font-family="Helvetica,sans-Serif" font-size="10.00">bdd.h</text>
</g>
<!-- Node2 -->
<g id="node2" class="node"><title>Node2</title>
<g id="a_node2"><a xlink:href="bdd_8cc.xhtml" target="_top" xlink:title="Implementation of BDD fault tree analysis algorithms. ">
<polygon fill="white" stroke="black" points="0,-168.5 0,-187.5 46,-187.5 46,-168.5 0,-168.5"/>
<text text-anchor="middle" x="23" y="-175.5" font-family="Helvetica,sans-Serif" font-size="10.00">bdd.cc</text>
</a>
</g>
</g>
<!-- Node1&#45;&gt;Node2 -->
<g id="edge1" class="edge"><title>Node1&#45;&gt;Node2</title>
<path fill="none" stroke="midnightblue" d="M266.917,-285.281C228.952,-279.897 163.439,-267.846 112,-244 79.7124,-229.032 47.3602,-201.501 32.0817,-187.565"/>
<polygon fill="midnightblue" stroke="midnightblue" points="266.936,-288.816 277.314,-286.686 267.873,-281.879 266.936,-288.816"/>
</g>
<!-- Node3 -->
<g id="node3" class="node"><title>Node3</title>
<g id="a_node3"><a xlink:href="zbdd_8h.xhtml" target="_top" xlink:title="Zero&#45;Suppressed Binary Decision Diagram facilities. ">
<polygon fill="white" stroke="black" points="121,-224.5 121,-243.5 167,-243.5 167,-224.5 121,-224.5"/>
<text text-anchor="middle" x="144" y="-231.5" font-family="Helvetica,sans-Serif" font-size="10.00">zbdd.h</text>
</a>
</g>
</g>
<!-- Node1&#45;&gt;Node3 -->
<g id="edge2" class="edge"><title>Node1&#45;&gt;Node3</title>
<path fill="none" stroke="midnightblue" d="M267.455,-278.289C237.956,-267.946 193.932,-252.508 167.2,-243.135"/>
<polygon fill="midnightblue" stroke="midnightblue" points="266.636,-281.711 277.231,-281.717 268.952,-275.105 266.636,-281.711"/>
</g>
<!-- Node6 -->
<g id="node6" class="node"><title>Node6</title>
<g id="a_node6"><a xlink:href="risk__analysis_8cc.xhtml" target="_top" xlink:title="Implementation of risk analysis handler. ">
<polygon fill="white" stroke="black" points="235.5,-56.5 235.5,-75.5 322.5,-75.5 322.5,-56.5 235.5,-56.5"/>
<text text-anchor="middle" x="279" y="-63.5" font-family="Helvetica,sans-Serif" font-size="10.00">risk_analysis.cc</text>
</a>
</g>
</g>
<!-- Node1&#45;&gt;Node6 -->
<g id="edge27" class="edge"><title>Node1&#45;&gt;Node6</title>
<path fill="none" stroke="midnightblue" d="M296.399,-270.295C292.492,-224.644 282.582,-108.854 279.76,-75.8837"/>
<polygon fill="midnightblue" stroke="midnightblue" points="292.915,-270.632 297.255,-280.297 299.89,-270.035 292.915,-270.632"/>
</g>
<!-- Node8 -->
<g id="node8" class="node"><title>Node8</title>
<g id="a_node8"><a xlink:href="importance__analysis_8h.xhtml" target="_top" xlink:title="Contains functionality to do numerical analysis of importance factors. ">
<polygon fill="white" stroke="black" points="334,-168.5 334,-187.5 448,-187.5 448,-168.5 334,-168.5"/>
<text text-anchor="middle" x="391" y="-175.5" font-family="Helvetica,sans-Serif" font-size="10.00">importance_analysis.h</text>
</a>
</g>
</g>
<!-- Node1&#45;&gt;Node8 -->
<g id="edge9" class="edge"><title>Node1&#45;&gt;Node8</title>
<path fill="none" stroke="midnightblue" d="M311.878,-272.586C331.927,-248.871 368.283,-205.869 383.736,-187.591"/>
<polygon fill="midnightblue" stroke="midnightblue" points="309.081,-270.472 305.298,-280.368 314.427,-274.992 309.081,-270.472"/>
</g>
<!-- Node14 -->
<g id="node14" class="node"><title>Node14</title>
<g id="a_node14"><a xlink:href="probability__analysis_8h.xhtml" target="_top" xlink:title="Contains functionality to do numerical analysis of probabilities. ">
<polygon fill="white" stroke="black" points="464,-224.5 464,-243.5 574,-243.5 574,-224.5 464,-224.5"/>
<text text-anchor="middle" x="519" y="-231.5" font-family="Helvetica,sans-Serif" font-size="10.00">probability_analysis.h</text>
</a>
</g>
</g>
<!-- Node1&#45;&gt;Node14 -->
<g id="edge18" class="edge"><title>Node1&#45;&gt;Node14</title>
<path fill="none" stroke="midnightblue" d="M328.688,-281.501C369.442,-271.544 441.243,-253.999 484.042,-243.542"/>
<polygon fill="midnightblue" stroke="midnightblue" points="327.675,-278.146 318.791,-283.92 329.336,-284.946 327.675,-278.146"/>
</g>
<!-- Node3&#45;&gt;Node2 -->
<g id="edge3" class="edge"><title>Node3&#45;&gt;Node2</title>
<path fill="none" stroke="midnightblue" d="M115.694,-220.368C93.0349,-210.255 61.8737,-196.349 42.0831,-187.516"/>
<polygon fill="midnightblue" stroke="midnightblue" points="114.269,-223.564 124.827,-224.444 117.122,-217.172 114.269,-223.564"/>
</g>
<!-- Node4 -->
<g id="node4" class="node"><title>Node4</title>
<g id="a_node4"><a xlink:href="mocus_8h.xhtml" target="_top" xlink:title="Fault tree analysis with the MOCUS algorithm. ">
<polygon fill="white" stroke="black" points="175,-168.5 175,-187.5 229,-187.5 229,-168.5 175,-168.5"/>
<text text-anchor="middle" x="202" y="-175.5" font-family="Helvetica,sans-Serif" font-size="10.00">mocus.h</text>
</a>
</g>
</g>
<!-- Node3&#45;&gt;Node4 -->
<g id="edge4" class="edge"><title>Node3&#45;&gt;Node4</title>
<path fill="none" stroke="midnightblue" d="M160.913,-217.253C171.203,-207.673 183.966,-195.791 192.512,-187.834"/>
<polygon fill="midnightblue" stroke="midnightblue" points="158.253,-214.948 153.319,-224.324 163.023,-220.071 158.253,-214.948"/>
</g>
<!-- Node3&#45;&gt;Node6 -->
<g id="edge7" class="edge"><title>Node3&#45;&gt;Node6</title>
<path fill="none" stroke="midnightblue" d="M141.591,-214.225C139.342,-188.302 139.291,-141.424 163,-112 180.687,-90.0495 210.485,-78.7845 235.451,-73.0149"/>
<polygon fill="midnightblue" stroke="midnightblue" points="138.118,-214.662 142.664,-224.232 145.078,-213.916 138.118,-214.662"/>
</g>
<!-- Node7 -->
<g id="node7" class="node"><title>Node7</title>
<g id="a_node7"><a xlink:href="zbdd_8cc.xhtml" target="_top" xlink:title="Implementation of Zero&#45;Suppressed BDD algorithms. ">
<polygon fill="white" stroke="black" points="64.5,-168.5 64.5,-187.5 115.5,-187.5 115.5,-168.5 64.5,-168.5"/>
<text text-anchor="middle" x="90" y="-175.5" font-family="Helvetica,sans-Serif" font-size="10.00">zbdd.cc</text>
</a>
</g>
</g>
<!-- Node3&#45;&gt;Node7 -->
<g id="edge8" class="edge"><title>Node3&#45;&gt;Node7</title>
<path fill="none" stroke="midnightblue" d="M128.002,-217.002C118.433,-207.433 106.639,-195.639 98.7511,-187.751"/>
<polygon fill="midnightblue" stroke="midnightblue" points="125.537,-219.487 135.083,-224.083 130.487,-214.537 125.537,-219.487"/>
</g>
<!-- Node5 -->
<g id="node5" class="node"><title>Node5</title>
<g id="a_node5"><a xlink:href="mocus_8cc.xhtml" target="_top" xlink:title="Implementation of the MOCUS algorithm. ">
<polygon fill="white" stroke="black" points="172.5,-112.5 172.5,-131.5 231.5,-131.5 231.5,-112.5 172.5,-112.5"/>
<text text-anchor="middle" x="202" y="-119.5" font-family="Helvetica,sans-Serif" font-size="10.00">mocus.cc</text>
</a>
</g>
</g>
<!-- Node4&#45;&gt;Node5 -->
<g id="edge5" class="edge"><title>Node4&#45;&gt;Node5</title>
<path fill="none" stroke="midnightblue" d="M202,-157.805C202,-148.91 202,-138.78 202,-131.751"/>
<polygon fill="midnightblue" stroke="midnightblue" points="198.5,-158.083 202,-168.083 205.5,-158.083 198.5,-158.083"/>
</g>
<!-- Node4&#45;&gt;Node6 -->
<g id="edge6" class="edge"><title>Node4&#45;&gt;Node6</title>
<path fill="none" stroke="midnightblue" d="M216.735,-160.844C224.066,-152.492 232.862,-141.981 240,-132 253.78,-112.732 267.463,-88.4247 274.373,-75.6903"/>
<polygon fill="midnightblue" stroke="midnightblue" points="214.059,-158.586 210.008,-168.376 219.28,-163.249 214.059,-158.586"/>
</g>
<!-- Node9 -->
<g id="node9" class="node"><title>Node9</title>
<g id="a_node9"><a xlink:href="importance__analysis_8cc.xhtml" target="_top" xlink:title="Implementations of functions to provide quantitative importance informations. ">
<polygon fill="white" stroke="black" points="326.5,-112.5 326.5,-131.5 445.5,-131.5 445.5,-112.5 326.5,-112.5"/>
<text text-anchor="middle" x="386" y="-119.5" font-family="Helvetica,sans-Serif" font-size="10.00">importance_analysis.cc</text>
</a>
</g>
</g>
<!-- Node8&#45;&gt;Node9 -->
<g id="edge10" class="edge"><title>Node8&#45;&gt;Node9</title>
<path fill="none" stroke="midnightblue" d="M389.25,-158.101C388.42,-149.136 387.468,-138.858 386.81,-131.751"/>
<polygon fill="midnightblue" stroke="midnightblue" points="385.767,-158.448 390.174,-168.083 392.737,-157.803 385.767,-158.448"/>
</g>
<!-- Node10 -->
<g id="node10" class="node"><title>Node10</title>
<g id="a_node10"><a xlink:href="reporter_8h.xhtml" target="_top" xlink:title="Reporter of results. ">
<polygon fill="white" stroke="black" points="577,-56.5 577,-75.5 635,-75.5 635,-56.5 577,-56.5"/>
<text text-anchor="middle" x="606" y="-63.5" font-family="Helvetica,sans-Serif" font-size="10.00">reporter.h</text>
</a>
</g>
</g>
<!-- Node8&#45;&gt;Node10 -->
<g id="edge11" class="edge"><title>Node8&#45;&gt;Node10</title>
<path fill="none" stroke="midnightblue" d="M411.15,-162.548C431.255,-148.522 463.338,-127.186 493,-112 522.134,-97.0844 557.414,-83.734 580.716,-75.5214"/>
<polygon fill="midnightblue" stroke="midnightblue" points="408.964,-159.807 402.808,-168.43 412.998,-165.528 408.964,-159.807"/>
</g>
<!-- Node13 -->
<g id="node13" class="node"><title>Node13</title>
<g id="a_node13"><a xlink:href="risk__analysis_8h.xhtml" target="_top" xlink:title="Contains the main system for performing analysis. ">
<polygon fill="white" stroke="black" points="502,-112.5 502,-131.5 584,-131.5 584,-112.5 502,-112.5"/>
<text text-anchor="middle" x="543" y="-119.5" font-family="Helvetica,sans-Serif" font-size="10.00">risk_analysis.h</text>
</a>
</g>
</g>
<!-- Node8&#45;&gt;Node13 -->
<g id="edge14" class="edge"><title>Node8&#45;&gt;Node13</title>
<path fill="none" stroke="midnightblue" d="M424.668,-165.039C453.268,-154.879 493.612,-140.546 519.028,-131.516"/>
<polygon fill="midnightblue" stroke="midnightblue" points="423.336,-161.798 415.085,-168.444 425.68,-168.394 423.336,-161.798"/>
</g>
<!-- Node11 -->
<g id="node11" class="node"><title>Node11</title>
<g id="a_node11"><a xlink:href="reporter_8cc.xhtml" target="_top" xlink:title="Implements Reporter class. ">
<polygon fill="white" stroke="black" points="589.5,-0.5 589.5,-19.5 652.5,-19.5 652.5,-0.5 589.5,-0.5"/>
<text text-anchor="middle" x="621" y="-7.5" font-family="Helvetica,sans-Serif" font-size="10.00">reporter.cc</text>
</a>
</g>
</g>
<!-- Node10&#45;&gt;Node11 -->
<g id="edge12" class="edge"><title>Node10&#45;&gt;Node11</title>
<path fill="none" stroke="midnightblue" d="M611.168,-46.3956C613.677,-37.362 616.573,-26.936 618.569,-19.7511"/>
<polygon fill="midnightblue" stroke="midnightblue" points="607.781,-45.511 608.477,-56.083 614.526,-47.3846 607.781,-45.511"/>
</g>
<!-- Node12 -->
<g id="node12" class="node"><title>Node12</title>
<g id="a_node12"><a xlink:href="scram_8cc.xhtml" target="_top" xlink:title="Main entrance. ">
<polygon fill="white" stroke="black" points="514.5,-0.5 514.5,-19.5 571.5,-19.5 571.5,-0.5 514.5,-0.5"/>
<text text-anchor="middle" x="543" y="-7.5" font-family="Helvetica,sans-Serif" font-size="10.00">scram.cc</text>
</a>
</g>
</g>
<!-- Node10&#45;&gt;Node12 -->
<g id="edge13" class="edge"><title>Node10&#45;&gt;Node12</title>
<path fill="none" stroke="midnightblue" d="M587.96,-49.5372C576.727,-39.9087 562.681,-27.8694 553.306,-19.8339"/>
<polygon fill="midnightblue" stroke="midnightblue" points="586.008,-52.4734 595.878,-56.324 590.563,-47.1586 586.008,-52.4734"/>
</g>
<!-- Node13&#45;&gt;Node6 -->
<g id="edge16" class="edge"><title>Node13&#45;&gt;Node6</title>
<path fill="none" stroke="midnightblue" d="M491.826,-110.532C442.002,-100.341 367.2,-85.0408 320.832,-75.5565"/>
<polygon fill="midnightblue" stroke="midnightblue" points="491.251,-113.987 501.75,-112.562 492.654,-107.129 491.251,-113.987"/>
</g>
<!-- Node13&#45;&gt;Node10 -->
<g id="edge15" class="edge"><title>Node13&#45;&gt;Node10</title>
<path fill="none" stroke="midnightblue" d="M561.04,-105.537C572.273,-95.9087 586.319,-83.8694 595.694,-75.8339"/>
<polygon fill="midnightblue" stroke="midnightblue" points="558.437,-103.159 553.122,-112.324 562.992,-108.473 558.437,-103.159"/>
</g>
<!-- Node13&#45;&gt;Node12 -->
<g id="edge17" class="edge"><title>Node13&#45;&gt;Node12</title>
<path fill="none" stroke="midnightblue" d="M543,-102.348C543,-78.2538 543,-37.3079 543,-19.5914"/>
<polygon fill="midnightblue" stroke="midnightblue" points="539.5,-102.368 543,-112.368 546.5,-102.369 539.5,-102.368"/>
</g>
<!-- Node14&#45;&gt;Node8 -->
<g id="edge19" class="edge"><title>Node14&#45;&gt;Node8</title>
<path fill="none" stroke="midnightblue" d="M489.377,-220.503C465.381,-210.38 432.216,-196.388 411.187,-187.516"/>
<polygon fill="midnightblue" stroke="midnightblue" points="488.144,-223.781 498.718,-224.444 490.865,-217.332 488.144,-223.781"/>
</g>
<!-- Node14&#45;&gt;Node10 -->
<g id="edge21" class="edge"><title>Node14&#45;&gt;Node10</title>
<path fill="none" stroke="midnightblue" d="M584.456,-229.356C647.735,-224.386 737.404,-213.043 761,-188 784.262,-163.312 788.526,-139.005 768,-112 751.97,-90.9107 677.239,-77.1057 635.101,-70.8568"/>
<polygon fill="midnightblue" stroke="midnightblue" points="583.86,-225.89 574.149,-230.128 584.383,-232.871 583.86,-225.89"/>
</g>
<!-- Node14&#45;&gt;Node13 -->
<g id="edge22" class="edge"><title>Node14&#45;&gt;Node13</title>
<path fill="none" stroke="midnightblue" d="M505.693,-216.305C496.836,-203.056 488.006,-184.143 495,-168 501.811,-152.278 517.12,-139.531 528.63,-131.67"/>
<polygon fill="midnightblue" stroke="midnightblue" points="502.92,-218.443 511.634,-224.468 508.58,-214.323 502.92,-218.443"/>
</g>
<!-- Node15 -->
<g id="node15" class="node"><title>Node15</title>
<g id="a_node15"><a xlink:href="probability__analysis_8cc.xhtml" target="_top" xlink:title="Implementations of functions to provide probability analysis. ">
<polygon fill="white" stroke="black" points="504,-168.5 504,-187.5 620,-187.5 620,-168.5 504,-168.5"/>
<text text-anchor="middle" x="562" y="-175.5" font-family="Helvetica,sans-Serif" font-size="10.00">probability_analysis.cc</text>
</a>
</g>
</g>
<!-- Node14&#45;&gt;Node15 -->
<g id="edge20" class="edge"><title>Node14&#45;&gt;Node15</title>
<path fill="none" stroke="midnightblue" d="M532.422,-216.144C539.914,-206.736 548.937,-195.405 555.032,-187.751"/>
<polygon fill="midnightblue" stroke="midnightblue" points="529.592,-214.08 526.101,-224.083 535.068,-218.44 529.592,-214.08"/>
</g>
<!-- Node16 -->
<g id="node16" class="node"><title>Node16</title>
<g id="a_node16"><a xlink:href="uncertainty__analysis_8h.xhtml" target="_top" xlink:title="Provides functionality for uncertainty analysis with Monte Carlo method. ">
<polygon fill="white" stroke="black" points="638,-168.5 638,-187.5 752,-187.5 752,-168.5 638,-168.5"/>
<text text-anchor="middle" x="695" y="-175.5" font-family="Helvetica,sans-Serif" font-size="10.00">uncertainty_analysis.h</text>
</a>
</g>
</g>
<!-- Node14&#45;&gt;Node16 -->
<g id="edge23" class="edge"><title>Node14&#45;&gt;Node16</title>
<path fill="none" stroke="midnightblue" d="M556.689,-221.436C589.872,-211.255 637.428,-196.664 667.243,-187.516"/>
<polygon fill="midnightblue" stroke="midnightblue" points="555.421,-218.164 546.888,-224.444 557.475,-224.856 555.421,-218.164"/>
</g>
<!-- Node16&#45;&gt;Node10 -->
<g id="edge25" class="edge"><title>Node16&#45;&gt;Node10</title>
<path fill="none" stroke="midnightblue" d="M668.461,-163.254C655.691,-155.523 641.018,-144.84 631,-132 617.464,-114.651 610.539,-89.1171 607.666,-75.8048"/>
<polygon fill="midnightblue" stroke="midnightblue" points="666.915,-166.402 677.329,-168.35 670.402,-160.333 666.915,-166.402"/>
</g>
<!-- Node16&#45;&gt;Node13 -->
<g id="edge24" class="edge"><title>Node16&#45;&gt;Node13</title>
<path fill="none" stroke="midnightblue" d="M661.332,-165.039C632.732,-154.879 592.388,-140.546 566.972,-131.516"/>
<polygon fill="midnightblue" stroke="midnightblue" points="660.32,-168.394 670.915,-168.444 662.664,-161.798 660.32,-168.394"/>
</g>
<!-- Node17 -->
<g id="node17" class="node"><title>Node17</title>
<g id="a_node17"><a xlink:href="uncertainty__analysis_8cc.xhtml" target="_top" xlink:title="Implements the functionality to run Monte Carlo simulations. ">
<polygon fill="white" stroke="black" points="640.5,-112.5 640.5,-131.5 759.5,-131.5 759.5,-112.5 640.5,-112.5"/>
<text text-anchor="middle" x="700" y="-119.5" font-family="Helvetica,sans-Serif" font-size="10.00">uncertainty_analysis.cc</text>
</a>
</g>
</g>
<!-- Node16&#45;&gt;Node17 -->
<g id="edge26" class="edge"><title>Node16&#45;&gt;Node17</title>
<path fill="none" stroke="midnightblue" d="M696.75,-158.101C697.58,-149.136 698.532,-138.858 699.19,-131.751"/>
<polygon fill="midnightblue" stroke="midnightblue" points="693.263,-157.803 695.826,-168.083 700.233,-158.448 693.263,-157.803"/>
</g>
</g>
</svg>
        <g id="navigator" transform="translate(0 0)" fill="#404254">
                <rect fill="#f2f5e9" fill-opacity="0.5" stroke="#606060" stroke-width=".5" x="0" y="0" width="60" height="60"/>
                <use id="zoomplus" xlink:href="#zoomPlus" x="17" y="9" onmousedown="handleZoom(evt,'in')"/>
                <use id="zoomminus" xlink:href="#zoomMin" x="42" y="9" onmousedown="handleZoom(evt,'out')"/>
                <use id="reset" xlink:href="#resetDef" x="30" y="36" onmousedown="handleReset()"/>
                <g id="arrowUp" xlink:href="#dirArrow" transform="translate(30 24)" onmousedown="handlePan(0,-1)">
                  <use xlink:href="#rim" fill="#404040">
                        <set attributeName="fill" to="#808080" begin="arrowUp.mouseover" end="arrowUp.mouseout"/>
                  </use>
                  <path fill="none" stroke="white" stroke-width="1.5" d="M0,-3.0v7 M-2.5,-0.5L0,-3.0L2.5,-0.5"/>
                </g>
                <g id="arrowRight" xlink:href="#dirArrow" transform="rotate(90) translate(36 -43)" onmousedown="handlePan(1,0)">
                  <use xlink:href="#rim" fill="#404040">
                        <set attributeName="fill" to="#808080" begin="arrowRight.mouseover" end="arrowRight.mouseout"/>
                  </use>
                  <path fill="none" stroke="white" stroke-width="1.5" d="M0,-3.0v7 M-2.5,-0.5L0,-3.0L2.5,-0.5"/>
                </g>
                <g id="arrowDown" xlink:href="#dirArrow" transform="rotate(180) translate(-30 -48)" onmousedown="handlePan(0,1)">
                  <use xlink:href="#rim" fill="#404040">
                        <set attributeName="fill" to="#808080" begin="arrowDown.mouseover" end="arrowDown.mouseout"/>
                  </use>
                  <path fill="none" stroke="white" stroke-width="1.5" d="M0,-3.0v7 M-2.5,-0.5L0,-3.0L2.5,-0.5"/>
                </g>
                <g id="arrowLeft" xlink:href="#dirArrow" transform="rotate(270) translate(-36 17)" onmousedown="handlePan(-1,0)">
                  <use xlink:href="#rim" fill="#404040">
                        <set attributeName="fill" to="#808080" begin="arrowLeft.mouseover" end="arrowLeft.mouseout"/>
                  </use>
                  <path fill="none" stroke="white" stroke-width="1.5" d="M0,-3.0v7 M-2.5,-0.5L0,-3.0L2.5,-0.5"/>
                </g>
        </g>
        <svg viewBox="0 0 15 15" width="100%" height="30px" preserveAspectRatio="xMaxYMin meet">
         <g id="arrow_out" transform="scale(0.3 0.3)">
          <a xlink:href="bdd_8h__dep__incl_org.svg" target="_base">
           <rect id="button" ry="5" rx="5" y="6" x="6" height="38" width="38"
                fill="#f2f5e9" fill-opacity="0.5" stroke="#606060" stroke-width="1.0"/>
           <path id="arrow"
             d="M 11.500037,31.436501 C 11.940474,20.09759 22.043105,11.32322 32.158766,21.979434 L 37.068811,17.246167 C 37.068811,17.246167 37.088388,32 37.088388,32 L 22.160133,31.978069 C 22.160133,31.978069 26.997745,27.140456 26.997745,27.140456 C 18.528582,18.264221 13.291696,25.230495 11.500037,31.436501 z"
             style="fill:#404040;"/>
          </a>
         </g>
        </svg>
</svg>
