<?xml version="1.0" encoding="UTF-8" standalone="no"?>
<!DOCTYPE svg PUBLIC "-//W3C//DTD SVG 1.1//EN"
 "http://www.w3.org/Graphics/SVG/1.1/DTD/svg11.dtd">
<!-- Generated by graphviz version 2.38.0 (20140413.2041)
 -->
<!-- Title: boolean_graph.h Pages: 1 -->
<!--zoomable 162 -->
<svg id="main" version="1.1" xmlns="http://www.w3.org/2000/svg" xmlns:xlink="http://www.w3.org/1999/xlink" xml:space="preserve" onload="init(evt)">
<style type="text/css"><![CDATA[
.edge:hover path { stroke: red; }
.edge:hover polygon { stroke: red; fill: red; }
]]></style>
<script type="text/javascript"><![CDATA[
var edges = document.getElementsByTagName('g');
if (edges && edges.length) {
  for (var i=0;i<edges.length;i++) {
    if (edges[i].id.substr(0,4)=='edge') {
      edges[i].setAttribute('class','edge');
    }
  }
}
]]></script>
        <defs>
                <circle id="rim" cx="0" cy="0" r="7"/>
                <circle id="rim2" cx="0" cy="0" r="3.5"/>
                <g id="zoomPlus">
                        <use xlink:href="#rim" fill="#404040">
                                <set attributeName="fill" to="#808080" begin="zoomplus.mouseover" end="zoomplus.mouseout"/>
                        </use>
                        <path d="M-4,0h8M0,-4v8" fill="none" stroke="white" stroke-width="1.5" pointer-events="none"/>
                </g>
                <g id="zoomMin">
                        <use xlink:href="#rim" fill="#404040">
                                <set attributeName="fill" to="#808080" begin="zoomminus.mouseover" end="zoomminus.mouseout"/>
                        </use>
                        <path d="M-4,0h8" fill="none" stroke="white" stroke-width="1.5" pointer-events="none"/>
                </g>
                <g id="dirArrow">
                        <path fill="none" stroke="white" stroke-width="1.5" d="M0,-3.0v7 M-2.5,-0.5L0,-3.0L2.5,-0.5"/>
                </g>
               <g id="resetDef">
                       <use xlink:href="#rim2" fill="#404040">
                               <set attributeName="fill" to="#808080" begin="reset.mouseover" end="reset.mouseout"/>
                       </use>
               </g>
        </defs>

<script type="text/javascript">
var viewWidth = 829;
var viewHeight = 162;
var sectionId = 'dynsection-0';
</script>
<script xlink:href="svgpan.js"/>
<svg id="graph" class="graph">
<g id="viewport">
<title>boolean_graph.h</title>
<polygon fill="white" stroke="none" points="-4,4 -4,-158 824.5,-158 824.5,4 -4,4"/>
<!-- Node1 -->
<g id="node1" class="node"><title>Node1</title>
<polygon fill="#bfbfbf" stroke="black" points="258,-134.5 258,-153.5 346,-153.5 346,-134.5 258,-134.5"/>
<text text-anchor="middle" x="302" y="-141.5" font-family="Helvetica,sans-Serif" font-size="10.00">boolean_graph.h</text>
</g>
<!-- Node2 -->
<g id="node2" class="node"><title>Node2</title>
<polygon fill="white" stroke="#bfbfbf" points="58,-73 58,-92 104,-92 104,-73 58,-73"/>
<text text-anchor="middle" x="81" y="-80" font-family="Helvetica,sans-Serif" font-size="10.00">cstdint</text>
</g>
<!-- Node1&#45;&gt;Node2 -->
<g id="edge1" class="edge"><title>Node1&#45;&gt;Node2</title>
<path fill="none" stroke="midnightblue" d="M260.273,-134.464C222.691,-126.382 166.125,-113.239 118,-98 115.725,-97.2795 113.389,-96.4889 111.05,-95.6604"/>
<polygon fill="midnightblue" stroke="midnightblue" points="112.161,-92.3394 101.568,-92.1229 109.714,-98.8978 112.161,-92.3394"/>
</g>
<!-- Node3 -->
<g id="node3" class="node"><title>Node3</title>
<polygon fill="white" stroke="#bfbfbf" points="198,-6 198,-25 254,-25 254,-6 198,-6"/>
<text text-anchor="middle" x="226" y="-13" font-family="Helvetica,sans-Serif" font-size="10.00">algorithm</text>
</g>
<!-- Node1&#45;&gt;Node3 -->
<g id="edge2" class="edge"><title>Node1&#45;&gt;Node3</title>
<path fill="none" stroke="midnightblue" d="M296.776,-134.305C284.411,-113.723 253.149,-61.6893 236.621,-34.1782"/>
<polygon fill="midnightblue" stroke="midnightblue" points="239.411,-32.0252 231.26,-25.2557 233.41,-35.6301 239.411,-32.0252"/>
</g>
<!-- Node4 -->
<g id="node4" class="node"><title>Node4</title>
<polygon fill="white" stroke="#bfbfbf" points="420.5,-73 420.5,-92 465.5,-92 465.5,-73 420.5,-73"/>
<text text-anchor="middle" x="443" y="-80" font-family="Helvetica,sans-Serif" font-size="10.00">iosfwd</text>
</g>
<!-- Node1&#45;&gt;Node4 -->
<g id="edge3" class="edge"><title>Node1&#45;&gt;Node4</title>
<path fill="none" stroke="midnightblue" d="M323.394,-134.418C345.437,-125.516 380.751,-111.093 411,-98 412.364,-97.4094 413.759,-96.7999 415.166,-96.1803"/>
<polygon fill="midnightblue" stroke="midnightblue" points="416.731,-99.3147 424.434,-92.0411 413.876,-92.9232 416.731,-99.3147"/>
</g>
<!-- Node5 -->
<g id="node5" class="node"><title>Node5</title>
<polygon fill="white" stroke="#bfbfbf" points="0,-6 0,-25 52,-25 52,-6 0,-6"/>
<text text-anchor="middle" x="26" y="-13" font-family="Helvetica,sans-Serif" font-size="10.00">memory</text>
</g>
<!-- Node1&#45;&gt;Node5 -->
<g id="edge4" class="edge"><title>Node1&#45;&gt;Node5</title>
<path fill="none" stroke="midnightblue" d="M257.933,-134.693C226.832,-127.699 184.845,-115.921 151,-98 131.738,-87.8007 130.926,-79.3987 113,-67 93.1247,-53.2529 69.3169,-39.6126 51.6349,-29.9801"/>
<polygon fill="midnightblue" stroke="midnightblue" points="52.9699,-26.7239 42.5056,-25.0659 49.6519,-32.8877 52.9699,-26.7239"/>
</g>
<!-- Node6 -->
<g id="node6" class="node"><title>Node6</title>
<polygon fill="white" stroke="#bfbfbf" points="483.5,-73 483.5,-92 566.5,-92 566.5,-73 483.5,-73"/>
<text text-anchor="middle" x="525" y="-80" font-family="Helvetica,sans-Serif" font-size="10.00">unordered_map</text>
</g>
<!-- Node1&#45;&gt;Node6 -->
<g id="edge5" class="edge"><title>Node1&#45;&gt;Node6</title>
<path fill="none" stroke="midnightblue" d="M335.887,-134.482C370.818,-125.631 426.823,-111.249 475,-98 478.611,-97.0069 482.363,-95.9554 486.116,-94.8905"/>
<polygon fill="midnightblue" stroke="midnightblue" points="487.307,-98.1903 495.956,-92.0708 485.378,-91.4611 487.307,-98.1903"/>
</g>
<!-- Node7 -->
<g id="node7" class="node"><title>Node7</title>
<polygon fill="white" stroke="#bfbfbf" points="272,-6 272,-25 312,-25 312,-6 272,-6"/>
<text text-anchor="middle" x="292" y="-13" font-family="Helvetica,sans-Serif" font-size="10.00">utility</text>
</g>
<!-- Node1&#45;&gt;Node7 -->
<g id="edge6" class="edge"><title>Node1&#45;&gt;Node7</title>
<path fill="none" stroke="midnightblue" d="M298.4,-134.222C294.944,-125.285 289.967,-110.942 288,-98 284.749,-76.6065 286.802,-51.727 288.986,-35.1382"/>
<polygon fill="midnightblue" stroke="midnightblue" points="292.467,-35.5251 290.456,-25.1229 285.541,-34.5086 292.467,-35.5251"/>
</g>
<!-- Node8 -->
<g id="node8" class="node"><title>Node8</title>
<polygon fill="white" stroke="#bfbfbf" points="330,-6 330,-25 374,-25 374,-6 330,-6"/>
<text text-anchor="middle" x="352" y="-13" font-family="Helvetica,sans-Serif" font-size="10.00">vector</text>
</g>
<!-- Node1&#45;&gt;Node8 -->
<g id="edge7" class="edge"><title>Node1&#45;&gt;Node8</title>
<path fill="none" stroke="midnightblue" d="M303.287,-134.292C305.611,-119.874 311.201,-90.322 321,-67 325.901,-55.3343 333.249,-43.2207 339.561,-33.7826"/>
<polygon fill="midnightblue" stroke="midnightblue" points="342.583,-35.566 345.399,-25.352 336.828,-31.581 342.583,-35.566"/>
</g>
<!-- Node9 -->
<g id="node9" class="node"><title>Node9</title>
<polygon fill="white" stroke="#bfbfbf" points="585,-67.5 585,-97.5 685,-97.5 685,-67.5 585,-67.5"/>
<text text-anchor="start" x="593" y="-85.5" font-family="Helvetica,sans-Serif" font-size="10.00">boost/container/flat</text>
<text text-anchor="middle" x="635" y="-74.5" font-family="Helvetica,sans-Serif" font-size="10.00">_set.hpp</text>
</g>
<!-- Node1&#45;&gt;Node9 -->
<g id="edge8" class="edge"><title>Node1&#45;&gt;Node9</title>
<path fill="none" stroke="midnightblue" d="M346.329,-136.809C398.656,-129.261 488.496,-115.547 574.879,-98.1375"/>
<polygon fill="midnightblue" stroke="midnightblue" points="575.747,-101.533 584.848,-96.1083 574.351,-94.6732 575.747,-101.533"/>
</g>
<!-- Node10 -->
<g id="node10" class="node"><title>Node10</title>
<polygon fill="white" stroke="#bfbfbf" points="703.5,-73 703.5,-92 820.5,-92 820.5,-73 703.5,-73"/>
<text text-anchor="middle" x="762" y="-80" font-family="Helvetica,sans-Serif" font-size="10.00">boost/noncopyable.hpp</text>
</g>
<!-- Node1&#45;&gt;Node10 -->
<g id="edge9" class="edge"><title>Node1&#45;&gt;Node10</title>
<path fill="none" stroke="midnightblue" d="M346.281,-139.31C419.107,-132.93 568.596,-118.52 694,-98 700.803,-96.8868 707.955,-95.5487 714.962,-94.1413"/>
<polygon fill="midnightblue" stroke="midnightblue" points="715.983,-97.5041 725.065,-92.0481 714.563,-90.6496 715.983,-97.5041"/>
</g>
<!-- Node11 -->
<g id="node11" class="node"><title>Node11</title>
<g id="a_node11"><a xlink:href="ext_8h.xhtml" target="_top" xlink:title="Helpful facilities as an extension to the standard library or Boost. ">
<polygon fill="white" stroke="black" points="160,-73 160,-92 198,-92 198,-73 160,-73"/>
<text text-anchor="middle" x="179" y="-80" font-family="Helvetica,sans-Serif" font-size="10.00">ext.h</text>
</a>
</g>
</g>
<!-- Node1&#45;&gt;Node11 -->
<g id="edge10" class="edge"><title>Node1&#45;&gt;Node11</title>
<path fill="none" stroke="midnightblue" d="M284.377,-134.475C263.826,-124.534 229.636,-107.995 205.793,-96.461"/>
<polygon fill="midnightblue" stroke="midnightblue" points="207.116,-93.2131 196.59,-92.0091 204.068,-99.5145 207.116,-93.2131"/>
</g>
<!-- Node13 -->
<g id="node13" class="node"><title>Node13</title>
<g id="a_node13"><a xlink:href="linear__map_8h.xhtml" target="_top" xlink:title="Implementation of a vector&#45;based map for a small number of entries. ">
<polygon fill="white" stroke="black" points="330,-73 330,-92 402,-92 402,-73 330,-73"/>
<text text-anchor="middle" x="366" y="-80" font-family="Helvetica,sans-Serif" font-size="10.00">linear_map.h</text>
</a>
</g>
</g>
<!-- Node1&#45;&gt;Node13 -->
<g id="edge14" class="edge"><title>Node1&#45;&gt;Node13</title>
<path fill="none" stroke="midnightblue" d="M311.17,-134.475C321.15,-125.197 337.312,-110.171 349.509,-98.831"/>
<polygon fill="midnightblue" stroke="midnightblue" points="351.907,-101.381 356.847,-92.0091 347.14,-96.2547 351.907,-101.381"/>
</g>
<!-- Node11&#45;&gt;Node3 -->
<g id="edge11" class="edge"><title>Node11&#45;&gt;Node3</title>
<path fill="none" stroke="midnightblue" d="M185.339,-72.7338C192.597,-62.6953 204.659,-46.0145 213.765,-33.4213"/>
<polygon fill="midnightblue" stroke="midnightblue" points="216.739,-35.2816 219.762,-25.1273 211.066,-31.18 216.739,-35.2816"/>
</g>
<!-- Node11&#45;&gt;Node5 -->
<g id="edge12" class="edge"><title>Node11&#45;&gt;Node5</title>
<path fill="none" stroke="midnightblue" d="M159.827,-73.0151C155.299,-71.0279 150.484,-68.9285 146,-67 115.523,-53.8924 80.5465,-39.2145 56.2487,-29.0757"/>
<polygon fill="midnightblue" stroke="midnightblue" points="57.4303,-25.7764 46.8534,-25.1595 54.737,-32.2376 57.4303,-25.7764"/>
</g>
<!-- Node12 -->
<g id="node12" class="node"><title>Node12</title>
<polygon fill="white" stroke="#bfbfbf" points="70,-0.5 70,-30.5 180,-30.5 180,-0.5 70,-0.5"/>
<text text-anchor="start" x="78" y="-18.5" font-family="Helvetica,sans-Serif" font-size="10.00">boost/range/algorithm</text>
<text text-anchor="middle" x="125" y="-7.5" font-family="Helvetica,sans-Serif" font-size="10.00">/find_if.hpp</text>
</g>
<!-- Node11&#45;&gt;Node12 -->
<g id="edge13" class="edge"><title>Node11&#45;&gt;Node12</title>
<path fill="none" stroke="midnightblue" d="M171.717,-72.7338C164.419,-63.9493 152.896,-50.0783 143.12,-38.3111"/>
<polygon fill="midnightblue" stroke="midnightblue" points="145.787,-36.0444 136.705,-30.589 140.403,-40.5175 145.787,-36.0444"/>
</g>
<!-- Node13&#45;&gt;Node3 -->
<g id="edge16" class="edge"><title>Node13&#45;&gt;Node3</title>
<path fill="none" stroke="midnightblue" d="M347.409,-72.8685C323.456,-61.7476 281.605,-42.3167 253.846,-29.4286"/>
<polygon fill="midnightblue" stroke="midnightblue" points="255.212,-26.2038 244.668,-25.1672 252.264,-32.5529 255.212,-26.2038"/>
</g>
<!-- Node13&#45;&gt;Node7 -->
<g id="edge20" class="edge"><title>Node13&#45;&gt;Node7</title>
<path fill="none" stroke="midnightblue" d="M356.02,-72.7338C344.148,-62.3055 324.115,-44.7088 309.616,-31.9732"/>
<polygon fill="midnightblue" stroke="midnightblue" points="311.645,-29.0971 301.822,-25.1273 307.025,-34.3564 311.645,-29.0971"/>
</g>
<!-- Node13&#45;&gt;Node8 -->
<g id="edge19" class="edge"><title>Node13&#45;&gt;Node8</title>
<path fill="none" stroke="midnightblue" d="M364.112,-72.7338C362.034,-63.0852 358.634,-47.3001 355.964,-34.9063"/>
<polygon fill="midnightblue" stroke="midnightblue" points="359.385,-34.1661 353.858,-25.1273 352.542,-35.6401 359.385,-34.1661"/>
</g>
<!-- Node14 -->
<g id="node14" class="node"><title>Node14</title>
<polygon fill="white" stroke="#bfbfbf" points="392.5,-6 392.5,-25 441.5,-25 441.5,-6 392.5,-6"/>
<text text-anchor="middle" x="417" y="-13" font-family="Helvetica,sans-Serif" font-size="10.00">cassert</text>
</g>
<!-- Node13&#45;&gt;Node14 -->
<g id="edge15" class="edge"><title>Node13&#45;&gt;Node14</title>
<path fill="none" stroke="midnightblue" d="M372.878,-72.7338C380.831,-62.5979 394.097,-45.6899 404.01,-33.0556"/>
<polygon fill="midnightblue" stroke="midnightblue" points="406.812,-35.1552 410.231,-25.1273 401.304,-30.8342 406.812,-35.1552"/>
</g>
<!-- Node15 -->
<g id="node15" class="node"><title>Node15</title>
<polygon fill="white" stroke="#bfbfbf" points="459.5,-6 459.5,-25 532.5,-25 532.5,-6 459.5,-6"/>
<text text-anchor="middle" x="496" y="-13" font-family="Helvetica,sans-Serif" font-size="10.00">initializer_list</text>
</g>
<!-- Node13&#45;&gt;Node15 -->
<g id="edge17" class="edge"><title>Node13&#45;&gt;Node15</title>
<path fill="none" stroke="midnightblue" d="M383.263,-72.8685C405.311,-61.8447 443.689,-42.6554 469.464,-29.7678"/>
<polygon fill="midnightblue" stroke="midnightblue" points="471.287,-32.7699 478.666,-25.1672 468.156,-26.5089 471.287,-32.7699"/>
</g>
<!-- Node16 -->
<g id="node16" class="node"><title>Node16</title>
<polygon fill="white" stroke="#bfbfbf" points="550.5,-6 550.5,-25 609.5,-25 609.5,-6 550.5,-6"/>
<text text-anchor="middle" x="580" y="-13" font-family="Helvetica,sans-Serif" font-size="10.00">stdexcept</text>
</g>
<!-- Node13&#45;&gt;Node16 -->
<g id="edge18" class="edge"><title>Node13&#45;&gt;Node16</title>
<path fill="none" stroke="midnightblue" d="M392.708,-72.9064C399.02,-70.9238 405.737,-68.8536 412,-67 469.487,-49.9855 485.041,-49.7075 542,-31 544.264,-30.2564 546.592,-29.4568 548.927,-28.6289"/>
<polygon fill="midnightblue" stroke="midnightblue" points="550.246,-31.8732 558.424,-25.1375 547.83,-25.3032 550.246,-31.8732"/>
</g>
</g>
</svg>
        <g id="navigator" transform="translate(0 0)" fill="#404254">
                <rect fill="#f2f5e9" fill-opacity="0.5" stroke="#606060" stroke-width=".5" x="0" y="0" width="60" height="60"/>
                <use id="zoomplus" xlink:href="#zoomPlus" x="17" y="9" onmousedown="handleZoom(evt,'in')"/>
                <use id="zoomminus" xlink:href="#zoomMin" x="42" y="9" onmousedown="handleZoom(evt,'out')"/>
                <use id="reset" xlink:href="#resetDef" x="30" y="36" onmousedown="handleReset()"/>
                <g id="arrowUp" xlink:href="#dirArrow" transform="translate(30 24)" onmousedown="handlePan(0,-1)">
                  <use xlink:href="#rim" fill="#404040">
                        <set attributeName="fill" to="#808080" begin="arrowUp.mouseover" end="arrowUp.mouseout"/>
                  </use>
                  <path fill="none" stroke="white" stroke-width="1.5" d="M0,-3.0v7 M-2.5,-0.5L0,-3.0L2.5,-0.5"/>
                </g>
                <g id="arrowRight" xlink:href="#dirArrow" transform="rotate(90) translate(36 -43)" onmousedown="handlePan(1,0)">
                  <use xlink:href="#rim" fill="#404040">
                        <set attributeName="fill" to="#808080" begin="arrowRight.mouseover" end="arrowRight.mouseout"/>
                  </use>
                  <path fill="none" stroke="white" stroke-width="1.5" d="M0,-3.0v7 M-2.5,-0.5L0,-3.0L2.5,-0.5"/>
                </g>
                <g id="arrowDown" xlink:href="#dirArrow" transform="rotate(180) translate(-30 -48)" onmousedown="handlePan(0,1)">
                  <use xlink:href="#rim" fill="#404040">
                        <set attributeName="fill" to="#808080" begin="arrowDown.mouseover" end="arrowDown.mouseout"/>
                  </use>
                  <path fill="none" stroke="white" stroke-width="1.5" d="M0,-3.0v7 M-2.5,-0.5L0,-3.0L2.5,-0.5"/>
                </g>
                <g id="arrowLeft" xlink:href="#dirArrow" transform="rotate(270) translate(-36 17)" onmousedown="handlePan(-1,0)">
                  <use xlink:href="#rim" fill="#404040">
                        <set attributeName="fill" to="#808080" begin="arrowLeft.mouseover" end="arrowLeft.mouseout"/>
                  </use>
                  <path fill="none" stroke="white" stroke-width="1.5" d="M0,-3.0v7 M-2.5,-0.5L0,-3.0L2.5,-0.5"/>
                </g>
        </g>
        <svg viewBox="0 0 15 15" width="100%" height="30px" preserveAspectRatio="xMaxYMin meet">
         <g id="arrow_out" transform="scale(0.3 0.3)">
          <a xlink:href="boolean__graph_8h__incl_org.svg" target="_base">
           <rect id="button" ry="5" rx="5" y="6" x="6" height="38" width="38"
                fill="#f2f5e9" fill-opacity="0.5" stroke="#606060" stroke-width="1.0"/>
           <path id="arrow"
             d="M 11.500037,31.436501 C 11.940474,20.09759 22.043105,11.32322 32.158766,21.979434 L 37.068811,17.246167 C 37.068811,17.246167 37.088388,32 37.088388,32 L 22.160133,31.978069 C 22.160133,31.978069 26.997745,27.140456 26.997745,27.140456 C 18.528582,18.264221 13.291696,25.230495 11.500037,31.436501 z"
             style="fill:#404040;"/>
          </a>
         </g>
        </svg>
</svg>
