<?xml version="1.0" encoding="UTF-8" standalone="no"?>
<!DOCTYPE svg PUBLIC "-//W3C//DTD SVG 1.1//EN"
 "http://www.w3.org/Graphics/SVG/1.1/DTD/svg11.dtd">
<!-- Generated by graphviz version 2.38.0 (20140413.2041)
 -->
<!-- Title: scram::core::operator&lt;&lt; Pages: 1 -->
<svg width="302pt" height="96pt"
 viewBox="0.00 0.00 302.00 95.50" xmlns="http://www.w3.org/2000/svg" xmlns:xlink="http://www.w3.org/1999/xlink">
<g id="graph0" class="graph" transform="scale(1 1) rotate(0) translate(4 91.5)">
<title>scram::core::operator&lt;&lt;</title>
<polygon fill="white" stroke="none" points="-4,4 -4,-91.5 298,-91.5 298,4 -4,4"/>
<!-- Node1 -->
<g id="node1" class="node"><title>Node1</title>
<polygon fill="#bfbfbf" stroke="black" points="0,-28 0,-47 122,-47 122,-28 0,-28"/>
<text text-anchor="middle" x="61" y="-35" font-family="Helvetica,sans-Serif" font-size="10.00">scram::core::operator&lt;&lt;</text>
</g>
<!-- Node2 -->
<g id="node2" class="node"><title>Node2</title>
<g id="a_node2"><a xlink:href="boolean__graph_8cc.xhtml#a8f04430e7ed0fd624250f5c67af9c464" target="_top" xlink:title="Prints Boolean graph nodes in the Aralia format. ">
<polygon fill="white" stroke="black" points="165,-50 165,-69 287,-69 287,-50 165,-50"/>
<text text-anchor="middle" x="226" y="-57" font-family="Helvetica,sans-Serif" font-size="10.00">scram::core::operator&lt;&lt;</text>
</a>
</g>
</g>
<!-- Node1&#45;&gt;Node2 -->
<g id="edge1" class="edge"><title>Node1&#45;&gt;Node2</title>
<path fill="none" stroke="midnightblue" d="M122.232,-45.6295C132.747,-47.0487 143.77,-48.5364 154.531,-49.9889"/>
<polygon fill="midnightblue" stroke="midnightblue" points="154.365,-53.4981 164.744,-51.3672 155.302,-46.561 154.365,-53.4981"/>
</g>
<!-- Node3 -->
<g id="node3" class="node"><title>Node3</title>
<g id="a_node3"><a xlink:href="classscram_1_1core_1_1BooleanGraph.xhtml#a2621e916248269f99f5e968dc78e1491" target="_top" xlink:title="scram::core::BooleanGraph\l::root">
<polygon fill="white" stroke="black" points="158,-0.5 158,-30.5 294,-30.5 294,-0.5 158,-0.5"/>
<text text-anchor="start" x="166" y="-18.5" font-family="Helvetica,sans-Serif" font-size="10.00">scram::core::BooleanGraph</text>
<text text-anchor="middle" x="226" y="-7.5" font-family="Helvetica,sans-Serif" font-size="10.00">::root</text>
</a>
</g>
</g>
<!-- Node1&#45;&gt;Node3 -->
<g id="edge3" class="edge"><title>Node1&#45;&gt;Node3</title>
<path fill="none" stroke="midnightblue" d="M122.232,-29.3705C130.575,-28.2444 139.239,-27.0752 147.837,-25.9146"/>
<polygon fill="midnightblue" stroke="midnightblue" points="148.436,-29.3656 157.878,-24.5594 147.5,-22.4285 148.436,-29.3656"/>
</g>
<!-- Node2&#45;&gt;Node2 -->
<g id="edge2" class="edge"><title>Node2&#45;&gt;Node2</title>
<path fill="none" stroke="midnightblue" d="M200.723,-69.2571C188.426,-78.0653 196.852,-87.5 226,-87.5 245.584,-87.5 255.814,-83.241 256.689,-77.7746"/>
<polygon fill="midnightblue" stroke="midnightblue" points="259.594,-75.8207 251.277,-69.2571 253.686,-79.5745 259.594,-75.8207"/>
</g>
</g>
</svg>
