<?xml version="1.0" encoding="UTF-8" standalone="no"?>
<!DOCTYPE svg PUBLIC "-//W3C//DTD SVG 1.1//EN"
 "http://www.w3.org/Graphics/SVG/1.1/DTD/svg11.dtd">
<!-- Generated by graphviz version 2.38.0 (20140413.2041)
 -->
<!-- Title: boolean_graph.h Pages: 1 -->
<!--zoomable 420 -->
<svg id="main" version="1.1" xmlns="http://www.w3.org/2000/svg" xmlns:xlink="http://www.w3.org/1999/xlink" xml:space="preserve" onload="init(evt)">
<style type="text/css"><![CDATA[
.edge:hover path { stroke: red; }
.edge:hover polygon { stroke: red; fill: red; }
]]></style>
<script type="text/javascript"><![CDATA[
var edges = document.getElementsByTagName('g');
if (edges && edges.length) {
  for (var i=0;i<edges.length;i++) {
    if (edges[i].id.substr(0,4)=='edge') {
      edges[i].setAttribute('class','edge');
    }
  }
}
]]></script>
        <defs>
                <circle id="rim" cx="0" cy="0" r="7"/>
                <circle id="rim2" cx="0" cy="0" r="3.5"/>
                <g id="zoomPlus">
                        <use xlink:href="#rim" fill="#404040">
                                <set attributeName="fill" to="#808080" begin="zoomplus.mouseover" end="zoomplus.mouseout"/>
                        </use>
                        <path d="M-4,0h8M0,-4v8" fill="none" stroke="white" stroke-width="1.5" pointer-events="none"/>
                </g>
                <g id="zoomMin">
                        <use xlink:href="#rim" fill="#404040">
                                <set attributeName="fill" to="#808080" begin="zoomminus.mouseover" end="zoomminus.mouseout"/>
                        </use>
                        <path d="M-4,0h8" fill="none" stroke="white" stroke-width="1.5" pointer-events="none"/>
                </g>
                <g id="dirArrow">
                        <path fill="none" stroke="white" stroke-width="1.5" d="M0,-3.0v7 M-2.5,-0.5L0,-3.0L2.5,-0.5"/>
                </g>
               <g id="resetDef">
                       <use xlink:href="#rim2" fill="#404040">
                               <set attributeName="fill" to="#808080" begin="reset.mouseover" end="reset.mouseout"/>
                       </use>
               </g>
        </defs>

<script type="text/javascript">
var viewWidth = 993;
var viewHeight = 420;
var sectionId = 'dynsection-1';
</script>
<script xlink:href="svgpan.js"/>
<svg id="graph" class="graph">
<g id="viewport">
<title>boolean_graph.h</title>
<polygon fill="white" stroke="none" points="-4,4 -4,-416 989.441,-416 989.441,4 -4,4"/>
<!-- Node1 -->
<g id="node1" class="node"><title>Node1</title>
<polygon fill="#bfbfbf" stroke="black" points="423.441,-392.5 423.441,-411.5 511.441,-411.5 511.441,-392.5 423.441,-392.5"/>
<text text-anchor="middle" x="467.441" y="-399.5" font-family="Helvetica,sans-Serif" font-size="10.00">boolean_graph.h</text>
</g>
<!-- Node2 -->
<g id="node2" class="node"><title>Node2</title>
<g id="a_node2"><a xlink:href="bdd_8h.xhtml" target="_top" xlink:title="Fault tree analysis with the Binary Decision Diagram algorithms. ">
<polygon fill="white" stroke="black" points="282.941,-280.5 282.941,-299.5 323.941,-299.5 323.941,-280.5 282.941,-280.5"/>
<text text-anchor="middle" x="303.441" y="-287.5" font-family="Helvetica,sans-Serif" font-size="10.00">bdd.h</text>
</a>
</g>
</g>
<!-- Node1&#45;&gt;Node2 -->
<g id="edge1" class="edge"><title>Node1&#45;&gt;Node2</title>
<path fill="none" stroke="midnightblue" d="M446.142,-386.714C411.584,-363.535 344.337,-318.43 316.25,-299.591"/>
<polygon fill="midnightblue" stroke="midnightblue" points="444.318,-389.705 454.572,-392.368 448.217,-383.891 444.318,-389.705"/>
</g>
<!-- Node5 -->
<g id="node5" class="node"><title>Node5</title>
<g id="a_node5"><a xlink:href="mocus_8h.xhtml" target="_top" xlink:title="Fault tree analysis with the MOCUS algorithm. ">
<polygon fill="white" stroke="black" points="17.441,-168.5 17.441,-187.5 71.441,-187.5 71.441,-168.5 17.441,-168.5"/>
<text text-anchor="middle" x="44.441" y="-175.5" font-family="Helvetica,sans-Serif" font-size="10.00">mocus.h</text>
</a>
</g>
</g>
<!-- Node1&#45;&gt;Node5 -->
<g id="edge39" class="edge"><title>Node1&#45;&gt;Node5</title>
<path fill="none" stroke="midnightblue" d="M433.328,-388.995C369.591,-365.817 229.228,-311.212 122.441,-244 95.2896,-226.911 67.3204,-201.267 53.4194,-187.87"/>
<polygon fill="midnightblue" stroke="midnightblue" points="432.288,-392.34 442.882,-392.442 434.663,-385.756 432.288,-392.34"/>
</g>
<!-- Node15 -->
<g id="node15" class="node"><title>Node15</title>
<g id="a_node15"><a xlink:href="probability__analysis_8h.xhtml" target="_top" xlink:title="Contains functionality to do numerical analysis of probabilities. ">
<polygon fill="white" stroke="black" points="441.441,-224.5 441.441,-243.5 551.441,-243.5 551.441,-224.5 441.441,-224.5"/>
<text text-anchor="middle" x="496.441" y="-231.5" font-family="Helvetica,sans-Serif" font-size="10.00">probability_analysis.h</text>
</a>
</g>
</g>
<!-- Node1&#45;&gt;Node15 -->
<g id="edge38" class="edge"><title>Node1&#45;&gt;Node15</title>
<path fill="none" stroke="midnightblue" d="M457.579,-383.042C451.652,-370.061 445.888,-352.058 449.441,-336 457.506,-299.555 480.124,-260.656 490.768,-243.718"/>
<polygon fill="midnightblue" stroke="midnightblue" points="454.581,-384.872 462.192,-392.242 460.838,-381.734 454.581,-384.872"/>
</g>
<!-- Node19 -->
<g id="node19" class="node"><title>Node19</title>
<g id="a_node19"><a xlink:href="boolean__graph_8cc.xhtml" target="_top" xlink:title="Implementation of indexed nodes, variables, gates, and the Boolean graph. ">
<polygon fill="white" stroke="black" points="458.941,-336.5 458.941,-355.5 551.941,-355.5 551.941,-336.5 458.941,-336.5"/>
<text text-anchor="middle" x="505.441" y="-343.5" font-family="Helvetica,sans-Serif" font-size="10.00">boolean_graph.cc</text>
</a>
</g>
</g>
<!-- Node1&#45;&gt;Node19 -->
<g id="edge29" class="edge"><title>Node1&#45;&gt;Node19</title>
<path fill="none" stroke="midnightblue" d="M479.506,-383.855C486.086,-374.505 493.952,-363.327 499.283,-355.751"/>
<polygon fill="midnightblue" stroke="midnightblue" points="476.609,-381.891 473.716,-392.083 482.333,-385.919 476.609,-381.891"/>
</g>
<!-- Node20 -->
<g id="node20" class="node"><title>Node20</title>
<g id="a_node20"><a xlink:href="fault__tree__analysis_8h.xhtml" target="_top" xlink:title="Fault Tree Analysis. ">
<polygon fill="white" stroke="black" points="560.941,-280.5 560.941,-299.5 667.941,-299.5 667.941,-280.5 560.941,-280.5"/>
<text text-anchor="middle" x="614.441" y="-287.5" font-family="Helvetica,sans-Serif" font-size="10.00">fault_tree_analysis.h</text>
</a>
</g>
</g>
<!-- Node1&#45;&gt;Node20 -->
<g id="edge30" class="edge"><title>Node1&#45;&gt;Node20</title>
<path fill="none" stroke="midnightblue" d="M501.505,-388.649C520.035,-380.952 542.721,-369.869 560.441,-356 581.698,-339.362 600.295,-313.062 609.074,-299.584"/>
<polygon fill="midnightblue" stroke="midnightblue" points="499.952,-385.5 491.97,-392.467 502.554,-391.999 499.952,-385.5"/>
</g>
<!-- Node22 -->
<g id="node22" class="node"><title>Node22</title>
<g id="a_node22"><a xlink:href="preprocessor_8h.xhtml" target="_top" xlink:title="A collection of Boolean graph preprocessing algorithms that simplify fault trees for analysis...">
<polygon fill="white" stroke="black" points="608.941,-336.5 608.941,-355.5 689.941,-355.5 689.941,-336.5 608.941,-336.5"/>
<text text-anchor="middle" x="649.441" y="-343.5" font-family="Helvetica,sans-Serif" font-size="10.00">preprocessor.h</text>
</a>
</g>
</g>
<!-- Node1&#45;&gt;Node22 -->
<g id="edge35" class="edge"><title>Node1&#45;&gt;Node22</title>
<path fill="none" stroke="midnightblue" d="M505.972,-389.568C540.305,-379.381 589.774,-364.703 620.737,-355.516"/>
<polygon fill="midnightblue" stroke="midnightblue" points="504.871,-386.244 496.279,-392.444 506.862,-392.954 504.871,-386.244"/>
</g>
<!-- Node3 -->
<g id="node3" class="node"><title>Node3</title>
<g id="a_node3"><a xlink:href="bdd_8cc.xhtml" target="_top" xlink:title="Implementation of BDD fault tree analysis algorithms. ">
<polygon fill="white" stroke="black" points="198.441,-168.5 198.441,-187.5 244.441,-187.5 244.441,-168.5 198.441,-168.5"/>
<text text-anchor="middle" x="221.441" y="-175.5" font-family="Helvetica,sans-Serif" font-size="10.00">bdd.cc</text>
</a>
</g>
</g>
<!-- Node2&#45;&gt;Node3 -->
<g id="edge2" class="edge"><title>Node2&#45;&gt;Node3</title>
<path fill="none" stroke="midnightblue" d="M285.853,-273.519C277.038,-265.26 266.545,-254.628 258.441,-244 244.269,-225.414 231.734,-200.829 225.541,-187.871"/>
<polygon fill="midnightblue" stroke="midnightblue" points="283.613,-276.214 293.36,-280.368 288.332,-271.043 283.613,-276.214"/>
</g>
<!-- Node4 -->
<g id="node4" class="node"><title>Node4</title>
<g id="a_node4"><a xlink:href="zbdd_8h.xhtml" target="_top" xlink:title="Zero&#45;Suppressed Binary Decision Diagram facilities. ">
<polygon fill="white" stroke="black" points="131.441,-224.5 131.441,-243.5 177.441,-243.5 177.441,-224.5 131.441,-224.5"/>
<text text-anchor="middle" x="154.441" y="-231.5" font-family="Helvetica,sans-Serif" font-size="10.00">zbdd.h</text>
</a>
</g>
</g>
<!-- Node2&#45;&gt;Node4 -->
<g id="edge3" class="edge"><title>Node2&#45;&gt;Node4</title>
<path fill="none" stroke="midnightblue" d="M272.999,-277.967C244.851,-267.766 203.609,-252.819 177.927,-243.512"/>
<polygon fill="midnightblue" stroke="midnightblue" points="272.129,-281.375 282.723,-281.492 274.514,-274.794 272.129,-281.375"/>
</g>
<!-- Node7 -->
<g id="node7" class="node"><title>Node7</title>
<g id="a_node7"><a xlink:href="risk__analysis_8cc.xhtml" target="_top" xlink:title="Implementation of risk analysis handler. ">
<polygon fill="white" stroke="black" points="142.941,-56.5 142.941,-75.5 229.941,-75.5 229.941,-56.5 142.941,-56.5"/>
<text text-anchor="middle" x="186.441" y="-63.5" font-family="Helvetica,sans-Serif" font-size="10.00">risk_analysis.cc</text>
</a>
</g>
</g>
<!-- Node2&#45;&gt;Node7 -->
<g id="edge28" class="edge"><title>Node2&#45;&gt;Node7</title>
<path fill="none" stroke="midnightblue" d="M297.099,-270.584C288.494,-246.421 272.044,-202.98 253.441,-168 234.273,-131.958 205.68,-92.5401 192.954,-75.5609"/>
<polygon fill="midnightblue" stroke="midnightblue" points="293.869,-271.951 300.48,-280.23 300.475,-269.635 293.869,-271.951"/>
</g>
<!-- Node9 -->
<g id="node9" class="node"><title>Node9</title>
<g id="a_node9"><a xlink:href="importance__analysis_8h.xhtml" target="_top" xlink:title="Contains functionality to do numerical analysis of importance factors. ">
<polygon fill="white" stroke="black" points="300.441,-168.5 300.441,-187.5 414.441,-187.5 414.441,-168.5 300.441,-168.5"/>
<text text-anchor="middle" x="357.441" y="-175.5" font-family="Helvetica,sans-Serif" font-size="10.00">importance_analysis.h</text>
</a>
</g>
</g>
<!-- Node2&#45;&gt;Node9 -->
<g id="edge10" class="edge"><title>Node2&#45;&gt;Node9</title>
<path fill="none" stroke="midnightblue" d="M312.12,-271.32C323.878,-247.37 344.408,-205.548 353.223,-187.591"/>
<polygon fill="midnightblue" stroke="midnightblue" points="308.943,-269.849 307.678,-280.368 315.227,-272.934 308.943,-269.849"/>
</g>
<!-- Node2&#45;&gt;Node15 -->
<g id="edge19" class="edge"><title>Node2&#45;&gt;Node15</title>
<path fill="none" stroke="midnightblue" d="M334.047,-280.437C370.127,-270.342 429.733,-253.664 465.82,-243.568"/>
<polygon fill="midnightblue" stroke="midnightblue" points="332.782,-277.156 324.095,-283.221 334.669,-283.897 332.782,-277.156"/>
</g>
<!-- Node4&#45;&gt;Node3 -->
<g id="edge4" class="edge"><title>Node4&#45;&gt;Node3</title>
<path fill="none" stroke="midnightblue" d="M173.276,-217.82C185.279,-208.145 200.413,-195.948 210.48,-187.834"/>
<polygon fill="midnightblue" stroke="midnightblue" points="170.795,-215.324 165.206,-224.324 175.188,-220.774 170.795,-215.324"/>
</g>
<!-- Node4&#45;&gt;Node5 -->
<g id="edge5" class="edge"><title>Node4&#45;&gt;Node5</title>
<path fill="none" stroke="midnightblue" d="M127.679,-219.862C107.282,-209.849 79.7751,-196.346 62.0705,-187.655"/>
<polygon fill="midnightblue" stroke="midnightblue" points="126.249,-223.059 136.768,-224.324 129.333,-216.775 126.249,-223.059"/>
</g>
<!-- Node4&#45;&gt;Node7 -->
<g id="edge8" class="edge"><title>Node4&#45;&gt;Node7</title>
<path fill="none" stroke="midnightblue" d="M137.79,-217.043C130.674,-209.078 123.16,-198.839 119.441,-188 116.556,-179.592 116.875,-176.51 119.441,-168 131.104,-129.319 162.96,-91.8472 178.159,-75.5286"/>
<polygon fill="midnightblue" stroke="midnightblue" points="135.44,-219.65 144.885,-224.45 140.495,-214.808 135.44,-219.65"/>
</g>
<!-- Node8 -->
<g id="node8" class="node"><title>Node8</title>
<g id="a_node8"><a xlink:href="zbdd_8cc.xhtml" target="_top" xlink:title="Implementation of Zero&#45;Suppressed BDD algorithms. ">
<polygon fill="white" stroke="black" points="128.941,-168.5 128.941,-187.5 179.941,-187.5 179.941,-168.5 128.941,-168.5"/>
<text text-anchor="middle" x="154.441" y="-175.5" font-family="Helvetica,sans-Serif" font-size="10.00">zbdd.cc</text>
</a>
</g>
</g>
<!-- Node4&#45;&gt;Node8 -->
<g id="edge9" class="edge"><title>Node4&#45;&gt;Node8</title>
<path fill="none" stroke="midnightblue" d="M154.441,-213.805C154.441,-204.91 154.441,-194.78 154.441,-187.751"/>
<polygon fill="midnightblue" stroke="midnightblue" points="150.941,-214.083 154.441,-224.083 157.941,-214.083 150.941,-214.083"/>
</g>
<!-- Node6 -->
<g id="node6" class="node"><title>Node6</title>
<g id="a_node6"><a xlink:href="mocus_8cc.xhtml" target="_top" xlink:title="Implementation of the MOCUS algorithm. ">
<polygon fill="white" stroke="black" points="13.941,-112.5 13.941,-131.5 72.941,-131.5 72.941,-112.5 13.941,-112.5"/>
<text text-anchor="middle" x="43.441" y="-119.5" font-family="Helvetica,sans-Serif" font-size="10.00">mocus.cc</text>
</a>
</g>
</g>
<!-- Node5&#45;&gt;Node6 -->
<g id="edge6" class="edge"><title>Node5&#45;&gt;Node6</title>
<path fill="none" stroke="midnightblue" d="M44.0855,-157.805C43.9208,-148.91 43.7332,-138.78 43.603,-131.751"/>
<polygon fill="midnightblue" stroke="midnightblue" points="40.5912,-158.15 44.2758,-168.083 47.59,-158.02 40.5912,-158.15"/>
</g>
<!-- Node5&#45;&gt;Node7 -->
<g id="edge7" class="edge"><title>Node5&#45;&gt;Node7</title>
<path fill="none" stroke="midnightblue" d="M24.5006,-161.954C8.92192,-148.361 -8.14844,-128.081 4.44097,-112 21.2948,-90.4715 94.4088,-77.8193 142.683,-71.6648"/>
<polygon fill="midnightblue" stroke="midnightblue" points="22.3963,-164.754 32.3462,-168.395 26.838,-159.344 22.3963,-164.754"/>
</g>
<!-- Node10 -->
<g id="node10" class="node"><title>Node10</title>
<g id="a_node10"><a xlink:href="importance__analysis_8cc.xhtml" target="_top" xlink:title="Implementations of functions to provide quantitative importance informations. ">
<polygon fill="white" stroke="black" points="300.941,-112.5 300.941,-131.5 419.941,-131.5 419.941,-112.5 300.941,-112.5"/>
<text text-anchor="middle" x="360.441" y="-119.5" font-family="Helvetica,sans-Serif" font-size="10.00">importance_analysis.cc</text>
</a>
</g>
</g>
<!-- Node9&#45;&gt;Node10 -->
<g id="edge11" class="edge"><title>Node9&#45;&gt;Node10</title>
<path fill="none" stroke="midnightblue" d="M358.507,-157.805C359.002,-148.91 359.564,-138.78 359.955,-131.751"/>
<polygon fill="midnightblue" stroke="midnightblue" points="354.997,-157.904 357.936,-168.083 361.986,-158.293 354.997,-157.904"/>
</g>
<!-- Node11 -->
<g id="node11" class="node"><title>Node11</title>
<g id="a_node11"><a xlink:href="reporter_8h.xhtml" target="_top" xlink:title="Reporter of results. ">
<polygon fill="white" stroke="black" points="602.441,-56.5 602.441,-75.5 660.441,-75.5 660.441,-56.5 602.441,-56.5"/>
<text text-anchor="middle" x="631.441" y="-63.5" font-family="Helvetica,sans-Serif" font-size="10.00">reporter.h</text>
</a>
</g>
</g>
<!-- Node9&#45;&gt;Node11 -->
<g id="edge12" class="edge"><title>Node9&#45;&gt;Node11</title>
<path fill="none" stroke="midnightblue" d="M385.844,-164.211C416.049,-150.744 465.315,-129.155 508.441,-112 542.246,-98.5524 581.842,-84.3362 606.784,-75.5651"/>
<polygon fill="midnightblue" stroke="midnightblue" points="384.068,-161.171 376.368,-168.449 386.926,-167.561 384.068,-161.171"/>
</g>
<!-- Node14 -->
<g id="node14" class="node"><title>Node14</title>
<g id="a_node14"><a xlink:href="risk__analysis_8h.xhtml" target="_top" xlink:title="Contains the main system for performing analysis. ">
<polygon fill="white" stroke="black" points="517.441,-112.5 517.441,-131.5 599.441,-131.5 599.441,-112.5 517.441,-112.5"/>
<text text-anchor="middle" x="558.441" y="-119.5" font-family="Helvetica,sans-Serif" font-size="10.00">risk_analysis.h</text>
</a>
</g>
</g>
<!-- Node9&#45;&gt;Node14 -->
<g id="edge15" class="edge"><title>Node9&#45;&gt;Node14</title>
<path fill="none" stroke="midnightblue" d="M399.022,-165.829C436.972,-155.633 492.251,-140.782 526.741,-131.516"/>
<polygon fill="midnightblue" stroke="midnightblue" points="398.039,-162.469 389.29,-168.444 399.856,-169.229 398.039,-162.469"/>
</g>
<!-- Node12 -->
<g id="node12" class="node"><title>Node12</title>
<g id="a_node12"><a xlink:href="reporter_8cc.xhtml" target="_top" xlink:title="Implements Reporter class. ">
<polygon fill="white" stroke="black" points="604.941,-0.5 604.941,-19.5 667.941,-19.5 667.941,-0.5 604.941,-0.5"/>
<text text-anchor="middle" x="636.441" y="-7.5" font-family="Helvetica,sans-Serif" font-size="10.00">reporter.cc</text>
</a>
</g>
</g>
<!-- Node11&#45;&gt;Node12 -->
<g id="edge13" class="edge"><title>Node11&#45;&gt;Node12</title>
<path fill="none" stroke="midnightblue" d="M633.191,-46.1005C634.021,-37.1357 634.973,-26.8579 635.631,-19.7511"/>
<polygon fill="midnightblue" stroke="midnightblue" points="629.704,-45.8029 632.267,-56.083 636.674,-46.4483 629.704,-45.8029"/>
</g>
<!-- Node13 -->
<g id="node13" class="node"><title>Node13</title>
<g id="a_node13"><a xlink:href="scram_8cc.xhtml" target="_top" xlink:title="Main entrance. ">
<polygon fill="white" stroke="black" points="529.941,-0.5 529.941,-19.5 586.941,-19.5 586.941,-0.5 529.941,-0.5"/>
<text text-anchor="middle" x="558.441" y="-7.5" font-family="Helvetica,sans-Serif" font-size="10.00">scram.cc</text>
</a>
</g>
</g>
<!-- Node11&#45;&gt;Node13 -->
<g id="edge14" class="edge"><title>Node11&#45;&gt;Node13</title>
<path fill="none" stroke="midnightblue" d="M611.299,-50.1008C598.162,-40.3824 581.459,-28.0269 570.383,-19.8339"/>
<polygon fill="midnightblue" stroke="midnightblue" points="609.591,-53.1907 619.712,-56.324 613.754,-47.5631 609.591,-53.1907"/>
</g>
<!-- Node14&#45;&gt;Node7 -->
<g id="edge17" class="edge"><title>Node14&#45;&gt;Node7</title>
<path fill="none" stroke="midnightblue" d="M507.245,-113.568C433.677,-102.889 299.325,-83.3863 230.156,-73.3458"/>
<polygon fill="midnightblue" stroke="midnightblue" points="506.81,-117.042 517.209,-115.015 507.816,-110.114 506.81,-117.042"/>
</g>
<!-- Node14&#45;&gt;Node11 -->
<g id="edge16" class="edge"><title>Node14&#45;&gt;Node11</title>
<path fill="none" stroke="midnightblue" d="M578.583,-106.101C591.72,-96.3824 608.423,-84.0269 619.499,-75.8339"/>
<polygon fill="midnightblue" stroke="midnightblue" points="576.128,-103.563 570.17,-112.324 580.291,-109.191 576.128,-103.563"/>
</g>
<!-- Node14&#45;&gt;Node13 -->
<g id="edge18" class="edge"><title>Node14&#45;&gt;Node13</title>
<path fill="none" stroke="midnightblue" d="M558.441,-102.348C558.441,-78.2538 558.441,-37.3079 558.441,-19.5914"/>
<polygon fill="midnightblue" stroke="midnightblue" points="554.941,-102.368 558.441,-112.368 561.941,-102.369 554.941,-102.368"/>
</g>
<!-- Node15&#45;&gt;Node9 -->
<g id="edge20" class="edge"><title>Node15&#45;&gt;Node9</title>
<path fill="none" stroke="midnightblue" d="M464.965,-220.772C438.856,-210.629 402.402,-196.467 379.363,-187.516"/>
<polygon fill="midnightblue" stroke="midnightblue" points="463.827,-224.085 474.416,-224.444 466.362,-217.56 463.827,-224.085"/>
</g>
<!-- Node15&#45;&gt;Node11 -->
<g id="edge22" class="edge"><title>Node15&#45;&gt;Node11</title>
<path fill="none" stroke="midnightblue" d="M542.646,-221.196C561.344,-214.303 581.712,-203.759 595.441,-188 624.811,-154.288 630.233,-97.4685 631.224,-75.7763"/>
<polygon fill="midnightblue" stroke="midnightblue" points="541.392,-217.926 533.064,-224.476 543.659,-224.549 541.392,-217.926"/>
</g>
<!-- Node15&#45;&gt;Node14 -->
<g id="edge23" class="edge"><title>Node15&#45;&gt;Node14</title>
<path fill="none" stroke="midnightblue" d="M478.211,-217.256C464.976,-203.857 451.063,-184.255 461.441,-168 473.729,-148.754 496.601,-137.614 517.05,-131.234"/>
<polygon fill="midnightblue" stroke="midnightblue" points="476.06,-220.039 485.736,-224.356 480.864,-214.948 476.06,-220.039"/>
</g>
<!-- Node16 -->
<g id="node16" class="node"><title>Node16</title>
<g id="a_node16"><a xlink:href="probability__analysis_8cc.xhtml" target="_top" xlink:title="Implementations of functions to provide probability analysis. ">
<polygon fill="white" stroke="black" points="470.441,-168.5 470.441,-187.5 586.441,-187.5 586.441,-168.5 470.441,-168.5"/>
<text text-anchor="middle" x="528.441" y="-175.5" font-family="Helvetica,sans-Serif" font-size="10.00">probability_analysis.cc</text>
</a>
</g>
</g>
<!-- Node15&#45;&gt;Node16 -->
<g id="edge21" class="edge"><title>Node15&#45;&gt;Node16</title>
<path fill="none" stroke="midnightblue" d="M506.945,-215.275C512.414,-206.045 518.859,-195.17 523.255,-187.751"/>
<polygon fill="midnightblue" stroke="midnightblue" points="503.812,-213.696 501.725,-224.083 509.834,-217.264 503.812,-213.696"/>
</g>
<!-- Node17 -->
<g id="node17" class="node"><title>Node17</title>
<g id="a_node17"><a xlink:href="uncertainty__analysis_8h.xhtml" target="_top" xlink:title="Provides functionality for uncertainty analysis with Monte Carlo method. ">
<polygon fill="white" stroke="black" points="680.441,-168.5 680.441,-187.5 794.441,-187.5 794.441,-168.5 680.441,-168.5"/>
<text text-anchor="middle" x="737.441" y="-175.5" font-family="Helvetica,sans-Serif" font-size="10.00">uncertainty_analysis.h</text>
</a>
</g>
</g>
<!-- Node15&#45;&gt;Node17 -->
<g id="edge24" class="edge"><title>Node15&#45;&gt;Node17</title>
<path fill="none" stroke="midnightblue" d="M544.564,-222.217C590.103,-212.013 657.551,-196.901 699.432,-187.516"/>
<polygon fill="midnightblue" stroke="midnightblue" points="543.621,-218.842 534.628,-224.444 545.151,-225.672 543.621,-218.842"/>
</g>
<!-- Node17&#45;&gt;Node11 -->
<g id="edge26" class="edge"><title>Node17&#45;&gt;Node11</title>
<path fill="none" stroke="midnightblue" d="M719.72,-161.564C710.213,-153.077 698.431,-142.222 688.441,-132 669.558,-112.679 649.049,-88.3929 638.536,-75.6762"/>
<polygon fill="midnightblue" stroke="midnightblue" points="717.575,-164.339 727.386,-168.337 722.209,-159.093 717.575,-164.339"/>
</g>
<!-- Node17&#45;&gt;Node14 -->
<g id="edge25" class="edge"><title>Node17&#45;&gt;Node14</title>
<path fill="none" stroke="midnightblue" d="M699.11,-165.436C665.361,-155.255 616.994,-140.664 586.671,-131.516"/>
<polygon fill="midnightblue" stroke="midnightblue" points="698.493,-168.906 709.078,-168.444 700.515,-162.204 698.493,-168.906"/>
</g>
<!-- Node18 -->
<g id="node18" class="node"><title>Node18</title>
<g id="a_node18"><a xlink:href="uncertainty__analysis_8cc.xhtml" target="_top" xlink:title="Implements the functionality to run Monte Carlo simulations. ">
<polygon fill="white" stroke="black" points="697.941,-112.5 697.941,-131.5 816.941,-131.5 816.941,-112.5 697.941,-112.5"/>
<text text-anchor="middle" x="757.441" y="-119.5" font-family="Helvetica,sans-Serif" font-size="10.00">uncertainty_analysis.cc</text>
</a>
</g>
</g>
<!-- Node17&#45;&gt;Node18 -->
<g id="edge27" class="edge"><title>Node17&#45;&gt;Node18</title>
<path fill="none" stroke="midnightblue" d="M744.223,-158.69C747.593,-149.589 751.51,-139.014 754.2,-131.751"/>
<polygon fill="midnightblue" stroke="midnightblue" points="740.935,-157.49 740.744,-168.083 747.499,-159.921 740.935,-157.49"/>
</g>
<!-- Node20&#45;&gt;Node11 -->
<g id="edge33" class="edge"><title>Node20&#45;&gt;Node11</title>
<path fill="none" stroke="midnightblue" d="M651.41,-277.249C726.617,-251.459 885.503,-186.244 826.441,-112 806.055,-86.3736 709.966,-74.088 660.711,-69.3909"/>
<polygon fill="midnightblue" stroke="midnightblue" points="650.173,-273.972 641.813,-280.481 652.407,-280.606 650.173,-273.972"/>
</g>
<!-- Node20&#45;&gt;Node14 -->
<g id="edge34" class="edge"><title>Node20&#45;&gt;Node14</title>
<path fill="none" stroke="midnightblue" d="M614.509,-270.261C613.94,-245.716 610.627,-201.829 595.441,-168 588.979,-153.606 576.653,-140.044 568.01,-131.646"/>
<polygon fill="midnightblue" stroke="midnightblue" points="611.01,-270.386 614.61,-280.351 618.01,-270.316 611.01,-270.386"/>
</g>
<!-- Node20&#45;&gt;Node15 -->
<g id="edge32" class="edge"><title>Node20&#45;&gt;Node15</title>
<path fill="none" stroke="midnightblue" d="M586.541,-276.232C564.468,-266.131 534.265,-252.309 515.051,-243.516"/>
<polygon fill="midnightblue" stroke="midnightblue" points="585.194,-279.465 595.744,-280.444 588.107,-273.1 585.194,-279.465"/>
</g>
<!-- Node21 -->
<g id="node21" class="node"><title>Node21</title>
<g id="a_node21"><a xlink:href="fault__tree__analysis_8cc.xhtml" target="_top" xlink:title="Implementation of fault tree analysis. ">
<polygon fill="white" stroke="black" points="873.441,-224.5 873.441,-243.5 985.441,-243.5 985.441,-224.5 873.441,-224.5"/>
<text text-anchor="middle" x="929.441" y="-231.5" font-family="Helvetica,sans-Serif" font-size="10.00">fault_tree_analysis.cc</text>
</a>
</g>
</g>
<!-- Node20&#45;&gt;Node21 -->
<g id="edge31" class="edge"><title>Node20&#45;&gt;Node21</title>
<path fill="none" stroke="midnightblue" d="M674.364,-278.727C733.89,-268.523 824.101,-253.058 879.762,-243.516"/>
<polygon fill="midnightblue" stroke="midnightblue" points="673.618,-275.304 664.354,-280.444 674.801,-282.203 673.618,-275.304"/>
</g>
<!-- Node22&#45;&gt;Node20 -->
<g id="edge36" class="edge"><title>Node22&#45;&gt;Node20</title>
<path fill="none" stroke="midnightblue" d="M638.141,-327.566C632.119,-318.275 624.972,-307.248 620.113,-299.751"/>
<polygon fill="midnightblue" stroke="midnightblue" points="635.285,-329.595 643.661,-336.083 641.159,-325.788 635.285,-329.595"/>
</g>
<!-- Node23 -->
<g id="node23" class="node"><title>Node23</title>
<g id="a_node23"><a xlink:href="preprocessor_8cc.xhtml" target="_top" xlink:title="Implementation of preprocessing algorithms. ">
<polygon fill="white" stroke="black" points="686.441,-280.5 686.441,-299.5 772.441,-299.5 772.441,-280.5 686.441,-280.5"/>
<text text-anchor="middle" x="729.441" y="-287.5" font-family="Helvetica,sans-Serif" font-size="10.00">preprocessor.cc</text>
</a>
</g>
</g>
<!-- Node22&#45;&gt;Node23 -->
<g id="edge37" class="edge"><title>Node22&#45;&gt;Node23</title>
<path fill="none" stroke="midnightblue" d="M670.742,-330.622C685.356,-320.757 704.268,-307.992 716.619,-299.655"/>
<polygon fill="midnightblue" stroke="midnightblue" points="668.625,-327.828 662.294,-336.324 672.541,-333.63 668.625,-327.828"/>
</g>
</g>
</svg>
        <g id="navigator" transform="translate(0 0)" fill="#404254">
                <rect fill="#f2f5e9" fill-opacity="0.5" stroke="#606060" stroke-width=".5" x="0" y="0" width="60" height="60"/>
                <use id="zoomplus" xlink:href="#zoomPlus" x="17" y="9" onmousedown="handleZoom(evt,'in')"/>
                <use id="zoomminus" xlink:href="#zoomMin" x="42" y="9" onmousedown="handleZoom(evt,'out')"/>
                <use id="reset" xlink:href="#resetDef" x="30" y="36" onmousedown="handleReset()"/>
                <g id="arrowUp" xlink:href="#dirArrow" transform="translate(30 24)" onmousedown="handlePan(0,-1)">
                  <use xlink:href="#rim" fill="#404040">
                        <set attributeName="fill" to="#808080" begin="arrowUp.mouseover" end="arrowUp.mouseout"/>
                  </use>
                  <path fill="none" stroke="white" stroke-width="1.5" d="M0,-3.0v7 M-2.5,-0.5L0,-3.0L2.5,-0.5"/>
                </g>
                <g id="arrowRight" xlink:href="#dirArrow" transform="rotate(90) translate(36 -43)" onmousedown="handlePan(1,0)">
                  <use xlink:href="#rim" fill="#404040">
                        <set attributeName="fill" to="#808080" begin="arrowRight.mouseover" end="arrowRight.mouseout"/>
                  </use>
                  <path fill="none" stroke="white" stroke-width="1.5" d="M0,-3.0v7 M-2.5,-0.5L0,-3.0L2.5,-0.5"/>
                </g>
                <g id="arrowDown" xlink:href="#dirArrow" transform="rotate(180) translate(-30 -48)" onmousedown="handlePan(0,1)">
                  <use xlink:href="#rim" fill="#404040">
                        <set attributeName="fill" to="#808080" begin="arrowDown.mouseover" end="arrowDown.mouseout"/>
                  </use>
                  <path fill="none" stroke="white" stroke-width="1.5" d="M0,-3.0v7 M-2.5,-0.5L0,-3.0L2.5,-0.5"/>
                </g>
                <g id="arrowLeft" xlink:href="#dirArrow" transform="rotate(270) translate(-36 17)" onmousedown="handlePan(-1,0)">
                  <use xlink:href="#rim" fill="#404040">
                        <set attributeName="fill" to="#808080" begin="arrowLeft.mouseover" end="arrowLeft.mouseout"/>
                  </use>
                  <path fill="none" stroke="white" stroke-width="1.5" d="M0,-3.0v7 M-2.5,-0.5L0,-3.0L2.5,-0.5"/>
                </g>
        </g>
        <svg viewBox="0 0 15 15" width="100%" height="30px" preserveAspectRatio="xMaxYMin meet">
         <g id="arrow_out" transform="scale(0.3 0.3)">
          <a xlink:href="boolean__graph_8h__dep__incl_org.svg" target="_base">
           <rect id="button" ry="5" rx="5" y="6" x="6" height="38" width="38"
                fill="#f2f5e9" fill-opacity="0.5" stroke="#606060" stroke-width="1.0"/>
           <path id="arrow"
             d="M 11.500037,31.436501 C 11.940474,20.09759 22.043105,11.32322 32.158766,21.979434 L 37.068811,17.246167 C 37.068811,17.246167 37.088388,32 37.088388,32 L 22.160133,31.978069 C 22.160133,31.978069 26.997745,27.140456 26.997745,27.140456 C 18.528582,18.264221 13.291696,25.230495 11.500037,31.436501 z"
             style="fill:#404040;"/>
          </a>
         </g>
        </svg>
</svg>
