<?xml version="1.0" encoding="UTF-8" standalone="no"?>
<!DOCTYPE svg PUBLIC "-//W3C//DTD SVG 1.1//EN"
 "http://www.w3.org/Graphics/SVG/1.1/DTD/svg11.dtd">
<!-- Generated by graphviz version 2.38.0 (20140413.2041)
 -->
<!-- Title: ccf_group.h Pages: 1 -->
<svg width="509pt" height="308pt"
 viewBox="0.00 0.00 508.50 308.00" xmlns="http://www.w3.org/2000/svg" xmlns:xlink="http://www.w3.org/1999/xlink">
<g id="graph0" class="graph" transform="scale(1 1) rotate(0) translate(4 304)">
<title>ccf_group.h</title>
<polygon fill="white" stroke="none" points="-4,4 -4,-304 504.5,-304 504.5,4 -4,4"/>
<!-- Node1 -->
<g id="node1" class="node"><title>Node1</title>
<polygon fill="#bfbfbf" stroke="black" points="177.5,-280.5 177.5,-299.5 245.5,-299.5 245.5,-280.5 177.5,-280.5"/>
<text text-anchor="middle" x="211.5" y="-287.5" font-family="Helvetica,sans-Serif" font-size="10.00">ccf_group.h</text>
</g>
<!-- Node2 -->
<g id="node2" class="node"><title>Node2</title>
<g id="a_node2"><a xlink:href="ccf__group_8cc.xhtml" target="_top" xlink:title="Implementation of various common cause failure models. ">
<polygon fill="white" stroke="black" points="0,-224.5 0,-243.5 73,-243.5 73,-224.5 0,-224.5"/>
<text text-anchor="middle" x="36.5" y="-231.5" font-family="Helvetica,sans-Serif" font-size="10.00">ccf_group.cc</text>
</a>
</g>
</g>
<!-- Node1&#45;&gt;Node2 -->
<g id="edge1" class="edge"><title>Node1&#45;&gt;Node2</title>
<path fill="none" stroke="midnightblue" d="M174.025,-277.436C141.03,-267.255 93.7445,-252.664 64.0995,-243.516"/>
<polygon fill="midnightblue" stroke="midnightblue" points="173.183,-280.839 183.771,-280.444 175.247,-274.151 173.183,-280.839"/>
</g>
<!-- Node3 -->
<g id="node3" class="node"><title>Node3</title>
<g id="a_node3"><a xlink:href="event_8cc.xhtml" target="_top" xlink:title="Implementation of Event Class and its derived classes. ">
<polygon fill="white" stroke="black" points="91.5,-224.5 91.5,-243.5 145.5,-243.5 145.5,-224.5 91.5,-224.5"/>
<text text-anchor="middle" x="118.5" y="-231.5" font-family="Helvetica,sans-Serif" font-size="10.00">event.cc</text>
</a>
</g>
</g>
<!-- Node1&#45;&gt;Node3 -->
<g id="edge2" class="edge"><title>Node1&#45;&gt;Node3</title>
<path fill="none" stroke="midnightblue" d="M187.694,-275.177C170.581,-265.241 148.035,-252.149 133.405,-243.655"/>
<polygon fill="midnightblue" stroke="midnightblue" points="186.153,-278.329 196.558,-280.324 189.668,-272.276 186.153,-278.329"/>
</g>
<!-- Node4 -->
<g id="node4" class="node"><title>Node4</title>
<g id="a_node4"><a xlink:href="fault__tree_8h.xhtml" target="_top" xlink:title="Fault Tree and Component containers. ">
<polygon fill="white" stroke="black" points="217,-224.5 217,-243.5 282,-243.5 282,-224.5 217,-224.5"/>
<text text-anchor="middle" x="249.5" y="-231.5" font-family="Helvetica,sans-Serif" font-size="10.00">fault_tree.h</text>
</a>
</g>
</g>
<!-- Node1&#45;&gt;Node4 -->
<g id="edge3" class="edge"><title>Node1&#45;&gt;Node4</title>
<path fill="none" stroke="midnightblue" d="M223.565,-271.855C230.145,-262.505 238.011,-251.327 243.342,-243.751"/>
<polygon fill="midnightblue" stroke="midnightblue" points="220.668,-269.891 217.775,-280.083 226.392,-273.919 220.668,-269.891"/>
</g>
<!-- Node6 -->
<g id="node6" class="node"><title>Node6</title>
<g id="a_node6"><a xlink:href="initializer_8h.xhtml" target="_top" xlink:title="A facility that processes input files into analysis constructs. ">
<polygon fill="white" stroke="black" points="156,-112.5 156,-131.5 219,-131.5 219,-112.5 156,-112.5"/>
<text text-anchor="middle" x="187.5" y="-119.5" font-family="Helvetica,sans-Serif" font-size="10.00">initializer.h</text>
</a>
</g>
</g>
<!-- Node1&#45;&gt;Node6 -->
<g id="edge19" class="edge"><title>Node1&#45;&gt;Node6</title>
<path fill="none" stroke="midnightblue" d="M208.743,-269.93C203.537,-233.92 192.449,-157.231 188.739,-131.568"/>
<polygon fill="midnightblue" stroke="midnightblue" points="205.315,-270.679 210.21,-280.075 212.243,-269.677 205.315,-270.679"/>
</g>
<!-- Node9 -->
<g id="node9" class="node"><title>Node9</title>
<g id="a_node9"><a xlink:href="model_8h.xhtml" target="_top" xlink:title="Representation for a model container for risk analysis. ">
<polygon fill="white" stroke="black" points="367,-168.5 367,-187.5 418,-187.5 418,-168.5 367,-168.5"/>
<text text-anchor="middle" x="392.5" y="-175.5" font-family="Helvetica,sans-Serif" font-size="10.00">model.h</text>
</a>
</g>
</g>
<!-- Node1&#45;&gt;Node9 -->
<g id="edge20" class="edge"><title>Node1&#45;&gt;Node9</title>
<path fill="none" stroke="midnightblue" d="M236.467,-275.455C252.358,-266.712 273.3,-254.962 291.5,-244 323.652,-224.635 360.523,-200.367 379.582,-187.665"/>
<polygon fill="midnightblue" stroke="midnightblue" points="234.385,-272.605 227.294,-280.477 237.747,-278.745 234.385,-272.605"/>
</g>
<!-- Node12 -->
<g id="node12" class="node"><title>Node12</title>
<g id="a_node12"><a xlink:href="reporter_8cc.xhtml" target="_top" xlink:title="Implements Reporter class. ">
<polygon fill="white" stroke="black" points="423,-0.5 423,-19.5 486,-19.5 486,-0.5 423,-0.5"/>
<text text-anchor="middle" x="454.5" y="-7.5" font-family="Helvetica,sans-Serif" font-size="10.00">reporter.cc</text>
</a>
</g>
</g>
<!-- Node1&#45;&gt;Node12 -->
<g id="edge21" class="edge"><title>Node1&#45;&gt;Node12</title>
<path fill="none" stroke="midnightblue" d="M255.398,-281.705C336.247,-267.018 500.5,-230.805 500.5,-179 500.5,-179 500.5,-179 500.5,-121 500.5,-80.4284 473.536,-37.5021 460.896,-19.609"/>
<polygon fill="midnightblue" stroke="midnightblue" points="254.731,-278.268 245.502,-283.471 255.961,-285.16 254.731,-278.268"/>
</g>
<!-- Node5 -->
<g id="node5" class="node"><title>Node5</title>
<g id="a_node5"><a xlink:href="fault__tree_8cc.xhtml" target="_top" xlink:title="Implementation of fault tree and component containers. ">
<polygon fill="white" stroke="black" points="278,-168.5 278,-187.5 349,-187.5 349,-168.5 278,-168.5"/>
<text text-anchor="middle" x="313.5" y="-175.5" font-family="Helvetica,sans-Serif" font-size="10.00">fault_tree.cc</text>
</a>
</g>
</g>
<!-- Node4&#45;&gt;Node5 -->
<g id="edge4" class="edge"><title>Node4&#45;&gt;Node5</title>
<path fill="none" stroke="midnightblue" d="M267.491,-217.82C278.958,-208.145 293.413,-195.948 303.03,-187.834"/>
<polygon fill="midnightblue" stroke="midnightblue" points="265.169,-215.2 259.783,-224.324 269.683,-220.55 265.169,-215.2"/>
</g>
<!-- Node4&#45;&gt;Node6 -->
<g id="edge5" class="edge"><title>Node4&#45;&gt;Node6</title>
<path fill="none" stroke="midnightblue" d="M239.715,-215.64C226.246,-191.744 202.509,-149.629 192.342,-131.591"/>
<polygon fill="midnightblue" stroke="midnightblue" points="236.676,-217.376 244.635,-224.368 242.774,-213.938 236.676,-217.376"/>
</g>
<!-- Node4&#45;&gt;Node9 -->
<g id="edge8" class="edge"><title>Node4&#45;&gt;Node9</title>
<path fill="none" stroke="midnightblue" d="M281.527,-220.906C308.412,-210.754 346.141,-196.506 369.947,-187.516"/>
<polygon fill="midnightblue" stroke="midnightblue" points="280.278,-217.636 272.159,-224.444 282.75,-224.185 280.278,-217.636"/>
</g>
<!-- Node14 -->
<g id="node14" class="node"><title>Node14</title>
<g id="a_node14"><a xlink:href="risk__analysis_8cc.xhtml" target="_top" xlink:title="Implementation of risk analysis handler. ">
<polygon fill="white" stroke="black" points="216,-56.5 216,-75.5 303,-75.5 303,-56.5 216,-56.5"/>
<text text-anchor="middle" x="259.5" y="-63.5" font-family="Helvetica,sans-Serif" font-size="10.00">risk_analysis.cc</text>
</a>
</g>
</g>
<!-- Node4&#45;&gt;Node14 -->
<g id="edge18" class="edge"><title>Node4&#45;&gt;Node14</title>
<path fill="none" stroke="midnightblue" d="M250.649,-213.93C252.818,-177.92 257.438,-101.231 258.984,-75.5681"/>
<polygon fill="midnightblue" stroke="midnightblue" points="247.145,-213.883 250.038,-224.075 254.133,-214.304 247.145,-213.883"/>
</g>
<!-- Node7 -->
<g id="node7" class="node"><title>Node7</title>
<g id="a_node7"><a xlink:href="initializer_8cc.xhtml" target="_top" xlink:title="Implementation of input file processing into analysis constructs. ">
<polygon fill="white" stroke="black" points="91.5,-56.5 91.5,-75.5 159.5,-75.5 159.5,-56.5 91.5,-56.5"/>
<text text-anchor="middle" x="125.5" y="-63.5" font-family="Helvetica,sans-Serif" font-size="10.00">initializer.cc</text>
</a>
</g>
</g>
<!-- Node6&#45;&gt;Node7 -->
<g id="edge6" class="edge"><title>Node6&#45;&gt;Node7</title>
<path fill="none" stroke="midnightblue" d="M169.746,-105.537C158.692,-95.9087 144.869,-83.8694 135.643,-75.8339"/>
<polygon fill="midnightblue" stroke="midnightblue" points="167.699,-108.395 177.539,-112.324 172.297,-103.117 167.699,-108.395"/>
</g>
<!-- Node8 -->
<g id="node8" class="node"><title>Node8</title>
<g id="a_node8"><a xlink:href="scram_8cc.xhtml" target="_top" xlink:title="Main entrance. ">
<polygon fill="white" stroke="black" points="303,-0.5 303,-19.5 360,-19.5 360,-0.5 303,-0.5"/>
<text text-anchor="middle" x="331.5" y="-7.5" font-family="Helvetica,sans-Serif" font-size="10.00">scram.cc</text>
</a>
</g>
</g>
<!-- Node6&#45;&gt;Node8 -->
<g id="edge7" class="edge"><title>Node6&#45;&gt;Node8</title>
<path fill="none" stroke="midnightblue" d="M188.856,-101.987C190.837,-87.6578 195.683,-68.4182 207.5,-56 232.759,-29.455 274.882,-18.5131 302.922,-14.0396"/>
<polygon fill="midnightblue" stroke="midnightblue" points="185.347,-101.896 187.802,-112.202 192.31,-102.614 185.347,-101.896"/>
</g>
<!-- Node9&#45;&gt;Node6 -->
<g id="edge9" class="edge"><title>Node9&#45;&gt;Node6</title>
<path fill="none" stroke="midnightblue" d="M357.195,-167.658C303.494,-153.488 251.391,-139.787 219.02,-131.28"/>
<polygon fill="midnightblue" stroke="midnightblue" points="356.319,-171.047 366.881,-170.214 358.106,-164.278 356.319,-171.047"/>
</g>
<!-- Node10 -->
<g id="node10" class="node"><title>Node10</title>
<g id="a_node10"><a xlink:href="model_8cc.xhtml" target="_top" xlink:title="Implementation of functions in Model class. ">
<polygon fill="white" stroke="black" points="416.5,-112.5 416.5,-131.5 472.5,-131.5 472.5,-112.5 416.5,-112.5"/>
<text text-anchor="middle" x="444.5" y="-119.5" font-family="Helvetica,sans-Serif" font-size="10.00">model.cc</text>
</a>
</g>
</g>
<!-- Node9&#45;&gt;Node10 -->
<g id="edge10" class="edge"><title>Node9&#45;&gt;Node10</title>
<path fill="none" stroke="midnightblue" d="M408.179,-160.718C417.345,-151.2 428.553,-139.561 436.073,-131.751"/>
<polygon fill="midnightblue" stroke="midnightblue" points="405.502,-158.452 401.087,-168.083 410.544,-163.308 405.502,-158.452"/>
</g>
<!-- Node11 -->
<g id="node11" class="node"><title>Node11</title>
<g id="a_node11"><a xlink:href="reporter_8h.xhtml" target="_top" xlink:title="Reporter of results. ">
<polygon fill="white" stroke="black" points="359.5,-56.5 359.5,-75.5 417.5,-75.5 417.5,-56.5 359.5,-56.5"/>
<text text-anchor="middle" x="388.5" y="-63.5" font-family="Helvetica,sans-Serif" font-size="10.00">reporter.h</text>
</a>
</g>
</g>
<!-- Node9&#45;&gt;Node11 -->
<g id="edge11" class="edge"><title>Node9&#45;&gt;Node11</title>
<path fill="none" stroke="midnightblue" d="M391.822,-158.348C390.946,-134.254 389.457,-93.3079 388.812,-75.5914"/>
<polygon fill="midnightblue" stroke="midnightblue" points="388.325,-158.502 392.186,-168.368 395.32,-158.248 388.325,-158.502"/>
</g>
<!-- Node13 -->
<g id="node13" class="node"><title>Node13</title>
<g id="a_node13"><a xlink:href="risk__analysis_8h.xhtml" target="_top" xlink:title="Contains the main system for performing analysis. ">
<polygon fill="white" stroke="black" points="278.5,-112.5 278.5,-131.5 360.5,-131.5 360.5,-112.5 278.5,-112.5"/>
<text text-anchor="middle" x="319.5" y="-119.5" font-family="Helvetica,sans-Serif" font-size="10.00">risk_analysis.h</text>
</a>
</g>
</g>
<!-- Node9&#45;&gt;Node13 -->
<g id="edge14" class="edge"><title>Node9&#45;&gt;Node13</title>
<path fill="none" stroke="midnightblue" d="M372.358,-162.101C359.221,-152.382 342.518,-140.027 331.442,-131.834"/>
<polygon fill="midnightblue" stroke="midnightblue" points="370.65,-165.191 380.771,-168.324 374.813,-159.563 370.65,-165.191"/>
</g>
<!-- Node11&#45;&gt;Node8 -->
<g id="edge13" class="edge"><title>Node11&#45;&gt;Node8</title>
<path fill="none" stroke="midnightblue" d="M371.879,-49.2533C361.766,-39.6731 349.223,-27.7906 340.825,-19.8339"/>
<polygon fill="midnightblue" stroke="midnightblue" points="369.675,-51.9873 379.342,-56.324 374.49,-46.9056 369.675,-51.9873"/>
</g>
<!-- Node11&#45;&gt;Node12 -->
<g id="edge12" class="edge"><title>Node11&#45;&gt;Node12</title>
<path fill="none" stroke="midnightblue" d="M407.054,-49.8197C418.878,-40.1452 433.786,-27.9481 443.703,-19.8339"/>
<polygon fill="midnightblue" stroke="midnightblue" points="404.627,-47.2827 399.104,-56.324 409.06,-52.7004 404.627,-47.2827"/>
</g>
<!-- Node13&#45;&gt;Node8 -->
<g id="edge17" class="edge"><title>Node13&#45;&gt;Node8</title>
<path fill="none" stroke="midnightblue" d="M321.535,-102.348C324.163,-78.2538 328.63,-37.3079 330.563,-19.5914"/>
<polygon fill="midnightblue" stroke="midnightblue" points="318.047,-102.048 320.442,-112.368 325.006,-102.807 318.047,-102.048"/>
</g>
<!-- Node13&#45;&gt;Node11 -->
<g id="edge15" class="edge"><title>Node13&#45;&gt;Node11</title>
<path fill="none" stroke="midnightblue" d="M338.538,-106.101C350.956,-96.3824 366.743,-84.0269 377.212,-75.8339"/>
<polygon fill="midnightblue" stroke="midnightblue" points="336.304,-103.405 330.586,-112.324 340.618,-108.917 336.304,-103.405"/>
</g>
<!-- Node13&#45;&gt;Node14 -->
<g id="edge16" class="edge"><title>Node13&#45;&gt;Node14</title>
<path fill="none" stroke="midnightblue" d="M302.319,-105.537C291.621,-95.9087 278.244,-83.8694 269.315,-75.8339"/>
<polygon fill="midnightblue" stroke="midnightblue" points="300.086,-108.236 309.86,-112.324 304.768,-103.033 300.086,-108.236"/>
</g>
</g>
</svg>
