<?xml version="1.0" encoding="UTF-8" standalone="no"?>
<!DOCTYPE svg PUBLIC "-//W3C//DTD SVG 1.1//EN"
 "http://www.w3.org/Graphics/SVG/1.1/DTD/svg11.dtd">
<!-- Generated by graphviz version 2.38.0 (20140413.2041)
 -->
<!-- Title: ccf_group.cc Pages: 1 -->
<svg width="799pt" height="319pt"
 viewBox="0.00 0.00 798.50 319.00" xmlns="http://www.w3.org/2000/svg" xmlns:xlink="http://www.w3.org/1999/xlink">
<g id="graph0" class="graph" transform="scale(1 1) rotate(0) translate(4 315)">
<title>ccf_group.cc</title>
<polygon fill="white" stroke="none" points="-4,4 -4,-315 794.5,-315 794.5,4 -4,4"/>
<!-- Node1 -->
<g id="node1" class="node"><title>Node1</title>
<polygon fill="#bfbfbf" stroke="black" points="545,-291.5 545,-310.5 618,-310.5 618,-291.5 545,-291.5"/>
<text text-anchor="middle" x="581.5" y="-298.5" font-family="Helvetica,sans-Serif" font-size="10.00">ccf_group.cc</text>
</g>
<!-- Node2 -->
<g id="node2" class="node"><title>Node2</title>
<g id="a_node2"><a xlink:href="ccf__group_8h.xhtml" target="_top" xlink:title="Functional containers for basic events grouped by common cause failure. ">
<polygon fill="white" stroke="black" points="361.5,-235.5 361.5,-254.5 429.5,-254.5 429.5,-235.5 361.5,-235.5"/>
<text text-anchor="middle" x="395.5" y="-242.5" font-family="Helvetica,sans-Serif" font-size="10.00">ccf_group.h</text>
</a>
</g>
</g>
<!-- Node1&#45;&gt;Node2 -->
<g id="edge1" class="edge"><title>Node1&#45;&gt;Node2</title>
<path fill="none" stroke="midnightblue" d="M552.028,-291.444C520.329,-282.241 469.768,-267.562 434.725,-257.388"/>
<polygon fill="midnightblue" stroke="midnightblue" points="435.414,-253.943 424.834,-254.516 433.462,-260.666 435.414,-253.943"/>
</g>
<!-- Node17 -->
<g id="node17" class="node"><title>Node17</title>
<polygon fill="white" stroke="#bfbfbf" points="448,-235.5 448,-254.5 577,-254.5 577,-235.5 448,-235.5"/>
<text text-anchor="middle" x="512.5" y="-242.5" font-family="Helvetica,sans-Serif" font-size="10.00">boost/range/algorithm.hpp</text>
</g>
<!-- Node1&#45;&gt;Node17 -->
<g id="edge31" class="edge"><title>Node1&#45;&gt;Node17</title>
<path fill="none" stroke="midnightblue" d="M570.414,-291.324C560.014,-283.185 544.239,-270.839 531.778,-261.087"/>
<polygon fill="midnightblue" stroke="midnightblue" points="533.82,-258.241 523.788,-254.834 529.506,-263.753 533.82,-258.241"/>
</g>
<!-- Node18 -->
<g id="node18" class="node"><title>Node18</title>
<g id="a_node18"><a xlink:href="arithmetic_8h.xhtml" target="_top" xlink:title="A collection of arithmetic expressions. ">
<polygon fill="white" stroke="black" points="672.5,-179.5 672.5,-198.5 790.5,-198.5 790.5,-179.5 672.5,-179.5"/>
<text text-anchor="middle" x="731.5" y="-186.5" font-family="Helvetica,sans-Serif" font-size="10.00">expression/arithmetic.h</text>
</a>
</g>
</g>
<!-- Node1&#45;&gt;Node18 -->
<g id="edge32" class="edge"><title>Node1&#45;&gt;Node18</title>
<path fill="none" stroke="midnightblue" d="M618.094,-297.68C649.033,-293.717 692.243,-283.127 717.5,-255 728.698,-242.53 731.697,-223.298 732.196,-208.984"/>
<polygon fill="midnightblue" stroke="midnightblue" points="735.695,-208.773 732.168,-198.782 728.695,-208.792 735.695,-208.773"/>
</g>
<!-- Node19 -->
<g id="node19" class="node"><title>Node19</title>
<g id="a_node19"><a xlink:href="constant_8h.xhtml" target="_top" xlink:title="Constant expressions that cannot have uncertainties. ">
<polygon fill="white" stroke="black" points="595,-235.5 595,-254.5 708,-254.5 708,-235.5 595,-235.5"/>
<text text-anchor="middle" x="651.5" y="-242.5" font-family="Helvetica,sans-Serif" font-size="10.00">expression/constant.h</text>
</a>
</g>
</g>
<!-- Node1&#45;&gt;Node19 -->
<g id="edge35" class="edge"><title>Node1&#45;&gt;Node19</title>
<path fill="none" stroke="midnightblue" d="M592.747,-291.324C603.297,-283.185 619.301,-270.839 631.942,-261.087"/>
<polygon fill="midnightblue" stroke="midnightblue" points="634.269,-263.713 640.049,-254.834 629.993,-258.171 634.269,-263.713"/>
</g>
<!-- Node3 -->
<g id="node3" class="node"><title>Node3</title>
<polygon fill="white" stroke="#bfbfbf" points="352.5,-67.5 352.5,-86.5 404.5,-86.5 404.5,-67.5 352.5,-67.5"/>
<text text-anchor="middle" x="378.5" y="-74.5" font-family="Helvetica,sans-Serif" font-size="10.00">memory</text>
</g>
<!-- Node2&#45;&gt;Node3 -->
<g id="edge2" class="edge"><title>Node2&#45;&gt;Node3</title>
<path fill="none" stroke="midnightblue" d="M394.586,-235.075C391.91,-208.945 384.052,-132.211 380.402,-96.577"/>
<polygon fill="midnightblue" stroke="midnightblue" points="383.878,-96.1595 379.377,-86.5681 376.915,-96.8727 383.878,-96.1595"/>
</g>
<!-- Node4 -->
<g id="node4" class="node"><title>Node4</title>
<polygon fill="white" stroke="#bfbfbf" points="0,-6 0,-25 41,-25 41,-6 0,-6"/>
<text text-anchor="middle" x="20.5" y="-13" font-family="Helvetica,sans-Serif" font-size="10.00">string</text>
</g>
<!-- Node2&#45;&gt;Node4 -->
<g id="edge3" class="edge"><title>Node2&#45;&gt;Node4</title>
<path fill="none" stroke="midnightblue" d="M361.497,-241.709C298.883,-235.802 164.208,-215.007 81.5,-143 48.2057,-114.013 31.4939,-62.7533 24.5625,-35.2244"/>
<polygon fill="midnightblue" stroke="midnightblue" points="27.9297,-34.2528 22.2367,-25.3175 21.115,-35.8528 27.9297,-34.2528"/>
</g>
<!-- Node5 -->
<g id="node5" class="node"><title>Node5</title>
<polygon fill="white" stroke="#bfbfbf" points="538.5,-179.5 538.5,-198.5 578.5,-198.5 578.5,-179.5 538.5,-179.5"/>
<text text-anchor="middle" x="558.5" y="-186.5" font-family="Helvetica,sans-Serif" font-size="10.00">utility</text>
</g>
<!-- Node2&#45;&gt;Node5 -->
<g id="edge4" class="edge"><title>Node2&#45;&gt;Node5</title>
<path fill="none" stroke="midnightblue" d="M421.328,-235.444C450.524,-225.771 497.978,-210.05 528.713,-199.868"/>
<polygon fill="midnightblue" stroke="midnightblue" points="530.053,-203.111 538.445,-196.644 527.852,-196.466 530.053,-203.111"/>
</g>
<!-- Node6 -->
<g id="node6" class="node"><title>Node6</title>
<polygon fill="white" stroke="#bfbfbf" points="584.5,-6 584.5,-25 628.5,-25 628.5,-6 584.5,-6"/>
<text text-anchor="middle" x="606.5" y="-13" font-family="Helvetica,sans-Serif" font-size="10.00">vector</text>
</g>
<!-- Node2&#45;&gt;Node6 -->
<g id="edge5" class="edge"><title>Node2&#45;&gt;Node6</title>
<path fill="none" stroke="midnightblue" d="M429.686,-236.513C484.167,-224.509 584.862,-201.995 587.5,-199 628.35,-152.626 618.197,-71.7287 610.884,-35.2663"/>
<polygon fill="midnightblue" stroke="midnightblue" points="614.217,-34.1206 608.678,-25.0893 607.376,-35.6039 614.217,-34.1206"/>
</g>
<!-- Node7 -->
<g id="node7" class="node"><title>Node7</title>
<polygon fill="white" stroke="#bfbfbf" points="423,-67.5 423,-86.5 540,-86.5 540,-67.5 423,-67.5"/>
<text text-anchor="middle" x="481.5" y="-74.5" font-family="Helvetica,sans-Serif" font-size="10.00">boost/noncopyable.hpp</text>
</g>
<!-- Node2&#45;&gt;Node7 -->
<g id="edge6" class="edge"><title>Node2&#45;&gt;Node7</title>
<path fill="none" stroke="midnightblue" d="M400.124,-235.075C413.778,-208.719 454.105,-130.878 472.35,-95.6608"/>
<polygon fill="midnightblue" stroke="midnightblue" points="475.569,-97.0573 477.061,-86.5681 469.353,-93.8372 475.569,-97.0573"/>
</g>
<!-- Node8 -->
<g id="node8" class="node"><title>Node8</title>
<g id="a_node8"><a xlink:href="element_8h.xhtml" target="_top" xlink:title="Helper classes, structs, and properties common to all other classes. ">
<polygon fill="white" stroke="black" points="199,-67.5 199,-86.5 258,-86.5 258,-67.5 199,-67.5"/>
<text text-anchor="middle" x="228.5" y="-74.5" font-family="Helvetica,sans-Serif" font-size="10.00">element.h</text>
</a>
</g>
</g>
<!-- Node2&#45;&gt;Node8 -->
<g id="edge7" class="edge"><title>Node2&#45;&gt;Node8</title>
<path fill="none" stroke="midnightblue" d="M362.458,-235.399C340.274,-228.373 311.395,-216.677 290.5,-199 258.176,-171.654 240.71,-123.224 233.151,-96.6819"/>
<polygon fill="midnightblue" stroke="midnightblue" points="236.466,-95.5298 230.503,-86.7723 229.703,-97.3368 236.466,-95.5298"/>
</g>
<!-- Node13 -->
<g id="node13" class="node"><title>Node13</title>
<g id="a_node13"><a xlink:href="event_8h.xhtml" target="_top" xlink:title="Contains event classes for fault trees. ">
<polygon fill="white" stroke="black" points="300,-179.5 300,-198.5 349,-198.5 349,-179.5 300,-179.5"/>
<text text-anchor="middle" x="324.5" y="-186.5" font-family="Helvetica,sans-Serif" font-size="10.00">event.h</text>
</a>
</g>
</g>
<!-- Node2&#45;&gt;Node13 -->
<g id="edge14" class="edge"><title>Node2&#45;&gt;Node13</title>
<path fill="none" stroke="midnightblue" d="M384.093,-235.324C373.391,-227.185 357.159,-214.839 344.337,-205.087"/>
<polygon fill="midnightblue" stroke="midnightblue" points="346.193,-202.102 336.115,-198.834 341.956,-207.673 346.193,-202.102"/>
</g>
<!-- Node16 -->
<g id="node16" class="node"><title>Node16</title>
<g id="a_node16"><a xlink:href="expression_8h.xhtml" target="_top" xlink:title="Provides the base class for all expressions and units for expression values. ">
<polygon fill="white" stroke="black" points="504.5,-123.5 504.5,-142.5 576.5,-142.5 576.5,-123.5 504.5,-123.5"/>
<text text-anchor="middle" x="540.5" y="-130.5" font-family="Helvetica,sans-Serif" font-size="10.00">expression.h</text>
</a>
</g>
</g>
<!-- Node2&#45;&gt;Node16 -->
<g id="edge30" class="edge"><title>Node2&#45;&gt;Node16</title>
<path fill="none" stroke="midnightblue" d="M419.492,-235.362C438.812,-227.68 466.029,-215.166 486.5,-199 503.879,-185.277 519.536,-165.14 529.461,-150.923"/>
<polygon fill="midnightblue" stroke="midnightblue" points="532.413,-152.807 535.116,-142.563 526.614,-148.885 532.413,-152.807"/>
</g>
<!-- Node8&#45;&gt;Node4 -->
<g id="edge9" class="edge"><title>Node8&#45;&gt;Node4</title>
<path fill="none" stroke="midnightblue" d="M198.956,-69.2976C155.795,-59.3757 77.6835,-40.8896 50.5,-31 49.073,-30.4808 47.6232,-29.9157 46.1703,-29.3195"/>
<polygon fill="midnightblue" stroke="midnightblue" points="47.3022,-25.9912 36.7457,-25.0912 44.4369,-32.3779 47.3022,-25.9912"/>
</g>
<!-- Node8&#45;&gt;Node6 -->
<g id="edge10" class="edge"><title>Node8&#45;&gt;Node6</title>
<path fill="none" stroke="midnightblue" d="M258.179,-72.5877C336.074,-63.5656 542.432,-39.2116 572.5,-31 574.798,-30.3724 577.145,-29.6218 579.478,-28.7972"/>
<polygon fill="midnightblue" stroke="midnightblue" points="580.806,-32.0357 588.829,-25.1157 578.242,-25.5223 580.806,-32.0357"/>
</g>
<!-- Node9 -->
<g id="node9" class="node"><title>Node9</title>
<polygon fill="white" stroke="#bfbfbf" points="517.5,-6 517.5,-25 563.5,-25 563.5,-6 517.5,-6"/>
<text text-anchor="middle" x="540.5" y="-13" font-family="Helvetica,sans-Serif" font-size="10.00">cstdint</text>
</g>
<!-- Node8&#45;&gt;Node9 -->
<g id="edge8" class="edge"><title>Node8&#45;&gt;Node9</title>
<path fill="none" stroke="midnightblue" d="M258.283,-69.6991C263.031,-68.7549 267.895,-67.8232 272.5,-67 376.514,-48.407 406.04,-60.5055 507.5,-31 509.648,-30.3753 511.84,-29.6423 514.021,-28.8434"/>
<polygon fill="midnightblue" stroke="midnightblue" points="515.404,-32.0596 523.349,-25.051 512.767,-25.575 515.404,-32.0596"/>
</g>
<!-- Node10 -->
<g id="node10" class="node"><title>Node10</title>
<polygon fill="white" stroke="#bfbfbf" points="342,-6 342,-25 499,-25 499,-6 342,-6"/>
<text text-anchor="middle" x="420.5" y="-13" font-family="Helvetica,sans-Serif" font-size="10.00">boost/multi_index_container.hpp</text>
</g>
<!-- Node8&#45;&gt;Node10 -->
<g id="edge11" class="edge"><title>Node8&#45;&gt;Node10</title>
<path fill="none" stroke="midnightblue" d="M256.009,-67.4751C289.371,-57.1362 345.762,-39.6611 383.063,-28.1017"/>
<polygon fill="midnightblue" stroke="midnightblue" points="384.526,-31.3124 393.042,-25.0091 382.454,-24.6261 384.526,-31.3124"/>
</g>
<!-- Node11 -->
<g id="node11" class="node"><title>Node11</title>
<polygon fill="white" stroke="#bfbfbf" points="59.5,-0.5 59.5,-30.5 187.5,-30.5 187.5,-0.5 59.5,-0.5"/>
<text text-anchor="start" x="67.5" y="-18.5" font-family="Helvetica,sans-Serif" font-size="10.00">boost/multi_index/hashed</text>
<text text-anchor="middle" x="123.5" y="-7.5" font-family="Helvetica,sans-Serif" font-size="10.00">_index.hpp</text>
</g>
<!-- Node8&#45;&gt;Node11 -->
<g id="edge12" class="edge"><title>Node8&#45;&gt;Node11</title>
<path fill="none" stroke="midnightblue" d="M213.456,-67.4751C198.837,-59.1907 176.131,-46.3245 157.19,-35.5913"/>
<polygon fill="midnightblue" stroke="midnightblue" points="158.672,-32.4081 148.246,-30.523 155.221,-38.4982 158.672,-32.4081"/>
</g>
<!-- Node12 -->
<g id="node12" class="node"><title>Node12</title>
<polygon fill="white" stroke="#bfbfbf" points="205.5,-0.5 205.5,-30.5 323.5,-30.5 323.5,-0.5 205.5,-0.5"/>
<text text-anchor="start" x="213.5" y="-18.5" font-family="Helvetica,sans-Serif" font-size="10.00">boost/multi_index/mem</text>
<text text-anchor="middle" x="264.5" y="-7.5" font-family="Helvetica,sans-Serif" font-size="10.00">_fun.hpp</text>
</g>
<!-- Node8&#45;&gt;Node12 -->
<g id="edge13" class="edge"><title>Node8&#45;&gt;Node12</title>
<path fill="none" stroke="midnightblue" d="M233.658,-67.4751C238.124,-60.0945 244.789,-49.0772 250.783,-39.1714"/>
<polygon fill="midnightblue" stroke="midnightblue" points="253.833,-40.8907 256.016,-30.523 247.844,-37.267 253.833,-40.8907"/>
</g>
<!-- Node13&#45;&gt;Node3 -->
<g id="edge16" class="edge"><title>Node13&#45;&gt;Node3</title>
<path fill="none" stroke="midnightblue" d="M328.737,-179.368C337.57,-161.376 358.103,-119.55 369.847,-95.6267"/>
<polygon fill="midnightblue" stroke="midnightblue" points="373.017,-97.1105 374.282,-86.5914 366.734,-94.0257 373.017,-97.1105"/>
</g>
<!-- Node13&#45;&gt;Node4 -->
<g id="edge17" class="edge"><title>Node13&#45;&gt;Node4</title>
<path fill="none" stroke="midnightblue" d="M310.66,-179.444C296.423,-170.563 273.682,-156.157 254.5,-143 207.29,-110.618 201.058,-93.8578 150.5,-67 108.784,-44.8393 94.0466,-49.303 50.5,-31 49.3001,-30.4957 48.0794,-29.968 46.8508,-29.4249"/>
<polygon fill="midnightblue" stroke="midnightblue" points="48.0378,-26.1177 37.4925,-25.0943 45.098,-32.4705 48.0378,-26.1177"/>
</g>
<!-- Node13&#45;&gt;Node6 -->
<g id="edge18" class="edge"><title>Node13&#45;&gt;Node6</title>
<path fill="none" stroke="midnightblue" d="M322.792,-179.177C319.036,-156.874 312.679,-97.8269 343.5,-67 416.345,5.85803 473.471,-59.425 572.5,-31 574.79,-30.3427 577.131,-29.5711 579.459,-28.7322"/>
<polygon fill="midnightblue" stroke="midnightblue" points="580.799,-31.9661 588.803,-25.0249 578.218,-25.4596 580.799,-31.9661"/>
</g>
<!-- Node13&#45;&gt;Node7 -->
<g id="edge19" class="edge"><title>Node13&#45;&gt;Node7</title>
<path fill="none" stroke="midnightblue" d="M336.82,-179.368C363.646,-160.573 427.594,-115.768 460.757,-92.5334"/>
<polygon fill="midnightblue" stroke="midnightblue" points="463.056,-95.196 469.238,-86.5914 459.039,-89.4631 463.056,-95.196"/>
</g>
<!-- Node13&#45;&gt;Node8 -->
<g id="edge20" class="edge"><title>Node13&#45;&gt;Node8</title>
<path fill="none" stroke="midnightblue" d="M312.98,-179.466C301.899,-170.939 285.027,-157.104 272.5,-143 259.247,-128.079 246.757,-108.957 238.495,-95.3237"/>
<polygon fill="midnightblue" stroke="midnightblue" points="241.381,-93.3282 233.276,-86.5055 235.357,-96.8938 241.381,-93.3282"/>
</g>
<!-- Node13&#45;&gt;Node9 -->
<g id="edge15" class="edge"><title>Node13&#45;&gt;Node9</title>
<path fill="none" stroke="midnightblue" d="M319.749,-179.471C308.416,-157.858 282.737,-100.296 310.5,-67 367.5,1.35957 422.401,-57.0794 507.5,-31 509.43,-30.4087 511.397,-29.7362 513.361,-29.0124"/>
<polygon fill="midnightblue" stroke="midnightblue" points="515.031,-32.1118 522.978,-25.1042 512.396,-25.6269 515.031,-32.1118"/>
</g>
<!-- Node14 -->
<g id="node14" class="node"><title>Node14</title>
<g id="a_node14"><a xlink:href="error_8h.xhtml" target="_top" xlink:title="Exceptions for SCRAM. ">
<polygon fill="white" stroke="black" points="90.5,-123.5 90.5,-142.5 134.5,-142.5 134.5,-123.5 90.5,-123.5"/>
<text text-anchor="middle" x="112.5" y="-130.5" font-family="Helvetica,sans-Serif" font-size="10.00">error.h</text>
</a>
</g>
</g>
<!-- Node13&#45;&gt;Node14 -->
<g id="edge21" class="edge"><title>Node13&#45;&gt;Node14</title>
<path fill="none" stroke="midnightblue" d="M299.766,-181.7C261.22,-171.882 186.844,-152.937 144.343,-142.111"/>
<polygon fill="midnightblue" stroke="midnightblue" points="145.072,-138.685 134.518,-139.608 143.345,-145.468 145.072,-138.685"/>
</g>
<!-- Node13&#45;&gt;Node16 -->
<g id="edge24" class="edge"><title>Node13&#45;&gt;Node16</title>
<path fill="none" stroke="midnightblue" d="M349.278,-181.806C385.157,-172.836 452.128,-156.093 496.519,-144.995"/>
<polygon fill="midnightblue" stroke="midnightblue" points="497.604,-148.332 506.457,-142.511 495.906,-141.541 497.604,-148.332"/>
</g>
<!-- Node14&#45;&gt;Node4 -->
<g id="edge23" class="edge"><title>Node14&#45;&gt;Node4</title>
<path fill="none" stroke="midnightblue" d="M104.545,-123.191C96.529,-114.23 83.8928,-99.8686 73.5,-87 59.1364,-69.2147 43.5004,-48.196 32.9612,-33.7642"/>
<polygon fill="midnightblue" stroke="midnightblue" points="35.5449,-31.3657 26.8361,-25.3319 29.8814,-35.4797 35.5449,-31.3657"/>
</g>
<!-- Node15 -->
<g id="node15" class="node"><title>Node15</title>
<polygon fill="white" stroke="#bfbfbf" points="83,-67.5 83,-86.5 142,-86.5 142,-67.5 83,-67.5"/>
<text text-anchor="middle" x="112.5" y="-74.5" font-family="Helvetica,sans-Serif" font-size="10.00">exception</text>
</g>
<!-- Node14&#45;&gt;Node15 -->
<g id="edge22" class="edge"><title>Node14&#45;&gt;Node15</title>
<path fill="none" stroke="midnightblue" d="M112.5,-123.083C112.5,-116.006 112.5,-105.861 112.5,-96.9865"/>
<polygon fill="midnightblue" stroke="midnightblue" points="116,-96.751 112.5,-86.7511 109,-96.7511 116,-96.751"/>
</g>
<!-- Node16&#45;&gt;Node3 -->
<g id="edge26" class="edge"><title>Node16&#45;&gt;Node3</title>
<path fill="none" stroke="midnightblue" d="M514.831,-123.444C487.577,-114.359 444.316,-99.9388 413.849,-89.7831"/>
<polygon fill="midnightblue" stroke="midnightblue" points="414.643,-86.3584 404.049,-86.5164 412.429,-92.9992 414.643,-86.3584"/>
</g>
<!-- Node16&#45;&gt;Node6 -->
<g id="edge27" class="edge"><title>Node16&#45;&gt;Node6</title>
<path fill="none" stroke="midnightblue" d="M545.461,-123.319C556.259,-104.422 582.072,-59.2483 596.431,-34.1206"/>
<polygon fill="midnightblue" stroke="midnightblue" points="599.559,-35.701 601.482,-25.282 593.481,-32.228 599.559,-35.701"/>
</g>
<!-- Node16&#45;&gt;Node7 -->
<g id="edge28" class="edge"><title>Node16&#45;&gt;Node7</title>
<path fill="none" stroke="midnightblue" d="M531.021,-123.324C522.299,-115.341 509.157,-103.313 498.602,-93.6529"/>
<polygon fill="midnightblue" stroke="midnightblue" points="500.892,-91.0036 491.152,-86.8339 496.166,-96.1674 500.892,-91.0036"/>
</g>
<!-- Node16&#45;&gt;Node8 -->
<g id="edge29" class="edge"><title>Node16&#45;&gt;Node8</title>
<path fill="none" stroke="midnightblue" d="M504.405,-125.753C445.571,-115.57 329.44,-95.4704 268.297,-84.8879"/>
<polygon fill="midnightblue" stroke="midnightblue" points="268.71,-81.4074 258.259,-83.1506 267.516,-88.3048 268.71,-81.4074"/>
</g>
<!-- Node16&#45;&gt;Node9 -->
<g id="edge25" class="edge"><title>Node16&#45;&gt;Node9</title>
<path fill="none" stroke="midnightblue" d="M542.487,-123.433C544.467,-114.424 547.371,-99.805 548.5,-87 550.054,-69.3784 547.347,-49.3415 544.671,-35.1446"/>
<polygon fill="midnightblue" stroke="midnightblue" points="548.061,-34.2553 542.613,-25.1687 541.205,-35.6696 548.061,-34.2553"/>
</g>
<!-- Node18&#45;&gt;Node6 -->
<g id="edge33" class="edge"><title>Node18&#45;&gt;Node6</title>
<path fill="none" stroke="midnightblue" d="M727.241,-179.299C716.958,-158.706 689.331,-105.801 658.5,-67 648.369,-54.25 635.193,-41.4862 624.639,-31.9804"/>
<polygon fill="midnightblue" stroke="midnightblue" points="626.664,-29.0997 616.846,-25.1179 622.038,-34.3533 626.664,-29.0997"/>
</g>
<!-- Node18&#45;&gt;Node16 -->
<g id="edge34" class="edge"><title>Node18&#45;&gt;Node16</title>
<path fill="none" stroke="midnightblue" d="M701.235,-179.444C668.545,-170.201 616.318,-155.436 580.317,-145.257"/>
<polygon fill="midnightblue" stroke="midnightblue" points="581.198,-141.869 570.623,-142.516 579.294,-148.605 581.198,-141.869"/>
</g>
<!-- Node19&#45;&gt;Node16 -->
<g id="edge36" class="edge"><title>Node19&#45;&gt;Node16</title>
<path fill="none" stroke="midnightblue" d="M642.886,-235.087C630.673,-222.486 607.572,-198.793 587.5,-179 577.422,-169.062 565.95,-158.072 556.863,-149.441"/>
<polygon fill="midnightblue" stroke="midnightblue" points="559.253,-146.884 549.586,-142.549 554.44,-151.966 559.253,-146.884"/>
</g>
</g>
</svg>
