<?xml version="1.0" encoding="UTF-8" standalone="no"?>
<!DOCTYPE svg PUBLIC "-//W3C//DTD SVG 1.1//EN"
 "http://www.w3.org/Graphics/SVG/1.1/DTD/svg11.dtd">
<!-- Generated by graphviz version 2.38.0 (20140413.2041)
 -->
<!-- Title: scram::mef::Element Pages: 1 -->
<svg width="1120pt" height="1069pt"
 viewBox="0.00 0.00 1120.00 1069.00" xmlns="http://www.w3.org/2000/svg" xmlns:xlink="http://www.w3.org/1999/xlink">
<g id="graph0" class="graph" transform="scale(1 1) rotate(0) translate(4 1065)">
<title>scram::mef::Element</title>
<polygon fill="white" stroke="none" points="-4,4 -4,-1065 1116,-1065 1116,4 -4,4"/>
<!-- Node1 -->
<g id="node1" class="node"><title>Node1</title>
<polygon fill="#bfbfbf" stroke="black" points="752.5,-926.5 752.5,-1060.5 860.5,-1060.5 860.5,-926.5 752.5,-926.5"/>
<text text-anchor="middle" x="806.5" y="-1048.5" font-family="Helvetica,sans-Serif" font-size="10.00">scram::mef::Element</text>
<polyline fill="none" stroke="black" points="752.5,-1041.5 860.5,-1041.5 "/>
<text text-anchor="middle" x="806.5" y="-1029.5" font-family="Helvetica,sans-Serif" font-size="10.00"> </text>
<polyline fill="none" stroke="black" points="752.5,-1022.5 860.5,-1022.5 "/>
<text text-anchor="start" x="760.5" y="-1010.5" font-family="Helvetica,sans-Serif" font-size="10.00">+ Element()</text>
<text text-anchor="start" x="760.5" y="-999.5" font-family="Helvetica,sans-Serif" font-size="10.00">+ name()</text>
<text text-anchor="start" x="760.5" y="-988.5" font-family="Helvetica,sans-Serif" font-size="10.00">+ label()</text>
<text text-anchor="start" x="760.5" y="-977.5" font-family="Helvetica,sans-Serif" font-size="10.00">+ label()</text>
<text text-anchor="start" x="760.5" y="-966.5" font-family="Helvetica,sans-Serif" font-size="10.00">+ AddAttribute()</text>
<text text-anchor="start" x="760.5" y="-955.5" font-family="Helvetica,sans-Serif" font-size="10.00">+ HasAttribute()</text>
<text text-anchor="start" x="760.5" y="-944.5" font-family="Helvetica,sans-Serif" font-size="10.00">+ GetAttribute()</text>
<text text-anchor="start" x="760.5" y="-933.5" font-family="Helvetica,sans-Serif" font-size="10.00"># ~Element()</text>
</g>
<!-- Node2 -->
<g id="node2" class="node"><title>Node2</title>
<g id="a_node2"><a xlink:href="classscram_1_1mef_1_1CcfGroup.xhtml" target="_top" xlink:title="Abstract base class for all common cause failure models. ">
<polygon fill="white" stroke="black" points="332.5,-596 332.5,-763 448.5,-763 448.5,-596 332.5,-596"/>
<text text-anchor="middle" x="390.5" y="-751" font-family="Helvetica,sans-Serif" font-size="10.00">scram::mef::CcfGroup</text>
<polyline fill="none" stroke="black" points="332.5,-744 448.5,-744 "/>
<text text-anchor="middle" x="390.5" y="-732" font-family="Helvetica,sans-Serif" font-size="10.00"> </text>
<polyline fill="none" stroke="black" points="332.5,-725 448.5,-725 "/>
<text text-anchor="start" x="340.5" y="-713" font-family="Helvetica,sans-Serif" font-size="10.00">+ CcfGroup()</text>
<text text-anchor="start" x="340.5" y="-702" font-family="Helvetica,sans-Serif" font-size="10.00">+ ~CcfGroup()</text>
<text text-anchor="start" x="340.5" y="-691" font-family="Helvetica,sans-Serif" font-size="10.00">+ members()</text>
<text text-anchor="start" x="340.5" y="-680" font-family="Helvetica,sans-Serif" font-size="10.00">+ AddMember()</text>
<text text-anchor="start" x="340.5" y="-669" font-family="Helvetica,sans-Serif" font-size="10.00">+ AddDistribution()</text>
<text text-anchor="start" x="340.5" y="-658" font-family="Helvetica,sans-Serif" font-size="10.00">+ AddFactor()</text>
<text text-anchor="start" x="340.5" y="-647" font-family="Helvetica,sans-Serif" font-size="10.00">+ ValidateDistribution()</text>
<text text-anchor="start" x="340.5" y="-636" font-family="Helvetica,sans-Serif" font-size="10.00">+ Validate()</text>
<text text-anchor="start" x="340.5" y="-625" font-family="Helvetica,sans-Serif" font-size="10.00">+ ApplyModel()</text>
<text text-anchor="start" x="340.5" y="-614" font-family="Helvetica,sans-Serif" font-size="10.00"># distribution()</text>
<text text-anchor="start" x="340.5" y="-603" font-family="Helvetica,sans-Serif" font-size="10.00"># factors()</text>
</a>
</g>
</g>
<!-- Node1&#45;&gt;Node2 -->
<g id="edge1" class="edge"><title>Node1&#45;&gt;Node2</title>
<path fill="none" stroke="midnightblue" d="M743.237,-965.455C702.984,-946.896 650.685,-920.218 608.5,-890 549.399,-847.664 490.439,-789.817 448.766,-745.633"/>
<polygon fill="none" stroke="midnightblue" points="741.863,-968.675 752.414,-969.642 744.769,-962.306 741.863,-968.675"/>
</g>
<!-- Node7 -->
<g id="node7" class="node"><title>Node7</title>
<g id="a_node7"><a xlink:href="classscram_1_1mef_1_1Component.xhtml" target="_top" xlink:title="Component is for logical grouping of events, gates, and other components. ">
<polygon fill="white" stroke="black" points="617.5,-508 617.5,-851 739.5,-851 739.5,-508 617.5,-508"/>
<text text-anchor="middle" x="678.5" y="-839" font-family="Helvetica,sans-Serif" font-size="10.00">scram::mef::Component</text>
<polyline fill="none" stroke="black" points="617.5,-832 739.5,-832 "/>
<text text-anchor="middle" x="678.5" y="-820" font-family="Helvetica,sans-Serif" font-size="10.00"> </text>
<polyline fill="none" stroke="black" points="617.5,-813 739.5,-813 "/>
<text text-anchor="start" x="625.5" y="-801" font-family="Helvetica,sans-Serif" font-size="10.00">+ Component()</text>
<text text-anchor="start" x="625.5" y="-790" font-family="Helvetica,sans-Serif" font-size="10.00">+ ~Component()</text>
<text text-anchor="start" x="625.5" y="-779" font-family="Helvetica,sans-Serif" font-size="10.00">+ AddGate()</text>
<text text-anchor="start" x="625.5" y="-768" font-family="Helvetica,sans-Serif" font-size="10.00">+ AddBasicEvent()</text>
<text text-anchor="start" x="625.5" y="-757" font-family="Helvetica,sans-Serif" font-size="10.00">+ AddHouseEvent()</text>
<text text-anchor="start" x="625.5" y="-746" font-family="Helvetica,sans-Serif" font-size="10.00">+ AddParameter()</text>
<text text-anchor="start" x="625.5" y="-735" font-family="Helvetica,sans-Serif" font-size="10.00">+ AddCcfGroup()</text>
<text text-anchor="start" x="625.5" y="-724" font-family="Helvetica,sans-Serif" font-size="10.00">+ AddComponent()</text>
<text text-anchor="start" x="625.5" y="-713" font-family="Helvetica,sans-Serif" font-size="10.00">+ gates()</text>
<text text-anchor="start" x="625.5" y="-702" font-family="Helvetica,sans-Serif" font-size="10.00">+ basic_events()</text>
<text text-anchor="start" x="625.5" y="-691" font-family="Helvetica,sans-Serif" font-size="10.00">+ house_events()</text>
<text text-anchor="start" x="625.5" y="-680" font-family="Helvetica,sans-Serif" font-size="10.00">+ parameters()</text>
<text text-anchor="start" x="625.5" y="-669" font-family="Helvetica,sans-Serif" font-size="10.00">+ ccf_groups()</text>
<text text-anchor="start" x="625.5" y="-658" font-family="Helvetica,sans-Serif" font-size="10.00">+ components()</text>
<text text-anchor="start" x="625.5" y="-647" font-family="Helvetica,sans-Serif" font-size="10.00"># GatherGates()</text>
<text text-anchor="start" x="625.5" y="-636" font-family="Helvetica,sans-Serif" font-size="10.00">* gates()</text>
<text text-anchor="start" x="625.5" y="-625" font-family="Helvetica,sans-Serif" font-size="10.00">* basic_events()</text>
<text text-anchor="start" x="625.5" y="-614" font-family="Helvetica,sans-Serif" font-size="10.00">* house_events()</text>
<text text-anchor="start" x="625.5" y="-603" font-family="Helvetica,sans-Serif" font-size="10.00">* parameters()</text>
<text text-anchor="start" x="625.5" y="-592" font-family="Helvetica,sans-Serif" font-size="10.00">* ccf_groups()</text>
<text text-anchor="start" x="625.5" y="-581" font-family="Helvetica,sans-Serif" font-size="10.00">* components()</text>
<text text-anchor="start" x="625.5" y="-570" font-family="Helvetica,sans-Serif" font-size="10.00">* gates_</text>
<text text-anchor="start" x="625.5" y="-559" font-family="Helvetica,sans-Serif" font-size="10.00">* basic_events_</text>
<text text-anchor="start" x="625.5" y="-548" font-family="Helvetica,sans-Serif" font-size="10.00">* house_events_</text>
<text text-anchor="start" x="625.5" y="-537" font-family="Helvetica,sans-Serif" font-size="10.00">* parameters_</text>
<text text-anchor="start" x="625.5" y="-526" font-family="Helvetica,sans-Serif" font-size="10.00">* ccf_groups_</text>
<text text-anchor="start" x="625.5" y="-515" font-family="Helvetica,sans-Serif" font-size="10.00">* components_</text>
</a>
</g>
</g>
<!-- Node1&#45;&gt;Node7 -->
<g id="edge6" class="edge"><title>Node1&#45;&gt;Node7</title>
<path fill="none" stroke="midnightblue" d="M761.866,-917.429C757.094,-908.318 752.521,-899.037 748.5,-890 742.926,-877.475 737.544,-864.362 732.408,-851.071"/>
<polygon fill="none" stroke="midnightblue" points="758.894,-919.295 766.691,-926.468 765.07,-915.998 758.894,-919.295"/>
</g>
<!-- Node9 -->
<g id="node9" class="node"><title>Node9</title>
<g id="a_node9"><a xlink:href="classscram_1_1mef_1_1Event.xhtml" target="_top" xlink:title="Abstract base class for general fault tree events. ">
<polygon fill="white" stroke="black" points="757.5,-634.5 757.5,-724.5 855.5,-724.5 855.5,-634.5 757.5,-634.5"/>
<text text-anchor="middle" x="806.5" y="-712.5" font-family="Helvetica,sans-Serif" font-size="10.00">scram::mef::Event</text>
<polyline fill="none" stroke="black" points="757.5,-705.5 855.5,-705.5 "/>
<text text-anchor="middle" x="806.5" y="-693.5" font-family="Helvetica,sans-Serif" font-size="10.00"> </text>
<polyline fill="none" stroke="black" points="757.5,-686.5 855.5,-686.5 "/>
<text text-anchor="start" x="765.5" y="-674.5" font-family="Helvetica,sans-Serif" font-size="10.00">+ Event()</text>
<text text-anchor="start" x="765.5" y="-663.5" font-family="Helvetica,sans-Serif" font-size="10.00">+ ~Event()</text>
<text text-anchor="start" x="765.5" y="-652.5" font-family="Helvetica,sans-Serif" font-size="10.00">+ orphan()</text>
<text text-anchor="start" x="765.5" y="-641.5" font-family="Helvetica,sans-Serif" font-size="10.00">+ orphan()</text>
</a>
</g>
</g>
<!-- Node1&#45;&gt;Node9 -->
<g id="edge8" class="edge"><title>Node1&#45;&gt;Node9</title>
<path fill="none" stroke="midnightblue" d="M806.5,-916.148C806.5,-856.163 806.5,-774.706 806.5,-724.964"/>
<polygon fill="none" stroke="midnightblue" points="803,-916.333 806.5,-926.333 810,-916.333 803,-916.333"/>
</g>
<!-- Node15 -->
<g id="node15" class="node"><title>Node15</title>
<g id="a_node15"><a xlink:href="classscram_1_1mef_1_1Model.xhtml" target="_top" xlink:title="This class represents a risk analysis model. ">
<polygon fill="white" stroke="black" points="874,-469.5 874,-889.5 977,-889.5 977,-469.5 874,-469.5"/>
<text text-anchor="middle" x="925.5" y="-877.5" font-family="Helvetica,sans-Serif" font-size="10.00">scram::mef::Model</text>
<polyline fill="none" stroke="black" points="874,-870.5 977,-870.5 "/>
<text text-anchor="middle" x="925.5" y="-858.5" font-family="Helvetica,sans-Serif" font-size="10.00"> </text>
<polyline fill="none" stroke="black" points="874,-851.5 977,-851.5 "/>
<text text-anchor="start" x="882" y="-839.5" font-family="Helvetica,sans-Serif" font-size="10.00">+ Model()</text>
<text text-anchor="start" x="882" y="-828.5" font-family="Helvetica,sans-Serif" font-size="10.00">+ AddFaultTree()</text>
<text text-anchor="start" x="882" y="-817.5" font-family="Helvetica,sans-Serif" font-size="10.00">+ AddParameter()</text>
<text text-anchor="start" x="882" y="-806.5" font-family="Helvetica,sans-Serif" font-size="10.00">+ AddHouseEvent()</text>
<text text-anchor="start" x="882" y="-795.5" font-family="Helvetica,sans-Serif" font-size="10.00">+ AddBasicEvent()</text>
<text text-anchor="start" x="882" y="-784.5" font-family="Helvetica,sans-Serif" font-size="10.00">+ AddGate()</text>
<text text-anchor="start" x="882" y="-773.5" font-family="Helvetica,sans-Serif" font-size="10.00">+ AddCcfGroup()</text>
<text text-anchor="start" x="882" y="-762.5" font-family="Helvetica,sans-Serif" font-size="10.00">+ BindEvent()</text>
<text text-anchor="start" x="882" y="-751.5" font-family="Helvetica,sans-Serif" font-size="10.00">+ fault_trees()</text>
<text text-anchor="start" x="882" y="-740.5" font-family="Helvetica,sans-Serif" font-size="10.00">+ parameters()</text>
<text text-anchor="start" x="882" y="-729.5" font-family="Helvetica,sans-Serif" font-size="10.00">+ house_events()</text>
<text text-anchor="start" x="882" y="-718.5" font-family="Helvetica,sans-Serif" font-size="10.00">+ basic_events()</text>
<text text-anchor="start" x="882" y="-707.5" font-family="Helvetica,sans-Serif" font-size="10.00">+ gates()</text>
<text text-anchor="start" x="882" y="-696.5" font-family="Helvetica,sans-Serif" font-size="10.00">+ ccf_groups()</text>
<text text-anchor="start" x="882" y="-685.5" font-family="Helvetica,sans-Serif" font-size="10.00">+ GetParameter()</text>
<text text-anchor="start" x="882" y="-674.5" font-family="Helvetica,sans-Serif" font-size="10.00">+ GetHouseEvent()</text>
<text text-anchor="start" x="882" y="-663.5" font-family="Helvetica,sans-Serif" font-size="10.00">+ GetBasicEvent()</text>
<text text-anchor="start" x="882" y="-652.5" font-family="Helvetica,sans-Serif" font-size="10.00">+ GetGate()</text>
<text text-anchor="start" x="882" y="-641.5" font-family="Helvetica,sans-Serif" font-size="10.00">* fault_trees_</text>
<text text-anchor="start" x="882" y="-630.5" font-family="Helvetica,sans-Serif" font-size="10.00">* gates_</text>
<text text-anchor="start" x="882" y="-619.5" font-family="Helvetica,sans-Serif" font-size="10.00">* house_events_</text>
<text text-anchor="start" x="882" y="-608.5" font-family="Helvetica,sans-Serif" font-size="10.00">* basic_events_</text>
<text text-anchor="start" x="882" y="-597.5" font-family="Helvetica,sans-Serif" font-size="10.00">* parameters_</text>
<text text-anchor="start" x="882" y="-586.5" font-family="Helvetica,sans-Serif" font-size="10.00">* ccf_groups_</text>
<text text-anchor="start" x="882" y="-575.5" font-family="Helvetica,sans-Serif" font-size="10.00">* fault_trees()</text>
<text text-anchor="start" x="882" y="-564.5" font-family="Helvetica,sans-Serif" font-size="10.00">* parameters()</text>
<text text-anchor="start" x="882" y="-553.5" font-family="Helvetica,sans-Serif" font-size="10.00">* house_events()</text>
<text text-anchor="start" x="882" y="-542.5" font-family="Helvetica,sans-Serif" font-size="10.00">* basic_events()</text>
<text text-anchor="start" x="882" y="-531.5" font-family="Helvetica,sans-Serif" font-size="10.00">* gates()</text>
<text text-anchor="start" x="882" y="-520.5" font-family="Helvetica,sans-Serif" font-size="10.00">* ccf_groups()</text>
<text text-anchor="start" x="882" y="-509.5" font-family="Helvetica,sans-Serif" font-size="10.00">* GetParameter()</text>
<text text-anchor="start" x="882" y="-498.5" font-family="Helvetica,sans-Serif" font-size="10.00">* GetHouseEvent()</text>
<text text-anchor="start" x="882" y="-487.5" font-family="Helvetica,sans-Serif" font-size="10.00">* GetBasicEvent()</text>
<text text-anchor="start" x="882" y="-476.5" font-family="Helvetica,sans-Serif" font-size="10.00">* GetGate()</text>
</a>
</g>
</g>
<!-- Node1&#45;&gt;Node15 -->
<g id="edge14" class="edge"><title>Node1&#45;&gt;Node15</title>
<path fill="none" stroke="midnightblue" d="M851.594,-917.368C856.263,-908.298 860.686,-899.043 864.5,-890 867.776,-882.234 870.943,-874.235 873.995,-866.103"/>
<polygon fill="none" stroke="midnightblue" points="848.42,-915.883 846.856,-926.362 854.613,-919.146 848.42,-915.883"/>
</g>
<!-- Node16 -->
<g id="node16" class="node"><title>Node16</title>
<g id="a_node16"><a xlink:href="classscram_1_1mef_1_1Parameter.xhtml" target="_top" xlink:title="This class provides a representation of a variable in basic event description. ">
<polygon fill="white" stroke="black" points="995,-607 995,-752 1112,-752 1112,-607 995,-607"/>
<text text-anchor="middle" x="1053.5" y="-740" font-family="Helvetica,sans-Serif" font-size="10.00">scram::mef::Parameter</text>
<polyline fill="none" stroke="black" points="995,-733 1112,-733 "/>
<text text-anchor="middle" x="1053.5" y="-721" font-family="Helvetica,sans-Serif" font-size="10.00"> </text>
<polyline fill="none" stroke="black" points="995,-714 1112,-714 "/>
<text text-anchor="start" x="1003" y="-702" font-family="Helvetica,sans-Serif" font-size="10.00">+ Parameter()</text>
<text text-anchor="start" x="1003" y="-691" font-family="Helvetica,sans-Serif" font-size="10.00">+ expression()</text>
<text text-anchor="start" x="1003" y="-680" font-family="Helvetica,sans-Serif" font-size="10.00">+ unit()</text>
<text text-anchor="start" x="1003" y="-669" font-family="Helvetica,sans-Serif" font-size="10.00">+ unit()</text>
<text text-anchor="start" x="1003" y="-658" font-family="Helvetica,sans-Serif" font-size="10.00">+ unused()</text>
<text text-anchor="start" x="1003" y="-647" font-family="Helvetica,sans-Serif" font-size="10.00">+ unused()</text>
<text text-anchor="start" x="1003" y="-636" font-family="Helvetica,sans-Serif" font-size="10.00">+ Mean()</text>
<text text-anchor="start" x="1003" y="-625" font-family="Helvetica,sans-Serif" font-size="10.00">+ Max()</text>
<text text-anchor="start" x="1003" y="-614" font-family="Helvetica,sans-Serif" font-size="10.00">+ Min()</text>
</a>
</g>
</g>
<!-- Node1&#45;&gt;Node16 -->
<g id="edge15" class="edge"><title>Node1&#45;&gt;Node16</title>
<path fill="none" stroke="midnightblue" d="M870.183,-970.059C908.818,-953.448 956.328,-927.209 986.5,-890 1018.37,-850.7 1035.2,-795.959 1044.02,-752.289"/>
<polygon fill="none" stroke="midnightblue" points="868.446,-966.991 860.568,-974.075 871.144,-973.45 868.446,-966.991"/>
</g>
<!-- Node3 -->
<g id="node3" class="node"><title>Node3</title>
<g id="a_node3"><a xlink:href="classscram_1_1mef_1_1AlphaFactorModel.xhtml" target="_top" xlink:title="Alpha factor model characterizes failure of exactly k members of the group due to common cause...">
<polygon fill="white" stroke="black" points="0,-348 0,-405 151,-405 151,-348 0,-348"/>
<text text-anchor="middle" x="75.5" y="-393" font-family="Helvetica,sans-Serif" font-size="10.00">scram::mef::AlphaFactorModel</text>
<polyline fill="none" stroke="black" points="0,-386 151,-386 "/>
<text text-anchor="middle" x="75.5" y="-374" font-family="Helvetica,sans-Serif" font-size="10.00"> </text>
<polyline fill="none" stroke="black" points="0,-367 151,-367 "/>
<text text-anchor="middle" x="75.5" y="-355" font-family="Helvetica,sans-Serif" font-size="10.00"> </text>
</a>
</g>
</g>
<!-- Node2&#45;&gt;Node3 -->
<g id="edge2" class="edge"><title>Node2&#45;&gt;Node3</title>
<path fill="none" stroke="midnightblue" d="M325.084,-615.991C257.228,-551.151 154.224,-452.725 104.445,-405.158"/>
<polygon fill="none" stroke="midnightblue" points="322.709,-618.563 332.357,-622.941 327.545,-613.502 322.709,-618.563"/>
</g>
<!-- Node4 -->
<g id="node4" class="node"><title>Node4</title>
<g id="a_node4"><a xlink:href="classscram_1_1mef_1_1BetaFactorModel.xhtml" target="_top" xlink:title="Common cause failure model that assumes, if common cause failure occurs, then all components or membe...">
<polygon fill="white" stroke="black" points="169.5,-348 169.5,-405 315.5,-405 315.5,-348 169.5,-348"/>
<text text-anchor="middle" x="242.5" y="-393" font-family="Helvetica,sans-Serif" font-size="10.00">scram::mef::BetaFactorModel</text>
<polyline fill="none" stroke="black" points="169.5,-386 315.5,-386 "/>
<text text-anchor="middle" x="242.5" y="-374" font-family="Helvetica,sans-Serif" font-size="10.00"> </text>
<polyline fill="none" stroke="black" points="169.5,-367 315.5,-367 "/>
<text text-anchor="middle" x="242.5" y="-355" font-family="Helvetica,sans-Serif" font-size="10.00"> </text>
</a>
</g>
</g>
<!-- Node2&#45;&gt;Node4 -->
<g id="edge3" class="edge"><title>Node2&#45;&gt;Node4</title>
<path fill="none" stroke="midnightblue" d="M345.395,-586.766C314.706,-524.35 276.15,-445.938 256.071,-405.101"/>
<polygon fill="none" stroke="midnightblue" points="342.309,-588.423 349.863,-595.852 348.591,-585.334 342.309,-588.423"/>
</g>
<!-- Node5 -->
<g id="node5" class="node"><title>Node5</title>
<g id="a_node5"><a xlink:href="classscram_1_1mef_1_1MglModel.xhtml" target="_top" xlink:title="Multiple Greek Letters model characterizes failure of sub&#45;groups of the group due to common cause...">
<polygon fill="white" stroke="black" points="333.5,-348 333.5,-405 447.5,-405 447.5,-348 333.5,-348"/>
<text text-anchor="middle" x="390.5" y="-393" font-family="Helvetica,sans-Serif" font-size="10.00">scram::mef::MglModel</text>
<polyline fill="none" stroke="black" points="333.5,-386 447.5,-386 "/>
<text text-anchor="middle" x="390.5" y="-374" font-family="Helvetica,sans-Serif" font-size="10.00"> </text>
<polyline fill="none" stroke="black" points="333.5,-367 447.5,-367 "/>
<text text-anchor="middle" x="390.5" y="-355" font-family="Helvetica,sans-Serif" font-size="10.00"> </text>
</a>
</g>
</g>
<!-- Node2&#45;&gt;Node5 -->
<g id="edge4" class="edge"><title>Node2&#45;&gt;Node5</title>
<path fill="none" stroke="midnightblue" d="M390.5,-585.613C390.5,-523.388 390.5,-445.687 390.5,-405.101"/>
<polygon fill="none" stroke="midnightblue" points="387,-585.852 390.5,-595.852 394,-585.852 387,-585.852"/>
</g>
<!-- Node6 -->
<g id="node6" class="node"><title>Node6</title>
<g id="a_node6"><a xlink:href="classscram_1_1mef_1_1PhiFactorModel.xhtml" target="_top" xlink:title="Phi factor model is a simplification, where fractions of k&#45;member group failure is given directly...">
<polygon fill="white" stroke="black" points="465.5,-348 465.5,-405 605.5,-405 605.5,-348 465.5,-348"/>
<text text-anchor="middle" x="535.5" y="-393" font-family="Helvetica,sans-Serif" font-size="10.00">scram::mef::PhiFactorModel</text>
<polyline fill="none" stroke="black" points="465.5,-386 605.5,-386 "/>
<text text-anchor="middle" x="535.5" y="-374" font-family="Helvetica,sans-Serif" font-size="10.00"> </text>
<polyline fill="none" stroke="black" points="465.5,-367 605.5,-367 "/>
<text text-anchor="start" x="473.5" y="-355" font-family="Helvetica,sans-Serif" font-size="10.00">+ Validate()</text>
</a>
</g>
</g>
<!-- Node2&#45;&gt;Node6 -->
<g id="edge5" class="edge"><title>Node2&#45;&gt;Node6</title>
<path fill="none" stroke="midnightblue" d="M434.691,-586.766C464.758,-524.35 502.532,-445.938 522.204,-405.101"/>
<polygon fill="none" stroke="midnightblue" points="431.5,-585.324 430.314,-595.852 437.807,-588.362 431.5,-585.324"/>
</g>
<!-- Node8 -->
<g id="node8" class="node"><title>Node8</title>
<g id="a_node8"><a xlink:href="classscram_1_1mef_1_1FaultTree.xhtml" target="_top" xlink:title="Fault tree representation as a container of gates, basic and house events, and other information...">
<polygon fill="white" stroke="black" points="624,-337 624,-416 737,-416 737,-337 624,-337"/>
<text text-anchor="middle" x="680.5" y="-404" font-family="Helvetica,sans-Serif" font-size="10.00">scram::mef::FaultTree</text>
<polyline fill="none" stroke="black" points="624,-397 737,-397 "/>
<text text-anchor="middle" x="680.5" y="-385" font-family="Helvetica,sans-Serif" font-size="10.00"> </text>
<polyline fill="none" stroke="black" points="624,-378 737,-378 "/>
<text text-anchor="start" x="632" y="-366" font-family="Helvetica,sans-Serif" font-size="10.00">+ FaultTree()</text>
<text text-anchor="start" x="632" y="-355" font-family="Helvetica,sans-Serif" font-size="10.00">+ top_events()</text>
<text text-anchor="start" x="632" y="-344" font-family="Helvetica,sans-Serif" font-size="10.00">+ CollectTopEvents()</text>
</a>
</g>
</g>
<!-- Node7&#45;&gt;Node8 -->
<g id="edge7" class="edge"><title>Node7&#45;&gt;Node8</title>
<path fill="none" stroke="midnightblue" d="M679.701,-497.713C679.906,-466.902 680.099,-437.857 680.244,-416.038"/>
<polygon fill="none" stroke="midnightblue" points="676.201,-497.749 679.634,-507.772 683.201,-497.796 676.201,-497.749"/>
</g>
<!-- Node10 -->
<g id="node10" class="node"><title>Node10</title>
<g id="a_node10"><a xlink:href="classscram_1_1mef_1_1Gate.xhtml" target="_top" xlink:title="A representation of a gate in a fault tree. ">
<polygon fill="white" stroke="black" points="758,-320.5 758,-432.5 851,-432.5 851,-320.5 758,-320.5"/>
<text text-anchor="middle" x="804.5" y="-420.5" font-family="Helvetica,sans-Serif" font-size="10.00">scram::mef::Gate</text>
<polyline fill="none" stroke="black" points="758,-413.5 851,-413.5 "/>
<text text-anchor="middle" x="804.5" y="-401.5" font-family="Helvetica,sans-Serif" font-size="10.00"> </text>
<polyline fill="none" stroke="black" points="758,-394.5 851,-394.5 "/>
<text text-anchor="start" x="766" y="-382.5" font-family="Helvetica,sans-Serif" font-size="10.00">+ formula()</text>
<text text-anchor="start" x="766" y="-371.5" font-family="Helvetica,sans-Serif" font-size="10.00">+ Validate()</text>
<text text-anchor="start" x="766" y="-360.5" font-family="Helvetica,sans-Serif" font-size="10.00">+ formula()</text>
<text text-anchor="start" x="766" y="-349.5" font-family="Helvetica,sans-Serif" font-size="10.00">+ formula()</text>
<text text-anchor="start" x="766" y="-338.5" font-family="Helvetica,sans-Serif" font-size="10.00">* formula()</text>
<text text-anchor="start" x="766" y="-327.5" font-family="Helvetica,sans-Serif" font-size="10.00">* formula()</text>
</a>
</g>
</g>
<!-- Node9&#45;&gt;Node10 -->
<g id="edge9" class="edge"><title>Node9&#45;&gt;Node10</title>
<path fill="none" stroke="midnightblue" d="M806.14,-624.308C805.78,-570.129 805.229,-487.239 804.867,-432.706"/>
<polygon fill="none" stroke="midnightblue" points="802.641,-624.433 806.207,-634.41 809.64,-624.387 802.641,-624.433"/>
</g>
<!-- Node11 -->
<g id="node11" class="node"><title>Node11</title>
<g id="a_node11"><a xlink:href="classscram_1_1mef_1_1PrimaryEvent.xhtml" target="_top" xlink:title="This is an abstract base class for events that can cause failures. ">
<polygon fill="white" stroke="black" points="869,-337 869,-416 1000,-416 1000,-337 869,-337"/>
<text text-anchor="middle" x="934.5" y="-404" font-family="Helvetica,sans-Serif" font-size="10.00">scram::mef::PrimaryEvent</text>
<polyline fill="none" stroke="black" points="869,-397 1000,-397 "/>
<text text-anchor="middle" x="934.5" y="-385" font-family="Helvetica,sans-Serif" font-size="10.00"> </text>
<polyline fill="none" stroke="black" points="869,-378 1000,-378 "/>
<text text-anchor="start" x="877" y="-366" font-family="Helvetica,sans-Serif" font-size="10.00">+ ~PrimaryEvent()</text>
<text text-anchor="start" x="877" y="-355" font-family="Helvetica,sans-Serif" font-size="10.00">+ has_expression()</text>
<text text-anchor="start" x="877" y="-344" font-family="Helvetica,sans-Serif" font-size="10.00"># has_expression()</text>
</a>
</g>
</g>
<!-- Node9&#45;&gt;Node11 -->
<g id="edge10" class="edge"><title>Node9&#45;&gt;Node11</title>
<path fill="none" stroke="midnightblue" d="M815.967,-624.419C824.924,-580.883 840.739,-518.937 865.5,-469 874.692,-450.462 887.803,-431.885 900.132,-416.36"/>
<polygon fill="none" stroke="midnightblue" points="812.531,-623.75 813.997,-634.243 819.395,-625.126 812.531,-623.75"/>
</g>
<!-- Node12 -->
<g id="node12" class="node"><title>Node12</title>
<g id="a_node12"><a xlink:href="classscram_1_1mef_1_1BasicEvent.xhtml" target="_top" xlink:title="Representation of a basic event in a fault tree. ">
<polygon fill="white" stroke="black" points="802.5,-127.5 802.5,-283.5 924.5,-283.5 924.5,-127.5 802.5,-127.5"/>
<text text-anchor="middle" x="863.5" y="-271.5" font-family="Helvetica,sans-Serif" font-size="10.00">scram::mef::BasicEvent</text>
<polyline fill="none" stroke="black" points="802.5,-264.5 924.5,-264.5 "/>
<text text-anchor="middle" x="863.5" y="-252.5" font-family="Helvetica,sans-Serif" font-size="10.00"> </text>
<polyline fill="none" stroke="black" points="802.5,-245.5 924.5,-245.5 "/>
<text text-anchor="start" x="810.5" y="-233.5" font-family="Helvetica,sans-Serif" font-size="10.00">+ ~BasicEvent()</text>
<text text-anchor="start" x="810.5" y="-222.5" font-family="Helvetica,sans-Serif" font-size="10.00">+ expression()</text>
<text text-anchor="start" x="810.5" y="-211.5" font-family="Helvetica,sans-Serif" font-size="10.00">+ p()</text>
<text text-anchor="start" x="810.5" y="-200.5" font-family="Helvetica,sans-Serif" font-size="10.00">+ SampleProbability()</text>
<text text-anchor="start" x="810.5" y="-189.5" font-family="Helvetica,sans-Serif" font-size="10.00">+ Reset()</text>
<text text-anchor="start" x="810.5" y="-178.5" font-family="Helvetica,sans-Serif" font-size="10.00">+ IsConstant()</text>
<text text-anchor="start" x="810.5" y="-167.5" font-family="Helvetica,sans-Serif" font-size="10.00">+ Validate()</text>
<text text-anchor="start" x="810.5" y="-156.5" font-family="Helvetica,sans-Serif" font-size="10.00">+ HasCcf()</text>
<text text-anchor="start" x="810.5" y="-145.5" font-family="Helvetica,sans-Serif" font-size="10.00">+ ccf_gate()</text>
<text text-anchor="start" x="810.5" y="-134.5" font-family="Helvetica,sans-Serif" font-size="10.00">+ ccf_gate()</text>
</a>
</g>
</g>
<!-- Node11&#45;&gt;Node12 -->
<g id="edge11" class="edge"><title>Node11&#45;&gt;Node12</title>
<path fill="none" stroke="midnightblue" d="M914.189,-327.155C908.495,-313.601 902.159,-298.518 895.947,-283.734"/>
<polygon fill="none" stroke="midnightblue" points="911.111,-328.864 918.211,-336.728 917.565,-326.153 911.111,-328.864"/>
</g>
<!-- Node14 -->
<g id="node14" class="node"><title>Node14</title>
<g id="a_node14"><a xlink:href="classscram_1_1mef_1_1HouseEvent.xhtml" target="_top" xlink:title="Representation of a house event in a fault tree. ">
<polygon fill="white" stroke="black" points="942.5,-171.5 942.5,-239.5 1068.5,-239.5 1068.5,-171.5 942.5,-171.5"/>
<text text-anchor="middle" x="1005.5" y="-227.5" font-family="Helvetica,sans-Serif" font-size="10.00">scram::mef::HouseEvent</text>
<polyline fill="none" stroke="black" points="942.5,-220.5 1068.5,-220.5 "/>
<text text-anchor="middle" x="1005.5" y="-208.5" font-family="Helvetica,sans-Serif" font-size="10.00"> </text>
<polyline fill="none" stroke="black" points="942.5,-201.5 1068.5,-201.5 "/>
<text text-anchor="start" x="950.5" y="-189.5" font-family="Helvetica,sans-Serif" font-size="10.00">+ state()</text>
<text text-anchor="start" x="950.5" y="-178.5" font-family="Helvetica,sans-Serif" font-size="10.00">+ state()</text>
</a>
</g>
</g>
<!-- Node11&#45;&gt;Node14 -->
<g id="edge13" class="edge"><title>Node11&#45;&gt;Node14</title>
<path fill="none" stroke="midnightblue" d="M954.67,-327.489C966.461,-299.424 981.044,-264.713 991.562,-239.677"/>
<polygon fill="none" stroke="midnightblue" points="951.435,-326.153 950.789,-336.728 957.889,-328.864 951.435,-326.153"/>
</g>
<!-- Node13 -->
<g id="node13" class="node"><title>Node13</title>
<g id="a_node13"><a xlink:href="classscram_1_1mef_1_1CcfEvent.xhtml" target="_top" xlink:title="A basic event that represents a multiple failure of a group of events due to a common cause...">
<polygon fill="white" stroke="black" points="807,-0.5 807,-90.5 920,-90.5 920,-0.5 807,-0.5"/>
<text text-anchor="middle" x="863.5" y="-78.5" font-family="Helvetica,sans-Serif" font-size="10.00">scram::mef::CcfEvent</text>
<polyline fill="none" stroke="black" points="807,-71.5 920,-71.5 "/>
<text text-anchor="middle" x="863.5" y="-59.5" font-family="Helvetica,sans-Serif" font-size="10.00"> </text>
<polyline fill="none" stroke="black" points="807,-52.5 920,-52.5 "/>
<text text-anchor="start" x="815" y="-40.5" font-family="Helvetica,sans-Serif" font-size="10.00">+ CcfEvent()</text>
<text text-anchor="start" x="815" y="-29.5" font-family="Helvetica,sans-Serif" font-size="10.00">+ ccf_group()</text>
<text text-anchor="start" x="815" y="-18.5" font-family="Helvetica,sans-Serif" font-size="10.00">+ members()</text>
<text text-anchor="start" x="815" y="-7.5" font-family="Helvetica,sans-Serif" font-size="10.00">+ members()</text>
</a>
</g>
</g>
<!-- Node12&#45;&gt;Node13 -->
<g id="edge12" class="edge"><title>Node12&#45;&gt;Node13</title>
<path fill="none" stroke="midnightblue" d="M863.5,-117.082C863.5,-108.019 863.5,-99.1063 863.5,-90.8271"/>
<polygon fill="none" stroke="midnightblue" points="860,-117.351 863.5,-127.351 867,-117.351 860,-117.351"/>
</g>
</g>
</svg>
