<?xml version="1.0" encoding="UTF-8" standalone="no"?>
<!DOCTYPE svg PUBLIC "-//W3C//DTD SVG 1.1//EN"
 "http://www.w3.org/Graphics/SVG/1.1/DTD/svg11.dtd">
<!-- Generated by graphviz version 2.38.0 (20140413.2041)
 -->
<!-- Title: scram::core::Gate Pages: 1 -->
<svg width="259pt" height="623pt"
 viewBox="0.00 0.00 258.50 623.00" xmlns="http://www.w3.org/2000/svg" xmlns:xlink="http://www.w3.org/1999/xlink">
<g id="graph0" class="graph" transform="scale(1 1) rotate(0) translate(4 619)">
<title>scram::core::Gate</title>
<polygon fill="white" stroke="none" points="-4,4 -4,-619 254.5,-619 254.5,4 -4,4"/>
<!-- Node1 -->
<g id="node1" class="node"><title>Node1</title>
<polygon fill="#bfbfbf" stroke="black" points="93.5,-0.5 93.5,-200.5 188.5,-200.5 188.5,-0.5 93.5,-0.5"/>
<text text-anchor="middle" x="141" y="-188.5" font-family="Helvetica,sans-Serif" font-size="10.00">scram::core::Gate</text>
<polyline fill="none" stroke="black" points="93.5,-181.5 188.5,-181.5 "/>
<text text-anchor="middle" x="141" y="-169.5" font-family="Helvetica,sans-Serif" font-size="10.00"> </text>
<polyline fill="none" stroke="black" points="93.5,-162.5 188.5,-162.5 "/>
<text text-anchor="start" x="101.5" y="-150.5" font-family="Helvetica,sans-Serif" font-size="10.00">+ Gate()</text>
<text text-anchor="start" x="101.5" y="-139.5" font-family="Helvetica,sans-Serif" font-size="10.00">+ ~Gate()</text>
<text text-anchor="start" x="101.5" y="-128.5" font-family="Helvetica,sans-Serif" font-size="10.00">+ Clone()</text>
<text text-anchor="start" x="101.5" y="-117.5" font-family="Helvetica,sans-Serif" font-size="10.00">+ type()</text>
<text text-anchor="start" x="101.5" y="-106.5" font-family="Helvetica,sans-Serif" font-size="10.00">+ type()</text>
<text text-anchor="start" x="101.5" y="-95.5" font-family="Helvetica,sans-Serif" font-size="10.00">+ vote_number()</text>
<text text-anchor="start" x="101.5" y="-84.5" font-family="Helvetica,sans-Serif" font-size="10.00">+ vote_number()</text>
<text text-anchor="start" x="101.5" y="-73.5" font-family="Helvetica,sans-Serif" font-size="10.00">+ state()</text>
<text text-anchor="start" x="101.5" y="-62.5" font-family="Helvetica,sans-Serif" font-size="10.00">+ IsConstant()</text>
<text text-anchor="start" x="101.5" y="-51.5" font-family="Helvetica,sans-Serif" font-size="10.00">+ args()</text>
<text text-anchor="start" x="101.5" y="-40.5" font-family="Helvetica,sans-Serif" font-size="10.00">and 32 more...</text>
<text text-anchor="start" x="101.5" y="-29.5" font-family="Helvetica,sans-Serif" font-size="10.00">* gate_args_</text>
<text text-anchor="start" x="101.5" y="-18.5" font-family="Helvetica,sans-Serif" font-size="10.00">* variable_args_</text>
<text text-anchor="start" x="101.5" y="-7.5" font-family="Helvetica,sans-Serif" font-size="10.00">* constant_args_</text>
</g>
<!-- Node2 -->
<g id="node2" class="node"><title>Node2</title>
<g id="a_node2"><a xlink:href="classscram_1_1core_1_1Node.xhtml" target="_top" xlink:title="An abstract base class that represents a node in a Boolean graph. ">
<polygon fill="white" stroke="black" points="33,-237.5 33,-415.5 131,-415.5 131,-237.5 33,-237.5"/>
<text text-anchor="middle" x="82" y="-403.5" font-family="Helvetica,sans-Serif" font-size="10.00">scram::core::Node</text>
<polyline fill="none" stroke="black" points="33,-396.5 131,-396.5 "/>
<text text-anchor="middle" x="82" y="-384.5" font-family="Helvetica,sans-Serif" font-size="10.00"> </text>
<polyline fill="none" stroke="black" points="33,-377.5 131,-377.5 "/>
<text text-anchor="start" x="41" y="-365.5" font-family="Helvetica,sans-Serif" font-size="10.00">+ Node()</text>
<text text-anchor="start" x="41" y="-354.5" font-family="Helvetica,sans-Serif" font-size="10.00">+ Node()</text>
<text text-anchor="start" x="41" y="-343.5" font-family="Helvetica,sans-Serif" font-size="10.00">+ ~Node()</text>
<text text-anchor="start" x="41" y="-332.5" font-family="Helvetica,sans-Serif" font-size="10.00">+ index()</text>
<text text-anchor="start" x="41" y="-321.5" font-family="Helvetica,sans-Serif" font-size="10.00">+ order()</text>
<text text-anchor="start" x="41" y="-310.5" font-family="Helvetica,sans-Serif" font-size="10.00">+ order()</text>
<text text-anchor="start" x="41" y="-299.5" font-family="Helvetica,sans-Serif" font-size="10.00">+ opti_value()</text>
<text text-anchor="start" x="41" y="-288.5" font-family="Helvetica,sans-Serif" font-size="10.00">+ opti_value()</text>
<text text-anchor="start" x="41" y="-277.5" font-family="Helvetica,sans-Serif" font-size="10.00">+ Visit()</text>
<text text-anchor="start" x="41" y="-266.5" font-family="Helvetica,sans-Serif" font-size="10.00">+ EnterTime()</text>
<text text-anchor="start" x="41" y="-255.5" font-family="Helvetica,sans-Serif" font-size="10.00">and 11 more...</text>
<text text-anchor="start" x="41" y="-244.5" font-family="Helvetica,sans-Serif" font-size="10.00">+ ResetIndex()</text>
</a>
</g>
</g>
<!-- Node2&#45;&gt;Node1 -->
<g id="edge1" class="edge"><title>Node2&#45;&gt;Node1</title>
<path fill="none" stroke="midnightblue" d="M107.845,-227.375C110.173,-218.538 112.532,-209.583 114.862,-200.737"/>
<polygon fill="none" stroke="midnightblue" points="104.396,-226.729 105.234,-237.291 111.165,-228.512 104.396,-226.729"/>
</g>
<!-- Node3 -->
<g id="node3" class="node"><title>Node3</title>
<g id="a_node3"><a xlink:href="classscram_1_1core_1_1NodeParentManager.xhtml" target="_top" xlink:title="A manager of information about parents. ">
<polygon fill="white" stroke="black" points="0,-452.5 0,-520.5 164,-520.5 164,-452.5 0,-452.5"/>
<text text-anchor="middle" x="82" y="-508.5" font-family="Helvetica,sans-Serif" font-size="10.00">scram::core::NodeParentManager</text>
<polyline fill="none" stroke="black" points="0,-501.5 164,-501.5 "/>
<text text-anchor="middle" x="82" y="-489.5" font-family="Helvetica,sans-Serif" font-size="10.00"> </text>
<polyline fill="none" stroke="black" points="0,-482.5 164,-482.5 "/>
<text text-anchor="start" x="8" y="-470.5" font-family="Helvetica,sans-Serif" font-size="10.00">+ parents()</text>
<text text-anchor="start" x="8" y="-459.5" font-family="Helvetica,sans-Serif" font-size="10.00"># ~NodeParentManager()</text>
</a>
</g>
</g>
<!-- Node3&#45;&gt;Node2 -->
<g id="edge2" class="edge"><title>Node3&#45;&gt;Node2</title>
<path fill="none" stroke="midnightblue" d="M82,-442.189C82,-433.83 82,-424.795 82,-415.594"/>
<polygon fill="none" stroke="midnightblue" points="78.5001,-442.378 82,-452.378 85.5001,-442.378 78.5001,-442.378"/>
</g>
<!-- Node4 -->
<g id="node4" class="node"><title>Node4</title>
<polygon fill="white" stroke="#bfbfbf" points="46.5,-557.5 46.5,-614.5 117.5,-614.5 117.5,-557.5 46.5,-557.5"/>
<text text-anchor="middle" x="82" y="-602.5" font-family="Helvetica,sans-Serif" font-size="10.00">noncopyable</text>
<polyline fill="none" stroke="#bfbfbf" points="46.5,-595.5 117.5,-595.5 "/>
<text text-anchor="middle" x="82" y="-583.5" font-family="Helvetica,sans-Serif" font-size="10.00"> </text>
<polyline fill="none" stroke="#bfbfbf" points="46.5,-576.5 117.5,-576.5 "/>
<text text-anchor="middle" x="82" y="-564.5" font-family="Helvetica,sans-Serif" font-size="10.00"> </text>
</g>
<!-- Node4&#45;&gt;Node3 -->
<g id="edge3" class="edge"><title>Node4&#45;&gt;Node3</title>
<path fill="none" stroke="#8b1a1a" d="M82,-547.063C82,-538.393 82,-529.243 82,-520.786"/>
<polygon fill="none" stroke="#8b1a1a" points="78.5001,-547.321 82,-557.321 85.5001,-547.321 78.5001,-547.321"/>
</g>
<!-- Node5 -->
<g id="node5" class="node"><title>Node5</title>
<polygon fill="white" stroke="#bfbfbf" points="149.5,-292.5 149.5,-360.5 250.5,-360.5 250.5,-292.5 149.5,-292.5"/>
<text text-anchor="start" x="157.5" y="-348.5" font-family="Helvetica,sans-Serif" font-size="10.00">std::enable_shared</text>
<text text-anchor="middle" x="200" y="-337.5" font-family="Helvetica,sans-Serif" font-size="10.00">_from_this&lt; Gate &gt;</text>
<polyline fill="none" stroke="#bfbfbf" points="149.5,-330.5 250.5,-330.5 "/>
<text text-anchor="middle" x="200" y="-318.5" font-family="Helvetica,sans-Serif" font-size="10.00"> </text>
<polyline fill="none" stroke="#bfbfbf" points="149.5,-311.5 250.5,-311.5 "/>
<text text-anchor="middle" x="200" y="-299.5" font-family="Helvetica,sans-Serif" font-size="10.00"> </text>
</g>
<!-- Node5&#45;&gt;Node1 -->
<g id="edge4" class="edge"><title>Node5&#45;&gt;Node1</title>
<path fill="none" stroke="midnightblue" d="M188.689,-282.556C182.55,-259.249 174.688,-229.399 167.125,-200.687"/>
<polygon fill="none" stroke="midnightblue" points="185.363,-283.669 191.294,-292.448 192.132,-281.886 185.363,-283.669"/>
</g>
</g>
</svg>
