<?xml version="1.0" encoding="UTF-8" standalone="no"?>
<!DOCTYPE svg PUBLIC "-//W3C//DTD SVG 1.1//EN"
 "http://www.w3.org/Graphics/SVG/1.1/DTD/svg11.dtd">
<!-- Generated by graphviz version 2.38.0 (20140413.2041)
 -->
<!-- Title: scram::core::ImportanceAnalysis::Analyze Pages: 1 -->
<!--zoomable 127 -->
<svg id="main" version="1.1" xmlns="http://www.w3.org/2000/svg" xmlns:xlink="http://www.w3.org/1999/xlink" xml:space="preserve" onload="init(evt)">
<style type="text/css"><![CDATA[
.edge:hover path { stroke: red; }
.edge:hover polygon { stroke: red; fill: red; }
]]></style>
<script type="text/javascript"><![CDATA[
var edges = document.getElementsByTagName('g');
if (edges && edges.length) {
  for (var i=0;i<edges.length;i++) {
    if (edges[i].id.substr(0,4)=='edge') {
      edges[i].setAttribute('class','edge');
    }
  }
}
]]></script>
        <defs>
                <circle id="rim" cx="0" cy="0" r="7"/>
                <circle id="rim2" cx="0" cy="0" r="3.5"/>
                <g id="zoomPlus">
                        <use xlink:href="#rim" fill="#404040">
                                <set attributeName="fill" to="#808080" begin="zoomplus.mouseover" end="zoomplus.mouseout"/>
                        </use>
                        <path d="M-4,0h8M0,-4v8" fill="none" stroke="white" stroke-width="1.5" pointer-events="none"/>
                </g>
                <g id="zoomMin">
                        <use xlink:href="#rim" fill="#404040">
                                <set attributeName="fill" to="#808080" begin="zoomminus.mouseover" end="zoomminus.mouseout"/>
                        </use>
                        <path d="M-4,0h8" fill="none" stroke="white" stroke-width="1.5" pointer-events="none"/>
                </g>
                <g id="dirArrow">
                        <path fill="none" stroke="white" stroke-width="1.5" d="M0,-3.0v7 M-2.5,-0.5L0,-3.0L2.5,-0.5"/>
                </g>
               <g id="resetDef">
                       <use xlink:href="#rim2" fill="#404040">
                               <set attributeName="fill" to="#808080" begin="reset.mouseover" end="reset.mouseout"/>
                       </use>
               </g>
        </defs>

<script type="text/javascript">
var viewWidth = 721;
var viewHeight = 127;
var sectionId = 'dynsection-1';
</script>
<script xlink:href="svgpan.js"/>
<svg id="graph" class="graph">
<g id="viewport">
<title>scram::core::ImportanceAnalysis::Analyze</title>
<polygon fill="white" stroke="none" points="-4,4 -4,-122.5 717,-122.5 717,4 -4,4"/>
<!-- Node1 -->
<g id="node1" class="node"><title>Node1</title>
<polygon fill="#bfbfbf" stroke="black" points="0,-63 0,-93 161,-93 161,-63 0,-63"/>
<text text-anchor="start" x="8" y="-81" font-family="Helvetica,sans-Serif" font-size="10.00">scram::core::ImportanceAnalysis</text>
<text text-anchor="middle" x="80.5" y="-70" font-family="Helvetica,sans-Serif" font-size="10.00">::Analyze</text>
</g>
<!-- Node2 -->
<g id="node2" class="node"><title>Node2</title>
<g id="a_node2"><a xlink:href="classscram_1_1core_1_1Analysis.xhtml#a1a4f345f29240b0236853641f728a103" target="_top" xlink:title="Adds time to the total analysis time. ">
<polygon fill="white" stroke="black" points="221.5,-88 221.5,-118 333.5,-118 333.5,-88 221.5,-88"/>
<text text-anchor="start" x="229.5" y="-106" font-family="Helvetica,sans-Serif" font-size="10.00">scram::core::Analysis</text>
<text text-anchor="middle" x="277.5" y="-95" font-family="Helvetica,sans-Serif" font-size="10.00">::AddAnalysisTime</text>
</a>
</g>
</g>
<!-- Node1&#45;&gt;Node2 -->
<g id="edge1" class="edge"><title>Node1&#45;&gt;Node2</title>
<path fill="none" stroke="midnightblue" d="M161.095,-88.2045C177.682,-90.331 194.984,-92.5493 210.993,-94.6016"/>
<polygon fill="midnightblue" stroke="midnightblue" points="210.941,-98.1236 221.305,-95.9237 211.831,-91.1804 210.941,-98.1236"/>
</g>
<!-- Node3 -->
<g id="node3" class="node"><title>Node3</title>
<g id="a_node3"><a xlink:href="classscram_1_1core_1_1ImportanceAnalysis.xhtml#a0ef1904c30264176444741068337a38c" target="_top" xlink:title="Gathers all events present in products. ">
<polygon fill="white" stroke="black" points="197,-39 197,-69 358,-69 358,-39 197,-39"/>
<text text-anchor="start" x="205" y="-57" font-family="Helvetica,sans-Serif" font-size="10.00">scram::core::ImportanceAnalysis</text>
<text text-anchor="middle" x="277.5" y="-46" font-family="Helvetica,sans-Serif" font-size="10.00">::GatherImportantEvents</text>
</a>
</g>
</g>
<!-- Node1&#45;&gt;Node3 -->
<g id="edge2" class="edge"><title>Node1&#45;&gt;Node3</title>
<path fill="none" stroke="midnightblue" d="M161.095,-68.2037C169.573,-67.1603 178.237,-66.0939 186.821,-65.0375"/>
<polygon fill="midnightblue" stroke="midnightblue" points="187.346,-68.4993 196.843,-63.8039 186.491,-61.5518 187.346,-68.4993"/>
</g>
<!-- Node4 -->
<g id="node4" class="node"><title>Node4</title>
<g id="a_node4"><a xlink:href="classscram_1_1core_1_1ImportanceAnalysis.xhtml#ae73b6d9e7fcedd463c2e095c4cb23cb7" target="_top" xlink:title="scram::core::ImportanceAnalysis\l::important_events">
<polygon fill="white" stroke="black" points="394,-88 394,-118 555,-118 555,-88 394,-88"/>
<text text-anchor="start" x="402" y="-106" font-family="Helvetica,sans-Serif" font-size="10.00">scram::core::ImportanceAnalysis</text>
<text text-anchor="middle" x="474.5" y="-95" font-family="Helvetica,sans-Serif" font-size="10.00">::important_events</text>
</a>
</g>
</g>
<!-- Node3&#45;&gt;Node4 -->
<g id="edge3" class="edge"><title>Node3&#45;&gt;Node4</title>
<path fill="none" stroke="midnightblue" d="M338.332,-69.0346C359.108,-74.2554 382.581,-80.1537 404.067,-85.5526"/>
<polygon fill="midnightblue" stroke="midnightblue" points="403.23,-88.9512 413.782,-87.9938 404.936,-82.1622 403.23,-88.9512"/>
</g>
<!-- Node5 -->
<g id="node5" class="node"><title>Node5</title>
<g id="a_node5"><a xlink:href="classscram_1_1core_1_1BooleanGraph.xhtml#a11d6f8ffabe49a67c5d1aa5cb39386d9" target="_top" xlink:title="Helper function to map the results of the indexation to the original basic events. ">
<polygon fill="white" stroke="black" points="406.5,-39 406.5,-69 542.5,-69 542.5,-39 406.5,-39"/>
<text text-anchor="start" x="414.5" y="-57" font-family="Helvetica,sans-Serif" font-size="10.00">scram::core::BooleanGraph</text>
<text text-anchor="middle" x="474.5" y="-46" font-family="Helvetica,sans-Serif" font-size="10.00">::GetBasicEvent</text>
</a>
</g>
</g>
<!-- Node3&#45;&gt;Node5 -->
<g id="edge4" class="edge"><title>Node3&#45;&gt;Node5</title>
<path fill="none" stroke="midnightblue" d="M358.095,-54C370.601,-54 383.514,-54 395.972,-54"/>
<polygon fill="midnightblue" stroke="midnightblue" points="396.311,-57.5001 406.311,-54 396.311,-50.5001 396.311,-57.5001"/>
</g>
<!-- Node8 -->
<g id="node8" class="node"><title>Node8</title>
<g id="a_node8"><a xlink:href="classscram_1_1core_1_1Ite.xhtml#a55a7d6955f67d68f01287950c7efc782" target="_top" xlink:title="Recovers a shared pointer to Ite from a pointer to Vertex. ">
<polygon fill="white" stroke="black" points="422.5,-0.5 422.5,-19.5 526.5,-19.5 526.5,-0.5 422.5,-0.5"/>
<text text-anchor="middle" x="474.5" y="-7.5" font-family="Helvetica,sans-Serif" font-size="10.00">scram::core::Ite::Ptr</text>
</a>
</g>
</g>
<!-- Node3&#45;&gt;Node8 -->
<g id="edge9" class="edge"><title>Node3&#45;&gt;Node8</title>
<path fill="none" stroke="midnightblue" d="M345.063,-38.9808C370.067,-33.3388 398.099,-27.0136 421.58,-21.7153"/>
<polygon fill="midnightblue" stroke="midnightblue" points="422.358,-25.1277 431.343,-19.5124 420.818,-18.2994 422.358,-25.1277"/>
</g>
<!-- Node6 -->
<g id="node6" class="node"><title>Node6</title>
<g id="a_node6"><a xlink:href="boolean__graph_8cc.xhtml#a8f04430e7ed0fd624250f5c67af9c464" target="_top" xlink:title="Prints Boolean graph nodes in the Aralia format. ">
<polygon fill="white" stroke="black" points="591,-72.5 591,-91.5 713,-91.5 713,-72.5 591,-72.5"/>
<text text-anchor="middle" x="652" y="-79.5" font-family="Helvetica,sans-Serif" font-size="10.00">scram::core::operator&lt;&lt;</text>
</a>
</g>
</g>
<!-- Node5&#45;&gt;Node6 -->
<g id="edge5" class="edge"><title>Node5&#45;&gt;Node6</title>
<path fill="none" stroke="midnightblue" d="M542.6,-64.7055C555.275,-66.7277 568.559,-68.8471 581.312,-70.8816"/>
<polygon fill="midnightblue" stroke="midnightblue" points="580.976,-74.3723 591.403,-72.4916 582.079,-67.4597 580.976,-74.3723"/>
</g>
<!-- Node7 -->
<g id="node7" class="node"><title>Node7</title>
<g id="a_node7"><a xlink:href="fault__tree__analysis_8cc.xhtml#ae462a016941b9c817b69891ea5dfd1e1" target="_top" xlink:title="Prints a collection of products to the standard error. ">
<polygon fill="white" stroke="black" points="604.5,-16.5 604.5,-35.5 699.5,-35.5 699.5,-16.5 604.5,-16.5"/>
<text text-anchor="middle" x="652" y="-23.5" font-family="Helvetica,sans-Serif" font-size="10.00">scram::core::Print</text>
</a>
</g>
</g>
<!-- Node5&#45;&gt;Node7 -->
<g id="edge7" class="edge"><title>Node5&#45;&gt;Node7</title>
<path fill="none" stroke="midnightblue" d="M542.6,-43.2945C559.669,-40.5713 577.843,-37.6718 594.334,-35.0407"/>
<polygon fill="midnightblue" stroke="midnightblue" points="595.037,-38.473 604.36,-33.4411 593.934,-31.5604 595.037,-38.473"/>
</g>
<!-- Node6&#45;&gt;Node6 -->
<g id="edge6" class="edge"><title>Node6&#45;&gt;Node6</title>
<path fill="none" stroke="midnightblue" d="M624.873,-91.7571C611.677,-100.565 620.719,-110 652,-110 673.506,-110 684.5,-105.541 684.983,-99.8913"/>
<polygon fill="midnightblue" stroke="midnightblue" points="687.81,-97.8273 679.127,-91.7571 682.129,-101.917 687.81,-97.8273"/>
</g>
<!-- Node7&#45;&gt;Node7 -->
<g id="edge8" class="edge"><title>Node7&#45;&gt;Node7</title>
<path fill="none" stroke="midnightblue" d="M624.873,-35.7571C611.677,-44.5653 620.719,-54 652,-54 673.506,-54 684.5,-49.5406 684.983,-43.8913"/>
<polygon fill="midnightblue" stroke="midnightblue" points="687.81,-41.8273 679.127,-35.7571 682.129,-45.9175 687.81,-41.8273"/>
</g>
</g>
</svg>
        <g id="navigator" transform="translate(0 0)" fill="#404254">
                <rect fill="#f2f5e9" fill-opacity="0.5" stroke="#606060" stroke-width=".5" x="0" y="0" width="60" height="60"/>
                <use id="zoomplus" xlink:href="#zoomPlus" x="17" y="9" onmousedown="handleZoom(evt,'in')"/>
                <use id="zoomminus" xlink:href="#zoomMin" x="42" y="9" onmousedown="handleZoom(evt,'out')"/>
                <use id="reset" xlink:href="#resetDef" x="30" y="36" onmousedown="handleReset()"/>
                <g id="arrowUp" xlink:href="#dirArrow" transform="translate(30 24)" onmousedown="handlePan(0,-1)">
                  <use xlink:href="#rim" fill="#404040">
                        <set attributeName="fill" to="#808080" begin="arrowUp.mouseover" end="arrowUp.mouseout"/>
                  </use>
                  <path fill="none" stroke="white" stroke-width="1.5" d="M0,-3.0v7 M-2.5,-0.5L0,-3.0L2.5,-0.5"/>
                </g>
                <g id="arrowRight" xlink:href="#dirArrow" transform="rotate(90) translate(36 -43)" onmousedown="handlePan(1,0)">
                  <use xlink:href="#rim" fill="#404040">
                        <set attributeName="fill" to="#808080" begin="arrowRight.mouseover" end="arrowRight.mouseout"/>
                  </use>
                  <path fill="none" stroke="white" stroke-width="1.5" d="M0,-3.0v7 M-2.5,-0.5L0,-3.0L2.5,-0.5"/>
                </g>
                <g id="arrowDown" xlink:href="#dirArrow" transform="rotate(180) translate(-30 -48)" onmousedown="handlePan(0,1)">
                  <use xlink:href="#rim" fill="#404040">
                        <set attributeName="fill" to="#808080" begin="arrowDown.mouseover" end="arrowDown.mouseout"/>
                  </use>
                  <path fill="none" stroke="white" stroke-width="1.5" d="M0,-3.0v7 M-2.5,-0.5L0,-3.0L2.5,-0.5"/>
                </g>
                <g id="arrowLeft" xlink:href="#dirArrow" transform="rotate(270) translate(-36 17)" onmousedown="handlePan(-1,0)">
                  <use xlink:href="#rim" fill="#404040">
                        <set attributeName="fill" to="#808080" begin="arrowLeft.mouseover" end="arrowLeft.mouseout"/>
                  </use>
                  <path fill="none" stroke="white" stroke-width="1.5" d="M0,-3.0v7 M-2.5,-0.5L0,-3.0L2.5,-0.5"/>
                </g>
        </g>
        <svg viewBox="0 0 15 15" width="100%" height="30px" preserveAspectRatio="xMaxYMin meet">
         <g id="arrow_out" transform="scale(0.3 0.3)">
          <a xlink:href="classscram_1_1core_1_1ImportanceAnalysis_acf487235f07ddcc1c920943ebfe2ce60_cgraph_org.svg" target="_base">
           <rect id="button" ry="5" rx="5" y="6" x="6" height="38" width="38"
                fill="#f2f5e9" fill-opacity="0.5" stroke="#606060" stroke-width="1.0"/>
           <path id="arrow"
             d="M 11.500037,31.436501 C 11.940474,20.09759 22.043105,11.32322 32.158766,21.979434 L 37.068811,17.246167 C 37.068811,17.246167 37.088388,32 37.088388,32 L 22.160133,31.978069 C 22.160133,31.978069 26.997745,27.140456 26.997745,27.140456 C 18.528582,18.264221 13.291696,25.230495 11.500037,31.436501 z"
             style="fill:#404040;"/>
          </a>
         </g>
        </svg>
</svg>
