<?xml version="1.0" encoding="UTF-8" standalone="no"?>
<!DOCTYPE svg PUBLIC "-//W3C//DTD SVG 1.1//EN"
 "http://www.w3.org/Graphics/SVG/1.1/DTD/svg11.dtd">
<!-- Generated by graphviz version 2.38.0 (20140413.2041)
 -->
<!-- Title: scram::mef::UniformDeviate Pages: 1 -->
<svg width="151pt" height="502pt"
 viewBox="0.00 0.00 151.00 502.00" xmlns="http://www.w3.org/2000/svg" xmlns:xlink="http://www.w3.org/1999/xlink">
<g id="graph0" class="graph" transform="scale(1 1) rotate(0) translate(4 498)">
<title>scram::mef::UniformDeviate</title>
<polygon fill="white" stroke="none" points="-4,4 -4,-498 147,-498 147,4 -4,4"/>
<!-- Node1 -->
<g id="node1" class="node"><title>Node1</title>
<polygon fill="#bfbfbf" stroke="black" points="1.5,-0.5 1.5,-101.5 141.5,-101.5 141.5,-0.5 1.5,-0.5"/>
<text text-anchor="middle" x="71.5" y="-89.5" font-family="Helvetica,sans-Serif" font-size="10.00">scram::mef::UniformDeviate</text>
<polyline fill="none" stroke="black" points="1.5,-82.5 141.5,-82.5 "/>
<text text-anchor="middle" x="71.5" y="-70.5" font-family="Helvetica,sans-Serif" font-size="10.00"> </text>
<polyline fill="none" stroke="black" points="1.5,-63.5 141.5,-63.5 "/>
<text text-anchor="start" x="9.5" y="-51.5" font-family="Helvetica,sans-Serif" font-size="10.00">+ UniformDeviate()</text>
<text text-anchor="start" x="9.5" y="-40.5" font-family="Helvetica,sans-Serif" font-size="10.00">+ Validate()</text>
<text text-anchor="start" x="9.5" y="-29.5" font-family="Helvetica,sans-Serif" font-size="10.00">+ Mean()</text>
<text text-anchor="start" x="9.5" y="-18.5" font-family="Helvetica,sans-Serif" font-size="10.00">+ Max()</text>
<text text-anchor="start" x="9.5" y="-7.5" font-family="Helvetica,sans-Serif" font-size="10.00">+ Min()</text>
</g>
<!-- Node2 -->
<g id="node2" class="node"><title>Node2</title>
<g id="a_node2"><a xlink:href="classscram_1_1mef_1_1RandomDeviate.xhtml" target="_top" xlink:title="Abstract base class for all deviate expressions. ">
<polygon fill="white" stroke="black" points="0,-138.5 0,-195.5 143,-195.5 143,-138.5 0,-138.5"/>
<text text-anchor="middle" x="71.5" y="-183.5" font-family="Helvetica,sans-Serif" font-size="10.00">scram::mef::RandomDeviate</text>
<polyline fill="none" stroke="black" points="0,-176.5 143,-176.5 "/>
<text text-anchor="middle" x="71.5" y="-164.5" font-family="Helvetica,sans-Serif" font-size="10.00"> </text>
<polyline fill="none" stroke="black" points="0,-157.5 143,-157.5 "/>
<text text-anchor="start" x="8" y="-145.5" font-family="Helvetica,sans-Serif" font-size="10.00">+ IsConstant()</text>
</a>
</g>
</g>
<!-- Node2&#45;&gt;Node1 -->
<g id="edge1" class="edge"><title>Node2&#45;&gt;Node1</title>
<path fill="none" stroke="midnightblue" d="M71.5,-128.354C71.5,-119.796 71.5,-110.578 71.5,-101.608"/>
<polygon fill="none" stroke="midnightblue" points="68.0001,-128.404 71.5,-138.404 75.0001,-128.404 68.0001,-128.404"/>
</g>
<!-- Node3 -->
<g id="node3" class="node"><title>Node3</title>
<g id="a_node3"><a xlink:href="classscram_1_1mef_1_1Expression.xhtml" target="_top" xlink:title="Abstract base class for all sorts of expressions to describe events. ">
<polygon fill="white" stroke="black" points="11,-232.5 11,-399.5 132,-399.5 132,-232.5 11,-232.5"/>
<text text-anchor="middle" x="71.5" y="-387.5" font-family="Helvetica,sans-Serif" font-size="10.00">scram::mef::Expression</text>
<polyline fill="none" stroke="black" points="11,-380.5 132,-380.5 "/>
<text text-anchor="middle" x="71.5" y="-368.5" font-family="Helvetica,sans-Serif" font-size="10.00"> </text>
<polyline fill="none" stroke="black" points="11,-361.5 132,-361.5 "/>
<text text-anchor="start" x="19" y="-349.5" font-family="Helvetica,sans-Serif" font-size="10.00">+ Expression()</text>
<text text-anchor="start" x="19" y="-338.5" font-family="Helvetica,sans-Serif" font-size="10.00">+ ~Expression()</text>
<text text-anchor="start" x="19" y="-327.5" font-family="Helvetica,sans-Serif" font-size="10.00">+ args()</text>
<text text-anchor="start" x="19" y="-316.5" font-family="Helvetica,sans-Serif" font-size="10.00">+ Validate()</text>
<text text-anchor="start" x="19" y="-305.5" font-family="Helvetica,sans-Serif" font-size="10.00">+ Mean()</text>
<text text-anchor="start" x="19" y="-294.5" font-family="Helvetica,sans-Serif" font-size="10.00">+ Sample()</text>
<text text-anchor="start" x="19" y="-283.5" font-family="Helvetica,sans-Serif" font-size="10.00">+ Reset()</text>
<text text-anchor="start" x="19" y="-272.5" font-family="Helvetica,sans-Serif" font-size="10.00">+ IsConstant()</text>
<text text-anchor="start" x="19" y="-261.5" font-family="Helvetica,sans-Serif" font-size="10.00">+ Max()</text>
<text text-anchor="start" x="19" y="-250.5" font-family="Helvetica,sans-Serif" font-size="10.00">+ Min()</text>
<text text-anchor="start" x="19" y="-239.5" font-family="Helvetica,sans-Serif" font-size="10.00"># AddArg()</text>
</a>
</g>
</g>
<!-- Node3&#45;&gt;Node2 -->
<g id="edge2" class="edge"><title>Node3&#45;&gt;Node2</title>
<path fill="none" stroke="midnightblue" d="M71.5,-222.36C71.5,-212.786 71.5,-203.677 71.5,-195.748"/>
<polygon fill="none" stroke="midnightblue" points="68.0001,-222.476 71.5,-232.476 75.0001,-222.476 68.0001,-222.476"/>
</g>
<!-- Node4 -->
<g id="node4" class="node"><title>Node4</title>
<polygon fill="white" stroke="#bfbfbf" points="36,-436.5 36,-493.5 107,-493.5 107,-436.5 36,-436.5"/>
<text text-anchor="middle" x="71.5" y="-481.5" font-family="Helvetica,sans-Serif" font-size="10.00">noncopyable</text>
<polyline fill="none" stroke="#bfbfbf" points="36,-474.5 107,-474.5 "/>
<text text-anchor="middle" x="71.5" y="-462.5" font-family="Helvetica,sans-Serif" font-size="10.00"> </text>
<polyline fill="none" stroke="#bfbfbf" points="36,-455.5 107,-455.5 "/>
<text text-anchor="middle" x="71.5" y="-443.5" font-family="Helvetica,sans-Serif" font-size="10.00"> </text>
</g>
<!-- Node4&#45;&gt;Node3 -->
<g id="edge3" class="edge"><title>Node4&#45;&gt;Node3</title>
<path fill="none" stroke="#8b1a1a" d="M71.5,-426.35C71.5,-418.08 71.5,-409.008 71.5,-399.738"/>
<polygon fill="none" stroke="#8b1a1a" points="68.0001,-426.35 71.5,-436.35 75.0001,-426.35 68.0001,-426.35"/>
</g>
</g>
</svg>
