<?xml version="1.0" encoding="UTF-8" standalone="no"?>
<!DOCTYPE svg PUBLIC "-//W3C//DTD SVG 1.1//EN"
 "http://www.w3.org/Graphics/SVG/1.1/DTD/svg11.dtd">
<!-- Generated by graphviz version 2.38.0 (20140413.2041)
 -->
<!-- Title: scram::core::BooleanGraph::GetBasicEvent Pages: 1 -->
<svg width="302pt" height="102pt"
 viewBox="0.00 0.00 302.00 102.00" xmlns="http://www.w3.org/2000/svg" xmlns:xlink="http://www.w3.org/1999/xlink">
<g id="graph0" class="graph" transform="scale(1 1) rotate(0) translate(4 98)">
<title>scram::core::BooleanGraph::GetBasicEvent</title>
<polygon fill="white" stroke="none" points="-4,4 -4,-98 298,-98 298,4 -4,4"/>
<!-- Node1 -->
<g id="node1" class="node"><title>Node1</title>
<polygon fill="#bfbfbf" stroke="black" points="0,-23 0,-53 136,-53 136,-23 0,-23"/>
<text text-anchor="start" x="8" y="-41" font-family="Helvetica,sans-Serif" font-size="10.00">scram::core::BooleanGraph</text>
<text text-anchor="middle" x="68" y="-30" font-family="Helvetica,sans-Serif" font-size="10.00">::GetBasicEvent</text>
</g>
<!-- Node2 -->
<g id="node2" class="node"><title>Node2</title>
<g id="a_node2"><a xlink:href="boolean__graph_8cc.xhtml#a8f04430e7ed0fd624250f5c67af9c464" target="_top" xlink:title="Prints Boolean graph nodes in the Aralia format. ">
<polygon fill="white" stroke="black" points="172,-56.5 172,-75.5 294,-75.5 294,-56.5 172,-56.5"/>
<text text-anchor="middle" x="233" y="-63.5" font-family="Helvetica,sans-Serif" font-size="10.00">scram::core::operator&lt;&lt;</text>
</a>
</g>
</g>
<!-- Node1&#45;&gt;Node2 -->
<g id="edge1" class="edge"><title>Node1&#45;&gt;Node2</title>
<path fill="none" stroke="midnightblue" d="M136.239,-49.5503C146.302,-51.279 156.665,-53.059 166.687,-54.7806"/>
<polygon fill="midnightblue" stroke="midnightblue" points="166.124,-58.2351 176.572,-56.4787 167.309,-51.3361 166.124,-58.2351"/>
</g>
<!-- Node3 -->
<g id="node3" class="node"><title>Node3</title>
<g id="a_node3"><a xlink:href="fault__tree__analysis_8cc.xhtml#ae462a016941b9c817b69891ea5dfd1e1" target="_top" xlink:title="Prints a collection of products to the standard error. ">
<polygon fill="white" stroke="black" points="185.5,-0.5 185.5,-19.5 280.5,-19.5 280.5,-0.5 185.5,-0.5"/>
<text text-anchor="middle" x="233" y="-7.5" font-family="Helvetica,sans-Serif" font-size="10.00">scram::core::Print</text>
</a>
</g>
</g>
<!-- Node1&#45;&gt;Node3 -->
<g id="edge3" class="edge"><title>Node1&#45;&gt;Node3</title>
<path fill="none" stroke="midnightblue" d="M136.239,-26.4497C149.249,-24.215 162.758,-21.8943 175.386,-19.7251"/>
<polygon fill="midnightblue" stroke="midnightblue" points="176.034,-23.1651 185.298,-18.0225 174.849,-16.2661 176.034,-23.1651"/>
</g>
<!-- Node2&#45;&gt;Node2 -->
<g id="edge2" class="edge"><title>Node2&#45;&gt;Node2</title>
<path fill="none" stroke="midnightblue" d="M207.723,-75.7571C195.426,-84.5653 203.852,-94 233,-94 252.584,-94 262.814,-89.741 263.689,-84.2746"/>
<polygon fill="midnightblue" stroke="midnightblue" points="266.594,-82.3207 258.277,-75.7571 260.686,-86.0745 266.594,-82.3207"/>
</g>
<!-- Node3&#45;&gt;Node3 -->
<g id="edge4" class="edge"><title>Node3&#45;&gt;Node3</title>
<path fill="none" stroke="midnightblue" d="M207.723,-19.7571C195.426,-28.5653 203.852,-38 233,-38 252.584,-38 262.814,-33.741 263.689,-28.2746"/>
<polygon fill="midnightblue" stroke="midnightblue" points="266.594,-26.3207 258.277,-19.7571 260.686,-30.0745 266.594,-26.3207"/>
</g>
</g>
</svg>
