<?xml version="1.0" encoding="UTF-8" standalone="no"?>
<!DOCTYPE svg PUBLIC "-//W3C//DTD SVG 1.1//EN"
 "http://www.w3.org/Graphics/SVG/1.1/DTD/svg11.dtd">
<!-- Generated by graphviz version 2.38.0 (20140413.2041)
 -->
<!-- Title: scram::core::UncertaintyAnalysis::SampleEventProbabilities Pages: 1 -->
<svg width="328pt" height="137pt"
 viewBox="0.00 0.00 328.00 137.00" xmlns="http://www.w3.org/2000/svg" xmlns:xlink="http://www.w3.org/1999/xlink">
<g id="graph0" class="graph" transform="scale(1 1) rotate(0) translate(4 133)">
<title>scram::core::UncertaintyAnalysis::SampleEventProbabilities</title>
<polygon fill="white" stroke="none" points="-4,4 -4,-133 324,-133 324,4 -4,4"/>
<!-- Node1 -->
<g id="node1" class="node"><title>Node1</title>
<polygon fill="#bfbfbf" stroke="black" points="0,-49.5 0,-79.5 172,-79.5 172,-49.5 0,-49.5"/>
<text text-anchor="start" x="8" y="-67.5" font-family="Helvetica,sans-Serif" font-size="10.00">scram::core::Uncertainty</text>
<text text-anchor="middle" x="86" y="-56.5" font-family="Helvetica,sans-Serif" font-size="10.00">Analysis::SampleEventProbabilities</text>
</g>
<!-- Node2 -->
<g id="node2" class="node"><title>Node2</title>
<g id="a_node2"><a xlink:href="classscram_1_1core_1_1Settings.xhtml#a35d180dd84bc1006157a02791c4bd210" target="_top" xlink:title="scram::core::Settings\l::num_quantiles">
<polygon fill="white" stroke="black" points="209,-98.5 209,-128.5 319,-128.5 319,-98.5 209,-98.5"/>
<text text-anchor="start" x="217" y="-116.5" font-family="Helvetica,sans-Serif" font-size="10.00">scram::core::Settings</text>
<text text-anchor="middle" x="264" y="-105.5" font-family="Helvetica,sans-Serif" font-size="10.00">::num_quantiles</text>
</a>
</g>
</g>
<!-- Node1&#45;&gt;Node2 -->
<g id="edge1" class="edge"><title>Node1&#45;&gt;Node2</title>
<path fill="none" stroke="midnightblue" d="M141.242,-79.6014C159.562,-84.7019 180.183,-90.4429 199.175,-95.7305"/>
<polygon fill="midnightblue" stroke="midnightblue" points="198.365,-99.138 208.937,-98.4484 200.242,-92.3945 198.365,-99.138"/>
</g>
<!-- Node3 -->
<g id="node3" class="node"><title>Node3</title>
<g id="a_node3"><a xlink:href="classscram_1_1core_1_1Settings.xhtml#adda26a07ac3d505246a23b80829f8267" target="_top" xlink:title="scram::core::Settings\l::num_trials">
<polygon fill="white" stroke="black" points="209,-49.5 209,-79.5 319,-79.5 319,-49.5 209,-49.5"/>
<text text-anchor="start" x="217" y="-67.5" font-family="Helvetica,sans-Serif" font-size="10.00">scram::core::Settings</text>
<text text-anchor="middle" x="264" y="-56.5" font-family="Helvetica,sans-Serif" font-size="10.00">::num_trials</text>
</a>
</g>
</g>
<!-- Node1&#45;&gt;Node3 -->
<g id="edge2" class="edge"><title>Node1&#45;&gt;Node3</title>
<path fill="none" stroke="midnightblue" d="M172.164,-64.5C181.022,-64.5 189.919,-64.5 198.494,-64.5"/>
<polygon fill="midnightblue" stroke="midnightblue" points="198.77,-68.0001 208.77,-64.5 198.77,-61.0001 198.77,-68.0001"/>
</g>
<!-- Node4 -->
<g id="node4" class="node"><title>Node4</title>
<g id="a_node4"><a xlink:href="classscram_1_1core_1_1Analysis.xhtml#ab04a96c555ba726368fa3868a8701610" target="_top" xlink:title="scram::core::Analysis\l::settings">
<polygon fill="white" stroke="black" points="208,-0.5 208,-30.5 320,-30.5 320,-0.5 208,-0.5"/>
<text text-anchor="start" x="216" y="-18.5" font-family="Helvetica,sans-Serif" font-size="10.00">scram::core::Analysis</text>
<text text-anchor="middle" x="264" y="-7.5" font-family="Helvetica,sans-Serif" font-size="10.00">::settings</text>
</a>
</g>
</g>
<!-- Node1&#45;&gt;Node4 -->
<g id="edge3" class="edge"><title>Node1&#45;&gt;Node4</title>
<path fill="none" stroke="midnightblue" d="M141.242,-49.3986C159.562,-44.2981 180.183,-38.5571 199.175,-33.2695"/>
<polygon fill="midnightblue" stroke="midnightblue" points="200.242,-36.6055 208.937,-30.5516 198.365,-29.862 200.242,-36.6055"/>
</g>
</g>
</svg>
