<?xml version="1.0" encoding="UTF-8" standalone="no"?>
<!DOCTYPE svg PUBLIC "-//W3C//DTD SVG 1.1//EN"
 "http://www.w3.org/Graphics/SVG/1.1/DTD/svg11.dtd">
<!-- Generated by graphviz version 2.38.0 (20140413.2041)
 -->
<!-- Title: scram::XmlStreamElement::XmlStreamElement Pages: 1 -->
<svg width="668pt" height="225pt"
 viewBox="0.00 0.00 668.00 224.50" xmlns="http://www.w3.org/2000/svg" xmlns:xlink="http://www.w3.org/1999/xlink">
<g id="graph0" class="graph" transform="scale(1 1) rotate(0) translate(4 220.5)">
<title>scram::XmlStreamElement::XmlStreamElement</title>
<polygon fill="white" stroke="none" points="-4,4 -4,-220.5 664,-220.5 664,4 -4,4"/>
<!-- Node1 -->
<g id="node1" class="node"><title>Node1</title>
<polygon fill="#bfbfbf" stroke="black" points="0,-98.5 0,-128.5 134,-128.5 134,-98.5 0,-98.5"/>
<text text-anchor="start" x="8" y="-116.5" font-family="Helvetica,sans-Serif" font-size="10.00">scram::XmlStreamElement</text>
<text text-anchor="middle" x="67" y="-105.5" font-family="Helvetica,sans-Serif" font-size="10.00">::XmlStreamElement</text>
</g>
<!-- Node2 -->
<g id="node2" class="node"><title>Node2</title>
<g id="a_node2"><a xlink:href="classscram_1_1XmlStreamElement.xhtml#ac8227ce1d2bf22ab83d3055a8e98fb2d" target="_top" xlink:title="Adds a child element to the element. ">
<polygon fill="white" stroke="black" points="170,-98.5 170,-128.5 304,-128.5 304,-98.5 170,-98.5"/>
<text text-anchor="start" x="178" y="-116.5" font-family="Helvetica,sans-Serif" font-size="10.00">scram::XmlStreamElement</text>
<text text-anchor="middle" x="237" y="-105.5" font-family="Helvetica,sans-Serif" font-size="10.00">::AddChild</text>
</a>
</g>
</g>
<!-- Node1&#45;&gt;Node2 -->
<g id="edge1" class="edge"><title>Node1&#45;&gt;Node2</title>
<path fill="none" stroke="midnightblue" d="M144.595,-113.5C153.013,-113.5 161.532,-113.5 169.809,-113.5"/>
<polygon fill="midnightblue" stroke="midnightblue" points="144.398,-110 134.398,-113.5 144.398,-117 144.398,-110"/>
</g>
<!-- Node3 -->
<g id="node3" class="node"><title>Node3</title>
<g id="a_node3"><a xlink:href="classscram_1_1Reporter.xhtml#a6a6327c0fc2d0e8ab6ec24a145ae1abe" target="_top" xlink:title="Reports the results of risk analysis on a model. ">
<polygon fill="white" stroke="black" points="360,-197 360,-216 482,-216 482,-197 360,-197"/>
<text text-anchor="middle" x="421" y="-204" font-family="Helvetica,sans-Serif" font-size="10.00">scram::Reporter::Report</text>
</a>
</g>
</g>
<!-- Node2&#45;&gt;Node3 -->
<g id="edge2" class="edge"><title>Node2&#45;&gt;Node3</title>
<path fill="none" stroke="midnightblue" d="M262.184,-135.322C281.828,-151.94 310.947,-174.161 340,-187.5 348.303,-191.312 357.454,-194.405 366.511,-196.901"/>
<polygon fill="midnightblue" stroke="midnightblue" points="264.232,-132.466 254.373,-128.586 259.66,-137.767 264.232,-132.466"/>
</g>
<!-- Node5 -->
<g id="node5" class="node"><title>Node5</title>
<g id="a_node5"><a xlink:href="reporter_8cc.xhtml#a460bfadbe33cffa6f9a8a149c93893e5" target="_top" xlink:title="Describes the fault tree analysis and techniques. ">
<polygon fill="white" stroke="black" points="340,-147.5 340,-177.5 502,-177.5 502,-147.5 340,-147.5"/>
<text text-anchor="start" x="348" y="-165.5" font-family="Helvetica,sans-Serif" font-size="10.00">scram::ReportCalculatedQuantity</text>
<text text-anchor="middle" x="421" y="-154.5" font-family="Helvetica,sans-Serif" font-size="10.00">&lt; core::FaultTreeAnalysis &gt;</text>
</a>
</g>
</g>
<!-- Node2&#45;&gt;Node5 -->
<g id="edge4" class="edge"><title>Node2&#45;&gt;Node5</title>
<path fill="none" stroke="midnightblue" d="M303.923,-131.248C323.648,-136.559 345.078,-142.329 364.094,-147.448"/>
<polygon fill="midnightblue" stroke="midnightblue" points="304.657,-127.822 294.091,-128.601 302.837,-134.581 304.657,-127.822"/>
</g>
<!-- Node6 -->
<g id="node6" class="node"><title>Node6</title>
<g id="a_node6"><a xlink:href="reporter_8cc.xhtml#a04a0fc48f27649e05bafe389d05c7d97" target="_top" xlink:title="Describes the probability analysis and techniques. ">
<polygon fill="white" stroke="black" points="340,-98.5 340,-128.5 502,-128.5 502,-98.5 340,-98.5"/>
<text text-anchor="start" x="348" y="-116.5" font-family="Helvetica,sans-Serif" font-size="10.00">scram::ReportCalculatedQuantity</text>
<text text-anchor="middle" x="421" y="-105.5" font-family="Helvetica,sans-Serif" font-size="10.00">&lt; core::ProbabilityAnalysis &gt;</text>
</a>
</g>
</g>
<!-- Node2&#45;&gt;Node6 -->
<g id="edge5" class="edge"><title>Node2&#45;&gt;Node6</title>
<path fill="none" stroke="midnightblue" d="M314.394,-113.5C322.821,-113.5 331.418,-113.5 339.889,-113.5"/>
<polygon fill="midnightblue" stroke="midnightblue" points="314.221,-110 304.221,-113.5 314.221,-117 314.221,-110"/>
</g>
<!-- Node7 -->
<g id="node7" class="node"><title>Node7</title>
<g id="a_node7"><a xlink:href="reporter_8cc.xhtml#ae12d3bcaf8c4c099d2d5c84a67286424" target="_top" xlink:title="Describes the uncertainty analysis and techniques. ">
<polygon fill="white" stroke="black" points="340,-49.5 340,-79.5 502,-79.5 502,-49.5 340,-49.5"/>
<text text-anchor="start" x="348" y="-67.5" font-family="Helvetica,sans-Serif" font-size="10.00">scram::ReportCalculatedQuantity</text>
<text text-anchor="middle" x="421" y="-56.5" font-family="Helvetica,sans-Serif" font-size="10.00">&lt; core::UncertaintyAnalysis &gt;</text>
</a>
</g>
</g>
<!-- Node2&#45;&gt;Node7 -->
<g id="edge6" class="edge"><title>Node2&#45;&gt;Node7</title>
<path fill="none" stroke="midnightblue" d="M303.923,-95.7515C323.648,-90.4409 345.078,-84.6712 364.094,-79.5516"/>
<polygon fill="midnightblue" stroke="midnightblue" points="302.837,-92.4191 294.091,-98.3986 304.657,-99.1784 302.837,-92.4191"/>
</g>
<!-- Node8 -->
<g id="node8" class="node"><title>Node8</title>
<g id="a_node8"><a xlink:href="reporter_8cc.xhtml#ad6460094a94fb73e56c2a4a5efc598ed" target="_top" xlink:title="Describes all performed analyses deduced from settings. ">
<polygon fill="white" stroke="black" points="340,-0.5 340,-30.5 502,-30.5 502,-0.5 340,-0.5"/>
<text text-anchor="start" x="348" y="-18.5" font-family="Helvetica,sans-Serif" font-size="10.00">scram::ReportCalculatedQuantity</text>
<text text-anchor="middle" x="421" y="-7.5" font-family="Helvetica,sans-Serif" font-size="10.00">&lt; core::RiskAnalysis &gt;</text>
</a>
</g>
</g>
<!-- Node2&#45;&gt;Node8 -->
<g id="edge7" class="edge"><title>Node2&#45;&gt;Node8</title>
<path fill="none" stroke="midnightblue" d="M263.215,-91.9596C283.016,-75.9399 311.857,-54.5147 340,-40.5 347.425,-36.8027 355.509,-33.5125 363.591,-30.6313"/>
<polygon fill="midnightblue" stroke="midnightblue" points="260.813,-89.4031 255.31,-98.4569 265.258,-94.8107 260.813,-89.4031"/>
</g>
<!-- Node4 -->
<g id="node4" class="node"><title>Node4</title>
<g id="a_node4"><a xlink:href="classscram_1_1Reporter.xhtml#acf35ee03ce2ffc48aed92a578842b9d6" target="_top" xlink:title="A convenience function to generate the report into a file. ">
<polygon fill="white" stroke="black" points="538,-197 538,-216 660,-216 660,-197 538,-197"/>
<text text-anchor="middle" x="599" y="-204" font-family="Helvetica,sans-Serif" font-size="10.00">scram::Reporter::Report</text>
</a>
</g>
</g>
<!-- Node3&#45;&gt;Node4 -->
<g id="edge3" class="edge"><title>Node3&#45;&gt;Node4</title>
<path fill="none" stroke="midnightblue" d="M492.377,-206.5C507.453,-206.5 523.249,-206.5 537.895,-206.5"/>
<polygon fill="midnightblue" stroke="midnightblue" points="492.077,-203 482.077,-206.5 492.077,-210 492.077,-203"/>
</g>
</g>
</svg>
