<?xml version="1.0" encoding="UTF-8" standalone="no"?>
<!DOCTYPE svg PUBLIC "-//W3C//DTD SVG 1.1//EN"
 "http://www.w3.org/Graphics/SVG/1.1/DTD/svg11.dtd">
<!-- Generated by graphviz version 2.38.0 (20140413.2041)
 -->
<!-- Title: ext::linear_map::size Pages: 1 -->
<svg width="286pt" height="96pt"
 viewBox="0.00 0.00 286.00 95.50" xmlns="http://www.w3.org/2000/svg" xmlns:xlink="http://www.w3.org/1999/xlink">
<g id="graph0" class="graph" transform="scale(1 1) rotate(0) translate(4 91.5)">
<title>ext::linear_map::size</title>
<polygon fill="white" stroke="none" points="-4,4 -4,-91.5 282,-91.5 282,4 -4,4"/>
<!-- Node1 -->
<g id="node1" class="node"><title>Node1</title>
<polygon fill="#bfbfbf" stroke="black" points="0,-22.5 0,-41.5 107,-41.5 107,-22.5 0,-22.5"/>
<text text-anchor="middle" x="53.5" y="-29.5" font-family="Helvetica,sans-Serif" font-size="10.00">ext::linear_map::size</text>
</g>
<!-- Node2 -->
<g id="node2" class="node"><title>Node2</title>
<g id="a_node2"><a xlink:href="classscram_1_1core_1_1Zbdd.xhtml#ac90d12f0c653c679d22109124fa6344c" target="_top" xlink:title="Find or adds a ZBDD SetNode vertex using information from gates. ">
<polygon fill="white" stroke="black" points="159.5,-39 159.5,-69 261.5,-69 261.5,-39 159.5,-39"/>
<text text-anchor="start" x="167.5" y="-57" font-family="Helvetica,sans-Serif" font-size="10.00">scram::core::Zbdd::</text>
<text text-anchor="middle" x="210.5" y="-46" font-family="Helvetica,sans-Serif" font-size="10.00">FindOrAddVertex</text>
</a>
</g>
</g>
<!-- Node1&#45;&gt;Node2 -->
<g id="edge1" class="edge"><title>Node1&#45;&gt;Node2</title>
<path fill="none" stroke="midnightblue" d="M117.445,-40.9342C131.426,-42.9185 146.061,-44.9958 159.443,-46.8952"/>
<polygon fill="midnightblue" stroke="midnightblue" points="117.801,-37.4497 107.409,-39.5096 116.818,-44.3802 117.801,-37.4497"/>
</g>
<!-- Node3 -->
<g id="node3" class="node"><title>Node3</title>
<g id="a_node3"><a xlink:href="classscram_1_1core_1_1Bdd.xhtml#abb75e2b30e88c46634b4a4b7df90cf8a" target="_top" xlink:title="scram::core::Bdd::products">
<polygon fill="white" stroke="black" points="143,-0.5 143,-19.5 278,-19.5 278,-0.5 143,-0.5"/>
<text text-anchor="middle" x="210.5" y="-7.5" font-family="Helvetica,sans-Serif" font-size="10.00">scram::core::Bdd::products</text>
</a>
</g>
</g>
<!-- Node1&#45;&gt;Node3 -->
<g id="edge3" class="edge"><title>Node1&#45;&gt;Node3</title>
<path fill="none" stroke="midnightblue" d="M117.467,-23.0628C125.83,-21.8757 134.428,-20.6554 142.851,-19.4599"/>
<polygon fill="midnightblue" stroke="midnightblue" points="116.818,-19.6198 107.409,-24.4904 117.801,-26.5503 116.818,-19.6198"/>
</g>
<!-- Node2&#45;&gt;Node2 -->
<g id="edge2" class="edge"><title>Node2&#45;&gt;Node2</title>
<path fill="none" stroke="midnightblue" d="M182.781,-79.4579C186.221,-84.179 195.461,-87.5 210.5,-87.5 235.18,-87.5 244.242,-78.5566 237.686,-69.159"/>
<polygon fill="midnightblue" stroke="midnightblue" points="186.292,-79.3266 183.314,-69.159 179.301,-78.9647 186.292,-79.3266"/>
</g>
</g>
</svg>
