<?xml version="1.0" encoding="UTF-8" standalone="no"?>
<!DOCTYPE svg PUBLIC "-//W3C//DTD SVG 1.1//EN"
 "http://www.w3.org/Graphics/SVG/1.1/DTD/svg11.dtd">
<!-- Generated by graphviz version 2.38.0 (20140413.2041)
 -->
<!-- Title: scram::core::Zbdd::Minimize Pages: 1 -->
<svg width="452pt" height="274pt"
 viewBox="0.00 0.00 452.00 274.00" xmlns="http://www.w3.org/2000/svg" xmlns:xlink="http://www.w3.org/1999/xlink">
<g id="graph0" class="graph" transform="scale(1 1) rotate(0) translate(4 270)">
<title>scram::core::Zbdd::Minimize</title>
<polygon fill="white" stroke="none" points="-4,4 -4,-270 448,-270 448,4 -4,4"/>
<!-- Node1 -->
<g id="node1" class="node"><title>Node1</title>
<polygon fill="#bfbfbf" stroke="black" points="0,-115.5 0,-145.5 102,-145.5 102,-115.5 0,-115.5"/>
<text text-anchor="start" x="8" y="-133.5" font-family="Helvetica,sans-Serif" font-size="10.00">scram::core::Zbdd::</text>
<text text-anchor="middle" x="51" y="-122.5" font-family="Helvetica,sans-Serif" font-size="10.00">Minimize</text>
</g>
<!-- Node2 -->
<g id="node2" class="node"><title>Node2</title>
<g id="a_node2"><a xlink:href="classscram_1_1core_1_1Zbdd.xhtml#a77945d28bd832d2735969d0b0a451c78" target="_top" xlink:title="Runs the analysis with the representation of a Boolean graph as ZBDD. ">
<polygon fill="white" stroke="black" points="154,-235.5 154,-265.5 256,-265.5 256,-235.5 154,-235.5"/>
<text text-anchor="start" x="162" y="-253.5" font-family="Helvetica,sans-Serif" font-size="10.00">scram::core::Zbdd::</text>
<text text-anchor="middle" x="205" y="-242.5" font-family="Helvetica,sans-Serif" font-size="10.00">Analyze</text>
</a>
</g>
</g>
<!-- Node1&#45;&gt;Node2 -->
<g id="edge1" class="edge"><title>Node1&#45;&gt;Node2</title>
<path fill="none" stroke="midnightblue" d="M67.745,-153.867C83.327,-175.397 109,-206.892 138,-226.5 142.949,-229.846 148.422,-232.791 154.036,-235.365"/>
<polygon fill="midnightblue" stroke="midnightblue" points="70.5267,-151.738 61.8968,-145.592 64.8103,-155.779 70.5267,-151.738"/>
</g>
<!-- Node3 -->
<g id="node3" class="node"><title>Node3</title>
<g id="a_node3"><a xlink:href="classscram_1_1core_1_1Zbdd.xhtml#a499a8bc4bc3854e7b2928c08515243cf" target="_top" xlink:title="Specialization of Apply for AND operator for non&#45;terminal ZBDD vertices. ">
<polygon fill="white" stroke="black" points="154,-186.5 154,-216.5 256,-216.5 256,-186.5 154,-186.5"/>
<text text-anchor="start" x="162" y="-204.5" font-family="Helvetica,sans-Serif" font-size="10.00">scram::core::Zbdd::</text>
<text text-anchor="middle" x="205" y="-193.5" font-family="Helvetica,sans-Serif" font-size="10.00">Apply</text>
</a>
</g>
</g>
<!-- Node1&#45;&gt;Node3 -->
<g id="edge2" class="edge"><title>Node1&#45;&gt;Node3</title>
<path fill="none" stroke="midnightblue" d="M85.84,-150.539C101.441,-159.374 120.373,-169.534 138,-177.5 144.888,-180.613 152.312,-183.626 159.606,-186.405"/>
<polygon fill="midnightblue" stroke="midnightblue" points="87.491,-147.452 77.0741,-145.518 84.0114,-153.526 87.491,-147.452"/>
</g>
<!-- Node4 -->
<g id="node4" class="node"><title>Node4</title>
<g id="a_node4"><a xlink:href="classscram_1_1core_1_1Zbdd.xhtml#ac3ac27090b550d973b20bd971c3de9f9" target="_top" xlink:title="Removes complements of variables from products. ">
<polygon fill="white" stroke="black" points="146,-137.5 146,-167.5 264,-167.5 264,-137.5 146,-137.5"/>
<text text-anchor="start" x="154" y="-155.5" font-family="Helvetica,sans-Serif" font-size="10.00">scram::core::Zbdd::</text>
<text text-anchor="middle" x="205" y="-144.5" font-family="Helvetica,sans-Serif" font-size="10.00">EliminateComplements</text>
</a>
</g>
</g>
<!-- Node1&#45;&gt;Node4 -->
<g id="edge3" class="edge"><title>Node1&#45;&gt;Node4</title>
<path fill="none" stroke="midnightblue" d="M112.231,-139.218C123.339,-140.825 134.916,-142.501 145.958,-144.099"/>
<polygon fill="midnightblue" stroke="midnightblue" points="112.59,-135.733 102.192,-137.765 111.587,-142.661 112.59,-135.733"/>
</g>
<!-- Node6 -->
<g id="node6" class="node"><title>Node6</title>
<g id="a_node6"><a xlink:href="classscram_1_1core_1_1Zbdd.xhtml#af92e04ed908364e0177ce444d7b72712" target="_top" xlink:title="Default constructor to initialize member variables. ">
<polygon fill="white" stroke="black" points="314,-99 314,-118 438,-118 438,-99 314,-99"/>
<text text-anchor="middle" x="376" y="-106" font-family="Helvetica,sans-Serif" font-size="10.00">scram::core::Zbdd::Zbdd</text>
</a>
</g>
</g>
<!-- Node1&#45;&gt;Node6 -->
<g id="edge10" class="edge"><title>Node1&#45;&gt;Node6</title>
<path fill="none" stroke="midnightblue" d="M112.145,-126.403C169.63,-122.488 255.868,-116.614 313.725,-112.674"/>
<polygon fill="midnightblue" stroke="midnightblue" points="111.853,-122.915 102.114,-127.087 112.329,-129.899 111.853,-122.915"/>
</g>
<!-- Node7 -->
<g id="node7" class="node"><title>Node7</title>
<g id="a_node7"><a xlink:href="classscram_1_1core_1_1Zbdd.xhtml#aeb83fd37f2aee74ac41e6ccadba82d39" target="_top" xlink:title="Removes constant modules from products. ">
<polygon fill="white" stroke="black" points="138,-49.5 138,-79.5 272,-79.5 272,-49.5 138,-49.5"/>
<text text-anchor="start" x="146" y="-67.5" font-family="Helvetica,sans-Serif" font-size="10.00">scram::core::Zbdd::</text>
<text text-anchor="middle" x="205" y="-56.5" font-family="Helvetica,sans-Serif" font-size="10.00">EliminateConstantModules</text>
</a>
</g>
</g>
<!-- Node1&#45;&gt;Node7 -->
<g id="edge6" class="edge"><title>Node1&#45;&gt;Node7</title>
<path fill="none" stroke="midnightblue" d="M96.1868,-111.314C119.464,-101.207 147.599,-88.99 169.29,-79.5713"/>
<polygon fill="midnightblue" stroke="midnightblue" points="94.6505,-108.165 86.8719,-115.358 97.4385,-114.586 94.6505,-108.165"/>
</g>
<!-- Node9 -->
<g id="node9" class="node"><title>Node9</title>
<g id="a_node9"><a xlink:href="classscram_1_1core_1_1zbdd_1_1CutSetContainer.xhtml#a1648d3f24a95302fac2a40e95f743dda" target="_top" xlink:title="Minimizes cut sets in the container. ">
<polygon fill="white" stroke="black" points="138,-0.5 138,-30.5 272,-30.5 272,-0.5 138,-0.5"/>
<text text-anchor="start" x="146" y="-18.5" font-family="Helvetica,sans-Serif" font-size="10.00">scram::core::zbdd::</text>
<text text-anchor="middle" x="205" y="-7.5" font-family="Helvetica,sans-Serif" font-size="10.00">CutSetContainer::Minimize</text>
</a>
</g>
</g>
<!-- Node1&#45;&gt;Node9 -->
<g id="edge9" class="edge"><title>Node1&#45;&gt;Node9</title>
<path fill="none" stroke="midnightblue" d="M69.0241,-107.078C84.8719,-86.7453 110.18,-57.7748 138,-39.5 143.095,-36.153 148.718,-33.1979 154.467,-30.6093"/>
<polygon fill="midnightblue" stroke="midnightblue" points="66.1074,-105.131 62.8317,-115.207 71.6758,-109.373 66.1074,-105.131"/>
</g>
<!-- Node5 -->
<g id="node5" class="node"><title>Node5</title>
<g id="a_node5"><a xlink:href="classscram_1_1core_1_1zbdd_1_1CutSetContainer.xhtml#a49532388bd9b917f4351f94f728518aa" target="_top" xlink:title="Eliminates all complements from cut sets. ">
<polygon fill="white" stroke="black" points="308,-137 308,-178 444,-178 444,-137 308,-137"/>
<text text-anchor="start" x="316" y="-166" font-family="Helvetica,sans-Serif" font-size="10.00">scram::core::zbdd::</text>
<text text-anchor="start" x="316" y="-155" font-family="Helvetica,sans-Serif" font-size="10.00">CutSetContainer::Eliminate</text>
<text text-anchor="middle" x="376" y="-144" font-family="Helvetica,sans-Serif" font-size="10.00">Complements</text>
</a>
</g>
</g>
<!-- Node4&#45;&gt;Node5 -->
<g id="edge4" class="edge"><title>Node4&#45;&gt;Node5</title>
<path fill="none" stroke="midnightblue" d="M274.184,-154.517C285.242,-154.844 296.687,-155.183 307.723,-155.51"/>
<polygon fill="midnightblue" stroke="midnightblue" points="274.259,-151.018 264.16,-154.221 274.052,-158.015 274.259,-151.018"/>
</g>
<!-- Node4&#45;&gt;Node6 -->
<g id="edge5" class="edge"><title>Node4&#45;&gt;Node6</title>
<path fill="none" stroke="midnightblue" d="M273.415,-134.948C295.616,-129.168 319.46,-122.96 338.464,-118.012"/>
<polygon fill="midnightblue" stroke="midnightblue" points="272.483,-131.574 263.688,-137.481 274.247,-138.348 272.483,-131.574"/>
</g>
<!-- Node7&#45;&gt;Node6 -->
<g id="edge8" class="edge"><title>Node7&#45;&gt;Node6</title>
<path fill="none" stroke="midnightblue" d="M273.415,-82.0518C295.616,-87.832 319.46,-94.0398 338.464,-98.9876"/>
<polygon fill="midnightblue" stroke="midnightblue" points="274.247,-78.6518 263.688,-79.5192 272.483,-85.426 274.247,-78.6518"/>
</g>
<!-- Node8 -->
<g id="node8" class="node"><title>Node8</title>
<g id="a_node8"><a xlink:href="classscram_1_1core_1_1zbdd_1_1CutSetContainer.xhtml#a1022ad7a4699257a6f0c0809d8f1903d" target="_top" xlink:title="Removes constant modules from cut sets. ">
<polygon fill="white" stroke="black" points="308,-39 308,-80 444,-80 444,-39 308,-39"/>
<text text-anchor="start" x="316" y="-68" font-family="Helvetica,sans-Serif" font-size="10.00">scram::core::zbdd::</text>
<text text-anchor="start" x="316" y="-57" font-family="Helvetica,sans-Serif" font-size="10.00">CutSetContainer::Eliminate</text>
<text text-anchor="middle" x="376" y="-46" font-family="Helvetica,sans-Serif" font-size="10.00">ConstantModules</text>
</a>
</g>
</g>
<!-- Node7&#45;&gt;Node8 -->
<g id="edge7" class="edge"><title>Node7&#45;&gt;Node8</title>
<path fill="none" stroke="midnightblue" d="M282.511,-62.2364C290.938,-61.9871 299.471,-61.7346 307.772,-61.489"/>
<polygon fill="midnightblue" stroke="midnightblue" points="282.2,-58.7439 272.308,-62.5382 282.407,-65.7409 282.2,-58.7439"/>
</g>
</g>
</svg>
