<?xml version="1.0" encoding="UTF-8" standalone="no"?>
<!DOCTYPE svg PUBLIC "-//W3C//DTD SVG 1.1//EN"
 "http://www.w3.org/Graphics/SVG/1.1/DTD/svg11.dtd">
<!-- Generated by graphviz version 2.38.0 (20140413.2041)
 -->
<!-- Title: scram::mef::LogNormalDeviate::Validate Pages: 1 -->
<svg width="500pt" height="203pt"
 viewBox="0.00 0.00 500.00 203.00" xmlns="http://www.w3.org/2000/svg" xmlns:xlink="http://www.w3.org/1999/xlink">
<g id="graph0" class="graph" transform="scale(1 1) rotate(0) translate(4 199)">
<title>scram::mef::LogNormalDeviate::Validate</title>
<polygon fill="white" stroke="none" points="-4,4 -4,-199 496,-199 496,4 -4,4"/>
<!-- Node1 -->
<g id="node1" class="node"><title>Node1</title>
<polygon fill="#bfbfbf" stroke="black" points="0,-82.5 0,-112.5 153,-112.5 153,-82.5 0,-82.5"/>
<text text-anchor="start" x="8" y="-100.5" font-family="Helvetica,sans-Serif" font-size="10.00">scram::mef::LogNormalDeviate</text>
<text text-anchor="middle" x="76.5" y="-89.5" font-family="Helvetica,sans-Serif" font-size="10.00">::Validate</text>
</g>
<!-- Node2 -->
<g id="node2" class="node"><title>Node2</title>
<g id="a_node2"><a xlink:href="classscram_1_1Random.xhtml#a8c06842e494b989786dc196284e78b05" target="_top" xlink:title="RNG from a lognormal distribution. ">
<polygon fill="white" stroke="black" points="192,-164.5 192,-194.5 332,-194.5 332,-164.5 192,-164.5"/>
<text text-anchor="start" x="200" y="-182.5" font-family="Helvetica,sans-Serif" font-size="10.00">scram::Random::LogNormal</text>
<text text-anchor="middle" x="262" y="-171.5" font-family="Helvetica,sans-Serif" font-size="10.00">Generator</text>
</a>
</g>
</g>
<!-- Node1&#45;&gt;Node2 -->
<g id="edge1" class="edge"><title>Node1&#45;&gt;Node2</title>
<path fill="none" stroke="midnightblue" d="M104.489,-112.631C126.764,-124.792 159.407,-141.87 189,-154.5 194.096,-156.675 199.452,-158.807 204.845,-160.853"/>
<polygon fill="midnightblue" stroke="midnightblue" points="203.954,-164.254 214.547,-164.431 206.376,-157.687 203.954,-164.254"/>
</g>
<!-- Node3 -->
<g id="node3" class="node"><title>Node3</title>
<g id="a_node3"><a xlink:href="classscram_1_1mef_1_1Expression.xhtml#a6b2d7f3d3abf98002c8cccee426edecc" target="_top" xlink:title="scram::mef::Expression::Max">
<polygon fill="white" stroke="black" points="189,-126 189,-145 335,-145 335,-126 189,-126"/>
<text text-anchor="middle" x="262" y="-133" font-family="Helvetica,sans-Serif" font-size="10.00">scram::mef::Expression::Max</text>
</a>
</g>
</g>
<!-- Node1&#45;&gt;Node3 -->
<g id="edge2" class="edge"><title>Node1&#45;&gt;Node3</title>
<path fill="none" stroke="midnightblue" d="M150.024,-112.519C168.364,-116.316 187.777,-120.337 205.15,-123.934"/>
<polygon fill="midnightblue" stroke="midnightblue" points="204.619,-127.398 215.121,-125.999 206.038,-120.544 204.619,-127.398"/>
</g>
<!-- Node4 -->
<g id="node4" class="node"><title>Node4</title>
<g id="a_node4"><a xlink:href="classscram_1_1mef_1_1Expression.xhtml#ac7e0dd118eafdfa943944172c1625a4e" target="_top" xlink:title="scram::mef::Expression\l::Mean">
<polygon fill="white" stroke="black" points="371,-82.5 371,-112.5 492,-112.5 492,-82.5 371,-82.5"/>
<text text-anchor="start" x="379" y="-100.5" font-family="Helvetica,sans-Serif" font-size="10.00">scram::mef::Expression</text>
<text text-anchor="middle" x="431.5" y="-89.5" font-family="Helvetica,sans-Serif" font-size="10.00">::Mean</text>
</a>
</g>
</g>
<!-- Node1&#45;&gt;Node4 -->
<g id="edge4" class="edge"><title>Node1&#45;&gt;Node4</title>
<path fill="none" stroke="midnightblue" d="M153.227,-97.5C214.796,-97.5 300.969,-97.5 360.842,-97.5"/>
<polygon fill="midnightblue" stroke="midnightblue" points="360.959,-101 370.959,-97.5 360.959,-94.0001 360.959,-101"/>
</g>
<!-- Node5 -->
<g id="node5" class="node"><title>Node5</title>
<g id="a_node5"><a xlink:href="classscram_1_1mef_1_1Expression.xhtml#a9601745b7f61ec67c8074a4043367152" target="_top" xlink:title="scram::mef::Expression::Min">
<polygon fill="white" stroke="black" points="190.5,-50 190.5,-69 333.5,-69 333.5,-50 190.5,-50"/>
<text text-anchor="middle" x="262" y="-57" font-family="Helvetica,sans-Serif" font-size="10.00">scram::mef::Expression::Min</text>
</a>
</g>
</g>
<!-- Node1&#45;&gt;Node5 -->
<g id="edge5" class="edge"><title>Node1&#45;&gt;Node5</title>
<path fill="none" stroke="midnightblue" d="M150.024,-82.4814C168.364,-78.6835 187.777,-74.6634 205.15,-71.0656"/>
<polygon fill="midnightblue" stroke="midnightblue" points="206.038,-74.4561 215.121,-69.0009 204.619,-67.6015 206.038,-74.4561"/>
</g>
<!-- Node6 -->
<g id="node6" class="node"><title>Node6</title>
<g id="a_node6"><a xlink:href="classscram_1_1mef_1_1Expression.xhtml#a5cf00d8b2ff843ad029a501a89ee572a" target="_top" xlink:title="scram::mef::Expression\l::Sample">
<polygon fill="white" stroke="black" points="201.5,-0.5 201.5,-30.5 322.5,-30.5 322.5,-0.5 201.5,-0.5"/>
<text text-anchor="start" x="209.5" y="-18.5" font-family="Helvetica,sans-Serif" font-size="10.00">scram::mef::Expression</text>
<text text-anchor="middle" x="262" y="-7.5" font-family="Helvetica,sans-Serif" font-size="10.00">::Sample</text>
</a>
</g>
</g>
<!-- Node1&#45;&gt;Node6 -->
<g id="edge7" class="edge"><title>Node1&#45;&gt;Node6</title>
<path fill="none" stroke="midnightblue" d="M104.489,-82.369C126.764,-70.2077 159.407,-53.1302 189,-40.5 194.096,-38.325 199.452,-36.1926 204.845,-34.1471"/>
<polygon fill="midnightblue" stroke="midnightblue" points="206.376,-37.313 214.547,-30.5686 203.954,-30.7456 206.376,-37.313"/>
</g>
<!-- Node3&#45;&gt;Node4 -->
<g id="edge3" class="edge"><title>Node3&#45;&gt;Node4</title>
<path fill="none" stroke="midnightblue" d="M305.267,-125.911C322.186,-122.073 342.126,-117.549 361.06,-113.253"/>
<polygon fill="midnightblue" stroke="midnightblue" points="361.871,-116.659 370.849,-111.033 360.322,-109.832 361.871,-116.659"/>
</g>
<!-- Node5&#45;&gt;Node4 -->
<g id="edge6" class="edge"><title>Node5&#45;&gt;Node4</title>
<path fill="none" stroke="midnightblue" d="M305.267,-69.089C322.186,-72.9272 342.126,-77.4509 361.06,-81.7465"/>
<polygon fill="midnightblue" stroke="midnightblue" points="360.322,-85.1679 370.849,-83.9672 361.871,-78.3414 360.322,-85.1679"/>
</g>
</g>
</svg>
