<?xml version="1.0" encoding="UTF-8" standalone="no"?>
<!DOCTYPE svg PUBLIC "-//W3C//DTD SVG 1.1//EN"
 "http://www.w3.org/Graphics/SVG/1.1/DTD/svg11.dtd">
<!-- Generated by graphviz version 2.38.0 (20140413.2041)
 -->
<!-- Title: scram::mef::Role Pages: 1 -->
<!--zoomable 948 -->
<svg id="main" version="1.1" xmlns="http://www.w3.org/2000/svg" xmlns:xlink="http://www.w3.org/1999/xlink" xml:space="preserve" onload="init(evt)">
<style type="text/css"><![CDATA[
.edge:hover path { stroke: red; }
.edge:hover polygon { stroke: red; fill: red; }
]]></style>
<script type="text/javascript"><![CDATA[
var edges = document.getElementsByTagName('g');
if (edges && edges.length) {
  for (var i=0;i<edges.length;i++) {
    if (edges[i].id.substr(0,4)=='edge') {
      edges[i].setAttribute('class','edge');
    }
  }
}
]]></script>
        <defs>
                <circle id="rim" cx="0" cy="0" r="7"/>
                <circle id="rim2" cx="0" cy="0" r="3.5"/>
                <g id="zoomPlus">
                        <use xlink:href="#rim" fill="#404040">
                                <set attributeName="fill" to="#808080" begin="zoomplus.mouseover" end="zoomplus.mouseout"/>
                        </use>
                        <path d="M-4,0h8M0,-4v8" fill="none" stroke="white" stroke-width="1.5" pointer-events="none"/>
                </g>
                <g id="zoomMin">
                        <use xlink:href="#rim" fill="#404040">
                                <set attributeName="fill" to="#808080" begin="zoomminus.mouseover" end="zoomminus.mouseout"/>
                        </use>
                        <path d="M-4,0h8" fill="none" stroke="white" stroke-width="1.5" pointer-events="none"/>
                </g>
                <g id="dirArrow">
                        <path fill="none" stroke="white" stroke-width="1.5" d="M0,-3.0v7 M-2.5,-0.5L0,-3.0L2.5,-0.5"/>
                </g>
               <g id="resetDef">
                       <use xlink:href="#rim2" fill="#404040">
                               <set attributeName="fill" to="#808080" begin="reset.mouseover" end="reset.mouseout"/>
                       </use>
               </g>
        </defs>

<script type="text/javascript">
var viewWidth = 1077;
var viewHeight = 948;
var sectionId = 'dynsection-0';
</script>
<script xlink:href="svgpan.js"/>
<svg id="graph" class="graph">
<g id="viewport">
<title>scram::mef::Role</title>
<polygon fill="white" stroke="none" points="-4,4 -4,-944 1072.5,-944 1072.5,4 -4,4"/>
<!-- Node1 -->
<g id="node1" class="node"><title>Node1</title>
<polygon fill="#bfbfbf" stroke="black" points="696.5,-849.5 696.5,-939.5 788.5,-939.5 788.5,-849.5 696.5,-849.5"/>
<text text-anchor="middle" x="742.5" y="-927.5" font-family="Helvetica,sans-Serif" font-size="10.00">scram::mef::Role</text>
<polyline fill="none" stroke="black" points="696.5,-920.5 788.5,-920.5 "/>
<text text-anchor="middle" x="742.5" y="-908.5" font-family="Helvetica,sans-Serif" font-size="10.00"> </text>
<polyline fill="none" stroke="black" points="696.5,-901.5 788.5,-901.5 "/>
<text text-anchor="start" x="704.5" y="-889.5" font-family="Helvetica,sans-Serif" font-size="10.00">+ Role()</text>
<text text-anchor="start" x="704.5" y="-878.5" font-family="Helvetica,sans-Serif" font-size="10.00">+ role()</text>
<text text-anchor="start" x="704.5" y="-867.5" font-family="Helvetica,sans-Serif" font-size="10.00">+ base_path()</text>
<text text-anchor="start" x="704.5" y="-856.5" font-family="Helvetica,sans-Serif" font-size="10.00"># ~Role()</text>
</g>
<!-- Node2 -->
<g id="node2" class="node"><title>Node2</title>
<g id="a_node2"><a xlink:href="classscram_1_1mef_1_1CcfGroup.xhtml" target="_top" xlink:title="Abstract base class for all common cause failure models. ">
<polygon fill="white" stroke="black" points="332.5,-557.5 332.5,-724.5 448.5,-724.5 448.5,-557.5 332.5,-557.5"/>
<text text-anchor="middle" x="390.5" y="-712.5" font-family="Helvetica,sans-Serif" font-size="10.00">scram::mef::CcfGroup</text>
<polyline fill="none" stroke="black" points="332.5,-705.5 448.5,-705.5 "/>
<text text-anchor="middle" x="390.5" y="-693.5" font-family="Helvetica,sans-Serif" font-size="10.00"> </text>
<polyline fill="none" stroke="black" points="332.5,-686.5 448.5,-686.5 "/>
<text text-anchor="start" x="340.5" y="-674.5" font-family="Helvetica,sans-Serif" font-size="10.00">+ CcfGroup()</text>
<text text-anchor="start" x="340.5" y="-663.5" font-family="Helvetica,sans-Serif" font-size="10.00">+ ~CcfGroup()</text>
<text text-anchor="start" x="340.5" y="-652.5" font-family="Helvetica,sans-Serif" font-size="10.00">+ members()</text>
<text text-anchor="start" x="340.5" y="-641.5" font-family="Helvetica,sans-Serif" font-size="10.00">+ AddMember()</text>
<text text-anchor="start" x="340.5" y="-630.5" font-family="Helvetica,sans-Serif" font-size="10.00">+ AddDistribution()</text>
<text text-anchor="start" x="340.5" y="-619.5" font-family="Helvetica,sans-Serif" font-size="10.00">+ AddFactor()</text>
<text text-anchor="start" x="340.5" y="-608.5" font-family="Helvetica,sans-Serif" font-size="10.00">+ ValidateDistribution()</text>
<text text-anchor="start" x="340.5" y="-597.5" font-family="Helvetica,sans-Serif" font-size="10.00">+ Validate()</text>
<text text-anchor="start" x="340.5" y="-586.5" font-family="Helvetica,sans-Serif" font-size="10.00">+ ApplyModel()</text>
<text text-anchor="start" x="340.5" y="-575.5" font-family="Helvetica,sans-Serif" font-size="10.00"># distribution()</text>
<text text-anchor="start" x="340.5" y="-564.5" font-family="Helvetica,sans-Serif" font-size="10.00"># factors()</text>
</a>
</g>
</g>
<!-- Node1&#45;&gt;Node2 -->
<g id="edge1" class="edge"><title>Node1&#45;&gt;Node2</title>
<path fill="none" stroke="midnightblue" d="M687.491,-862.531C662.882,-848.151 633.782,-830.41 608.5,-813 552.443,-774.396 491.753,-726.225 448.678,-690.856"/>
<polygon fill="none" stroke="midnightblue" points="685.934,-865.674 696.339,-867.67 689.45,-859.62 685.934,-865.674"/>
</g>
<!-- Node7 -->
<g id="node7" class="node"><title>Node7</title>
<g id="a_node7"><a xlink:href="classscram_1_1mef_1_1Component.xhtml" target="_top" xlink:title="Component is for logical grouping of events, gates, and other components. ">
<polygon fill="white" stroke="black" points="617.5,-469.5 617.5,-812.5 739.5,-812.5 739.5,-469.5 617.5,-469.5"/>
<text text-anchor="middle" x="678.5" y="-800.5" font-family="Helvetica,sans-Serif" font-size="10.00">scram::mef::Component</text>
<polyline fill="none" stroke="black" points="617.5,-793.5 739.5,-793.5 "/>
<text text-anchor="middle" x="678.5" y="-781.5" font-family="Helvetica,sans-Serif" font-size="10.00"> </text>
<polyline fill="none" stroke="black" points="617.5,-774.5 739.5,-774.5 "/>
<text text-anchor="start" x="625.5" y="-762.5" font-family="Helvetica,sans-Serif" font-size="10.00">+ Component()</text>
<text text-anchor="start" x="625.5" y="-751.5" font-family="Helvetica,sans-Serif" font-size="10.00">+ ~Component()</text>
<text text-anchor="start" x="625.5" y="-740.5" font-family="Helvetica,sans-Serif" font-size="10.00">+ AddGate()</text>
<text text-anchor="start" x="625.5" y="-729.5" font-family="Helvetica,sans-Serif" font-size="10.00">+ AddBasicEvent()</text>
<text text-anchor="start" x="625.5" y="-718.5" font-family="Helvetica,sans-Serif" font-size="10.00">+ AddHouseEvent()</text>
<text text-anchor="start" x="625.5" y="-707.5" font-family="Helvetica,sans-Serif" font-size="10.00">+ AddParameter()</text>
<text text-anchor="start" x="625.5" y="-696.5" font-family="Helvetica,sans-Serif" font-size="10.00">+ AddCcfGroup()</text>
<text text-anchor="start" x="625.5" y="-685.5" font-family="Helvetica,sans-Serif" font-size="10.00">+ AddComponent()</text>
<text text-anchor="start" x="625.5" y="-674.5" font-family="Helvetica,sans-Serif" font-size="10.00">+ gates()</text>
<text text-anchor="start" x="625.5" y="-663.5" font-family="Helvetica,sans-Serif" font-size="10.00">+ basic_events()</text>
<text text-anchor="start" x="625.5" y="-652.5" font-family="Helvetica,sans-Serif" font-size="10.00">+ house_events()</text>
<text text-anchor="start" x="625.5" y="-641.5" font-family="Helvetica,sans-Serif" font-size="10.00">+ parameters()</text>
<text text-anchor="start" x="625.5" y="-630.5" font-family="Helvetica,sans-Serif" font-size="10.00">+ ccf_groups()</text>
<text text-anchor="start" x="625.5" y="-619.5" font-family="Helvetica,sans-Serif" font-size="10.00">+ components()</text>
<text text-anchor="start" x="625.5" y="-608.5" font-family="Helvetica,sans-Serif" font-size="10.00"># GatherGates()</text>
<text text-anchor="start" x="625.5" y="-597.5" font-family="Helvetica,sans-Serif" font-size="10.00">* gates()</text>
<text text-anchor="start" x="625.5" y="-586.5" font-family="Helvetica,sans-Serif" font-size="10.00">* basic_events()</text>
<text text-anchor="start" x="625.5" y="-575.5" font-family="Helvetica,sans-Serif" font-size="10.00">* house_events()</text>
<text text-anchor="start" x="625.5" y="-564.5" font-family="Helvetica,sans-Serif" font-size="10.00">* parameters()</text>
<text text-anchor="start" x="625.5" y="-553.5" font-family="Helvetica,sans-Serif" font-size="10.00">* ccf_groups()</text>
<text text-anchor="start" x="625.5" y="-542.5" font-family="Helvetica,sans-Serif" font-size="10.00">* components()</text>
<text text-anchor="start" x="625.5" y="-531.5" font-family="Helvetica,sans-Serif" font-size="10.00">* gates_</text>
<text text-anchor="start" x="625.5" y="-520.5" font-family="Helvetica,sans-Serif" font-size="10.00">* basic_events_</text>
<text text-anchor="start" x="625.5" y="-509.5" font-family="Helvetica,sans-Serif" font-size="10.00">* house_events_</text>
<text text-anchor="start" x="625.5" y="-498.5" font-family="Helvetica,sans-Serif" font-size="10.00">* parameters_</text>
<text text-anchor="start" x="625.5" y="-487.5" font-family="Helvetica,sans-Serif" font-size="10.00">* ccf_groups_</text>
<text text-anchor="start" x="625.5" y="-476.5" font-family="Helvetica,sans-Serif" font-size="10.00">* components_</text>
</a>
</g>
</g>
<!-- Node1&#45;&gt;Node7 -->
<g id="edge6" class="edge"><title>Node1&#45;&gt;Node7</title>
<path fill="none" stroke="midnightblue" d="M728.765,-839.525C726.634,-831.152 724.341,-822.141 721.95,-812.744"/>
<polygon fill="none" stroke="midnightblue" points="725.421,-840.576 731.279,-849.404 732.205,-838.85 725.421,-840.576"/>
</g>
<!-- Node9 -->
<g id="node9" class="node"><title>Node9</title>
<g id="a_node9"><a xlink:href="classscram_1_1mef_1_1Event.xhtml" target="_top" xlink:title="Abstract base class for general fault tree events. ">
<polygon fill="white" stroke="black" points="757.5,-596 757.5,-686 855.5,-686 855.5,-596 757.5,-596"/>
<text text-anchor="middle" x="806.5" y="-674" font-family="Helvetica,sans-Serif" font-size="10.00">scram::mef::Event</text>
<polyline fill="none" stroke="black" points="757.5,-667 855.5,-667 "/>
<text text-anchor="middle" x="806.5" y="-655" font-family="Helvetica,sans-Serif" font-size="10.00"> </text>
<polyline fill="none" stroke="black" points="757.5,-648 855.5,-648 "/>
<text text-anchor="start" x="765.5" y="-636" font-family="Helvetica,sans-Serif" font-size="10.00">+ Event()</text>
<text text-anchor="start" x="765.5" y="-625" font-family="Helvetica,sans-Serif" font-size="10.00">+ ~Event()</text>
<text text-anchor="start" x="765.5" y="-614" font-family="Helvetica,sans-Serif" font-size="10.00">+ orphan()</text>
<text text-anchor="start" x="765.5" y="-603" font-family="Helvetica,sans-Serif" font-size="10.00">+ orphan()</text>
</a>
</g>
</g>
<!-- Node1&#45;&gt;Node9 -->
<g id="edge8" class="edge"><title>Node1&#45;&gt;Node9</title>
<path fill="none" stroke="midnightblue" d="M756.205,-839.643C767.866,-793.819 784.408,-728.814 795.292,-686.045"/>
<polygon fill="none" stroke="midnightblue" points="752.795,-838.85 753.721,-849.404 759.579,-840.576 752.795,-838.85"/>
</g>
<!-- Node15 -->
<g id="node15" class="node"><title>Node15</title>
<g id="a_node15"><a xlink:href="classscram_1_1mef_1_1Parameter.xhtml" target="_top" xlink:title="This class provides a representation of a variable in basic event description. ">
<polygon fill="white" stroke="black" points="874,-568.5 874,-713.5 991,-713.5 991,-568.5 874,-568.5"/>
<text text-anchor="middle" x="932.5" y="-701.5" font-family="Helvetica,sans-Serif" font-size="10.00">scram::mef::Parameter</text>
<polyline fill="none" stroke="black" points="874,-694.5 991,-694.5 "/>
<text text-anchor="middle" x="932.5" y="-682.5" font-family="Helvetica,sans-Serif" font-size="10.00"> </text>
<polyline fill="none" stroke="black" points="874,-675.5 991,-675.5 "/>
<text text-anchor="start" x="882" y="-663.5" font-family="Helvetica,sans-Serif" font-size="10.00">+ Parameter()</text>
<text text-anchor="start" x="882" y="-652.5" font-family="Helvetica,sans-Serif" font-size="10.00">+ expression()</text>
<text text-anchor="start" x="882" y="-641.5" font-family="Helvetica,sans-Serif" font-size="10.00">+ unit()</text>
<text text-anchor="start" x="882" y="-630.5" font-family="Helvetica,sans-Serif" font-size="10.00">+ unit()</text>
<text text-anchor="start" x="882" y="-619.5" font-family="Helvetica,sans-Serif" font-size="10.00">+ unused()</text>
<text text-anchor="start" x="882" y="-608.5" font-family="Helvetica,sans-Serif" font-size="10.00">+ unused()</text>
<text text-anchor="start" x="882" y="-597.5" font-family="Helvetica,sans-Serif" font-size="10.00">+ Mean()</text>
<text text-anchor="start" x="882" y="-586.5" font-family="Helvetica,sans-Serif" font-size="10.00">+ Max()</text>
<text text-anchor="start" x="882" y="-575.5" font-family="Helvetica,sans-Serif" font-size="10.00">+ Min()</text>
</a>
</g>
</g>
<!-- Node1&#45;&gt;Node15 -->
<g id="edge14" class="edge"><title>Node1&#45;&gt;Node15</title>
<path fill="none" stroke="midnightblue" d="M797.472,-866.889C820.688,-853.408 846.464,-835.166 864.5,-813 887.89,-784.253 904.045,-746.448 914.719,-713.696"/>
<polygon fill="none" stroke="midnightblue" points="795.714,-863.862 788.721,-871.821 799.151,-869.96 795.714,-863.862"/>
</g>
<!-- Node3 -->
<g id="node3" class="node"><title>Node3</title>
<g id="a_node3"><a xlink:href="classscram_1_1mef_1_1AlphaFactorModel.xhtml" target="_top" xlink:title="Alpha factor model characterizes failure of exactly k members of the group due to common cause...">
<polygon fill="white" stroke="black" points="0,-348 0,-405 151,-405 151,-348 0,-348"/>
<text text-anchor="middle" x="75.5" y="-393" font-family="Helvetica,sans-Serif" font-size="10.00">scram::mef::AlphaFactorModel</text>
<polyline fill="none" stroke="black" points="0,-386 151,-386 "/>
<text text-anchor="middle" x="75.5" y="-374" font-family="Helvetica,sans-Serif" font-size="10.00"> </text>
<polyline fill="none" stroke="black" points="0,-367 151,-367 "/>
<text text-anchor="middle" x="75.5" y="-355" font-family="Helvetica,sans-Serif" font-size="10.00"> </text>
</a>
</g>
</g>
<!-- Node2&#45;&gt;Node3 -->
<g id="edge2" class="edge"><title>Node2&#45;&gt;Node3</title>
<path fill="none" stroke="midnightblue" d="M324.476,-584.98C258.47,-529.975 159.66,-447.633 108.635,-405.112"/>
<polygon fill="none" stroke="midnightblue" points="322.434,-587.834 332.357,-591.548 326.915,-582.457 322.434,-587.834"/>
</g>
<!-- Node4 -->
<g id="node4" class="node"><title>Node4</title>
<g id="a_node4"><a xlink:href="classscram_1_1mef_1_1BetaFactorModel.xhtml" target="_top" xlink:title="Common cause failure model that assumes, if common cause failure occurs, then all components or membe...">
<polygon fill="white" stroke="black" points="169.5,-348 169.5,-405 315.5,-405 315.5,-348 169.5,-348"/>
<text text-anchor="middle" x="242.5" y="-393" font-family="Helvetica,sans-Serif" font-size="10.00">scram::mef::BetaFactorModel</text>
<polyline fill="none" stroke="black" points="169.5,-386 315.5,-386 "/>
<text text-anchor="middle" x="242.5" y="-374" font-family="Helvetica,sans-Serif" font-size="10.00"> </text>
<polyline fill="none" stroke="black" points="169.5,-367 315.5,-367 "/>
<text text-anchor="middle" x="242.5" y="-355" font-family="Helvetica,sans-Serif" font-size="10.00"> </text>
</a>
</g>
</g>
<!-- Node2&#45;&gt;Node4 -->
<g id="edge3" class="edge"><title>Node2&#45;&gt;Node4</title>
<path fill="none" stroke="midnightblue" d="M338.819,-548.335C310.434,-497.991 277.216,-439.073 258.139,-405.238"/>
<polygon fill="none" stroke="midnightblue" points="335.915,-550.312 343.875,-557.304 342.013,-546.874 335.915,-550.312"/>
</g>
<!-- Node5 -->
<g id="node5" class="node"><title>Node5</title>
<g id="a_node5"><a xlink:href="classscram_1_1mef_1_1MglModel.xhtml" target="_top" xlink:title="Multiple Greek Letters model characterizes failure of sub&#45;groups of the group due to common cause...">
<polygon fill="white" stroke="black" points="333.5,-348 333.5,-405 447.5,-405 447.5,-348 333.5,-348"/>
<text text-anchor="middle" x="390.5" y="-393" font-family="Helvetica,sans-Serif" font-size="10.00">scram::mef::MglModel</text>
<polyline fill="none" stroke="black" points="333.5,-386 447.5,-386 "/>
<text text-anchor="middle" x="390.5" y="-374" font-family="Helvetica,sans-Serif" font-size="10.00"> </text>
<polyline fill="none" stroke="black" points="333.5,-367 447.5,-367 "/>
<text text-anchor="middle" x="390.5" y="-355" font-family="Helvetica,sans-Serif" font-size="10.00"> </text>
</a>
</g>
</g>
<!-- Node2&#45;&gt;Node5 -->
<g id="edge4" class="edge"><title>Node2&#45;&gt;Node5</title>
<path fill="none" stroke="midnightblue" d="M390.5,-547.083C390.5,-497.017 390.5,-438.793 390.5,-405.238"/>
<polygon fill="none" stroke="midnightblue" points="387,-547.304 390.5,-557.304 394,-547.304 387,-547.304"/>
</g>
<!-- Node6 -->
<g id="node6" class="node"><title>Node6</title>
<g id="a_node6"><a xlink:href="classscram_1_1mef_1_1PhiFactorModel.xhtml" target="_top" xlink:title="Phi factor model is a simplification, where fractions of k&#45;member group failure is given directly...">
<polygon fill="white" stroke="black" points="465.5,-348 465.5,-405 605.5,-405 605.5,-348 465.5,-348"/>
<text text-anchor="middle" x="535.5" y="-393" font-family="Helvetica,sans-Serif" font-size="10.00">scram::mef::PhiFactorModel</text>
<polyline fill="none" stroke="black" points="465.5,-386 605.5,-386 "/>
<text text-anchor="middle" x="535.5" y="-374" font-family="Helvetica,sans-Serif" font-size="10.00"> </text>
<polyline fill="none" stroke="black" points="465.5,-367 605.5,-367 "/>
<text text-anchor="start" x="473.5" y="-355" font-family="Helvetica,sans-Serif" font-size="10.00">+ Validate()</text>
</a>
</g>
</g>
<!-- Node2&#45;&gt;Node6 -->
<g id="edge5" class="edge"><title>Node2&#45;&gt;Node6</title>
<path fill="none" stroke="midnightblue" d="M441.134,-548.335C468.943,-497.991 501.488,-439.073 520.178,-405.238"/>
<polygon fill="none" stroke="midnightblue" points="437.951,-546.858 436.18,-557.304 444.079,-550.243 437.951,-546.858"/>
</g>
<!-- Node8 -->
<g id="node8" class="node"><title>Node8</title>
<g id="a_node8"><a xlink:href="classscram_1_1mef_1_1FaultTree.xhtml" target="_top" xlink:title="Fault tree representation as a container of gates, basic and house events, and other information...">
<polygon fill="white" stroke="black" points="624,-337 624,-416 737,-416 737,-337 624,-337"/>
<text text-anchor="middle" x="680.5" y="-404" font-family="Helvetica,sans-Serif" font-size="10.00">scram::mef::FaultTree</text>
<polyline fill="none" stroke="black" points="624,-397 737,-397 "/>
<text text-anchor="middle" x="680.5" y="-385" font-family="Helvetica,sans-Serif" font-size="10.00"> </text>
<polyline fill="none" stroke="black" points="624,-378 737,-378 "/>
<text text-anchor="start" x="632" y="-366" font-family="Helvetica,sans-Serif" font-size="10.00">+ FaultTree()</text>
<text text-anchor="start" x="632" y="-355" font-family="Helvetica,sans-Serif" font-size="10.00">+ top_events()</text>
<text text-anchor="start" x="632" y="-344" font-family="Helvetica,sans-Serif" font-size="10.00">+ CollectTopEvents()</text>
</a>
</g>
</g>
<!-- Node7&#45;&gt;Node8 -->
<g id="edge7" class="edge"><title>Node7&#45;&gt;Node8</title>
<path fill="none" stroke="midnightblue" d="M679.88,-458.889C679.999,-443.256 680.11,-428.732 680.204,-416.409"/>
<polygon fill="none" stroke="midnightblue" points="676.377,-459.283 679.8,-469.31 683.377,-459.337 676.377,-459.283"/>
</g>
<!-- Node10 -->
<g id="node10" class="node"><title>Node10</title>
<g id="a_node10"><a xlink:href="classscram_1_1mef_1_1Gate.xhtml" target="_top" xlink:title="A representation of a gate in a fault tree. ">
<polygon fill="white" stroke="black" points="758,-320.5 758,-432.5 851,-432.5 851,-320.5 758,-320.5"/>
<text text-anchor="middle" x="804.5" y="-420.5" font-family="Helvetica,sans-Serif" font-size="10.00">scram::mef::Gate</text>
<polyline fill="none" stroke="black" points="758,-413.5 851,-413.5 "/>
<text text-anchor="middle" x="804.5" y="-401.5" font-family="Helvetica,sans-Serif" font-size="10.00"> </text>
<polyline fill="none" stroke="black" points="758,-394.5 851,-394.5 "/>
<text text-anchor="start" x="766" y="-382.5" font-family="Helvetica,sans-Serif" font-size="10.00">+ formula()</text>
<text text-anchor="start" x="766" y="-371.5" font-family="Helvetica,sans-Serif" font-size="10.00">+ Validate()</text>
<text text-anchor="start" x="766" y="-360.5" font-family="Helvetica,sans-Serif" font-size="10.00">+ formula()</text>
<text text-anchor="start" x="766" y="-349.5" font-family="Helvetica,sans-Serif" font-size="10.00">+ formula()</text>
<text text-anchor="start" x="766" y="-338.5" font-family="Helvetica,sans-Serif" font-size="10.00">* formula()</text>
<text text-anchor="start" x="766" y="-327.5" font-family="Helvetica,sans-Serif" font-size="10.00">* formula()</text>
</a>
</g>
</g>
<!-- Node9&#45;&gt;Node10 -->
<g id="edge9" class="edge"><title>Node9&#45;&gt;Node10</title>
<path fill="none" stroke="midnightblue" d="M806.086,-585.673C805.745,-540.97 805.265,-477.868 804.922,-432.879"/>
<polygon fill="none" stroke="midnightblue" points="802.587,-585.794 806.163,-595.767 809.587,-585.741 802.587,-585.794"/>
</g>
<!-- Node11 -->
<g id="node11" class="node"><title>Node11</title>
<g id="a_node11"><a xlink:href="classscram_1_1mef_1_1PrimaryEvent.xhtml" target="_top" xlink:title="This is an abstract base class for events that can cause failures. ">
<polygon fill="white" stroke="black" points="869,-337 869,-416 1000,-416 1000,-337 869,-337"/>
<text text-anchor="middle" x="934.5" y="-404" font-family="Helvetica,sans-Serif" font-size="10.00">scram::mef::PrimaryEvent</text>
<polyline fill="none" stroke="black" points="869,-397 1000,-397 "/>
<text text-anchor="middle" x="934.5" y="-385" font-family="Helvetica,sans-Serif" font-size="10.00"> </text>
<polyline fill="none" stroke="black" points="869,-378 1000,-378 "/>
<text text-anchor="start" x="877" y="-366" font-family="Helvetica,sans-Serif" font-size="10.00">+ ~PrimaryEvent()</text>
<text text-anchor="start" x="877" y="-355" font-family="Helvetica,sans-Serif" font-size="10.00">+ has_expression()</text>
<text text-anchor="start" x="877" y="-344" font-family="Helvetica,sans-Serif" font-size="10.00"># has_expression()</text>
</a>
</g>
</g>
<!-- Node9&#45;&gt;Node11 -->
<g id="edge10" class="edge"><title>Node9&#45;&gt;Node11</title>
<path fill="none" stroke="midnightblue" d="M820.398,-586.009C830.431,-551.425 845.689,-506.216 865.5,-469 875.317,-450.559 888.688,-431.853 901.047,-416.201"/>
<polygon fill="none" stroke="midnightblue" points="816.948,-585.346 817.581,-595.922 823.682,-587.26 816.948,-585.346"/>
</g>
<!-- Node12 -->
<g id="node12" class="node"><title>Node12</title>
<g id="a_node12"><a xlink:href="classscram_1_1mef_1_1BasicEvent.xhtml" target="_top" xlink:title="Representation of a basic event in a fault tree. ">
<polygon fill="white" stroke="black" points="802.5,-127.5 802.5,-283.5 924.5,-283.5 924.5,-127.5 802.5,-127.5"/>
<text text-anchor="middle" x="863.5" y="-271.5" font-family="Helvetica,sans-Serif" font-size="10.00">scram::mef::BasicEvent</text>
<polyline fill="none" stroke="black" points="802.5,-264.5 924.5,-264.5 "/>
<text text-anchor="middle" x="863.5" y="-252.5" font-family="Helvetica,sans-Serif" font-size="10.00"> </text>
<polyline fill="none" stroke="black" points="802.5,-245.5 924.5,-245.5 "/>
<text text-anchor="start" x="810.5" y="-233.5" font-family="Helvetica,sans-Serif" font-size="10.00">+ ~BasicEvent()</text>
<text text-anchor="start" x="810.5" y="-222.5" font-family="Helvetica,sans-Serif" font-size="10.00">+ expression()</text>
<text text-anchor="start" x="810.5" y="-211.5" font-family="Helvetica,sans-Serif" font-size="10.00">+ p()</text>
<text text-anchor="start" x="810.5" y="-200.5" font-family="Helvetica,sans-Serif" font-size="10.00">+ SampleProbability()</text>
<text text-anchor="start" x="810.5" y="-189.5" font-family="Helvetica,sans-Serif" font-size="10.00">+ Reset()</text>
<text text-anchor="start" x="810.5" y="-178.5" font-family="Helvetica,sans-Serif" font-size="10.00">+ IsConstant()</text>
<text text-anchor="start" x="810.5" y="-167.5" font-family="Helvetica,sans-Serif" font-size="10.00">+ Validate()</text>
<text text-anchor="start" x="810.5" y="-156.5" font-family="Helvetica,sans-Serif" font-size="10.00">+ HasCcf()</text>
<text text-anchor="start" x="810.5" y="-145.5" font-family="Helvetica,sans-Serif" font-size="10.00">+ ccf_gate()</text>
<text text-anchor="start" x="810.5" y="-134.5" font-family="Helvetica,sans-Serif" font-size="10.00">+ ccf_gate()</text>
</a>
</g>
</g>
<!-- Node11&#45;&gt;Node12 -->
<g id="edge11" class="edge"><title>Node11&#45;&gt;Node12</title>
<path fill="none" stroke="midnightblue" d="M914.189,-327.155C908.495,-313.601 902.159,-298.518 895.947,-283.734"/>
<polygon fill="none" stroke="midnightblue" points="911.111,-328.864 918.211,-336.728 917.565,-326.153 911.111,-328.864"/>
</g>
<!-- Node14 -->
<g id="node14" class="node"><title>Node14</title>
<g id="a_node14"><a xlink:href="classscram_1_1mef_1_1HouseEvent.xhtml" target="_top" xlink:title="Representation of a house event in a fault tree. ">
<polygon fill="white" stroke="black" points="942.5,-171.5 942.5,-239.5 1068.5,-239.5 1068.5,-171.5 942.5,-171.5"/>
<text text-anchor="middle" x="1005.5" y="-227.5" font-family="Helvetica,sans-Serif" font-size="10.00">scram::mef::HouseEvent</text>
<polyline fill="none" stroke="black" points="942.5,-220.5 1068.5,-220.5 "/>
<text text-anchor="middle" x="1005.5" y="-208.5" font-family="Helvetica,sans-Serif" font-size="10.00"> </text>
<polyline fill="none" stroke="black" points="942.5,-201.5 1068.5,-201.5 "/>
<text text-anchor="start" x="950.5" y="-189.5" font-family="Helvetica,sans-Serif" font-size="10.00">+ state()</text>
<text text-anchor="start" x="950.5" y="-178.5" font-family="Helvetica,sans-Serif" font-size="10.00">+ state()</text>
</a>
</g>
</g>
<!-- Node11&#45;&gt;Node14 -->
<g id="edge13" class="edge"><title>Node11&#45;&gt;Node14</title>
<path fill="none" stroke="midnightblue" d="M954.67,-327.489C966.461,-299.424 981.044,-264.713 991.562,-239.677"/>
<polygon fill="none" stroke="midnightblue" points="951.435,-326.153 950.789,-336.728 957.889,-328.864 951.435,-326.153"/>
</g>
<!-- Node13 -->
<g id="node13" class="node"><title>Node13</title>
<g id="a_node13"><a xlink:href="classscram_1_1mef_1_1CcfEvent.xhtml" target="_top" xlink:title="A basic event that represents a multiple failure of a group of events due to a common cause...">
<polygon fill="white" stroke="black" points="807,-0.5 807,-90.5 920,-90.5 920,-0.5 807,-0.5"/>
<text text-anchor="middle" x="863.5" y="-78.5" font-family="Helvetica,sans-Serif" font-size="10.00">scram::mef::CcfEvent</text>
<polyline fill="none" stroke="black" points="807,-71.5 920,-71.5 "/>
<text text-anchor="middle" x="863.5" y="-59.5" font-family="Helvetica,sans-Serif" font-size="10.00"> </text>
<polyline fill="none" stroke="black" points="807,-52.5 920,-52.5 "/>
<text text-anchor="start" x="815" y="-40.5" font-family="Helvetica,sans-Serif" font-size="10.00">+ CcfEvent()</text>
<text text-anchor="start" x="815" y="-29.5" font-family="Helvetica,sans-Serif" font-size="10.00">+ ccf_group()</text>
<text text-anchor="start" x="815" y="-18.5" font-family="Helvetica,sans-Serif" font-size="10.00">+ members()</text>
<text text-anchor="start" x="815" y="-7.5" font-family="Helvetica,sans-Serif" font-size="10.00">+ members()</text>
</a>
</g>
</g>
<!-- Node12&#45;&gt;Node13 -->
<g id="edge12" class="edge"><title>Node12&#45;&gt;Node13</title>
<path fill="none" stroke="midnightblue" d="M863.5,-117.082C863.5,-108.019 863.5,-99.1063 863.5,-90.8271"/>
<polygon fill="none" stroke="midnightblue" points="860,-117.351 863.5,-127.351 867,-117.351 860,-117.351"/>
</g>
</g>
</svg>
        <g id="navigator" transform="translate(0 0)" fill="#404254">
                <rect fill="#f2f5e9" fill-opacity="0.5" stroke="#606060" stroke-width=".5" x="0" y="0" width="60" height="60"/>
                <use id="zoomplus" xlink:href="#zoomPlus" x="17" y="9" onmousedown="handleZoom(evt,'in')"/>
                <use id="zoomminus" xlink:href="#zoomMin" x="42" y="9" onmousedown="handleZoom(evt,'out')"/>
                <use id="reset" xlink:href="#resetDef" x="30" y="36" onmousedown="handleReset()"/>
                <g id="arrowUp" xlink:href="#dirArrow" transform="translate(30 24)" onmousedown="handlePan(0,-1)">
                  <use xlink:href="#rim" fill="#404040">
                        <set attributeName="fill" to="#808080" begin="arrowUp.mouseover" end="arrowUp.mouseout"/>
                  </use>
                  <path fill="none" stroke="white" stroke-width="1.5" d="M0,-3.0v7 M-2.5,-0.5L0,-3.0L2.5,-0.5"/>
                </g>
                <g id="arrowRight" xlink:href="#dirArrow" transform="rotate(90) translate(36 -43)" onmousedown="handlePan(1,0)">
                  <use xlink:href="#rim" fill="#404040">
                        <set attributeName="fill" to="#808080" begin="arrowRight.mouseover" end="arrowRight.mouseout"/>
                  </use>
                  <path fill="none" stroke="white" stroke-width="1.5" d="M0,-3.0v7 M-2.5,-0.5L0,-3.0L2.5,-0.5"/>
                </g>
                <g id="arrowDown" xlink:href="#dirArrow" transform="rotate(180) translate(-30 -48)" onmousedown="handlePan(0,1)">
                  <use xlink:href="#rim" fill="#404040">
                        <set attributeName="fill" to="#808080" begin="arrowDown.mouseover" end="arrowDown.mouseout"/>
                  </use>
                  <path fill="none" stroke="white" stroke-width="1.5" d="M0,-3.0v7 M-2.5,-0.5L0,-3.0L2.5,-0.5"/>
                </g>
                <g id="arrowLeft" xlink:href="#dirArrow" transform="rotate(270) translate(-36 17)" onmousedown="handlePan(-1,0)">
                  <use xlink:href="#rim" fill="#404040">
                        <set attributeName="fill" to="#808080" begin="arrowLeft.mouseover" end="arrowLeft.mouseout"/>
                  </use>
                  <path fill="none" stroke="white" stroke-width="1.5" d="M0,-3.0v7 M-2.5,-0.5L0,-3.0L2.5,-0.5"/>
                </g>
        </g>
        <svg viewBox="0 0 15 15" width="100%" height="30px" preserveAspectRatio="xMaxYMin meet">
         <g id="arrow_out" transform="scale(0.3 0.3)">
          <a xlink:href="classscram_1_1mef_1_1Role__inherit__graph_org.svg" target="_base">
           <rect id="button" ry="5" rx="5" y="6" x="6" height="38" width="38"
                fill="#f2f5e9" fill-opacity="0.5" stroke="#606060" stroke-width="1.0"/>
           <path id="arrow"
             d="M 11.500037,31.436501 C 11.940474,20.09759 22.043105,11.32322 32.158766,21.979434 L 37.068811,17.246167 C 37.068811,17.246167 37.088388,32 37.088388,32 L 22.160133,31.978069 C 22.160133,31.978069 26.997745,27.140456 26.997745,27.140456 C 18.528582,18.264221 13.291696,25.230495 11.500037,31.436501 z"
             style="fill:#404040;"/>
          </a>
         </g>
        </svg>
</svg>
