<?xml version="1.0" encoding="UTF-8" standalone="no"?>
<!DOCTYPE svg PUBLIC "-//W3C//DTD SVG 1.1//EN"
 "http://www.w3.org/Graphics/SVG/1.1/DTD/svg11.dtd">
<!-- Generated by graphviz version 2.38.0 (20140413.2041)
 -->
<!-- Title: scram::core::zbdd::CutSetContainer::GetNextGate Pages: 1 -->
<svg width="328pt" height="165pt"
 viewBox="0.00 0.00 328.00 165.00" xmlns="http://www.w3.org/2000/svg" xmlns:xlink="http://www.w3.org/1999/xlink">
<g id="graph0" class="graph" transform="scale(1 1) rotate(0) translate(4 161)">
<title>scram::core::zbdd::CutSetContainer::GetNextGate</title>
<polygon fill="white" stroke="none" points="-4,4 -4,-161 324,-161 324,4 -4,4"/>
<!-- Node1 -->
<g id="node1" class="node"><title>Node1</title>
<polygon fill="#bfbfbf" stroke="black" points="0,-63.5 0,-93.5 153,-93.5 153,-63.5 0,-63.5"/>
<text text-anchor="start" x="8" y="-81.5" font-family="Helvetica,sans-Serif" font-size="10.00">scram::core::zbdd::</text>
<text text-anchor="middle" x="76.5" y="-70.5" font-family="Helvetica,sans-Serif" font-size="10.00">CutSetContainer::GetNextGate</text>
</g>
<!-- Node2 -->
<g id="node2" class="node"><title>Node2</title>
<g id="a_node2"><a xlink:href="classscram_1_1core_1_1NonTerminal.xhtml#aeeaafd82ae5890a7ec3462c68ffc8628" target="_top" xlink:title="scram::core::NonTerminal\l\&lt; SetNode \&gt;::index">
<polygon fill="white" stroke="black" points="189.5,-126.5 189.5,-156.5 319.5,-156.5 319.5,-126.5 189.5,-126.5"/>
<text text-anchor="start" x="197.5" y="-144.5" font-family="Helvetica,sans-Serif" font-size="10.00">scram::core::NonTerminal</text>
<text text-anchor="middle" x="254.5" y="-133.5" font-family="Helvetica,sans-Serif" font-size="10.00">&lt; SetNode &gt;::index</text>
</a>
</g>
</g>
<!-- Node1&#45;&gt;Node2 -->
<g id="edge1" class="edge"><title>Node1&#45;&gt;Node2</title>
<path fill="none" stroke="midnightblue" d="M119.656,-93.5901C144.274,-102.402 175.533,-113.591 201.65,-122.94"/>
<polygon fill="midnightblue" stroke="midnightblue" points="200.788,-126.349 211.383,-126.424 203.148,-119.759 200.788,-126.349"/>
</g>
<!-- Node3 -->
<g id="node3" class="node"><title>Node3</title>
<g id="a_node3"><a xlink:href="classscram_1_1core_1_1SetNode.xhtml#adfcfad8dde1eb94ed51d8075a5ad6344" target="_top" xlink:title="&lt; For destructive extraction of products. ">
<polygon fill="white" stroke="black" points="189,-88 189,-107 320,-107 320,-88 189,-88"/>
<text text-anchor="middle" x="254.5" y="-95" font-family="Helvetica,sans-Serif" font-size="10.00">scram::core::SetNode::Ptr</text>
</a>
</g>
</g>
<!-- Node1&#45;&gt;Node3 -->
<g id="edge2" class="edge"><title>Node1&#45;&gt;Node3</title>
<path fill="none" stroke="midnightblue" d="M153.161,-86.668C161.733,-87.5933 170.463,-88.5358 179.02,-89.4595"/>
<polygon fill="midnightblue" stroke="midnightblue" points="178.646,-92.9394 188.963,-90.533 179.397,-85.9798 178.646,-92.9394"/>
</g>
<!-- Node4 -->
<g id="node4" class="node"><title>Node4</title>
<g id="a_node4"><a xlink:href="classscram_1_1core_1_1Zbdd.xhtml#aa599878612e128fa09e17d0520280dbe" target="_top" xlink:title="scram::core::Zbdd::root">
<polygon fill="white" stroke="black" points="195,-50 195,-69 314,-69 314,-50 195,-50"/>
<text text-anchor="middle" x="254.5" y="-57" font-family="Helvetica,sans-Serif" font-size="10.00">scram::core::Zbdd::root</text>
</a>
</g>
</g>
<!-- Node1&#45;&gt;Node4 -->
<g id="edge3" class="edge"><title>Node1&#45;&gt;Node4</title>
<path fill="none" stroke="midnightblue" d="M153.161,-70.332C163.643,-69.2005 174.362,-68.0433 184.709,-66.9263"/>
<polygon fill="midnightblue" stroke="midnightblue" points="185.343,-70.3783 194.91,-65.8251 184.592,-63.4187 185.343,-70.3783"/>
</g>
<!-- Node5 -->
<g id="node5" class="node"><title>Node5</title>
<g id="a_node5"><a xlink:href="classscram_1_1core_1_1Vertex.xhtml#acfa7d6caa5bc11bc95cb35012169ab15" target="_top" xlink:title="scram::core::Vertex\l\&lt; SetNode \&gt;::terminal">
<polygon fill="white" stroke="black" points="198,-0.5 198,-30.5 311,-30.5 311,-0.5 198,-0.5"/>
<text text-anchor="start" x="206" y="-18.5" font-family="Helvetica,sans-Serif" font-size="10.00">scram::core::Vertex</text>
<text text-anchor="middle" x="254.5" y="-7.5" font-family="Helvetica,sans-Serif" font-size="10.00">&lt; SetNode &gt;::terminal</text>
</a>
</g>
</g>
<!-- Node1&#45;&gt;Node5 -->
<g id="edge4" class="edge"><title>Node1&#45;&gt;Node5</title>
<path fill="none" stroke="midnightblue" d="M119.656,-63.4099C144.274,-54.5979 175.533,-43.4087 201.65,-34.06"/>
<polygon fill="midnightblue" stroke="midnightblue" points="203.148,-37.2414 211.383,-30.576 200.788,-30.6509 203.148,-37.2414"/>
</g>
</g>
</svg>
