<?xml version="1.0" encoding="UTF-8" standalone="no"?>
<!DOCTYPE svg PUBLIC "-//W3C//DTD SVG 1.1//EN"
 "http://www.w3.org/Graphics/SVG/1.1/DTD/svg11.dtd">
<!-- Generated by graphviz version 2.38.0 (20140413.2041)
 -->
<!-- Title: scram::core::UncertaintyAnalysis::Analyze Pages: 1 -->
<svg width="281pt" height="88pt"
 viewBox="0.00 0.00 281.00 88.00" xmlns="http://www.w3.org/2000/svg" xmlns:xlink="http://www.w3.org/1999/xlink">
<g id="graph0" class="graph" transform="scale(1 1) rotate(0) translate(4 84)">
<title>scram::core::UncertaintyAnalysis::Analyze</title>
<polygon fill="white" stroke="none" points="-4,4 -4,-84 277,-84 277,4 -4,4"/>
<!-- Node1 -->
<g id="node1" class="node"><title>Node1</title>
<polygon fill="#bfbfbf" stroke="black" points="0,-24.5 0,-54.5 125,-54.5 125,-24.5 0,-24.5"/>
<text text-anchor="start" x="8" y="-42.5" font-family="Helvetica,sans-Serif" font-size="10.00">scram::core::Uncertainty</text>
<text text-anchor="middle" x="62.5" y="-31.5" font-family="Helvetica,sans-Serif" font-size="10.00">Analysis::Analyze</text>
</g>
<!-- Node2 -->
<g id="node2" class="node"><title>Node2</title>
<g id="a_node2"><a xlink:href="classscram_1_1core_1_1Analysis.xhtml#a1a4f345f29240b0236853641f728a103" target="_top" xlink:title="Adds time to the total analysis time. ">
<polygon fill="white" stroke="black" points="161,-49.5 161,-79.5 273,-79.5 273,-49.5 161,-49.5"/>
<text text-anchor="start" x="169" y="-67.5" font-family="Helvetica,sans-Serif" font-size="10.00">scram::core::Analysis</text>
<text text-anchor="middle" x="217" y="-56.5" font-family="Helvetica,sans-Serif" font-size="10.00">::AddAnalysisTime</text>
</a>
</g>
</g>
<!-- Node1&#45;&gt;Node2 -->
<g id="edge1" class="edge"><title>Node1&#45;&gt;Node2</title>
<path fill="none" stroke="midnightblue" d="M125.088,-49.5964C133.433,-50.9645 142.022,-52.3725 150.434,-53.7515"/>
<polygon fill="midnightblue" stroke="midnightblue" points="150.144,-57.2506 160.578,-55.4145 151.276,-50.3428 150.144,-57.2506"/>
</g>
<!-- Node3 -->
<g id="node3" class="node"><title>Node3</title>
<g id="a_node3"><a xlink:href="classscram_1_1core_1_1Analysis.xhtml#ad49662e0dcd76e35a7bdd776cc6f2f03" target="_top" xlink:title="scram::core::Analysis\l::analysis_time">
<polygon fill="white" stroke="black" points="161,-0.5 161,-30.5 273,-30.5 273,-0.5 161,-0.5"/>
<text text-anchor="start" x="169" y="-18.5" font-family="Helvetica,sans-Serif" font-size="10.00">scram::core::Analysis</text>
<text text-anchor="middle" x="217" y="-7.5" font-family="Helvetica,sans-Serif" font-size="10.00">::analysis_time</text>
</a>
</g>
</g>
<!-- Node1&#45;&gt;Node3 -->
<g id="edge2" class="edge"><title>Node1&#45;&gt;Node3</title>
<path fill="none" stroke="midnightblue" d="M125.088,-29.8075C133.433,-28.4941 142.022,-27.1424 150.434,-25.8186"/>
<polygon fill="midnightblue" stroke="midnightblue" points="151.244,-29.2343 160.578,-24.2221 150.156,-22.3194 151.244,-29.2343"/>
</g>
</g>
</svg>
