<?xml version="1.0" encoding="UTF-8" standalone="no"?>
<!DOCTYPE svg PUBLIC "-//W3C//DTD SVG 1.1//EN"
 "http://www.w3.org/Graphics/SVG/1.1/DTD/svg11.dtd">
<!-- Generated by graphviz version 2.38.0 (20140413.2041)
 -->
<!-- Title: scram::core::zbdd::CutSetContainer::Merge Pages: 1 -->
<svg width="297pt" height="214pt"
 viewBox="0.00 0.00 297.00 214.00" xmlns="http://www.w3.org/2000/svg" xmlns:xlink="http://www.w3.org/1999/xlink">
<g id="graph0" class="graph" transform="scale(1 1) rotate(0) translate(4 210)">
<title>scram::core::zbdd::CutSetContainer::Merge</title>
<polygon fill="white" stroke="none" points="-4,4 -4,-210 293,-210 293,4 -4,4"/>
<!-- Node1 -->
<g id="node1" class="node"><title>Node1</title>
<polygon fill="#bfbfbf" stroke="black" points="0,-82.5 0,-112.5 122,-112.5 122,-82.5 0,-82.5"/>
<text text-anchor="start" x="8" y="-100.5" font-family="Helvetica,sans-Serif" font-size="10.00">scram::core::zbdd::</text>
<text text-anchor="middle" x="61" y="-89.5" font-family="Helvetica,sans-Serif" font-size="10.00">CutSetContainer::Merge</text>
</g>
<!-- Node2 -->
<g id="node2" class="node"><title>Node2</title>
<g id="a_node2"><a xlink:href="classscram_1_1core_1_1Zbdd.xhtml#a7c1129acd9810b5b9ff4952f587ce490" target="_top" xlink:title="Clears all memoization tables. ">
<polygon fill="white" stroke="black" points="172.5,-175.5 172.5,-205.5 274.5,-205.5 274.5,-175.5 172.5,-175.5"/>
<text text-anchor="start" x="180.5" y="-193.5" font-family="Helvetica,sans-Serif" font-size="10.00">scram::core::Zbdd::</text>
<text text-anchor="middle" x="223.5" y="-182.5" font-family="Helvetica,sans-Serif" font-size="10.00">ClearTables</text>
</a>
</g>
</g>
<!-- Node1&#45;&gt;Node2 -->
<g id="edge1" class="edge"><title>Node1&#45;&gt;Node2</title>
<path fill="none" stroke="midnightblue" d="M79.8012,-112.532C98.3865,-127.673 128.838,-150.956 158,-166.5 161.249,-168.232 164.65,-169.894 168.12,-171.479"/>
<polygon fill="midnightblue" stroke="midnightblue" points="166.839,-174.738 177.407,-175.487 169.612,-168.311 166.839,-174.738"/>
</g>
<!-- Node3 -->
<g id="node3" class="node"><title>Node3</title>
<g id="a_node3"><a xlink:href="classscram_1_1core_1_1Settings.xhtml#a0e43ec0f017d23a4fa4e376c4060d380" target="_top" xlink:title="scram::core::Settings\l::limit_order">
<polygon fill="white" stroke="black" points="168.5,-126.5 168.5,-156.5 278.5,-156.5 278.5,-126.5 168.5,-126.5"/>
<text text-anchor="start" x="176.5" y="-144.5" font-family="Helvetica,sans-Serif" font-size="10.00">scram::core::Settings</text>
<text text-anchor="middle" x="223.5" y="-133.5" font-family="Helvetica,sans-Serif" font-size="10.00">::limit_order</text>
</a>
</g>
</g>
<!-- Node1&#45;&gt;Node3 -->
<g id="edge2" class="edge"><title>Node1&#45;&gt;Node3</title>
<path fill="none" stroke="midnightblue" d="M116.786,-112.519C130.159,-116.185 144.584,-120.14 158.35,-123.914"/>
<polygon fill="midnightblue" stroke="midnightblue" points="157.663,-127.355 168.233,-126.623 159.514,-120.604 157.663,-127.355"/>
</g>
<!-- Node4 -->
<g id="node4" class="node"><title>Node4</title>
<g id="a_node4"><a xlink:href="classscram_1_1core_1_1SetNode.xhtml#adfcfad8dde1eb94ed51d8075a5ad6344" target="_top" xlink:title="&lt; For destructive extraction of products. ">
<polygon fill="white" stroke="black" points="158,-88 158,-107 289,-107 289,-88 158,-88"/>
<text text-anchor="middle" x="223.5" y="-95" font-family="Helvetica,sans-Serif" font-size="10.00">scram::core::SetNode::Ptr</text>
</a>
</g>
</g>
<!-- Node1&#45;&gt;Node4 -->
<g id="edge3" class="edge"><title>Node1&#45;&gt;Node4</title>
<path fill="none" stroke="midnightblue" d="M122.221,-97.5C130.596,-97.5 139.282,-97.5 147.882,-97.5"/>
<polygon fill="midnightblue" stroke="midnightblue" points="147.913,-101 157.913,-97.5 147.913,-94.0001 147.913,-101"/>
</g>
<!-- Node5 -->
<g id="node5" class="node"><title>Node5</title>
<g id="a_node5"><a xlink:href="classscram_1_1core_1_1Zbdd.xhtml#aa599878612e128fa09e17d0520280dbe" target="_top" xlink:title="scram::core::Zbdd::root">
<polygon fill="white" stroke="black" points="164,-50 164,-69 283,-69 283,-50 164,-50"/>
<text text-anchor="middle" x="223.5" y="-57" font-family="Helvetica,sans-Serif" font-size="10.00">scram::core::Zbdd::root</text>
</a>
</g>
</g>
<!-- Node1&#45;&gt;Node5 -->
<g id="edge4" class="edge"><title>Node1&#45;&gt;Node5</title>
<path fill="none" stroke="midnightblue" d="M122.221,-83.2421C138.566,-79.3723 156.094,-75.2222 171.852,-71.4914"/>
<polygon fill="midnightblue" stroke="midnightblue" points="172.997,-74.8172 181.921,-69.1074 171.384,-68.0056 172.997,-74.8172"/>
</g>
<!-- Node6 -->
<g id="node6" class="node"><title>Node6</title>
<g id="a_node6"><a xlink:href="classscram_1_1core_1_1Zbdd.xhtml#ab71281cd644eb442dd2d3ee1c5df56c4" target="_top" xlink:title="scram::core::Zbdd::\lsettings">
<polygon fill="white" stroke="black" points="172.5,-0.5 172.5,-30.5 274.5,-30.5 274.5,-0.5 172.5,-0.5"/>
<text text-anchor="start" x="180.5" y="-18.5" font-family="Helvetica,sans-Serif" font-size="10.00">scram::core::Zbdd::</text>
<text text-anchor="middle" x="223.5" y="-7.5" font-family="Helvetica,sans-Serif" font-size="10.00">settings</text>
</a>
</g>
</g>
<!-- Node1&#45;&gt;Node6 -->
<g id="edge5" class="edge"><title>Node1&#45;&gt;Node6</title>
<path fill="none" stroke="midnightblue" d="M85.068,-82.3262C104.148,-70.14 132.204,-53.0499 158,-40.5 162.296,-38.4099 166.815,-36.3657 171.383,-34.4036"/>
<polygon fill="midnightblue" stroke="midnightblue" points="172.881,-37.5714 180.773,-30.5031 170.195,-31.1069 172.881,-37.5714"/>
</g>
</g>
</svg>
