<?xml version="1.0" encoding="UTF-8" standalone="no"?>
<!DOCTYPE svg PUBLIC "-//W3C//DTD SVG 1.1//EN"
 "http://www.w3.org/Graphics/SVG/1.1/DTD/svg11.dtd">
<!-- Generated by graphviz version 2.38.0 (20140413.2041)
 -->
<!-- Title: scram::mef::FaultTree::CollectTopEvents Pages: 1 -->
<svg width="432pt" height="274pt"
 viewBox="0.00 0.00 432.00 273.50" xmlns="http://www.w3.org/2000/svg" xmlns:xlink="http://www.w3.org/1999/xlink">
<g id="graph0" class="graph" transform="scale(1 1) rotate(0) translate(4 269.5)">
<title>scram::mef::FaultTree::CollectTopEvents</title>
<polygon fill="white" stroke="none" points="-4,4 -4,-269.5 428,-269.5 428,4 -4,4"/>
<!-- Node1 -->
<g id="node1" class="node"><title>Node1</title>
<polygon fill="#bfbfbf" stroke="black" points="0,-122.5 0,-152.5 113,-152.5 113,-122.5 0,-122.5"/>
<text text-anchor="start" x="8" y="-140.5" font-family="Helvetica,sans-Serif" font-size="10.00">scram::mef::FaultTree</text>
<text text-anchor="middle" x="56.5" y="-129.5" font-family="Helvetica,sans-Serif" font-size="10.00">::CollectTopEvents</text>
</g>
<!-- Node2 -->
<g id="node2" class="node"><title>Node2</title>
<g id="a_node2"><a xlink:href="classscram_1_1mef_1_1Gate.xhtml#abde84a63a060e2424ab92431634f21d9" target="_top" xlink:title="scram::mef::Gate::formula">
<polygon fill="white" stroke="black" points="149,-246 149,-265 280,-265 280,-246 149,-246"/>
<text text-anchor="middle" x="214.5" y="-253" font-family="Helvetica,sans-Serif" font-size="10.00">scram::mef::Gate::formula</text>
</a>
</g>
</g>
<!-- Node1&#45;&gt;Node2 -->
<g id="edge1" class="edge"><title>Node1&#45;&gt;Node2</title>
<path fill="none" stroke="midnightblue" d="M67.4416,-152.62C82.5131,-174.362 113.209,-214.279 149,-236.5 152.363,-238.588 155.966,-240.456 159.688,-242.126"/>
<polygon fill="midnightblue" stroke="midnightblue" points="158.526,-245.43 169.111,-245.881 161.117,-238.927 158.526,-245.43"/>
</g>
<!-- Node3 -->
<g id="node3" class="node"><title>Node3</title>
<g id="a_node3"><a xlink:href="classscram_1_1mef_1_1Formula.xhtml#af3c5953f817cc202b5009cc4557c7d72" target="_top" xlink:title="scram::mef::Formula\l::formula_args">
<polygon fill="white" stroke="black" points="161,-196.5 161,-226.5 268,-226.5 268,-196.5 161,-196.5"/>
<text text-anchor="start" x="169" y="-214.5" font-family="Helvetica,sans-Serif" font-size="10.00">scram::mef::Formula</text>
<text text-anchor="middle" x="214.5" y="-203.5" font-family="Helvetica,sans-Serif" font-size="10.00">::formula_args</text>
</a>
</g>
</g>
<!-- Node1&#45;&gt;Node3 -->
<g id="edge2" class="edge"><title>Node1&#45;&gt;Node3</title>
<path fill="none" stroke="midnightblue" d="M82.6337,-152.513C100.741,-163.01 125.944,-176.977 149,-187.5 152.852,-189.258 156.873,-190.989 160.943,-192.667"/>
<polygon fill="midnightblue" stroke="midnightblue" points="159.888,-196.014 170.472,-196.474 162.485,-189.514 159.888,-196.014"/>
</g>
<!-- Node4 -->
<g id="node4" class="node"><title>Node4</title>
<g id="a_node4"><a xlink:href="classscram_1_1mef_1_1Formula.xhtml#a053f49daf89fecd37c4af5ac465b122b" target="_top" xlink:title="scram::mef::Formula\l::gate_args">
<polygon fill="white" stroke="black" points="161,-147.5 161,-177.5 268,-177.5 268,-147.5 161,-147.5"/>
<text text-anchor="start" x="169" y="-165.5" font-family="Helvetica,sans-Serif" font-size="10.00">scram::mef::Formula</text>
<text text-anchor="middle" x="214.5" y="-154.5" font-family="Helvetica,sans-Serif" font-size="10.00">::gate_args</text>
</a>
</g>
</g>
<!-- Node1&#45;&gt;Node4 -->
<g id="edge3" class="edge"><title>Node1&#45;&gt;Node4</title>
<path fill="none" stroke="midnightblue" d="M113.379,-146.455C125.468,-148.392 138.331,-150.454 150.667,-152.431"/>
<polygon fill="midnightblue" stroke="midnightblue" points="150.449,-155.94 160.877,-154.067 151.557,-149.028 150.449,-155.94"/>
</g>
<!-- Node5 -->
<g id="node5" class="node"><title>Node5</title>
<g id="a_node5"><a xlink:href="classscram_1_1mef_1_1Component.xhtml#a83d4c556f58ec061175b71895877375b" target="_top" xlink:title="scram::mef::Component\l::gates">
<polygon fill="white" stroke="black" points="153.5,-98.5 153.5,-128.5 275.5,-128.5 275.5,-98.5 153.5,-98.5"/>
<text text-anchor="start" x="161.5" y="-116.5" font-family="Helvetica,sans-Serif" font-size="10.00">scram::mef::Component</text>
<text text-anchor="middle" x="214.5" y="-105.5" font-family="Helvetica,sans-Serif" font-size="10.00">::gates</text>
</a>
</g>
</g>
<!-- Node1&#45;&gt;Node5 -->
<g id="edge4" class="edge"><title>Node1&#45;&gt;Node5</title>
<path fill="none" stroke="midnightblue" d="M113.379,-128.903C123.083,-127.41 133.286,-125.841 143.314,-124.298"/>
<polygon fill="midnightblue" stroke="midnightblue" points="143.908,-127.748 153.26,-122.768 142.844,-120.829 143.908,-127.748"/>
</g>
<!-- Node6 -->
<g id="node6" class="node"><title>Node6</title>
<g id="a_node6"><a xlink:href="classscram_1_1mef_1_1Component.xhtml#a63441da08667fe6826f3ae0c0a5a94fe" target="_top" xlink:title="Recursively traverses components to gather gates relevant to the whole component. ...">
<polygon fill="white" stroke="black" points="153.5,-49.5 153.5,-79.5 275.5,-79.5 275.5,-49.5 153.5,-49.5"/>
<text text-anchor="start" x="161.5" y="-67.5" font-family="Helvetica,sans-Serif" font-size="10.00">scram::mef::Component</text>
<text text-anchor="middle" x="214.5" y="-56.5" font-family="Helvetica,sans-Serif" font-size="10.00">::GatherGates</text>
</a>
</g>
</g>
<!-- Node1&#45;&gt;Node6 -->
<g id="edge5" class="edge"><title>Node1&#45;&gt;Node6</title>
<path fill="none" stroke="midnightblue" d="M84.3252,-122.399C102.353,-112.507 126.789,-99.5913 149,-89.5 153.597,-87.4113 158.425,-85.3342 163.282,-83.3214"/>
<polygon fill="midnightblue" stroke="midnightblue" points="164.654,-86.5421 172.608,-79.5436 162.026,-80.0542 164.654,-86.5421"/>
</g>
<!-- Node8 -->
<g id="node8" class="node"><title>Node8</title>
<g id="a_node8"><a xlink:href="classscram_1_1mef_1_1NodeMark.xhtml#ae433446a44a3ae40ec411b08916ec4ca" target="_top" xlink:title="scram::mef::NodeMark\l::mark">
<polygon fill="white" stroke="black" points="156,-0.5 156,-30.5 273,-30.5 273,-0.5 156,-0.5"/>
<text text-anchor="start" x="164" y="-18.5" font-family="Helvetica,sans-Serif" font-size="10.00">scram::mef::NodeMark</text>
<text text-anchor="middle" x="214.5" y="-7.5" font-family="Helvetica,sans-Serif" font-size="10.00">::mark</text>
</a>
</g>
</g>
<!-- Node1&#45;&gt;Node8 -->
<g id="edge7" class="edge"><title>Node1&#45;&gt;Node8</title>
<path fill="none" stroke="midnightblue" d="M68.2844,-122.378C83.9281,-101.412 114.809,-63.5006 149,-40.5 151.877,-38.5644 154.926,-36.7474 158.071,-35.0469"/>
<polygon fill="midnightblue" stroke="midnightblue" points="159.72,-38.1363 167.127,-30.561 156.612,-31.8637 159.72,-38.1363"/>
</g>
<!-- Node7 -->
<g id="node7" class="node"><title>Node7</title>
<g id="a_node7"><a xlink:href="classscram_1_1mef_1_1Element.xhtml#adb401e2ca84aa98cb60797bec2500a81" target="_top" xlink:title="scram::mef::Element\l::name">
<polygon fill="white" stroke="black" points="316,-49.5 316,-79.5 424,-79.5 424,-49.5 316,-49.5"/>
<text text-anchor="start" x="324" y="-67.5" font-family="Helvetica,sans-Serif" font-size="10.00">scram::mef::Element</text>
<text text-anchor="middle" x="370" y="-56.5" font-family="Helvetica,sans-Serif" font-size="10.00">::name</text>
</a>
</g>
</g>
<!-- Node6&#45;&gt;Node7 -->
<g id="edge6" class="edge"><title>Node6&#45;&gt;Node7</title>
<path fill="none" stroke="midnightblue" d="M275.727,-64.5C285.576,-64.5 295.807,-64.5 305.727,-64.5"/>
<polygon fill="midnightblue" stroke="midnightblue" points="305.924,-68.0001 315.924,-64.5 305.924,-61.0001 305.924,-68.0001"/>
</g>
</g>
</svg>
