<?xml version="1.0" encoding="UTF-8" standalone="no"?>
<!DOCTYPE svg PUBLIC "-//W3C//DTD SVG 1.1//EN"
 "http://www.w3.org/Graphics/SVG/1.1/DTD/svg11.dtd">
<!-- Generated by graphviz version 2.38.0 (20140413.2041)
 -->
<!-- Title: scram::core::NodeParentManager::parents Pages: 1 -->
<svg width="343pt" height="96pt"
 viewBox="0.00 0.00 343.00 95.50" xmlns="http://www.w3.org/2000/svg" xmlns:xlink="http://www.w3.org/1999/xlink">
<g id="graph0" class="graph" transform="scale(1 1) rotate(0) translate(4 91.5)">
<title>scram::core::NodeParentManager::parents</title>
<polygon fill="white" stroke="none" points="-4,4 -4,-91.5 339,-91.5 339,4 -4,4"/>
<!-- Node1 -->
<g id="node1" class="node"><title>Node1</title>
<polygon fill="#bfbfbf" stroke="black" points="0,-17 0,-47 164,-47 164,-17 0,-17"/>
<text text-anchor="start" x="8" y="-35" font-family="Helvetica,sans-Serif" font-size="10.00">scram::core::NodeParentManager</text>
<text text-anchor="middle" x="82" y="-24" font-family="Helvetica,sans-Serif" font-size="10.00">::parents</text>
</g>
<!-- Node2 -->
<g id="node2" class="node"><title>Node2</title>
<g id="a_node2"><a xlink:href="classscram_1_1core_1_1Zbdd.xhtml#ac90d12f0c653c679d22109124fa6344c" target="_top" xlink:title="Find or adds a ZBDD SetNode vertex using information from gates. ">
<polygon fill="white" stroke="black" points="216.5,-39 216.5,-69 318.5,-69 318.5,-39 216.5,-39"/>
<text text-anchor="start" x="224.5" y="-57" font-family="Helvetica,sans-Serif" font-size="10.00">scram::core::Zbdd::</text>
<text text-anchor="middle" x="267.5" y="-46" font-family="Helvetica,sans-Serif" font-size="10.00">FindOrAddVertex</text>
</a>
</g>
</g>
<!-- Node1&#45;&gt;Node2 -->
<g id="edge1" class="edge"><title>Node1&#45;&gt;Node2</title>
<path fill="none" stroke="midnightblue" d="M174.105,-42.9226C188.703,-44.6728 203.323,-46.4257 216.487,-48.0038"/>
<polygon fill="midnightblue" stroke="midnightblue" points="174.365,-39.4289 164.02,-41.7136 173.532,-46.3791 174.365,-39.4289"/>
</g>
<!-- Node3 -->
<g id="node3" class="node"><title>Node3</title>
<g id="a_node3"><a xlink:href="classscram_1_1core_1_1Bdd.xhtml#abb75e2b30e88c46634b4a4b7df90cf8a" target="_top" xlink:title="scram::core::Bdd::products">
<polygon fill="white" stroke="black" points="200,-0.5 200,-19.5 335,-19.5 335,-0.5 200,-0.5"/>
<text text-anchor="middle" x="267.5" y="-7.5" font-family="Helvetica,sans-Serif" font-size="10.00">scram::core::Bdd::products</text>
</a>
</g>
</g>
<!-- Node1&#45;&gt;Node3 -->
<g id="edge3" class="edge"><title>Node1&#45;&gt;Node3</title>
<path fill="none" stroke="midnightblue" d="M174.186,-21.0676C182.865,-20.0271 191.55,-18.9858 199.932,-17.9809"/>
<polygon fill="midnightblue" stroke="midnightblue" points="173.532,-17.6209 164.02,-22.2864 174.365,-24.5711 173.532,-17.6209"/>
</g>
<!-- Node2&#45;&gt;Node2 -->
<g id="edge2" class="edge"><title>Node2&#45;&gt;Node2</title>
<path fill="none" stroke="midnightblue" d="M234.805,-79.4579C238.863,-84.179 249.761,-87.5 267.5,-87.5 296.609,-87.5 307.298,-78.5566 299.566,-69.159"/>
<polygon fill="midnightblue" stroke="midnightblue" points="238.318,-79.3537 235.434,-69.159 231.331,-78.9271 238.318,-79.3537"/>
</g>
</g>
</svg>
