<?xml version="1.0" encoding="UTF-8" standalone="no"?>
<!DOCTYPE svg PUBLIC "-//W3C//DTD SVG 1.1//EN"
 "http://www.w3.org/Graphics/SVG/1.1/DTD/svg11.dtd">
<!-- Generated by graphviz version 2.38.0 (20140413.2041)
 -->
<!-- Title: scram::mef::Element::HasAttribute Pages: 1 -->
<svg width="433pt" height="78pt"
 viewBox="0.00 0.00 433.00 77.50" xmlns="http://www.w3.org/2000/svg" xmlns:xlink="http://www.w3.org/1999/xlink">
<g id="graph0" class="graph" transform="scale(1 1) rotate(0) translate(4 73.5)">
<title>scram::mef::Element::HasAttribute</title>
<polygon fill="white" stroke="none" points="-4,4 -4,-73.5 429,-73.5 429,4 -4,4"/>
<!-- Node1 -->
<g id="node1" class="node"><title>Node1</title>
<polygon fill="#bfbfbf" stroke="black" points="0,-17 0,-47 108,-47 108,-17 0,-17"/>
<text text-anchor="start" x="8" y="-35" font-family="Helvetica,sans-Serif" font-size="10.00">scram::mef::Element</text>
<text text-anchor="middle" x="54" y="-24" font-family="Helvetica,sans-Serif" font-size="10.00">::HasAttribute</text>
</g>
<!-- Node2 -->
<g id="node2" class="node"><title>Node2</title>
<g id="a_node2"><a xlink:href="classscram_1_1mef_1_1Element.xhtml#ad5906432084ef153b708dbe77307d4f9" target="_top" xlink:title="Adds an attribute to the attribute map. ">
<polygon fill="white" stroke="black" points="157,-39 157,-69 265,-69 265,-39 157,-39"/>
<text text-anchor="start" x="165" y="-57" font-family="Helvetica,sans-Serif" font-size="10.00">scram::mef::Element</text>
<text text-anchor="middle" x="211" y="-46" font-family="Helvetica,sans-Serif" font-size="10.00">::AddAttribute</text>
</a>
</g>
</g>
<!-- Node1&#45;&gt;Node2 -->
<g id="edge1" class="edge"><title>Node1&#45;&gt;Node2</title>
<path fill="none" stroke="midnightblue" d="M118.43,-41.0029C131.183,-42.813 144.462,-44.6978 156.822,-46.4522"/>
<polygon fill="midnightblue" stroke="midnightblue" points="118.735,-37.5112 108.342,-39.5712 117.751,-44.4418 118.735,-37.5112"/>
</g>
<!-- Node4 -->
<g id="node4" class="node"><title>Node4</title>
<g id="a_node4"><a xlink:href="classscram_1_1mef_1_1Gate.xhtml#abeb0d7efda63e877e150f54719da1ba8" target="_top" xlink:title="Checks if a gate is initialized correctly. ">
<polygon fill="white" stroke="black" points="144,-0.5 144,-19.5 278,-19.5 278,-0.5 144,-0.5"/>
<text text-anchor="middle" x="211" y="-7.5" font-family="Helvetica,sans-Serif" font-size="10.00">scram::mef::Gate::Validate</text>
</a>
</g>
</g>
<!-- Node1&#45;&gt;Node4 -->
<g id="edge3" class="edge"><title>Node1&#45;&gt;Node4</title>
<path fill="none" stroke="midnightblue" d="M118.459,-22.9929C126.869,-21.7993 135.507,-20.5732 143.959,-19.3736"/>
<polygon fill="midnightblue" stroke="midnightblue" points="117.751,-19.5582 108.342,-24.4288 118.735,-26.4888 117.751,-19.5582"/>
</g>
<!-- Node3 -->
<g id="node3" class="node"><title>Node3</title>
<g id="a_node3"><a xlink:href="classscram_1_1mef_1_1Initializer.xhtml#a8fb6959baa83f7619b3ca9ed8423d40a" target="_top" xlink:title="Reads input files with the structure of analysis constructs. ">
<polygon fill="white" stroke="black" points="314,-17 314,-47 425,-47 425,-17 314,-17"/>
<text text-anchor="start" x="322" y="-35" font-family="Helvetica,sans-Serif" font-size="10.00">scram::mef::Initializer</text>
<text text-anchor="middle" x="369.5" y="-24" font-family="Helvetica,sans-Serif" font-size="10.00">::Initializer</text>
</a>
</g>
</g>
<!-- Node2&#45;&gt;Node3 -->
<g id="edge2" class="edge"><title>Node2&#45;&gt;Node3</title>
<path fill="none" stroke="midnightblue" d="M275.51,-45.0721C288.268,-43.2786 301.57,-41.4087 313.99,-39.6628"/>
<polygon fill="midnightblue" stroke="midnightblue" points="274.836,-41.6323 265.421,-46.4904 275.811,-48.5642 274.836,-41.6323"/>
</g>
<!-- Node4&#45;&gt;Node3 -->
<g id="edge4" class="edge"><title>Node4&#45;&gt;Node3</title>
<path fill="none" stroke="midnightblue" d="M288.415,-20.742C297.004,-21.9494 305.623,-23.161 313.857,-24.3185"/>
<polygon fill="midnightblue" stroke="midnightblue" points="288.76,-17.2562 278.37,-19.33 287.785,-24.1881 288.76,-17.2562"/>
</g>
</g>
</svg>
