<?xml version="1.0" encoding="UTF-8" standalone="no"?>
<!DOCTYPE svg PUBLIC "-//W3C//DTD SVG 1.1//EN"
 "http://www.w3.org/Graphics/SVG/1.1/DTD/svg11.dtd">
<!-- Generated by graphviz version 2.38.0 (20140413.2041)
 -->
<!-- Title: scram::core::Preprocessor::CheckRootGate Pages: 1 -->
<!--zoomable 386 -->
<svg id="main" version="1.1" xmlns="http://www.w3.org/2000/svg" xmlns:xlink="http://www.w3.org/1999/xlink" xml:space="preserve" onload="init(evt)">
<style type="text/css"><![CDATA[
.edge:hover path { stroke: red; }
.edge:hover polygon { stroke: red; fill: red; }
]]></style>
<script type="text/javascript"><![CDATA[
var edges = document.getElementsByTagName('g');
if (edges && edges.length) {
  for (var i=0;i<edges.length;i++) {
    if (edges[i].id.substr(0,4)=='edge') {
      edges[i].setAttribute('class','edge');
    }
  }
}
]]></script>
        <defs>
                <circle id="rim" cx="0" cy="0" r="7"/>
                <circle id="rim2" cx="0" cy="0" r="3.5"/>
                <g id="zoomPlus">
                        <use xlink:href="#rim" fill="#404040">
                                <set attributeName="fill" to="#808080" begin="zoomplus.mouseover" end="zoomplus.mouseout"/>
                        </use>
                        <path d="M-4,0h8M0,-4v8" fill="none" stroke="white" stroke-width="1.5" pointer-events="none"/>
                </g>
                <g id="zoomMin">
                        <use xlink:href="#rim" fill="#404040">
                                <set attributeName="fill" to="#808080" begin="zoomminus.mouseover" end="zoomminus.mouseout"/>
                        </use>
                        <path d="M-4,0h8" fill="none" stroke="white" stroke-width="1.5" pointer-events="none"/>
                </g>
                <g id="dirArrow">
                        <path fill="none" stroke="white" stroke-width="1.5" d="M0,-3.0v7 M-2.5,-0.5L0,-3.0L2.5,-0.5"/>
                </g>
               <g id="resetDef">
                       <use xlink:href="#rim2" fill="#404040">
                               <set attributeName="fill" to="#808080" begin="reset.mouseover" end="reset.mouseout"/>
                       </use>
               </g>
        </defs>

<script type="text/javascript">
var viewWidth = 1440;
var viewHeight = 386;
var sectionId = 'dynsection-13';
</script>
<script xlink:href="svgpan.js"/>
<svg id="graph" class="graph">
<g id="viewport">
<title>scram::core::Preprocessor::CheckRootGate</title>
<polygon fill="white" stroke="none" points="-4,4 -4,-381.531 1436,-381.531 1436,4 -4,4"/>
<!-- Node1 -->
<g id="node1" class="node"><title>Node1</title>
<polygon fill="#bfbfbf" stroke="black" points="0,-175.5 0,-205.5 132,-205.5 132,-175.5 0,-175.5"/>
<text text-anchor="start" x="8" y="-193.5" font-family="Helvetica,sans-Serif" font-size="10.00">scram::core::Preprocessor</text>
<text text-anchor="middle" x="66" y="-182.5" font-family="Helvetica,sans-Serif" font-size="10.00">::CheckRootGate</text>
</g>
<!-- Node2 -->
<g id="node2" class="node"><title>Node2</title>
<g id="a_node2"><a xlink:href="classscram_1_1core_1_1Preprocessor.xhtml#a2b6705e815fa3d02119c405b483766d5" target="_top" xlink:title="Runs the default preprocessing that achieves the graph in a normal form. ">
<polygon fill="white" stroke="black" points="539,-265 539,-284 695,-284 695,-265 539,-265"/>
<text text-anchor="middle" x="617" y="-272" font-family="Helvetica,sans-Serif" font-size="10.00">scram::core::Preprocessor::Run</text>
</a>
</g>
</g>
<!-- Node1&#45;&gt;Node2 -->
<g id="edge1" class="edge"><title>Node1&#45;&gt;Node2</title>
<path fill="none" stroke="midnightblue" d="M74.5477,-215.444C87.1537,-252.125 116.343,-319.309 168,-347.5 319.143,-429.985 538.643,-318.486 599.707,-284.05"/>
<polygon fill="midnightblue" stroke="midnightblue" points="77.7403,-213.948 71.2938,-205.54 71.0901,-216.133 77.7403,-213.948"/>
</g>
<!-- Node8 -->
<g id="node8" class="node"><title>Node8</title>
<g id="a_node8"><a xlink:href="classscram_1_1core_1_1CustomPreprocessor_3_01Bdd_01_4.xhtml#a8cf4307236cd521e39a2c6feb21f3214" target="_top" xlink:title="Performs preprocessing for analyses with Binary Decision Diagrams. ">
<polygon fill="white" stroke="black" points="731,-184.5 731,-214.5 898,-214.5 898,-184.5 731,-184.5"/>
<text text-anchor="start" x="739" y="-202.5" font-family="Helvetica,sans-Serif" font-size="10.00">scram::core::CustomPreprocessor</text>
<text text-anchor="middle" x="814.5" y="-191.5" font-family="Helvetica,sans-Serif" font-size="10.00">&lt; Bdd &gt;::Run</text>
</a>
</g>
</g>
<!-- Node1&#45;&gt;Node8 -->
<g id="edge9" class="edge"><title>Node1&#45;&gt;Node8</title>
<path fill="none" stroke="midnightblue" d="M142.531,-191.411C283.34,-193.108 584.865,-196.744 730.882,-198.504"/>
<polygon fill="midnightblue" stroke="midnightblue" points="142.308,-187.908 132.267,-191.287 142.224,-194.907 142.308,-187.908"/>
</g>
<!-- Node9 -->
<g id="node9" class="node"><title>Node9</title>
<g id="a_node9"><a xlink:href="classscram_1_1core_1_1CustomPreprocessor_3_01Zbdd_01_4.xhtml#a5185075f852c647c7aa4313d23420ee5" target="_top" xlink:title="Performs preprocessing for analyses with Zero&#45;Suppressed Binary Decision Diagrams. ">
<polygon fill="white" stroke="black" points="731,-112.5 731,-142.5 898,-142.5 898,-112.5 731,-112.5"/>
<text text-anchor="start" x="739" y="-130.5" font-family="Helvetica,sans-Serif" font-size="10.00">scram::core::CustomPreprocessor</text>
<text text-anchor="middle" x="814.5" y="-119.5" font-family="Helvetica,sans-Serif" font-size="10.00">&lt; Zbdd &gt;::Run</text>
</a>
</g>
</g>
<!-- Node1&#45;&gt;Node9 -->
<g id="edge10" class="edge"><title>Node1&#45;&gt;Node9</title>
<path fill="none" stroke="midnightblue" d="M89.961,-168.508C109.248,-151.328 138.343,-128.288 168,-115.5 252.14,-79.2173 279.723,-87.5309 371,-79.5 505.516,-67.6648 662.576,-94.3538 748.723,-112.487"/>
<polygon fill="midnightblue" stroke="midnightblue" points="87.3588,-166.144 82.3227,-175.465 92.0725,-171.319 87.3588,-166.144"/>
</g>
<!-- Node10 -->
<g id="node10" class="node"><title>Node10</title>
<g id="a_node10"><a xlink:href="classscram_1_1core_1_1CustomPreprocessor_3_01Mocus_01_4.xhtml#ac9bf09a678efc5e6846aa0c3145fc490" target="_top" xlink:title="Performs processing of a fault tree to simplify the structure to normalized (OR/AND gates only)...">
<polygon fill="white" stroke="black" points="168,-0.5 168,-30.5 335,-30.5 335,-0.5 168,-0.5"/>
<text text-anchor="start" x="176" y="-18.5" font-family="Helvetica,sans-Serif" font-size="10.00">scram::core::CustomPreprocessor</text>
<text text-anchor="middle" x="251.5" y="-7.5" font-family="Helvetica,sans-Serif" font-size="10.00">&lt; Mocus &gt;::Run</text>
</a>
</g>
</g>
<!-- Node1&#45;&gt;Node10 -->
<g id="edge11" class="edge"><title>Node1&#45;&gt;Node10</title>
<path fill="none" stroke="midnightblue" d="M77.9359,-166.411C93.5786,-134.488 125.245,-78.3809 168,-45.5 175.853,-39.4609 185.036,-34.5545 194.369,-30.5949"/>
<polygon fill="midnightblue" stroke="midnightblue" points="74.7517,-164.957 73.6012,-175.489 81.0685,-167.973 74.7517,-164.957"/>
</g>
<!-- Node11 -->
<g id="node11" class="node"><title>Node11</title>
<g id="a_node11"><a xlink:href="classscram_1_1core_1_1Preprocessor.xhtml#a3569bbcd5e863c750cdfa69115399600" target="_top" xlink:title="The final phase that cleans up the graph, and puts the structure of the graph ready for analysis...">
<polygon fill="white" stroke="black" points="371,-88.5 371,-118.5 503,-118.5 503,-88.5 371,-88.5"/>
<text text-anchor="start" x="379" y="-106.5" font-family="Helvetica,sans-Serif" font-size="10.00">scram::core::Preprocessor</text>
<text text-anchor="middle" x="437" y="-95.5" font-family="Helvetica,sans-Serif" font-size="10.00">::RunPhaseFive</text>
</a>
</g>
</g>
<!-- Node1&#45;&gt;Node11 -->
<g id="edge12" class="edge"><title>Node1&#45;&gt;Node11</title>
<path fill="none" stroke="midnightblue" d="M116.274,-171.856C132.586,-166.106 150.933,-160.088 168,-155.5 236.427,-137.105 316.331,-122.461 370.972,-113.46"/>
<polygon fill="midnightblue" stroke="midnightblue" points="114.647,-168.721 106.41,-175.385 117.005,-175.311 114.647,-168.721"/>
</g>
<!-- Node12 -->
<g id="node12" class="node"><title>Node12</title>
<g id="a_node12"><a xlink:href="classscram_1_1core_1_1Preprocessor.xhtml#a5c224938dfba861f061525658bd7b156" target="_top" xlink:title="Propagation of complements. ">
<polygon fill="white" stroke="black" points="371,-137.5 371,-167.5 503,-167.5 503,-137.5 371,-137.5"/>
<text text-anchor="start" x="379" y="-155.5" font-family="Helvetica,sans-Serif" font-size="10.00">scram::core::Preprocessor</text>
<text text-anchor="middle" x="437" y="-144.5" font-family="Helvetica,sans-Serif" font-size="10.00">::RunPhaseFour</text>
</a>
</g>
</g>
<!-- Node1&#45;&gt;Node12 -->
<g id="edge14" class="edge"><title>Node1&#45;&gt;Node12</title>
<path fill="none" stroke="midnightblue" d="M142.268,-179.658C150.937,-178.531 159.656,-177.451 168,-176.5 237.156,-168.615 316.598,-161.779 370.925,-157.441"/>
<polygon fill="midnightblue" stroke="midnightblue" points="141.593,-176.217 132.139,-180.999 142.512,-183.156 141.593,-176.217"/>
</g>
<!-- Node13 -->
<g id="node13" class="node"><title>Node13</title>
<g id="a_node13"><a xlink:href="classscram_1_1core_1_1Preprocessor.xhtml#a44f820b6fe2c23594c818432b33e26a6" target="_top" xlink:title="Container of unique gates by semantics. ">
<polygon fill="white" stroke="black" points="185.5,-307.5 185.5,-337.5 317.5,-337.5 317.5,-307.5 185.5,-307.5"/>
<text text-anchor="start" x="193.5" y="-325.5" font-family="Helvetica,sans-Serif" font-size="10.00">scram::core::Preprocessor</text>
<text text-anchor="middle" x="251.5" y="-314.5" font-family="Helvetica,sans-Serif" font-size="10.00">::RunPhaseOne</text>
</a>
</g>
</g>
<!-- Node1&#45;&gt;Node13 -->
<g id="edge16" class="edge"><title>Node1&#45;&gt;Node13</title>
<path fill="none" stroke="midnightblue" d="M84.6821,-213.569C103.241,-236.395 134.355,-270.956 168,-292.5 177.241,-298.417 187.81,-303.379 198.229,-307.455"/>
<polygon fill="midnightblue" stroke="midnightblue" points="87.4045,-211.369 78.4312,-205.736 81.9331,-215.735 87.4045,-211.369"/>
</g>
<!-- Node14 -->
<g id="node14" class="node"><title>Node14</title>
<g id="a_node14"><a xlink:href="classscram_1_1core_1_1Preprocessor.xhtml#abf2c66723172a85b2ae87ef2a034cd1f" target="_top" xlink:title="Application of gate normalization. ">
<polygon fill="white" stroke="black" points="371,-263.5 371,-293.5 503,-293.5 503,-263.5 371,-263.5"/>
<text text-anchor="start" x="379" y="-281.5" font-family="Helvetica,sans-Serif" font-size="10.00">scram::core::Preprocessor</text>
<text text-anchor="middle" x="437" y="-270.5" font-family="Helvetica,sans-Serif" font-size="10.00">::RunPhaseThree</text>
</a>
</g>
</g>
<!-- Node1&#45;&gt;Node14 -->
<g id="edge18" class="edge"><title>Node1&#45;&gt;Node14</title>
<path fill="none" stroke="midnightblue" d="M90.9976,-212.373C110.281,-228.512 138.87,-249.357 168,-259.5 234.296,-282.583 315.268,-285.093 370.746,-283.24"/>
<polygon fill="midnightblue" stroke="midnightblue" points="93.1959,-209.648 83.3283,-205.79 88.6365,-214.959 93.1959,-209.648"/>
</g>
<!-- Node15 -->
<g id="node15" class="node"><title>Node15</title>
<g id="a_node15"><a xlink:href="classscram_1_1core_1_1Preprocessor.xhtml#a9d5f89471499508eb9e6c01ea43e0f15" target="_top" xlink:title="Preprocessing phase of the original structure of the graph. ">
<polygon fill="white" stroke="black" points="185.5,-219.5 185.5,-249.5 317.5,-249.5 317.5,-219.5 185.5,-219.5"/>
<text text-anchor="start" x="193.5" y="-237.5" font-family="Helvetica,sans-Serif" font-size="10.00">scram::core::Preprocessor</text>
<text text-anchor="middle" x="251.5" y="-226.5" font-family="Helvetica,sans-Serif" font-size="10.00">::RunPhaseTwo</text>
</a>
</g>
</g>
<!-- Node1&#45;&gt;Node15 -->
<g id="edge20" class="edge"><title>Node1&#45;&gt;Node15</title>
<path fill="none" stroke="midnightblue" d="M139.47,-207.877C155.461,-211.711 172.27,-215.742 187.834,-219.474"/>
<polygon fill="midnightblue" stroke="midnightblue" points="140.178,-204.448 129.637,-205.519 138.545,-211.255 140.178,-204.448"/>
</g>
<!-- Node3 -->
<g id="node3" class="node"><title>Node3</title>
<g id="a_node3"><a xlink:href="classscram_1_1core_1_1FaultTreeAnalyzer.xhtml#af6d3e735d4200c3efed0164c58aabf57" target="_top" xlink:title="Runs fault tree analysis with the given algorithm. ">
<polygon fill="white" stroke="black" points="737.5,-299.5 737.5,-329.5 891.5,-329.5 891.5,-299.5 737.5,-299.5"/>
<text text-anchor="start" x="745.5" y="-317.5" font-family="Helvetica,sans-Serif" font-size="10.00">scram::core::FaultTreeAnalyzer</text>
<text text-anchor="middle" x="814.5" y="-306.5" font-family="Helvetica,sans-Serif" font-size="10.00">::Analyze</text>
</a>
</g>
</g>
<!-- Node2&#45;&gt;Node3 -->
<g id="edge2" class="edge"><title>Node2&#45;&gt;Node3</title>
<path fill="none" stroke="midnightblue" d="M674.865,-286.135C695.198,-290.295 718.41,-295.044 739.95,-299.451"/>
<polygon fill="midnightblue" stroke="midnightblue" points="675.326,-282.657 664.827,-284.081 673.923,-289.515 675.326,-282.657"/>
</g>
<!-- Node7 -->
<g id="node7" class="node"><title>Node7</title>
<g id="a_node7"><a xlink:href="classscram_1_1core_1_1ProbabilityAnalyzer_3_01Bdd_01_4.xhtml#a517506c181102100cc6a3e96710813c6" target="_top" xlink:title="Calculates the total probability with a different set of probability values than the one given upon c...">
<polygon fill="white" stroke="black" points="735,-240 735,-281 894,-281 894,-240 735,-240"/>
<text text-anchor="start" x="743" y="-269" font-family="Helvetica,sans-Serif" font-size="10.00">scram::core::Probability</text>
<text text-anchor="start" x="743" y="-258" font-family="Helvetica,sans-Serif" font-size="10.00">Analyzer&lt; Bdd &gt;::CalculateTotal</text>
<text text-anchor="middle" x="814.5" y="-247" font-family="Helvetica,sans-Serif" font-size="10.00">Probability</text>
</a>
</g>
</g>
<!-- Node2&#45;&gt;Node7 -->
<g id="edge6" class="edge"><title>Node2&#45;&gt;Node7</title>
<path fill="none" stroke="midnightblue" d="M705.422,-268.24C715.232,-267.537 725.182,-266.825 734.872,-266.131"/>
<polygon fill="midnightblue" stroke="midnightblue" points="704.991,-264.761 695.267,-268.967 705.491,-271.744 704.991,-264.761"/>
</g>
<!-- Node2&#45;&gt;Node8 -->
<g id="edge7" class="edge"><title>Node2&#45;&gt;Node8</title>
<path fill="none" stroke="midnightblue" d="M651.637,-261.282C674.087,-252.49 704.28,-240.722 731,-230.5 744.719,-225.252 759.75,-219.58 773.181,-214.541"/>
<polygon fill="midnightblue" stroke="midnightblue" points="650.248,-258.067 642.215,-264.975 652.803,-264.584 650.248,-258.067"/>
</g>
<!-- Node2&#45;&gt;Node9 -->
<g id="edge8" class="edge"><title>Node2&#45;&gt;Node9</title>
<path fill="none" stroke="midnightblue" d="M635.071,-257.664C656.47,-237.015 694.755,-201.551 731,-175.5 747.954,-163.314 768.205,-151.496 784.399,-142.635"/>
<polygon fill="midnightblue" stroke="midnightblue" points="632.462,-255.319 627.736,-264.802 637.343,-260.336 632.462,-255.319"/>
</g>
<!-- Node4 -->
<g id="node4" class="node"><title>Node4</title>
<g id="a_node4"><a xlink:href="classscram_1_1core_1_1RiskAnalysis.xhtml#a7aed757ac5a7a96878c2706a7a9710bb" target="_top" xlink:title="Analyzes the model and performs computations specified in the settings. ">
<polygon fill="white" stroke="black" points="934,-299.5 934,-329.5 1066,-329.5 1066,-299.5 934,-299.5"/>
<text text-anchor="start" x="942" y="-317.5" font-family="Helvetica,sans-Serif" font-size="10.00">scram::core::RiskAnalysis</text>
<text text-anchor="middle" x="1000" y="-306.5" font-family="Helvetica,sans-Serif" font-size="10.00">::Analyze</text>
</a>
</g>
</g>
<!-- Node3&#45;&gt;Node4 -->
<g id="edge3" class="edge"><title>Node3&#45;&gt;Node4</title>
<path fill="none" stroke="midnightblue" d="M901.954,-314.5C912.672,-314.5 923.486,-314.5 933.81,-314.5"/>
<polygon fill="midnightblue" stroke="midnightblue" points="901.726,-311 891.726,-314.5 901.726,-318 901.726,-311"/>
</g>
<!-- Node5 -->
<g id="node5" class="node"><title>Node5</title>
<g id="a_node5"><a xlink:href="classscram_1_1core_1_1RiskAnalysis.xhtml#a337f7e9fe02b1581e872590d6f7baa01" target="_top" xlink:title="scram::core::RiskAnalysis\l::model">
<polygon fill="white" stroke="black" points="1102,-299.5 1102,-329.5 1234,-329.5 1234,-299.5 1102,-299.5"/>
<text text-anchor="start" x="1110" y="-317.5" font-family="Helvetica,sans-Serif" font-size="10.00">scram::core::RiskAnalysis</text>
<text text-anchor="middle" x="1168" y="-306.5" font-family="Helvetica,sans-Serif" font-size="10.00">::model</text>
</a>
</g>
</g>
<!-- Node4&#45;&gt;Node5 -->
<g id="edge4" class="edge"><title>Node4&#45;&gt;Node5</title>
<path fill="none" stroke="midnightblue" d="M1076.39,-314.5C1084.87,-314.5 1093.45,-314.5 1101.78,-314.5"/>
<polygon fill="midnightblue" stroke="midnightblue" points="1076.13,-311 1066.13,-314.5 1076.13,-318 1076.13,-311"/>
</g>
<!-- Node6 -->
<g id="node6" class="node"><title>Node6</title>
<g id="a_node6"><a xlink:href="reporter_8cc.xhtml#ad6460094a94fb73e56c2a4a5efc598ed" target="_top" xlink:title="Describes all performed analyses deduced from settings. ">
<polygon fill="white" stroke="black" points="1270,-299.5 1270,-329.5 1432,-329.5 1432,-299.5 1270,-299.5"/>
<text text-anchor="start" x="1278" y="-317.5" font-family="Helvetica,sans-Serif" font-size="10.00">scram::ReportCalculatedQuantity</text>
<text text-anchor="middle" x="1351" y="-306.5" font-family="Helvetica,sans-Serif" font-size="10.00">&lt; core::RiskAnalysis &gt;</text>
</a>
</g>
</g>
<!-- Node5&#45;&gt;Node6 -->
<g id="edge5" class="edge"><title>Node5&#45;&gt;Node6</title>
<path fill="none" stroke="midnightblue" d="M1244.24,-314.5C1252.65,-314.5 1261.24,-314.5 1269.71,-314.5"/>
<polygon fill="midnightblue" stroke="midnightblue" points="1244.09,-311 1234.09,-314.5 1244.09,-318 1244.09,-311"/>
</g>
<!-- Node11&#45;&gt;Node9 -->
<g id="edge13" class="edge"><title>Node11&#45;&gt;Node9</title>
<path fill="none" stroke="midnightblue" d="M513.66,-108.336C576.581,-112.357 665.998,-118.072 730.797,-122.214"/>
<polygon fill="midnightblue" stroke="midnightblue" points="513.61,-104.826 503.407,-107.68 513.163,-111.811 513.61,-104.826"/>
</g>
<!-- Node12&#45;&gt;Node9 -->
<g id="edge15" class="edge"><title>Node12&#45;&gt;Node9</title>
<path fill="none" stroke="midnightblue" d="M513.66,-147.463C576.581,-143.274 665.998,-137.32 730.797,-133.006"/>
<polygon fill="midnightblue" stroke="midnightblue" points="513.152,-143.989 503.407,-148.145 513.618,-150.973 513.152,-143.989"/>
</g>
<!-- Node13&#45;&gt;Node2 -->
<g id="edge17" class="edge"><title>Node13&#45;&gt;Node2</title>
<path fill="none" stroke="midnightblue" d="M327.826,-320.234C377.776,-317.887 444.624,-313.128 503,-303.5 530.977,-298.886 562.15,-290.645 584.655,-284.125"/>
<polygon fill="midnightblue" stroke="midnightblue" points="327.585,-316.742 317.751,-320.686 327.898,-323.735 327.585,-316.742"/>
</g>
<!-- Node14&#45;&gt;Node2 -->
<g id="edge19" class="edge"><title>Node14&#45;&gt;Node2</title>
<path fill="none" stroke="midnightblue" d="M513.221,-276.81C521.672,-276.62 530.292,-276.426 538.768,-276.236"/>
<polygon fill="midnightblue" stroke="midnightblue" points="512.936,-273.315 503.018,-277.039 513.094,-280.313 512.936,-273.315"/>
</g>
<!-- Node15&#45;&gt;Node2 -->
<g id="edge21" class="edge"><title>Node15&#45;&gt;Node2</title>
<path fill="none" stroke="midnightblue" d="M327.609,-238.618C377.468,-241.813 444.297,-246.979 503,-254.5 524.441,-257.247 548.006,-261.258 568.042,-264.968"/>
<polygon fill="midnightblue" stroke="midnightblue" points="327.754,-235.12 317.554,-237.985 327.315,-242.106 327.754,-235.12"/>
</g>
<!-- Node15&#45;&gt;Node11 -->
<g id="edge22" class="edge"><title>Node15&#45;&gt;Node11</title>
<path fill="none" stroke="midnightblue" d="M273.01,-211.819C295.24,-188.346 332.697,-151.903 371,-128.5 377.087,-124.781 383.821,-121.448 390.58,-118.521"/>
<polygon fill="midnightblue" stroke="midnightblue" points="270.343,-209.547 266.076,-219.244 275.459,-214.324 270.343,-209.547"/>
</g>
<!-- Node15&#45;&gt;Node12 -->
<g id="edge23" class="edge"><title>Node15&#45;&gt;Node12</title>
<path fill="none" stroke="midnightblue" d="M295.441,-215.311C328.018,-200.754 372.176,-181.021 402.246,-167.583"/>
<polygon fill="midnightblue" stroke="midnightblue" points="293.859,-212.185 286.157,-219.46 296.715,-218.576 293.859,-212.185"/>
</g>
<!-- Node15&#45;&gt;Node14 -->
<g id="edge24" class="edge"><title>Node15&#45;&gt;Node14</title>
<path fill="none" stroke="midnightblue" d="M324.97,-251.877C340.961,-255.711 357.77,-259.742 373.334,-263.474"/>
<polygon fill="midnightblue" stroke="midnightblue" points="325.678,-248.448 315.137,-249.519 324.045,-255.255 325.678,-248.448"/>
</g>
</g>
</svg>
        <g id="navigator" transform="translate(0 0)" fill="#404254">
                <rect fill="#f2f5e9" fill-opacity="0.5" stroke="#606060" stroke-width=".5" x="0" y="0" width="60" height="60"/>
                <use id="zoomplus" xlink:href="#zoomPlus" x="17" y="9" onmousedown="handleZoom(evt,'in')"/>
                <use id="zoomminus" xlink:href="#zoomMin" x="42" y="9" onmousedown="handleZoom(evt,'out')"/>
                <use id="reset" xlink:href="#resetDef" x="30" y="36" onmousedown="handleReset()"/>
                <g id="arrowUp" xlink:href="#dirArrow" transform="translate(30 24)" onmousedown="handlePan(0,-1)">
                  <use xlink:href="#rim" fill="#404040">
                        <set attributeName="fill" to="#808080" begin="arrowUp.mouseover" end="arrowUp.mouseout"/>
                  </use>
                  <path fill="none" stroke="white" stroke-width="1.5" d="M0,-3.0v7 M-2.5,-0.5L0,-3.0L2.5,-0.5"/>
                </g>
                <g id="arrowRight" xlink:href="#dirArrow" transform="rotate(90) translate(36 -43)" onmousedown="handlePan(1,0)">
                  <use xlink:href="#rim" fill="#404040">
                        <set attributeName="fill" to="#808080" begin="arrowRight.mouseover" end="arrowRight.mouseout"/>
                  </use>
                  <path fill="none" stroke="white" stroke-width="1.5" d="M0,-3.0v7 M-2.5,-0.5L0,-3.0L2.5,-0.5"/>
                </g>
                <g id="arrowDown" xlink:href="#dirArrow" transform="rotate(180) translate(-30 -48)" onmousedown="handlePan(0,1)">
                  <use xlink:href="#rim" fill="#404040">
                        <set attributeName="fill" to="#808080" begin="arrowDown.mouseover" end="arrowDown.mouseout"/>
                  </use>
                  <path fill="none" stroke="white" stroke-width="1.5" d="M0,-3.0v7 M-2.5,-0.5L0,-3.0L2.5,-0.5"/>
                </g>
                <g id="arrowLeft" xlink:href="#dirArrow" transform="rotate(270) translate(-36 17)" onmousedown="handlePan(-1,0)">
                  <use xlink:href="#rim" fill="#404040">
                        <set attributeName="fill" to="#808080" begin="arrowLeft.mouseover" end="arrowLeft.mouseout"/>
                  </use>
                  <path fill="none" stroke="white" stroke-width="1.5" d="M0,-3.0v7 M-2.5,-0.5L0,-3.0L2.5,-0.5"/>
                </g>
        </g>
        <svg viewBox="0 0 15 15" width="100%" height="30px" preserveAspectRatio="xMaxYMin meet">
         <g id="arrow_out" transform="scale(0.3 0.3)">
          <a xlink:href="classscram_1_1core_1_1Preprocessor_a3f1b4becb281bc02b61e8f72595a0666_icgraph_org.svg" target="_base">
           <rect id="button" ry="5" rx="5" y="6" x="6" height="38" width="38"
                fill="#f2f5e9" fill-opacity="0.5" stroke="#606060" stroke-width="1.0"/>
           <path id="arrow"
             d="M 11.500037,31.436501 C 11.940474,20.09759 22.043105,11.32322 32.158766,21.979434 L 37.068811,17.246167 C 37.068811,17.246167 37.088388,32 37.088388,32 L 22.160133,31.978069 C 22.160133,31.978069 26.997745,27.140456 26.997745,27.140456 C 18.528582,18.264221 13.291696,25.230495 11.500037,31.436501 z"
             style="fill:#404040;"/>
          </a>
         </g>
        </svg>
</svg>
