<?xml version="1.0" encoding="UTF-8" standalone="no"?>
<!DOCTYPE svg PUBLIC "-//W3C//DTD SVG 1.1//EN"
 "http://www.w3.org/Graphics/SVG/1.1/DTD/svg11.dtd">
<!-- Generated by graphviz version 2.38.0 (20140413.2041)
 -->
<!-- Title: scram::core::Zbdd::Zbdd Pages: 1 -->
<!--zoomable 825 -->
<svg id="main" version="1.1" xmlns="http://www.w3.org/2000/svg" xmlns:xlink="http://www.w3.org/1999/xlink" xml:space="preserve" onload="init(evt)">
<style type="text/css"><![CDATA[
.edge:hover path { stroke: red; }
.edge:hover polygon { stroke: red; fill: red; }
]]></style>
<script type="text/javascript"><![CDATA[
var edges = document.getElementsByTagName('g');
if (edges && edges.length) {
  for (var i=0;i<edges.length;i++) {
    if (edges[i].id.substr(0,4)=='edge') {
      edges[i].setAttribute('class','edge');
    }
  }
}
]]></script>
        <defs>
                <circle id="rim" cx="0" cy="0" r="7"/>
                <circle id="rim2" cx="0" cy="0" r="3.5"/>
                <g id="zoomPlus">
                        <use xlink:href="#rim" fill="#404040">
                                <set attributeName="fill" to="#808080" begin="zoomplus.mouseover" end="zoomplus.mouseout"/>
                        </use>
                        <path d="M-4,0h8M0,-4v8" fill="none" stroke="white" stroke-width="1.5" pointer-events="none"/>
                </g>
                <g id="zoomMin">
                        <use xlink:href="#rim" fill="#404040">
                                <set attributeName="fill" to="#808080" begin="zoomminus.mouseover" end="zoomminus.mouseout"/>
                        </use>
                        <path d="M-4,0h8" fill="none" stroke="white" stroke-width="1.5" pointer-events="none"/>
                </g>
                <g id="dirArrow">
                        <path fill="none" stroke="white" stroke-width="1.5" d="M0,-3.0v7 M-2.5,-0.5L0,-3.0L2.5,-0.5"/>
                </g>
               <g id="resetDef">
                       <use xlink:href="#rim2" fill="#404040">
                               <set attributeName="fill" to="#808080" begin="reset.mouseover" end="reset.mouseout"/>
                       </use>
               </g>
        </defs>

<script type="text/javascript">
var viewWidth = 785;
var viewHeight = 825;
var sectionId = 'dynsection-3';
</script>
<script xlink:href="svgpan.js"/>
<svg id="graph" class="graph">
<g id="viewport">
<title>scram::core::Zbdd::Zbdd</title>
<polygon fill="white" stroke="none" points="-4,4 -4,-821 781,-821 781,4 -4,4"/>
<!-- Node1 -->
<g id="node1" class="node"><title>Node1</title>
<polygon fill="#bfbfbf" stroke="black" points="0,-398 0,-417 124,-417 124,-398 0,-398"/>
<text text-anchor="middle" x="62" y="-405" font-family="Helvetica,sans-Serif" font-size="10.00">scram::core::Zbdd::Zbdd</text>
</g>
<!-- Node2 -->
<g id="node2" class="node"><title>Node2</title>
<g id="a_node2"><a xlink:href="classscram_1_1core_1_1Gate.xhtml#a0d070ec20569129162398c73165f65bc" target="_top" xlink:title="scram::core::Gate::\lcoherent">
<polygon fill="white" stroke="black" points="176.5,-786.5 176.5,-816.5 277.5,-816.5 277.5,-786.5 176.5,-786.5"/>
<text text-anchor="start" x="184.5" y="-804.5" font-family="Helvetica,sans-Serif" font-size="10.00">scram::core::Gate::</text>
<text text-anchor="middle" x="227" y="-793.5" font-family="Helvetica,sans-Serif" font-size="10.00">coherent</text>
</a>
</g>
</g>
<!-- Node1&#45;&gt;Node2 -->
<g id="edge1" class="edge"><title>Node1&#45;&gt;Node2</title>
<path fill="none" stroke="midnightblue" d="M62.7411,-417.279C62.0487,-463.114 64.9451,-659.172 160,-771.5 162.961,-774.999 166.416,-778.11 170.164,-780.872"/>
<polygon fill="midnightblue" stroke="midnightblue" points="168.45,-783.931 178.758,-786.378 172.225,-778.037 168.45,-783.931"/>
</g>
<!-- Node3 -->
<g id="node3" class="node"><title>Node3</title>
<g id="a_node3"><a xlink:href="classscram_1_1core_1_1Zbdd.xhtml#ac3ac27090b550d973b20bd971c3de9f9" target="_top" xlink:title="Removes complements of variables from products. ">
<polygon fill="white" stroke="black" points="168,-529.5 168,-559.5 286,-559.5 286,-529.5 168,-529.5"/>
<text text-anchor="start" x="176" y="-547.5" font-family="Helvetica,sans-Serif" font-size="10.00">scram::core::Zbdd::</text>
<text text-anchor="middle" x="227" y="-536.5" font-family="Helvetica,sans-Serif" font-size="10.00">EliminateComplements</text>
</a>
</g>
</g>
<!-- Node1&#45;&gt;Node3 -->
<g id="edge2" class="edge"><title>Node1&#45;&gt;Node3</title>
<path fill="none" stroke="midnightblue" d="M69.7243,-417.29C84.1684,-437.714 120.102,-485.379 160,-514.5 165.137,-518.25 170.818,-521.688 176.627,-524.791"/>
<polygon fill="midnightblue" stroke="midnightblue" points="175.295,-528.038 185.803,-529.39 178.431,-521.78 175.295,-528.038"/>
</g>
<!-- Node4 -->
<g id="node4" class="node"><title>Node4</title>
<g id="a_node4"><a xlink:href="classscram_1_1core_1_1SetNode.xhtml#adfcfad8dde1eb94ed51d8075a5ad6344" target="_top" xlink:title="&lt; For destructive extraction of products. ">
<polygon fill="white" stroke="black" points="646,-546 646,-565 777,-565 777,-546 646,-546"/>
<text text-anchor="middle" x="711.5" y="-553" font-family="Helvetica,sans-Serif" font-size="10.00">scram::core::SetNode::Ptr</text>
</a>
</g>
</g>
<!-- Node1&#45;&gt;Node4 -->
<g id="edge43" class="edge"><title>Node1&#45;&gt;Node4</title>
<path fill="none" stroke="midnightblue" d="M62.7927,-417.1C62.4652,-458.771 67.1776,-625.254 160,-700.5 315.364,-826.445 438.492,-802.384 610,-699.5 658.855,-670.193 689.937,-606.939 703.161,-574.917"/>
<polygon fill="midnightblue" stroke="midnightblue" points="706.523,-575.934 706.961,-565.349 700.017,-573.351 706.523,-575.934"/>
</g>
<!-- Node5 -->
<g id="node5" class="node"><title>Node5</title>
<g id="a_node5"><a xlink:href="classscram_1_1core_1_1Settings.xhtml#a0e43ec0f017d23a4fa4e376c4060d380" target="_top" xlink:title="scram::core::Settings\l::limit_order">
<polygon fill="white" stroke="black" points="331.5,-485.5 331.5,-515.5 441.5,-515.5 441.5,-485.5 331.5,-485.5"/>
<text text-anchor="start" x="339.5" y="-503.5" font-family="Helvetica,sans-Serif" font-size="10.00">scram::core::Settings</text>
<text text-anchor="middle" x="386.5" y="-492.5" font-family="Helvetica,sans-Serif" font-size="10.00">::limit_order</text>
</a>
</g>
</g>
<!-- Node1&#45;&gt;Node5 -->
<g id="edge37" class="edge"><title>Node1&#45;&gt;Node5</title>
<path fill="none" stroke="midnightblue" d="M71.7788,-417.095C87.5767,-433.63 122.646,-467.103 160,-481.5 211.634,-501.401 274.711,-505.155 321.01,-504.505"/>
<polygon fill="midnightblue" stroke="midnightblue" points="321.292,-508 331.215,-504.287 321.142,-501.002 321.292,-508"/>
</g>
<!-- Node6 -->
<g id="node6" class="node"><title>Node6</title>
<g id="a_node6"><a xlink:href="classscram_1_1core_1_1Zbdd.xhtml#a3dbb8ef5da2882daf6c39e9724eae459" target="_top" xlink:title="Removes subsets in ZBDD. ">
<polygon fill="white" stroke="black" points="335.5,-534.5 335.5,-564.5 437.5,-564.5 437.5,-534.5 335.5,-534.5"/>
<text text-anchor="start" x="343.5" y="-552.5" font-family="Helvetica,sans-Serif" font-size="10.00">scram::core::Zbdd::</text>
<text text-anchor="middle" x="386.5" y="-541.5" font-family="Helvetica,sans-Serif" font-size="10.00">Minimize</text>
</a>
</g>
</g>
<!-- Node1&#45;&gt;Node6 -->
<g id="edge39" class="edge"><title>Node1&#45;&gt;Node6</title>
<path fill="none" stroke="midnightblue" d="M65.2533,-417.175C72.6951,-446.622 99.5399,-535.232 160,-569.5 215.821,-601.139 292.151,-584.291 340.132,-567.932"/>
<polygon fill="midnightblue" stroke="midnightblue" points="341.368,-571.207 349.629,-564.573 339.034,-564.607 341.368,-571.207"/>
</g>
<!-- Node11 -->
<g id="node11" class="node"><title>Node11</title>
<g id="a_node11"><a xlink:href="classscram_1_1core_1_1Settings.xhtml#ae64f362fceb44402e101140dfc1725ba" target="_top" xlink:title="scram::core::Settings\l::prime_implicants">
<polygon fill="white" stroke="black" points="489.5,-622.5 489.5,-652.5 599.5,-652.5 599.5,-622.5 489.5,-622.5"/>
<text text-anchor="start" x="497.5" y="-640.5" font-family="Helvetica,sans-Serif" font-size="10.00">scram::core::Settings</text>
<text text-anchor="middle" x="544.5" y="-629.5" font-family="Helvetica,sans-Serif" font-size="10.00">::prime_implicants</text>
</a>
</g>
</g>
<!-- Node1&#45;&gt;Node11 -->
<g id="edge42" class="edge"><title>Node1&#45;&gt;Node11</title>
<path fill="none" stroke="midnightblue" d="M64.8346,-417.196C71.3252,-448.552 96.329,-547.705 160,-591.5 255.767,-657.372 397.666,-655.13 479.32,-646.813"/>
<polygon fill="midnightblue" stroke="midnightblue" points="479.892,-650.272 489.458,-645.718 479.14,-643.313 479.892,-650.272"/>
</g>
<!-- Node12 -->
<g id="node12" class="node"><title>Node12</title>
<g id="a_node12"><a xlink:href="classscram_1_1core_1_1Zbdd.xhtml#aeb83fd37f2aee74ac41e6ccadba82d39" target="_top" xlink:title="Removes constant modules from products. ">
<polygon fill="white" stroke="black" points="160,-441.5 160,-471.5 294,-471.5 294,-441.5 160,-441.5"/>
<text text-anchor="start" x="168" y="-459.5" font-family="Helvetica,sans-Serif" font-size="10.00">scram::core::Zbdd::</text>
<text text-anchor="middle" x="227" y="-448.5" font-family="Helvetica,sans-Serif" font-size="10.00">EliminateConstantModules</text>
</a>
</g>
</g>
<!-- Node1&#45;&gt;Node12 -->
<g id="edge13" class="edge"><title>Node1&#45;&gt;Node12</title>
<path fill="none" stroke="midnightblue" d="M94.815,-417.064C115.091,-423.159 142.001,-431.249 166.17,-438.514"/>
<polygon fill="midnightblue" stroke="midnightblue" points="165.395,-441.936 175.979,-441.463 167.41,-435.232 165.395,-441.936"/>
</g>
<!-- Node13 -->
<g id="node13" class="node"><title>Node13</title>
<g id="a_node13"><a xlink:href="classscram_1_1core_1_1Zbdd.xhtml#a516f0d2f35ad213399f83fb9ab102561" target="_top" xlink:title="Traverses ZBDD to find modules and adjusted cut&#45;offs. ">
<polygon fill="white" stroke="black" points="176,-392.5 176,-422.5 278,-422.5 278,-392.5 176,-392.5"/>
<text text-anchor="start" x="184" y="-410.5" font-family="Helvetica,sans-Serif" font-size="10.00">scram::core::Zbdd::</text>
<text text-anchor="middle" x="227" y="-399.5" font-family="Helvetica,sans-Serif" font-size="10.00">GatherModules</text>
</a>
</g>
</g>
<!-- Node1&#45;&gt;Node13 -->
<g id="edge18" class="edge"><title>Node1&#45;&gt;Node13</title>
<path fill="none" stroke="midnightblue" d="M124.159,-407.5C137.764,-407.5 152.178,-407.5 165.746,-407.5"/>
<polygon fill="midnightblue" stroke="midnightblue" points="165.931,-411 175.93,-407.5 165.93,-404 165.931,-411"/>
</g>
<!-- Node22 -->
<g id="node22" class="node"><title>Node22</title>
<g id="a_node22"><a xlink:href="classscram_1_1core_1_1Node.xhtml#a62121e217b0da73112af7e07275f2c15" target="_top" xlink:title="scram::core::Node::\lindex">
<polygon fill="white" stroke="black" points="175,-343.5 175,-373.5 279,-373.5 279,-343.5 175,-343.5"/>
<text text-anchor="start" x="183" y="-361.5" font-family="Helvetica,sans-Serif" font-size="10.00">scram::core::Node::</text>
<text text-anchor="middle" x="227" y="-350.5" font-family="Helvetica,sans-Serif" font-size="10.00">index</text>
</a>
</g>
</g>
<!-- Node1&#45;&gt;Node22 -->
<g id="edge32" class="edge"><title>Node1&#45;&gt;Node22</title>
<path fill="none" stroke="midnightblue" d="M94.815,-397.936C115.091,-391.841 142.001,-383.751 166.17,-376.486"/>
<polygon fill="midnightblue" stroke="midnightblue" points="167.41,-379.768 175.979,-373.537 165.395,-373.064 167.41,-379.768"/>
</g>
<!-- Node23 -->
<g id="node23" class="node"><title>Node23</title>
<g id="a_node23"><a xlink:href="classscram_1_1core_1_1Gate.xhtml#aeaaa462ccbdef3cb95d70d966ce1740a" target="_top" xlink:title="scram::core::Gate::\lIsConstant">
<polygon fill="white" stroke="black" points="176.5,-294.5 176.5,-324.5 277.5,-324.5 277.5,-294.5 176.5,-294.5"/>
<text text-anchor="start" x="184.5" y="-312.5" font-family="Helvetica,sans-Serif" font-size="10.00">scram::core::Gate::</text>
<text text-anchor="middle" x="227" y="-301.5" font-family="Helvetica,sans-Serif" font-size="10.00">IsConstant</text>
</a>
</g>
</g>
<!-- Node1&#45;&gt;Node23 -->
<g id="edge33" class="edge"><title>Node1&#45;&gt;Node23</title>
<path fill="none" stroke="midnightblue" d="M73.6424,-397.866C90.7839,-382.739 126.034,-353.215 160,-334.5 163.682,-332.471 167.563,-330.537 171.523,-328.708"/>
<polygon fill="midnightblue" stroke="midnightblue" points="173.084,-331.846 180.851,-324.64 170.286,-325.43 173.084,-331.846"/>
</g>
<!-- Node24 -->
<g id="node24" class="node"><title>Node24</title>
<g id="a_node24"><a xlink:href="classscram_1_1core_1_1Zbdd.xhtml#a4ecbf60e6ac51e5260e8d8139c1b8599" target="_top" xlink:title="Joins a ZBDD representing a module gate. ">
<polygon fill="white" stroke="black" points="176,-660.5 176,-690.5 278,-690.5 278,-660.5 176,-660.5"/>
<text text-anchor="start" x="184" y="-678.5" font-family="Helvetica,sans-Serif" font-size="10.00">scram::core::Zbdd::</text>
<text text-anchor="middle" x="227" y="-667.5" font-family="Helvetica,sans-Serif" font-size="10.00">JoinModule</text>
</a>
</g>
</g>
<!-- Node1&#45;&gt;Node24 -->
<g id="edge34" class="edge"><title>Node1&#45;&gt;Node24</title>
<path fill="none" stroke="midnightblue" d="M64.3218,-417.04C69.6489,-452.093 92.5954,-575.371 160,-645.5 163.418,-649.056 167.336,-652.226 171.521,-655.046"/>
<polygon fill="midnightblue" stroke="midnightblue" points="170.031,-658.232 180.411,-660.351 173.618,-652.221 170.031,-658.232"/>
</g>
<!-- Node26 -->
<g id="node26" class="node"><title>Node26</title>
<g id="a_node26"><a xlink:href="classscram_1_1core_1_1Zbdd.xhtml#ae819f5439416479971018ac134233091" target="_top" xlink:title="Logs properties of the Zbdd. ">
<polygon fill="white" stroke="black" points="168,-256 168,-275 286,-275 286,-256 168,-256"/>
<text text-anchor="middle" x="227" y="-263" font-family="Helvetica,sans-Serif" font-size="10.00">scram::core::Zbdd::Log</text>
</a>
</g>
</g>
<!-- Node1&#45;&gt;Node26 -->
<g id="edge38" class="edge"><title>Node1&#45;&gt;Node26</title>
<path fill="none" stroke="midnightblue" d="M67.9084,-397.946C80.1915,-374.993 114.56,-316.364 160,-285.5 163.566,-283.078 167.433,-280.942 171.448,-279.059"/>
<polygon fill="midnightblue" stroke="midnightblue" points="173.103,-282.162 181.009,-275.11 170.43,-275.693 173.103,-282.162"/>
</g>
<!-- Node27 -->
<g id="node27" class="node"><title>Node27</title>
<g id="a_node27"><a xlink:href="classscram_1_1core_1_1Gate.xhtml#a93fa477d60140843c4abae7de52fffa1" target="_top" xlink:title="scram::core::Gate::\lmodule">
<polygon fill="white" stroke="black" points="176.5,-206.5 176.5,-236.5 277.5,-236.5 277.5,-206.5 176.5,-206.5"/>
<text text-anchor="start" x="184.5" y="-224.5" font-family="Helvetica,sans-Serif" font-size="10.00">scram::core::Gate::</text>
<text text-anchor="middle" x="227" y="-213.5" font-family="Helvetica,sans-Serif" font-size="10.00">module</text>
</a>
</g>
</g>
<!-- Node1&#45;&gt;Node27 -->
<g id="edge40" class="edge"><title>Node1&#45;&gt;Node27</title>
<path fill="none" stroke="midnightblue" d="M66.3126,-397.63C76.1185,-369.853 107.631,-290.192 160,-246.5 162.37,-244.523 164.912,-242.693 167.57,-241"/>
<polygon fill="midnightblue" stroke="midnightblue" points="169.379,-243.998 176.383,-236.049 165.951,-237.895 169.379,-243.998"/>
</g>
<!-- Node28 -->
<g id="node28" class="node"><title>Node28</title>
<g id="a_node28"><a xlink:href="classscram_1_1core_1_1Bdd.xhtml#a084e72279927831ec728a1542861dfec" target="_top" xlink:title="scram::core::Bdd::modules">
<polygon fill="white" stroke="black" points="160,-168 160,-187 294,-187 294,-168 160,-168"/>
<text text-anchor="middle" x="227" y="-175" font-family="Helvetica,sans-Serif" font-size="10.00">scram::core::Bdd::modules</text>
</a>
</g>
</g>
<!-- Node1&#45;&gt;Node28 -->
<g id="edge41" class="edge"><title>Node1&#45;&gt;Node28</title>
<path fill="none" stroke="midnightblue" d="M64.5719,-397.892C70.496,-364.798 94.5655,-254.448 160,-197.5 162.484,-195.338 165.195,-193.411 168.057,-191.691"/>
<polygon fill="midnightblue" stroke="midnightblue" points="169.692,-194.787 177.017,-187.132 166.517,-188.548 169.692,-194.787"/>
</g>
<!-- Node29 -->
<g id="node29" class="node"><title>Node29</title>
<g id="a_node29"><a xlink:href="classscram_1_1core_1_1Zbdd.xhtml#ab71281cd644eb442dd2d3ee1c5df56c4" target="_top" xlink:title="scram::core::Zbdd::\lsettings">
<polygon fill="white" stroke="black" points="176,-118.5 176,-148.5 278,-148.5 278,-118.5 176,-118.5"/>
<text text-anchor="start" x="184" y="-136.5" font-family="Helvetica,sans-Serif" font-size="10.00">scram::core::Zbdd::</text>
<text text-anchor="middle" x="227" y="-125.5" font-family="Helvetica,sans-Serif" font-size="10.00">settings</text>
</a>
</g>
</g>
<!-- Node1&#45;&gt;Node29 -->
<g id="edge44" class="edge"><title>Node1&#45;&gt;Node29</title>
<path fill="none" stroke="midnightblue" d="M63.9697,-397.88C68.1484,-361.394 87.8204,-230.005 160,-158.5 162.122,-156.398 164.438,-154.47 166.892,-152.701"/>
<polygon fill="midnightblue" stroke="midnightblue" points="169.009,-155.508 175.686,-147.282 165.336,-149.548 169.009,-155.508"/>
</g>
<!-- Node30 -->
<g id="node30" class="node"><title>Node30</title>
<g id="a_node30"><a xlink:href="classscram_1_1core_1_1Gate.xhtml#ad5a5766ce9dbbd2104c0bb07b9639a48" target="_top" xlink:title="scram::core::Gate::type">
<polygon fill="white" stroke="black" points="167,-80 167,-99 287,-99 287,-80 167,-80"/>
<text text-anchor="middle" x="227" y="-87" font-family="Helvetica,sans-Serif" font-size="10.00">scram::core::Gate::type</text>
</a>
</g>
</g>
<!-- Node1&#45;&gt;Node30 -->
<g id="edge45" class="edge"><title>Node1&#45;&gt;Node30</title>
<path fill="none" stroke="midnightblue" d="M63.0645,-397.816C63.8822,-356.459 72.7176,-192.915 160,-108.5 161.637,-106.917 163.396,-105.465 165.251,-104.132"/>
<polygon fill="midnightblue" stroke="midnightblue" points="167.077,-107.119 173.912,-99.0236 163.521,-101.09 167.077,-107.119"/>
</g>
<!-- Node31 -->
<g id="node31" class="node"><title>Node31</title>
<g id="a_node31"><a xlink:href="classscram_1_1core_1_1Zbdd.xhtml#a7dd59951e7bc8fd08c75feb44bc496e2" target="_top" xlink:title="Converts Reduced Ordered BDD into Zero&#45;Suppressed BDD. ">
<polygon fill="white" stroke="black" points="165,-42 165,-61 289,-61 289,-42 165,-42"/>
<text text-anchor="middle" x="227" y="-49" font-family="Helvetica,sans-Serif" font-size="10.00">scram::core::Zbdd::Zbdd</text>
</a>
</g>
</g>
<!-- Node1&#45;&gt;Node31 -->
<g id="edge46" class="edge"><title>Node1&#45;&gt;Node31</title>
<path fill="none" stroke="midnightblue" d="M62.6547,-397.839C61.6185,-353.454 63.3541,-167.15 160,-70.5 161.454,-69.0456 163.012,-67.7009 164.654,-66.4577"/>
<polygon fill="midnightblue" stroke="midnightblue" points="166.768,-69.2668 173.456,-61.0504 163.104,-63.3022 166.768,-69.2668"/>
</g>
<!-- Node3&#45;&gt;Node4 -->
<g id="edge3" class="edge"><title>Node3&#45;&gt;Node4</title>
<path fill="none" stroke="midnightblue" d="M269.09,-559.501C287.456,-565.443 309.538,-571.553 330,-574.5 439.486,-590.267 568.311,-577.324 644.481,-566.454"/>
<polygon fill="midnightblue" stroke="midnightblue" points="645.026,-569.912 654.416,-565.005 644.015,-562.985 645.026,-569.912"/>
</g>
<!-- Node3&#45;&gt;Node5 -->
<g id="edge4" class="edge"><title>Node3&#45;&gt;Node5</title>
<path fill="none" stroke="midnightblue" d="M281.762,-529.481C294.615,-525.89 308.46,-522.022 321.716,-518.319"/>
<polygon fill="midnightblue" stroke="midnightblue" points="323.024,-521.588 331.713,-515.526 321.14,-514.846 323.024,-521.588"/>
</g>
<!-- Node3&#45;&gt;Node6 -->
<g id="edge5" class="edge"><title>Node3&#45;&gt;Node6</title>
<path fill="none" stroke="midnightblue" d="M286.2,-546.348C298.922,-546.752 312.414,-547.18 325.216,-547.586"/>
<polygon fill="midnightblue" stroke="midnightblue" points="325.201,-551.087 335.307,-547.907 325.424,-544.091 325.201,-551.087"/>
</g>
<!-- Node6&#45;&gt;Node4 -->
<g id="edge6" class="edge"><title>Node6&#45;&gt;Node4</title>
<path fill="none" stroke="midnightblue" d="M437.614,-550.431C490.546,-551.414 574.603,-552.976 635.448,-554.106"/>
<polygon fill="midnightblue" stroke="midnightblue" points="635.701,-557.611 645.764,-554.297 635.831,-550.612 635.701,-557.611"/>
</g>
<!-- Node7 -->
<g id="node7" class="node"><title>Node7</title>
<g id="a_node7"><a xlink:href="classscram_1_1core_1_1Terminal.xhtml#ab615ba4379a9ae2a882177a6d120ece9" target="_top" xlink:title="Recovers a shared pointer to Terminal from a pointer to Vertex. ">
<polygon fill="white" stroke="black" points="479,-346 479,-365 610,-365 610,-346 479,-346"/>
<text text-anchor="middle" x="544.5" y="-353" font-family="Helvetica,sans-Serif" font-size="10.00">scram::core::Terminal::Ptr</text>
</a>
</g>
</g>
<!-- Node6&#45;&gt;Node7 -->
<g id="edge7" class="edge"><title>Node6&#45;&gt;Node7</title>
<path fill="none" stroke="midnightblue" d="M432.719,-534.415C436.539,-531.875 440.058,-528.924 443,-525.5 484.028,-477.749 439.54,-437.555 479,-388.5 485.445,-380.488 494.351,-374.227 503.49,-369.417"/>
<polygon fill="midnightblue" stroke="midnightblue" points="505.091,-372.531 512.623,-365.079 502.088,-366.208 505.091,-372.531"/>
</g>
<!-- Node8 -->
<g id="node8" class="node"><title>Node8</title>
<g id="a_node8"><a xlink:href="classscram_1_1core_1_1Zbdd.xhtml#a42af18229ba2e80201bc0fdac07b7091" target="_top" xlink:title="Finds or adds a unique SetNode in the ZBDD. ">
<polygon fill="white" stroke="black" points="493.5,-496.5 493.5,-526.5 595.5,-526.5 595.5,-496.5 493.5,-496.5"/>
<text text-anchor="start" x="501.5" y="-514.5" font-family="Helvetica,sans-Serif" font-size="10.00">scram::core::Zbdd::</text>
<text text-anchor="middle" x="544.5" y="-503.5" font-family="Helvetica,sans-Serif" font-size="10.00">FindOrAddVertex</text>
</a>
</g>
</g>
<!-- Node6&#45;&gt;Node8 -->
<g id="edge8" class="edge"><title>Node6&#45;&gt;Node8</title>
<path fill="none" stroke="midnightblue" d="M437.718,-537.267C452.331,-533.708 468.441,-529.784 483.587,-526.094"/>
<polygon fill="midnightblue" stroke="midnightblue" points="484.488,-529.477 493.376,-523.71 482.832,-522.676 484.488,-529.477"/>
</g>
<!-- Node9 -->
<g id="node9" class="node"><title>Node9</title>
<g id="a_node9"><a xlink:href="classscram_1_1core_1_1Terminal.xhtml#a7a25b0b40498f4876571a5dac4e724c3" target="_top" xlink:title="scram::core::Terminal\l::value">
<polygon fill="white" stroke="black" points="488.5,-397.5 488.5,-427.5 600.5,-427.5 600.5,-397.5 488.5,-397.5"/>
<text text-anchor="start" x="496.5" y="-415.5" font-family="Helvetica,sans-Serif" font-size="10.00">scram::core::Terminal</text>
<text text-anchor="middle" x="544.5" y="-404.5" font-family="Helvetica,sans-Serif" font-size="10.00">::value</text>
</a>
</g>
</g>
<!-- Node6&#45;&gt;Node9 -->
<g id="edge10" class="edge"><title>Node6&#45;&gt;Node9</title>
<path fill="none" stroke="midnightblue" d="M428.053,-534.457C433.281,-531.81 438.406,-528.821 443,-525.5 452.472,-518.651 497.4,-466.647 523.871,-435.627"/>
<polygon fill="midnightblue" stroke="midnightblue" points="526.666,-437.743 530.487,-427.861 521.338,-433.204 526.666,-437.743"/>
</g>
<!-- Node6&#45;&gt;Node11 -->
<g id="edge12" class="edge"><title>Node6&#45;&gt;Node11</title>
<path fill="none" stroke="midnightblue" d="M414.317,-564.628C440.179,-579.216 479.481,-601.387 507.943,-617.442"/>
<polygon fill="midnightblue" stroke="midnightblue" points="506.343,-620.558 516.772,-622.423 509.782,-614.461 506.343,-620.558"/>
</g>
<!-- Node8&#45;&gt;Node4 -->
<g id="edge9" class="edge"><title>Node8&#45;&gt;Node4</title>
<path fill="none" stroke="midnightblue" d="M595.902,-524.941C617.91,-530.809 643.529,-537.641 664.956,-543.355"/>
<polygon fill="midnightblue" stroke="midnightblue" points="664.225,-546.782 674.79,-545.977 666.029,-540.019 664.225,-546.782"/>
</g>
<!-- Node10 -->
<g id="node10" class="node"><title>Node10</title>
<g id="a_node10"><a xlink:href="classscram_1_1core_1_1Vertex.xhtml#a8a4a6e9871c7b80b9951fea57617d438" target="_top" xlink:title="scram::core::Vertex::id">
<polygon fill="white" stroke="black" points="653.5,-403 653.5,-422 769.5,-422 769.5,-403 653.5,-403"/>
<text text-anchor="middle" x="711.5" y="-410" font-family="Helvetica,sans-Serif" font-size="10.00">scram::core::Vertex::id</text>
</a>
</g>
</g>
<!-- Node9&#45;&gt;Node10 -->
<g id="edge11" class="edge"><title>Node9&#45;&gt;Node10</title>
<path fill="none" stroke="midnightblue" d="M600.902,-412.5C614.462,-412.5 629.121,-412.5 643.173,-412.5"/>
<polygon fill="midnightblue" stroke="midnightblue" points="643.272,-416 653.272,-412.5 643.272,-409 643.272,-416"/>
</g>
<!-- Node12&#45;&gt;Node4 -->
<g id="edge14" class="edge"><title>Node12&#45;&gt;Node4</title>
<path fill="none" stroke="midnightblue" d="M294.303,-451.862C372.198,-448.661 504.225,-450.331 610,-487.5 642.202,-498.816 673.9,-523.047 692.832,-539.312"/>
<polygon fill="midnightblue" stroke="midnightblue" points="690.541,-541.958 700.359,-545.942 695.168,-536.705 690.541,-541.958"/>
</g>
<!-- Node12&#45;&gt;Node5 -->
<g id="edge16" class="edge"><title>Node12&#45;&gt;Node5</title>
<path fill="none" stroke="midnightblue" d="M281.762,-471.519C294.615,-475.11 308.46,-478.978 321.716,-482.681"/>
<polygon fill="midnightblue" stroke="midnightblue" points="321.14,-486.154 331.713,-485.474 323.024,-479.412 321.14,-486.154"/>
</g>
<!-- Node12&#45;&gt;Node6 -->
<g id="edge17" class="edge"><title>Node12&#45;&gt;Node6</title>
<path fill="none" stroke="midnightblue" d="M247.996,-471.674C268.064,-486.5 300.192,-509.159 330,-525.5 332.854,-527.064 335.83,-528.602 338.858,-530.096"/>
<polygon fill="midnightblue" stroke="midnightblue" points="337.486,-533.319 348.022,-534.432 340.479,-526.991 337.486,-533.319"/>
</g>
<!-- Node12&#45;&gt;Node9 -->
<g id="edge15" class="edge"><title>Node12&#45;&gt;Node9</title>
<path fill="none" stroke="midnightblue" d="M294.139,-447.276C348.29,-439.724 424.481,-429.098 478.359,-421.585"/>
<polygon fill="midnightblue" stroke="midnightblue" points="479.066,-425.02 488.486,-420.172 478.099,-418.087 479.066,-425.02"/>
</g>
<!-- Node13&#45;&gt;Node4 -->
<g id="edge20" class="edge"><title>Node13&#45;&gt;Node4</title>
<path fill="none" stroke="midnightblue" d="M270.77,-392.439C278.536,-389.565 286.538,-386.511 294,-383.5 310.237,-376.949 313.334,-372.869 330,-367.5 449.173,-329.105 506.968,-265.362 610,-336.5 647.156,-362.154 627.55,-390.289 646,-431.5 663.168,-469.848 686.618,-513.046 699.999,-536.991"/>
<polygon fill="midnightblue" stroke="midnightblue" points="696.961,-538.729 704.914,-545.729 703.062,-535.298 696.961,-538.729"/>
</g>
<!-- Node13&#45;&gt;Node5 -->
<g id="edge28" class="edge"><title>Node13&#45;&gt;Node5</title>
<path fill="none" stroke="midnightblue" d="M272.779,-422.53C280.028,-425.508 287.335,-428.854 294,-432.5 317.875,-445.561 342.499,-464.209 360.181,-478.674"/>
<polygon fill="midnightblue" stroke="midnightblue" points="358.341,-481.696 368.269,-485.396 362.815,-476.313 358.341,-481.696"/>
</g>
<!-- Node13&#45;&gt;Node7 -->
<g id="edge31" class="edge"><title>Node13&#45;&gt;Node7</title>
<path fill="none" stroke="midnightblue" d="M278.341,-399.203C331.79,-390.394 416.568,-376.421 475.833,-366.653"/>
<polygon fill="midnightblue" stroke="midnightblue" points="476.553,-370.081 485.851,-365.002 475.415,-363.174 476.553,-370.081"/>
</g>
<!-- Node13&#45;&gt;Node9 -->
<g id="edge19" class="edge"><title>Node13&#45;&gt;Node9</title>
<path fill="none" stroke="midnightblue" d="M278.411,-405.27C321.995,-403.708 386.676,-402.262 443,-404.5 454.363,-404.952 466.431,-405.689 478.114,-406.539"/>
<polygon fill="midnightblue" stroke="midnightblue" points="478.019,-410.041 488.256,-407.309 478.55,-403.061 478.019,-410.041"/>
</g>
<!-- Node14 -->
<g id="node14" class="node"><title>Node14</title>
<g id="a_node14"><a xlink:href="classscram_1_1core_1_1Zbdd.xhtml#aed1eaa96df30e6eaa32e9e51427c9743" target="_top" xlink:title="scram::core::Zbdd::\lmodules">
<polygon fill="white" stroke="black" points="335.5,-147.5 335.5,-177.5 437.5,-177.5 437.5,-147.5 335.5,-147.5"/>
<text text-anchor="start" x="343.5" y="-165.5" font-family="Helvetica,sans-Serif" font-size="10.00">scram::core::Zbdd::</text>
<text text-anchor="middle" x="386.5" y="-154.5" font-family="Helvetica,sans-Serif" font-size="10.00">modules</text>
</a>
</g>
</g>
<!-- Node13&#45;&gt;Node14 -->
<g id="edge21" class="edge"><title>Node13&#45;&gt;Node14</title>
<path fill="none" stroke="midnightblue" d="M278.218,-395.408C284.126,-392.303 289.604,-388.401 294,-383.5 338.911,-333.426 301.238,-297.305 330,-236.5 338.84,-217.812 352.824,-199.206 364.543,-185.326"/>
<polygon fill="midnightblue" stroke="midnightblue" points="367.219,-187.583 371.125,-177.734 361.93,-182.997 367.219,-187.583"/>
</g>
<!-- Node21 -->
<g id="node21" class="node"><title>Node21</title>
<g id="a_node21"><a xlink:href="classscram_1_1core_1_1Zbdd.xhtml#ac1d2e58b1ae5650093bdc2df72f511ce" target="_top" xlink:title="scram::core::Zbdd::\lproducts">
<polygon fill="white" stroke="black" points="335.5,-245.5 335.5,-275.5 437.5,-275.5 437.5,-245.5 335.5,-245.5"/>
<text text-anchor="start" x="343.5" y="-263.5" font-family="Helvetica,sans-Serif" font-size="10.00">scram::core::Zbdd::</text>
<text text-anchor="middle" x="386.5" y="-252.5" font-family="Helvetica,sans-Serif" font-size="10.00">products</text>
</a>
</g>
</g>
<!-- Node13&#45;&gt;Node21 -->
<g id="edge29" class="edge"><title>Node13&#45;&gt;Node21</title>
<path fill="none" stroke="midnightblue" d="M278.309,-394.521C284.059,-391.561 289.471,-387.937 294,-383.5 325.661,-352.483 300.699,-323.755 330,-290.5 333.014,-287.079 336.515,-283.978 340.266,-281.182"/>
<polygon fill="midnightblue" stroke="midnightblue" points="342.374,-283.984 348.781,-275.546 338.51,-278.147 342.374,-283.984"/>
</g>
<!-- Node15 -->
<g id="node15" class="node"><title>Node15</title>
<g id="a_node15"><a xlink:href="classscram_1_1core_1_1NonTerminal.xhtml#aeeaafd82ae5890a7ec3462c68ffc8628" target="_top" xlink:title="scram::core::NonTerminal\l\&lt; SetNode \&gt;::index">
<polygon fill="white" stroke="black" points="479.5,-147.5 479.5,-177.5 609.5,-177.5 609.5,-147.5 479.5,-147.5"/>
<text text-anchor="start" x="487.5" y="-165.5" font-family="Helvetica,sans-Serif" font-size="10.00">scram::core::NonTerminal</text>
<text text-anchor="middle" x="544.5" y="-154.5" font-family="Helvetica,sans-Serif" font-size="10.00">&lt; SetNode &gt;::index</text>
</a>
</g>
</g>
<!-- Node14&#45;&gt;Node15 -->
<g id="edge22" class="edge"><title>Node14&#45;&gt;Node15</title>
<path fill="none" stroke="midnightblue" d="M437.718,-162.5C447.775,-162.5 458.541,-162.5 469.215,-162.5"/>
<polygon fill="midnightblue" stroke="midnightblue" points="469.393,-166 479.393,-162.5 469.393,-159 469.393,-166"/>
</g>
<!-- Node16 -->
<g id="node16" class="node"><title>Node16</title>
<g id="a_node16"><a xlink:href="classscram_1_1core_1_1NonTerminal.xhtml#a7b184b2ba68a289aae9f3737f1d13b97" target="_top" xlink:title="scram::core::NonTerminal\l\&lt; SetNode \&gt;::high">
<polygon fill="white" stroke="black" points="479.5,-98.5 479.5,-128.5 609.5,-128.5 609.5,-98.5 479.5,-98.5"/>
<text text-anchor="start" x="487.5" y="-116.5" font-family="Helvetica,sans-Serif" font-size="10.00">scram::core::NonTerminal</text>
<text text-anchor="middle" x="544.5" y="-105.5" font-family="Helvetica,sans-Serif" font-size="10.00">&lt; SetNode &gt;::high</text>
</a>
</g>
</g>
<!-- Node14&#45;&gt;Node16 -->
<g id="edge23" class="edge"><title>Node14&#45;&gt;Node16</title>
<path fill="none" stroke="midnightblue" d="M435.578,-147.399C451.518,-142.392 469.424,-136.768 486,-131.561"/>
<polygon fill="midnightblue" stroke="midnightblue" points="487.089,-134.887 495.581,-128.552 484.991,-128.209 487.089,-134.887"/>
</g>
<!-- Node17 -->
<g id="node17" class="node"><title>Node17</title>
<g id="a_node17"><a xlink:href="classscram_1_1core_1_1NonTerminal.xhtml#adeb100923176ebd5f820c75b79280796" target="_top" xlink:title="scram::core::NonTerminal\l\&lt; SetNode \&gt;::low">
<polygon fill="white" stroke="black" points="479.5,-49.5 479.5,-79.5 609.5,-79.5 609.5,-49.5 479.5,-49.5"/>
<text text-anchor="start" x="487.5" y="-67.5" font-family="Helvetica,sans-Serif" font-size="10.00">scram::core::NonTerminal</text>
<text text-anchor="middle" x="544.5" y="-56.5" font-family="Helvetica,sans-Serif" font-size="10.00">&lt; SetNode &gt;::low</text>
</a>
</g>
</g>
<!-- Node14&#45;&gt;Node17 -->
<g id="edge24" class="edge"><title>Node14&#45;&gt;Node17</title>
<path fill="none" stroke="midnightblue" d="M402.864,-147.425C420.169,-131.11 449.715,-105.195 479,-88.5 481.854,-86.8727 484.84,-85.3181 487.895,-83.8393"/>
<polygon fill="midnightblue" stroke="midnightblue" points="489.536,-86.9386 497.21,-79.6336 486.656,-80.5587 489.536,-86.9386"/>
</g>
<!-- Node18 -->
<g id="node18" class="node"><title>Node18</title>
<g id="a_node18"><a xlink:href="classscram_1_1core_1_1NonTerminal.xhtml#af5853746ad388f479a7aa45c5d843466" target="_top" xlink:title="scram::core::NonTerminal\l\&lt; SetNode \&gt;::order">
<polygon fill="white" stroke="black" points="479.5,-0.5 479.5,-30.5 609.5,-30.5 609.5,-0.5 479.5,-0.5"/>
<text text-anchor="start" x="487.5" y="-18.5" font-family="Helvetica,sans-Serif" font-size="10.00">scram::core::NonTerminal</text>
<text text-anchor="middle" x="544.5" y="-7.5" font-family="Helvetica,sans-Serif" font-size="10.00">&lt; SetNode &gt;::order</text>
</a>
</g>
</g>
<!-- Node14&#45;&gt;Node18 -->
<g id="edge25" class="edge"><title>Node14&#45;&gt;Node18</title>
<path fill="none" stroke="midnightblue" d="M394.967,-147.431C408.392,-121.788 438.978,-69.53 479,-39.5 480.825,-38.1308 482.736,-36.8324 484.711,-35.6017"/>
<polygon fill="midnightblue" stroke="midnightblue" points="486.646,-38.5314 493.705,-30.6311 483.26,-32.4047 486.646,-38.5314"/>
</g>
<!-- Node19 -->
<g id="node19" class="node"><title>Node19</title>
<g id="a_node19"><a xlink:href="classscram_1_1core_1_1NonTerminal.xhtml#a9230422e92d086c34f67bcb864bfc8a9" target="_top" xlink:title="scram::core::NonTerminal\l\&lt; SetNode \&gt;::module">
<polygon fill="white" stroke="black" points="479.5,-196.5 479.5,-226.5 609.5,-226.5 609.5,-196.5 479.5,-196.5"/>
<text text-anchor="start" x="487.5" y="-214.5" font-family="Helvetica,sans-Serif" font-size="10.00">scram::core::NonTerminal</text>
<text text-anchor="middle" x="544.5" y="-203.5" font-family="Helvetica,sans-Serif" font-size="10.00">&lt; SetNode &gt;::module</text>
</a>
</g>
</g>
<!-- Node14&#45;&gt;Node19 -->
<g id="edge26" class="edge"><title>Node14&#45;&gt;Node19</title>
<path fill="none" stroke="midnightblue" d="M435.578,-177.601C451.518,-182.608 469.424,-188.232 486,-193.439"/>
<polygon fill="midnightblue" stroke="midnightblue" points="484.991,-196.791 495.581,-196.448 487.089,-190.113 484.991,-196.791"/>
</g>
<!-- Node20 -->
<g id="node20" class="node"><title>Node20</title>
<g id="a_node20"><a xlink:href="classscram_1_1core_1_1NonTerminal.xhtml#adcdd0c5114aa6a1d32a03928adc07c49" target="_top" xlink:title="scram::core::NonTerminal\l\&lt; SetNode \&gt;::coherent">
<polygon fill="white" stroke="black" points="479.5,-245.5 479.5,-275.5 609.5,-275.5 609.5,-245.5 479.5,-245.5"/>
<text text-anchor="start" x="487.5" y="-263.5" font-family="Helvetica,sans-Serif" font-size="10.00">scram::core::NonTerminal</text>
<text text-anchor="middle" x="544.5" y="-252.5" font-family="Helvetica,sans-Serif" font-size="10.00">&lt; SetNode &gt;::coherent</text>
</a>
</g>
</g>
<!-- Node14&#45;&gt;Node20 -->
<g id="edge27" class="edge"><title>Node14&#45;&gt;Node20</title>
<path fill="none" stroke="midnightblue" d="M402.864,-177.575C420.169,-193.89 449.715,-219.805 479,-236.5 481.854,-238.127 484.84,-239.682 487.895,-241.161"/>
<polygon fill="midnightblue" stroke="midnightblue" points="486.656,-244.441 497.21,-245.366 489.536,-238.061 486.656,-244.441"/>
</g>
<!-- Node21&#45;&gt;Node20 -->
<g id="edge30" class="edge"><title>Node21&#45;&gt;Node20</title>
<path fill="none" stroke="midnightblue" d="M437.718,-260.5C447.775,-260.5 458.541,-260.5 469.215,-260.5"/>
<polygon fill="midnightblue" stroke="midnightblue" points="469.393,-264 479.393,-260.5 469.393,-257 469.393,-264"/>
</g>
<!-- Node24&#45;&gt;Node4 -->
<g id="edge35" class="edge"><title>Node24&#45;&gt;Node4</title>
<path fill="none" stroke="midnightblue" d="M278.141,-690.329C294.519,-694.487 312.895,-698.434 330,-700.5 454.679,-715.557 501.029,-724.925 610,-662.5 649.022,-640.146 681.998,-597.771 698.723,-573.597"/>
<polygon fill="midnightblue" stroke="midnightblue" points="701.628,-575.55 704.317,-565.302 695.824,-571.636 701.628,-575.55"/>
</g>
<!-- Node25 -->
<g id="node25" class="node"><title>Node25</title>
<g id="a_node25"><a xlink:href="classscram_1_1core_1_1SetNode.xhtml#a88d05af2b9f4f08b7bc66a31c2b9e249" target="_top" xlink:title="scram::core::SetNode\l::minimal">
<polygon fill="white" stroke="black" points="330,-660.5 330,-690.5 443,-690.5 443,-660.5 330,-660.5"/>
<text text-anchor="start" x="338" y="-678.5" font-family="Helvetica,sans-Serif" font-size="10.00">scram::core::SetNode</text>
<text text-anchor="middle" x="386.5" y="-667.5" font-family="Helvetica,sans-Serif" font-size="10.00">::minimal</text>
</a>
</g>
</g>
<!-- Node24&#45;&gt;Node25 -->
<g id="edge36" class="edge"><title>Node24&#45;&gt;Node25</title>
<path fill="none" stroke="midnightblue" d="M278.267,-675.5C291.524,-675.5 306.026,-675.5 319.96,-675.5"/>
<polygon fill="midnightblue" stroke="midnightblue" points="319.979,-679 329.979,-675.5 319.979,-672 319.979,-679"/>
</g>
</g>
</svg>
        <g id="navigator" transform="translate(0 0)" fill="#404254">
                <rect fill="#f2f5e9" fill-opacity="0.5" stroke="#606060" stroke-width=".5" x="0" y="0" width="60" height="60"/>
                <use id="zoomplus" xlink:href="#zoomPlus" x="17" y="9" onmousedown="handleZoom(evt,'in')"/>
                <use id="zoomminus" xlink:href="#zoomMin" x="42" y="9" onmousedown="handleZoom(evt,'out')"/>
                <use id="reset" xlink:href="#resetDef" x="30" y="36" onmousedown="handleReset()"/>
                <g id="arrowUp" xlink:href="#dirArrow" transform="translate(30 24)" onmousedown="handlePan(0,-1)">
                  <use xlink:href="#rim" fill="#404040">
                        <set attributeName="fill" to="#808080" begin="arrowUp.mouseover" end="arrowUp.mouseout"/>
                  </use>
                  <path fill="none" stroke="white" stroke-width="1.5" d="M0,-3.0v7 M-2.5,-0.5L0,-3.0L2.5,-0.5"/>
                </g>
                <g id="arrowRight" xlink:href="#dirArrow" transform="rotate(90) translate(36 -43)" onmousedown="handlePan(1,0)">
                  <use xlink:href="#rim" fill="#404040">
                        <set attributeName="fill" to="#808080" begin="arrowRight.mouseover" end="arrowRight.mouseout"/>
                  </use>
                  <path fill="none" stroke="white" stroke-width="1.5" d="M0,-3.0v7 M-2.5,-0.5L0,-3.0L2.5,-0.5"/>
                </g>
                <g id="arrowDown" xlink:href="#dirArrow" transform="rotate(180) translate(-30 -48)" onmousedown="handlePan(0,1)">
                  <use xlink:href="#rim" fill="#404040">
                        <set attributeName="fill" to="#808080" begin="arrowDown.mouseover" end="arrowDown.mouseout"/>
                  </use>
                  <path fill="none" stroke="white" stroke-width="1.5" d="M0,-3.0v7 M-2.5,-0.5L0,-3.0L2.5,-0.5"/>
                </g>
                <g id="arrowLeft" xlink:href="#dirArrow" transform="rotate(270) translate(-36 17)" onmousedown="handlePan(-1,0)">
                  <use xlink:href="#rim" fill="#404040">
                        <set attributeName="fill" to="#808080" begin="arrowLeft.mouseover" end="arrowLeft.mouseout"/>
                  </use>
                  <path fill="none" stroke="white" stroke-width="1.5" d="M0,-3.0v7 M-2.5,-0.5L0,-3.0L2.5,-0.5"/>
                </g>
        </g>
        <svg viewBox="0 0 15 15" width="100%" height="30px" preserveAspectRatio="xMaxYMin meet">
         <g id="arrow_out" transform="scale(0.3 0.3)">
          <a xlink:href="classscram_1_1core_1_1Zbdd_af92e04ed908364e0177ce444d7b72712_cgraph_org.svg" target="_base">
           <rect id="button" ry="5" rx="5" y="6" x="6" height="38" width="38"
                fill="#f2f5e9" fill-opacity="0.5" stroke="#606060" stroke-width="1.0"/>
           <path id="arrow"
             d="M 11.500037,31.436501 C 11.940474,20.09759 22.043105,11.32322 32.158766,21.979434 L 37.068811,17.246167 C 37.068811,17.246167 37.088388,32 37.088388,32 L 22.160133,31.978069 C 22.160133,31.978069 26.997745,27.140456 26.997745,27.140456 C 18.528582,18.264221 13.291696,25.230495 11.500037,31.436501 z"
             style="fill:#404040;"/>
          </a>
         </g>
        </svg>
</svg>
