<?xml version="1.0" encoding="UTF-8" standalone="no"?>
<!DOCTYPE svg PUBLIC "-//W3C//DTD SVG 1.1//EN"
 "http://www.w3.org/Graphics/SVG/1.1/DTD/svg11.dtd">
<!-- Generated by graphviz version 2.38.0 (20140413.2041)
 -->
<!-- Title: scram::mef::CcfGroup::AddFactor Pages: 1 -->
<svg width="716pt" height="269pt"
 viewBox="0.00 0.00 716.00 269.00" xmlns="http://www.w3.org/2000/svg" xmlns:xlink="http://www.w3.org/1999/xlink">
<g id="graph0" class="graph" transform="scale(1 1) rotate(0) translate(4 265)">
<title>scram::mef::CcfGroup::AddFactor</title>
<polygon fill="white" stroke="none" points="-4,4 -4,-265 712,-265 712,4 -4,4"/>
<!-- Node1 -->
<g id="node1" class="node"><title>Node1</title>
<polygon fill="#bfbfbf" stroke="black" points="0,-44.5 0,-74.5 114,-74.5 114,-44.5 0,-44.5"/>
<text text-anchor="start" x="8" y="-62.5" font-family="Helvetica,sans-Serif" font-size="10.00">scram::mef::CcfGroup</text>
<text text-anchor="middle" x="57" y="-51.5" font-family="Helvetica,sans-Serif" font-size="10.00">::AddFactor</text>
</g>
<!-- Node2 -->
<g id="node2" class="node"><title>Node2</title>
<g id="a_node2"><a xlink:href="classscram_1_1mef_1_1CcfGroup.xhtml#ab399c5ed0c1d7d0a316ac3b7244b7eb9" target="_top" xlink:title="Processes the given factors and members to create common cause failure probabilities and new events t...">
<polygon fill="white" stroke="black" points="150,-142.5 150,-172.5 264,-172.5 264,-142.5 150,-142.5"/>
<text text-anchor="start" x="158" y="-160.5" font-family="Helvetica,sans-Serif" font-size="10.00">scram::mef::CcfGroup</text>
<text text-anchor="middle" x="207" y="-149.5" font-family="Helvetica,sans-Serif" font-size="10.00">::ApplyModel</text>
</a>
</g>
</g>
<!-- Node1&#45;&gt;Node2 -->
<g id="edge1" class="edge"><title>Node1&#45;&gt;Node2</title>
<path fill="none" stroke="midnightblue" d="M80.8007,-74.5977C105.823,-91.1669 146.166,-117.88 174.27,-136.49"/>
<polygon fill="midnightblue" stroke="midnightblue" points="172.659,-139.621 182.93,-142.224 176.524,-133.784 172.659,-139.621"/>
</g>
<!-- Node9 -->
<g id="node9" class="node"><title>Node9</title>
<g id="a_node9"><a xlink:href="classscram_1_1mef_1_1CcfGroup.xhtml#a31cbe59ce89f295de7bb810d8b75990e" target="_top" xlink:title="Validates the setup for the CCF model and group. ">
<polygon fill="white" stroke="black" points="450,-44.5 450,-74.5 564,-74.5 564,-44.5 450,-44.5"/>
<text text-anchor="start" x="458" y="-62.5" font-family="Helvetica,sans-Serif" font-size="10.00">scram::mef::CcfGroup</text>
<text text-anchor="middle" x="507" y="-51.5" font-family="Helvetica,sans-Serif" font-size="10.00">::Validate</text>
</a>
</g>
</g>
<!-- Node1&#45;&gt;Node9 -->
<g id="edge10" class="edge"><title>Node1&#45;&gt;Node9</title>
<path fill="none" stroke="midnightblue" d="M114.286,-59.5C197.136,-59.5 351.608,-59.5 439.79,-59.5"/>
<polygon fill="midnightblue" stroke="midnightblue" points="439.944,-63.0001 449.944,-59.5 439.944,-56.0001 439.944,-63.0001"/>
</g>
<!-- Node10 -->
<g id="node10" class="node"><title>Node10</title>
<g id="a_node10"><a xlink:href="classscram_1_1mef_1_1CcfGroup.xhtml#a25e28f28d5ebf344bc17dc7d0c50a497" target="_top" xlink:title="Checks if the provided distribution is between 0 and 1. ">
<polygon fill="white" stroke="black" points="150,-0.5 150,-30.5 264,-30.5 264,-0.5 150,-0.5"/>
<text text-anchor="start" x="158" y="-18.5" font-family="Helvetica,sans-Serif" font-size="10.00">scram::mef::CcfGroup</text>
<text text-anchor="middle" x="207" y="-7.5" font-family="Helvetica,sans-Serif" font-size="10.00">::ValidateDistribution</text>
</a>
</g>
</g>
<!-- Node1&#45;&gt;Node10 -->
<g id="edge12" class="edge"><title>Node1&#45;&gt;Node10</title>
<path fill="none" stroke="midnightblue" d="M108.519,-44.4808C120.479,-40.9252 133.351,-37.0982 145.697,-33.4279"/>
<polygon fill="midnightblue" stroke="midnightblue" points="146.869,-36.7309 155.457,-30.5262 144.875,-30.0211 146.869,-36.7309"/>
</g>
<!-- Node3 -->
<g id="node3" class="node"><title>Node3</title>
<g id="a_node3"><a xlink:href="classscram_1_1mef_1_1CcfGroup.xhtml#a870cff942d6ce90dc50de37e17a151ee" target="_top" xlink:title="scram::mef::CcfGroup\l::factors">
<polygon fill="white" stroke="black" points="300,-230.5 300,-260.5 414,-260.5 414,-230.5 300,-230.5"/>
<text text-anchor="start" x="308" y="-248.5" font-family="Helvetica,sans-Serif" font-size="10.00">scram::mef::CcfGroup</text>
<text text-anchor="middle" x="357" y="-237.5" font-family="Helvetica,sans-Serif" font-size="10.00">::factors</text>
</a>
</g>
</g>
<!-- Node2&#45;&gt;Node3 -->
<g id="edge2" class="edge"><title>Node2&#45;&gt;Node3</title>
<path fill="none" stroke="midnightblue" d="M231.165,-172.742C249.602,-184.717 276.176,-201.632 300,-215.5 305.828,-218.892 312.066,-222.376 318.187,-225.713"/>
<polygon fill="midnightblue" stroke="midnightblue" points="316.545,-228.804 327.008,-230.47 319.868,-222.643 316.545,-228.804"/>
</g>
<!-- Node4 -->
<g id="node4" class="node"><title>Node4</title>
<g id="a_node4"><a xlink:href="classscram_1_1mef_1_1Element.xhtml#adb401e2ca84aa98cb60797bec2500a81" target="_top" xlink:title="scram::mef::Element\l::name">
<polygon fill="white" stroke="black" points="600,-93.5 600,-123.5 708,-123.5 708,-93.5 600,-93.5"/>
<text text-anchor="start" x="608" y="-111.5" font-family="Helvetica,sans-Serif" font-size="10.00">scram::mef::Element</text>
<text text-anchor="middle" x="654" y="-100.5" font-family="Helvetica,sans-Serif" font-size="10.00">::name</text>
</a>
</g>
</g>
<!-- Node2&#45;&gt;Node4 -->
<g id="edge3" class="edge"><title>Node2&#45;&gt;Node4</title>
<path fill="none" stroke="midnightblue" d="M255.739,-172.518C325.661,-191.93 459.01,-219.05 564,-181.5 591.74,-171.579 617.045,-148.876 633.521,-131.402"/>
<polygon fill="midnightblue" stroke="midnightblue" points="636.295,-133.554 640.446,-123.806 631.123,-128.838 636.295,-133.554"/>
</g>
<!-- Node5 -->
<g id="node5" class="node"><title>Node5</title>
<g id="a_node5"><a xlink:href="classscram_1_1mef_1_1CcfGroup.xhtml#ac2e32b2b8b441c3605780181651af31c" target="_top" xlink:title="scram::mef::CcfGroup\l::members">
<polygon fill="white" stroke="black" points="300,-142.5 300,-172.5 414,-172.5 414,-142.5 300,-142.5"/>
<text text-anchor="start" x="308" y="-160.5" font-family="Helvetica,sans-Serif" font-size="10.00">scram::mef::CcfGroup</text>
<text text-anchor="middle" x="357" y="-149.5" font-family="Helvetica,sans-Serif" font-size="10.00">::members</text>
</a>
</g>
</g>
<!-- Node2&#45;&gt;Node5 -->
<g id="edge4" class="edge"><title>Node2&#45;&gt;Node5</title>
<path fill="none" stroke="midnightblue" d="M264.375,-157.5C272.621,-157.5 281.178,-157.5 289.602,-157.5"/>
<polygon fill="midnightblue" stroke="midnightblue" points="289.782,-161 299.782,-157.5 289.782,-154 289.782,-161"/>
</g>
<!-- Node8 -->
<g id="node8" class="node"><title>Node8</title>
<g id="a_node8"><a xlink:href="classscram_1_1mef_1_1CcfGroup.xhtml#a89c5531144ef16c6f28be333166ab839" target="_top" xlink:title="scram::mef::CcfGroup\l::distribution">
<polygon fill="white" stroke="black" points="300,-93.5 300,-123.5 414,-123.5 414,-93.5 300,-93.5"/>
<text text-anchor="start" x="308" y="-111.5" font-family="Helvetica,sans-Serif" font-size="10.00">scram::mef::CcfGroup</text>
<text text-anchor="middle" x="357" y="-100.5" font-family="Helvetica,sans-Serif" font-size="10.00">::distribution</text>
</a>
</g>
</g>
<!-- Node2&#45;&gt;Node8 -->
<g id="edge9" class="edge"><title>Node2&#45;&gt;Node8</title>
<path fill="none" stroke="midnightblue" d="M253.613,-142.399C268.594,-137.438 285.405,-131.873 301.007,-126.707"/>
<polygon fill="midnightblue" stroke="midnightblue" points="302.145,-130.017 310.538,-123.552 299.945,-123.372 302.145,-130.017"/>
</g>
<!-- Node6 -->
<g id="node6" class="node"><title>Node6</title>
<g id="a_node6"><a xlink:href="classscram_1_1mef_1_1CcfGroup.xhtml#a723878c7c836a52cf9edb5c8d1a37868" target="_top" xlink:title="Adds the distribution that describes the probability of basic events in this CCF group. ">
<polygon fill="white" stroke="black" points="450,-142.5 450,-172.5 564,-172.5 564,-142.5 450,-142.5"/>
<text text-anchor="start" x="458" y="-160.5" font-family="Helvetica,sans-Serif" font-size="10.00">scram::mef::CcfGroup</text>
<text text-anchor="middle" x="507" y="-149.5" font-family="Helvetica,sans-Serif" font-size="10.00">::AddDistribution</text>
</a>
</g>
</g>
<!-- Node5&#45;&gt;Node6 -->
<g id="edge5" class="edge"><title>Node5&#45;&gt;Node6</title>
<path fill="none" stroke="midnightblue" d="M414.375,-157.5C422.621,-157.5 431.178,-157.5 439.602,-157.5"/>
<polygon fill="midnightblue" stroke="midnightblue" points="439.782,-161 449.782,-157.5 439.782,-154 439.782,-161"/>
</g>
<!-- Node7 -->
<g id="node7" class="node"><title>Node7</title>
<g id="a_node7"><a xlink:href="classscram_1_1mef_1_1CcfGroup.xhtml#a8321bf4372a0575c88b7162716469d15" target="_top" xlink:title="Adds a basic event into this CCF group. ">
<polygon fill="white" stroke="black" points="450,-93.5 450,-123.5 564,-123.5 564,-93.5 450,-93.5"/>
<text text-anchor="start" x="458" y="-111.5" font-family="Helvetica,sans-Serif" font-size="10.00">scram::mef::CcfGroup</text>
<text text-anchor="middle" x="507" y="-100.5" font-family="Helvetica,sans-Serif" font-size="10.00">::AddMember</text>
</a>
</g>
</g>
<!-- Node5&#45;&gt;Node7 -->
<g id="edge7" class="edge"><title>Node5&#45;&gt;Node7</title>
<path fill="none" stroke="midnightblue" d="M403.613,-142.399C418.594,-137.438 435.405,-131.873 451.007,-126.707"/>
<polygon fill="midnightblue" stroke="midnightblue" points="452.145,-130.017 460.538,-123.552 449.945,-123.372 452.145,-130.017"/>
</g>
<!-- Node6&#45;&gt;Node4 -->
<g id="edge6" class="edge"><title>Node6&#45;&gt;Node4</title>
<path fill="none" stroke="midnightblue" d="M552.688,-142.399C567.159,-137.508 583.372,-132.029 598.475,-126.926"/>
<polygon fill="midnightblue" stroke="midnightblue" points="599.857,-130.153 608.21,-123.636 597.616,-123.522 599.857,-130.153"/>
</g>
<!-- Node7&#45;&gt;Node4 -->
<g id="edge8" class="edge"><title>Node7&#45;&gt;Node4</title>
<path fill="none" stroke="midnightblue" d="M564.061,-108.5C572.446,-108.5 581.141,-108.5 589.664,-108.5"/>
<polygon fill="midnightblue" stroke="midnightblue" points="589.943,-112 599.943,-108.5 589.943,-105 589.943,-112"/>
</g>
<!-- Node9&#45;&gt;Node4 -->
<g id="edge11" class="edge"><title>Node9&#45;&gt;Node4</title>
<path fill="none" stroke="midnightblue" d="M552.688,-74.6014C567.159,-79.4917 583.372,-84.9707 598.475,-90.0744"/>
<polygon fill="midnightblue" stroke="midnightblue" points="597.616,-93.4783 608.21,-93.3641 599.857,-86.8468 597.616,-93.4783"/>
</g>
<!-- Node10&#45;&gt;Node4 -->
<g id="edge13" class="edge"><title>Node10&#45;&gt;Node4</title>
<path fill="none" stroke="midnightblue" d="M264.248,-7.90874C336.408,-0.505248 464.161,4.6235 564,-34.5 591.582,-45.3084 616.911,-68.2085 633.435,-85.6895"/>
<polygon fill="midnightblue" stroke="midnightblue" points="631.05,-88.2665 640.385,-93.2771 636.212,-83.5387 631.05,-88.2665"/>
</g>
</g>
</svg>
