<?xml version="1.0" encoding="UTF-8" standalone="no"?>
<!DOCTYPE svg PUBLIC "-//W3C//DTD SVG 1.1//EN"
 "http://www.w3.org/Graphics/SVG/1.1/DTD/svg11.dtd">
<!-- Generated by graphviz version 2.38.0 (20140413.2041)
 -->
<!-- Title: scram::core::Gate::type Pages: 1 -->
<svg width="299pt" height="183pt"
 viewBox="0.00 0.00 299.00 182.50" xmlns="http://www.w3.org/2000/svg" xmlns:xlink="http://www.w3.org/1999/xlink">
<g id="graph0" class="graph" transform="scale(1 1) rotate(0) translate(4 178.5)">
<title>scram::core::Gate::type</title>
<polygon fill="white" stroke="none" points="-4,4 -4,-178.5 295,-178.5 295,4 -4,4"/>
<!-- Node1 -->
<g id="node1" class="node"><title>Node1</title>
<polygon fill="#bfbfbf" stroke="black" points="0,-60.5 0,-79.5 120,-79.5 120,-60.5 0,-60.5"/>
<text text-anchor="middle" x="60" y="-67.5" font-family="Helvetica,sans-Serif" font-size="10.00">scram::core::Gate::type</text>
</g>
<!-- Node2 -->
<g id="node2" class="node"><title>Node2</title>
<g id="a_node2"><a xlink:href="classscram_1_1core_1_1Zbdd.xhtml#ac90d12f0c653c679d22109124fa6344c" target="_top" xlink:title="Find or adds a ZBDD SetNode vertex using information from gates. ">
<polygon fill="white" stroke="black" points="172.5,-126 172.5,-156 274.5,-156 274.5,-126 172.5,-126"/>
<text text-anchor="start" x="180.5" y="-144" font-family="Helvetica,sans-Serif" font-size="10.00">scram::core::Zbdd::</text>
<text text-anchor="middle" x="223.5" y="-133" font-family="Helvetica,sans-Serif" font-size="10.00">FindOrAddVertex</text>
</a>
</g>
</g>
<!-- Node1&#45;&gt;Node2 -->
<g id="edge1" class="edge"><title>Node1&#45;&gt;Node2</title>
<path fill="none" stroke="midnightblue" d="M87.8161,-84.2815C106.64,-94.0545 132.54,-107.001 156,-117 163.226,-120.08 170.996,-123.12 178.585,-125.947"/>
<polygon fill="midnightblue" stroke="midnightblue" points="89.4102,-81.1655 78.9273,-79.6294 86.1643,-87.3674 89.4102,-81.1655"/>
</g>
<!-- Node3 -->
<g id="node3" class="node"><title>Node3</title>
<g id="a_node3"><a xlink:href="classscram_1_1core_1_1Preprocessor_1_1GateSet.xhtml#ae00239084858979e096032c4cf2f05b9" target="_top" xlink:title="Inserts a gate into the set if it is semantically unique. ">
<polygon fill="white" stroke="black" points="157.5,-77 157.5,-107 289.5,-107 289.5,-77 157.5,-77"/>
<text text-anchor="start" x="165.5" y="-95" font-family="Helvetica,sans-Serif" font-size="10.00">scram::core::Preprocessor</text>
<text text-anchor="middle" x="223.5" y="-84" font-family="Helvetica,sans-Serif" font-size="10.00">::GateSet::insert</text>
</a>
</g>
</g>
<!-- Node1&#45;&gt;Node3 -->
<g id="edge3" class="edge"><title>Node1&#45;&gt;Node3</title>
<path fill="none" stroke="midnightblue" d="M130.246,-79.4329C139.221,-80.6555 148.389,-81.9044 157.295,-83.1176"/>
<polygon fill="midnightblue" stroke="midnightblue" points="130.601,-75.9489 120.22,-78.0671 129.656,-82.8849 130.601,-75.9489"/>
</g>
<!-- Node4 -->
<g id="node4" class="node"><title>Node4</title>
<g id="a_node4"><a xlink:href="classscram_1_1core_1_1Bdd.xhtml#abb75e2b30e88c46634b4a4b7df90cf8a" target="_top" xlink:title="scram::core::Bdd::products">
<polygon fill="white" stroke="black" points="156,-38.5 156,-57.5 291,-57.5 291,-38.5 156,-38.5"/>
<text text-anchor="middle" x="223.5" y="-45.5" font-family="Helvetica,sans-Serif" font-size="10.00">scram::core::Bdd::products</text>
</a>
</g>
</g>
<!-- Node1&#45;&gt;Node4 -->
<g id="edge4" class="edge"><title>Node1&#45;&gt;Node4</title>
<path fill="none" stroke="midnightblue" d="M130.147,-60.5806C138.692,-59.4165 147.415,-58.2283 155.921,-57.0695"/>
<polygon fill="midnightblue" stroke="midnightblue" points="129.656,-57.1151 120.22,-61.9329 130.601,-64.0511 129.656,-57.1151"/>
</g>
<!-- Node5 -->
<g id="node5" class="node"><title>Node5</title>
<g id="a_node5"><a xlink:href="classscram_1_1core_1_1Zbdd.xhtml#af92e04ed908364e0177ce444d7b72712" target="_top" xlink:title="Default constructor to initialize member variables. ">
<polygon fill="white" stroke="black" points="161.5,-0.5 161.5,-19.5 285.5,-19.5 285.5,-0.5 161.5,-0.5"/>
<text text-anchor="middle" x="223.5" y="-7.5" font-family="Helvetica,sans-Serif" font-size="10.00">scram::core::Zbdd::Zbdd</text>
</a>
</g>
</g>
<!-- Node1&#45;&gt;Node5 -->
<g id="edge5" class="edge"><title>Node1&#45;&gt;Node5</title>
<path fill="none" stroke="midnightblue" d="M90.2008,-56.2332C108.795,-47.7594 133.526,-37.0226 156,-29 165.612,-25.5689 176.172,-22.3216 185.992,-19.5143"/>
<polygon fill="midnightblue" stroke="midnightblue" points="88.7011,-53.0705 81.0814,-60.4319 91.6286,-59.4289 88.7011,-53.0705"/>
</g>
<!-- Node2&#45;&gt;Node2 -->
<g id="edge2" class="edge"><title>Node2&#45;&gt;Node2</title>
<path fill="none" stroke="midnightblue" d="M194.715,-166.458C198.287,-171.179 207.882,-174.5 223.5,-174.5 249.129,-174.5 258.54,-165.557 251.732,-156.159"/>
<polygon fill="midnightblue" stroke="midnightblue" points="198.226,-166.332 195.268,-156.159 191.236,-165.957 198.226,-166.332"/>
</g>
</g>
</svg>
