<?xml version="1.0" encoding="UTF-8" standalone="no"?>
<!DOCTYPE svg PUBLIC "-//W3C//DTD SVG 1.1//EN"
 "http://www.w3.org/Graphics/SVG/1.1/DTD/svg11.dtd">
<!-- Generated by graphviz version 2.38.0 (20140413.2041)
 -->
<!-- Title: scram::core::Zbdd::Apply Pages: 1 -->
<svg width="297pt" height="106pt"
 viewBox="0.00 0.00 297.00 106.00" xmlns="http://www.w3.org/2000/svg" xmlns:xlink="http://www.w3.org/1999/xlink">
<g id="graph0" class="graph" transform="scale(1 1) rotate(0) translate(4 102)">
<title>scram::core::Zbdd::Apply</title>
<polygon fill="white" stroke="none" points="-4,4 -4,-102 293,-102 293,4 -4,4"/>
<!-- Node1 -->
<g id="node1" class="node"><title>Node1</title>
<polygon fill="#bfbfbf" stroke="black" points="0,-33.5 0,-63.5 102,-63.5 102,-33.5 0,-33.5"/>
<text text-anchor="start" x="8" y="-51.5" font-family="Helvetica,sans-Serif" font-size="10.00">scram::core::Zbdd::</text>
<text text-anchor="middle" x="51" y="-40.5" font-family="Helvetica,sans-Serif" font-size="10.00">Apply</text>
</g>
<!-- Node2 -->
<g id="node2" class="node"><title>Node2</title>
<g id="a_node2"><a xlink:href="classscram_1_1core_1_1zbdd_1_1CutSetContainer.xhtml#a15ccbd5b839be87c831a743f0100588e" target="_top" xlink:title="Converts a Boolean graph gate into intermediate cut sets. ">
<polygon fill="white" stroke="black" points="138,-67.5 138,-97.5 289,-97.5 289,-67.5 138,-67.5"/>
<text text-anchor="start" x="146" y="-85.5" font-family="Helvetica,sans-Serif" font-size="10.00">scram::core::zbdd::</text>
<text text-anchor="middle" x="213.5" y="-74.5" font-family="Helvetica,sans-Serif" font-size="10.00">CutSetContainer::ConvertGate</text>
</a>
</g>
</g>
<!-- Node1&#45;&gt;Node2 -->
<g id="edge1" class="edge"><title>Node1&#45;&gt;Node2</title>
<path fill="none" stroke="midnightblue" d="M112.139,-61.2397C121.705,-63.2662 131.678,-65.3789 141.466,-67.4524"/>
<polygon fill="midnightblue" stroke="midnightblue" points="112.851,-57.813 102.343,-59.1645 111.4,-64.661 112.851,-57.813"/>
</g>
<!-- Node3 -->
<g id="node3" class="node"><title>Node3</title>
<g id="a_node3"><a xlink:href="classscram_1_1core_1_1Zbdd.xhtml#ac90d12f0c653c679d22109124fa6344c" target="_top" xlink:title="Find or adds a ZBDD SetNode vertex using information from gates. ">
<polygon fill="white" stroke="black" points="162.5,-0.5 162.5,-30.5 264.5,-30.5 264.5,-0.5 162.5,-0.5"/>
<text text-anchor="start" x="170.5" y="-18.5" font-family="Helvetica,sans-Serif" font-size="10.00">scram::core::Zbdd::</text>
<text text-anchor="middle" x="213.5" y="-7.5" font-family="Helvetica,sans-Serif" font-size="10.00">FindOrAddVertex</text>
</a>
</g>
</g>
<!-- Node1&#45;&gt;Node3 -->
<g id="edge2" class="edge"><title>Node1&#45;&gt;Node3</title>
<path fill="none" stroke="midnightblue" d="M112.41,-36.0793C128.868,-32.6953 146.514,-29.0672 162.336,-25.8141"/>
<polygon fill="midnightblue" stroke="midnightblue" points="111.433,-32.7068 102.343,-38.1491 112.843,-39.5634 111.433,-32.7068"/>
</g>
<!-- Node3&#45;&gt;Node3 -->
<g id="edge3" class="edge"><title>Node3&#45;&gt;Node3</title>
<path fill="none" stroke="midnightblue" d="M184.715,-40.9579C188.287,-45.679 197.882,-49 213.5,-49 239.129,-49 248.54,-40.0566 241.732,-30.659"/>
<polygon fill="midnightblue" stroke="midnightblue" points="188.226,-40.8325 185.268,-30.659 181.236,-40.4567 188.226,-40.8325"/>
</g>
</g>
</svg>
