<?xml version="1.0" encoding="UTF-8" standalone="no"?>
<!DOCTYPE svg PUBLIC "-//W3C//DTD SVG 1.1//EN"
 "http://www.w3.org/Graphics/SVG/1.1/DTD/svg11.dtd">
<!-- Generated by graphviz version 2.38.0 (20140413.2041)
 -->
<!-- Title: scram::core::Variable Pages: 1 -->
<svg width="172pt" height="491pt"
 viewBox="0.00 0.00 172.00 491.00" xmlns="http://www.w3.org/2000/svg" xmlns:xlink="http://www.w3.org/1999/xlink">
<g id="graph0" class="graph" transform="scale(1 1) rotate(0) translate(4 487)">
<title>scram::core::Variable</title>
<polygon fill="white" stroke="none" points="-4,4 -4,-487 168,-487 168,4 -4,4"/>
<!-- Node1 -->
<g id="node1" class="node"><title>Node1</title>
<polygon fill="#bfbfbf" stroke="black" points="27,-0.5 27,-68.5 137,-68.5 137,-0.5 27,-0.5"/>
<text text-anchor="middle" x="82" y="-56.5" font-family="Helvetica,sans-Serif" font-size="10.00">scram::core::Variable</text>
<polyline fill="none" stroke="black" points="27,-49.5 137,-49.5 "/>
<text text-anchor="middle" x="82" y="-37.5" font-family="Helvetica,sans-Serif" font-size="10.00"> </text>
<polyline fill="none" stroke="black" points="27,-30.5 137,-30.5 "/>
<text text-anchor="start" x="35" y="-18.5" font-family="Helvetica,sans-Serif" font-size="10.00">+ Variable()</text>
<text text-anchor="start" x="35" y="-7.5" font-family="Helvetica,sans-Serif" font-size="10.00">+ ResetIndex()</text>
</g>
<!-- Node2 -->
<g id="node2" class="node"><title>Node2</title>
<g id="a_node2"><a xlink:href="classscram_1_1core_1_1Node.xhtml" target="_top" xlink:title="An abstract base class that represents a node in a Boolean graph. ">
<polygon fill="white" stroke="black" points="33,-105.5 33,-283.5 131,-283.5 131,-105.5 33,-105.5"/>
<text text-anchor="middle" x="82" y="-271.5" font-family="Helvetica,sans-Serif" font-size="10.00">scram::core::Node</text>
<polyline fill="none" stroke="black" points="33,-264.5 131,-264.5 "/>
<text text-anchor="middle" x="82" y="-252.5" font-family="Helvetica,sans-Serif" font-size="10.00"> </text>
<polyline fill="none" stroke="black" points="33,-245.5 131,-245.5 "/>
<text text-anchor="start" x="41" y="-233.5" font-family="Helvetica,sans-Serif" font-size="10.00">+ Node()</text>
<text text-anchor="start" x="41" y="-222.5" font-family="Helvetica,sans-Serif" font-size="10.00">+ Node()</text>
<text text-anchor="start" x="41" y="-211.5" font-family="Helvetica,sans-Serif" font-size="10.00">+ ~Node()</text>
<text text-anchor="start" x="41" y="-200.5" font-family="Helvetica,sans-Serif" font-size="10.00">+ index()</text>
<text text-anchor="start" x="41" y="-189.5" font-family="Helvetica,sans-Serif" font-size="10.00">+ order()</text>
<text text-anchor="start" x="41" y="-178.5" font-family="Helvetica,sans-Serif" font-size="10.00">+ order()</text>
<text text-anchor="start" x="41" y="-167.5" font-family="Helvetica,sans-Serif" font-size="10.00">+ opti_value()</text>
<text text-anchor="start" x="41" y="-156.5" font-family="Helvetica,sans-Serif" font-size="10.00">+ opti_value()</text>
<text text-anchor="start" x="41" y="-145.5" font-family="Helvetica,sans-Serif" font-size="10.00">+ Visit()</text>
<text text-anchor="start" x="41" y="-134.5" font-family="Helvetica,sans-Serif" font-size="10.00">+ EnterTime()</text>
<text text-anchor="start" x="41" y="-123.5" font-family="Helvetica,sans-Serif" font-size="10.00">and 11 more...</text>
<text text-anchor="start" x="41" y="-112.5" font-family="Helvetica,sans-Serif" font-size="10.00">+ ResetIndex()</text>
</a>
</g>
</g>
<!-- Node2&#45;&gt;Node1 -->
<g id="edge1" class="edge"><title>Node2&#45;&gt;Node1</title>
<path fill="none" stroke="midnightblue" d="M82,-94.9951C82,-85.6501 82,-76.6935 82,-68.6942"/>
<polygon fill="none" stroke="midnightblue" points="78.5001,-95.261 82,-105.261 85.5001,-95.2611 78.5001,-95.261"/>
</g>
<!-- Node3 -->
<g id="node3" class="node"><title>Node3</title>
<g id="a_node3"><a xlink:href="classscram_1_1core_1_1NodeParentManager.xhtml" target="_top" xlink:title="A manager of information about parents. ">
<polygon fill="white" stroke="black" points="0,-320.5 0,-388.5 164,-388.5 164,-320.5 0,-320.5"/>
<text text-anchor="middle" x="82" y="-376.5" font-family="Helvetica,sans-Serif" font-size="10.00">scram::core::NodeParentManager</text>
<polyline fill="none" stroke="black" points="0,-369.5 164,-369.5 "/>
<text text-anchor="middle" x="82" y="-357.5" font-family="Helvetica,sans-Serif" font-size="10.00"> </text>
<polyline fill="none" stroke="black" points="0,-350.5 164,-350.5 "/>
<text text-anchor="start" x="8" y="-338.5" font-family="Helvetica,sans-Serif" font-size="10.00">+ parents()</text>
<text text-anchor="start" x="8" y="-327.5" font-family="Helvetica,sans-Serif" font-size="10.00"># ~NodeParentManager()</text>
</a>
</g>
</g>
<!-- Node3&#45;&gt;Node2 -->
<g id="edge2" class="edge"><title>Node3&#45;&gt;Node2</title>
<path fill="none" stroke="midnightblue" d="M82,-310.189C82,-301.83 82,-292.795 82,-283.594"/>
<polygon fill="none" stroke="midnightblue" points="78.5001,-310.378 82,-320.378 85.5001,-310.378 78.5001,-310.378"/>
</g>
<!-- Node4 -->
<g id="node4" class="node"><title>Node4</title>
<polygon fill="white" stroke="#bfbfbf" points="46.5,-425.5 46.5,-482.5 117.5,-482.5 117.5,-425.5 46.5,-425.5"/>
<text text-anchor="middle" x="82" y="-470.5" font-family="Helvetica,sans-Serif" font-size="10.00">noncopyable</text>
<polyline fill="none" stroke="#bfbfbf" points="46.5,-463.5 117.5,-463.5 "/>
<text text-anchor="middle" x="82" y="-451.5" font-family="Helvetica,sans-Serif" font-size="10.00"> </text>
<polyline fill="none" stroke="#bfbfbf" points="46.5,-444.5 117.5,-444.5 "/>
<text text-anchor="middle" x="82" y="-432.5" font-family="Helvetica,sans-Serif" font-size="10.00"> </text>
</g>
<!-- Node4&#45;&gt;Node3 -->
<g id="edge3" class="edge"><title>Node4&#45;&gt;Node3</title>
<path fill="none" stroke="#8b1a1a" d="M82,-415.063C82,-406.393 82,-397.243 82,-388.786"/>
<polygon fill="none" stroke="#8b1a1a" points="78.5001,-415.321 82,-425.321 85.5001,-415.321 78.5001,-415.321"/>
</g>
</g>
</svg>
