<?xml version="1.0" encoding="UTF-8" standalone="no"?>
<!DOCTYPE svg PUBLIC "-//W3C//DTD SVG 1.1//EN"
 "http://www.w3.org/Graphics/SVG/1.1/DTD/svg11.dtd">
<!-- Generated by graphviz version 2.38.0 (20140413.2041)
 -->
<!-- Title: scram::core::Analysis::AddAnalysisTime Pages: 1 -->
<!--zoomable 197 -->
<svg id="main" version="1.1" xmlns="http://www.w3.org/2000/svg" xmlns:xlink="http://www.w3.org/1999/xlink" xml:space="preserve" onload="init(evt)">
<style type="text/css"><![CDATA[
.edge:hover path { stroke: red; }
.edge:hover polygon { stroke: red; fill: red; }
]]></style>
<script type="text/javascript"><![CDATA[
var edges = document.getElementsByTagName('g');
if (edges && edges.length) {
  for (var i=0;i<edges.length;i++) {
    if (edges[i].id.substr(0,4)=='edge') {
      edges[i].setAttribute('class','edge');
    }
  }
}
]]></script>
        <defs>
                <circle id="rim" cx="0" cy="0" r="7"/>
                <circle id="rim2" cx="0" cy="0" r="3.5"/>
                <g id="zoomPlus">
                        <use xlink:href="#rim" fill="#404040">
                                <set attributeName="fill" to="#808080" begin="zoomplus.mouseover" end="zoomplus.mouseout"/>
                        </use>
                        <path d="M-4,0h8M0,-4v8" fill="none" stroke="white" stroke-width="1.5" pointer-events="none"/>
                </g>
                <g id="zoomMin">
                        <use xlink:href="#rim" fill="#404040">
                                <set attributeName="fill" to="#808080" begin="zoomminus.mouseover" end="zoomminus.mouseout"/>
                        </use>
                        <path d="M-4,0h8" fill="none" stroke="white" stroke-width="1.5" pointer-events="none"/>
                </g>
                <g id="dirArrow">
                        <path fill="none" stroke="white" stroke-width="1.5" d="M0,-3.0v7 M-2.5,-0.5L0,-3.0L2.5,-0.5"/>
                </g>
               <g id="resetDef">
                       <use xlink:href="#rim2" fill="#404040">
                               <set attributeName="fill" to="#808080" begin="reset.mouseover" end="reset.mouseout"/>
                       </use>
               </g>
        </defs>

<script type="text/javascript">
var viewWidth = 851;
var viewHeight = 197;
var sectionId = 'dynsection-7';
</script>
<script xlink:href="svgpan.js"/>
<svg id="graph" class="graph">
<g id="viewport">
<title>scram::core::Analysis::AddAnalysisTime</title>
<polygon fill="white" stroke="none" points="-4,4 -4,-192.5 847,-192.5 847,4 -4,4"/>
<!-- Node1 -->
<g id="node1" class="node"><title>Node1</title>
<polygon fill="#bfbfbf" stroke="black" points="0,-84 0,-114 112,-114 112,-84 0,-84"/>
<text text-anchor="start" x="8" y="-102" font-family="Helvetica,sans-Serif" font-size="10.00">scram::core::Analysis</text>
<text text-anchor="middle" x="56" y="-91" font-family="Helvetica,sans-Serif" font-size="10.00">::AddAnalysisTime</text>
</g>
<!-- Node2 -->
<g id="node2" class="node"><title>Node2</title>
<g id="a_node2"><a xlink:href="classscram_1_1core_1_1ProbabilityAnalysis.xhtml#ab68a356b0bdeb793d30d3b6e84847d12" target="_top" xlink:title="Performs quantitative analysis on the supplied fault tree. ">
<polygon fill="white" stroke="black" points="168.5,-158 168.5,-188 288.5,-188 288.5,-158 168.5,-158"/>
<text text-anchor="start" x="176.5" y="-176" font-family="Helvetica,sans-Serif" font-size="10.00">scram::core::Probability</text>
<text text-anchor="middle" x="228.5" y="-165" font-family="Helvetica,sans-Serif" font-size="10.00">Analysis::Analyze</text>
</a>
</g>
</g>
<!-- Node1&#45;&gt;Node2 -->
<g id="edge1" class="edge"><title>Node1&#45;&gt;Node2</title>
<path fill="none" stroke="midnightblue" d="M89.9546,-119.292C106.882,-129.146 128.089,-140.633 148,-149 155.709,-152.239 164.006,-155.243 172.228,-157.951"/>
<polygon fill="midnightblue" stroke="midnightblue" points="91.4157,-116.09 81.0259,-114.015 87.8545,-122.116 91.4157,-116.09"/>
</g>
<!-- Node6 -->
<g id="node6" class="node"><title>Node6</title>
<g id="a_node6"><a xlink:href="classscram_1_1core_1_1UncertaintyAnalysis.xhtml#a38f984572d8b7fbeb819e933f9bc3a3b" target="_top" xlink:title="Performs quantitative analysis on the total probability. ">
<polygon fill="white" stroke="black" points="166,-109 166,-139 291,-139 291,-109 166,-109"/>
<text text-anchor="start" x="174" y="-127" font-family="Helvetica,sans-Serif" font-size="10.00">scram::core::Uncertainty</text>
<text text-anchor="middle" x="228.5" y="-116" font-family="Helvetica,sans-Serif" font-size="10.00">Analysis::Analyze</text>
</a>
</g>
</g>
<!-- Node1&#45;&gt;Node6 -->
<g id="edge5" class="edge"><title>Node1&#45;&gt;Node6</title>
<path fill="none" stroke="midnightblue" d="M122.57,-108.614C136.819,-110.704 151.843,-112.907 165.931,-114.972"/>
<polygon fill="midnightblue" stroke="midnightblue" points="122.758,-105.105 112.356,-107.117 121.743,-112.031 122.758,-105.105"/>
</g>
<!-- Node7 -->
<g id="node7" class="node"><title>Node7</title>
<g id="a_node7"><a xlink:href="classscram_1_1core_1_1ImportanceAnalysis.xhtml#acf487235f07ddcc1c920943ebfe2ce60" target="_top" xlink:title="Performs quantitative analysis of importance factors of basic events in products. ...">
<polygon fill="white" stroke="black" points="148,-60 148,-90 309,-90 309,-60 148,-60"/>
<text text-anchor="start" x="156" y="-78" font-family="Helvetica,sans-Serif" font-size="10.00">scram::core::ImportanceAnalysis</text>
<text text-anchor="middle" x="228.5" y="-67" font-family="Helvetica,sans-Serif" font-size="10.00">::Analyze</text>
</a>
</g>
</g>
<!-- Node1&#45;&gt;Node7 -->
<g id="edge7" class="edge"><title>Node1&#45;&gt;Node7</title>
<path fill="none" stroke="midnightblue" d="M122.403,-89.7938C130.768,-88.6163 139.403,-87.4008 147.96,-86.1962"/>
<polygon fill="midnightblue" stroke="midnightblue" points="121.771,-86.3481 112.356,-91.2079 122.747,-93.2798 121.771,-86.3481"/>
</g>
<!-- Node8 -->
<g id="node8" class="node"><title>Node8</title>
<g id="a_node8"><a xlink:href="classscram_1_1core_1_1ProbabilityAnalyzer_3_01Bdd_01_4.xhtml#a517506c181102100cc6a3e96710813c6" target="_top" xlink:title="Calculates the total probability with a different set of probability values than the one given upon c...">
<polygon fill="white" stroke="black" points="149,-0.5 149,-41.5 308,-41.5 308,-0.5 149,-0.5"/>
<text text-anchor="start" x="157" y="-29.5" font-family="Helvetica,sans-Serif" font-size="10.00">scram::core::Probability</text>
<text text-anchor="start" x="157" y="-18.5" font-family="Helvetica,sans-Serif" font-size="10.00">Analyzer&lt; Bdd &gt;::CalculateTotal</text>
<text text-anchor="middle" x="228.5" y="-7.5" font-family="Helvetica,sans-Serif" font-size="10.00">Probability</text>
</a>
</g>
</g>
<!-- Node1&#45;&gt;Node8 -->
<g id="edge9" class="edge"><title>Node1&#45;&gt;Node8</title>
<path fill="none" stroke="midnightblue" d="M92.471,-78.9729C109.093,-69.9311 129.311,-59.4157 148,-51 155.129,-47.7897 162.714,-44.6228 170.26,-41.6189"/>
<polygon fill="midnightblue" stroke="midnightblue" points="90.7205,-75.9411 83.6393,-83.8219 94.0894,-82.0771 90.7205,-75.9411"/>
</g>
<!-- Node3 -->
<g id="node3" class="node"><title>Node3</title>
<g id="a_node3"><a xlink:href="classscram_1_1core_1_1RiskAnalysis.xhtml#a7aed757ac5a7a96878c2706a7a9710bb" target="_top" xlink:title="Analyzes the model and performs computations specified in the settings. ">
<polygon fill="white" stroke="black" points="345,-109 345,-139 477,-139 477,-109 345,-109"/>
<text text-anchor="start" x="353" y="-127" font-family="Helvetica,sans-Serif" font-size="10.00">scram::core::RiskAnalysis</text>
<text text-anchor="middle" x="411" y="-116" font-family="Helvetica,sans-Serif" font-size="10.00">::Analyze</text>
</a>
</g>
</g>
<!-- Node2&#45;&gt;Node3 -->
<g id="edge2" class="edge"><title>Node2&#45;&gt;Node3</title>
<path fill="none" stroke="midnightblue" d="M294.88,-155.252C314.442,-149.941 335.696,-144.171 354.555,-139.052"/>
<polygon fill="midnightblue" stroke="midnightblue" points="293.863,-151.901 285.129,-157.899 295.696,-158.656 293.863,-151.901"/>
</g>
<!-- Node4 -->
<g id="node4" class="node"><title>Node4</title>
<g id="a_node4"><a xlink:href="classscram_1_1core_1_1RiskAnalysis.xhtml#a337f7e9fe02b1581e872590d6f7baa01" target="_top" xlink:title="scram::core::RiskAnalysis\l::model">
<polygon fill="white" stroke="black" points="513,-109 513,-139 645,-139 645,-109 513,-109"/>
<text text-anchor="start" x="521" y="-127" font-family="Helvetica,sans-Serif" font-size="10.00">scram::core::RiskAnalysis</text>
<text text-anchor="middle" x="579" y="-116" font-family="Helvetica,sans-Serif" font-size="10.00">::model</text>
</a>
</g>
</g>
<!-- Node3&#45;&gt;Node4 -->
<g id="edge3" class="edge"><title>Node3&#45;&gt;Node4</title>
<path fill="none" stroke="midnightblue" d="M487.393,-124C495.869,-124 504.452,-124 512.784,-124"/>
<polygon fill="midnightblue" stroke="midnightblue" points="487.131,-120.5 477.131,-124 487.131,-127.5 487.131,-120.5"/>
</g>
<!-- Node5 -->
<g id="node5" class="node"><title>Node5</title>
<g id="a_node5"><a xlink:href="reporter_8cc.xhtml#ad6460094a94fb73e56c2a4a5efc598ed" target="_top" xlink:title="Describes all performed analyses deduced from settings. ">
<polygon fill="white" stroke="black" points="681,-109 681,-139 843,-139 843,-109 681,-109"/>
<text text-anchor="start" x="689" y="-127" font-family="Helvetica,sans-Serif" font-size="10.00">scram::ReportCalculatedQuantity</text>
<text text-anchor="middle" x="762" y="-116" font-family="Helvetica,sans-Serif" font-size="10.00">&lt; core::RiskAnalysis &gt;</text>
</a>
</g>
</g>
<!-- Node4&#45;&gt;Node5 -->
<g id="edge4" class="edge"><title>Node4&#45;&gt;Node5</title>
<path fill="none" stroke="midnightblue" d="M655.239,-124C663.65,-124 672.243,-124 680.714,-124"/>
<polygon fill="midnightblue" stroke="midnightblue" points="655.089,-120.5 645.089,-124 655.089,-127.5 655.089,-120.5"/>
</g>
<!-- Node6&#45;&gt;Node3 -->
<g id="edge6" class="edge"><title>Node6&#45;&gt;Node3</title>
<path fill="none" stroke="midnightblue" d="M301.444,-124C315.82,-124 330.843,-124 344.969,-124"/>
<polygon fill="midnightblue" stroke="midnightblue" points="301.113,-120.5 291.113,-124 301.113,-127.5 301.113,-120.5"/>
</g>
<!-- Node7&#45;&gt;Node3 -->
<g id="edge8" class="edge"><title>Node7&#45;&gt;Node3</title>
<path fill="none" stroke="midnightblue" d="M294.88,-92.7485C314.442,-98.0591 335.696,-103.829 354.555,-108.948"/>
<polygon fill="midnightblue" stroke="midnightblue" points="295.696,-89.3436 285.129,-90.1014 293.863,-96.0991 295.696,-89.3436"/>
</g>
</g>
</svg>
        <g id="navigator" transform="translate(0 0)" fill="#404254">
                <rect fill="#f2f5e9" fill-opacity="0.5" stroke="#606060" stroke-width=".5" x="0" y="0" width="60" height="60"/>
                <use id="zoomplus" xlink:href="#zoomPlus" x="17" y="9" onmousedown="handleZoom(evt,'in')"/>
                <use id="zoomminus" xlink:href="#zoomMin" x="42" y="9" onmousedown="handleZoom(evt,'out')"/>
                <use id="reset" xlink:href="#resetDef" x="30" y="36" onmousedown="handleReset()"/>
                <g id="arrowUp" xlink:href="#dirArrow" transform="translate(30 24)" onmousedown="handlePan(0,-1)">
                  <use xlink:href="#rim" fill="#404040">
                        <set attributeName="fill" to="#808080" begin="arrowUp.mouseover" end="arrowUp.mouseout"/>
                  </use>
                  <path fill="none" stroke="white" stroke-width="1.5" d="M0,-3.0v7 M-2.5,-0.5L0,-3.0L2.5,-0.5"/>
                </g>
                <g id="arrowRight" xlink:href="#dirArrow" transform="rotate(90) translate(36 -43)" onmousedown="handlePan(1,0)">
                  <use xlink:href="#rim" fill="#404040">
                        <set attributeName="fill" to="#808080" begin="arrowRight.mouseover" end="arrowRight.mouseout"/>
                  </use>
                  <path fill="none" stroke="white" stroke-width="1.5" d="M0,-3.0v7 M-2.5,-0.5L0,-3.0L2.5,-0.5"/>
                </g>
                <g id="arrowDown" xlink:href="#dirArrow" transform="rotate(180) translate(-30 -48)" onmousedown="handlePan(0,1)">
                  <use xlink:href="#rim" fill="#404040">
                        <set attributeName="fill" to="#808080" begin="arrowDown.mouseover" end="arrowDown.mouseout"/>
                  </use>
                  <path fill="none" stroke="white" stroke-width="1.5" d="M0,-3.0v7 M-2.5,-0.5L0,-3.0L2.5,-0.5"/>
                </g>
                <g id="arrowLeft" xlink:href="#dirArrow" transform="rotate(270) translate(-36 17)" onmousedown="handlePan(-1,0)">
                  <use xlink:href="#rim" fill="#404040">
                        <set attributeName="fill" to="#808080" begin="arrowLeft.mouseover" end="arrowLeft.mouseout"/>
                  </use>
                  <path fill="none" stroke="white" stroke-width="1.5" d="M0,-3.0v7 M-2.5,-0.5L0,-3.0L2.5,-0.5"/>
                </g>
        </g>
        <svg viewBox="0 0 15 15" width="100%" height="30px" preserveAspectRatio="xMaxYMin meet">
         <g id="arrow_out" transform="scale(0.3 0.3)">
          <a xlink:href="classscram_1_1core_1_1Analysis_a1a4f345f29240b0236853641f728a103_icgraph_org.svg" target="_base">
           <rect id="button" ry="5" rx="5" y="6" x="6" height="38" width="38"
                fill="#f2f5e9" fill-opacity="0.5" stroke="#606060" stroke-width="1.0"/>
           <path id="arrow"
             d="M 11.500037,31.436501 C 11.940474,20.09759 22.043105,11.32322 32.158766,21.979434 L 37.068811,17.246167 C 37.068811,17.246167 37.088388,32 37.088388,32 L 22.160133,31.978069 C 22.160133,31.978069 26.997745,27.140456 26.997745,27.140456 C 18.528582,18.264221 13.291696,25.230495 11.500037,31.436501 z"
             style="fill:#404040;"/>
          </a>
         </g>
        </svg>
</svg>
