<?xml version="1.0" encoding="UTF-8" standalone="no"?>
<!DOCTYPE svg PUBLIC "-//W3C//DTD SVG 1.1//EN"
 "http://www.w3.org/Graphics/SVG/1.1/DTD/svg11.dtd">
<!-- Generated by graphviz version 2.38.0 (20140413.2041)
 -->
<!-- Title: scram::mef::LogNormalDeviate Pages: 1 -->
<svg width="161pt" height="502pt"
 viewBox="0.00 0.00 161.00 502.00" xmlns="http://www.w3.org/2000/svg" xmlns:xlink="http://www.w3.org/1999/xlink">
<g id="graph0" class="graph" transform="scale(1 1) rotate(0) translate(4 498)">
<title>scram::mef::LogNormalDeviate</title>
<polygon fill="white" stroke="none" points="-4,4 -4,-498 157,-498 157,4 -4,4"/>
<!-- Node1 -->
<g id="node1" class="node"><title>Node1</title>
<polygon fill="#bfbfbf" stroke="black" points="0,-0.5 0,-101.5 153,-101.5 153,-0.5 0,-0.5"/>
<text text-anchor="middle" x="76.5" y="-89.5" font-family="Helvetica,sans-Serif" font-size="10.00">scram::mef::LogNormalDeviate</text>
<polyline fill="none" stroke="black" points="0,-82.5 153,-82.5 "/>
<text text-anchor="middle" x="76.5" y="-70.5" font-family="Helvetica,sans-Serif" font-size="10.00"> </text>
<polyline fill="none" stroke="black" points="0,-63.5 153,-63.5 "/>
<text text-anchor="start" x="8" y="-51.5" font-family="Helvetica,sans-Serif" font-size="10.00">+ LogNormalDeviate()</text>
<text text-anchor="start" x="8" y="-40.5" font-family="Helvetica,sans-Serif" font-size="10.00">+ Validate()</text>
<text text-anchor="start" x="8" y="-29.5" font-family="Helvetica,sans-Serif" font-size="10.00">+ Mean()</text>
<text text-anchor="start" x="8" y="-18.5" font-family="Helvetica,sans-Serif" font-size="10.00">+ Max()</text>
<text text-anchor="start" x="8" y="-7.5" font-family="Helvetica,sans-Serif" font-size="10.00">+ Min()</text>
</g>
<!-- Node2 -->
<g id="node2" class="node"><title>Node2</title>
<g id="a_node2"><a xlink:href="classscram_1_1mef_1_1RandomDeviate.xhtml" target="_top" xlink:title="Abstract base class for all deviate expressions. ">
<polygon fill="white" stroke="black" points="5,-138.5 5,-195.5 148,-195.5 148,-138.5 5,-138.5"/>
<text text-anchor="middle" x="76.5" y="-183.5" font-family="Helvetica,sans-Serif" font-size="10.00">scram::mef::RandomDeviate</text>
<polyline fill="none" stroke="black" points="5,-176.5 148,-176.5 "/>
<text text-anchor="middle" x="76.5" y="-164.5" font-family="Helvetica,sans-Serif" font-size="10.00"> </text>
<polyline fill="none" stroke="black" points="5,-157.5 148,-157.5 "/>
<text text-anchor="start" x="13" y="-145.5" font-family="Helvetica,sans-Serif" font-size="10.00">+ IsConstant()</text>
</a>
</g>
</g>
<!-- Node2&#45;&gt;Node1 -->
<g id="edge1" class="edge"><title>Node2&#45;&gt;Node1</title>
<path fill="none" stroke="midnightblue" d="M76.5,-128.354C76.5,-119.796 76.5,-110.578 76.5,-101.608"/>
<polygon fill="none" stroke="midnightblue" points="73.0001,-128.404 76.5,-138.404 80.0001,-128.404 73.0001,-128.404"/>
</g>
<!-- Node3 -->
<g id="node3" class="node"><title>Node3</title>
<g id="a_node3"><a xlink:href="classscram_1_1mef_1_1Expression.xhtml" target="_top" xlink:title="Abstract base class for all sorts of expressions to describe events. ">
<polygon fill="white" stroke="black" points="16,-232.5 16,-399.5 137,-399.5 137,-232.5 16,-232.5"/>
<text text-anchor="middle" x="76.5" y="-387.5" font-family="Helvetica,sans-Serif" font-size="10.00">scram::mef::Expression</text>
<polyline fill="none" stroke="black" points="16,-380.5 137,-380.5 "/>
<text text-anchor="middle" x="76.5" y="-368.5" font-family="Helvetica,sans-Serif" font-size="10.00"> </text>
<polyline fill="none" stroke="black" points="16,-361.5 137,-361.5 "/>
<text text-anchor="start" x="24" y="-349.5" font-family="Helvetica,sans-Serif" font-size="10.00">+ Expression()</text>
<text text-anchor="start" x="24" y="-338.5" font-family="Helvetica,sans-Serif" font-size="10.00">+ ~Expression()</text>
<text text-anchor="start" x="24" y="-327.5" font-family="Helvetica,sans-Serif" font-size="10.00">+ args()</text>
<text text-anchor="start" x="24" y="-316.5" font-family="Helvetica,sans-Serif" font-size="10.00">+ Validate()</text>
<text text-anchor="start" x="24" y="-305.5" font-family="Helvetica,sans-Serif" font-size="10.00">+ Mean()</text>
<text text-anchor="start" x="24" y="-294.5" font-family="Helvetica,sans-Serif" font-size="10.00">+ Sample()</text>
<text text-anchor="start" x="24" y="-283.5" font-family="Helvetica,sans-Serif" font-size="10.00">+ Reset()</text>
<text text-anchor="start" x="24" y="-272.5" font-family="Helvetica,sans-Serif" font-size="10.00">+ IsConstant()</text>
<text text-anchor="start" x="24" y="-261.5" font-family="Helvetica,sans-Serif" font-size="10.00">+ Max()</text>
<text text-anchor="start" x="24" y="-250.5" font-family="Helvetica,sans-Serif" font-size="10.00">+ Min()</text>
<text text-anchor="start" x="24" y="-239.5" font-family="Helvetica,sans-Serif" font-size="10.00"># AddArg()</text>
</a>
</g>
</g>
<!-- Node3&#45;&gt;Node2 -->
<g id="edge2" class="edge"><title>Node3&#45;&gt;Node2</title>
<path fill="none" stroke="midnightblue" d="M76.5,-222.36C76.5,-212.786 76.5,-203.677 76.5,-195.748"/>
<polygon fill="none" stroke="midnightblue" points="73.0001,-222.476 76.5,-232.476 80.0001,-222.476 73.0001,-222.476"/>
</g>
<!-- Node4 -->
<g id="node4" class="node"><title>Node4</title>
<polygon fill="white" stroke="#bfbfbf" points="41,-436.5 41,-493.5 112,-493.5 112,-436.5 41,-436.5"/>
<text text-anchor="middle" x="76.5" y="-481.5" font-family="Helvetica,sans-Serif" font-size="10.00">noncopyable</text>
<polyline fill="none" stroke="#bfbfbf" points="41,-474.5 112,-474.5 "/>
<text text-anchor="middle" x="76.5" y="-462.5" font-family="Helvetica,sans-Serif" font-size="10.00"> </text>
<polyline fill="none" stroke="#bfbfbf" points="41,-455.5 112,-455.5 "/>
<text text-anchor="middle" x="76.5" y="-443.5" font-family="Helvetica,sans-Serif" font-size="10.00"> </text>
</g>
<!-- Node4&#45;&gt;Node3 -->
<g id="edge3" class="edge"><title>Node4&#45;&gt;Node3</title>
<path fill="none" stroke="#8b1a1a" d="M76.5,-426.35C76.5,-418.08 76.5,-409.008 76.5,-399.738"/>
<polygon fill="none" stroke="#8b1a1a" points="73.0001,-426.35 76.5,-436.35 80.0001,-426.35 73.0001,-426.35"/>
</g>
</g>
</svg>
