<?xml version="1.0" encoding="UTF-8" standalone="no"?>
<!DOCTYPE svg PUBLIC "-//W3C//DTD SVG 1.1//EN"
 "http://www.w3.org/Graphics/SVG/1.1/DTD/svg11.dtd">
<!-- Generated by graphviz version 2.38.0 (20140413.2041)
 -->
<!-- Title: scram::mef::Event Pages: 1 -->
<svg width="431pt" height="739pt"
 viewBox="0.00 0.00 431.00 739.00" xmlns="http://www.w3.org/2000/svg" xmlns:xlink="http://www.w3.org/1999/xlink">
<g id="graph0" class="graph" transform="scale(1 1) rotate(0) translate(4 735)">
<title>scram::mef::Event</title>
<polygon fill="white" stroke="none" points="-4,4 -4,-735 427,-735 427,4 -4,4"/>
<!-- Node1 -->
<g id="node1" class="node"><title>Node1</title>
<polygon fill="#bfbfbf" stroke="black" points="175,-469.5 175,-559.5 273,-559.5 273,-469.5 175,-469.5"/>
<text text-anchor="middle" x="224" y="-547.5" font-family="Helvetica,sans-Serif" font-size="10.00">scram::mef::Event</text>
<polyline fill="none" stroke="black" points="175,-540.5 273,-540.5 "/>
<text text-anchor="middle" x="224" y="-528.5" font-family="Helvetica,sans-Serif" font-size="10.00"> </text>
<polyline fill="none" stroke="black" points="175,-521.5 273,-521.5 "/>
<text text-anchor="start" x="183" y="-509.5" font-family="Helvetica,sans-Serif" font-size="10.00">+ Event()</text>
<text text-anchor="start" x="183" y="-498.5" font-family="Helvetica,sans-Serif" font-size="10.00">+ ~Event()</text>
<text text-anchor="start" x="183" y="-487.5" font-family="Helvetica,sans-Serif" font-size="10.00">+ orphan()</text>
<text text-anchor="start" x="183" y="-476.5" font-family="Helvetica,sans-Serif" font-size="10.00">+ orphan()</text>
</g>
<!-- Node6 -->
<g id="node6" class="node"><title>Node6</title>
<g id="a_node6"><a xlink:href="classscram_1_1mef_1_1Gate.xhtml" target="_top" xlink:title="A representation of a gate in a fault tree. ">
<polygon fill="white" stroke="black" points="112.5,-320.5 112.5,-432.5 205.5,-432.5 205.5,-320.5 112.5,-320.5"/>
<text text-anchor="middle" x="159" y="-420.5" font-family="Helvetica,sans-Serif" font-size="10.00">scram::mef::Gate</text>
<polyline fill="none" stroke="black" points="112.5,-413.5 205.5,-413.5 "/>
<text text-anchor="middle" x="159" y="-401.5" font-family="Helvetica,sans-Serif" font-size="10.00"> </text>
<polyline fill="none" stroke="black" points="112.5,-394.5 205.5,-394.5 "/>
<text text-anchor="start" x="120.5" y="-382.5" font-family="Helvetica,sans-Serif" font-size="10.00">+ formula()</text>
<text text-anchor="start" x="120.5" y="-371.5" font-family="Helvetica,sans-Serif" font-size="10.00">+ Validate()</text>
<text text-anchor="start" x="120.5" y="-360.5" font-family="Helvetica,sans-Serif" font-size="10.00">+ formula()</text>
<text text-anchor="start" x="120.5" y="-349.5" font-family="Helvetica,sans-Serif" font-size="10.00">+ formula()</text>
<text text-anchor="start" x="120.5" y="-338.5" font-family="Helvetica,sans-Serif" font-size="10.00">* formula()</text>
<text text-anchor="start" x="120.5" y="-327.5" font-family="Helvetica,sans-Serif" font-size="10.00">* formula()</text>
</a>
</g>
</g>
<!-- Node1&#45;&gt;Node6 -->
<g id="edge5" class="edge"><title>Node1&#45;&gt;Node6</title>
<path fill="none" stroke="midnightblue" d="M198.507,-460.162C194.224,-451.199 189.77,-441.88 185.462,-432.867"/>
<polygon fill="none" stroke="midnightblue" points="195.426,-461.832 202.896,-469.345 201.742,-458.813 195.426,-461.832"/>
</g>
<!-- Node7 -->
<g id="node7" class="node"><title>Node7</title>
<g id="a_node7"><a xlink:href="classscram_1_1mef_1_1PrimaryEvent.xhtml" target="_top" xlink:title="This is an abstract base class for events that can cause failures. ">
<polygon fill="white" stroke="black" points="223.5,-337 223.5,-416 354.5,-416 354.5,-337 223.5,-337"/>
<text text-anchor="middle" x="289" y="-404" font-family="Helvetica,sans-Serif" font-size="10.00">scram::mef::PrimaryEvent</text>
<polyline fill="none" stroke="black" points="223.5,-397 354.5,-397 "/>
<text text-anchor="middle" x="289" y="-385" font-family="Helvetica,sans-Serif" font-size="10.00"> </text>
<polyline fill="none" stroke="black" points="223.5,-378 354.5,-378 "/>
<text text-anchor="start" x="231.5" y="-366" font-family="Helvetica,sans-Serif" font-size="10.00">+ ~PrimaryEvent()</text>
<text text-anchor="start" x="231.5" y="-355" font-family="Helvetica,sans-Serif" font-size="10.00">+ has_expression()</text>
<text text-anchor="start" x="231.5" y="-344" font-family="Helvetica,sans-Serif" font-size="10.00"># has_expression()</text>
</a>
</g>
</g>
<!-- Node1&#45;&gt;Node7 -->
<g id="edge6" class="edge"><title>Node1&#45;&gt;Node7</title>
<path fill="none" stroke="midnightblue" d="M249.592,-459.954C256.54,-445.416 263.93,-429.954 270.41,-416.395"/>
<polygon fill="none" stroke="midnightblue" points="246.258,-458.813 245.104,-469.345 252.574,-461.832 246.258,-458.813"/>
</g>
<!-- Node2 -->
<g id="node2" class="node"><title>Node2</title>
<g id="a_node2"><a xlink:href="classscram_1_1mef_1_1Element.xhtml" target="_top" xlink:title="Mixin class that represents any element of analysis that can have extra descriptions, such as attributes and a label. ">
<polygon fill="white" stroke="black" points="0,-596.5 0,-730.5 108,-730.5 108,-596.5 0,-596.5"/>
<text text-anchor="middle" x="54" y="-718.5" font-family="Helvetica,sans-Serif" font-size="10.00">scram::mef::Element</text>
<polyline fill="none" stroke="black" points="0,-711.5 108,-711.5 "/>
<text text-anchor="middle" x="54" y="-699.5" font-family="Helvetica,sans-Serif" font-size="10.00"> </text>
<polyline fill="none" stroke="black" points="0,-692.5 108,-692.5 "/>
<text text-anchor="start" x="8" y="-680.5" font-family="Helvetica,sans-Serif" font-size="10.00">+ Element()</text>
<text text-anchor="start" x="8" y="-669.5" font-family="Helvetica,sans-Serif" font-size="10.00">+ name()</text>
<text text-anchor="start" x="8" y="-658.5" font-family="Helvetica,sans-Serif" font-size="10.00">+ label()</text>
<text text-anchor="start" x="8" y="-647.5" font-family="Helvetica,sans-Serif" font-size="10.00">+ label()</text>
<text text-anchor="start" x="8" y="-636.5" font-family="Helvetica,sans-Serif" font-size="10.00">+ AddAttribute()</text>
<text text-anchor="start" x="8" y="-625.5" font-family="Helvetica,sans-Serif" font-size="10.00">+ HasAttribute()</text>
<text text-anchor="start" x="8" y="-614.5" font-family="Helvetica,sans-Serif" font-size="10.00">+ GetAttribute()</text>
<text text-anchor="start" x="8" y="-603.5" font-family="Helvetica,sans-Serif" font-size="10.00"># ~Element()</text>
</a>
</g>
</g>
<!-- Node2&#45;&gt;Node1 -->
<g id="edge1" class="edge"><title>Node2&#45;&gt;Node1</title>
<path fill="none" stroke="midnightblue" d="M115.608,-597.249C116.073,-596.83 116.537,-596.414 117,-596 135.123,-579.823 156.28,-563.44 174.974,-549.714"/>
<polygon fill="none" stroke="midnightblue" points="113.018,-594.878 108.07,-604.246 117.78,-600.009 113.018,-594.878"/>
</g>
<!-- Node3 -->
<g id="node3" class="node"><title>Node3</title>
<g id="a_node3"><a xlink:href="classscram_1_1mef_1_1Role.xhtml" target="_top" xlink:title="Mixin class that manages private or public roles for elements as needed. ">
<polygon fill="white" stroke="black" points="126,-618.5 126,-708.5 218,-708.5 218,-618.5 126,-618.5"/>
<text text-anchor="middle" x="172" y="-696.5" font-family="Helvetica,sans-Serif" font-size="10.00">scram::mef::Role</text>
<polyline fill="none" stroke="black" points="126,-689.5 218,-689.5 "/>
<text text-anchor="middle" x="172" y="-677.5" font-family="Helvetica,sans-Serif" font-size="10.00"> </text>
<polyline fill="none" stroke="black" points="126,-670.5 218,-670.5 "/>
<text text-anchor="start" x="134" y="-658.5" font-family="Helvetica,sans-Serif" font-size="10.00">+ Role()</text>
<text text-anchor="start" x="134" y="-647.5" font-family="Helvetica,sans-Serif" font-size="10.00">+ role()</text>
<text text-anchor="start" x="134" y="-636.5" font-family="Helvetica,sans-Serif" font-size="10.00">+ base_path()</text>
<text text-anchor="start" x="134" y="-625.5" font-family="Helvetica,sans-Serif" font-size="10.00"># ~Role()</text>
</a>
</g>
</g>
<!-- Node3&#45;&gt;Node1 -->
<g id="edge2" class="edge"><title>Node3&#45;&gt;Node1</title>
<path fill="none" stroke="midnightblue" d="M191.079,-608.566C196.78,-592.449 202.96,-574.979 208.409,-559.574"/>
<polygon fill="none" stroke="midnightblue" points="187.637,-607.8 187.602,-618.395 194.236,-610.135 187.637,-607.8"/>
</g>
<!-- Node4 -->
<g id="node4" class="node"><title>Node4</title>
<g id="a_node4"><a xlink:href="classscram_1_1mef_1_1Id.xhtml" target="_top" xlink:title="Mixin class for assigning unique identifiers to elements. ">
<polygon fill="white" stroke="black" points="236,-624 236,-703 316,-703 316,-624 236,-624"/>
<text text-anchor="middle" x="276" y="-691" font-family="Helvetica,sans-Serif" font-size="10.00">scram::mef::Id</text>
<polyline fill="none" stroke="black" points="236,-684 316,-684 "/>
<text text-anchor="middle" x="276" y="-672" font-family="Helvetica,sans-Serif" font-size="10.00"> </text>
<polyline fill="none" stroke="black" points="236,-665 316,-665 "/>
<text text-anchor="start" x="244" y="-653" font-family="Helvetica,sans-Serif" font-size="10.00">+ Id()</text>
<text text-anchor="start" x="244" y="-642" font-family="Helvetica,sans-Serif" font-size="10.00">+ id()</text>
<text text-anchor="start" x="244" y="-631" font-family="Helvetica,sans-Serif" font-size="10.00"># ~Id()</text>
</a>
</g>
</g>
<!-- Node4&#45;&gt;Node1 -->
<g id="edge3" class="edge"><title>Node4&#45;&gt;Node1</title>
<path fill="none" stroke="midnightblue" d="M258.963,-614.337C252.724,-596.699 245.7,-576.843 239.593,-559.58"/>
<polygon fill="none" stroke="midnightblue" points="255.703,-615.617 262.338,-623.877 262.302,-613.283 255.703,-615.617"/>
</g>
<!-- Node5 -->
<g id="node5" class="node"><title>Node5</title>
<polygon fill="white" stroke="#bfbfbf" points="334.5,-635 334.5,-692 405.5,-692 405.5,-635 334.5,-635"/>
<text text-anchor="middle" x="370" y="-680" font-family="Helvetica,sans-Serif" font-size="10.00">noncopyable</text>
<polyline fill="none" stroke="#bfbfbf" points="334.5,-673 405.5,-673 "/>
<text text-anchor="middle" x="370" y="-661" font-family="Helvetica,sans-Serif" font-size="10.00"> </text>
<polyline fill="none" stroke="#bfbfbf" points="334.5,-654 405.5,-654 "/>
<text text-anchor="middle" x="370" y="-642" font-family="Helvetica,sans-Serif" font-size="10.00"> </text>
</g>
<!-- Node5&#45;&gt;Node1 -->
<g id="edge4" class="edge"><title>Node5&#45;&gt;Node1</title>
<path fill="none" stroke="#8b1a1a" d="M348.484,-626.443C341.581,-616.126 333.504,-605.195 325,-596 309.547,-579.291 290.47,-563.178 273.073,-549.814"/>
<polygon fill="none" stroke="#8b1a1a" points="345.606,-628.436 353.99,-634.913 351.475,-624.621 345.606,-628.436"/>
</g>
<!-- Node8 -->
<g id="node8" class="node"><title>Node8</title>
<g id="a_node8"><a xlink:href="classscram_1_1mef_1_1BasicEvent.xhtml" target="_top" xlink:title="Representation of a basic event in a fault tree. ">
<polygon fill="white" stroke="black" points="157,-127.5 157,-283.5 279,-283.5 279,-127.5 157,-127.5"/>
<text text-anchor="middle" x="218" y="-271.5" font-family="Helvetica,sans-Serif" font-size="10.00">scram::mef::BasicEvent</text>
<polyline fill="none" stroke="black" points="157,-264.5 279,-264.5 "/>
<text text-anchor="middle" x="218" y="-252.5" font-family="Helvetica,sans-Serif" font-size="10.00"> </text>
<polyline fill="none" stroke="black" points="157,-245.5 279,-245.5 "/>
<text text-anchor="start" x="165" y="-233.5" font-family="Helvetica,sans-Serif" font-size="10.00">+ ~BasicEvent()</text>
<text text-anchor="start" x="165" y="-222.5" font-family="Helvetica,sans-Serif" font-size="10.00">+ expression()</text>
<text text-anchor="start" x="165" y="-211.5" font-family="Helvetica,sans-Serif" font-size="10.00">+ p()</text>
<text text-anchor="start" x="165" y="-200.5" font-family="Helvetica,sans-Serif" font-size="10.00">+ SampleProbability()</text>
<text text-anchor="start" x="165" y="-189.5" font-family="Helvetica,sans-Serif" font-size="10.00">+ Reset()</text>
<text text-anchor="start" x="165" y="-178.5" font-family="Helvetica,sans-Serif" font-size="10.00">+ IsConstant()</text>
<text text-anchor="start" x="165" y="-167.5" font-family="Helvetica,sans-Serif" font-size="10.00">+ Validate()</text>
<text text-anchor="start" x="165" y="-156.5" font-family="Helvetica,sans-Serif" font-size="10.00">+ HasCcf()</text>
<text text-anchor="start" x="165" y="-145.5" font-family="Helvetica,sans-Serif" font-size="10.00">+ ccf_gate()</text>
<text text-anchor="start" x="165" y="-134.5" font-family="Helvetica,sans-Serif" font-size="10.00">+ ccf_gate()</text>
</a>
</g>
</g>
<!-- Node7&#45;&gt;Node8 -->
<g id="edge7" class="edge"><title>Node7&#45;&gt;Node8</title>
<path fill="none" stroke="midnightblue" d="M268.689,-327.155C262.995,-313.601 256.659,-298.518 250.447,-283.734"/>
<polygon fill="none" stroke="midnightblue" points="265.611,-328.864 272.711,-336.728 272.065,-326.153 265.611,-328.864"/>
</g>
<!-- Node10 -->
<g id="node10" class="node"><title>Node10</title>
<g id="a_node10"><a xlink:href="classscram_1_1mef_1_1HouseEvent.xhtml" target="_top" xlink:title="Representation of a house event in a fault tree. ">
<polygon fill="white" stroke="black" points="297,-171.5 297,-239.5 423,-239.5 423,-171.5 297,-171.5"/>
<text text-anchor="middle" x="360" y="-227.5" font-family="Helvetica,sans-Serif" font-size="10.00">scram::mef::HouseEvent</text>
<polyline fill="none" stroke="black" points="297,-220.5 423,-220.5 "/>
<text text-anchor="middle" x="360" y="-208.5" font-family="Helvetica,sans-Serif" font-size="10.00"> </text>
<polyline fill="none" stroke="black" points="297,-201.5 423,-201.5 "/>
<text text-anchor="start" x="305" y="-189.5" font-family="Helvetica,sans-Serif" font-size="10.00">+ state()</text>
<text text-anchor="start" x="305" y="-178.5" font-family="Helvetica,sans-Serif" font-size="10.00">+ state()</text>
</a>
</g>
</g>
<!-- Node7&#45;&gt;Node10 -->
<g id="edge9" class="edge"><title>Node7&#45;&gt;Node10</title>
<path fill="none" stroke="midnightblue" d="M309.17,-327.489C320.961,-299.424 335.544,-264.713 346.062,-239.677"/>
<polygon fill="none" stroke="midnightblue" points="305.935,-326.153 305.289,-336.728 312.389,-328.864 305.935,-326.153"/>
</g>
<!-- Node9 -->
<g id="node9" class="node"><title>Node9</title>
<g id="a_node9"><a xlink:href="classscram_1_1mef_1_1CcfEvent.xhtml" target="_top" xlink:title="A basic event that represents a multiple failure of a group of events due to a common cause...">
<polygon fill="white" stroke="black" points="161.5,-0.5 161.5,-90.5 274.5,-90.5 274.5,-0.5 161.5,-0.5"/>
<text text-anchor="middle" x="218" y="-78.5" font-family="Helvetica,sans-Serif" font-size="10.00">scram::mef::CcfEvent</text>
<polyline fill="none" stroke="black" points="161.5,-71.5 274.5,-71.5 "/>
<text text-anchor="middle" x="218" y="-59.5" font-family="Helvetica,sans-Serif" font-size="10.00"> </text>
<polyline fill="none" stroke="black" points="161.5,-52.5 274.5,-52.5 "/>
<text text-anchor="start" x="169.5" y="-40.5" font-family="Helvetica,sans-Serif" font-size="10.00">+ CcfEvent()</text>
<text text-anchor="start" x="169.5" y="-29.5" font-family="Helvetica,sans-Serif" font-size="10.00">+ ccf_group()</text>
<text text-anchor="start" x="169.5" y="-18.5" font-family="Helvetica,sans-Serif" font-size="10.00">+ members()</text>
<text text-anchor="start" x="169.5" y="-7.5" font-family="Helvetica,sans-Serif" font-size="10.00">+ members()</text>
</a>
</g>
</g>
<!-- Node8&#45;&gt;Node9 -->
<g id="edge8" class="edge"><title>Node8&#45;&gt;Node9</title>
<path fill="none" stroke="midnightblue" d="M218,-117.082C218,-108.019 218,-99.1063 218,-90.8271"/>
<polygon fill="none" stroke="midnightblue" points="214.5,-117.351 218,-127.351 221.5,-117.351 214.5,-117.351"/>
</g>
</g>
</svg>
