<?xml version="1.0" encoding="UTF-8" standalone="no"?>
<!DOCTYPE svg PUBLIC "-//W3C//DTD SVG 1.1//EN"
 "http://www.w3.org/Graphics/SVG/1.1/DTD/svg11.dtd">
<!-- Generated by graphviz version 2.38.0 (20140413.2041)
 -->
<!-- Title: scram::mef::Div Pages: 1 -->
<svg width="157pt" height="491pt"
 viewBox="0.00 0.00 157.00 491.00" xmlns="http://www.w3.org/2000/svg" xmlns:xlink="http://www.w3.org/1999/xlink">
<g id="graph0" class="graph" transform="scale(1 1) rotate(0) translate(4 487)">
<title>scram::mef::Div</title>
<polygon fill="white" stroke="none" points="-4,4 -4,-487 153,-487 153,4 -4,4"/>
<!-- Node1 -->
<g id="node1" class="node"><title>Node1</title>
<polygon fill="#bfbfbf" stroke="black" points="31,-0.5 31,-90.5 118,-90.5 118,-0.5 31,-0.5"/>
<text text-anchor="middle" x="74.5" y="-78.5" font-family="Helvetica,sans-Serif" font-size="10.00">scram::mef::Div</text>
<polyline fill="none" stroke="black" points="31,-71.5 118,-71.5 "/>
<text text-anchor="middle" x="74.5" y="-59.5" font-family="Helvetica,sans-Serif" font-size="10.00"> </text>
<polyline fill="none" stroke="black" points="31,-52.5 118,-52.5 "/>
<text text-anchor="start" x="39" y="-40.5" font-family="Helvetica,sans-Serif" font-size="10.00">+ Validate()</text>
<text text-anchor="start" x="39" y="-29.5" font-family="Helvetica,sans-Serif" font-size="10.00">+ Mean()</text>
<text text-anchor="start" x="39" y="-18.5" font-family="Helvetica,sans-Serif" font-size="10.00">+ Max()</text>
<text text-anchor="start" x="39" y="-7.5" font-family="Helvetica,sans-Serif" font-size="10.00">+ Min()</text>
</g>
<!-- Node2 -->
<g id="node2" class="node"><title>Node2</title>
<g id="a_node2"><a xlink:href="classscram_1_1mef_1_1BinaryExpression.xhtml" target="_top" xlink:title="Base class for expressions that require 2 or more arguments. ">
<polygon fill="white" stroke="black" points="-1.42109e-14,-127.5 -1.42109e-14,-184.5 149,-184.5 149,-127.5 -1.42109e-14,-127.5"/>
<text text-anchor="middle" x="74.5" y="-172.5" font-family="Helvetica,sans-Serif" font-size="10.00">scram::mef::BinaryExpression</text>
<polyline fill="none" stroke="black" points="-1.42109e-14,-165.5 149,-165.5 "/>
<text text-anchor="middle" x="74.5" y="-153.5" font-family="Helvetica,sans-Serif" font-size="10.00"> </text>
<polyline fill="none" stroke="black" points="-1.42109e-14,-146.5 149,-146.5 "/>
<text text-anchor="start" x="8" y="-134.5" font-family="Helvetica,sans-Serif" font-size="10.00">+ BinaryExpression()</text>
</a>
</g>
</g>
<!-- Node2&#45;&gt;Node1 -->
<g id="edge1" class="edge"><title>Node2&#45;&gt;Node1</title>
<path fill="none" stroke="midnightblue" d="M74.5,-117.214C74.5,-108.609 74.5,-99.3943 74.5,-90.5541"/>
<polygon fill="none" stroke="midnightblue" points="71.0001,-117.34 74.5,-127.34 78.0001,-117.34 71.0001,-117.34"/>
</g>
<!-- Node3 -->
<g id="node3" class="node"><title>Node3</title>
<g id="a_node3"><a xlink:href="classscram_1_1mef_1_1Expression.xhtml" target="_top" xlink:title="Abstract base class for all sorts of expressions to describe events. ">
<polygon fill="white" stroke="black" points="14,-221.5 14,-388.5 135,-388.5 135,-221.5 14,-221.5"/>
<text text-anchor="middle" x="74.5" y="-376.5" font-family="Helvetica,sans-Serif" font-size="10.00">scram::mef::Expression</text>
<polyline fill="none" stroke="black" points="14,-369.5 135,-369.5 "/>
<text text-anchor="middle" x="74.5" y="-357.5" font-family="Helvetica,sans-Serif" font-size="10.00"> </text>
<polyline fill="none" stroke="black" points="14,-350.5 135,-350.5 "/>
<text text-anchor="start" x="22" y="-338.5" font-family="Helvetica,sans-Serif" font-size="10.00">+ Expression()</text>
<text text-anchor="start" x="22" y="-327.5" font-family="Helvetica,sans-Serif" font-size="10.00">+ ~Expression()</text>
<text text-anchor="start" x="22" y="-316.5" font-family="Helvetica,sans-Serif" font-size="10.00">+ args()</text>
<text text-anchor="start" x="22" y="-305.5" font-family="Helvetica,sans-Serif" font-size="10.00">+ Validate()</text>
<text text-anchor="start" x="22" y="-294.5" font-family="Helvetica,sans-Serif" font-size="10.00">+ Mean()</text>
<text text-anchor="start" x="22" y="-283.5" font-family="Helvetica,sans-Serif" font-size="10.00">+ Sample()</text>
<text text-anchor="start" x="22" y="-272.5" font-family="Helvetica,sans-Serif" font-size="10.00">+ Reset()</text>
<text text-anchor="start" x="22" y="-261.5" font-family="Helvetica,sans-Serif" font-size="10.00">+ IsConstant()</text>
<text text-anchor="start" x="22" y="-250.5" font-family="Helvetica,sans-Serif" font-size="10.00">+ Max()</text>
<text text-anchor="start" x="22" y="-239.5" font-family="Helvetica,sans-Serif" font-size="10.00">+ Min()</text>
<text text-anchor="start" x="22" y="-228.5" font-family="Helvetica,sans-Serif" font-size="10.00"># AddArg()</text>
</a>
</g>
</g>
<!-- Node3&#45;&gt;Node2 -->
<g id="edge2" class="edge"><title>Node3&#45;&gt;Node2</title>
<path fill="none" stroke="midnightblue" d="M74.5,-211.36C74.5,-201.786 74.5,-192.677 74.5,-184.748"/>
<polygon fill="none" stroke="midnightblue" points="71.0001,-211.476 74.5,-221.476 78.0001,-211.476 71.0001,-211.476"/>
</g>
<!-- Node4 -->
<g id="node4" class="node"><title>Node4</title>
<polygon fill="white" stroke="#bfbfbf" points="39,-425.5 39,-482.5 110,-482.5 110,-425.5 39,-425.5"/>
<text text-anchor="middle" x="74.5" y="-470.5" font-family="Helvetica,sans-Serif" font-size="10.00">noncopyable</text>
<polyline fill="none" stroke="#bfbfbf" points="39,-463.5 110,-463.5 "/>
<text text-anchor="middle" x="74.5" y="-451.5" font-family="Helvetica,sans-Serif" font-size="10.00"> </text>
<polyline fill="none" stroke="#bfbfbf" points="39,-444.5 110,-444.5 "/>
<text text-anchor="middle" x="74.5" y="-432.5" font-family="Helvetica,sans-Serif" font-size="10.00"> </text>
</g>
<!-- Node4&#45;&gt;Node3 -->
<g id="edge3" class="edge"><title>Node4&#45;&gt;Node3</title>
<path fill="none" stroke="#8b1a1a" d="M74.5,-415.35C74.5,-407.08 74.5,-398.008 74.5,-388.738"/>
<polygon fill="none" stroke="#8b1a1a" points="71.0001,-415.35 74.5,-425.35 78.0001,-415.35 71.0001,-415.35"/>
</g>
</g>
</svg>
