<?xml version="1.0" encoding="UTF-8" standalone="no"?>
<!DOCTYPE svg PUBLIC "-//W3C//DTD SVG 1.1//EN"
 "http://www.w3.org/Graphics/SVG/1.1/DTD/svg11.dtd">
<!-- Generated by graphviz version 2.38.0 (20140413.2041)
 -->
<!-- Title: scram::core::Terminal&lt; T &gt; Pages: 1 -->
<svg width="144pt" height="331pt"
 viewBox="0.00 0.00 144.00 331.00" xmlns="http://www.w3.org/2000/svg" xmlns:xlink="http://www.w3.org/1999/xlink">
<g id="graph0" class="graph" transform="scale(1 1) rotate(0) translate(4 327)">
<title>scram::core::Terminal&lt; T &gt;</title>
<polygon fill="white" stroke="none" points="-4,4 -4,-327 140,-327 140,4 -4,4"/>
<!-- Node1 -->
<g id="node1" class="node"><title>Node1</title>
<polygon fill="#bfbfbf" stroke="black" points="0,-0.5 0,-79.5 136,-79.5 136,-0.5 0,-0.5"/>
<text text-anchor="middle" x="68" y="-67.5" font-family="Helvetica,sans-Serif" font-size="10.00">scram::core::Terminal&lt; T &gt;</text>
<polyline fill="none" stroke="black" points="0,-60.5 136,-60.5 "/>
<text text-anchor="middle" x="68" y="-48.5" font-family="Helvetica,sans-Serif" font-size="10.00"> </text>
<polyline fill="none" stroke="black" points="0,-41.5 136,-41.5 "/>
<text text-anchor="start" x="8" y="-29.5" font-family="Helvetica,sans-Serif" font-size="10.00">+ Terminal()</text>
<text text-anchor="start" x="8" y="-18.5" font-family="Helvetica,sans-Serif" font-size="10.00">+ value()</text>
<text text-anchor="start" x="8" y="-7.5" font-family="Helvetica,sans-Serif" font-size="10.00">+ Ptr()</text>
</g>
<!-- Node2 -->
<g id="node2" class="node"><title>Node2</title>
<g id="a_node2"><a xlink:href="classscram_1_1core_1_1Vertex.xhtml" target="_top" xlink:title="Representation of a vertex in BDD graphs. ">
<polygon fill="white" stroke="black" points="4.5,-116.5 4.5,-228.5 131.5,-228.5 131.5,-116.5 4.5,-116.5"/>
<text text-anchor="middle" x="68" y="-216.5" font-family="Helvetica,sans-Serif" font-size="10.00">scram::core::Vertex&lt; T &gt;</text>
<polyline fill="none" stroke="black" points="4.5,-209.5 131.5,-209.5 "/>
<text text-anchor="middle" x="68" y="-197.5" font-family="Helvetica,sans-Serif" font-size="10.00"> </text>
<polyline fill="none" stroke="black" points="4.5,-190.5 131.5,-190.5 "/>
<text text-anchor="start" x="12.5" y="-178.5" font-family="Helvetica,sans-Serif" font-size="10.00">+ Vertex()</text>
<text text-anchor="start" x="12.5" y="-167.5" font-family="Helvetica,sans-Serif" font-size="10.00">+ id()</text>
<text text-anchor="start" x="12.5" y="-156.5" font-family="Helvetica,sans-Serif" font-size="10.00">+ terminal()</text>
<text text-anchor="start" x="12.5" y="-145.5" font-family="Helvetica,sans-Serif" font-size="10.00">+ use_count()</text>
<text text-anchor="start" x="12.5" y="-134.5" font-family="Helvetica,sans-Serif" font-size="10.00">+ unique()</text>
<text text-anchor="start" x="12.5" y="-123.5" font-family="Helvetica,sans-Serif" font-size="10.00"># ~Vertex()</text>
</a>
</g>
</g>
<!-- Node2&#45;&gt;Node1 -->
<g id="edge1" class="edge"><title>Node2&#45;&gt;Node1</title>
<path fill="none" stroke="midnightblue" d="M68,-106.056C68,-97.0806 68,-88.1097 68,-79.823"/>
<polygon fill="none" stroke="midnightblue" points="64.5001,-106.156 68,-116.156 71.5001,-106.156 64.5001,-106.156"/>
</g>
<!-- Node3 -->
<g id="node3" class="node"><title>Node3</title>
<polygon fill="white" stroke="#bfbfbf" points="32.5,-265.5 32.5,-322.5 103.5,-322.5 103.5,-265.5 32.5,-265.5"/>
<text text-anchor="middle" x="68" y="-310.5" font-family="Helvetica,sans-Serif" font-size="10.00">noncopyable</text>
<polyline fill="none" stroke="#bfbfbf" points="32.5,-303.5 103.5,-303.5 "/>
<text text-anchor="middle" x="68" y="-291.5" font-family="Helvetica,sans-Serif" font-size="10.00"> </text>
<polyline fill="none" stroke="#bfbfbf" points="32.5,-284.5 103.5,-284.5 "/>
<text text-anchor="middle" x="68" y="-272.5" font-family="Helvetica,sans-Serif" font-size="10.00"> </text>
</g>
<!-- Node3&#45;&gt;Node2 -->
<g id="edge2" class="edge"><title>Node3&#45;&gt;Node2</title>
<path fill="none" stroke="#8b1a1a" d="M68,-255.108C68,-246.748 68,-237.725 68,-228.834"/>
<polygon fill="none" stroke="#8b1a1a" points="64.5001,-255.284 68,-265.284 71.5001,-255.284 64.5001,-255.284"/>
</g>
</g>
</svg>
