<?xml version="1.0" encoding="UTF-8" standalone="no"?>
<!DOCTYPE svg PUBLIC "-//W3C//DTD SVG 1.1//EN"
 "http://www.w3.org/Graphics/SVG/1.1/DTD/svg11.dtd">
<!-- Generated by graphviz version 2.38.0 (20140413.2041)
 -->
<!-- Title: scram::core::ImportanceAnalyzer&lt; Bdd &gt; Pages: 1 -->
<svg width="266pt" height="749pt"
 viewBox="0.00 0.00 266.00 749.00" xmlns="http://www.w3.org/2000/svg" xmlns:xlink="http://www.w3.org/1999/xlink">
<g id="graph0" class="graph" transform="scale(1 1) rotate(0) translate(4 745)">
<title>scram::core::ImportanceAnalyzer&lt; Bdd &gt;</title>
<polygon fill="white" stroke="none" points="-4,4 -4,-745 262,-745 262,4 -4,4"/>
<!-- Node1 -->
<g id="node1" class="node"><title>Node1</title>
<polygon fill="#bfbfbf" stroke="black" points="23,-0.5 23,-68.5 184,-68.5 184,-0.5 23,-0.5"/>
<text text-anchor="start" x="31" y="-56.5" font-family="Helvetica,sans-Serif" font-size="10.00">scram::core::ImportanceAnalyzer</text>
<text text-anchor="middle" x="103.5" y="-45.5" font-family="Helvetica,sans-Serif" font-size="10.00">&lt; Bdd &gt;</text>
<polyline fill="none" stroke="black" points="23,-38.5 184,-38.5 "/>
<text text-anchor="middle" x="103.5" y="-26.5" font-family="Helvetica,sans-Serif" font-size="10.00"> </text>
<polyline fill="none" stroke="black" points="23,-19.5 184,-19.5 "/>
<text text-anchor="start" x="31" y="-7.5" font-family="Helvetica,sans-Serif" font-size="10.00">+ ImportanceAnalyzer()</text>
</g>
<!-- Node2 -->
<g id="node2" class="node"><title>Node2</title>
<g id="a_node2"><a xlink:href="classscram_1_1core_1_1ImportanceAnalyzerBase.xhtml" target="_top" xlink:title="{scram::core::ImportanceAnalyzer\lBase\&lt; Bdd \&gt;\n||+ ImportanceAnalyzerBase()\l# ~ImportanceAnalyzerBase()\l# prob_analyzer()\l}">
<polygon fill="white" stroke="black" points="23,-106.5 23,-196.5 184,-196.5 184,-106.5 23,-106.5"/>
<text text-anchor="start" x="31" y="-184.5" font-family="Helvetica,sans-Serif" font-size="10.00">scram::core::ImportanceAnalyzer</text>
<text text-anchor="middle" x="103.5" y="-173.5" font-family="Helvetica,sans-Serif" font-size="10.00">Base&lt; Bdd &gt;</text>
<polyline fill="none" stroke="black" points="23,-166.5 184,-166.5 "/>
<text text-anchor="middle" x="103.5" y="-154.5" font-family="Helvetica,sans-Serif" font-size="10.00"> </text>
<polyline fill="none" stroke="black" points="23,-147.5 184,-147.5 "/>
<text text-anchor="start" x="31" y="-135.5" font-family="Helvetica,sans-Serif" font-size="10.00">+ ImportanceAnalyzerBase()</text>
<text text-anchor="start" x="31" y="-124.5" font-family="Helvetica,sans-Serif" font-size="10.00"># ~ImportanceAnalyzerBase()</text>
<text text-anchor="start" x="31" y="-113.5" font-family="Helvetica,sans-Serif" font-size="10.00"># prob_analyzer()</text>
</a>
</g>
</g>
<!-- Node2&#45;&gt;Node1 -->
<g id="edge1" class="edge"><title>Node2&#45;&gt;Node1</title>
<path fill="none" stroke="midnightblue" d="M103.5,-96.2309C103.5,-86.8035 103.5,-77.2599 103.5,-68.6181"/>
<polygon fill="none" stroke="midnightblue" points="100,-96.3669 103.5,-106.367 107,-96.3669 100,-96.3669"/>
</g>
<!-- Node3 -->
<g id="node3" class="node"><title>Node3</title>
<g id="a_node3"><a xlink:href="classscram_1_1core_1_1ImportanceAnalysis.xhtml" target="_top" xlink:title="Analysis of importance factors of risk model variables. ">
<polygon fill="white" stroke="black" points="0,-372.5 0,-484.5 161,-484.5 161,-372.5 0,-372.5"/>
<text text-anchor="middle" x="80.5" y="-472.5" font-family="Helvetica,sans-Serif" font-size="10.00">scram::core::ImportanceAnalysis</text>
<polyline fill="none" stroke="black" points="0,-465.5 161,-465.5 "/>
<text text-anchor="middle" x="80.5" y="-453.5" font-family="Helvetica,sans-Serif" font-size="10.00"> </text>
<polyline fill="none" stroke="black" points="0,-446.5 161,-446.5 "/>
<text text-anchor="start" x="8" y="-434.5" font-family="Helvetica,sans-Serif" font-size="10.00">+ ImportanceAnalysis()</text>
<text text-anchor="start" x="8" y="-423.5" font-family="Helvetica,sans-Serif" font-size="10.00">+ ~ImportanceAnalysis()</text>
<text text-anchor="start" x="8" y="-412.5" font-family="Helvetica,sans-Serif" font-size="10.00">+ Analyze()</text>
<text text-anchor="start" x="8" y="-401.5" font-family="Helvetica,sans-Serif" font-size="10.00">+ importance()</text>
<text text-anchor="start" x="8" y="-390.5" font-family="Helvetica,sans-Serif" font-size="10.00">+ important_events()</text>
<text text-anchor="start" x="8" y="-379.5" font-family="Helvetica,sans-Serif" font-size="10.00"># GatherImportantEvents()</text>
</a>
</g>
</g>
<!-- Node3&#45;&gt;Node2 -->
<g id="edge2" class="edge"><title>Node3&#45;&gt;Node2</title>
<path fill="none" stroke="midnightblue" d="M80.8517,-362.231C81.5791,-327.112 83.355,-283.098 87.5,-244 89.1491,-228.445 91.8456,-211.541 94.5591,-196.543"/>
<polygon fill="none" stroke="midnightblue" points="77.35,-362.295 80.6656,-372.358 84.3488,-362.424 77.35,-362.295"/>
</g>
<!-- Node6 -->
<g id="node6" class="node"><title>Node6</title>
<g id="a_node6"><a xlink:href="classscram_1_1core_1_1ImportanceAnalyzerBase.xhtml" target="_top" xlink:title="Base class for analyzers of importance factors with the help from probability analyzers. ">
<polygon fill="white" stroke="black" points="97,-244.5 97,-334.5 258,-334.5 258,-244.5 97,-244.5"/>
<text text-anchor="start" x="105" y="-322.5" font-family="Helvetica,sans-Serif" font-size="10.00">scram::core::ImportanceAnalyzer</text>
<text text-anchor="middle" x="177.5" y="-311.5" font-family="Helvetica,sans-Serif" font-size="10.00">Base&lt; Calculator &gt;</text>
<polyline fill="none" stroke="black" points="97,-304.5 258,-304.5 "/>
<text text-anchor="middle" x="177.5" y="-292.5" font-family="Helvetica,sans-Serif" font-size="10.00"> </text>
<polyline fill="none" stroke="black" points="97,-285.5 258,-285.5 "/>
<text text-anchor="start" x="105" y="-273.5" font-family="Helvetica,sans-Serif" font-size="10.00">+ ImportanceAnalyzerBase()</text>
<text text-anchor="start" x="105" y="-262.5" font-family="Helvetica,sans-Serif" font-size="10.00"># ~ImportanceAnalyzerBase()</text>
<text text-anchor="start" x="105" y="-251.5" font-family="Helvetica,sans-Serif" font-size="10.00"># prob_analyzer()</text>
</a>
</g>
</g>
<!-- Node3&#45;&gt;Node6 -->
<g id="edge6" class="edge"><title>Node3&#45;&gt;Node6</title>
<path fill="none" stroke="midnightblue" d="M125.52,-363.916C132.521,-354.027 139.62,-344 146.229,-334.667"/>
<polygon fill="none" stroke="midnightblue" points="122.596,-361.988 119.674,-372.172 128.309,-366.033 122.596,-361.988"/>
</g>
<!-- Node4 -->
<g id="node4" class="node"><title>Node4</title>
<g id="a_node4"><a xlink:href="classscram_1_1core_1_1Analysis.xhtml" target="_top" xlink:title="Base abstract class for all analysis with settings. ">
<polygon fill="white" stroke="black" points="24.5,-522.5 24.5,-645.5 136.5,-645.5 136.5,-522.5 24.5,-522.5"/>
<text text-anchor="middle" x="80.5" y="-633.5" font-family="Helvetica,sans-Serif" font-size="10.00">scram::core::Analysis</text>
<polyline fill="none" stroke="black" points="24.5,-626.5 136.5,-626.5 "/>
<text text-anchor="middle" x="80.5" y="-614.5" font-family="Helvetica,sans-Serif" font-size="10.00"> </text>
<polyline fill="none" stroke="black" points="24.5,-607.5 136.5,-607.5 "/>
<text text-anchor="start" x="32.5" y="-595.5" font-family="Helvetica,sans-Serif" font-size="10.00">+ Analysis()</text>
<text text-anchor="start" x="32.5" y="-584.5" font-family="Helvetica,sans-Serif" font-size="10.00">+ ~Analysis()</text>
<text text-anchor="start" x="32.5" y="-573.5" font-family="Helvetica,sans-Serif" font-size="10.00">+ settings()</text>
<text text-anchor="start" x="32.5" y="-562.5" font-family="Helvetica,sans-Serif" font-size="10.00">+ warnings()</text>
<text text-anchor="start" x="32.5" y="-551.5" font-family="Helvetica,sans-Serif" font-size="10.00">+ analysis_time()</text>
<text text-anchor="start" x="32.5" y="-540.5" font-family="Helvetica,sans-Serif" font-size="10.00"># AddWarning()</text>
<text text-anchor="start" x="32.5" y="-529.5" font-family="Helvetica,sans-Serif" font-size="10.00"># AddAnalysisTime()</text>
</a>
</g>
</g>
<!-- Node4&#45;&gt;Node3 -->
<g id="edge3" class="edge"><title>Node4&#45;&gt;Node3</title>
<path fill="none" stroke="midnightblue" d="M80.5,-512.055C80.5,-502.886 80.5,-493.605 80.5,-484.741"/>
<polygon fill="none" stroke="midnightblue" points="77.0001,-512.333 80.5,-522.333 84.0001,-512.333 77.0001,-512.333"/>
</g>
<!-- Node5 -->
<g id="node5" class="node"><title>Node5</title>
<polygon fill="white" stroke="#bfbfbf" points="45,-683.5 45,-740.5 116,-740.5 116,-683.5 45,-683.5"/>
<text text-anchor="middle" x="80.5" y="-728.5" font-family="Helvetica,sans-Serif" font-size="10.00">noncopyable</text>
<polyline fill="none" stroke="#bfbfbf" points="45,-721.5 116,-721.5 "/>
<text text-anchor="middle" x="80.5" y="-709.5" font-family="Helvetica,sans-Serif" font-size="10.00"> </text>
<polyline fill="none" stroke="#bfbfbf" points="45,-702.5 116,-702.5 "/>
<text text-anchor="middle" x="80.5" y="-690.5" font-family="Helvetica,sans-Serif" font-size="10.00"> </text>
</g>
<!-- Node5&#45;&gt;Node4 -->
<g id="edge4" class="edge"><title>Node5&#45;&gt;Node4</title>
<path fill="none" stroke="#8b1a1a" d="M80.5,-673.182C80.5,-664.491 80.5,-655.033 80.5,-645.646"/>
<polygon fill="none" stroke="#8b1a1a" points="77.0001,-673.349 80.5,-683.349 84.0001,-673.349 77.0001,-673.349"/>
</g>
<!-- Node6&#45;&gt;Node2 -->
<g id="edge5" class="edge"><title>Node6&#45;&gt;Node2</title>
<path fill="none" stroke="orange" d="M148.529,-235.256C141.622,-222.562 134.323,-209.148 127.658,-196.899"/>
<polygon fill="orange" stroke="orange" points="145.62,-237.234 153.474,-244.345 151.769,-233.888 145.62,-237.234"/>
<text text-anchor="middle" x="162" y="-218" font-family="Helvetica,sans-Serif" font-size="10.00"> &lt; Bdd &gt;</text>
</g>
</g>
</svg>
