<?xml version="1.0" encoding="UTF-8" standalone="no"?>
<!DOCTYPE svg PUBLIC "-//W3C//DTD SVG 1.1//EN"
 "http://www.w3.org/Graphics/SVG/1.1/DTD/svg11.dtd">
<!-- Generated by graphviz version 2.38.0 (20140413.2041)
 -->
<!-- Title: scram::core::Node::opti_value Pages: 1 -->
<svg width="1881pt" height="218pt"
 viewBox="0.00 0.00 1881.00 218.00" xmlns="http://www.w3.org/2000/svg" xmlns:xlink="http://www.w3.org/1999/xlink">
<g id="graph0" class="graph" transform="scale(1 1) rotate(0) translate(4 214)">
<title>scram::core::Node::opti_value</title>
<polygon fill="white" stroke="none" points="-4,4 -4,-214 1877,-214 1877,4 -4,4"/>
<!-- Node1 -->
<g id="node1" class="node"><title>Node1</title>
<polygon fill="#bfbfbf" stroke="black" points="0,-66.5 0,-96.5 104,-96.5 104,-66.5 0,-66.5"/>
<text text-anchor="start" x="8" y="-84.5" font-family="Helvetica,sans-Serif" font-size="10.00">scram::core::Node::</text>
<text text-anchor="middle" x="52" y="-73.5" font-family="Helvetica,sans-Serif" font-size="10.00">opti_value</text>
</g>
<!-- Node2 -->
<g id="node2" class="node"><title>Node2</title>
<g id="a_node2"><a xlink:href="classscram_1_1core_1_1Preprocessor.xhtml#ae9a8bac98061d7f82633486ed6a36861" target="_top" xlink:title="Propagates failure or success of a common node by setting its ancestors&#39; optimization values to 1 or ...">
<polygon fill="white" stroke="black" points="140,-66.5 140,-96.5 272,-96.5 272,-66.5 140,-66.5"/>
<text text-anchor="start" x="148" y="-84.5" font-family="Helvetica,sans-Serif" font-size="10.00">scram::core::Preprocessor</text>
<text text-anchor="middle" x="206" y="-73.5" font-family="Helvetica,sans-Serif" font-size="10.00">::PropagateState</text>
</a>
</g>
</g>
<!-- Node1&#45;&gt;Node2 -->
<g id="edge1" class="edge"><title>Node1&#45;&gt;Node2</title>
<path fill="none" stroke="midnightblue" d="M114.168,-81.5C122.602,-81.5 131.289,-81.5 139.792,-81.5"/>
<polygon fill="midnightblue" stroke="midnightblue" points="114.037,-78.0001 104.037,-81.5 114.037,-85.0001 114.037,-78.0001"/>
</g>
<!-- Node3 -->
<g id="node3" class="node"><title>Node3</title>
<g id="a_node3"><a xlink:href="classscram_1_1core_1_1Preprocessor.xhtml#a4086c57695d49b4770915d5d53bd47de" target="_top" xlink:title="Tries to simplify the graph by removing redundancies generated by a common node. ">
<polygon fill="white" stroke="black" points="308,-66.5 308,-96.5 440,-96.5 440,-66.5 308,-66.5"/>
<text text-anchor="start" x="316" y="-84.5" font-family="Helvetica,sans-Serif" font-size="10.00">scram::core::Preprocessor</text>
<text text-anchor="middle" x="374" y="-73.5" font-family="Helvetica,sans-Serif" font-size="10.00">::ProcessCommonNode</text>
</a>
</g>
</g>
<!-- Node2&#45;&gt;Node3 -->
<g id="edge2" class="edge"><title>Node2&#45;&gt;Node3</title>
<path fill="none" stroke="midnightblue" d="M282.393,-81.5C290.869,-81.5 299.452,-81.5 307.784,-81.5"/>
<polygon fill="midnightblue" stroke="midnightblue" points="282.131,-78.0001 272.131,-81.5 282.131,-85.0001 282.131,-78.0001"/>
</g>
<!-- Node4 -->
<g id="node4" class="node"><title>Node4</title>
<g id="a_node4"><a xlink:href="classscram_1_1core_1_1Preprocessor.xhtml#aebc709ad2e097c24e837889a6a9e4696" target="_top" xlink:title="Propagates failures of common nodes to detect redundancy. ">
<polygon fill="white" stroke="black" points="476,-66.5 476,-96.5 608,-96.5 608,-66.5 476,-66.5"/>
<text text-anchor="start" x="484" y="-84.5" font-family="Helvetica,sans-Serif" font-size="10.00">scram::core::Preprocessor</text>
<text text-anchor="middle" x="542" y="-73.5" font-family="Helvetica,sans-Serif" font-size="10.00">::BooleanOptimization</text>
</a>
</g>
</g>
<!-- Node3&#45;&gt;Node4 -->
<g id="edge3" class="edge"><title>Node3&#45;&gt;Node4</title>
<path fill="none" stroke="midnightblue" d="M450.393,-81.5C458.869,-81.5 467.452,-81.5 475.784,-81.5"/>
<polygon fill="midnightblue" stroke="midnightblue" points="450.131,-78.0001 440.131,-81.5 450.131,-85.0001 450.131,-78.0001"/>
</g>
<!-- Node5 -->
<g id="node5" class="node"><title>Node5</title>
<g id="a_node5"><a xlink:href="classscram_1_1core_1_1Preprocessor.xhtml#a9d5f89471499508eb9e6c01ea43e0f15" target="_top" xlink:title="Preprocessing phase of the original structure of the graph. ">
<polygon fill="white" stroke="black" points="644,-66.5 644,-96.5 776,-96.5 776,-66.5 644,-66.5"/>
<text text-anchor="start" x="652" y="-84.5" font-family="Helvetica,sans-Serif" font-size="10.00">scram::core::Preprocessor</text>
<text text-anchor="middle" x="710" y="-73.5" font-family="Helvetica,sans-Serif" font-size="10.00">::RunPhaseTwo</text>
</a>
</g>
</g>
<!-- Node4&#45;&gt;Node5 -->
<g id="edge4" class="edge"><title>Node4&#45;&gt;Node5</title>
<path fill="none" stroke="midnightblue" d="M618.393,-81.5C626.869,-81.5 635.452,-81.5 643.784,-81.5"/>
<polygon fill="midnightblue" stroke="midnightblue" points="618.131,-78.0001 608.131,-81.5 618.131,-85.0001 618.131,-78.0001"/>
</g>
<!-- Node6 -->
<g id="node6" class="node"><title>Node6</title>
<g id="a_node6"><a xlink:href="classscram_1_1core_1_1Preprocessor.xhtml#a2b6705e815fa3d02119c405b483766d5" target="_top" xlink:title="Runs the default preprocessing that achieves the graph in a normal form. ">
<polygon fill="white" stroke="black" points="980,-104 980,-123 1136,-123 1136,-104 980,-104"/>
<text text-anchor="middle" x="1058" y="-111" font-family="Helvetica,sans-Serif" font-size="10.00">scram::core::Preprocessor::Run</text>
</a>
</g>
</g>
<!-- Node5&#45;&gt;Node6 -->
<g id="edge5" class="edge"><title>Node5&#45;&gt;Node6</title>
<path fill="none" stroke="midnightblue" d="M744.964,-101.39C763.985,-111.375 788.537,-122.408 812,-127.5 881.114,-142.498 963.611,-132.159 1013.07,-123.035"/>
<polygon fill="midnightblue" stroke="midnightblue" points="746.562,-98.2751 736.1,-96.6033 743.236,-104.434 746.562,-98.2751"/>
</g>
<!-- Node14 -->
<g id="node14" class="node"><title>Node14</title>
<g id="a_node14"><a xlink:href="classscram_1_1core_1_1Preprocessor.xhtml#abf2c66723172a85b2ae87ef2a034cd1f" target="_top" xlink:title="Application of gate normalization. ">
<polygon fill="white" stroke="black" points="812,-88.5 812,-118.5 944,-118.5 944,-88.5 812,-88.5"/>
<text text-anchor="start" x="820" y="-106.5" font-family="Helvetica,sans-Serif" font-size="10.00">scram::core::Preprocessor</text>
<text text-anchor="middle" x="878" y="-95.5" font-family="Helvetica,sans-Serif" font-size="10.00">::RunPhaseThree</text>
</a>
</g>
</g>
<!-- Node5&#45;&gt;Node14 -->
<g id="edge13" class="edge"><title>Node5&#45;&gt;Node14</title>
<path fill="none" stroke="midnightblue" d="M786.114,-91.4548C794.681,-92.5902 803.361,-93.7406 811.784,-94.8569"/>
<polygon fill="midnightblue" stroke="midnightblue" points="786.504,-87.9761 776.131,-90.1318 785.585,-94.9154 786.504,-87.9761"/>
</g>
<!-- Node15 -->
<g id="node15" class="node"><title>Node15</title>
<g id="a_node15"><a xlink:href="classscram_1_1core_1_1Preprocessor.xhtml#a5c224938dfba861f061525658bd7b156" target="_top" xlink:title="Propagation of complements. ">
<polygon fill="white" stroke="black" points="992,-44.5 992,-74.5 1124,-74.5 1124,-44.5 992,-44.5"/>
<text text-anchor="start" x="1000" y="-62.5" font-family="Helvetica,sans-Serif" font-size="10.00">scram::core::Preprocessor</text>
<text text-anchor="middle" x="1058" y="-51.5" font-family="Helvetica,sans-Serif" font-size="10.00">::RunPhaseFour</text>
</a>
</g>
</g>
<!-- Node5&#45;&gt;Node15 -->
<g id="edge15" class="edge"><title>Node5&#45;&gt;Node15</title>
<path fill="none" stroke="midnightblue" d="M786.097,-76.7251C847.493,-72.8213 933.413,-67.3581 991.918,-63.6381"/>
<polygon fill="midnightblue" stroke="midnightblue" points="785.838,-73.2344 776.08,-77.362 786.282,-80.2203 785.838,-73.2344"/>
</g>
<!-- Node16 -->
<g id="node16" class="node"><title>Node16</title>
<g id="a_node16"><a xlink:href="classscram_1_1core_1_1Preprocessor.xhtml#a3569bbcd5e863c750cdfa69115399600" target="_top" xlink:title="The final phase that cleans up the graph, and puts the structure of the graph ready for analysis...">
<polygon fill="white" stroke="black" points="812,-0.5 812,-30.5 944,-30.5 944,-0.5 812,-0.5"/>
<text text-anchor="start" x="820" y="-18.5" font-family="Helvetica,sans-Serif" font-size="10.00">scram::core::Preprocessor</text>
<text text-anchor="middle" x="878" y="-7.5" font-family="Helvetica,sans-Serif" font-size="10.00">::RunPhaseFive</text>
</a>
</g>
</g>
<!-- Node5&#45;&gt;Node16 -->
<g id="edge17" class="edge"><title>Node5&#45;&gt;Node16</title>
<path fill="none" stroke="midnightblue" d="M758.58,-62.5827C784.131,-52.424 815.193,-40.0737 839.093,-30.5713"/>
<polygon fill="midnightblue" stroke="midnightblue" points="757.083,-59.4112 749.084,-66.3583 759.669,-65.916 757.083,-59.4112"/>
</g>
<!-- Node7 -->
<g id="node7" class="node"><title>Node7</title>
<g id="a_node7"><a xlink:href="classscram_1_1core_1_1FaultTreeAnalyzer.xhtml#af6d3e735d4200c3efed0164c58aabf57" target="_top" xlink:title="Runs fault tree analysis with the given algorithm. ">
<polygon fill="white" stroke="black" points="1178.5,-179.5 1178.5,-209.5 1332.5,-209.5 1332.5,-179.5 1178.5,-179.5"/>
<text text-anchor="start" x="1186.5" y="-197.5" font-family="Helvetica,sans-Serif" font-size="10.00">scram::core::FaultTreeAnalyzer</text>
<text text-anchor="middle" x="1255.5" y="-186.5" font-family="Helvetica,sans-Serif" font-size="10.00">::Analyze</text>
</a>
</g>
</g>
<!-- Node6&#45;&gt;Node7 -->
<g id="edge6" class="edge"><title>Node6&#45;&gt;Node7</title>
<path fill="none" stroke="midnightblue" d="M1085.15,-128.01C1107.69,-140.143 1141.36,-157.364 1172,-169.5 1181.04,-173.083 1190.81,-176.458 1200.36,-179.5"/>
<polygon fill="midnightblue" stroke="midnightblue" points="1086.66,-124.851 1076.21,-123.151 1083.32,-131.001 1086.66,-124.851"/>
</g>
<!-- Node11 -->
<g id="node11" class="node"><title>Node11</title>
<g id="a_node11"><a xlink:href="classscram_1_1core_1_1CustomPreprocessor_3_01Bdd_01_4.xhtml#a8cf4307236cd521e39a2c6feb21f3214" target="_top" xlink:title="Performs preprocessing for analyses with Binary Decision Diagrams. ">
<polygon fill="white" stroke="black" points="1172,-130.5 1172,-160.5 1339,-160.5 1339,-130.5 1172,-130.5"/>
<text text-anchor="start" x="1180" y="-148.5" font-family="Helvetica,sans-Serif" font-size="10.00">scram::core::CustomPreprocessor</text>
<text text-anchor="middle" x="1255.5" y="-137.5" font-family="Helvetica,sans-Serif" font-size="10.00">&lt; Bdd &gt;::Run</text>
</a>
</g>
</g>
<!-- Node6&#45;&gt;Node11 -->
<g id="edge10" class="edge"><title>Node6&#45;&gt;Node11</title>
<path fill="none" stroke="midnightblue" d="M1127,-124.631C1141.52,-127.007 1157,-129.542 1172,-131.996"/>
<polygon fill="midnightblue" stroke="midnightblue" points="1127.56,-121.176 1117.13,-123.014 1126.43,-128.084 1127.56,-121.176"/>
</g>
<!-- Node12 -->
<g id="node12" class="node"><title>Node12</title>
<g id="a_node12"><a xlink:href="classscram_1_1core_1_1CustomPreprocessor_3_01Zbdd_01_4.xhtml#a5185075f852c647c7aa4313d23420ee5" target="_top" xlink:title="Performs preprocessing for analyses with Zero&#45;Suppressed Binary Decision Diagrams. ">
<polygon fill="white" stroke="black" points="1172,-22.5 1172,-52.5 1339,-52.5 1339,-22.5 1172,-22.5"/>
<text text-anchor="start" x="1180" y="-40.5" font-family="Helvetica,sans-Serif" font-size="10.00">scram::core::CustomPreprocessor</text>
<text text-anchor="middle" x="1255.5" y="-29.5" font-family="Helvetica,sans-Serif" font-size="10.00">&lt; Zbdd &gt;::Run</text>
</a>
</g>
</g>
<!-- Node6&#45;&gt;Node12 -->
<g id="edge11" class="edge"><title>Node6&#45;&gt;Node12</title>
<path fill="none" stroke="midnightblue" d="M1096.38,-100.459C1109.16,-95.6036 1123.4,-89.7433 1136,-83.5 1152.8,-75.1749 1154.85,-69.0744 1172,-61.5 1179.51,-58.186 1187.59,-55.1882 1195.67,-52.5237"/>
<polygon fill="midnightblue" stroke="midnightblue" points="1095.1,-97.2005 1086.95,-103.966 1097.54,-103.762 1095.1,-97.2005"/>
</g>
<!-- Node13 -->
<g id="node13" class="node"><title>Node13</title>
<g id="a_node13"><a xlink:href="classscram_1_1core_1_1ProbabilityAnalyzer_3_01Bdd_01_4.xhtml#a517506c181102100cc6a3e96710813c6" target="_top" xlink:title="Calculates the total probability with a different set of probability values than the one given upon c...">
<polygon fill="white" stroke="black" points="1176,-71 1176,-112 1335,-112 1335,-71 1176,-71"/>
<text text-anchor="start" x="1184" y="-100" font-family="Helvetica,sans-Serif" font-size="10.00">scram::core::Probability</text>
<text text-anchor="start" x="1184" y="-89" font-family="Helvetica,sans-Serif" font-size="10.00">Analyzer&lt; Bdd &gt;::CalculateTotal</text>
<text text-anchor="middle" x="1255.5" y="-78" font-family="Helvetica,sans-Serif" font-size="10.00">Probability</text>
</a>
</g>
</g>
<!-- Node6&#45;&gt;Node13 -->
<g id="edge12" class="edge"><title>Node6&#45;&gt;Node13</title>
<path fill="none" stroke="midnightblue" d="M1146.42,-103.662C1156.23,-102.558 1166.18,-101.439 1175.87,-100.348"/>
<polygon fill="midnightblue" stroke="midnightblue" points="1145.81,-100.209 1136.27,-104.805 1146.6,-107.165 1145.81,-100.209"/>
</g>
<!-- Node8 -->
<g id="node8" class="node"><title>Node8</title>
<g id="a_node8"><a xlink:href="classscram_1_1core_1_1RiskAnalysis.xhtml#a7aed757ac5a7a96878c2706a7a9710bb" target="_top" xlink:title="Analyzes the model and performs computations specified in the settings. ">
<polygon fill="white" stroke="black" points="1375,-179.5 1375,-209.5 1507,-209.5 1507,-179.5 1375,-179.5"/>
<text text-anchor="start" x="1383" y="-197.5" font-family="Helvetica,sans-Serif" font-size="10.00">scram::core::RiskAnalysis</text>
<text text-anchor="middle" x="1441" y="-186.5" font-family="Helvetica,sans-Serif" font-size="10.00">::Analyze</text>
</a>
</g>
</g>
<!-- Node7&#45;&gt;Node8 -->
<g id="edge7" class="edge"><title>Node7&#45;&gt;Node8</title>
<path fill="none" stroke="midnightblue" d="M1342.95,-194.5C1353.67,-194.5 1364.49,-194.5 1374.81,-194.5"/>
<polygon fill="midnightblue" stroke="midnightblue" points="1342.73,-191 1332.73,-194.5 1342.73,-198 1342.73,-191"/>
</g>
<!-- Node9 -->
<g id="node9" class="node"><title>Node9</title>
<g id="a_node9"><a xlink:href="classscram_1_1core_1_1RiskAnalysis.xhtml#a337f7e9fe02b1581e872590d6f7baa01" target="_top" xlink:title="scram::core::RiskAnalysis\l::model">
<polygon fill="white" stroke="black" points="1543,-179.5 1543,-209.5 1675,-209.5 1675,-179.5 1543,-179.5"/>
<text text-anchor="start" x="1551" y="-197.5" font-family="Helvetica,sans-Serif" font-size="10.00">scram::core::RiskAnalysis</text>
<text text-anchor="middle" x="1609" y="-186.5" font-family="Helvetica,sans-Serif" font-size="10.00">::model</text>
</a>
</g>
</g>
<!-- Node8&#45;&gt;Node9 -->
<g id="edge8" class="edge"><title>Node8&#45;&gt;Node9</title>
<path fill="none" stroke="midnightblue" d="M1517.39,-194.5C1525.87,-194.5 1534.45,-194.5 1542.78,-194.5"/>
<polygon fill="midnightblue" stroke="midnightblue" points="1517.13,-191 1507.13,-194.5 1517.13,-198 1517.13,-191"/>
</g>
<!-- Node10 -->
<g id="node10" class="node"><title>Node10</title>
<g id="a_node10"><a xlink:href="reporter_8cc.xhtml#ad6460094a94fb73e56c2a4a5efc598ed" target="_top" xlink:title="Describes all performed analyses deduced from settings. ">
<polygon fill="white" stroke="black" points="1711,-179.5 1711,-209.5 1873,-209.5 1873,-179.5 1711,-179.5"/>
<text text-anchor="start" x="1719" y="-197.5" font-family="Helvetica,sans-Serif" font-size="10.00">scram::ReportCalculatedQuantity</text>
<text text-anchor="middle" x="1792" y="-186.5" font-family="Helvetica,sans-Serif" font-size="10.00">&lt; core::RiskAnalysis &gt;</text>
</a>
</g>
</g>
<!-- Node9&#45;&gt;Node10 -->
<g id="edge9" class="edge"><title>Node9&#45;&gt;Node10</title>
<path fill="none" stroke="midnightblue" d="M1685.24,-194.5C1693.65,-194.5 1702.24,-194.5 1710.71,-194.5"/>
<polygon fill="midnightblue" stroke="midnightblue" points="1685.09,-191 1675.09,-194.5 1685.09,-198 1685.09,-191"/>
</g>
<!-- Node14&#45;&gt;Node6 -->
<g id="edge14" class="edge"><title>Node14&#45;&gt;Node6</title>
<path fill="none" stroke="midnightblue" d="M954.221,-107.726C962.672,-108.201 971.292,-108.685 979.768,-109.161"/>
<polygon fill="midnightblue" stroke="midnightblue" points="954.198,-104.219 944.018,-107.153 953.806,-111.208 954.198,-104.219"/>
</g>
<!-- Node15&#45;&gt;Node12 -->
<g id="edge16" class="edge"><title>Node15&#45;&gt;Node12</title>
<path fill="none" stroke="midnightblue" d="M1134.31,-51.0248C1146.64,-49.6381 1159.46,-48.1948 1171.95,-46.7896"/>
<polygon fill="midnightblue" stroke="midnightblue" points="1133.64,-47.5779 1124.1,-52.1743 1134.43,-54.534 1133.64,-47.5779"/>
</g>
<!-- Node16&#45;&gt;Node12 -->
<g id="edge18" class="edge"><title>Node16&#45;&gt;Node12</title>
<path fill="none" stroke="midnightblue" d="M954.66,-19.9328C1017.58,-23.6193 1107,-28.8581 1171.8,-32.6546"/>
<polygon fill="midnightblue" stroke="midnightblue" points="954.595,-16.4231 944.407,-19.3321 954.185,-23.4111 954.595,-16.4231"/>
</g>
</g>
</svg>
