<?xml version="1.0" encoding="UTF-8" standalone="no"?>
<!DOCTYPE svg PUBLIC "-//W3C//DTD SVG 1.1//EN"
 "http://www.w3.org/Graphics/SVG/1.1/DTD/svg11.dtd">
<!-- Generated by graphviz version 2.38.0 (20140413.2041)
 -->
<!-- Title: scram::core::Analysis Pages: 1 -->
<!--zoomable 892 -->
<svg id="main" version="1.1" xmlns="http://www.w3.org/2000/svg" xmlns:xlink="http://www.w3.org/1999/xlink" xml:space="preserve" onload="init(evt)">
<style type="text/css"><![CDATA[
.edge:hover path { stroke: red; }
.edge:hover polygon { stroke: red; fill: red; }
]]></style>
<script type="text/javascript"><![CDATA[
var edges = document.getElementsByTagName('g');
if (edges && edges.length) {
  for (var i=0;i<edges.length;i++) {
    if (edges[i].id.substr(0,4)=='edge') {
      edges[i].setAttribute('class','edge');
    }
  }
}
]]></script>
        <defs>
                <circle id="rim" cx="0" cy="0" r="7"/>
                <circle id="rim2" cx="0" cy="0" r="3.5"/>
                <g id="zoomPlus">
                        <use xlink:href="#rim" fill="#404040">
                                <set attributeName="fill" to="#808080" begin="zoomplus.mouseover" end="zoomplus.mouseout"/>
                        </use>
                        <path d="M-4,0h8M0,-4v8" fill="none" stroke="white" stroke-width="1.5" pointer-events="none"/>
                </g>
                <g id="zoomMin">
                        <use xlink:href="#rim" fill="#404040">
                                <set attributeName="fill" to="#808080" begin="zoomminus.mouseover" end="zoomminus.mouseout"/>
                        </use>
                        <path d="M-4,0h8" fill="none" stroke="white" stroke-width="1.5" pointer-events="none"/>
                </g>
                <g id="dirArrow">
                        <path fill="none" stroke="white" stroke-width="1.5" d="M0,-3.0v7 M-2.5,-0.5L0,-3.0L2.5,-0.5"/>
                </g>
               <g id="resetDef">
                       <use xlink:href="#rim2" fill="#404040">
                               <set attributeName="fill" to="#808080" begin="reset.mouseover" end="reset.mouseout"/>
                       </use>
               </g>
        </defs>

<script type="text/javascript">
var viewWidth = 821;
var viewHeight = 892;
var sectionId = 'dynsection-0';
</script>
<script xlink:href="svgpan.js"/>
<svg id="graph" class="graph">
<g id="viewport">
<title>scram::core::Analysis</title>
<polygon fill="white" stroke="none" points="-4,4 -4,-888 816.5,-888 816.5,4 -4,4"/>
<!-- Node1 -->
<g id="node1" class="node"><title>Node1</title>
<polygon fill="#bfbfbf" stroke="black" points="384,-665.5 384,-788.5 496,-788.5 496,-665.5 384,-665.5"/>
<text text-anchor="middle" x="440" y="-776.5" font-family="Helvetica,sans-Serif" font-size="10.00">scram::core::Analysis</text>
<polyline fill="none" stroke="black" points="384,-769.5 496,-769.5 "/>
<text text-anchor="middle" x="440" y="-757.5" font-family="Helvetica,sans-Serif" font-size="10.00"> </text>
<polyline fill="none" stroke="black" points="384,-750.5 496,-750.5 "/>
<text text-anchor="start" x="392" y="-738.5" font-family="Helvetica,sans-Serif" font-size="10.00">+ Analysis()</text>
<text text-anchor="start" x="392" y="-727.5" font-family="Helvetica,sans-Serif" font-size="10.00">+ ~Analysis()</text>
<text text-anchor="start" x="392" y="-716.5" font-family="Helvetica,sans-Serif" font-size="10.00">+ settings()</text>
<text text-anchor="start" x="392" y="-705.5" font-family="Helvetica,sans-Serif" font-size="10.00">+ warnings()</text>
<text text-anchor="start" x="392" y="-694.5" font-family="Helvetica,sans-Serif" font-size="10.00">+ analysis_time()</text>
<text text-anchor="start" x="392" y="-683.5" font-family="Helvetica,sans-Serif" font-size="10.00"># AddWarning()</text>
<text text-anchor="start" x="392" y="-672.5" font-family="Helvetica,sans-Serif" font-size="10.00"># AddAnalysisTime()</text>
</g>
<!-- Node3 -->
<g id="node3" class="node"><title>Node3</title>
<g id="a_node3"><a xlink:href="classscram_1_1core_1_1FaultTreeAnalysis.xhtml" target="_top" xlink:title="Fault tree analysis functionality. ">
<polygon fill="white" stroke="black" points="10.5,-460.5 10.5,-583.5 163.5,-583.5 163.5,-460.5 10.5,-460.5"/>
<text text-anchor="middle" x="87" y="-571.5" font-family="Helvetica,sans-Serif" font-size="10.00">scram::core::FaultTreeAnalysis</text>
<polyline fill="none" stroke="black" points="10.5,-564.5 163.5,-564.5 "/>
<text text-anchor="middle" x="87" y="-552.5" font-family="Helvetica,sans-Serif" font-size="10.00"> </text>
<polyline fill="none" stroke="black" points="10.5,-545.5 163.5,-545.5 "/>
<text text-anchor="start" x="18.5" y="-533.5" font-family="Helvetica,sans-Serif" font-size="10.00">+ FaultTreeAnalysis()</text>
<text text-anchor="start" x="18.5" y="-522.5" font-family="Helvetica,sans-Serif" font-size="10.00">+ ~FaultTreeAnalysis()</text>
<text text-anchor="start" x="18.5" y="-511.5" font-family="Helvetica,sans-Serif" font-size="10.00">+ top_event()</text>
<text text-anchor="start" x="18.5" y="-500.5" font-family="Helvetica,sans-Serif" font-size="10.00">+ Analyze()</text>
<text text-anchor="start" x="18.5" y="-489.5" font-family="Helvetica,sans-Serif" font-size="10.00">+ products()</text>
<text text-anchor="start" x="18.5" y="-478.5" font-family="Helvetica,sans-Serif" font-size="10.00">+ product_events()</text>
<text text-anchor="start" x="18.5" y="-467.5" font-family="Helvetica,sans-Serif" font-size="10.00"># Convert()</text>
</a>
</g>
</g>
<!-- Node1&#45;&gt;Node3 -->
<g id="edge2" class="edge"><title>Node1&#45;&gt;Node3</title>
<path fill="none" stroke="midnightblue" d="M374.058,-708.272C321.689,-692.317 248.036,-665.578 191,-628 172.253,-615.649 154.171,-599.474 138.491,-583.532"/>
<polygon fill="none" stroke="midnightblue" points="373.325,-711.706 383.909,-711.223 375.333,-705 373.325,-711.706"/>
</g>
<!-- Node5 -->
<g id="node5" class="node"><title>Node5</title>
<g id="a_node5"><a xlink:href="classscram_1_1core_1_1ImportanceAnalysis.xhtml" target="_top" xlink:title="Analysis of importance factors of risk model variables. ">
<polygon fill="white" stroke="black" points="200.5,-466 200.5,-578 361.5,-578 361.5,-466 200.5,-466"/>
<text text-anchor="middle" x="281" y="-566" font-family="Helvetica,sans-Serif" font-size="10.00">scram::core::ImportanceAnalysis</text>
<polyline fill="none" stroke="black" points="200.5,-559 361.5,-559 "/>
<text text-anchor="middle" x="281" y="-547" font-family="Helvetica,sans-Serif" font-size="10.00"> </text>
<polyline fill="none" stroke="black" points="200.5,-540 361.5,-540 "/>
<text text-anchor="start" x="208.5" y="-528" font-family="Helvetica,sans-Serif" font-size="10.00">+ ImportanceAnalysis()</text>
<text text-anchor="start" x="208.5" y="-517" font-family="Helvetica,sans-Serif" font-size="10.00">+ ~ImportanceAnalysis()</text>
<text text-anchor="start" x="208.5" y="-506" font-family="Helvetica,sans-Serif" font-size="10.00">+ Analyze()</text>
<text text-anchor="start" x="208.5" y="-495" font-family="Helvetica,sans-Serif" font-size="10.00">+ importance()</text>
<text text-anchor="start" x="208.5" y="-484" font-family="Helvetica,sans-Serif" font-size="10.00">+ important_events()</text>
<text text-anchor="start" x="208.5" y="-473" font-family="Helvetica,sans-Serif" font-size="10.00"># GatherImportantEvents()</text>
</a>
</g>
</g>
<!-- Node1&#45;&gt;Node5 -->
<g id="edge4" class="edge"><title>Node1&#45;&gt;Node5</title>
<path fill="none" stroke="midnightblue" d="M386.317,-657.461C366.079,-631.623 343.338,-602.589 324.181,-578.131"/>
<polygon fill="none" stroke="midnightblue" points="383.588,-659.654 392.51,-665.368 389.099,-655.337 383.588,-659.654"/>
</g>
<!-- Node10 -->
<g id="node10" class="node"><title>Node10</title>
<g id="a_node10"><a xlink:href="classscram_1_1core_1_1ProbabilityAnalysis.xhtml" target="_top" xlink:title="Main quantitative analysis class. ">
<polygon fill="white" stroke="black" points="379.5,-471.5 379.5,-572.5 500.5,-572.5 500.5,-471.5 379.5,-471.5"/>
<text text-anchor="start" x="387.5" y="-560.5" font-family="Helvetica,sans-Serif" font-size="10.00">scram::core::Probability</text>
<text text-anchor="middle" x="440" y="-549.5" font-family="Helvetica,sans-Serif" font-size="10.00">Analysis</text>
<polyline fill="none" stroke="black" points="379.5,-542.5 500.5,-542.5 "/>
<text text-anchor="middle" x="440" y="-530.5" font-family="Helvetica,sans-Serif" font-size="10.00"> </text>
<polyline fill="none" stroke="black" points="379.5,-523.5 500.5,-523.5 "/>
<text text-anchor="start" x="387.5" y="-511.5" font-family="Helvetica,sans-Serif" font-size="10.00">+ ProbabilityAnalysis()</text>
<text text-anchor="start" x="387.5" y="-500.5" font-family="Helvetica,sans-Serif" font-size="10.00">+ ~ProbabilityAnalysis()</text>
<text text-anchor="start" x="387.5" y="-489.5" font-family="Helvetica,sans-Serif" font-size="10.00">+ Analyze()</text>
<text text-anchor="start" x="387.5" y="-478.5" font-family="Helvetica,sans-Serif" font-size="10.00">+ p_total()</text>
</a>
</g>
</g>
<!-- Node1&#45;&gt;Node10 -->
<g id="edge10" class="edge"><title>Node1&#45;&gt;Node10</title>
<path fill="none" stroke="midnightblue" d="M440,-655.128C440,-627.948 440,-597.534 440,-572.744"/>
<polygon fill="none" stroke="midnightblue" points="436.5,-655.368 440,-665.368 443.5,-655.368 436.5,-655.368"/>
</g>
<!-- Node14 -->
<g id="node14" class="node"><title>Node14</title>
<g id="a_node14"><a xlink:href="classscram_1_1core_1_1RiskAnalysis.xhtml" target="_top" xlink:title="Main system that performs analyses. ">
<polygon fill="white" stroke="black" points="519,-416.5 519,-627.5 651,-627.5 651,-416.5 519,-416.5"/>
<text text-anchor="middle" x="585" y="-615.5" font-family="Helvetica,sans-Serif" font-size="10.00">scram::core::RiskAnalysis</text>
<polyline fill="none" stroke="black" points="519,-608.5 651,-608.5 "/>
<text text-anchor="middle" x="585" y="-596.5" font-family="Helvetica,sans-Serif" font-size="10.00"> </text>
<polyline fill="none" stroke="black" points="519,-589.5 651,-589.5 "/>
<text text-anchor="start" x="527" y="-577.5" font-family="Helvetica,sans-Serif" font-size="10.00">+ RiskAnalysis()</text>
<text text-anchor="start" x="527" y="-566.5" font-family="Helvetica,sans-Serif" font-size="10.00">+ model()</text>
<text text-anchor="start" x="527" y="-555.5" font-family="Helvetica,sans-Serif" font-size="10.00">+ Analyze()</text>
<text text-anchor="start" x="527" y="-544.5" font-family="Helvetica,sans-Serif" font-size="10.00">+ fault_tree_analyses()</text>
<text text-anchor="start" x="527" y="-533.5" font-family="Helvetica,sans-Serif" font-size="10.00">+ probability_analyses()</text>
<text text-anchor="start" x="527" y="-522.5" font-family="Helvetica,sans-Serif" font-size="10.00">+ importance_analyses()</text>
<text text-anchor="start" x="527" y="-511.5" font-family="Helvetica,sans-Serif" font-size="10.00">+ uncertainty_analyses()</text>
<text text-anchor="start" x="527" y="-500.5" font-family="Helvetica,sans-Serif" font-size="10.00">* fault_tree_analyses_</text>
<text text-anchor="start" x="527" y="-489.5" font-family="Helvetica,sans-Serif" font-size="10.00">* probability_analyses_</text>
<text text-anchor="start" x="527" y="-478.5" font-family="Helvetica,sans-Serif" font-size="10.00">* importance_analyses_</text>
<text text-anchor="start" x="527" y="-467.5" font-family="Helvetica,sans-Serif" font-size="10.00">* uncertainty_analyses_</text>
<text text-anchor="start" x="527" y="-456.5" font-family="Helvetica,sans-Serif" font-size="10.00">* fault_tree_analyses()</text>
<text text-anchor="start" x="527" y="-445.5" font-family="Helvetica,sans-Serif" font-size="10.00">* probability_analyses()</text>
<text text-anchor="start" x="527" y="-434.5" font-family="Helvetica,sans-Serif" font-size="10.00">* importance_analyses()</text>
<text text-anchor="start" x="527" y="-423.5" font-family="Helvetica,sans-Serif" font-size="10.00">* uncertainty_analyses()</text>
</a>
</g>
</g>
<!-- Node1&#45;&gt;Node14 -->
<g id="edge14" class="edge"><title>Node1&#45;&gt;Node14</title>
<path fill="none" stroke="midnightblue" d="M489.166,-657.168C498.71,-643.806 508.858,-629.599 518.844,-615.618"/>
<polygon fill="none" stroke="midnightblue" points="486.273,-655.197 483.308,-665.368 491.969,-659.265 486.273,-655.197"/>
</g>
<!-- Node15 -->
<g id="node15" class="node"><title>Node15</title>
<g id="a_node15"><a xlink:href="classscram_1_1core_1_1UncertaintyAnalysis.xhtml" target="_top" xlink:title="Uncertainty analysis and statistics for top event or gate probabilities and probability distributions...">
<polygon fill="white" stroke="black" points="669.5,-433 669.5,-611 812.5,-611 812.5,-433 669.5,-433"/>
<text text-anchor="start" x="677.5" y="-599" font-family="Helvetica,sans-Serif" font-size="10.00">scram::core::Uncertainty</text>
<text text-anchor="middle" x="741" y="-588" font-family="Helvetica,sans-Serif" font-size="10.00">Analysis</text>
<polyline fill="none" stroke="black" points="669.5,-581 812.5,-581 "/>
<text text-anchor="middle" x="741" y="-569" font-family="Helvetica,sans-Serif" font-size="10.00"> </text>
<polyline fill="none" stroke="black" points="669.5,-562 812.5,-562 "/>
<text text-anchor="start" x="677.5" y="-550" font-family="Helvetica,sans-Serif" font-size="10.00">+ UncertaintyAnalysis()</text>
<text text-anchor="start" x="677.5" y="-539" font-family="Helvetica,sans-Serif" font-size="10.00">+ ~UncertaintyAnalysis()</text>
<text text-anchor="start" x="677.5" y="-528" font-family="Helvetica,sans-Serif" font-size="10.00">+ Analyze()</text>
<text text-anchor="start" x="677.5" y="-517" font-family="Helvetica,sans-Serif" font-size="10.00">+ mean()</text>
<text text-anchor="start" x="677.5" y="-506" font-family="Helvetica,sans-Serif" font-size="10.00">+ sigma()</text>
<text text-anchor="start" x="677.5" y="-495" font-family="Helvetica,sans-Serif" font-size="10.00">+ error_factor()</text>
<text text-anchor="start" x="677.5" y="-484" font-family="Helvetica,sans-Serif" font-size="10.00">+ confidence_interval()</text>
<text text-anchor="start" x="677.5" y="-473" font-family="Helvetica,sans-Serif" font-size="10.00">+ distribution()</text>
<text text-anchor="start" x="677.5" y="-462" font-family="Helvetica,sans-Serif" font-size="10.00">+ quantiles()</text>
<text text-anchor="start" x="677.5" y="-451" font-family="Helvetica,sans-Serif" font-size="10.00"># FilterUncertainEvents()</text>
<text text-anchor="start" x="677.5" y="-440" font-family="Helvetica,sans-Serif" font-size="10.00"># SampleEventProbabilities()</text>
</a>
</g>
</g>
<!-- Node1&#45;&gt;Node15 -->
<g id="edge15" class="edge"><title>Node1&#45;&gt;Node15</title>
<path fill="none" stroke="midnightblue" d="M505.733,-706.333C552.06,-690.289 613.82,-664.316 660,-628 666.515,-622.877 672.8,-617.118 678.789,-611.003"/>
<polygon fill="none" stroke="midnightblue" points="504.436,-703.077 496.092,-709.606 506.687,-709.705 504.436,-703.077"/>
</g>
<!-- Node2 -->
<g id="node2" class="node"><title>Node2</title>
<polygon fill="white" stroke="#bfbfbf" points="404.5,-826.5 404.5,-883.5 475.5,-883.5 475.5,-826.5 404.5,-826.5"/>
<text text-anchor="middle" x="440" y="-871.5" font-family="Helvetica,sans-Serif" font-size="10.00">noncopyable</text>
<polyline fill="none" stroke="#bfbfbf" points="404.5,-864.5 475.5,-864.5 "/>
<text text-anchor="middle" x="440" y="-852.5" font-family="Helvetica,sans-Serif" font-size="10.00"> </text>
<polyline fill="none" stroke="#bfbfbf" points="404.5,-845.5 475.5,-845.5 "/>
<text text-anchor="middle" x="440" y="-833.5" font-family="Helvetica,sans-Serif" font-size="10.00"> </text>
</g>
<!-- Node2&#45;&gt;Node1 -->
<g id="edge1" class="edge"><title>Node2&#45;&gt;Node1</title>
<path fill="none" stroke="#8b1a1a" d="M440,-816.182C440,-807.491 440,-798.033 440,-788.646"/>
<polygon fill="none" stroke="#8b1a1a" points="436.5,-816.349 440,-826.349 443.5,-816.349 436.5,-816.349"/>
</g>
<!-- Node4 -->
<g id="node4" class="node"><title>Node4</title>
<g id="a_node4"><a xlink:href="classscram_1_1core_1_1FaultTreeAnalyzer.xhtml" target="_top" xlink:title="Fault tree analysis facility with specific algorithms. ">
<polygon fill="white" stroke="black" points="0,-272 0,-373 154,-373 154,-272 0,-272"/>
<text text-anchor="start" x="8" y="-361" font-family="Helvetica,sans-Serif" font-size="10.00">scram::core::FaultTreeAnalyzer</text>
<text text-anchor="middle" x="77" y="-350" font-family="Helvetica,sans-Serif" font-size="10.00">&lt; Algorithm &gt;</text>
<polyline fill="none" stroke="black" points="0,-343 154,-343 "/>
<text text-anchor="middle" x="77" y="-331" font-family="Helvetica,sans-Serif" font-size="10.00"> </text>
<polyline fill="none" stroke="black" points="0,-324 154,-324 "/>
<text text-anchor="start" x="8" y="-312" font-family="Helvetica,sans-Serif" font-size="10.00">+ Analyze()</text>
<text text-anchor="start" x="8" y="-301" font-family="Helvetica,sans-Serif" font-size="10.00">+ algorithm()</text>
<text text-anchor="start" x="8" y="-290" font-family="Helvetica,sans-Serif" font-size="10.00">+ algorithm()</text>
<text text-anchor="start" x="8" y="-279" font-family="Helvetica,sans-Serif" font-size="10.00">+ graph()</text>
</a>
</g>
</g>
<!-- Node3&#45;&gt;Node4 -->
<g id="edge3" class="edge"><title>Node3&#45;&gt;Node4</title>
<path fill="none" stroke="midnightblue" d="M83.424,-450.374C82.1282,-424.783 80.6933,-396.443 79.5089,-373.05"/>
<polygon fill="none" stroke="midnightblue" points="79.9304,-450.591 83.9317,-460.401 86.9215,-450.237 79.9304,-450.591"/>
</g>
<!-- Node6 -->
<g id="node6" class="node"><title>Node6</title>
<g id="a_node6"><a xlink:href="classscram_1_1core_1_1ImportanceAnalyzerBase.xhtml" target="_top" xlink:title="{scram::core::ImportanceAnalyzer\lBase\&lt; Bdd \&gt;\n||+ ImportanceAnalyzerBase()\l# ~ImportanceAnalyzerBase()\l# prob_analyzer()\l}">
<polygon fill="white" stroke="black" points="79.5,-117.5 79.5,-207.5 240.5,-207.5 240.5,-117.5 79.5,-117.5"/>
<text text-anchor="start" x="87.5" y="-195.5" font-family="Helvetica,sans-Serif" font-size="10.00">scram::core::ImportanceAnalyzer</text>
<text text-anchor="middle" x="160" y="-184.5" font-family="Helvetica,sans-Serif" font-size="10.00">Base&lt; Bdd &gt;</text>
<polyline fill="none" stroke="black" points="79.5,-177.5 240.5,-177.5 "/>
<text text-anchor="middle" x="160" y="-165.5" font-family="Helvetica,sans-Serif" font-size="10.00"> </text>
<polyline fill="none" stroke="black" points="79.5,-158.5 240.5,-158.5 "/>
<text text-anchor="start" x="87.5" y="-146.5" font-family="Helvetica,sans-Serif" font-size="10.00">+ ImportanceAnalyzerBase()</text>
<text text-anchor="start" x="87.5" y="-135.5" font-family="Helvetica,sans-Serif" font-size="10.00"># ~ImportanceAnalyzerBase()</text>
<text text-anchor="start" x="87.5" y="-124.5" font-family="Helvetica,sans-Serif" font-size="10.00"># prob_analyzer()</text>
</a>
</g>
</g>
<!-- Node5&#45;&gt;Node6 -->
<g id="edge5" class="edge"><title>Node5&#45;&gt;Node6</title>
<path fill="none" stroke="midnightblue" d="M238.992,-456.821C225.106,-433.166 210.736,-405.628 201,-379 180.075,-321.771 169.291,-251.898 164.145,-207.542"/>
<polygon fill="none" stroke="midnightblue" points="236.151,-458.891 244.279,-465.687 242.163,-455.306 236.151,-458.891"/>
</g>
<!-- Node8 -->
<g id="node8" class="node"><title>Node8</title>
<g id="a_node8"><a xlink:href="classscram_1_1core_1_1ImportanceAnalyzerBase.xhtml" target="_top" xlink:title="Base class for analyzers of importance factors with the help from probability analyzers. ">
<polygon fill="white" stroke="black" points="210.5,-277.5 210.5,-367.5 371.5,-367.5 371.5,-277.5 210.5,-277.5"/>
<text text-anchor="start" x="218.5" y="-355.5" font-family="Helvetica,sans-Serif" font-size="10.00">scram::core::ImportanceAnalyzer</text>
<text text-anchor="middle" x="291" y="-344.5" font-family="Helvetica,sans-Serif" font-size="10.00">Base&lt; Calculator &gt;</text>
<polyline fill="none" stroke="black" points="210.5,-337.5 371.5,-337.5 "/>
<text text-anchor="middle" x="291" y="-325.5" font-family="Helvetica,sans-Serif" font-size="10.00"> </text>
<polyline fill="none" stroke="black" points="210.5,-318.5 371.5,-318.5 "/>
<text text-anchor="start" x="218.5" y="-306.5" font-family="Helvetica,sans-Serif" font-size="10.00">+ ImportanceAnalyzerBase()</text>
<text text-anchor="start" x="218.5" y="-295.5" font-family="Helvetica,sans-Serif" font-size="10.00"># ~ImportanceAnalyzerBase()</text>
<text text-anchor="start" x="218.5" y="-284.5" font-family="Helvetica,sans-Serif" font-size="10.00"># prob_analyzer()</text>
</a>
</g>
</g>
<!-- Node5&#45;&gt;Node8 -->
<g id="edge7" class="edge"><title>Node5&#45;&gt;Node8</title>
<path fill="none" stroke="midnightblue" d="M284.294,-455.94C285.761,-426.969 287.451,-393.602 288.767,-367.608"/>
<polygon fill="none" stroke="midnightblue" points="280.796,-455.821 283.786,-465.985 287.787,-456.175 280.796,-455.821"/>
</g>
<!-- Node7 -->
<g id="node7" class="node"><title>Node7</title>
<g id="a_node7"><a xlink:href="classscram_1_1core_1_1ImportanceAnalyzer_3_01Bdd_01_4.xhtml" target="_top" xlink:title="Specialization of importance analyzer with Binary Decision Diagrams. ">
<polygon fill="white" stroke="black" points="79.5,-0.5 79.5,-68.5 240.5,-68.5 240.5,-0.5 79.5,-0.5"/>
<text text-anchor="start" x="87.5" y="-56.5" font-family="Helvetica,sans-Serif" font-size="10.00">scram::core::ImportanceAnalyzer</text>
<text text-anchor="middle" x="160" y="-45.5" font-family="Helvetica,sans-Serif" font-size="10.00">&lt; Bdd &gt;</text>
<polyline fill="none" stroke="black" points="79.5,-38.5 240.5,-38.5 "/>
<text text-anchor="middle" x="160" y="-26.5" font-family="Helvetica,sans-Serif" font-size="10.00"> </text>
<polyline fill="none" stroke="black" points="79.5,-19.5 240.5,-19.5 "/>
<text text-anchor="start" x="87.5" y="-7.5" font-family="Helvetica,sans-Serif" font-size="10.00">+ ImportanceAnalyzer()</text>
</a>
</g>
</g>
<!-- Node6&#45;&gt;Node7 -->
<g id="edge6" class="edge"><title>Node6&#45;&gt;Node7</title>
<path fill="none" stroke="midnightblue" d="M160,-107.085C160,-93.9951 160,-80.4008 160,-68.6205"/>
<polygon fill="none" stroke="midnightblue" points="156.5,-107.431 160,-117.431 163.5,-107.431 156.5,-107.431"/>
</g>
<!-- Node8&#45;&gt;Node6 -->
<g id="edge9" class="edge"><title>Node8&#45;&gt;Node6</title>
<path fill="none" stroke="orange" d="M248.007,-269.646C231.358,-249.565 212.499,-226.82 196.522,-207.55"/>
<polygon fill="orange" stroke="orange" points="245.432,-272.024 254.509,-277.488 250.821,-267.556 245.432,-272.024"/>
<text text-anchor="middle" x="249.5" y="-240" font-family="Helvetica,sans-Serif" font-size="10.00"> &lt; Bdd &gt;</text>
</g>
<!-- Node9 -->
<g id="node9" class="node"><title>Node9</title>
<g id="a_node9"><a xlink:href="classscram_1_1core_1_1ImportanceAnalyzer.xhtml" target="_top" xlink:title="Analyzer of importance factors with the help from probability analyzers. ">
<polygon fill="white" stroke="black" points="258.5,-128.5 258.5,-196.5 419.5,-196.5 419.5,-128.5 258.5,-128.5"/>
<text text-anchor="start" x="266.5" y="-184.5" font-family="Helvetica,sans-Serif" font-size="10.00">scram::core::ImportanceAnalyzer</text>
<text text-anchor="middle" x="339" y="-173.5" font-family="Helvetica,sans-Serif" font-size="10.00">&lt; Calculator &gt;</text>
<polyline fill="none" stroke="black" points="258.5,-166.5 419.5,-166.5 "/>
<text text-anchor="middle" x="339" y="-154.5" font-family="Helvetica,sans-Serif" font-size="10.00"> </text>
<polyline fill="none" stroke="black" points="258.5,-147.5 419.5,-147.5 "/>
<text text-anchor="start" x="266.5" y="-135.5" font-family="Helvetica,sans-Serif" font-size="10.00">+ ImportanceAnalyzer()</text>
</a>
</g>
</g>
<!-- Node8&#45;&gt;Node9 -->
<g id="edge8" class="edge"><title>Node8&#45;&gt;Node9</title>
<path fill="none" stroke="midnightblue" d="M307.362,-267.641C314.506,-244.126 322.658,-217.293 328.897,-196.754"/>
<polygon fill="none" stroke="midnightblue" points="303.929,-266.903 304.371,-277.488 310.626,-268.937 303.929,-266.903"/>
</g>
<!-- Node11 -->
<g id="node11" class="node"><title>Node11</title>
<g id="a_node11"><a xlink:href="classscram_1_1core_1_1ProbabilityAnalyzerBase.xhtml" target="_top" xlink:title="Base class for Probability analyzers. ">
<polygon fill="white" stroke="black" points="436.5,-266.5 436.5,-378.5 579.5,-378.5 579.5,-266.5 436.5,-266.5"/>
<text text-anchor="start" x="444.5" y="-366.5" font-family="Helvetica,sans-Serif" font-size="10.00">scram::core::Probability</text>
<text text-anchor="middle" x="508" y="-355.5" font-family="Helvetica,sans-Serif" font-size="10.00">AnalyzerBase</text>
<polyline fill="none" stroke="black" points="436.5,-348.5 579.5,-348.5 "/>
<text text-anchor="middle" x="508" y="-336.5" font-family="Helvetica,sans-Serif" font-size="10.00"> </text>
<polyline fill="none" stroke="black" points="436.5,-329.5 579.5,-329.5 "/>
<text text-anchor="start" x="444.5" y="-317.5" font-family="Helvetica,sans-Serif" font-size="10.00">+ ProbabilityAnalyzerBase()</text>
<text text-anchor="start" x="444.5" y="-306.5" font-family="Helvetica,sans-Serif" font-size="10.00">+ graph()</text>
<text text-anchor="start" x="444.5" y="-295.5" font-family="Helvetica,sans-Serif" font-size="10.00">+ products()</text>
<text text-anchor="start" x="444.5" y="-284.5" font-family="Helvetica,sans-Serif" font-size="10.00">+ p_vars()</text>
<text text-anchor="start" x="444.5" y="-273.5" font-family="Helvetica,sans-Serif" font-size="10.00"># ~ProbabilityAnalyzerBase()</text>
</a>
</g>
</g>
<!-- Node10&#45;&gt;Node11 -->
<g id="edge11" class="edge"><title>Node10&#45;&gt;Node11</title>
<path fill="none" stroke="midnightblue" d="M460.343,-461.916C469.43,-435.522 480.079,-404.594 489.003,-378.675"/>
<polygon fill="none" stroke="midnightblue" points="457.018,-460.823 457.071,-471.417 463.636,-463.102 457.018,-460.823"/>
</g>
<!-- Node12 -->
<g id="node12" class="node"><title>Node12</title>
<g id="a_node12"><a xlink:href="classscram_1_1core_1_1ProbabilityAnalyzer.xhtml" target="_top" xlink:title="Fault&#45;tree&#45;analysis&#45;aware probability analyzer. ">
<polygon fill="white" stroke="black" points="438,-128.5 438,-196.5 578,-196.5 578,-128.5 438,-128.5"/>
<text text-anchor="start" x="446" y="-184.5" font-family="Helvetica,sans-Serif" font-size="10.00">scram::core::Probability</text>
<text text-anchor="middle" x="508" y="-173.5" font-family="Helvetica,sans-Serif" font-size="10.00">Analyzer&lt; Calculator &gt;</text>
<polyline fill="none" stroke="black" points="438,-166.5 578,-166.5 "/>
<text text-anchor="middle" x="508" y="-154.5" font-family="Helvetica,sans-Serif" font-size="10.00"> </text>
<polyline fill="none" stroke="black" points="438,-147.5 578,-147.5 "/>
<text text-anchor="start" x="446" y="-135.5" font-family="Helvetica,sans-Serif" font-size="10.00">+ CalculateTotalProbability()</text>
</a>
</g>
</g>
<!-- Node11&#45;&gt;Node12 -->
<g id="edge12" class="edge"><title>Node11&#45;&gt;Node12</title>
<path fill="none" stroke="midnightblue" d="M508,-256.047C508,-235.674 508,-214.062 508,-196.851"/>
<polygon fill="none" stroke="midnightblue" points="504.5,-256.239 508,-266.239 511.5,-256.239 504.5,-256.239"/>
</g>
<!-- Node13 -->
<g id="node13" class="node"><title>Node13</title>
<g id="a_node13"><a xlink:href="classscram_1_1core_1_1ProbabilityAnalyzer_3_01Bdd_01_4.xhtml" target="_top" xlink:title="Specialization of probability analyzer with Binary Decision Diagrams. ">
<polygon fill="white" stroke="black" points="596,-106.5 596,-218.5 736,-218.5 736,-106.5 596,-106.5"/>
<text text-anchor="start" x="604" y="-206.5" font-family="Helvetica,sans-Serif" font-size="10.00">scram::core::Probability</text>
<text text-anchor="middle" x="666" y="-195.5" font-family="Helvetica,sans-Serif" font-size="10.00">Analyzer&lt; Bdd &gt;</text>
<polyline fill="none" stroke="black" points="596,-188.5 736,-188.5 "/>
<text text-anchor="middle" x="666" y="-176.5" font-family="Helvetica,sans-Serif" font-size="10.00"> </text>
<polyline fill="none" stroke="black" points="596,-169.5 736,-169.5 "/>
<text text-anchor="start" x="604" y="-157.5" font-family="Helvetica,sans-Serif" font-size="10.00">+ ProbabilityAnalyzer()</text>
<text text-anchor="start" x="604" y="-146.5" font-family="Helvetica,sans-Serif" font-size="10.00">+ ProbabilityAnalyzer()</text>
<text text-anchor="start" x="604" y="-135.5" font-family="Helvetica,sans-Serif" font-size="10.00">+ ~ProbabilityAnalyzer()</text>
<text text-anchor="start" x="604" y="-124.5" font-family="Helvetica,sans-Serif" font-size="10.00">+ bdd_graph()</text>
<text text-anchor="start" x="604" y="-113.5" font-family="Helvetica,sans-Serif" font-size="10.00">+ CalculateTotalProbability()</text>
</a>
</g>
</g>
<!-- Node11&#45;&gt;Node13 -->
<g id="edge13" class="edge"><title>Node11&#45;&gt;Node13</title>
<path fill="none" stroke="midnightblue" d="M570.564,-258.936C583.849,-245.651 597.782,-231.718 610.77,-218.73"/>
<polygon fill="none" stroke="midnightblue" points="567.857,-256.693 563.261,-266.239 572.807,-261.643 567.857,-256.693"/>
</g>
<!-- Node16 -->
<g id="node16" class="node"><title>Node16</title>
<g id="a_node16"><a xlink:href="classscram_1_1core_1_1UncertaintyAnalyzer.xhtml" target="_top" xlink:title="Uncertainty analysis facility. ">
<polygon fill="white" stroke="black" points="678.5,-288.5 678.5,-356.5 803.5,-356.5 803.5,-288.5 678.5,-288.5"/>
<text text-anchor="start" x="686.5" y="-344.5" font-family="Helvetica,sans-Serif" font-size="10.00">scram::core::Uncertainty</text>
<text text-anchor="middle" x="741" y="-333.5" font-family="Helvetica,sans-Serif" font-size="10.00">Analyzer&lt; Calculator &gt;</text>
<polyline fill="none" stroke="black" points="678.5,-326.5 803.5,-326.5 "/>
<text text-anchor="middle" x="741" y="-314.5" font-family="Helvetica,sans-Serif" font-size="10.00"> </text>
<polyline fill="none" stroke="black" points="678.5,-307.5 803.5,-307.5 "/>
<text text-anchor="start" x="686.5" y="-295.5" font-family="Helvetica,sans-Serif" font-size="10.00">+ UncertaintyAnalyzer()</text>
</a>
</g>
</g>
<!-- Node15&#45;&gt;Node16 -->
<g id="edge16" class="edge"><title>Node15&#45;&gt;Node16</title>
<path fill="none" stroke="midnightblue" d="M741,-422.717C741,-398.831 741,-374.908 741,-356.54"/>
<polygon fill="none" stroke="midnightblue" points="737.5,-422.936 741,-432.936 744.5,-422.936 737.5,-422.936"/>
</g>
</g>
</svg>
        <g id="navigator" transform="translate(0 0)" fill="#404254">
                <rect fill="#f2f5e9" fill-opacity="0.5" stroke="#606060" stroke-width=".5" x="0" y="0" width="60" height="60"/>
                <use id="zoomplus" xlink:href="#zoomPlus" x="17" y="9" onmousedown="handleZoom(evt,'in')"/>
                <use id="zoomminus" xlink:href="#zoomMin" x="42" y="9" onmousedown="handleZoom(evt,'out')"/>
                <use id="reset" xlink:href="#resetDef" x="30" y="36" onmousedown="handleReset()"/>
                <g id="arrowUp" xlink:href="#dirArrow" transform="translate(30 24)" onmousedown="handlePan(0,-1)">
                  <use xlink:href="#rim" fill="#404040">
                        <set attributeName="fill" to="#808080" begin="arrowUp.mouseover" end="arrowUp.mouseout"/>
                  </use>
                  <path fill="none" stroke="white" stroke-width="1.5" d="M0,-3.0v7 M-2.5,-0.5L0,-3.0L2.5,-0.5"/>
                </g>
                <g id="arrowRight" xlink:href="#dirArrow" transform="rotate(90) translate(36 -43)" onmousedown="handlePan(1,0)">
                  <use xlink:href="#rim" fill="#404040">
                        <set attributeName="fill" to="#808080" begin="arrowRight.mouseover" end="arrowRight.mouseout"/>
                  </use>
                  <path fill="none" stroke="white" stroke-width="1.5" d="M0,-3.0v7 M-2.5,-0.5L0,-3.0L2.5,-0.5"/>
                </g>
                <g id="arrowDown" xlink:href="#dirArrow" transform="rotate(180) translate(-30 -48)" onmousedown="handlePan(0,1)">
                  <use xlink:href="#rim" fill="#404040">
                        <set attributeName="fill" to="#808080" begin="arrowDown.mouseover" end="arrowDown.mouseout"/>
                  </use>
                  <path fill="none" stroke="white" stroke-width="1.5" d="M0,-3.0v7 M-2.5,-0.5L0,-3.0L2.5,-0.5"/>
                </g>
                <g id="arrowLeft" xlink:href="#dirArrow" transform="rotate(270) translate(-36 17)" onmousedown="handlePan(-1,0)">
                  <use xlink:href="#rim" fill="#404040">
                        <set attributeName="fill" to="#808080" begin="arrowLeft.mouseover" end="arrowLeft.mouseout"/>
                  </use>
                  <path fill="none" stroke="white" stroke-width="1.5" d="M0,-3.0v7 M-2.5,-0.5L0,-3.0L2.5,-0.5"/>
                </g>
        </g>
        <svg viewBox="0 0 15 15" width="100%" height="30px" preserveAspectRatio="xMaxYMin meet">
         <g id="arrow_out" transform="scale(0.3 0.3)">
          <a xlink:href="classscram_1_1core_1_1Analysis__inherit__graph_org.svg" target="_base">
           <rect id="button" ry="5" rx="5" y="6" x="6" height="38" width="38"
                fill="#f2f5e9" fill-opacity="0.5" stroke="#606060" stroke-width="1.0"/>
           <path id="arrow"
             d="M 11.500037,31.436501 C 11.940474,20.09759 22.043105,11.32322 32.158766,21.979434 L 37.068811,17.246167 C 37.068811,17.246167 37.088388,32 37.088388,32 L 22.160133,31.978069 C 22.160133,31.978069 26.997745,27.140456 26.997745,27.140456 C 18.528582,18.264221 13.291696,25.230495 11.500037,31.436501 z"
             style="fill:#404040;"/>
          </a>
         </g>
        </svg>
</svg>
