<?xml version="1.0" encoding="UTF-8" standalone="no"?>
<!DOCTYPE svg PUBLIC "-//W3C//DTD SVG 1.1//EN"
 "http://www.w3.org/Graphics/SVG/1.1/DTD/svg11.dtd">
<!-- Generated by graphviz version 2.38.0 (20140413.2041)
 -->
<!-- Title: scram::mef::Initializer::Initializer Pages: 1 -->
<svg width="609pt" height="974pt"
 viewBox="0.00 0.00 609.00 973.50" xmlns="http://www.w3.org/2000/svg" xmlns:xlink="http://www.w3.org/1999/xlink">
<g id="graph0" class="graph" transform="scale(1 1) rotate(0) translate(4 969.5)">
<title>scram::mef::Initializer::Initializer</title>
<polygon fill="white" stroke="none" points="-4,4 -4,-969.5 605,-969.5 605,4 -4,4"/>
<!-- Node1 -->
<g id="node1" class="node"><title>Node1</title>
<polygon fill="#bfbfbf" stroke="black" points="0,-458 0,-488 111,-488 111,-458 0,-458"/>
<text text-anchor="start" x="8" y="-476" font-family="Helvetica,sans-Serif" font-size="10.00">scram::mef::Initializer</text>
<text text-anchor="middle" x="55.5" y="-465" font-family="Helvetica,sans-Serif" font-size="10.00">::Initializer</text>
</g>
<!-- Node2 -->
<g id="node2" class="node"><title>Node2</title>
<g id="a_node2"><a xlink:href="classscram_1_1mef_1_1Formula.xhtml#a243f57b581bfa385b985d0b47bdfe114" target="_top" xlink:title="Adds an event into the arguments list. ">
<polygon fill="white" stroke="black" points="165,-935 165,-965 272,-965 272,-935 165,-935"/>
<text text-anchor="start" x="173" y="-953" font-family="Helvetica,sans-Serif" font-size="10.00">scram::mef::Formula</text>
<text text-anchor="middle" x="218.5" y="-942" font-family="Helvetica,sans-Serif" font-size="10.00">::AddArgument</text>
</a>
</g>
</g>
<!-- Node1&#45;&gt;Node2 -->
<g id="edge1" class="edge"><title>Node1&#45;&gt;Node2</title>
<path fill="none" stroke="midnightblue" d="M57.5428,-488.335C62.6836,-559.639 87.5118,-858.164 147,-926 149.657,-929.03 152.713,-931.678 156.03,-933.992"/>
<polygon fill="midnightblue" stroke="midnightblue" points="154.338,-937.058 164.737,-939.084 157.872,-931.015 154.338,-937.058"/>
</g>
<!-- Node3 -->
<g id="node3" class="node"><title>Node3</title>
<g id="a_node3"><a xlink:href="classscram_1_1mef_1_1Element.xhtml#ad5906432084ef153b708dbe77307d4f9" target="_top" xlink:title="Adds an attribute to the attribute map. ">
<polygon fill="white" stroke="black" points="164.5,-458 164.5,-488 272.5,-488 272.5,-458 164.5,-458"/>
<text text-anchor="start" x="172.5" y="-476" font-family="Helvetica,sans-Serif" font-size="10.00">scram::mef::Element</text>
<text text-anchor="middle" x="218.5" y="-465" font-family="Helvetica,sans-Serif" font-size="10.00">::AddAttribute</text>
</a>
</g>
</g>
<!-- Node1&#45;&gt;Node3 -->
<g id="edge2" class="edge"><title>Node1&#45;&gt;Node3</title>
<path fill="none" stroke="midnightblue" d="M111.007,-473C124.881,-473 139.909,-473 154.182,-473"/>
<polygon fill="midnightblue" stroke="midnightblue" points="154.413,-476.5 164.413,-473 154.413,-469.5 154.413,-476.5"/>
</g>
<!-- Node6 -->
<g id="node6" class="node"><title>Node6</title>
<g id="a_node6"><a xlink:href="classscram_1_1mef_1_1Component.xhtml#a1be65078ba5109830655771471d0cdf5" target="_top" xlink:title="Adds a basic event into this component container. ">
<polygon fill="white" stroke="black" points="157.5,-837 157.5,-867 279.5,-867 279.5,-837 157.5,-837"/>
<text text-anchor="start" x="165.5" y="-855" font-family="Helvetica,sans-Serif" font-size="10.00">scram::mef::Component</text>
<text text-anchor="middle" x="218.5" y="-844" font-family="Helvetica,sans-Serif" font-size="10.00">::AddBasicEvent</text>
</a>
</g>
</g>
<!-- Node1&#45;&gt;Node6 -->
<g id="edge5" class="edge"><title>Node1&#45;&gt;Node6</title>
<path fill="none" stroke="midnightblue" d="M58.4615,-488.139C66.6284,-549.028 99.7274,-775.244 147,-827 148.204,-828.318 149.482,-829.567 150.823,-830.75"/>
<polygon fill="midnightblue" stroke="midnightblue" points="148.975,-833.736 159.108,-836.832 153.118,-828.093 148.975,-833.736"/>
</g>
<!-- Node7 -->
<g id="node7" class="node"><title>Node7</title>
<g id="a_node7"><a xlink:href="classscram_1_1mef_1_1Component.xhtml#a96be4497b7269c094864d096ee0c789c" target="_top" xlink:title="Adds a CCF group and its members into this component container. ">
<polygon fill="white" stroke="black" points="330.5,-206 330.5,-236 452.5,-236 452.5,-206 330.5,-206"/>
<text text-anchor="start" x="338.5" y="-224" font-family="Helvetica,sans-Serif" font-size="10.00">scram::mef::Component</text>
<text text-anchor="middle" x="391.5" y="-213" font-family="Helvetica,sans-Serif" font-size="10.00">::AddCcfGroup</text>
</a>
</g>
</g>
<!-- Node1&#45;&gt;Node7 -->
<g id="edge6" class="edge"><title>Node1&#45;&gt;Node7</title>
<path fill="none" stroke="midnightblue" d="M57.6122,-457.71C62.7533,-391.776 86.5882,-132.942 147,-85 196.784,-45.4919 233.255,-56.3756 290,-85 336.322,-108.367 366.582,-164.28 380.882,-196.671"/>
<polygon fill="midnightblue" stroke="midnightblue" points="377.674,-198.073 384.807,-205.906 384.116,-195.334 377.674,-198.073"/>
</g>
<!-- Node8 -->
<g id="node8" class="node"><title>Node8</title>
<g id="a_node8"><a xlink:href="classscram_1_1mef_1_1Component.xhtml#a223846da8f5f38b27022cdb1143a258e" target="_top" xlink:title="Adds a member component container into this component container. ">
<polygon fill="white" stroke="black" points="157.5,-749 157.5,-779 279.5,-779 279.5,-749 157.5,-749"/>
<text text-anchor="start" x="165.5" y="-767" font-family="Helvetica,sans-Serif" font-size="10.00">scram::mef::Component</text>
<text text-anchor="middle" x="218.5" y="-756" font-family="Helvetica,sans-Serif" font-size="10.00">::AddComponent</text>
</a>
</g>
</g>
<!-- Node1&#45;&gt;Node8 -->
<g id="edge8" class="edge"><title>Node1&#45;&gt;Node8</title>
<path fill="none" stroke="midnightblue" d="M57.1413,-488.076C59.8641,-532.927 74.0232,-666.927 147,-740 148.085,-741.086 149.221,-742.124 150.401,-743.114"/>
<polygon fill="midnightblue" stroke="midnightblue" points="148.56,-746.098 158.752,-748.992 152.589,-740.374 148.56,-746.098"/>
</g>
<!-- Node9 -->
<g id="node9" class="node"><title>Node9</title>
<g id="a_node9"><a xlink:href="classscram_1_1mef_1_1Component.xhtml#a13bc34265c377d54084bda85de38e5ef" target="_top" xlink:title="Adds a gate into this component container. ">
<polygon fill="white" stroke="black" points="157.5,-700 157.5,-730 279.5,-730 279.5,-700 157.5,-700"/>
<text text-anchor="start" x="165.5" y="-718" font-family="Helvetica,sans-Serif" font-size="10.00">scram::mef::Component</text>
<text text-anchor="middle" x="218.5" y="-707" font-family="Helvetica,sans-Serif" font-size="10.00">::AddGate</text>
</a>
</g>
</g>
<!-- Node1&#45;&gt;Node9 -->
<g id="edge9" class="edge"><title>Node1&#45;&gt;Node9</title>
<path fill="none" stroke="midnightblue" d="M58.4576,-488.095C64.3327,-527.298 85.3897,-633.291 147,-691 148.265,-692.185 149.591,-693.312 150.968,-694.383"/>
<polygon fill="midnightblue" stroke="midnightblue" points="149.073,-697.326 159.343,-699.932 152.94,-691.491 149.073,-697.326"/>
</g>
<!-- Node10 -->
<g id="node10" class="node"><title>Node10</title>
<g id="a_node10"><a xlink:href="classscram_1_1mef_1_1Component.xhtml#af39cf695b8aff1bbc17ee6545e3b33f2" target="_top" xlink:title="Adds a house event into this component container. ">
<polygon fill="white" stroke="black" points="157.5,-651 157.5,-681 279.5,-681 279.5,-651 157.5,-651"/>
<text text-anchor="start" x="165.5" y="-669" font-family="Helvetica,sans-Serif" font-size="10.00">scram::mef::Component</text>
<text text-anchor="middle" x="218.5" y="-658" font-family="Helvetica,sans-Serif" font-size="10.00">::AddHouseEvent</text>
</a>
</g>
</g>
<!-- Node1&#45;&gt;Node10 -->
<g id="edge10" class="edge"><title>Node1&#45;&gt;Node10</title>
<path fill="none" stroke="midnightblue" d="M60.4509,-488.031C69.8253,-520.797 96.4986,-599.148 147,-642 148.516,-643.286 150.104,-644.504 151.75,-645.658"/>
<polygon fill="midnightblue" stroke="midnightblue" points="150.034,-648.711 160.399,-650.907 153.666,-642.727 150.034,-648.711"/>
</g>
<!-- Node11 -->
<g id="node11" class="node"><title>Node11</title>
<g id="a_node11"><a xlink:href="classscram_1_1mef_1_1Component.xhtml#a5b857d255c4d6471a7c0101c36493c75" target="_top" xlink:title="Adds a parameter into this component container. ">
<polygon fill="white" stroke="black" points="157.5,-602 157.5,-632 279.5,-632 279.5,-602 157.5,-602"/>
<text text-anchor="start" x="165.5" y="-620" font-family="Helvetica,sans-Serif" font-size="10.00">scram::mef::Component</text>
<text text-anchor="middle" x="218.5" y="-609" font-family="Helvetica,sans-Serif" font-size="10.00">::AddParameter</text>
</a>
</g>
</g>
<!-- Node1&#45;&gt;Node11 -->
<g id="edge11" class="edge"><title>Node1&#45;&gt;Node11</title>
<path fill="none" stroke="midnightblue" d="M64.1365,-488.037C77.5798,-513.074 107.801,-563.378 147,-592 149.622,-593.915 152.404,-595.694 155.29,-597.345"/>
<polygon fill="midnightblue" stroke="midnightblue" points="153.71,-600.468 164.204,-601.927 156.91,-594.243 153.71,-600.468"/>
</g>
<!-- Node12 -->
<g id="node12" class="node"><title>Node12</title>
<g id="a_node12"><a xlink:href="classscram_1_1mef_1_1Role.xhtml#ab91a51488ee8c4ed054de1e8450c8a59" target="_top" xlink:title="scram::mef::Role::base_path">
<polygon fill="white" stroke="black" points="147,-563.5 147,-582.5 290,-582.5 290,-563.5 147,-563.5"/>
<text text-anchor="middle" x="218.5" y="-570.5" font-family="Helvetica,sans-Serif" font-size="10.00">scram::mef::Role::base_path</text>
</a>
</g>
</g>
<!-- Node1&#45;&gt;Node12 -->
<g id="edge12" class="edge"><title>Node1&#45;&gt;Node12</title>
<path fill="none" stroke="midnightblue" d="M69.3215,-488.177C85.5694,-506.45 115.299,-536.819 147,-554 151.235,-556.295 155.766,-558.328 160.412,-560.125"/>
<polygon fill="midnightblue" stroke="midnightblue" points="159.457,-563.499 170.052,-563.492 161.765,-556.89 159.457,-563.499"/>
</g>
<!-- Node13 -->
<g id="node13" class="node"><title>Node13</title>
<g id="a_node13"><a xlink:href="xml_8h.xhtml#ac6e06a790ddf60f0108718e37bb405ed" target="_top" xlink:title="Initializes a DOM parser and converts library exceptions into local errors. ">
<polygon fill="white" stroke="black" points="147.5,-507.5 147.5,-526.5 289.5,-526.5 289.5,-507.5 147.5,-507.5"/>
<text text-anchor="middle" x="218.5" y="-514.5" font-family="Helvetica,sans-Serif" font-size="10.00">scram::ConstructDomParser</text>
</a>
</g>
</g>
<!-- Node1&#45;&gt;Node13 -->
<g id="edge13" class="edge"><title>Node1&#45;&gt;Node13</title>
<path fill="none" stroke="midnightblue" d="M111.041,-488.126C122.892,-491.396 135.363,-494.825 147,-498 155.174,-500.231 163.887,-502.592 172.298,-504.863"/>
<polygon fill="midnightblue" stroke="midnightblue" points="171.418,-508.251 181.985,-507.475 173.241,-501.492 171.418,-508.251"/>
</g>
<!-- Node14 -->
<g id="node14" class="node"><title>Node14</title>
<g id="a_node14"><a xlink:href="classscram_1_1mef_1_1Parameter.xhtml#a20dae114ae08bde6eb550db6745a16cc" target="_top" xlink:title="Sets the expression of this parameter. ">
<polygon fill="white" stroke="black" points="160,-886 160,-916 277,-916 277,-886 160,-886"/>
<text text-anchor="start" x="168" y="-904" font-family="Helvetica,sans-Serif" font-size="10.00">scram::mef::Parameter</text>
<text text-anchor="middle" x="218.5" y="-893" font-family="Helvetica,sans-Serif" font-size="10.00">::expression</text>
</a>
</g>
</g>
<!-- Node1&#45;&gt;Node14 -->
<g id="edge15" class="edge"><title>Node1&#45;&gt;Node14</title>
<path fill="none" stroke="midnightblue" d="M57.955,-488.436C64.526,-555.067 93.4641,-817.361 147,-877 148.36,-878.515 149.82,-879.935 151.362,-881.265"/>
<polygon fill="midnightblue" stroke="midnightblue" points="149.502,-884.238 159.675,-887.198 153.568,-878.54 149.502,-884.238"/>
</g>
<!-- Node16 -->
<g id="node16" class="node"><title>Node16</title>
<g id="a_node16"><a xlink:href="classscram_1_1mef_1_1BasicEvent.xhtml#adbe388b7612beddb5d1646805343b4c3" target="_top" xlink:title="Sets the expression of this basic event. ">
<polygon fill="white" stroke="black" points="157.5,-409 157.5,-439 279.5,-439 279.5,-409 157.5,-409"/>
<text text-anchor="start" x="165.5" y="-427" font-family="Helvetica,sans-Serif" font-size="10.00">scram::mef::BasicEvent</text>
<text text-anchor="middle" x="218.5" y="-416" font-family="Helvetica,sans-Serif" font-size="10.00">::expression</text>
</a>
</g>
</g>
<!-- Node1&#45;&gt;Node16 -->
<g id="edge17" class="edge"><title>Node1&#45;&gt;Node16</title>
<path fill="none" stroke="midnightblue" d="M106.119,-457.899C122.57,-452.892 141.049,-447.268 158.157,-442.061"/>
<polygon fill="midnightblue" stroke="midnightblue" points="159.497,-445.312 168.045,-439.052 157.459,-438.615 159.497,-445.312"/>
</g>
<!-- Node18 -->
<g id="node18" class="node"><title>Node18</title>
<g id="a_node18"><a xlink:href="classscram_1_1mef_1_1Gate.xhtml#abde84a63a060e2424ab92431634f21d9" target="_top" xlink:title="scram::mef::Gate::formula">
<polygon fill="white" stroke="black" points="153,-370.5 153,-389.5 284,-389.5 284,-370.5 153,-370.5"/>
<text text-anchor="middle" x="218.5" y="-377.5" font-family="Helvetica,sans-Serif" font-size="10.00">scram::mef::Gate::formula</text>
</a>
</g>
</g>
<!-- Node1&#45;&gt;Node18 -->
<g id="edge19" class="edge"><title>Node1&#45;&gt;Node18</title>
<path fill="none" stroke="midnightblue" d="M71.1571,-457.987C88.0228,-441.524 117.241,-415.402 147,-400 152.284,-397.265 157.99,-394.862 163.788,-392.761"/>
<polygon fill="midnightblue" stroke="midnightblue" points="165.19,-395.983 173.573,-389.504 162.98,-389.341 165.19,-395.983"/>
</g>
<!-- Node19 -->
<g id="node19" class="node"><title>Node19</title>
<g id="a_node19"><a xlink:href="xml_8h.xhtml#a0c5491388e25d1f1badb26b56ef302e7" target="_top" xlink:title="Returns Normalized (trimmed) string value of an XML element attribute. ">
<polygon fill="white" stroke="black" points="155,-314.5 155,-333.5 282,-333.5 282,-314.5 155,-314.5"/>
<text text-anchor="middle" x="218.5" y="-321.5" font-family="Helvetica,sans-Serif" font-size="10.00">scram::GetAttributeValue</text>
</a>
</g>
</g>
<!-- Node1&#45;&gt;Node19 -->
<g id="edge20" class="edge"><title>Node1&#45;&gt;Node19</title>
<path fill="none" stroke="midnightblue" d="M65.7533,-457.952C80.5863,-434.784 111.637,-390.023 147,-361 158.154,-351.846 171.934,-344.005 184.344,-337.928"/>
<polygon fill="midnightblue" stroke="midnightblue" points="185.934,-341.049 193.501,-333.633 182.961,-334.711 185.934,-341.049"/>
</g>
<!-- Node20 -->
<g id="node20" class="node"><title>Node20</title>
<g id="a_node20"><a xlink:href="xml_8h.xhtml#a818b7826f3993c5ff58d45a237274285" target="_top" xlink:title="Returns Normalized content of an XML text node. ">
<polygon fill="white" stroke="black" points="168.5,-258.5 168.5,-277.5 268.5,-277.5 268.5,-258.5 168.5,-258.5"/>
<text text-anchor="middle" x="218.5" y="-265.5" font-family="Helvetica,sans-Serif" font-size="10.00">scram::GetContent</text>
</a>
</g>
</g>
<!-- Node1&#45;&gt;Node20 -->
<g id="edge22" class="edge"><title>Node1&#45;&gt;Node20</title>
<path fill="none" stroke="midnightblue" d="M61.3118,-457.657C72.0213,-425.643 100.602,-350.899 147,-305 156.693,-295.412 169.382,-287.719 181.319,-281.885"/>
<polygon fill="midnightblue" stroke="midnightblue" points="183.028,-284.953 190.661,-277.604 180.112,-278.589 183.028,-284.953"/>
</g>
<!-- Node21 -->
<g id="node21" class="node"><title>Node21</title>
<g id="a_node21"><a xlink:href="classscram_1_1Env.xhtml#a2c187e02af924b538ba19ba3608b88e2" target="_top" xlink:title="scram::Env::input_schema">
<polygon fill="white" stroke="black" points="151.5,-220.5 151.5,-239.5 285.5,-239.5 285.5,-220.5 151.5,-220.5"/>
<text text-anchor="middle" x="218.5" y="-227.5" font-family="Helvetica,sans-Serif" font-size="10.00">scram::Env::input_schema</text>
</a>
</g>
</g>
<!-- Node1&#45;&gt;Node21 -->
<g id="edge24" class="edge"><title>Node1&#45;&gt;Node21</title>
<path fill="none" stroke="midnightblue" d="M58.0352,-457.85C62.9523,-417.498 82.0162,-306.577 147,-249 148.773,-247.429 150.663,-245.986 152.643,-244.661"/>
<polygon fill="midnightblue" stroke="midnightblue" points="154.772,-247.483 161.821,-239.574 151.378,-241.36 154.772,-247.483"/>
</g>
<!-- Node22 -->
<g id="node22" class="node"><title>Node22</title>
<g id="a_node22"><a xlink:href="classscram_1_1mef_1_1Element.xhtml#a87e90b86d7599c2f60d7a7b99ab52d20" target="_top" xlink:title="scram::mef::Element\l::label">
<polygon fill="white" stroke="black" points="164.5,-171 164.5,-201 272.5,-201 272.5,-171 164.5,-171"/>
<text text-anchor="start" x="172.5" y="-189" font-family="Helvetica,sans-Serif" font-size="10.00">scram::mef::Element</text>
<text text-anchor="middle" x="218.5" y="-178" font-family="Helvetica,sans-Serif" font-size="10.00">::label</text>
</a>
</g>
</g>
<!-- Node1&#45;&gt;Node22 -->
<g id="edge25" class="edge"><title>Node1&#45;&gt;Node22</title>
<path fill="none" stroke="midnightblue" d="M57.2999,-457.929C60.4535,-413.71 75.6643,-282.922 147,-211 149.623,-208.355 152.544,-205.989 155.663,-203.872"/>
<polygon fill="midnightblue" stroke="midnightblue" points="157.434,-206.891 164.311,-198.832 153.909,-200.843 157.434,-206.891"/>
</g>
<!-- Node23 -->
<g id="node23" class="node"><title>Node23</title>
<g id="a_node23"><a xlink:href="classscram_1_1Error.xhtml#a35818dcc7c8dde101d4fd117adf47bc3" target="_top" xlink:title="scram::Error::msg">
<polygon fill="white" stroke="black" points="171,-132.5 171,-151.5 266,-151.5 266,-132.5 171,-132.5"/>
<text text-anchor="middle" x="218.5" y="-139.5" font-family="Helvetica,sans-Serif" font-size="10.00">scram::Error::msg</text>
</a>
</g>
</g>
<!-- Node1&#45;&gt;Node23 -->
<g id="edge26" class="edge"><title>Node1&#45;&gt;Node23</title>
<path fill="none" stroke="midnightblue" d="M56.0557,-457.74C55.4656,-407.512 60.6449,-245.724 147,-161 151.072,-157.005 155.891,-153.828 161.068,-151.303"/>
<polygon fill="midnightblue" stroke="midnightblue" points="162.72,-154.411 170.69,-147.43 160.106,-147.918 162.72,-154.411"/>
</g>
<!-- Node24 -->
<g id="node24" class="node"><title>Node24</title>
<g id="a_node24"><a xlink:href="classscram_1_1mef_1_1Role.xhtml#aa1843c29411c29b27d79414d34525bbc" target="_top" xlink:title="scram::mef::Role::role">
<polygon fill="white" stroke="black" points="161.5,-94.5 161.5,-113.5 275.5,-113.5 275.5,-94.5 161.5,-94.5"/>
<text text-anchor="middle" x="218.5" y="-101.5" font-family="Helvetica,sans-Serif" font-size="10.00">scram::mef::Role::role</text>
</a>
</g>
</g>
<!-- Node1&#45;&gt;Node24 -->
<g id="edge27" class="edge"><title>Node1&#45;&gt;Node24</title>
<path fill="none" stroke="midnightblue" d="M58.3765,-457.926C66.2139,-397.317 98.2117,-172.289 147,-123 148.666,-121.316 150.465,-119.777 152.368,-118.371"/>
<polygon fill="midnightblue" stroke="midnightblue" points="154.519,-121.162 161.292,-113.014 150.917,-115.16 154.519,-121.162"/>
</g>
<!-- Node25 -->
<g id="node25" class="node"><title>Node25</title>
<g id="a_node25"><a xlink:href="classscram_1_1mef_1_1Gate.xhtml#abeb0d7efda63e877e150f54719da1ba8" target="_top" xlink:title="Checks if a gate is initialized correctly. ">
<polygon fill="white" stroke="black" points="151.5,-798.5 151.5,-817.5 285.5,-817.5 285.5,-798.5 151.5,-798.5"/>
<text text-anchor="middle" x="218.5" y="-805.5" font-family="Helvetica,sans-Serif" font-size="10.00">scram::mef::Gate::Validate</text>
</a>
</g>
</g>
<!-- Node1&#45;&gt;Node25 -->
<g id="edge28" class="edge"><title>Node1&#45;&gt;Node25</title>
<path fill="none" stroke="midnightblue" d="M55.9923,-488.097C55.1605,-538.543 59.5653,-702.925 147,-789 148.457,-790.434 150.01,-791.763 151.641,-792.994"/>
<polygon fill="midnightblue" stroke="midnightblue" points="150.016,-796.104 160.366,-798.37 153.688,-790.144 150.016,-796.104"/>
</g>
<!-- Node27 -->
<g id="node27" class="node"><title>Node27</title>
<g id="a_node27"><a xlink:href="xml_8h.xhtml#ab908f9834f69be3009ee07445b51a673" target="_top" xlink:title="Helper function to statically cast to XML element. ">
<polygon fill="white" stroke="black" points="167,-0.5 167,-19.5 270,-19.5 270,-0.5 167,-0.5"/>
<text text-anchor="middle" x="218.5" y="-7.5" font-family="Helvetica,sans-Serif" font-size="10.00">scram::XmlElement</text>
</a>
</g>
</g>
<!-- Node1&#45;&gt;Node27 -->
<g id="edge33" class="edge"><title>Node1&#45;&gt;Node27</title>
<path fill="none" stroke="midnightblue" d="M58.1497,-457.648C65.6495,-390.123 98.2794,-119.867 147,-52 155.691,-39.893 169.052,-30.6675 181.814,-23.9901"/>
<polygon fill="midnightblue" stroke="midnightblue" points="183.454,-27.0849 190.926,-19.5736 180.4,-20.7858 183.454,-27.0849"/>
</g>
<!-- Node4 -->
<g id="node4" class="node"><title>Node4</title>
<g id="a_node4"><a xlink:href="classscram_1_1mef_1_1Element.xhtml#ae291c86b68c20c0e2b845fbbc8bddb25" target="_top" xlink:title="Checks if the element has a given attribute. ">
<polygon fill="white" stroke="black" points="337.5,-700 337.5,-730 445.5,-730 445.5,-700 337.5,-700"/>
<text text-anchor="start" x="345.5" y="-718" font-family="Helvetica,sans-Serif" font-size="10.00">scram::mef::Element</text>
<text text-anchor="middle" x="391.5" y="-707" font-family="Helvetica,sans-Serif" font-size="10.00">::HasAttribute</text>
</a>
</g>
</g>
<!-- Node3&#45;&gt;Node4 -->
<g id="edge3" class="edge"><title>Node3&#45;&gt;Node4</title>
<path fill="none" stroke="midnightblue" d="M272.588,-486.485C278.909,-489.577 284.912,-493.364 290,-498 348.405,-551.214 375.514,-645.232 385.581,-689.979"/>
<polygon fill="midnightblue" stroke="midnightblue" points="382.209,-690.95 387.731,-699.992 389.053,-689.48 382.209,-690.95"/>
</g>
<!-- Node5 -->
<g id="node5" class="node"><title>Node5</title>
<g id="a_node5"><a xlink:href="classscram_1_1mef_1_1Element.xhtml#adb401e2ca84aa98cb60797bec2500a81" target="_top" xlink:title="scram::mef::Element\l::name">
<polygon fill="white" stroke="black" points="493,-724 493,-754 601,-754 601,-724 493,-724"/>
<text text-anchor="start" x="501" y="-742" font-family="Helvetica,sans-Serif" font-size="10.00">scram::mef::Element</text>
<text text-anchor="middle" x="547" y="-731" font-family="Helvetica,sans-Serif" font-size="10.00">::name</text>
</a>
</g>
</g>
<!-- Node4&#45;&gt;Node5 -->
<g id="edge4" class="edge"><title>Node4&#45;&gt;Node5</title>
<path fill="none" stroke="midnightblue" d="M445.756,-723.327C457.662,-725.188 470.403,-727.18 482.672,-729.099"/>
<polygon fill="midnightblue" stroke="midnightblue" points="482.417,-732.601 492.838,-730.688 483.499,-725.685 482.417,-732.601"/>
</g>
<!-- Node7&#45;&gt;Node5 -->
<g id="edge7" class="edge"><title>Node7&#45;&gt;Node5</title>
<path fill="none" stroke="midnightblue" d="M398.485,-236.169C410.467,-266.827 437.885,-338.489 457,-400 493.134,-516.275 527.157,-657.9 540.292,-714.203"/>
<polygon fill="midnightblue" stroke="midnightblue" points="536.895,-715.047 542.566,-723.996 543.713,-713.463 536.895,-715.047"/>
</g>
<!-- Node13&#45;&gt;Node13 -->
<g id="edge14" class="edge"><title>Node13&#45;&gt;Node13</title>
<path fill="none" stroke="midnightblue" d="M193.531,-526.757C181.384,-535.565 189.707,-545 218.5,-545 237.845,-545 247.95,-540.741 248.814,-535.275"/>
<polygon fill="midnightblue" stroke="midnightblue" points="251.749,-533.367 243.469,-526.757 245.82,-537.088 251.749,-533.367"/>
</g>
<!-- Node15 -->
<g id="node15" class="node"><title>Node15</title>
<g id="a_node15"><a xlink:href="classscram_1_1mef_1_1Expression.xhtml#ae7934df291c680fd99bdfe4090007543" target="_top" xlink:title="Registers an additional argument expression. ">
<polygon fill="white" stroke="black" points="331,-886 331,-916 452,-916 452,-886 331,-886"/>
<text text-anchor="start" x="339" y="-904" font-family="Helvetica,sans-Serif" font-size="10.00">scram::mef::Expression</text>
<text text-anchor="middle" x="391.5" y="-893" font-family="Helvetica,sans-Serif" font-size="10.00">::AddArg</text>
</a>
</g>
</g>
<!-- Node14&#45;&gt;Node15 -->
<g id="edge16" class="edge"><title>Node14&#45;&gt;Node15</title>
<path fill="none" stroke="midnightblue" d="M277.393,-901C291.271,-901 306.236,-901 320.594,-901"/>
<polygon fill="midnightblue" stroke="midnightblue" points="320.918,-904.5 330.918,-901 320.918,-897.5 320.918,-904.5"/>
</g>
<!-- Node17 -->
<g id="node17" class="node"><title>Node17</title>
<g id="a_node17"><a xlink:href="classscram_1_1mef_1_1PrimaryEvent.xhtml#aa2199d6fedce64816ee9118d12a911a8" target="_top" xlink:title="scram::mef::PrimaryEvent\l::has_expression">
<polygon fill="white" stroke="black" points="326,-409 326,-439 457,-439 457,-409 326,-409"/>
<text text-anchor="start" x="334" y="-427" font-family="Helvetica,sans-Serif" font-size="10.00">scram::mef::PrimaryEvent</text>
<text text-anchor="middle" x="391.5" y="-416" font-family="Helvetica,sans-Serif" font-size="10.00">::has_expression</text>
</a>
</g>
</g>
<!-- Node16&#45;&gt;Node17 -->
<g id="edge18" class="edge"><title>Node16&#45;&gt;Node17</title>
<path fill="none" stroke="midnightblue" d="M279.788,-424C291.432,-424 303.761,-424 315.8,-424"/>
<polygon fill="midnightblue" stroke="midnightblue" points="315.823,-427.5 325.823,-424 315.823,-420.5 315.823,-427.5"/>
</g>
<!-- Node19&#45;&gt;Node19 -->
<g id="edge21" class="edge"><title>Node19&#45;&gt;Node19</title>
<path fill="none" stroke="midnightblue" d="M193.531,-333.757C181.384,-342.565 189.707,-352 218.5,-352 237.845,-352 247.95,-347.741 248.814,-342.275"/>
<polygon fill="midnightblue" stroke="midnightblue" points="251.749,-340.367 243.469,-333.757 245.82,-344.088 251.749,-340.367"/>
</g>
<!-- Node20&#45;&gt;Node20 -->
<g id="edge23" class="edge"><title>Node20&#45;&gt;Node20</title>
<path fill="none" stroke="midnightblue" d="M193.531,-277.757C181.384,-286.565 189.707,-296 218.5,-296 237.845,-296 247.95,-291.741 248.814,-286.275"/>
<polygon fill="midnightblue" stroke="midnightblue" points="251.749,-284.367 243.469,-277.757 245.82,-288.088 251.749,-284.367"/>
</g>
<!-- Node25&#45;&gt;Node4 -->
<g id="edge31" class="edge"><title>Node25&#45;&gt;Node4</title>
<path fill="none" stroke="midnightblue" d="M271.362,-798.401C277.949,-795.947 284.351,-792.866 290,-789 312.3,-773.737 304.544,-756.429 326,-740 328.324,-738.22 330.791,-736.553 333.351,-734.993"/>
<polygon fill="midnightblue" stroke="midnightblue" points="335.241,-737.949 342.349,-730.092 331.893,-731.801 335.241,-737.949"/>
</g>
<!-- Node25&#45;&gt;Node5 -->
<g id="edge32" class="edge"><title>Node25&#45;&gt;Node5</title>
<path fill="none" stroke="midnightblue" d="M285.676,-810.239C334.122,-810.084 400.913,-806.095 457,-789 478.17,-782.548 499.864,-770.493 516.533,-759.837"/>
<polygon fill="midnightblue" stroke="midnightblue" points="518.812,-762.527 525.241,-754.105 514.964,-756.679 518.812,-762.527"/>
</g>
<!-- Node26 -->
<g id="node26" class="node"><title>Node26</title>
<g id="a_node26"><a xlink:href="classscram_1_1mef_1_1Element.xhtml#a7db1af9365e25a0ce332a1745441630a" target="_top" xlink:title="scram::mef::Element\l::GetAttribute">
<polygon fill="white" stroke="black" points="337.5,-749 337.5,-779 445.5,-779 445.5,-749 337.5,-749"/>
<text text-anchor="start" x="345.5" y="-767" font-family="Helvetica,sans-Serif" font-size="10.00">scram::mef::Element</text>
<text text-anchor="middle" x="391.5" y="-756" font-family="Helvetica,sans-Serif" font-size="10.00">::GetAttribute</text>
</a>
</g>
</g>
<!-- Node25&#45;&gt;Node26 -->
<g id="edge29" class="edge"><title>Node25&#45;&gt;Node26</title>
<path fill="none" stroke="midnightblue" d="M256.604,-798.453C277.324,-793.121 303.698,-786.335 327.55,-780.198"/>
<polygon fill="midnightblue" stroke="midnightblue" points="328.432,-783.585 337.244,-777.703 326.687,-776.806 328.432,-783.585"/>
</g>
<!-- Node26&#45;&gt;Node5 -->
<g id="edge30" class="edge"><title>Node26&#45;&gt;Node5</title>
<path fill="none" stroke="midnightblue" d="M445.756,-755.326C457.662,-753.387 470.403,-751.312 482.672,-749.314"/>
<polygon fill="midnightblue" stroke="midnightblue" points="483.531,-752.72 492.838,-747.658 482.405,-745.811 483.531,-752.72"/>
</g>
<!-- Node27&#45;&gt;Node27 -->
<g id="edge34" class="edge"><title>Node27&#45;&gt;Node27</title>
<path fill="none" stroke="midnightblue" d="M193.531,-19.7571C181.384,-28.5653 189.707,-38 218.5,-38 237.845,-38 247.95,-33.741 248.814,-28.2746"/>
<polygon fill="midnightblue" stroke="midnightblue" points="251.749,-26.3667 243.469,-19.7571 245.82,-30.0877 251.749,-26.3667"/>
</g>
</g>
</svg>
