<?xml version="1.0" encoding="UTF-8" standalone="no"?>
<!DOCTYPE svg PUBLIC "-//W3C//DTD SVG 1.1//EN"
 "http://www.w3.org/Graphics/SVG/1.1/DTD/svg11.dtd">
<!-- Generated by graphviz version 2.38.0 (20140413.2041)
 -->
<!-- Title: scram::core::Preprocessor::AssignOrder Pages: 1 -->
<svg width="1405pt" height="196pt"
 viewBox="0.00 0.00 1405.00 196.00" xmlns="http://www.w3.org/2000/svg" xmlns:xlink="http://www.w3.org/1999/xlink">
<g id="graph0" class="graph" transform="scale(1 1) rotate(0) translate(4 192)">
<title>scram::core::Preprocessor::AssignOrder</title>
<polygon fill="white" stroke="none" points="-4,4 -4,-192 1401,-192 1401,4 -4,4"/>
<!-- Node1 -->
<g id="node1" class="node"><title>Node1</title>
<polygon fill="#bfbfbf" stroke="black" points="0,-46.5 0,-76.5 132,-76.5 132,-46.5 0,-46.5"/>
<text text-anchor="start" x="8" y="-64.5" font-family="Helvetica,sans-Serif" font-size="10.00">scram::core::Preprocessor</text>
<text text-anchor="middle" x="66" y="-53.5" font-family="Helvetica,sans-Serif" font-size="10.00">::AssignOrder</text>
</g>
<!-- Node2 -->
<g id="node2" class="node"><title>Node2</title>
<g id="a_node2"><a xlink:href="classscram_1_1core_1_1Preprocessor.xhtml#ad13e133278ea7563c1ba037c05c35aa2" target="_top" xlink:title="Normalizes the gates of the whole Boolean graph into OR, AND gates. ">
<polygon fill="white" stroke="black" points="168,-90.5 168,-120.5 300,-120.5 300,-90.5 168,-90.5"/>
<text text-anchor="start" x="176" y="-108.5" font-family="Helvetica,sans-Serif" font-size="10.00">scram::core::Preprocessor</text>
<text text-anchor="middle" x="234" y="-97.5" font-family="Helvetica,sans-Serif" font-size="10.00">::NormalizeGates</text>
</a>
</g>
</g>
<!-- Node1&#45;&gt;Node2 -->
<g id="edge1" class="edge"><title>Node1&#45;&gt;Node2</title>
<path fill="none" stroke="midnightblue" d="M133.378,-79.0941C147.598,-82.8632 162.496,-86.8122 176.31,-90.4738"/>
<polygon fill="midnightblue" stroke="midnightblue" points="134.226,-75.6983 123.663,-76.5192 132.433,-82.4646 134.226,-75.6983"/>
</g>
<!-- Node10 -->
<g id="node10" class="node"><title>Node10</title>
<g id="a_node10"><a xlink:href="classscram_1_1core_1_1CustomPreprocessor_3_01Bdd_01_4.xhtml#a8cf4307236cd521e39a2c6feb21f3214" target="_top" xlink:title="Performs preprocessing for analyses with Binary Decision Diagrams. ">
<polygon fill="white" stroke="black" points="696,-49.5 696,-79.5 863,-79.5 863,-49.5 696,-49.5"/>
<text text-anchor="start" x="704" y="-67.5" font-family="Helvetica,sans-Serif" font-size="10.00">scram::core::CustomPreprocessor</text>
<text text-anchor="middle" x="779.5" y="-56.5" font-family="Helvetica,sans-Serif" font-size="10.00">&lt; Bdd &gt;::Run</text>
</a>
</g>
</g>
<!-- Node1&#45;&gt;Node10 -->
<g id="edge13" class="edge"><title>Node1&#45;&gt;Node10</title>
<path fill="none" stroke="midnightblue" d="M142.218,-61.8172C276.461,-62.3832 556.287,-63.5631 695.765,-64.1512"/>
<polygon fill="midnightblue" stroke="midnightblue" points="142.042,-58.3165 132.027,-61.7742 142.012,-65.3164 142.042,-58.3165"/>
</g>
<!-- Node11 -->
<g id="node11" class="node"><title>Node11</title>
<g id="a_node11"><a xlink:href="classscram_1_1core_1_1CustomPreprocessor_3_01Zbdd_01_4.xhtml#a5185075f852c647c7aa4313d23420ee5" target="_top" xlink:title="Performs preprocessing for analyses with Zero&#45;Suppressed Binary Decision Diagrams. ">
<polygon fill="white" stroke="black" points="696,-0.5 696,-30.5 863,-30.5 863,-0.5 696,-0.5"/>
<text text-anchor="start" x="704" y="-18.5" font-family="Helvetica,sans-Serif" font-size="10.00">scram::core::CustomPreprocessor</text>
<text text-anchor="middle" x="779.5" y="-7.5" font-family="Helvetica,sans-Serif" font-size="10.00">&lt; Zbdd &gt;::Run</text>
</a>
</g>
</g>
<!-- Node1&#45;&gt;Node11 -->
<g id="edge14" class="edge"><title>Node1&#45;&gt;Node11</title>
<path fill="none" stroke="midnightblue" d="M142.218,-56.637C276.461,-47.9579 556.287,-29.8665 695.765,-20.849"/>
<polygon fill="midnightblue" stroke="midnightblue" points="141.78,-53.1579 132.027,-57.2959 142.232,-60.1433 141.78,-53.1579"/>
</g>
<!-- Node3 -->
<g id="node3" class="node"><title>Node3</title>
<g id="a_node3"><a xlink:href="classscram_1_1core_1_1Preprocessor.xhtml#a44f820b6fe2c23594c818432b33e26a6" target="_top" xlink:title="Container of unique gates by semantics. ">
<polygon fill="white" stroke="black" points="336,-139.5 336,-169.5 468,-169.5 468,-139.5 336,-139.5"/>
<text text-anchor="start" x="344" y="-157.5" font-family="Helvetica,sans-Serif" font-size="10.00">scram::core::Preprocessor</text>
<text text-anchor="middle" x="402" y="-146.5" font-family="Helvetica,sans-Serif" font-size="10.00">::RunPhaseOne</text>
</a>
</g>
</g>
<!-- Node2&#45;&gt;Node3 -->
<g id="edge2" class="edge"><title>Node2&#45;&gt;Node3</title>
<path fill="none" stroke="midnightblue" d="M295.868,-123.467C313.654,-128.717 332.902,-134.399 350.009,-139.448"/>
<polygon fill="midnightblue" stroke="midnightblue" points="296.742,-120.076 286.16,-120.601 294.76,-126.789 296.742,-120.076"/>
</g>
<!-- Node12 -->
<g id="node12" class="node"><title>Node12</title>
<g id="a_node12"><a xlink:href="classscram_1_1core_1_1Preprocessor.xhtml#abf2c66723172a85b2ae87ef2a034cd1f" target="_top" xlink:title="Application of gate normalization. ">
<polygon fill="white" stroke="black" points="336,-90.5 336,-120.5 468,-120.5 468,-90.5 336,-90.5"/>
<text text-anchor="start" x="344" y="-108.5" font-family="Helvetica,sans-Serif" font-size="10.00">scram::core::Preprocessor</text>
<text text-anchor="middle" x="402" y="-97.5" font-family="Helvetica,sans-Serif" font-size="10.00">::RunPhaseThree</text>
</a>
</g>
</g>
<!-- Node2&#45;&gt;Node12 -->
<g id="edge11" class="edge"><title>Node2&#45;&gt;Node12</title>
<path fill="none" stroke="midnightblue" d="M310.393,-105.5C318.869,-105.5 327.452,-105.5 335.784,-105.5"/>
<polygon fill="midnightblue" stroke="midnightblue" points="310.131,-102 300.131,-105.5 310.131,-109 310.131,-102"/>
</g>
<!-- Node4 -->
<g id="node4" class="node"><title>Node4</title>
<g id="a_node4"><a xlink:href="classscram_1_1core_1_1Preprocessor.xhtml#a2b6705e815fa3d02119c405b483766d5" target="_top" xlink:title="Runs the default preprocessing that achieves the graph in a normal form. ">
<polygon fill="white" stroke="black" points="504,-106 504,-125 660,-125 660,-106 504,-106"/>
<text text-anchor="middle" x="582" y="-113" font-family="Helvetica,sans-Serif" font-size="10.00">scram::core::Preprocessor::Run</text>
</a>
</g>
</g>
<!-- Node3&#45;&gt;Node4 -->
<g id="edge3" class="edge"><title>Node3&#45;&gt;Node4</title>
<path fill="none" stroke="midnightblue" d="M477.899,-138.089C498.232,-133.634 519.573,-128.959 537.53,-125.024"/>
<polygon fill="midnightblue" stroke="midnightblue" points="477.037,-134.695 468.018,-140.255 478.535,-141.533 477.037,-134.695"/>
</g>
<!-- Node5 -->
<g id="node5" class="node"><title>Node5</title>
<g id="a_node5"><a xlink:href="classscram_1_1core_1_1FaultTreeAnalyzer.xhtml#af6d3e735d4200c3efed0164c58aabf57" target="_top" xlink:title="Runs fault tree analysis with the given algorithm. ">
<polygon fill="white" stroke="black" points="702.5,-157.5 702.5,-187.5 856.5,-187.5 856.5,-157.5 702.5,-157.5"/>
<text text-anchor="start" x="710.5" y="-175.5" font-family="Helvetica,sans-Serif" font-size="10.00">scram::core::FaultTreeAnalyzer</text>
<text text-anchor="middle" x="779.5" y="-164.5" font-family="Helvetica,sans-Serif" font-size="10.00">::Analyze</text>
</a>
</g>
</g>
<!-- Node4&#45;&gt;Node5 -->
<g id="edge4" class="edge"><title>Node4&#45;&gt;Node5</title>
<path fill="none" stroke="midnightblue" d="M625.317,-127.869C646.534,-134.068 672.625,-141.687 696,-148.5 705.881,-151.38 716.429,-154.451 726.567,-157.401"/>
<polygon fill="midnightblue" stroke="midnightblue" points="626.214,-124.485 615.634,-125.04 624.251,-131.204 626.214,-124.485"/>
</g>
<!-- Node9 -->
<g id="node9" class="node"><title>Node9</title>
<g id="a_node9"><a xlink:href="classscram_1_1core_1_1ProbabilityAnalyzer_3_01Bdd_01_4.xhtml#a517506c181102100cc6a3e96710813c6" target="_top" xlink:title="Calculates the total probability with a different set of probability values than the one given upon c...">
<polygon fill="white" stroke="black" points="700,-98 700,-139 859,-139 859,-98 700,-98"/>
<text text-anchor="start" x="708" y="-127" font-family="Helvetica,sans-Serif" font-size="10.00">scram::core::Probability</text>
<text text-anchor="start" x="708" y="-116" font-family="Helvetica,sans-Serif" font-size="10.00">Analyzer&lt; Bdd &gt;::CalculateTotal</text>
<text text-anchor="middle" x="779.5" y="-105" font-family="Helvetica,sans-Serif" font-size="10.00">Probability</text>
</a>
</g>
</g>
<!-- Node4&#45;&gt;Node9 -->
<g id="edge8" class="edge"><title>Node4&#45;&gt;Node9</title>
<path fill="none" stroke="midnightblue" d="M670.422,-116.842C680.232,-116.992 690.182,-117.145 699.872,-117.293"/>
<polygon fill="midnightblue" stroke="midnightblue" points="670.319,-113.34 660.267,-116.686 670.212,-120.339 670.319,-113.34"/>
</g>
<!-- Node4&#45;&gt;Node10 -->
<g id="edge9" class="edge"><title>Node4&#45;&gt;Node10</title>
<path fill="none" stroke="midnightblue" d="M629.486,-103.373C656.836,-96.2383 691.654,-87.1555 720.755,-79.564"/>
<polygon fill="midnightblue" stroke="midnightblue" points="628.565,-99.9963 619.772,-105.907 630.332,-106.77 628.565,-99.9963"/>
</g>
<!-- Node4&#45;&gt;Node11 -->
<g id="edge10" class="edge"><title>Node4&#45;&gt;Node11</title>
<path fill="none" stroke="midnightblue" d="M602.544,-99.5848C624.224,-82.615 660.804,-55.966 696,-39.5 703.161,-36.1499 710.893,-33.1582 718.653,-30.5202"/>
<polygon fill="midnightblue" stroke="midnightblue" points="600.127,-97.0349 594.475,-105.996 604.482,-102.516 600.127,-97.0349"/>
</g>
<!-- Node6 -->
<g id="node6" class="node"><title>Node6</title>
<g id="a_node6"><a xlink:href="classscram_1_1core_1_1RiskAnalysis.xhtml#a7aed757ac5a7a96878c2706a7a9710bb" target="_top" xlink:title="Analyzes the model and performs computations specified in the settings. ">
<polygon fill="white" stroke="black" points="899,-157.5 899,-187.5 1031,-187.5 1031,-157.5 899,-157.5"/>
<text text-anchor="start" x="907" y="-175.5" font-family="Helvetica,sans-Serif" font-size="10.00">scram::core::RiskAnalysis</text>
<text text-anchor="middle" x="965" y="-164.5" font-family="Helvetica,sans-Serif" font-size="10.00">::Analyze</text>
</a>
</g>
</g>
<!-- Node5&#45;&gt;Node6 -->
<g id="edge5" class="edge"><title>Node5&#45;&gt;Node6</title>
<path fill="none" stroke="midnightblue" d="M866.954,-172.5C877.672,-172.5 888.486,-172.5 898.81,-172.5"/>
<polygon fill="midnightblue" stroke="midnightblue" points="866.726,-169 856.726,-172.5 866.726,-176 866.726,-169"/>
</g>
<!-- Node7 -->
<g id="node7" class="node"><title>Node7</title>
<g id="a_node7"><a xlink:href="classscram_1_1core_1_1RiskAnalysis.xhtml#a337f7e9fe02b1581e872590d6f7baa01" target="_top" xlink:title="scram::core::RiskAnalysis\l::model">
<polygon fill="white" stroke="black" points="1067,-157.5 1067,-187.5 1199,-187.5 1199,-157.5 1067,-157.5"/>
<text text-anchor="start" x="1075" y="-175.5" font-family="Helvetica,sans-Serif" font-size="10.00">scram::core::RiskAnalysis</text>
<text text-anchor="middle" x="1133" y="-164.5" font-family="Helvetica,sans-Serif" font-size="10.00">::model</text>
</a>
</g>
</g>
<!-- Node6&#45;&gt;Node7 -->
<g id="edge6" class="edge"><title>Node6&#45;&gt;Node7</title>
<path fill="none" stroke="midnightblue" d="M1041.39,-172.5C1049.87,-172.5 1058.45,-172.5 1066.78,-172.5"/>
<polygon fill="midnightblue" stroke="midnightblue" points="1041.13,-169 1031.13,-172.5 1041.13,-176 1041.13,-169"/>
</g>
<!-- Node8 -->
<g id="node8" class="node"><title>Node8</title>
<g id="a_node8"><a xlink:href="reporter_8cc.xhtml#ad6460094a94fb73e56c2a4a5efc598ed" target="_top" xlink:title="Describes all performed analyses deduced from settings. ">
<polygon fill="white" stroke="black" points="1235,-157.5 1235,-187.5 1397,-187.5 1397,-157.5 1235,-157.5"/>
<text text-anchor="start" x="1243" y="-175.5" font-family="Helvetica,sans-Serif" font-size="10.00">scram::ReportCalculatedQuantity</text>
<text text-anchor="middle" x="1316" y="-164.5" font-family="Helvetica,sans-Serif" font-size="10.00">&lt; core::RiskAnalysis &gt;</text>
</a>
</g>
</g>
<!-- Node7&#45;&gt;Node8 -->
<g id="edge7" class="edge"><title>Node7&#45;&gt;Node8</title>
<path fill="none" stroke="midnightblue" d="M1209.24,-172.5C1217.65,-172.5 1226.24,-172.5 1234.71,-172.5"/>
<polygon fill="midnightblue" stroke="midnightblue" points="1209.09,-169 1199.09,-172.5 1209.09,-176 1209.09,-169"/>
</g>
<!-- Node12&#45;&gt;Node4 -->
<g id="edge12" class="edge"><title>Node12&#45;&gt;Node4</title>
<path fill="none" stroke="midnightblue" d="M478.221,-109.726C486.672,-110.201 495.292,-110.685 503.768,-111.161"/>
<polygon fill="midnightblue" stroke="midnightblue" points="478.198,-106.219 468.018,-109.153 477.806,-113.208 478.198,-106.219"/>
</g>
</g>
</svg>
