<?xml version="1.0" encoding="UTF-8" standalone="no"?>
<!DOCTYPE svg PUBLIC "-//W3C//DTD SVG 1.1//EN"
 "http://www.w3.org/Graphics/SVG/1.1/DTD/svg11.dtd">
<!-- Generated by graphviz version 2.38.0 (20140413.2041)
 -->
<!-- Title: scram::core::Preprocessor::CollectRedundantParents Pages: 1 -->
<svg width="1743pt" height="218pt"
 viewBox="0.00 0.00 1743.00 218.00" xmlns="http://www.w3.org/2000/svg" xmlns:xlink="http://www.w3.org/1999/xlink">
<g id="graph0" class="graph" transform="scale(1 1) rotate(0) translate(4 214)">
<title>scram::core::Preprocessor::CollectRedundantParents</title>
<polygon fill="white" stroke="none" points="-4,4 -4,-214 1739,-214 1739,4 -4,4"/>
<!-- Node1 -->
<g id="node1" class="node"><title>Node1</title>
<polygon fill="#bfbfbf" stroke="black" points="0,-66.5 0,-96.5 134,-96.5 134,-66.5 0,-66.5"/>
<text text-anchor="start" x="8" y="-84.5" font-family="Helvetica,sans-Serif" font-size="10.00">scram::core::Preprocessor</text>
<text text-anchor="middle" x="67" y="-73.5" font-family="Helvetica,sans-Serif" font-size="10.00">::CollectRedundantParents</text>
</g>
<!-- Node2 -->
<g id="node2" class="node"><title>Node2</title>
<g id="a_node2"><a xlink:href="classscram_1_1core_1_1Preprocessor.xhtml#a4086c57695d49b4770915d5d53bd47de" target="_top" xlink:title="Tries to simplify the graph by removing redundancies generated by a common node. ">
<polygon fill="white" stroke="black" points="170,-66.5 170,-96.5 302,-96.5 302,-66.5 170,-66.5"/>
<text text-anchor="start" x="178" y="-84.5" font-family="Helvetica,sans-Serif" font-size="10.00">scram::core::Preprocessor</text>
<text text-anchor="middle" x="236" y="-73.5" font-family="Helvetica,sans-Serif" font-size="10.00">::ProcessCommonNode</text>
</a>
</g>
</g>
<!-- Node1&#45;&gt;Node2 -->
<g id="edge1" class="edge"><title>Node1&#45;&gt;Node2</title>
<path fill="none" stroke="midnightblue" d="M144.019,-81.5C152.612,-81.5 161.312,-81.5 169.75,-81.5"/>
<polygon fill="midnightblue" stroke="midnightblue" points="144.003,-78.0001 134.003,-81.5 144.003,-85.0001 144.003,-78.0001"/>
</g>
<!-- Node3 -->
<g id="node3" class="node"><title>Node3</title>
<g id="a_node3"><a xlink:href="classscram_1_1core_1_1Preprocessor.xhtml#aebc709ad2e097c24e837889a6a9e4696" target="_top" xlink:title="Propagates failures of common nodes to detect redundancy. ">
<polygon fill="white" stroke="black" points="338,-66.5 338,-96.5 470,-96.5 470,-66.5 338,-66.5"/>
<text text-anchor="start" x="346" y="-84.5" font-family="Helvetica,sans-Serif" font-size="10.00">scram::core::Preprocessor</text>
<text text-anchor="middle" x="404" y="-73.5" font-family="Helvetica,sans-Serif" font-size="10.00">::BooleanOptimization</text>
</a>
</g>
</g>
<!-- Node2&#45;&gt;Node3 -->
<g id="edge2" class="edge"><title>Node2&#45;&gt;Node3</title>
<path fill="none" stroke="midnightblue" d="M312.393,-81.5C320.869,-81.5 329.452,-81.5 337.784,-81.5"/>
<polygon fill="midnightblue" stroke="midnightblue" points="312.131,-78.0001 302.131,-81.5 312.131,-85.0001 312.131,-78.0001"/>
</g>
<!-- Node4 -->
<g id="node4" class="node"><title>Node4</title>
<g id="a_node4"><a xlink:href="classscram_1_1core_1_1Preprocessor.xhtml#a9d5f89471499508eb9e6c01ea43e0f15" target="_top" xlink:title="Preprocessing phase of the original structure of the graph. ">
<polygon fill="white" stroke="black" points="506,-66.5 506,-96.5 638,-96.5 638,-66.5 506,-66.5"/>
<text text-anchor="start" x="514" y="-84.5" font-family="Helvetica,sans-Serif" font-size="10.00">scram::core::Preprocessor</text>
<text text-anchor="middle" x="572" y="-73.5" font-family="Helvetica,sans-Serif" font-size="10.00">::RunPhaseTwo</text>
</a>
</g>
</g>
<!-- Node3&#45;&gt;Node4 -->
<g id="edge3" class="edge"><title>Node3&#45;&gt;Node4</title>
<path fill="none" stroke="midnightblue" d="M480.393,-81.5C488.869,-81.5 497.452,-81.5 505.784,-81.5"/>
<polygon fill="midnightblue" stroke="midnightblue" points="480.131,-78.0001 470.131,-81.5 480.131,-85.0001 480.131,-78.0001"/>
</g>
<!-- Node5 -->
<g id="node5" class="node"><title>Node5</title>
<g id="a_node5"><a xlink:href="classscram_1_1core_1_1Preprocessor.xhtml#a2b6705e815fa3d02119c405b483766d5" target="_top" xlink:title="Runs the default preprocessing that achieves the graph in a normal form. ">
<polygon fill="white" stroke="black" points="842,-101 842,-120 998,-120 998,-101 842,-101"/>
<text text-anchor="middle" x="920" y="-108" font-family="Helvetica,sans-Serif" font-size="10.00">scram::core::Preprocessor::Run</text>
</a>
</g>
</g>
<!-- Node4&#45;&gt;Node5 -->
<g id="edge4" class="edge"><title>Node4&#45;&gt;Node5</title>
<path fill="none" stroke="midnightblue" d="M606.964,-101.39C625.985,-111.375 650.537,-122.408 674,-127.5 745.043,-142.916 830.131,-130.257 879.042,-120.081"/>
<polygon fill="midnightblue" stroke="midnightblue" points="608.562,-98.2751 598.1,-96.6033 605.236,-104.434 608.562,-98.2751"/>
</g>
<!-- Node13 -->
<g id="node13" class="node"><title>Node13</title>
<g id="a_node13"><a xlink:href="classscram_1_1core_1_1Preprocessor.xhtml#a3569bbcd5e863c750cdfa69115399600" target="_top" xlink:title="The final phase that cleans up the graph, and puts the structure of the graph ready for analysis...">
<polygon fill="white" stroke="black" points="854,-44.5 854,-74.5 986,-74.5 986,-44.5 854,-44.5"/>
<text text-anchor="start" x="862" y="-62.5" font-family="Helvetica,sans-Serif" font-size="10.00">scram::core::Preprocessor</text>
<text text-anchor="middle" x="920" y="-51.5" font-family="Helvetica,sans-Serif" font-size="10.00">::RunPhaseFive</text>
</a>
</g>
</g>
<!-- Node4&#45;&gt;Node13 -->
<g id="edge12" class="edge"><title>Node4&#45;&gt;Node13</title>
<path fill="none" stroke="midnightblue" d="M648.097,-76.7251C709.493,-72.8213 795.413,-67.3581 853.918,-63.6381"/>
<polygon fill="midnightblue" stroke="midnightblue" points="647.838,-73.2344 638.08,-77.362 648.282,-80.2203 647.838,-73.2344"/>
</g>
<!-- Node14 -->
<g id="node14" class="node"><title>Node14</title>
<g id="a_node14"><a xlink:href="classscram_1_1core_1_1Preprocessor.xhtml#a5c224938dfba861f061525658bd7b156" target="_top" xlink:title="Propagation of complements. ">
<polygon fill="white" stroke="black" points="674,-0.5 674,-30.5 806,-30.5 806,-0.5 674,-0.5"/>
<text text-anchor="start" x="682" y="-18.5" font-family="Helvetica,sans-Serif" font-size="10.00">scram::core::Preprocessor</text>
<text text-anchor="middle" x="740" y="-7.5" font-family="Helvetica,sans-Serif" font-size="10.00">::RunPhaseFour</text>
</a>
</g>
</g>
<!-- Node4&#45;&gt;Node14 -->
<g id="edge14" class="edge"><title>Node4&#45;&gt;Node14</title>
<path fill="none" stroke="midnightblue" d="M620.58,-62.5827C646.131,-52.424 677.193,-40.0737 701.093,-30.5713"/>
<polygon fill="midnightblue" stroke="midnightblue" points="619.083,-59.4112 611.084,-66.3583 621.669,-65.916 619.083,-59.4112"/>
</g>
<!-- Node15 -->
<g id="node15" class="node"><title>Node15</title>
<g id="a_node15"><a xlink:href="classscram_1_1core_1_1Preprocessor.xhtml#abf2c66723172a85b2ae87ef2a034cd1f" target="_top" xlink:title="Application of gate normalization. ">
<polygon fill="white" stroke="black" points="674,-88.5 674,-118.5 806,-118.5 806,-88.5 674,-88.5"/>
<text text-anchor="start" x="682" y="-106.5" font-family="Helvetica,sans-Serif" font-size="10.00">scram::core::Preprocessor</text>
<text text-anchor="middle" x="740" y="-95.5" font-family="Helvetica,sans-Serif" font-size="10.00">::RunPhaseThree</text>
</a>
</g>
</g>
<!-- Node4&#45;&gt;Node15 -->
<g id="edge16" class="edge"><title>Node4&#45;&gt;Node15</title>
<path fill="none" stroke="midnightblue" d="M648.114,-91.4548C656.681,-92.5902 665.361,-93.7406 673.784,-94.8569"/>
<polygon fill="midnightblue" stroke="midnightblue" points="648.504,-87.9761 638.131,-90.1318 647.585,-94.9154 648.504,-87.9761"/>
</g>
<!-- Node6 -->
<g id="node6" class="node"><title>Node6</title>
<g id="a_node6"><a xlink:href="classscram_1_1core_1_1FaultTreeAnalyzer.xhtml#af6d3e735d4200c3efed0164c58aabf57" target="_top" xlink:title="Runs fault tree analysis with the given algorithm. ">
<polygon fill="white" stroke="black" points="1040.5,-179.5 1040.5,-209.5 1194.5,-209.5 1194.5,-179.5 1040.5,-179.5"/>
<text text-anchor="start" x="1048.5" y="-197.5" font-family="Helvetica,sans-Serif" font-size="10.00">scram::core::FaultTreeAnalyzer</text>
<text text-anchor="middle" x="1117.5" y="-186.5" font-family="Helvetica,sans-Serif" font-size="10.00">::Analyze</text>
</a>
</g>
</g>
<!-- Node5&#45;&gt;Node6 -->
<g id="edge5" class="edge"><title>Node5&#45;&gt;Node6</title>
<path fill="none" stroke="midnightblue" d="M945.427,-125.358C967.851,-138.535 1002.31,-157.634 1034,-170.5 1042.02,-173.754 1050.64,-176.766 1059.17,-179.477"/>
<polygon fill="midnightblue" stroke="midnightblue" points="946.981,-122.21 936.596,-120.108 943.404,-128.227 946.981,-122.21"/>
</g>
<!-- Node10 -->
<g id="node10" class="node"><title>Node10</title>
<g id="a_node10"><a xlink:href="classscram_1_1core_1_1ProbabilityAnalyzer_3_01Bdd_01_4.xhtml#a517506c181102100cc6a3e96710813c6" target="_top" xlink:title="Calculates the total probability with a different set of probability values than the one given upon c...">
<polygon fill="white" stroke="black" points="1038,-120 1038,-161 1197,-161 1197,-120 1038,-120"/>
<text text-anchor="start" x="1046" y="-149" font-family="Helvetica,sans-Serif" font-size="10.00">scram::core::Probability</text>
<text text-anchor="start" x="1046" y="-138" font-family="Helvetica,sans-Serif" font-size="10.00">Analyzer&lt; Bdd &gt;::CalculateTotal</text>
<text text-anchor="middle" x="1117.5" y="-127" font-family="Helvetica,sans-Serif" font-size="10.00">Probability</text>
</a>
</g>
</g>
<!-- Node5&#45;&gt;Node10 -->
<g id="edge9" class="edge"><title>Node5&#45;&gt;Node10</title>
<path fill="none" stroke="midnightblue" d="M993.039,-121.555C1007.57,-123.785 1022.92,-126.14 1037.67,-128.404"/>
<polygon fill="midnightblue" stroke="midnightblue" points="993.541,-118.091 983.126,-120.033 992.479,-125.01 993.541,-118.091"/>
</g>
<!-- Node11 -->
<g id="node11" class="node"><title>Node11</title>
<g id="a_node11"><a xlink:href="classscram_1_1core_1_1CustomPreprocessor_3_01Bdd_01_4.xhtml#a8cf4307236cd521e39a2c6feb21f3214" target="_top" xlink:title="Performs preprocessing for analyses with Binary Decision Diagrams. ">
<polygon fill="white" stroke="black" points="1034,-71.5 1034,-101.5 1201,-101.5 1201,-71.5 1034,-71.5"/>
<text text-anchor="start" x="1042" y="-89.5" font-family="Helvetica,sans-Serif" font-size="10.00">scram::core::CustomPreprocessor</text>
<text text-anchor="middle" x="1117.5" y="-78.5" font-family="Helvetica,sans-Serif" font-size="10.00">&lt; Bdd &gt;::Run</text>
</a>
</g>
</g>
<!-- Node5&#45;&gt;Node11 -->
<g id="edge10" class="edge"><title>Node5&#45;&gt;Node11</title>
<path fill="none" stroke="midnightblue" d="M1008.44,-99.7657C1016.84,-98.735 1025.33,-97.6917 1033.68,-96.6667"/>
<polygon fill="midnightblue" stroke="midnightblue" points="1007.77,-96.3221 998.267,-101.015 1008.62,-103.27 1007.77,-96.3221"/>
</g>
<!-- Node12 -->
<g id="node12" class="node"><title>Node12</title>
<g id="a_node12"><a xlink:href="classscram_1_1core_1_1CustomPreprocessor_3_01Zbdd_01_4.xhtml#a5185075f852c647c7aa4313d23420ee5" target="_top" xlink:title="Performs preprocessing for analyses with Zero&#45;Suppressed Binary Decision Diagrams. ">
<polygon fill="white" stroke="black" points="1034,-22.5 1034,-52.5 1201,-52.5 1201,-22.5 1034,-22.5"/>
<text text-anchor="start" x="1042" y="-40.5" font-family="Helvetica,sans-Serif" font-size="10.00">scram::core::CustomPreprocessor</text>
<text text-anchor="middle" x="1117.5" y="-29.5" font-family="Helvetica,sans-Serif" font-size="10.00">&lt; Zbdd &gt;::Run</text>
</a>
</g>
</g>
<!-- Node5&#45;&gt;Node12 -->
<g id="edge11" class="edge"><title>Node5&#45;&gt;Node12</title>
<path fill="none" stroke="midnightblue" d="M962.607,-97.7108C974.262,-93.6472 986.801,-88.8122 998,-83.5 1014.94,-75.464 1016.85,-69.0744 1034,-61.5 1041.51,-58.186 1049.59,-55.1882 1057.67,-52.5237"/>
<polygon fill="midnightblue" stroke="midnightblue" points="961.425,-94.4158 953.074,-100.936 963.668,-101.047 961.425,-94.4158"/>
</g>
<!-- Node7 -->
<g id="node7" class="node"><title>Node7</title>
<g id="a_node7"><a xlink:href="classscram_1_1core_1_1RiskAnalysis.xhtml#a7aed757ac5a7a96878c2706a7a9710bb" target="_top" xlink:title="Analyzes the model and performs computations specified in the settings. ">
<polygon fill="white" stroke="black" points="1237,-179.5 1237,-209.5 1369,-209.5 1369,-179.5 1237,-179.5"/>
<text text-anchor="start" x="1245" y="-197.5" font-family="Helvetica,sans-Serif" font-size="10.00">scram::core::RiskAnalysis</text>
<text text-anchor="middle" x="1303" y="-186.5" font-family="Helvetica,sans-Serif" font-size="10.00">::Analyze</text>
</a>
</g>
</g>
<!-- Node6&#45;&gt;Node7 -->
<g id="edge6" class="edge"><title>Node6&#45;&gt;Node7</title>
<path fill="none" stroke="midnightblue" d="M1204.95,-194.5C1215.67,-194.5 1226.49,-194.5 1236.81,-194.5"/>
<polygon fill="midnightblue" stroke="midnightblue" points="1204.73,-191 1194.73,-194.5 1204.73,-198 1204.73,-191"/>
</g>
<!-- Node8 -->
<g id="node8" class="node"><title>Node8</title>
<g id="a_node8"><a xlink:href="classscram_1_1core_1_1RiskAnalysis.xhtml#a337f7e9fe02b1581e872590d6f7baa01" target="_top" xlink:title="scram::core::RiskAnalysis\l::model">
<polygon fill="white" stroke="black" points="1405,-179.5 1405,-209.5 1537,-209.5 1537,-179.5 1405,-179.5"/>
<text text-anchor="start" x="1413" y="-197.5" font-family="Helvetica,sans-Serif" font-size="10.00">scram::core::RiskAnalysis</text>
<text text-anchor="middle" x="1471" y="-186.5" font-family="Helvetica,sans-Serif" font-size="10.00">::model</text>
</a>
</g>
</g>
<!-- Node7&#45;&gt;Node8 -->
<g id="edge7" class="edge"><title>Node7&#45;&gt;Node8</title>
<path fill="none" stroke="midnightblue" d="M1379.39,-194.5C1387.87,-194.5 1396.45,-194.5 1404.78,-194.5"/>
<polygon fill="midnightblue" stroke="midnightblue" points="1379.13,-191 1369.13,-194.5 1379.13,-198 1379.13,-191"/>
</g>
<!-- Node9 -->
<g id="node9" class="node"><title>Node9</title>
<g id="a_node9"><a xlink:href="reporter_8cc.xhtml#ad6460094a94fb73e56c2a4a5efc598ed" target="_top" xlink:title="Describes all performed analyses deduced from settings. ">
<polygon fill="white" stroke="black" points="1573,-179.5 1573,-209.5 1735,-209.5 1735,-179.5 1573,-179.5"/>
<text text-anchor="start" x="1581" y="-197.5" font-family="Helvetica,sans-Serif" font-size="10.00">scram::ReportCalculatedQuantity</text>
<text text-anchor="middle" x="1654" y="-186.5" font-family="Helvetica,sans-Serif" font-size="10.00">&lt; core::RiskAnalysis &gt;</text>
</a>
</g>
</g>
<!-- Node8&#45;&gt;Node9 -->
<g id="edge8" class="edge"><title>Node8&#45;&gt;Node9</title>
<path fill="none" stroke="midnightblue" d="M1547.24,-194.5C1555.65,-194.5 1564.24,-194.5 1572.71,-194.5"/>
<polygon fill="midnightblue" stroke="midnightblue" points="1547.09,-191 1537.09,-194.5 1547.09,-198 1547.09,-191"/>
</g>
<!-- Node13&#45;&gt;Node12 -->
<g id="edge13" class="edge"><title>Node13&#45;&gt;Node12</title>
<path fill="none" stroke="midnightblue" d="M996.313,-51.0248C1008.64,-49.6381 1021.46,-48.1948 1033.95,-46.7896"/>
<polygon fill="midnightblue" stroke="midnightblue" points="995.645,-47.5779 986.099,-52.1743 996.427,-54.534 995.645,-47.5779"/>
</g>
<!-- Node14&#45;&gt;Node12 -->
<g id="edge15" class="edge"><title>Node14&#45;&gt;Node12</title>
<path fill="none" stroke="midnightblue" d="M816.66,-19.9328C879.581,-23.6193 968.998,-28.8581 1033.8,-32.6546"/>
<polygon fill="midnightblue" stroke="midnightblue" points="816.595,-16.4231 806.407,-19.3321 816.185,-23.4111 816.595,-16.4231"/>
</g>
<!-- Node15&#45;&gt;Node5 -->
<g id="edge17" class="edge"><title>Node15&#45;&gt;Node5</title>
<path fill="none" stroke="midnightblue" d="M816.221,-106.458C824.672,-106.79 833.292,-107.129 841.768,-107.463"/>
<polygon fill="midnightblue" stroke="midnightblue" points="816.148,-102.953 806.018,-106.057 815.872,-109.947 816.148,-102.953"/>
</g>
</g>
</svg>
