<?xml version="1.0" encoding="UTF-8" standalone="no"?>
<!DOCTYPE svg PUBLIC "-//W3C//DTD SVG 1.1//EN"
 "http://www.w3.org/Graphics/SVG/1.1/DTD/svg11.dtd">
<!-- Generated by graphviz version 2.38.0 (20140413.2041)
 -->
<!-- Title: scram::Reporter::Report Pages: 1 -->
<svg width="470pt" height="431pt"
 viewBox="0.00 0.00 470.00 431.00" xmlns="http://www.w3.org/2000/svg" xmlns:xlink="http://www.w3.org/1999/xlink">
<g id="graph0" class="graph" transform="scale(1 1) rotate(0) translate(4 427)">
<title>scram::Reporter::Report</title>
<polygon fill="white" stroke="none" points="-4,4 -4,-427 466,-427 466,4 -4,4"/>
<!-- Node1 -->
<g id="node1" class="node"><title>Node1</title>
<polygon fill="#bfbfbf" stroke="black" points="0,-202 0,-221 122,-221 122,-202 0,-202"/>
<text text-anchor="middle" x="61" y="-209" font-family="Helvetica,sans-Serif" font-size="10.00">scram::Reporter::Report</text>
</g>
<!-- Node2 -->
<g id="node2" class="node"><title>Node2</title>
<g id="a_node2"><a xlink:href="classscram_1_1XmlStreamElement.xhtml#ac8227ce1d2bf22ab83d3055a8e98fb2d" target="_top" xlink:title="Adds a child element to the element. ">
<polygon fill="white" stroke="black" points="158,-392.5 158,-422.5 292,-422.5 292,-392.5 158,-392.5"/>
<text text-anchor="start" x="166" y="-410.5" font-family="Helvetica,sans-Serif" font-size="10.00">scram::XmlStreamElement</text>
<text text-anchor="middle" x="225" y="-399.5" font-family="Helvetica,sans-Serif" font-size="10.00">::AddChild</text>
</a>
</g>
</g>
<!-- Node1&#45;&gt;Node2 -->
<g id="edge1" class="edge"><title>Node1&#45;&gt;Node2</title>
<path fill="none" stroke="midnightblue" d="M64.763,-221.24C73.4676,-250.21 103.056,-336.726 158,-383.5 159.497,-384.774 161.067,-385.984 162.696,-387.13"/>
<polygon fill="midnightblue" stroke="midnightblue" points="160.894,-390.131 171.252,-392.362 164.546,-384.159 160.894,-390.131"/>
</g>
<!-- Node4 -->
<g id="node4" class="node"><title>Node4</title>
<g id="a_node4"><a xlink:href="classscram_1_1core_1_1RiskAnalysis.xhtml#af34d3a418177073a278a32dc2db5e8ef" target="_top" xlink:title="scram::core::RiskAnalysis\l::fault_tree_analyses">
<polygon fill="white" stroke="black" points="159,-343.5 159,-373.5 291,-373.5 291,-343.5 159,-343.5"/>
<text text-anchor="start" x="167" y="-361.5" font-family="Helvetica,sans-Serif" font-size="10.00">scram::core::RiskAnalysis</text>
<text text-anchor="middle" x="225" y="-350.5" font-family="Helvetica,sans-Serif" font-size="10.00">::fault_tree_analyses</text>
</a>
</g>
</g>
<!-- Node1&#45;&gt;Node4 -->
<g id="edge3" class="edge"><title>Node1&#45;&gt;Node4</title>
<path fill="none" stroke="midnightblue" d="M67.1038,-221.316C79.5542,-244.347 113.735,-302.333 158,-334.5 159.883,-335.869 161.853,-337.166 163.885,-338.397"/>
<polygon fill="midnightblue" stroke="midnightblue" points="162.661,-341.712 173.126,-343.366 165.976,-335.547 162.661,-341.712"/>
</g>
<!-- Node5 -->
<g id="node5" class="node"><title>Node5</title>
<g id="a_node5"><a xlink:href="classscram_1_1core_1_1RiskAnalysis.xhtml#a9c8baf268c8a81cdd1a8907c33b9455f" target="_top" xlink:title="scram::core::RiskAnalysis\l::importance_analyses">
<polygon fill="white" stroke="black" points="159,-294.5 159,-324.5 291,-324.5 291,-294.5 159,-294.5"/>
<text text-anchor="start" x="167" y="-312.5" font-family="Helvetica,sans-Serif" font-size="10.00">scram::core::RiskAnalysis</text>
<text text-anchor="middle" x="225" y="-301.5" font-family="Helvetica,sans-Serif" font-size="10.00">::importance_analyses</text>
</a>
</g>
</g>
<!-- Node1&#45;&gt;Node5 -->
<g id="edge4" class="edge"><title>Node1&#45;&gt;Node5</title>
<path fill="none" stroke="midnightblue" d="M72.1849,-221.09C88.9434,-236.45 123.886,-266.742 158,-285.5 161.085,-287.196 164.314,-288.815 167.614,-290.353"/>
<polygon fill="midnightblue" stroke="midnightblue" points="166.483,-293.677 177.048,-294.467 169.281,-287.261 166.483,-293.677"/>
</g>
<!-- Node6 -->
<g id="node6" class="node"><title>Node6</title>
<g id="a_node6"><a xlink:href="classscram_1_1core_1_1Settings.xhtml#a16c99e2ccd22a9be037f6c6fe229894b" target="_top" xlink:title="scram::core::Settings\l::importance_analysis">
<polygon fill="white" stroke="black" points="169,-245.5 169,-275.5 281,-275.5 281,-245.5 169,-245.5"/>
<text text-anchor="start" x="177" y="-263.5" font-family="Helvetica,sans-Serif" font-size="10.00">scram::core::Settings</text>
<text text-anchor="middle" x="225" y="-252.5" font-family="Helvetica,sans-Serif" font-size="10.00">::importance_analysis</text>
</a>
</g>
</g>
<!-- Node1&#45;&gt;Node6 -->
<g id="edge5" class="edge"><title>Node1&#45;&gt;Node6</title>
<path fill="none" stroke="midnightblue" d="M93.6198,-221.064C113.771,-227.159 140.517,-235.249 164.537,-242.514"/>
<polygon fill="midnightblue" stroke="midnightblue" points="163.701,-245.918 174.286,-245.463 165.728,-239.218 163.701,-245.918"/>
</g>
<!-- Node7 -->
<g id="node7" class="node"><title>Node7</title>
<g id="a_node7"><a xlink:href="classscram_1_1core_1_1RiskAnalysis.xhtml#aeb52e10a276d08dccb36f95a11dfdc20" target="_top" xlink:title="scram::core::RiskAnalysis\l::probability_analyses">
<polygon fill="white" stroke="black" points="159,-196.5 159,-226.5 291,-226.5 291,-196.5 159,-196.5"/>
<text text-anchor="start" x="167" y="-214.5" font-family="Helvetica,sans-Serif" font-size="10.00">scram::core::RiskAnalysis</text>
<text text-anchor="middle" x="225" y="-203.5" font-family="Helvetica,sans-Serif" font-size="10.00">::probability_analyses</text>
</a>
</g>
</g>
<!-- Node1&#45;&gt;Node7 -->
<g id="edge6" class="edge"><title>Node1&#45;&gt;Node7</title>
<path fill="none" stroke="midnightblue" d="M122.323,-211.5C130.858,-211.5 139.721,-211.5 148.497,-211.5"/>
<polygon fill="midnightblue" stroke="midnightblue" points="148.736,-215 158.736,-211.5 148.736,-208 148.736,-215"/>
</g>
<!-- Node8 -->
<g id="node8" class="node"><title>Node8</title>
<g id="a_node8"><a xlink:href="classscram_1_1core_1_1Settings.xhtml#a83ddd939f7217fb9f0438bd1dd01f7b1" target="_top" xlink:title="scram::core::Settings\l::probability_analysis">
<polygon fill="white" stroke="black" points="170,-147.5 170,-177.5 280,-177.5 280,-147.5 170,-147.5"/>
<text text-anchor="start" x="178" y="-165.5" font-family="Helvetica,sans-Serif" font-size="10.00">scram::core::Settings</text>
<text text-anchor="middle" x="225" y="-154.5" font-family="Helvetica,sans-Serif" font-size="10.00">::probability_analysis</text>
</a>
</g>
</g>
<!-- Node1&#45;&gt;Node8 -->
<g id="edge7" class="edge"><title>Node1&#45;&gt;Node8</title>
<path fill="none" stroke="midnightblue" d="M93.6198,-201.936C113.771,-195.841 140.517,-187.751 164.537,-180.486"/>
<polygon fill="midnightblue" stroke="midnightblue" points="165.728,-183.782 174.286,-177.537 163.701,-177.082 165.728,-183.782"/>
</g>
<!-- Node9 -->
<g id="node9" class="node"><title>Node9</title>
<g id="a_node9"><a xlink:href="classscram_1_1core_1_1Analysis.xhtml#ab04a96c555ba726368fa3868a8701610" target="_top" xlink:title="scram::core::Analysis\l::settings">
<polygon fill="white" stroke="black" points="169,-98.5 169,-128.5 281,-128.5 281,-98.5 169,-98.5"/>
<text text-anchor="start" x="177" y="-116.5" font-family="Helvetica,sans-Serif" font-size="10.00">scram::core::Analysis</text>
<text text-anchor="middle" x="225" y="-105.5" font-family="Helvetica,sans-Serif" font-size="10.00">::settings</text>
</a>
</g>
</g>
<!-- Node1&#45;&gt;Node9 -->
<g id="edge8" class="edge"><title>Node1&#45;&gt;Node9</title>
<path fill="none" stroke="midnightblue" d="M72.5135,-201.857C89.4522,-186.717 124.304,-157.177 158,-138.5 161.677,-136.462 165.554,-134.521 169.512,-132.688"/>
<polygon fill="midnightblue" stroke="midnightblue" points="171.075,-135.824 178.835,-128.611 168.271,-129.411 171.075,-135.824"/>
</g>
<!-- Node10 -->
<g id="node10" class="node"><title>Node10</title>
<g id="a_node10"><a xlink:href="classscram_1_1core_1_1RiskAnalysis.xhtml#a43edc2bd0fae6b0f4b62bda6d21c53ba" target="_top" xlink:title="scram::core::RiskAnalysis\l::uncertainty_analyses">
<polygon fill="white" stroke="black" points="159,-49.5 159,-79.5 291,-79.5 291,-49.5 159,-49.5"/>
<text text-anchor="start" x="167" y="-67.5" font-family="Helvetica,sans-Serif" font-size="10.00">scram::core::RiskAnalysis</text>
<text text-anchor="middle" x="225" y="-56.5" font-family="Helvetica,sans-Serif" font-size="10.00">::uncertainty_analyses</text>
</a>
</g>
</g>
<!-- Node1&#45;&gt;Node10 -->
<g id="edge9" class="edge"><title>Node1&#45;&gt;Node10</title>
<path fill="none" stroke="midnightblue" d="M67.1536,-201.805C79.7118,-179.048 114.109,-121.71 158,-89.5 160.488,-87.6741 163.125,-85.9655 165.859,-84.3687"/>
<polygon fill="midnightblue" stroke="midnightblue" points="167.625,-87.3942 174.849,-79.6433 164.369,-81.198 167.625,-87.3942"/>
</g>
<!-- Node11 -->
<g id="node11" class="node"><title>Node11</title>
<g id="a_node11"><a xlink:href="classscram_1_1core_1_1Settings.xhtml#aa07ede20b118ae78028fb0807e52f632" target="_top" xlink:title="scram::core::Settings\l::uncertainty_analysis">
<polygon fill="white" stroke="black" points="169,-0.5 169,-30.5 281,-30.5 281,-0.5 169,-0.5"/>
<text text-anchor="start" x="177" y="-18.5" font-family="Helvetica,sans-Serif" font-size="10.00">scram::core::Settings</text>
<text text-anchor="middle" x="225" y="-7.5" font-family="Helvetica,sans-Serif" font-size="10.00">::uncertainty_analysis</text>
</a>
</g>
</g>
<!-- Node1&#45;&gt;Node11 -->
<g id="edge10" class="edge"><title>Node1&#45;&gt;Node11</title>
<path fill="none" stroke="midnightblue" d="M64.809,-201.85C73.6421,-173.141 103.553,-87.3619 158,-40.5 159.95,-38.8215 162.025,-37.2501 164.19,-35.7796"/>
<polygon fill="midnightblue" stroke="midnightblue" points="166.109,-38.7106 172.919,-30.5946 162.534,-32.6922 166.109,-38.7106"/>
</g>
<!-- Node3 -->
<g id="node3" class="node"><title>Node3</title>
<g id="a_node3"><a xlink:href="classscram_1_1XmlStreamElement.xhtml#af62b9ffc844dba0b3fa143136dc5ac50" target="_top" xlink:title="Constructs a root streamer for the XML element data ready to accept attributes, elements, text. ">
<polygon fill="white" stroke="black" points="328,-392.5 328,-422.5 462,-422.5 462,-392.5 328,-392.5"/>
<text text-anchor="start" x="336" y="-410.5" font-family="Helvetica,sans-Serif" font-size="10.00">scram::XmlStreamElement</text>
<text text-anchor="middle" x="395" y="-399.5" font-family="Helvetica,sans-Serif" font-size="10.00">::XmlStreamElement</text>
</a>
</g>
</g>
<!-- Node2&#45;&gt;Node3 -->
<g id="edge2" class="edge"><title>Node2&#45;&gt;Node3</title>
<path fill="none" stroke="midnightblue" d="M292.398,-407.5C300.679,-407.5 309.199,-407.5 317.616,-407.5"/>
<polygon fill="midnightblue" stroke="midnightblue" points="317.809,-411 327.809,-407.5 317.809,-404 317.809,-411"/>
</g>
</g>
</svg>
