<?xml version="1.0" encoding="UTF-8" standalone="no"?>
<!DOCTYPE svg PUBLIC "-//W3C//DTD SVG 1.1//EN"
 "http://www.w3.org/Graphics/SVG/1.1/DTD/svg11.dtd">
<!-- Generated by graphviz version 2.38.0 (20140413.2041)
 -->
<!-- Title: scram::core::ImportanceAnalysis::important_events Pages: 1 -->
<svg width="1097pt" height="68pt"
 viewBox="0.00 0.00 1097.00 67.50" xmlns="http://www.w3.org/2000/svg" xmlns:xlink="http://www.w3.org/1999/xlink">
<g id="graph0" class="graph" transform="scale(1 1) rotate(0) translate(4 63.5)">
<title>scram::core::ImportanceAnalysis::important_events</title>
<polygon fill="white" stroke="none" points="-4,4 -4,-63.5 1093,-63.5 1093,4 -4,4"/>
<!-- Node1 -->
<g id="node1" class="node"><title>Node1</title>
<polygon fill="#bfbfbf" stroke="black" points="0,-7 0,-37 161,-37 161,-7 0,-7"/>
<text text-anchor="start" x="8" y="-25" font-family="Helvetica,sans-Serif" font-size="10.00">scram::core::ImportanceAnalysis</text>
<text text-anchor="middle" x="80.5" y="-14" font-family="Helvetica,sans-Serif" font-size="10.00">::important_events</text>
</g>
<!-- Node2 -->
<g id="node2" class="node"><title>Node2</title>
<g id="a_node2"><a xlink:href="classscram_1_1core_1_1ImportanceAnalysis.xhtml#a0ef1904c30264176444741068337a38c" target="_top" xlink:title="Gathers all events present in products. ">
<polygon fill="white" stroke="black" points="197,-29 197,-59 358,-59 358,-29 197,-29"/>
<text text-anchor="start" x="205" y="-47" font-family="Helvetica,sans-Serif" font-size="10.00">scram::core::ImportanceAnalysis</text>
<text text-anchor="middle" x="277.5" y="-36" font-family="Helvetica,sans-Serif" font-size="10.00">::GatherImportantEvents</text>
</a>
</g>
</g>
<!-- Node1&#45;&gt;Node2 -->
<g id="edge1" class="edge"><title>Node1&#45;&gt;Node2</title>
<path fill="none" stroke="midnightblue" d="M171.117,-32.1106C179.7,-33.079 188.365,-34.0565 196.843,-35.0131"/>
<polygon fill="midnightblue" stroke="midnightblue" points="171.425,-28.6232 161.095,-30.98 170.64,-35.5791 171.425,-28.6232"/>
</g>
<!-- Node6 -->
<g id="node6" class="node"><title>Node6</title>
<g id="a_node6"><a xlink:href="reporter_8cc.xhtml#ad6460094a94fb73e56c2a4a5efc598ed" target="_top" xlink:title="Describes all performed analyses deduced from settings. ">
<polygon fill="white" stroke="black" points="927,-7 927,-37 1089,-37 1089,-7 927,-7"/>
<text text-anchor="start" x="935" y="-25" font-family="Helvetica,sans-Serif" font-size="10.00">scram::ReportCalculatedQuantity</text>
<text text-anchor="middle" x="1008" y="-14" font-family="Helvetica,sans-Serif" font-size="10.00">&lt; core::RiskAnalysis &gt;</text>
</a>
</g>
</g>
<!-- Node1&#45;&gt;Node6 -->
<g id="edge6" class="edge"><title>Node1&#45;&gt;Node6</title>
<path fill="none" stroke="midnightblue" d="M171.46,-14.0784C250.861,-7.77301 369.778,-7.10543e-15 473.5,-0 473.5,-0 473.5,-0 658,-0 750.28,-0 856.014,-7.75586 926.692,-14.0575"/>
<polygon fill="midnightblue" stroke="midnightblue" points="170.697,-10.6283 161.009,-14.918 171.257,-17.6059 170.697,-10.6283"/>
</g>
<!-- Node3 -->
<g id="node3" class="node"><title>Node3</title>
<g id="a_node3"><a xlink:href="classscram_1_1core_1_1ImportanceAnalysis.xhtml#acf487235f07ddcc1c920943ebfe2ce60" target="_top" xlink:title="Performs quantitative analysis of importance factors of basic events in products. ...">
<polygon fill="white" stroke="black" points="394,-29 394,-59 555,-59 555,-29 394,-29"/>
<text text-anchor="start" x="402" y="-47" font-family="Helvetica,sans-Serif" font-size="10.00">scram::core::ImportanceAnalysis</text>
<text text-anchor="middle" x="474.5" y="-36" font-family="Helvetica,sans-Serif" font-size="10.00">::Analyze</text>
</a>
</g>
</g>
<!-- Node2&#45;&gt;Node3 -->
<g id="edge2" class="edge"><title>Node2&#45;&gt;Node3</title>
<path fill="none" stroke="midnightblue" d="M368.117,-44C376.7,-44 385.365,-44 393.843,-44"/>
<polygon fill="midnightblue" stroke="midnightblue" points="368.095,-40.5001 358.095,-44 368.095,-47.5001 368.095,-40.5001"/>
</g>
<!-- Node4 -->
<g id="node4" class="node"><title>Node4</title>
<g id="a_node4"><a xlink:href="classscram_1_1core_1_1RiskAnalysis.xhtml#a7aed757ac5a7a96878c2706a7a9710bb" target="_top" xlink:title="Analyzes the model and performs computations specified in the settings. ">
<polygon fill="white" stroke="black" points="591,-29 591,-59 723,-59 723,-29 591,-29"/>
<text text-anchor="start" x="599" y="-47" font-family="Helvetica,sans-Serif" font-size="10.00">scram::core::RiskAnalysis</text>
<text text-anchor="middle" x="657" y="-36" font-family="Helvetica,sans-Serif" font-size="10.00">::Analyze</text>
</a>
</g>
</g>
<!-- Node3&#45;&gt;Node4 -->
<g id="edge3" class="edge"><title>Node3&#45;&gt;Node4</title>
<path fill="none" stroke="midnightblue" d="M565.276,-44C573.881,-44 582.492,-44 590.795,-44"/>
<polygon fill="midnightblue" stroke="midnightblue" points="565.195,-40.5001 555.195,-44 565.195,-47.5001 565.195,-40.5001"/>
</g>
<!-- Node5 -->
<g id="node5" class="node"><title>Node5</title>
<g id="a_node5"><a xlink:href="classscram_1_1core_1_1RiskAnalysis.xhtml#a337f7e9fe02b1581e872590d6f7baa01" target="_top" xlink:title="scram::core::RiskAnalysis\l::model">
<polygon fill="white" stroke="black" points="759,-29 759,-59 891,-59 891,-29 759,-29"/>
<text text-anchor="start" x="767" y="-47" font-family="Helvetica,sans-Serif" font-size="10.00">scram::core::RiskAnalysis</text>
<text text-anchor="middle" x="825" y="-36" font-family="Helvetica,sans-Serif" font-size="10.00">::model</text>
</a>
</g>
</g>
<!-- Node4&#45;&gt;Node5 -->
<g id="edge4" class="edge"><title>Node4&#45;&gt;Node5</title>
<path fill="none" stroke="midnightblue" d="M733.393,-44C741.869,-44 750.452,-44 758.784,-44"/>
<polygon fill="midnightblue" stroke="midnightblue" points="733.131,-40.5001 723.131,-44 733.131,-47.5001 733.131,-40.5001"/>
</g>
<!-- Node5&#45;&gt;Node6 -->
<g id="edge5" class="edge"><title>Node5&#45;&gt;Node6</title>
<path fill="none" stroke="midnightblue" d="M901.239,-34.8549C909.65,-33.8325 918.243,-32.7882 926.714,-31.7585"/>
<polygon fill="midnightblue" stroke="midnightblue" points="900.594,-31.4075 891.089,-36.0886 901.439,-38.3563 900.594,-31.4075"/>
</g>
</g>
</svg>
