<?xml version="1.0" encoding="UTF-8" standalone="no"?>
<!DOCTYPE svg PUBLIC "-//W3C//DTD SVG 1.1//EN"
 "http://www.w3.org/Graphics/SVG/1.1/DTD/svg11.dtd">
<!-- Generated by graphviz version 2.38.0 (20140413.2041)
 -->
<!-- Title: scram::core::Gate::coherent Pages: 1 -->
<svg width="280pt" height="183pt"
 viewBox="0.00 0.00 280.00 182.50" xmlns="http://www.w3.org/2000/svg" xmlns:xlink="http://www.w3.org/1999/xlink">
<g id="graph0" class="graph" transform="scale(1 1) rotate(0) translate(4 178.5)">
<title>scram::core::Gate::coherent</title>
<polygon fill="white" stroke="none" points="-4,4 -4,-178.5 276,-178.5 276,4 -4,4"/>
<!-- Node1 -->
<g id="node1" class="node"><title>Node1</title>
<polygon fill="#bfbfbf" stroke="black" points="0,-55 0,-85 101,-85 101,-55 0,-55"/>
<text text-anchor="start" x="8" y="-73" font-family="Helvetica,sans-Serif" font-size="10.00">scram::core::Gate::</text>
<text text-anchor="middle" x="50.5" y="-62" font-family="Helvetica,sans-Serif" font-size="10.00">coherent</text>
</g>
<!-- Node2 -->
<g id="node2" class="node"><title>Node2</title>
<g id="a_node2"><a xlink:href="classscram_1_1core_1_1Zbdd.xhtml#ac90d12f0c653c679d22109124fa6344c" target="_top" xlink:title="Find or adds a ZBDD SetNode vertex using information from gates. ">
<polygon fill="white" stroke="black" points="153.5,-126 153.5,-156 255.5,-156 255.5,-126 153.5,-126"/>
<text text-anchor="start" x="161.5" y="-144" font-family="Helvetica,sans-Serif" font-size="10.00">scram::core::Zbdd::</text>
<text text-anchor="middle" x="204.5" y="-133" font-family="Helvetica,sans-Serif" font-size="10.00">FindOrAddVertex</text>
</a>
</g>
</g>
<!-- Node1&#45;&gt;Node2 -->
<g id="edge1" class="edge"><title>Node1&#45;&gt;Node2</title>
<path fill="none" stroke="midnightblue" d="M85.1215,-90.0722C100.628,-98.9128 119.452,-109.069 137,-117 143.935,-120.134 151.411,-123.158 158.759,-125.941"/>
<polygon fill="midnightblue" stroke="midnightblue" points="86.8207,-87.0118 76.4099,-85.0457 83.3223,-93.0749 86.8207,-87.0118"/>
</g>
<!-- Node3 -->
<g id="node3" class="node"><title>Node3</title>
<g id="a_node3"><a xlink:href="classscram_1_1core_1_1Mocus.xhtml#a5f8ba8972e30ac19823bbfae32095bb0" target="_top" xlink:title="scram::core::Mocus\l::products">
<polygon fill="white" stroke="black" points="152.5,-77 152.5,-107 256.5,-107 256.5,-77 152.5,-77"/>
<text text-anchor="start" x="160.5" y="-95" font-family="Helvetica,sans-Serif" font-size="10.00">scram::core::Mocus</text>
<text text-anchor="middle" x="204.5" y="-84" font-family="Helvetica,sans-Serif" font-size="10.00">::products</text>
</a>
</g>
</g>
<!-- Node1&#45;&gt;Node3 -->
<g id="edge3" class="edge"><title>Node1&#45;&gt;Node3</title>
<path fill="none" stroke="midnightblue" d="M111.441,-78.6757C124.961,-80.6326 139.192,-82.6923 152.315,-84.5916"/>
<polygon fill="midnightblue" stroke="midnightblue" points="111.669,-75.1722 101.27,-77.2036 110.666,-82.1001 111.669,-75.1722"/>
</g>
<!-- Node4 -->
<g id="node4" class="node"><title>Node4</title>
<g id="a_node4"><a xlink:href="classscram_1_1core_1_1Bdd.xhtml#abb75e2b30e88c46634b4a4b7df90cf8a" target="_top" xlink:title="scram::core::Bdd::products">
<polygon fill="white" stroke="black" points="137,-38.5 137,-57.5 272,-57.5 272,-38.5 137,-38.5"/>
<text text-anchor="middle" x="204.5" y="-45.5" font-family="Helvetica,sans-Serif" font-size="10.00">scram::core::Bdd::products</text>
</a>
</g>
</g>
<!-- Node1&#45;&gt;Node4 -->
<g id="edge4" class="edge"><title>Node1&#45;&gt;Node4</title>
<path fill="none" stroke="midnightblue" d="M111.327,-61.3408C120.035,-60.0804 129.04,-58.777 137.856,-57.5011"/>
<polygon fill="midnightblue" stroke="midnightblue" points="110.666,-57.8999 101.27,-62.7964 111.669,-64.8278 110.666,-57.8999"/>
</g>
<!-- Node5 -->
<g id="node5" class="node"><title>Node5</title>
<g id="a_node5"><a xlink:href="classscram_1_1core_1_1Zbdd.xhtml#af92e04ed908364e0177ce444d7b72712" target="_top" xlink:title="Default constructor to initialize member variables. ">
<polygon fill="white" stroke="black" points="142.5,-0.5 142.5,-19.5 266.5,-19.5 266.5,-0.5 142.5,-0.5"/>
<text text-anchor="middle" x="204.5" y="-7.5" font-family="Helvetica,sans-Serif" font-size="10.00">scram::core::Zbdd::Zbdd</text>
</a>
</g>
</g>
<!-- Node1&#45;&gt;Node5 -->
<g id="edge5" class="edge"><title>Node1&#45;&gt;Node5</title>
<path fill="none" stroke="midnightblue" d="M89.1275,-50.2642C103.822,-43.0077 120.966,-35.0852 137,-29 146.205,-25.5065 156.336,-22.3016 165.856,-19.5589"/>
<polygon fill="midnightblue" stroke="midnightblue" points="87.2314,-47.2996 79.861,-54.9107 90.369,-53.557 87.2314,-47.2996"/>
</g>
<!-- Node2&#45;&gt;Node2 -->
<g id="edge2" class="edge"><title>Node2&#45;&gt;Node2</title>
<path fill="none" stroke="midnightblue" d="M177.136,-166.458C180.532,-171.179 189.654,-174.5 204.5,-174.5 228.863,-174.5 237.809,-165.557 231.338,-156.159"/>
<polygon fill="midnightblue" stroke="midnightblue" points="180.647,-166.325 177.662,-156.159 173.656,-165.967 180.647,-166.325"/>
</g>
</g>
</svg>
