<?xml version="1.0" encoding="UTF-8" standalone="no"?>
<!DOCTYPE svg PUBLIC "-//W3C//DTD SVG 1.1//EN"
 "http://www.w3.org/Graphics/SVG/1.1/DTD/svg11.dtd">
<!-- Generated by graphviz version 2.38.0 (20140413.2041)
 -->
<!-- Title: scram::core::Preprocessor::RemoveConstants Pages: 1 -->
<svg width="476pt" height="39pt"
 viewBox="0.00 0.00 476.00 39.00" xmlns="http://www.w3.org/2000/svg" xmlns:xlink="http://www.w3.org/1999/xlink">
<g id="graph0" class="graph" transform="scale(1 1) rotate(0) translate(4 35)">
<title>scram::core::Preprocessor::RemoveConstants</title>
<polygon fill="white" stroke="none" points="-4,4 -4,-35 472,-35 472,4 -4,4"/>
<!-- Node1 -->
<g id="node1" class="node"><title>Node1</title>
<polygon fill="#bfbfbf" stroke="black" points="0,-0.5 0,-30.5 132,-30.5 132,-0.5 0,-0.5"/>
<text text-anchor="start" x="8" y="-18.5" font-family="Helvetica,sans-Serif" font-size="10.00">scram::core::Preprocessor</text>
<text text-anchor="middle" x="66" y="-7.5" font-family="Helvetica,sans-Serif" font-size="10.00">::RemoveConstants</text>
</g>
<!-- Node2 -->
<g id="node2" class="node"><title>Node2</title>
<g id="a_node2"><a xlink:href="classscram_1_1core_1_1Preprocessor.xhtml#a4931fe17580d91b31d8c2077f64dc728" target="_top" xlink:title="Propagates a Boolean constant bottom&#45;up. ">
<polygon fill="white" stroke="black" points="168,-0.5 168,-30.5 300,-30.5 300,-0.5 168,-0.5"/>
<text text-anchor="start" x="176" y="-18.5" font-family="Helvetica,sans-Serif" font-size="10.00">scram::core::Preprocessor</text>
<text text-anchor="middle" x="234" y="-7.5" font-family="Helvetica,sans-Serif" font-size="10.00">::PropagateConstant</text>
</a>
</g>
</g>
<!-- Node1&#45;&gt;Node2 -->
<g id="edge1" class="edge"><title>Node1&#45;&gt;Node2</title>
<path fill="none" stroke="midnightblue" d="M132.131,-15.5C140.461,-15.5 149.044,-15.5 157.521,-15.5"/>
<polygon fill="midnightblue" stroke="midnightblue" points="157.784,-19.0001 167.784,-15.5 157.784,-12.0001 157.784,-19.0001"/>
</g>
<!-- Node3 -->
<g id="node3" class="node"><title>Node3</title>
<g id="a_node3"><a xlink:href="classscram_1_1core_1_1Preprocessor.xhtml#a860e7142f3e0b33ca799f1d8218eb091" target="_top" xlink:title="Propagate NULL type gates bottom&#45;up. ">
<polygon fill="white" stroke="black" points="336,-0.5 336,-30.5 468,-30.5 468,-0.5 336,-0.5"/>
<text text-anchor="start" x="344" y="-18.5" font-family="Helvetica,sans-Serif" font-size="10.00">scram::core::Preprocessor</text>
<text text-anchor="middle" x="402" y="-7.5" font-family="Helvetica,sans-Serif" font-size="10.00">::PropagateNullGate</text>
</a>
</g>
</g>
<!-- Node2&#45;&gt;Node3 -->
<g id="edge2" class="edge"><title>Node2&#45;&gt;Node3</title>
<path fill="none" stroke="midnightblue" d="M300.131,-8.891C308.461,-8.75766 317.044,-8.71889 325.521,-8.77469"/>
<polygon fill="midnightblue" stroke="midnightblue" points="325.746,-12.2773 335.784,-8.88965 325.824,-5.27777 325.746,-12.2773"/>
</g>
<!-- Node3&#45;&gt;Node2 -->
<g id="edge3" class="edge"><title>Node3&#45;&gt;Node2</title>
<path fill="none" stroke="midnightblue" d="M335.784,-22.1103C327.452,-22.243 318.869,-22.2812 310.393,-22.2247"/>
<polygon fill="midnightblue" stroke="midnightblue" points="310.17,-18.7221 300.131,-22.109 310.091,-25.7216 310.17,-18.7221"/>
</g>
</g>
</svg>
