<?xml version="1.0" encoding="UTF-8" standalone="no"?>
<!DOCTYPE svg PUBLIC "-//W3C//DTD SVG 1.1//EN"
 "http://www.w3.org/Graphics/SVG/1.1/DTD/svg11.dtd">
<!-- Generated by graphviz version 2.38.0 (20140413.2041)
 -->
<!-- Title: scram::core::Zbdd::FindOrAddVertex Pages: 1 -->
<svg width="477pt" height="760pt"
 viewBox="0.00 0.00 477.00 759.50" xmlns="http://www.w3.org/2000/svg" xmlns:xlink="http://www.w3.org/1999/xlink">
<g id="graph0" class="graph" transform="scale(1 1) rotate(0) translate(4 755.5)">
<title>scram::core::Zbdd::FindOrAddVertex</title>
<polygon fill="white" stroke="none" points="-4,4 -4,-755.5 473,-755.5 473,4 -4,4"/>
<!-- Node1 -->
<g id="node1" class="node"><title>Node1</title>
<polygon fill="#bfbfbf" stroke="black" points="0,-349 0,-379 102,-379 102,-349 0,-349"/>
<text text-anchor="start" x="8" y="-367" font-family="Helvetica,sans-Serif" font-size="10.00">scram::core::Zbdd::</text>
<text text-anchor="middle" x="51" y="-356" font-family="Helvetica,sans-Serif" font-size="10.00">FindOrAddVertex</text>
</g>
<!-- Node2 -->
<g id="node2" class="node"><title>Node2</title>
<g id="a_node2"><a xlink:href="classscram_1_1core_1_1Zbdd.xhtml#a711aca319bb4d1586bf1ed92eccfaa97" target="_top" xlink:title="Applies Boolean operation to two vertices representing sets. ">
<polygon fill="white" stroke="black" points="169,-721 169,-751 271,-751 271,-721 169,-721"/>
<text text-anchor="start" x="177" y="-739" font-family="Helvetica,sans-Serif" font-size="10.00">scram::core::Zbdd::</text>
<text text-anchor="middle" x="220" y="-728" font-family="Helvetica,sans-Serif" font-size="10.00">Apply</text>
</a>
</g>
</g>
<!-- Node1&#45;&gt;Node2 -->
<g id="edge1" class="edge"><title>Node1&#45;&gt;Node2</title>
<path fill="none" stroke="midnightblue" d="M53.7912,-379.299C61.1623,-439.773 90.9986,-661.269 138,-711 143.885,-717.227 151.283,-721.915 159.201,-725.441"/>
<polygon fill="midnightblue" stroke="midnightblue" points="158.085,-728.762 168.675,-729.07 160.588,-722.225 158.085,-728.762"/>
</g>
<!-- Node3 -->
<g id="node3" class="node"><title>Node3</title>
<g id="a_node3"><a xlink:href="classscram_1_1core_1_1Gate.xhtml#aa793eeaa12244c5b39a0d80e5b1518ae" target="_top" xlink:title="scram::core::Gate::args">
<polygon fill="white" stroke="black" points="160,-682.5 160,-701.5 280,-701.5 280,-682.5 160,-682.5"/>
<text text-anchor="middle" x="220" y="-689.5" font-family="Helvetica,sans-Serif" font-size="10.00">scram::core::Gate::args</text>
</a>
</g>
</g>
<!-- Node1&#45;&gt;Node3 -->
<g id="edge2" class="edge"><title>Node1&#45;&gt;Node3</title>
<path fill="none" stroke="midnightblue" d="M54.1701,-379.237C62.4913,-435.555 94.109,-630.875 138,-673 141.747,-676.596 146.039,-679.557 150.649,-681.99"/>
<polygon fill="midnightblue" stroke="midnightblue" points="149.285,-685.213 159.847,-686.046 152.109,-678.808 149.285,-685.213"/>
</g>
<!-- Node4 -->
<g id="node4" class="node"><title>Node4</title>
<g id="a_node4"><a xlink:href="classscram_1_1core_1_1Zbdd.xhtml#a7c1129acd9810b5b9ff4952f587ce490" target="_top" xlink:title="Clears all memoization tables. ">
<polygon fill="white" stroke="black" points="169,-633 169,-663 271,-663 271,-633 169,-633"/>
<text text-anchor="start" x="177" y="-651" font-family="Helvetica,sans-Serif" font-size="10.00">scram::core::Zbdd::</text>
<text text-anchor="middle" x="220" y="-640" font-family="Helvetica,sans-Serif" font-size="10.00">ClearTables</text>
</a>
</g>
</g>
<!-- Node1&#45;&gt;Node4 -->
<g id="edge3" class="edge"><title>Node1&#45;&gt;Node4</title>
<path fill="none" stroke="midnightblue" d="M52.3734,-379.12C54.3063,-423.451 66.1307,-554.352 138,-624 144.056,-629.869 151.478,-634.312 159.347,-637.674"/>
<polygon fill="midnightblue" stroke="midnightblue" points="158.141,-640.96 168.734,-641.145 160.569,-634.394 158.141,-640.96"/>
</g>
<!-- Node5 -->
<g id="node5" class="node"><title>Node5</title>
<g id="a_node5"><a xlink:href="classscram_1_1core_1_1Gate.xhtml#a0d070ec20569129162398c73165f65bc" target="_top" xlink:title="scram::core::Gate::\lcoherent">
<polygon fill="white" stroke="black" points="169.5,-584 169.5,-614 270.5,-614 270.5,-584 169.5,-584"/>
<text text-anchor="start" x="177.5" y="-602" font-family="Helvetica,sans-Serif" font-size="10.00">scram::core::Gate::</text>
<text text-anchor="middle" x="220" y="-591" font-family="Helvetica,sans-Serif" font-size="10.00">coherent</text>
</a>
</g>
</g>
<!-- Node1&#45;&gt;Node5 -->
<g id="edge4" class="edge"><title>Node1&#45;&gt;Node5</title>
<path fill="none" stroke="midnightblue" d="M53.6852,-379.023C58.8108,-417.507 77.7454,-520.432 138,-575 144.251,-580.661 151.78,-584.99 159.698,-588.299"/>
<polygon fill="midnightblue" stroke="midnightblue" points="158.525,-591.597 169.119,-591.735 160.923,-585.02 158.525,-591.597"/>
</g>
<!-- Node6 -->
<g id="node6" class="node"><title>Node6</title>
<g id="a_node6"><a xlink:href="classscram_1_1core_1_1Zbdd.xhtml#a42af18229ba2e80201bc0fdac07b7091" target="_top" xlink:title="Finds or adds a unique SetNode in the ZBDD. ">
<polygon fill="white" stroke="black" points="169,-535 169,-565 271,-565 271,-535 169,-535"/>
<text text-anchor="start" x="177" y="-553" font-family="Helvetica,sans-Serif" font-size="10.00">scram::core::Zbdd::</text>
<text text-anchor="middle" x="220" y="-542" font-family="Helvetica,sans-Serif" font-size="10.00">FindOrAddVertex</text>
</a>
</g>
</g>
<!-- Node1&#45;&gt;Node6 -->
<g id="edge5" class="edge"><title>Node1&#45;&gt;Node6</title>
<path fill="none" stroke="midnightblue" d="M56.388,-379.174C66.0562,-410.017 92.0648,-480.45 138,-520 144.371,-525.485 151.836,-530.007 159.611,-533.724"/>
<polygon fill="midnightblue" stroke="midnightblue" points="158.266,-536.956 168.833,-537.727 161.054,-530.534 158.266,-536.956"/>
</g>
<!-- Node7 -->
<g id="node7" class="node"><title>Node7</title>
<g id="a_node7"><a xlink:href="classscram_1_1core_1_1SetNode.xhtml#adfcfad8dde1eb94ed51d8075a5ad6344" target="_top" xlink:title="&lt; For destructive extraction of products. ">
<polygon fill="white" stroke="black" points="338,-518.5 338,-537.5 469,-537.5 469,-518.5 338,-518.5"/>
<text text-anchor="middle" x="403.5" y="-525.5" font-family="Helvetica,sans-Serif" font-size="10.00">scram::core::SetNode::Ptr</text>
</a>
</g>
</g>
<!-- Node1&#45;&gt;Node7 -->
<g id="edge14" class="edge"><title>Node1&#45;&gt;Node7</title>
<path fill="none" stroke="midnightblue" d="M57.8226,-379.091C68.9619,-405.747 95.9818,-460.82 138,-487 168.855,-506.225 260.802,-517.265 327.635,-522.944"/>
<polygon fill="midnightblue" stroke="midnightblue" points="327.463,-526.442 337.717,-523.777 328.039,-519.466 327.463,-526.442"/>
</g>
<!-- Node8 -->
<g id="node8" class="node"><title>Node8</title>
<g id="a_node8"><a xlink:href="classscram_1_1core_1_1Node.xhtml#a62121e217b0da73112af7e07275f2c15" target="_top" xlink:title="scram::core::Node::\lindex">
<polygon fill="white" stroke="black" points="168,-447 168,-477 272,-477 272,-447 168,-447"/>
<text text-anchor="start" x="176" y="-465" font-family="Helvetica,sans-Serif" font-size="10.00">scram::core::Node::</text>
<text text-anchor="middle" x="220" y="-454" font-family="Helvetica,sans-Serif" font-size="10.00">index</text>
</a>
</g>
</g>
<!-- Node1&#45;&gt;Node8 -->
<g id="edge7" class="edge"><title>Node1&#45;&gt;Node8</title>
<path fill="none" stroke="midnightblue" d="M65.7705,-379.203C81.656,-395.877 109.295,-422.344 138,-438 144.374,-441.476 151.311,-444.505 158.356,-447.13"/>
<polygon fill="midnightblue" stroke="midnightblue" points="157.391,-450.5 167.986,-450.464 159.681,-443.885 157.391,-450.5"/>
</g>
<!-- Node9 -->
<g id="node9" class="node"><title>Node9</title>
<g id="a_node9"><a xlink:href="classscram_1_1core_1_1Gate.xhtml#aeaaa462ccbdef3cb95d70d966ce1740a" target="_top" xlink:title="scram::core::Gate::\lIsConstant">
<polygon fill="white" stroke="black" points="169.5,-398 169.5,-428 270.5,-428 270.5,-398 169.5,-398"/>
<text text-anchor="start" x="177.5" y="-416" font-family="Helvetica,sans-Serif" font-size="10.00">scram::core::Gate::</text>
<text text-anchor="middle" x="220" y="-405" font-family="Helvetica,sans-Serif" font-size="10.00">IsConstant</text>
</a>
</g>
</g>
<!-- Node1&#45;&gt;Node9 -->
<g id="edge8" class="edge"><title>Node1&#45;&gt;Node9</title>
<path fill="none" stroke="midnightblue" d="M102.106,-378.702C120.187,-384.007 140.769,-390.046 159.571,-395.563"/>
<polygon fill="midnightblue" stroke="midnightblue" points="158.637,-398.936 169.218,-398.393 160.608,-392.219 158.637,-398.936"/>
</g>
<!-- Node10 -->
<g id="node10" class="node"><title>Node10</title>
<g id="a_node10"><a xlink:href="classscram_1_1core_1_1Settings.xhtml#a0e43ec0f017d23a4fa4e376c4060d380" target="_top" xlink:title="scram::core::Settings\l::limit_order">
<polygon fill="white" stroke="black" points="165,-349 165,-379 275,-379 275,-349 165,-349"/>
<text text-anchor="start" x="173" y="-367" font-family="Helvetica,sans-Serif" font-size="10.00">scram::core::Settings</text>
<text text-anchor="middle" x="220" y="-356" font-family="Helvetica,sans-Serif" font-size="10.00">::limit_order</text>
</a>
</g>
</g>
<!-- Node1&#45;&gt;Node10 -->
<g id="edge9" class="edge"><title>Node1&#45;&gt;Node10</title>
<path fill="none" stroke="midnightblue" d="M102.106,-364C118.65,-364 137.289,-364 154.742,-364"/>
<polygon fill="midnightblue" stroke="midnightblue" points="154.856,-367.5 164.856,-364 154.856,-360.5 154.856,-367.5"/>
</g>
<!-- Node11 -->
<g id="node11" class="node"><title>Node11</title>
<g id="a_node11"><a xlink:href="classscram_1_1core_1_1Gate.xhtml#a93fa477d60140843c4abae7de52fffa1" target="_top" xlink:title="scram::core::Gate::\lmodule">
<polygon fill="white" stroke="black" points="169.5,-300 169.5,-330 270.5,-330 270.5,-300 169.5,-300"/>
<text text-anchor="start" x="177.5" y="-318" font-family="Helvetica,sans-Serif" font-size="10.00">scram::core::Gate::</text>
<text text-anchor="middle" x="220" y="-307" font-family="Helvetica,sans-Serif" font-size="10.00">module</text>
</a>
</g>
</g>
<!-- Node1&#45;&gt;Node11 -->
<g id="edge10" class="edge"><title>Node1&#45;&gt;Node11</title>
<path fill="none" stroke="midnightblue" d="M102.106,-349.298C120.187,-343.993 140.769,-337.954 159.571,-332.437"/>
<polygon fill="midnightblue" stroke="midnightblue" points="160.608,-335.781 169.218,-329.607 158.637,-329.064 160.608,-335.781"/>
</g>
<!-- Node12 -->
<g id="node12" class="node"><title>Node12</title>
<g id="a_node12"><a xlink:href="classscram_1_1core_1_1Node.xhtml#a8b76f2081293edc1cf85ddf8cb2ac2ed" target="_top" xlink:title="scram::core::Node::\lorder">
<polygon fill="white" stroke="black" points="168,-251 168,-281 272,-281 272,-251 168,-251"/>
<text text-anchor="start" x="176" y="-269" font-family="Helvetica,sans-Serif" font-size="10.00">scram::core::Node::</text>
<text text-anchor="middle" x="220" y="-258" font-family="Helvetica,sans-Serif" font-size="10.00">order</text>
</a>
</g>
</g>
<!-- Node1&#45;&gt;Node12 -->
<g id="edge11" class="edge"><title>Node1&#45;&gt;Node12</title>
<path fill="none" stroke="midnightblue" d="M66.1343,-348.775C82.1305,-332.372 109.667,-306.537 138,-291 144.299,-287.546 151.141,-284.5 158.089,-281.832"/>
<polygon fill="midnightblue" stroke="midnightblue" points="159.357,-285.096 167.59,-278.426 156.995,-278.507 159.357,-285.096"/>
</g>
<!-- Node13 -->
<g id="node13" class="node"><title>Node13</title>
<g id="a_node13"><a xlink:href="classscram_1_1core_1_1NodeParentManager.xhtml#a6fca1af860a85acc2907699d1d1be716" target="_top" xlink:title="scram::core::NodeParentManager\l::parents">
<polygon fill="white" stroke="black" points="138,-202 138,-232 302,-232 302,-202 138,-202"/>
<text text-anchor="start" x="146" y="-220" font-family="Helvetica,sans-Serif" font-size="10.00">scram::core::NodeParentManager</text>
<text text-anchor="middle" x="220" y="-209" font-family="Helvetica,sans-Serif" font-size="10.00">::parents</text>
</a>
</g>
</g>
<!-- Node1&#45;&gt;Node13 -->
<g id="edge12" class="edge"><title>Node1&#45;&gt;Node13</title>
<path fill="none" stroke="midnightblue" d="M58.6358,-348.809C70.6772,-323.003 98.5789,-270.626 138,-242 140.679,-240.054 143.514,-238.258 146.454,-236.598"/>
<polygon fill="midnightblue" stroke="midnightblue" points="148.189,-239.644 155.55,-232.023 145.044,-233.39 148.189,-239.644"/>
</g>
<!-- Node14 -->
<g id="node14" class="node"><title>Node14</title>
<g id="a_node14"><a xlink:href="classscram_1_1core_1_1Settings.xhtml#ae64f362fceb44402e101140dfc1725ba" target="_top" xlink:title="scram::core::Settings\l::prime_implicants">
<polygon fill="white" stroke="black" points="165,-153 165,-183 275,-183 275,-153 165,-153"/>
<text text-anchor="start" x="173" y="-171" font-family="Helvetica,sans-Serif" font-size="10.00">scram::core::Settings</text>
<text text-anchor="middle" x="220" y="-160" font-family="Helvetica,sans-Serif" font-size="10.00">::prime_implicants</text>
</a>
</g>
</g>
<!-- Node1&#45;&gt;Node14 -->
<g id="edge13" class="edge"><title>Node1&#45;&gt;Node14</title>
<path fill="none" stroke="midnightblue" d="M55.3216,-348.945C63.4297,-315.747 87.3842,-235.814 138,-193 143.209,-188.594 149.188,-184.964 155.487,-181.973"/>
<polygon fill="midnightblue" stroke="midnightblue" points="157.021,-185.125 164.892,-178.033 154.316,-178.668 157.021,-185.125"/>
</g>
<!-- Node15 -->
<g id="node15" class="node"><title>Node15</title>
<g id="a_node15"><a xlink:href="classscram_1_1core_1_1Terminal.xhtml#ab615ba4379a9ae2a882177a6d120ece9" target="_top" xlink:title="Recovers a shared pointer to Terminal from a pointer to Vertex. ">
<polygon fill="white" stroke="black" points="154.5,-114.5 154.5,-133.5 285.5,-133.5 285.5,-114.5 154.5,-114.5"/>
<text text-anchor="middle" x="220" y="-121.5" font-family="Helvetica,sans-Serif" font-size="10.00">scram::core::Terminal::Ptr</text>
</a>
</g>
</g>
<!-- Node1&#45;&gt;Node15 -->
<g id="edge15" class="edge"><title>Node1&#45;&gt;Node15</title>
<path fill="none" stroke="midnightblue" d="M53.2624,-348.769C57.4242,-308.744 74.3406,-199.846 138,-144 140.373,-141.918 142.93,-140.045 145.621,-138.362"/>
<polygon fill="midnightblue" stroke="midnightblue" points="147.413,-141.374 154.615,-133.603 144.139,-135.186 147.413,-141.374"/>
</g>
<!-- Node16 -->
<g id="node16" class="node"><title>Node16</title>
<g id="a_node16"><a xlink:href="classscram_1_1core_1_1Ite.xhtml#a55a7d6955f67d68f01287950c7efc782" target="_top" xlink:title="Recovers a shared pointer to Ite from a pointer to Vertex. ">
<polygon fill="white" stroke="black" points="168,-76.5 168,-95.5 272,-95.5 272,-76.5 168,-76.5"/>
<text text-anchor="middle" x="220" y="-83.5" font-family="Helvetica,sans-Serif" font-size="10.00">scram::core::Ite::Ptr</text>
</a>
</g>
</g>
<!-- Node1&#45;&gt;Node16 -->
<g id="edge16" class="edge"><title>Node1&#45;&gt;Node16</title>
<path fill="none" stroke="midnightblue" d="M52.2066,-348.738C53.6806,-304.028 64.3704,-172.271 138,-105 143.773,-99.7252 150.728,-95.8317 158.105,-92.9712"/>
<polygon fill="midnightblue" stroke="midnightblue" points="159.194,-96.2976 167.619,-89.874 157.027,-89.6414 159.194,-96.2976"/>
</g>
<!-- Node17 -->
<g id="node17" class="node"><title>Node17</title>
<g id="a_node17"><a xlink:href="classext_1_1linear__map.xhtml#a670bc30d04c01d2fb124d5ebbc8ade71" target="_top" xlink:title="ext::linear_map::size">
<polygon fill="white" stroke="black" points="166.5,-38.5 166.5,-57.5 273.5,-57.5 273.5,-38.5 166.5,-38.5"/>
<text text-anchor="middle" x="220" y="-45.5" font-family="Helvetica,sans-Serif" font-size="10.00">ext::linear_map::size</text>
</a>
</g>
</g>
<!-- Node1&#45;&gt;Node17 -->
<g id="edge17" class="edge"><title>Node1&#45;&gt;Node17</title>
<path fill="none" stroke="midnightblue" d="M51.4529,-348.687C50.5933,-299.779 54.902,-145.929 138,-67 143.328,-61.9392 149.737,-58.1395 156.588,-55.2995"/>
<polygon fill="midnightblue" stroke="midnightblue" points="157.837,-58.571 166.143,-51.9934 155.548,-51.9558 157.837,-58.571"/>
</g>
<!-- Node18 -->
<g id="node18" class="node"><title>Node18</title>
<g id="a_node18"><a xlink:href="classscram_1_1core_1_1Gate.xhtml#ad5a5766ce9dbbd2104c0bb07b9639a48" target="_top" xlink:title="scram::core::Gate::type">
<polygon fill="white" stroke="black" points="160,-0.5 160,-19.5 280,-19.5 280,-0.5 160,-0.5"/>
<text text-anchor="middle" x="220" y="-7.5" font-family="Helvetica,sans-Serif" font-size="10.00">scram::core::Gate::type</text>
</a>
</g>
</g>
<!-- Node1&#45;&gt;Node18 -->
<g id="edge18" class="edge"><title>Node1&#45;&gt;Node18</title>
<path fill="none" stroke="midnightblue" d="M53.8241,-348.731C61.2147,-289.404 90.8103,-75.2142 138,-29 141.71,-25.3664 145.976,-22.3787 150.568,-19.9272"/>
<polygon fill="midnightblue" stroke="midnightblue" points="152.028,-23.1085 159.741,-15.8445 149.182,-16.7133 152.028,-23.1085"/>
</g>
<!-- Node6&#45;&gt;Node7 -->
<g id="edge6" class="edge"><title>Node6&#45;&gt;Node7</title>
<path fill="none" stroke="midnightblue" d="M271.076,-543.93C288.598,-541.806 308.67,-539.373 327.765,-537.059"/>
<polygon fill="midnightblue" stroke="midnightblue" points="328.44,-540.503 337.946,-535.825 327.597,-533.554 328.44,-540.503"/>
</g>
</g>
</svg>
