<?xml version="1.0" encoding="UTF-8" standalone="no"?>
<!DOCTYPE svg PUBLIC "-//W3C//DTD SVG 1.1//EN"
 "http://www.w3.org/Graphics/SVG/1.1/DTD/svg11.dtd">
<!-- Generated by graphviz version 2.38.0 (20140413.2041)
 -->
<!-- Title: scram::core::Settings::limit_order Pages: 1 -->
<svg width="504pt" height="576pt"
 viewBox="0.00 0.00 504.00 576.00" xmlns="http://www.w3.org/2000/svg" xmlns:xlink="http://www.w3.org/1999/xlink">
<g id="graph0" class="graph" transform="scale(1 1) rotate(0) translate(4 572)">
<title>scram::core::Settings::limit_order</title>
<polygon fill="white" stroke="none" points="-4,4 -4,-572 500,-572 500,4 -4,4"/>
<!-- Node1 -->
<g id="node1" class="node"><title>Node1</title>
<polygon fill="#bfbfbf" stroke="black" points="0,-285.5 0,-315.5 110,-315.5 110,-285.5 0,-285.5"/>
<text text-anchor="start" x="8" y="-303.5" font-family="Helvetica,sans-Serif" font-size="10.00">scram::core::Settings</text>
<text text-anchor="middle" x="55" y="-292.5" font-family="Helvetica,sans-Serif" font-size="10.00">::limit_order</text>
</g>
<!-- Node2 -->
<g id="node2" class="node"><title>Node2</title>
<g id="a_node2"><a xlink:href="classscram_1_1core_1_1Zbdd.xhtml#a77945d28bd832d2735969d0b0a451c78" target="_top" xlink:title="Runs the analysis with the representation of a Boolean graph as ZBDD. ">
<polygon fill="white" stroke="black" points="171.5,-537.5 171.5,-567.5 273.5,-567.5 273.5,-537.5 171.5,-537.5"/>
<text text-anchor="start" x="179.5" y="-555.5" font-family="Helvetica,sans-Serif" font-size="10.00">scram::core::Zbdd::</text>
<text text-anchor="middle" x="222.5" y="-544.5" font-family="Helvetica,sans-Serif" font-size="10.00">Analyze</text>
</a>
</g>
</g>
<!-- Node1&#45;&gt;Node2 -->
<g id="edge1" class="edge"><title>Node1&#45;&gt;Node2</title>
<path fill="none" stroke="midnightblue" d="M59.0027,-325.757C65.8584,-372.254 86.9194,-471.734 146,-527.5 153.129,-534.229 162.111,-539.149 171.37,-542.745"/>
<polygon fill="midnightblue" stroke="midnightblue" points="62.4423,-325.077 57.6155,-315.645 55.5073,-326.028 62.4423,-325.077"/>
</g>
<!-- Node3 -->
<g id="node3" class="node"><title>Node3</title>
<g id="a_node3"><a xlink:href="classscram_1_1Config.xhtml#ab0d7940fbb627fab9867821e133eab5d" target="_top" xlink:title="A constructor with configurations for analysis. ">
<polygon fill="white" stroke="black" points="166,-499 166,-518 279,-518 279,-499 166,-499"/>
<text text-anchor="middle" x="222.5" y="-506" font-family="Helvetica,sans-Serif" font-size="10.00">scram::Config::Config</text>
</a>
</g>
</g>
<!-- Node1&#45;&gt;Node3 -->
<g id="edge2" class="edge"><title>Node1&#45;&gt;Node3</title>
<path fill="none" stroke="midnightblue" d="M60.7957,-325.629C69.9239,-366.394 93.7447,-446.682 146,-489.5 151.855,-494.297 158.761,-497.905 165.978,-500.614"/>
<polygon fill="midnightblue" stroke="midnightblue" points="64.189,-324.758 58.6907,-315.702 57.3413,-326.21 64.189,-324.758"/>
</g>
<!-- Node4 -->
<g id="node4" class="node"><title>Node4</title>
<g id="a_node4"><a xlink:href="classscram_1_1core_1_1FaultTreeAnalysis.xhtml#a87d670c8f26414bdf60d0f14ba904619" target="_top" xlink:title="Converts resultant sets of basic event indices to strings for future reporting. ">
<polygon fill="white" stroke="black" points="146,-449.5 146,-479.5 299,-479.5 299,-449.5 146,-449.5"/>
<text text-anchor="start" x="154" y="-467.5" font-family="Helvetica,sans-Serif" font-size="10.00">scram::core::FaultTreeAnalysis</text>
<text text-anchor="middle" x="222.5" y="-456.5" font-family="Helvetica,sans-Serif" font-size="10.00">::Convert</text>
</a>
</g>
</g>
<!-- Node1&#45;&gt;Node4 -->
<g id="edge3" class="edge"><title>Node1&#45;&gt;Node4</title>
<path fill="none" stroke="midnightblue" d="M65.4659,-324.898C78.8046,-356.145 106.051,-409.902 146,-440.5 150.477,-443.929 155.456,-446.875 160.662,-449.405"/>
<polygon fill="midnightblue" stroke="midnightblue" points="68.6785,-323.508 61.6254,-315.602 62.2089,-326.181 68.6785,-323.508"/>
</g>
<!-- Node5 -->
<g id="node5" class="node"><title>Node5</title>
<g id="a_node5"><a xlink:href="classscram_1_1core_1_1zbdd_1_1CutSetContainer.xhtml#a15ccbd5b839be87c831a743f0100588e" target="_top" xlink:title="Converts a Boolean graph gate into intermediate cut sets. ">
<polygon fill="white" stroke="black" points="147,-400.5 147,-430.5 298,-430.5 298,-400.5 147,-400.5"/>
<text text-anchor="start" x="155" y="-418.5" font-family="Helvetica,sans-Serif" font-size="10.00">scram::core::zbdd::</text>
<text text-anchor="middle" x="222.5" y="-407.5" font-family="Helvetica,sans-Serif" font-size="10.00">CutSetContainer::ConvertGate</text>
</a>
</g>
</g>
<!-- Node1&#45;&gt;Node5 -->
<g id="edge4" class="edge"><title>Node1&#45;&gt;Node5</title>
<path fill="none" stroke="midnightblue" d="M73.3568,-323.544C89.937,-344.07 116.686,-373.553 146,-391.5 151.513,-394.875 157.547,-397.82 163.724,-400.379"/>
<polygon fill="midnightblue" stroke="midnightblue" points="76.0467,-321.303 67.1025,-315.624 70.553,-325.641 76.0467,-321.303"/>
</g>
<!-- Node6 -->
<g id="node6" class="node"><title>Node6</title>
<g id="a_node6"><a xlink:href="classscram_1_1core_1_1Zbdd.xhtml#ac3ac27090b550d973b20bd971c3de9f9" target="_top" xlink:title="Removes complements of variables from products. ">
<polygon fill="white" stroke="black" points="163.5,-263.5 163.5,-293.5 281.5,-293.5 281.5,-263.5 163.5,-263.5"/>
<text text-anchor="start" x="171.5" y="-281.5" font-family="Helvetica,sans-Serif" font-size="10.00">scram::core::Zbdd::</text>
<text text-anchor="middle" x="222.5" y="-270.5" font-family="Helvetica,sans-Serif" font-size="10.00">EliminateComplements</text>
</a>
</g>
</g>
<!-- Node1&#45;&gt;Node6 -->
<g id="edge5" class="edge"><title>Node1&#45;&gt;Node6</title>
<path fill="none" stroke="midnightblue" d="M120.374,-291.943C134.58,-290.054 149.546,-288.065 163.482,-286.212"/>
<polygon fill="midnightblue" stroke="midnightblue" points="119.642,-288.509 110.191,-293.296 120.565,-295.448 119.642,-288.509"/>
</g>
<!-- Node7 -->
<g id="node7" class="node"><title>Node7</title>
<g id="a_node7"><a xlink:href="classscram_1_1core_1_1Zbdd.xhtml#af92e04ed908364e0177ce444d7b72712" target="_top" xlink:title="Default constructor to initialize member variables. ">
<polygon fill="white" stroke="black" points="353.5,-313 353.5,-332 477.5,-332 477.5,-313 353.5,-313"/>
<text text-anchor="middle" x="415.5" y="-320" font-family="Helvetica,sans-Serif" font-size="10.00">scram::core::Zbdd::Zbdd</text>
</a>
</g>
</g>
<!-- Node1&#45;&gt;Node7 -->
<g id="edge19" class="edge"><title>Node1&#45;&gt;Node7</title>
<path fill="none" stroke="midnightblue" d="M120.344,-304.449C186.421,-308.504 288.512,-314.769 353.385,-318.75"/>
<polygon fill="midnightblue" stroke="midnightblue" points="120.255,-300.937 110.059,-303.817 119.826,-307.923 120.255,-300.937"/>
</g>
<!-- Node9 -->
<g id="node9" class="node"><title>Node9</title>
<g id="a_node9"><a xlink:href="classscram_1_1core_1_1Zbdd.xhtml#aeb83fd37f2aee74ac41e6ccadba82d39" target="_top" xlink:title="Removes constant modules from products. ">
<polygon fill="white" stroke="black" points="155.5,-351.5 155.5,-381.5 289.5,-381.5 289.5,-351.5 155.5,-351.5"/>
<text text-anchor="start" x="163.5" y="-369.5" font-family="Helvetica,sans-Serif" font-size="10.00">scram::core::Zbdd::</text>
<text text-anchor="middle" x="222.5" y="-358.5" font-family="Helvetica,sans-Serif" font-size="10.00">EliminateConstantModules</text>
</a>
</g>
</g>
<!-- Node1&#45;&gt;Node9 -->
<g id="edge8" class="edge"><title>Node1&#45;&gt;Node9</title>
<path fill="none" stroke="midnightblue" d="M102.994,-319.321C116.843,-324.861 132.029,-330.93 146,-336.5 158.185,-341.358 171.48,-346.645 183.472,-351.409"/>
<polygon fill="midnightblue" stroke="midnightblue" points="104.236,-316.048 93.6509,-315.583 101.635,-322.547 104.236,-316.048"/>
</g>
<!-- Node11 -->
<g id="node11" class="node"><title>Node11</title>
<g id="a_node11"><a xlink:href="classscram_1_1core_1_1zbdd_1_1CutSetContainer.xhtml#a59985023f1eba639571610ad9a0b2a41" target="_top" xlink:title="Expands the intermediate ZBDD representation of a gate in intermediate cut sets containing the gate...">
<polygon fill="white" stroke="black" points="148,-165.5 148,-195.5 297,-195.5 297,-165.5 148,-165.5"/>
<text text-anchor="start" x="156" y="-183.5" font-family="Helvetica,sans-Serif" font-size="10.00">scram::core::zbdd::</text>
<text text-anchor="middle" x="222.5" y="-172.5" font-family="Helvetica,sans-Serif" font-size="10.00">CutSetContainer::ExpandGate</text>
</a>
</g>
</g>
<!-- Node1&#45;&gt;Node11 -->
<g id="edge11" class="edge"><title>Node1&#45;&gt;Node11</title>
<path fill="none" stroke="midnightblue" d="M72.6363,-277.222C89.0565,-255.805 116.001,-224.563 146,-205.5 151.943,-201.723 158.515,-198.459 165.229,-195.653"/>
<polygon fill="midnightblue" stroke="midnightblue" points="69.6618,-275.355 66.4681,-285.457 75.2644,-279.551 69.6618,-275.355"/>
</g>
<!-- Node12 -->
<g id="node12" class="node"><title>Node12</title>
<g id="a_node12"><a xlink:href="classscram_1_1core_1_1Zbdd.xhtml#ac90d12f0c653c679d22109124fa6344c" target="_top" xlink:title="Find or adds a ZBDD SetNode vertex using information from gates. ">
<polygon fill="white" stroke="black" points="171.5,-98.5 171.5,-128.5 273.5,-128.5 273.5,-98.5 171.5,-98.5"/>
<text text-anchor="start" x="179.5" y="-116.5" font-family="Helvetica,sans-Serif" font-size="10.00">scram::core::Zbdd::</text>
<text text-anchor="middle" x="222.5" y="-105.5" font-family="Helvetica,sans-Serif" font-size="10.00">FindOrAddVertex</text>
</a>
</g>
</g>
<!-- Node1&#45;&gt;Node12 -->
<g id="edge12" class="edge"><title>Node1&#45;&gt;Node12</title>
<path fill="none" stroke="midnightblue" d="M66.5818,-276.176C80.9589,-245.319 109.153,-191.871 146,-156.5 157.753,-145.218 173.026,-135.802 186.759,-128.686"/>
<polygon fill="midnightblue" stroke="midnightblue" points="63.3636,-274.798 62.406,-285.35 69.7346,-277.698 63.3636,-274.798"/>
</g>
<!-- Node13 -->
<g id="node13" class="node"><title>Node13</title>
<g id="a_node13"><a xlink:href="classscram_1_1core_1_1Zbdd.xhtml#a516f0d2f35ad213399f83fb9ab102561" target="_top" xlink:title="Traverses ZBDD to find modules and adjusted cut&#45;offs. ">
<polygon fill="white" stroke="black" points="171.5,-214.5 171.5,-244.5 273.5,-244.5 273.5,-214.5 171.5,-214.5"/>
<text text-anchor="start" x="179.5" y="-232.5" font-family="Helvetica,sans-Serif" font-size="10.00">scram::core::Zbdd::</text>
<text text-anchor="middle" x="222.5" y="-221.5" font-family="Helvetica,sans-Serif" font-size="10.00">GatherModules</text>
</a>
</g>
</g>
<!-- Node1&#45;&gt;Node13 -->
<g id="edge14" class="edge"><title>Node1&#45;&gt;Node13</title>
<path fill="none" stroke="midnightblue" d="M92.1761,-280.412C108.37,-271.839 127.866,-262.084 146,-254.5 154.407,-250.984 163.498,-247.619 172.361,-244.561"/>
<polygon fill="midnightblue" stroke="midnightblue" points="90.2193,-277.489 83.0581,-285.298 93.5255,-283.659 90.2193,-277.489"/>
</g>
<!-- Node15 -->
<g id="node15" class="node"><title>Node15</title>
<g id="a_node15"><a xlink:href="classscram_1_1core_1_1zbdd_1_1CutSetContainer.xhtml#a87489caef0ebb8e4b62c600455da84a2" target="_top" xlink:title="Merges a set of cut sets into the main container. ">
<polygon fill="white" stroke="black" points="161.5,-49.5 161.5,-79.5 283.5,-79.5 283.5,-49.5 161.5,-49.5"/>
<text text-anchor="start" x="169.5" y="-67.5" font-family="Helvetica,sans-Serif" font-size="10.00">scram::core::zbdd::</text>
<text text-anchor="middle" x="222.5" y="-56.5" font-family="Helvetica,sans-Serif" font-size="10.00">CutSetContainer::Merge</text>
</a>
</g>
</g>
<!-- Node1&#45;&gt;Node15 -->
<g id="edge17" class="edge"><title>Node1&#45;&gt;Node15</title>
<path fill="none" stroke="midnightblue" d="M59.6789,-275.584C67.4943,-231.502 89.8689,-139.604 146,-88.5 150.475,-84.4259 155.642,-81.0432 161.131,-78.2347"/>
<polygon fill="midnightblue" stroke="midnightblue" points="56.2241,-275.024 58.0319,-285.463 63.1288,-276.175 56.2241,-275.024"/>
</g>
<!-- Node16 -->
<g id="node16" class="node"><title>Node16</title>
<g id="a_node16"><a xlink:href="classscram_1_1core_1_1Mocus.xhtml#a5f8ba8972e30ac19823bbfae32095bb0" target="_top" xlink:title="scram::core::Mocus\l::products">
<polygon fill="white" stroke="black" points="170.5,-0.5 170.5,-30.5 274.5,-30.5 274.5,-0.5 170.5,-0.5"/>
<text text-anchor="start" x="178.5" y="-18.5" font-family="Helvetica,sans-Serif" font-size="10.00">scram::core::Mocus</text>
<text text-anchor="middle" x="222.5" y="-7.5" font-family="Helvetica,sans-Serif" font-size="10.00">::products</text>
</a>
</g>
</g>
<!-- Node1&#45;&gt;Node16 -->
<g id="edge18" class="edge"><title>Node1&#45;&gt;Node16</title>
<path fill="none" stroke="midnightblue" d="M57.4277,-275.11C61.7103,-223.385 78.7319,-105.154 146,-39.5 152.792,-32.8714 161.407,-28.0724 170.37,-24.5985"/>
<polygon fill="midnightblue" stroke="midnightblue" points="53.9158,-275.146 56.6759,-285.375 60.8971,-275.657 53.9158,-275.146"/>
</g>
<!-- Node6&#45;&gt;Node7 -->
<g id="edge6" class="edge"><title>Node6&#45;&gt;Node7</title>
<path fill="none" stroke="midnightblue" d="M291.457,-294.155C318.705,-300.432 349.224,-307.463 373.051,-312.951"/>
<polygon fill="midnightblue" stroke="midnightblue" points="292.115,-290.715 281.584,-291.881 290.543,-297.536 292.115,-290.715"/>
</g>
<!-- Node8 -->
<g id="node8" class="node"><title>Node8</title>
<g id="a_node8"><a xlink:href="classscram_1_1core_1_1zbdd_1_1CutSetContainer.xhtml#a49532388bd9b917f4351f94f728518aa" target="_top" xlink:title="Eliminates all complements from cut sets. ">
<polygon fill="white" stroke="black" points="347.5,-253 347.5,-294 483.5,-294 483.5,-253 347.5,-253"/>
<text text-anchor="start" x="355.5" y="-282" font-family="Helvetica,sans-Serif" font-size="10.00">scram::core::zbdd::</text>
<text text-anchor="start" x="355.5" y="-271" font-family="Helvetica,sans-Serif" font-size="10.00">CutSetContainer::Eliminate</text>
<text text-anchor="middle" x="415.5" y="-260" font-family="Helvetica,sans-Serif" font-size="10.00">Complements</text>
</a>
</g>
</g>
<!-- Node6&#45;&gt;Node8 -->
<g id="edge7" class="edge"><title>Node6&#45;&gt;Node8</title>
<path fill="none" stroke="midnightblue" d="M291.746,-276.713C309.814,-276.24 329.303,-275.73 347.314,-275.259"/>
<polygon fill="midnightblue" stroke="midnightblue" points="291.489,-273.219 281.584,-276.979 291.672,-280.216 291.489,-273.219"/>
</g>
<!-- Node9&#45;&gt;Node7 -->
<g id="edge9" class="edge"><title>Node9&#45;&gt;Node7</title>
<path fill="none" stroke="midnightblue" d="M298.679,-349.181C324.056,-343.335 351.441,-337.027 373.207,-332.012"/>
<polygon fill="midnightblue" stroke="midnightblue" points="297.656,-345.825 288.697,-351.481 299.228,-352.646 297.656,-345.825"/>
</g>
<!-- Node10 -->
<g id="node10" class="node"><title>Node10</title>
<g id="a_node10"><a xlink:href="classscram_1_1core_1_1zbdd_1_1CutSetContainer.xhtml#a1022ad7a4699257a6f0c0809d8f1903d" target="_top" xlink:title="Removes constant modules from cut sets. ">
<polygon fill="white" stroke="black" points="347.5,-351 347.5,-392 483.5,-392 483.5,-351 347.5,-351"/>
<text text-anchor="start" x="355.5" y="-380" font-family="Helvetica,sans-Serif" font-size="10.00">scram::core::zbdd::</text>
<text text-anchor="start" x="355.5" y="-369" font-family="Helvetica,sans-Serif" font-size="10.00">CutSetContainer::Eliminate</text>
<text text-anchor="middle" x="415.5" y="-358" font-family="Helvetica,sans-Serif" font-size="10.00">ConstantModules</text>
</a>
</g>
</g>
<!-- Node9&#45;&gt;Node10 -->
<g id="edge10" class="edge"><title>Node9&#45;&gt;Node10</title>
<path fill="none" stroke="midnightblue" d="M299.955,-368.501C315.644,-368.912 332.049,-369.342 347.38,-369.743"/>
<polygon fill="midnightblue" stroke="midnightblue" points="299.855,-364.998 289.766,-368.235 299.671,-371.995 299.855,-364.998"/>
</g>
<!-- Node12&#45;&gt;Node12 -->
<g id="edge13" class="edge"><title>Node12&#45;&gt;Node12</title>
<path fill="none" stroke="midnightblue" d="M193.004,-138.958C196.665,-143.679 206.497,-147 222.5,-147 248.762,-147 258.405,-138.057 251.429,-128.659"/>
<polygon fill="midnightblue" stroke="midnightblue" points="196.516,-138.836 193.571,-128.659 189.526,-138.451 196.516,-138.836"/>
</g>
<!-- Node13&#45;&gt;Node7 -->
<g id="edge15" class="edge"><title>Node13&#45;&gt;Node7</title>
<path fill="none" stroke="midnightblue" d="M283.134,-245.269C288.738,-247.907 294.134,-250.964 299,-254.5 320.86,-270.387 312.483,-288.558 335,-303.5 340.794,-307.345 347.282,-310.414 353.987,-312.863"/>
<polygon fill="midnightblue" stroke="midnightblue" points="284.134,-241.892 273.561,-241.215 281.404,-248.338 284.134,-241.892"/>
</g>
<!-- Node14 -->
<g id="node14" class="node"><title>Node14</title>
<g id="a_node14"><a xlink:href="classscram_1_1core_1_1zbdd_1_1CutSetContainer.xhtml#a478c89f64731781882b50ec55898900b" target="_top" xlink:title="Gathers all module indices in the cut sets. ">
<polygon fill="white" stroke="black" points="335,-204.5 335,-234.5 496,-234.5 496,-204.5 335,-204.5"/>
<text text-anchor="start" x="343" y="-222.5" font-family="Helvetica,sans-Serif" font-size="10.00">scram::core::zbdd::</text>
<text text-anchor="middle" x="415.5" y="-211.5" font-family="Helvetica,sans-Serif" font-size="10.00">CutSetContainer::GatherModules</text>
</a>
</g>
</g>
<!-- Node13&#45;&gt;Node14 -->
<g id="edge16" class="edge"><title>Node13&#45;&gt;Node14</title>
<path fill="none" stroke="midnightblue" d="M284.021,-226.331C300.124,-225.488 317.768,-224.565 334.731,-223.676"/>
<polygon fill="midnightblue" stroke="midnightblue" points="283.486,-222.854 273.683,-226.873 283.852,-229.845 283.486,-222.854"/>
</g>
</g>
</svg>
