<?xml version="1.0" encoding="UTF-8" standalone="no"?>
<!DOCTYPE svg PUBLIC "-//W3C//DTD SVG 1.1//EN"
 "http://www.w3.org/Graphics/SVG/1.1/DTD/svg11.dtd">
<!-- Generated by graphviz version 2.38.0 (20140413.2041)
 -->
<!-- Title: scram::core::Preprocessor::DetectModules Pages: 1 -->
<svg width="812pt" height="161pt"
 viewBox="0.00 0.00 812.00 161.00" xmlns="http://www.w3.org/2000/svg" xmlns:xlink="http://www.w3.org/1999/xlink">
<g id="graph0" class="graph" transform="scale(1 1) rotate(0) translate(4 157)">
<title>scram::core::Preprocessor::DetectModules</title>
<polygon fill="white" stroke="none" points="-4,4 -4,-157 808,-157 808,4 -4,4"/>
<!-- Node1 -->
<g id="node1" class="node"><title>Node1</title>
<polygon fill="#bfbfbf" stroke="black" points="0,-97.5 0,-127.5 132,-127.5 132,-97.5 0,-97.5"/>
<text text-anchor="start" x="8" y="-115.5" font-family="Helvetica,sans-Serif" font-size="10.00">scram::core::Preprocessor</text>
<text text-anchor="middle" x="66" y="-104.5" font-family="Helvetica,sans-Serif" font-size="10.00">::DetectModules</text>
</g>
<!-- Node2 -->
<g id="node2" class="node"><title>Node2</title>
<g id="a_node2"><a xlink:href="classscram_1_1core_1_1Preprocessor.xhtml#ac83a0afe1f22761907f2a017abd96268" target="_top" xlink:title="Traverses the given gate and assigns time of visit to nodes. ">
<polygon fill="white" stroke="black" points="168,-122.5 168,-152.5 300,-152.5 300,-122.5 168,-122.5"/>
<text text-anchor="start" x="176" y="-140.5" font-family="Helvetica,sans-Serif" font-size="10.00">scram::core::Preprocessor</text>
<text text-anchor="middle" x="234" y="-129.5" font-family="Helvetica,sans-Serif" font-size="10.00">::AssignTiming</text>
</a>
</g>
</g>
<!-- Node1&#45;&gt;Node2 -->
<g id="edge1" class="edge"><title>Node1&#45;&gt;Node2</title>
<path fill="none" stroke="midnightblue" d="M132.131,-122.309C140.553,-123.577 149.232,-124.884 157.8,-126.175"/>
<polygon fill="midnightblue" stroke="midnightblue" points="157.374,-129.65 167.784,-127.678 158.417,-122.728 157.374,-129.65"/>
</g>
<!-- Node3 -->
<g id="node3" class="node"><title>Node3</title>
<g id="a_node3"><a xlink:href="classscram_1_1core_1_1Preprocessor.xhtml#afbce0b5c45a445c3b70ae298b9518281" target="_top" xlink:title="Determines modules from original gates that have been already timed. ">
<polygon fill="white" stroke="black" points="168,-73.5 168,-103.5 300,-103.5 300,-73.5 168,-73.5"/>
<text text-anchor="start" x="176" y="-91.5" font-family="Helvetica,sans-Serif" font-size="10.00">scram::core::Preprocessor</text>
<text text-anchor="middle" x="234" y="-80.5" font-family="Helvetica,sans-Serif" font-size="10.00">::FindModules</text>
</a>
</g>
</g>
<!-- Node1&#45;&gt;Node3 -->
<g id="edge2" class="edge"><title>Node1&#45;&gt;Node3</title>
<path fill="none" stroke="midnightblue" d="M132.131,-103.083C140.553,-101.866 149.232,-100.611 157.8,-99.3723"/>
<polygon fill="midnightblue" stroke="midnightblue" points="158.388,-102.824 167.784,-97.9288 157.386,-95.8958 158.388,-102.824"/>
</g>
<!-- Node4 -->
<g id="node4" class="node"><title>Node4</title>
<g id="a_node4"><a xlink:href="classscram_1_1core_1_1Preprocessor.xhtml#a4e97ffcda9c98ffc5aff93214f827c18" target="_top" xlink:title="Processes gate arguments found during the module detection. ">
<polygon fill="white" stroke="black" points="336,-73.5 336,-103.5 468,-103.5 468,-73.5 336,-73.5"/>
<text text-anchor="start" x="344" y="-91.5" font-family="Helvetica,sans-Serif" font-size="10.00">scram::core::Preprocessor</text>
<text text-anchor="middle" x="402" y="-80.5" font-family="Helvetica,sans-Serif" font-size="10.00">::ProcessModularArgs</text>
</a>
</g>
</g>
<!-- Node3&#45;&gt;Node4 -->
<g id="edge3" class="edge"><title>Node3&#45;&gt;Node4</title>
<path fill="none" stroke="midnightblue" d="M300.131,-88.5C308.461,-88.5 317.044,-88.5 325.521,-88.5"/>
<polygon fill="midnightblue" stroke="midnightblue" points="325.784,-92.0001 335.784,-88.5 325.784,-85.0001 325.784,-92.0001"/>
</g>
<!-- Node5 -->
<g id="node5" class="node"><title>Node5</title>
<g id="a_node5"><a xlink:href="classscram_1_1core_1_1Preprocessor.xhtml#a434534b6a7c3fccc82c073e6aced90b1" target="_top" xlink:title="Creates a new module as an argument of an existing gate if the logic of the existing parent gate allo...">
<polygon fill="white" stroke="black" points="672,-71.5 672,-101.5 804,-101.5 804,-71.5 672,-71.5"/>
<text text-anchor="start" x="680" y="-89.5" font-family="Helvetica,sans-Serif" font-size="10.00">scram::core::Preprocessor</text>
<text text-anchor="middle" x="738" y="-78.5" font-family="Helvetica,sans-Serif" font-size="10.00">::CreateNewModule</text>
</a>
</g>
</g>
<!-- Node4&#45;&gt;Node5 -->
<g id="edge4" class="edge"><title>Node4&#45;&gt;Node5</title>
<path fill="none" stroke="midnightblue" d="M425.91,-103.679C445.659,-115.797 475.423,-131.814 504,-138.5 561.124,-151.866 578.983,-152.316 636,-138.5 661.317,-132.365 687.396,-118.719 706.711,-106.945"/>
<polygon fill="midnightblue" stroke="midnightblue" points="708.736,-109.806 715.349,-101.529 705.017,-103.875 708.736,-109.806"/>
</g>
<!-- Node6 -->
<g id="node6" class="node"><title>Node6</title>
<g id="a_node6"><a xlink:href="classscram_1_1core_1_1Preprocessor.xhtml#aa65bdffb78291a0e41a34d34bf3fa198" target="_top" xlink:title="Checks if a group of modular arguments share anything with non&#45;modular arguments. ...">
<polygon fill="white" stroke="black" points="504,-98.5 504,-128.5 636,-128.5 636,-98.5 504,-98.5"/>
<text text-anchor="start" x="512" y="-116.5" font-family="Helvetica,sans-Serif" font-size="10.00">scram::core::Preprocessor</text>
<text text-anchor="middle" x="570" y="-105.5" font-family="Helvetica,sans-Serif" font-size="10.00">::FilterModularArgs</text>
</a>
</g>
</g>
<!-- Node4&#45;&gt;Node6 -->
<g id="edge5" class="edge"><title>Node4&#45;&gt;Node6</title>
<path fill="none" stroke="midnightblue" d="M468.131,-98.3089C476.553,-99.5773 485.232,-100.884 493.8,-102.175"/>
<polygon fill="midnightblue" stroke="midnightblue" points="493.374,-105.65 503.784,-103.678 494.417,-98.7281 493.374,-105.65"/>
</g>
<!-- Node7 -->
<g id="node7" class="node"><title>Node7</title>
<g id="a_node7"><a xlink:href="classscram_1_1core_1_1Preprocessor.xhtml#a5c10e807e558b06a1573c08ed13e205e" target="_top" xlink:title="Groups modular arguments by their common elements. ">
<polygon fill="white" stroke="black" points="504,-49.5 504,-79.5 636,-79.5 636,-49.5 504,-49.5"/>
<text text-anchor="start" x="512" y="-67.5" font-family="Helvetica,sans-Serif" font-size="10.00">scram::core::Preprocessor</text>
<text text-anchor="middle" x="570" y="-56.5" font-family="Helvetica,sans-Serif" font-size="10.00">::GroupModularArgs</text>
</a>
</g>
</g>
<!-- Node4&#45;&gt;Node7 -->
<g id="edge6" class="edge"><title>Node4&#45;&gt;Node7</title>
<path fill="none" stroke="midnightblue" d="M468.131,-79.0834C476.553,-77.8658 485.232,-76.611 493.8,-75.3723"/>
<polygon fill="midnightblue" stroke="midnightblue" points="494.388,-78.8238 503.784,-73.9288 493.386,-71.8958 494.388,-78.8238"/>
</g>
<!-- Node8 -->
<g id="node8" class="node"><title>Node8</title>
<g id="a_node8"><a xlink:href="classscram_1_1core_1_1Preprocessor.xhtml#affe78b1e830afb73585affe0ada477be" target="_top" xlink:title="Creates new module gates from groups of modular arguments if the logic of the parent gate allows sub&#45;...">
<polygon fill="white" stroke="black" points="504,-0.5 504,-30.5 636,-30.5 636,-0.5 504,-0.5"/>
<text text-anchor="start" x="512" y="-18.5" font-family="Helvetica,sans-Serif" font-size="10.00">scram::core::Preprocessor</text>
<text text-anchor="middle" x="570" y="-7.5" font-family="Helvetica,sans-Serif" font-size="10.00">::CreateNewModules</text>
</a>
</g>
</g>
<!-- Node4&#45;&gt;Node8 -->
<g id="edge7" class="edge"><title>Node4&#45;&gt;Node8</title>
<path fill="none" stroke="midnightblue" d="M433.22,-73.3947C453.145,-63.6199 479.915,-50.8368 504,-40.5 508.739,-38.4659 513.704,-36.4156 518.687,-34.4109"/>
<polygon fill="midnightblue" stroke="midnightblue" points="520.23,-37.5645 528.239,-30.6284 517.653,-31.0562 520.23,-37.5645"/>
</g>
<!-- Node8&#45;&gt;Node5 -->
<g id="edge8" class="edge"><title>Node8&#45;&gt;Node5</title>
<path fill="none" stroke="midnightblue" d="M611.372,-30.5942C619.559,-33.7767 628.084,-37.1787 636,-40.5 655.82,-48.8162 677.545,-58.6194 695.751,-67.0346"/>
<polygon fill="midnightblue" stroke="midnightblue" points="694.379,-70.2561 704.923,-71.2935 697.327,-63.9072 694.379,-70.2561"/>
</g>
</g>
</svg>
