<?xml version="1.0" encoding="UTF-8" standalone="no"?>
<!DOCTYPE svg PUBLIC "-//W3C//DTD SVG 1.1//EN"
 "http://www.w3.org/Graphics/SVG/1.1/DTD/svg11.dtd">
<!-- Generated by graphviz version 2.38.0 (20140413.2041)
 -->
<!-- Title: scram::mef::Expression::Mean Pages: 1 -->
<!--zoomable 1210 -->
<svg id="main" version="1.1" xmlns="http://www.w3.org/2000/svg" xmlns:xlink="http://www.w3.org/1999/xlink" xml:space="preserve" onload="init(evt)">
<style type="text/css"><![CDATA[
.edge:hover path { stroke: red; }
.edge:hover polygon { stroke: red; fill: red; }
]]></style>
<script type="text/javascript"><![CDATA[
var edges = document.getElementsByTagName('g');
if (edges && edges.length) {
  for (var i=0;i<edges.length;i++) {
    if (edges[i].id.substr(0,4)=='edge') {
      edges[i].setAttribute('class','edge');
    }
  }
}
]]></script>
        <defs>
                <circle id="rim" cx="0" cy="0" r="7"/>
                <circle id="rim2" cx="0" cy="0" r="3.5"/>
                <g id="zoomPlus">
                        <use xlink:href="#rim" fill="#404040">
                                <set attributeName="fill" to="#808080" begin="zoomplus.mouseover" end="zoomplus.mouseout"/>
                        </use>
                        <path d="M-4,0h8M0,-4v8" fill="none" stroke="white" stroke-width="1.5" pointer-events="none"/>
                </g>
                <g id="zoomMin">
                        <use xlink:href="#rim" fill="#404040">
                                <set attributeName="fill" to="#808080" begin="zoomminus.mouseover" end="zoomminus.mouseout"/>
                        </use>
                        <path d="M-4,0h8" fill="none" stroke="white" stroke-width="1.5" pointer-events="none"/>
                </g>
                <g id="dirArrow">
                        <path fill="none" stroke="white" stroke-width="1.5" d="M0,-3.0v7 M-2.5,-0.5L0,-3.0L2.5,-0.5"/>
                </g>
               <g id="resetDef">
                       <use xlink:href="#rim2" fill="#404040">
                               <set attributeName="fill" to="#808080" begin="reset.mouseover" end="reset.mouseout"/>
                       </use>
               </g>
        </defs>

<script type="text/javascript">
var viewWidth = 570;
var viewHeight = 1210;
var sectionId = 'dynsection-3';
</script>
<script xlink:href="svgpan.js"/>
<svg id="graph" class="graph">
<g id="viewport">
<title>scram::mef::Expression::Mean</title>
<polygon fill="white" stroke="none" points="-4,4 -4,-1205.5 566,-1205.5 566,4 -4,4"/>
<!-- Node1 -->
<g id="node1" class="node"><title>Node1</title>
<polygon fill="#bfbfbf" stroke="black" points="0,-394.5 0,-424.5 121,-424.5 121,-394.5 0,-394.5"/>
<text text-anchor="start" x="8" y="-412.5" font-family="Helvetica,sans-Serif" font-size="10.00">scram::mef::Expression</text>
<text text-anchor="middle" x="60.5" y="-401.5" font-family="Helvetica,sans-Serif" font-size="10.00">::Mean</text>
</g>
<!-- Node2 -->
<g id="node2" class="node"><title>Node2</title>
<g id="a_node2"><a xlink:href="classscram_1_1mef_1_1Expression.xhtml#a6b2d7f3d3abf98002c8cccee426edecc" target="_top" xlink:title="scram::mef::Expression::Max">
<polygon fill="white" stroke="black" points="170,-844 170,-863 316,-863 316,-844 170,-844"/>
<text text-anchor="middle" x="243" y="-851" font-family="Helvetica,sans-Serif" font-size="10.00">scram::mef::Expression::Max</text>
</a>
</g>
</g>
<!-- Node1&#45;&gt;Node2 -->
<g id="edge1" class="edge"><title>Node1&#45;&gt;Node2</title>
<path fill="none" stroke="midnightblue" d="M64.5877,-434.84C74.6487,-513.835 108.648,-753.895 157,-813.5 168.919,-828.192 187.488,-837.783 204.235,-843.878"/>
<polygon fill="midnightblue" stroke="midnightblue" points="68.0455,-434.284 63.3279,-424.798 61.0999,-435.156 68.0455,-434.284"/>
</g>
<!-- Node7 -->
<g id="node7" class="node"><title>Node7</title>
<g id="a_node7"><a xlink:href="classscram_1_1mef_1_1GlmExpression.xhtml#a1b309aac9f4156cb3c54735b8f7528cd" target="_top" xlink:title="Validates the expression. ">
<polygon fill="white" stroke="black" points="394,-756.5 394,-786.5 533,-786.5 533,-756.5 394,-756.5"/>
<text text-anchor="start" x="402" y="-774.5" font-family="Helvetica,sans-Serif" font-size="10.00">scram::mef::GlmExpression</text>
<text text-anchor="middle" x="463.5" y="-763.5" font-family="Helvetica,sans-Serif" font-size="10.00">::Validate</text>
</a>
</g>
</g>
<!-- Node1&#45;&gt;Node7 -->
<g id="edge43" class="edge"><title>Node1&#45;&gt;Node7</title>
<path fill="none" stroke="midnightblue" d="M62.6904,-434.843C66.6382,-489.209 83.6612,-617.743 157,-687.5 221.07,-748.44 325.134,-765.969 393.703,-770.576"/>
<polygon fill="midnightblue" stroke="midnightblue" points="66.1734,-434.464 62.0464,-424.706 59.1875,-434.908 66.1734,-434.464"/>
</g>
<!-- Node8 -->
<g id="node8" class="node"><title>Node8</title>
<g id="a_node8"><a xlink:href="classscram_1_1mef_1_1WeibullExpression.xhtml#a59851c3a89342bf4fe6518fa8414fac1" target="_top" xlink:title="Validates the expression. ">
<polygon fill="white" stroke="black" points="387,-707.5 387,-737.5 540,-737.5 540,-707.5 387,-707.5"/>
<text text-anchor="start" x="395" y="-725.5" font-family="Helvetica,sans-Serif" font-size="10.00">scram::mef::WeibullExpression</text>
<text text-anchor="middle" x="463.5" y="-714.5" font-family="Helvetica,sans-Serif" font-size="10.00">::Validate</text>
</a>
</g>
</g>
<!-- Node1&#45;&gt;Node8 -->
<g id="edge46" class="edge"><title>Node1&#45;&gt;Node8</title>
<path fill="none" stroke="midnightblue" d="M64.8461,-434.456C72.4521,-481.254 95.4217,-582.425 157,-637.5 220.501,-694.295 318.864,-713.485 386.736,-719.781"/>
<polygon fill="midnightblue" stroke="midnightblue" points="68.3042,-433.916 63.3373,-424.557 61.3841,-434.971 68.3042,-433.916"/>
</g>
<!-- Node11 -->
<g id="node11" class="node"><title>Node11</title>
<g id="a_node11"><a xlink:href="classscram_1_1mef_1_1UniformDeviate.xhtml#a558a657077fa6d4c1000d21863d56fda" target="_top" xlink:title="scram::mef::UniformDeviate\l::Validate">
<polygon fill="white" stroke="black" points="393.5,-658.5 393.5,-688.5 533.5,-688.5 533.5,-658.5 393.5,-658.5"/>
<text text-anchor="start" x="401.5" y="-676.5" font-family="Helvetica,sans-Serif" font-size="10.00">scram::mef::UniformDeviate</text>
<text text-anchor="middle" x="463.5" y="-665.5" font-family="Helvetica,sans-Serif" font-size="10.00">::Validate</text>
</a>
</g>
</g>
<!-- Node1&#45;&gt;Node11 -->
<g id="edge41" class="edge"><title>Node1&#45;&gt;Node11</title>
<path fill="none" stroke="midnightblue" d="M68.0344,-434.48C79.4676,-473.243 106.802,-547.659 157,-588.5 224.9,-643.744 326.304,-663.154 393.401,-669.932"/>
<polygon fill="midnightblue" stroke="midnightblue" points="71.3153,-433.219 65.2255,-424.549 64.5796,-435.125 71.3153,-433.219"/>
</g>
<!-- Node12 -->
<g id="node12" class="node"><title>Node12</title>
<g id="a_node12"><a xlink:href="classscram_1_1mef_1_1LogNormalDeviate.xhtml#a146823c655ffc212ea49060f75c7ab47" target="_top" xlink:title="scram::mef::LogNormalDeviate\l::Validate">
<polygon fill="white" stroke="black" points="387,-609.5 387,-639.5 540,-639.5 540,-609.5 387,-609.5"/>
<text text-anchor="start" x="395" y="-627.5" font-family="Helvetica,sans-Serif" font-size="10.00">scram::mef::LogNormalDeviate</text>
<text text-anchor="middle" x="463.5" y="-616.5" font-family="Helvetica,sans-Serif" font-size="10.00">::Validate</text>
</a>
</g>
</g>
<!-- Node1&#45;&gt;Node12 -->
<g id="edge45" class="edge"><title>Node1&#45;&gt;Node12</title>
<path fill="none" stroke="midnightblue" d="M72.7382,-434.253C87.6853,-464.373 116.955,-514.645 157,-542.5 225.749,-590.322 321.001,-610.267 386.783,-618.578"/>
<polygon fill="midnightblue" stroke="midnightblue" points="75.714,-432.365 68.2234,-424.872 69.4065,-435.401 75.714,-432.365"/>
</g>
<!-- Node13 -->
<g id="node13" class="node"><title>Node13</title>
<g id="a_node13"><a xlink:href="classscram_1_1mef_1_1LogNormalDeviate.xhtml#a998896231194b54da176d9fa3378a33e" target="_top" xlink:title="99.9 percentile estimate. ">
<polygon fill="white" stroke="black" points="374.5,-806 374.5,-825 552.5,-825 552.5,-806 374.5,-806"/>
<text text-anchor="middle" x="463.5" y="-813" font-family="Helvetica,sans-Serif" font-size="10.00">scram::mef::LogNormalDeviate::Max</text>
</a>
</g>
</g>
<!-- Node1&#45;&gt;Node13 -->
<g id="edge18" class="edge"><title>Node1&#45;&gt;Node13</title>
<path fill="none" stroke="midnightblue" d="M61.0501,-435.162C61.4258,-496.659 71.2305,-653.632 157,-738.5 214.057,-794.957 306.088,-811.99 374.247,-816.245"/>
<polygon fill="midnightblue" stroke="midnightblue" points="64.5508,-434.837 61.0735,-424.829 57.5508,-434.821 64.5508,-434.837"/>
</g>
<!-- Node19 -->
<g id="node19" class="node"><title>Node19</title>
<g id="a_node19"><a xlink:href="classscram_1_1mef_1_1Neg.xhtml#abb1ecf2329266d07ded6359470c01e29" target="_top" xlink:title="scram::mef::Neg::Mean">
<polygon fill="white" stroke="black" points="183,-324 183,-343 303,-343 303,-324 183,-324"/>
<text text-anchor="middle" x="243" y="-331" font-family="Helvetica,sans-Serif" font-size="10.00">scram::mef::Neg::Mean</text>
</a>
</g>
</g>
<!-- Node1&#45;&gt;Node19 -->
<g id="edge19" class="edge"><title>Node1&#45;&gt;Node19</title>
<path fill="none" stroke="midnightblue" d="M94.4251,-389.193C112.432,-378.704 135.413,-366.295 157,-357.5 171.058,-351.772 186.955,-346.885 201.167,-343.045"/>
<polygon fill="midnightblue" stroke="midnightblue" points="92.321,-386.371 85.4954,-394.475 95.8845,-392.397 92.321,-386.371"/>
</g>
<!-- Node20 -->
<g id="node20" class="node"><title>Node20</title>
<g id="a_node20"><a xlink:href="classscram_1_1mef_1_1ExponentialExpression.xhtml#a6340b19d90ee77040e2d06cbfa39ac79" target="_top" xlink:title="scram::mef::ExponentialExpression\l::Mean">
<polygon fill="white" stroke="black" points="157,-274.5 157,-304.5 329,-304.5 329,-274.5 157,-274.5"/>
<text text-anchor="start" x="165" y="-292.5" font-family="Helvetica,sans-Serif" font-size="10.00">scram::mef::ExponentialExpression</text>
<text text-anchor="middle" x="243" y="-281.5" font-family="Helvetica,sans-Serif" font-size="10.00">::Mean</text>
</a>
</g>
</g>
<!-- Node1&#45;&gt;Node20 -->
<g id="edge20" class="edge"><title>Node1&#45;&gt;Node20</title>
<path fill="none" stroke="midnightblue" d="M79.077,-386.315C96.5914,-364.751 125.375,-333.218 157,-314.5 163.486,-310.661 170.604,-307.376 177.873,-304.573"/>
<polygon fill="midnightblue" stroke="midnightblue" points="76.1964,-384.314 72.7177,-394.321 81.6779,-388.667 76.1964,-384.314"/>
</g>
<!-- Node21 -->
<g id="node21" class="node"><title>Node21</title>
<g id="a_node21"><a xlink:href="classscram_1_1mef_1_1Add.xhtml#ac0d5e3bfeb1ee1d48bf8cf388392825a" target="_top" xlink:title="scram::mef::Add::Mean">
<polygon fill="white" stroke="black" points="183.5,-236 183.5,-255 302.5,-255 302.5,-236 183.5,-236"/>
<text text-anchor="middle" x="243" y="-243" font-family="Helvetica,sans-Serif" font-size="10.00">scram::mef::Add::Mean</text>
</a>
</g>
</g>
<!-- Node1&#45;&gt;Node21 -->
<g id="edge21" class="edge"><title>Node1&#45;&gt;Node21</title>
<path fill="none" stroke="midnightblue" d="M70.6911,-385.1C84.3386,-352.339 113.161,-294.76 157,-264.5 164.84,-259.088 173.969,-255.19 183.278,-252.387"/>
<polygon fill="midnightblue" stroke="midnightblue" points="67.4298,-383.829 66.9431,-394.412 73.9236,-386.442 67.4298,-383.829"/>
</g>
<!-- Node22 -->
<g id="node22" class="node"><title>Node22</title>
<g id="a_node22"><a xlink:href="classscram_1_1mef_1_1Parameter.xhtml#ac61ad7bee9aeebf7f9df0d5572ddf13a" target="_top" xlink:title="scram::mef::Parameter\l::Mean">
<polygon fill="white" stroke="black" points="184.5,-186.5 184.5,-216.5 301.5,-216.5 301.5,-186.5 184.5,-186.5"/>
<text text-anchor="start" x="192.5" y="-204.5" font-family="Helvetica,sans-Serif" font-size="10.00">scram::mef::Parameter</text>
<text text-anchor="middle" x="243" y="-193.5" font-family="Helvetica,sans-Serif" font-size="10.00">::Mean</text>
</a>
</g>
</g>
<!-- Node1&#45;&gt;Node22 -->
<g id="edge22" class="edge"><title>Node1&#45;&gt;Node22</title>
<path fill="none" stroke="midnightblue" d="M67.7197,-384.522C78.84,-345.067 105.898,-268.499 157,-226.5 164.962,-219.956 174.579,-215.125 184.438,-211.559"/>
<polygon fill="midnightblue" stroke="midnightblue" points="64.2849,-383.817 65.0567,-394.384 71.0429,-385.642 64.2849,-383.817"/>
</g>
<!-- Node23 -->
<g id="node23" class="node"><title>Node23</title>
<g id="a_node23"><a xlink:href="classscram_1_1mef_1_1GlmExpression.xhtml#a8ee502d7486c54d01114f6705998eacb" target="_top" xlink:title="scram::mef::GlmExpression\l::Mean">
<polygon fill="white" stroke="black" points="173.5,-137.5 173.5,-167.5 312.5,-167.5 312.5,-137.5 173.5,-137.5"/>
<text text-anchor="start" x="181.5" y="-155.5" font-family="Helvetica,sans-Serif" font-size="10.00">scram::mef::GlmExpression</text>
<text text-anchor="middle" x="243" y="-144.5" font-family="Helvetica,sans-Serif" font-size="10.00">::Mean</text>
</a>
</g>
</g>
<!-- Node1&#45;&gt;Node23 -->
<g id="edge23" class="edge"><title>Node1&#45;&gt;Node23</title>
<path fill="none" stroke="midnightblue" d="M64.5693,-384.295C71.7403,-336.545 94.0521,-232.663 157,-176.5 161.806,-172.212 167.322,-168.686 173.187,-165.786"/>
<polygon fill="midnightblue" stroke="midnightblue" points="61.0774,-383.994 63.1571,-394.382 68.0098,-384.964 61.0774,-383.994"/>
</g>
<!-- Node24 -->
<g id="node24" class="node"><title>Node24</title>
<g id="a_node24"><a xlink:href="classscram_1_1mef_1_1Sub.xhtml#acfbcac4774aeefe9b3278d0193f0edbd" target="_top" xlink:title="scram::mef::Sub::Mean">
<polygon fill="white" stroke="black" points="183.5,-99 183.5,-118 302.5,-118 302.5,-99 183.5,-99"/>
<text text-anchor="middle" x="243" y="-106" font-family="Helvetica,sans-Serif" font-size="10.00">scram::mef::Sub::Mean</text>
</a>
</g>
</g>
<!-- Node1&#45;&gt;Node24 -->
<g id="edge24" class="edge"><title>Node1&#45;&gt;Node24</title>
<path fill="none" stroke="midnightblue" d="M62.2066,-384.193C65.1899,-328.811 80.4092,-196.331 157,-127.5 164.423,-120.829 173.668,-116.335 183.303,-113.339"/>
<polygon fill="midnightblue" stroke="midnightblue" points="58.7095,-384.053 61.7585,-394.2 65.7025,-384.366 58.7095,-384.053"/>
</g>
<!-- Node25 -->
<g id="node25" class="node"><title>Node25</title>
<g id="a_node25"><a xlink:href="classscram_1_1mef_1_1Expression.xhtml#a9601745b7f61ec67c8074a4043367152" target="_top" xlink:title="scram::mef::Expression::Min">
<polygon fill="white" stroke="black" points="171.5,-514 171.5,-533 314.5,-533 314.5,-514 171.5,-514"/>
<text text-anchor="middle" x="243" y="-521" font-family="Helvetica,sans-Serif" font-size="10.00">scram::mef::Expression::Min</text>
</a>
</g>
</g>
<!-- Node1&#45;&gt;Node25 -->
<g id="edge25" class="edge"><title>Node1&#45;&gt;Node25</title>
<path fill="none" stroke="midnightblue" d="M80.126,-432.468C97.8623,-452.889 126.338,-482.128 157,-499.5 167.94,-505.698 180.593,-510.388 192.738,-513.9"/>
<polygon fill="midnightblue" stroke="midnightblue" points="82.5703,-429.939 73.429,-424.583 77.2351,-434.471 82.5703,-429.939"/>
</g>
<!-- Node28 -->
<g id="node28" class="node"><title>Node28</title>
<g id="a_node28"><a xlink:href="classscram_1_1mef_1_1ExponentialExpression.xhtml#a9780ad4bfee039cdb147a4f3cc4a4823" target="_top" xlink:title="scram::mef::ExponentialExpression\l::Validate">
<polygon fill="white" stroke="black" points="377.5,-331.5 377.5,-361.5 549.5,-361.5 549.5,-331.5 377.5,-331.5"/>
<text text-anchor="start" x="385.5" y="-349.5" font-family="Helvetica,sans-Serif" font-size="10.00">scram::mef::ExponentialExpression</text>
<text text-anchor="middle" x="463.5" y="-338.5" font-family="Helvetica,sans-Serif" font-size="10.00">::Validate</text>
</a>
</g>
</g>
<!-- Node1&#45;&gt;Node28 -->
<g id="edge40" class="edge"><title>Node1&#45;&gt;Node28</title>
<path fill="none" stroke="midnightblue" d="M90.2286,-430.092C108.408,-441.825 132.945,-455.376 157,-461.5 231.081,-480.361 265.699,-504.357 329,-461.5 364.674,-437.347 332.63,-399.928 365,-371.5 369.333,-367.695 374.169,-364.455 379.306,-361.699"/>
<polygon fill="midnightblue" stroke="midnightblue" points="92.1105,-427.14 81.8451,-424.519 88.2351,-432.97 92.1105,-427.14"/>
</g>
<!-- Node31 -->
<g id="node31" class="node"><title>Node31</title>
<g id="a_node31"><a xlink:href="classscram_1_1mef_1_1NormalDeviate.xhtml#a00e2955e101aa9725b2dd503c5f4c61a" target="_top" xlink:title="scram::mef::NormalDeviate\l::Validate">
<polygon fill="white" stroke="black" points="395,-282.5 395,-312.5 532,-312.5 532,-282.5 395,-282.5"/>
<text text-anchor="start" x="403" y="-300.5" font-family="Helvetica,sans-Serif" font-size="10.00">scram::mef::NormalDeviate</text>
<text text-anchor="middle" x="463.5" y="-289.5" font-family="Helvetica,sans-Serif" font-size="10.00">::Validate</text>
</a>
</g>
</g>
<!-- Node1&#45;&gt;Node31 -->
<g id="edge42" class="edge"><title>Node1&#45;&gt;Node31</title>
<path fill="none" stroke="midnightblue" d="M107.864,-427.939C165.341,-447.486 263.685,-469.711 329,-423.5 368.245,-395.734 329.383,-353.789 365,-321.5 373.459,-313.831 383.973,-308.515 394.935,-304.851"/>
<polygon fill="midnightblue" stroke="midnightblue" points="108.908,-424.596 98.3128,-424.587 106.59,-431.201 108.908,-424.596"/>
</g>
<!-- Node32 -->
<g id="node32" class="node"><title>Node32</title>
<g id="a_node32"><a xlink:href="classscram_1_1mef_1_1GammaDeviate.xhtml#a4e6270b70787e8ab6f58c605ddebf674" target="_top" xlink:title="scram::mef::GammaDeviate\l::Validate">
<polygon fill="white" stroke="black" points="393.5,-233.5 393.5,-263.5 533.5,-263.5 533.5,-233.5 393.5,-233.5"/>
<text text-anchor="start" x="401.5" y="-251.5" font-family="Helvetica,sans-Serif" font-size="10.00">scram::mef::GammaDeviate</text>
<text text-anchor="middle" x="463.5" y="-240.5" font-family="Helvetica,sans-Serif" font-size="10.00">::Validate</text>
</a>
</g>
</g>
<!-- Node1&#45;&gt;Node32 -->
<g id="edge47" class="edge"><title>Node1&#45;&gt;Node32</title>
<path fill="none" stroke="midnightblue" d="M131.375,-411.727C200.319,-412.461 299.547,-409.12 329,-385.5 370.12,-352.524 326.5,-308.501 365,-272.5 373.022,-264.999 383,-259.736 393.486,-256.065"/>
<polygon fill="midnightblue" stroke="midnightblue" points="131.058,-408.222 121.011,-411.584 130.961,-415.222 131.058,-408.222"/>
</g>
<!-- Node33 -->
<g id="node33" class="node"><title>Node33</title>
<g id="a_node33"><a xlink:href="classscram_1_1mef_1_1BetaDeviate.xhtml#aa65f2fd1412e180085e80bbcbace562b" target="_top" xlink:title="scram::mef::BetaDeviate\l::Validate">
<polygon fill="white" stroke="black" points="400.5,-184.5 400.5,-214.5 526.5,-214.5 526.5,-184.5 400.5,-184.5"/>
<text text-anchor="start" x="408.5" y="-202.5" font-family="Helvetica,sans-Serif" font-size="10.00">scram::mef::BetaDeviate</text>
<text text-anchor="middle" x="463.5" y="-191.5" font-family="Helvetica,sans-Serif" font-size="10.00">::Validate</text>
</a>
</g>
</g>
<!-- Node1&#45;&gt;Node33 -->
<g id="edge48" class="edge"><title>Node1&#45;&gt;Node33</title>
<path fill="none" stroke="midnightblue" d="M128.924,-392.05C138.334,-389.762 147.895,-387.516 157,-385.5 232.998,-368.674 271.734,-405.221 329,-352.5 372.792,-312.184 322.267,-264.937 365,-223.5 374.636,-214.156 387.297,-208.261 400.29,-204.587"/>
<polygon fill="midnightblue" stroke="midnightblue" points="128.075,-388.654 119.199,-394.44 129.746,-395.452 128.075,-388.654"/>
</g>
<!-- Node34 -->
<g id="node34" class="node"><title>Node34</title>
<g id="a_node34"><a xlink:href="classscram_1_1mef_1_1Expression.xhtml#af3e09d926b52f6077aa85c26454c4e18" target="_top" xlink:title="Validates the expression. ">
<polygon fill="white" stroke="black" points="182.5,-49.5 182.5,-79.5 303.5,-79.5 303.5,-49.5 182.5,-49.5"/>
<text text-anchor="start" x="190.5" y="-67.5" font-family="Helvetica,sans-Serif" font-size="10.00">scram::mef::Expression</text>
<text text-anchor="middle" x="243" y="-56.5" font-family="Helvetica,sans-Serif" font-size="10.00">::Validate</text>
</a>
</g>
</g>
<!-- Node1&#45;&gt;Node34 -->
<g id="edge44" class="edge"><title>Node1&#45;&gt;Node34</title>
<path fill="none" stroke="midnightblue" d="M61.3724,-384.183C62.4889,-324.209 73.8589,-172.312 157,-89.5 164.084,-82.4442 173.05,-77.3597 182.487,-73.7003"/>
<polygon fill="midnightblue" stroke="midnightblue" points="57.8717,-384.238 61.2682,-394.274 64.8713,-384.311 57.8717,-384.238"/>
</g>
<!-- Node35 -->
<g id="node35" class="node"><title>Node35</title>
<g id="a_node35"><a xlink:href="classscram_1_1mef_1_1Histogram.xhtml#a84369610d974cc5e0ae2f4a0f0b08b61" target="_top" xlink:title="scram::mef::Histogram\l::Validate">
<polygon fill="white" stroke="black" points="184.5,-0.5 184.5,-30.5 301.5,-30.5 301.5,-0.5 184.5,-0.5"/>
<text text-anchor="start" x="192.5" y="-18.5" font-family="Helvetica,sans-Serif" font-size="10.00">scram::mef::Histogram</text>
<text text-anchor="middle" x="243" y="-7.5" font-family="Helvetica,sans-Serif" font-size="10.00">::Validate</text>
</a>
</g>
</g>
<!-- Node1&#45;&gt;Node35 -->
<g id="edge49" class="edge"><title>Node1&#45;&gt;Node35</title>
<path fill="none" stroke="midnightblue" d="M64.6946,-384.494C74.7356,-309.682 107.934,-89.6872 157,-39.5 164.504,-31.8248 174.259,-26.5526 184.474,-22.9431"/>
<polygon fill="midnightblue" stroke="midnightblue" points="61.2204,-384.069 63.382,-394.441 68.1603,-384.984 61.2204,-384.069"/>
</g>
<!-- Node3 -->
<g id="node3" class="node"><title>Node3</title>
<g id="a_node3"><a xlink:href="classscram_1_1mef_1_1Neg.xhtml#a7da67dab2e2355c05a5d1726852a03b1" target="_top" xlink:title="scram::mef::Neg::Min">
<polygon fill="white" stroke="black" points="407.5,-958 407.5,-977 519.5,-977 519.5,-958 407.5,-958"/>
<text text-anchor="middle" x="463.5" y="-965" font-family="Helvetica,sans-Serif" font-size="10.00">scram::mef::Neg::Min</text>
</a>
</g>
</g>
<!-- Node2&#45;&gt;Node3 -->
<g id="edge2" class="edge"><title>Node2&#45;&gt;Node3</title>
<path fill="none" stroke="midnightblue" d="M260.073,-870.337C281.765,-891.989 322.603,-929.106 365,-948.5 378.173,-954.526 393.199,-958.643 407.443,-961.455"/>
<polygon fill="midnightblue" stroke="midnightblue" points="262.486,-867.799 252.98,-863.121 257.494,-872.706 262.486,-867.799"/>
</g>
<!-- Node4 -->
<g id="node4" class="node"><title>Node4</title>
<g id="a_node4"><a xlink:href="classscram_1_1mef_1_1Add.xhtml#a77d7a4d5e65a84cbf7ba36a4da906c55" target="_top" xlink:title="scram::mef::Add::Max">
<polygon fill="white" stroke="black" points="406.5,-920 406.5,-939 520.5,-939 520.5,-920 406.5,-920"/>
<text text-anchor="middle" x="463.5" y="-927" font-family="Helvetica,sans-Serif" font-size="10.00">scram::mef::Add::Max</text>
</a>
</g>
</g>
<!-- Node2&#45;&gt;Node4 -->
<g id="edge3" class="edge"><title>Node2&#45;&gt;Node4</title>
<path fill="none" stroke="midnightblue" d="M269.904,-868.014C293.894,-880.89 330.905,-899.339 365,-910.5 378.194,-914.819 392.731,-918.3 406.462,-921.044"/>
<polygon fill="midnightblue" stroke="midnightblue" points="271.533,-864.916 261.076,-863.211 268.188,-871.065 271.533,-864.916"/>
</g>
<!-- Node5 -->
<g id="node5" class="node"><title>Node5</title>
<g id="a_node5"><a xlink:href="classscram_1_1mef_1_1Sub.xhtml#ad362e2542f6148aa32ff024ef957ee24" target="_top" xlink:title="scram::mef::Sub::Max">
<polygon fill="white" stroke="black" points="406.5,-533 406.5,-552 520.5,-552 520.5,-533 406.5,-533"/>
<text text-anchor="middle" x="463.5" y="-540" font-family="Helvetica,sans-Serif" font-size="10.00">scram::mef::Sub::Max</text>
</a>
</g>
</g>
<!-- Node2&#45;&gt;Node5 -->
<g id="edge4" class="edge"><title>Node2&#45;&gt;Node5</title>
<path fill="none" stroke="midnightblue" d="M245.909,-833.627C252.149,-780.345 276.925,-633.484 365,-561.5 376.617,-552.005 391.599,-546.77 406.317,-543.995"/>
<polygon fill="midnightblue" stroke="midnightblue" points="242.407,-833.46 244.817,-843.777 249.367,-834.209 242.407,-833.46"/>
</g>
<!-- Node6 -->
<g id="node6" class="node"><title>Node6</title>
<g id="a_node6"><a xlink:href="classscram_1_1mef_1_1Sub.xhtml#a9f22864663589361efd64b28768d82d0" target="_top" xlink:title="scram::mef::Sub::Min">
<polygon fill="white" stroke="black" points="408,-571 408,-590 519,-590 519,-571 408,-571"/>
<text text-anchor="middle" x="463.5" y="-578" font-family="Helvetica,sans-Serif" font-size="10.00">scram::mef::Sub::Min</text>
</a>
</g>
</g>
<!-- Node2&#45;&gt;Node6 -->
<g id="edge5" class="edge"><title>Node2&#45;&gt;Node6</title>
<path fill="none" stroke="midnightblue" d="M247.307,-833.764C256.472,-785.609 286.874,-661.574 365,-600.5 377.184,-590.975 392.766,-585.666 407.881,-582.789"/>
<polygon fill="midnightblue" stroke="midnightblue" points="243.826,-833.35 245.499,-843.811 250.715,-834.59 243.826,-833.35"/>
</g>
<!-- Node2&#45;&gt;Node7 -->
<g id="edge6" class="edge"><title>Node2&#45;&gt;Node7</title>
<path fill="none" stroke="midnightblue" d="M270.48,-839.238C294.589,-826.689 331.44,-808.584 365,-796.5 375.111,-792.859 385.992,-789.525 396.688,-786.56"/>
<polygon fill="midnightblue" stroke="midnightblue" points="268.81,-836.162 261.59,-843.915 272.069,-842.357 268.81,-836.162"/>
</g>
<!-- Node2&#45;&gt;Node8 -->
<g id="edge7" class="edge"><title>Node2&#45;&gt;Node8</title>
<path fill="none" stroke="midnightblue" d="M258.88,-836.127C280.061,-812.512 321.216,-770.585 365,-747.5 372.342,-743.629 380.317,-740.333 388.436,-737.533"/>
<polygon fill="midnightblue" stroke="midnightblue" points="255.993,-834.111 252.013,-843.93 261.247,-838.736 255.993,-834.111"/>
</g>
<!-- Node9 -->
<g id="node9" class="node"><title>Node9</title>
<g id="a_node9"><a xlink:href="classscram_1_1mef_1_1ExponentialExpression.xhtml#afca0b657b9ee71dd7c841641044a278a" target="_top" xlink:title="scram::mef::ExponentialExpression::Max">
<polygon fill="white" stroke="black" points="365,-882 365,-901 562,-901 562,-882 365,-882"/>
<text text-anchor="middle" x="463.5" y="-889" font-family="Helvetica,sans-Serif" font-size="10.00">scram::mef::ExponentialExpression::Max</text>
</a>
</g>
</g>
<!-- Node2&#45;&gt;Node9 -->
<g id="edge8" class="edge"><title>Node2&#45;&gt;Node9</title>
<path fill="none" stroke="midnightblue" d="M308.836,-864.776C340.271,-870.243 377.619,-876.738 407.623,-881.956"/>
<polygon fill="midnightblue" stroke="midnightblue" points="309.307,-861.305 298.855,-863.04 308.107,-868.202 309.307,-861.305"/>
</g>
<!-- Node10 -->
<g id="node10" class="node"><title>Node10</title>
<g id="a_node10"><a xlink:href="classscram_1_1mef_1_1Parameter.xhtml#ae39a5abfd912980fa8f09f6c75811c83" target="_top" xlink:title="scram::mef::Parameter::Max">
<polygon fill="white" stroke="black" points="392.5,-844 392.5,-863 534.5,-863 534.5,-844 392.5,-844"/>
<text text-anchor="middle" x="463.5" y="-851" font-family="Helvetica,sans-Serif" font-size="10.00">scram::mef::Parameter::Max</text>
</a>
</g>
</g>
<!-- Node2&#45;&gt;Node10 -->
<g id="edge9" class="edge"><title>Node2&#45;&gt;Node10</title>
<path fill="none" stroke="midnightblue" d="M326.338,-853.5C348.051,-853.5 371.276,-853.5 392.284,-853.5"/>
<polygon fill="midnightblue" stroke="midnightblue" points="326.151,-850 316.151,-853.5 326.151,-857 326.151,-850"/>
</g>
<!-- Node2&#45;&gt;Node11 -->
<g id="edge10" class="edge"><title>Node2&#45;&gt;Node11</title>
<path fill="none" stroke="midnightblue" d="M253.32,-834.679C270.616,-801.769 310.896,-733.907 365,-698.5 373.627,-692.854 383.456,-688.483 393.475,-685.099"/>
<polygon fill="midnightblue" stroke="midnightblue" points="250.146,-833.2 248.701,-843.696 256.376,-836.391 250.146,-833.2"/>
</g>
<!-- Node2&#45;&gt;Node12 -->
<g id="edge11" class="edge"><title>Node2&#45;&gt;Node12</title>
<path fill="none" stroke="midnightblue" d="M249.901,-833.967C263.292,-793.08 299.97,-698.244 365,-649.5 371.572,-644.574 379.017,-640.614 386.793,-637.432"/>
<polygon fill="midnightblue" stroke="midnightblue" points="246.544,-832.974 246.866,-843.564 253.218,-835.085 246.544,-832.974"/>
</g>
<!-- Node2&#45;&gt;Node13 -->
<g id="edge12" class="edge"><title>Node2&#45;&gt;Node13</title>
<path fill="none" stroke="midnightblue" d="M308.836,-842.224C340.271,-836.757 377.619,-830.262 407.623,-825.044"/>
<polygon fill="midnightblue" stroke="midnightblue" points="308.107,-838.798 298.855,-843.96 309.307,-845.695 308.107,-838.798"/>
</g>
<!-- Node14 -->
<g id="node14" class="node"><title>Node14</title>
<g id="a_node14"><a xlink:href="classscram_1_1mef_1_1GammaDeviate.xhtml#a853def23b4ff78a5c774699f0eaf27ba" target="_top" xlink:title="scram::mef::GammaDeviate::Max">
<polygon fill="white" stroke="black" points="381,-1182 381,-1201 546,-1201 546,-1182 381,-1182"/>
<text text-anchor="middle" x="463.5" y="-1189" font-family="Helvetica,sans-Serif" font-size="10.00">scram::mef::GammaDeviate::Max</text>
</a>
</g>
</g>
<!-- Node2&#45;&gt;Node14 -->
<g id="edge13" class="edge"><title>Node2&#45;&gt;Node14</title>
<path fill="none" stroke="midnightblue" d="M245.131,-873.285C249.484,-929.711 270.09,-1092.5 365,-1172.5 369.747,-1176.5 375.087,-1179.75 380.759,-1182.39"/>
<polygon fill="midnightblue" stroke="midnightblue" points="248.616,-872.938 244.444,-863.199 241.632,-873.414 248.616,-872.938"/>
</g>
<!-- Node15 -->
<g id="node15" class="node"><title>Node15</title>
<g id="a_node15"><a xlink:href="classscram_1_1mef_1_1BetaDeviate.xhtml#a8143423beabd8a74c3093f1b8a68787b" target="_top" xlink:title="scram::mef::BetaDeviate::Max">
<polygon fill="white" stroke="black" points="388,-1144 388,-1163 539,-1163 539,-1144 388,-1144"/>
<text text-anchor="middle" x="463.5" y="-1151" font-family="Helvetica,sans-Serif" font-size="10.00">scram::mef::BetaDeviate::Max</text>
</a>
</g>
</g>
<!-- Node2&#45;&gt;Node15 -->
<g id="edge14" class="edge"><title>Node2&#45;&gt;Node15</title>
<path fill="none" stroke="midnightblue" d="M246.254,-873.318C253.27,-925.195 279.643,-1065.71 365,-1134.5 371.714,-1139.91 379.524,-1143.93 387.747,-1146.9"/>
<polygon fill="midnightblue" stroke="midnightblue" points="249.695,-872.624 244.978,-863.138 242.749,-873.496 249.695,-872.624"/>
</g>
<!-- Node16 -->
<g id="node16" class="node"><title>Node16</title>
<g id="a_node16"><a xlink:href="classscram_1_1mef_1_1LogNormalDeviate.xhtml#a4fa4995d3592c7b62b72a3a903425e8c" target="_top" xlink:title="scram::mef::LogNormalDeviate\l::Mean">
<polygon fill="white" stroke="black" points="387,-1094.5 387,-1124.5 540,-1124.5 540,-1094.5 387,-1094.5"/>
<text text-anchor="start" x="395" y="-1112.5" font-family="Helvetica,sans-Serif" font-size="10.00">scram::mef::LogNormalDeviate</text>
<text text-anchor="middle" x="463.5" y="-1101.5" font-family="Helvetica,sans-Serif" font-size="10.00">::Mean</text>
</a>
</g>
</g>
<!-- Node2&#45;&gt;Node16 -->
<g id="edge15" class="edge"><title>Node2&#45;&gt;Node16</title>
<path fill="none" stroke="midnightblue" d="M248.417,-873.237C259.561,-918.282 293.199,-1029.12 365,-1085.5 371.444,-1090.56 378.808,-1094.57 386.537,-1097.75"/>
<polygon fill="midnightblue" stroke="midnightblue" points="251.768,-872.2 246.058,-863.275 244.956,-873.812 251.768,-872.2"/>
</g>
<!-- Node17 -->
<g id="node17" class="node"><title>Node17</title>
<g id="a_node17"><a xlink:href="classscram_1_1mef_1_1GammaDeviate.xhtml#ae75063c53f49c74930792055004cb09f" target="_top" xlink:title="scram::mef::GammaDeviate\l::Mean">
<polygon fill="white" stroke="black" points="393.5,-1045.5 393.5,-1075.5 533.5,-1075.5 533.5,-1045.5 393.5,-1045.5"/>
<text text-anchor="start" x="401.5" y="-1063.5" font-family="Helvetica,sans-Serif" font-size="10.00">scram::mef::GammaDeviate</text>
<text text-anchor="middle" x="463.5" y="-1052.5" font-family="Helvetica,sans-Serif" font-size="10.00">::Mean</text>
</a>
</g>
</g>
<!-- Node2&#45;&gt;Node17 -->
<g id="edge16" class="edge"><title>Node2&#45;&gt;Node17</title>
<path fill="none" stroke="midnightblue" d="M251.258,-873.092C266.312,-910.904 304.647,-993.961 365,-1036.5 373.478,-1042.48 383.282,-1046.97 393.338,-1050.35"/>
<polygon fill="midnightblue" stroke="midnightblue" points="254.346,-871.37 247.482,-863.299 247.814,-873.888 254.346,-871.37"/>
</g>
<!-- Node18 -->
<g id="node18" class="node"><title>Node18</title>
<g id="a_node18"><a xlink:href="classscram_1_1mef_1_1BetaDeviate.xhtml#abf897400d4e51de419463302de5d0f32" target="_top" xlink:title="scram::mef::BetaDeviate\l::Mean">
<polygon fill="white" stroke="black" points="400.5,-996.5 400.5,-1026.5 526.5,-1026.5 526.5,-996.5 400.5,-996.5"/>
<text text-anchor="start" x="408.5" y="-1014.5" font-family="Helvetica,sans-Serif" font-size="10.00">scram::mef::BetaDeviate</text>
<text text-anchor="middle" x="463.5" y="-1003.5" font-family="Helvetica,sans-Serif" font-size="10.00">::Mean</text>
</a>
</g>
</g>
<!-- Node2&#45;&gt;Node18 -->
<g id="edge17" class="edge"><title>Node2&#45;&gt;Node18</title>
<path fill="none" stroke="midnightblue" d="M255.596,-872.03C274.73,-901.022 315.74,-956.851 365,-986.5 375.705,-992.943 388.036,-997.737 400.249,-1001.3"/>
<polygon fill="midnightblue" stroke="midnightblue" points="258.328,-869.808 249.965,-863.303 252.446,-873.604 258.328,-869.808"/>
</g>
<!-- Node25&#45;&gt;Node5 -->
<g id="edge28" class="edge"><title>Node25&#45;&gt;Node5</title>
<path fill="none" stroke="midnightblue" d="M324.876,-530.533C351.947,-532.887 381.514,-535.458 406.281,-537.611"/>
<polygon fill="midnightblue" stroke="midnightblue" points="324.905,-527.022 314.639,-529.643 324.298,-533.996 324.905,-527.022"/>
</g>
<!-- Node25&#45;&gt;Node6 -->
<g id="edge29" class="edge"><title>Node25&#45;&gt;Node6</title>
<path fill="none" stroke="midnightblue" d="M281.298,-536.402C305.063,-544.325 336.614,-554.301 365,-561.5 378.791,-564.998 393.819,-568.214 407.855,-570.967"/>
<polygon fill="midnightblue" stroke="midnightblue" points="282.216,-533.018 271.622,-533.145 279.983,-539.652 282.216,-533.018"/>
</g>
<!-- Node25&#45;&gt;Node7 -->
<g id="edge31" class="edge"><title>Node25&#45;&gt;Node7</title>
<path fill="none" stroke="midnightblue" d="M248.791,-543.171C260.541,-587.067 295.064,-693.397 365,-747.5 373.48,-754.06 383.512,-758.853 393.862,-762.35"/>
<polygon fill="midnightblue" stroke="midnightblue" points="252.166,-542.24 246.287,-533.426 245.386,-543.982 252.166,-542.24"/>
</g>
<!-- Node25&#45;&gt;Node8 -->
<g id="edge32" class="edge"><title>Node25&#45;&gt;Node8</title>
<path fill="none" stroke="midnightblue" d="M251.725,-542.753C267.358,-579.157 306.322,-658.046 365,-698.5 371.674,-703.101 379.14,-706.823 386.89,-709.832"/>
<polygon fill="midnightblue" stroke="midnightblue" points="254.86,-541.176 247.781,-533.293 248.399,-543.87 254.86,-541.176"/>
</g>
<!-- Node25&#45;&gt;Node11 -->
<g id="edge35" class="edge"><title>Node25&#45;&gt;Node11</title>
<path fill="none" stroke="midnightblue" d="M256.09,-541.498C275.628,-569.129 316.858,-621.712 365,-649.5 373.757,-654.554 383.55,-658.551 393.461,-661.708"/>
<polygon fill="midnightblue" stroke="midnightblue" points="258.885,-539.387 250.317,-533.156 253.129,-543.37 258.885,-539.387"/>
</g>
<!-- Node25&#45;&gt;Node12 -->
<g id="edge37" class="edge"><title>Node25&#45;&gt;Node12</title>
<path fill="none" stroke="midnightblue" d="M266.281,-538.664C295.379,-558.26 344.965,-590.889 365,-599.5 373.83,-603.295 383.366,-606.613 392.898,-609.485"/>
<polygon fill="midnightblue" stroke="midnightblue" points="268.209,-535.743 257.964,-533.042 264.289,-541.542 268.209,-535.743"/>
</g>
<!-- Node26 -->
<g id="node26" class="node"><title>Node26</title>
<g id="a_node26"><a xlink:href="classscram_1_1mef_1_1Neg.xhtml#aff5035560166429b589032c821d0054f" target="_top" xlink:title="scram::mef::Neg::Max">
<polygon fill="white" stroke="black" points="406,-495 406,-514 521,-514 521,-495 406,-495"/>
<text text-anchor="middle" x="463.5" y="-502" font-family="Helvetica,sans-Serif" font-size="10.00">scram::mef::Neg::Max</text>
</a>
</g>
</g>
<!-- Node25&#45;&gt;Node26 -->
<g id="edge26" class="edge"><title>Node25&#45;&gt;Node26</title>
<path fill="none" stroke="midnightblue" d="M324.833,-516.471C351.787,-514.127 381.22,-511.568 405.928,-509.419"/>
<polygon fill="midnightblue" stroke="midnightblue" points="324.298,-513.004 314.639,-517.357 324.905,-519.978 324.298,-513.004"/>
</g>
<!-- Node27 -->
<g id="node27" class="node"><title>Node27</title>
<g id="a_node27"><a xlink:href="classscram_1_1mef_1_1Add.xhtml#aa2b2101f0f40604e342f9f7477fdef87" target="_top" xlink:title="scram::mef::Add::Min">
<polygon fill="white" stroke="black" points="408,-457 408,-476 519,-476 519,-457 408,-457"/>
<text text-anchor="middle" x="463.5" y="-464" font-family="Helvetica,sans-Serif" font-size="10.00">scram::mef::Add::Min</text>
</a>
</g>
</g>
<!-- Node25&#45;&gt;Node27 -->
<g id="edge27" class="edge"><title>Node25&#45;&gt;Node27</title>
<path fill="none" stroke="midnightblue" d="M290.47,-511.246C303.048,-507.694 316.609,-503.648 329,-499.5 345.279,-494.05 348.509,-490.272 365,-485.5 378.75,-481.521 393.833,-478.125 407.939,-475.352"/>
<polygon fill="midnightblue" stroke="midnightblue" points="289.33,-507.93 280.634,-513.982 291.206,-514.674 289.33,-507.93"/>
</g>
<!-- Node25&#45;&gt;Node28 -->
<g id="edge30" class="edge"><title>Node25&#45;&gt;Node28</title>
<path fill="none" stroke="midnightblue" d="M315.686,-509.5C320.551,-506.733 325.072,-503.432 329,-499.5 370.766,-457.691 322.732,-412.8 365,-371.5 368.875,-367.714 373.241,-364.479 377.922,-361.716"/>
<polygon fill="midnightblue" stroke="midnightblue" points="314.06,-506.399 306.608,-513.929 317.13,-512.69 314.06,-506.399"/>
</g>
<!-- Node29 -->
<g id="node29" class="node"><title>Node29</title>
<g id="a_node29"><a xlink:href="classscram_1_1mef_1_1ExponentialExpression.xhtml#a2e97ea7d13408b598a7938f60273a1fe" target="_top" xlink:title="scram::mef::ExponentialExpression::Min">
<polygon fill="white" stroke="black" points="366.5,-419 366.5,-438 560.5,-438 560.5,-419 366.5,-419"/>
<text text-anchor="middle" x="463.5" y="-426" font-family="Helvetica,sans-Serif" font-size="10.00">scram::mef::ExponentialExpression::Min</text>
</a>
</g>
</g>
<!-- Node25&#45;&gt;Node29 -->
<g id="edge33" class="edge"><title>Node25&#45;&gt;Node29</title>
<path fill="none" stroke="midnightblue" d="M308.939,-510.333C316.051,-507.414 322.909,-503.85 329,-499.5 351.874,-483.163 341.47,-462.878 365,-447.5 370.919,-443.632 377.443,-440.515 384.226,-438.009"/>
<polygon fill="midnightblue" stroke="midnightblue" points="307.317,-507.2 299.132,-513.928 309.726,-513.773 307.317,-507.2"/>
</g>
<!-- Node30 -->
<g id="node30" class="node"><title>Node30</title>
<g id="a_node30"><a xlink:href="classscram_1_1mef_1_1Parameter.xhtml#ac4b5d8872182b5c0d0ac01b7c269dfd5" target="_top" xlink:title="scram::mef::Parameter::Min">
<polygon fill="white" stroke="black" points="394,-381 394,-400 533,-400 533,-381 394,-381"/>
<text text-anchor="middle" x="463.5" y="-388" font-family="Helvetica,sans-Serif" font-size="10.00">scram::mef::Parameter::Min</text>
</a>
</g>
</g>
<!-- Node25&#45;&gt;Node30 -->
<g id="edge34" class="edge"><title>Node25&#45;&gt;Node30</title>
<path fill="none" stroke="midnightblue" d="M313.802,-509.777C319.304,-506.961 324.473,-503.574 329,-499.5 361.024,-470.683 331.811,-436.969 365,-409.5 373.303,-402.628 383.364,-397.979 393.828,-394.877"/>
<polygon fill="midnightblue" stroke="midnightblue" points="312.006,-506.745 304.283,-513.997 314.843,-513.144 312.006,-506.745"/>
</g>
<!-- Node25&#45;&gt;Node31 -->
<g id="edge36" class="edge"><title>Node25&#45;&gt;Node31</title>
<path fill="none" stroke="midnightblue" d="M273.319,-508.957C291.929,-498.274 315.051,-482.059 329,-461.5 365.072,-408.336 319.337,-366.694 365,-321.5 373.239,-313.345 383.777,-307.808 394.864,-304.078"/>
<polygon fill="midnightblue" stroke="midnightblue" points="271.417,-506.009 264.339,-513.893 274.789,-512.143 271.417,-506.009"/>
</g>
<!-- Node25&#45;&gt;Node32 -->
<g id="edge38" class="edge"><title>Node25&#45;&gt;Node32</title>
<path fill="none" stroke="midnightblue" d="M262.369,-507.071C281.839,-488.632 312.064,-456.901 329,-423.5 360.201,-361.966 316.394,-321.463 365,-272.5 372.86,-264.582 382.884,-259.123 393.498,-255.389"/>
<polygon fill="midnightblue" stroke="midnightblue" points="259.951,-504.539 254.997,-513.904 264.71,-509.673 259.951,-504.539"/>
</g>
<!-- Node25&#45;&gt;Node33 -->
<g id="edge39" class="edge"><title>Node25&#45;&gt;Node33</title>
<path fill="none" stroke="midnightblue" d="M257.864,-505.472C276.723,-480.082 310.254,-431.713 329,-385.5 356.725,-317.153 313.441,-276.242 365,-223.5 374.505,-213.777 387.269,-207.751 400.424,-204.071"/>
<polygon fill="midnightblue" stroke="midnightblue" points="254.857,-503.647 251.635,-513.739 260.448,-507.859 254.857,-503.647"/>
</g>
</g>
</svg>
        <g id="navigator" transform="translate(0 0)" fill="#404254">
                <rect fill="#f2f5e9" fill-opacity="0.5" stroke="#606060" stroke-width=".5" x="0" y="0" width="60" height="60"/>
                <use id="zoomplus" xlink:href="#zoomPlus" x="17" y="9" onmousedown="handleZoom(evt,'in')"/>
                <use id="zoomminus" xlink:href="#zoomMin" x="42" y="9" onmousedown="handleZoom(evt,'out')"/>
                <use id="reset" xlink:href="#resetDef" x="30" y="36" onmousedown="handleReset()"/>
                <g id="arrowUp" xlink:href="#dirArrow" transform="translate(30 24)" onmousedown="handlePan(0,-1)">
                  <use xlink:href="#rim" fill="#404040">
                        <set attributeName="fill" to="#808080" begin="arrowUp.mouseover" end="arrowUp.mouseout"/>
                  </use>
                  <path fill="none" stroke="white" stroke-width="1.5" d="M0,-3.0v7 M-2.5,-0.5L0,-3.0L2.5,-0.5"/>
                </g>
                <g id="arrowRight" xlink:href="#dirArrow" transform="rotate(90) translate(36 -43)" onmousedown="handlePan(1,0)">
                  <use xlink:href="#rim" fill="#404040">
                        <set attributeName="fill" to="#808080" begin="arrowRight.mouseover" end="arrowRight.mouseout"/>
                  </use>
                  <path fill="none" stroke="white" stroke-width="1.5" d="M0,-3.0v7 M-2.5,-0.5L0,-3.0L2.5,-0.5"/>
                </g>
                <g id="arrowDown" xlink:href="#dirArrow" transform="rotate(180) translate(-30 -48)" onmousedown="handlePan(0,1)">
                  <use xlink:href="#rim" fill="#404040">
                        <set attributeName="fill" to="#808080" begin="arrowDown.mouseover" end="arrowDown.mouseout"/>
                  </use>
                  <path fill="none" stroke="white" stroke-width="1.5" d="M0,-3.0v7 M-2.5,-0.5L0,-3.0L2.5,-0.5"/>
                </g>
                <g id="arrowLeft" xlink:href="#dirArrow" transform="rotate(270) translate(-36 17)" onmousedown="handlePan(-1,0)">
                  <use xlink:href="#rim" fill="#404040">
                        <set attributeName="fill" to="#808080" begin="arrowLeft.mouseover" end="arrowLeft.mouseout"/>
                  </use>
                  <path fill="none" stroke="white" stroke-width="1.5" d="M0,-3.0v7 M-2.5,-0.5L0,-3.0L2.5,-0.5"/>
                </g>
        </g>
        <svg viewBox="0 0 15 15" width="100%" height="30px" preserveAspectRatio="xMaxYMin meet">
         <g id="arrow_out" transform="scale(0.3 0.3)">
          <a xlink:href="classscram_1_1mef_1_1Expression_ac7e0dd118eafdfa943944172c1625a4e_icgraph_org.svg" target="_base">
           <rect id="button" ry="5" rx="5" y="6" x="6" height="38" width="38"
                fill="#f2f5e9" fill-opacity="0.5" stroke="#606060" stroke-width="1.0"/>
           <path id="arrow"
             d="M 11.500037,31.436501 C 11.940474,20.09759 22.043105,11.32322 32.158766,21.979434 L 37.068811,17.246167 C 37.068811,17.246167 37.088388,32 37.088388,32 L 22.160133,31.978069 C 22.160133,31.978069 26.997745,27.140456 26.997745,27.140456 C 18.528582,18.264221 13.291696,25.230495 11.500037,31.436501 z"
             style="fill:#404040;"/>
          </a>
         </g>
        </svg>
</svg>
