<?xml version="1.0" encoding="UTF-8" standalone="no"?>
<!DOCTYPE svg PUBLIC "-//W3C//DTD SVG 1.1//EN"
 "http://www.w3.org/Graphics/SVG/1.1/DTD/svg11.dtd">
<!-- Generated by graphviz version 2.38.0 (20140413.2041)
 -->
<!-- Title: scram::core::Zbdd::EliminateComplements Pages: 1 -->
<svg width="606pt" height="302pt"
 viewBox="0.00 0.00 606.00 302.00" xmlns="http://www.w3.org/2000/svg" xmlns:xlink="http://www.w3.org/1999/xlink">
<g id="graph0" class="graph" transform="scale(1 1) rotate(0) translate(4 298)">
<title>scram::core::Zbdd::EliminateComplements</title>
<polygon fill="white" stroke="none" points="-4,4 -4,-298 602,-298 602,4 -4,4"/>
<!-- Node1 -->
<g id="node1" class="node"><title>Node1</title>
<polygon fill="#bfbfbf" stroke="black" points="0,-219.5 0,-249.5 118,-249.5 118,-219.5 0,-219.5"/>
<text text-anchor="start" x="8" y="-237.5" font-family="Helvetica,sans-Serif" font-size="10.00">scram::core::Zbdd::</text>
<text text-anchor="middle" x="59" y="-226.5" font-family="Helvetica,sans-Serif" font-size="10.00">EliminateComplements</text>
</g>
<!-- Node2 -->
<g id="node2" class="node"><title>Node2</title>
<g id="a_node2"><a xlink:href="classscram_1_1core_1_1Settings.xhtml#a0e43ec0f017d23a4fa4e376c4060d380" target="_top" xlink:title="scram::core::Settings\l::limit_order">
<polygon fill="white" stroke="black" points="154,-263.5 154,-293.5 264,-293.5 264,-263.5 154,-263.5"/>
<text text-anchor="start" x="162" y="-281.5" font-family="Helvetica,sans-Serif" font-size="10.00">scram::core::Settings</text>
<text text-anchor="middle" x="209" y="-270.5" font-family="Helvetica,sans-Serif" font-size="10.00">::limit_order</text>
</a>
</g>
</g>
<!-- Node1&#45;&gt;Node2 -->
<g id="edge1" class="edge"><title>Node1&#45;&gt;Node2</title>
<path fill="none" stroke="midnightblue" d="M110.519,-249.519C122.479,-253.075 135.351,-256.902 147.697,-260.572"/>
<polygon fill="midnightblue" stroke="midnightblue" points="146.875,-263.979 157.457,-263.474 148.869,-257.269 146.875,-263.979"/>
</g>
<!-- Node3 -->
<g id="node3" class="node"><title>Node3</title>
<g id="a_node3"><a xlink:href="classscram_1_1core_1_1Zbdd.xhtml#a3dbb8ef5da2882daf6c39e9724eae459" target="_top" xlink:title="Removes subsets in ZBDD. ">
<polygon fill="white" stroke="black" points="158,-115.5 158,-145.5 260,-145.5 260,-115.5 158,-115.5"/>
<text text-anchor="start" x="166" y="-133.5" font-family="Helvetica,sans-Serif" font-size="10.00">scram::core::Zbdd::</text>
<text text-anchor="middle" x="209" y="-122.5" font-family="Helvetica,sans-Serif" font-size="10.00">Minimize</text>
</a>
</g>
</g>
<!-- Node1&#45;&gt;Node3 -->
<g id="edge2" class="edge"><title>Node1&#45;&gt;Node3</title>
<path fill="none" stroke="midnightblue" d="M81.5205,-219.378C106.95,-201.508 149.413,-171.669 178.046,-151.549"/>
<polygon fill="midnightblue" stroke="midnightblue" points="180.284,-154.254 186.454,-145.641 176.259,-148.527 180.284,-154.254"/>
</g>
<!-- Node4 -->
<g id="node4" class="node"><title>Node4</title>
<g id="a_node4"><a xlink:href="classscram_1_1core_1_1SetNode.xhtml#adfcfad8dde1eb94ed51d8075a5ad6344" target="_top" xlink:title="&lt; For destructive extraction of products. ">
<polygon fill="white" stroke="black" points="467,-187 467,-206 598,-206 598,-187 467,-187"/>
<text text-anchor="middle" x="532.5" y="-194" font-family="Helvetica,sans-Serif" font-size="10.00">scram::core::SetNode::Ptr</text>
</a>
</g>
</g>
<!-- Node1&#45;&gt;Node4 -->
<g id="edge10" class="edge"><title>Node1&#45;&gt;Node4</title>
<path fill="none" stroke="midnightblue" d="M118.288,-229.802C203.75,-222.915 363.064,-210.075 456.942,-202.509"/>
<polygon fill="midnightblue" stroke="midnightblue" points="457.25,-205.996 466.937,-201.703 456.688,-199.018 457.25,-205.996"/>
</g>
<!-- Node3&#45;&gt;Node4 -->
<g id="edge3" class="edge"><title>Node3&#45;&gt;Node4</title>
<path fill="none" stroke="midnightblue" d="M232.605,-145.567C250.188,-156.457 275.616,-170.447 300,-177.5 350.96,-192.241 410.677,-196.849 456.694,-197.846"/>
<polygon fill="midnightblue" stroke="midnightblue" points="456.834,-201.349 466.89,-198.013 456.949,-194.35 456.834,-201.349"/>
</g>
<!-- Node5 -->
<g id="node5" class="node"><title>Node5</title>
<g id="a_node5"><a xlink:href="classscram_1_1core_1_1Terminal.xhtml#ab615ba4379a9ae2a882177a6d120ece9" target="_top" xlink:title="Recovers a shared pointer to Terminal from a pointer to Vertex. ">
<polygon fill="white" stroke="black" points="300,-99 300,-118 431,-118 431,-99 300,-99"/>
<text text-anchor="middle" x="365.5" y="-106" font-family="Helvetica,sans-Serif" font-size="10.00">scram::core::Terminal::Ptr</text>
</a>
</g>
</g>
<!-- Node3&#45;&gt;Node5 -->
<g id="edge4" class="edge"><title>Node3&#45;&gt;Node5</title>
<path fill="none" stroke="midnightblue" d="M260.162,-123.357C269.678,-122.002 279.822,-120.558 289.905,-119.122"/>
<polygon fill="midnightblue" stroke="midnightblue" points="290.536,-122.567 299.943,-117.693 289.55,-115.637 290.536,-122.567"/>
</g>
<!-- Node6 -->
<g id="node6" class="node"><title>Node6</title>
<g id="a_node6"><a xlink:href="classscram_1_1core_1_1Zbdd.xhtml#a42af18229ba2e80201bc0fdac07b7091" target="_top" xlink:title="Finds or adds a unique SetNode in the ZBDD. ">
<polygon fill="white" stroke="black" points="314.5,-137.5 314.5,-167.5 416.5,-167.5 416.5,-137.5 314.5,-137.5"/>
<text text-anchor="start" x="322.5" y="-155.5" font-family="Helvetica,sans-Serif" font-size="10.00">scram::core::Zbdd::</text>
<text text-anchor="middle" x="365.5" y="-144.5" font-family="Helvetica,sans-Serif" font-size="10.00">FindOrAddVertex</text>
</a>
</g>
</g>
<!-- Node3&#45;&gt;Node6 -->
<g id="edge5" class="edge"><title>Node3&#45;&gt;Node6</title>
<path fill="none" stroke="midnightblue" d="M260.162,-137.643C274.265,-139.651 289.748,-141.856 304.369,-143.938"/>
<polygon fill="midnightblue" stroke="midnightblue" points="303.932,-147.411 314.326,-145.355 304.919,-140.481 303.932,-147.411"/>
</g>
<!-- Node7 -->
<g id="node7" class="node"><title>Node7</title>
<g id="a_node7"><a xlink:href="classscram_1_1core_1_1Terminal.xhtml#a7a25b0b40498f4876571a5dac4e724c3" target="_top" xlink:title="scram::core::Terminal\l::value">
<polygon fill="white" stroke="black" points="309.5,-49.5 309.5,-79.5 421.5,-79.5 421.5,-49.5 309.5,-49.5"/>
<text text-anchor="start" x="317.5" y="-67.5" font-family="Helvetica,sans-Serif" font-size="10.00">scram::core::Terminal</text>
<text text-anchor="middle" x="365.5" y="-56.5" font-family="Helvetica,sans-Serif" font-size="10.00">::value</text>
</a>
</g>
</g>
<!-- Node3&#45;&gt;Node7 -->
<g id="edge7" class="edge"><title>Node3&#45;&gt;Node7</title>
<path fill="none" stroke="midnightblue" d="M241.875,-115.437C259,-107.482 280.537,-97.6972 300,-89.5 304.789,-87.4832 309.801,-85.434 314.825,-83.421"/>
<polygon fill="midnightblue" stroke="midnightblue" points="316.434,-86.5481 324.444,-79.6125 313.857,-80.0397 316.434,-86.5481"/>
</g>
<!-- Node9 -->
<g id="node9" class="node"><title>Node9</title>
<g id="a_node9"><a xlink:href="classscram_1_1core_1_1Settings.xhtml#ae64f362fceb44402e101140dfc1725ba" target="_top" xlink:title="scram::core::Settings\l::prime_implicants">
<polygon fill="white" stroke="black" points="310.5,-0.5 310.5,-30.5 420.5,-30.5 420.5,-0.5 310.5,-0.5"/>
<text text-anchor="start" x="318.5" y="-18.5" font-family="Helvetica,sans-Serif" font-size="10.00">scram::core::Settings</text>
<text text-anchor="middle" x="365.5" y="-7.5" font-family="Helvetica,sans-Serif" font-size="10.00">::prime_implicants</text>
</a>
</g>
</g>
<!-- Node3&#45;&gt;Node9 -->
<g id="edge9" class="edge"><title>Node3&#45;&gt;Node9</title>
<path fill="none" stroke="midnightblue" d="M221.519,-115.272C237.274,-95.377 267.338,-60.6006 300,-39.5 302.446,-37.9197 305.011,-36.4227 307.651,-35.0075"/>
<polygon fill="midnightblue" stroke="midnightblue" points="309.4,-38.048 316.844,-30.509 306.324,-31.7604 309.4,-38.048"/>
</g>
<!-- Node6&#45;&gt;Node4 -->
<g id="edge6" class="edge"><title>Node6&#45;&gt;Node4</title>
<path fill="none" stroke="midnightblue" d="M416.902,-165.941C438.91,-171.809 464.529,-178.641 485.956,-184.355"/>
<polygon fill="midnightblue" stroke="midnightblue" points="485.225,-187.782 495.79,-186.977 487.029,-181.019 485.225,-187.782"/>
</g>
<!-- Node8 -->
<g id="node8" class="node"><title>Node8</title>
<g id="a_node8"><a xlink:href="classscram_1_1core_1_1Vertex.xhtml#a8a4a6e9871c7b80b9951fea57617d438" target="_top" xlink:title="scram::core::Vertex::id">
<polygon fill="white" stroke="black" points="474.5,-55 474.5,-74 590.5,-74 590.5,-55 474.5,-55"/>
<text text-anchor="middle" x="532.5" y="-62" font-family="Helvetica,sans-Serif" font-size="10.00">scram::core::Vertex::id</text>
</a>
</g>
</g>
<!-- Node7&#45;&gt;Node8 -->
<g id="edge8" class="edge"><title>Node7&#45;&gt;Node8</title>
<path fill="none" stroke="midnightblue" d="M421.902,-64.5C435.462,-64.5 450.121,-64.5 464.173,-64.5"/>
<polygon fill="midnightblue" stroke="midnightblue" points="464.272,-68.0001 474.272,-64.5 464.272,-61.0001 464.272,-68.0001"/>
</g>
</g>
</svg>
