<?xml version="1.0" encoding="UTF-8" standalone="no"?>
<!DOCTYPE svg PUBLIC "-//W3C//DTD SVG 1.1//EN"
 "http://www.w3.org/Graphics/SVG/1.1/DTD/svg11.dtd">
<!-- Generated by graphviz version 2.38.0 (20140413.2041)
 -->
<!-- Title: scram::core::Preprocessor::CoalesceGates Pages: 1 -->
<svg width="1405pt" height="251pt"
 viewBox="0.00 0.00 1405.00 251.00" xmlns="http://www.w3.org/2000/svg" xmlns:xlink="http://www.w3.org/1999/xlink">
<g id="graph0" class="graph" transform="scale(1 1) rotate(0) translate(4 247)">
<title>scram::core::Preprocessor::CoalesceGates</title>
<polygon fill="white" stroke="none" points="-4,4 -4,-247 1401,-247 1401,4 -4,4"/>
<!-- Node1 -->
<g id="node1" class="node"><title>Node1</title>
<polygon fill="#bfbfbf" stroke="black" points="0,-168.5 0,-198.5 132,-198.5 132,-168.5 0,-168.5"/>
<text text-anchor="start" x="8" y="-186.5" font-family="Helvetica,sans-Serif" font-size="10.00">scram::core::Preprocessor</text>
<text text-anchor="middle" x="66" y="-175.5" font-family="Helvetica,sans-Serif" font-size="10.00">::CoalesceGates</text>
</g>
<!-- Node2 -->
<g id="node2" class="node"><title>Node2</title>
<g id="a_node2"><a xlink:href="classscram_1_1core_1_1Preprocessor.xhtml#a3a0500bd52152df42fca486c97043140" target="_top" xlink:title="Coalesces positive argument gates with the same OR or AND logic as parents. ">
<polygon fill="white" stroke="black" points="168,-212.5 168,-242.5 300,-242.5 300,-212.5 168,-212.5"/>
<text text-anchor="start" x="176" y="-230.5" font-family="Helvetica,sans-Serif" font-size="10.00">scram::core::Preprocessor</text>
<text text-anchor="middle" x="234" y="-219.5" font-family="Helvetica,sans-Serif" font-size="10.00">::CoalesceGates</text>
</a>
</g>
</g>
<!-- Node1&#45;&gt;Node2 -->
<g id="edge1" class="edge"><title>Node1&#45;&gt;Node2</title>
<path fill="none" stroke="midnightblue" d="M133.378,-201.094C147.598,-204.863 162.496,-208.812 176.31,-212.474"/>
<polygon fill="midnightblue" stroke="midnightblue" points="134.226,-197.698 123.663,-198.519 132.433,-204.465 134.226,-197.698"/>
</g>
<!-- Node3 -->
<g id="node3" class="node"><title>Node3</title>
<g id="a_node3"><a xlink:href="classscram_1_1core_1_1Preprocessor.xhtml#a3569bbcd5e863c750cdfa69115399600" target="_top" xlink:title="The final phase that cleans up the graph, and puts the structure of the graph ready for analysis...">
<polygon fill="white" stroke="black" points="336,-168.5 336,-198.5 468,-198.5 468,-168.5 336,-168.5"/>
<text text-anchor="start" x="344" y="-186.5" font-family="Helvetica,sans-Serif" font-size="10.00">scram::core::Preprocessor</text>
<text text-anchor="middle" x="402" y="-175.5" font-family="Helvetica,sans-Serif" font-size="10.00">::RunPhaseFive</text>
</a>
</g>
</g>
<!-- Node1&#45;&gt;Node3 -->
<g id="edge2" class="edge"><title>Node1&#45;&gt;Node3</title>
<path fill="none" stroke="midnightblue" d="M142.444,-183.5C200.712,-183.5 280.503,-183.5 335.973,-183.5"/>
<polygon fill="midnightblue" stroke="midnightblue" points="142.191,-180 132.191,-183.5 142.191,-187 142.191,-180"/>
</g>
<!-- Node5 -->
<g id="node5" class="node"><title>Node5</title>
<g id="a_node5"><a xlink:href="classscram_1_1core_1_1Preprocessor.xhtml#a9d5f89471499508eb9e6c01ea43e0f15" target="_top" xlink:title="Preprocessing phase of the original structure of the graph. ">
<polygon fill="white" stroke="black" points="168,-124.5 168,-154.5 300,-154.5 300,-124.5 168,-124.5"/>
<text text-anchor="start" x="176" y="-142.5" font-family="Helvetica,sans-Serif" font-size="10.00">scram::core::Preprocessor</text>
<text text-anchor="middle" x="234" y="-131.5" font-family="Helvetica,sans-Serif" font-size="10.00">::RunPhaseTwo</text>
</a>
</g>
</g>
<!-- Node1&#45;&gt;Node5 -->
<g id="edge4" class="edge"><title>Node1&#45;&gt;Node5</title>
<path fill="none" stroke="midnightblue" d="M133.378,-165.906C147.598,-162.137 162.496,-158.188 176.31,-154.526"/>
<polygon fill="midnightblue" stroke="midnightblue" points="132.433,-162.535 123.663,-168.481 134.226,-169.302 132.433,-162.535"/>
</g>
<!-- Node4 -->
<g id="node4" class="node"><title>Node4</title>
<g id="a_node4"><a xlink:href="classscram_1_1core_1_1CustomPreprocessor_3_01Zbdd_01_4.xhtml#a5185075f852c647c7aa4313d23420ee5" target="_top" xlink:title="Performs preprocessing for analyses with Zero&#45;Suppressed Binary Decision Diagrams. ">
<polygon fill="white" stroke="black" points="696,-157.5 696,-187.5 863,-187.5 863,-157.5 696,-157.5"/>
<text text-anchor="start" x="704" y="-175.5" font-family="Helvetica,sans-Serif" font-size="10.00">scram::core::CustomPreprocessor</text>
<text text-anchor="middle" x="779.5" y="-164.5" font-family="Helvetica,sans-Serif" font-size="10.00">&lt; Zbdd &gt;::Run</text>
</a>
</g>
</g>
<!-- Node3&#45;&gt;Node4 -->
<g id="edge3" class="edge"><title>Node3&#45;&gt;Node4</title>
<path fill="none" stroke="midnightblue" d="M478.66,-181.284C541.581,-179.44 630.998,-176.821 695.797,-174.923"/>
<polygon fill="midnightblue" stroke="midnightblue" points="478.3,-177.793 468.407,-181.584 478.505,-184.79 478.3,-177.793"/>
</g>
<!-- Node5&#45;&gt;Node3 -->
<g id="edge13" class="edge"><title>Node5&#45;&gt;Node3</title>
<path fill="none" stroke="midnightblue" d="M301.378,-157.094C315.598,-160.863 330.496,-164.812 344.31,-168.474"/>
<polygon fill="midnightblue" stroke="midnightblue" points="302.226,-153.698 291.663,-154.519 300.433,-160.465 302.226,-153.698"/>
</g>
<!-- Node6 -->
<g id="node6" class="node"><title>Node6</title>
<g id="a_node6"><a xlink:href="classscram_1_1core_1_1Preprocessor.xhtml#a2b6705e815fa3d02119c405b483766d5" target="_top" xlink:title="Runs the default preprocessing that achieves the graph in a normal form. ">
<polygon fill="white" stroke="black" points="504,-73 504,-92 660,-92 660,-73 504,-73"/>
<text text-anchor="middle" x="582" y="-80" font-family="Helvetica,sans-Serif" font-size="10.00">scram::core::Preprocessor::Run</text>
</a>
</g>
</g>
<!-- Node5&#45;&gt;Node6 -->
<g id="edge5" class="edge"><title>Node5&#45;&gt;Node6</title>
<path fill="none" stroke="midnightblue" d="M310.108,-127.127C374.071,-116.589 464.647,-101.668 523.112,-92.0365"/>
<polygon fill="midnightblue" stroke="midnightblue" points="309.378,-123.7 300.08,-128.779 310.516,-130.607 309.378,-123.7"/>
</g>
<!-- Node13 -->
<g id="node13" class="node"><title>Node13</title>
<g id="a_node13"><a xlink:href="classscram_1_1core_1_1Preprocessor.xhtml#a5c224938dfba861f061525658bd7b156" target="_top" xlink:title="Propagation of complements. ">
<polygon fill="white" stroke="black" points="516,-124.5 516,-154.5 648,-154.5 648,-124.5 516,-124.5"/>
<text text-anchor="start" x="524" y="-142.5" font-family="Helvetica,sans-Serif" font-size="10.00">scram::core::Preprocessor</text>
<text text-anchor="middle" x="582" y="-131.5" font-family="Helvetica,sans-Serif" font-size="10.00">::RunPhaseFour</text>
</a>
</g>
</g>
<!-- Node5&#45;&gt;Node13 -->
<g id="edge14" class="edge"><title>Node5&#45;&gt;Node13</title>
<path fill="none" stroke="midnightblue" d="M310.097,-139.5C371.493,-139.5 457.413,-139.5 515.918,-139.5"/>
<polygon fill="midnightblue" stroke="midnightblue" points="310.08,-136 300.08,-139.5 310.08,-143 310.08,-136"/>
</g>
<!-- Node14 -->
<g id="node14" class="node"><title>Node14</title>
<g id="a_node14"><a xlink:href="classscram_1_1core_1_1Preprocessor.xhtml#abf2c66723172a85b2ae87ef2a034cd1f" target="_top" xlink:title="Application of gate normalization. ">
<polygon fill="white" stroke="black" points="336,-42.5 336,-72.5 468,-72.5 468,-42.5 336,-42.5"/>
<text text-anchor="start" x="344" y="-60.5" font-family="Helvetica,sans-Serif" font-size="10.00">scram::core::Preprocessor</text>
<text text-anchor="middle" x="402" y="-49.5" font-family="Helvetica,sans-Serif" font-size="10.00">::RunPhaseThree</text>
</a>
</g>
</g>
<!-- Node5&#45;&gt;Node14 -->
<g id="edge16" class="edge"><title>Node5&#45;&gt;Node14</title>
<path fill="none" stroke="midnightblue" d="M272.479,-119.717C291.423,-109.842 314.827,-97.8306 336,-87.5 346.165,-82.5405 357.316,-77.3161 367.469,-72.6419"/>
<polygon fill="midnightblue" stroke="midnightblue" points="270.808,-116.641 263.567,-124.376 274.051,-122.845 270.808,-116.641"/>
</g>
<!-- Node6&#45;&gt;Node4 -->
<g id="edge12" class="edge"><title>Node6&#45;&gt;Node4</title>
<path fill="none" stroke="midnightblue" d="M622.055,-95.6744C634.634,-100.706 648.33,-107.054 660,-114.5 678.298,-126.175 677.143,-136.751 696,-147.5 702.631,-151.28 709.894,-154.546 717.275,-157.353"/>
<polygon fill="midnightblue" stroke="midnightblue" points="623.295,-92.4015 612.705,-92.0869 620.788,-98.9369 623.295,-92.4015"/>
</g>
<!-- Node7 -->
<g id="node7" class="node"><title>Node7</title>
<g id="a_node7"><a xlink:href="classscram_1_1core_1_1FaultTreeAnalyzer.xhtml#af6d3e735d4200c3efed0164c58aabf57" target="_top" xlink:title="Runs fault tree analysis with the given algorithm. ">
<polygon fill="white" stroke="black" points="702.5,-108.5 702.5,-138.5 856.5,-138.5 856.5,-108.5 702.5,-108.5"/>
<text text-anchor="start" x="710.5" y="-126.5" font-family="Helvetica,sans-Serif" font-size="10.00">scram::core::FaultTreeAnalyzer</text>
<text text-anchor="middle" x="779.5" y="-115.5" font-family="Helvetica,sans-Serif" font-size="10.00">::Analyze</text>
</a>
</g>
</g>
<!-- Node6&#45;&gt;Node7 -->
<g id="edge6" class="edge"><title>Node6&#45;&gt;Node7</title>
<path fill="none" stroke="midnightblue" d="M638.167,-94.0695C659.417,-98.5261 684.005,-103.683 706.605,-108.422"/>
<polygon fill="midnightblue" stroke="midnightblue" points="638.849,-90.6364 628.343,-92.0093 637.412,-97.4874 638.849,-90.6364"/>
</g>
<!-- Node11 -->
<g id="node11" class="node"><title>Node11</title>
<g id="a_node11"><a xlink:href="classscram_1_1core_1_1ProbabilityAnalyzer_3_01Bdd_01_4.xhtml#a517506c181102100cc6a3e96710813c6" target="_top" xlink:title="Calculates the total probability with a different set of probability values than the one given upon c...">
<polygon fill="white" stroke="black" points="700,-49 700,-90 859,-90 859,-49 700,-49"/>
<text text-anchor="start" x="708" y="-78" font-family="Helvetica,sans-Serif" font-size="10.00">scram::core::Probability</text>
<text text-anchor="start" x="708" y="-67" font-family="Helvetica,sans-Serif" font-size="10.00">Analyzer&lt; Bdd &gt;::CalculateTotal</text>
<text text-anchor="middle" x="779.5" y="-56" font-family="Helvetica,sans-Serif" font-size="10.00">Probability</text>
</a>
</g>
</g>
<!-- Node6&#45;&gt;Node11 -->
<g id="edge10" class="edge"><title>Node6&#45;&gt;Node11</title>
<path fill="none" stroke="midnightblue" d="M670.422,-76.6868C680.232,-76.0344 690.182,-75.3728 699.872,-74.7285"/>
<polygon fill="midnightblue" stroke="midnightblue" points="670.012,-73.2062 660.267,-77.3621 670.477,-80.1908 670.012,-73.2062"/>
</g>
<!-- Node12 -->
<g id="node12" class="node"><title>Node12</title>
<g id="a_node12"><a xlink:href="classscram_1_1core_1_1CustomPreprocessor_3_01Bdd_01_4.xhtml#a8cf4307236cd521e39a2c6feb21f3214" target="_top" xlink:title="Performs preprocessing for analyses with Binary Decision Diagrams. ">
<polygon fill="white" stroke="black" points="696,-0.5 696,-30.5 863,-30.5 863,-0.5 696,-0.5"/>
<text text-anchor="start" x="704" y="-18.5" font-family="Helvetica,sans-Serif" font-size="10.00">scram::core::CustomPreprocessor</text>
<text text-anchor="middle" x="779.5" y="-7.5" font-family="Helvetica,sans-Serif" font-size="10.00">&lt; Bdd &gt;::Run</text>
</a>
</g>
</g>
<!-- Node6&#45;&gt;Node12 -->
<g id="edge11" class="edge"><title>Node6&#45;&gt;Node12</title>
<path fill="none" stroke="midnightblue" d="M615.993,-69.1407C638.394,-60.2692 668.781,-48.6216 696,-39.5 705.052,-36.4666 714.734,-33.4498 724.166,-30.6311"/>
<polygon fill="midnightblue" stroke="midnightblue" points="614.603,-65.9269 606.608,-72.8797 617.194,-72.4298 614.603,-65.9269"/>
</g>
<!-- Node8 -->
<g id="node8" class="node"><title>Node8</title>
<g id="a_node8"><a xlink:href="classscram_1_1core_1_1RiskAnalysis.xhtml#a7aed757ac5a7a96878c2706a7a9710bb" target="_top" xlink:title="Analyzes the model and performs computations specified in the settings. ">
<polygon fill="white" stroke="black" points="899,-108.5 899,-138.5 1031,-138.5 1031,-108.5 899,-108.5"/>
<text text-anchor="start" x="907" y="-126.5" font-family="Helvetica,sans-Serif" font-size="10.00">scram::core::RiskAnalysis</text>
<text text-anchor="middle" x="965" y="-115.5" font-family="Helvetica,sans-Serif" font-size="10.00">::Analyze</text>
</a>
</g>
</g>
<!-- Node7&#45;&gt;Node8 -->
<g id="edge7" class="edge"><title>Node7&#45;&gt;Node8</title>
<path fill="none" stroke="midnightblue" d="M866.954,-123.5C877.672,-123.5 888.486,-123.5 898.81,-123.5"/>
<polygon fill="midnightblue" stroke="midnightblue" points="866.726,-120 856.726,-123.5 866.726,-127 866.726,-120"/>
</g>
<!-- Node9 -->
<g id="node9" class="node"><title>Node9</title>
<g id="a_node9"><a xlink:href="classscram_1_1core_1_1RiskAnalysis.xhtml#a337f7e9fe02b1581e872590d6f7baa01" target="_top" xlink:title="scram::core::RiskAnalysis\l::model">
<polygon fill="white" stroke="black" points="1067,-108.5 1067,-138.5 1199,-138.5 1199,-108.5 1067,-108.5"/>
<text text-anchor="start" x="1075" y="-126.5" font-family="Helvetica,sans-Serif" font-size="10.00">scram::core::RiskAnalysis</text>
<text text-anchor="middle" x="1133" y="-115.5" font-family="Helvetica,sans-Serif" font-size="10.00">::model</text>
</a>
</g>
</g>
<!-- Node8&#45;&gt;Node9 -->
<g id="edge8" class="edge"><title>Node8&#45;&gt;Node9</title>
<path fill="none" stroke="midnightblue" d="M1041.39,-123.5C1049.87,-123.5 1058.45,-123.5 1066.78,-123.5"/>
<polygon fill="midnightblue" stroke="midnightblue" points="1041.13,-120 1031.13,-123.5 1041.13,-127 1041.13,-120"/>
</g>
<!-- Node10 -->
<g id="node10" class="node"><title>Node10</title>
<g id="a_node10"><a xlink:href="reporter_8cc.xhtml#ad6460094a94fb73e56c2a4a5efc598ed" target="_top" xlink:title="Describes all performed analyses deduced from settings. ">
<polygon fill="white" stroke="black" points="1235,-108.5 1235,-138.5 1397,-138.5 1397,-108.5 1235,-108.5"/>
<text text-anchor="start" x="1243" y="-126.5" font-family="Helvetica,sans-Serif" font-size="10.00">scram::ReportCalculatedQuantity</text>
<text text-anchor="middle" x="1316" y="-115.5" font-family="Helvetica,sans-Serif" font-size="10.00">&lt; core::RiskAnalysis &gt;</text>
</a>
</g>
</g>
<!-- Node9&#45;&gt;Node10 -->
<g id="edge9" class="edge"><title>Node9&#45;&gt;Node10</title>
<path fill="none" stroke="midnightblue" d="M1209.24,-123.5C1217.65,-123.5 1226.24,-123.5 1234.71,-123.5"/>
<polygon fill="midnightblue" stroke="midnightblue" points="1209.09,-120 1199.09,-123.5 1209.09,-127 1209.09,-120"/>
</g>
<!-- Node13&#45;&gt;Node4 -->
<g id="edge15" class="edge"><title>Node13&#45;&gt;Node4</title>
<path fill="none" stroke="midnightblue" d="M658.313,-152.213C670.636,-154.293 683.462,-156.458 695.949,-158.566"/>
<polygon fill="midnightblue" stroke="midnightblue" points="658.542,-148.702 648.099,-150.489 657.377,-155.604 658.542,-148.702"/>
</g>
<!-- Node14&#45;&gt;Node6 -->
<g id="edge17" class="edge"><title>Node14&#45;&gt;Node6</title>
<path fill="none" stroke="midnightblue" d="M478.132,-68.0523C489.761,-69.6855 501.713,-71.3642 513.168,-72.9731"/>
<polygon fill="midnightblue" stroke="midnightblue" points="478.407,-64.5566 468.018,-66.6317 477.434,-71.4886 478.407,-64.5566"/>
</g>
</g>
</svg>
