<?xml version="1.0" encoding="UTF-8" standalone="no"?>
<!DOCTYPE svg PUBLIC "-//W3C//DTD SVG 1.1//EN"
 "http://www.w3.org/Graphics/SVG/1.1/DTD/svg11.dtd">
<!-- Generated by graphviz version 2.38.0 (20140413.2041)
 -->
<!-- Title: scram::core::SetNode::Ptr Pages: 1 -->
<!--zoomable 676 -->
<svg id="main" version="1.1" xmlns="http://www.w3.org/2000/svg" xmlns:xlink="http://www.w3.org/1999/xlink" xml:space="preserve" onload="init(evt)">
<style type="text/css"><![CDATA[
.edge:hover path { stroke: red; }
.edge:hover polygon { stroke: red; fill: red; }
]]></style>
<script type="text/javascript"><![CDATA[
var edges = document.getElementsByTagName('g');
if (edges && edges.length) {
  for (var i=0;i<edges.length;i++) {
    if (edges[i].id.substr(0,4)=='edge') {
      edges[i].setAttribute('class','edge');
    }
  }
}
]]></script>
        <defs>
                <circle id="rim" cx="0" cy="0" r="7"/>
                <circle id="rim2" cx="0" cy="0" r="3.5"/>
                <g id="zoomPlus">
                        <use xlink:href="#rim" fill="#404040">
                                <set attributeName="fill" to="#808080" begin="zoomplus.mouseover" end="zoomplus.mouseout"/>
                        </use>
                        <path d="M-4,0h8M0,-4v8" fill="none" stroke="white" stroke-width="1.5" pointer-events="none"/>
                </g>
                <g id="zoomMin">
                        <use xlink:href="#rim" fill="#404040">
                                <set attributeName="fill" to="#808080" begin="zoomminus.mouseover" end="zoomminus.mouseout"/>
                        </use>
                        <path d="M-4,0h8" fill="none" stroke="white" stroke-width="1.5" pointer-events="none"/>
                </g>
                <g id="dirArrow">
                        <path fill="none" stroke="white" stroke-width="1.5" d="M0,-3.0v7 M-2.5,-0.5L0,-3.0L2.5,-0.5"/>
                </g>
               <g id="resetDef">
                       <use xlink:href="#rim2" fill="#404040">
                               <set attributeName="fill" to="#808080" begin="reset.mouseover" end="reset.mouseout"/>
                       </use>
               </g>
        </defs>

<script type="text/javascript">
var viewWidth = 895;
var viewHeight = 676;
var sectionId = 'dynsection-5';
</script>
<script xlink:href="svgpan.js"/>
<svg id="graph" class="graph">
<g id="viewport">
<title>scram::core::SetNode::Ptr</title>
<polygon fill="white" stroke="none" points="-4,4 -4,-672.313 891,-672.313 891,4 -4,4"/>
<!-- Node1 -->
<g id="node1" class="node"><title>Node1</title>
<polygon fill="#bfbfbf" stroke="black" points="0,-305 0,-324 131,-324 131,-305 0,-305"/>
<text text-anchor="middle" x="65.5" y="-312" font-family="Helvetica,sans-Serif" font-size="10.00">scram::core::SetNode::Ptr</text>
</g>
<!-- Node2 -->
<g id="node2" class="node"><title>Node2</title>
<g id="a_node2"><a xlink:href="classscram_1_1core_1_1Zbdd.xhtml#a77945d28bd832d2735969d0b0a451c78" target="_top" xlink:title="Runs the analysis with the representation of a Boolean graph as ZBDD. ">
<polygon fill="white" stroke="black" points="597,-635.5 597,-665.5 699,-665.5 699,-635.5 597,-635.5"/>
<text text-anchor="start" x="605" y="-653.5" font-family="Helvetica,sans-Serif" font-size="10.00">scram::core::Zbdd::</text>
<text text-anchor="middle" x="648" y="-642.5" font-family="Helvetica,sans-Serif" font-size="10.00">Analyze</text>
</a>
</g>
</g>
<!-- Node1&#45;&gt;Node2 -->
<g id="edge1" class="edge"><title>Node1&#45;&gt;Node2</title>
<path fill="none" stroke="midnightblue" d="M67.5416,-334.404C71.3157,-384.687 88.5983,-517.437 167,-582.5 292.002,-686.235 501.344,-672.207 596.809,-659.02"/>
<polygon fill="midnightblue" stroke="midnightblue" points="71.0215,-333.979 66.8831,-324.226 64.0361,-334.431 71.0215,-333.979"/>
</g>
<!-- Node3 -->
<g id="node3" class="node"><title>Node3</title>
<g id="a_node3"><a xlink:href="classscram_1_1core_1_1Zbdd.xhtml#a499a8bc4bc3854e7b2928c08515243cf" target="_top" xlink:title="Specialization of Apply for AND operator for non&#45;terminal ZBDD vertices. ">
<polygon fill="white" stroke="black" points="597,-567.5 597,-597.5 699,-597.5 699,-567.5 597,-567.5"/>
<text text-anchor="start" x="605" y="-585.5" font-family="Helvetica,sans-Serif" font-size="10.00">scram::core::Zbdd::</text>
<text text-anchor="middle" x="648" y="-574.5" font-family="Helvetica,sans-Serif" font-size="10.00">Apply</text>
</a>
</g>
</g>
<!-- Node1&#45;&gt;Node3 -->
<g id="edge2" class="edge"><title>Node1&#45;&gt;Node3</title>
<path fill="none" stroke="midnightblue" d="M69.8717,-333.916C78.28,-376.415 104.195,-478.21 167,-532.5 289.491,-638.385 500.577,-612.901 596.698,-594.046"/>
<polygon fill="midnightblue" stroke="midnightblue" points="73.2998,-333.206 68.0231,-324.019 66.4188,-334.492 73.2998,-333.206"/>
</g>
<!-- Node4 -->
<g id="node4" class="node"><title>Node4</title>
<g id="a_node4"><a xlink:href="classscram_1_1core_1_1Zbdd.xhtml#ac3ac27090b550d973b20bd971c3de9f9" target="_top" xlink:title="Removes complements of variables from products. ">
<polygon fill="white" stroke="black" points="589,-480.5 589,-510.5 707,-510.5 707,-480.5 589,-480.5"/>
<text text-anchor="start" x="597" y="-498.5" font-family="Helvetica,sans-Serif" font-size="10.00">scram::core::Zbdd::</text>
<text text-anchor="middle" x="648" y="-487.5" font-family="Helvetica,sans-Serif" font-size="10.00">EliminateComplements</text>
</a>
</g>
</g>
<!-- Node1&#45;&gt;Node4 -->
<g id="edge3" class="edge"><title>Node1&#45;&gt;Node4</title>
<path fill="none" stroke="midnightblue" d="M74.6648,-333.751C89.101,-365.822 121.919,-430.595 167,-470.5 247.226,-541.515 279.567,-551.562 384,-575.5 453.747,-591.488 477.365,-598.86 545,-575.5 582.226,-562.643 616.222,-529.98 634.008,-510.597"/>
<polygon fill="midnightblue" stroke="midnightblue" points="77.7034,-331.965 70.4826,-324.212 71.2925,-334.776 77.7034,-331.965"/>
</g>
<!-- Node5 -->
<g id="node5" class="node"><title>Node5</title>
<g id="a_node5"><a xlink:href="classscram_1_1core_1_1Zbdd.xhtml#af92e04ed908364e0177ce444d7b72712" target="_top" xlink:title="Default constructor to initialize member variables. ">
<polygon fill="white" stroke="black" points="757,-305 757,-324 881,-324 881,-305 757,-305"/>
<text text-anchor="middle" x="819" y="-312" font-family="Helvetica,sans-Serif" font-size="10.00">scram::core::Zbdd::Zbdd</text>
</a>
</g>
</g>
<!-- Node1&#45;&gt;Node5 -->
<g id="edge32" class="edge"><title>Node1&#45;&gt;Node5</title>
<path fill="none" stroke="midnightblue" d="M141.622,-314.5C290.464,-314.5 620.229,-314.5 756.862,-314.5"/>
<polygon fill="midnightblue" stroke="midnightblue" points="141.223,-311 131.223,-314.5 141.223,-318 141.223,-311"/>
</g>
<!-- Node7 -->
<g id="node7" class="node"><title>Node7</title>
<g id="a_node7"><a xlink:href="classscram_1_1core_1_1Zbdd.xhtml#aeb83fd37f2aee74ac41e6ccadba82d39" target="_top" xlink:title="Removes constant modules from products. ">
<polygon fill="white" stroke="black" points="581,-343.5 581,-373.5 715,-373.5 715,-343.5 581,-343.5"/>
<text text-anchor="start" x="589" y="-361.5" font-family="Helvetica,sans-Serif" font-size="10.00">scram::core::Zbdd::</text>
<text text-anchor="middle" x="648" y="-350.5" font-family="Helvetica,sans-Serif" font-size="10.00">EliminateConstantModules</text>
</a>
</g>
</g>
<!-- Node1&#45;&gt;Node7 -->
<g id="edge6" class="edge"><title>Node1&#45;&gt;Node7</title>
<path fill="none" stroke="midnightblue" d="M139.405,-325.319C148.68,-326.5 158.054,-327.599 167,-328.5 314.459,-343.357 488.192,-352.034 580.875,-355.958"/>
<polygon fill="midnightblue" stroke="midnightblue" points="139.774,-321.838 129.404,-324.01 138.866,-328.778 139.774,-321.838"/>
</g>
<!-- Node9 -->
<g id="node9" class="node"><title>Node9</title>
<g id="a_node9"><a xlink:href="classscram_1_1core_1_1zbdd_1_1CutSetContainer.xhtml#a59985023f1eba639571610ad9a0b2a41" target="_top" xlink:title="Expands the intermediate ZBDD representation of a gate in intermediate cut sets containing the gate...">
<polygon fill="white" stroke="black" points="183,-157.5 183,-187.5 332,-187.5 332,-157.5 183,-157.5"/>
<text text-anchor="start" x="191" y="-175.5" font-family="Helvetica,sans-Serif" font-size="10.00">scram::core::zbdd::</text>
<text text-anchor="middle" x="257.5" y="-164.5" font-family="Helvetica,sans-Serif" font-size="10.00">CutSetContainer::ExpandGate</text>
</a>
</g>
</g>
<!-- Node1&#45;&gt;Node9 -->
<g id="edge9" class="edge"><title>Node1&#45;&gt;Node9</title>
<path fill="none" stroke="midnightblue" d="M77.3002,-296.148C93.496,-270.244 126.536,-223.251 167,-197.5 173.125,-193.602 179.862,-190.302 186.806,-187.51"/>
<polygon fill="midnightblue" stroke="midnightblue" points="74.1489,-294.594 71.9373,-304.955 80.1277,-298.234 74.1489,-294.594"/>
</g>
<!-- Node10 -->
<g id="node10" class="node"><title>Node10</title>
<g id="a_node10"><a xlink:href="classscram_1_1core_1_1zbdd_1_1CutSetContainer.xhtml#aa0848a768a2bcf4b22618e676a8bbaeb" target="_top" xlink:title="Extracts (removes!) intermediate cut sets containing a node with a given index. ">
<polygon fill="white" stroke="black" points="167,-98 167,-139 348,-139 348,-98 167,-98"/>
<text text-anchor="start" x="175" y="-127" font-family="Helvetica,sans-Serif" font-size="10.00">scram::core::zbdd::</text>
<text text-anchor="start" x="175" y="-116" font-family="Helvetica,sans-Serif" font-size="10.00">CutSetContainer::ExtractIntermediate</text>
<text text-anchor="middle" x="257.5" y="-105" font-family="Helvetica,sans-Serif" font-size="10.00">CutSets</text>
</a>
</g>
</g>
<!-- Node1&#45;&gt;Node10 -->
<g id="edge10" class="edge"><title>Node1&#45;&gt;Node10</title>
<path fill="none" stroke="midnightblue" d="M73.2326,-294.786C86.0377,-260.177 117.157,-188.389 167,-148.5 171.35,-145.019 176.124,-141.933 181.131,-139.199"/>
<polygon fill="midnightblue" stroke="midnightblue" points="69.7848,-294.034 69.7181,-304.629 76.3771,-296.388 69.7848,-294.034"/>
</g>
<!-- Node11 -->
<g id="node11" class="node"><title>Node11</title>
<g id="a_node11"><a xlink:href="classscram_1_1core_1_1Zbdd.xhtml#a42af18229ba2e80201bc0fdac07b7091" target="_top" xlink:title="Finds or adds a unique SetNode in the ZBDD. ">
<polygon fill="white" stroke="black" points="206.5,-430.5 206.5,-460.5 308.5,-460.5 308.5,-430.5 206.5,-430.5"/>
<text text-anchor="start" x="214.5" y="-448.5" font-family="Helvetica,sans-Serif" font-size="10.00">scram::core::Zbdd::</text>
<text text-anchor="middle" x="257.5" y="-437.5" font-family="Helvetica,sans-Serif" font-size="10.00">FindOrAddVertex</text>
</a>
</g>
</g>
<!-- Node1&#45;&gt;Node11 -->
<g id="edge11" class="edge"><title>Node1&#45;&gt;Node11</title>
<path fill="none" stroke="midnightblue" d="M81.5375,-331.637C100.027,-351.891 133.14,-385.601 167,-407.5 181.033,-416.576 197.597,-424.315 212.636,-430.394"/>
<polygon fill="midnightblue" stroke="midnightblue" points="84.051,-329.198 74.7643,-324.098 78.8438,-333.876 84.051,-329.198"/>
</g>
<!-- Node14 -->
<g id="node14" class="node"><title>Node14</title>
<g id="a_node14"><a xlink:href="classscram_1_1core_1_1Zbdd.xhtml#a3dbb8ef5da2882daf6c39e9724eae459" target="_top" xlink:title="Removes subsets in ZBDD. ">
<polygon fill="white" stroke="black" points="413.5,-381.5 413.5,-411.5 515.5,-411.5 515.5,-381.5 413.5,-381.5"/>
<text text-anchor="start" x="421.5" y="-399.5" font-family="Helvetica,sans-Serif" font-size="10.00">scram::core::Zbdd::</text>
<text text-anchor="middle" x="464.5" y="-388.5" font-family="Helvetica,sans-Serif" font-size="10.00">Minimize</text>
</a>
</g>
</g>
<!-- Node1&#45;&gt;Node14 -->
<g id="edge31" class="edge"><title>Node1&#45;&gt;Node14</title>
<path fill="none" stroke="midnightblue" d="M89.3121,-329.49C109.023,-341.643 138.716,-358.086 167,-366.5 250.932,-391.47 353.483,-396.536 413.347,-397.102"/>
<polygon fill="midnightblue" stroke="midnightblue" points="91.0694,-326.46 80.7437,-324.088 87.3361,-332.382 91.0694,-326.46"/>
</g>
<!-- Node17 -->
<g id="node17" class="node"><title>Node17</title>
<g id="a_node17"><a xlink:href="classscram_1_1core_1_1Zbdd.xhtml#a516f0d2f35ad213399f83fb9ab102561" target="_top" xlink:title="Traverses ZBDD to find modules and adjusted cut&#45;offs. ">
<polygon fill="white" stroke="black" points="206.5,-206.5 206.5,-236.5 308.5,-236.5 308.5,-206.5 206.5,-206.5"/>
<text text-anchor="start" x="214.5" y="-224.5" font-family="Helvetica,sans-Serif" font-size="10.00">scram::core::Zbdd::</text>
<text text-anchor="middle" x="257.5" y="-213.5" font-family="Helvetica,sans-Serif" font-size="10.00">GatherModules</text>
</a>
</g>
</g>
<!-- Node1&#45;&gt;Node17 -->
<g id="edge23" class="edge"><title>Node1&#45;&gt;Node17</title>
<path fill="none" stroke="midnightblue" d="M86.192,-298.333C105.66,-283.061 136.828,-260.47 167,-246.5 179.297,-240.806 193.161,-236.157 206.238,-232.48"/>
<polygon fill="midnightblue" stroke="midnightblue" points="83.7493,-295.804 78.1161,-304.777 88.1156,-301.276 83.7493,-295.804"/>
</g>
<!-- Node19 -->
<g id="node19" class="node"><title>Node19</title>
<g id="a_node19"><a xlink:href="classscram_1_1core_1_1zbdd_1_1CutSetContainer.xhtml#a9f6c0cef12a80aefbfb357022d558053" target="_top" xlink:title="Finds a gate in intermediate cut sets. ">
<polygon fill="white" stroke="black" points="181,-49.5 181,-79.5 334,-79.5 334,-49.5 181,-49.5"/>
<text text-anchor="start" x="189" y="-67.5" font-family="Helvetica,sans-Serif" font-size="10.00">scram::core::zbdd::</text>
<text text-anchor="middle" x="257.5" y="-56.5" font-family="Helvetica,sans-Serif" font-size="10.00">CutSetContainer::GetNextGate</text>
</a>
</g>
</g>
<!-- Node1&#45;&gt;Node19 -->
<g id="edge26" class="edge"><title>Node1&#45;&gt;Node19</title>
<path fill="none" stroke="midnightblue" d="M69.4945,-294.549C77.1896,-250.449 101.836,-144.191 167,-88.5 171.158,-84.9464 175.79,-81.9134 180.697,-79.3254"/>
<polygon fill="midnightblue" stroke="midnightblue" points="66.0142,-294.144 67.8547,-304.578 72.9225,-295.274 66.0142,-294.144"/>
</g>
<!-- Node20 -->
<g id="node20" class="node"><title>Node20</title>
<g id="a_node20"><a xlink:href="classscram_1_1core_1_1Zbdd.xhtml#a4ecbf60e6ac51e5260e8d8139c1b8599" target="_top" xlink:title="Joins a ZBDD representing a module gate. ">
<polygon fill="white" stroke="black" points="206.5,-255.5 206.5,-285.5 308.5,-285.5 308.5,-255.5 206.5,-255.5"/>
<text text-anchor="start" x="214.5" y="-273.5" font-family="Helvetica,sans-Serif" font-size="10.00">scram::core::Zbdd::</text>
<text text-anchor="middle" x="257.5" y="-262.5" font-family="Helvetica,sans-Serif" font-size="10.00">JoinModule</text>
</a>
</g>
</g>
<!-- Node1&#45;&gt;Node20 -->
<g id="edge27" class="edge"><title>Node1&#45;&gt;Node20</title>
<path fill="none" stroke="midnightblue" d="M117.55,-302.678C145.049,-296.31 178.85,-288.482 206.228,-282.142"/>
<polygon fill="midnightblue" stroke="midnightblue" points="116.68,-299.287 107.727,-304.953 118.259,-306.106 116.68,-299.287"/>
</g>
<!-- Node21 -->
<g id="node21" class="node"><title>Node21</title>
<g id="a_node21"><a xlink:href="classscram_1_1core_1_1zbdd_1_1CutSetContainer.xhtml#a87489caef0ebb8e4b62c600455da84a2" target="_top" xlink:title="Merges a set of cut sets into the main container. ">
<polygon fill="white" stroke="black" points="196.5,-0.5 196.5,-30.5 318.5,-30.5 318.5,-0.5 196.5,-0.5"/>
<text text-anchor="start" x="204.5" y="-18.5" font-family="Helvetica,sans-Serif" font-size="10.00">scram::core::zbdd::</text>
<text text-anchor="middle" x="257.5" y="-7.5" font-family="Helvetica,sans-Serif" font-size="10.00">CutSetContainer::Merge</text>
</a>
</g>
</g>
<!-- Node1&#45;&gt;Node21 -->
<g id="edge30" class="edge"><title>Node1&#45;&gt;Node21</title>
<path fill="none" stroke="midnightblue" d="M67.7228,-294.505C71.9225,-243.915 90.1222,-109.867 167,-39.5 175.188,-32.0054 185.464,-26.8074 196.108,-23.2123"/>
<polygon fill="midnightblue" stroke="midnightblue" points="64.2132,-294.509 66.9752,-304.738 71.1946,-295.02 64.2132,-294.509"/>
</g>
<!-- Node4&#45;&gt;Node5 -->
<g id="edge4" class="edge"><title>Node4&#45;&gt;Node5</title>
<path fill="none" stroke="midnightblue" d="M712.248,-474.276C713.204,-473.388 714.123,-472.463 715,-471.5 757.675,-424.632 706.656,-378.792 751,-333.5 754.806,-329.612 759.345,-326.504 764.24,-324.022"/>
<polygon fill="midnightblue" stroke="midnightblue" points="710.09,-471.52 704.283,-480.382 714.349,-477.076 710.09,-471.52"/>
</g>
<!-- Node6 -->
<g id="node6" class="node"><title>Node6</title>
<g id="a_node6"><a xlink:href="classscram_1_1core_1_1zbdd_1_1CutSetContainer.xhtml#a49532388bd9b917f4351f94f728518aa" target="_top" xlink:title="Eliminates all complements from cut sets. ">
<polygon fill="white" stroke="black" points="751,-475 751,-516 887,-516 887,-475 751,-475"/>
<text text-anchor="start" x="759" y="-504" font-family="Helvetica,sans-Serif" font-size="10.00">scram::core::zbdd::</text>
<text text-anchor="start" x="759" y="-493" font-family="Helvetica,sans-Serif" font-size="10.00">CutSetContainer::Eliminate</text>
<text text-anchor="middle" x="819" y="-482" font-family="Helvetica,sans-Serif" font-size="10.00">Complements</text>
</a>
</g>
</g>
<!-- Node4&#45;&gt;Node6 -->
<g id="edge5" class="edge"><title>Node4&#45;&gt;Node6</title>
<path fill="none" stroke="midnightblue" d="M717.184,-495.5C728.242,-495.5 739.687,-495.5 750.723,-495.5"/>
<polygon fill="midnightblue" stroke="midnightblue" points="717.16,-492 707.16,-495.5 717.16,-499 717.16,-492"/>
</g>
<!-- Node7&#45;&gt;Node5 -->
<g id="edge7" class="edge"><title>Node7&#45;&gt;Node5</title>
<path fill="none" stroke="midnightblue" d="M716.415,-340.948C738.616,-335.168 762.46,-328.96 781.464,-324.012"/>
<polygon fill="midnightblue" stroke="midnightblue" points="715.483,-337.574 706.688,-343.481 717.247,-344.348 715.483,-337.574"/>
</g>
<!-- Node8 -->
<g id="node8" class="node"><title>Node8</title>
<g id="a_node8"><a xlink:href="classscram_1_1core_1_1zbdd_1_1CutSetContainer.xhtml#a1022ad7a4699257a6f0c0809d8f1903d" target="_top" xlink:title="Removes constant modules from cut sets. ">
<polygon fill="white" stroke="black" points="751,-343 751,-384 887,-384 887,-343 751,-343"/>
<text text-anchor="start" x="759" y="-372" font-family="Helvetica,sans-Serif" font-size="10.00">scram::core::zbdd::</text>
<text text-anchor="start" x="759" y="-361" font-family="Helvetica,sans-Serif" font-size="10.00">CutSetContainer::Eliminate</text>
<text text-anchor="middle" x="819" y="-350" font-family="Helvetica,sans-Serif" font-size="10.00">ConstantModules</text>
</a>
</g>
</g>
<!-- Node7&#45;&gt;Node8 -->
<g id="edge8" class="edge"><title>Node7&#45;&gt;Node8</title>
<path fill="none" stroke="midnightblue" d="M725.511,-360.764C733.938,-361.013 742.471,-361.265 750.772,-361.511"/>
<polygon fill="midnightblue" stroke="midnightblue" points="725.407,-357.259 715.308,-360.462 725.2,-364.256 725.407,-357.259"/>
</g>
<!-- Node12 -->
<g id="node12" class="node"><title>Node12</title>
<g id="a_node12"><a xlink:href="classscram_1_1core_1_1Zbdd.xhtml#a33d57c1808da12dc735a6850b2c83282" target="_top" xlink:title="Constructor with the analysis target. ">
<polygon fill="white" stroke="black" points="402.5,-547 402.5,-566 526.5,-566 526.5,-547 402.5,-547"/>
<text text-anchor="middle" x="464.5" y="-554" font-family="Helvetica,sans-Serif" font-size="10.00">scram::core::Zbdd::Zbdd</text>
</a>
</g>
</g>
<!-- Node11&#45;&gt;Node12 -->
<g id="edge12" class="edge"><title>Node11&#45;&gt;Node12</title>
<path fill="none" stroke="midnightblue" d="M282.1,-467.334C306.037,-488.325 345.014,-519.451 384,-537.5 392.242,-541.316 401.331,-544.411 410.33,-546.908"/>
<polygon fill="midnightblue" stroke="midnightblue" points="284.376,-464.674 274.581,-460.637 279.721,-469.902 284.376,-464.674"/>
</g>
<!-- Node13 -->
<g id="node13" class="node"><title>Node13</title>
<g id="a_node13"><a xlink:href="classscram_1_1core_1_1Zbdd.xhtml#ac90d12f0c653c679d22109124fa6344c" target="_top" xlink:title="Find or adds a ZBDD SetNode vertex using information from gates. ">
<polygon fill="white" stroke="black" points="413.5,-479.5 413.5,-509.5 515.5,-509.5 515.5,-479.5 413.5,-479.5"/>
<text text-anchor="start" x="421.5" y="-497.5" font-family="Helvetica,sans-Serif" font-size="10.00">scram::core::Zbdd::</text>
<text text-anchor="middle" x="464.5" y="-486.5" font-family="Helvetica,sans-Serif" font-size="10.00">FindOrAddVertex</text>
</a>
</g>
</g>
<!-- Node11&#45;&gt;Node13 -->
<g id="edge13" class="edge"><title>Node11&#45;&gt;Node13</title>
<path fill="none" stroke="midnightblue" d="M318.592,-459.864C348.637,-467.045 384.584,-475.637 413.159,-482.467"/>
<polygon fill="midnightblue" stroke="midnightblue" points="319.188,-456.407 308.649,-457.487 317.561,-463.216 319.188,-456.407"/>
</g>
<!-- Node11&#45;&gt;Node14 -->
<g id="edge15" class="edge"><title>Node11&#45;&gt;Node14</title>
<path fill="none" stroke="midnightblue" d="M318.592,-431.136C348.637,-423.955 384.584,-415.363 413.159,-408.533"/>
<polygon fill="midnightblue" stroke="midnightblue" points="317.561,-427.784 308.649,-433.513 319.188,-434.593 317.561,-427.784"/>
</g>
<!-- Node16 -->
<g id="node16" class="node"><title>Node16</title>
<g id="a_node16"><a xlink:href="classscram_1_1core_1_1zbdd_1_1CutSetContainer.xhtml#a15ccbd5b839be87c831a743f0100588e" target="_top" xlink:title="Converts a Boolean graph gate into intermediate cut sets. ">
<polygon fill="white" stroke="black" points="389,-430.5 389,-460.5 540,-460.5 540,-430.5 389,-430.5"/>
<text text-anchor="start" x="397" y="-448.5" font-family="Helvetica,sans-Serif" font-size="10.00">scram::core::zbdd::</text>
<text text-anchor="middle" x="464.5" y="-437.5" font-family="Helvetica,sans-Serif" font-size="10.00">CutSetContainer::ConvertGate</text>
</a>
</g>
</g>
<!-- Node11&#45;&gt;Node16 -->
<g id="edge22" class="edge"><title>Node11&#45;&gt;Node16</title>
<path fill="none" stroke="midnightblue" d="M318.793,-445.5C340.679,-445.5 365.677,-445.5 388.667,-445.5"/>
<polygon fill="midnightblue" stroke="midnightblue" points="318.649,-442 308.649,-445.5 318.649,-449 318.649,-442"/>
</g>
<!-- Node13&#45;&gt;Node13 -->
<g id="edge14" class="edge"><title>Node13&#45;&gt;Node13</title>
<path fill="none" stroke="midnightblue" d="M432.161,-519.958C436.175,-524.679 446.954,-528 464.5,-528 493.293,-528 503.865,-519.057 496.217,-509.659"/>
<polygon fill="midnightblue" stroke="midnightblue" points="435.673,-519.852 432.783,-509.659 428.686,-519.43 435.673,-519.852"/>
</g>
<!-- Node14&#45;&gt;Node2 -->
<g id="edge16" class="edge"><title>Node14&#45;&gt;Node2</title>
<path fill="none" stroke="midnightblue" d="M525.274,-407.319C532.705,-410.818 539.581,-415.428 545,-421.5 601.066,-484.32 533.995,-537.641 581,-607.5 588.863,-619.187 601.083,-628.43 612.881,-635.305"/>
<polygon fill="midnightblue" stroke="midnightblue" points="526.217,-403.927 515.633,-403.457 523.614,-410.425 526.217,-403.927"/>
</g>
<!-- Node14&#45;&gt;Node3 -->
<g id="edge18" class="edge"><title>Node14&#45;&gt;Node3</title>
<path fill="none" stroke="midnightblue" d="M524.998,-408.388C532.341,-411.731 539.267,-416.014 545,-421.5 578.828,-453.868 555.236,-481.407 581,-520.5 593.198,-539.009 611.981,-555.937 626.395,-567.412"/>
<polygon fill="midnightblue" stroke="midnightblue" points="526.116,-405.067 515.53,-404.636 523.537,-411.574 526.116,-405.067"/>
</g>
<!-- Node14&#45;&gt;Node4 -->
<g id="edge19" class="edge"><title>Node14&#45;&gt;Node4</title>
<path fill="none" stroke="midnightblue" d="M525.337,-410.627C532.299,-413.604 539.034,-417.189 545,-421.5 567.195,-437.538 559.164,-454.977 581,-471.5 585.472,-474.884 590.468,-477.827 595.656,-480.378"/>
<polygon fill="midnightblue" stroke="midnightblue" points="526.343,-407.264 515.753,-406.933 523.825,-413.795 526.343,-407.264"/>
</g>
<!-- Node14&#45;&gt;Node5 -->
<g id="edge17" class="edge"><title>Node14&#45;&gt;Node5</title>
<path fill="none" stroke="midnightblue" d="M525.738,-407.298C578.868,-413.716 656.692,-415.309 715,-383.5 739.038,-370.386 728.58,-349.222 751,-333.5 756.544,-329.613 762.868,-326.517 769.366,-324.052"/>
<polygon fill="midnightblue" stroke="midnightblue" points="526.153,-403.823 515.785,-406.005 525.251,-410.765 526.153,-403.823"/>
</g>
<!-- Node14&#45;&gt;Node7 -->
<g id="edge20" class="edge"><title>Node14&#45;&gt;Node7</title>
<path fill="none" stroke="midnightblue" d="M525.74,-383.888C543.386,-380.193 562.772,-376.134 580.768,-372.367"/>
<polygon fill="midnightblue" stroke="midnightblue" points="524.647,-380.541 515.576,-386.016 526.081,-387.392 524.647,-380.541"/>
</g>
<!-- Node15 -->
<g id="node15" class="node"><title>Node15</title>
<g id="a_node15"><a xlink:href="classscram_1_1core_1_1zbdd_1_1CutSetContainer.xhtml#a1648d3f24a95302fac2a40e95f743dda" target="_top" xlink:title="Minimizes cut sets in the container. ">
<polygon fill="white" stroke="black" points="581,-431.5 581,-461.5 715,-461.5 715,-431.5 581,-431.5"/>
<text text-anchor="start" x="589" y="-449.5" font-family="Helvetica,sans-Serif" font-size="10.00">scram::core::zbdd::</text>
<text text-anchor="middle" x="648" y="-438.5" font-family="Helvetica,sans-Serif" font-size="10.00">CutSetContainer::Minimize</text>
</a>
</g>
</g>
<!-- Node14&#45;&gt;Node15 -->
<g id="edge21" class="edge"><title>Node14&#45;&gt;Node15</title>
<path fill="none" stroke="midnightblue" d="M525.295,-412.972C546.9,-418.924 571.165,-425.609 592.31,-431.434"/>
<polygon fill="midnightblue" stroke="midnightblue" points="526.147,-409.577 515.576,-410.295 524.287,-416.325 526.147,-409.577"/>
</g>
<!-- Node17&#45;&gt;Node5 -->
<g id="edge24" class="edge"><title>Node17&#45;&gt;Node5</title>
<path fill="none" stroke="midnightblue" d="M318.983,-213.96C339.578,-211.732 362.76,-209.597 384,-208.5 455.46,-204.809 474.668,-195.325 545,-208.5 645.947,-227.41 757.562,-282.475 800.158,-304.865"/>
<polygon fill="midnightblue" stroke="midnightblue" points="318.34,-210.51 308.787,-215.092 319.113,-217.467 318.34,-210.51"/>
</g>
<!-- Node18 -->
<g id="node18" class="node"><title>Node18</title>
<g id="a_node18"><a xlink:href="classscram_1_1core_1_1zbdd_1_1CutSetContainer.xhtml#a478c89f64731781882b50ec55898900b" target="_top" xlink:title="Gathers all module indices in the cut sets. ">
<polygon fill="white" stroke="black" points="384,-217.5 384,-247.5 545,-247.5 545,-217.5 384,-217.5"/>
<text text-anchor="start" x="392" y="-235.5" font-family="Helvetica,sans-Serif" font-size="10.00">scram::core::zbdd::</text>
<text text-anchor="middle" x="464.5" y="-224.5" font-family="Helvetica,sans-Serif" font-size="10.00">CutSetContainer::GatherModules</text>
</a>
</g>
</g>
<!-- Node17&#45;&gt;Node18 -->
<g id="edge25" class="edge"><title>Node17&#45;&gt;Node18</title>
<path fill="none" stroke="midnightblue" d="M318.737,-224.732C339.139,-225.827 362.248,-227.067 383.917,-228.23"/>
<polygon fill="midnightblue" stroke="midnightblue" points="318.822,-221.232 308.649,-224.191 318.447,-228.222 318.822,-221.232"/>
</g>
<!-- Node20&#45;&gt;Node5 -->
<g id="edge28" class="edge"><title>Node20&#45;&gt;Node5</title>
<path fill="none" stroke="midnightblue" d="M318.58,-273.116C405.98,-277.224 573.232,-286.224 715,-300.5 728.556,-301.865 743.076,-303.643 756.81,-305.471"/>
<polygon fill="midnightblue" stroke="midnightblue" points="318.733,-269.62 308.581,-272.651 318.408,-276.612 318.733,-269.62"/>
</g>
<!-- Node20&#45;&gt;Node18 -->
<g id="edge29" class="edge"><title>Node20&#45;&gt;Node18</title>
<path fill="none" stroke="midnightblue" d="M318.737,-259.334C339.139,-255.552 362.248,-251.269 383.917,-247.252"/>
<polygon fill="midnightblue" stroke="midnightblue" points="317.843,-255.94 308.649,-261.204 319.119,-262.823 317.843,-255.94"/>
</g>
</g>
</svg>
        <g id="navigator" transform="translate(0 0)" fill="#404254">
                <rect fill="#f2f5e9" fill-opacity="0.5" stroke="#606060" stroke-width=".5" x="0" y="0" width="60" height="60"/>
                <use id="zoomplus" xlink:href="#zoomPlus" x="17" y="9" onmousedown="handleZoom(evt,'in')"/>
                <use id="zoomminus" xlink:href="#zoomMin" x="42" y="9" onmousedown="handleZoom(evt,'out')"/>
                <use id="reset" xlink:href="#resetDef" x="30" y="36" onmousedown="handleReset()"/>
                <g id="arrowUp" xlink:href="#dirArrow" transform="translate(30 24)" onmousedown="handlePan(0,-1)">
                  <use xlink:href="#rim" fill="#404040">
                        <set attributeName="fill" to="#808080" begin="arrowUp.mouseover" end="arrowUp.mouseout"/>
                  </use>
                  <path fill="none" stroke="white" stroke-width="1.5" d="M0,-3.0v7 M-2.5,-0.5L0,-3.0L2.5,-0.5"/>
                </g>
                <g id="arrowRight" xlink:href="#dirArrow" transform="rotate(90) translate(36 -43)" onmousedown="handlePan(1,0)">
                  <use xlink:href="#rim" fill="#404040">
                        <set attributeName="fill" to="#808080" begin="arrowRight.mouseover" end="arrowRight.mouseout"/>
                  </use>
                  <path fill="none" stroke="white" stroke-width="1.5" d="M0,-3.0v7 M-2.5,-0.5L0,-3.0L2.5,-0.5"/>
                </g>
                <g id="arrowDown" xlink:href="#dirArrow" transform="rotate(180) translate(-30 -48)" onmousedown="handlePan(0,1)">
                  <use xlink:href="#rim" fill="#404040">
                        <set attributeName="fill" to="#808080" begin="arrowDown.mouseover" end="arrowDown.mouseout"/>
                  </use>
                  <path fill="none" stroke="white" stroke-width="1.5" d="M0,-3.0v7 M-2.5,-0.5L0,-3.0L2.5,-0.5"/>
                </g>
                <g id="arrowLeft" xlink:href="#dirArrow" transform="rotate(270) translate(-36 17)" onmousedown="handlePan(-1,0)">
                  <use xlink:href="#rim" fill="#404040">
                        <set attributeName="fill" to="#808080" begin="arrowLeft.mouseover" end="arrowLeft.mouseout"/>
                  </use>
                  <path fill="none" stroke="white" stroke-width="1.5" d="M0,-3.0v7 M-2.5,-0.5L0,-3.0L2.5,-0.5"/>
                </g>
        </g>
        <svg viewBox="0 0 15 15" width="100%" height="30px" preserveAspectRatio="xMaxYMin meet">
         <g id="arrow_out" transform="scale(0.3 0.3)">
          <a xlink:href="classscram_1_1core_1_1SetNode_adfcfad8dde1eb94ed51d8075a5ad6344_icgraph_org.svg" target="_base">
           <rect id="button" ry="5" rx="5" y="6" x="6" height="38" width="38"
                fill="#f2f5e9" fill-opacity="0.5" stroke="#606060" stroke-width="1.0"/>
           <path id="arrow"
             d="M 11.500037,31.436501 C 11.940474,20.09759 22.043105,11.32322 32.158766,21.979434 L 37.068811,17.246167 C 37.068811,17.246167 37.088388,32 37.088388,32 L 22.160133,31.978069 C 22.160133,31.978069 26.997745,27.140456 26.997745,27.140456 C 18.528582,18.264221 13.291696,25.230495 11.500037,31.436501 z"
             style="fill:#404040;"/>
          </a>
         </g>
        </svg>
</svg>
