<?xml version="1.0" encoding="UTF-8" standalone="no"?>
<!DOCTYPE svg PUBLIC "-//W3C//DTD SVG 1.1//EN"
 "http://www.w3.org/Graphics/SVG/1.1/DTD/svg11.dtd">
<!-- Generated by graphviz version 2.38.0 (20140413.2041)
 -->
<!-- Title: scram::core::Preprocessor::HandleDistributiveArgs Pages: 1 -->
<svg width="649pt" height="186pt"
 viewBox="0.00 0.00 649.00 186.00" xmlns="http://www.w3.org/2000/svg" xmlns:xlink="http://www.w3.org/1999/xlink">
<g id="graph0" class="graph" transform="scale(1 1) rotate(0) translate(4 182)">
<title>scram::core::Preprocessor::HandleDistributiveArgs</title>
<polygon fill="white" stroke="none" points="-4,4 -4,-182 645,-182 645,4 -4,4"/>
<!-- Node1 -->
<g id="node1" class="node"><title>Node1</title>
<polygon fill="#bfbfbf" stroke="black" points="0,-73.5 0,-103.5 132,-103.5 132,-73.5 0,-73.5"/>
<text text-anchor="start" x="8" y="-91.5" font-family="Helvetica,sans-Serif" font-size="10.00">scram::core::Preprocessor</text>
<text text-anchor="middle" x="66" y="-80.5" font-family="Helvetica,sans-Serif" font-size="10.00">::HandleDistributiveArgs</text>
</g>
<!-- Node2 -->
<g id="node2" class="node"><title>Node2</title>
<g id="a_node2"><a xlink:href="classscram_1_1core_1_1Preprocessor.xhtml#a29d3775965ee487d000591739fdbaa4b" target="_top" xlink:title="Detects relationships between the gate and its distributive arguments to remove unnecessary candidate...">
<polygon fill="white" stroke="black" points="170.5,-147.5 170.5,-177.5 302.5,-177.5 302.5,-147.5 170.5,-147.5"/>
<text text-anchor="start" x="178.5" y="-165.5" font-family="Helvetica,sans-Serif" font-size="10.00">scram::core::Preprocessor</text>
<text text-anchor="middle" x="236.5" y="-154.5" font-family="Helvetica,sans-Serif" font-size="10.00">::FilterDistributiveArgs</text>
</a>
</g>
</g>
<!-- Node1&#45;&gt;Node2 -->
<g id="edge1" class="edge"><title>Node1&#45;&gt;Node2</title>
<path fill="none" stroke="midnightblue" d="M95.3137,-103.639C115.333,-114.064 142.957,-127.893 168,-138.5 172.352,-140.343 176.899,-142.168 181.488,-143.939"/>
<polygon fill="midnightblue" stroke="midnightblue" points="180.324,-147.241 190.916,-147.489 182.79,-140.69 180.324,-147.241"/>
</g>
<!-- Node3 -->
<g id="node3" class="node"><title>Node3</title>
<g id="a_node3"><a xlink:href="classscram_1_1core_1_1Preprocessor.xhtml#af9b5fba2247a02afe6cf480a405b6ca0" target="_top" xlink:title="Finds intersections of common arguments of gates. ">
<polygon fill="white" stroke="black" points="170.5,-98.5 170.5,-128.5 302.5,-128.5 302.5,-98.5 170.5,-98.5"/>
<text text-anchor="start" x="178.5" y="-116.5" font-family="Helvetica,sans-Serif" font-size="10.00">scram::core::Preprocessor</text>
<text text-anchor="middle" x="236.5" y="-105.5" font-family="Helvetica,sans-Serif" font-size="10.00">::GroupCommonParents</text>
</a>
</g>
</g>
<!-- Node1&#45;&gt;Node3 -->
<g id="edge2" class="edge"><title>Node1&#45;&gt;Node3</title>
<path fill="none" stroke="midnightblue" d="M132.146,-98.1657C141.328,-99.5279 150.829,-100.937 160.181,-102.325"/>
<polygon fill="midnightblue" stroke="midnightblue" points="159.844,-105.813 170.249,-103.819 160.871,-98.889 159.844,-105.813"/>
</g>
<!-- Node4 -->
<g id="node4" class="node"><title>Node4</title>
<g id="a_node4"><a xlink:href="classscram_1_1core_1_1Preprocessor.xhtml#a51340a3bcfa9785e430bab27ee08bbbf" target="_top" xlink:title="Groups distributive gate arguments for future factorization. ">
<polygon fill="white" stroke="black" points="170.5,-49.5 170.5,-79.5 302.5,-79.5 302.5,-49.5 170.5,-49.5"/>
<text text-anchor="start" x="178.5" y="-67.5" font-family="Helvetica,sans-Serif" font-size="10.00">scram::core::Preprocessor</text>
<text text-anchor="middle" x="236.5" y="-56.5" font-family="Helvetica,sans-Serif" font-size="10.00">::GroupDistributiveArgs</text>
</a>
</g>
</g>
<!-- Node1&#45;&gt;Node4 -->
<g id="edge3" class="edge"><title>Node1&#45;&gt;Node4</title>
<path fill="none" stroke="midnightblue" d="M132.146,-79.221C141.328,-77.9132 150.829,-76.56 160.181,-75.2279"/>
<polygon fill="midnightblue" stroke="midnightblue" points="160.842,-78.6691 170.249,-73.7939 159.855,-71.7391 160.842,-78.6691"/>
</g>
<!-- Node7 -->
<g id="node7" class="node"><title>Node7</title>
<g id="a_node7"><a xlink:href="classscram_1_1core_1_1Preprocessor.xhtml#a2557ab80c04d7f91372992edfbedd93a" target="_top" xlink:title="Transforms distributive of arguments gates into a new subgraph. ">
<polygon fill="white" stroke="black" points="168,-0.5 168,-30.5 305,-30.5 305,-0.5 168,-0.5"/>
<text text-anchor="start" x="176" y="-18.5" font-family="Helvetica,sans-Serif" font-size="10.00">scram::core::Preprocessor</text>
<text text-anchor="middle" x="236.5" y="-7.5" font-family="Helvetica,sans-Serif" font-size="10.00">::TransformDistributiveArgs</text>
</a>
</g>
</g>
<!-- Node1&#45;&gt;Node7 -->
<g id="edge6" class="edge"><title>Node1&#45;&gt;Node7</title>
<path fill="none" stroke="midnightblue" d="M97.1769,-73.2939C117.085,-63.4778 143.851,-50.6865 168,-40.5 173.037,-38.3751 178.325,-36.2463 183.629,-34.177"/>
<polygon fill="midnightblue" stroke="midnightblue" points="185.06,-37.377 193.145,-30.5303 182.555,-30.8405 185.06,-37.377"/>
</g>
<!-- Node5 -->
<g id="node5" class="node"><title>Node5</title>
<g id="a_node5"><a xlink:href="classscram_1_1core_1_1Preprocessor.xhtml#a3c51e098f0ff45be068f68296323f45f" target="_top" xlink:title="Finds an optimal way of grouping options. ">
<polygon fill="white" stroke="black" points="341,-49.5 341,-79.5 473,-79.5 473,-49.5 341,-49.5"/>
<text text-anchor="start" x="349" y="-67.5" font-family="Helvetica,sans-Serif" font-size="10.00">scram::core::Preprocessor</text>
<text text-anchor="middle" x="407" y="-56.5" font-family="Helvetica,sans-Serif" font-size="10.00">::FindOptionGroup</text>
</a>
</g>
</g>
<!-- Node4&#45;&gt;Node5 -->
<g id="edge4" class="edge"><title>Node4&#45;&gt;Node5</title>
<path fill="none" stroke="midnightblue" d="M302.646,-64.5C311.828,-64.5 321.329,-64.5 330.681,-64.5"/>
<polygon fill="midnightblue" stroke="midnightblue" points="330.749,-68.0001 340.749,-64.5 330.749,-61.0001 330.749,-68.0001"/>
</g>
<!-- Node6 -->
<g id="node6" class="node"><title>Node6</title>
<g id="a_node6"><a xlink:href="classscram_1_1core_1_1Preprocessor.xhtml#adbaee2a993e0538280dc437d0a3b849f" target="_top" xlink:title="Finds the starting option for group formation. ">
<polygon fill="white" stroke="black" points="509,-49.5 509,-79.5 641,-79.5 641,-49.5 509,-49.5"/>
<text text-anchor="start" x="517" y="-67.5" font-family="Helvetica,sans-Serif" font-size="10.00">scram::core::Preprocessor</text>
<text text-anchor="middle" x="575" y="-56.5" font-family="Helvetica,sans-Serif" font-size="10.00">::FindBaseOption</text>
</a>
</g>
</g>
<!-- Node5&#45;&gt;Node6 -->
<g id="edge5" class="edge"><title>Node5&#45;&gt;Node6</title>
<path fill="none" stroke="midnightblue" d="M473.131,-64.5C481.461,-64.5 490.044,-64.5 498.521,-64.5"/>
<polygon fill="midnightblue" stroke="midnightblue" points="498.784,-68.0001 508.784,-64.5 498.784,-61.0001 498.784,-68.0001"/>
</g>
</g>
</svg>
