<?xml version="1.0" encoding="UTF-8" standalone="no"?>
<!DOCTYPE svg PUBLIC "-//W3C//DTD SVG 1.1//EN"
 "http://www.w3.org/Graphics/SVG/1.1/DTD/svg11.dtd">
<!-- Generated by graphviz version 2.38.0 (20140413.2041)
 -->
<!-- Title: scram::core::Preprocessor::PropagateConstant Pages: 1 -->
<svg width="2084pt" height="335pt"
 viewBox="0.00 0.00 2084.00 335.26" xmlns="http://www.w3.org/2000/svg" xmlns:xlink="http://www.w3.org/1999/xlink">
<g id="graph0" class="graph" transform="scale(1 1) rotate(0) translate(4 331.264)">
<title>scram::core::Preprocessor::PropagateConstant</title>
<polygon fill="white" stroke="none" points="-4,4 -4,-331.264 2080,-331.264 2080,4 -4,4"/>
<!-- Node1 -->
<g id="node1" class="node"><title>Node1</title>
<polygon fill="#bfbfbf" stroke="black" points="0,-126.764 0,-156.764 132,-156.764 132,-126.764 0,-126.764"/>
<text text-anchor="start" x="8" y="-144.764" font-family="Helvetica,sans-Serif" font-size="10.00">scram::core::Preprocessor</text>
<text text-anchor="middle" x="66" y="-133.764" font-family="Helvetica,sans-Serif" font-size="10.00">::PropagateConstant</text>
</g>
<!-- Node2 -->
<g id="node2" class="node"><title>Node2</title>
<g id="a_node2"><a xlink:href="classscram_1_1core_1_1Preprocessor.xhtml#ac3279b95fc83a2ae909c011de083d57e" target="_top" xlink:title="Clears all constant gates registered for removal by algorithms or other preprocessing functions...">
<polygon fill="white" stroke="black" points="336,-211.764 336,-241.764 468,-241.764 468,-211.764 336,-211.764"/>
<text text-anchor="start" x="344" y="-229.764" font-family="Helvetica,sans-Serif" font-size="10.00">scram::core::Preprocessor</text>
<text text-anchor="middle" x="402" y="-218.764" font-family="Helvetica,sans-Serif" font-size="10.00">::ClearConstGates</text>
</a>
</g>
</g>
<!-- Node1&#45;&gt;Node2 -->
<g id="edge1" class="edge"><title>Node1&#45;&gt;Node2</title>
<path fill="none" stroke="midnightblue" d="M135.827,-159.28C196.56,-174.736 284.15,-197.027 341.804,-211.699"/>
<polygon fill="midnightblue" stroke="midnightblue" points="136.498,-155.839 125.944,-156.765 134.772,-162.623 136.498,-155.839"/>
</g>
<!-- Node21 -->
<g id="node21" class="node"><title>Node21</title>
<g id="a_node21"><a xlink:href="classscram_1_1core_1_1Preprocessor.xhtml#af8e589c264a98fa4b80a854b18950a0b" target="_top" xlink:title="Propagates constant gates bottom&#45;up. ">
<polygon fill="white" stroke="black" points="168,-38.7643 168,-68.7643 300,-68.7643 300,-38.7643 168,-38.7643"/>
<text text-anchor="start" x="176" y="-56.7643" font-family="Helvetica,sans-Serif" font-size="10.00">scram::core::Preprocessor</text>
<text text-anchor="middle" x="234" y="-45.7643" font-family="Helvetica,sans-Serif" font-size="10.00">::PropagateConstant</text>
</a>
</g>
</g>
<!-- Node1&#45;&gt;Node21 -->
<g id="edge26" class="edge"><title>Node1&#45;&gt;Node21</title>
<path fill="none" stroke="midnightblue" d="M100.757,-121.376C120.188,-109.895 145.202,-95.5416 168,-83.7643 177.938,-78.6303 188.922,-73.3982 198.988,-68.7716"/>
<polygon fill="midnightblue" stroke="midnightblue" points="98.7851,-118.477 91.9759,-126.594 102.361,-124.495 98.7851,-118.477"/>
</g>
<!-- Node22 -->
<g id="node22" class="node"><title>Node22</title>
<g id="a_node22"><a xlink:href="classscram_1_1core_1_1Preprocessor.xhtml#a860e7142f3e0b33ca799f1d8218eb091" target="_top" xlink:title="Propagate NULL type gates bottom&#45;up. ">
<polygon fill="white" stroke="black" points="168,-126.764 168,-156.764 300,-156.764 300,-126.764 168,-126.764"/>
<text text-anchor="start" x="176" y="-144.764" font-family="Helvetica,sans-Serif" font-size="10.00">scram::core::Preprocessor</text>
<text text-anchor="middle" x="234" y="-133.764" font-family="Helvetica,sans-Serif" font-size="10.00">::PropagateNullGate</text>
</a>
</g>
</g>
<!-- Node1&#45;&gt;Node22 -->
<g id="edge27" class="edge"><title>Node1&#45;&gt;Node22</title>
<path fill="none" stroke="midnightblue" d="M142.393,-135.04C150.869,-134.983 159.452,-135.021 167.784,-135.154"/>
<polygon fill="midnightblue" stroke="midnightblue" points="142.091,-131.543 132.131,-135.155 142.17,-138.542 142.091,-131.543"/>
</g>
<!-- Node29 -->
<g id="node29" class="node"><title>Node29</title>
<g id="a_node29"><a xlink:href="classscram_1_1core_1_1Preprocessor.xhtml#a9a75384aa66719901b61bbc0a2117470" target="_top" xlink:title="Removes all Boolean constants from the Boolean graph according to the Boolean logic of the gates...">
<polygon fill="white" stroke="black" points="336,-24.7643 336,-54.7643 468,-54.7643 468,-24.7643 336,-24.7643"/>
<text text-anchor="start" x="344" y="-42.7643" font-family="Helvetica,sans-Serif" font-size="10.00">scram::core::Preprocessor</text>
<text text-anchor="middle" x="402" y="-31.7643" font-family="Helvetica,sans-Serif" font-size="10.00">::RemoveConstants</text>
</a>
</g>
</g>
<!-- Node1&#45;&gt;Node29 -->
<g id="edge42" class="edge"><title>Node1&#45;&gt;Node29</title>
<path fill="none" stroke="midnightblue" d="M139.76,-124.174C186.006,-112.482 246.943,-96.1285 300,-78.7643 321.794,-71.6316 345.754,-62.4399 364.866,-54.7716"/>
<polygon fill="midnightblue" stroke="midnightblue" points="138.672,-120.838 129.827,-126.67 140.378,-127.627 138.672,-120.838"/>
</g>
<!-- Node3 -->
<g id="node3" class="node"><title>Node3</title>
<g id="a_node3"><a xlink:href="classscram_1_1core_1_1Preprocessor.xhtml#a00288bef180767d7c79e3c79a33ef2d8" target="_top" xlink:title="Runs gate coalescence on the whole Boolean graph. ">
<polygon fill="white" stroke="black" points="679,-296.764 679,-326.764 811,-326.764 811,-296.764 679,-296.764"/>
<text text-anchor="start" x="687" y="-314.764" font-family="Helvetica,sans-Serif" font-size="10.00">scram::core::Preprocessor</text>
<text text-anchor="middle" x="745" y="-303.764" font-family="Helvetica,sans-Serif" font-size="10.00">::CoalesceGates</text>
</a>
</g>
</g>
<!-- Node2&#45;&gt;Node3 -->
<g id="edge2" class="edge"><title>Node2&#45;&gt;Node3</title>
<path fill="none" stroke="midnightblue" d="M425.017,-248.948C444.089,-266.561 473.37,-289.962 504,-300.764 560.643,-320.741 629.501,-321.725 678.909,-318.761"/>
<polygon fill="midnightblue" stroke="midnightblue" points="427.402,-246.387 417.738,-242.046 422.586,-251.466 427.402,-246.387"/>
</g>
<!-- Node17 -->
<g id="node17" class="node"><title>Node17</title>
<g id="a_node17"><a xlink:href="classscram_1_1core_1_1Preprocessor.xhtml#ac0abd7f5b54f98643644110b160569bd" target="_top" xlink:title="Detects and replaces multiple definitions of gates. ">
<polygon fill="white" stroke="black" points="504,-260.764 504,-290.764 643,-290.764 643,-260.764 504,-260.764"/>
<text text-anchor="start" x="512" y="-278.764" font-family="Helvetica,sans-Serif" font-size="10.00">scram::core::Preprocessor</text>
<text text-anchor="middle" x="573.5" y="-267.764" font-family="Helvetica,sans-Serif" font-size="10.00">::ProcessMultipleDefinitions</text>
</a>
</g>
</g>
<!-- Node2&#45;&gt;Node17 -->
<g id="edge20" class="edge"><title>Node2&#45;&gt;Node17</title>
<path fill="none" stroke="midnightblue" d="M464.899,-244.658C483.13,-249.929 502.886,-255.64 520.434,-260.713"/>
<polygon fill="midnightblue" stroke="midnightblue" points="465.817,-241.281 455.239,-241.866 463.873,-248.005 465.817,-241.281"/>
</g>
<!-- Node18 -->
<g id="node18" class="node"><title>Node18</title>
<g id="a_node18"><a xlink:href="classscram_1_1core_1_1Preprocessor.xhtml#a651b32816243e37c58b7835220997ef2" target="_top" xlink:title="Merges common arguments for a specific group of gates. ">
<polygon fill="white" stroke="black" points="507.5,-162.764 507.5,-192.764 639.5,-192.764 639.5,-162.764 507.5,-162.764"/>
<text text-anchor="start" x="515.5" y="-180.764" font-family="Helvetica,sans-Serif" font-size="10.00">scram::core::Preprocessor</text>
<text text-anchor="middle" x="573.5" y="-169.764" font-family="Helvetica,sans-Serif" font-size="10.00">::MergeCommonArgs</text>
</a>
</g>
</g>
<!-- Node2&#45;&gt;Node18 -->
<g id="edge22" class="edge"><title>Node2&#45;&gt;Node18</title>
<path fill="none" stroke="midnightblue" d="M464.899,-208.87C483.13,-203.6 502.886,-197.889 520.434,-192.816"/>
<polygon fill="midnightblue" stroke="midnightblue" points="463.873,-205.523 455.239,-211.663 465.817,-212.248 463.873,-205.523"/>
</g>
<!-- Node19 -->
<g id="node19" class="node"><title>Node19</title>
<g id="a_node19"><a xlink:href="classscram_1_1core_1_1Preprocessor.xhtml#a4086c57695d49b4770915d5d53bd47de" target="_top" xlink:title="Tries to simplify the graph by removing redundancies generated by a common node. ">
<polygon fill="white" stroke="black" points="507.5,-211.764 507.5,-241.764 639.5,-241.764 639.5,-211.764 507.5,-211.764"/>
<text text-anchor="start" x="515.5" y="-229.764" font-family="Helvetica,sans-Serif" font-size="10.00">scram::core::Preprocessor</text>
<text text-anchor="middle" x="573.5" y="-218.764" font-family="Helvetica,sans-Serif" font-size="10.00">::ProcessCommonNode</text>
</a>
</g>
</g>
<!-- Node2&#45;&gt;Node19 -->
<g id="edge23" class="edge"><title>Node2&#45;&gt;Node19</title>
<path fill="none" stroke="midnightblue" d="M478.119,-226.764C487.864,-226.764 497.781,-226.764 507.346,-226.764"/>
<polygon fill="midnightblue" stroke="midnightblue" points="478.048,-223.264 468.048,-226.764 478.048,-230.264 478.048,-223.264"/>
</g>
<!-- Node4 -->
<g id="node4" class="node"><title>Node4</title>
<g id="a_node4"><a xlink:href="classscram_1_1core_1_1Preprocessor.xhtml#a9d5f89471499508eb9e6c01ea43e0f15" target="_top" xlink:title="Preprocessing phase of the original structure of the graph. ">
<polygon fill="white" stroke="black" points="847,-208.764 847,-238.764 979,-238.764 979,-208.764 847,-208.764"/>
<text text-anchor="start" x="855" y="-226.764" font-family="Helvetica,sans-Serif" font-size="10.00">scram::core::Preprocessor</text>
<text text-anchor="middle" x="913" y="-215.764" font-family="Helvetica,sans-Serif" font-size="10.00">::RunPhaseTwo</text>
</a>
</g>
</g>
<!-- Node3&#45;&gt;Node4 -->
<g id="edge3" class="edge"><title>Node3&#45;&gt;Node4</title>
<path fill="none" stroke="midnightblue" d="M791.992,-292.144C798.499,-288.908 805.008,-285.411 811,-281.764 828.315,-271.226 829.685,-264.302 847,-253.764 855.918,-248.337 865.982,-243.241 875.48,-238.844"/>
<polygon fill="midnightblue" stroke="midnightblue" points="790.024,-289.206 782.52,-296.685 793.051,-295.518 790.024,-289.206"/>
</g>
<!-- Node13 -->
<g id="node13" class="node"><title>Node13</title>
<g id="a_node13"><a xlink:href="classscram_1_1core_1_1Preprocessor.xhtml#a3569bbcd5e863c750cdfa69115399600" target="_top" xlink:title="The final phase that cleans up the graph, and puts the structure of the graph ready for analysis...">
<polygon fill="white" stroke="black" points="1015,-252.764 1015,-282.764 1147,-282.764 1147,-252.764 1015,-252.764"/>
<text text-anchor="start" x="1023" y="-270.764" font-family="Helvetica,sans-Serif" font-size="10.00">scram::core::Preprocessor</text>
<text text-anchor="middle" x="1081" y="-259.764" font-family="Helvetica,sans-Serif" font-size="10.00">::RunPhaseFive</text>
</a>
</g>
</g>
<!-- Node3&#45;&gt;Node13 -->
<g id="edge18" class="edge"><title>Node3&#45;&gt;Node13</title>
<path fill="none" stroke="midnightblue" d="M812.526,-294.488C823.967,-291.939 835.783,-289.568 847,-287.764 903.319,-278.707 968.002,-273.567 1014.9,-270.773"/>
<polygon fill="midnightblue" stroke="midnightblue" points="811.559,-291.119 802.593,-296.764 813.122,-297.942 811.559,-291.119"/>
</g>
<!-- Node16 -->
<g id="node16" class="node"><title>Node16</title>
<g id="a_node16"><a xlink:href="classscram_1_1core_1_1Preprocessor.xhtml#a3a0500bd52152df42fca486c97043140" target="_top" xlink:title="Coalesces positive argument gates with the same OR or AND logic as parents. ">
<polygon fill="white" stroke="black" points="847,-296.764 847,-326.764 979,-326.764 979,-296.764 847,-296.764"/>
<text text-anchor="start" x="855" y="-314.764" font-family="Helvetica,sans-Serif" font-size="10.00">scram::core::Preprocessor</text>
<text text-anchor="middle" x="913" y="-303.764" font-family="Helvetica,sans-Serif" font-size="10.00">::CoalesceGates</text>
</a>
</g>
</g>
<!-- Node3&#45;&gt;Node16 -->
<g id="edge19" class="edge"><title>Node3&#45;&gt;Node16</title>
<path fill="none" stroke="midnightblue" d="M821.393,-311.764C829.869,-311.764 838.452,-311.764 846.784,-311.764"/>
<polygon fill="midnightblue" stroke="midnightblue" points="821.131,-308.264 811.131,-311.764 821.131,-315.264 821.131,-308.264"/>
</g>
<!-- Node5 -->
<g id="node5" class="node"><title>Node5</title>
<g id="a_node5"><a xlink:href="classscram_1_1core_1_1Preprocessor.xhtml#a2b6705e815fa3d02119c405b483766d5" target="_top" xlink:title="Runs the default preprocessing that achieves the graph in a normal form. ">
<polygon fill="white" stroke="black" points="1183,-113.264 1183,-132.264 1339,-132.264 1339,-113.264 1183,-113.264"/>
<text text-anchor="middle" x="1261" y="-120.264" font-family="Helvetica,sans-Serif" font-size="10.00">scram::core::Preprocessor::Run</text>
</a>
</g>
</g>
<!-- Node4&#45;&gt;Node5 -->
<g id="edge4" class="edge"><title>Node4&#45;&gt;Node5</title>
<path fill="none" stroke="midnightblue" d="M975.026,-205.95C1048.49,-184.505 1169.19,-149.272 1227.05,-132.381"/>
<polygon fill="midnightblue" stroke="midnightblue" points="974.045,-202.591 965.426,-208.753 976.006,-209.31 974.045,-202.591"/>
</g>
<!-- Node4&#45;&gt;Node13 -->
<g id="edge12" class="edge"><title>Node4&#45;&gt;Node13</title>
<path fill="none" stroke="midnightblue" d="M980.378,-241.358C994.598,-245.128 1009.5,-249.077 1023.31,-252.738"/>
<polygon fill="midnightblue" stroke="midnightblue" points="981.226,-237.963 970.663,-238.784 979.433,-244.729 981.226,-237.963"/>
</g>
<!-- Node14 -->
<g id="node14" class="node"><title>Node14</title>
<g id="a_node14"><a xlink:href="classscram_1_1core_1_1Preprocessor.xhtml#a5c224938dfba861f061525658bd7b156" target="_top" xlink:title="Propagation of complements. ">
<polygon fill="white" stroke="black" points="1195,-208.764 1195,-238.764 1327,-238.764 1327,-208.764 1195,-208.764"/>
<text text-anchor="start" x="1203" y="-226.764" font-family="Helvetica,sans-Serif" font-size="10.00">scram::core::Preprocessor</text>
<text text-anchor="middle" x="1261" y="-215.764" font-family="Helvetica,sans-Serif" font-size="10.00">::RunPhaseFour</text>
</a>
</g>
</g>
<!-- Node4&#45;&gt;Node14 -->
<g id="edge14" class="edge"><title>Node4&#45;&gt;Node14</title>
<path fill="none" stroke="midnightblue" d="M989.097,-223.764C1050.49,-223.764 1136.41,-223.764 1194.92,-223.764"/>
<polygon fill="midnightblue" stroke="midnightblue" points="989.08,-220.264 979.08,-223.764 989.08,-227.264 989.08,-220.264"/>
</g>
<!-- Node15 -->
<g id="node15" class="node"><title>Node15</title>
<g id="a_node15"><a xlink:href="classscram_1_1core_1_1Preprocessor.xhtml#abf2c66723172a85b2ae87ef2a034cd1f" target="_top" xlink:title="Application of gate normalization. ">
<polygon fill="white" stroke="black" points="1015,-107.764 1015,-137.764 1147,-137.764 1147,-107.764 1015,-107.764"/>
<text text-anchor="start" x="1023" y="-125.764" font-family="Helvetica,sans-Serif" font-size="10.00">scram::core::Preprocessor</text>
<text text-anchor="middle" x="1081" y="-114.764" font-family="Helvetica,sans-Serif" font-size="10.00">::RunPhaseThree</text>
</a>
</g>
</g>
<!-- Node4&#45;&gt;Node15 -->
<g id="edge16" class="edge"><title>Node4&#45;&gt;Node15</title>
<path fill="none" stroke="midnightblue" d="M947.409,-203.437C979.297,-184.035 1026.61,-155.251 1055.25,-137.823"/>
<polygon fill="midnightblue" stroke="midnightblue" points="945.576,-200.456 938.852,-208.644 949.214,-206.436 945.576,-200.456"/>
</g>
<!-- Node6 -->
<g id="node6" class="node"><title>Node6</title>
<g id="a_node6"><a xlink:href="classscram_1_1core_1_1FaultTreeAnalyzer.xhtml#af6d3e735d4200c3efed0164c58aabf57" target="_top" xlink:title="Runs fault tree analysis with the given algorithm. ">
<polygon fill="white" stroke="black" points="1381.5,-55.7643 1381.5,-85.7643 1535.5,-85.7643 1535.5,-55.7643 1381.5,-55.7643"/>
<text text-anchor="start" x="1389.5" y="-73.7643" font-family="Helvetica,sans-Serif" font-size="10.00">scram::core::FaultTreeAnalyzer</text>
<text text-anchor="middle" x="1458.5" y="-62.7643" font-family="Helvetica,sans-Serif" font-size="10.00">::Analyze</text>
</a>
</g>
</g>
<!-- Node5&#45;&gt;Node6 -->
<g id="edge5" class="edge"><title>Node5&#45;&gt;Node6</title>
<path fill="none" stroke="midnightblue" d="M1307.71,-110.607C1335.49,-103.218 1371.18,-93.7231 1400.76,-85.8561"/>
<polygon fill="midnightblue" stroke="midnightblue" points="1306.62,-107.274 1297.86,-113.227 1308.42,-114.039 1306.62,-107.274"/>
</g>
<!-- Node10 -->
<g id="node10" class="node"><title>Node10</title>
<g id="a_node10"><a xlink:href="classscram_1_1core_1_1ProbabilityAnalyzer_3_01Bdd_01_4.xhtml#a517506c181102100cc6a3e96710813c6" target="_top" xlink:title="Calculates the total probability with a different set of probability values than the one given upon c...">
<polygon fill="white" stroke="black" points="1379,-153.264 1379,-194.264 1538,-194.264 1538,-153.264 1379,-153.264"/>
<text text-anchor="start" x="1387" y="-182.264" font-family="Helvetica,sans-Serif" font-size="10.00">scram::core::Probability</text>
<text text-anchor="start" x="1387" y="-171.264" font-family="Helvetica,sans-Serif" font-size="10.00">Analyzer&lt; Bdd &gt;::CalculateTotal</text>
<text text-anchor="middle" x="1458.5" y="-160.264" font-family="Helvetica,sans-Serif" font-size="10.00">Probability</text>
</a>
</g>
</g>
<!-- Node5&#45;&gt;Node10 -->
<g id="edge9" class="edge"><title>Node5&#45;&gt;Node10</title>
<path fill="none" stroke="midnightblue" d="M1308.69,-134.945C1329.67,-140.417 1355.01,-147.027 1378.78,-153.23"/>
<polygon fill="midnightblue" stroke="midnightblue" points="1309.33,-131.495 1298.77,-132.357 1307.56,-138.268 1309.33,-131.495"/>
</g>
<!-- Node11 -->
<g id="node11" class="node"><title>Node11</title>
<g id="a_node11"><a xlink:href="classscram_1_1core_1_1CustomPreprocessor_3_01Bdd_01_4.xhtml#a8cf4307236cd521e39a2c6feb21f3214" target="_top" xlink:title="Performs preprocessing for analyses with Binary Decision Diagrams. ">
<polygon fill="white" stroke="black" points="1375,-104.764 1375,-134.764 1542,-134.764 1542,-104.764 1375,-104.764"/>
<text text-anchor="start" x="1383" y="-122.764" font-family="Helvetica,sans-Serif" font-size="10.00">scram::core::CustomPreprocessor</text>
<text text-anchor="middle" x="1458.5" y="-111.764" font-family="Helvetica,sans-Serif" font-size="10.00">&lt; Bdd &gt;::Run</text>
</a>
</g>
</g>
<!-- Node5&#45;&gt;Node11 -->
<g id="edge10" class="edge"><title>Node5&#45;&gt;Node11</title>
<path fill="none" stroke="midnightblue" d="M1349.44,-121.422C1357.84,-121.294 1366.33,-121.163 1374.68,-121.035"/>
<polygon fill="midnightblue" stroke="midnightblue" points="1349.21,-117.925 1339.27,-121.579 1349.32,-124.925 1349.21,-117.925"/>
</g>
<!-- Node12 -->
<g id="node12" class="node"><title>Node12</title>
<g id="a_node12"><a xlink:href="classscram_1_1core_1_1CustomPreprocessor_3_01Zbdd_01_4.xhtml#a5185075f852c647c7aa4313d23420ee5" target="_top" xlink:title="Performs preprocessing for analyses with Zero&#45;Suppressed Binary Decision Diagrams. ">
<polygon fill="white" stroke="black" points="1375,-212.764 1375,-242.764 1542,-242.764 1542,-212.764 1375,-212.764"/>
<text text-anchor="start" x="1383" y="-230.764" font-family="Helvetica,sans-Serif" font-size="10.00">scram::core::CustomPreprocessor</text>
<text text-anchor="middle" x="1458.5" y="-219.764" font-family="Helvetica,sans-Serif" font-size="10.00">&lt; Zbdd &gt;::Run</text>
</a>
</g>
</g>
<!-- Node5&#45;&gt;Node12 -->
<g id="edge11" class="edge"><title>Node5&#45;&gt;Node12</title>
<path fill="none" stroke="midnightblue" d="M1280.39,-138.985C1301.77,-157.092 1338.78,-186.156 1375,-203.764 1381.84,-207.09 1389.23,-210.044 1396.68,-212.641"/>
<polygon fill="midnightblue" stroke="midnightblue" points="1282.6,-136.272 1272.74,-132.406 1278.04,-141.58 1282.6,-136.272"/>
</g>
<!-- Node7 -->
<g id="node7" class="node"><title>Node7</title>
<g id="a_node7"><a xlink:href="classscram_1_1core_1_1RiskAnalysis.xhtml#a7aed757ac5a7a96878c2706a7a9710bb" target="_top" xlink:title="Analyzes the model and performs computations specified in the settings. ">
<polygon fill="white" stroke="black" points="1578,-55.7643 1578,-85.7643 1710,-85.7643 1710,-55.7643 1578,-55.7643"/>
<text text-anchor="start" x="1586" y="-73.7643" font-family="Helvetica,sans-Serif" font-size="10.00">scram::core::RiskAnalysis</text>
<text text-anchor="middle" x="1644" y="-62.7643" font-family="Helvetica,sans-Serif" font-size="10.00">::Analyze</text>
</a>
</g>
</g>
<!-- Node6&#45;&gt;Node7 -->
<g id="edge6" class="edge"><title>Node6&#45;&gt;Node7</title>
<path fill="none" stroke="midnightblue" d="M1545.95,-70.7643C1556.67,-70.7643 1567.49,-70.7643 1577.81,-70.7643"/>
<polygon fill="midnightblue" stroke="midnightblue" points="1545.73,-67.2644 1535.73,-70.7643 1545.73,-74.2644 1545.73,-67.2644"/>
</g>
<!-- Node8 -->
<g id="node8" class="node"><title>Node8</title>
<g id="a_node8"><a xlink:href="classscram_1_1core_1_1RiskAnalysis.xhtml#a337f7e9fe02b1581e872590d6f7baa01" target="_top" xlink:title="scram::core::RiskAnalysis\l::model">
<polygon fill="white" stroke="black" points="1746,-55.7643 1746,-85.7643 1878,-85.7643 1878,-55.7643 1746,-55.7643"/>
<text text-anchor="start" x="1754" y="-73.7643" font-family="Helvetica,sans-Serif" font-size="10.00">scram::core::RiskAnalysis</text>
<text text-anchor="middle" x="1812" y="-62.7643" font-family="Helvetica,sans-Serif" font-size="10.00">::model</text>
</a>
</g>
</g>
<!-- Node7&#45;&gt;Node8 -->
<g id="edge7" class="edge"><title>Node7&#45;&gt;Node8</title>
<path fill="none" stroke="midnightblue" d="M1720.39,-70.7643C1728.87,-70.7643 1737.45,-70.7643 1745.78,-70.7643"/>
<polygon fill="midnightblue" stroke="midnightblue" points="1720.13,-67.2644 1710.13,-70.7643 1720.13,-74.2644 1720.13,-67.2644"/>
</g>
<!-- Node9 -->
<g id="node9" class="node"><title>Node9</title>
<g id="a_node9"><a xlink:href="reporter_8cc.xhtml#ad6460094a94fb73e56c2a4a5efc598ed" target="_top" xlink:title="Describes all performed analyses deduced from settings. ">
<polygon fill="white" stroke="black" points="1914,-55.7643 1914,-85.7643 2076,-85.7643 2076,-55.7643 1914,-55.7643"/>
<text text-anchor="start" x="1922" y="-73.7643" font-family="Helvetica,sans-Serif" font-size="10.00">scram::ReportCalculatedQuantity</text>
<text text-anchor="middle" x="1995" y="-62.7643" font-family="Helvetica,sans-Serif" font-size="10.00">&lt; core::RiskAnalysis &gt;</text>
</a>
</g>
</g>
<!-- Node8&#45;&gt;Node9 -->
<g id="edge8" class="edge"><title>Node8&#45;&gt;Node9</title>
<path fill="none" stroke="midnightblue" d="M1888.24,-70.7643C1896.65,-70.7643 1905.24,-70.7643 1913.71,-70.7643"/>
<polygon fill="midnightblue" stroke="midnightblue" points="1888.09,-67.2644 1878.09,-70.7643 1888.09,-74.2644 1888.09,-67.2644"/>
</g>
<!-- Node13&#45;&gt;Node12 -->
<g id="edge13" class="edge"><title>Node13&#45;&gt;Node12</title>
<path fill="none" stroke="midnightblue" d="M1157.16,-264.224C1208.51,-261.312 1278.03,-256.401 1339,-248.764 1352.06,-247.128 1365.87,-245.026 1379.27,-242.786"/>
<polygon fill="midnightblue" stroke="midnightblue" points="1156.93,-260.731 1147.14,-264.78 1157.32,-267.721 1156.93,-260.731"/>
</g>
<!-- Node14&#45;&gt;Node12 -->
<g id="edge15" class="edge"><title>Node14&#45;&gt;Node12</title>
<path fill="none" stroke="midnightblue" d="M1337.31,-225.305C1349.64,-225.557 1362.46,-225.82 1374.95,-226.075"/>
<polygon fill="midnightblue" stroke="midnightblue" points="1337.17,-221.802 1327.1,-225.096 1337.02,-228.8 1337.17,-221.802"/>
</g>
<!-- Node15&#45;&gt;Node5 -->
<g id="edge17" class="edge"><title>Node15&#45;&gt;Node5</title>
<path fill="none" stroke="midnightblue" d="M1157.22,-122.764C1165.67,-122.764 1174.29,-122.764 1182.77,-122.764"/>
<polygon fill="midnightblue" stroke="midnightblue" points="1157.02,-119.264 1147.02,-122.764 1157.02,-126.264 1157.02,-119.264"/>
</g>
<!-- Node17&#45;&gt;Node4 -->
<g id="edge21" class="edge"><title>Node17&#45;&gt;Node4</title>
<path fill="none" stroke="midnightblue" d="M653.385,-269.326C699.541,-264.92 758.82,-258.16 811,-248.764 825.933,-246.075 841.941,-242.459 856.71,-238.814"/>
<polygon fill="midnightblue" stroke="midnightblue" points="652.776,-265.867 643.146,-270.285 653.429,-272.837 652.776,-265.867"/>
</g>
<!-- Node20 -->
<g id="node20" class="node"><title>Node20</title>
<g id="a_node20"><a xlink:href="classscram_1_1core_1_1Preprocessor.xhtml#aebc709ad2e097c24e837889a6a9e4696" target="_top" xlink:title="Propagates failures of common nodes to detect redundancy. ">
<polygon fill="white" stroke="black" points="679,-208.764 679,-238.764 811,-238.764 811,-208.764 679,-208.764"/>
<text text-anchor="start" x="687" y="-226.764" font-family="Helvetica,sans-Serif" font-size="10.00">scram::core::Preprocessor</text>
<text text-anchor="middle" x="745" y="-215.764" font-family="Helvetica,sans-Serif" font-size="10.00">::BooleanOptimization</text>
</a>
</g>
</g>
<!-- Node19&#45;&gt;Node20 -->
<g id="edge24" class="edge"><title>Node19&#45;&gt;Node20</title>
<path fill="none" stroke="midnightblue" d="M649.619,-225.435C659.364,-225.262 669.281,-225.087 678.846,-224.917"/>
<polygon fill="midnightblue" stroke="midnightblue" points="649.485,-221.936 639.548,-225.613 649.609,-228.935 649.485,-221.936"/>
</g>
<!-- Node20&#45;&gt;Node4 -->
<g id="edge25" class="edge"><title>Node20&#45;&gt;Node4</title>
<path fill="none" stroke="midnightblue" d="M821.393,-223.764C829.869,-223.764 838.452,-223.764 846.784,-223.764"/>
<polygon fill="midnightblue" stroke="midnightblue" points="821.131,-220.264 811.131,-223.764 821.131,-227.264 821.131,-220.264"/>
</g>
<!-- Node22&#45;&gt;Node1 -->
<g id="edge28" class="edge"><title>Node22&#45;&gt;Node1</title>
<path fill="none" stroke="midnightblue" d="M157.521,-148.49C149.044,-148.545 140.461,-148.507 132.131,-148.373"/>
<polygon fill="midnightblue" stroke="midnightblue" points="157.824,-151.986 167.784,-148.375 157.746,-144.987 157.824,-151.986"/>
</g>
<!-- Node23 -->
<g id="node23" class="node"><title>Node23</title>
<g id="a_node23"><a xlink:href="classscram_1_1core_1_1Preprocessor.xhtml#ae483f228040c0d2422792c9cf0d05886" target="_top" xlink:title="Clears all NULL type gates registered for removal by algorithms or other preprocessing functions...">
<polygon fill="white" stroke="black" points="336,-126.764 336,-156.764 468,-156.764 468,-126.764 336,-126.764"/>
<text text-anchor="start" x="344" y="-144.764" font-family="Helvetica,sans-Serif" font-size="10.00">scram::core::Preprocessor</text>
<text text-anchor="middle" x="402" y="-133.764" font-family="Helvetica,sans-Serif" font-size="10.00">::ClearNullGates</text>
</a>
</g>
</g>
<!-- Node22&#45;&gt;Node23 -->
<g id="edge29" class="edge"><title>Node22&#45;&gt;Node23</title>
<path fill="none" stroke="midnightblue" d="M310.393,-141.764C318.869,-141.764 327.452,-141.764 335.784,-141.764"/>
<polygon fill="midnightblue" stroke="midnightblue" points="310.131,-138.264 300.131,-141.764 310.131,-145.264 310.131,-138.264"/>
</g>
<!-- Node23&#45;&gt;Node17 -->
<g id="edge36" class="edge"><title>Node23&#45;&gt;Node17</title>
<path fill="none" stroke="midnightblue" d="M428.7,-163.884C441.097,-175.043 455.872,-189.086 468,-202.764 485.928,-222.985 482.278,-235.689 504,-251.764 508.558,-255.137 513.63,-258.066 518.895,-260.603"/>
<polygon fill="midnightblue" stroke="midnightblue" points="430.75,-161.023 420.948,-157 426.102,-166.258 430.75,-161.023"/>
</g>
<!-- Node23&#45;&gt;Node18 -->
<g id="edge37" class="edge"><title>Node23&#45;&gt;Node18</title>
<path fill="none" stroke="midnightblue" d="M478.119,-157.719C487.864,-159.789 497.781,-161.895 507.346,-163.926"/>
<polygon fill="midnightblue" stroke="midnightblue" points="478.557,-154.234 468.048,-155.58 477.103,-161.081 478.557,-154.234"/>
</g>
<!-- Node23&#45;&gt;Node19 -->
<g id="edge41" class="edge"><title>Node23&#45;&gt;Node19</title>
<path fill="none" stroke="midnightblue" d="M433.614,-162.53C453.181,-175.222 479.412,-191.184 504,-202.764 510.726,-205.932 517.99,-208.915 525.187,-211.629"/>
<polygon fill="midnightblue" stroke="midnightblue" points="435.404,-159.518 425.123,-156.957 431.563,-165.37 435.404,-159.518"/>
</g>
<!-- Node24 -->
<g id="node24" class="node"><title>Node24</title>
<g id="a_node24"><a xlink:href="classscram_1_1core_1_1Preprocessor.xhtml#aa85dfc5e3a2e7d20bdc22388ff6cf6c8" target="_top" xlink:title="Removes argument gates of NULL type, which means these arg gates have only one argument. ">
<polygon fill="white" stroke="black" points="507.5,-15.7643 507.5,-45.7643 639.5,-45.7643 639.5,-15.7643 507.5,-15.7643"/>
<text text-anchor="start" x="515.5" y="-33.7643" font-family="Helvetica,sans-Serif" font-size="10.00">scram::core::Preprocessor</text>
<text text-anchor="middle" x="573.5" y="-22.7643" font-family="Helvetica,sans-Serif" font-size="10.00">::RemoveNullGates</text>
</a>
</g>
</g>
<!-- Node23&#45;&gt;Node24 -->
<g id="edge30" class="edge"><title>Node23&#45;&gt;Node24</title>
<path fill="none" stroke="midnightblue" d="M424.548,-119.384C443.881,-100.348 473.786,-73.3717 504,-55.7643 510.344,-52.0673 517.329,-48.7622 524.34,-45.8612"/>
<polygon fill="midnightblue" stroke="midnightblue" points="422.025,-116.957 417.432,-126.505 426.977,-121.906 422.025,-116.957"/>
</g>
<!-- Node26 -->
<g id="node26" class="node"><title>Node26</title>
<g id="a_node26"><a xlink:href="classscram_1_1core_1_1Preprocessor.xhtml#ad13e133278ea7563c1ba037c05c35aa2" target="_top" xlink:title="Normalizes the gates of the whole Boolean graph into OR, AND gates. ">
<polygon fill="white" stroke="black" points="507.5,-64.7643 507.5,-94.7643 639.5,-94.7643 639.5,-64.7643 507.5,-64.7643"/>
<text text-anchor="start" x="515.5" y="-82.7643" font-family="Helvetica,sans-Serif" font-size="10.00">scram::core::Preprocessor</text>
<text text-anchor="middle" x="573.5" y="-71.7643" font-family="Helvetica,sans-Serif" font-size="10.00">::NormalizeGates</text>
</a>
</g>
</g>
<!-- Node23&#45;&gt;Node26 -->
<g id="edge33" class="edge"><title>Node23&#45;&gt;Node26</title>
<path fill="none" stroke="midnightblue" d="M453.988,-123.072C469.995,-117.207 487.733,-110.712 504,-104.764 512.798,-101.547 522.234,-98.101 531.203,-94.827"/>
<polygon fill="midnightblue" stroke="midnightblue" points="452.459,-119.904 444.274,-126.631 454.867,-126.477 452.459,-119.904"/>
</g>
<!-- Node27 -->
<g id="node27" class="node"><title>Node27</title>
<g id="a_node27"><a xlink:href="classscram_1_1core_1_1Preprocessor.xhtml#a4737f354474154b3cea9773c25616d27" target="_top" xlink:title="Detects and manipulates AND and OR gate distributivity for the whole graph. ">
<polygon fill="white" stroke="black" points="507.5,-113.764 507.5,-143.764 639.5,-143.764 639.5,-113.764 507.5,-113.764"/>
<text text-anchor="start" x="515.5" y="-131.764" font-family="Helvetica,sans-Serif" font-size="10.00">scram::core::Preprocessor</text>
<text text-anchor="middle" x="573.5" y="-120.764" font-family="Helvetica,sans-Serif" font-size="10.00">::DetectDistributivity</text>
</a>
</g>
</g>
<!-- Node23&#45;&gt;Node27 -->
<g id="edge38" class="edge"><title>Node23&#45;&gt;Node27</title>
<path fill="none" stroke="midnightblue" d="M478.119,-136.003C487.864,-135.256 497.781,-134.495 507.346,-133.761"/>
<polygon fill="midnightblue" stroke="midnightblue" points="477.751,-132.521 468.048,-136.775 478.287,-139.5 477.751,-132.521"/>
</g>
<!-- Node25 -->
<g id="node25" class="node"><title>Node25</title>
<g id="a_node25"><a xlink:href="classscram_1_1core_1_1Preprocessor.xhtml#a44f820b6fe2c23594c818432b33e26a6" target="_top" xlink:title="Container of unique gates by semantics. ">
<polygon fill="white" stroke="black" points="679,-18.7643 679,-48.7643 811,-48.7643 811,-18.7643 679,-18.7643"/>
<text text-anchor="start" x="687" y="-36.7643" font-family="Helvetica,sans-Serif" font-size="10.00">scram::core::Preprocessor</text>
<text text-anchor="middle" x="745" y="-25.7643" font-family="Helvetica,sans-Serif" font-size="10.00">::RunPhaseOne</text>
</a>
</g>
</g>
<!-- Node24&#45;&gt;Node25 -->
<g id="edge31" class="edge"><title>Node24&#45;&gt;Node25</title>
<path fill="none" stroke="midnightblue" d="M649.619,-32.0938C659.364,-32.2663 669.281,-32.4418 678.846,-32.6111"/>
<polygon fill="midnightblue" stroke="midnightblue" points="649.609,-28.5932 639.548,-31.9156 649.485,-35.5921 649.609,-28.5932"/>
</g>
<!-- Node25&#45;&gt;Node5 -->
<g id="edge32" class="edge"><title>Node25&#45;&gt;Node5</title>
<path fill="none" stroke="midnightblue" d="M821.179,-44.835C901.899,-56.9821 1033.82,-77.5847 1147,-98.7643 1170.36,-103.136 1196.31,-108.603 1217.44,-113.214"/>
<polygon fill="midnightblue" stroke="midnightblue" points="821.517,-41.3467 811.108,-43.3235 820.478,-48.2691 821.517,-41.3467"/>
</g>
<!-- Node26&#45;&gt;Node15 -->
<g id="edge35" class="edge"><title>Node26&#45;&gt;Node15</title>
<path fill="none" stroke="midnightblue" d="M649.778,-86.1678C748.775,-94.5888 921.099,-109.247 1014.8,-117.218"/>
<polygon fill="midnightblue" stroke="midnightblue" points="649.811,-82.658 639.55,-85.2977 649.218,-89.6328 649.811,-82.658"/>
</g>
<!-- Node26&#45;&gt;Node25 -->
<g id="edge34" class="edge"><title>Node26&#45;&gt;Node25</title>
<path fill="none" stroke="midnightblue" d="M639.881,-62.0209C655.989,-57.6493 673.084,-53.01 688.664,-48.7816"/>
<polygon fill="midnightblue" stroke="midnightblue" points="638.735,-58.7051 630.001,-64.7022 640.568,-65.4608 638.735,-58.7051"/>
</g>
<!-- Node27&#45;&gt;Node4 -->
<g id="edge39" class="edge"><title>Node27&#45;&gt;Node4</title>
<path fill="none" stroke="midnightblue" d="M637.899,-146.61C701.568,-164.531 798.583,-191.84 858.494,-208.703"/>
<polygon fill="midnightblue" stroke="midnightblue" points="638.552,-143.158 627.978,-143.817 636.655,-149.896 638.552,-143.158"/>
</g>
<!-- Node28 -->
<g id="node28" class="node"><title>Node28</title>
<g id="a_node28"><a xlink:href="classscram_1_1core_1_1Preprocessor.xhtml#a79fe8e90f0e8fbc20a76610aaf09fe6e" target="_top" xlink:title="Detects and manipulates AND and OR gate distributivity. ">
<polygon fill="white" stroke="black" points="679,-113.764 679,-143.764 811,-143.764 811,-113.764 679,-113.764"/>
<text text-anchor="start" x="687" y="-131.764" font-family="Helvetica,sans-Serif" font-size="10.00">scram::core::Preprocessor</text>
<text text-anchor="middle" x="745" y="-120.764" font-family="Helvetica,sans-Serif" font-size="10.00">::DetectDistributivity</text>
</a>
</g>
</g>
<!-- Node27&#45;&gt;Node28 -->
<g id="edge40" class="edge"><title>Node27&#45;&gt;Node28</title>
<path fill="none" stroke="midnightblue" d="M649.619,-128.764C659.364,-128.764 669.281,-128.764 678.846,-128.764"/>
<polygon fill="midnightblue" stroke="midnightblue" points="649.548,-125.264 639.548,-128.764 649.548,-132.264 649.548,-125.264"/>
</g>
<!-- Node29&#45;&gt;Node25 -->
<g id="edge43" class="edge"><title>Node29&#45;&gt;Node25</title>
<path fill="none" stroke="midnightblue" d="M449.353,-21.2226C466.265,-15.3703 485.726,-9.67401 504,-6.76427 565.009,2.9499 581.748,1.28156 643,-6.76427 661.266,-9.16361 680.925,-13.9047 698,-18.7535"/>
<polygon fill="midnightblue" stroke="midnightblue" points="447.957,-18.0047 439.719,-24.6665 450.314,-24.5962 447.957,-18.0047"/>
</g>
</g>
</svg>
