<?xml version="1.0" encoding="UTF-8" standalone="no"?>
<!DOCTYPE svg PUBLIC "-//W3C//DTD SVG 1.1//EN"
 "http://www.w3.org/Graphics/SVG/1.1/DTD/svg11.dtd">
<!-- Generated by graphviz version 2.38.0 (20140413.2041)
 -->
<!-- Title: scram::mef::RandomDeviate Pages: 1 -->
<svg width="912pt" height="502pt"
 viewBox="0.00 0.00 912.00 502.00" xmlns="http://www.w3.org/2000/svg" xmlns:xlink="http://www.w3.org/1999/xlink">
<g id="graph0" class="graph" transform="scale(1 1) rotate(0) translate(4 498)">
<title>scram::mef::RandomDeviate</title>
<polygon fill="white" stroke="none" points="-4,4 -4,-498 908,-498 908,4 -4,4"/>
<!-- Node1 -->
<g id="node1" class="node"><title>Node1</title>
<polygon fill="#bfbfbf" stroke="black" points="365.5,-138.5 365.5,-195.5 508.5,-195.5 508.5,-138.5 365.5,-138.5"/>
<text text-anchor="middle" x="437" y="-183.5" font-family="Helvetica,sans-Serif" font-size="10.00">scram::mef::RandomDeviate</text>
<polyline fill="none" stroke="black" points="365.5,-176.5 508.5,-176.5 "/>
<text text-anchor="middle" x="437" y="-164.5" font-family="Helvetica,sans-Serif" font-size="10.00"> </text>
<polyline fill="none" stroke="black" points="365.5,-157.5 508.5,-157.5 "/>
<text text-anchor="start" x="373.5" y="-145.5" font-family="Helvetica,sans-Serif" font-size="10.00">+ IsConstant()</text>
</g>
<!-- Node4 -->
<g id="node4" class="node"><title>Node4</title>
<g id="a_node4"><a xlink:href="classscram_1_1mef_1_1BetaDeviate.xhtml" target="_top" xlink:title="Beta distribution. ">
<polygon fill="white" stroke="black" points="0,-0.5 0,-101.5 126,-101.5 126,-0.5 0,-0.5"/>
<text text-anchor="middle" x="63" y="-89.5" font-family="Helvetica,sans-Serif" font-size="10.00">scram::mef::BetaDeviate</text>
<polyline fill="none" stroke="black" points="0,-82.5 126,-82.5 "/>
<text text-anchor="middle" x="63" y="-70.5" font-family="Helvetica,sans-Serif" font-size="10.00"> </text>
<polyline fill="none" stroke="black" points="0,-63.5 126,-63.5 "/>
<text text-anchor="start" x="8" y="-51.5" font-family="Helvetica,sans-Serif" font-size="10.00">+ BetaDeviate()</text>
<text text-anchor="start" x="8" y="-40.5" font-family="Helvetica,sans-Serif" font-size="10.00">+ Validate()</text>
<text text-anchor="start" x="8" y="-29.5" font-family="Helvetica,sans-Serif" font-size="10.00">+ Mean()</text>
<text text-anchor="start" x="8" y="-18.5" font-family="Helvetica,sans-Serif" font-size="10.00">+ Max()</text>
<text text-anchor="start" x="8" y="-7.5" font-family="Helvetica,sans-Serif" font-size="10.00">+ Min()</text>
</a>
</g>
</g>
<!-- Node1&#45;&gt;Node4 -->
<g id="edge3" class="edge"><title>Node1&#45;&gt;Node4</title>
<path fill="none" stroke="midnightblue" d="M355.132,-157.588C292.81,-149.089 205.953,-132.662 135,-102 132.066,-100.732 129.129,-99.336 126.21,-97.8409"/>
<polygon fill="none" stroke="midnightblue" points="354.933,-161.092 365.306,-158.935 355.851,-154.152 354.933,-161.092"/>
</g>
<!-- Node5 -->
<g id="node5" class="node"><title>Node5</title>
<g id="a_node5"><a xlink:href="classscram_1_1mef_1_1GammaDeviate.xhtml" target="_top" xlink:title="Gamma distribution. ">
<polygon fill="white" stroke="black" points="144,-0.5 144,-101.5 284,-101.5 284,-0.5 144,-0.5"/>
<text text-anchor="middle" x="214" y="-89.5" font-family="Helvetica,sans-Serif" font-size="10.00">scram::mef::GammaDeviate</text>
<polyline fill="none" stroke="black" points="144,-82.5 284,-82.5 "/>
<text text-anchor="middle" x="214" y="-70.5" font-family="Helvetica,sans-Serif" font-size="10.00"> </text>
<polyline fill="none" stroke="black" points="144,-63.5 284,-63.5 "/>
<text text-anchor="start" x="152" y="-51.5" font-family="Helvetica,sans-Serif" font-size="10.00">+ GammaDeviate()</text>
<text text-anchor="start" x="152" y="-40.5" font-family="Helvetica,sans-Serif" font-size="10.00">+ Validate()</text>
<text text-anchor="start" x="152" y="-29.5" font-family="Helvetica,sans-Serif" font-size="10.00">+ Mean()</text>
<text text-anchor="start" x="152" y="-18.5" font-family="Helvetica,sans-Serif" font-size="10.00">+ Max()</text>
<text text-anchor="start" x="152" y="-7.5" font-family="Helvetica,sans-Serif" font-size="10.00">+ Min()</text>
</a>
</g>
</g>
<!-- Node1&#45;&gt;Node5 -->
<g id="edge4" class="edge"><title>Node1&#45;&gt;Node5</title>
<path fill="none" stroke="midnightblue" d="M360.055,-134.285C338.079,-124.563 314.318,-113.405 293,-102 290.138,-100.469 287.24,-98.8714 284.331,-97.2279"/>
<polygon fill="none" stroke="midnightblue" points="358.788,-137.551 369.352,-138.36 361.598,-131.14 358.788,-137.551"/>
</g>
<!-- Node6 -->
<g id="node6" class="node"><title>Node6</title>
<g id="a_node6"><a xlink:href="classscram_1_1mef_1_1Histogram.xhtml" target="_top" xlink:title="Histogram distribution. ">
<polygon fill="white" stroke="black" points="302.5,-0.5 302.5,-101.5 419.5,-101.5 419.5,-0.5 302.5,-0.5"/>
<text text-anchor="middle" x="361" y="-89.5" font-family="Helvetica,sans-Serif" font-size="10.00">scram::mef::Histogram</text>
<polyline fill="none" stroke="black" points="302.5,-82.5 419.5,-82.5 "/>
<text text-anchor="middle" x="361" y="-70.5" font-family="Helvetica,sans-Serif" font-size="10.00"> </text>
<polyline fill="none" stroke="black" points="302.5,-63.5 419.5,-63.5 "/>
<text text-anchor="start" x="310.5" y="-51.5" font-family="Helvetica,sans-Serif" font-size="10.00">+ Histogram()</text>
<text text-anchor="start" x="310.5" y="-40.5" font-family="Helvetica,sans-Serif" font-size="10.00">+ Validate()</text>
<text text-anchor="start" x="310.5" y="-29.5" font-family="Helvetica,sans-Serif" font-size="10.00">+ Mean()</text>
<text text-anchor="start" x="310.5" y="-18.5" font-family="Helvetica,sans-Serif" font-size="10.00">+ Max()</text>
<text text-anchor="start" x="310.5" y="-7.5" font-family="Helvetica,sans-Serif" font-size="10.00">+ Min()</text>
</a>
</g>
</g>
<!-- Node1&#45;&gt;Node6 -->
<g id="edge5" class="edge"><title>Node1&#45;&gt;Node6</title>
<path fill="none" stroke="midnightblue" d="M413.025,-130.038C407.009,-121.013 400.446,-111.169 394.072,-101.608"/>
<polygon fill="none" stroke="midnightblue" points="410.143,-132.025 418.603,-138.404 415.968,-128.142 410.143,-132.025"/>
</g>
<!-- Node7 -->
<g id="node7" class="node"><title>Node7</title>
<g id="a_node7"><a xlink:href="classscram_1_1mef_1_1LogNormalDeviate.xhtml" target="_top" xlink:title="Log&#45;normal distribution defined by its expected value and error factor of certain confidence level...">
<polygon fill="white" stroke="black" points="437.5,-0.5 437.5,-101.5 590.5,-101.5 590.5,-0.5 437.5,-0.5"/>
<text text-anchor="middle" x="514" y="-89.5" font-family="Helvetica,sans-Serif" font-size="10.00">scram::mef::LogNormalDeviate</text>
<polyline fill="none" stroke="black" points="437.5,-82.5 590.5,-82.5 "/>
<text text-anchor="middle" x="514" y="-70.5" font-family="Helvetica,sans-Serif" font-size="10.00"> </text>
<polyline fill="none" stroke="black" points="437.5,-63.5 590.5,-63.5 "/>
<text text-anchor="start" x="445.5" y="-51.5" font-family="Helvetica,sans-Serif" font-size="10.00">+ LogNormalDeviate()</text>
<text text-anchor="start" x="445.5" y="-40.5" font-family="Helvetica,sans-Serif" font-size="10.00">+ Validate()</text>
<text text-anchor="start" x="445.5" y="-29.5" font-family="Helvetica,sans-Serif" font-size="10.00">+ Mean()</text>
<text text-anchor="start" x="445.5" y="-18.5" font-family="Helvetica,sans-Serif" font-size="10.00">+ Max()</text>
<text text-anchor="start" x="445.5" y="-7.5" font-family="Helvetica,sans-Serif" font-size="10.00">+ Min()</text>
</a>
</g>
</g>
<!-- Node1&#45;&gt;Node7 -->
<g id="edge6" class="edge"><title>Node1&#45;&gt;Node7</title>
<path fill="none" stroke="midnightblue" d="M461.29,-130.038C467.386,-121.013 474.035,-111.169 480.493,-101.608"/>
<polygon fill="none" stroke="midnightblue" points="458.336,-128.158 455.64,-138.404 464.137,-132.076 458.336,-128.158"/>
</g>
<!-- Node8 -->
<g id="node8" class="node"><title>Node8</title>
<g id="a_node8"><a xlink:href="classscram_1_1mef_1_1NormalDeviate.xhtml" target="_top" xlink:title="Normal distribution. ">
<polygon fill="white" stroke="black" points="608.5,-0.5 608.5,-101.5 745.5,-101.5 745.5,-0.5 608.5,-0.5"/>
<text text-anchor="middle" x="677" y="-89.5" font-family="Helvetica,sans-Serif" font-size="10.00">scram::mef::NormalDeviate</text>
<polyline fill="none" stroke="black" points="608.5,-82.5 745.5,-82.5 "/>
<text text-anchor="middle" x="677" y="-70.5" font-family="Helvetica,sans-Serif" font-size="10.00"> </text>
<polyline fill="none" stroke="black" points="608.5,-63.5 745.5,-63.5 "/>
<text text-anchor="start" x="616.5" y="-51.5" font-family="Helvetica,sans-Serif" font-size="10.00">+ NormalDeviate()</text>
<text text-anchor="start" x="616.5" y="-40.5" font-family="Helvetica,sans-Serif" font-size="10.00">+ Validate()</text>
<text text-anchor="start" x="616.5" y="-29.5" font-family="Helvetica,sans-Serif" font-size="10.00">+ Mean()</text>
<text text-anchor="start" x="616.5" y="-18.5" font-family="Helvetica,sans-Serif" font-size="10.00">+ Max()</text>
<text text-anchor="start" x="616.5" y="-7.5" font-family="Helvetica,sans-Serif" font-size="10.00">+ Min()</text>
</a>
</g>
</g>
<!-- Node1&#45;&gt;Node8 -->
<g id="edge7" class="edge"><title>Node1&#45;&gt;Node8</title>
<path fill="none" stroke="midnightblue" d="M518.225,-137.811C544.793,-127.619 574.115,-115.313 600,-102 602.693,-100.615 605.411,-99.16 608.134,-97.6532"/>
<polygon fill="none" stroke="midnightblue" points="516.684,-134.651 508.573,-141.467 519.164,-141.197 516.684,-134.651"/>
</g>
<!-- Node9 -->
<g id="node9" class="node"><title>Node9</title>
<g id="a_node9"><a xlink:href="classscram_1_1mef_1_1UniformDeviate.xhtml" target="_top" xlink:title="Uniform distribution. ">
<polygon fill="white" stroke="black" points="764,-0.5 764,-101.5 904,-101.5 904,-0.5 764,-0.5"/>
<text text-anchor="middle" x="834" y="-89.5" font-family="Helvetica,sans-Serif" font-size="10.00">scram::mef::UniformDeviate</text>
<polyline fill="none" stroke="black" points="764,-82.5 904,-82.5 "/>
<text text-anchor="middle" x="834" y="-70.5" font-family="Helvetica,sans-Serif" font-size="10.00"> </text>
<polyline fill="none" stroke="black" points="764,-63.5 904,-63.5 "/>
<text text-anchor="start" x="772" y="-51.5" font-family="Helvetica,sans-Serif" font-size="10.00">+ UniformDeviate()</text>
<text text-anchor="start" x="772" y="-40.5" font-family="Helvetica,sans-Serif" font-size="10.00">+ Validate()</text>
<text text-anchor="start" x="772" y="-29.5" font-family="Helvetica,sans-Serif" font-size="10.00">+ Mean()</text>
<text text-anchor="start" x="772" y="-18.5" font-family="Helvetica,sans-Serif" font-size="10.00">+ Max()</text>
<text text-anchor="start" x="772" y="-7.5" font-family="Helvetica,sans-Serif" font-size="10.00">+ Min()</text>
</a>
</g>
</g>
<!-- Node1&#45;&gt;Node9 -->
<g id="edge8" class="edge"><title>Node1&#45;&gt;Node9</title>
<path fill="none" stroke="midnightblue" d="M518.897,-157.855C584.554,-149.374 678.099,-132.844 755,-102 757.862,-100.852 760.735,-99.5989 763.601,-98.2628"/>
<polygon fill="none" stroke="midnightblue" points="518.092,-154.429 508.606,-159.148 518.965,-161.374 518.092,-154.429"/>
</g>
<!-- Node2 -->
<g id="node2" class="node"><title>Node2</title>
<g id="a_node2"><a xlink:href="classscram_1_1mef_1_1Expression.xhtml" target="_top" xlink:title="Abstract base class for all sorts of expressions to describe events. ">
<polygon fill="white" stroke="black" points="376.5,-232.5 376.5,-399.5 497.5,-399.5 497.5,-232.5 376.5,-232.5"/>
<text text-anchor="middle" x="437" y="-387.5" font-family="Helvetica,sans-Serif" font-size="10.00">scram::mef::Expression</text>
<polyline fill="none" stroke="black" points="376.5,-380.5 497.5,-380.5 "/>
<text text-anchor="middle" x="437" y="-368.5" font-family="Helvetica,sans-Serif" font-size="10.00"> </text>
<polyline fill="none" stroke="black" points="376.5,-361.5 497.5,-361.5 "/>
<text text-anchor="start" x="384.5" y="-349.5" font-family="Helvetica,sans-Serif" font-size="10.00">+ Expression()</text>
<text text-anchor="start" x="384.5" y="-338.5" font-family="Helvetica,sans-Serif" font-size="10.00">+ ~Expression()</text>
<text text-anchor="start" x="384.5" y="-327.5" font-family="Helvetica,sans-Serif" font-size="10.00">+ args()</text>
<text text-anchor="start" x="384.5" y="-316.5" font-family="Helvetica,sans-Serif" font-size="10.00">+ Validate()</text>
<text text-anchor="start" x="384.5" y="-305.5" font-family="Helvetica,sans-Serif" font-size="10.00">+ Mean()</text>
<text text-anchor="start" x="384.5" y="-294.5" font-family="Helvetica,sans-Serif" font-size="10.00">+ Sample()</text>
<text text-anchor="start" x="384.5" y="-283.5" font-family="Helvetica,sans-Serif" font-size="10.00">+ Reset()</text>
<text text-anchor="start" x="384.5" y="-272.5" font-family="Helvetica,sans-Serif" font-size="10.00">+ IsConstant()</text>
<text text-anchor="start" x="384.5" y="-261.5" font-family="Helvetica,sans-Serif" font-size="10.00">+ Max()</text>
<text text-anchor="start" x="384.5" y="-250.5" font-family="Helvetica,sans-Serif" font-size="10.00">+ Min()</text>
<text text-anchor="start" x="384.5" y="-239.5" font-family="Helvetica,sans-Serif" font-size="10.00"># AddArg()</text>
</a>
</g>
</g>
<!-- Node2&#45;&gt;Node1 -->
<g id="edge1" class="edge"><title>Node2&#45;&gt;Node1</title>
<path fill="none" stroke="midnightblue" d="M437,-222.36C437,-212.786 437,-203.677 437,-195.748"/>
<polygon fill="none" stroke="midnightblue" points="433.5,-222.476 437,-232.476 440.5,-222.476 433.5,-222.476"/>
</g>
<!-- Node3 -->
<g id="node3" class="node"><title>Node3</title>
<polygon fill="white" stroke="#bfbfbf" points="401.5,-436.5 401.5,-493.5 472.5,-493.5 472.5,-436.5 401.5,-436.5"/>
<text text-anchor="middle" x="437" y="-481.5" font-family="Helvetica,sans-Serif" font-size="10.00">noncopyable</text>
<polyline fill="none" stroke="#bfbfbf" points="401.5,-474.5 472.5,-474.5 "/>
<text text-anchor="middle" x="437" y="-462.5" font-family="Helvetica,sans-Serif" font-size="10.00"> </text>
<polyline fill="none" stroke="#bfbfbf" points="401.5,-455.5 472.5,-455.5 "/>
<text text-anchor="middle" x="437" y="-443.5" font-family="Helvetica,sans-Serif" font-size="10.00"> </text>
</g>
<!-- Node3&#45;&gt;Node2 -->
<g id="edge2" class="edge"><title>Node3&#45;&gt;Node2</title>
<path fill="none" stroke="#8b1a1a" d="M437,-426.35C437,-418.08 437,-409.008 437,-399.738"/>
<polygon fill="none" stroke="#8b1a1a" points="433.5,-426.35 437,-436.35 440.5,-426.35 433.5,-426.35"/>
</g>
</g>
</svg>
