<?xml version="1.0" encoding="UTF-8" standalone="no"?>
<!DOCTYPE svg PUBLIC "-//W3C//DTD SVG 1.1//EN"
 "http://www.w3.org/Graphics/SVG/1.1/DTD/svg11.dtd">
<!-- Generated by graphviz version 2.38.0 (20140413.2041)
 -->
<!-- Title: scram::core::zbdd::CutSetContainer::EliminateComplements Pages: 1 -->
<svg width="779pt" height="237pt"
 viewBox="0.00 0.00 779.00 236.69" xmlns="http://www.w3.org/2000/svg" xmlns:xlink="http://www.w3.org/1999/xlink">
<g id="graph0" class="graph" transform="scale(1 1) rotate(0) translate(4 232.691)">
<title>scram::core::zbdd::CutSetContainer::EliminateComplements</title>
<polygon fill="white" stroke="none" points="-4,4 -4,-232.691 775,-232.691 775,4 -4,4"/>
<!-- Node1 -->
<g id="node1" class="node"><title>Node1</title>
<polygon fill="#bfbfbf" stroke="black" points="0,-55.6908 0,-96.6908 136,-96.6908 136,-55.6908 0,-55.6908"/>
<text text-anchor="start" x="8" y="-84.6908" font-family="Helvetica,sans-Serif" font-size="10.00">scram::core::zbdd::</text>
<text text-anchor="start" x="8" y="-73.6908" font-family="Helvetica,sans-Serif" font-size="10.00">CutSetContainer::Eliminate</text>
<text text-anchor="middle" x="68" y="-62.6908" font-family="Helvetica,sans-Serif" font-size="10.00">Complements</text>
</g>
<!-- Node2 -->
<g id="node2" class="node"><title>Node2</title>
<g id="a_node2"><a xlink:href="classscram_1_1core_1_1Zbdd.xhtml#ac3ac27090b550d973b20bd971c3de9f9" target="_top" xlink:title="Removes complements of variables from products. ">
<polygon fill="white" stroke="black" points="172.5,-83.1908 172.5,-113.191 290.5,-113.191 290.5,-83.1908 172.5,-83.1908"/>
<text text-anchor="start" x="180.5" y="-101.191" font-family="Helvetica,sans-Serif" font-size="10.00">scram::core::Zbdd::</text>
<text text-anchor="middle" x="231.5" y="-90.1908" font-family="Helvetica,sans-Serif" font-size="10.00">EliminateComplements</text>
</a>
</g>
</g>
<!-- Node1&#45;&gt;Node2 -->
<g id="edge1" class="edge"><title>Node1&#45;&gt;Node2</title>
<path fill="none" stroke="midnightblue" d="M136.088,-85.3297C144.746,-86.5091 153.62,-87.718 162.296,-88.8998"/>
<polygon fill="midnightblue" stroke="midnightblue" points="161.984,-92.3896 172.365,-90.2715 162.929,-85.4537 161.984,-92.3896"/>
</g>
<!-- Node11 -->
<g id="node11" class="node"><title>Node11</title>
<g id="a_node11"><a xlink:href="classscram_1_1core_1_1Zbdd.xhtml#aa599878612e128fa09e17d0520280dbe" target="_top" xlink:title="scram::core::Zbdd::root">
<polygon fill="white" stroke="black" points="172,-44.6908 172,-63.6908 291,-63.6908 291,-44.6908 172,-44.6908"/>
<text text-anchor="middle" x="231.5" y="-51.6908" font-family="Helvetica,sans-Serif" font-size="10.00">scram::core::Zbdd::root</text>
</a>
</g>
</g>
<!-- Node1&#45;&gt;Node11 -->
<g id="edge12" class="edge"><title>Node1&#45;&gt;Node11</title>
<path fill="none" stroke="midnightblue" d="M136.088,-67.0519C144.621,-65.8895 153.365,-64.6984 161.921,-63.5328"/>
<polygon fill="midnightblue" stroke="midnightblue" points="162.421,-66.9972 171.857,-62.1794 161.476,-60.0612 162.421,-66.9972"/>
</g>
<!-- Node3 -->
<g id="node3" class="node"><title>Node3</title>
<g id="a_node3"><a xlink:href="classscram_1_1core_1_1Settings.xhtml#a0e43ec0f017d23a4fa4e376c4060d380" target="_top" xlink:title="scram::core::Settings\l::limit_order">
<polygon fill="white" stroke="black" points="327,-132.191 327,-162.191 437,-162.191 437,-132.191 327,-132.191"/>
<text text-anchor="start" x="335" y="-150.191" font-family="Helvetica,sans-Serif" font-size="10.00">scram::core::Settings</text>
<text text-anchor="middle" x="382" y="-139.191" font-family="Helvetica,sans-Serif" font-size="10.00">::limit_order</text>
</a>
</g>
</g>
<!-- Node2&#45;&gt;Node3 -->
<g id="edge2" class="edge"><title>Node2&#45;&gt;Node3</title>
<path fill="none" stroke="midnightblue" d="M278.267,-113.292C293.299,-118.252 310.167,-123.818 325.821,-128.984"/>
<polygon fill="midnightblue" stroke="midnightblue" points="324.791,-132.329 335.385,-132.139 326.985,-125.682 324.791,-132.329"/>
</g>
<!-- Node4 -->
<g id="node4" class="node"><title>Node4</title>
<g id="a_node4"><a xlink:href="classscram_1_1core_1_1Zbdd.xhtml#a3dbb8ef5da2882daf6c39e9724eae459" target="_top" xlink:title="Removes subsets in ZBDD. ">
<polygon fill="white" stroke="black" points="331,-83.1908 331,-113.191 433,-113.191 433,-83.1908 331,-83.1908"/>
<text text-anchor="start" x="339" y="-101.191" font-family="Helvetica,sans-Serif" font-size="10.00">scram::core::Zbdd::</text>
<text text-anchor="middle" x="382" y="-90.1908" font-family="Helvetica,sans-Serif" font-size="10.00">Minimize</text>
</a>
</g>
</g>
<!-- Node2&#45;&gt;Node4 -->
<g id="edge3" class="edge"><title>Node2&#45;&gt;Node4</title>
<path fill="none" stroke="midnightblue" d="M290.765,-98.1908C300.535,-98.1908 310.692,-98.1908 320.516,-98.1908"/>
<polygon fill="midnightblue" stroke="midnightblue" points="320.603,-101.691 330.603,-98.1908 320.603,-94.6909 320.603,-101.691"/>
</g>
<!-- Node6 -->
<g id="node6" class="node"><title>Node6</title>
<g id="a_node6"><a xlink:href="classscram_1_1core_1_1SetNode.xhtml#adfcfad8dde1eb94ed51d8075a5ad6344" target="_top" xlink:title="&lt; For destructive extraction of products. ">
<polygon fill="white" stroke="black" points="640,-110.691 640,-129.691 771,-129.691 771,-110.691 640,-110.691"/>
<text text-anchor="middle" x="705.5" y="-117.691" font-family="Helvetica,sans-Serif" font-size="10.00">scram::core::SetNode::Ptr</text>
</a>
</g>
</g>
<!-- Node2&#45;&gt;Node6 -->
<g id="edge11" class="edge"><title>Node2&#45;&gt;Node6</title>
<path fill="none" stroke="midnightblue" d="M270.273,-83.0685C327.327,-60.5325 433.063,-20.0407 473,-13.1908 530.384,-3.34844 550.565,9.92934 604,-13.1908 645.895,-31.3181 678.364,-76.4604 694.087,-101.94"/>
<polygon fill="midnightblue" stroke="midnightblue" points="691.15,-103.849 699.278,-110.645 697.163,-100.264 691.15,-103.849"/>
</g>
<!-- Node5 -->
<g id="node5" class="node"><title>Node5</title>
<g id="a_node5"><a xlink:href="classscram_1_1core_1_1Zbdd.xhtml#a42af18229ba2e80201bc0fdac07b7091" target="_top" xlink:title="Finds or adds a unique SetNode in the ZBDD. ">
<polygon fill="white" stroke="black" points="487.5,-149.191 487.5,-179.191 589.5,-179.191 589.5,-149.191 487.5,-149.191"/>
<text text-anchor="start" x="495.5" y="-167.191" font-family="Helvetica,sans-Serif" font-size="10.00">scram::core::Zbdd::</text>
<text text-anchor="middle" x="538.5" y="-156.191" font-family="Helvetica,sans-Serif" font-size="10.00">FindOrAddVertex</text>
</a>
</g>
</g>
<!-- Node4&#45;&gt;Node5 -->
<g id="edge4" class="edge"><title>Node4&#45;&gt;Node5</title>
<path fill="none" stroke="midnightblue" d="M418.445,-113.333C440.526,-122.765 469.128,-134.983 492.763,-145.08"/>
<polygon fill="midnightblue" stroke="midnightblue" points="491.648,-148.41 502.22,-149.12 494.398,-141.972 491.648,-148.41"/>
</g>
<!-- Node4&#45;&gt;Node6 -->
<g id="edge7" class="edge"><title>Node4&#45;&gt;Node6</title>
<path fill="none" stroke="midnightblue" d="M433.234,-101.628C485.906,-105.233 569.26,-110.936 629.678,-115.071"/>
<polygon fill="midnightblue" stroke="midnightblue" points="629.707,-118.581 639.923,-115.772 630.185,-111.597 629.707,-118.581"/>
</g>
<!-- Node7 -->
<g id="node7" class="node"><title>Node7</title>
<g id="a_node7"><a xlink:href="classscram_1_1core_1_1Settings.xhtml#ae64f362fceb44402e101140dfc1725ba" target="_top" xlink:title="scram::core::Settings\l::prime_implicants">
<polygon fill="white" stroke="black" points="483.5,-61.1908 483.5,-91.1908 593.5,-91.1908 593.5,-61.1908 483.5,-61.1908"/>
<text text-anchor="start" x="491.5" y="-79.1908" font-family="Helvetica,sans-Serif" font-size="10.00">scram::core::Settings</text>
<text text-anchor="middle" x="538.5" y="-68.1908" font-family="Helvetica,sans-Serif" font-size="10.00">::prime_implicants</text>
</a>
</g>
</g>
<!-- Node4&#45;&gt;Node7 -->
<g id="edge6" class="edge"><title>Node4&#45;&gt;Node7</title>
<path fill="none" stroke="midnightblue" d="M433.162,-91.048C445.941,-89.2284 459.852,-87.2475 473.229,-85.3427"/>
<polygon fill="midnightblue" stroke="midnightblue" points="473.919,-88.7797 483.326,-83.9049 472.932,-81.8497 473.919,-88.7797"/>
</g>
<!-- Node8 -->
<g id="node8" class="node"><title>Node8</title>
<g id="a_node8"><a xlink:href="classscram_1_1core_1_1Terminal.xhtml#ab615ba4379a9ae2a882177a6d120ece9" target="_top" xlink:title="Recovers a shared pointer to Terminal from a pointer to Vertex. ">
<polygon fill="white" stroke="black" points="473,-22.6908 473,-41.6908 604,-41.6908 604,-22.6908 473,-22.6908"/>
<text text-anchor="middle" x="538.5" y="-29.6908" font-family="Helvetica,sans-Serif" font-size="10.00">scram::core::Terminal::Ptr</text>
</a>
</g>
</g>
<!-- Node4&#45;&gt;Node8 -->
<g id="edge8" class="edge"><title>Node4&#45;&gt;Node8</title>
<path fill="none" stroke="midnightblue" d="M408.746,-83.028C426.407,-73.0595 450.608,-60.235 473,-51.1908 478.754,-48.8669 484.899,-46.6888 491.025,-44.6963"/>
<polygon fill="midnightblue" stroke="midnightblue" points="492.069,-48.0372 500.577,-41.7236 489.988,-41.3534 492.069,-48.0372"/>
</g>
<!-- Node9 -->
<g id="node9" class="node"><title>Node9</title>
<g id="a_node9"><a xlink:href="classscram_1_1core_1_1Terminal.xhtml#a7a25b0b40498f4876571a5dac4e724c3" target="_top" xlink:title="scram::core::Terminal\l::value">
<polygon fill="white" stroke="black" points="482.5,-198.191 482.5,-228.191 594.5,-228.191 594.5,-198.191 482.5,-198.191"/>
<text text-anchor="start" x="490.5" y="-216.191" font-family="Helvetica,sans-Serif" font-size="10.00">scram::core::Terminal</text>
<text text-anchor="middle" x="538.5" y="-205.191" font-family="Helvetica,sans-Serif" font-size="10.00">::value</text>
</a>
</g>
</g>
<!-- Node4&#45;&gt;Node9 -->
<g id="edge9" class="edge"><title>Node4&#45;&gt;Node9</title>
<path fill="none" stroke="midnightblue" d="M424.573,-113.206C429.045,-115.801 433.304,-118.783 437,-122.191 461.565,-144.84 447.893,-166.143 473,-188.191 474.76,-189.736 476.626,-191.191 478.571,-192.56"/>
<polygon fill="midnightblue" stroke="midnightblue" points="477.172,-195.807 487.531,-198.031 480.82,-189.833 477.172,-195.807"/>
</g>
<!-- Node5&#45;&gt;Node6 -->
<g id="edge5" class="edge"><title>Node5&#45;&gt;Node6</title>
<path fill="none" stroke="midnightblue" d="M589.902,-150.75C611.91,-144.881 637.529,-138.05 658.956,-132.336"/>
<polygon fill="midnightblue" stroke="midnightblue" points="660.029,-135.672 668.79,-129.714 658.225,-128.908 660.029,-135.672"/>
</g>
<!-- Node10 -->
<g id="node10" class="node"><title>Node10</title>
<g id="a_node10"><a xlink:href="classscram_1_1core_1_1Vertex.xhtml#a8a4a6e9871c7b80b9951fea57617d438" target="_top" xlink:title="scram::core::Vertex::id">
<polygon fill="white" stroke="black" points="647.5,-203.691 647.5,-222.691 763.5,-222.691 763.5,-203.691 647.5,-203.691"/>
<text text-anchor="middle" x="705.5" y="-210.691" font-family="Helvetica,sans-Serif" font-size="10.00">scram::core::Vertex::id</text>
</a>
</g>
</g>
<!-- Node9&#45;&gt;Node10 -->
<g id="edge10" class="edge"><title>Node9&#45;&gt;Node10</title>
<path fill="none" stroke="midnightblue" d="M594.902,-213.191C608.462,-213.191 623.121,-213.191 637.173,-213.191"/>
<polygon fill="midnightblue" stroke="midnightblue" points="637.272,-216.691 647.272,-213.191 637.272,-209.691 637.272,-216.691"/>
</g>
</g>
</svg>
