<?xml version="1.0" encoding="UTF-8" standalone="no"?>
<!DOCTYPE svg PUBLIC "-//W3C//DTD SVG 1.1//EN"
 "http://www.w3.org/Graphics/SVG/1.1/DTD/svg11.dtd">
<!-- Generated by graphviz version 2.38.0 (20140413.2041)
 -->
<!-- Title: scram::mef::Neg::Max Pages: 1 -->
<svg width="459pt" height="39pt"
 viewBox="0.00 0.00 459.00 39.00" xmlns="http://www.w3.org/2000/svg" xmlns:xlink="http://www.w3.org/1999/xlink">
<g id="graph0" class="graph" transform="scale(1 1) rotate(0) translate(4 35)">
<title>scram::mef::Neg::Max</title>
<polygon fill="white" stroke="none" points="-4,4 -4,-35 455,-35 455,4 -4,4"/>
<!-- Node1 -->
<g id="node1" class="node"><title>Node1</title>
<polygon fill="#bfbfbf" stroke="black" points="0,-6 0,-25 115,-25 115,-6 0,-6"/>
<text text-anchor="middle" x="57.5" y="-13" font-family="Helvetica,sans-Serif" font-size="10.00">scram::mef::Neg::Max</text>
</g>
<!-- Node2 -->
<g id="node2" class="node"><title>Node2</title>
<g id="a_node2"><a xlink:href="classscram_1_1mef_1_1Expression.xhtml#a9601745b7f61ec67c8074a4043367152" target="_top" xlink:title="scram::mef::Expression::Min">
<polygon fill="white" stroke="black" points="151,-6 151,-25 294,-25 294,-6 151,-6"/>
<text text-anchor="middle" x="222.5" y="-13" font-family="Helvetica,sans-Serif" font-size="10.00">scram::mef::Expression::Min</text>
</a>
</g>
</g>
<!-- Node1&#45;&gt;Node2 -->
<g id="edge1" class="edge"><title>Node1&#45;&gt;Node2</title>
<path fill="none" stroke="midnightblue" d="M115.052,-15.5C123.379,-15.5 132.091,-15.5 140.791,-15.5"/>
<polygon fill="midnightblue" stroke="midnightblue" points="140.974,-19.0001 150.974,-15.5 140.974,-12.0001 140.974,-19.0001"/>
</g>
<!-- Node3 -->
<g id="node3" class="node"><title>Node3</title>
<g id="a_node3"><a xlink:href="classscram_1_1mef_1_1Expression.xhtml#ac7e0dd118eafdfa943944172c1625a4e" target="_top" xlink:title="scram::mef::Expression\l::Mean">
<polygon fill="white" stroke="black" points="330,-0.5 330,-30.5 451,-30.5 451,-0.5 330,-0.5"/>
<text text-anchor="start" x="338" y="-18.5" font-family="Helvetica,sans-Serif" font-size="10.00">scram::mef::Expression</text>
<text text-anchor="middle" x="390.5" y="-7.5" font-family="Helvetica,sans-Serif" font-size="10.00">::Mean</text>
</a>
</g>
</g>
<!-- Node2&#45;&gt;Node3 -->
<g id="edge2" class="edge"><title>Node2&#45;&gt;Node3</title>
<path fill="none" stroke="midnightblue" d="M294.38,-15.5C302.775,-15.5 311.339,-15.5 319.719,-15.5"/>
<polygon fill="midnightblue" stroke="midnightblue" points="319.825,-19.0001 329.825,-15.5 319.825,-12.0001 319.825,-19.0001"/>
</g>
</g>
</svg>
