<?xml version="1.0" encoding="UTF-8" standalone="no"?>
<!DOCTYPE svg PUBLIC "-//W3C//DTD SVG 1.1//EN"
 "http://www.w3.org/Graphics/SVG/1.1/DTD/svg11.dtd">
<!-- Generated by graphviz version 2.38.0 (20140413.2041)
 -->
<!-- Title: scram::mef::Id::Id Pages: 1 -->
<svg width="282pt" height="116pt"
 viewBox="0.00 0.00 282.00 116.00" xmlns="http://www.w3.org/2000/svg" xmlns:xlink="http://www.w3.org/1999/xlink">
<g id="graph0" class="graph" transform="scale(1 1) rotate(0) translate(4 112)">
<title>scram::mef::Id::Id</title>
<polygon fill="white" stroke="none" points="-4,4 -4,-112 278,-112 278,4 -4,4"/>
<!-- Node1 -->
<g id="node1" class="node"><title>Node1</title>
<polygon fill="#bfbfbf" stroke="black" points="0,-44.5 0,-63.5 95,-63.5 95,-44.5 0,-44.5"/>
<text text-anchor="middle" x="47.5" y="-51.5" font-family="Helvetica,sans-Serif" font-size="10.00">scram::mef::Id::Id</text>
</g>
<!-- Node2 -->
<g id="node2" class="node"><title>Node2</title>
<g id="a_node2"><a xlink:href="classscram_1_1mef_1_1Role.xhtml#ab91a51488ee8c4ed054de1e8450c8a59" target="_top" xlink:title="scram::mef::Role::base_path">
<polygon fill="white" stroke="black" points="131,-88.5 131,-107.5 274,-107.5 274,-88.5 131,-88.5"/>
<text text-anchor="middle" x="202.5" y="-95.5" font-family="Helvetica,sans-Serif" font-size="10.00">scram::mef::Role::base_path</text>
</a>
</g>
</g>
<!-- Node1&#45;&gt;Node2 -->
<g id="edge1" class="edge"><title>Node1&#45;&gt;Node2</title>
<path fill="none" stroke="midnightblue" d="M79.3824,-63.606C94.8473,-68.3532 113.878,-74.0997 131,-79 138.884,-81.2565 147.286,-83.5859 155.441,-85.8073"/>
<polygon fill="midnightblue" stroke="midnightblue" points="154.646,-89.218 165.213,-88.4511 156.474,-82.4609 154.646,-89.218"/>
</g>
<!-- Node3 -->
<g id="node3" class="node"><title>Node3</title>
<g id="a_node3"><a xlink:href="classscram_1_1mef_1_1Element.xhtml#adb401e2ca84aa98cb60797bec2500a81" target="_top" xlink:title="scram::mef::Element\l::name">
<polygon fill="white" stroke="black" points="148.5,-39 148.5,-69 256.5,-69 256.5,-39 148.5,-39"/>
<text text-anchor="start" x="156.5" y="-57" font-family="Helvetica,sans-Serif" font-size="10.00">scram::mef::Element</text>
<text text-anchor="middle" x="202.5" y="-46" font-family="Helvetica,sans-Serif" font-size="10.00">::name</text>
</a>
</g>
</g>
<!-- Node1&#45;&gt;Node3 -->
<g id="edge2" class="edge"><title>Node1&#45;&gt;Node3</title>
<path fill="none" stroke="midnightblue" d="M95.2364,-54C108.743,-54 123.716,-54 138.059,-54"/>
<polygon fill="midnightblue" stroke="midnightblue" points="138.36,-57.5001 148.36,-54 138.36,-50.5001 138.36,-57.5001"/>
</g>
<!-- Node4 -->
<g id="node4" class="node"><title>Node4</title>
<g id="a_node4"><a xlink:href="classscram_1_1mef_1_1Role.xhtml#aa1843c29411c29b27d79414d34525bbc" target="_top" xlink:title="scram::mef::Role::role">
<polygon fill="white" stroke="black" points="145.5,-0.5 145.5,-19.5 259.5,-19.5 259.5,-0.5 145.5,-0.5"/>
<text text-anchor="middle" x="202.5" y="-7.5" font-family="Helvetica,sans-Serif" font-size="10.00">scram::mef::Role::role</text>
</a>
</g>
</g>
<!-- Node1&#45;&gt;Node4 -->
<g id="edge3" class="edge"><title>Node1&#45;&gt;Node4</title>
<path fill="none" stroke="midnightblue" d="M81.0079,-44.4889C96.19,-40.0609 114.513,-34.7367 131,-30 139.707,-27.4986 149.024,-24.8415 157.939,-22.3087"/>
<polygon fill="midnightblue" stroke="midnightblue" points="159.114,-25.6136 167.778,-19.517 157.203,-18.8794 159.114,-25.6136"/>
</g>
</g>
</svg>
