<?xml version="1.0" encoding="UTF-8" standalone="no"?>
<!DOCTYPE svg PUBLIC "-//W3C//DTD SVG 1.1//EN"
 "http://www.w3.org/Graphics/SVG/1.1/DTD/svg11.dtd">
<!-- Generated by graphviz version 2.38.0 (20140413.2041)
 -->
<!-- Title: scram::core::RareEventCalculator::Calculate Pages: 1 -->
<svg width="360pt" height="88pt"
 viewBox="0.00 0.00 360.00 88.00" xmlns="http://www.w3.org/2000/svg" xmlns:xlink="http://www.w3.org/1999/xlink">
<g id="graph0" class="graph" transform="scale(1 1) rotate(0) translate(4 84)">
<title>scram::core::RareEventCalculator::Calculate</title>
<polygon fill="white" stroke="none" points="-4,4 -4,-84 356,-84 356,4 -4,4"/>
<!-- Node1 -->
<g id="node1" class="node"><title>Node1</title>
<polygon fill="#bfbfbf" stroke="black" points="0,-24.5 0,-54.5 165,-54.5 165,-24.5 0,-24.5"/>
<text text-anchor="start" x="8" y="-42.5" font-family="Helvetica,sans-Serif" font-size="10.00">scram::core::RareEventCalculator</text>
<text text-anchor="middle" x="82.5" y="-31.5" font-family="Helvetica,sans-Serif" font-size="10.00">::Calculate</text>
</g>
<!-- Node2 -->
<g id="node2" class="node"><title>Node2</title>
<g id="a_node2"><a xlink:href="classscram_1_1core_1_1CutSetProbabilityCalculator.xhtml#a6fe9b29bb6435fefeb43c784f05605b1" target="_top" xlink:title="Calculates a probability of a cut set, whose members are in AND relationship with each other...">
<polygon fill="white" stroke="black" points="201,-49.5 201,-79.5 352,-79.5 352,-49.5 201,-49.5"/>
<text text-anchor="start" x="209" y="-67.5" font-family="Helvetica,sans-Serif" font-size="10.00">scram::core::CutSetProbability</text>
<text text-anchor="middle" x="276.5" y="-56.5" font-family="Helvetica,sans-Serif" font-size="10.00">Calculator::Calculate</text>
</a>
</g>
</g>
<!-- Node1&#45;&gt;Node2 -->
<g id="edge1" class="edge"><title>Node1&#45;&gt;Node2</title>
<path fill="none" stroke="midnightblue" d="M165.204,-50.1385C173.713,-51.2465 182.376,-52.3745 190.917,-53.4866"/>
<polygon fill="midnightblue" stroke="midnightblue" points="190.502,-56.9621 200.871,-54.7826 191.406,-50.0207 190.502,-56.9621"/>
</g>
<!-- Node3 -->
<g id="node3" class="node"><title>Node3</title>
<g id="a_node3"><a xlink:href="classscram_1_1core_1_1CutSetProbabilityCalculator.xhtml#a65d68a9aacfdcb5a918f5d33bd43306d" target="_top" xlink:title="Checks the special case of a unity set with probability 1. ">
<polygon fill="white" stroke="black" points="201,-0.5 201,-30.5 352,-30.5 352,-0.5 201,-0.5"/>
<text text-anchor="start" x="209" y="-18.5" font-family="Helvetica,sans-Serif" font-size="10.00">scram::core::CutSetProbability</text>
<text text-anchor="middle" x="276.5" y="-7.5" font-family="Helvetica,sans-Serif" font-size="10.00">Calculator::CheckUnity</text>
</a>
</g>
</g>
<!-- Node1&#45;&gt;Node3 -->
<g id="edge2" class="edge"><title>Node1&#45;&gt;Node3</title>
<path fill="none" stroke="midnightblue" d="M165.204,-29.287C173.713,-28.2233 182.376,-27.1404 190.917,-26.0729"/>
<polygon fill="midnightblue" stroke="midnightblue" points="191.382,-29.5421 200.871,-24.8287 190.514,-22.5961 191.382,-29.5421"/>
</g>
</g>
</svg>
