<?xml version="1.0" encoding="UTF-8" standalone="no"?>
<!DOCTYPE svg PUBLIC "-//W3C//DTD SVG 1.1//EN"
 "http://www.w3.org/Graphics/SVG/1.1/DTD/svg11.dtd">
<!-- Generated by graphviz version 2.38.0 (20140413.2041)
 -->
<!-- Title: scram::mef::Expression Pages: 1 -->
<!--zoomable 590 -->
<svg id="main" version="1.1" xmlns="http://www.w3.org/2000/svg" xmlns:xlink="http://www.w3.org/1999/xlink" xml:space="preserve" onload="init(evt)">
<style type="text/css"><![CDATA[
.edge:hover path { stroke: red; }
.edge:hover polygon { stroke: red; fill: red; }
]]></style>
<script type="text/javascript"><![CDATA[
var edges = document.getElementsByTagName('g');
if (edges && edges.length) {
  for (var i=0;i<edges.length;i++) {
    if (edges[i].id.substr(0,4)=='edge') {
      edges[i].setAttribute('class','edge');
    }
  }
}
]]></script>
        <defs>
                <circle id="rim" cx="0" cy="0" r="7"/>
                <circle id="rim2" cx="0" cy="0" r="3.5"/>
                <g id="zoomPlus">
                        <use xlink:href="#rim" fill="#404040">
                                <set attributeName="fill" to="#808080" begin="zoomplus.mouseover" end="zoomplus.mouseout"/>
                        </use>
                        <path d="M-4,0h8M0,-4v8" fill="none" stroke="white" stroke-width="1.5" pointer-events="none"/>
                </g>
                <g id="zoomMin">
                        <use xlink:href="#rim" fill="#404040">
                                <set attributeName="fill" to="#808080" begin="zoomminus.mouseover" end="zoomminus.mouseout"/>
                        </use>
                        <path d="M-4,0h8" fill="none" stroke="white" stroke-width="1.5" pointer-events="none"/>
                </g>
                <g id="dirArrow">
                        <path fill="none" stroke="white" stroke-width="1.5" d="M0,-3.0v7 M-2.5,-0.5L0,-3.0L2.5,-0.5"/>
                </g>
               <g id="resetDef">
                       <use xlink:href="#rim2" fill="#404040">
                               <set attributeName="fill" to="#808080" begin="reset.mouseover" end="reset.mouseout"/>
                       </use>
               </g>
        </defs>

<script type="text/javascript">
var viewWidth = 1696;
var viewHeight = 590;
var sectionId = 'dynsection-0';
</script>
<script xlink:href="svgpan.js"/>
<svg id="graph" class="graph">
<g id="viewport">
<title>scram::mef::Expression</title>
<polygon fill="white" stroke="none" points="-4,4 -4,-586 1691.5,-586 1691.5,4 -4,4"/>
<!-- Node1 -->
<g id="node1" class="node"><title>Node1</title>
<polygon fill="#bfbfbf" stroke="black" points="824,-320.5 824,-487.5 945,-487.5 945,-320.5 824,-320.5"/>
<text text-anchor="middle" x="884.5" y="-475.5" font-family="Helvetica,sans-Serif" font-size="10.00">scram::mef::Expression</text>
<polyline fill="none" stroke="black" points="824,-468.5 945,-468.5 "/>
<text text-anchor="middle" x="884.5" y="-456.5" font-family="Helvetica,sans-Serif" font-size="10.00"> </text>
<polyline fill="none" stroke="black" points="824,-449.5 945,-449.5 "/>
<text text-anchor="start" x="832" y="-437.5" font-family="Helvetica,sans-Serif" font-size="10.00">+ Expression()</text>
<text text-anchor="start" x="832" y="-426.5" font-family="Helvetica,sans-Serif" font-size="10.00">+ ~Expression()</text>
<text text-anchor="start" x="832" y="-415.5" font-family="Helvetica,sans-Serif" font-size="10.00">+ args()</text>
<text text-anchor="start" x="832" y="-404.5" font-family="Helvetica,sans-Serif" font-size="10.00">+ Validate()</text>
<text text-anchor="start" x="832" y="-393.5" font-family="Helvetica,sans-Serif" font-size="10.00">+ Mean()</text>
<text text-anchor="start" x="832" y="-382.5" font-family="Helvetica,sans-Serif" font-size="10.00">+ Sample()</text>
<text text-anchor="start" x="832" y="-371.5" font-family="Helvetica,sans-Serif" font-size="10.00">+ Reset()</text>
<text text-anchor="start" x="832" y="-360.5" font-family="Helvetica,sans-Serif" font-size="10.00">+ IsConstant()</text>
<text text-anchor="start" x="832" y="-349.5" font-family="Helvetica,sans-Serif" font-size="10.00">+ Max()</text>
<text text-anchor="start" x="832" y="-338.5" font-family="Helvetica,sans-Serif" font-size="10.00">+ Min()</text>
<text text-anchor="start" x="832" y="-327.5" font-family="Helvetica,sans-Serif" font-size="10.00"># AddArg()</text>
</g>
<!-- Node3 -->
<g id="node3" class="node"><title>Node3</title>
<g id="a_node3"><a xlink:href="classscram_1_1mef_1_1BinaryExpression.xhtml" target="_top" xlink:title="Base class for expressions that require 2 or more arguments. ">
<polygon fill="white" stroke="black" points="182,-182.5 182,-239.5 331,-239.5 331,-182.5 182,-182.5"/>
<text text-anchor="middle" x="256.5" y="-227.5" font-family="Helvetica,sans-Serif" font-size="10.00">scram::mef::BinaryExpression</text>
<polyline fill="none" stroke="black" points="182,-220.5 331,-220.5 "/>
<text text-anchor="middle" x="256.5" y="-208.5" font-family="Helvetica,sans-Serif" font-size="10.00"> </text>
<polyline fill="none" stroke="black" points="182,-201.5 331,-201.5 "/>
<text text-anchor="start" x="190" y="-189.5" font-family="Helvetica,sans-Serif" font-size="10.00">+ BinaryExpression()</text>
</a>
</g>
</g>
<!-- Node1&#45;&gt;Node3 -->
<g id="edge2" class="edge"><title>Node1&#45;&gt;Node3</title>
<path fill="none" stroke="midnightblue" d="M813.621,-394.391C712.102,-380.351 520.852,-347.49 369.5,-284 342.15,-272.527 314.013,-254.623 292.658,-239.539"/>
<polygon fill="none" stroke="midnightblue" points="813.377,-397.89 823.758,-395.771 814.321,-390.954 813.377,-397.89"/>
</g>
<!-- Node8 -->
<g id="node8" class="node"><title>Node8</title>
<g id="a_node8"><a xlink:href="classscram_1_1mef_1_1ConstantExpression.xhtml" target="_top" xlink:title="Indicates a constant value. ">
<polygon fill="white" stroke="black" points="379,-149.5 379,-272.5 540,-272.5 540,-149.5 379,-149.5"/>
<text text-anchor="middle" x="459.5" y="-260.5" font-family="Helvetica,sans-Serif" font-size="10.00">scram::mef::ConstantExpression</text>
<polyline fill="none" stroke="black" points="379,-253.5 540,-253.5 "/>
<text text-anchor="start" x="387" y="-241.5" font-family="Helvetica,sans-Serif" font-size="10.00">+ kOne</text>
<text text-anchor="start" x="387" y="-230.5" font-family="Helvetica,sans-Serif" font-size="10.00">+ kZero</text>
<text text-anchor="start" x="387" y="-219.5" font-family="Helvetica,sans-Serif" font-size="10.00">+ kPi</text>
<polyline fill="none" stroke="black" points="379,-212.5 540,-212.5 "/>
<text text-anchor="start" x="387" y="-200.5" font-family="Helvetica,sans-Serif" font-size="10.00">+ ConstantExpression()</text>
<text text-anchor="start" x="387" y="-189.5" font-family="Helvetica,sans-Serif" font-size="10.00">+ ConstantExpression()</text>
<text text-anchor="start" x="387" y="-178.5" font-family="Helvetica,sans-Serif" font-size="10.00">+ ConstantExpression()</text>
<text text-anchor="start" x="387" y="-167.5" font-family="Helvetica,sans-Serif" font-size="10.00">+ Mean()</text>
<text text-anchor="start" x="387" y="-156.5" font-family="Helvetica,sans-Serif" font-size="10.00">+ IsConstant()</text>
</a>
</g>
</g>
<!-- Node1&#45;&gt;Node8 -->
<g id="edge7" class="edge"><title>Node1&#45;&gt;Node8</title>
<path fill="none" stroke="midnightblue" d="M813.816,-385.316C743.939,-366.156 635.334,-331.79 549.5,-284 543.294,-280.544 537.078,-276.663 530.975,-272.539"/>
<polygon fill="none" stroke="midnightblue" points="813.27,-388.794 823.837,-388.033 815.101,-382.038 813.27,-388.794"/>
</g>
<!-- Node10 -->
<g id="node10" class="node"><title>Node10</title>
<g id="a_node10"><a xlink:href="classscram_1_1mef_1_1ExponentialExpression.xhtml" target="_top" xlink:title="Negative exponential distribution with hourly failure rate and time. ">
<polygon fill="white" stroke="black" points="558.5,-160.5 558.5,-261.5 730.5,-261.5 730.5,-160.5 558.5,-160.5"/>
<text text-anchor="middle" x="644.5" y="-249.5" font-family="Helvetica,sans-Serif" font-size="10.00">scram::mef::ExponentialExpression</text>
<polyline fill="none" stroke="black" points="558.5,-242.5 730.5,-242.5 "/>
<text text-anchor="middle" x="644.5" y="-230.5" font-family="Helvetica,sans-Serif" font-size="10.00"> </text>
<polyline fill="none" stroke="black" points="558.5,-223.5 730.5,-223.5 "/>
<text text-anchor="start" x="566.5" y="-211.5" font-family="Helvetica,sans-Serif" font-size="10.00">+ ExponentialExpression()</text>
<text text-anchor="start" x="566.5" y="-200.5" font-family="Helvetica,sans-Serif" font-size="10.00">+ Validate()</text>
<text text-anchor="start" x="566.5" y="-189.5" font-family="Helvetica,sans-Serif" font-size="10.00">+ Mean()</text>
<text text-anchor="start" x="566.5" y="-178.5" font-family="Helvetica,sans-Serif" font-size="10.00">+ Max()</text>
<text text-anchor="start" x="566.5" y="-167.5" font-family="Helvetica,sans-Serif" font-size="10.00">+ Min()</text>
</a>
</g>
</g>
<!-- Node1&#45;&gt;Node10 -->
<g id="edge9" class="edge"><title>Node1&#45;&gt;Node10</title>
<path fill="none" stroke="midnightblue" d="M815.812,-348.336C781.44,-320.981 740.148,-288.12 706.716,-261.513"/>
<polygon fill="none" stroke="midnightblue" points="813.934,-351.314 823.938,-354.803 818.293,-345.837 813.934,-351.314"/>
</g>
<!-- Node11 -->
<g id="node11" class="node"><title>Node11</title>
<g id="a_node11"><a xlink:href="classscram_1_1mef_1_1GlmExpression.xhtml" target="_top" xlink:title="Exponential with probability of failure on demand, hourly failure rate, hourly repairing rate...">
<polygon fill="white" stroke="black" points="749,-160.5 749,-261.5 888,-261.5 888,-160.5 749,-160.5"/>
<text text-anchor="middle" x="818.5" y="-249.5" font-family="Helvetica,sans-Serif" font-size="10.00">scram::mef::GlmExpression</text>
<polyline fill="none" stroke="black" points="749,-242.5 888,-242.5 "/>
<text text-anchor="middle" x="818.5" y="-230.5" font-family="Helvetica,sans-Serif" font-size="10.00"> </text>
<polyline fill="none" stroke="black" points="749,-223.5 888,-223.5 "/>
<text text-anchor="start" x="757" y="-211.5" font-family="Helvetica,sans-Serif" font-size="10.00">+ GlmExpression()</text>
<text text-anchor="start" x="757" y="-200.5" font-family="Helvetica,sans-Serif" font-size="10.00">+ Validate()</text>
<text text-anchor="start" x="757" y="-189.5" font-family="Helvetica,sans-Serif" font-size="10.00">+ Mean()</text>
<text text-anchor="start" x="757" y="-178.5" font-family="Helvetica,sans-Serif" font-size="10.00">+ Max()</text>
<text text-anchor="start" x="757" y="-167.5" font-family="Helvetica,sans-Serif" font-size="10.00">+ Min()</text>
</a>
</g>
</g>
<!-- Node1&#45;&gt;Node11 -->
<g id="edge10" class="edge"><title>Node1&#45;&gt;Node11</title>
<path fill="none" stroke="midnightblue" d="M852.524,-310.464C846.714,-293.649 840.861,-276.71 835.687,-261.737"/>
<polygon fill="none" stroke="midnightblue" points="849.361,-312.027 855.935,-320.335 855.977,-309.741 849.361,-312.027"/>
</g>
<!-- Node12 -->
<g id="node12" class="node"><title>Node12</title>
<g id="a_node12"><a xlink:href="classscram_1_1mef_1_1Neg.xhtml" target="_top" xlink:title="This class for negation of numerical value or another expression. ">
<polygon fill="white" stroke="black" points="906.5,-166 906.5,-256 996.5,-256 996.5,-166 906.5,-166"/>
<text text-anchor="middle" x="951.5" y="-244" font-family="Helvetica,sans-Serif" font-size="10.00">scram::mef::Neg</text>
<polyline fill="none" stroke="black" points="906.5,-237 996.5,-237 "/>
<text text-anchor="middle" x="951.5" y="-225" font-family="Helvetica,sans-Serif" font-size="10.00"> </text>
<polyline fill="none" stroke="black" points="906.5,-218 996.5,-218 "/>
<text text-anchor="start" x="914.5" y="-206" font-family="Helvetica,sans-Serif" font-size="10.00">+ Neg()</text>
<text text-anchor="start" x="914.5" y="-195" font-family="Helvetica,sans-Serif" font-size="10.00">+ Mean()</text>
<text text-anchor="start" x="914.5" y="-184" font-family="Helvetica,sans-Serif" font-size="10.00">+ Max()</text>
<text text-anchor="start" x="914.5" y="-173" font-family="Helvetica,sans-Serif" font-size="10.00">+ Min()</text>
</a>
</g>
</g>
<!-- Node1&#45;&gt;Node12 -->
<g id="edge11" class="edge"><title>Node1&#45;&gt;Node12</title>
<path fill="none" stroke="midnightblue" d="M916.871,-310.718C923.547,-291.686 930.284,-272.482 936.017,-256.137"/>
<polygon fill="none" stroke="midnightblue" points="913.505,-309.741 913.497,-320.335 920.11,-312.058 913.505,-309.741"/>
</g>
<!-- Node13 -->
<g id="node13" class="node"><title>Node13</title>
<g id="a_node13"><a xlink:href="classscram_1_1mef_1_1Parameter.xhtml" target="_top" xlink:title="This class provides a representation of a variable in basic event description. ">
<polygon fill="white" stroke="black" points="1015,-138.5 1015,-283.5 1132,-283.5 1132,-138.5 1015,-138.5"/>
<text text-anchor="middle" x="1073.5" y="-271.5" font-family="Helvetica,sans-Serif" font-size="10.00">scram::mef::Parameter</text>
<polyline fill="none" stroke="black" points="1015,-264.5 1132,-264.5 "/>
<text text-anchor="middle" x="1073.5" y="-252.5" font-family="Helvetica,sans-Serif" font-size="10.00"> </text>
<polyline fill="none" stroke="black" points="1015,-245.5 1132,-245.5 "/>
<text text-anchor="start" x="1023" y="-233.5" font-family="Helvetica,sans-Serif" font-size="10.00">+ Parameter()</text>
<text text-anchor="start" x="1023" y="-222.5" font-family="Helvetica,sans-Serif" font-size="10.00">+ expression()</text>
<text text-anchor="start" x="1023" y="-211.5" font-family="Helvetica,sans-Serif" font-size="10.00">+ unit()</text>
<text text-anchor="start" x="1023" y="-200.5" font-family="Helvetica,sans-Serif" font-size="10.00">+ unit()</text>
<text text-anchor="start" x="1023" y="-189.5" font-family="Helvetica,sans-Serif" font-size="10.00">+ unused()</text>
<text text-anchor="start" x="1023" y="-178.5" font-family="Helvetica,sans-Serif" font-size="10.00">+ unused()</text>
<text text-anchor="start" x="1023" y="-167.5" font-family="Helvetica,sans-Serif" font-size="10.00">+ Mean()</text>
<text text-anchor="start" x="1023" y="-156.5" font-family="Helvetica,sans-Serif" font-size="10.00">+ Max()</text>
<text text-anchor="start" x="1023" y="-145.5" font-family="Helvetica,sans-Serif" font-size="10.00">+ Min()</text>
</a>
</g>
</g>
<!-- Node1&#45;&gt;Node13 -->
<g id="edge12" class="edge"><title>Node1&#45;&gt;Node13</title>
<path fill="none" stroke="midnightblue" d="M952.615,-336.878C969.985,-319.779 988.538,-301.308 1005.5,-284 1008.51,-280.93 1011.58,-277.773 1014.67,-274.575"/>
<polygon fill="none" stroke="midnightblue" points="949.93,-334.609 945.25,-344.115 954.836,-339.602 949.93,-334.609"/>
</g>
<!-- Node14 -->
<g id="node14" class="node"><title>Node14</title>
<g id="a_node14"><a xlink:href="classscram_1_1mef_1_1RandomDeviate.xhtml" target="_top" xlink:title="Abstract base class for all deviate expressions. ">
<polygon fill="white" stroke="black" points="1150,-182.5 1150,-239.5 1293,-239.5 1293,-182.5 1150,-182.5"/>
<text text-anchor="middle" x="1221.5" y="-227.5" font-family="Helvetica,sans-Serif" font-size="10.00">scram::mef::RandomDeviate</text>
<polyline fill="none" stroke="black" points="1150,-220.5 1293,-220.5 "/>
<text text-anchor="middle" x="1221.5" y="-208.5" font-family="Helvetica,sans-Serif" font-size="10.00"> </text>
<polyline fill="none" stroke="black" points="1150,-201.5 1293,-201.5 "/>
<text text-anchor="start" x="1158" y="-189.5" font-family="Helvetica,sans-Serif" font-size="10.00">+ IsConstant()</text>
</a>
</g>
</g>
<!-- Node1&#45;&gt;Node14 -->
<g id="edge13" class="edge"><title>Node1&#45;&gt;Node14</title>
<path fill="none" stroke="midnightblue" d="M954.377,-376.986C1007.53,-355.693 1081.36,-322.82 1140.5,-284 1159.85,-271.3 1179.3,-254.183 1194.29,-239.825"/>
<polygon fill="none" stroke="midnightblue" points="953.036,-373.752 945.033,-380.694 955.619,-380.258 953.036,-373.752"/>
</g>
<!-- Node21 -->
<g id="node21" class="node"><title>Node21</title>
<g id="a_node21"><a xlink:href="classscram_1_1mef_1_1WeibullExpression.xhtml" target="_top" xlink:title="Weibull distribution with scale, shape, time shift, and time. ">
<polygon fill="white" stroke="black" points="1311,-160.5 1311,-261.5 1464,-261.5 1464,-160.5 1311,-160.5"/>
<text text-anchor="middle" x="1387.5" y="-249.5" font-family="Helvetica,sans-Serif" font-size="10.00">scram::mef::WeibullExpression</text>
<polyline fill="none" stroke="black" points="1311,-242.5 1464,-242.5 "/>
<text text-anchor="middle" x="1387.5" y="-230.5" font-family="Helvetica,sans-Serif" font-size="10.00"> </text>
<polyline fill="none" stroke="black" points="1311,-223.5 1464,-223.5 "/>
<text text-anchor="start" x="1319" y="-211.5" font-family="Helvetica,sans-Serif" font-size="10.00">+ WeibullExpression()</text>
<text text-anchor="start" x="1319" y="-200.5" font-family="Helvetica,sans-Serif" font-size="10.00">+ Validate()</text>
<text text-anchor="start" x="1319" y="-189.5" font-family="Helvetica,sans-Serif" font-size="10.00">+ Mean()</text>
<text text-anchor="start" x="1319" y="-178.5" font-family="Helvetica,sans-Serif" font-size="10.00">+ Max()</text>
<text text-anchor="start" x="1319" y="-167.5" font-family="Helvetica,sans-Serif" font-size="10.00">+ Min()</text>
</a>
</g>
</g>
<!-- Node1&#45;&gt;Node21 -->
<g id="edge20" class="edge"><title>Node1&#45;&gt;Node21</title>
<path fill="none" stroke="midnightblue" d="M955.024,-392.166C1040.78,-376.949 1188.09,-344.127 1301.5,-284 1313.03,-277.889 1324.41,-270.045 1334.94,-261.793"/>
<polygon fill="none" stroke="midnightblue" points="954.383,-388.724 945.133,-393.891 955.586,-395.62 954.383,-388.724"/>
</g>
<!-- Node2 -->
<g id="node2" class="node"><title>Node2</title>
<polygon fill="white" stroke="#bfbfbf" points="849,-524.5 849,-581.5 920,-581.5 920,-524.5 849,-524.5"/>
<text text-anchor="middle" x="884.5" y="-569.5" font-family="Helvetica,sans-Serif" font-size="10.00">noncopyable</text>
<polyline fill="none" stroke="#bfbfbf" points="849,-562.5 920,-562.5 "/>
<text text-anchor="middle" x="884.5" y="-550.5" font-family="Helvetica,sans-Serif" font-size="10.00"> </text>
<polyline fill="none" stroke="#bfbfbf" points="849,-543.5 920,-543.5 "/>
<text text-anchor="middle" x="884.5" y="-531.5" font-family="Helvetica,sans-Serif" font-size="10.00"> </text>
</g>
<!-- Node2&#45;&gt;Node1 -->
<g id="edge1" class="edge"><title>Node2&#45;&gt;Node1</title>
<path fill="none" stroke="#8b1a1a" d="M884.5,-514.35C884.5,-506.08 884.5,-497.008 884.5,-487.738"/>
<polygon fill="none" stroke="#8b1a1a" points="881,-514.35 884.5,-524.35 888,-514.35 881,-514.35"/>
</g>
<!-- Node4 -->
<g id="node4" class="node"><title>Node4</title>
<g id="a_node4"><a xlink:href="classscram_1_1mef_1_1Add.xhtml" target="_top" xlink:title="This expression adds all the given expressions&#39; values. ">
<polygon fill="white" stroke="black" points="0,-11.5 0,-90.5 89,-90.5 89,-11.5 0,-11.5"/>
<text text-anchor="middle" x="44.5" y="-78.5" font-family="Helvetica,sans-Serif" font-size="10.00">scram::mef::Add</text>
<polyline fill="none" stroke="black" points="0,-71.5 89,-71.5 "/>
<text text-anchor="middle" x="44.5" y="-59.5" font-family="Helvetica,sans-Serif" font-size="10.00"> </text>
<polyline fill="none" stroke="black" points="0,-52.5 89,-52.5 "/>
<text text-anchor="start" x="8" y="-40.5" font-family="Helvetica,sans-Serif" font-size="10.00">+ Mean()</text>
<text text-anchor="start" x="8" y="-29.5" font-family="Helvetica,sans-Serif" font-size="10.00">+ Max()</text>
<text text-anchor="start" x="8" y="-18.5" font-family="Helvetica,sans-Serif" font-size="10.00">+ Min()</text>
</a>
</g>
</g>
<!-- Node3&#45;&gt;Node4 -->
<g id="edge3" class="edge"><title>Node3&#45;&gt;Node4</title>
<path fill="none" stroke="midnightblue" d="M203.299,-176.907C171.675,-156.499 131.275,-129.116 97.5,-102 93.0611,-98.4363 88.5451,-94.5805 84.1163,-90.6454"/>
<polygon fill="none" stroke="midnightblue" points="201.666,-180.018 211.973,-182.472 205.447,-174.126 201.666,-180.018"/>
</g>
<!-- Node5 -->
<g id="node5" class="node"><title>Node5</title>
<g id="a_node5"><a xlink:href="classscram_1_1mef_1_1Div.xhtml" target="_top" xlink:title="This expression performs division operation. ">
<polygon fill="white" stroke="black" points="107,-6 107,-96 194,-96 194,-6 107,-6"/>
<text text-anchor="middle" x="150.5" y="-84" font-family="Helvetica,sans-Serif" font-size="10.00">scram::mef::Div</text>
<polyline fill="none" stroke="black" points="107,-77 194,-77 "/>
<text text-anchor="middle" x="150.5" y="-65" font-family="Helvetica,sans-Serif" font-size="10.00"> </text>
<polyline fill="none" stroke="black" points="107,-58 194,-58 "/>
<text text-anchor="start" x="115" y="-46" font-family="Helvetica,sans-Serif" font-size="10.00">+ Validate()</text>
<text text-anchor="start" x="115" y="-35" font-family="Helvetica,sans-Serif" font-size="10.00">+ Mean()</text>
<text text-anchor="start" x="115" y="-24" font-family="Helvetica,sans-Serif" font-size="10.00">+ Max()</text>
<text text-anchor="start" x="115" y="-13" font-family="Helvetica,sans-Serif" font-size="10.00">+ Min()</text>
</a>
</g>
</g>
<!-- Node3&#45;&gt;Node5 -->
<g id="edge4" class="edge"><title>Node3&#45;&gt;Node5</title>
<path fill="none" stroke="midnightblue" d="M232.347,-173.998C216.851,-150.9 196.623,-120.75 180.155,-96.2022"/>
<polygon fill="none" stroke="midnightblue" points="229.558,-176.124 238.036,-182.479 235.371,-172.224 229.558,-176.124"/>
</g>
<!-- Node6 -->
<g id="node6" class="node"><title>Node6</title>
<g id="a_node6"><a xlink:href="classscram_1_1mef_1_1Mul.xhtml" target="_top" xlink:title="This expression performs multiplication operation. ">
<polygon fill="white" stroke="black" points="212.5,-11.5 212.5,-90.5 300.5,-90.5 300.5,-11.5 212.5,-11.5"/>
<text text-anchor="middle" x="256.5" y="-78.5" font-family="Helvetica,sans-Serif" font-size="10.00">scram::mef::Mul</text>
<polyline fill="none" stroke="black" points="212.5,-71.5 300.5,-71.5 "/>
<text text-anchor="middle" x="256.5" y="-59.5" font-family="Helvetica,sans-Serif" font-size="10.00"> </text>
<polyline fill="none" stroke="black" points="212.5,-52.5 300.5,-52.5 "/>
<text text-anchor="start" x="220.5" y="-40.5" font-family="Helvetica,sans-Serif" font-size="10.00">+ Mean()</text>
<text text-anchor="start" x="220.5" y="-29.5" font-family="Helvetica,sans-Serif" font-size="10.00">+ Max()</text>
<text text-anchor="start" x="220.5" y="-18.5" font-family="Helvetica,sans-Serif" font-size="10.00">+ Min()</text>
</a>
</g>
</g>
<!-- Node3&#45;&gt;Node6 -->
<g id="edge5" class="edge"><title>Node3&#45;&gt;Node6</title>
<path fill="none" stroke="midnightblue" d="M256.5,-172.418C256.5,-147.771 256.5,-115.624 256.5,-90.746"/>
<polygon fill="none" stroke="midnightblue" points="253,-172.478 256.5,-182.479 260,-172.479 253,-172.478"/>
</g>
<!-- Node7 -->
<g id="node7" class="node"><title>Node7</title>
<g id="a_node7"><a xlink:href="classscram_1_1mef_1_1Sub.xhtml" target="_top" xlink:title="This expression performs subtraction operation. ">
<polygon fill="white" stroke="black" points="318,-11.5 318,-90.5 407,-90.5 407,-11.5 318,-11.5"/>
<text text-anchor="middle" x="362.5" y="-78.5" font-family="Helvetica,sans-Serif" font-size="10.00">scram::mef::Sub</text>
<polyline fill="none" stroke="black" points="318,-71.5 407,-71.5 "/>
<text text-anchor="middle" x="362.5" y="-59.5" font-family="Helvetica,sans-Serif" font-size="10.00"> </text>
<polyline fill="none" stroke="black" points="318,-52.5 407,-52.5 "/>
<text text-anchor="start" x="326" y="-40.5" font-family="Helvetica,sans-Serif" font-size="10.00">+ Mean()</text>
<text text-anchor="start" x="326" y="-29.5" font-family="Helvetica,sans-Serif" font-size="10.00">+ Max()</text>
<text text-anchor="start" x="326" y="-18.5" font-family="Helvetica,sans-Serif" font-size="10.00">+ Min()</text>
</a>
</g>
</g>
<!-- Node3&#45;&gt;Node7 -->
<g id="edge6" class="edge"><title>Node3&#45;&gt;Node7</title>
<path fill="none" stroke="midnightblue" d="M280.614,-174.057C297.284,-149.209 319.443,-116.18 336.506,-90.746"/>
<polygon fill="none" stroke="midnightblue" points="277.629,-172.224 274.964,-182.479 283.442,-176.124 277.629,-172.224"/>
</g>
<!-- Node9 -->
<g id="node9" class="node"><title>Node9</title>
<g id="a_node9"><a xlink:href="classscram_1_1mef_1_1MissionTime.xhtml" target="_top" xlink:title="The system mission time. ">
<polygon fill="white" stroke="black" points="425.5,-17 425.5,-85 553.5,-85 553.5,-17 425.5,-17"/>
<text text-anchor="middle" x="489.5" y="-73" font-family="Helvetica,sans-Serif" font-size="10.00">scram::mef::MissionTime</text>
<polyline fill="none" stroke="black" points="425.5,-66 553.5,-66 "/>
<text text-anchor="middle" x="489.5" y="-54" font-family="Helvetica,sans-Serif" font-size="10.00"> </text>
<polyline fill="none" stroke="black" points="425.5,-47 553.5,-47 "/>
<text text-anchor="start" x="433.5" y="-35" font-family="Helvetica,sans-Serif" font-size="10.00">+ MissionTime()</text>
<text text-anchor="start" x="433.5" y="-24" font-family="Helvetica,sans-Serif" font-size="10.00">+ unit()</text>
</a>
</g>
</g>
<!-- Node8&#45;&gt;Node9 -->
<g id="edge8" class="edge"><title>Node8&#45;&gt;Node9</title>
<path fill="none" stroke="midnightblue" d="M472.922,-139.31C476.494,-120.5 480.186,-101.054 483.177,-85.3026"/>
<polygon fill="none" stroke="midnightblue" points="469.44,-138.888 471.013,-149.365 476.317,-140.193 469.44,-138.888"/>
</g>
<!-- Node15 -->
<g id="node15" class="node"><title>Node15</title>
<g id="a_node15"><a xlink:href="classscram_1_1mef_1_1BetaDeviate.xhtml" target="_top" xlink:title="Beta distribution. ">
<polygon fill="white" stroke="black" points="783.5,-0.5 783.5,-101.5 909.5,-101.5 909.5,-0.5 783.5,-0.5"/>
<text text-anchor="middle" x="846.5" y="-89.5" font-family="Helvetica,sans-Serif" font-size="10.00">scram::mef::BetaDeviate</text>
<polyline fill="none" stroke="black" points="783.5,-82.5 909.5,-82.5 "/>
<text text-anchor="middle" x="846.5" y="-70.5" font-family="Helvetica,sans-Serif" font-size="10.00"> </text>
<polyline fill="none" stroke="black" points="783.5,-63.5 909.5,-63.5 "/>
<text text-anchor="start" x="791.5" y="-51.5" font-family="Helvetica,sans-Serif" font-size="10.00">+ BetaDeviate()</text>
<text text-anchor="start" x="791.5" y="-40.5" font-family="Helvetica,sans-Serif" font-size="10.00">+ Validate()</text>
<text text-anchor="start" x="791.5" y="-29.5" font-family="Helvetica,sans-Serif" font-size="10.00">+ Mean()</text>
<text text-anchor="start" x="791.5" y="-18.5" font-family="Helvetica,sans-Serif" font-size="10.00">+ Max()</text>
<text text-anchor="start" x="791.5" y="-7.5" font-family="Helvetica,sans-Serif" font-size="10.00">+ Min()</text>
</a>
</g>
</g>
<!-- Node14&#45;&gt;Node15 -->
<g id="edge14" class="edge"><title>Node14&#45;&gt;Node15</title>
<path fill="none" stroke="midnightblue" d="M1190.63,-175.009C1176.68,-161.345 1159.14,-146.859 1140.5,-138 1050.22,-95.0904 1011.18,-139.435 918.5,-102 915.537,-100.803 912.575,-99.4661 909.635,-98.02"/>
<polygon fill="none" stroke="midnightblue" points="1188.49,-177.817 1198,-182.475 1193.47,-172.899 1188.49,-177.817"/>
</g>
<!-- Node16 -->
<g id="node16" class="node"><title>Node16</title>
<g id="a_node16"><a xlink:href="classscram_1_1mef_1_1GammaDeviate.xhtml" target="_top" xlink:title="Gamma distribution. ">
<polygon fill="white" stroke="black" points="927.5,-0.5 927.5,-101.5 1067.5,-101.5 1067.5,-0.5 927.5,-0.5"/>
<text text-anchor="middle" x="997.5" y="-89.5" font-family="Helvetica,sans-Serif" font-size="10.00">scram::mef::GammaDeviate</text>
<polyline fill="none" stroke="black" points="927.5,-82.5 1067.5,-82.5 "/>
<text text-anchor="middle" x="997.5" y="-70.5" font-family="Helvetica,sans-Serif" font-size="10.00"> </text>
<polyline fill="none" stroke="black" points="927.5,-63.5 1067.5,-63.5 "/>
<text text-anchor="start" x="935.5" y="-51.5" font-family="Helvetica,sans-Serif" font-size="10.00">+ GammaDeviate()</text>
<text text-anchor="start" x="935.5" y="-40.5" font-family="Helvetica,sans-Serif" font-size="10.00">+ Validate()</text>
<text text-anchor="start" x="935.5" y="-29.5" font-family="Helvetica,sans-Serif" font-size="10.00">+ Mean()</text>
<text text-anchor="start" x="935.5" y="-18.5" font-family="Helvetica,sans-Serif" font-size="10.00">+ Max()</text>
<text text-anchor="start" x="935.5" y="-7.5" font-family="Helvetica,sans-Serif" font-size="10.00">+ Min()</text>
</a>
</g>
</g>
<!-- Node14&#45;&gt;Node16 -->
<g id="edge15" class="edge"><title>Node14&#45;&gt;Node16</title>
<path fill="none" stroke="midnightblue" d="M1186.17,-175.622C1172.45,-163.089 1156.27,-149.246 1140.5,-138 1113.93,-119.05 1104.52,-118.732 1076.5,-102 1073.57,-100.252 1070.6,-98.4551 1067.59,-96.6279"/>
<polygon fill="none" stroke="midnightblue" points="1183.8,-178.2 1193.52,-182.426 1188.56,-173.064 1183.8,-178.2"/>
</g>
<!-- Node17 -->
<g id="node17" class="node"><title>Node17</title>
<g id="a_node17"><a xlink:href="classscram_1_1mef_1_1Histogram.xhtml" target="_top" xlink:title="Histogram distribution. ">
<polygon fill="white" stroke="black" points="1086,-0.5 1086,-101.5 1203,-101.5 1203,-0.5 1086,-0.5"/>
<text text-anchor="middle" x="1144.5" y="-89.5" font-family="Helvetica,sans-Serif" font-size="10.00">scram::mef::Histogram</text>
<polyline fill="none" stroke="black" points="1086,-82.5 1203,-82.5 "/>
<text text-anchor="middle" x="1144.5" y="-70.5" font-family="Helvetica,sans-Serif" font-size="10.00"> </text>
<polyline fill="none" stroke="black" points="1086,-63.5 1203,-63.5 "/>
<text text-anchor="start" x="1094" y="-51.5" font-family="Helvetica,sans-Serif" font-size="10.00">+ Histogram()</text>
<text text-anchor="start" x="1094" y="-40.5" font-family="Helvetica,sans-Serif" font-size="10.00">+ Validate()</text>
<text text-anchor="start" x="1094" y="-29.5" font-family="Helvetica,sans-Serif" font-size="10.00">+ Mean()</text>
<text text-anchor="start" x="1094" y="-18.5" font-family="Helvetica,sans-Serif" font-size="10.00">+ Max()</text>
<text text-anchor="start" x="1094" y="-7.5" font-family="Helvetica,sans-Serif" font-size="10.00">+ Min()</text>
</a>
</g>
</g>
<!-- Node14&#45;&gt;Node17 -->
<g id="edge16" class="edge"><title>Node14&#45;&gt;Node17</title>
<path fill="none" stroke="midnightblue" d="M1203.67,-173.412C1193.26,-152.047 1179.98,-124.799 1168.64,-101.532"/>
<polygon fill="none" stroke="midnightblue" points="1200.56,-175.022 1208.09,-182.479 1206.85,-171.956 1200.56,-175.022"/>
</g>
<!-- Node18 -->
<g id="node18" class="node"><title>Node18</title>
<g id="a_node18"><a xlink:href="classscram_1_1mef_1_1LogNormalDeviate.xhtml" target="_top" xlink:title="Log&#45;normal distribution defined by its expected value and error factor of certain confidence level...">
<polygon fill="white" stroke="black" points="1221,-0.5 1221,-101.5 1374,-101.5 1374,-0.5 1221,-0.5"/>
<text text-anchor="middle" x="1297.5" y="-89.5" font-family="Helvetica,sans-Serif" font-size="10.00">scram::mef::LogNormalDeviate</text>
<polyline fill="none" stroke="black" points="1221,-82.5 1374,-82.5 "/>
<text text-anchor="middle" x="1297.5" y="-70.5" font-family="Helvetica,sans-Serif" font-size="10.00"> </text>
<polyline fill="none" stroke="black" points="1221,-63.5 1374,-63.5 "/>
<text text-anchor="start" x="1229" y="-51.5" font-family="Helvetica,sans-Serif" font-size="10.00">+ LogNormalDeviate()</text>
<text text-anchor="start" x="1229" y="-40.5" font-family="Helvetica,sans-Serif" font-size="10.00">+ Validate()</text>
<text text-anchor="start" x="1229" y="-29.5" font-family="Helvetica,sans-Serif" font-size="10.00">+ Mean()</text>
<text text-anchor="start" x="1229" y="-18.5" font-family="Helvetica,sans-Serif" font-size="10.00">+ Max()</text>
<text text-anchor="start" x="1229" y="-7.5" font-family="Helvetica,sans-Serif" font-size="10.00">+ Min()</text>
</a>
</g>
</g>
<!-- Node14&#45;&gt;Node18 -->
<g id="edge17" class="edge"><title>Node14&#45;&gt;Node18</title>
<path fill="none" stroke="midnightblue" d="M1239.1,-173.412C1249.38,-152.047 1262.48,-124.799 1273.67,-101.532"/>
<polygon fill="none" stroke="midnightblue" points="1235.92,-171.95 1234.74,-182.479 1242.23,-174.984 1235.92,-171.95"/>
</g>
<!-- Node19 -->
<g id="node19" class="node"><title>Node19</title>
<g id="a_node19"><a xlink:href="classscram_1_1mef_1_1NormalDeviate.xhtml" target="_top" xlink:title="Normal distribution. ">
<polygon fill="white" stroke="black" points="1392,-0.5 1392,-101.5 1529,-101.5 1529,-0.5 1392,-0.5"/>
<text text-anchor="middle" x="1460.5" y="-89.5" font-family="Helvetica,sans-Serif" font-size="10.00">scram::mef::NormalDeviate</text>
<polyline fill="none" stroke="black" points="1392,-82.5 1529,-82.5 "/>
<text text-anchor="middle" x="1460.5" y="-70.5" font-family="Helvetica,sans-Serif" font-size="10.00"> </text>
<polyline fill="none" stroke="black" points="1392,-63.5 1529,-63.5 "/>
<text text-anchor="start" x="1400" y="-51.5" font-family="Helvetica,sans-Serif" font-size="10.00">+ NormalDeviate()</text>
<text text-anchor="start" x="1400" y="-40.5" font-family="Helvetica,sans-Serif" font-size="10.00">+ Validate()</text>
<text text-anchor="start" x="1400" y="-29.5" font-family="Helvetica,sans-Serif" font-size="10.00">+ Mean()</text>
<text text-anchor="start" x="1400" y="-18.5" font-family="Helvetica,sans-Serif" font-size="10.00">+ Max()</text>
<text text-anchor="start" x="1400" y="-7.5" font-family="Helvetica,sans-Serif" font-size="10.00">+ Min()</text>
</a>
</g>
</g>
<!-- Node14&#45;&gt;Node19 -->
<g id="edge18" class="edge"><title>Node14&#45;&gt;Node19</title>
<path fill="none" stroke="midnightblue" d="M1255.13,-175.409C1268.74,-162.61 1285.1,-148.64 1301.5,-138 1334.55,-116.558 1347.82,-120.684 1382.5,-102 1385.62,-100.322 1388.77,-98.5626 1391.94,-96.749"/>
<polygon fill="none" stroke="midnightblue" points="1252.67,-172.924 1247.87,-182.372 1257.51,-177.977 1252.67,-172.924"/>
</g>
<!-- Node20 -->
<g id="node20" class="node"><title>Node20</title>
<g id="a_node20"><a xlink:href="classscram_1_1mef_1_1UniformDeviate.xhtml" target="_top" xlink:title="Uniform distribution. ">
<polygon fill="white" stroke="black" points="1547.5,-0.5 1547.5,-101.5 1687.5,-101.5 1687.5,-0.5 1547.5,-0.5"/>
<text text-anchor="middle" x="1617.5" y="-89.5" font-family="Helvetica,sans-Serif" font-size="10.00">scram::mef::UniformDeviate</text>
<polyline fill="none" stroke="black" points="1547.5,-82.5 1687.5,-82.5 "/>
<text text-anchor="middle" x="1617.5" y="-70.5" font-family="Helvetica,sans-Serif" font-size="10.00"> </text>
<polyline fill="none" stroke="black" points="1547.5,-63.5 1687.5,-63.5 "/>
<text text-anchor="start" x="1555.5" y="-51.5" font-family="Helvetica,sans-Serif" font-size="10.00">+ UniformDeviate()</text>
<text text-anchor="start" x="1555.5" y="-40.5" font-family="Helvetica,sans-Serif" font-size="10.00">+ Validate()</text>
<text text-anchor="start" x="1555.5" y="-29.5" font-family="Helvetica,sans-Serif" font-size="10.00">+ Mean()</text>
<text text-anchor="start" x="1555.5" y="-18.5" font-family="Helvetica,sans-Serif" font-size="10.00">+ Max()</text>
<text text-anchor="start" x="1555.5" y="-7.5" font-family="Helvetica,sans-Serif" font-size="10.00">+ Min()</text>
</a>
</g>
</g>
<!-- Node14&#45;&gt;Node20 -->
<g id="edge19" class="edge"><title>Node14&#45;&gt;Node20</title>
<path fill="none" stroke="midnightblue" d="M1251.87,-174.92C1265.64,-161.241 1282.97,-146.769 1301.5,-138 1397.4,-92.6058 1438.01,-138.879 1537.5,-102 1540.73,-100.805 1543.96,-99.4687 1547.18,-98.0236"/>
<polygon fill="none" stroke="midnightblue" points="1249.07,-172.786 1244.61,-182.396 1254.09,-177.664 1249.07,-172.786"/>
</g>
</g>
</svg>
        <g id="navigator" transform="translate(0 0)" fill="#404254">
                <rect fill="#f2f5e9" fill-opacity="0.5" stroke="#606060" stroke-width=".5" x="0" y="0" width="60" height="60"/>
                <use id="zoomplus" xlink:href="#zoomPlus" x="17" y="9" onmousedown="handleZoom(evt,'in')"/>
                <use id="zoomminus" xlink:href="#zoomMin" x="42" y="9" onmousedown="handleZoom(evt,'out')"/>
                <use id="reset" xlink:href="#resetDef" x="30" y="36" onmousedown="handleReset()"/>
                <g id="arrowUp" xlink:href="#dirArrow" transform="translate(30 24)" onmousedown="handlePan(0,-1)">
                  <use xlink:href="#rim" fill="#404040">
                        <set attributeName="fill" to="#808080" begin="arrowUp.mouseover" end="arrowUp.mouseout"/>
                  </use>
                  <path fill="none" stroke="white" stroke-width="1.5" d="M0,-3.0v7 M-2.5,-0.5L0,-3.0L2.5,-0.5"/>
                </g>
                <g id="arrowRight" xlink:href="#dirArrow" transform="rotate(90) translate(36 -43)" onmousedown="handlePan(1,0)">
                  <use xlink:href="#rim" fill="#404040">
                        <set attributeName="fill" to="#808080" begin="arrowRight.mouseover" end="arrowRight.mouseout"/>
                  </use>
                  <path fill="none" stroke="white" stroke-width="1.5" d="M0,-3.0v7 M-2.5,-0.5L0,-3.0L2.5,-0.5"/>
                </g>
                <g id="arrowDown" xlink:href="#dirArrow" transform="rotate(180) translate(-30 -48)" onmousedown="handlePan(0,1)">
                  <use xlink:href="#rim" fill="#404040">
                        <set attributeName="fill" to="#808080" begin="arrowDown.mouseover" end="arrowDown.mouseout"/>
                  </use>
                  <path fill="none" stroke="white" stroke-width="1.5" d="M0,-3.0v7 M-2.5,-0.5L0,-3.0L2.5,-0.5"/>
                </g>
                <g id="arrowLeft" xlink:href="#dirArrow" transform="rotate(270) translate(-36 17)" onmousedown="handlePan(-1,0)">
                  <use xlink:href="#rim" fill="#404040">
                        <set attributeName="fill" to="#808080" begin="arrowLeft.mouseover" end="arrowLeft.mouseout"/>
                  </use>
                  <path fill="none" stroke="white" stroke-width="1.5" d="M0,-3.0v7 M-2.5,-0.5L0,-3.0L2.5,-0.5"/>
                </g>
        </g>
        <svg viewBox="0 0 15 15" width="100%" height="30px" preserveAspectRatio="xMaxYMin meet">
         <g id="arrow_out" transform="scale(0.3 0.3)">
          <a xlink:href="classscram_1_1mef_1_1Expression__inherit__graph_org.svg" target="_base">
           <rect id="button" ry="5" rx="5" y="6" x="6" height="38" width="38"
                fill="#f2f5e9" fill-opacity="0.5" stroke="#606060" stroke-width="1.0"/>
           <path id="arrow"
             d="M 11.500037,31.436501 C 11.940474,20.09759 22.043105,11.32322 32.158766,21.979434 L 37.068811,17.246167 C 37.068811,17.246167 37.088388,32 37.088388,32 L 22.160133,31.978069 C 22.160133,31.978069 26.997745,27.140456 26.997745,27.140456 C 18.528582,18.264221 13.291696,25.230495 11.500037,31.436501 z"
             style="fill:#404040;"/>
          </a>
         </g>
        </svg>
</svg>
