<?xml version="1.0" encoding="UTF-8" standalone="no"?>
<!DOCTYPE svg PUBLIC "-//W3C//DTD SVG 1.1//EN"
 "http://www.w3.org/Graphics/SVG/1.1/DTD/svg11.dtd">
<!-- Generated by graphviz version 2.38.0 (20140413.2041)
 -->
<!-- Title: scram::core::ImportanceAnalysis Pages: 1 -->
<svg width="348pt" height="749pt"
 viewBox="0.00 0.00 348.00 749.00" xmlns="http://www.w3.org/2000/svg" xmlns:xlink="http://www.w3.org/1999/xlink">
<g id="graph0" class="graph" transform="scale(1 1) rotate(0) translate(4 745)">
<title>scram::core::ImportanceAnalysis</title>
<polygon fill="white" stroke="none" points="-4,4 -4,-745 344,-745 344,4 -4,4"/>
<!-- Node1 -->
<g id="node1" class="node"><title>Node1</title>
<polygon fill="#bfbfbf" stroke="black" points="12,-372.5 12,-484.5 173,-484.5 173,-372.5 12,-372.5"/>
<text text-anchor="middle" x="92.5" y="-472.5" font-family="Helvetica,sans-Serif" font-size="10.00">scram::core::ImportanceAnalysis</text>
<polyline fill="none" stroke="black" points="12,-465.5 173,-465.5 "/>
<text text-anchor="middle" x="92.5" y="-453.5" font-family="Helvetica,sans-Serif" font-size="10.00"> </text>
<polyline fill="none" stroke="black" points="12,-446.5 173,-446.5 "/>
<text text-anchor="start" x="20" y="-434.5" font-family="Helvetica,sans-Serif" font-size="10.00">+ ImportanceAnalysis()</text>
<text text-anchor="start" x="20" y="-423.5" font-family="Helvetica,sans-Serif" font-size="10.00">+ ~ImportanceAnalysis()</text>
<text text-anchor="start" x="20" y="-412.5" font-family="Helvetica,sans-Serif" font-size="10.00">+ Analyze()</text>
<text text-anchor="start" x="20" y="-401.5" font-family="Helvetica,sans-Serif" font-size="10.00">+ importance()</text>
<text text-anchor="start" x="20" y="-390.5" font-family="Helvetica,sans-Serif" font-size="10.00">+ important_events()</text>
<text text-anchor="start" x="20" y="-379.5" font-family="Helvetica,sans-Serif" font-size="10.00"># GatherImportantEvents()</text>
</g>
<!-- Node4 -->
<g id="node4" class="node"><title>Node4</title>
<g id="a_node4"><a xlink:href="classscram_1_1core_1_1ImportanceAnalyzerBase.xhtml" target="_top" xlink:title="{scram::core::ImportanceAnalyzer\lBase\&lt; Bdd \&gt;\n||+ ImportanceAnalyzerBase()\l# ~ImportanceAnalyzerBase()\l# prob_analyzer()\l}">
<polygon fill="white" stroke="black" points="0,-106.5 0,-196.5 161,-196.5 161,-106.5 0,-106.5"/>
<text text-anchor="start" x="8" y="-184.5" font-family="Helvetica,sans-Serif" font-size="10.00">scram::core::ImportanceAnalyzer</text>
<text text-anchor="middle" x="80.5" y="-173.5" font-family="Helvetica,sans-Serif" font-size="10.00">Base&lt; Bdd &gt;</text>
<polyline fill="none" stroke="black" points="0,-166.5 161,-166.5 "/>
<text text-anchor="middle" x="80.5" y="-154.5" font-family="Helvetica,sans-Serif" font-size="10.00"> </text>
<polyline fill="none" stroke="black" points="0,-147.5 161,-147.5 "/>
<text text-anchor="start" x="8" y="-135.5" font-family="Helvetica,sans-Serif" font-size="10.00">+ ImportanceAnalyzerBase()</text>
<text text-anchor="start" x="8" y="-124.5" font-family="Helvetica,sans-Serif" font-size="10.00"># ~ImportanceAnalyzerBase()</text>
<text text-anchor="start" x="8" y="-113.5" font-family="Helvetica,sans-Serif" font-size="10.00"># prob_analyzer()</text>
</a>
</g>
</g>
<!-- Node1&#45;&gt;Node4 -->
<g id="edge3" class="edge"><title>Node1&#45;&gt;Node4</title>
<path fill="none" stroke="midnightblue" d="M89.638,-361.913C87.412,-310.9 84.384,-241.509 82.4355,-196.855"/>
<polygon fill="none" stroke="midnightblue" points="86.1533,-362.343 90.0861,-372.18 93.1467,-362.037 86.1533,-362.343"/>
</g>
<!-- Node6 -->
<g id="node6" class="node"><title>Node6</title>
<g id="a_node6"><a xlink:href="classscram_1_1core_1_1ImportanceAnalyzerBase.xhtml" target="_top" xlink:title="Base class for analyzers of importance factors with the help from probability analyzers. ">
<polygon fill="white" stroke="black" points="109,-244.5 109,-334.5 270,-334.5 270,-244.5 109,-244.5"/>
<text text-anchor="start" x="117" y="-322.5" font-family="Helvetica,sans-Serif" font-size="10.00">scram::core::ImportanceAnalyzer</text>
<text text-anchor="middle" x="189.5" y="-311.5" font-family="Helvetica,sans-Serif" font-size="10.00">Base&lt; Calculator &gt;</text>
<polyline fill="none" stroke="black" points="109,-304.5 270,-304.5 "/>
<text text-anchor="middle" x="189.5" y="-292.5" font-family="Helvetica,sans-Serif" font-size="10.00"> </text>
<polyline fill="none" stroke="black" points="109,-285.5 270,-285.5 "/>
<text text-anchor="start" x="117" y="-273.5" font-family="Helvetica,sans-Serif" font-size="10.00">+ ImportanceAnalyzerBase()</text>
<text text-anchor="start" x="117" y="-262.5" font-family="Helvetica,sans-Serif" font-size="10.00"># ~ImportanceAnalyzerBase()</text>
<text text-anchor="start" x="117" y="-251.5" font-family="Helvetica,sans-Serif" font-size="10.00"># prob_analyzer()</text>
</a>
</g>
</g>
<!-- Node1&#45;&gt;Node6 -->
<g id="edge5" class="edge"><title>Node1&#45;&gt;Node6</title>
<path fill="none" stroke="midnightblue" d="M137.52,-363.916C144.521,-354.027 151.62,-344 158.229,-334.667"/>
<polygon fill="none" stroke="midnightblue" points="134.596,-361.988 131.674,-372.172 140.309,-366.033 134.596,-361.988"/>
</g>
<!-- Node2 -->
<g id="node2" class="node"><title>Node2</title>
<g id="a_node2"><a xlink:href="classscram_1_1core_1_1Analysis.xhtml" target="_top" xlink:title="Base abstract class for all analysis with settings. ">
<polygon fill="white" stroke="black" points="36.5,-522.5 36.5,-645.5 148.5,-645.5 148.5,-522.5 36.5,-522.5"/>
<text text-anchor="middle" x="92.5" y="-633.5" font-family="Helvetica,sans-Serif" font-size="10.00">scram::core::Analysis</text>
<polyline fill="none" stroke="black" points="36.5,-626.5 148.5,-626.5 "/>
<text text-anchor="middle" x="92.5" y="-614.5" font-family="Helvetica,sans-Serif" font-size="10.00"> </text>
<polyline fill="none" stroke="black" points="36.5,-607.5 148.5,-607.5 "/>
<text text-anchor="start" x="44.5" y="-595.5" font-family="Helvetica,sans-Serif" font-size="10.00">+ Analysis()</text>
<text text-anchor="start" x="44.5" y="-584.5" font-family="Helvetica,sans-Serif" font-size="10.00">+ ~Analysis()</text>
<text text-anchor="start" x="44.5" y="-573.5" font-family="Helvetica,sans-Serif" font-size="10.00">+ settings()</text>
<text text-anchor="start" x="44.5" y="-562.5" font-family="Helvetica,sans-Serif" font-size="10.00">+ warnings()</text>
<text text-anchor="start" x="44.5" y="-551.5" font-family="Helvetica,sans-Serif" font-size="10.00">+ analysis_time()</text>
<text text-anchor="start" x="44.5" y="-540.5" font-family="Helvetica,sans-Serif" font-size="10.00"># AddWarning()</text>
<text text-anchor="start" x="44.5" y="-529.5" font-family="Helvetica,sans-Serif" font-size="10.00"># AddAnalysisTime()</text>
</a>
</g>
</g>
<!-- Node2&#45;&gt;Node1 -->
<g id="edge1" class="edge"><title>Node2&#45;&gt;Node1</title>
<path fill="none" stroke="midnightblue" d="M92.5,-512.055C92.5,-502.886 92.5,-493.605 92.5,-484.741"/>
<polygon fill="none" stroke="midnightblue" points="89.0001,-512.333 92.5,-522.333 96.0001,-512.333 89.0001,-512.333"/>
</g>
<!-- Node3 -->
<g id="node3" class="node"><title>Node3</title>
<polygon fill="white" stroke="#bfbfbf" points="57,-683.5 57,-740.5 128,-740.5 128,-683.5 57,-683.5"/>
<text text-anchor="middle" x="92.5" y="-728.5" font-family="Helvetica,sans-Serif" font-size="10.00">noncopyable</text>
<polyline fill="none" stroke="#bfbfbf" points="57,-721.5 128,-721.5 "/>
<text text-anchor="middle" x="92.5" y="-709.5" font-family="Helvetica,sans-Serif" font-size="10.00"> </text>
<polyline fill="none" stroke="#bfbfbf" points="57,-702.5 128,-702.5 "/>
<text text-anchor="middle" x="92.5" y="-690.5" font-family="Helvetica,sans-Serif" font-size="10.00"> </text>
</g>
<!-- Node3&#45;&gt;Node2 -->
<g id="edge2" class="edge"><title>Node3&#45;&gt;Node2</title>
<path fill="none" stroke="#8b1a1a" d="M92.5,-673.182C92.5,-664.491 92.5,-655.033 92.5,-645.646"/>
<polygon fill="none" stroke="#8b1a1a" points="89.0001,-673.349 92.5,-683.349 96.0001,-673.349 89.0001,-673.349"/>
</g>
<!-- Node5 -->
<g id="node5" class="node"><title>Node5</title>
<g id="a_node5"><a xlink:href="classscram_1_1core_1_1ImportanceAnalyzer_3_01Bdd_01_4.xhtml" target="_top" xlink:title="Specialization of importance analyzer with Binary Decision Diagrams. ">
<polygon fill="white" stroke="black" points="0,-0.5 0,-68.5 161,-68.5 161,-0.5 0,-0.5"/>
<text text-anchor="start" x="8" y="-56.5" font-family="Helvetica,sans-Serif" font-size="10.00">scram::core::ImportanceAnalyzer</text>
<text text-anchor="middle" x="80.5" y="-45.5" font-family="Helvetica,sans-Serif" font-size="10.00">&lt; Bdd &gt;</text>
<polyline fill="none" stroke="black" points="0,-38.5 161,-38.5 "/>
<text text-anchor="middle" x="80.5" y="-26.5" font-family="Helvetica,sans-Serif" font-size="10.00"> </text>
<polyline fill="none" stroke="black" points="0,-19.5 161,-19.5 "/>
<text text-anchor="start" x="8" y="-7.5" font-family="Helvetica,sans-Serif" font-size="10.00">+ ImportanceAnalyzer()</text>
</a>
</g>
</g>
<!-- Node4&#45;&gt;Node5 -->
<g id="edge4" class="edge"><title>Node4&#45;&gt;Node5</title>
<path fill="none" stroke="midnightblue" d="M80.5,-96.2309C80.5,-86.8035 80.5,-77.2599 80.5,-68.6181"/>
<polygon fill="none" stroke="midnightblue" points="77.0001,-96.3669 80.5,-106.367 84.0001,-96.3669 77.0001,-96.3669"/>
</g>
<!-- Node6&#45;&gt;Node4 -->
<g id="edge7" class="edge"><title>Node6&#45;&gt;Node4</title>
<path fill="none" stroke="orange" d="M147.714,-236.363C137.28,-223.345 126.187,-209.504 116.085,-196.899"/>
<polygon fill="orange" stroke="orange" points="145.126,-238.73 154.111,-244.345 150.588,-234.353 145.126,-238.73"/>
<text text-anchor="middle" x="158" y="-218" font-family="Helvetica,sans-Serif" font-size="10.00"> &lt; Bdd &gt;</text>
</g>
<!-- Node7 -->
<g id="node7" class="node"><title>Node7</title>
<g id="a_node7"><a xlink:href="classscram_1_1core_1_1ImportanceAnalyzer.xhtml" target="_top" xlink:title="Analyzer of importance factors with the help from probability analyzers. ">
<polygon fill="white" stroke="black" points="179,-117.5 179,-185.5 340,-185.5 340,-117.5 179,-117.5"/>
<text text-anchor="start" x="187" y="-173.5" font-family="Helvetica,sans-Serif" font-size="10.00">scram::core::ImportanceAnalyzer</text>
<text text-anchor="middle" x="259.5" y="-162.5" font-family="Helvetica,sans-Serif" font-size="10.00">&lt; Calculator &gt;</text>
<polyline fill="none" stroke="black" points="179,-155.5 340,-155.5 "/>
<text text-anchor="middle" x="259.5" y="-143.5" font-family="Helvetica,sans-Serif" font-size="10.00"> </text>
<polyline fill="none" stroke="black" points="179,-136.5 340,-136.5 "/>
<text text-anchor="start" x="187" y="-124.5" font-family="Helvetica,sans-Serif" font-size="10.00">+ ImportanceAnalyzer()</text>
</a>
</g>
</g>
<!-- Node6&#45;&gt;Node7 -->
<g id="edge6" class="edge"><title>Node6&#45;&gt;Node7</title>
<path fill="none" stroke="midnightblue" d="M216.924,-235.218C225.524,-218.511 234.764,-200.558 242.431,-185.662"/>
<polygon fill="none" stroke="midnightblue" points="213.692,-233.852 212.227,-244.345 219.915,-237.055 213.692,-233.852"/>
</g>
</g>
</svg>
