<?xml version="1.0" encoding="UTF-8" standalone="no"?>
<!DOCTYPE svg PUBLIC "-//W3C//DTD SVG 1.1//EN"
 "http://www.w3.org/Graphics/SVG/1.1/DTD/svg11.dtd">
<!-- Generated by graphviz version 2.38.0 (20140413.2041)
 -->
<!-- Title: scram::mef::ExponentialExpression::Validate Pages: 1 -->
<svg width="516pt" height="53pt"
 viewBox="0.00 0.00 516.00 52.50" xmlns="http://www.w3.org/2000/svg" xmlns:xlink="http://www.w3.org/1999/xlink">
<g id="graph0" class="graph" transform="scale(1 1) rotate(0) translate(4 48.5)">
<title>scram::mef::ExponentialExpression::Validate</title>
<polygon fill="white" stroke="none" points="-4,4 -4,-48.5 512,-48.5 512,4 -4,4"/>
<!-- Node1 -->
<g id="node1" class="node"><title>Node1</title>
<polygon fill="#bfbfbf" stroke="black" points="0,-14 0,-44 172,-44 172,-14 0,-14"/>
<text text-anchor="start" x="8" y="-32" font-family="Helvetica,sans-Serif" font-size="10.00">scram::mef::ExponentialExpression</text>
<text text-anchor="middle" x="86" y="-21" font-family="Helvetica,sans-Serif" font-size="10.00">::Validate</text>
</g>
<!-- Node2 -->
<g id="node2" class="node"><title>Node2</title>
<g id="a_node2"><a xlink:href="classscram_1_1mef_1_1Expression.xhtml#ac7e0dd118eafdfa943944172c1625a4e" target="_top" xlink:title="scram::mef::Expression\l::Mean">
<polygon fill="white" stroke="black" points="387,-14 387,-44 508,-44 508,-14 387,-14"/>
<text text-anchor="start" x="395" y="-32" font-family="Helvetica,sans-Serif" font-size="10.00">scram::mef::Expression</text>
<text text-anchor="middle" x="447.5" y="-21" font-family="Helvetica,sans-Serif" font-size="10.00">::Mean</text>
</a>
</g>
</g>
<!-- Node1&#45;&gt;Node2 -->
<g id="edge1" class="edge"><title>Node1&#45;&gt;Node2</title>
<path fill="none" stroke="midnightblue" d="M172.196,-29C234.582,-29 318.211,-29 376.667,-29"/>
<polygon fill="midnightblue" stroke="midnightblue" points="376.914,-32.5001 386.914,-29 376.914,-25.5001 376.914,-32.5001"/>
</g>
<!-- Node3 -->
<g id="node3" class="node"><title>Node3</title>
<g id="a_node3"><a xlink:href="classscram_1_1mef_1_1Expression.xhtml#a9601745b7f61ec67c8074a4043367152" target="_top" xlink:title="scram::mef::Expression::Min">
<polygon fill="white" stroke="black" points="208,-0.5 208,-19.5 351,-19.5 351,-0.5 208,-0.5"/>
<text text-anchor="middle" x="279.5" y="-7.5" font-family="Helvetica,sans-Serif" font-size="10.00">scram::mef::Expression::Min</text>
</a>
</g>
</g>
<!-- Node1&#45;&gt;Node3 -->
<g id="edge2" class="edge"><title>Node1&#45;&gt;Node3</title>
<path fill="none" stroke="midnightblue" d="M172.11,-20.5557C180.726,-19.7009 189.458,-18.8345 198.022,-17.9847"/>
<polygon fill="midnightblue" stroke="midnightblue" points="198.377,-21.4668 207.983,-16.9965 197.686,-14.501 198.377,-21.4668"/>
</g>
<!-- Node3&#45;&gt;Node2 -->
<g id="edge3" class="edge"><title>Node3&#45;&gt;Node2</title>
<path fill="none" stroke="midnightblue" d="M351.38,-18.1128C359.775,-19.0737 368.339,-20.0539 376.719,-21.013"/>
<polygon fill="midnightblue" stroke="midnightblue" points="376.492,-24.5098 386.825,-22.1697 377.288,-17.5552 376.492,-24.5098"/>
</g>
</g>
</svg>
