<?xml version="1.0" encoding="UTF-8" standalone="no"?>
<!DOCTYPE svg PUBLIC "-//W3C//DTD SVG 1.1//EN"
 "http://www.w3.org/Graphics/SVG/1.1/DTD/svg11.dtd">
<!-- Generated by graphviz version 2.38.0 (20140413.2041)
 -->
<!-- Title: scram::core::Preprocessor::CreateNewModule Pages: 1 -->
<svg width="2077pt" height="218pt"
 viewBox="0.00 0.00 2077.00 218.00" xmlns="http://www.w3.org/2000/svg" xmlns:xlink="http://www.w3.org/1999/xlink">
<g id="graph0" class="graph" transform="scale(1 1) rotate(0) translate(4 214)">
<title>scram::core::Preprocessor::CreateNewModule</title>
<polygon fill="white" stroke="none" points="-4,4 -4,-214 2073,-214 2073,4 -4,4"/>
<!-- Node1 -->
<g id="node1" class="node"><title>Node1</title>
<polygon fill="#bfbfbf" stroke="black" points="0,-66.5 0,-96.5 132,-96.5 132,-66.5 0,-66.5"/>
<text text-anchor="start" x="8" y="-84.5" font-family="Helvetica,sans-Serif" font-size="10.00">scram::core::Preprocessor</text>
<text text-anchor="middle" x="66" y="-73.5" font-family="Helvetica,sans-Serif" font-size="10.00">::CreateNewModule</text>
</g>
<!-- Node2 -->
<g id="node2" class="node"><title>Node2</title>
<g id="a_node2"><a xlink:href="classscram_1_1core_1_1Preprocessor.xhtml#affe78b1e830afb73585affe0ada477be" target="_top" xlink:title="Creates new module gates from groups of modular arguments if the logic of the parent gate allows sub&#45;...">
<polygon fill="white" stroke="black" points="168,-88.5 168,-118.5 300,-118.5 300,-88.5 168,-88.5"/>
<text text-anchor="start" x="176" y="-106.5" font-family="Helvetica,sans-Serif" font-size="10.00">scram::core::Preprocessor</text>
<text text-anchor="middle" x="234" y="-95.5" font-family="Helvetica,sans-Serif" font-size="10.00">::CreateNewModules</text>
</a>
</g>
</g>
<!-- Node1&#45;&gt;Node2 -->
<g id="edge1" class="edge"><title>Node1&#45;&gt;Node2</title>
<path fill="none" stroke="midnightblue" d="M142.114,-91.4548C150.681,-92.5902 159.361,-93.7406 167.784,-94.8569"/>
<polygon fill="midnightblue" stroke="midnightblue" points="142.504,-87.9761 132.131,-90.1318 141.585,-94.9154 142.504,-87.9761"/>
</g>
<!-- Node3 -->
<g id="node3" class="node"><title>Node3</title>
<g id="a_node3"><a xlink:href="classscram_1_1core_1_1Preprocessor.xhtml#a4e97ffcda9c98ffc5aff93214f827c18" target="_top" xlink:title="Processes gate arguments found during the module detection. ">
<polygon fill="white" stroke="black" points="336,-66.5 336,-96.5 468,-96.5 468,-66.5 336,-66.5"/>
<text text-anchor="start" x="344" y="-84.5" font-family="Helvetica,sans-Serif" font-size="10.00">scram::core::Preprocessor</text>
<text text-anchor="middle" x="402" y="-73.5" font-family="Helvetica,sans-Serif" font-size="10.00">::ProcessModularArgs</text>
</a>
</g>
</g>
<!-- Node1&#45;&gt;Node3 -->
<g id="edge20" class="edge"><title>Node1&#45;&gt;Node3</title>
<path fill="none" stroke="midnightblue" d="M142.313,-79.0169C150.974,-78.8043 159.679,-78.6235 168,-78.5 226.66,-77.629 241.34,-77.629 300,-78.5 311.577,-78.6719 323.897,-78.9546 335.809,-79.2794"/>
<polygon fill="midnightblue" stroke="midnightblue" points="142.097,-75.5212 132.191,-79.2794 142.278,-82.5188 142.097,-75.5212"/>
</g>
<!-- Node2&#45;&gt;Node3 -->
<g id="edge2" class="edge"><title>Node2&#45;&gt;Node3</title>
<path fill="none" stroke="midnightblue" d="M310.114,-93.5452C318.681,-92.4098 327.361,-91.2594 335.784,-90.1431"/>
<polygon fill="midnightblue" stroke="midnightblue" points="309.585,-90.0846 300.131,-94.8682 310.504,-97.0239 309.585,-90.0846"/>
</g>
<!-- Node4 -->
<g id="node4" class="node"><title>Node4</title>
<g id="a_node4"><a xlink:href="classscram_1_1core_1_1Preprocessor.xhtml#afbce0b5c45a445c3b70ae298b9518281" target="_top" xlink:title="Determines modules from original gates that have been already timed. ">
<polygon fill="white" stroke="black" points="504,-66.5 504,-96.5 636,-96.5 636,-66.5 504,-66.5"/>
<text text-anchor="start" x="512" y="-84.5" font-family="Helvetica,sans-Serif" font-size="10.00">scram::core::Preprocessor</text>
<text text-anchor="middle" x="570" y="-73.5" font-family="Helvetica,sans-Serif" font-size="10.00">::FindModules</text>
</a>
</g>
</g>
<!-- Node3&#45;&gt;Node4 -->
<g id="edge3" class="edge"><title>Node3&#45;&gt;Node4</title>
<path fill="none" stroke="midnightblue" d="M478.393,-81.5C486.869,-81.5 495.452,-81.5 503.784,-81.5"/>
<polygon fill="midnightblue" stroke="midnightblue" points="478.131,-78.0001 468.131,-81.5 478.131,-85.0001 478.131,-78.0001"/>
</g>
<!-- Node5 -->
<g id="node5" class="node"><title>Node5</title>
<g id="a_node5"><a xlink:href="classscram_1_1core_1_1Preprocessor.xhtml#aa9856913eee7b854abfbe8d8330566d3" target="_top" xlink:title="Traverses the Boolean graph to detect modules. ">
<polygon fill="white" stroke="black" points="672,-66.5 672,-96.5 804,-96.5 804,-66.5 672,-66.5"/>
<text text-anchor="start" x="680" y="-84.5" font-family="Helvetica,sans-Serif" font-size="10.00">scram::core::Preprocessor</text>
<text text-anchor="middle" x="738" y="-73.5" font-family="Helvetica,sans-Serif" font-size="10.00">::DetectModules</text>
</a>
</g>
</g>
<!-- Node4&#45;&gt;Node5 -->
<g id="edge4" class="edge"><title>Node4&#45;&gt;Node5</title>
<path fill="none" stroke="midnightblue" d="M646.393,-81.5C654.869,-81.5 663.452,-81.5 671.784,-81.5"/>
<polygon fill="midnightblue" stroke="midnightblue" points="646.131,-78.0001 636.131,-81.5 646.131,-85.0001 646.131,-78.0001"/>
</g>
<!-- Node6 -->
<g id="node6" class="node"><title>Node6</title>
<g id="a_node6"><a xlink:href="classscram_1_1core_1_1Preprocessor.xhtml#a9d5f89471499508eb9e6c01ea43e0f15" target="_top" xlink:title="Preprocessing phase of the original structure of the graph. ">
<polygon fill="white" stroke="black" points="840,-66.5 840,-96.5 972,-96.5 972,-66.5 840,-66.5"/>
<text text-anchor="start" x="848" y="-84.5" font-family="Helvetica,sans-Serif" font-size="10.00">scram::core::Preprocessor</text>
<text text-anchor="middle" x="906" y="-73.5" font-family="Helvetica,sans-Serif" font-size="10.00">::RunPhaseTwo</text>
</a>
</g>
</g>
<!-- Node5&#45;&gt;Node6 -->
<g id="edge5" class="edge"><title>Node5&#45;&gt;Node6</title>
<path fill="none" stroke="midnightblue" d="M814.393,-81.5C822.869,-81.5 831.452,-81.5 839.784,-81.5"/>
<polygon fill="midnightblue" stroke="midnightblue" points="814.131,-78.0001 804.131,-81.5 814.131,-85.0001 814.131,-78.0001"/>
</g>
<!-- Node7 -->
<g id="node7" class="node"><title>Node7</title>
<g id="a_node7"><a xlink:href="classscram_1_1core_1_1Preprocessor.xhtml#a2b6705e815fa3d02119c405b483766d5" target="_top" xlink:title="Runs the default preprocessing that achieves the graph in a normal form. ">
<polygon fill="white" stroke="black" points="1176,-101 1176,-120 1332,-120 1332,-101 1176,-101"/>
<text text-anchor="middle" x="1254" y="-108" font-family="Helvetica,sans-Serif" font-size="10.00">scram::core::Preprocessor::Run</text>
</a>
</g>
</g>
<!-- Node6&#45;&gt;Node7 -->
<g id="edge6" class="edge"><title>Node6&#45;&gt;Node7</title>
<path fill="none" stroke="midnightblue" d="M940.964,-101.39C959.985,-111.375 984.537,-122.408 1008,-127.5 1079.04,-142.916 1164.13,-130.257 1213.04,-120.081"/>
<polygon fill="midnightblue" stroke="midnightblue" points="942.562,-98.2751 932.1,-96.6033 939.236,-104.434 942.562,-98.2751"/>
</g>
<!-- Node15 -->
<g id="node15" class="node"><title>Node15</title>
<g id="a_node15"><a xlink:href="classscram_1_1core_1_1Preprocessor.xhtml#a3569bbcd5e863c750cdfa69115399600" target="_top" xlink:title="The final phase that cleans up the graph, and puts the structure of the graph ready for analysis...">
<polygon fill="white" stroke="black" points="1188,-44.5 1188,-74.5 1320,-74.5 1320,-44.5 1188,-44.5"/>
<text text-anchor="start" x="1196" y="-62.5" font-family="Helvetica,sans-Serif" font-size="10.00">scram::core::Preprocessor</text>
<text text-anchor="middle" x="1254" y="-51.5" font-family="Helvetica,sans-Serif" font-size="10.00">::RunPhaseFive</text>
</a>
</g>
</g>
<!-- Node6&#45;&gt;Node15 -->
<g id="edge14" class="edge"><title>Node6&#45;&gt;Node15</title>
<path fill="none" stroke="midnightblue" d="M982.097,-76.7251C1043.49,-72.8213 1129.41,-67.3581 1187.92,-63.6381"/>
<polygon fill="midnightblue" stroke="midnightblue" points="981.838,-73.2344 972.08,-77.362 982.282,-80.2203 981.838,-73.2344"/>
</g>
<!-- Node16 -->
<g id="node16" class="node"><title>Node16</title>
<g id="a_node16"><a xlink:href="classscram_1_1core_1_1Preprocessor.xhtml#a5c224938dfba861f061525658bd7b156" target="_top" xlink:title="Propagation of complements. ">
<polygon fill="white" stroke="black" points="1008,-0.5 1008,-30.5 1140,-30.5 1140,-0.5 1008,-0.5"/>
<text text-anchor="start" x="1016" y="-18.5" font-family="Helvetica,sans-Serif" font-size="10.00">scram::core::Preprocessor</text>
<text text-anchor="middle" x="1074" y="-7.5" font-family="Helvetica,sans-Serif" font-size="10.00">::RunPhaseFour</text>
</a>
</g>
</g>
<!-- Node6&#45;&gt;Node16 -->
<g id="edge16" class="edge"><title>Node6&#45;&gt;Node16</title>
<path fill="none" stroke="midnightblue" d="M954.58,-62.5827C980.131,-52.424 1011.19,-40.0737 1035.09,-30.5713"/>
<polygon fill="midnightblue" stroke="midnightblue" points="953.083,-59.4112 945.084,-66.3583 955.669,-65.916 953.083,-59.4112"/>
</g>
<!-- Node17 -->
<g id="node17" class="node"><title>Node17</title>
<g id="a_node17"><a xlink:href="classscram_1_1core_1_1Preprocessor.xhtml#abf2c66723172a85b2ae87ef2a034cd1f" target="_top" xlink:title="Application of gate normalization. ">
<polygon fill="white" stroke="black" points="1008,-88.5 1008,-118.5 1140,-118.5 1140,-88.5 1008,-88.5"/>
<text text-anchor="start" x="1016" y="-106.5" font-family="Helvetica,sans-Serif" font-size="10.00">scram::core::Preprocessor</text>
<text text-anchor="middle" x="1074" y="-95.5" font-family="Helvetica,sans-Serif" font-size="10.00">::RunPhaseThree</text>
</a>
</g>
</g>
<!-- Node6&#45;&gt;Node17 -->
<g id="edge18" class="edge"><title>Node6&#45;&gt;Node17</title>
<path fill="none" stroke="midnightblue" d="M982.114,-91.4548C990.681,-92.5902 999.361,-93.7406 1007.78,-94.8569"/>
<polygon fill="midnightblue" stroke="midnightblue" points="982.504,-87.9761 972.131,-90.1318 981.585,-94.9154 982.504,-87.9761"/>
</g>
<!-- Node8 -->
<g id="node8" class="node"><title>Node8</title>
<g id="a_node8"><a xlink:href="classscram_1_1core_1_1FaultTreeAnalyzer.xhtml#af6d3e735d4200c3efed0164c58aabf57" target="_top" xlink:title="Runs fault tree analysis with the given algorithm. ">
<polygon fill="white" stroke="black" points="1374.5,-179.5 1374.5,-209.5 1528.5,-209.5 1528.5,-179.5 1374.5,-179.5"/>
<text text-anchor="start" x="1382.5" y="-197.5" font-family="Helvetica,sans-Serif" font-size="10.00">scram::core::FaultTreeAnalyzer</text>
<text text-anchor="middle" x="1451.5" y="-186.5" font-family="Helvetica,sans-Serif" font-size="10.00">::Analyze</text>
</a>
</g>
</g>
<!-- Node7&#45;&gt;Node8 -->
<g id="edge7" class="edge"><title>Node7&#45;&gt;Node8</title>
<path fill="none" stroke="midnightblue" d="M1279.43,-125.358C1301.85,-138.535 1336.31,-157.634 1368,-170.5 1376.02,-173.754 1384.64,-176.766 1393.17,-179.477"/>
<polygon fill="midnightblue" stroke="midnightblue" points="1280.98,-122.21 1270.6,-120.108 1277.4,-128.227 1280.98,-122.21"/>
</g>
<!-- Node12 -->
<g id="node12" class="node"><title>Node12</title>
<g id="a_node12"><a xlink:href="classscram_1_1core_1_1ProbabilityAnalyzer_3_01Bdd_01_4.xhtml#a517506c181102100cc6a3e96710813c6" target="_top" xlink:title="Calculates the total probability with a different set of probability values than the one given upon c...">
<polygon fill="white" stroke="black" points="1372,-120 1372,-161 1531,-161 1531,-120 1372,-120"/>
<text text-anchor="start" x="1380" y="-149" font-family="Helvetica,sans-Serif" font-size="10.00">scram::core::Probability</text>
<text text-anchor="start" x="1380" y="-138" font-family="Helvetica,sans-Serif" font-size="10.00">Analyzer&lt; Bdd &gt;::CalculateTotal</text>
<text text-anchor="middle" x="1451.5" y="-127" font-family="Helvetica,sans-Serif" font-size="10.00">Probability</text>
</a>
</g>
</g>
<!-- Node7&#45;&gt;Node12 -->
<g id="edge11" class="edge"><title>Node7&#45;&gt;Node12</title>
<path fill="none" stroke="midnightblue" d="M1327.04,-121.555C1341.57,-123.785 1356.92,-126.14 1371.67,-128.404"/>
<polygon fill="midnightblue" stroke="midnightblue" points="1327.54,-118.091 1317.13,-120.033 1326.48,-125.01 1327.54,-118.091"/>
</g>
<!-- Node13 -->
<g id="node13" class="node"><title>Node13</title>
<g id="a_node13"><a xlink:href="classscram_1_1core_1_1CustomPreprocessor_3_01Bdd_01_4.xhtml#a8cf4307236cd521e39a2c6feb21f3214" target="_top" xlink:title="Performs preprocessing for analyses with Binary Decision Diagrams. ">
<polygon fill="white" stroke="black" points="1368,-71.5 1368,-101.5 1535,-101.5 1535,-71.5 1368,-71.5"/>
<text text-anchor="start" x="1376" y="-89.5" font-family="Helvetica,sans-Serif" font-size="10.00">scram::core::CustomPreprocessor</text>
<text text-anchor="middle" x="1451.5" y="-78.5" font-family="Helvetica,sans-Serif" font-size="10.00">&lt; Bdd &gt;::Run</text>
</a>
</g>
</g>
<!-- Node7&#45;&gt;Node13 -->
<g id="edge12" class="edge"><title>Node7&#45;&gt;Node13</title>
<path fill="none" stroke="midnightblue" d="M1342.44,-99.7657C1350.84,-98.735 1359.33,-97.6917 1367.68,-96.6667"/>
<polygon fill="midnightblue" stroke="midnightblue" points="1341.77,-96.3221 1332.27,-101.015 1342.62,-103.27 1341.77,-96.3221"/>
</g>
<!-- Node14 -->
<g id="node14" class="node"><title>Node14</title>
<g id="a_node14"><a xlink:href="classscram_1_1core_1_1CustomPreprocessor_3_01Zbdd_01_4.xhtml#a5185075f852c647c7aa4313d23420ee5" target="_top" xlink:title="Performs preprocessing for analyses with Zero&#45;Suppressed Binary Decision Diagrams. ">
<polygon fill="white" stroke="black" points="1368,-22.5 1368,-52.5 1535,-52.5 1535,-22.5 1368,-22.5"/>
<text text-anchor="start" x="1376" y="-40.5" font-family="Helvetica,sans-Serif" font-size="10.00">scram::core::CustomPreprocessor</text>
<text text-anchor="middle" x="1451.5" y="-29.5" font-family="Helvetica,sans-Serif" font-size="10.00">&lt; Zbdd &gt;::Run</text>
</a>
</g>
</g>
<!-- Node7&#45;&gt;Node14 -->
<g id="edge13" class="edge"><title>Node7&#45;&gt;Node14</title>
<path fill="none" stroke="midnightblue" d="M1296.61,-97.7108C1308.26,-93.6472 1320.8,-88.8122 1332,-83.5 1348.94,-75.464 1350.85,-69.0744 1368,-61.5 1375.51,-58.186 1383.59,-55.1882 1391.67,-52.5237"/>
<polygon fill="midnightblue" stroke="midnightblue" points="1295.42,-94.4158 1287.07,-100.936 1297.67,-101.047 1295.42,-94.4158"/>
</g>
<!-- Node9 -->
<g id="node9" class="node"><title>Node9</title>
<g id="a_node9"><a xlink:href="classscram_1_1core_1_1RiskAnalysis.xhtml#a7aed757ac5a7a96878c2706a7a9710bb" target="_top" xlink:title="Analyzes the model and performs computations specified in the settings. ">
<polygon fill="white" stroke="black" points="1571,-179.5 1571,-209.5 1703,-209.5 1703,-179.5 1571,-179.5"/>
<text text-anchor="start" x="1579" y="-197.5" font-family="Helvetica,sans-Serif" font-size="10.00">scram::core::RiskAnalysis</text>
<text text-anchor="middle" x="1637" y="-186.5" font-family="Helvetica,sans-Serif" font-size="10.00">::Analyze</text>
</a>
</g>
</g>
<!-- Node8&#45;&gt;Node9 -->
<g id="edge8" class="edge"><title>Node8&#45;&gt;Node9</title>
<path fill="none" stroke="midnightblue" d="M1538.95,-194.5C1549.67,-194.5 1560.49,-194.5 1570.81,-194.5"/>
<polygon fill="midnightblue" stroke="midnightblue" points="1538.73,-191 1528.73,-194.5 1538.73,-198 1538.73,-191"/>
</g>
<!-- Node10 -->
<g id="node10" class="node"><title>Node10</title>
<g id="a_node10"><a xlink:href="classscram_1_1core_1_1RiskAnalysis.xhtml#a337f7e9fe02b1581e872590d6f7baa01" target="_top" xlink:title="scram::core::RiskAnalysis\l::model">
<polygon fill="white" stroke="black" points="1739,-179.5 1739,-209.5 1871,-209.5 1871,-179.5 1739,-179.5"/>
<text text-anchor="start" x="1747" y="-197.5" font-family="Helvetica,sans-Serif" font-size="10.00">scram::core::RiskAnalysis</text>
<text text-anchor="middle" x="1805" y="-186.5" font-family="Helvetica,sans-Serif" font-size="10.00">::model</text>
</a>
</g>
</g>
<!-- Node9&#45;&gt;Node10 -->
<g id="edge9" class="edge"><title>Node9&#45;&gt;Node10</title>
<path fill="none" stroke="midnightblue" d="M1713.39,-194.5C1721.87,-194.5 1730.45,-194.5 1738.78,-194.5"/>
<polygon fill="midnightblue" stroke="midnightblue" points="1713.13,-191 1703.13,-194.5 1713.13,-198 1713.13,-191"/>
</g>
<!-- Node11 -->
<g id="node11" class="node"><title>Node11</title>
<g id="a_node11"><a xlink:href="reporter_8cc.xhtml#ad6460094a94fb73e56c2a4a5efc598ed" target="_top" xlink:title="Describes all performed analyses deduced from settings. ">
<polygon fill="white" stroke="black" points="1907,-179.5 1907,-209.5 2069,-209.5 2069,-179.5 1907,-179.5"/>
<text text-anchor="start" x="1915" y="-197.5" font-family="Helvetica,sans-Serif" font-size="10.00">scram::ReportCalculatedQuantity</text>
<text text-anchor="middle" x="1988" y="-186.5" font-family="Helvetica,sans-Serif" font-size="10.00">&lt; core::RiskAnalysis &gt;</text>
</a>
</g>
</g>
<!-- Node10&#45;&gt;Node11 -->
<g id="edge10" class="edge"><title>Node10&#45;&gt;Node11</title>
<path fill="none" stroke="midnightblue" d="M1881.24,-194.5C1889.65,-194.5 1898.24,-194.5 1906.71,-194.5"/>
<polygon fill="midnightblue" stroke="midnightblue" points="1881.09,-191 1871.09,-194.5 1881.09,-198 1881.09,-191"/>
</g>
<!-- Node15&#45;&gt;Node14 -->
<g id="edge15" class="edge"><title>Node15&#45;&gt;Node14</title>
<path fill="none" stroke="midnightblue" d="M1330.31,-51.0248C1342.64,-49.6381 1355.46,-48.1948 1367.95,-46.7896"/>
<polygon fill="midnightblue" stroke="midnightblue" points="1329.64,-47.5779 1320.1,-52.1743 1330.43,-54.534 1329.64,-47.5779"/>
</g>
<!-- Node16&#45;&gt;Node14 -->
<g id="edge17" class="edge"><title>Node16&#45;&gt;Node14</title>
<path fill="none" stroke="midnightblue" d="M1150.66,-19.9328C1213.58,-23.6193 1303,-28.8581 1367.8,-32.6546"/>
<polygon fill="midnightblue" stroke="midnightblue" points="1150.59,-16.4231 1140.41,-19.3321 1150.19,-23.4111 1150.59,-16.4231"/>
</g>
<!-- Node17&#45;&gt;Node7 -->
<g id="edge19" class="edge"><title>Node17&#45;&gt;Node7</title>
<path fill="none" stroke="midnightblue" d="M1150.22,-106.458C1158.67,-106.79 1167.29,-107.129 1175.77,-107.463"/>
<polygon fill="midnightblue" stroke="midnightblue" points="1150.15,-102.953 1140.02,-106.057 1149.87,-109.947 1150.15,-102.953"/>
</g>
</g>
</svg>
