<?xml version="1.0" encoding="UTF-8" standalone="no"?>
<!DOCTYPE svg PUBLIC "-//W3C//DTD SVG 1.1//EN"
 "http://www.w3.org/Graphics/SVG/1.1/DTD/svg11.dtd">
<!-- Generated by graphviz version 2.38.0 (20140413.2041)
 -->
<!-- Title: scram::core::ProbabilityAnalyzer&lt; Bdd &gt;::ProbabilityAnalyzer Pages: 1 -->
<svg width="340pt" height="78pt"
 viewBox="0.00 0.00 340.00 77.50" xmlns="http://www.w3.org/2000/svg" xmlns:xlink="http://www.w3.org/1999/xlink">
<g id="graph0" class="graph" transform="scale(1 1) rotate(0) translate(4 73.5)">
<title>scram::core::ProbabilityAnalyzer&lt; Bdd &gt;::ProbabilityAnalyzer</title>
<polygon fill="white" stroke="none" points="-4,4 -4,-73.5 336,-73.5 336,4 -4,4"/>
<!-- Node1 -->
<g id="node1" class="node"><title>Node1</title>
<polygon fill="#bfbfbf" stroke="black" points="0,-11.5 0,-52.5 142,-52.5 142,-11.5 0,-11.5"/>
<text text-anchor="start" x="8" y="-40.5" font-family="Helvetica,sans-Serif" font-size="10.00">scram::core::Probability</text>
<text text-anchor="start" x="8" y="-29.5" font-family="Helvetica,sans-Serif" font-size="10.00">Analyzer&lt; Bdd &gt;::Probability</text>
<text text-anchor="middle" x="71" y="-18.5" font-family="Helvetica,sans-Serif" font-size="10.00">Analyzer</text>
</g>
<!-- Node2 -->
<g id="node2" class="node"><title>Node2</title>
<g id="a_node2"><a xlink:href="classscram_1_1core_1_1FaultTreeAnalyzer.xhtml#a306ce3db289e08e34def4337360b117b" target="_top" xlink:title="scram::core::FaultTreeAnalyzer\l::algorithm">
<polygon fill="white" stroke="black" points="178,-39 178,-69 332,-69 332,-39 178,-39"/>
<text text-anchor="start" x="186" y="-57" font-family="Helvetica,sans-Serif" font-size="10.00">scram::core::FaultTreeAnalyzer</text>
<text text-anchor="middle" x="255" y="-46" font-family="Helvetica,sans-Serif" font-size="10.00">::algorithm</text>
</a>
</g>
</g>
<!-- Node1&#45;&gt;Node2 -->
<g id="edge1" class="edge"><title>Node1&#45;&gt;Node2</title>
<path fill="none" stroke="midnightblue" d="M142.106,-40.4743C150.527,-41.4922 159.2,-42.5406 167.815,-43.5821"/>
<polygon fill="midnightblue" stroke="midnightblue" points="167.536,-47.0737 177.884,-44.7992 168.376,-40.1243 167.536,-47.0737"/>
</g>
<!-- Node3 -->
<g id="node3" class="node"><title>Node3</title>
<g id="a_node3"><a xlink:href="classscram_1_1core_1_1Ite.xhtml#a55a7d6955f67d68f01287950c7efc782" target="_top" xlink:title="Recovers a shared pointer to Ite from a pointer to Vertex. ">
<polygon fill="white" stroke="black" points="203,-0.5 203,-19.5 307,-19.5 307,-0.5 203,-0.5"/>
<text text-anchor="middle" x="255" y="-7.5" font-family="Helvetica,sans-Serif" font-size="10.00">scram::core::Ite::Ptr</text>
</a>
</g>
</g>
<!-- Node1&#45;&gt;Node3 -->
<g id="edge2" class="edge"><title>Node1&#45;&gt;Node3</title>
<path fill="none" stroke="midnightblue" d="M142.106,-23.5257C158.857,-21.5008 176.606,-19.3553 192.914,-17.3841"/>
<polygon fill="midnightblue" stroke="midnightblue" points="193.352,-20.8567 202.859,-16.1818 192.511,-13.9073 193.352,-20.8567"/>
</g>
</g>
</svg>
