<?xml version="1.0" encoding="UTF-8" standalone="no"?>
<!DOCTYPE svg PUBLIC "-//W3C//DTD SVG 1.1//EN"
 "http://www.w3.org/Graphics/SVG/1.1/DTD/svg11.dtd">
<!-- Generated by graphviz version 2.38.0 (20140413.2041)
 -->
<!-- Title: scram::core::Zbdd::JoinModule Pages: 1 -->
<svg width="307pt" height="78pt"
 viewBox="0.00 0.00 307.00 77.50" xmlns="http://www.w3.org/2000/svg" xmlns:xlink="http://www.w3.org/1999/xlink">
<g id="graph0" class="graph" transform="scale(1 1) rotate(0) translate(4 73.5)">
<title>scram::core::Zbdd::JoinModule</title>
<polygon fill="white" stroke="none" points="-4,4 -4,-73.5 303,-73.5 303,4 -4,4"/>
<!-- Node1 -->
<g id="node1" class="node"><title>Node1</title>
<polygon fill="#bfbfbf" stroke="black" points="0,-17 0,-47 102,-47 102,-17 0,-17"/>
<text text-anchor="start" x="8" y="-35" font-family="Helvetica,sans-Serif" font-size="10.00">scram::core::Zbdd::</text>
<text text-anchor="middle" x="51" y="-24" font-family="Helvetica,sans-Serif" font-size="10.00">JoinModule</text>
</g>
<!-- Node2 -->
<g id="node2" class="node"><title>Node2</title>
<g id="a_node2"><a xlink:href="classscram_1_1core_1_1zbdd_1_1CutSetContainer.xhtml#a478c89f64731781882b50ec55898900b" target="_top" xlink:title="Gathers all module indices in the cut sets. ">
<polygon fill="white" stroke="black" points="138,-39 138,-69 299,-69 299,-39 138,-39"/>
<text text-anchor="start" x="146" y="-57" font-family="Helvetica,sans-Serif" font-size="10.00">scram::core::zbdd::</text>
<text text-anchor="middle" x="218.5" y="-46" font-family="Helvetica,sans-Serif" font-size="10.00">CutSetContainer::GatherModules</text>
</a>
</g>
</g>
<!-- Node1&#45;&gt;Node2 -->
<g id="edge1" class="edge"><title>Node1&#45;&gt;Node2</title>
<path fill="none" stroke="midnightblue" d="M112.14,-39.9945C120.525,-41.1091 129.245,-42.2682 137.919,-43.4212"/>
<polygon fill="midnightblue" stroke="midnightblue" points="112.479,-36.5087 102.105,-38.6604 111.556,-43.4477 112.479,-36.5087"/>
</g>
<!-- Node3 -->
<g id="node3" class="node"><title>Node3</title>
<g id="a_node3"><a xlink:href="classscram_1_1core_1_1Zbdd.xhtml#af92e04ed908364e0177ce444d7b72712" target="_top" xlink:title="Default constructor to initialize member variables. ">
<polygon fill="white" stroke="black" points="156.5,-0.5 156.5,-19.5 280.5,-19.5 280.5,-0.5 156.5,-0.5"/>
<text text-anchor="middle" x="218.5" y="-7.5" font-family="Helvetica,sans-Serif" font-size="10.00">scram::core::Zbdd::Zbdd</text>
</a>
</g>
</g>
<!-- Node1&#45;&gt;Node3 -->
<g id="edge2" class="edge"><title>Node1&#45;&gt;Node3</title>
<path fill="none" stroke="midnightblue" d="M112.366,-23.9756C126.731,-22.066 142.07,-20.027 156.465,-18.1134"/>
<polygon fill="midnightblue" stroke="midnightblue" points="111.556,-20.5523 102.105,-25.3396 112.479,-27.4913 111.556,-20.5523"/>
</g>
</g>
</svg>
