<?xml version="1.0" encoding="UTF-8" standalone="no"?>
<!DOCTYPE svg PUBLIC "-//W3C//DTD SVG 1.1//EN"
 "http://www.w3.org/Graphics/SVG/1.1/DTD/svg11.dtd">
<!-- Generated by graphviz version 2.38.0 (20140413.2041)
 -->
<!-- Title: scram::core::Settings::probability_analysis Pages: 1 -->
<svg width="474pt" height="116pt"
 viewBox="0.00 0.00 474.00 115.50" xmlns="http://www.w3.org/2000/svg" xmlns:xlink="http://www.w3.org/1999/xlink">
<g id="graph0" class="graph" transform="scale(1 1) rotate(0) translate(4 111.5)">
<title>scram::core::Settings::probability_analysis</title>
<polygon fill="white" stroke="none" points="-4,4 -4,-111.5 470,-111.5 470,4 -4,4"/>
<!-- Node1 -->
<g id="node1" class="node"><title>Node1</title>
<polygon fill="#bfbfbf" stroke="black" points="0,-44.5 0,-74.5 110,-74.5 110,-44.5 0,-44.5"/>
<text text-anchor="start" x="8" y="-62.5" font-family="Helvetica,sans-Serif" font-size="10.00">scram::core::Settings</text>
<text text-anchor="middle" x="55" y="-51.5" font-family="Helvetica,sans-Serif" font-size="10.00">::probability_analysis</text>
</g>
<!-- Node2 -->
<g id="node2" class="node"><title>Node2</title>
<g id="a_node2"><a xlink:href="classscram_1_1Config.xhtml#ab0d7940fbb627fab9867821e133eab5d" target="_top" xlink:title="A constructor with configurations for analysis. ">
<polygon fill="white" stroke="black" points="170.5,-88 170.5,-107 283.5,-107 283.5,-88 170.5,-88"/>
<text text-anchor="middle" x="227" y="-95" font-family="Helvetica,sans-Serif" font-size="10.00">scram::Config::Config</text>
</a>
</g>
</g>
<!-- Node1&#45;&gt;Node2 -->
<g id="edge1" class="edge"><title>Node1&#45;&gt;Node2</title>
<path fill="none" stroke="midnightblue" d="M120.124,-73.8336C141.23,-78.5514 164.166,-83.6784 183.278,-87.9503"/>
<polygon fill="midnightblue" stroke="midnightblue" points="120.779,-70.3937 110.256,-71.6279 119.252,-77.2252 120.779,-70.3937"/>
</g>
<!-- Node3 -->
<g id="node3" class="node"><title>Node3</title>
<g id="a_node3"><a xlink:href="classscram_1_1Reporter.xhtml#a6a6327c0fc2d0e8ab6ec24a145ae1abe" target="_top" xlink:title="Reports the results of risk analysis on a model. ">
<polygon fill="white" stroke="black" points="166,-50 166,-69 288,-69 288,-50 166,-50"/>
<text text-anchor="middle" x="227" y="-57" font-family="Helvetica,sans-Serif" font-size="10.00">scram::Reporter::Report</text>
</a>
</g>
</g>
<!-- Node1&#45;&gt;Node3 -->
<g id="edge2" class="edge"><title>Node1&#45;&gt;Node3</title>
<path fill="none" stroke="midnightblue" d="M120.396,-59.5C135.285,-59.5 151.072,-59.5 165.775,-59.5"/>
<polygon fill="midnightblue" stroke="midnightblue" points="120.256,-56.0001 110.256,-59.5 120.256,-63.0001 120.256,-56.0001"/>
</g>
<!-- Node5 -->
<g id="node5" class="node"><title>Node5</title>
<g id="a_node5"><a xlink:href="reporter_8cc.xhtml#ad6460094a94fb73e56c2a4a5efc598ed" target="_top" xlink:title="Describes all performed analyses deduced from settings. ">
<polygon fill="white" stroke="black" points="146,-0.5 146,-30.5 308,-30.5 308,-0.5 146,-0.5"/>
<text text-anchor="start" x="154" y="-18.5" font-family="Helvetica,sans-Serif" font-size="10.00">scram::ReportCalculatedQuantity</text>
<text text-anchor="middle" x="227" y="-7.5" font-family="Helvetica,sans-Serif" font-size="10.00">&lt; core::RiskAnalysis &gt;</text>
</a>
</g>
</g>
<!-- Node1&#45;&gt;Node5 -->
<g id="edge4" class="edge"><title>Node1&#45;&gt;Node5</title>
<path fill="none" stroke="midnightblue" d="M120.347,-42.8455C135.955,-38.8057 152.552,-34.51 167.855,-30.5493"/>
<polygon fill="midnightblue" stroke="midnightblue" points="119.06,-39.5631 110.256,-45.4572 120.814,-46.3398 119.06,-39.5631"/>
</g>
<!-- Node4 -->
<g id="node4" class="node"><title>Node4</title>
<g id="a_node4"><a xlink:href="classscram_1_1Reporter.xhtml#acf35ee03ce2ffc48aed92a578842b9d6" target="_top" xlink:title="A convenience function to generate the report into a file. ">
<polygon fill="white" stroke="black" points="344,-50 344,-69 466,-69 466,-50 344,-50"/>
<text text-anchor="middle" x="405" y="-57" font-family="Helvetica,sans-Serif" font-size="10.00">scram::Reporter::Report</text>
</a>
</g>
</g>
<!-- Node3&#45;&gt;Node4 -->
<g id="edge3" class="edge"><title>Node3&#45;&gt;Node4</title>
<path fill="none" stroke="midnightblue" d="M298.377,-59.5C313.453,-59.5 329.249,-59.5 343.895,-59.5"/>
<polygon fill="midnightblue" stroke="midnightblue" points="298.077,-56.0001 288.077,-59.5 298.077,-63.0001 298.077,-56.0001"/>
</g>
</g>
</svg>
