<?xml version="1.0" encoding="UTF-8" standalone="no"?>
<!DOCTYPE svg PUBLIC "-//W3C//DTD SVG 1.1//EN"
 "http://www.w3.org/Graphics/SVG/1.1/DTD/svg11.dtd">
<!-- Generated by graphviz version 2.38.0 (20140413.2041)
 -->
<!-- Title: scram::mef::ExponentialExpression::Min Pages: 1 -->
<svg width="538pt" height="83pt"
 viewBox="0.00 0.00 538.00 83.00" xmlns="http://www.w3.org/2000/svg" xmlns:xlink="http://www.w3.org/1999/xlink">
<g id="graph0" class="graph" transform="scale(1 1) rotate(0) translate(4 79)">
<title>scram::mef::ExponentialExpression::Min</title>
<polygon fill="white" stroke="none" points="-4,4 -4,-79 534,-79 534,4 -4,4"/>
<!-- Node1 -->
<g id="node1" class="node"><title>Node1</title>
<polygon fill="#bfbfbf" stroke="black" points="0,-28 0,-47 194,-47 194,-28 0,-28"/>
<text text-anchor="middle" x="97" y="-35" font-family="Helvetica,sans-Serif" font-size="10.00">scram::mef::ExponentialExpression::Min</text>
</g>
<!-- Node2 -->
<g id="node2" class="node"><title>Node2</title>
<g id="a_node2"><a xlink:href="classscram_1_1mef_1_1Expression.xhtml#a9601745b7f61ec67c8074a4043367152" target="_top" xlink:title="scram::mef::Expression::Min">
<polygon fill="white" stroke="black" points="230,-50 230,-69 373,-69 373,-50 230,-50"/>
<text text-anchor="middle" x="301.5" y="-57" font-family="Helvetica,sans-Serif" font-size="10.00">scram::mef::Expression::Min</text>
</a>
</g>
</g>
<!-- Node1&#45;&gt;Node2 -->
<g id="edge1" class="edge"><title>Node1&#45;&gt;Node2</title>
<path fill="none" stroke="midnightblue" d="M185.642,-47.0216C196.935,-48.2485 208.459,-49.5005 219.637,-50.7149"/>
<polygon fill="midnightblue" stroke="midnightblue" points="219.469,-54.2172 229.789,-51.8178 220.225,-47.2581 219.469,-54.2172"/>
</g>
<!-- Node4 -->
<g id="node4" class="node"><title>Node4</title>
<g id="a_node4"><a xlink:href="classscram_1_1mef_1_1Expression.xhtml#a5cf00d8b2ff843ad029a501a89ee572a" target="_top" xlink:title="scram::mef::Expression\l::Sample">
<polygon fill="white" stroke="black" points="241,-0.5 241,-30.5 362,-30.5 362,-0.5 241,-0.5"/>
<text text-anchor="start" x="249" y="-18.5" font-family="Helvetica,sans-Serif" font-size="10.00">scram::mef::Expression</text>
<text text-anchor="middle" x="301.5" y="-7.5" font-family="Helvetica,sans-Serif" font-size="10.00">::Sample</text>
</a>
</g>
</g>
<!-- Node1&#45;&gt;Node4 -->
<g id="edge3" class="edge"><title>Node1&#45;&gt;Node4</title>
<path fill="none" stroke="midnightblue" d="M185.642,-27.9784C200.608,-26.3525 215.978,-24.6826 230.413,-23.1144"/>
<polygon fill="midnightblue" stroke="midnightblue" points="231.175,-26.5523 240.738,-21.9926 230.419,-19.5933 231.175,-26.5523"/>
</g>
<!-- Node3 -->
<g id="node3" class="node"><title>Node3</title>
<g id="a_node3"><a xlink:href="classscram_1_1mef_1_1Expression.xhtml#ac7e0dd118eafdfa943944172c1625a4e" target="_top" xlink:title="scram::mef::Expression\l::Mean">
<polygon fill="white" stroke="black" points="409,-44.5 409,-74.5 530,-74.5 530,-44.5 409,-44.5"/>
<text text-anchor="start" x="417" y="-62.5" font-family="Helvetica,sans-Serif" font-size="10.00">scram::mef::Expression</text>
<text text-anchor="middle" x="469.5" y="-51.5" font-family="Helvetica,sans-Serif" font-size="10.00">::Mean</text>
</a>
</g>
</g>
<!-- Node2&#45;&gt;Node3 -->
<g id="edge2" class="edge"><title>Node2&#45;&gt;Node3</title>
<path fill="none" stroke="midnightblue" d="M373.38,-59.5C381.775,-59.5 390.339,-59.5 398.719,-59.5"/>
<polygon fill="midnightblue" stroke="midnightblue" points="398.825,-63.0001 408.825,-59.5 398.825,-56.0001 398.825,-63.0001"/>
</g>
</g>
</svg>
