<?xml version="1.0" encoding="UTF-8" standalone="no"?>
<!DOCTYPE svg PUBLIC "-//W3C//DTD SVG 1.1//EN"
 "http://www.w3.org/Graphics/SVG/1.1/DTD/svg11.dtd">
<!-- Generated by graphviz version 2.38.0 (20140413.2041)
 -->
<!-- Title: scram::Error::msg Pages: 1 -->
<svg width="258pt" height="137pt"
 viewBox="0.00 0.00 258.00 137.00" xmlns="http://www.w3.org/2000/svg" xmlns:xlink="http://www.w3.org/1999/xlink">
<g id="graph0" class="graph" transform="scale(1 1) rotate(0) translate(4 133)">
<title>scram::Error::msg</title>
<polygon fill="white" stroke="none" points="-4,4 -4,-133 254,-133 254,4 -4,4"/>
<!-- Node1 -->
<g id="node1" class="node"><title>Node1</title>
<polygon fill="#bfbfbf" stroke="black" points="0,-65.5 0,-84.5 95,-84.5 95,-65.5 0,-65.5"/>
<text text-anchor="middle" x="47.5" y="-72.5" font-family="Helvetica,sans-Serif" font-size="10.00">scram::Error::msg</text>
</g>
<!-- Node2 -->
<g id="node2" class="node"><title>Node2</title>
<g id="a_node2"><a xlink:href="classscram_1_1Config.xhtml#ab0d7940fbb627fab9867821e133eab5d" target="_top" xlink:title="A constructor with configurations for analysis. ">
<polygon fill="white" stroke="black" points="134,-109.5 134,-128.5 247,-128.5 247,-109.5 134,-109.5"/>
<text text-anchor="middle" x="190.5" y="-116.5" font-family="Helvetica,sans-Serif" font-size="10.00">scram::Config::Config</text>
</a>
</g>
</g>
<!-- Node1&#45;&gt;Node2 -->
<g id="edge1" class="edge"><title>Node1&#45;&gt;Node2</title>
<path fill="none" stroke="midnightblue" d="M88.648,-87.5285C110.997,-94.5027 138.376,-103.046 158.965,-109.471"/>
<polygon fill="midnightblue" stroke="midnightblue" points="89.6835,-84.1852 79.0949,-84.5473 87.5983,-90.8674 89.6835,-84.1852"/>
</g>
<!-- Node3 -->
<g id="node3" class="node"><title>Node3</title>
<g id="a_node3"><a xlink:href="classscram_1_1mef_1_1Initializer.xhtml#a8fb6959baa83f7619b3ca9ed8423d40a" target="_top" xlink:title="Reads input files with the structure of analysis constructs. ">
<polygon fill="white" stroke="black" points="135,-60 135,-90 246,-90 246,-60 135,-60"/>
<text text-anchor="start" x="143" y="-78" font-family="Helvetica,sans-Serif" font-size="10.00">scram::mef::Initializer</text>
<text text-anchor="middle" x="190.5" y="-67" font-family="Helvetica,sans-Serif" font-size="10.00">::Initializer</text>
</a>
</g>
</g>
<!-- Node1&#45;&gt;Node3 -->
<g id="edge2" class="edge"><title>Node1&#45;&gt;Node3</title>
<path fill="none" stroke="midnightblue" d="M105.062,-75C114.822,-75 124.953,-75 134.666,-75"/>
<polygon fill="midnightblue" stroke="midnightblue" points="105.059,-71.5001 95.0594,-75 105.059,-78.5001 105.059,-71.5001"/>
</g>
<!-- Node4 -->
<g id="node4" class="node"><title>Node4</title>
<g id="a_node4"><a xlink:href="structscram_1_1mef_1_1Initializer_1_1Extractor_3_01Histogram_00-1_01_4.xhtml#ac0e94ff09dd707d3c253937a172e7fc7" target="_top" xlink:title="Constructs Histogram deviate expression expression arguments in XML elements. ">
<polygon fill="white" stroke="black" points="131,-0.5 131,-41.5 250,-41.5 250,-0.5 131,-0.5"/>
<text text-anchor="start" x="139" y="-29.5" font-family="Helvetica,sans-Serif" font-size="10.00">scram::mef::Initializer</text>
<text text-anchor="start" x="139" y="-18.5" font-family="Helvetica,sans-Serif" font-size="10.00">::Extractor&lt; Histogram,</text>
<text text-anchor="middle" x="190.5" y="-7.5" font-family="Helvetica,sans-Serif" font-size="10.00">&#45;1 &gt;::operator()</text>
</a>
</g>
</g>
<!-- Node1&#45;&gt;Node4 -->
<g id="edge3" class="edge"><title>Node1&#45;&gt;Node4</title>
<path fill="none" stroke="midnightblue" d="M82.837,-61.8497C98.7942,-55.7384 118.141,-48.329 135.953,-41.5074"/>
<polygon fill="midnightblue" stroke="midnightblue" points="81.4702,-58.6252 73.3834,-65.4702 83.9738,-65.1622 81.4702,-58.6252"/>
</g>
</g>
</svg>
