<?xml version="1.0" encoding="UTF-8" standalone="no"?>
<!DOCTYPE svg PUBLIC "-//W3C//DTD SVG 1.1//EN"
 "http://www.w3.org/Graphics/SVG/1.1/DTD/svg11.dtd">
<!-- Generated by graphviz version 2.38.0 (20140413.2041)
 -->
<!-- Title: scram::core::Preprocessor::NormalizeGate Pages: 1 -->
<!--zoomable 196 -->
<svg id="main" version="1.1" xmlns="http://www.w3.org/2000/svg" xmlns:xlink="http://www.w3.org/1999/xlink" xml:space="preserve" onload="init(evt)">
<style type="text/css"><![CDATA[
.edge:hover path { stroke: red; }
.edge:hover polygon { stroke: red; fill: red; }
]]></style>
<script type="text/javascript"><![CDATA[
var edges = document.getElementsByTagName('g');
if (edges && edges.length) {
  for (var i=0;i<edges.length;i++) {
    if (edges[i].id.substr(0,4)=='edge') {
      edges[i].setAttribute('class','edge');
    }
  }
}
]]></script>
        <defs>
                <circle id="rim" cx="0" cy="0" r="7"/>
                <circle id="rim2" cx="0" cy="0" r="3.5"/>
                <g id="zoomPlus">
                        <use xlink:href="#rim" fill="#404040">
                                <set attributeName="fill" to="#808080" begin="zoomplus.mouseover" end="zoomplus.mouseout"/>
                        </use>
                        <path d="M-4,0h8M0,-4v8" fill="none" stroke="white" stroke-width="1.5" pointer-events="none"/>
                </g>
                <g id="zoomMin">
                        <use xlink:href="#rim" fill="#404040">
                                <set attributeName="fill" to="#808080" begin="zoomminus.mouseover" end="zoomminus.mouseout"/>
                        </use>
                        <path d="M-4,0h8" fill="none" stroke="white" stroke-width="1.5" pointer-events="none"/>
                </g>
                <g id="dirArrow">
                        <path fill="none" stroke="white" stroke-width="1.5" d="M0,-3.0v7 M-2.5,-0.5L0,-3.0L2.5,-0.5"/>
                </g>
               <g id="resetDef">
                       <use xlink:href="#rim2" fill="#404040">
                               <set attributeName="fill" to="#808080" begin="reset.mouseover" end="reset.mouseout"/>
                       </use>
               </g>
        </defs>

<script type="text/javascript">
var viewWidth = 1405;
var viewHeight = 196;
var sectionId = 'dynsection-31';
</script>
<script xlink:href="svgpan.js"/>
<svg id="graph" class="graph">
<g id="viewport">
<title>scram::core::Preprocessor::NormalizeGate</title>
<polygon fill="white" stroke="none" points="-4,4 -4,-192 1401,-192 1401,4 -4,4"/>
<!-- Node1 -->
<g id="node1" class="node"><title>Node1</title>
<polygon fill="#bfbfbf" stroke="black" points="0,-76.5 0,-106.5 132,-106.5 132,-76.5 0,-76.5"/>
<text text-anchor="start" x="8" y="-94.5" font-family="Helvetica,sans-Serif" font-size="10.00">scram::core::Preprocessor</text>
<text text-anchor="middle" x="66" y="-83.5" font-family="Helvetica,sans-Serif" font-size="10.00">::NormalizeGate</text>
</g>
<!-- Node2 -->
<g id="node2" class="node"><title>Node2</title>
<g id="a_node2"><a xlink:href="classscram_1_1core_1_1Preprocessor.xhtml#ad13e133278ea7563c1ba037c05c35aa2" target="_top" xlink:title="Normalizes the gates of the whole Boolean graph into OR, AND gates. ">
<polygon fill="white" stroke="black" points="168,-76.5 168,-106.5 300,-106.5 300,-76.5 168,-76.5"/>
<text text-anchor="start" x="176" y="-94.5" font-family="Helvetica,sans-Serif" font-size="10.00">scram::core::Preprocessor</text>
<text text-anchor="middle" x="234" y="-83.5" font-family="Helvetica,sans-Serif" font-size="10.00">::NormalizeGates</text>
</a>
</g>
</g>
<!-- Node1&#45;&gt;Node2 -->
<g id="edge1" class="edge"><title>Node1&#45;&gt;Node2</title>
<path fill="none" stroke="midnightblue" d="M142.393,-91.5C150.869,-91.5 159.452,-91.5 167.784,-91.5"/>
<polygon fill="midnightblue" stroke="midnightblue" points="142.131,-88.0001 132.131,-91.5 142.131,-95.0001 142.131,-88.0001"/>
</g>
<!-- Node3 -->
<g id="node3" class="node"><title>Node3</title>
<g id="a_node3"><a xlink:href="classscram_1_1core_1_1Preprocessor.xhtml#a44f820b6fe2c23594c818432b33e26a6" target="_top" xlink:title="Container of unique gates by semantics. ">
<polygon fill="white" stroke="black" points="336,-101.5 336,-131.5 468,-131.5 468,-101.5 336,-101.5"/>
<text text-anchor="start" x="344" y="-119.5" font-family="Helvetica,sans-Serif" font-size="10.00">scram::core::Preprocessor</text>
<text text-anchor="middle" x="402" y="-108.5" font-family="Helvetica,sans-Serif" font-size="10.00">::RunPhaseOne</text>
</a>
</g>
</g>
<!-- Node2&#45;&gt;Node3 -->
<g id="edge2" class="edge"><title>Node2&#45;&gt;Node3</title>
<path fill="none" stroke="midnightblue" d="M310.114,-102.812C318.681,-104.103 327.361,-105.41 335.784,-106.678"/>
<polygon fill="midnightblue" stroke="midnightblue" points="310.541,-99.3373 300.131,-101.309 309.498,-106.259 310.541,-99.3373"/>
</g>
<!-- Node12 -->
<g id="node12" class="node"><title>Node12</title>
<g id="a_node12"><a xlink:href="classscram_1_1core_1_1Preprocessor.xhtml#abf2c66723172a85b2ae87ef2a034cd1f" target="_top" xlink:title="Application of gate normalization. ">
<polygon fill="white" stroke="black" points="336,-52.5 336,-82.5 468,-82.5 468,-52.5 336,-52.5"/>
<text text-anchor="start" x="344" y="-70.5" font-family="Helvetica,sans-Serif" font-size="10.00">scram::core::Preprocessor</text>
<text text-anchor="middle" x="402" y="-59.5" font-family="Helvetica,sans-Serif" font-size="10.00">::RunPhaseThree</text>
</a>
</g>
</g>
<!-- Node2&#45;&gt;Node12 -->
<g id="edge11" class="edge"><title>Node2&#45;&gt;Node12</title>
<path fill="none" stroke="midnightblue" d="M310.114,-80.6402C318.681,-79.4016 327.361,-78.1466 335.784,-76.9288"/>
<polygon fill="midnightblue" stroke="midnightblue" points="309.527,-77.1885 300.131,-82.0834 310.529,-84.1164 309.527,-77.1885"/>
</g>
<!-- Node4 -->
<g id="node4" class="node"><title>Node4</title>
<g id="a_node4"><a xlink:href="classscram_1_1core_1_1Preprocessor.xhtml#a2b6705e815fa3d02119c405b483766d5" target="_top" xlink:title="Runs the default preprocessing that achieves the graph in a normal form. ">
<polygon fill="white" stroke="black" points="504,-82 504,-101 660,-101 660,-82 504,-82"/>
<text text-anchor="middle" x="582" y="-89" font-family="Helvetica,sans-Serif" font-size="10.00">scram::core::Preprocessor::Run</text>
</a>
</g>
</g>
<!-- Node3&#45;&gt;Node4 -->
<g id="edge3" class="edge"><title>Node3&#45;&gt;Node4</title>
<path fill="none" stroke="midnightblue" d="M478.132,-105.948C489.761,-104.314 501.713,-102.636 513.168,-101.027"/>
<polygon fill="midnightblue" stroke="midnightblue" points="477.434,-102.511 468.018,-107.368 478.407,-109.443 477.434,-102.511"/>
</g>
<!-- Node5 -->
<g id="node5" class="node"><title>Node5</title>
<g id="a_node5"><a xlink:href="classscram_1_1core_1_1FaultTreeAnalyzer.xhtml#af6d3e735d4200c3efed0164c58aabf57" target="_top" xlink:title="Runs fault tree analysis with the given algorithm. ">
<polygon fill="white" stroke="black" points="702.5,-157.5 702.5,-187.5 856.5,-187.5 856.5,-157.5 702.5,-157.5"/>
<text text-anchor="start" x="710.5" y="-175.5" font-family="Helvetica,sans-Serif" font-size="10.00">scram::core::FaultTreeAnalyzer</text>
<text text-anchor="middle" x="779.5" y="-164.5" font-family="Helvetica,sans-Serif" font-size="10.00">::Analyze</text>
</a>
</g>
</g>
<!-- Node4&#45;&gt;Node5 -->
<g id="edge4" class="edge"><title>Node4&#45;&gt;Node5</title>
<path fill="none" stroke="midnightblue" d="M608.688,-106.173C631.194,-118.609 665.052,-136.313 696,-148.5 704.189,-151.725 712.985,-154.738 721.674,-157.465"/>
<polygon fill="midnightblue" stroke="midnightblue" points="610.216,-103.018 599.779,-101.198 606.803,-109.129 610.216,-103.018"/>
</g>
<!-- Node9 -->
<g id="node9" class="node"><title>Node9</title>
<g id="a_node9"><a xlink:href="classscram_1_1core_1_1ProbabilityAnalyzer_3_01Bdd_01_4.xhtml#a517506c181102100cc6a3e96710813c6" target="_top" xlink:title="Calculates the total probability with a different set of probability values than the one given upon c...">
<polygon fill="white" stroke="black" points="700,-98 700,-139 859,-139 859,-98 700,-98"/>
<text text-anchor="start" x="708" y="-127" font-family="Helvetica,sans-Serif" font-size="10.00">scram::core::Probability</text>
<text text-anchor="start" x="708" y="-116" font-family="Helvetica,sans-Serif" font-size="10.00">Analyzer&lt; Bdd &gt;::CalculateTotal</text>
<text text-anchor="middle" x="779.5" y="-105" font-family="Helvetica,sans-Serif" font-size="10.00">Probability</text>
</a>
</g>
</g>
<!-- Node4&#45;&gt;Node9 -->
<g id="edge8" class="edge"><title>Node4&#45;&gt;Node9</title>
<path fill="none" stroke="midnightblue" d="M661.86,-102.391C674.383,-104.121 687.335,-105.909 699.853,-107.638"/>
<polygon fill="midnightblue" stroke="midnightblue" points="662.311,-98.9203 651.926,-101.019 661.353,-105.854 662.311,-98.9203"/>
</g>
<!-- Node10 -->
<g id="node10" class="node"><title>Node10</title>
<g id="a_node10"><a xlink:href="classscram_1_1core_1_1CustomPreprocessor_3_01Bdd_01_4.xhtml#a8cf4307236cd521e39a2c6feb21f3214" target="_top" xlink:title="Performs preprocessing for analyses with Binary Decision Diagrams. ">
<polygon fill="white" stroke="black" points="696,-49.5 696,-79.5 863,-79.5 863,-49.5 696,-49.5"/>
<text text-anchor="start" x="704" y="-67.5" font-family="Helvetica,sans-Serif" font-size="10.00">scram::core::CustomPreprocessor</text>
<text text-anchor="middle" x="779.5" y="-56.5" font-family="Helvetica,sans-Serif" font-size="10.00">&lt; Bdd &gt;::Run</text>
</a>
</g>
</g>
<!-- Node4&#45;&gt;Node10 -->
<g id="edge9" class="edge"><title>Node4&#45;&gt;Node10</title>
<path fill="none" stroke="midnightblue" d="M662.026,-80.5859C673.146,-79.0501 684.602,-77.468 695.789,-75.9231"/>
<polygon fill="midnightblue" stroke="midnightblue" points="661.353,-77.1455 651.926,-81.9808 662.311,-84.0797 661.353,-77.1455"/>
</g>
<!-- Node11 -->
<g id="node11" class="node"><title>Node11</title>
<g id="a_node11"><a xlink:href="classscram_1_1core_1_1CustomPreprocessor_3_01Zbdd_01_4.xhtml#a5185075f852c647c7aa4313d23420ee5" target="_top" xlink:title="Performs preprocessing for analyses with Zero&#45;Suppressed Binary Decision Diagrams. ">
<polygon fill="white" stroke="black" points="696,-0.5 696,-30.5 863,-30.5 863,-0.5 696,-0.5"/>
<text text-anchor="start" x="704" y="-18.5" font-family="Helvetica,sans-Serif" font-size="10.00">scram::core::CustomPreprocessor</text>
<text text-anchor="middle" x="779.5" y="-7.5" font-family="Helvetica,sans-Serif" font-size="10.00">&lt; Zbdd &gt;::Run</text>
</a>
</g>
</g>
<!-- Node4&#45;&gt;Node11 -->
<g id="edge10" class="edge"><title>Node4&#45;&gt;Node11</title>
<path fill="none" stroke="midnightblue" d="M610.435,-77.4826C633.023,-66.2825 666.081,-50.6657 696,-39.5 704.525,-36.3185 713.671,-33.2906 722.659,-30.5236"/>
<polygon fill="midnightblue" stroke="midnightblue" points="608.811,-74.3811 601.435,-81.9863 611.944,-80.6411 608.811,-74.3811"/>
</g>
<!-- Node6 -->
<g id="node6" class="node"><title>Node6</title>
<g id="a_node6"><a xlink:href="classscram_1_1core_1_1RiskAnalysis.xhtml#a7aed757ac5a7a96878c2706a7a9710bb" target="_top" xlink:title="Analyzes the model and performs computations specified in the settings. ">
<polygon fill="white" stroke="black" points="899,-157.5 899,-187.5 1031,-187.5 1031,-157.5 899,-157.5"/>
<text text-anchor="start" x="907" y="-175.5" font-family="Helvetica,sans-Serif" font-size="10.00">scram::core::RiskAnalysis</text>
<text text-anchor="middle" x="965" y="-164.5" font-family="Helvetica,sans-Serif" font-size="10.00">::Analyze</text>
</a>
</g>
</g>
<!-- Node5&#45;&gt;Node6 -->
<g id="edge5" class="edge"><title>Node5&#45;&gt;Node6</title>
<path fill="none" stroke="midnightblue" d="M866.954,-172.5C877.672,-172.5 888.486,-172.5 898.81,-172.5"/>
<polygon fill="midnightblue" stroke="midnightblue" points="866.726,-169 856.726,-172.5 866.726,-176 866.726,-169"/>
</g>
<!-- Node7 -->
<g id="node7" class="node"><title>Node7</title>
<g id="a_node7"><a xlink:href="classscram_1_1core_1_1RiskAnalysis.xhtml#a337f7e9fe02b1581e872590d6f7baa01" target="_top" xlink:title="scram::core::RiskAnalysis\l::model">
<polygon fill="white" stroke="black" points="1067,-157.5 1067,-187.5 1199,-187.5 1199,-157.5 1067,-157.5"/>
<text text-anchor="start" x="1075" y="-175.5" font-family="Helvetica,sans-Serif" font-size="10.00">scram::core::RiskAnalysis</text>
<text text-anchor="middle" x="1133" y="-164.5" font-family="Helvetica,sans-Serif" font-size="10.00">::model</text>
</a>
</g>
</g>
<!-- Node6&#45;&gt;Node7 -->
<g id="edge6" class="edge"><title>Node6&#45;&gt;Node7</title>
<path fill="none" stroke="midnightblue" d="M1041.39,-172.5C1049.87,-172.5 1058.45,-172.5 1066.78,-172.5"/>
<polygon fill="midnightblue" stroke="midnightblue" points="1041.13,-169 1031.13,-172.5 1041.13,-176 1041.13,-169"/>
</g>
<!-- Node8 -->
<g id="node8" class="node"><title>Node8</title>
<g id="a_node8"><a xlink:href="reporter_8cc.xhtml#ad6460094a94fb73e56c2a4a5efc598ed" target="_top" xlink:title="Describes all performed analyses deduced from settings. ">
<polygon fill="white" stroke="black" points="1235,-157.5 1235,-187.5 1397,-187.5 1397,-157.5 1235,-157.5"/>
<text text-anchor="start" x="1243" y="-175.5" font-family="Helvetica,sans-Serif" font-size="10.00">scram::ReportCalculatedQuantity</text>
<text text-anchor="middle" x="1316" y="-164.5" font-family="Helvetica,sans-Serif" font-size="10.00">&lt; core::RiskAnalysis &gt;</text>
</a>
</g>
</g>
<!-- Node7&#45;&gt;Node8 -->
<g id="edge7" class="edge"><title>Node7&#45;&gt;Node8</title>
<path fill="none" stroke="midnightblue" d="M1209.24,-172.5C1217.65,-172.5 1226.24,-172.5 1234.71,-172.5"/>
<polygon fill="midnightblue" stroke="midnightblue" points="1209.09,-169 1199.09,-172.5 1209.09,-176 1209.09,-169"/>
</g>
<!-- Node12&#45;&gt;Node4 -->
<g id="edge12" class="edge"><title>Node12&#45;&gt;Node4</title>
<path fill="none" stroke="midnightblue" d="M478.173,-77.6357C488.874,-79.0785 499.849,-80.5583 510.457,-81.9886"/>
<polygon fill="midnightblue" stroke="midnightblue" points="478.396,-74.1341 468.018,-76.2664 477.46,-81.0713 478.396,-74.1341"/>
</g>
</g>
</svg>
        <g id="navigator" transform="translate(0 0)" fill="#404254">
                <rect fill="#f2f5e9" fill-opacity="0.5" stroke="#606060" stroke-width=".5" x="0" y="0" width="60" height="60"/>
                <use id="zoomplus" xlink:href="#zoomPlus" x="17" y="9" onmousedown="handleZoom(evt,'in')"/>
                <use id="zoomminus" xlink:href="#zoomMin" x="42" y="9" onmousedown="handleZoom(evt,'out')"/>
                <use id="reset" xlink:href="#resetDef" x="30" y="36" onmousedown="handleReset()"/>
                <g id="arrowUp" xlink:href="#dirArrow" transform="translate(30 24)" onmousedown="handlePan(0,-1)">
                  <use xlink:href="#rim" fill="#404040">
                        <set attributeName="fill" to="#808080" begin="arrowUp.mouseover" end="arrowUp.mouseout"/>
                  </use>
                  <path fill="none" stroke="white" stroke-width="1.5" d="M0,-3.0v7 M-2.5,-0.5L0,-3.0L2.5,-0.5"/>
                </g>
                <g id="arrowRight" xlink:href="#dirArrow" transform="rotate(90) translate(36 -43)" onmousedown="handlePan(1,0)">
                  <use xlink:href="#rim" fill="#404040">
                        <set attributeName="fill" to="#808080" begin="arrowRight.mouseover" end="arrowRight.mouseout"/>
                  </use>
                  <path fill="none" stroke="white" stroke-width="1.5" d="M0,-3.0v7 M-2.5,-0.5L0,-3.0L2.5,-0.5"/>
                </g>
                <g id="arrowDown" xlink:href="#dirArrow" transform="rotate(180) translate(-30 -48)" onmousedown="handlePan(0,1)">
                  <use xlink:href="#rim" fill="#404040">
                        <set attributeName="fill" to="#808080" begin="arrowDown.mouseover" end="arrowDown.mouseout"/>
                  </use>
                  <path fill="none" stroke="white" stroke-width="1.5" d="M0,-3.0v7 M-2.5,-0.5L0,-3.0L2.5,-0.5"/>
                </g>
                <g id="arrowLeft" xlink:href="#dirArrow" transform="rotate(270) translate(-36 17)" onmousedown="handlePan(-1,0)">
                  <use xlink:href="#rim" fill="#404040">
                        <set attributeName="fill" to="#808080" begin="arrowLeft.mouseover" end="arrowLeft.mouseout"/>
                  </use>
                  <path fill="none" stroke="white" stroke-width="1.5" d="M0,-3.0v7 M-2.5,-0.5L0,-3.0L2.5,-0.5"/>
                </g>
        </g>
        <svg viewBox="0 0 15 15" width="100%" height="30px" preserveAspectRatio="xMaxYMin meet">
         <g id="arrow_out" transform="scale(0.3 0.3)">
          <a xlink:href="classscram_1_1core_1_1Preprocessor_abfe2eda90c983750e28db49900a4909d_icgraph_org.svg" target="_base">
           <rect id="button" ry="5" rx="5" y="6" x="6" height="38" width="38"
                fill="#f2f5e9" fill-opacity="0.5" stroke="#606060" stroke-width="1.0"/>
           <path id="arrow"
             d="M 11.500037,31.436501 C 11.940474,20.09759 22.043105,11.32322 32.158766,21.979434 L 37.068811,17.246167 C 37.068811,17.246167 37.088388,32 37.088388,32 L 22.160133,31.978069 C 22.160133,31.978069 26.997745,27.140456 26.997745,27.140456 C 18.528582,18.264221 13.291696,25.230495 11.500037,31.436501 z"
             style="fill:#404040;"/>
          </a>
         </g>
        </svg>
</svg>
