<?xml version="1.0" encoding="UTF-8" standalone="no"?>
<!DOCTYPE svg PUBLIC "-//W3C//DTD SVG 1.1//EN"
 "http://www.w3.org/Graphics/SVG/1.1/DTD/svg11.dtd">
<!-- Generated by graphviz version 2.38.0 (20140413.2041)
 -->
<!-- Title: scram::core::Preprocessor::DetectDistributivity Pages: 1 -->
<svg width="817pt" height="235pt"
 viewBox="0.00 0.00 817.00 235.00" xmlns="http://www.w3.org/2000/svg" xmlns:xlink="http://www.w3.org/1999/xlink">
<g id="graph0" class="graph" transform="scale(1 1) rotate(0) translate(4 231)">
<title>scram::core::Preprocessor::DetectDistributivity</title>
<polygon fill="white" stroke="none" points="-4,4 -4,-231 813,-231 813,4 -4,4"/>
<!-- Node1 -->
<g id="node1" class="node"><title>Node1</title>
<polygon fill="#bfbfbf" stroke="black" points="0,-134.5 0,-164.5 132,-164.5 132,-134.5 0,-134.5"/>
<text text-anchor="start" x="8" y="-152.5" font-family="Helvetica,sans-Serif" font-size="10.00">scram::core::Preprocessor</text>
<text text-anchor="middle" x="66" y="-141.5" font-family="Helvetica,sans-Serif" font-size="10.00">::DetectDistributivity</text>
</g>
<!-- Node2 -->
<g id="node2" class="node"><title>Node2</title>
<g id="a_node2"><a xlink:href="classscram_1_1core_1_1Preprocessor.xhtml#a4737f354474154b3cea9773c25616d27" target="_top" xlink:title="Detects and manipulates AND and OR gate distributivity for the whole graph. ">
<polygon fill="white" stroke="black" points="168,-171.5 168,-201.5 300,-201.5 300,-171.5 168,-171.5"/>
<text text-anchor="start" x="176" y="-189.5" font-family="Helvetica,sans-Serif" font-size="10.00">scram::core::Preprocessor</text>
<text text-anchor="middle" x="234" y="-178.5" font-family="Helvetica,sans-Serif" font-size="10.00">::DetectDistributivity</text>
</a>
</g>
</g>
<!-- Node1&#45;&gt;Node2 -->
<g id="edge1" class="edge"><title>Node1&#45;&gt;Node2</title>
<path fill="none" stroke="midnightblue" d="M132.131,-164.017C140.553,-165.894 149.232,-167.829 157.8,-169.739"/>
<polygon fill="midnightblue" stroke="midnightblue" points="157.262,-173.205 167.784,-171.964 158.785,-166.372 157.262,-173.205"/>
</g>
<!-- Node6 -->
<g id="node6" class="node"><title>Node6</title>
<g id="a_node6"><a xlink:href="classscram_1_1core_1_1Preprocessor.xhtml#a4b29173b8f6d18031d7a8cacbac15ce1" target="_top" xlink:title="Manipulates gates with distributive arguments. ">
<polygon fill="white" stroke="black" points="168,-98.5 168,-128.5 300,-128.5 300,-98.5 168,-98.5"/>
<text text-anchor="start" x="176" y="-116.5" font-family="Helvetica,sans-Serif" font-size="10.00">scram::core::Preprocessor</text>
<text text-anchor="middle" x="234" y="-105.5" font-family="Helvetica,sans-Serif" font-size="10.00">::HandleDistributiveArgs</text>
</a>
</g>
</g>
<!-- Node1&#45;&gt;Node6 -->
<g id="edge6" class="edge"><title>Node1&#45;&gt;Node6</title>
<path fill="none" stroke="midnightblue" d="M132.131,-135.375C140.553,-133.549 149.232,-131.666 157.8,-129.808"/>
<polygon fill="midnightblue" stroke="midnightblue" points="158.753,-133.183 167.784,-127.643 157.27,-126.342 158.753,-133.183"/>
</g>
<!-- Node3 -->
<g id="node3" class="node"><title>Node3</title>
<g id="a_node3"><a xlink:href="classscram_1_1core_1_1Preprocessor.xhtml#ae483f228040c0d2422792c9cf0d05886" target="_top" xlink:title="Clears all NULL type gates registered for removal by algorithms or other preprocessing functions...">
<polygon fill="white" stroke="black" points="338.5,-196.5 338.5,-226.5 470.5,-226.5 470.5,-196.5 338.5,-196.5"/>
<text text-anchor="start" x="346.5" y="-214.5" font-family="Helvetica,sans-Serif" font-size="10.00">scram::core::Preprocessor</text>
<text text-anchor="middle" x="404.5" y="-203.5" font-family="Helvetica,sans-Serif" font-size="10.00">::ClearNullGates</text>
</a>
</g>
</g>
<!-- Node2&#45;&gt;Node3 -->
<g id="edge2" class="edge"><title>Node2&#45;&gt;Node3</title>
<path fill="none" stroke="midnightblue" d="M300.146,-196.166C309.328,-197.528 318.829,-198.937 328.181,-200.325"/>
<polygon fill="midnightblue" stroke="midnightblue" points="327.844,-203.813 338.249,-201.819 328.871,-196.889 327.844,-203.813"/>
</g>
<!-- Node4 -->
<g id="node4" class="node"><title>Node4</title>
<g id="a_node4"><a xlink:href="classscram_1_1core_1_1Preprocessor.xhtml#a860e7142f3e0b33ca799f1d8218eb091" target="_top" xlink:title="Propagate NULL type gates bottom&#45;up. ">
<polygon fill="white" stroke="black" points="509,-196.5 509,-226.5 641,-226.5 641,-196.5 509,-196.5"/>
<text text-anchor="start" x="517" y="-214.5" font-family="Helvetica,sans-Serif" font-size="10.00">scram::core::Preprocessor</text>
<text text-anchor="middle" x="575" y="-203.5" font-family="Helvetica,sans-Serif" font-size="10.00">::PropagateNullGate</text>
</a>
</g>
</g>
<!-- Node3&#45;&gt;Node4 -->
<g id="edge3" class="edge"><title>Node3&#45;&gt;Node4</title>
<path fill="none" stroke="midnightblue" d="M470.646,-211.5C479.828,-211.5 489.329,-211.5 498.681,-211.5"/>
<polygon fill="midnightblue" stroke="midnightblue" points="498.749,-215 508.749,-211.5 498.749,-208 498.749,-215"/>
</g>
<!-- Node5 -->
<g id="node5" class="node"><title>Node5</title>
<g id="a_node5"><a xlink:href="classscram_1_1core_1_1Preprocessor.xhtml#a4931fe17580d91b31d8c2077f64dc728" target="_top" xlink:title="Propagates a Boolean constant bottom&#45;up. ">
<polygon fill="white" stroke="black" points="677,-196.5 677,-226.5 809,-226.5 809,-196.5 677,-196.5"/>
<text text-anchor="start" x="685" y="-214.5" font-family="Helvetica,sans-Serif" font-size="10.00">scram::core::Preprocessor</text>
<text text-anchor="middle" x="743" y="-203.5" font-family="Helvetica,sans-Serif" font-size="10.00">::PropagateConstant</text>
</a>
</g>
</g>
<!-- Node4&#45;&gt;Node5 -->
<g id="edge4" class="edge"><title>Node4&#45;&gt;Node5</title>
<path fill="none" stroke="midnightblue" d="M641.131,-204.891C649.461,-204.758 658.044,-204.719 666.521,-204.775"/>
<polygon fill="midnightblue" stroke="midnightblue" points="666.746,-208.277 676.784,-204.89 666.824,-201.278 666.746,-208.277"/>
</g>
<!-- Node5&#45;&gt;Node4 -->
<g id="edge5" class="edge"><title>Node5&#45;&gt;Node4</title>
<path fill="none" stroke="midnightblue" d="M676.784,-218.11C668.452,-218.243 659.869,-218.281 651.393,-218.225"/>
<polygon fill="midnightblue" stroke="midnightblue" points="651.17,-214.722 641.131,-218.109 651.091,-221.722 651.17,-214.722"/>
</g>
<!-- Node7 -->
<g id="node7" class="node"><title>Node7</title>
<g id="a_node7"><a xlink:href="classscram_1_1core_1_1Preprocessor.xhtml#a29d3775965ee487d000591739fdbaa4b" target="_top" xlink:title="Detects relationships between the gate and its distributive arguments to remove unnecessary candidate...">
<polygon fill="white" stroke="black" points="338.5,-147.5 338.5,-177.5 470.5,-177.5 470.5,-147.5 338.5,-147.5"/>
<text text-anchor="start" x="346.5" y="-165.5" font-family="Helvetica,sans-Serif" font-size="10.00">scram::core::Preprocessor</text>
<text text-anchor="middle" x="404.5" y="-154.5" font-family="Helvetica,sans-Serif" font-size="10.00">::FilterDistributiveArgs</text>
</a>
</g>
</g>
<!-- Node6&#45;&gt;Node7 -->
<g id="edge7" class="edge"><title>Node6&#45;&gt;Node7</title>
<path fill="none" stroke="midnightblue" d="M286.93,-128.601C304.309,-133.655 323.85,-139.338 341.894,-144.585"/>
<polygon fill="midnightblue" stroke="midnightblue" points="341.161,-148.017 351.741,-147.448 343.116,-141.295 341.161,-148.017"/>
</g>
<!-- Node8 -->
<g id="node8" class="node"><title>Node8</title>
<g id="a_node8"><a xlink:href="classscram_1_1core_1_1Preprocessor.xhtml#af9b5fba2247a02afe6cf480a405b6ca0" target="_top" xlink:title="Finds intersections of common arguments of gates. ">
<polygon fill="white" stroke="black" points="338.5,-98.5 338.5,-128.5 470.5,-128.5 470.5,-98.5 338.5,-98.5"/>
<text text-anchor="start" x="346.5" y="-116.5" font-family="Helvetica,sans-Serif" font-size="10.00">scram::core::Preprocessor</text>
<text text-anchor="middle" x="404.5" y="-105.5" font-family="Helvetica,sans-Serif" font-size="10.00">::GroupCommonParents</text>
</a>
</g>
</g>
<!-- Node6&#45;&gt;Node8 -->
<g id="edge8" class="edge"><title>Node6&#45;&gt;Node8</title>
<path fill="none" stroke="midnightblue" d="M300.146,-113.5C309.328,-113.5 318.829,-113.5 328.181,-113.5"/>
<polygon fill="midnightblue" stroke="midnightblue" points="328.249,-117 338.249,-113.5 328.249,-110 328.249,-117"/>
</g>
<!-- Node9 -->
<g id="node9" class="node"><title>Node9</title>
<g id="a_node9"><a xlink:href="classscram_1_1core_1_1Preprocessor.xhtml#a51340a3bcfa9785e430bab27ee08bbbf" target="_top" xlink:title="Groups distributive gate arguments for future factorization. ">
<polygon fill="white" stroke="black" points="338.5,-49.5 338.5,-79.5 470.5,-79.5 470.5,-49.5 338.5,-49.5"/>
<text text-anchor="start" x="346.5" y="-67.5" font-family="Helvetica,sans-Serif" font-size="10.00">scram::core::Preprocessor</text>
<text text-anchor="middle" x="404.5" y="-56.5" font-family="Helvetica,sans-Serif" font-size="10.00">::GroupDistributiveArgs</text>
</a>
</g>
</g>
<!-- Node6&#45;&gt;Node9 -->
<g id="edge9" class="edge"><title>Node6&#45;&gt;Node9</title>
<path fill="none" stroke="midnightblue" d="M286.93,-98.3986C304.309,-93.3449 323.85,-87.6624 341.894,-82.4152"/>
<polygon fill="midnightblue" stroke="midnightblue" points="343.116,-85.7048 351.741,-79.5516 341.161,-78.9832 343.116,-85.7048"/>
</g>
<!-- Node12 -->
<g id="node12" class="node"><title>Node12</title>
<g id="a_node12"><a xlink:href="classscram_1_1core_1_1Preprocessor.xhtml#a2557ab80c04d7f91372992edfbedd93a" target="_top" xlink:title="Transforms distributive of arguments gates into a new subgraph. ">
<polygon fill="white" stroke="black" points="336,-0.5 336,-30.5 473,-30.5 473,-0.5 336,-0.5"/>
<text text-anchor="start" x="344" y="-18.5" font-family="Helvetica,sans-Serif" font-size="10.00">scram::core::Preprocessor</text>
<text text-anchor="middle" x="404.5" y="-7.5" font-family="Helvetica,sans-Serif" font-size="10.00">::TransformDistributiveArgs</text>
</a>
</g>
</g>
<!-- Node6&#45;&gt;Node12 -->
<g id="edge12" class="edge"><title>Node6&#45;&gt;Node12</title>
<path fill="none" stroke="midnightblue" d="M252.629,-98.4657C272.051,-82.4676 304.698,-57.2074 336,-40.5 339.952,-38.3908 344.12,-36.3822 348.367,-34.4873"/>
<polygon fill="midnightblue" stroke="midnightblue" points="349.889,-37.644 357.736,-30.5258 347.162,-31.1966 349.889,-37.644"/>
</g>
<!-- Node10 -->
<g id="node10" class="node"><title>Node10</title>
<g id="a_node10"><a xlink:href="classscram_1_1core_1_1Preprocessor.xhtml#a3c51e098f0ff45be068f68296323f45f" target="_top" xlink:title="Finds an optimal way of grouping options. ">
<polygon fill="white" stroke="black" points="509,-49.5 509,-79.5 641,-79.5 641,-49.5 509,-49.5"/>
<text text-anchor="start" x="517" y="-67.5" font-family="Helvetica,sans-Serif" font-size="10.00">scram::core::Preprocessor</text>
<text text-anchor="middle" x="575" y="-56.5" font-family="Helvetica,sans-Serif" font-size="10.00">::FindOptionGroup</text>
</a>
</g>
</g>
<!-- Node9&#45;&gt;Node10 -->
<g id="edge10" class="edge"><title>Node9&#45;&gt;Node10</title>
<path fill="none" stroke="midnightblue" d="M470.646,-64.5C479.828,-64.5 489.329,-64.5 498.681,-64.5"/>
<polygon fill="midnightblue" stroke="midnightblue" points="498.749,-68.0001 508.749,-64.5 498.749,-61.0001 498.749,-68.0001"/>
</g>
<!-- Node11 -->
<g id="node11" class="node"><title>Node11</title>
<g id="a_node11"><a xlink:href="classscram_1_1core_1_1Preprocessor.xhtml#adbaee2a993e0538280dc437d0a3b849f" target="_top" xlink:title="Finds the starting option for group formation. ">
<polygon fill="white" stroke="black" points="677,-49.5 677,-79.5 809,-79.5 809,-49.5 677,-49.5"/>
<text text-anchor="start" x="685" y="-67.5" font-family="Helvetica,sans-Serif" font-size="10.00">scram::core::Preprocessor</text>
<text text-anchor="middle" x="743" y="-56.5" font-family="Helvetica,sans-Serif" font-size="10.00">::FindBaseOption</text>
</a>
</g>
</g>
<!-- Node10&#45;&gt;Node11 -->
<g id="edge11" class="edge"><title>Node10&#45;&gt;Node11</title>
<path fill="none" stroke="midnightblue" d="M641.131,-64.5C649.461,-64.5 658.044,-64.5 666.521,-64.5"/>
<polygon fill="midnightblue" stroke="midnightblue" points="666.784,-68.0001 676.784,-64.5 666.784,-61.0001 666.784,-68.0001"/>
</g>
</g>
</svg>
