<?xml version="1.0" encoding="UTF-8" standalone="no"?>
<!DOCTYPE svg PUBLIC "-//W3C//DTD SVG 1.1//EN"
 "http://www.w3.org/Graphics/SVG/1.1/DTD/svg11.dtd">
<!-- Generated by graphviz version 2.38.0 (20140413.2041)
 -->
<!-- Title: scram::core::Settings::algorithm Pages: 1 -->
<svg width="652pt" height="127pt"
 viewBox="0.00 0.00 652.00 126.50" xmlns="http://www.w3.org/2000/svg" xmlns:xlink="http://www.w3.org/1999/xlink">
<g id="graph0" class="graph" transform="scale(1 1) rotate(0) translate(4 122.5)">
<title>scram::core::Settings::algorithm</title>
<polygon fill="white" stroke="none" points="-4,4 -4,-122.5 648,-122.5 648,4 -4,4"/>
<!-- Node1 -->
<g id="node1" class="node"><title>Node1</title>
<polygon fill="#bfbfbf" stroke="black" points="0,-39 0,-69 110,-69 110,-39 0,-39"/>
<text text-anchor="start" x="8" y="-57" font-family="Helvetica,sans-Serif" font-size="10.00">scram::core::Settings</text>
<text text-anchor="middle" x="55" y="-46" font-family="Helvetica,sans-Serif" font-size="10.00">::algorithm</text>
</g>
<!-- Node2 -->
<g id="node2" class="node"><title>Node2</title>
<g id="a_node2"><a xlink:href="classscram_1_1core_1_1Settings.xhtml#ad7b46344a4e25e34fa76bc9971f97eb9" target="_top" xlink:title="Sets the algorithm for Qualitative analysis. ">
<polygon fill="white" stroke="black" points="157,-88 157,-118 267,-118 267,-88 157,-88"/>
<text text-anchor="start" x="165" y="-106" font-family="Helvetica,sans-Serif" font-size="10.00">scram::core::Settings</text>
<text text-anchor="middle" x="212" y="-95" font-family="Helvetica,sans-Serif" font-size="10.00">::algorithm</text>
</a>
</g>
</g>
<!-- Node1&#45;&gt;Node2 -->
<g id="edge1" class="edge"><title>Node1&#45;&gt;Node2</title>
<path fill="none" stroke="midnightblue" d="M113.758,-72.2591C130.107,-77.4273 147.711,-82.9924 163.388,-87.9484"/>
<polygon fill="midnightblue" stroke="midnightblue" points="114.36,-68.7785 103.77,-69.1014 112.25,-75.453 114.36,-68.7785"/>
</g>
<!-- Node3 -->
<g id="node3" class="node"><title>Node3</title>
<g id="a_node3"><a xlink:href="classscram_1_1core_1_1RiskAnalysis.xhtml#a7aed757ac5a7a96878c2706a7a9710bb" target="_top" xlink:title="Analyzes the model and performs computations specified in the settings. ">
<polygon fill="white" stroke="black" points="146,-39 146,-69 278,-69 278,-39 146,-39"/>
<text text-anchor="start" x="154" y="-57" font-family="Helvetica,sans-Serif" font-size="10.00">scram::core::RiskAnalysis</text>
<text text-anchor="middle" x="212" y="-46" font-family="Helvetica,sans-Serif" font-size="10.00">::Analyze</text>
</a>
</g>
</g>
<!-- Node1&#45;&gt;Node3 -->
<g id="edge2" class="edge"><title>Node1&#45;&gt;Node3</title>
<path fill="none" stroke="midnightblue" d="M120.366,-54C128.802,-54 137.45,-54 145.898,-54"/>
<polygon fill="midnightblue" stroke="midnightblue" points="120.212,-50.5001 110.211,-54 120.211,-57.5001 120.212,-50.5001"/>
</g>
<!-- Node6 -->
<g id="node6" class="node"><title>Node6</title>
<g id="a_node6"><a xlink:href="classscram_1_1Config.xhtml#ab0d7940fbb627fab9867821e133eab5d" target="_top" xlink:title="A constructor with configurations for analysis. ">
<polygon fill="white" stroke="black" points="155.5,-0.5 155.5,-19.5 268.5,-19.5 268.5,-0.5 155.5,-0.5"/>
<text text-anchor="middle" x="212" y="-7.5" font-family="Helvetica,sans-Serif" font-size="10.00">scram::Config::Config</text>
</a>
</g>
</g>
<!-- Node1&#45;&gt;Node6 -->
<g id="edge5" class="edge"><title>Node1&#45;&gt;Node6</title>
<path fill="none" stroke="midnightblue" d="M118.615,-36.2255C138.662,-30.5346 160.091,-24.4516 177.258,-19.5783"/>
<polygon fill="midnightblue" stroke="midnightblue" points="117.573,-32.8829 108.909,-38.9808 119.484,-39.6168 117.573,-32.8829"/>
</g>
<!-- Node4 -->
<g id="node4" class="node"><title>Node4</title>
<g id="a_node4"><a xlink:href="classscram_1_1core_1_1RiskAnalysis.xhtml#a337f7e9fe02b1581e872590d6f7baa01" target="_top" xlink:title="scram::core::RiskAnalysis\l::model">
<polygon fill="white" stroke="black" points="314,-39 314,-69 446,-69 446,-39 314,-39"/>
<text text-anchor="start" x="322" y="-57" font-family="Helvetica,sans-Serif" font-size="10.00">scram::core::RiskAnalysis</text>
<text text-anchor="middle" x="380" y="-46" font-family="Helvetica,sans-Serif" font-size="10.00">::model</text>
</a>
</g>
</g>
<!-- Node3&#45;&gt;Node4 -->
<g id="edge3" class="edge"><title>Node3&#45;&gt;Node4</title>
<path fill="none" stroke="midnightblue" d="M288.393,-54C296.869,-54 305.452,-54 313.784,-54"/>
<polygon fill="midnightblue" stroke="midnightblue" points="288.131,-50.5001 278.131,-54 288.131,-57.5001 288.131,-50.5001"/>
</g>
<!-- Node5 -->
<g id="node5" class="node"><title>Node5</title>
<g id="a_node5"><a xlink:href="reporter_8cc.xhtml#ad6460094a94fb73e56c2a4a5efc598ed" target="_top" xlink:title="Describes all performed analyses deduced from settings. ">
<polygon fill="white" stroke="black" points="482,-39 482,-69 644,-69 644,-39 482,-39"/>
<text text-anchor="start" x="490" y="-57" font-family="Helvetica,sans-Serif" font-size="10.00">scram::ReportCalculatedQuantity</text>
<text text-anchor="middle" x="563" y="-46" font-family="Helvetica,sans-Serif" font-size="10.00">&lt; core::RiskAnalysis &gt;</text>
</a>
</g>
</g>
<!-- Node4&#45;&gt;Node5 -->
<g id="edge4" class="edge"><title>Node4&#45;&gt;Node5</title>
<path fill="none" stroke="midnightblue" d="M456.239,-54C464.65,-54 473.243,-54 481.714,-54"/>
<polygon fill="midnightblue" stroke="midnightblue" points="456.089,-50.5001 446.089,-54 456.089,-57.5001 456.089,-50.5001"/>
</g>
</g>
</svg>
