<?xml version="1.0" encoding="UTF-8" standalone="no"?>
<!DOCTYPE svg PUBLIC "-//W3C//DTD SVG 1.1//EN"
 "http://www.w3.org/Graphics/SVG/1.1/DTD/svg11.dtd">
<!-- Generated by graphviz version 2.38.0 (20140413.2041)
 -->
<!-- Title: scram::mef::HouseEvent Pages: 1 -->
<svg width="414pt" height="491pt"
 viewBox="0.00 0.00 413.50 491.00" xmlns="http://www.w3.org/2000/svg" xmlns:xlink="http://www.w3.org/1999/xlink">
<g id="graph0" class="graph" transform="scale(1 1) rotate(0) translate(4 487)">
<title>scram::mef::HouseEvent</title>
<polygon fill="white" stroke="none" points="-4,4 -4,-487 409.5,-487 409.5,4 -4,4"/>
<!-- Node1 -->
<g id="node1" class="node"><title>Node1</title>
<polygon fill="#bfbfbf" stroke="black" points="161,-0.5 161,-68.5 287,-68.5 287,-0.5 161,-0.5"/>
<text text-anchor="middle" x="224" y="-56.5" font-family="Helvetica,sans-Serif" font-size="10.00">scram::mef::HouseEvent</text>
<polyline fill="none" stroke="black" points="161,-49.5 287,-49.5 "/>
<text text-anchor="middle" x="224" y="-37.5" font-family="Helvetica,sans-Serif" font-size="10.00"> </text>
<polyline fill="none" stroke="black" points="161,-30.5 287,-30.5 "/>
<text text-anchor="start" x="169" y="-18.5" font-family="Helvetica,sans-Serif" font-size="10.00">+ state()</text>
<text text-anchor="start" x="169" y="-7.5" font-family="Helvetica,sans-Serif" font-size="10.00">+ state()</text>
</g>
<!-- Node2 -->
<g id="node2" class="node"><title>Node2</title>
<g id="a_node2"><a xlink:href="classscram_1_1mef_1_1PrimaryEvent.xhtml" target="_top" xlink:title="This is an abstract base class for events that can cause failures. ">
<polygon fill="white" stroke="black" points="158.5,-105.5 158.5,-184.5 289.5,-184.5 289.5,-105.5 158.5,-105.5"/>
<text text-anchor="middle" x="224" y="-172.5" font-family="Helvetica,sans-Serif" font-size="10.00">scram::mef::PrimaryEvent</text>
<polyline fill="none" stroke="black" points="158.5,-165.5 289.5,-165.5 "/>
<text text-anchor="middle" x="224" y="-153.5" font-family="Helvetica,sans-Serif" font-size="10.00"> </text>
<polyline fill="none" stroke="black" points="158.5,-146.5 289.5,-146.5 "/>
<text text-anchor="start" x="166.5" y="-134.5" font-family="Helvetica,sans-Serif" font-size="10.00">+ ~PrimaryEvent()</text>
<text text-anchor="start" x="166.5" y="-123.5" font-family="Helvetica,sans-Serif" font-size="10.00">+ has_expression()</text>
<text text-anchor="start" x="166.5" y="-112.5" font-family="Helvetica,sans-Serif" font-size="10.00"># has_expression()</text>
</a>
</g>
</g>
<!-- Node2&#45;&gt;Node1 -->
<g id="edge1" class="edge"><title>Node2&#45;&gt;Node1</title>
<path fill="none" stroke="midnightblue" d="M224,-95.3492C224,-86.2824 224,-77.0048 224,-68.5439"/>
<polygon fill="none" stroke="midnightblue" points="220.5,-95.4414 224,-105.441 227.5,-95.4415 220.5,-95.4414"/>
</g>
<!-- Node3 -->
<g id="node3" class="node"><title>Node3</title>
<g id="a_node3"><a xlink:href="classscram_1_1mef_1_1Event.xhtml" target="_top" xlink:title="Abstract base class for general fault tree events. ">
<polygon fill="white" stroke="black" points="175,-221.5 175,-311.5 273,-311.5 273,-221.5 175,-221.5"/>
<text text-anchor="middle" x="224" y="-299.5" font-family="Helvetica,sans-Serif" font-size="10.00">scram::mef::Event</text>
<polyline fill="none" stroke="black" points="175,-292.5 273,-292.5 "/>
<text text-anchor="middle" x="224" y="-280.5" font-family="Helvetica,sans-Serif" font-size="10.00"> </text>
<polyline fill="none" stroke="black" points="175,-273.5 273,-273.5 "/>
<text text-anchor="start" x="183" y="-261.5" font-family="Helvetica,sans-Serif" font-size="10.00">+ Event()</text>
<text text-anchor="start" x="183" y="-250.5" font-family="Helvetica,sans-Serif" font-size="10.00">+ ~Event()</text>
<text text-anchor="start" x="183" y="-239.5" font-family="Helvetica,sans-Serif" font-size="10.00">+ orphan()</text>
<text text-anchor="start" x="183" y="-228.5" font-family="Helvetica,sans-Serif" font-size="10.00">+ orphan()</text>
</a>
</g>
</g>
<!-- Node3&#45;&gt;Node2 -->
<g id="edge2" class="edge"><title>Node3&#45;&gt;Node2</title>
<path fill="none" stroke="midnightblue" d="M224,-211.079C224,-202.234 224,-193.233 224,-184.858"/>
<polygon fill="none" stroke="midnightblue" points="220.5,-211.342 224,-221.342 227.5,-211.342 220.5,-211.342"/>
</g>
<!-- Node4 -->
<g id="node4" class="node"><title>Node4</title>
<g id="a_node4"><a xlink:href="classscram_1_1mef_1_1Element.xhtml" target="_top" xlink:title="Mixin class that represents any element of analysis that can have extra descriptions, such as attributes and a label. ">
<polygon fill="white" stroke="black" points="0,-348.5 0,-482.5 108,-482.5 108,-348.5 0,-348.5"/>
<text text-anchor="middle" x="54" y="-470.5" font-family="Helvetica,sans-Serif" font-size="10.00">scram::mef::Element</text>
<polyline fill="none" stroke="black" points="0,-463.5 108,-463.5 "/>
<text text-anchor="middle" x="54" y="-451.5" font-family="Helvetica,sans-Serif" font-size="10.00"> </text>
<polyline fill="none" stroke="black" points="0,-444.5 108,-444.5 "/>
<text text-anchor="start" x="8" y="-432.5" font-family="Helvetica,sans-Serif" font-size="10.00">+ Element()</text>
<text text-anchor="start" x="8" y="-421.5" font-family="Helvetica,sans-Serif" font-size="10.00">+ name()</text>
<text text-anchor="start" x="8" y="-410.5" font-family="Helvetica,sans-Serif" font-size="10.00">+ label()</text>
<text text-anchor="start" x="8" y="-399.5" font-family="Helvetica,sans-Serif" font-size="10.00">+ label()</text>
<text text-anchor="start" x="8" y="-388.5" font-family="Helvetica,sans-Serif" font-size="10.00">+ AddAttribute()</text>
<text text-anchor="start" x="8" y="-377.5" font-family="Helvetica,sans-Serif" font-size="10.00">+ HasAttribute()</text>
<text text-anchor="start" x="8" y="-366.5" font-family="Helvetica,sans-Serif" font-size="10.00">+ GetAttribute()</text>
<text text-anchor="start" x="8" y="-355.5" font-family="Helvetica,sans-Serif" font-size="10.00"># ~Element()</text>
</a>
</g>
</g>
<!-- Node4&#45;&gt;Node3 -->
<g id="edge3" class="edge"><title>Node4&#45;&gt;Node3</title>
<path fill="none" stroke="midnightblue" d="M115.608,-349.249C116.073,-348.83 116.537,-348.414 117,-348 135.123,-331.823 156.28,-315.44 174.974,-301.714"/>
<polygon fill="none" stroke="midnightblue" points="113.018,-346.878 108.07,-356.246 117.78,-352.009 113.018,-346.878"/>
</g>
<!-- Node5 -->
<g id="node5" class="node"><title>Node5</title>
<g id="a_node5"><a xlink:href="classscram_1_1mef_1_1Role.xhtml" target="_top" xlink:title="Mixin class that manages private or public roles for elements as needed. ">
<polygon fill="white" stroke="black" points="126,-370.5 126,-460.5 218,-460.5 218,-370.5 126,-370.5"/>
<text text-anchor="middle" x="172" y="-448.5" font-family="Helvetica,sans-Serif" font-size="10.00">scram::mef::Role</text>
<polyline fill="none" stroke="black" points="126,-441.5 218,-441.5 "/>
<text text-anchor="middle" x="172" y="-429.5" font-family="Helvetica,sans-Serif" font-size="10.00"> </text>
<polyline fill="none" stroke="black" points="126,-422.5 218,-422.5 "/>
<text text-anchor="start" x="134" y="-410.5" font-family="Helvetica,sans-Serif" font-size="10.00">+ Role()</text>
<text text-anchor="start" x="134" y="-399.5" font-family="Helvetica,sans-Serif" font-size="10.00">+ role()</text>
<text text-anchor="start" x="134" y="-388.5" font-family="Helvetica,sans-Serif" font-size="10.00">+ base_path()</text>
<text text-anchor="start" x="134" y="-377.5" font-family="Helvetica,sans-Serif" font-size="10.00"># ~Role()</text>
</a>
</g>
</g>
<!-- Node5&#45;&gt;Node3 -->
<g id="edge4" class="edge"><title>Node5&#45;&gt;Node3</title>
<path fill="none" stroke="midnightblue" d="M191.079,-360.566C196.78,-344.449 202.96,-326.979 208.409,-311.574"/>
<polygon fill="none" stroke="midnightblue" points="187.637,-359.8 187.602,-370.395 194.236,-362.135 187.637,-359.8"/>
</g>
<!-- Node6 -->
<g id="node6" class="node"><title>Node6</title>
<g id="a_node6"><a xlink:href="classscram_1_1mef_1_1Id.xhtml" target="_top" xlink:title="Mixin class for assigning unique identifiers to elements. ">
<polygon fill="white" stroke="black" points="236,-376 236,-455 316,-455 316,-376 236,-376"/>
<text text-anchor="middle" x="276" y="-443" font-family="Helvetica,sans-Serif" font-size="10.00">scram::mef::Id</text>
<polyline fill="none" stroke="black" points="236,-436 316,-436 "/>
<text text-anchor="middle" x="276" y="-424" font-family="Helvetica,sans-Serif" font-size="10.00"> </text>
<polyline fill="none" stroke="black" points="236,-417 316,-417 "/>
<text text-anchor="start" x="244" y="-405" font-family="Helvetica,sans-Serif" font-size="10.00">+ Id()</text>
<text text-anchor="start" x="244" y="-394" font-family="Helvetica,sans-Serif" font-size="10.00">+ id()</text>
<text text-anchor="start" x="244" y="-383" font-family="Helvetica,sans-Serif" font-size="10.00"># ~Id()</text>
</a>
</g>
</g>
<!-- Node6&#45;&gt;Node3 -->
<g id="edge5" class="edge"><title>Node6&#45;&gt;Node3</title>
<path fill="none" stroke="midnightblue" d="M258.963,-366.337C252.724,-348.699 245.7,-328.843 239.593,-311.58"/>
<polygon fill="none" stroke="midnightblue" points="255.703,-367.617 262.338,-375.877 262.302,-365.283 255.703,-367.617"/>
</g>
<!-- Node7 -->
<g id="node7" class="node"><title>Node7</title>
<polygon fill="white" stroke="#bfbfbf" points="334.5,-387 334.5,-444 405.5,-444 405.5,-387 334.5,-387"/>
<text text-anchor="middle" x="370" y="-432" font-family="Helvetica,sans-Serif" font-size="10.00">noncopyable</text>
<polyline fill="none" stroke="#bfbfbf" points="334.5,-425 405.5,-425 "/>
<text text-anchor="middle" x="370" y="-413" font-family="Helvetica,sans-Serif" font-size="10.00"> </text>
<polyline fill="none" stroke="#bfbfbf" points="334.5,-406 405.5,-406 "/>
<text text-anchor="middle" x="370" y="-394" font-family="Helvetica,sans-Serif" font-size="10.00"> </text>
</g>
<!-- Node7&#45;&gt;Node3 -->
<g id="edge6" class="edge"><title>Node7&#45;&gt;Node3</title>
<path fill="none" stroke="#8b1a1a" d="M348.484,-378.443C341.581,-368.126 333.504,-357.195 325,-348 309.547,-331.291 290.47,-315.178 273.073,-301.814"/>
<polygon fill="none" stroke="#8b1a1a" points="345.606,-380.436 353.99,-386.913 351.475,-376.621 345.606,-380.436"/>
</g>
</g>
</svg>
