<?xml version="1.0" encoding="UTF-8" standalone="no"?>
<!DOCTYPE svg PUBLIC "-//W3C//DTD SVG 1.1//EN"
 "http://www.w3.org/Graphics/SVG/1.1/DTD/svg11.dtd">
<!-- Generated by graphviz version 2.38.0 (20140413.2041)
 -->
<!-- Title: scram::core::SetNode Pages: 1 -->
<svg width="284pt" height="928pt"
 viewBox="0.00 0.00 283.50 928.00" xmlns="http://www.w3.org/2000/svg" xmlns:xlink="http://www.w3.org/1999/xlink">
<g id="graph0" class="graph" transform="scale(1 1) rotate(0) translate(4 924)">
<title>scram::core::SetNode</title>
<polygon fill="white" stroke="none" points="-4,4 -4,-924 279.5,-924 279.5,4 -4,4"/>
<!-- Node1 -->
<g id="node1" class="node"><title>Node1</title>
<polygon fill="#bfbfbf" stroke="black" points="39,-0.5 39,-145.5 152,-145.5 152,-0.5 39,-0.5"/>
<text text-anchor="middle" x="95.5" y="-133.5" font-family="Helvetica,sans-Serif" font-size="10.00">scram::core::SetNode</text>
<polyline fill="none" stroke="black" points="39,-126.5 152,-126.5 "/>
<text text-anchor="middle" x="95.5" y="-114.5" font-family="Helvetica,sans-Serif" font-size="10.00"> </text>
<polyline fill="none" stroke="black" points="39,-107.5 152,-107.5 "/>
<text text-anchor="start" x="47" y="-95.5" font-family="Helvetica,sans-Serif" font-size="10.00">+ minimal()</text>
<text text-anchor="start" x="47" y="-84.5" font-family="Helvetica,sans-Serif" font-size="10.00">+ minimal()</text>
<text text-anchor="start" x="47" y="-73.5" font-family="Helvetica,sans-Serif" font-size="10.00">+ max_set_order()</text>
<text text-anchor="start" x="47" y="-62.5" font-family="Helvetica,sans-Serif" font-size="10.00">+ max_set_order()</text>
<text text-anchor="start" x="47" y="-51.5" font-family="Helvetica,sans-Serif" font-size="10.00">+ count()</text>
<text text-anchor="start" x="47" y="-40.5" font-family="Helvetica,sans-Serif" font-size="10.00">+ count()</text>
<text text-anchor="start" x="47" y="-29.5" font-family="Helvetica,sans-Serif" font-size="10.00">+ products()</text>
<text text-anchor="start" x="47" y="-18.5" font-family="Helvetica,sans-Serif" font-size="10.00">+ products()</text>
<text text-anchor="start" x="47" y="-7.5" font-family="Helvetica,sans-Serif" font-size="10.00">+ Ptr()</text>
</g>
<!-- Node2 -->
<g id="node2" class="node"><title>Node2</title>
<g id="a_node2"><a xlink:href="classscram_1_1core_1_1NonTerminal.xhtml" target="_top" xlink:title="{scram::core::NonTerminal\l\&lt; SetNode \&gt;\n||+ NonTerminal()\l+ index()\l+ order()\l+ module()\l+ module()\l+ coherent()\l+ coherent()\l+ high()\l+ low()\l+ mark()\l+ mark()\l# ~NonTerminal()\l# CutBranches()\l* get_high_id\l* get_low_id\l}">
<polygon fill="white" stroke="black" points="30.5,-183.5 30.5,-405.5 160.5,-405.5 160.5,-183.5 30.5,-183.5"/>
<text text-anchor="start" x="38.5" y="-393.5" font-family="Helvetica,sans-Serif" font-size="10.00">scram::core::NonTerminal</text>
<text text-anchor="middle" x="95.5" y="-382.5" font-family="Helvetica,sans-Serif" font-size="10.00">&lt; SetNode &gt;</text>
<polyline fill="none" stroke="black" points="30.5,-375.5 160.5,-375.5 "/>
<text text-anchor="middle" x="95.5" y="-363.5" font-family="Helvetica,sans-Serif" font-size="10.00"> </text>
<polyline fill="none" stroke="black" points="30.5,-356.5 160.5,-356.5 "/>
<text text-anchor="start" x="38.5" y="-344.5" font-family="Helvetica,sans-Serif" font-size="10.00">+ NonTerminal()</text>
<text text-anchor="start" x="38.5" y="-333.5" font-family="Helvetica,sans-Serif" font-size="10.00">+ index()</text>
<text text-anchor="start" x="38.5" y="-322.5" font-family="Helvetica,sans-Serif" font-size="10.00">+ order()</text>
<text text-anchor="start" x="38.5" y="-311.5" font-family="Helvetica,sans-Serif" font-size="10.00">+ module()</text>
<text text-anchor="start" x="38.5" y="-300.5" font-family="Helvetica,sans-Serif" font-size="10.00">+ module()</text>
<text text-anchor="start" x="38.5" y="-289.5" font-family="Helvetica,sans-Serif" font-size="10.00">+ coherent()</text>
<text text-anchor="start" x="38.5" y="-278.5" font-family="Helvetica,sans-Serif" font-size="10.00">+ coherent()</text>
<text text-anchor="start" x="38.5" y="-267.5" font-family="Helvetica,sans-Serif" font-size="10.00">+ high()</text>
<text text-anchor="start" x="38.5" y="-256.5" font-family="Helvetica,sans-Serif" font-size="10.00">+ low()</text>
<text text-anchor="start" x="38.5" y="-245.5" font-family="Helvetica,sans-Serif" font-size="10.00">+ mark()</text>
<text text-anchor="start" x="38.5" y="-234.5" font-family="Helvetica,sans-Serif" font-size="10.00">+ mark()</text>
<text text-anchor="start" x="38.5" y="-223.5" font-family="Helvetica,sans-Serif" font-size="10.00"># ~NonTerminal()</text>
<text text-anchor="start" x="38.5" y="-212.5" font-family="Helvetica,sans-Serif" font-size="10.00"># CutBranches()</text>
<text text-anchor="start" x="38.5" y="-201.5" font-family="Helvetica,sans-Serif" font-size="10.00">* get_high_id</text>
<text text-anchor="start" x="38.5" y="-190.5" font-family="Helvetica,sans-Serif" font-size="10.00">* get_low_id</text>
</a>
</g>
</g>
<!-- Node2&#45;&gt;Node1 -->
<g id="edge1" class="edge"><title>Node2&#45;&gt;Node1</title>
<path fill="none" stroke="midnightblue" d="M95.5,-173.214C95.5,-163.826 95.5,-154.542 95.5,-145.64"/>
<polygon fill="none" stroke="midnightblue" points="92.0001,-173.428 95.5,-183.428 99.0001,-173.429 92.0001,-173.428"/>
</g>
<!-- Node3 -->
<g id="node3" class="node"><title>Node3</title>
<g id="a_node3"><a xlink:href="classscram_1_1core_1_1Vertex.xhtml" target="_top" xlink:title="{scram::core::Vertex\l\&lt; SetNode \&gt;\n||+ Vertex()\l+ id()\l+ terminal()\l+ use_count()\l+ unique()\l# ~Vertex()\l}">
<polygon fill="white" stroke="black" points="0,-497.5 0,-620.5 103,-620.5 103,-497.5 0,-497.5"/>
<text text-anchor="start" x="8" y="-608.5" font-family="Helvetica,sans-Serif" font-size="10.00">scram::core::Vertex</text>
<text text-anchor="middle" x="51.5" y="-597.5" font-family="Helvetica,sans-Serif" font-size="10.00">&lt; SetNode &gt;</text>
<polyline fill="none" stroke="black" points="0,-590.5 103,-590.5 "/>
<text text-anchor="middle" x="51.5" y="-578.5" font-family="Helvetica,sans-Serif" font-size="10.00"> </text>
<polyline fill="none" stroke="black" points="0,-571.5 103,-571.5 "/>
<text text-anchor="start" x="8" y="-559.5" font-family="Helvetica,sans-Serif" font-size="10.00">+ Vertex()</text>
<text text-anchor="start" x="8" y="-548.5" font-family="Helvetica,sans-Serif" font-size="10.00">+ id()</text>
<text text-anchor="start" x="8" y="-537.5" font-family="Helvetica,sans-Serif" font-size="10.00">+ terminal()</text>
<text text-anchor="start" x="8" y="-526.5" font-family="Helvetica,sans-Serif" font-size="10.00">+ use_count()</text>
<text text-anchor="start" x="8" y="-515.5" font-family="Helvetica,sans-Serif" font-size="10.00">+ unique()</text>
<text text-anchor="start" x="8" y="-504.5" font-family="Helvetica,sans-Serif" font-size="10.00"># ~Vertex()</text>
</a>
</g>
</g>
<!-- Node3&#45;&gt;Node2 -->
<g id="edge2" class="edge"><title>Node3&#45;&gt;Node2</title>
<path fill="none" stroke="midnightblue" d="M63.3498,-487.305C67.5557,-462.213 72.3954,-433.34 77.0218,-405.739"/>
<polygon fill="none" stroke="midnightblue" points="59.8511,-487.007 61.6497,-497.448 66.7548,-488.164 59.8511,-487.007"/>
</g>
<!-- Node4 -->
<g id="node4" class="node"><title>Node4</title>
<polygon fill="white" stroke="#bfbfbf" points="45,-862.5 45,-919.5 116,-919.5 116,-862.5 45,-862.5"/>
<text text-anchor="middle" x="80.5" y="-907.5" font-family="Helvetica,sans-Serif" font-size="10.00">noncopyable</text>
<polyline fill="none" stroke="#bfbfbf" points="45,-900.5 116,-900.5 "/>
<text text-anchor="middle" x="80.5" y="-888.5" font-family="Helvetica,sans-Serif" font-size="10.00"> </text>
<polyline fill="none" stroke="#bfbfbf" points="45,-881.5 116,-881.5 "/>
<text text-anchor="middle" x="80.5" y="-869.5" font-family="Helvetica,sans-Serif" font-size="10.00"> </text>
</g>
<!-- Node4&#45;&gt;Node3 -->
<g id="edge3" class="edge"><title>Node4&#45;&gt;Node3</title>
<path fill="none" stroke="#8b1a1a" d="M74.1449,-852.132C72.8012,-843.25 71.4916,-833.807 70.5,-825 62.6304,-755.101 57.3943,-674.442 54.4468,-620.646"/>
<polygon fill="none" stroke="#8b1a1a" points="70.7208,-852.89 75.7209,-862.231 77.6371,-851.811 70.7208,-852.89"/>
</g>
<!-- Node5 -->
<g id="node5" class="node"><title>Node5</title>
<g id="a_node5"><a xlink:href="classscram_1_1core_1_1Vertex.xhtml" target="_top" xlink:title="Representation of a vertex in BDD graphs. ">
<polygon fill="white" stroke="black" points="80,-712.5 80,-824.5 207,-824.5 207,-712.5 80,-712.5"/>
<text text-anchor="middle" x="143.5" y="-812.5" font-family="Helvetica,sans-Serif" font-size="10.00">scram::core::Vertex&lt; T &gt;</text>
<polyline fill="none" stroke="black" points="80,-805.5 207,-805.5 "/>
<text text-anchor="middle" x="143.5" y="-793.5" font-family="Helvetica,sans-Serif" font-size="10.00"> </text>
<polyline fill="none" stroke="black" points="80,-786.5 207,-786.5 "/>
<text text-anchor="start" x="88" y="-774.5" font-family="Helvetica,sans-Serif" font-size="10.00">+ Vertex()</text>
<text text-anchor="start" x="88" y="-763.5" font-family="Helvetica,sans-Serif" font-size="10.00">+ id()</text>
<text text-anchor="start" x="88" y="-752.5" font-family="Helvetica,sans-Serif" font-size="10.00">+ terminal()</text>
<text text-anchor="start" x="88" y="-741.5" font-family="Helvetica,sans-Serif" font-size="10.00">+ use_count()</text>
<text text-anchor="start" x="88" y="-730.5" font-family="Helvetica,sans-Serif" font-size="10.00">+ unique()</text>
<text text-anchor="start" x="88" y="-719.5" font-family="Helvetica,sans-Serif" font-size="10.00"># ~Vertex()</text>
</a>
</g>
</g>
<!-- Node4&#45;&gt;Node5 -->
<g id="edge5" class="edge"><title>Node4&#45;&gt;Node5</title>
<path fill="none" stroke="#8b1a1a" d="M99.7093,-853.258C104.447,-844.196 109.625,-834.292 114.709,-824.569"/>
<polygon fill="none" stroke="#8b1a1a" points="96.4851,-851.871 94.9535,-862.355 102.688,-855.115 96.4851,-851.871"/>
</g>
<!-- Node5&#45;&gt;Node3 -->
<g id="edge4" class="edge"><title>Node5&#45;&gt;Node3</title>
<path fill="none" stroke="orange" d="M107.805,-703.004C106.318,-699.977 104.875,-696.965 103.5,-694 92.5803,-670.457 81.9509,-643.927 73.178,-620.723"/>
<polygon fill="orange" stroke="orange" points="104.76,-704.739 112.379,-712.101 111.014,-701.595 104.76,-704.739"/>
<text text-anchor="middle" x="133.5" y="-686" font-family="Helvetica,sans-Serif" font-size="10.00"> &lt; SetNode &gt;</text>
</g>
<!-- Node6 -->
<g id="node6" class="node"><title>Node6</title>
<g id="a_node6"><a xlink:href="classscram_1_1core_1_1NonTerminal.xhtml" target="_top" xlink:title="Representation of non&#45;terminal vertices in BDD graphs. ">
<polygon fill="white" stroke="black" points="121.5,-453.5 121.5,-664.5 275.5,-664.5 275.5,-453.5 121.5,-453.5"/>
<text text-anchor="middle" x="198.5" y="-652.5" font-family="Helvetica,sans-Serif" font-size="10.00">scram::core::NonTerminal&lt; T &gt;</text>
<polyline fill="none" stroke="black" points="121.5,-645.5 275.5,-645.5 "/>
<text text-anchor="middle" x="198.5" y="-633.5" font-family="Helvetica,sans-Serif" font-size="10.00"> </text>
<polyline fill="none" stroke="black" points="121.5,-626.5 275.5,-626.5 "/>
<text text-anchor="start" x="129.5" y="-614.5" font-family="Helvetica,sans-Serif" font-size="10.00">+ NonTerminal()</text>
<text text-anchor="start" x="129.5" y="-603.5" font-family="Helvetica,sans-Serif" font-size="10.00">+ index()</text>
<text text-anchor="start" x="129.5" y="-592.5" font-family="Helvetica,sans-Serif" font-size="10.00">+ order()</text>
<text text-anchor="start" x="129.5" y="-581.5" font-family="Helvetica,sans-Serif" font-size="10.00">+ module()</text>
<text text-anchor="start" x="129.5" y="-570.5" font-family="Helvetica,sans-Serif" font-size="10.00">+ module()</text>
<text text-anchor="start" x="129.5" y="-559.5" font-family="Helvetica,sans-Serif" font-size="10.00">+ coherent()</text>
<text text-anchor="start" x="129.5" y="-548.5" font-family="Helvetica,sans-Serif" font-size="10.00">+ coherent()</text>
<text text-anchor="start" x="129.5" y="-537.5" font-family="Helvetica,sans-Serif" font-size="10.00">+ high()</text>
<text text-anchor="start" x="129.5" y="-526.5" font-family="Helvetica,sans-Serif" font-size="10.00">+ low()</text>
<text text-anchor="start" x="129.5" y="-515.5" font-family="Helvetica,sans-Serif" font-size="10.00">+ mark()</text>
<text text-anchor="start" x="129.5" y="-504.5" font-family="Helvetica,sans-Serif" font-size="10.00">+ mark()</text>
<text text-anchor="start" x="129.5" y="-493.5" font-family="Helvetica,sans-Serif" font-size="10.00"># ~NonTerminal()</text>
<text text-anchor="start" x="129.5" y="-482.5" font-family="Helvetica,sans-Serif" font-size="10.00"># CutBranches()</text>
<text text-anchor="start" x="129.5" y="-471.5" font-family="Helvetica,sans-Serif" font-size="10.00">* get_high_id</text>
<text text-anchor="start" x="129.5" y="-460.5" font-family="Helvetica,sans-Serif" font-size="10.00">* get_low_id</text>
</a>
</g>
</g>
<!-- Node5&#45;&gt;Node6 -->
<g id="edge7" class="edge"><title>Node5&#45;&gt;Node6</title>
<path fill="none" stroke="midnightblue" d="M165.065,-702.492C165.908,-699.629 166.724,-696.788 167.5,-694 170.125,-684.568 172.705,-674.721 175.186,-664.832"/>
<polygon fill="none" stroke="midnightblue" points="161.651,-701.69 162.111,-712.275 168.352,-703.714 161.651,-701.69"/>
</g>
<!-- Node6&#45;&gt;Node2 -->
<g id="edge6" class="edge"><title>Node6&#45;&gt;Node2</title>
<path fill="none" stroke="orange" d="M153.712,-443.857C148.739,-431.182 143.681,-418.292 138.728,-405.668"/>
<polygon fill="orange" stroke="orange" points="150.585,-445.468 157.496,-453.499 157.101,-442.911 150.585,-445.468"/>
<text text-anchor="middle" x="180.5" y="-427" font-family="Helvetica,sans-Serif" font-size="10.00"> &lt; SetNode &gt;</text>
</g>
</g>
</svg>
