<?xml version="1.0" encoding="UTF-8" standalone="no"?>
<!DOCTYPE svg PUBLIC "-//W3C//DTD SVG 1.1//EN"
 "http://www.w3.org/Graphics/SVG/1.1/DTD/svg11.dtd">
<!-- Generated by graphviz version 2.38.0 (20140413.2041)
 -->
<!-- Title: scram::mef::FaultTree Pages: 1 -->
<svg width="316pt" height="639pt"
 viewBox="0.00 0.00 315.50 639.00" xmlns="http://www.w3.org/2000/svg" xmlns:xlink="http://www.w3.org/1999/xlink">
<g id="graph0" class="graph" transform="scale(1 1) rotate(0) translate(4 635)">
<title>scram::mef::FaultTree</title>
<polygon fill="white" stroke="none" points="-4,4 -4,-635 311.5,-635 311.5,4 -4,4"/>
<!-- Node1 -->
<g id="node1" class="node"><title>Node1</title>
<polygon fill="#bfbfbf" stroke="black" points="115.5,-0.5 115.5,-79.5 228.5,-79.5 228.5,-0.5 115.5,-0.5"/>
<text text-anchor="middle" x="172" y="-67.5" font-family="Helvetica,sans-Serif" font-size="10.00">scram::mef::FaultTree</text>
<polyline fill="none" stroke="black" points="115.5,-60.5 228.5,-60.5 "/>
<text text-anchor="middle" x="172" y="-48.5" font-family="Helvetica,sans-Serif" font-size="10.00"> </text>
<polyline fill="none" stroke="black" points="115.5,-41.5 228.5,-41.5 "/>
<text text-anchor="start" x="123.5" y="-29.5" font-family="Helvetica,sans-Serif" font-size="10.00">+ FaultTree()</text>
<text text-anchor="start" x="123.5" y="-18.5" font-family="Helvetica,sans-Serif" font-size="10.00">+ top_events()</text>
<text text-anchor="start" x="123.5" y="-7.5" font-family="Helvetica,sans-Serif" font-size="10.00">+ CollectTopEvents()</text>
</g>
<!-- Node2 -->
<g id="node2" class="node"><title>Node2</title>
<g id="a_node2"><a xlink:href="classscram_1_1mef_1_1Component.xhtml" target="_top" xlink:title="Component is for logical grouping of events, gates, and other components. ">
<polygon fill="white" stroke="black" points="111,-116.5 111,-459.5 233,-459.5 233,-116.5 111,-116.5"/>
<text text-anchor="middle" x="172" y="-447.5" font-family="Helvetica,sans-Serif" font-size="10.00">scram::mef::Component</text>
<polyline fill="none" stroke="black" points="111,-440.5 233,-440.5 "/>
<text text-anchor="middle" x="172" y="-428.5" font-family="Helvetica,sans-Serif" font-size="10.00"> </text>
<polyline fill="none" stroke="black" points="111,-421.5 233,-421.5 "/>
<text text-anchor="start" x="119" y="-409.5" font-family="Helvetica,sans-Serif" font-size="10.00">+ Component()</text>
<text text-anchor="start" x="119" y="-398.5" font-family="Helvetica,sans-Serif" font-size="10.00">+ ~Component()</text>
<text text-anchor="start" x="119" y="-387.5" font-family="Helvetica,sans-Serif" font-size="10.00">+ AddGate()</text>
<text text-anchor="start" x="119" y="-376.5" font-family="Helvetica,sans-Serif" font-size="10.00">+ AddBasicEvent()</text>
<text text-anchor="start" x="119" y="-365.5" font-family="Helvetica,sans-Serif" font-size="10.00">+ AddHouseEvent()</text>
<text text-anchor="start" x="119" y="-354.5" font-family="Helvetica,sans-Serif" font-size="10.00">+ AddParameter()</text>
<text text-anchor="start" x="119" y="-343.5" font-family="Helvetica,sans-Serif" font-size="10.00">+ AddCcfGroup()</text>
<text text-anchor="start" x="119" y="-332.5" font-family="Helvetica,sans-Serif" font-size="10.00">+ AddComponent()</text>
<text text-anchor="start" x="119" y="-321.5" font-family="Helvetica,sans-Serif" font-size="10.00">+ gates()</text>
<text text-anchor="start" x="119" y="-310.5" font-family="Helvetica,sans-Serif" font-size="10.00">+ basic_events()</text>
<text text-anchor="start" x="119" y="-299.5" font-family="Helvetica,sans-Serif" font-size="10.00">+ house_events()</text>
<text text-anchor="start" x="119" y="-288.5" font-family="Helvetica,sans-Serif" font-size="10.00">+ parameters()</text>
<text text-anchor="start" x="119" y="-277.5" font-family="Helvetica,sans-Serif" font-size="10.00">+ ccf_groups()</text>
<text text-anchor="start" x="119" y="-266.5" font-family="Helvetica,sans-Serif" font-size="10.00">+ components()</text>
<text text-anchor="start" x="119" y="-255.5" font-family="Helvetica,sans-Serif" font-size="10.00"># GatherGates()</text>
<text text-anchor="start" x="119" y="-244.5" font-family="Helvetica,sans-Serif" font-size="10.00">* gates()</text>
<text text-anchor="start" x="119" y="-233.5" font-family="Helvetica,sans-Serif" font-size="10.00">* basic_events()</text>
<text text-anchor="start" x="119" y="-222.5" font-family="Helvetica,sans-Serif" font-size="10.00">* house_events()</text>
<text text-anchor="start" x="119" y="-211.5" font-family="Helvetica,sans-Serif" font-size="10.00">* parameters()</text>
<text text-anchor="start" x="119" y="-200.5" font-family="Helvetica,sans-Serif" font-size="10.00">* ccf_groups()</text>
<text text-anchor="start" x="119" y="-189.5" font-family="Helvetica,sans-Serif" font-size="10.00">* components()</text>
<text text-anchor="start" x="119" y="-178.5" font-family="Helvetica,sans-Serif" font-size="10.00">* gates_</text>
<text text-anchor="start" x="119" y="-167.5" font-family="Helvetica,sans-Serif" font-size="10.00">* basic_events_</text>
<text text-anchor="start" x="119" y="-156.5" font-family="Helvetica,sans-Serif" font-size="10.00">* house_events_</text>
<text text-anchor="start" x="119" y="-145.5" font-family="Helvetica,sans-Serif" font-size="10.00">* parameters_</text>
<text text-anchor="start" x="119" y="-134.5" font-family="Helvetica,sans-Serif" font-size="10.00">* ccf_groups_</text>
<text text-anchor="start" x="119" y="-123.5" font-family="Helvetica,sans-Serif" font-size="10.00">* components_</text>
</a>
</g>
</g>
<!-- Node2&#45;&gt;Node1 -->
<g id="edge1" class="edge"><title>Node2&#45;&gt;Node1</title>
<path fill="none" stroke="midnightblue" d="M172,-106.235C172,-96.6027 172,-87.5822 172,-79.503"/>
<polygon fill="none" stroke="midnightblue" points="168.5,-106.48 172,-116.48 175.5,-106.48 168.5,-106.48"/>
</g>
<!-- Node3 -->
<g id="node3" class="node"><title>Node3</title>
<g id="a_node3"><a xlink:href="classscram_1_1mef_1_1Element.xhtml" target="_top" xlink:title="Mixin class that represents any element of analysis that can have extra descriptions, such as attributes and a label. ">
<polygon fill="white" stroke="black" points="0,-496.5 0,-630.5 108,-630.5 108,-496.5 0,-496.5"/>
<text text-anchor="middle" x="54" y="-618.5" font-family="Helvetica,sans-Serif" font-size="10.00">scram::mef::Element</text>
<polyline fill="none" stroke="black" points="0,-611.5 108,-611.5 "/>
<text text-anchor="middle" x="54" y="-599.5" font-family="Helvetica,sans-Serif" font-size="10.00"> </text>
<polyline fill="none" stroke="black" points="0,-592.5 108,-592.5 "/>
<text text-anchor="start" x="8" y="-580.5" font-family="Helvetica,sans-Serif" font-size="10.00">+ Element()</text>
<text text-anchor="start" x="8" y="-569.5" font-family="Helvetica,sans-Serif" font-size="10.00">+ name()</text>
<text text-anchor="start" x="8" y="-558.5" font-family="Helvetica,sans-Serif" font-size="10.00">+ label()</text>
<text text-anchor="start" x="8" y="-547.5" font-family="Helvetica,sans-Serif" font-size="10.00">+ label()</text>
<text text-anchor="start" x="8" y="-536.5" font-family="Helvetica,sans-Serif" font-size="10.00">+ AddAttribute()</text>
<text text-anchor="start" x="8" y="-525.5" font-family="Helvetica,sans-Serif" font-size="10.00">+ HasAttribute()</text>
<text text-anchor="start" x="8" y="-514.5" font-family="Helvetica,sans-Serif" font-size="10.00">+ GetAttribute()</text>
<text text-anchor="start" x="8" y="-503.5" font-family="Helvetica,sans-Serif" font-size="10.00"># ~Element()</text>
</a>
</g>
</g>
<!-- Node3&#45;&gt;Node2 -->
<g id="edge2" class="edge"><title>Node3&#45;&gt;Node2</title>
<path fill="none" stroke="midnightblue" d="M86.6923,-486.726C94.2648,-469.174 102.564,-449.938 110.919,-430.572"/>
<polygon fill="none" stroke="midnightblue" points="83.3124,-485.725 82.5645,-496.293 89.7397,-488.498 83.3124,-485.725"/>
</g>
<!-- Node4 -->
<g id="node4" class="node"><title>Node4</title>
<g id="a_node4"><a xlink:href="classscram_1_1mef_1_1Role.xhtml" target="_top" xlink:title="Mixin class that manages private or public roles for elements as needed. ">
<polygon fill="white" stroke="black" points="126,-518.5 126,-608.5 218,-608.5 218,-518.5 126,-518.5"/>
<text text-anchor="middle" x="172" y="-596.5" font-family="Helvetica,sans-Serif" font-size="10.00">scram::mef::Role</text>
<polyline fill="none" stroke="black" points="126,-589.5 218,-589.5 "/>
<text text-anchor="middle" x="172" y="-577.5" font-family="Helvetica,sans-Serif" font-size="10.00"> </text>
<polyline fill="none" stroke="black" points="126,-570.5 218,-570.5 "/>
<text text-anchor="start" x="134" y="-558.5" font-family="Helvetica,sans-Serif" font-size="10.00">+ Role()</text>
<text text-anchor="start" x="134" y="-547.5" font-family="Helvetica,sans-Serif" font-size="10.00">+ role()</text>
<text text-anchor="start" x="134" y="-536.5" font-family="Helvetica,sans-Serif" font-size="10.00">+ base_path()</text>
<text text-anchor="start" x="134" y="-525.5" font-family="Helvetica,sans-Serif" font-size="10.00"># ~Role()</text>
</a>
</g>
</g>
<!-- Node4&#45;&gt;Node2 -->
<g id="edge3" class="edge"><title>Node4&#45;&gt;Node2</title>
<path fill="none" stroke="midnightblue" d="M172,-508.037C172,-493.505 172,-476.998 172,-459.719"/>
<polygon fill="none" stroke="midnightblue" points="168.5,-508.253 172,-518.254 175.5,-508.254 168.5,-508.253"/>
</g>
<!-- Node5 -->
<g id="node5" class="node"><title>Node5</title>
<polygon fill="white" stroke="#bfbfbf" points="236.5,-535 236.5,-592 307.5,-592 307.5,-535 236.5,-535"/>
<text text-anchor="middle" x="272" y="-580" font-family="Helvetica,sans-Serif" font-size="10.00">noncopyable</text>
<polyline fill="none" stroke="#bfbfbf" points="236.5,-573 307.5,-573 "/>
<text text-anchor="middle" x="272" y="-561" font-family="Helvetica,sans-Serif" font-size="10.00"> </text>
<polyline fill="none" stroke="#bfbfbf" points="236.5,-554 307.5,-554 "/>
<text text-anchor="middle" x="272" y="-542" font-family="Helvetica,sans-Serif" font-size="10.00"> </text>
</g>
<!-- Node5&#45;&gt;Node2 -->
<g id="edge4" class="edge"><title>Node5&#45;&gt;Node2</title>
<path fill="none" stroke="#8b1a1a" d="M258.348,-525.163C251.457,-506.315 242.562,-481.987 233.109,-456.133"/>
<polygon fill="none" stroke="#8b1a1a" points="255.14,-526.58 261.861,-534.77 261.714,-524.176 255.14,-526.58"/>
</g>
</g>
</svg>
