<?xml version="1.0" encoding="UTF-8" standalone="no"?>
<!DOCTYPE svg PUBLIC "-//W3C//DTD SVG 1.1//EN"
 "http://www.w3.org/Graphics/SVG/1.1/DTD/svg11.dtd">
<!-- Generated by graphviz version 2.38.0 (20140413.2041)
 -->
<!-- Title: scram::mef::CcfGroup Pages: 1 -->
<svg width="614pt" height="441pt"
 viewBox="0.00 0.00 613.50 441.00" xmlns="http://www.w3.org/2000/svg" xmlns:xlink="http://www.w3.org/1999/xlink">
<g id="graph0" class="graph" transform="scale(1 1) rotate(0) translate(4 437)">
<title>scram::mef::CcfGroup</title>
<polygon fill="white" stroke="none" points="-4,4 -4,-437 609.5,-437 609.5,4 -4,4"/>
<!-- Node1 -->
<g id="node1" class="node"><title>Node1</title>
<polygon fill="#bfbfbf" stroke="black" points="258.5,-94.5 258.5,-261.5 374.5,-261.5 374.5,-94.5 258.5,-94.5"/>
<text text-anchor="middle" x="316.5" y="-249.5" font-family="Helvetica,sans-Serif" font-size="10.00">scram::mef::CcfGroup</text>
<polyline fill="none" stroke="black" points="258.5,-242.5 374.5,-242.5 "/>
<text text-anchor="middle" x="316.5" y="-230.5" font-family="Helvetica,sans-Serif" font-size="10.00"> </text>
<polyline fill="none" stroke="black" points="258.5,-223.5 374.5,-223.5 "/>
<text text-anchor="start" x="266.5" y="-211.5" font-family="Helvetica,sans-Serif" font-size="10.00">+ CcfGroup()</text>
<text text-anchor="start" x="266.5" y="-200.5" font-family="Helvetica,sans-Serif" font-size="10.00">+ ~CcfGroup()</text>
<text text-anchor="start" x="266.5" y="-189.5" font-family="Helvetica,sans-Serif" font-size="10.00">+ members()</text>
<text text-anchor="start" x="266.5" y="-178.5" font-family="Helvetica,sans-Serif" font-size="10.00">+ AddMember()</text>
<text text-anchor="start" x="266.5" y="-167.5" font-family="Helvetica,sans-Serif" font-size="10.00">+ AddDistribution()</text>
<text text-anchor="start" x="266.5" y="-156.5" font-family="Helvetica,sans-Serif" font-size="10.00">+ AddFactor()</text>
<text text-anchor="start" x="266.5" y="-145.5" font-family="Helvetica,sans-Serif" font-size="10.00">+ ValidateDistribution()</text>
<text text-anchor="start" x="266.5" y="-134.5" font-family="Helvetica,sans-Serif" font-size="10.00">+ Validate()</text>
<text text-anchor="start" x="266.5" y="-123.5" font-family="Helvetica,sans-Serif" font-size="10.00">+ ApplyModel()</text>
<text text-anchor="start" x="266.5" y="-112.5" font-family="Helvetica,sans-Serif" font-size="10.00"># distribution()</text>
<text text-anchor="start" x="266.5" y="-101.5" font-family="Helvetica,sans-Serif" font-size="10.00"># factors()</text>
</g>
<!-- Node6 -->
<g id="node6" class="node"><title>Node6</title>
<g id="a_node6"><a xlink:href="classscram_1_1mef_1_1AlphaFactorModel.xhtml" target="_top" xlink:title="Alpha factor model characterizes failure of exactly k members of the group due to common cause...">
<polygon fill="white" stroke="black" points="0,-0.5 0,-57.5 151,-57.5 151,-0.5 0,-0.5"/>
<text text-anchor="middle" x="75.5" y="-45.5" font-family="Helvetica,sans-Serif" font-size="10.00">scram::mef::AlphaFactorModel</text>
<polyline fill="none" stroke="black" points="0,-38.5 151,-38.5 "/>
<text text-anchor="middle" x="75.5" y="-26.5" font-family="Helvetica,sans-Serif" font-size="10.00"> </text>
<polyline fill="none" stroke="black" points="0,-19.5 151,-19.5 "/>
<text text-anchor="middle" x="75.5" y="-7.5" font-family="Helvetica,sans-Serif" font-size="10.00"> </text>
</a>
</g>
</g>
<!-- Node1&#45;&gt;Node6 -->
<g id="edge5" class="edge"><title>Node1&#45;&gt;Node6</title>
<path fill="none" stroke="midnightblue" d="M249.854,-136.349C208.692,-111.241 156.974,-79.696 120.592,-57.5041"/>
<polygon fill="none" stroke="midnightblue" points="248.108,-139.383 258.468,-141.603 251.753,-133.407 248.108,-139.383"/>
</g>
<!-- Node7 -->
<g id="node7" class="node"><title>Node7</title>
<g id="a_node7"><a xlink:href="classscram_1_1mef_1_1BetaFactorModel.xhtml" target="_top" xlink:title="Common cause failure model that assumes, if common cause failure occurs, then all components or membe...">
<polygon fill="white" stroke="black" points="169.5,-0.5 169.5,-57.5 315.5,-57.5 315.5,-0.5 169.5,-0.5"/>
<text text-anchor="middle" x="242.5" y="-45.5" font-family="Helvetica,sans-Serif" font-size="10.00">scram::mef::BetaFactorModel</text>
<polyline fill="none" stroke="black" points="169.5,-38.5 315.5,-38.5 "/>
<text text-anchor="middle" x="242.5" y="-26.5" font-family="Helvetica,sans-Serif" font-size="10.00"> </text>
<polyline fill="none" stroke="black" points="169.5,-19.5 315.5,-19.5 "/>
<text text-anchor="middle" x="242.5" y="-7.5" font-family="Helvetica,sans-Serif" font-size="10.00"> </text>
</a>
</g>
</g>
<!-- Node1&#45;&gt;Node7 -->
<g id="edge6" class="edge"><title>Node1&#45;&gt;Node7</title>
<path fill="none" stroke="midnightblue" d="M270.322,-85.2686C265.335,-75.3623 260.586,-65.9276 256.468,-57.7481"/>
<polygon fill="none" stroke="midnightblue" points="267.335,-87.118 274.957,-94.4763 273.587,-83.9705 267.335,-87.118"/>
</g>
<!-- Node8 -->
<g id="node8" class="node"><title>Node8</title>
<g id="a_node8"><a xlink:href="classscram_1_1mef_1_1MglModel.xhtml" target="_top" xlink:title="Multiple Greek Letters model characterizes failure of sub&#45;groups of the group due to common cause...">
<polygon fill="white" stroke="black" points="333.5,-0.5 333.5,-57.5 447.5,-57.5 447.5,-0.5 333.5,-0.5"/>
<text text-anchor="middle" x="390.5" y="-45.5" font-family="Helvetica,sans-Serif" font-size="10.00">scram::mef::MglModel</text>
<polyline fill="none" stroke="black" points="333.5,-38.5 447.5,-38.5 "/>
<text text-anchor="middle" x="390.5" y="-26.5" font-family="Helvetica,sans-Serif" font-size="10.00"> </text>
<polyline fill="none" stroke="black" points="333.5,-19.5 447.5,-19.5 "/>
<text text-anchor="middle" x="390.5" y="-7.5" font-family="Helvetica,sans-Serif" font-size="10.00"> </text>
</a>
</g>
</g>
<!-- Node1&#45;&gt;Node8 -->
<g id="edge7" class="edge"><title>Node1&#45;&gt;Node8</title>
<path fill="none" stroke="midnightblue" d="M362.678,-85.2686C367.665,-75.3623 372.414,-65.9276 376.532,-57.7481"/>
<polygon fill="none" stroke="midnightblue" points="359.413,-83.9705 358.043,-94.4763 365.665,-87.118 359.413,-83.9705"/>
</g>
<!-- Node9 -->
<g id="node9" class="node"><title>Node9</title>
<g id="a_node9"><a xlink:href="classscram_1_1mef_1_1PhiFactorModel.xhtml" target="_top" xlink:title="Phi factor model is a simplification, where fractions of k&#45;member group failure is given directly...">
<polygon fill="white" stroke="black" points="465.5,-0.5 465.5,-57.5 605.5,-57.5 605.5,-0.5 465.5,-0.5"/>
<text text-anchor="middle" x="535.5" y="-45.5" font-family="Helvetica,sans-Serif" font-size="10.00">scram::mef::PhiFactorModel</text>
<polyline fill="none" stroke="black" points="465.5,-38.5 605.5,-38.5 "/>
<text text-anchor="middle" x="535.5" y="-26.5" font-family="Helvetica,sans-Serif" font-size="10.00"> </text>
<polyline fill="none" stroke="black" points="465.5,-19.5 605.5,-19.5 "/>
<text text-anchor="start" x="473.5" y="-7.5" font-family="Helvetica,sans-Serif" font-size="10.00">+ Validate()</text>
</a>
</g>
</g>
<!-- Node1&#45;&gt;Node9 -->
<g id="edge8" class="edge"><title>Node1&#45;&gt;Node9</title>
<path fill="none" stroke="midnightblue" d="M383.185,-132.239C419.466,-107.886 463.189,-78.5373 494.466,-57.5431"/>
<polygon fill="none" stroke="midnightblue" points="380.965,-129.513 374.613,-137.993 384.867,-135.325 380.965,-129.513"/>
</g>
<!-- Node2 -->
<g id="node2" class="node"><title>Node2</title>
<g id="a_node2"><a xlink:href="classscram_1_1mef_1_1Element.xhtml" target="_top" xlink:title="Mixin class that represents any element of analysis that can have extra descriptions, such as attributes and a label. ">
<polygon fill="white" stroke="black" points="92.5,-298.5 92.5,-432.5 200.5,-432.5 200.5,-298.5 92.5,-298.5"/>
<text text-anchor="middle" x="146.5" y="-420.5" font-family="Helvetica,sans-Serif" font-size="10.00">scram::mef::Element</text>
<polyline fill="none" stroke="black" points="92.5,-413.5 200.5,-413.5 "/>
<text text-anchor="middle" x="146.5" y="-401.5" font-family="Helvetica,sans-Serif" font-size="10.00"> </text>
<polyline fill="none" stroke="black" points="92.5,-394.5 200.5,-394.5 "/>
<text text-anchor="start" x="100.5" y="-382.5" font-family="Helvetica,sans-Serif" font-size="10.00">+ Element()</text>
<text text-anchor="start" x="100.5" y="-371.5" font-family="Helvetica,sans-Serif" font-size="10.00">+ name()</text>
<text text-anchor="start" x="100.5" y="-360.5" font-family="Helvetica,sans-Serif" font-size="10.00">+ label()</text>
<text text-anchor="start" x="100.5" y="-349.5" font-family="Helvetica,sans-Serif" font-size="10.00">+ label()</text>
<text text-anchor="start" x="100.5" y="-338.5" font-family="Helvetica,sans-Serif" font-size="10.00">+ AddAttribute()</text>
<text text-anchor="start" x="100.5" y="-327.5" font-family="Helvetica,sans-Serif" font-size="10.00">+ HasAttribute()</text>
<text text-anchor="start" x="100.5" y="-316.5" font-family="Helvetica,sans-Serif" font-size="10.00">+ GetAttribute()</text>
<text text-anchor="start" x="100.5" y="-305.5" font-family="Helvetica,sans-Serif" font-size="10.00"># ~Element()</text>
</a>
</g>
</g>
<!-- Node2&#45;&gt;Node1 -->
<g id="edge1" class="edge"><title>Node2&#45;&gt;Node1</title>
<path fill="none" stroke="midnightblue" d="M207.51,-297.927C224.021,-279.911 241.847,-260.459 258.205,-242.61"/>
<polygon fill="none" stroke="midnightblue" points="204.699,-295.815 200.523,-305.552 209.859,-300.544 204.699,-295.815"/>
</g>
<!-- Node3 -->
<g id="node3" class="node"><title>Node3</title>
<g id="a_node3"><a xlink:href="classscram_1_1mef_1_1Role.xhtml" target="_top" xlink:title="Mixin class that manages private or public roles for elements as needed. ">
<polygon fill="white" stroke="black" points="218.5,-320.5 218.5,-410.5 310.5,-410.5 310.5,-320.5 218.5,-320.5"/>
<text text-anchor="middle" x="264.5" y="-398.5" font-family="Helvetica,sans-Serif" font-size="10.00">scram::mef::Role</text>
<polyline fill="none" stroke="black" points="218.5,-391.5 310.5,-391.5 "/>
<text text-anchor="middle" x="264.5" y="-379.5" font-family="Helvetica,sans-Serif" font-size="10.00"> </text>
<polyline fill="none" stroke="black" points="218.5,-372.5 310.5,-372.5 "/>
<text text-anchor="start" x="226.5" y="-360.5" font-family="Helvetica,sans-Serif" font-size="10.00">+ Role()</text>
<text text-anchor="start" x="226.5" y="-349.5" font-family="Helvetica,sans-Serif" font-size="10.00">+ role()</text>
<text text-anchor="start" x="226.5" y="-338.5" font-family="Helvetica,sans-Serif" font-size="10.00">+ base_path()</text>
<text text-anchor="start" x="226.5" y="-327.5" font-family="Helvetica,sans-Serif" font-size="10.00"># ~Role()</text>
</a>
</g>
</g>
<!-- Node3&#45;&gt;Node1 -->
<g id="edge2" class="edge"><title>Node3&#45;&gt;Node1</title>
<path fill="none" stroke="midnightblue" d="M279.693,-310.304C283.972,-295.039 288.726,-278.08 293.357,-261.557"/>
<polygon fill="none" stroke="midnightblue" points="276.284,-309.495 276.955,-320.068 283.025,-311.384 276.284,-309.495"/>
</g>
<!-- Node4 -->
<g id="node4" class="node"><title>Node4</title>
<g id="a_node4"><a xlink:href="classscram_1_1mef_1_1Id.xhtml" target="_top" xlink:title="Mixin class for assigning unique identifiers to elements. ">
<polygon fill="white" stroke="black" points="328.5,-326 328.5,-405 408.5,-405 408.5,-326 328.5,-326"/>
<text text-anchor="middle" x="368.5" y="-393" font-family="Helvetica,sans-Serif" font-size="10.00">scram::mef::Id</text>
<polyline fill="none" stroke="black" points="328.5,-386 408.5,-386 "/>
<text text-anchor="middle" x="368.5" y="-374" font-family="Helvetica,sans-Serif" font-size="10.00"> </text>
<polyline fill="none" stroke="black" points="328.5,-367 408.5,-367 "/>
<text text-anchor="start" x="336.5" y="-355" font-family="Helvetica,sans-Serif" font-size="10.00">+ Id()</text>
<text text-anchor="start" x="336.5" y="-344" font-family="Helvetica,sans-Serif" font-size="10.00">+ id()</text>
<text text-anchor="start" x="336.5" y="-333" font-family="Helvetica,sans-Serif" font-size="10.00"># ~Id()</text>
</a>
</g>
</g>
<!-- Node4&#45;&gt;Node1 -->
<g id="edge3" class="edge"><title>Node4&#45;&gt;Node1</title>
<path fill="none" stroke="midnightblue" d="M354.809,-315.661C350.176,-299.134 344.866,-280.189 339.703,-261.774"/>
<polygon fill="none" stroke="midnightblue" points="351.53,-316.929 357.599,-325.613 358.27,-315.04 351.53,-316.929"/>
</g>
<!-- Node5 -->
<g id="node5" class="node"><title>Node5</title>
<polygon fill="white" stroke="#bfbfbf" points="427,-337 427,-394 498,-394 498,-337 427,-337"/>
<text text-anchor="middle" x="462.5" y="-382" font-family="Helvetica,sans-Serif" font-size="10.00">noncopyable</text>
<polyline fill="none" stroke="#bfbfbf" points="427,-375 498,-375 "/>
<text text-anchor="middle" x="462.5" y="-363" font-family="Helvetica,sans-Serif" font-size="10.00"> </text>
<polyline fill="none" stroke="#bfbfbf" points="427,-356 498,-356 "/>
<text text-anchor="middle" x="462.5" y="-344" font-family="Helvetica,sans-Serif" font-size="10.00"> </text>
</g>
<!-- Node5&#45;&gt;Node1 -->
<g id="edge4" class="edge"><title>Node5&#45;&gt;Node1</title>
<path fill="none" stroke="#8b1a1a" d="M439.059,-328.32C432.314,-318.341 424.802,-307.618 417.5,-298 404.146,-280.41 389.059,-261.959 374.694,-244.978"/>
<polygon fill="none" stroke="#8b1a1a" points="436.296,-330.485 444.764,-336.852 442.115,-326.594 436.296,-330.485"/>
</g>
</g>
</svg>
