<?xml version="1.0" encoding="UTF-8" standalone="no"?>
<!DOCTYPE svg PUBLIC "-//W3C//DTD SVG 1.1//EN"
 "http://www.w3.org/Graphics/SVG/1.1/DTD/svg11.dtd">
<!-- Generated by graphviz version 2.38.0 (20140413.2041)
 -->
<!-- Title: scram::core::ProbabilityAnalyzer::CalculateTotalProbability Pages: 1 -->
<svg width="335pt" height="88pt"
 viewBox="0.00 0.00 335.00 88.00" xmlns="http://www.w3.org/2000/svg" xmlns:xlink="http://www.w3.org/1999/xlink">
<g id="graph0" class="graph" transform="scale(1 1) rotate(0) translate(4 84)">
<title>scram::core::ProbabilityAnalyzer::CalculateTotalProbability</title>
<polygon fill="white" stroke="none" points="-4,4 -4,-84 331,-84 331,4 -4,4"/>
<!-- Node1 -->
<g id="node1" class="node"><title>Node1</title>
<polygon fill="#bfbfbf" stroke="black" points="0,-24.5 0,-54.5 170,-54.5 170,-24.5 0,-24.5"/>
<text text-anchor="start" x="8" y="-42.5" font-family="Helvetica,sans-Serif" font-size="10.00">scram::core::Probability</text>
<text text-anchor="middle" x="85" y="-31.5" font-family="Helvetica,sans-Serif" font-size="10.00">Analyzer::CalculateTotalProbability</text>
</g>
<!-- Node2 -->
<g id="node2" class="node"><title>Node2</title>
<g id="a_node2"><a xlink:href="classscram_1_1core_1_1ProbabilityAnalyzerBase.xhtml#a9497e06d2d9a5ab524179b45c37011b2" target="_top" xlink:title="scram::core::Probability\lAnalyzerBase::p_vars">
<polygon fill="white" stroke="black" points="206.5,-49.5 206.5,-79.5 326.5,-79.5 326.5,-49.5 206.5,-49.5"/>
<text text-anchor="start" x="214.5" y="-67.5" font-family="Helvetica,sans-Serif" font-size="10.00">scram::core::Probability</text>
<text text-anchor="middle" x="266.5" y="-56.5" font-family="Helvetica,sans-Serif" font-size="10.00">AnalyzerBase::p_vars</text>
</a>
</g>
</g>
<!-- Node1&#45;&gt;Node2 -->
<g id="edge1" class="edge"><title>Node1&#45;&gt;Node2</title>
<path fill="none" stroke="midnightblue" d="M170.231,-51.2314C179.004,-52.4532 187.848,-53.6849 196.425,-54.8795"/>
<polygon fill="midnightblue" stroke="midnightblue" points="195.964,-58.349 206.351,-56.262 196.929,-51.4159 195.964,-58.349"/>
</g>
<!-- Node3 -->
<g id="node3" class="node"><title>Node3</title>
<g id="a_node3"><a xlink:href="classscram_1_1core_1_1ProbabilityAnalyzerBase.xhtml#a77b6b0303fefce13025243dbdf48061b" target="_top" xlink:title="scram::core::Probability\lAnalyzerBase::products">
<polygon fill="white" stroke="black" points="206,-0.5 206,-30.5 327,-30.5 327,-0.5 206,-0.5"/>
<text text-anchor="start" x="214" y="-18.5" font-family="Helvetica,sans-Serif" font-size="10.00">scram::core::Probability</text>
<text text-anchor="middle" x="266.5" y="-7.5" font-family="Helvetica,sans-Serif" font-size="10.00">AnalyzerBase::products</text>
</a>
</g>
</g>
<!-- Node1&#45;&gt;Node3 -->
<g id="edge2" class="edge"><title>Node1&#45;&gt;Node3</title>
<path fill="none" stroke="midnightblue" d="M170.231,-28.2379C178.779,-27.095 187.394,-25.9431 195.765,-24.8239"/>
<polygon fill="midnightblue" stroke="midnightblue" points="196.384,-28.2723 205.832,-23.4778 195.457,-21.3341 196.384,-28.2723"/>
</g>
</g>
</svg>
