<?xml version="1.0" encoding="UTF-8" standalone="no"?>
<!DOCTYPE svg PUBLIC "-//W3C//DTD SVG 1.1//EN"
 "http://www.w3.org/Graphics/SVG/1.1/DTD/svg11.dtd">
<!-- Generated by graphviz version 2.38.0 (20140413.2041)
 -->
<!-- Title: scram::core::ImportanceAnalyzerBase&lt; Calculator &gt; Pages: 1 -->
<!--zoomable 749 -->
<svg id="main" version="1.1" xmlns="http://www.w3.org/2000/svg" xmlns:xlink="http://www.w3.org/1999/xlink" xml:space="preserve" onload="init(evt)">
<style type="text/css"><![CDATA[
.edge:hover path { stroke: red; }
.edge:hover polygon { stroke: red; fill: red; }
]]></style>
<script type="text/javascript"><![CDATA[
var edges = document.getElementsByTagName('g');
if (edges && edges.length) {
  for (var i=0;i<edges.length;i++) {
    if (edges[i].id.substr(0,4)=='edge') {
      edges[i].setAttribute('class','edge');
    }
  }
}
]]></script>
        <defs>
                <circle id="rim" cx="0" cy="0" r="7"/>
                <circle id="rim2" cx="0" cy="0" r="3.5"/>
                <g id="zoomPlus">
                        <use xlink:href="#rim" fill="#404040">
                                <set attributeName="fill" to="#808080" begin="zoomplus.mouseover" end="zoomplus.mouseout"/>
                        </use>
                        <path d="M-4,0h8M0,-4v8" fill="none" stroke="white" stroke-width="1.5" pointer-events="none"/>
                </g>
                <g id="zoomMin">
                        <use xlink:href="#rim" fill="#404040">
                                <set attributeName="fill" to="#808080" begin="zoomminus.mouseover" end="zoomminus.mouseout"/>
                        </use>
                        <path d="M-4,0h8" fill="none" stroke="white" stroke-width="1.5" pointer-events="none"/>
                </g>
                <g id="dirArrow">
                        <path fill="none" stroke="white" stroke-width="1.5" d="M0,-3.0v7 M-2.5,-0.5L0,-3.0L2.5,-0.5"/>
                </g>
               <g id="resetDef">
                       <use xlink:href="#rim2" fill="#404040">
                               <set attributeName="fill" to="#808080" begin="reset.mouseover" end="reset.mouseout"/>
                       </use>
               </g>
        </defs>

<script type="text/javascript">
var viewWidth = 348;
var viewHeight = 749;
var sectionId = 'dynsection-0';
</script>
<script xlink:href="svgpan.js"/>
<svg id="graph" class="graph">
<g id="viewport">
<title>scram::core::ImportanceAnalyzerBase&lt; Calculator &gt;</title>
<polygon fill="white" stroke="none" points="-4,4 -4,-745 344,-745 344,4 -4,4"/>
<!-- Node1 -->
<g id="node1" class="node"><title>Node1</title>
<polygon fill="#bfbfbf" stroke="black" points="16,-244.5 16,-334.5 177,-334.5 177,-244.5 16,-244.5"/>
<text text-anchor="start" x="24" y="-322.5" font-family="Helvetica,sans-Serif" font-size="10.00">scram::core::ImportanceAnalyzer</text>
<text text-anchor="middle" x="96.5" y="-311.5" font-family="Helvetica,sans-Serif" font-size="10.00">Base&lt; Calculator &gt;</text>
<polyline fill="none" stroke="black" points="16,-304.5 177,-304.5 "/>
<text text-anchor="middle" x="96.5" y="-292.5" font-family="Helvetica,sans-Serif" font-size="10.00"> </text>
<polyline fill="none" stroke="black" points="16,-285.5 177,-285.5 "/>
<text text-anchor="start" x="24" y="-273.5" font-family="Helvetica,sans-Serif" font-size="10.00">+ ImportanceAnalyzerBase()</text>
<text text-anchor="start" x="24" y="-262.5" font-family="Helvetica,sans-Serif" font-size="10.00"># ~ImportanceAnalyzerBase()</text>
<text text-anchor="start" x="24" y="-251.5" font-family="Helvetica,sans-Serif" font-size="10.00"># prob_analyzer()</text>
</g>
<!-- Node5 -->
<g id="node5" class="node"><title>Node5</title>
<g id="a_node5"><a xlink:href="classscram_1_1core_1_1ImportanceAnalyzer.xhtml" target="_top" xlink:title="Analyzer of importance factors with the help from probability analyzers. ">
<polygon fill="white" stroke="black" points="0,-117.5 0,-185.5 161,-185.5 161,-117.5 0,-117.5"/>
<text text-anchor="start" x="8" y="-173.5" font-family="Helvetica,sans-Serif" font-size="10.00">scram::core::ImportanceAnalyzer</text>
<text text-anchor="middle" x="80.5" y="-162.5" font-family="Helvetica,sans-Serif" font-size="10.00">&lt; Calculator &gt;</text>
<polyline fill="none" stroke="black" points="0,-155.5 161,-155.5 "/>
<text text-anchor="middle" x="80.5" y="-143.5" font-family="Helvetica,sans-Serif" font-size="10.00"> </text>
<polyline fill="none" stroke="black" points="0,-136.5 161,-136.5 "/>
<text text-anchor="start" x="8" y="-124.5" font-family="Helvetica,sans-Serif" font-size="10.00">+ ImportanceAnalyzer()</text>
</a>
</g>
</g>
<!-- Node1&#45;&gt;Node5 -->
<g id="edge4" class="edge"><title>Node1&#45;&gt;Node5</title>
<path fill="none" stroke="midnightblue" d="M90.1222,-234.289C88.1879,-217.847 86.1215,-200.283 84.4014,-185.662"/>
<polygon fill="none" stroke="midnightblue" points="86.6607,-234.822 91.3053,-244.345 93.6128,-234.004 86.6607,-234.822"/>
</g>
<!-- Node6 -->
<g id="node6" class="node"><title>Node6</title>
<g id="a_node6"><a xlink:href="classscram_1_1core_1_1ImportanceAnalyzerBase.xhtml" target="_top" xlink:title="{scram::core::ImportanceAnalyzer\lBase\&lt; Bdd \&gt;\n||+ ImportanceAnalyzerBase()\l# ~ImportanceAnalyzerBase()\l# prob_analyzer()\l}">
<polygon fill="white" stroke="black" points="179,-106.5 179,-196.5 340,-196.5 340,-106.5 179,-106.5"/>
<text text-anchor="start" x="187" y="-184.5" font-family="Helvetica,sans-Serif" font-size="10.00">scram::core::ImportanceAnalyzer</text>
<text text-anchor="middle" x="259.5" y="-173.5" font-family="Helvetica,sans-Serif" font-size="10.00">Base&lt; Bdd &gt;</text>
<polyline fill="none" stroke="black" points="179,-166.5 340,-166.5 "/>
<text text-anchor="middle" x="259.5" y="-154.5" font-family="Helvetica,sans-Serif" font-size="10.00"> </text>
<polyline fill="none" stroke="black" points="179,-147.5 340,-147.5 "/>
<text text-anchor="start" x="187" y="-135.5" font-family="Helvetica,sans-Serif" font-size="10.00">+ ImportanceAnalyzerBase()</text>
<text text-anchor="start" x="187" y="-124.5" font-family="Helvetica,sans-Serif" font-size="10.00"># ~ImportanceAnalyzerBase()</text>
<text text-anchor="start" x="187" y="-113.5" font-family="Helvetica,sans-Serif" font-size="10.00"># prob_analyzer()</text>
</a>
</g>
</g>
<!-- Node1&#45;&gt;Node6 -->
<g id="edge5" class="edge"><title>Node1&#45;&gt;Node6</title>
<path fill="none" stroke="orange" d="M157.266,-237.8C173.461,-224.287 190.827,-209.798 206.565,-196.666"/>
<polygon fill="orange" stroke="orange" points="154.858,-235.251 149.421,-244.345 159.342,-240.626 154.858,-235.251"/>
<text text-anchor="middle" x="203" y="-218" font-family="Helvetica,sans-Serif" font-size="10.00"> &lt; Bdd &gt;</text>
</g>
<!-- Node2 -->
<g id="node2" class="node"><title>Node2</title>
<g id="a_node2"><a xlink:href="classscram_1_1core_1_1ImportanceAnalysis.xhtml" target="_top" xlink:title="Analysis of importance factors of risk model variables. ">
<polygon fill="white" stroke="black" points="16,-372.5 16,-484.5 177,-484.5 177,-372.5 16,-372.5"/>
<text text-anchor="middle" x="96.5" y="-472.5" font-family="Helvetica,sans-Serif" font-size="10.00">scram::core::ImportanceAnalysis</text>
<polyline fill="none" stroke="black" points="16,-465.5 177,-465.5 "/>
<text text-anchor="middle" x="96.5" y="-453.5" font-family="Helvetica,sans-Serif" font-size="10.00"> </text>
<polyline fill="none" stroke="black" points="16,-446.5 177,-446.5 "/>
<text text-anchor="start" x="24" y="-434.5" font-family="Helvetica,sans-Serif" font-size="10.00">+ ImportanceAnalysis()</text>
<text text-anchor="start" x="24" y="-423.5" font-family="Helvetica,sans-Serif" font-size="10.00">+ ~ImportanceAnalysis()</text>
<text text-anchor="start" x="24" y="-412.5" font-family="Helvetica,sans-Serif" font-size="10.00">+ Analyze()</text>
<text text-anchor="start" x="24" y="-401.5" font-family="Helvetica,sans-Serif" font-size="10.00">+ importance()</text>
<text text-anchor="start" x="24" y="-390.5" font-family="Helvetica,sans-Serif" font-size="10.00">+ important_events()</text>
<text text-anchor="start" x="24" y="-379.5" font-family="Helvetica,sans-Serif" font-size="10.00"># GatherImportantEvents()</text>
</a>
</g>
</g>
<!-- Node2&#45;&gt;Node1 -->
<g id="edge1" class="edge"><title>Node2&#45;&gt;Node1</title>
<path fill="none" stroke="midnightblue" d="M96.5,-362.134C96.5,-352.826 96.5,-343.44 96.5,-334.667"/>
<polygon fill="none" stroke="midnightblue" points="93.0001,-362.172 96.5,-372.172 100,-362.172 93.0001,-362.172"/>
</g>
<!-- Node3 -->
<g id="node3" class="node"><title>Node3</title>
<g id="a_node3"><a xlink:href="classscram_1_1core_1_1Analysis.xhtml" target="_top" xlink:title="Base abstract class for all analysis with settings. ">
<polygon fill="white" stroke="black" points="40.5,-522.5 40.5,-645.5 152.5,-645.5 152.5,-522.5 40.5,-522.5"/>
<text text-anchor="middle" x="96.5" y="-633.5" font-family="Helvetica,sans-Serif" font-size="10.00">scram::core::Analysis</text>
<polyline fill="none" stroke="black" points="40.5,-626.5 152.5,-626.5 "/>
<text text-anchor="middle" x="96.5" y="-614.5" font-family="Helvetica,sans-Serif" font-size="10.00"> </text>
<polyline fill="none" stroke="black" points="40.5,-607.5 152.5,-607.5 "/>
<text text-anchor="start" x="48.5" y="-595.5" font-family="Helvetica,sans-Serif" font-size="10.00">+ Analysis()</text>
<text text-anchor="start" x="48.5" y="-584.5" font-family="Helvetica,sans-Serif" font-size="10.00">+ ~Analysis()</text>
<text text-anchor="start" x="48.5" y="-573.5" font-family="Helvetica,sans-Serif" font-size="10.00">+ settings()</text>
<text text-anchor="start" x="48.5" y="-562.5" font-family="Helvetica,sans-Serif" font-size="10.00">+ warnings()</text>
<text text-anchor="start" x="48.5" y="-551.5" font-family="Helvetica,sans-Serif" font-size="10.00">+ analysis_time()</text>
<text text-anchor="start" x="48.5" y="-540.5" font-family="Helvetica,sans-Serif" font-size="10.00"># AddWarning()</text>
<text text-anchor="start" x="48.5" y="-529.5" font-family="Helvetica,sans-Serif" font-size="10.00"># AddAnalysisTime()</text>
</a>
</g>
</g>
<!-- Node3&#45;&gt;Node2 -->
<g id="edge2" class="edge"><title>Node3&#45;&gt;Node2</title>
<path fill="none" stroke="midnightblue" d="M96.5,-512.055C96.5,-502.886 96.5,-493.605 96.5,-484.741"/>
<polygon fill="none" stroke="midnightblue" points="93.0001,-512.333 96.5,-522.333 100,-512.333 93.0001,-512.333"/>
</g>
<!-- Node4 -->
<g id="node4" class="node"><title>Node4</title>
<polygon fill="white" stroke="#bfbfbf" points="61,-683.5 61,-740.5 132,-740.5 132,-683.5 61,-683.5"/>
<text text-anchor="middle" x="96.5" y="-728.5" font-family="Helvetica,sans-Serif" font-size="10.00">noncopyable</text>
<polyline fill="none" stroke="#bfbfbf" points="61,-721.5 132,-721.5 "/>
<text text-anchor="middle" x="96.5" y="-709.5" font-family="Helvetica,sans-Serif" font-size="10.00"> </text>
<polyline fill="none" stroke="#bfbfbf" points="61,-702.5 132,-702.5 "/>
<text text-anchor="middle" x="96.5" y="-690.5" font-family="Helvetica,sans-Serif" font-size="10.00"> </text>
</g>
<!-- Node4&#45;&gt;Node3 -->
<g id="edge3" class="edge"><title>Node4&#45;&gt;Node3</title>
<path fill="none" stroke="#8b1a1a" d="M96.5,-673.182C96.5,-664.491 96.5,-655.033 96.5,-645.646"/>
<polygon fill="none" stroke="#8b1a1a" points="93.0001,-673.349 96.5,-683.349 100,-673.349 93.0001,-673.349"/>
</g>
<!-- Node7 -->
<g id="node7" class="node"><title>Node7</title>
<g id="a_node7"><a xlink:href="classscram_1_1core_1_1ImportanceAnalyzer_3_01Bdd_01_4.xhtml" target="_top" xlink:title="Specialization of importance analyzer with Binary Decision Diagrams. ">
<polygon fill="white" stroke="black" points="179,-0.5 179,-68.5 340,-68.5 340,-0.5 179,-0.5"/>
<text text-anchor="start" x="187" y="-56.5" font-family="Helvetica,sans-Serif" font-size="10.00">scram::core::ImportanceAnalyzer</text>
<text text-anchor="middle" x="259.5" y="-45.5" font-family="Helvetica,sans-Serif" font-size="10.00">&lt; Bdd &gt;</text>
<polyline fill="none" stroke="black" points="179,-38.5 340,-38.5 "/>
<text text-anchor="middle" x="259.5" y="-26.5" font-family="Helvetica,sans-Serif" font-size="10.00"> </text>
<polyline fill="none" stroke="black" points="179,-19.5 340,-19.5 "/>
<text text-anchor="start" x="187" y="-7.5" font-family="Helvetica,sans-Serif" font-size="10.00">+ ImportanceAnalyzer()</text>
</a>
</g>
</g>
<!-- Node6&#45;&gt;Node7 -->
<g id="edge6" class="edge"><title>Node6&#45;&gt;Node7</title>
<path fill="none" stroke="midnightblue" d="M259.5,-96.2309C259.5,-86.8035 259.5,-77.2599 259.5,-68.6181"/>
<polygon fill="none" stroke="midnightblue" points="256,-96.3669 259.5,-106.367 263,-96.3669 256,-96.3669"/>
</g>
</g>
</svg>
        <g id="navigator" transform="translate(0 0)" fill="#404254">
                <rect fill="#f2f5e9" fill-opacity="0.5" stroke="#606060" stroke-width=".5" x="0" y="0" width="60" height="60"/>
                <use id="zoomplus" xlink:href="#zoomPlus" x="17" y="9" onmousedown="handleZoom(evt,'in')"/>
                <use id="zoomminus" xlink:href="#zoomMin" x="42" y="9" onmousedown="handleZoom(evt,'out')"/>
                <use id="reset" xlink:href="#resetDef" x="30" y="36" onmousedown="handleReset()"/>
                <g id="arrowUp" xlink:href="#dirArrow" transform="translate(30 24)" onmousedown="handlePan(0,-1)">
                  <use xlink:href="#rim" fill="#404040">
                        <set attributeName="fill" to="#808080" begin="arrowUp.mouseover" end="arrowUp.mouseout"/>
                  </use>
                  <path fill="none" stroke="white" stroke-width="1.5" d="M0,-3.0v7 M-2.5,-0.5L0,-3.0L2.5,-0.5"/>
                </g>
                <g id="arrowRight" xlink:href="#dirArrow" transform="rotate(90) translate(36 -43)" onmousedown="handlePan(1,0)">
                  <use xlink:href="#rim" fill="#404040">
                        <set attributeName="fill" to="#808080" begin="arrowRight.mouseover" end="arrowRight.mouseout"/>
                  </use>
                  <path fill="none" stroke="white" stroke-width="1.5" d="M0,-3.0v7 M-2.5,-0.5L0,-3.0L2.5,-0.5"/>
                </g>
                <g id="arrowDown" xlink:href="#dirArrow" transform="rotate(180) translate(-30 -48)" onmousedown="handlePan(0,1)">
                  <use xlink:href="#rim" fill="#404040">
                        <set attributeName="fill" to="#808080" begin="arrowDown.mouseover" end="arrowDown.mouseout"/>
                  </use>
                  <path fill="none" stroke="white" stroke-width="1.5" d="M0,-3.0v7 M-2.5,-0.5L0,-3.0L2.5,-0.5"/>
                </g>
                <g id="arrowLeft" xlink:href="#dirArrow" transform="rotate(270) translate(-36 17)" onmousedown="handlePan(-1,0)">
                  <use xlink:href="#rim" fill="#404040">
                        <set attributeName="fill" to="#808080" begin="arrowLeft.mouseover" end="arrowLeft.mouseout"/>
                  </use>
                  <path fill="none" stroke="white" stroke-width="1.5" d="M0,-3.0v7 M-2.5,-0.5L0,-3.0L2.5,-0.5"/>
                </g>
        </g>
        <svg viewBox="0 0 15 15" width="100%" height="30px" preserveAspectRatio="xMaxYMin meet">
         <g id="arrow_out" transform="scale(0.3 0.3)">
          <a xlink:href="classscram_1_1core_1_1ImportanceAnalyzerBase__inherit__graph_org.svg" target="_base">
           <rect id="button" ry="5" rx="5" y="6" x="6" height="38" width="38"
                fill="#f2f5e9" fill-opacity="0.5" stroke="#606060" stroke-width="1.0"/>
           <path id="arrow"
             d="M 11.500037,31.436501 C 11.940474,20.09759 22.043105,11.32322 32.158766,21.979434 L 37.068811,17.246167 C 37.068811,17.246167 37.088388,32 37.088388,32 L 22.160133,31.978069 C 22.160133,31.978069 26.997745,27.140456 26.997745,27.140456 C 18.528582,18.264221 13.291696,25.230495 11.500037,31.436501 z"
             style="fill:#404040;"/>
          </a>
         </g>
        </svg>
</svg>
