<?xml version="1.0" encoding="UTF-8" standalone="no"?>
<!DOCTYPE svg PUBLIC "-//W3C//DTD SVG 1.1//EN"
 "http://www.w3.org/Graphics/SVG/1.1/DTD/svg11.dtd">
<!-- Generated by graphviz version 2.38.0 (20140413.2041)
 -->
<!-- Title: scram::core::Preprocessor::MergeCommonArgs Pages: 1 -->
<svg width="1405pt" height="218pt"
 viewBox="0.00 0.00 1405.00 218.00" xmlns="http://www.w3.org/2000/svg" xmlns:xlink="http://www.w3.org/1999/xlink">
<g id="graph0" class="graph" transform="scale(1 1) rotate(0) translate(4 214)">
<title>scram::core::Preprocessor::MergeCommonArgs</title>
<polygon fill="white" stroke="none" points="-4,4 -4,-214 1401,-214 1401,4 -4,4"/>
<!-- Node1 -->
<g id="node1" class="node"><title>Node1</title>
<polygon fill="#bfbfbf" stroke="black" points="0,-66.5 0,-96.5 132,-96.5 132,-66.5 0,-66.5"/>
<text text-anchor="start" x="8" y="-84.5" font-family="Helvetica,sans-Serif" font-size="10.00">scram::core::Preprocessor</text>
<text text-anchor="middle" x="66" y="-73.5" font-family="Helvetica,sans-Serif" font-size="10.00">::MergeCommonArgs</text>
</g>
<!-- Node2 -->
<g id="node2" class="node"><title>Node2</title>
<g id="a_node2"><a xlink:href="classscram_1_1core_1_1Preprocessor.xhtml#a9d5f89471499508eb9e6c01ea43e0f15" target="_top" xlink:title="Preprocessing phase of the original structure of the graph. ">
<polygon fill="white" stroke="black" points="168,-66.5 168,-96.5 300,-96.5 300,-66.5 168,-66.5"/>
<text text-anchor="start" x="176" y="-84.5" font-family="Helvetica,sans-Serif" font-size="10.00">scram::core::Preprocessor</text>
<text text-anchor="middle" x="234" y="-73.5" font-family="Helvetica,sans-Serif" font-size="10.00">::RunPhaseTwo</text>
</a>
</g>
</g>
<!-- Node1&#45;&gt;Node2 -->
<g id="edge1" class="edge"><title>Node1&#45;&gt;Node2</title>
<path fill="none" stroke="midnightblue" d="M142.393,-81.5C150.869,-81.5 159.452,-81.5 167.784,-81.5"/>
<polygon fill="midnightblue" stroke="midnightblue" points="142.131,-78.0001 132.131,-81.5 142.131,-85.0001 142.131,-78.0001"/>
</g>
<!-- Node3 -->
<g id="node3" class="node"><title>Node3</title>
<g id="a_node3"><a xlink:href="classscram_1_1core_1_1Preprocessor.xhtml#a2b6705e815fa3d02119c405b483766d5" target="_top" xlink:title="Runs the default preprocessing that achieves the graph in a normal form. ">
<polygon fill="white" stroke="black" points="504,-101 504,-120 660,-120 660,-101 504,-101"/>
<text text-anchor="middle" x="582" y="-108" font-family="Helvetica,sans-Serif" font-size="10.00">scram::core::Preprocessor::Run</text>
</a>
</g>
</g>
<!-- Node2&#45;&gt;Node3 -->
<g id="edge2" class="edge"><title>Node2&#45;&gt;Node3</title>
<path fill="none" stroke="midnightblue" d="M268.964,-101.39C287.985,-111.375 312.537,-122.408 336,-127.5 407.043,-142.916 492.131,-130.257 541.042,-120.081"/>
<polygon fill="midnightblue" stroke="midnightblue" points="270.562,-98.2751 260.1,-96.6033 267.236,-104.434 270.562,-98.2751"/>
</g>
<!-- Node11 -->
<g id="node11" class="node"><title>Node11</title>
<g id="a_node11"><a xlink:href="classscram_1_1core_1_1Preprocessor.xhtml#a3569bbcd5e863c750cdfa69115399600" target="_top" xlink:title="The final phase that cleans up the graph, and puts the structure of the graph ready for analysis...">
<polygon fill="white" stroke="black" points="516,-44.5 516,-74.5 648,-74.5 648,-44.5 516,-44.5"/>
<text text-anchor="start" x="524" y="-62.5" font-family="Helvetica,sans-Serif" font-size="10.00">scram::core::Preprocessor</text>
<text text-anchor="middle" x="582" y="-51.5" font-family="Helvetica,sans-Serif" font-size="10.00">::RunPhaseFive</text>
</a>
</g>
</g>
<!-- Node2&#45;&gt;Node11 -->
<g id="edge10" class="edge"><title>Node2&#45;&gt;Node11</title>
<path fill="none" stroke="midnightblue" d="M310.097,-76.7251C371.493,-72.8213 457.413,-67.3581 515.918,-63.6381"/>
<polygon fill="midnightblue" stroke="midnightblue" points="309.838,-73.2344 300.08,-77.362 310.282,-80.2203 309.838,-73.2344"/>
</g>
<!-- Node12 -->
<g id="node12" class="node"><title>Node12</title>
<g id="a_node12"><a xlink:href="classscram_1_1core_1_1Preprocessor.xhtml#a5c224938dfba861f061525658bd7b156" target="_top" xlink:title="Propagation of complements. ">
<polygon fill="white" stroke="black" points="336,-0.5 336,-30.5 468,-30.5 468,-0.5 336,-0.5"/>
<text text-anchor="start" x="344" y="-18.5" font-family="Helvetica,sans-Serif" font-size="10.00">scram::core::Preprocessor</text>
<text text-anchor="middle" x="402" y="-7.5" font-family="Helvetica,sans-Serif" font-size="10.00">::RunPhaseFour</text>
</a>
</g>
</g>
<!-- Node2&#45;&gt;Node12 -->
<g id="edge12" class="edge"><title>Node2&#45;&gt;Node12</title>
<path fill="none" stroke="midnightblue" d="M282.58,-62.5827C308.131,-52.424 339.193,-40.0737 363.093,-30.5713"/>
<polygon fill="midnightblue" stroke="midnightblue" points="281.083,-59.4112 273.084,-66.3583 283.669,-65.916 281.083,-59.4112"/>
</g>
<!-- Node13 -->
<g id="node13" class="node"><title>Node13</title>
<g id="a_node13"><a xlink:href="classscram_1_1core_1_1Preprocessor.xhtml#abf2c66723172a85b2ae87ef2a034cd1f" target="_top" xlink:title="Application of gate normalization. ">
<polygon fill="white" stroke="black" points="336,-88.5 336,-118.5 468,-118.5 468,-88.5 336,-88.5"/>
<text text-anchor="start" x="344" y="-106.5" font-family="Helvetica,sans-Serif" font-size="10.00">scram::core::Preprocessor</text>
<text text-anchor="middle" x="402" y="-95.5" font-family="Helvetica,sans-Serif" font-size="10.00">::RunPhaseThree</text>
</a>
</g>
</g>
<!-- Node2&#45;&gt;Node13 -->
<g id="edge14" class="edge"><title>Node2&#45;&gt;Node13</title>
<path fill="none" stroke="midnightblue" d="M310.114,-91.4548C318.681,-92.5902 327.361,-93.7406 335.784,-94.8569"/>
<polygon fill="midnightblue" stroke="midnightblue" points="310.504,-87.9761 300.131,-90.1318 309.585,-94.9154 310.504,-87.9761"/>
</g>
<!-- Node4 -->
<g id="node4" class="node"><title>Node4</title>
<g id="a_node4"><a xlink:href="classscram_1_1core_1_1FaultTreeAnalyzer.xhtml#af6d3e735d4200c3efed0164c58aabf57" target="_top" xlink:title="Runs fault tree analysis with the given algorithm. ">
<polygon fill="white" stroke="black" points="702.5,-179.5 702.5,-209.5 856.5,-209.5 856.5,-179.5 702.5,-179.5"/>
<text text-anchor="start" x="710.5" y="-197.5" font-family="Helvetica,sans-Serif" font-size="10.00">scram::core::FaultTreeAnalyzer</text>
<text text-anchor="middle" x="779.5" y="-186.5" font-family="Helvetica,sans-Serif" font-size="10.00">::Analyze</text>
</a>
</g>
</g>
<!-- Node3&#45;&gt;Node4 -->
<g id="edge3" class="edge"><title>Node3&#45;&gt;Node4</title>
<path fill="none" stroke="midnightblue" d="M607.427,-125.358C629.851,-138.535 664.305,-157.634 696,-170.5 704.016,-173.754 712.635,-176.766 721.172,-179.477"/>
<polygon fill="midnightblue" stroke="midnightblue" points="608.981,-122.21 598.596,-120.108 605.404,-128.227 608.981,-122.21"/>
</g>
<!-- Node8 -->
<g id="node8" class="node"><title>Node8</title>
<g id="a_node8"><a xlink:href="classscram_1_1core_1_1ProbabilityAnalyzer_3_01Bdd_01_4.xhtml#a517506c181102100cc6a3e96710813c6" target="_top" xlink:title="Calculates the total probability with a different set of probability values than the one given upon c...">
<polygon fill="white" stroke="black" points="700,-120 700,-161 859,-161 859,-120 700,-120"/>
<text text-anchor="start" x="708" y="-149" font-family="Helvetica,sans-Serif" font-size="10.00">scram::core::Probability</text>
<text text-anchor="start" x="708" y="-138" font-family="Helvetica,sans-Serif" font-size="10.00">Analyzer&lt; Bdd &gt;::CalculateTotal</text>
<text text-anchor="middle" x="779.5" y="-127" font-family="Helvetica,sans-Serif" font-size="10.00">Probability</text>
</a>
</g>
</g>
<!-- Node3&#45;&gt;Node8 -->
<g id="edge7" class="edge"><title>Node3&#45;&gt;Node8</title>
<path fill="none" stroke="midnightblue" d="M655.039,-121.555C669.572,-123.785 684.921,-126.14 699.672,-128.404"/>
<polygon fill="midnightblue" stroke="midnightblue" points="655.541,-118.091 645.126,-120.033 654.479,-125.01 655.541,-118.091"/>
</g>
<!-- Node9 -->
<g id="node9" class="node"><title>Node9</title>
<g id="a_node9"><a xlink:href="classscram_1_1core_1_1CustomPreprocessor_3_01Bdd_01_4.xhtml#a8cf4307236cd521e39a2c6feb21f3214" target="_top" xlink:title="Performs preprocessing for analyses with Binary Decision Diagrams. ">
<polygon fill="white" stroke="black" points="696,-71.5 696,-101.5 863,-101.5 863,-71.5 696,-71.5"/>
<text text-anchor="start" x="704" y="-89.5" font-family="Helvetica,sans-Serif" font-size="10.00">scram::core::CustomPreprocessor</text>
<text text-anchor="middle" x="779.5" y="-78.5" font-family="Helvetica,sans-Serif" font-size="10.00">&lt; Bdd &gt;::Run</text>
</a>
</g>
</g>
<!-- Node3&#45;&gt;Node9 -->
<g id="edge8" class="edge"><title>Node3&#45;&gt;Node9</title>
<path fill="none" stroke="midnightblue" d="M670.44,-99.7657C678.836,-98.735 687.334,-97.6917 695.683,-96.6667"/>
<polygon fill="midnightblue" stroke="midnightblue" points="669.766,-96.3221 660.267,-101.015 670.619,-103.27 669.766,-96.3221"/>
</g>
<!-- Node10 -->
<g id="node10" class="node"><title>Node10</title>
<g id="a_node10"><a xlink:href="classscram_1_1core_1_1CustomPreprocessor_3_01Zbdd_01_4.xhtml#a5185075f852c647c7aa4313d23420ee5" target="_top" xlink:title="Performs preprocessing for analyses with Zero&#45;Suppressed Binary Decision Diagrams. ">
<polygon fill="white" stroke="black" points="696,-22.5 696,-52.5 863,-52.5 863,-22.5 696,-22.5"/>
<text text-anchor="start" x="704" y="-40.5" font-family="Helvetica,sans-Serif" font-size="10.00">scram::core::CustomPreprocessor</text>
<text text-anchor="middle" x="779.5" y="-29.5" font-family="Helvetica,sans-Serif" font-size="10.00">&lt; Zbdd &gt;::Run</text>
</a>
</g>
</g>
<!-- Node3&#45;&gt;Node10 -->
<g id="edge9" class="edge"><title>Node3&#45;&gt;Node10</title>
<path fill="none" stroke="midnightblue" d="M624.607,-97.7108C636.262,-93.6472 648.801,-88.8122 660,-83.5 676.942,-75.464 678.847,-69.0744 696,-61.5 703.505,-58.186 711.593,-55.1882 719.668,-52.5237"/>
<polygon fill="midnightblue" stroke="midnightblue" points="623.425,-94.4158 615.074,-100.936 625.668,-101.047 623.425,-94.4158"/>
</g>
<!-- Node5 -->
<g id="node5" class="node"><title>Node5</title>
<g id="a_node5"><a xlink:href="classscram_1_1core_1_1RiskAnalysis.xhtml#a7aed757ac5a7a96878c2706a7a9710bb" target="_top" xlink:title="Analyzes the model and performs computations specified in the settings. ">
<polygon fill="white" stroke="black" points="899,-179.5 899,-209.5 1031,-209.5 1031,-179.5 899,-179.5"/>
<text text-anchor="start" x="907" y="-197.5" font-family="Helvetica,sans-Serif" font-size="10.00">scram::core::RiskAnalysis</text>
<text text-anchor="middle" x="965" y="-186.5" font-family="Helvetica,sans-Serif" font-size="10.00">::Analyze</text>
</a>
</g>
</g>
<!-- Node4&#45;&gt;Node5 -->
<g id="edge4" class="edge"><title>Node4&#45;&gt;Node5</title>
<path fill="none" stroke="midnightblue" d="M866.954,-194.5C877.672,-194.5 888.486,-194.5 898.81,-194.5"/>
<polygon fill="midnightblue" stroke="midnightblue" points="866.726,-191 856.726,-194.5 866.726,-198 866.726,-191"/>
</g>
<!-- Node6 -->
<g id="node6" class="node"><title>Node6</title>
<g id="a_node6"><a xlink:href="classscram_1_1core_1_1RiskAnalysis.xhtml#a337f7e9fe02b1581e872590d6f7baa01" target="_top" xlink:title="scram::core::RiskAnalysis\l::model">
<polygon fill="white" stroke="black" points="1067,-179.5 1067,-209.5 1199,-209.5 1199,-179.5 1067,-179.5"/>
<text text-anchor="start" x="1075" y="-197.5" font-family="Helvetica,sans-Serif" font-size="10.00">scram::core::RiskAnalysis</text>
<text text-anchor="middle" x="1133" y="-186.5" font-family="Helvetica,sans-Serif" font-size="10.00">::model</text>
</a>
</g>
</g>
<!-- Node5&#45;&gt;Node6 -->
<g id="edge5" class="edge"><title>Node5&#45;&gt;Node6</title>
<path fill="none" stroke="midnightblue" d="M1041.39,-194.5C1049.87,-194.5 1058.45,-194.5 1066.78,-194.5"/>
<polygon fill="midnightblue" stroke="midnightblue" points="1041.13,-191 1031.13,-194.5 1041.13,-198 1041.13,-191"/>
</g>
<!-- Node7 -->
<g id="node7" class="node"><title>Node7</title>
<g id="a_node7"><a xlink:href="reporter_8cc.xhtml#ad6460094a94fb73e56c2a4a5efc598ed" target="_top" xlink:title="Describes all performed analyses deduced from settings. ">
<polygon fill="white" stroke="black" points="1235,-179.5 1235,-209.5 1397,-209.5 1397,-179.5 1235,-179.5"/>
<text text-anchor="start" x="1243" y="-197.5" font-family="Helvetica,sans-Serif" font-size="10.00">scram::ReportCalculatedQuantity</text>
<text text-anchor="middle" x="1316" y="-186.5" font-family="Helvetica,sans-Serif" font-size="10.00">&lt; core::RiskAnalysis &gt;</text>
</a>
</g>
</g>
<!-- Node6&#45;&gt;Node7 -->
<g id="edge6" class="edge"><title>Node6&#45;&gt;Node7</title>
<path fill="none" stroke="midnightblue" d="M1209.24,-194.5C1217.65,-194.5 1226.24,-194.5 1234.71,-194.5"/>
<polygon fill="midnightblue" stroke="midnightblue" points="1209.09,-191 1199.09,-194.5 1209.09,-198 1209.09,-191"/>
</g>
<!-- Node11&#45;&gt;Node10 -->
<g id="edge11" class="edge"><title>Node11&#45;&gt;Node10</title>
<path fill="none" stroke="midnightblue" d="M658.313,-51.0248C670.636,-49.6381 683.462,-48.1948 695.949,-46.7896"/>
<polygon fill="midnightblue" stroke="midnightblue" points="657.645,-47.5779 648.099,-52.1743 658.427,-54.534 657.645,-47.5779"/>
</g>
<!-- Node12&#45;&gt;Node10 -->
<g id="edge13" class="edge"><title>Node12&#45;&gt;Node10</title>
<path fill="none" stroke="midnightblue" d="M478.66,-19.9328C541.581,-23.6193 630.998,-28.8581 695.797,-32.6546"/>
<polygon fill="midnightblue" stroke="midnightblue" points="478.595,-16.4231 468.407,-19.3321 478.185,-23.4111 478.595,-16.4231"/>
</g>
<!-- Node13&#45;&gt;Node3 -->
<g id="edge15" class="edge"><title>Node13&#45;&gt;Node3</title>
<path fill="none" stroke="midnightblue" d="M478.221,-106.458C486.672,-106.79 495.292,-107.129 503.768,-107.463"/>
<polygon fill="midnightblue" stroke="midnightblue" points="478.148,-102.953 468.018,-106.057 477.872,-109.947 478.148,-102.953"/>
</g>
</g>
</svg>
