<?xml version="1.0" encoding="UTF-8" standalone="no"?>
<!DOCTYPE svg PUBLIC "-//W3C//DTD SVG 1.1//EN"
 "http://www.w3.org/Graphics/SVG/1.1/DTD/svg11.dtd">
<!-- Generated by graphviz version 2.38.0 (20140413.2041)
 -->
<!-- Title: scram::core::RareEventCalculator Pages: 1 -->
<svg width="173pt" height="182pt"
 viewBox="0.00 0.00 173.00 182.00" xmlns="http://www.w3.org/2000/svg" xmlns:xlink="http://www.w3.org/1999/xlink">
<g id="graph0" class="graph" transform="scale(1 1) rotate(0) translate(4 178)">
<title>scram::core::RareEventCalculator</title>
<polygon fill="white" stroke="none" points="-4,4 -4,-178 169,-178 169,4 -4,4"/>
<!-- Node1 -->
<g id="node1" class="node"><title>Node1</title>
<polygon fill="#bfbfbf" stroke="black" points="0,-0.5 0,-57.5 165,-57.5 165,-0.5 0,-0.5"/>
<text text-anchor="middle" x="82.5" y="-45.5" font-family="Helvetica,sans-Serif" font-size="10.00">scram::core::RareEventCalculator</text>
<polyline fill="none" stroke="black" points="0,-38.5 165,-38.5 "/>
<text text-anchor="middle" x="82.5" y="-26.5" font-family="Helvetica,sans-Serif" font-size="10.00"> </text>
<polyline fill="none" stroke="black" points="0,-19.5 165,-19.5 "/>
<text text-anchor="start" x="8" y="-7.5" font-family="Helvetica,sans-Serif" font-size="10.00">+ Calculate()</text>
</g>
<!-- Node2 -->
<g id="node2" class="node"><title>Node2</title>
<g id="a_node2"><a xlink:href="classscram_1_1core_1_1CutSetProbabilityCalculator.xhtml" target="_top" xlink:title="Quantitative calculator of a probability value of a single cut set. ">
<polygon fill="white" stroke="black" points="7,-94.5 7,-173.5 158,-173.5 158,-94.5 7,-94.5"/>
<text text-anchor="start" x="15" y="-161.5" font-family="Helvetica,sans-Serif" font-size="10.00">scram::core::CutSetProbability</text>
<text text-anchor="middle" x="82.5" y="-150.5" font-family="Helvetica,sans-Serif" font-size="10.00">Calculator</text>
<polyline fill="none" stroke="black" points="7,-143.5 158,-143.5 "/>
<text text-anchor="middle" x="82.5" y="-131.5" font-family="Helvetica,sans-Serif" font-size="10.00"> </text>
<polyline fill="none" stroke="black" points="7,-124.5 158,-124.5 "/>
<text text-anchor="start" x="15" y="-112.5" font-family="Helvetica,sans-Serif" font-size="10.00">+ Calculate()</text>
<text text-anchor="start" x="15" y="-101.5" font-family="Helvetica,sans-Serif" font-size="10.00">+ CheckUnity()</text>
</a>
</g>
</g>
<!-- Node2&#45;&gt;Node1 -->
<g id="edge1" class="edge"><title>Node2&#45;&gt;Node1</title>
<path fill="none" stroke="#8b1a1a" d="M82.5,-84.1628C82.5,-75.0404 82.5,-65.8063 82.5,-57.6095"/>
<polygon fill="none" stroke="#8b1a1a" points="79.0001,-84.3535 82.5,-94.3536 86.0001,-84.3536 79.0001,-84.3535"/>
</g>
</g>
</svg>
