<?xml version="1.0" encoding="UTF-8" standalone="no"?>
<!DOCTYPE svg PUBLIC "-//W3C//DTD SVG 1.1//EN"
 "http://www.w3.org/Graphics/SVG/1.1/DTD/svg11.dtd">
<!-- Generated by graphviz version 2.38.0 (20140413.2041)
 -->
<!-- Title: scram::core::Vertex::id Pages: 1 -->
<svg width="779pt" height="372pt"
 viewBox="0.00 0.00 779.00 371.94" xmlns="http://www.w3.org/2000/svg" xmlns:xlink="http://www.w3.org/1999/xlink">
<g id="graph0" class="graph" transform="scale(1 1) rotate(0) translate(4 367.94)">
<title>scram::core::Vertex::id</title>
<polygon fill="white" stroke="none" points="-4,4 -4,-367.94 775,-367.94 775,4 -4,4"/>
<!-- Node1 -->
<g id="node1" class="node"><title>Node1</title>
<polygon fill="#bfbfbf" stroke="black" points="0,-227.44 0,-246.44 116,-246.44 116,-227.44 0,-227.44"/>
<text text-anchor="middle" x="58" y="-234.44" font-family="Helvetica,sans-Serif" font-size="10.00">scram::core::Vertex::id</text>
</g>
<!-- Node2 -->
<g id="node2" class="node"><title>Node2</title>
<g id="a_node2"><a xlink:href="classscram_1_1core_1_1Terminal.xhtml#a7a25b0b40498f4876571a5dac4e724c3" target="_top" xlink:title="scram::core::Terminal\l::value">
<polygon fill="white" stroke="black" points="152,-221.94 152,-251.94 264,-251.94 264,-221.94 152,-221.94"/>
<text text-anchor="start" x="160" y="-239.94" font-family="Helvetica,sans-Serif" font-size="10.00">scram::core::Terminal</text>
<text text-anchor="middle" x="208" y="-228.94" font-family="Helvetica,sans-Serif" font-size="10.00">::value</text>
</a>
</g>
</g>
<!-- Node1&#45;&gt;Node2 -->
<g id="edge1" class="edge"><title>Node1&#45;&gt;Node2</title>
<path fill="none" stroke="midnightblue" d="M126.496,-236.94C134.992,-236.94 143.603,-236.94 151.877,-236.94"/>
<polygon fill="midnightblue" stroke="midnightblue" points="126.221,-233.44 116.221,-236.94 126.221,-240.44 126.221,-233.44"/>
</g>
<!-- Node3 -->
<g id="node3" class="node"><title>Node3</title>
<g id="a_node3"><a xlink:href="classscram_1_1core_1_1Zbdd.xhtml#a363960002737004ea45f67758d9ac17d" target="_top" xlink:title="Specialization of Apply for AND operator for any ZBDD vertices. ">
<polygon fill="white" stroke="black" points="300,-287.94 300,-317.94 402,-317.94 402,-287.94 300,-287.94"/>
<text text-anchor="start" x="308" y="-305.94" font-family="Helvetica,sans-Serif" font-size="10.00">scram::core::Zbdd::</text>
<text text-anchor="middle" x="351" y="-294.94" font-family="Helvetica,sans-Serif" font-size="10.00">Apply</text>
</a>
</g>
</g>
<!-- Node2&#45;&gt;Node3 -->
<g id="edge2" class="edge"><title>Node2&#45;&gt;Node3</title>
<path fill="none" stroke="midnightblue" d="M250.566,-256.396C272.045,-266.45 297.859,-278.533 317.802,-287.868"/>
<polygon fill="midnightblue" stroke="midnightblue" points="251.889,-253.151 241.348,-252.081 248.921,-259.491 251.889,-253.151"/>
</g>
<!-- Node4 -->
<g id="node4" class="node"><title>Node4</title>
<g id="a_node4"><a xlink:href="classscram_1_1core_1_1Zbdd.xhtml#aeb83fd37f2aee74ac41e6ccadba82d39" target="_top" xlink:title="Removes constant modules from products. ">
<polygon fill="white" stroke="black" points="451.5,-314.94 451.5,-344.94 585.5,-344.94 585.5,-314.94 451.5,-314.94"/>
<text text-anchor="start" x="459.5" y="-332.94" font-family="Helvetica,sans-Serif" font-size="10.00">scram::core::Zbdd::</text>
<text text-anchor="middle" x="518.5" y="-321.94" font-family="Helvetica,sans-Serif" font-size="10.00">EliminateConstantModules</text>
</a>
</g>
</g>
<!-- Node2&#45;&gt;Node4 -->
<g id="edge3" class="edge"><title>Node2&#45;&gt;Node4</title>
<path fill="none" stroke="midnightblue" d="M274.278,-243.648C312.748,-249.326 361.633,-259.602 402,-277.94 420.209,-286.212 420.206,-295.809 438,-304.94 445.337,-308.705 453.349,-312.032 461.37,-314.931"/>
<polygon fill="midnightblue" stroke="midnightblue" points="274.618,-240.161 264.228,-242.234 273.642,-247.093 274.618,-240.161"/>
</g>
<!-- Node7 -->
<g id="node7" class="node"><title>Node7</title>
<g id="a_node7"><a xlink:href="classscram_1_1core_1_1Zbdd.xhtml#a516f0d2f35ad213399f83fb9ab102561" target="_top" xlink:title="Traverses ZBDD to find modules and adjusted cut&#45;offs. ">
<polygon fill="white" stroke="black" points="300,-30.9397 300,-60.9397 402,-60.9397 402,-30.9397 300,-30.9397"/>
<text text-anchor="start" x="308" y="-48.9397" font-family="Helvetica,sans-Serif" font-size="10.00">scram::core::Zbdd::</text>
<text text-anchor="middle" x="351" y="-37.9397" font-family="Helvetica,sans-Serif" font-size="10.00">GatherModules</text>
</a>
</g>
</g>
<!-- Node2&#45;&gt;Node7 -->
<g id="edge6" class="edge"><title>Node2&#45;&gt;Node7</title>
<path fill="none" stroke="midnightblue" d="M226.438,-213.318C255.818,-173.52 314.367,-94.2081 338.842,-61.0549"/>
<polygon fill="midnightblue" stroke="midnightblue" points="223.424,-211.508 220.3,-221.632 229.055,-215.666 223.424,-211.508"/>
</g>
<!-- Node9 -->
<g id="node9" class="node"><title>Node9</title>
<g id="a_node9"><a xlink:href="classscram_1_1core_1_1Zbdd.xhtml#a3dbb8ef5da2882daf6c39e9724eae459" target="_top" xlink:title="Removes subsets in ZBDD. ">
<polygon fill="white" stroke="black" points="300,-199.94 300,-229.94 402,-229.94 402,-199.94 300,-199.94"/>
<text text-anchor="start" x="308" y="-217.94" font-family="Helvetica,sans-Serif" font-size="10.00">scram::core::Zbdd::</text>
<text text-anchor="middle" x="351" y="-206.94" font-family="Helvetica,sans-Serif" font-size="10.00">Minimize</text>
</a>
</g>
</g>
<!-- Node2&#45;&gt;Node9 -->
<g id="edge9" class="edge"><title>Node2&#45;&gt;Node9</title>
<path fill="none" stroke="midnightblue" d="M274.326,-226.747C282.914,-225.407 291.605,-224.051 299.885,-222.759"/>
<polygon fill="midnightblue" stroke="midnightblue" points="273.663,-223.308 264.322,-228.308 274.742,-230.224 273.663,-223.308"/>
</g>
<!-- Node5 -->
<g id="node5" class="node"><title>Node5</title>
<g id="a_node5"><a xlink:href="classscram_1_1core_1_1Zbdd.xhtml#af92e04ed908364e0177ce444d7b72712" target="_top" xlink:title="Default constructor to initialize member variables. ">
<polygon fill="white" stroke="black" points="641,-224.44 641,-243.44 765,-243.44 765,-224.44 641,-224.44"/>
<text text-anchor="middle" x="703" y="-231.44" font-family="Helvetica,sans-Serif" font-size="10.00">scram::core::Zbdd::Zbdd</text>
</a>
</g>
</g>
<!-- Node4&#45;&gt;Node5 -->
<g id="edge4" class="edge"><title>Node4&#45;&gt;Node5</title>
<path fill="none" stroke="midnightblue" d="M590.724,-310.304C593.605,-308.655 596.379,-306.871 599,-304.94 621.63,-288.267 612.135,-269.29 635,-252.94 640.409,-249.072 646.587,-245.989 652.953,-243.532"/>
<polygon fill="midnightblue" stroke="midnightblue" points="589.125,-307.191 581.811,-314.856 592.309,-313.425 589.125,-307.191"/>
</g>
<!-- Node6 -->
<g id="node6" class="node"><title>Node6</title>
<g id="a_node6"><a xlink:href="classscram_1_1core_1_1zbdd_1_1CutSetContainer.xhtml#a1022ad7a4699257a6f0c0809d8f1903d" target="_top" xlink:title="Removes constant modules from cut sets. ">
<polygon fill="white" stroke="black" points="635,-322.44 635,-363.44 771,-363.44 771,-322.44 635,-322.44"/>
<text text-anchor="start" x="643" y="-351.44" font-family="Helvetica,sans-Serif" font-size="10.00">scram::core::zbdd::</text>
<text text-anchor="start" x="643" y="-340.44" font-family="Helvetica,sans-Serif" font-size="10.00">CutSetContainer::Eliminate</text>
<text text-anchor="middle" x="703" y="-329.44" font-family="Helvetica,sans-Serif" font-size="10.00">ConstantModules</text>
</a>
</g>
</g>
<!-- Node4&#45;&gt;Node6 -->
<g id="edge5" class="edge"><title>Node4&#45;&gt;Node6</title>
<path fill="none" stroke="midnightblue" d="M595.908,-335.382C608.841,-336.304 622.182,-337.254 634.855,-338.157"/>
<polygon fill="midnightblue" stroke="midnightblue" points="595.868,-331.871 585.645,-334.651 595.371,-338.853 595.868,-331.871"/>
</g>
<!-- Node7&#45;&gt;Node5 -->
<g id="edge7" class="edge"><title>Node7&#45;&gt;Node5</title>
<path fill="none" stroke="midnightblue" d="M393.791,-27.0073C445.996,-6.45509 536.096,18.5146 599,-20.9397 674.859,-68.5193 696.212,-189.524 700.88,-224.398"/>
<polygon fill="midnightblue" stroke="midnightblue" points="392.45,-23.7742 384.499,-30.7769 395.081,-30.2607 392.45,-23.7742"/>
</g>
<!-- Node8 -->
<g id="node8" class="node"><title>Node8</title>
<g id="a_node8"><a xlink:href="classscram_1_1core_1_1zbdd_1_1CutSetContainer.xhtml#a478c89f64731781882b50ec55898900b" target="_top" xlink:title="Gathers all module indices in the cut sets. ">
<polygon fill="white" stroke="black" points="438,-30.9397 438,-60.9397 599,-60.9397 599,-30.9397 438,-30.9397"/>
<text text-anchor="start" x="446" y="-48.9397" font-family="Helvetica,sans-Serif" font-size="10.00">scram::core::zbdd::</text>
<text text-anchor="middle" x="518.5" y="-37.9397" font-family="Helvetica,sans-Serif" font-size="10.00">CutSetContainer::GatherModules</text>
</a>
</g>
</g>
<!-- Node7&#45;&gt;Node8 -->
<g id="edge8" class="edge"><title>Node7&#45;&gt;Node8</title>
<path fill="none" stroke="midnightblue" d="M412.14,-45.9397C420.525,-45.9397 429.245,-45.9397 437.919,-45.9397"/>
<polygon fill="midnightblue" stroke="midnightblue" points="412.105,-42.4398 402.105,-45.9397 412.105,-49.4398 412.105,-42.4398"/>
</g>
<!-- Node9&#45;&gt;Node4 -->
<g id="edge16" class="edge"><title>Node9&#45;&gt;Node4</title>
<path fill="none" stroke="midnightblue" d="M391.173,-235.795C395.037,-238.613 398.731,-241.67 402,-244.94 423.99,-266.93 413.577,-285.688 438,-304.94 442.886,-308.791 448.374,-312.054 454.123,-314.817"/>
<polygon fill="midnightblue" stroke="midnightblue" points="392.802,-232.674 382.544,-230.022 388.909,-238.492 392.802,-232.674"/>
</g>
<!-- Node9&#45;&gt;Node5 -->
<g id="edge11" class="edge"><title>Node9&#45;&gt;Node5</title>
<path fill="none" stroke="midnightblue" d="M412.467,-218.222C476.359,-221.691 576.571,-227.131 640.756,-230.615"/>
<polygon fill="midnightblue" stroke="midnightblue" points="412.322,-214.709 402.146,-217.662 411.942,-221.699 412.322,-214.709"/>
</g>
<!-- Node10 -->
<g id="node10" class="node"><title>Node10</title>
<g id="a_node10"><a xlink:href="classscram_1_1core_1_1Zbdd.xhtml#a77945d28bd832d2735969d0b0a451c78" target="_top" xlink:title="Runs the analysis with the representation of a Boolean graph as ZBDD. ">
<polygon fill="white" stroke="black" points="467.5,-177.94 467.5,-207.94 569.5,-207.94 569.5,-177.94 467.5,-177.94"/>
<text text-anchor="start" x="475.5" y="-195.94" font-family="Helvetica,sans-Serif" font-size="10.00">scram::core::Zbdd::</text>
<text text-anchor="middle" x="518.5" y="-184.94" font-family="Helvetica,sans-Serif" font-size="10.00">Analyze</text>
</a>
</g>
</g>
<!-- Node9&#45;&gt;Node10 -->
<g id="edge10" class="edge"><title>Node9&#45;&gt;Node10</title>
<path fill="none" stroke="midnightblue" d="M412.246,-206.931C430.314,-204.529 449.932,-201.922 467.28,-199.615"/>
<polygon fill="midnightblue" stroke="midnightblue" points="411.556,-203.492 402.105,-208.279 412.479,-210.431 411.556,-203.492"/>
</g>
<!-- Node11 -->
<g id="node11" class="node"><title>Node11</title>
<g id="a_node11"><a xlink:href="classscram_1_1core_1_1Zbdd.xhtml#a499a8bc4bc3854e7b2928c08515243cf" target="_top" xlink:title="Specialization of Apply for AND operator for non&#45;terminal ZBDD vertices. ">
<polygon fill="white" stroke="black" points="467.5,-128.94 467.5,-158.94 569.5,-158.94 569.5,-128.94 467.5,-128.94"/>
<text text-anchor="start" x="475.5" y="-146.94" font-family="Helvetica,sans-Serif" font-size="10.00">scram::core::Zbdd::</text>
<text text-anchor="middle" x="518.5" y="-135.94" font-family="Helvetica,sans-Serif" font-size="10.00">Apply</text>
</a>
</g>
</g>
<!-- Node9&#45;&gt;Node11 -->
<g id="edge12" class="edge"><title>Node9&#45;&gt;Node11</title>
<path fill="none" stroke="midnightblue" d="M385.298,-194.64C400.924,-185.667 420.027,-175.468 438,-167.94 447.308,-164.041 457.47,-160.479 467.323,-157.363"/>
<polygon fill="midnightblue" stroke="midnightblue" points="383.409,-191.69 376.535,-199.752 386.936,-197.736 383.409,-191.69"/>
</g>
<!-- Node12 -->
<g id="node12" class="node"><title>Node12</title>
<g id="a_node12"><a xlink:href="classscram_1_1core_1_1Zbdd.xhtml#ac3ac27090b550d973b20bd971c3de9f9" target="_top" xlink:title="Removes complements of variables from products. ">
<polygon fill="white" stroke="black" points="459.5,-265.94 459.5,-295.94 577.5,-295.94 577.5,-265.94 459.5,-265.94"/>
<text text-anchor="start" x="467.5" y="-283.94" font-family="Helvetica,sans-Serif" font-size="10.00">scram::core::Zbdd::</text>
<text text-anchor="middle" x="518.5" y="-272.94" font-family="Helvetica,sans-Serif" font-size="10.00">EliminateComplements</text>
</a>
</g>
</g>
<!-- Node9&#45;&gt;Node12 -->
<g id="edge13" class="edge"><title>Node9&#45;&gt;Node12</title>
<path fill="none" stroke="midnightblue" d="M396.814,-234.054C410.038,-239.598 424.567,-245.595 438,-250.94 450.474,-255.902 464.125,-261.127 476.54,-265.801"/>
<polygon fill="midnightblue" stroke="midnightblue" points="398.024,-230.766 387.449,-230.113 395.308,-237.218 398.024,-230.766"/>
</g>
<!-- Node14 -->
<g id="node14" class="node"><title>Node14</title>
<g id="a_node14"><a xlink:href="classscram_1_1core_1_1zbdd_1_1CutSetContainer.xhtml#a1648d3f24a95302fac2a40e95f743dda" target="_top" xlink:title="Minimizes cut sets in the container. ">
<polygon fill="white" stroke="black" points="451.5,-79.9397 451.5,-109.94 585.5,-109.94 585.5,-79.9397 451.5,-79.9397"/>
<text text-anchor="start" x="459.5" y="-97.9397" font-family="Helvetica,sans-Serif" font-size="10.00">scram::core::zbdd::</text>
<text text-anchor="middle" x="518.5" y="-86.9397" font-family="Helvetica,sans-Serif" font-size="10.00">CutSetContainer::Minimize</text>
</a>
</g>
</g>
<!-- Node9&#45;&gt;Node14 -->
<g id="edge17" class="edge"><title>Node9&#45;&gt;Node14</title>
<path fill="none" stroke="midnightblue" d="M367.503,-191.204C382.912,-169.41 408.466,-137.734 438,-118.94 443.352,-115.534 449.212,-112.59 455.249,-110.049"/>
<polygon fill="midnightblue" stroke="midnightblue" points="364.517,-189.369 361.728,-199.59 370.282,-193.339 364.517,-189.369"/>
</g>
<!-- Node12&#45;&gt;Node5 -->
<g id="edge14" class="edge"><title>Node12&#45;&gt;Node5</title>
<path fill="none" stroke="midnightblue" d="M587.632,-263.393C613.826,-256.647 642.741,-249.201 664.943,-243.483"/>
<polygon fill="midnightblue" stroke="midnightblue" points="586.557,-260.056 577.746,-265.939 588.303,-266.835 586.557,-260.056"/>
</g>
<!-- Node13 -->
<g id="node13" class="node"><title>Node13</title>
<g id="a_node13"><a xlink:href="classscram_1_1core_1_1zbdd_1_1CutSetContainer.xhtml#a49532388bd9b917f4351f94f728518aa" target="_top" xlink:title="Eliminates all complements from cut sets. ">
<polygon fill="white" stroke="black" points="635,-262.44 635,-303.44 771,-303.44 771,-262.44 635,-262.44"/>
<text text-anchor="start" x="643" y="-291.44" font-family="Helvetica,sans-Serif" font-size="10.00">scram::core::zbdd::</text>
<text text-anchor="start" x="643" y="-280.44" font-family="Helvetica,sans-Serif" font-size="10.00">CutSetContainer::Eliminate</text>
<text text-anchor="middle" x="703" y="-269.44" font-family="Helvetica,sans-Serif" font-size="10.00">Complements</text>
</a>
</g>
</g>
<!-- Node12&#45;&gt;Node13 -->
<g id="edge15" class="edge"><title>Node12&#45;&gt;Node13</title>
<path fill="none" stroke="midnightblue" d="M588.145,-281.692C603.408,-281.859 619.57,-282.036 634.775,-282.203"/>
<polygon fill="midnightblue" stroke="midnightblue" points="587.784,-278.188 577.746,-281.578 587.707,-285.187 587.784,-278.188"/>
</g>
</g>
</svg>
