<?xml version="1.0" encoding="UTF-8" standalone="no"?>
<!DOCTYPE svg PUBLIC "-//W3C//DTD SVG 1.1//EN"
 "http://www.w3.org/Graphics/SVG/1.1/DTD/svg11.dtd">
<!-- Generated by graphviz version 2.38.0 (20140413.2041)
 -->
<!-- Title: scram::mef::GlmExpression Pages: 1 -->
<svg width="147pt" height="408pt"
 viewBox="0.00 0.00 147.00 408.00" xmlns="http://www.w3.org/2000/svg" xmlns:xlink="http://www.w3.org/1999/xlink">
<g id="graph0" class="graph" transform="scale(1 1) rotate(0) translate(4 404)">
<title>scram::mef::GlmExpression</title>
<polygon fill="white" stroke="none" points="-4,4 -4,-404 143,-404 143,4 -4,4"/>
<!-- Node1 -->
<g id="node1" class="node"><title>Node1</title>
<polygon fill="#bfbfbf" stroke="black" points="0,-0.5 0,-101.5 139,-101.5 139,-0.5 0,-0.5"/>
<text text-anchor="middle" x="69.5" y="-89.5" font-family="Helvetica,sans-Serif" font-size="10.00">scram::mef::GlmExpression</text>
<polyline fill="none" stroke="black" points="0,-82.5 139,-82.5 "/>
<text text-anchor="middle" x="69.5" y="-70.5" font-family="Helvetica,sans-Serif" font-size="10.00"> </text>
<polyline fill="none" stroke="black" points="0,-63.5 139,-63.5 "/>
<text text-anchor="start" x="8" y="-51.5" font-family="Helvetica,sans-Serif" font-size="10.00">+ GlmExpression()</text>
<text text-anchor="start" x="8" y="-40.5" font-family="Helvetica,sans-Serif" font-size="10.00">+ Validate()</text>
<text text-anchor="start" x="8" y="-29.5" font-family="Helvetica,sans-Serif" font-size="10.00">+ Mean()</text>
<text text-anchor="start" x="8" y="-18.5" font-family="Helvetica,sans-Serif" font-size="10.00">+ Max()</text>
<text text-anchor="start" x="8" y="-7.5" font-family="Helvetica,sans-Serif" font-size="10.00">+ Min()</text>
</g>
<!-- Node2 -->
<g id="node2" class="node"><title>Node2</title>
<g id="a_node2"><a xlink:href="classscram_1_1mef_1_1Expression.xhtml" target="_top" xlink:title="Abstract base class for all sorts of expressions to describe events. ">
<polygon fill="white" stroke="black" points="9,-138.5 9,-305.5 130,-305.5 130,-138.5 9,-138.5"/>
<text text-anchor="middle" x="69.5" y="-293.5" font-family="Helvetica,sans-Serif" font-size="10.00">scram::mef::Expression</text>
<polyline fill="none" stroke="black" points="9,-286.5 130,-286.5 "/>
<text text-anchor="middle" x="69.5" y="-274.5" font-family="Helvetica,sans-Serif" font-size="10.00"> </text>
<polyline fill="none" stroke="black" points="9,-267.5 130,-267.5 "/>
<text text-anchor="start" x="17" y="-255.5" font-family="Helvetica,sans-Serif" font-size="10.00">+ Expression()</text>
<text text-anchor="start" x="17" y="-244.5" font-family="Helvetica,sans-Serif" font-size="10.00">+ ~Expression()</text>
<text text-anchor="start" x="17" y="-233.5" font-family="Helvetica,sans-Serif" font-size="10.00">+ args()</text>
<text text-anchor="start" x="17" y="-222.5" font-family="Helvetica,sans-Serif" font-size="10.00">+ Validate()</text>
<text text-anchor="start" x="17" y="-211.5" font-family="Helvetica,sans-Serif" font-size="10.00">+ Mean()</text>
<text text-anchor="start" x="17" y="-200.5" font-family="Helvetica,sans-Serif" font-size="10.00">+ Sample()</text>
<text text-anchor="start" x="17" y="-189.5" font-family="Helvetica,sans-Serif" font-size="10.00">+ Reset()</text>
<text text-anchor="start" x="17" y="-178.5" font-family="Helvetica,sans-Serif" font-size="10.00">+ IsConstant()</text>
<text text-anchor="start" x="17" y="-167.5" font-family="Helvetica,sans-Serif" font-size="10.00">+ Max()</text>
<text text-anchor="start" x="17" y="-156.5" font-family="Helvetica,sans-Serif" font-size="10.00">+ Min()</text>
<text text-anchor="start" x="17" y="-145.5" font-family="Helvetica,sans-Serif" font-size="10.00"># AddArg()</text>
</a>
</g>
</g>
<!-- Node2&#45;&gt;Node1 -->
<g id="edge1" class="edge"><title>Node2&#45;&gt;Node1</title>
<path fill="none" stroke="midnightblue" d="M69.5,-128.473C69.5,-119.279 69.5,-110.211 69.5,-101.713"/>
<polygon fill="none" stroke="midnightblue" points="66.0001,-128.48 69.5,-138.48 73.0001,-128.48 66.0001,-128.48"/>
</g>
<!-- Node3 -->
<g id="node3" class="node"><title>Node3</title>
<polygon fill="white" stroke="#bfbfbf" points="34,-342.5 34,-399.5 105,-399.5 105,-342.5 34,-342.5"/>
<text text-anchor="middle" x="69.5" y="-387.5" font-family="Helvetica,sans-Serif" font-size="10.00">noncopyable</text>
<polyline fill="none" stroke="#bfbfbf" points="34,-380.5 105,-380.5 "/>
<text text-anchor="middle" x="69.5" y="-368.5" font-family="Helvetica,sans-Serif" font-size="10.00"> </text>
<polyline fill="none" stroke="#bfbfbf" points="34,-361.5 105,-361.5 "/>
<text text-anchor="middle" x="69.5" y="-349.5" font-family="Helvetica,sans-Serif" font-size="10.00"> </text>
</g>
<!-- Node3&#45;&gt;Node2 -->
<g id="edge2" class="edge"><title>Node3&#45;&gt;Node2</title>
<path fill="none" stroke="#8b1a1a" d="M69.5,-332.35C69.5,-324.08 69.5,-315.008 69.5,-305.738"/>
<polygon fill="none" stroke="#8b1a1a" points="66.0001,-332.35 69.5,-342.35 73.0001,-332.35 66.0001,-332.35"/>
</g>
</g>
</svg>
