<?xml version="1.0" encoding="UTF-8" standalone="no"?>
<!DOCTYPE svg PUBLIC "-//W3C//DTD SVG 1.1//EN"
 "http://www.w3.org/Graphics/SVG/1.1/DTD/svg11.dtd">
<!-- Generated by graphviz version 2.38.0 (20140413.2041)
 -->
<!-- Title: scram::core::Preprocessor::FindModules Pages: 1 -->
<svg width="644pt" height="157pt"
 viewBox="0.00 0.00 644.00 156.72" xmlns="http://www.w3.org/2000/svg" xmlns:xlink="http://www.w3.org/1999/xlink">
<g id="graph0" class="graph" transform="scale(1 1) rotate(0) translate(4 152.721)">
<title>scram::core::Preprocessor::FindModules</title>
<polygon fill="white" stroke="none" points="-4,4 -4,-152.721 640,-152.721 640,4 -4,4"/>
<!-- Node1 -->
<g id="node1" class="node"><title>Node1</title>
<polygon fill="#bfbfbf" stroke="black" points="0,-73.5 0,-103.5 132,-103.5 132,-73.5 0,-73.5"/>
<text text-anchor="start" x="8" y="-91.5" font-family="Helvetica,sans-Serif" font-size="10.00">scram::core::Preprocessor</text>
<text text-anchor="middle" x="66" y="-80.5" font-family="Helvetica,sans-Serif" font-size="10.00">::FindModules</text>
</g>
<!-- Node2 -->
<g id="node2" class="node"><title>Node2</title>
<g id="a_node2"><a xlink:href="classscram_1_1core_1_1Preprocessor.xhtml#a4e97ffcda9c98ffc5aff93214f827c18" target="_top" xlink:title="Processes gate arguments found during the module detection. ">
<polygon fill="white" stroke="black" points="168,-73.5 168,-103.5 300,-103.5 300,-73.5 168,-73.5"/>
<text text-anchor="start" x="176" y="-91.5" font-family="Helvetica,sans-Serif" font-size="10.00">scram::core::Preprocessor</text>
<text text-anchor="middle" x="234" y="-80.5" font-family="Helvetica,sans-Serif" font-size="10.00">::ProcessModularArgs</text>
</a>
</g>
</g>
<!-- Node1&#45;&gt;Node2 -->
<g id="edge1" class="edge"><title>Node1&#45;&gt;Node2</title>
<path fill="none" stroke="midnightblue" d="M132.131,-88.5C140.461,-88.5 149.044,-88.5 157.521,-88.5"/>
<polygon fill="midnightblue" stroke="midnightblue" points="157.784,-92.0001 167.784,-88.5 157.784,-85.0001 157.784,-92.0001"/>
</g>
<!-- Node3 -->
<g id="node3" class="node"><title>Node3</title>
<g id="a_node3"><a xlink:href="classscram_1_1core_1_1Preprocessor.xhtml#a434534b6a7c3fccc82c073e6aced90b1" target="_top" xlink:title="Creates a new module as an argument of an existing gate if the logic of the existing parent gate allo...">
<polygon fill="white" stroke="black" points="504,-71.5 504,-101.5 636,-101.5 636,-71.5 504,-71.5"/>
<text text-anchor="start" x="512" y="-89.5" font-family="Helvetica,sans-Serif" font-size="10.00">scram::core::Preprocessor</text>
<text text-anchor="middle" x="570" y="-78.5" font-family="Helvetica,sans-Serif" font-size="10.00">::CreateNewModule</text>
</a>
</g>
</g>
<!-- Node2&#45;&gt;Node3 -->
<g id="edge2" class="edge"><title>Node2&#45;&gt;Node3</title>
<path fill="none" stroke="midnightblue" d="M257.91,-103.679C277.659,-115.797 307.423,-131.814 336,-138.5 393.124,-151.866 410.983,-152.316 468,-138.5 493.317,-132.365 519.396,-118.719 538.711,-106.945"/>
<polygon fill="midnightblue" stroke="midnightblue" points="540.736,-109.806 547.349,-101.529 537.017,-103.875 540.736,-109.806"/>
</g>
<!-- Node4 -->
<g id="node4" class="node"><title>Node4</title>
<g id="a_node4"><a xlink:href="classscram_1_1core_1_1Preprocessor.xhtml#aa65bdffb78291a0e41a34d34bf3fa198" target="_top" xlink:title="Checks if a group of modular arguments share anything with non&#45;modular arguments. ...">
<polygon fill="white" stroke="black" points="336,-98.5 336,-128.5 468,-128.5 468,-98.5 336,-98.5"/>
<text text-anchor="start" x="344" y="-116.5" font-family="Helvetica,sans-Serif" font-size="10.00">scram::core::Preprocessor</text>
<text text-anchor="middle" x="402" y="-105.5" font-family="Helvetica,sans-Serif" font-size="10.00">::FilterModularArgs</text>
</a>
</g>
</g>
<!-- Node2&#45;&gt;Node4 -->
<g id="edge3" class="edge"><title>Node2&#45;&gt;Node4</title>
<path fill="none" stroke="midnightblue" d="M300.131,-98.3089C308.553,-99.5773 317.232,-100.884 325.8,-102.175"/>
<polygon fill="midnightblue" stroke="midnightblue" points="325.374,-105.65 335.784,-103.678 326.417,-98.7281 325.374,-105.65"/>
</g>
<!-- Node5 -->
<g id="node5" class="node"><title>Node5</title>
<g id="a_node5"><a xlink:href="classscram_1_1core_1_1Preprocessor.xhtml#a5c10e807e558b06a1573c08ed13e205e" target="_top" xlink:title="Groups modular arguments by their common elements. ">
<polygon fill="white" stroke="black" points="336,-49.5 336,-79.5 468,-79.5 468,-49.5 336,-49.5"/>
<text text-anchor="start" x="344" y="-67.5" font-family="Helvetica,sans-Serif" font-size="10.00">scram::core::Preprocessor</text>
<text text-anchor="middle" x="402" y="-56.5" font-family="Helvetica,sans-Serif" font-size="10.00">::GroupModularArgs</text>
</a>
</g>
</g>
<!-- Node2&#45;&gt;Node5 -->
<g id="edge4" class="edge"><title>Node2&#45;&gt;Node5</title>
<path fill="none" stroke="midnightblue" d="M300.131,-79.0834C308.553,-77.8658 317.232,-76.611 325.8,-75.3723"/>
<polygon fill="midnightblue" stroke="midnightblue" points="326.388,-78.8238 335.784,-73.9288 325.386,-71.8958 326.388,-78.8238"/>
</g>
<!-- Node6 -->
<g id="node6" class="node"><title>Node6</title>
<g id="a_node6"><a xlink:href="classscram_1_1core_1_1Preprocessor.xhtml#affe78b1e830afb73585affe0ada477be" target="_top" xlink:title="Creates new module gates from groups of modular arguments if the logic of the parent gate allows sub&#45;...">
<polygon fill="white" stroke="black" points="336,-0.5 336,-30.5 468,-30.5 468,-0.5 336,-0.5"/>
<text text-anchor="start" x="344" y="-18.5" font-family="Helvetica,sans-Serif" font-size="10.00">scram::core::Preprocessor</text>
<text text-anchor="middle" x="402" y="-7.5" font-family="Helvetica,sans-Serif" font-size="10.00">::CreateNewModules</text>
</a>
</g>
</g>
<!-- Node2&#45;&gt;Node6 -->
<g id="edge5" class="edge"><title>Node2&#45;&gt;Node6</title>
<path fill="none" stroke="midnightblue" d="M265.22,-73.3947C285.145,-63.6199 311.915,-50.8368 336,-40.5 340.739,-38.4659 345.704,-36.4156 350.687,-34.4109"/>
<polygon fill="midnightblue" stroke="midnightblue" points="352.23,-37.5645 360.239,-30.6284 349.653,-31.0562 352.23,-37.5645"/>
</g>
<!-- Node6&#45;&gt;Node3 -->
<g id="edge6" class="edge"><title>Node6&#45;&gt;Node3</title>
<path fill="none" stroke="midnightblue" d="M443.372,-30.5942C451.559,-33.7767 460.084,-37.1787 468,-40.5 487.82,-48.8162 509.545,-58.6194 527.751,-67.0346"/>
<polygon fill="midnightblue" stroke="midnightblue" points="526.379,-70.2561 536.923,-71.2935 529.327,-63.9072 526.379,-70.2561"/>
</g>
</g>
</svg>
