<?xml version="1.0" encoding="UTF-8" standalone="no"?>
<!DOCTYPE svg PUBLIC "-//W3C//DTD SVG 1.1//EN"
 "http://www.w3.org/Graphics/SVG/1.1/DTD/svg11.dtd">
<!-- Generated by graphviz version 2.38.0 (20140413.2041)
 -->
<!-- Title: scram::core::Preprocessor::RunPhaseFour Pages: 1 -->
<!--zoomable 734 -->
<svg id="main" version="1.1" xmlns="http://www.w3.org/2000/svg" xmlns:xlink="http://www.w3.org/1999/xlink" xml:space="preserve" onload="init(evt)">
<style type="text/css"><![CDATA[
.edge:hover path { stroke: red; }
.edge:hover polygon { stroke: red; fill: red; }
]]></style>
<script type="text/javascript"><![CDATA[
var edges = document.getElementsByTagName('g');
if (edges && edges.length) {
  for (var i=0;i<edges.length;i++) {
    if (edges[i].id.substr(0,4)=='edge') {
      edges[i].setAttribute('class','edge');
    }
  }
}
]]></script>
        <defs>
                <circle id="rim" cx="0" cy="0" r="7"/>
                <circle id="rim2" cx="0" cy="0" r="3.5"/>
                <g id="zoomPlus">
                        <use xlink:href="#rim" fill="#404040">
                                <set attributeName="fill" to="#808080" begin="zoomplus.mouseover" end="zoomplus.mouseout"/>
                        </use>
                        <path d="M-4,0h8M0,-4v8" fill="none" stroke="white" stroke-width="1.5" pointer-events="none"/>
                </g>
                <g id="zoomMin">
                        <use xlink:href="#rim" fill="#404040">
                                <set attributeName="fill" to="#808080" begin="zoomminus.mouseover" end="zoomminus.mouseout"/>
                        </use>
                        <path d="M-4,0h8" fill="none" stroke="white" stroke-width="1.5" pointer-events="none"/>
                </g>
                <g id="dirArrow">
                        <path fill="none" stroke="white" stroke-width="1.5" d="M0,-3.0v7 M-2.5,-0.5L0,-3.0L2.5,-0.5"/>
                </g>
               <g id="resetDef">
                       <use xlink:href="#rim2" fill="#404040">
                               <set attributeName="fill" to="#808080" begin="reset.mouseover" end="reset.mouseout"/>
                       </use>
               </g>
        </defs>

<script type="text/javascript">
var viewWidth = 1174;
var viewHeight = 734;
var sectionId = 'dynsection-9';
</script>
<script xlink:href="svgpan.js"/>
<svg id="graph" class="graph">
<g id="viewport">
<title>scram::core::Preprocessor::RunPhaseFour</title>
<polygon fill="white" stroke="none" points="-4,4 -4,-730 1170,-730 1170,4 -4,4"/>
<!-- Node1 -->
<g id="node1" class="node"><title>Node1</title>
<polygon fill="#bfbfbf" stroke="black" points="0,-615.5 0,-645.5 132,-645.5 132,-615.5 0,-615.5"/>
<text text-anchor="start" x="8" y="-633.5" font-family="Helvetica,sans-Serif" font-size="10.00">scram::core::Preprocessor</text>
<text text-anchor="middle" x="66" y="-622.5" font-family="Helvetica,sans-Serif" font-size="10.00">::RunPhaseFour</text>
</g>
<!-- Node2 -->
<g id="node2" class="node"><title>Node2</title>
<g id="a_node2"><a xlink:href="classscram_1_1core_1_1Preprocessor.xhtml#a3f1b4becb281bc02b61e8f72595a0666" target="_top" xlink:title="Checks the root gate of the graph for further processing. ">
<polygon fill="white" stroke="black" points="341.5,-684.5 341.5,-714.5 473.5,-714.5 473.5,-684.5 341.5,-684.5"/>
<text text-anchor="start" x="349.5" y="-702.5" font-family="Helvetica,sans-Serif" font-size="10.00">scram::core::Preprocessor</text>
<text text-anchor="middle" x="407.5" y="-691.5" font-family="Helvetica,sans-Serif" font-size="10.00">::CheckRootGate</text>
</a>
</g>
</g>
<!-- Node1&#45;&gt;Node2 -->
<g id="edge1" class="edge"><title>Node1&#45;&gt;Node2</title>
<path fill="none" stroke="midnightblue" d="M128.319,-645.556C141.39,-648.629 155.132,-651.759 168,-654.5 222.425,-666.094 284.166,-677.701 331.192,-686.223"/>
<polygon fill="midnightblue" stroke="midnightblue" points="330.834,-689.715 341.297,-688.048 332.078,-682.826 330.834,-689.715"/>
</g>
<!-- Node3 -->
<g id="node3" class="node"><title>Node3</title>
<g id="a_node3"><a xlink:href="classscram_1_1core_1_1Preprocessor.xhtml#aff25812178063fd0f9bfd9a87cebb5af" target="_top" xlink:title="Propagates complements of argument gates down to leafs according to the De Morgan&#39;s law in order to r...">
<polygon fill="white" stroke="black" points="168,-615.5 168,-645.5 300,-645.5 300,-615.5 168,-615.5"/>
<text text-anchor="start" x="176" y="-633.5" font-family="Helvetica,sans-Serif" font-size="10.00">scram::core::Preprocessor</text>
<text text-anchor="middle" x="234" y="-622.5" font-family="Helvetica,sans-Serif" font-size="10.00">::PropagateComplements</text>
</a>
</g>
</g>
<!-- Node1&#45;&gt;Node3 -->
<g id="edge2" class="edge"><title>Node1&#45;&gt;Node3</title>
<path fill="none" stroke="midnightblue" d="M132.131,-630.5C140.461,-630.5 149.044,-630.5 157.521,-630.5"/>
<polygon fill="midnightblue" stroke="midnightblue" points="157.784,-634 167.784,-630.5 157.784,-627 157.784,-634"/>
</g>
<!-- Node4 -->
<g id="node4" class="node"><title>Node4</title>
<g id="a_node4"><a xlink:href="classscram_1_1core_1_1Preprocessor.xhtml#a9d5f89471499508eb9e6c01ea43e0f15" target="_top" xlink:title="Preprocessing phase of the original structure of the graph. ">
<polygon fill="white" stroke="black" points="168,-542.5 168,-572.5 300,-572.5 300,-542.5 168,-542.5"/>
<text text-anchor="start" x="176" y="-560.5" font-family="Helvetica,sans-Serif" font-size="10.00">scram::core::Preprocessor</text>
<text text-anchor="middle" x="234" y="-549.5" font-family="Helvetica,sans-Serif" font-size="10.00">::RunPhaseTwo</text>
</a>
</g>
</g>
<!-- Node1&#45;&gt;Node4 -->
<g id="edge3" class="edge"><title>Node1&#45;&gt;Node4</title>
<path fill="none" stroke="midnightblue" d="M101.395,-615.374C126.88,-604.167 161.805,-588.809 189.272,-576.73"/>
<polygon fill="midnightblue" stroke="midnightblue" points="190.904,-579.836 198.649,-572.606 188.086,-573.428 190.904,-579.836"/>
</g>
<!-- Node4&#45;&gt;Node2 -->
<g id="edge25" class="edge"><title>Node4&#45;&gt;Node2</title>
<path fill="none" stroke="midnightblue" d="M260.956,-572.707C273.839,-581.175 288.964,-592.603 300,-605.5 322.489,-631.781 309.889,-651.813 336,-674.5 337.93,-676.177 339.98,-677.744 342.12,-679.207"/>
<polygon fill="midnightblue" stroke="midnightblue" points="340.378,-682.243 350.76,-684.357 343.962,-676.231 340.378,-682.243"/>
</g>
<!-- Node5 -->
<g id="node5" class="node"><title>Node5</title>
<g id="a_node5"><a xlink:href="classscram_1_1core_1_1Preprocessor.xhtml#aebc709ad2e097c24e837889a6a9e4696" target="_top" xlink:title="Propagates failures of common nodes to detect redundancy. ">
<polygon fill="white" stroke="black" points="341.5,-411.5 341.5,-441.5 473.5,-441.5 473.5,-411.5 341.5,-411.5"/>
<text text-anchor="start" x="349.5" y="-429.5" font-family="Helvetica,sans-Serif" font-size="10.00">scram::core::Preprocessor</text>
<text text-anchor="middle" x="407.5" y="-418.5" font-family="Helvetica,sans-Serif" font-size="10.00">::BooleanOptimization</text>
</a>
</g>
</g>
<!-- Node4&#45;&gt;Node5 -->
<g id="edge4" class="edge"><title>Node4&#45;&gt;Node5</title>
<path fill="none" stroke="midnightblue" d="M254.673,-542.473C285.089,-519.239 343.649,-474.509 378.48,-447.903"/>
<polygon fill="midnightblue" stroke="midnightblue" points="380.97,-450.405 386.793,-441.553 376.721,-444.842 380.97,-450.405"/>
</g>
<!-- Node24 -->
<g id="node24" class="node"><title>Node24</title>
<g id="a_node24"><a xlink:href="classscram_1_1core_1_1Preprocessor.xhtml#a00288bef180767d7c79e3c79a33ef2d8" target="_top" xlink:title="Runs gate coalescence on the whole Boolean graph. ">
<polygon fill="white" stroke="black" points="341.5,-586.5 341.5,-616.5 473.5,-616.5 473.5,-586.5 341.5,-586.5"/>
<text text-anchor="start" x="349.5" y="-604.5" font-family="Helvetica,sans-Serif" font-size="10.00">scram::core::Preprocessor</text>
<text text-anchor="middle" x="407.5" y="-593.5" font-family="Helvetica,sans-Serif" font-size="10.00">::CoalesceGates</text>
</a>
</g>
</g>
<!-- Node4&#45;&gt;Node24 -->
<g id="edge26" class="edge"><title>Node4&#45;&gt;Node24</title>
<path fill="none" stroke="midnightblue" d="M293.541,-572.519C307.811,-576.18 323.203,-580.129 337.895,-583.899"/>
<polygon fill="midnightblue" stroke="midnightblue" points="337.376,-587.379 347.932,-586.474 339.115,-580.598 337.376,-587.379"/>
</g>
<!-- Node25 -->
<g id="node25" class="node"><title>Node25</title>
<g id="a_node25"><a xlink:href="classscram_1_1core_1_1Preprocessor.xhtml#ae12f3096132d7f6e9daa779724255f7e" target="_top" xlink:title="The Shannon decomposition for common nodes in the Boolean graph. ">
<polygon fill="white" stroke="black" points="336,-316.5 336,-346.5 479,-346.5 479,-316.5 336,-316.5"/>
<text text-anchor="start" x="344" y="-334.5" font-family="Helvetica,sans-Serif" font-size="10.00">scram::core::Preprocessor</text>
<text text-anchor="middle" x="407.5" y="-323.5" font-family="Helvetica,sans-Serif" font-size="10.00">::DecomposeCommonNodes</text>
</a>
</g>
</g>
<!-- Node4&#45;&gt;Node25 -->
<g id="edge28" class="edge"><title>Node4&#45;&gt;Node25</title>
<path fill="none" stroke="midnightblue" d="M243.462,-542.144C259.669,-513.3 296.963,-449.6 336,-401.5 349.94,-384.324 367.606,-366.789 381.767,-353.566"/>
<polygon fill="midnightblue" stroke="midnightblue" points="384.245,-356.042 389.228,-346.693 379.502,-350.894 384.245,-356.042"/>
</g>
<!-- Node27 -->
<g id="node27" class="node"><title>Node27</title>
<g id="a_node27"><a xlink:href="classscram_1_1core_1_1Preprocessor.xhtml#a4737f354474154b3cea9773c25616d27" target="_top" xlink:title="Detects and manipulates AND and OR gate distributivity for the whole graph. ">
<polygon fill="white" stroke="black" points="518.5,-529.5 518.5,-559.5 650.5,-559.5 650.5,-529.5 518.5,-529.5"/>
<text text-anchor="start" x="526.5" y="-547.5" font-family="Helvetica,sans-Serif" font-size="10.00">scram::core::Preprocessor</text>
<text text-anchor="middle" x="584.5" y="-536.5" font-family="Helvetica,sans-Serif" font-size="10.00">::DetectDistributivity</text>
</a>
</g>
</g>
<!-- Node4&#45;&gt;Node27 -->
<g id="edge31" class="edge"><title>Node4&#45;&gt;Node27</title>
<path fill="none" stroke="midnightblue" d="M300.06,-547.14C311.985,-545.624 324.344,-544.304 336,-543.5 393.63,-539.525 458.987,-540.001 508.062,-541.349"/>
<polygon fill="midnightblue" stroke="midnightblue" points="508.18,-544.854 518.278,-541.648 508.385,-537.857 508.18,-544.854"/>
</g>
<!-- Node28 -->
<g id="node28" class="node"><title>Node28</title>
<g id="a_node28"><a xlink:href="classscram_1_1core_1_1Preprocessor.xhtml#aa9856913eee7b854abfbe8d8330566d3" target="_top" xlink:title="Traverses the Boolean graph to detect modules. ">
<polygon fill="white" stroke="black" points="341.5,-267.5 341.5,-297.5 473.5,-297.5 473.5,-267.5 341.5,-267.5"/>
<text text-anchor="start" x="349.5" y="-285.5" font-family="Helvetica,sans-Serif" font-size="10.00">scram::core::Preprocessor</text>
<text text-anchor="middle" x="407.5" y="-274.5" font-family="Helvetica,sans-Serif" font-size="10.00">::DetectModules</text>
</a>
</g>
</g>
<!-- Node4&#45;&gt;Node28 -->
<g id="edge33" class="edge"><title>Node4&#45;&gt;Node28</title>
<path fill="none" stroke="midnightblue" d="M236.714,-542.362C242.402,-499.179 264.548,-374.164 336,-306.5 337.259,-305.308 338.579,-304.175 339.95,-303.099"/>
<polygon fill="midnightblue" stroke="midnightblue" points="341.927,-305.987 348.302,-297.525 338.041,-300.165 341.927,-305.987"/>
</g>
<!-- Node35 -->
<g id="node35" class="node"><title>Node35</title>
<g id="a_node35"><a xlink:href="classscram_1_1core_1_1Preprocessor.xhtml#ab97a52e27ad8bf7ed049ae1a764f8fba" target="_top" xlink:title="Identifies common arguments of gates, and merges the common arguments into new gates. ">
<polygon fill="white" stroke="black" points="341.5,-635.5 341.5,-665.5 473.5,-665.5 473.5,-635.5 341.5,-635.5"/>
<text text-anchor="start" x="349.5" y="-653.5" font-family="Helvetica,sans-Serif" font-size="10.00">scram::core::Preprocessor</text>
<text text-anchor="middle" x="407.5" y="-642.5" font-family="Helvetica,sans-Serif" font-size="10.00">::MergeCommonArgs</text>
</a>
</g>
</g>
<!-- Node4&#45;&gt;Node35 -->
<g id="edge42" class="edge"><title>Node4&#45;&gt;Node35</title>
<path fill="none" stroke="midnightblue" d="M254.214,-572.596C273.893,-587.525 305.795,-610.283 336,-625.5 340.269,-627.651 344.769,-629.7 349.344,-631.632"/>
<polygon fill="midnightblue" stroke="midnightblue" points="348.207,-634.948 358.791,-635.43 350.818,-628.453 348.207,-634.948"/>
</g>
<!-- Node36 -->
<g id="node36" class="node"><title>Node36</title>
<g id="a_node36"><a xlink:href="classscram_1_1core_1_1Preprocessor.xhtml#ac0abd7f5b54f98643644110b160569bd" target="_top" xlink:title="Detects and replaces multiple definitions of gates. ">
<polygon fill="white" stroke="black" points="515,-602.5 515,-632.5 654,-632.5 654,-602.5 515,-602.5"/>
<text text-anchor="start" x="523" y="-620.5" font-family="Helvetica,sans-Serif" font-size="10.00">scram::core::Preprocessor</text>
<text text-anchor="middle" x="584.5" y="-609.5" font-family="Helvetica,sans-Serif" font-size="10.00">::ProcessMultipleDefinitions</text>
</a>
</g>
</g>
<!-- Node4&#45;&gt;Node36 -->
<g id="edge43" class="edge"><title>Node4&#45;&gt;Node36</title>
<path fill="none" stroke="midnightblue" d="M300.003,-557.362C349.619,-558.502 419.369,-562.802 479,-576.5 500.773,-581.502 524.001,-590.245 543.014,-598.376"/>
<polygon fill="midnightblue" stroke="midnightblue" points="541.698,-601.621 552.263,-602.424 544.505,-595.208 541.698,-601.621"/>
</g>
<!-- Node6 -->
<g id="node6" class="node"><title>Node6</title>
<g id="a_node6"><a xlink:href="classscram_1_1core_1_1Preprocessor.xhtml#a394fb1b5b5f9ee31dc81ad8d64353ee3" target="_top" xlink:title="Traverses the graph to find nodes that have more than one parent. ">
<polygon fill="white" stroke="black" points="518.5,-316.5 518.5,-346.5 650.5,-346.5 650.5,-316.5 518.5,-316.5"/>
<text text-anchor="start" x="526.5" y="-334.5" font-family="Helvetica,sans-Serif" font-size="10.00">scram::core::Preprocessor</text>
<text text-anchor="middle" x="584.5" y="-323.5" font-family="Helvetica,sans-Serif" font-size="10.00">::GatherCommonNodes</text>
</a>
</g>
</g>
<!-- Node5&#45;&gt;Node6 -->
<g id="edge5" class="edge"><title>Node5&#45;&gt;Node6</title>
<path fill="none" stroke="midnightblue" d="M436.229,-411.447C466.093,-395.235 513.752,-369.363 546.727,-351.463"/>
<polygon fill="midnightblue" stroke="midnightblue" points="548.493,-354.487 555.611,-346.64 545.153,-348.335 548.493,-354.487"/>
</g>
<!-- Node9 -->
<g id="node9" class="node"><title>Node9</title>
<g id="a_node9"><a xlink:href="classscram_1_1core_1_1Preprocessor.xhtml#a4086c57695d49b4770915d5d53bd47de" target="_top" xlink:title="Tries to simplify the graph by removing redundancies generated by a common node. ">
<polygon fill="white" stroke="black" points="518.5,-411.5 518.5,-441.5 650.5,-441.5 650.5,-411.5 518.5,-411.5"/>
<text text-anchor="start" x="526.5" y="-429.5" font-family="Helvetica,sans-Serif" font-size="10.00">scram::core::Preprocessor</text>
<text text-anchor="middle" x="584.5" y="-418.5" font-family="Helvetica,sans-Serif" font-size="10.00">::ProcessCommonNode</text>
</a>
</g>
</g>
<!-- Node5&#45;&gt;Node9 -->
<g id="edge8" class="edge"><title>Node5&#45;&gt;Node9</title>
<path fill="none" stroke="midnightblue" d="M473.664,-426.5C484.938,-426.5 496.742,-426.5 508.257,-426.5"/>
<polygon fill="midnightblue" stroke="midnightblue" points="508.282,-430 518.282,-426.5 508.282,-423 508.282,-430"/>
</g>
<!-- Node7 -->
<g id="node7" class="node"><title>Node7</title>
<g id="a_node7"><a xlink:href="classscram_1_1core_1_1Gate.xhtml#aa793eeaa12244c5b39a0d80e5b1518ae" target="_top" xlink:title="scram::core::Gate::args">
<polygon fill="white" stroke="black" points="700,-128 700,-147 820,-147 820,-128 700,-128"/>
<text text-anchor="middle" x="760" y="-135" font-family="Helvetica,sans-Serif" font-size="10.00">scram::core::Gate::args</text>
</a>
</g>
</g>
<!-- Node6&#45;&gt;Node7 -->
<g id="edge6" class="edge"><title>Node6&#45;&gt;Node7</title>
<path fill="none" stroke="midnightblue" d="M641.982,-316.416C646.441,-313.648 650.546,-310.374 654,-306.5 699.628,-255.329 642.331,-205.776 690,-156.5 691.393,-155.06 692.884,-153.726 694.456,-152.49"/>
<polygon fill="midnightblue" stroke="midnightblue" points="696.357,-155.429 702.901,-147.097 692.589,-149.53 696.357,-155.429"/>
</g>
<!-- Node8 -->
<g id="node8" class="node"><title>Node8</title>
<g id="a_node8"><a xlink:href="classscram_1_1core_1_1Node.xhtml#a54799feee1f1e91f848d11f3918e3e88" target="_top" xlink:title="Registers the visit time for this node upon graph traversal. ">
<polygon fill="white" stroke="black" points="708,-166.5 708,-196.5 812,-196.5 812,-166.5 708,-166.5"/>
<text text-anchor="start" x="716" y="-184.5" font-family="Helvetica,sans-Serif" font-size="10.00">scram::core::Node::</text>
<text text-anchor="middle" x="760" y="-173.5" font-family="Helvetica,sans-Serif" font-size="10.00">Visit</text>
</a>
</g>
</g>
<!-- Node6&#45;&gt;Node8 -->
<g id="edge7" class="edge"><title>Node6&#45;&gt;Node8</title>
<path fill="none" stroke="midnightblue" d="M640.887,-316.403C645.686,-313.635 650.165,-310.364 654,-306.5 687.57,-272.676 656.174,-239.068 690,-205.5 692.678,-202.842 695.666,-200.478 698.855,-198.375"/>
<polygon fill="midnightblue" stroke="midnightblue" points="700.697,-201.354 707.692,-193.396 697.261,-195.255 700.697,-201.354"/>
</g>
<!-- Node10 -->
<g id="node10" class="node"><title>Node10</title>
<g id="a_node10"><a xlink:href="classscram_1_1core_1_1Preprocessor.xhtml#a3b83bc14261cee28f0e1553222b7d5e5" target="_top" xlink:title="Marks ancestor gates true. ">
<polygon fill="white" stroke="black" points="694,-411.5 694,-441.5 826,-441.5 826,-411.5 694,-411.5"/>
<text text-anchor="start" x="702" y="-429.5" font-family="Helvetica,sans-Serif" font-size="10.00">scram::core::Preprocessor</text>
<text text-anchor="middle" x="760" y="-418.5" font-family="Helvetica,sans-Serif" font-size="10.00">::MarkAncestors</text>
</a>
</g>
</g>
<!-- Node9&#45;&gt;Node10 -->
<g id="edge9" class="edge"><title>Node9&#45;&gt;Node10</title>
<path fill="none" stroke="midnightblue" d="M650.599,-426.5C661.421,-426.5 672.723,-426.5 683.771,-426.5"/>
<polygon fill="midnightblue" stroke="midnightblue" points="683.825,-430 693.825,-426.5 683.825,-423 683.825,-430"/>
</g>
<!-- Node11 -->
<g id="node11" class="node"><title>Node11</title>
<g id="a_node11"><a xlink:href="classscram_1_1core_1_1Preprocessor.xhtml#ae9a8bac98061d7f82633486ed6a36861" target="_top" xlink:title="Propagates failure or success of a common node by setting its ancestors&#39; optimization values to 1 or ...">
<polygon fill="white" stroke="black" points="694,-215.5 694,-245.5 826,-245.5 826,-215.5 694,-215.5"/>
<text text-anchor="start" x="702" y="-233.5" font-family="Helvetica,sans-Serif" font-size="10.00">scram::core::Preprocessor</text>
<text text-anchor="middle" x="760" y="-222.5" font-family="Helvetica,sans-Serif" font-size="10.00">::PropagateState</text>
</a>
</g>
</g>
<!-- Node9&#45;&gt;Node11 -->
<g id="edge10" class="edge"><title>Node9&#45;&gt;Node11</title>
<path fill="none" stroke="midnightblue" d="M604.044,-411.294C619.272,-397.959 640.463,-377.336 654,-355.5 679.109,-314.996 656.174,-288.068 690,-254.5 691.069,-253.439 692.187,-252.425 693.348,-251.456"/>
<polygon fill="midnightblue" stroke="midnightblue" points="695.386,-254.301 701.552,-245.685 691.359,-248.576 695.386,-254.301"/>
</g>
<!-- Node14 -->
<g id="node14" class="node"><title>Node14</title>
<g id="a_node14"><a xlink:href="classscram_1_1core_1_1Preprocessor.xhtml#a4539f18d3dde97514ca267b41d30d220" target="_top" xlink:title="Collects failure or success destinations and marks non&#45;redundant nodes. ">
<polygon fill="white" stroke="black" points="694,-362.5 694,-392.5 826,-392.5 826,-362.5 694,-362.5"/>
<text text-anchor="start" x="702" y="-380.5" font-family="Helvetica,sans-Serif" font-size="10.00">scram::core::Preprocessor</text>
<text text-anchor="middle" x="760" y="-369.5" font-family="Helvetica,sans-Serif" font-size="10.00">::CollectStateDestinations</text>
</a>
</g>
</g>
<!-- Node9&#45;&gt;Node14 -->
<g id="edge13" class="edge"><title>Node9&#45;&gt;Node14</title>
<path fill="none" stroke="midnightblue" d="M638.971,-411.399C657.031,-406.298 677.359,-400.557 696.081,-395.27"/>
<polygon fill="midnightblue" stroke="midnightblue" points="697.033,-398.638 705.705,-392.552 695.13,-391.901 697.033,-398.638"/>
</g>
<!-- Node15 -->
<g id="node15" class="node"><title>Node15</title>
<g id="a_node15"><a xlink:href="classscram_1_1core_1_1Preprocessor.xhtml#ad79145fdd5487ef0537728f74e6a94e4" target="_top" xlink:title="Detects if parents of a node are redundant. ">
<polygon fill="white" stroke="black" points="693,-313.5 693,-343.5 827,-343.5 827,-313.5 693,-313.5"/>
<text text-anchor="start" x="701" y="-331.5" font-family="Helvetica,sans-Serif" font-size="10.00">scram::core::Preprocessor</text>
<text text-anchor="middle" x="760" y="-320.5" font-family="Helvetica,sans-Serif" font-size="10.00">::CollectRedundantParents</text>
</a>
</g>
</g>
<!-- Node9&#45;&gt;Node15 -->
<g id="edge14" class="edge"><title>Node9&#45;&gt;Node15</title>
<path fill="none" stroke="midnightblue" d="M603.363,-411.461C623.403,-395.178 657.388,-369.29 690,-352.5 693.453,-350.722 697.068,-349.026 700.756,-347.418"/>
<polygon fill="midnightblue" stroke="midnightblue" points="702.108,-350.646 710.023,-343.604 699.444,-344.173 702.108,-350.646"/>
</g>
<!-- Node16 -->
<g id="node16" class="node"><title>Node16</title>
<g id="a_node16"><a xlink:href="classscram_1_1core_1_1Preprocessor.xhtml#a6edfe2a6d9836942944921a8de0c011e" target="_top" xlink:title="Detects if parents of a node are redundant. ">
<polygon fill="white" stroke="black" points="690,-264.5 690,-294.5 830,-294.5 830,-264.5 690,-264.5"/>
<text text-anchor="start" x="698" y="-282.5" font-family="Helvetica,sans-Serif" font-size="10.00">scram::core::Preprocessor</text>
<text text-anchor="middle" x="760" y="-271.5" font-family="Helvetica,sans-Serif" font-size="10.00">::ProcessRedundantParents</text>
</a>
</g>
</g>
<!-- Node9&#45;&gt;Node16 -->
<g id="edge15" class="edge"><title>Node9&#45;&gt;Node16</title>
<path fill="none" stroke="midnightblue" d="M601.495,-411.384C615.888,-397.451 637.281,-375.902 654,-355.5 671.817,-333.759 667.623,-320.511 690,-303.5 691.805,-302.128 693.694,-300.831 695.647,-299.604"/>
<polygon fill="midnightblue" stroke="midnightblue" points="697.504,-302.577 704.554,-294.668 694.111,-296.454 697.504,-302.577"/>
</g>
<!-- Node17 -->
<g id="node17" class="node"><title>Node17</title>
<g id="a_node17"><a xlink:href="classscram_1_1core_1_1Preprocessor.xhtml#aa42b66bb888f665bc68324cca15452ad" target="_top" xlink:title="Transforms failure or success destination according to the logic and the common node. ">
<polygon fill="white" stroke="black" points="691.5,-509.5 691.5,-539.5 828.5,-539.5 828.5,-509.5 691.5,-509.5"/>
<text text-anchor="start" x="699.5" y="-527.5" font-family="Helvetica,sans-Serif" font-size="10.00">scram::core::Preprocessor</text>
<text text-anchor="middle" x="760" y="-516.5" font-family="Helvetica,sans-Serif" font-size="10.00">::ProcessStateDestinations</text>
</a>
</g>
</g>
<!-- Node9&#45;&gt;Node17 -->
<g id="edge16" class="edge"><title>Node9&#45;&gt;Node17</title>
<path fill="none" stroke="midnightblue" d="M603.807,-441.53C623.959,-457.525 657.785,-482.782 690,-499.5 694.054,-501.604 698.325,-503.608 702.673,-505.5"/>
<polygon fill="midnightblue" stroke="midnightblue" points="701.682,-508.878 712.261,-509.458 704.353,-502.407 701.682,-508.878"/>
</g>
<!-- Node19 -->
<g id="node19" class="node"><title>Node19</title>
<g id="a_node19"><a xlink:href="classscram_1_1core_1_1Preprocessor.xhtml#a5eb477e9ecd0552b2b554d7df56df652" target="_top" xlink:title="Clears all the ancestor marks used in Boolean optimization steps. ">
<polygon fill="white" stroke="black" points="694,-460.5 694,-490.5 826,-490.5 826,-460.5 694,-460.5"/>
<text text-anchor="start" x="702" y="-478.5" font-family="Helvetica,sans-Serif" font-size="10.00">scram::core::Preprocessor</text>
<text text-anchor="middle" x="760" y="-467.5" font-family="Helvetica,sans-Serif" font-size="10.00">::ClearStateMarks</text>
</a>
</g>
</g>
<!-- Node9&#45;&gt;Node19 -->
<g id="edge18" class="edge"><title>Node9&#45;&gt;Node19</title>
<path fill="none" stroke="midnightblue" d="M638.971,-441.601C657.031,-446.702 677.359,-452.443 696.081,-457.73"/>
<polygon fill="midnightblue" stroke="midnightblue" points="695.13,-461.099 705.705,-460.448 697.033,-454.362 695.13,-461.099"/>
</g>
<!-- Node20 -->
<g id="node20" class="node"><title>Node20</title>
<g id="a_node20"><a xlink:href="classscram_1_1core_1_1Preprocessor.xhtml#ac3279b95fc83a2ae909c011de083d57e" target="_top" xlink:title="Clears all constant gates registered for removal by algorithms or other preprocessing functions...">
<polygon fill="white" stroke="black" points="694,-646.5 694,-676.5 826,-676.5 826,-646.5 694,-646.5"/>
<text text-anchor="start" x="702" y="-664.5" font-family="Helvetica,sans-Serif" font-size="10.00">scram::core::Preprocessor</text>
<text text-anchor="middle" x="760" y="-653.5" font-family="Helvetica,sans-Serif" font-size="10.00">::ClearConstGates</text>
</a>
</g>
</g>
<!-- Node9&#45;&gt;Node20 -->
<g id="edge19" class="edge"><title>Node9&#45;&gt;Node20</title>
<path fill="none" stroke="midnightblue" d="M598.143,-441.631C612.718,-459.507 636.864,-490.495 654,-519.5 673.421,-552.373 667.577,-566.597 690,-597.5 701.55,-613.419 717.495,-628.518 731.147,-640.048"/>
<polygon fill="midnightblue" stroke="midnightblue" points="728.924,-642.752 738.869,-646.404 733.372,-637.347 728.924,-642.752"/>
</g>
<!-- Node23 -->
<g id="node23" class="node"><title>Node23</title>
<g id="a_node23"><a xlink:href="classscram_1_1core_1_1Preprocessor.xhtml#ae483f228040c0d2422792c9cf0d05886" target="_top" xlink:title="Clears all NULL type gates registered for removal by algorithms or other preprocessing functions...">
<polygon fill="white" stroke="black" points="694,-558.5 694,-588.5 826,-588.5 826,-558.5 694,-558.5"/>
<text text-anchor="start" x="702" y="-576.5" font-family="Helvetica,sans-Serif" font-size="10.00">scram::core::Preprocessor</text>
<text text-anchor="middle" x="760" y="-565.5" font-family="Helvetica,sans-Serif" font-size="10.00">::ClearNullGates</text>
</a>
</g>
</g>
<!-- Node9&#45;&gt;Node23 -->
<g id="edge23" class="edge"><title>Node9&#45;&gt;Node23</title>
<path fill="none" stroke="midnightblue" d="M594.834,-441.846C611.119,-467.412 647.107,-518.836 690,-548.5 692.725,-550.384 695.608,-552.144 698.588,-553.784"/>
<polygon fill="midnightblue" stroke="midnightblue" points="697.254,-557.029 707.765,-558.355 700.374,-550.764 697.254,-557.029"/>
</g>
<!-- Node12 -->
<g id="node12" class="node"><title>Node12</title>
<g id="a_node12"><a xlink:href="classscram_1_1core_1_1Node.xhtml#a90ef93c4b0667215d2a8c3a3eb4f3822" target="_top" xlink:title="scram::core::Node::\lopti_value">
<polygon fill="white" stroke="black" points="880,-196.5 880,-226.5 984,-226.5 984,-196.5 880,-196.5"/>
<text text-anchor="start" x="888" y="-214.5" font-family="Helvetica,sans-Serif" font-size="10.00">scram::core::Node::</text>
<text text-anchor="middle" x="932" y="-203.5" font-family="Helvetica,sans-Serif" font-size="10.00">opti_value</text>
</a>
</g>
</g>
<!-- Node11&#45;&gt;Node12 -->
<g id="edge11" class="edge"><title>Node11&#45;&gt;Node12</title>
<path fill="none" stroke="midnightblue" d="M826.24,-223.208C840.556,-221.608 855.664,-219.92 869.813,-218.339"/>
<polygon fill="midnightblue" stroke="midnightblue" points="870.373,-221.798 879.922,-217.209 869.595,-214.841 870.373,-221.798"/>
</g>
<!-- Node13 -->
<g id="node13" class="node"><title>Node13</title>
<g id="a_node13"><a xlink:href="classscram_1_1core_1_1Preprocessor.xhtml#a019e679ad9077caac8c48253d42647ff" target="_top" xlink:title="Determines if a gate fails or succeeds due to failed/succeeded arguments. ">
<polygon fill="white" stroke="black" points="866,-245.5 866,-275.5 998,-275.5 998,-245.5 866,-245.5"/>
<text text-anchor="start" x="874" y="-263.5" font-family="Helvetica,sans-Serif" font-size="10.00">scram::core::Preprocessor</text>
<text text-anchor="middle" x="932" y="-252.5" font-family="Helvetica,sans-Serif" font-size="10.00">::DetermineGateState</text>
</a>
</g>
</g>
<!-- Node11&#45;&gt;Node13 -->
<g id="edge12" class="edge"><title>Node11&#45;&gt;Node13</title>
<path fill="none" stroke="midnightblue" d="M826.24,-242.013C836.002,-243.736 846.131,-245.523 856.074,-247.278"/>
<polygon fill="midnightblue" stroke="midnightblue" points="855.478,-250.727 865.934,-249.018 856.695,-243.833 855.478,-250.727"/>
</g>
<!-- Node18 -->
<g id="node18" class="node"><title>Node18</title>
<g id="a_node18"><a xlink:href="classscram_1_1core_1_1Preprocessor.xhtml#a26434bec1bc5a496f80c9cbad1ed3a62" target="_top" xlink:title="Replaces one gate in the graph with another. ">
<polygon fill="white" stroke="black" points="866,-517.5 866,-547.5 998,-547.5 998,-517.5 866,-517.5"/>
<text text-anchor="start" x="874" y="-535.5" font-family="Helvetica,sans-Serif" font-size="10.00">scram::core::Preprocessor</text>
<text text-anchor="middle" x="932" y="-524.5" font-family="Helvetica,sans-Serif" font-size="10.00">::ReplaceGate</text>
</a>
</g>
</g>
<!-- Node17&#45;&gt;Node18 -->
<g id="edge17" class="edge"><title>Node17&#45;&gt;Node18</title>
<path fill="none" stroke="midnightblue" d="M828.677,-527.685C837.557,-528.103 846.701,-528.533 855.698,-528.956"/>
<polygon fill="midnightblue" stroke="midnightblue" points="855.618,-532.456 865.771,-529.43 855.947,-525.464 855.618,-532.456"/>
</g>
<!-- Node21 -->
<g id="node21" class="node"><title>Node21</title>
<g id="a_node21"><a xlink:href="classscram_1_1core_1_1Preprocessor.xhtml#a4931fe17580d91b31d8c2077f64dc728" target="_top" xlink:title="Propagates a Boolean constant bottom&#45;up. ">
<polygon fill="white" stroke="black" points="866,-635.5 866,-665.5 998,-665.5 998,-635.5 866,-635.5"/>
<text text-anchor="start" x="874" y="-653.5" font-family="Helvetica,sans-Serif" font-size="10.00">scram::core::Preprocessor</text>
<text text-anchor="middle" x="932" y="-642.5" font-family="Helvetica,sans-Serif" font-size="10.00">::PropagateConstant</text>
</a>
</g>
</g>
<!-- Node20&#45;&gt;Node21 -->
<g id="edge20" class="edge"><title>Node20&#45;&gt;Node21</title>
<path fill="none" stroke="midnightblue" d="M826.24,-657.279C835.9,-656.654 845.92,-656.005 855.763,-655.368"/>
<polygon fill="midnightblue" stroke="midnightblue" points="856.181,-658.849 865.934,-654.71 855.729,-651.863 856.181,-658.849"/>
</g>
<!-- Node22 -->
<g id="node22" class="node"><title>Node22</title>
<g id="a_node22"><a xlink:href="classscram_1_1core_1_1Preprocessor.xhtml#a860e7142f3e0b33ca799f1d8218eb091" target="_top" xlink:title="Propagate NULL type gates bottom&#45;up. ">
<polygon fill="white" stroke="black" points="1034,-635.5 1034,-665.5 1166,-665.5 1166,-635.5 1034,-635.5"/>
<text text-anchor="start" x="1042" y="-653.5" font-family="Helvetica,sans-Serif" font-size="10.00">scram::core::Preprocessor</text>
<text text-anchor="middle" x="1100" y="-642.5" font-family="Helvetica,sans-Serif" font-size="10.00">::PropagateNullGate</text>
</a>
</g>
</g>
<!-- Node21&#45;&gt;Node22 -->
<g id="edge21" class="edge"><title>Node21&#45;&gt;Node22</title>
<path fill="none" stroke="midnightblue" d="M998.131,-643.891C1006.46,-643.758 1015.04,-643.719 1023.52,-643.775"/>
<polygon fill="midnightblue" stroke="midnightblue" points="1023.75,-647.277 1033.78,-643.89 1023.82,-640.278 1023.75,-647.277"/>
</g>
<!-- Node22&#45;&gt;Node21 -->
<g id="edge22" class="edge"><title>Node22&#45;&gt;Node21</title>
<path fill="none" stroke="midnightblue" d="M1033.78,-657.11C1025.45,-657.243 1016.87,-657.281 1008.39,-657.225"/>
<polygon fill="midnightblue" stroke="midnightblue" points="1008.17,-653.722 998.131,-657.109 1008.09,-660.722 1008.17,-653.722"/>
</g>
<!-- Node23&#45;&gt;Node22 -->
<g id="edge24" class="edge"><title>Node23&#45;&gt;Node22</title>
<path fill="none" stroke="midnightblue" d="M826.24,-587.325C873.903,-597.544 940.057,-611.975 998,-625.5 1008.2,-627.88 1018.96,-630.465 1029.5,-633.039"/>
<polygon fill="midnightblue" stroke="midnightblue" points="1028.97,-636.512 1039.52,-635.496 1030.64,-629.714 1028.97,-636.512"/>
</g>
<!-- Node24&#45;&gt;Node20 -->
<g id="edge27" class="edge"><title>Node24&#45;&gt;Node20</title>
<path fill="none" stroke="midnightblue" d="M454.604,-616.527C462.778,-619.381 471.174,-622.436 479,-625.5 495.304,-631.883 498.035,-637.168 515,-641.5 570.364,-655.637 634.869,-660.442 683.647,-661.817"/>
<polygon fill="midnightblue" stroke="midnightblue" points="683.727,-665.32 693.808,-662.06 683.895,-658.322 683.727,-665.32"/>
</g>
<!-- Node25&#45;&gt;Node6 -->
<g id="edge29" class="edge"><title>Node25&#45;&gt;Node6</title>
<path fill="none" stroke="midnightblue" d="M479.175,-331.5C488.649,-331.5 498.397,-331.5 507.951,-331.5"/>
<polygon fill="midnightblue" stroke="midnightblue" points="508.22,-335 518.22,-331.5 508.22,-328 508.22,-335"/>
</g>
<!-- Node26 -->
<g id="node26" class="node"><title>Node26</title>
<g id="a_node26"><a xlink:href="classscram_1_1core_1_1Preprocessor.xhtml#ac83a0afe1f22761907f2a017abd96268" target="_top" xlink:title="Traverses the given gate and assigns time of visit to nodes. ">
<polygon fill="white" stroke="black" points="518.5,-267.5 518.5,-297.5 650.5,-297.5 650.5,-267.5 518.5,-267.5"/>
<text text-anchor="start" x="526.5" y="-285.5" font-family="Helvetica,sans-Serif" font-size="10.00">scram::core::Preprocessor</text>
<text text-anchor="middle" x="584.5" y="-274.5" font-family="Helvetica,sans-Serif" font-size="10.00">::AssignTiming</text>
</a>
</g>
</g>
<!-- Node25&#45;&gt;Node26 -->
<g id="edge30" class="edge"><title>Node25&#45;&gt;Node26</title>
<path fill="none" stroke="midnightblue" d="M462.434,-316.399C480.65,-311.298 501.153,-305.557 520.037,-300.27"/>
<polygon fill="midnightblue" stroke="midnightblue" points="521.058,-303.618 529.744,-297.552 519.171,-296.878 521.058,-303.618"/>
</g>
<!-- Node27&#45;&gt;Node23 -->
<g id="edge32" class="edge"><title>Node27&#45;&gt;Node23</title>
<path fill="none" stroke="midnightblue" d="M650.599,-555.381C661.421,-557.19 672.723,-559.079 683.771,-560.926"/>
<polygon fill="midnightblue" stroke="midnightblue" points="683.385,-564.41 693.825,-562.606 684.539,-557.505 683.385,-564.41"/>
</g>
<!-- Node28&#45;&gt;Node26 -->
<g id="edge34" class="edge"><title>Node28&#45;&gt;Node26</title>
<path fill="none" stroke="midnightblue" d="M473.664,-282.5C484.938,-282.5 496.742,-282.5 508.257,-282.5"/>
<polygon fill="midnightblue" stroke="midnightblue" points="508.282,-286 518.282,-282.5 508.282,-279 508.282,-286"/>
</g>
<!-- Node29 -->
<g id="node29" class="node"><title>Node29</title>
<g id="a_node29"><a xlink:href="classscram_1_1core_1_1Preprocessor.xhtml#afbce0b5c45a445c3b70ae298b9518281" target="_top" xlink:title="Determines modules from original gates that have been already timed. ">
<polygon fill="white" stroke="black" points="518.5,-125.5 518.5,-155.5 650.5,-155.5 650.5,-125.5 518.5,-125.5"/>
<text text-anchor="start" x="526.5" y="-143.5" font-family="Helvetica,sans-Serif" font-size="10.00">scram::core::Preprocessor</text>
<text text-anchor="middle" x="584.5" y="-132.5" font-family="Helvetica,sans-Serif" font-size="10.00">::FindModules</text>
</a>
</g>
</g>
<!-- Node28&#45;&gt;Node29 -->
<g id="edge35" class="edge"><title>Node28&#45;&gt;Node29</title>
<path fill="none" stroke="midnightblue" d="M427.228,-267.304C458.411,-242.001 521.073,-191.155 556.85,-162.124"/>
<polygon fill="midnightblue" stroke="midnightblue" points="559.347,-164.606 564.907,-155.587 554.936,-159.17 559.347,-164.606"/>
</g>
<!-- Node30 -->
<g id="node30" class="node"><title>Node30</title>
<g id="a_node30"><a xlink:href="classscram_1_1core_1_1Preprocessor.xhtml#a4e97ffcda9c98ffc5aff93214f827c18" target="_top" xlink:title="Processes gate arguments found during the module detection. ">
<polygon fill="white" stroke="black" points="694,-78.5 694,-108.5 826,-108.5 826,-78.5 694,-78.5"/>
<text text-anchor="start" x="702" y="-96.5" font-family="Helvetica,sans-Serif" font-size="10.00">scram::core::Preprocessor</text>
<text text-anchor="middle" x="760" y="-85.5" font-family="Helvetica,sans-Serif" font-size="10.00">::ProcessModularArgs</text>
</a>
</g>
</g>
<!-- Node29&#45;&gt;Node30 -->
<g id="edge36" class="edge"><title>Node29&#45;&gt;Node30</title>
<path fill="none" stroke="midnightblue" d="M640.874,-125.5C657.62,-120.963 676.169,-115.939 693.51,-111.241"/>
<polygon fill="midnightblue" stroke="midnightblue" points="694.821,-114.512 703.557,-108.519 692.99,-107.756 694.821,-114.512"/>
</g>
<!-- Node31 -->
<g id="node31" class="node"><title>Node31</title>
<g id="a_node31"><a xlink:href="classscram_1_1core_1_1Preprocessor.xhtml#a434534b6a7c3fccc82c073e6aced90b1" target="_top" xlink:title="Creates a new module as an argument of an existing gate if the logic of the existing parent gate allo...">
<polygon fill="white" stroke="black" points="1034,-66.5 1034,-96.5 1166,-96.5 1166,-66.5 1034,-66.5"/>
<text text-anchor="start" x="1042" y="-84.5" font-family="Helvetica,sans-Serif" font-size="10.00">scram::core::Preprocessor</text>
<text text-anchor="middle" x="1100" y="-73.5" font-family="Helvetica,sans-Serif" font-size="10.00">::CreateNewModule</text>
</a>
</g>
</g>
<!-- Node30&#45;&gt;Node31 -->
<g id="edge37" class="edge"><title>Node30&#45;&gt;Node31</title>
<path fill="none" stroke="midnightblue" d="M826.099,-82.7358C839.27,-80.9713 853.051,-79.4203 866,-78.5 924.519,-74.3412 939.34,-77.629 998,-78.5 1006.32,-78.6235 1015.03,-78.8043 1023.69,-79.0169"/>
<polygon fill="midnightblue" stroke="midnightblue" points="1023.72,-82.5188 1033.81,-79.2794 1023.9,-75.5212 1023.72,-82.5188"/>
</g>
<!-- Node32 -->
<g id="node32" class="node"><title>Node32</title>
<g id="a_node32"><a xlink:href="classscram_1_1core_1_1Preprocessor.xhtml#aa65bdffb78291a0e41a34d34bf3fa198" target="_top" xlink:title="Checks if a group of modular arguments share anything with non&#45;modular arguments. ...">
<polygon fill="white" stroke="black" points="866,-0.5 866,-30.5 998,-30.5 998,-0.5 866,-0.5"/>
<text text-anchor="start" x="874" y="-18.5" font-family="Helvetica,sans-Serif" font-size="10.00">scram::core::Preprocessor</text>
<text text-anchor="middle" x="932" y="-7.5" font-family="Helvetica,sans-Serif" font-size="10.00">::FilterModularArgs</text>
</a>
</g>
</g>
<!-- Node30&#45;&gt;Node32 -->
<g id="edge38" class="edge"><title>Node30&#45;&gt;Node32</title>
<path fill="none" stroke="midnightblue" d="M793.778,-78.4608C820.854,-66.0376 859.473,-48.3182 888.847,-34.8406"/>
<polygon fill="midnightblue" stroke="midnightblue" points="890.404,-37.9773 898.033,-30.6259 887.485,-31.615 890.404,-37.9773"/>
</g>
<!-- Node33 -->
<g id="node33" class="node"><title>Node33</title>
<g id="a_node33"><a xlink:href="classscram_1_1core_1_1Preprocessor.xhtml#a5c10e807e558b06a1573c08ed13e205e" target="_top" xlink:title="Groups modular arguments by their common elements. ">
<polygon fill="white" stroke="black" points="866,-137.5 866,-167.5 998,-167.5 998,-137.5 866,-137.5"/>
<text text-anchor="start" x="874" y="-155.5" font-family="Helvetica,sans-Serif" font-size="10.00">scram::core::Preprocessor</text>
<text text-anchor="middle" x="932" y="-144.5" font-family="Helvetica,sans-Serif" font-size="10.00">::GroupModularArgs</text>
</a>
</g>
</g>
<!-- Node30&#45;&gt;Node33 -->
<g id="edge39" class="edge"><title>Node30&#45;&gt;Node33</title>
<path fill="none" stroke="midnightblue" d="M804.338,-108.541C826.818,-116.343 854.462,-125.937 878.184,-134.17"/>
<polygon fill="midnightblue" stroke="midnightblue" points="877.146,-137.514 887.741,-137.487 879.441,-130.901 877.146,-137.514"/>
</g>
<!-- Node34 -->
<g id="node34" class="node"><title>Node34</title>
<g id="a_node34"><a xlink:href="classscram_1_1core_1_1Preprocessor.xhtml#affe78b1e830afb73585affe0ada477be" target="_top" xlink:title="Creates new module gates from groups of modular arguments if the logic of the parent gate allows sub&#45;...">
<polygon fill="white" stroke="black" points="866,-88.5 866,-118.5 998,-118.5 998,-88.5 866,-88.5"/>
<text text-anchor="start" x="874" y="-106.5" font-family="Helvetica,sans-Serif" font-size="10.00">scram::core::Preprocessor</text>
<text text-anchor="middle" x="932" y="-95.5" font-family="Helvetica,sans-Serif" font-size="10.00">::CreateNewModules</text>
</a>
</g>
</g>
<!-- Node30&#45;&gt;Node34 -->
<g id="edge40" class="edge"><title>Node30&#45;&gt;Node34</title>
<path fill="none" stroke="midnightblue" d="M826.24,-97.3377C835.9,-97.9059 845.92,-98.4953 855.763,-99.0743"/>
<polygon fill="midnightblue" stroke="midnightblue" points="855.746,-102.579 865.934,-99.6726 856.157,-95.5913 855.746,-102.579"/>
</g>
<!-- Node34&#45;&gt;Node31 -->
<g id="edge41" class="edge"><title>Node34&#45;&gt;Node31</title>
<path fill="none" stroke="midnightblue" d="M998.131,-94.8682C1006.55,-93.752 1015.23,-92.6017 1023.8,-91.4663"/>
<polygon fill="midnightblue" stroke="midnightblue" points="1024.33,-94.9266 1033.78,-90.1431 1023.41,-87.9873 1024.33,-94.9266"/>
</g>
<!-- Node36&#45;&gt;Node18 -->
<g id="edge45" class="edge"><title>Node36&#45;&gt;Node18</title>
<path fill="none" stroke="midnightblue" d="M654.228,-620.684C704.245,-620.912 772.924,-616.842 830,-597.5 858.041,-587.998 886.047,-569.04 905.431,-554.039"/>
<polygon fill="midnightblue" stroke="midnightblue" points="907.783,-556.641 913.442,-547.683 903.432,-551.157 907.783,-556.641"/>
</g>
<!-- Node36&#45;&gt;Node20 -->
<g id="edge46" class="edge"><title>Node36&#45;&gt;Node20</title>
<path fill="none" stroke="midnightblue" d="M644.724,-632.519C659.299,-636.216 675.031,-640.205 690.023,-644.007"/>
<polygon fill="midnightblue" stroke="midnightblue" points="689.195,-647.408 699.749,-646.474 690.916,-640.623 689.195,-647.408"/>
</g>
<!-- Node36&#45;&gt;Node23 -->
<g id="edge47" class="edge"><title>Node36&#45;&gt;Node23</title>
<path fill="none" stroke="midnightblue" d="M644.724,-602.481C659.299,-598.784 675.031,-594.795 690.023,-590.993"/>
<polygon fill="midnightblue" stroke="midnightblue" points="690.916,-594.377 699.749,-588.526 689.195,-587.592 690.916,-594.377"/>
</g>
<!-- Node37 -->
<g id="node37" class="node"><title>Node37</title>
<g id="a_node37"><a xlink:href="classscram_1_1core_1_1Preprocessor.xhtml#ae0bdf196274427420631bc20f95cb72a" target="_top" xlink:title="Traverses the Boolean graph to collect multiple definitions of gates. ">
<polygon fill="white" stroke="black" points="694,-695.5 694,-725.5 826,-725.5 826,-695.5 694,-695.5"/>
<text text-anchor="start" x="702" y="-713.5" font-family="Helvetica,sans-Serif" font-size="10.00">scram::core::Preprocessor</text>
<text text-anchor="middle" x="760" y="-702.5" font-family="Helvetica,sans-Serif" font-size="10.00">::DetectMultipleDefinitions</text>
</a>
</g>
</g>
<!-- Node36&#45;&gt;Node37 -->
<g id="edge44" class="edge"><title>Node36&#45;&gt;Node37</title>
<path fill="none" stroke="midnightblue" d="M605.872,-632.779C626.345,-647.638 659.196,-670.152 690,-685.5 694.266,-687.625 698.758,-689.664 703.32,-691.594"/>
<polygon fill="midnightblue" stroke="midnightblue" points="702.147,-694.896 712.73,-695.401 704.772,-688.406 702.147,-694.896"/>
</g>
</g>
</svg>
        <g id="navigator" transform="translate(0 0)" fill="#404254">
                <rect fill="#f2f5e9" fill-opacity="0.5" stroke="#606060" stroke-width=".5" x="0" y="0" width="60" height="60"/>
                <use id="zoomplus" xlink:href="#zoomPlus" x="17" y="9" onmousedown="handleZoom(evt,'in')"/>
                <use id="zoomminus" xlink:href="#zoomMin" x="42" y="9" onmousedown="handleZoom(evt,'out')"/>
                <use id="reset" xlink:href="#resetDef" x="30" y="36" onmousedown="handleReset()"/>
                <g id="arrowUp" xlink:href="#dirArrow" transform="translate(30 24)" onmousedown="handlePan(0,-1)">
                  <use xlink:href="#rim" fill="#404040">
                        <set attributeName="fill" to="#808080" begin="arrowUp.mouseover" end="arrowUp.mouseout"/>
                  </use>
                  <path fill="none" stroke="white" stroke-width="1.5" d="M0,-3.0v7 M-2.5,-0.5L0,-3.0L2.5,-0.5"/>
                </g>
                <g id="arrowRight" xlink:href="#dirArrow" transform="rotate(90) translate(36 -43)" onmousedown="handlePan(1,0)">
                  <use xlink:href="#rim" fill="#404040">
                        <set attributeName="fill" to="#808080" begin="arrowRight.mouseover" end="arrowRight.mouseout"/>
                  </use>
                  <path fill="none" stroke="white" stroke-width="1.5" d="M0,-3.0v7 M-2.5,-0.5L0,-3.0L2.5,-0.5"/>
                </g>
                <g id="arrowDown" xlink:href="#dirArrow" transform="rotate(180) translate(-30 -48)" onmousedown="handlePan(0,1)">
                  <use xlink:href="#rim" fill="#404040">
                        <set attributeName="fill" to="#808080" begin="arrowDown.mouseover" end="arrowDown.mouseout"/>
                  </use>
                  <path fill="none" stroke="white" stroke-width="1.5" d="M0,-3.0v7 M-2.5,-0.5L0,-3.0L2.5,-0.5"/>
                </g>
                <g id="arrowLeft" xlink:href="#dirArrow" transform="rotate(270) translate(-36 17)" onmousedown="handlePan(-1,0)">
                  <use xlink:href="#rim" fill="#404040">
                        <set attributeName="fill" to="#808080" begin="arrowLeft.mouseover" end="arrowLeft.mouseout"/>
                  </use>
                  <path fill="none" stroke="white" stroke-width="1.5" d="M0,-3.0v7 M-2.5,-0.5L0,-3.0L2.5,-0.5"/>
                </g>
        </g>
        <svg viewBox="0 0 15 15" width="100%" height="30px" preserveAspectRatio="xMaxYMin meet">
         <g id="arrow_out" transform="scale(0.3 0.3)">
          <a xlink:href="classscram_1_1core_1_1Preprocessor_a5c224938dfba861f061525658bd7b156_cgraph_org.svg" target="_base">
           <rect id="button" ry="5" rx="5" y="6" x="6" height="38" width="38"
                fill="#f2f5e9" fill-opacity="0.5" stroke="#606060" stroke-width="1.0"/>
           <path id="arrow"
             d="M 11.500037,31.436501 C 11.940474,20.09759 22.043105,11.32322 32.158766,21.979434 L 37.068811,17.246167 C 37.068811,17.246167 37.088388,32 37.088388,32 L 22.160133,31.978069 C 22.160133,31.978069 26.997745,27.140456 26.997745,27.140456 C 18.528582,18.264221 13.291696,25.230495 11.500037,31.436501 z"
             style="fill:#404040;"/>
          </a>
         </g>
        </svg>
</svg>
