<?xml version="1.0" encoding="UTF-8" standalone="no"?>
<!DOCTYPE svg PUBLIC "-//W3C//DTD SVG 1.1//EN"
 "http://www.w3.org/Graphics/SVG/1.1/DTD/svg11.dtd">
<!-- Generated by graphviz version 2.38.0 (20140413.2041)
 -->
<!-- Title: scram::mef::WeibullExpression::Validate Pages: 1 -->
<svg width="500pt" height="104pt"
 viewBox="0.00 0.00 500.00 104.00" xmlns="http://www.w3.org/2000/svg" xmlns:xlink="http://www.w3.org/1999/xlink">
<g id="graph0" class="graph" transform="scale(1 1) rotate(0) translate(4 100)">
<title>scram::mef::WeibullExpression::Validate</title>
<polygon fill="white" stroke="none" points="-4,4 -4,-100 496,-100 496,4 -4,4"/>
<!-- Node1 -->
<g id="node1" class="node"><title>Node1</title>
<polygon fill="#bfbfbf" stroke="black" points="0,-33 0,-63 153,-63 153,-33 0,-33"/>
<text text-anchor="start" x="8" y="-51" font-family="Helvetica,sans-Serif" font-size="10.00">scram::mef::WeibullExpression</text>
<text text-anchor="middle" x="76.5" y="-40" font-family="Helvetica,sans-Serif" font-size="10.00">::Validate</text>
</g>
<!-- Node2 -->
<g id="node2" class="node"><title>Node2</title>
<g id="a_node2"><a xlink:href="classscram_1_1mef_1_1Expression.xhtml#a6b2d7f3d3abf98002c8cccee426edecc" target="_top" xlink:title="scram::mef::Expression::Max">
<polygon fill="white" stroke="black" points="189,-76.5 189,-95.5 335,-95.5 335,-76.5 189,-76.5"/>
<text text-anchor="middle" x="262" y="-83.5" font-family="Helvetica,sans-Serif" font-size="10.00">scram::mef::Expression::Max</text>
</a>
</g>
</g>
<!-- Node1&#45;&gt;Node2 -->
<g id="edge1" class="edge"><title>Node1&#45;&gt;Node2</title>
<path fill="none" stroke="midnightblue" d="M150.024,-63.0186C168.364,-66.8165 187.777,-70.8366 205.15,-74.4344"/>
<polygon fill="midnightblue" stroke="midnightblue" points="204.619,-77.8985 215.121,-76.4991 206.038,-71.0439 204.619,-77.8985"/>
</g>
<!-- Node3 -->
<g id="node3" class="node"><title>Node3</title>
<g id="a_node3"><a xlink:href="classscram_1_1mef_1_1Expression.xhtml#ac7e0dd118eafdfa943944172c1625a4e" target="_top" xlink:title="scram::mef::Expression\l::Mean">
<polygon fill="white" stroke="black" points="371,-33 371,-63 492,-63 492,-33 371,-33"/>
<text text-anchor="start" x="379" y="-51" font-family="Helvetica,sans-Serif" font-size="10.00">scram::mef::Expression</text>
<text text-anchor="middle" x="431.5" y="-40" font-family="Helvetica,sans-Serif" font-size="10.00">::Mean</text>
</a>
</g>
</g>
<!-- Node1&#45;&gt;Node3 -->
<g id="edge3" class="edge"><title>Node1&#45;&gt;Node3</title>
<path fill="none" stroke="midnightblue" d="M153.227,-48C214.796,-48 300.969,-48 360.842,-48"/>
<polygon fill="midnightblue" stroke="midnightblue" points="360.959,-51.5001 370.959,-48 360.959,-44.5001 360.959,-51.5001"/>
</g>
<!-- Node4 -->
<g id="node4" class="node"><title>Node4</title>
<g id="a_node4"><a xlink:href="classscram_1_1mef_1_1Expression.xhtml#a9601745b7f61ec67c8074a4043367152" target="_top" xlink:title="scram::mef::Expression::Min">
<polygon fill="white" stroke="black" points="190.5,-0.5 190.5,-19.5 333.5,-19.5 333.5,-0.5 190.5,-0.5"/>
<text text-anchor="middle" x="262" y="-7.5" font-family="Helvetica,sans-Serif" font-size="10.00">scram::mef::Expression::Min</text>
</a>
</g>
</g>
<!-- Node1&#45;&gt;Node4 -->
<g id="edge4" class="edge"><title>Node1&#45;&gt;Node4</title>
<path fill="none" stroke="midnightblue" d="M150.024,-32.9814C168.364,-29.1835 187.777,-25.1634 205.15,-21.5656"/>
<polygon fill="midnightblue" stroke="midnightblue" points="206.038,-24.9561 215.121,-19.5009 204.619,-18.1015 206.038,-24.9561"/>
</g>
<!-- Node2&#45;&gt;Node3 -->
<g id="edge2" class="edge"><title>Node2&#45;&gt;Node3</title>
<path fill="none" stroke="midnightblue" d="M305.267,-76.411C322.186,-72.5728 342.126,-68.0491 361.06,-63.7535"/>
<polygon fill="midnightblue" stroke="midnightblue" points="361.871,-67.1586 370.849,-61.5328 360.322,-60.3321 361.871,-67.1586"/>
</g>
<!-- Node4&#45;&gt;Node3 -->
<g id="edge5" class="edge"><title>Node4&#45;&gt;Node3</title>
<path fill="none" stroke="midnightblue" d="M305.267,-19.589C322.186,-23.4272 342.126,-27.9509 361.06,-32.2465"/>
<polygon fill="midnightblue" stroke="midnightblue" points="360.322,-35.6679 370.849,-34.4672 361.871,-28.8414 360.322,-35.6679"/>
</g>
</g>
</svg>
