<?xml version="1.0" encoding="UTF-8" standalone="no"?>
<!DOCTYPE svg PUBLIC "-//W3C//DTD SVG 1.1//EN"
 "http://www.w3.org/Graphics/SVG/1.1/DTD/svg11.dtd">
<!-- Generated by graphviz version 2.38.0 (20140413.2041)
 -->
<!-- Title: scram::mef::Model::ccf_groups Pages: 1 -->
<!--zoomable 586 -->
<svg id="main" version="1.1" xmlns="http://www.w3.org/2000/svg" xmlns:xlink="http://www.w3.org/1999/xlink" xml:space="preserve" onload="init(evt)">
<style type="text/css"><![CDATA[
.edge:hover path { stroke: red; }
.edge:hover polygon { stroke: red; fill: red; }
]]></style>
<script type="text/javascript"><![CDATA[
var edges = document.getElementsByTagName('g');
if (edges && edges.length) {
  for (var i=0;i<edges.length;i++) {
    if (edges[i].id.substr(0,4)=='edge') {
      edges[i].setAttribute('class','edge');
    }
  }
}
]]></script>
        <defs>
                <circle id="rim" cx="0" cy="0" r="7"/>
                <circle id="rim2" cx="0" cy="0" r="3.5"/>
                <g id="zoomPlus">
                        <use xlink:href="#rim" fill="#404040">
                                <set attributeName="fill" to="#808080" begin="zoomplus.mouseover" end="zoomplus.mouseout"/>
                        </use>
                        <path d="M-4,0h8M0,-4v8" fill="none" stroke="white" stroke-width="1.5" pointer-events="none"/>
                </g>
                <g id="zoomMin">
                        <use xlink:href="#rim" fill="#404040">
                                <set attributeName="fill" to="#808080" begin="zoomminus.mouseover" end="zoomminus.mouseout"/>
                        </use>
                        <path d="M-4,0h8" fill="none" stroke="white" stroke-width="1.5" pointer-events="none"/>
                </g>
                <g id="dirArrow">
                        <path fill="none" stroke="white" stroke-width="1.5" d="M0,-3.0v7 M-2.5,-0.5L0,-3.0L2.5,-0.5"/>
                </g>
               <g id="resetDef">
                       <use xlink:href="#rim2" fill="#404040">
                               <set attributeName="fill" to="#808080" begin="reset.mouseover" end="reset.mouseout"/>
                       </use>
               </g>
        </defs>

<script type="text/javascript">
var viewWidth = 272;
var viewHeight = 586;
var sectionId = 'dynsection-6';
</script>
<script xlink:href="svgpan.js"/>
<svg id="graph" class="graph">
<g id="viewport">
<title>scram::mef::Model::ccf_groups</title>
<polygon fill="white" stroke="none" points="-4,4 -4,-582 268,-582 268,4 -4,4"/>
<!-- Node1 -->
<g id="node1" class="node"><title>Node1</title>
<polygon fill="#bfbfbf" stroke="black" points="0,-277.5 0,-307.5 104,-307.5 104,-277.5 0,-277.5"/>
<text text-anchor="start" x="8" y="-295.5" font-family="Helvetica,sans-Serif" font-size="10.00">scram::mef::Model::</text>
<text text-anchor="middle" x="52" y="-284.5" font-family="Helvetica,sans-Serif" font-size="10.00">ccf_groups</text>
</g>
<!-- Node2 -->
<g id="node2" class="node"><title>Node2</title>
<g id="a_node2"><a xlink:href="classscram_1_1mef_1_1Model.xhtml#ab2c529b0b484653d9834b2357a3232db" target="_top" xlink:title="Adds a basic event that is used in this model. ">
<polygon fill="white" stroke="black" points="150,-547.5 150,-577.5 254,-577.5 254,-547.5 150,-547.5"/>
<text text-anchor="start" x="158" y="-565.5" font-family="Helvetica,sans-Serif" font-size="10.00">scram::mef::Model::</text>
<text text-anchor="middle" x="202" y="-554.5" font-family="Helvetica,sans-Serif" font-size="10.00">AddBasicEvent</text>
</a>
</g>
</g>
<!-- Node1&#45;&gt;Node2 -->
<g id="edge1" class="edge"><title>Node1&#45;&gt;Node2</title>
<path fill="none" stroke="midnightblue" d="M54.0976,-307.747C57.9419,-350.107 74.3885,-470.557 140,-538.5 140.934,-539.467 141.911,-540.396 142.927,-541.288"/>
<polygon fill="midnightblue" stroke="midnightblue" points="141.207,-544.366 151.348,-547.434 145.333,-538.712 141.207,-544.366"/>
</g>
<!-- Node3 -->
<g id="node3" class="node"><title>Node3</title>
<g id="a_node3"><a xlink:href="classscram_1_1mef_1_1Model.xhtml#aa071b5b312ba998375a246d516c2d234" target="_top" xlink:title="Adds a CCF group that is used in this model&#39;s fault trees. ">
<polygon fill="white" stroke="black" points="150,-498.5 150,-528.5 254,-528.5 254,-498.5 150,-498.5"/>
<text text-anchor="start" x="158" y="-516.5" font-family="Helvetica,sans-Serif" font-size="10.00">scram::mef::Model::</text>
<text text-anchor="middle" x="202" y="-505.5" font-family="Helvetica,sans-Serif" font-size="10.00">AddCcfGroup</text>
</a>
</g>
</g>
<!-- Node1&#45;&gt;Node3 -->
<g id="edge2" class="edge"><title>Node1&#45;&gt;Node3</title>
<path fill="none" stroke="midnightblue" d="M55.6019,-307.577C62.6215,-343.865 85.2426,-436.944 140,-489.5 141.103,-490.559 142.259,-491.573 143.458,-492.543"/>
<polygon fill="midnightblue" stroke="midnightblue" points="141.69,-495.575 151.917,-498.341 145.648,-489.801 141.69,-495.575"/>
</g>
<!-- Node4 -->
<g id="node4" class="node"><title>Node4</title>
<g id="a_node4"><a xlink:href="classscram_1_1mef_1_1Model.xhtml#a52dd79392036c36ac613f6d6fe21c592" target="_top" xlink:title="Adds a fault tree into the model container. ">
<polygon fill="white" stroke="black" points="150,-449.5 150,-479.5 254,-479.5 254,-449.5 150,-449.5"/>
<text text-anchor="start" x="158" y="-467.5" font-family="Helvetica,sans-Serif" font-size="10.00">scram::mef::Model::</text>
<text text-anchor="middle" x="202" y="-456.5" font-family="Helvetica,sans-Serif" font-size="10.00">AddFaultTree</text>
</a>
</g>
</g>
<!-- Node1&#45;&gt;Node4 -->
<g id="edge3" class="edge"><title>Node1&#45;&gt;Node4</title>
<path fill="none" stroke="midnightblue" d="M58.102,-307.728C68.7451,-337.312 96.0412,-402.937 140,-440.5 141.492,-441.775 143.061,-442.988 144.688,-444.14"/>
<polygon fill="midnightblue" stroke="midnightblue" points="142.887,-447.141 153.235,-449.412 146.561,-441.183 142.887,-447.141"/>
</g>
<!-- Node5 -->
<g id="node5" class="node"><title>Node5</title>
<g id="a_node5"><a xlink:href="classscram_1_1mef_1_1Model.xhtml#ae9c29a5358f8c38ba1ea4d5990c112e0" target="_top" xlink:title="Adds a gate that is used in this model&#39;s fault trees or components. ">
<polygon fill="white" stroke="black" points="150,-400.5 150,-430.5 254,-430.5 254,-400.5 150,-400.5"/>
<text text-anchor="start" x="158" y="-418.5" font-family="Helvetica,sans-Serif" font-size="10.00">scram::mef::Model::</text>
<text text-anchor="middle" x="202" y="-407.5" font-family="Helvetica,sans-Serif" font-size="10.00">AddGate</text>
</a>
</g>
</g>
<!-- Node1&#45;&gt;Node5 -->
<g id="edge4" class="edge"><title>Node1&#45;&gt;Node5</title>
<path fill="none" stroke="midnightblue" d="M62.7813,-307.592C77.3033,-328.937 106.484,-367.959 140,-391.5 142.078,-392.96 144.257,-394.347 146.504,-395.664"/>
<polygon fill="midnightblue" stroke="midnightblue" points="144.96,-398.807 155.435,-400.396 148.237,-392.621 144.96,-398.807"/>
</g>
<!-- Node6 -->
<g id="node6" class="node"><title>Node6</title>
<g id="a_node6"><a xlink:href="classscram_1_1mef_1_1Model.xhtml#a1a68e09d766974684ee5a15a7c9572ec" target="_top" xlink:title="Adds a house event that is used in this model. ">
<polygon fill="white" stroke="black" points="150,-351.5 150,-381.5 254,-381.5 254,-351.5 150,-351.5"/>
<text text-anchor="start" x="158" y="-369.5" font-family="Helvetica,sans-Serif" font-size="10.00">scram::mef::Model::</text>
<text text-anchor="middle" x="202" y="-358.5" font-family="Helvetica,sans-Serif" font-size="10.00">AddHouseEvent</text>
</a>
</g>
</g>
<!-- Node1&#45;&gt;Node6 -->
<g id="edge5" class="edge"><title>Node1&#45;&gt;Node6</title>
<path fill="none" stroke="midnightblue" d="M77.2314,-307.709C94.4035,-318.167 118.177,-332.006 140,-342.5 143.534,-344.199 147.221,-345.876 150.957,-347.505"/>
<polygon fill="midnightblue" stroke="midnightblue" points="149.708,-350.777 160.282,-351.443 152.432,-344.328 149.708,-350.777"/>
</g>
<!-- Node7 -->
<g id="node7" class="node"><title>Node7</title>
<g id="a_node7"><a xlink:href="classscram_1_1mef_1_1Model.xhtml#ae2080e08c0fd0137e57a29830d1b9cdc" target="_top" xlink:title="Adds a parameter that is used in this model&#39;s expressions. ">
<polygon fill="white" stroke="black" points="150,-302.5 150,-332.5 254,-332.5 254,-302.5 150,-302.5"/>
<text text-anchor="start" x="158" y="-320.5" font-family="Helvetica,sans-Serif" font-size="10.00">scram::mef::Model::</text>
<text text-anchor="middle" x="202" y="-309.5" font-family="Helvetica,sans-Serif" font-size="10.00">AddParameter</text>
</a>
</g>
</g>
<!-- Node1&#45;&gt;Node7 -->
<g id="edge6" class="edge"><title>Node1&#45;&gt;Node7</title>
<path fill="none" stroke="midnightblue" d="M104.348,-301.174C115.713,-303.093 127.866,-305.146 139.586,-307.126"/>
<polygon fill="midnightblue" stroke="midnightblue" points="139.3,-310.627 149.743,-308.842 140.466,-303.725 139.3,-310.627"/>
</g>
<!-- Node8 -->
<g id="node8" class="node"><title>Node8</title>
<g id="a_node8"><a xlink:href="classscram_1_1mef_1_1Model.xhtml#ae7266a6fb9b501538885c208dfc934f6" target="_top" xlink:title="Binds a formula with its argument event. ">
<polygon fill="white" stroke="black" points="150,-253.5 150,-283.5 254,-283.5 254,-253.5 150,-253.5"/>
<text text-anchor="start" x="158" y="-271.5" font-family="Helvetica,sans-Serif" font-size="10.00">scram::mef::Model::</text>
<text text-anchor="middle" x="202" y="-260.5" font-family="Helvetica,sans-Serif" font-size="10.00">BindEvent</text>
</a>
</g>
</g>
<!-- Node1&#45;&gt;Node8 -->
<g id="edge7" class="edge"><title>Node1&#45;&gt;Node8</title>
<path fill="none" stroke="midnightblue" d="M104.348,-284.173C115.713,-282.33 127.866,-280.36 139.586,-278.459"/>
<polygon fill="midnightblue" stroke="midnightblue" points="140.432,-281.868 149.743,-276.812 139.312,-274.958 140.432,-281.868"/>
</g>
<!-- Node9 -->
<g id="node9" class="node"><title>Node9</title>
<g id="a_node9"><a xlink:href="classscram_1_1mef_1_1Model.xhtml#ab0ac16c0222b9718760e19a65e736093" target="_top" xlink:title="Finds an entity (parameter, basic and house event, gate) from a reference. ">
<polygon fill="white" stroke="black" points="150,-204.5 150,-234.5 254,-234.5 254,-204.5 150,-204.5"/>
<text text-anchor="start" x="158" y="-222.5" font-family="Helvetica,sans-Serif" font-size="10.00">scram::mef::Model::</text>
<text text-anchor="middle" x="202" y="-211.5" font-family="Helvetica,sans-Serif" font-size="10.00">GetBasicEvent</text>
</a>
</g>
</g>
<!-- Node1&#45;&gt;Node9 -->
<g id="edge8" class="edge"><title>Node1&#45;&gt;Node9</title>
<path fill="none" stroke="midnightblue" d="M78.4789,-277.426C95.6087,-267.546 118.84,-254.632 140,-244.5 144.118,-242.528 148.434,-240.564 152.785,-238.653"/>
<polygon fill="midnightblue" stroke="midnightblue" points="154.495,-241.728 162.307,-234.571 151.737,-235.294 154.495,-241.728"/>
</g>
<!-- Node10 -->
<g id="node10" class="node"><title>Node10</title>
<g id="a_node10"><a xlink:href="element_8h.xhtml#a34a172bfae7e234836f4ca9cc55a193d" target="_top" xlink:title="Computes the full path of an element. ">
<polygon fill="white" stroke="black" points="140,-148 140,-167 264,-167 264,-148 140,-148"/>
<text text-anchor="middle" x="202" y="-155" font-family="Helvetica,sans-Serif" font-size="10.00">scram::mef::GetFullPath</text>
</a>
</g>
</g>
<!-- Node1&#45;&gt;Node10 -->
<g id="edge9" class="edge"><title>Node1&#45;&gt;Node10</title>
<path fill="none" stroke="midnightblue" d="M64.5119,-277.157C80.1588,-256.936 109.681,-220.955 140,-195.5 150.377,-186.788 162.927,-178.629 173.938,-172.122"/>
<polygon fill="midnightblue" stroke="midnightblue" points="175.814,-175.082 182.745,-167.069 172.33,-169.01 175.814,-175.082"/>
</g>
<!-- Node11 -->
<g id="node11" class="node"><title>Node11</title>
<g id="a_node11"><a xlink:href="classscram_1_1mef_1_1Model.xhtml#ac100f59b5e4163a617b5d3b893afd3f9" target="_top" xlink:title="Finds an entity (parameter, basic and house event, gate) from a reference. ">
<polygon fill="white" stroke="black" points="150,-98.5 150,-128.5 254,-128.5 254,-98.5 150,-98.5"/>
<text text-anchor="start" x="158" y="-116.5" font-family="Helvetica,sans-Serif" font-size="10.00">scram::mef::Model::</text>
<text text-anchor="middle" x="202" y="-105.5" font-family="Helvetica,sans-Serif" font-size="10.00">GetGate</text>
</a>
</g>
</g>
<!-- Node1&#45;&gt;Node11 -->
<g id="edge11" class="edge"><title>Node1&#45;&gt;Node11</title>
<path fill="none" stroke="midnightblue" d="M57.8155,-277.182C68.1194,-246.729 95.0911,-178.108 140,-138.5 141.744,-136.962 143.594,-135.511 145.525,-134.143"/>
<polygon fill="midnightblue" stroke="midnightblue" points="147.738,-136.889 154.409,-128.658 144.061,-130.933 147.738,-136.889"/>
</g>
<!-- Node12 -->
<g id="node12" class="node"><title>Node12</title>
<g id="a_node12"><a xlink:href="classscram_1_1mef_1_1Model.xhtml#ad94f586b7fe8d530e74ca6188d76632f" target="_top" xlink:title="Finds an entity (parameter, basic and house event, gate) from a reference. ">
<polygon fill="white" stroke="black" points="150,-49.5 150,-79.5 254,-79.5 254,-49.5 150,-49.5"/>
<text text-anchor="start" x="158" y="-67.5" font-family="Helvetica,sans-Serif" font-size="10.00">scram::mef::Model::</text>
<text text-anchor="middle" x="202" y="-56.5" font-family="Helvetica,sans-Serif" font-size="10.00">GetHouseEvent</text>
</a>
</g>
</g>
<!-- Node1&#45;&gt;Node12 -->
<g id="edge12" class="edge"><title>Node1&#45;&gt;Node12</title>
<path fill="none" stroke="midnightblue" d="M55.4595,-277.295C62.2149,-240.225 84.3876,-144.233 140,-89.5 141.468,-88.0549 143.032,-86.6895 144.67,-85.3996"/>
<polygon fill="midnightblue" stroke="midnightblue" points="147.024,-88.0349 153.384,-79.561 143.128,-82.2195 147.024,-88.0349"/>
</g>
<!-- Node13 -->
<g id="node13" class="node"><title>Node13</title>
<g id="a_node13"><a xlink:href="classscram_1_1mef_1_1Model.xhtml#a0ccac47c51f11484aed5e7cf3bdd73dd" target="_top" xlink:title="Finds an entity (parameter, basic and house event, gate) from a reference. ">
<polygon fill="white" stroke="black" points="150,-0.5 150,-30.5 254,-30.5 254,-0.5 150,-0.5"/>
<text text-anchor="start" x="158" y="-18.5" font-family="Helvetica,sans-Serif" font-size="10.00">scram::mef::Model::</text>
<text text-anchor="middle" x="202" y="-7.5" font-family="Helvetica,sans-Serif" font-size="10.00">GetParameter</text>
</a>
</g>
</g>
<!-- Node1&#45;&gt;Node13 -->
<g id="edge13" class="edge"><title>Node1&#45;&gt;Node13</title>
<path fill="none" stroke="midnightblue" d="M54.0022,-277.246C57.6168,-234.279 73.5596,-110.807 140,-40.5 141.356,-39.0651 142.806,-37.71 144.332,-36.4306"/>
<polygon fill="midnightblue" stroke="midnightblue" points="146.364,-39.2804 152.501,-30.6438 142.317,-33.5684 146.364,-39.2804"/>
</g>
<!-- Node10&#45;&gt;Node10 -->
<g id="edge10" class="edge"><title>Node10&#45;&gt;Node10</title>
<path fill="none" stroke="midnightblue" d="M178.881,-167.257C167.633,-176.065 175.34,-185.5 202,-185.5 219.496,-185.5 228.829,-181.437 229.999,-176.154"/>
<polygon fill="midnightblue" stroke="midnightblue" points="232.997,-174.342 225.119,-167.257 226.86,-177.708 232.997,-174.342"/>
</g>
</g>
</svg>
        <g id="navigator" transform="translate(0 0)" fill="#404254">
                <rect fill="#f2f5e9" fill-opacity="0.5" stroke="#606060" stroke-width=".5" x="0" y="0" width="60" height="60"/>
                <use id="zoomplus" xlink:href="#zoomPlus" x="17" y="9" onmousedown="handleZoom(evt,'in')"/>
                <use id="zoomminus" xlink:href="#zoomMin" x="42" y="9" onmousedown="handleZoom(evt,'out')"/>
                <use id="reset" xlink:href="#resetDef" x="30" y="36" onmousedown="handleReset()"/>
                <g id="arrowUp" xlink:href="#dirArrow" transform="translate(30 24)" onmousedown="handlePan(0,-1)">
                  <use xlink:href="#rim" fill="#404040">
                        <set attributeName="fill" to="#808080" begin="arrowUp.mouseover" end="arrowUp.mouseout"/>
                  </use>
                  <path fill="none" stroke="white" stroke-width="1.5" d="M0,-3.0v7 M-2.5,-0.5L0,-3.0L2.5,-0.5"/>
                </g>
                <g id="arrowRight" xlink:href="#dirArrow" transform="rotate(90) translate(36 -43)" onmousedown="handlePan(1,0)">
                  <use xlink:href="#rim" fill="#404040">
                        <set attributeName="fill" to="#808080" begin="arrowRight.mouseover" end="arrowRight.mouseout"/>
                  </use>
                  <path fill="none" stroke="white" stroke-width="1.5" d="M0,-3.0v7 M-2.5,-0.5L0,-3.0L2.5,-0.5"/>
                </g>
                <g id="arrowDown" xlink:href="#dirArrow" transform="rotate(180) translate(-30 -48)" onmousedown="handlePan(0,1)">
                  <use xlink:href="#rim" fill="#404040">
                        <set attributeName="fill" to="#808080" begin="arrowDown.mouseover" end="arrowDown.mouseout"/>
                  </use>
                  <path fill="none" stroke="white" stroke-width="1.5" d="M0,-3.0v7 M-2.5,-0.5L0,-3.0L2.5,-0.5"/>
                </g>
                <g id="arrowLeft" xlink:href="#dirArrow" transform="rotate(270) translate(-36 17)" onmousedown="handlePan(-1,0)">
                  <use xlink:href="#rim" fill="#404040">
                        <set attributeName="fill" to="#808080" begin="arrowLeft.mouseover" end="arrowLeft.mouseout"/>
                  </use>
                  <path fill="none" stroke="white" stroke-width="1.5" d="M0,-3.0v7 M-2.5,-0.5L0,-3.0L2.5,-0.5"/>
                </g>
        </g>
        <svg viewBox="0 0 15 15" width="100%" height="30px" preserveAspectRatio="xMaxYMin meet">
         <g id="arrow_out" transform="scale(0.3 0.3)">
          <a xlink:href="classscram_1_1mef_1_1Model_a5c8b03561207b374fc06dd61c0cf3ace_cgraph_org.svg" target="_base">
           <rect id="button" ry="5" rx="5" y="6" x="6" height="38" width="38"
                fill="#f2f5e9" fill-opacity="0.5" stroke="#606060" stroke-width="1.0"/>
           <path id="arrow"
             d="M 11.500037,31.436501 C 11.940474,20.09759 22.043105,11.32322 32.158766,21.979434 L 37.068811,17.246167 C 37.068811,17.246167 37.088388,32 37.088388,32 L 22.160133,31.978069 C 22.160133,31.978069 26.997745,27.140456 26.997745,27.140456 C 18.528582,18.264221 13.291696,25.230495 11.500037,31.436501 z"
             style="fill:#404040;"/>
          </a>
         </g>
        </svg>
</svg>
