<?xml version="1.0" encoding="UTF-8" standalone="no"?>
<!DOCTYPE svg PUBLIC "-//W3C//DTD SVG 1.1//EN"
 "http://www.w3.org/Graphics/SVG/1.1/DTD/svg11.dtd">
<!-- Generated by graphviz version 2.38.0 (20140413.2041)
 -->
<!-- Title: scram::Logger::report_level Pages: 1 -->
<svg width="295pt" height="66pt"
 viewBox="0.00 0.00 295.00 66.00" xmlns="http://www.w3.org/2000/svg" xmlns:xlink="http://www.w3.org/1999/xlink">
<g id="graph0" class="graph" transform="scale(1 1) rotate(0) translate(4 62)">
<title>scram::Logger::report_level</title>
<polygon fill="white" stroke="none" points="-4,4 -4,-62 291,-62 291,4 -4,4"/>
<!-- Node1 -->
<g id="node1" class="node"><title>Node1</title>
<polygon fill="#bfbfbf" stroke="black" points="0,-14 0,-44 110,-44 110,-14 0,-14"/>
<text text-anchor="start" x="8" y="-32" font-family="Helvetica,sans-Serif" font-size="10.00">scram::Logger::report</text>
<text text-anchor="middle" x="55" y="-21" font-family="Helvetica,sans-Serif" font-size="10.00">_level</text>
</g>
<!-- Node2 -->
<g id="node2" class="node"><title>Node2</title>
<g id="a_node2"><a xlink:href="classscram_1_1Logger.xhtml#a4758c14402d2dbc180f98edaf94effcb" target="_top" xlink:title="Returns a string stream by reference that is flushed to stderr by the Logger class destructor...">
<polygon fill="white" stroke="black" points="166,-38.5 166,-57.5 267,-57.5 267,-38.5 166,-38.5"/>
<text text-anchor="middle" x="216.5" y="-45.5" font-family="Helvetica,sans-Serif" font-size="10.00">scram::Logger::Get</text>
</a>
</g>
</g>
<!-- Node1&#45;&gt;Node2 -->
<g id="edge1" class="edge"><title>Node1&#45;&gt;Node2</title>
<path fill="none" stroke="midnightblue" d="M110.445,-35.4856C125.036,-37.2238 140.889,-39.1122 155.751,-40.8825"/>
<polygon fill="midnightblue" stroke="midnightblue" points="155.51,-44.3785 165.854,-42.086 156.338,-37.4277 155.51,-44.3785"/>
</g>
<!-- Node3 -->
<g id="node3" class="node"><title>Node3</title>
<g id="a_node3"><a xlink:href="classscram_1_1Logger.xhtml#aebef6b78425a64649abea7dfe7b7d0bc" target="_top" xlink:title="Sets the reporting level cut&#45;off from an integer. ">
<polygon fill="white" stroke="black" points="146,-0.5 146,-19.5 287,-19.5 287,-0.5 146,-0.5"/>
<text text-anchor="middle" x="216.5" y="-7.5" font-family="Helvetica,sans-Serif" font-size="10.00">scram::Logger::SetVerbosity</text>
</a>
</g>
</g>
<!-- Node1&#45;&gt;Node3 -->
<g id="edge2" class="edge"><title>Node1&#45;&gt;Node3</title>
<path fill="none" stroke="midnightblue" d="M110.445,-22.5144C118.618,-21.5408 127.186,-20.5201 135.755,-19.4995"/>
<polygon fill="midnightblue" stroke="midnightblue" points="136.274,-22.9625 145.789,-18.3041 135.445,-16.0116 136.274,-22.9625"/>
</g>
</g>
</svg>
