<?xml version="1.0" encoding="UTF-8" standalone="no"?>
<!DOCTYPE svg PUBLIC "-//W3C//DTD SVG 1.1//EN"
 "http://www.w3.org/Graphics/SVG/1.1/DTD/svg11.dtd">
<!-- Generated by graphviz version 2.38.0 (20140413.2041)
 -->
<!-- Title: scram::mef::Initializer Pages: 1 -->
<svg width="119pt" height="204pt"
 viewBox="0.00 0.00 119.00 204.00" xmlns="http://www.w3.org/2000/svg" xmlns:xlink="http://www.w3.org/1999/xlink">
<g id="graph0" class="graph" transform="scale(1 1) rotate(0) translate(4 200)">
<title>scram::mef::Initializer</title>
<polygon fill="white" stroke="none" points="-4,4 -4,-200 115,-200 115,4 -4,4"/>
<!-- Node1 -->
<g id="node1" class="node"><title>Node1</title>
<polygon fill="#bfbfbf" stroke="black" points="-7.10543e-15,-0.5 -7.10543e-15,-101.5 111,-101.5 111,-0.5 -7.10543e-15,-0.5"/>
<text text-anchor="middle" x="55.5" y="-89.5" font-family="Helvetica,sans-Serif" font-size="10.00">scram::mef::Initializer</text>
<polyline fill="none" stroke="black" points="-7.10543e-15,-82.5 111,-82.5 "/>
<text text-anchor="start" x="8" y="-70.5" font-family="Helvetica,sans-Serif" font-size="10.00">+ parameters</text>
<text text-anchor="start" x="8" y="-59.5" font-family="Helvetica,sans-Serif" font-size="10.00">+ basic_events</text>
<text text-anchor="start" x="8" y="-48.5" font-family="Helvetica,sans-Serif" font-size="10.00">+ gates</text>
<text text-anchor="start" x="8" y="-37.5" font-family="Helvetica,sans-Serif" font-size="10.00">+ ccf_groups</text>
<polyline fill="none" stroke="black" points="-7.10543e-15,-30.5 111,-30.5 "/>
<text text-anchor="start" x="8" y="-18.5" font-family="Helvetica,sans-Serif" font-size="10.00">+ Initializer()</text>
<text text-anchor="start" x="8" y="-7.5" font-family="Helvetica,sans-Serif" font-size="10.00">+ model()</text>
</g>
<!-- Node2 -->
<g id="node2" class="node"><title>Node2</title>
<polygon fill="white" stroke="#bfbfbf" points="20,-138.5 20,-195.5 91,-195.5 91,-138.5 20,-138.5"/>
<text text-anchor="middle" x="55.5" y="-183.5" font-family="Helvetica,sans-Serif" font-size="10.00">noncopyable</text>
<polyline fill="none" stroke="#bfbfbf" points="20,-176.5 91,-176.5 "/>
<text text-anchor="middle" x="55.5" y="-164.5" font-family="Helvetica,sans-Serif" font-size="10.00"> </text>
<polyline fill="none" stroke="#bfbfbf" points="20,-157.5 91,-157.5 "/>
<text text-anchor="middle" x="55.5" y="-145.5" font-family="Helvetica,sans-Serif" font-size="10.00"> </text>
</g>
<!-- Node2&#45;&gt;Node1 -->
<g id="edge1" class="edge"><title>Node2&#45;&gt;Node1</title>
<path fill="none" stroke="#8b1a1a" d="M55.5,-128.354C55.5,-119.796 55.5,-110.578 55.5,-101.608"/>
<polygon fill="none" stroke="#8b1a1a" points="52.0001,-128.404 55.5,-138.404 59.0001,-128.404 52.0001,-128.404"/>
</g>
</g>
</svg>
