<?xml version="1.0" encoding="UTF-8" standalone="no"?>
<!DOCTYPE svg PUBLIC "-//W3C//DTD SVG 1.1//EN"
 "http://www.w3.org/Graphics/SVG/1.1/DTD/svg11.dtd">
<!-- Generated by graphviz version 2.38.0 (20140413.2041)
 -->
<!-- Title: scram::mef::CcfGroup::members Pages: 1 -->
<svg width="416pt" height="88pt"
 viewBox="0.00 0.00 416.00 88.00" xmlns="http://www.w3.org/2000/svg" xmlns:xlink="http://www.w3.org/1999/xlink">
<g id="graph0" class="graph" transform="scale(1 1) rotate(0) translate(4 84)">
<title>scram::mef::CcfGroup::members</title>
<polygon fill="white" stroke="none" points="-4,4 -4,-84 412,-84 412,4 -4,4"/>
<!-- Node1 -->
<g id="node1" class="node"><title>Node1</title>
<polygon fill="#bfbfbf" stroke="black" points="0,-24.5 0,-54.5 114,-54.5 114,-24.5 0,-24.5"/>
<text text-anchor="start" x="8" y="-42.5" font-family="Helvetica,sans-Serif" font-size="10.00">scram::mef::CcfGroup</text>
<text text-anchor="middle" x="57" y="-31.5" font-family="Helvetica,sans-Serif" font-size="10.00">::members</text>
</g>
<!-- Node2 -->
<g id="node2" class="node"><title>Node2</title>
<g id="a_node2"><a xlink:href="classscram_1_1mef_1_1CcfGroup.xhtml#a723878c7c836a52cf9edb5c8d1a37868" target="_top" xlink:title="Adds the distribution that describes the probability of basic events in this CCF group. ">
<polygon fill="white" stroke="black" points="150,-49.5 150,-79.5 264,-79.5 264,-49.5 150,-49.5"/>
<text text-anchor="start" x="158" y="-67.5" font-family="Helvetica,sans-Serif" font-size="10.00">scram::mef::CcfGroup</text>
<text text-anchor="middle" x="207" y="-56.5" font-family="Helvetica,sans-Serif" font-size="10.00">::AddDistribution</text>
</a>
</g>
</g>
<!-- Node1&#45;&gt;Node2 -->
<g id="edge1" class="edge"><title>Node1&#45;&gt;Node2</title>
<path fill="none" stroke="midnightblue" d="M114.375,-49.0227C122.712,-50.4311 131.366,-51.893 139.88,-53.3311"/>
<polygon fill="midnightblue" stroke="midnightblue" points="139.339,-56.7892 149.782,-55.0037 140.505,-49.8869 139.339,-56.7892"/>
</g>
<!-- Node4 -->
<g id="node4" class="node"><title>Node4</title>
<g id="a_node4"><a xlink:href="classscram_1_1mef_1_1CcfGroup.xhtml#a8321bf4372a0575c88b7162716469d15" target="_top" xlink:title="Adds a basic event into this CCF group. ">
<polygon fill="white" stroke="black" points="150,-0.5 150,-30.5 264,-30.5 264,-0.5 150,-0.5"/>
<text text-anchor="start" x="158" y="-18.5" font-family="Helvetica,sans-Serif" font-size="10.00">scram::mef::CcfGroup</text>
<text text-anchor="middle" x="207" y="-7.5" font-family="Helvetica,sans-Serif" font-size="10.00">::AddMember</text>
</a>
</g>
</g>
<!-- Node1&#45;&gt;Node4 -->
<g id="edge3" class="edge"><title>Node1&#45;&gt;Node4</title>
<path fill="none" stroke="midnightblue" d="M114.375,-30.3582C122.712,-29.0062 131.366,-27.6028 139.88,-26.2222"/>
<polygon fill="midnightblue" stroke="midnightblue" points="140.471,-29.6721 149.782,-24.6164 139.351,-22.7623 140.471,-29.6721"/>
</g>
<!-- Node3 -->
<g id="node3" class="node"><title>Node3</title>
<g id="a_node3"><a xlink:href="classscram_1_1mef_1_1Element.xhtml#adb401e2ca84aa98cb60797bec2500a81" target="_top" xlink:title="scram::mef::Element\l::name">
<polygon fill="white" stroke="black" points="300,-24.5 300,-54.5 408,-54.5 408,-24.5 300,-24.5"/>
<text text-anchor="start" x="308" y="-42.5" font-family="Helvetica,sans-Serif" font-size="10.00">scram::mef::Element</text>
<text text-anchor="middle" x="354" y="-31.5" font-family="Helvetica,sans-Serif" font-size="10.00">::name</text>
</a>
</g>
</g>
<!-- Node2&#45;&gt;Node3 -->
<g id="edge2" class="edge"><title>Node2&#45;&gt;Node3</title>
<path fill="none" stroke="midnightblue" d="M264.061,-54.8343C272.538,-53.3727 281.332,-51.8565 289.945,-50.3715"/>
<polygon fill="midnightblue" stroke="midnightblue" points="290.683,-53.796 299.943,-48.6477 289.494,-46.8978 290.683,-53.796"/>
</g>
<!-- Node4&#45;&gt;Node3 -->
<g id="edge4" class="edge"><title>Node4&#45;&gt;Node3</title>
<path fill="none" stroke="midnightblue" d="M264.061,-24.779C272.538,-26.1822 281.332,-27.6377 289.945,-29.0633"/>
<polygon fill="midnightblue" stroke="midnightblue" points="289.506,-32.5381 299.943,-30.7182 290.649,-25.6321 289.506,-32.5381"/>
</g>
</g>
</svg>
