<?xml version="1.0" encoding="UTF-8" standalone="no"?>
<!DOCTYPE svg PUBLIC "-//W3C//DTD SVG 1.1//EN"
 "http://www.w3.org/Graphics/SVG/1.1/DTD/svg11.dtd">
<!-- Generated by graphviz version 2.38.0 (20140413.2041)
 -->
<!-- Title: scram::Config::Config Pages: 1 -->
<!--zoomable 1040 -->
<svg id="main" version="1.1" xmlns="http://www.w3.org/2000/svg" xmlns:xlink="http://www.w3.org/1999/xlink" xml:space="preserve" onload="init(evt)">
<style type="text/css"><![CDATA[
.edge:hover path { stroke: red; }
.edge:hover polygon { stroke: red; fill: red; }
]]></style>
<script type="text/javascript"><![CDATA[
var edges = document.getElementsByTagName('g');
if (edges && edges.length) {
  for (var i=0;i<edges.length;i++) {
    if (edges[i].id.substr(0,4)=='edge') {
      edges[i].setAttribute('class','edge');
    }
  }
}
]]></script>
        <defs>
                <circle id="rim" cx="0" cy="0" r="7"/>
                <circle id="rim2" cx="0" cy="0" r="3.5"/>
                <g id="zoomPlus">
                        <use xlink:href="#rim" fill="#404040">
                                <set attributeName="fill" to="#808080" begin="zoomplus.mouseover" end="zoomplus.mouseout"/>
                        </use>
                        <path d="M-4,0h8M0,-4v8" fill="none" stroke="white" stroke-width="1.5" pointer-events="none"/>
                </g>
                <g id="zoomMin">
                        <use xlink:href="#rim" fill="#404040">
                                <set attributeName="fill" to="#808080" begin="zoomminus.mouseover" end="zoomminus.mouseout"/>
                        </use>
                        <path d="M-4,0h8" fill="none" stroke="white" stroke-width="1.5" pointer-events="none"/>
                </g>
                <g id="dirArrow">
                        <path fill="none" stroke="white" stroke-width="1.5" d="M0,-3.0v7 M-2.5,-0.5L0,-3.0L2.5,-0.5"/>
                </g>
               <g id="resetDef">
                       <use xlink:href="#rim2" fill="#404040">
                               <set attributeName="fill" to="#808080" begin="reset.mouseover" end="reset.mouseout"/>
                       </use>
               </g>
        </defs>

<script type="text/javascript">
var viewWidth = 299;
var viewHeight = 1040;
var sectionId = 'dynsection-0';
</script>
<script xlink:href="svgpan.js"/>
<svg id="graph" class="graph">
<g id="viewport">
<title>scram::Config::Config</title>
<polygon fill="white" stroke="none" points="-4,4 -4,-1035.5 295,-1035.5 295,4 -4,4"/>
<!-- Node1 -->
<g id="node1" class="node"><title>Node1</title>
<polygon fill="#bfbfbf" stroke="black" points="0,-493.5 0,-512.5 113,-512.5 113,-493.5 0,-493.5"/>
<text text-anchor="middle" x="56.5" y="-500.5" font-family="Helvetica,sans-Serif" font-size="10.00">scram::Config::Config</text>
</g>
<!-- Node2 -->
<g id="node2" class="node"><title>Node2</title>
<g id="a_node2"><a xlink:href="classscram_1_1core_1_1Settings.xhtml#af318d3999256756c69c57190ac65b3a5" target="_top" xlink:title="scram::core::Settings\l::algorithm">
<polygon fill="white" stroke="black" points="165,-1001 165,-1031 275,-1031 275,-1001 165,-1001"/>
<text text-anchor="start" x="173" y="-1019" font-family="Helvetica,sans-Serif" font-size="10.00">scram::core::Settings</text>
<text text-anchor="middle" x="220" y="-1008" font-family="Helvetica,sans-Serif" font-size="10.00">::algorithm</text>
</a>
</g>
</g>
<!-- Node1&#45;&gt;Node2 -->
<g id="edge1" class="edge"><title>Node1&#45;&gt;Node2</title>
<path fill="none" stroke="midnightblue" d="M58.0118,-512.685C61.4739,-574.71 83.3449,-916.037 149,-992 151.184,-994.527 153.647,-996.789 156.309,-998.812"/>
<polygon fill="midnightblue" stroke="midnightblue" points="154.492,-1001.8 164.813,-1004.2 158.237,-995.89 154.492,-1001.8"/>
</g>
<!-- Node3 -->
<g id="node3" class="node"><title>Node3</title>
<g id="a_node3"><a xlink:href="classscram_1_1core_1_1Settings.xhtml#ab319bbe7cbd01fcf0aa601dc5afb2c88" target="_top" xlink:title="scram::core::Settings\l::approximation">
<polygon fill="white" stroke="black" points="165,-952 165,-982 275,-982 275,-952 165,-952"/>
<text text-anchor="start" x="173" y="-970" font-family="Helvetica,sans-Serif" font-size="10.00">scram::core::Settings</text>
<text text-anchor="middle" x="220" y="-959" font-family="Helvetica,sans-Serif" font-size="10.00">::approximation</text>
</a>
</g>
</g>
<!-- Node1&#45;&gt;Node3 -->
<g id="edge2" class="edge"><title>Node1&#45;&gt;Node3</title>
<path fill="none" stroke="midnightblue" d="M58.242,-512.835C62.8562,-571.541 89.3913,-875.414 149,-943 151.209,-945.505 153.692,-947.749 156.37,-949.759"/>
<polygon fill="midnightblue" stroke="midnightblue" points="154.578,-952.766 164.909,-955.113 158.296,-946.836 154.578,-952.766"/>
</g>
<!-- Node4 -->
<g id="node4" class="node"><title>Node4</title>
<g id="a_node4"><a xlink:href="classscram_1_1core_1_1Settings.xhtml#a4a71410d7b91bb82cadc29c0fe0b2506" target="_top" xlink:title="scram::core::Settings\l::ccf_analysis">
<polygon fill="white" stroke="black" points="165,-903 165,-933 275,-933 275,-903 165,-903"/>
<text text-anchor="start" x="173" y="-921" font-family="Helvetica,sans-Serif" font-size="10.00">scram::core::Settings</text>
<text text-anchor="middle" x="220" y="-910" font-family="Helvetica,sans-Serif" font-size="10.00">::ccf_analysis</text>
</a>
</g>
</g>
<!-- Node1&#45;&gt;Node4 -->
<g id="edge3" class="edge"><title>Node1&#45;&gt;Node4</title>
<path fill="none" stroke="midnightblue" d="M58.5135,-512.794C64.3541,-567.475 95.3425,-834.664 149,-894 151.06,-896.278 153.346,-898.34 155.797,-900.206"/>
<polygon fill="midnightblue" stroke="midnightblue" points="154.36,-903.438 164.682,-905.827 158.102,-897.523 154.36,-903.438"/>
</g>
<!-- Node5 -->
<g id="node5" class="node"><title>Node5</title>
<g id="a_node5"><a xlink:href="classscram_1_1Env.xhtml#a370a9dc7fd8098d09cfefc825b4471ed" target="_top" xlink:title="scram::Env::config\l_schema">
<polygon fill="white" stroke="black" points="170.5,-854 170.5,-884 269.5,-884 269.5,-854 170.5,-854"/>
<text text-anchor="start" x="178.5" y="-872" font-family="Helvetica,sans-Serif" font-size="10.00">scram::Env::config</text>
<text text-anchor="middle" x="220" y="-861" font-family="Helvetica,sans-Serif" font-size="10.00">_schema</text>
</a>
</g>
</g>
<!-- Node1&#45;&gt;Node5 -->
<g id="edge4" class="edge"><title>Node1&#45;&gt;Node5</title>
<path fill="none" stroke="midnightblue" d="M57.0777,-512.623C55.6739,-556.861 55.709,-742.842 149,-844 152.572,-847.873 156.785,-851.147 161.344,-853.913"/>
<polygon fill="midnightblue" stroke="midnightblue" points="159.97,-857.143 170.459,-858.634 163.189,-850.927 159.97,-857.143"/>
</g>
<!-- Node6 -->
<g id="node6" class="node"><title>Node6</title>
<g id="a_node6"><a xlink:href="xml_8h.xhtml#ac6e06a790ddf60f0108718e37bb405ed" target="_top" xlink:title="Initializes a DOM parser and converts library exceptions into local errors. ">
<polygon fill="white" stroke="black" points="149,-797.5 149,-816.5 291,-816.5 291,-797.5 149,-797.5"/>
<text text-anchor="middle" x="220" y="-804.5" font-family="Helvetica,sans-Serif" font-size="10.00">scram::ConstructDomParser</text>
</a>
</g>
</g>
<!-- Node1&#45;&gt;Node6 -->
<g id="edge5" class="edge"><title>Node1&#45;&gt;Node6</title>
<path fill="none" stroke="midnightblue" d="M57.4991,-512.529C58.0335,-552.507 65.5848,-708.306 149,-788 150.502,-789.435 152.102,-790.765 153.78,-791.995"/>
<polygon fill="midnightblue" stroke="midnightblue" points="152.359,-795.224 162.735,-797.365 155.959,-789.221 152.359,-795.224"/>
</g>
<!-- Node7 -->
<g id="node7" class="node"><title>Node7</title>
<g id="a_node7"><a xlink:href="classscram_1_1core_1_1Settings.xhtml#acbba7a642ade93cf58155748cdf0b446" target="_top" xlink:title="scram::core::Settings\l::cut_off">
<polygon fill="white" stroke="black" points="165,-748 165,-778 275,-778 275,-748 165,-748"/>
<text text-anchor="start" x="173" y="-766" font-family="Helvetica,sans-Serif" font-size="10.00">scram::core::Settings</text>
<text text-anchor="middle" x="220" y="-755" font-family="Helvetica,sans-Serif" font-size="10.00">::cut_off</text>
</a>
</g>
</g>
<!-- Node1&#45;&gt;Node7 -->
<g id="edge7" class="edge"><title>Node1&#45;&gt;Node7</title>
<path fill="none" stroke="midnightblue" d="M58.4259,-512.599C62.3307,-547.837 80.5627,-671.471 149,-738 151.169,-740.108 153.527,-742.04 156.022,-743.81"/>
<polygon fill="midnightblue" stroke="midnightblue" points="154.589,-747.034 164.955,-749.225 158.218,-741.048 154.589,-747.034"/>
</g>
<!-- Node8 -->
<g id="node8" class="node"><title>Node8</title>
<g id="a_node8"><a xlink:href="xml_8h.xhtml#a0c5491388e25d1f1badb26b56ef302e7" target="_top" xlink:title="Returns Normalized (trimmed) string value of an XML element attribute. ">
<polygon fill="white" stroke="black" points="156.5,-691.5 156.5,-710.5 283.5,-710.5 283.5,-691.5 156.5,-691.5"/>
<text text-anchor="middle" x="220" y="-698.5" font-family="Helvetica,sans-Serif" font-size="10.00">scram::GetAttributeValue</text>
</a>
</g>
</g>
<!-- Node1&#45;&gt;Node8 -->
<g id="edge8" class="edge"><title>Node1&#45;&gt;Node8</title>
<path fill="none" stroke="midnightblue" d="M59.5879,-512.914C66.4995,-543.218 91.5438,-635.381 149,-682 151.246,-683.822 153.652,-685.471 156.173,-686.962"/>
<polygon fill="midnightblue" stroke="midnightblue" points="154.603,-690.09 165.11,-691.448 157.743,-683.834 154.603,-690.09"/>
</g>
<!-- Node9 -->
<g id="node9" class="node"><title>Node9</title>
<g id="a_node9"><a xlink:href="xml_8h.xhtml#a818b7826f3993c5ff58d45a237274285" target="_top" xlink:title="Returns Normalized content of an XML text node. ">
<polygon fill="white" stroke="black" points="170,-635.5 170,-654.5 270,-654.5 270,-635.5 170,-635.5"/>
<text text-anchor="middle" x="220" y="-642.5" font-family="Helvetica,sans-Serif" font-size="10.00">scram::GetContent</text>
</a>
</g>
</g>
<!-- Node1&#45;&gt;Node9 -->
<g id="edge10" class="edge"><title>Node1&#45;&gt;Node9</title>
<path fill="none" stroke="midnightblue" d="M61.9006,-512.721C72.9776,-536.061 104.352,-595.577 149,-626 152.512,-628.393 156.315,-630.485 160.271,-632.315"/>
<polygon fill="midnightblue" stroke="midnightblue" points="159.13,-635.629 169.713,-636.124 161.748,-629.137 159.13,-635.629"/>
</g>
<!-- Node10 -->
<g id="node10" class="node"><title>Node10</title>
<g id="a_node10"><a xlink:href="classscram_1_1core_1_1Settings.xhtml#a16c99e2ccd22a9be037f6c6fe229894b" target="_top" xlink:title="scram::core::Settings\l::importance_analysis">
<polygon fill="white" stroke="black" points="164,-586 164,-616 276,-616 276,-586 164,-586"/>
<text text-anchor="start" x="172" y="-604" font-family="Helvetica,sans-Serif" font-size="10.00">scram::core::Settings</text>
<text text-anchor="middle" x="220" y="-593" font-family="Helvetica,sans-Serif" font-size="10.00">::importance_analysis</text>
</a>
</g>
</g>
<!-- Node1&#45;&gt;Node10 -->
<g id="edge12" class="edge"><title>Node1&#45;&gt;Node10</title>
<path fill="none" stroke="midnightblue" d="M67.3357,-512.951C83.2268,-528.538 116.104,-558.807 149,-577 152.072,-578.699 155.286,-580.309 158.577,-581.829"/>
<polygon fill="midnightblue" stroke="midnightblue" points="157.429,-585.145 167.999,-585.876 160.192,-578.714 157.429,-585.145"/>
</g>
<!-- Node11 -->
<g id="node11" class="node"><title>Node11</title>
<g id="a_node11"><a xlink:href="classscram_1_1Config.xhtml#a5ac61fcdac1a41a1d19c191c9a5c50b4" target="_top" xlink:title="scram::Config::input\l_files">
<polygon fill="white" stroke="black" points="167.5,-537 167.5,-567 272.5,-567 272.5,-537 167.5,-537"/>
<text text-anchor="start" x="175.5" y="-555" font-family="Helvetica,sans-Serif" font-size="10.00">scram::Config::input</text>
<text text-anchor="middle" x="220" y="-544" font-family="Helvetica,sans-Serif" font-size="10.00">_files</text>
</a>
</g>
</g>
<!-- Node1&#45;&gt;Node11 -->
<g id="edge13" class="edge"><title>Node1&#45;&gt;Node11</title>
<path fill="none" stroke="midnightblue" d="M89.0222,-512.564C109.112,-518.659 135.774,-526.749 159.721,-534.014"/>
<polygon fill="midnightblue" stroke="midnightblue" points="158.854,-537.409 169.439,-536.963 160.886,-530.71 158.854,-537.409"/>
</g>
<!-- Node12 -->
<g id="node12" class="node"><title>Node12</title>
<g id="a_node12"><a xlink:href="classscram_1_1core_1_1Settings.xhtml#a0e43ec0f017d23a4fa4e376c4060d380" target="_top" xlink:title="scram::core::Settings\l::limit_order">
<polygon fill="white" stroke="black" points="165,-488 165,-518 275,-518 275,-488 165,-488"/>
<text text-anchor="start" x="173" y="-506" font-family="Helvetica,sans-Serif" font-size="10.00">scram::core::Settings</text>
<text text-anchor="middle" x="220" y="-495" font-family="Helvetica,sans-Serif" font-size="10.00">::limit_order</text>
</a>
</g>
</g>
<!-- Node1&#45;&gt;Node12 -->
<g id="edge14" class="edge"><title>Node1&#45;&gt;Node12</title>
<path fill="none" stroke="midnightblue" d="M113.079,-503C126.458,-503 140.86,-503 154.603,-503"/>
<polygon fill="midnightblue" stroke="midnightblue" points="154.956,-506.5 164.956,-503 154.956,-499.5 154.956,-506.5"/>
</g>
<!-- Node13 -->
<g id="node13" class="node"><title>Node13</title>
<g id="a_node13"><a xlink:href="classscram_1_1core_1_1Settings.xhtml#a0c130c599ff39bd4a5b269907f06b66d" target="_top" xlink:title="scram::core::Settings\l::mission_time">
<polygon fill="white" stroke="black" points="165,-439 165,-469 275,-469 275,-439 165,-439"/>
<text text-anchor="start" x="173" y="-457" font-family="Helvetica,sans-Serif" font-size="10.00">scram::core::Settings</text>
<text text-anchor="middle" x="220" y="-446" font-family="Helvetica,sans-Serif" font-size="10.00">::mission_time</text>
</a>
</g>
</g>
<!-- Node1&#45;&gt;Node13 -->
<g id="edge15" class="edge"><title>Node1&#45;&gt;Node13</title>
<path fill="none" stroke="midnightblue" d="M89.0222,-493.436C109.112,-487.341 135.774,-479.251 159.721,-471.986"/>
<polygon fill="midnightblue" stroke="midnightblue" points="160.886,-475.29 169.439,-469.037 158.854,-468.591 160.886,-475.29"/>
</g>
<!-- Node14 -->
<g id="node14" class="node"><title>Node14</title>
<g id="a_node14"><a xlink:href="classscram_1_1Error.xhtml#a35818dcc7c8dde101d4fd117adf47bc3" target="_top" xlink:title="scram::Error::msg">
<polygon fill="white" stroke="black" points="172.5,-400.5 172.5,-419.5 267.5,-419.5 267.5,-400.5 172.5,-400.5"/>
<text text-anchor="middle" x="220" y="-407.5" font-family="Helvetica,sans-Serif" font-size="10.00">scram::Error::msg</text>
</a>
</g>
</g>
<!-- Node1&#45;&gt;Node14 -->
<g id="edge16" class="edge"><title>Node1&#45;&gt;Node14</title>
<path fill="none" stroke="midnightblue" d="M66.7461,-493.495C82.3234,-478.005 115.401,-447.315 149,-430 154.254,-427.292 159.925,-424.906 165.684,-422.815"/>
<polygon fill="midnightblue" stroke="midnightblue" points="167.027,-426.057 175.403,-419.569 164.809,-419.417 167.027,-426.057"/>
</g>
<!-- Node15 -->
<g id="node15" class="node"><title>Node15</title>
<g id="a_node15"><a xlink:href="classscram_1_1core_1_1Settings.xhtml#ad646c62b90b1e6cef5a2db6ea9834601" target="_top" xlink:title="scram::core::Settings\l::num_bins">
<polygon fill="white" stroke="black" points="165,-351 165,-381 275,-381 275,-351 165,-351"/>
<text text-anchor="start" x="173" y="-369" font-family="Helvetica,sans-Serif" font-size="10.00">scram::core::Settings</text>
<text text-anchor="middle" x="220" y="-358" font-family="Helvetica,sans-Serif" font-size="10.00">::num_bins</text>
</a>
</g>
</g>
<!-- Node1&#45;&gt;Node15 -->
<g id="edge17" class="edge"><title>Node1&#45;&gt;Node15</title>
<path fill="none" stroke="midnightblue" d="M62.8292,-493.422C75.201,-472.024 107.967,-419.949 149,-391 151.689,-389.103 154.537,-387.336 157.485,-385.692"/>
<polygon fill="midnightblue" stroke="midnightblue" points="159.212,-388.741 166.573,-381.12 156.067,-382.487 159.212,-388.741"/>
</g>
<!-- Node16 -->
<g id="node16" class="node"><title>Node16</title>
<g id="a_node16"><a xlink:href="classscram_1_1core_1_1Settings.xhtml#a35d180dd84bc1006157a02791c4bd210" target="_top" xlink:title="scram::core::Settings\l::num_quantiles">
<polygon fill="white" stroke="black" points="165,-302 165,-332 275,-332 275,-302 165,-302"/>
<text text-anchor="start" x="173" y="-320" font-family="Helvetica,sans-Serif" font-size="10.00">scram::core::Settings</text>
<text text-anchor="middle" x="220" y="-309" font-family="Helvetica,sans-Serif" font-size="10.00">::num_quantiles</text>
</a>
</g>
</g>
<!-- Node1&#45;&gt;Node16 -->
<g id="edge18" class="edge"><title>Node1&#45;&gt;Node16</title>
<path fill="none" stroke="midnightblue" d="M60.2931,-493.479C68.8477,-465.942 97.2968,-385.417 149,-342 151.224,-340.133 153.597,-338.401 156.077,-336.794"/>
<polygon fill="midnightblue" stroke="midnightblue" points="157.891,-339.789 164.854,-331.804 154.431,-333.704 157.891,-339.789"/>
</g>
<!-- Node17 -->
<g id="node17" class="node"><title>Node17</title>
<g id="a_node17"><a xlink:href="classscram_1_1core_1_1Settings.xhtml#adda26a07ac3d505246a23b80829f8267" target="_top" xlink:title="scram::core::Settings\l::num_trials">
<polygon fill="white" stroke="black" points="165,-253 165,-283 275,-283 275,-253 165,-253"/>
<text text-anchor="start" x="173" y="-271" font-family="Helvetica,sans-Serif" font-size="10.00">scram::core::Settings</text>
<text text-anchor="middle" x="220" y="-260" font-family="Helvetica,sans-Serif" font-size="10.00">::num_trials</text>
</a>
</g>
</g>
<!-- Node1&#45;&gt;Node17 -->
<g id="edge19" class="edge"><title>Node1&#45;&gt;Node17</title>
<path fill="none" stroke="midnightblue" d="M58.9816,-493.058C64.4496,-459.818 86.5233,-351.373 149,-293 151.166,-290.976 153.506,-289.115 155.973,-287.402"/>
<polygon fill="midnightblue" stroke="midnightblue" points="157.991,-290.274 164.775,-282.135 154.396,-284.267 157.991,-290.274"/>
</g>
<!-- Node18 -->
<g id="node18" class="node"><title>Node18</title>
<g id="a_node18"><a xlink:href="classscram_1_1core_1_1Settings.xhtml#ae64f362fceb44402e101140dfc1725ba" target="_top" xlink:title="scram::core::Settings\l::prime_implicants">
<polygon fill="white" stroke="black" points="165,-204 165,-234 275,-234 275,-204 165,-204"/>
<text text-anchor="start" x="173" y="-222" font-family="Helvetica,sans-Serif" font-size="10.00">scram::core::Settings</text>
<text text-anchor="middle" x="220" y="-211" font-family="Helvetica,sans-Serif" font-size="10.00">::prime_implicants</text>
</a>
</g>
</g>
<!-- Node1&#45;&gt;Node18 -->
<g id="edge20" class="edge"><title>Node1&#45;&gt;Node18</title>
<path fill="none" stroke="midnightblue" d="M58.0258,-493.484C60.5958,-456.179 74.9409,-318.313 149,-244 151.135,-241.858 153.466,-239.898 155.939,-238.106"/>
<polygon fill="midnightblue" stroke="midnightblue" points="158.14,-240.861 164.815,-232.633 154.466,-234.902 158.14,-240.861"/>
</g>
<!-- Node19 -->
<g id="node19" class="node"><title>Node19</title>
<g id="a_node19"><a xlink:href="classscram_1_1core_1_1Settings.xhtml#a83ddd939f7217fb9f0438bd1dd01f7b1" target="_top" xlink:title="scram::core::Settings\l::probability_analysis">
<polygon fill="white" stroke="black" points="165,-155 165,-185 275,-185 275,-155 165,-155"/>
<text text-anchor="start" x="173" y="-173" font-family="Helvetica,sans-Serif" font-size="10.00">scram::core::Settings</text>
<text text-anchor="middle" x="220" y="-162" font-family="Helvetica,sans-Serif" font-size="10.00">::probability_analysis</text>
</a>
</g>
</g>
<!-- Node1&#45;&gt;Node19 -->
<g id="edge21" class="edge"><title>Node1&#45;&gt;Node19</title>
<path fill="none" stroke="midnightblue" d="M57.405,-493.468C57.5157,-451.996 63.4583,-285.313 149,-195 151.121,-192.76 153.457,-190.721 155.949,-188.864"/>
<polygon fill="midnightblue" stroke="midnightblue" points="158.323,-191.506 164.934,-183.227 154.603,-185.576 158.323,-191.506"/>
</g>
<!-- Node20 -->
<g id="node20" class="node"><title>Node20</title>
<g id="a_node20"><a xlink:href="classscram_1_1core_1_1Settings.xhtml#a9937a41d3fd1369f2eea59e1f33a1ac5" target="_top" xlink:title="scram::core::Settings\l::seed">
<polygon fill="white" stroke="black" points="165,-106 165,-136 275,-136 275,-106 165,-106"/>
<text text-anchor="start" x="173" y="-124" font-family="Helvetica,sans-Serif" font-size="10.00">scram::core::Settings</text>
<text text-anchor="middle" x="220" y="-113" font-family="Helvetica,sans-Serif" font-size="10.00">::seed</text>
</a>
</g>
</g>
<!-- Node1&#45;&gt;Node20 -->
<g id="edge22" class="edge"><title>Node1&#45;&gt;Node20</title>
<path fill="none" stroke="midnightblue" d="M58.7356,-493.396C65.5203,-442.025 99.7453,-200.015 149,-146 151.079,-143.72 153.38,-141.649 155.843,-139.766"/>
<polygon fill="midnightblue" stroke="midnightblue" points="158.22,-142.4 164.758,-134.063 154.448,-136.503 158.22,-142.4"/>
</g>
<!-- Node21 -->
<g id="node21" class="node"><title>Node21</title>
<g id="a_node21"><a xlink:href="classscram_1_1core_1_1Settings.xhtml#aa07ede20b118ae78028fb0807e52f632" target="_top" xlink:title="scram::core::Settings\l::uncertainty_analysis">
<polygon fill="white" stroke="black" points="164,-57 164,-87 276,-87 276,-57 164,-57"/>
<text text-anchor="start" x="172" y="-75" font-family="Helvetica,sans-Serif" font-size="10.00">scram::core::Settings</text>
<text text-anchor="middle" x="220" y="-64" font-family="Helvetica,sans-Serif" font-size="10.00">::uncertainty_analysis</text>
</a>
</g>
</g>
<!-- Node1&#45;&gt;Node21 -->
<g id="edge23" class="edge"><title>Node1&#45;&gt;Node21</title>
<path fill="none" stroke="midnightblue" d="M58.4352,-493.212C63.9532,-437.355 93.9162,-159.21 149,-97 150.965,-94.7809 153.141,-92.7587 155.474,-90.916"/>
<polygon fill="midnightblue" stroke="midnightblue" points="157.526,-93.7547 163.934,-85.3171 153.663,-87.9172 157.526,-93.7547"/>
</g>
<!-- Node22 -->
<g id="node22" class="node"><title>Node22</title>
<g id="a_node22"><a xlink:href="xml_8h.xhtml#ab908f9834f69be3009ee07445b51a673" target="_top" xlink:title="Helper function to statically cast to XML element. ">
<polygon fill="white" stroke="black" points="168.5,-0.5 168.5,-19.5 271.5,-19.5 271.5,-0.5 168.5,-0.5"/>
<text text-anchor="middle" x="220" y="-7.5" font-family="Helvetica,sans-Serif" font-size="10.00">scram::XmlElement</text>
</a>
</g>
</g>
<!-- Node1&#45;&gt;Node22 -->
<g id="edge24" class="edge"><title>Node1&#45;&gt;Node22</title>
<path fill="none" stroke="midnightblue" d="M58.3317,-493.357C63.5728,-434.439 93.6058,-123.032 149,-48 156.712,-37.5541 168.184,-29.6587 179.62,-23.8483"/>
<polygon fill="midnightblue" stroke="midnightblue" points="181.116,-27.0127 188.712,-19.6265 178.168,-20.6638 181.116,-27.0127"/>
</g>
<!-- Node6&#45;&gt;Node6 -->
<g id="edge6" class="edge"><title>Node6&#45;&gt;Node6</title>
<path fill="none" stroke="midnightblue" d="M195.031,-816.757C182.884,-825.565 191.207,-835 220,-835 239.345,-835 249.45,-830.741 250.314,-825.275"/>
<polygon fill="midnightblue" stroke="midnightblue" points="253.249,-823.367 244.969,-816.757 247.32,-827.088 253.249,-823.367"/>
</g>
<!-- Node8&#45;&gt;Node8 -->
<g id="edge9" class="edge"><title>Node8&#45;&gt;Node8</title>
<path fill="none" stroke="midnightblue" d="M195.031,-710.757C182.884,-719.565 191.207,-729 220,-729 239.345,-729 249.45,-724.741 250.314,-719.275"/>
<polygon fill="midnightblue" stroke="midnightblue" points="253.249,-717.367 244.969,-710.757 247.32,-721.088 253.249,-717.367"/>
</g>
<!-- Node9&#45;&gt;Node9 -->
<g id="edge11" class="edge"><title>Node9&#45;&gt;Node9</title>
<path fill="none" stroke="midnightblue" d="M195.031,-654.757C182.884,-663.565 191.207,-673 220,-673 239.345,-673 249.45,-668.741 250.314,-663.275"/>
<polygon fill="midnightblue" stroke="midnightblue" points="253.249,-661.367 244.969,-654.757 247.32,-665.088 253.249,-661.367"/>
</g>
<!-- Node22&#45;&gt;Node22 -->
<g id="edge25" class="edge"><title>Node22&#45;&gt;Node22</title>
<path fill="none" stroke="midnightblue" d="M195.031,-19.7571C182.884,-28.5653 191.207,-38 220,-38 239.345,-38 249.45,-33.741 250.314,-28.2746"/>
<polygon fill="midnightblue" stroke="midnightblue" points="253.249,-26.3667 244.969,-19.7571 247.32,-30.0877 253.249,-26.3667"/>
</g>
</g>
</svg>
        <g id="navigator" transform="translate(0 0)" fill="#404254">
                <rect fill="#f2f5e9" fill-opacity="0.5" stroke="#606060" stroke-width=".5" x="0" y="0" width="60" height="60"/>
                <use id="zoomplus" xlink:href="#zoomPlus" x="17" y="9" onmousedown="handleZoom(evt,'in')"/>
                <use id="zoomminus" xlink:href="#zoomMin" x="42" y="9" onmousedown="handleZoom(evt,'out')"/>
                <use id="reset" xlink:href="#resetDef" x="30" y="36" onmousedown="handleReset()"/>
                <g id="arrowUp" xlink:href="#dirArrow" transform="translate(30 24)" onmousedown="handlePan(0,-1)">
                  <use xlink:href="#rim" fill="#404040">
                        <set attributeName="fill" to="#808080" begin="arrowUp.mouseover" end="arrowUp.mouseout"/>
                  </use>
                  <path fill="none" stroke="white" stroke-width="1.5" d="M0,-3.0v7 M-2.5,-0.5L0,-3.0L2.5,-0.5"/>
                </g>
                <g id="arrowRight" xlink:href="#dirArrow" transform="rotate(90) translate(36 -43)" onmousedown="handlePan(1,0)">
                  <use xlink:href="#rim" fill="#404040">
                        <set attributeName="fill" to="#808080" begin="arrowRight.mouseover" end="arrowRight.mouseout"/>
                  </use>
                  <path fill="none" stroke="white" stroke-width="1.5" d="M0,-3.0v7 M-2.5,-0.5L0,-3.0L2.5,-0.5"/>
                </g>
                <g id="arrowDown" xlink:href="#dirArrow" transform="rotate(180) translate(-30 -48)" onmousedown="handlePan(0,1)">
                  <use xlink:href="#rim" fill="#404040">
                        <set attributeName="fill" to="#808080" begin="arrowDown.mouseover" end="arrowDown.mouseout"/>
                  </use>
                  <path fill="none" stroke="white" stroke-width="1.5" d="M0,-3.0v7 M-2.5,-0.5L0,-3.0L2.5,-0.5"/>
                </g>
                <g id="arrowLeft" xlink:href="#dirArrow" transform="rotate(270) translate(-36 17)" onmousedown="handlePan(-1,0)">
                  <use xlink:href="#rim" fill="#404040">
                        <set attributeName="fill" to="#808080" begin="arrowLeft.mouseover" end="arrowLeft.mouseout"/>
                  </use>
                  <path fill="none" stroke="white" stroke-width="1.5" d="M0,-3.0v7 M-2.5,-0.5L0,-3.0L2.5,-0.5"/>
                </g>
        </g>
        <svg viewBox="0 0 15 15" width="100%" height="30px" preserveAspectRatio="xMaxYMin meet">
         <g id="arrow_out" transform="scale(0.3 0.3)">
          <a xlink:href="classscram_1_1Config_ab0d7940fbb627fab9867821e133eab5d_cgraph_org.svg" target="_base">
           <rect id="button" ry="5" rx="5" y="6" x="6" height="38" width="38"
                fill="#f2f5e9" fill-opacity="0.5" stroke="#606060" stroke-width="1.0"/>
           <path id="arrow"
             d="M 11.500037,31.436501 C 11.940474,20.09759 22.043105,11.32322 32.158766,21.979434 L 37.068811,17.246167 C 37.068811,17.246167 37.088388,32 37.088388,32 L 22.160133,31.978069 C 22.160133,31.978069 26.997745,27.140456 26.997745,27.140456 C 18.528582,18.264221 13.291696,25.230495 11.500037,31.436501 z"
             style="fill:#404040;"/>
          </a>
         </g>
        </svg>
</svg>
