<?xml version="1.0" encoding="UTF-8" standalone="no"?>
<!DOCTYPE svg PUBLIC "-//W3C//DTD SVG 1.1//EN"
 "http://www.w3.org/Graphics/SVG/1.1/DTD/svg11.dtd">
<!-- Generated by graphviz version 2.38.0 (20140413.2041)
 -->
<!-- Title: scram::core::ImportanceAnalysis::GatherImportantEvents Pages: 1 -->
<svg width="524pt" height="167pt"
 viewBox="0.00 0.00 524.00 167.00" xmlns="http://www.w3.org/2000/svg" xmlns:xlink="http://www.w3.org/1999/xlink">
<g id="graph0" class="graph" transform="scale(1 1) rotate(0) translate(4 163)">
<title>scram::core::ImportanceAnalysis::GatherImportantEvents</title>
<polygon fill="white" stroke="none" points="-4,4 -4,-163 520,-163 520,4 -4,4"/>
<!-- Node1 -->
<g id="node1" class="node"><title>Node1</title>
<polygon fill="#bfbfbf" stroke="black" points="0,-39 0,-69 161,-69 161,-39 0,-39"/>
<text text-anchor="start" x="8" y="-57" font-family="Helvetica,sans-Serif" font-size="10.00">scram::core::ImportanceAnalysis</text>
<text text-anchor="middle" x="80.5" y="-46" font-family="Helvetica,sans-Serif" font-size="10.00">::GatherImportantEvents</text>
</g>
<!-- Node2 -->
<g id="node2" class="node"><title>Node2</title>
<g id="a_node2"><a xlink:href="classscram_1_1core_1_1BooleanGraph.xhtml#a11d6f8ffabe49a67c5d1aa5cb39386d9" target="_top" xlink:title="Helper function to map the results of the indexation to the original basic events. ">
<polygon fill="white" stroke="black" points="209.5,-88 209.5,-118 345.5,-118 345.5,-88 209.5,-88"/>
<text text-anchor="start" x="217.5" y="-106" font-family="Helvetica,sans-Serif" font-size="10.00">scram::core::BooleanGraph</text>
<text text-anchor="middle" x="277.5" y="-95" font-family="Helvetica,sans-Serif" font-size="10.00">::GetBasicEvent</text>
</a>
</g>
</g>
<!-- Node1&#45;&gt;Node2 -->
<g id="edge1" class="edge"><title>Node1&#45;&gt;Node2</title>
<path fill="none" stroke="midnightblue" d="M141.332,-69.0346C162.108,-74.2554 185.581,-80.1537 207.067,-85.5526"/>
<polygon fill="midnightblue" stroke="midnightblue" points="206.23,-88.9512 216.782,-87.9938 207.936,-82.1622 206.23,-88.9512"/>
</g>
<!-- Node5 -->
<g id="node5" class="node"><title>Node5</title>
<g id="a_node5"><a xlink:href="classscram_1_1core_1_1ImportanceAnalysis.xhtml#ae73b6d9e7fcedd463c2e095c4cb23cb7" target="_top" xlink:title="scram::core::ImportanceAnalysis\l::important_events">
<polygon fill="white" stroke="black" points="197,-39 197,-69 358,-69 358,-39 197,-39"/>
<text text-anchor="start" x="205" y="-57" font-family="Helvetica,sans-Serif" font-size="10.00">scram::core::ImportanceAnalysis</text>
<text text-anchor="middle" x="277.5" y="-46" font-family="Helvetica,sans-Serif" font-size="10.00">::important_events</text>
</a>
</g>
</g>
<!-- Node1&#45;&gt;Node5 -->
<g id="edge6" class="edge"><title>Node1&#45;&gt;Node5</title>
<path fill="none" stroke="midnightblue" d="M161.095,-54C169.573,-54 178.237,-54 186.821,-54"/>
<polygon fill="midnightblue" stroke="midnightblue" points="186.843,-57.5001 196.843,-54 186.843,-50.5001 186.843,-57.5001"/>
</g>
<!-- Node6 -->
<g id="node6" class="node"><title>Node6</title>
<g id="a_node6"><a xlink:href="classscram_1_1core_1_1Ite.xhtml#a55a7d6955f67d68f01287950c7efc782" target="_top" xlink:title="Recovers a shared pointer to Ite from a pointer to Vertex. ">
<polygon fill="white" stroke="black" points="225.5,-0.5 225.5,-19.5 329.5,-19.5 329.5,-0.5 225.5,-0.5"/>
<text text-anchor="middle" x="277.5" y="-7.5" font-family="Helvetica,sans-Serif" font-size="10.00">scram::core::Ite::Ptr</text>
</a>
</g>
</g>
<!-- Node1&#45;&gt;Node6 -->
<g id="edge7" class="edge"><title>Node1&#45;&gt;Node6</title>
<path fill="none" stroke="midnightblue" d="M148.063,-38.9808C173.067,-33.3388 201.099,-27.0136 224.58,-21.7153"/>
<polygon fill="midnightblue" stroke="midnightblue" points="225.358,-25.1277 234.343,-19.5124 223.818,-18.2994 225.358,-25.1277"/>
</g>
<!-- Node3 -->
<g id="node3" class="node"><title>Node3</title>
<g id="a_node3"><a xlink:href="boolean__graph_8cc.xhtml#a8f04430e7ed0fd624250f5c67af9c464" target="_top" xlink:title="Prints Boolean graph nodes in the Aralia format. ">
<polygon fill="white" stroke="black" points="394,-121.5 394,-140.5 516,-140.5 516,-121.5 394,-121.5"/>
<text text-anchor="middle" x="455" y="-128.5" font-family="Helvetica,sans-Serif" font-size="10.00">scram::core::operator&lt;&lt;</text>
</a>
</g>
</g>
<!-- Node2&#45;&gt;Node3 -->
<g id="edge2" class="edge"><title>Node2&#45;&gt;Node3</title>
<path fill="none" stroke="midnightblue" d="M345.6,-113.705C358.275,-115.728 371.559,-117.847 384.312,-119.882"/>
<polygon fill="midnightblue" stroke="midnightblue" points="383.976,-123.372 394.403,-121.492 385.079,-116.46 383.976,-123.372"/>
</g>
<!-- Node4 -->
<g id="node4" class="node"><title>Node4</title>
<g id="a_node4"><a xlink:href="fault__tree__analysis_8cc.xhtml#ae462a016941b9c817b69891ea5dfd1e1" target="_top" xlink:title="Prints a collection of products to the standard error. ">
<polygon fill="white" stroke="black" points="407.5,-65.5 407.5,-84.5 502.5,-84.5 502.5,-65.5 407.5,-65.5"/>
<text text-anchor="middle" x="455" y="-72.5" font-family="Helvetica,sans-Serif" font-size="10.00">scram::core::Print</text>
</a>
</g>
</g>
<!-- Node2&#45;&gt;Node4 -->
<g id="edge4" class="edge"><title>Node2&#45;&gt;Node4</title>
<path fill="none" stroke="midnightblue" d="M345.6,-92.2945C362.669,-89.5713 380.843,-86.6718 397.334,-84.0407"/>
<polygon fill="midnightblue" stroke="midnightblue" points="398.037,-87.473 407.36,-82.4411 396.934,-80.5604 398.037,-87.473"/>
</g>
<!-- Node3&#45;&gt;Node3 -->
<g id="edge3" class="edge"><title>Node3&#45;&gt;Node3</title>
<path fill="none" stroke="midnightblue" d="M427.873,-140.757C414.677,-149.565 423.719,-159 455,-159 476.506,-159 487.5,-154.541 487.983,-148.891"/>
<polygon fill="midnightblue" stroke="midnightblue" points="490.81,-146.827 482.127,-140.757 485.129,-150.917 490.81,-146.827"/>
</g>
<!-- Node4&#45;&gt;Node4 -->
<g id="edge5" class="edge"><title>Node4&#45;&gt;Node4</title>
<path fill="none" stroke="midnightblue" d="M427.873,-84.7571C414.677,-93.5653 423.719,-103 455,-103 476.506,-103 487.5,-98.5406 487.983,-92.8913"/>
<polygon fill="midnightblue" stroke="midnightblue" points="490.81,-90.8273 482.127,-84.7571 485.129,-94.9175 490.81,-90.8273"/>
</g>
</g>
</svg>
