<?xml version="1.0" encoding="UTF-8" standalone="no"?>
<!DOCTYPE svg PUBLIC "-//W3C//DTD SVG 1.1//EN"
 "http://www.w3.org/Graphics/SVG/1.1/DTD/svg11.dtd">
<!-- Generated by graphviz version 2.38.0 (20140413.2041)
 -->
<!-- Title: scram::mef::UniformDeviate::Validate Pages: 1 -->
<svg width="488pt" height="203pt"
 viewBox="0.00 0.00 488.00 202.50" xmlns="http://www.w3.org/2000/svg" xmlns:xlink="http://www.w3.org/1999/xlink">
<g id="graph0" class="graph" transform="scale(1 1) rotate(0) translate(4 198.5)">
<title>scram::mef::UniformDeviate::Validate</title>
<polygon fill="white" stroke="none" points="-4,4 -4,-198.5 484,-198.5 484,4 -4,4"/>
<!-- Node1 -->
<g id="node1" class="node"><title>Node1</title>
<polygon fill="#bfbfbf" stroke="black" points="0,-93.5 0,-123.5 140,-123.5 140,-93.5 0,-93.5"/>
<text text-anchor="start" x="8" y="-111.5" font-family="Helvetica,sans-Serif" font-size="10.00">scram::mef::UniformDeviate</text>
<text text-anchor="middle" x="70" y="-100.5" font-family="Helvetica,sans-Serif" font-size="10.00">::Validate</text>
</g>
<!-- Node2 -->
<g id="node2" class="node"><title>Node2</title>
<g id="a_node2"><a xlink:href="classscram_1_1mef_1_1Expression.xhtml#a6b2d7f3d3abf98002c8cccee426edecc" target="_top" xlink:title="scram::mef::Expression::Max">
<polygon fill="white" stroke="black" points="176.5,-175 176.5,-194 322.5,-194 322.5,-175 176.5,-175"/>
<text text-anchor="middle" x="249.5" y="-182" font-family="Helvetica,sans-Serif" font-size="10.00">scram::mef::Expression::Max</text>
</a>
</g>
</g>
<!-- Node1&#45;&gt;Node2 -->
<g id="edge1" class="edge"><title>Node1&#45;&gt;Node2</title>
<path fill="none" stroke="midnightblue" d="M99.0254,-123.722C119.897,-134.726 149.281,-149.524 176,-160.5 185.852,-164.547 196.659,-168.417 206.852,-171.823"/>
<polygon fill="midnightblue" stroke="midnightblue" points="205.793,-175.159 216.386,-174.937 207.967,-168.505 205.793,-175.159"/>
</g>
<!-- Node3 -->
<g id="node3" class="node"><title>Node3</title>
<g id="a_node3"><a xlink:href="classscram_1_1mef_1_1Expression.xhtml#ac7e0dd118eafdfa943944172c1625a4e" target="_top" xlink:title="scram::mef::Expression\l::Mean">
<polygon fill="white" stroke="black" points="359,-131.5 359,-161.5 480,-161.5 480,-131.5 359,-131.5"/>
<text text-anchor="start" x="367" y="-149.5" font-family="Helvetica,sans-Serif" font-size="10.00">scram::mef::Expression</text>
<text text-anchor="middle" x="419.5" y="-138.5" font-family="Helvetica,sans-Serif" font-size="10.00">::Mean</text>
</a>
</g>
</g>
<!-- Node1&#45;&gt;Node3 -->
<g id="edge3" class="edge"><title>Node1&#45;&gt;Node3</title>
<path fill="none" stroke="midnightblue" d="M140.034,-122.014C151.995,-124.062 164.334,-125.991 176,-127.5 233.868,-134.983 299.912,-139.924 348.45,-142.886"/>
<polygon fill="midnightblue" stroke="midnightblue" points="348.341,-146.386 358.532,-143.488 348.759,-139.398 348.341,-146.386"/>
</g>
<!-- Node4 -->
<g id="node4" class="node"><title>Node4</title>
<g id="a_node4"><a xlink:href="classscram_1_1mef_1_1Expression.xhtml#a9601745b7f61ec67c8074a4043367152" target="_top" xlink:title="scram::mef::Expression::Min">
<polygon fill="white" stroke="black" points="178,-99 178,-118 321,-118 321,-99 178,-99"/>
<text text-anchor="middle" x="249.5" y="-106" font-family="Helvetica,sans-Serif" font-size="10.00">scram::mef::Expression::Min</text>
</a>
</g>
</g>
<!-- Node1&#45;&gt;Node4 -->
<g id="edge4" class="edge"><title>Node1&#45;&gt;Node4</title>
<path fill="none" stroke="midnightblue" d="M140.134,-108.5C149.116,-108.5 158.381,-108.5 167.534,-108.5"/>
<polygon fill="midnightblue" stroke="midnightblue" points="167.799,-112 177.799,-108.5 167.799,-105 167.799,-112"/>
</g>
<!-- Node5 -->
<g id="node5" class="node"><title>Node5</title>
<g id="a_node5"><a xlink:href="classscram_1_1mef_1_1Expression.xhtml#a5cf00d8b2ff843ad029a501a89ee572a" target="_top" xlink:title="scram::mef::Expression\l::Sample">
<polygon fill="white" stroke="black" points="189,-49.5 189,-79.5 310,-79.5 310,-49.5 189,-49.5"/>
<text text-anchor="start" x="197" y="-67.5" font-family="Helvetica,sans-Serif" font-size="10.00">scram::mef::Expression</text>
<text text-anchor="middle" x="249.5" y="-56.5" font-family="Helvetica,sans-Serif" font-size="10.00">::Sample</text>
</a>
</g>
</g>
<!-- Node1&#45;&gt;Node5 -->
<g id="edge6" class="edge"><title>Node1&#45;&gt;Node5</title>
<path fill="none" stroke="midnightblue" d="M131.589,-93.4808C146.748,-89.7231 163.129,-85.6623 178.695,-81.8037"/>
<polygon fill="midnightblue" stroke="midnightblue" points="179.921,-85.1058 188.785,-79.3025 178.237,-78.3114 179.921,-85.1058"/>
</g>
<!-- Node6 -->
<g id="node6" class="node"><title>Node6</title>
<g id="a_node6"><a xlink:href="classscram_1_1Random.xhtml#a51c179761b8f16011c284a5bcf0b2ba2" target="_top" xlink:title="RNG from a uniform distribution. ">
<polygon fill="white" stroke="black" points="176,-0.5 176,-30.5 323,-30.5 323,-0.5 176,-0.5"/>
<text text-anchor="start" x="184" y="-18.5" font-family="Helvetica,sans-Serif" font-size="10.00">scram::Random::UniformReal</text>
<text text-anchor="middle" x="249.5" y="-7.5" font-family="Helvetica,sans-Serif" font-size="10.00">Generator</text>
</a>
</g>
</g>
<!-- Node1&#45;&gt;Node6 -->
<g id="edge7" class="edge"><title>Node1&#45;&gt;Node6</title>
<path fill="none" stroke="midnightblue" d="M91.044,-93.4054C111.556,-78.4777 144.762,-55.7202 176,-40.5 180.522,-38.2967 185.288,-36.1993 190.129,-34.2244"/>
<polygon fill="midnightblue" stroke="midnightblue" points="191.434,-37.4721 199.482,-30.582 188.894,-30.9492 191.434,-37.4721"/>
</g>
<!-- Node2&#45;&gt;Node3 -->
<g id="edge2" class="edge"><title>Node2&#45;&gt;Node3</title>
<path fill="none" stroke="midnightblue" d="M292.893,-174.911C309.945,-171.054 330.057,-166.505 349.131,-162.191"/>
<polygon fill="midnightblue" stroke="midnightblue" points="350.007,-165.581 358.989,-159.961 348.463,-158.753 350.007,-165.581"/>
</g>
<!-- Node4&#45;&gt;Node3 -->
<g id="edge5" class="edge"><title>Node4&#45;&gt;Node3</title>
<path fill="none" stroke="midnightblue" d="M292.893,-118.089C309.945,-121.946 330.057,-126.495 349.131,-130.809"/>
<polygon fill="midnightblue" stroke="midnightblue" points="348.463,-134.247 358.989,-133.039 350.007,-127.419 348.463,-134.247"/>
</g>
</g>
</svg>
