<?xml version="1.0" encoding="UTF-8" standalone="no"?>
<!DOCTYPE svg PUBLIC "-//W3C//DTD SVG 1.1//EN"
 "http://www.w3.org/Graphics/SVG/1.1/DTD/svg11.dtd">
<!-- Generated by graphviz version 2.38.0 (20140413.2041)
 -->
<!-- Title: scram::core::Bdd::products Pages: 1 -->
<!--zoomable 690 -->
<svg id="main" version="1.1" xmlns="http://www.w3.org/2000/svg" xmlns:xlink="http://www.w3.org/1999/xlink" xml:space="preserve" onload="init(evt)">
<style type="text/css"><![CDATA[
.edge:hover path { stroke: red; }
.edge:hover polygon { stroke: red; fill: red; }
]]></style>
<script type="text/javascript"><![CDATA[
var edges = document.getElementsByTagName('g');
if (edges && edges.length) {
  for (var i=0;i<edges.length;i++) {
    if (edges[i].id.substr(0,4)=='edge') {
      edges[i].setAttribute('class','edge');
    }
  }
}
]]></script>
        <defs>
                <circle id="rim" cx="0" cy="0" r="7"/>
                <circle id="rim2" cx="0" cy="0" r="3.5"/>
                <g id="zoomPlus">
                        <use xlink:href="#rim" fill="#404040">
                                <set attributeName="fill" to="#808080" begin="zoomplus.mouseover" end="zoomplus.mouseout"/>
                        </use>
                        <path d="M-4,0h8M0,-4v8" fill="none" stroke="white" stroke-width="1.5" pointer-events="none"/>
                </g>
                <g id="zoomMin">
                        <use xlink:href="#rim" fill="#404040">
                                <set attributeName="fill" to="#808080" begin="zoomminus.mouseover" end="zoomminus.mouseout"/>
                        </use>
                        <path d="M-4,0h8" fill="none" stroke="white" stroke-width="1.5" pointer-events="none"/>
                </g>
                <g id="dirArrow">
                        <path fill="none" stroke="white" stroke-width="1.5" d="M0,-3.0v7 M-2.5,-0.5L0,-3.0L2.5,-0.5"/>
                </g>
               <g id="resetDef">
                       <use xlink:href="#rim2" fill="#404040">
                               <set attributeName="fill" to="#808080" begin="reset.mouseover" end="reset.mouseout"/>
                       </use>
               </g>
        </defs>

<script type="text/javascript">
var viewWidth = 343;
var viewHeight = 690;
var sectionId = 'dynsection-6';
</script>
<script xlink:href="svgpan.js"/>
<svg id="graph" class="graph">
<g id="viewport">
<title>scram::core::Bdd::products</title>
<polygon fill="white" stroke="none" points="-4,4 -4,-686 339,-686 339,4 -4,4"/>
<!-- Node1 -->
<g id="node1" class="node"><title>Node1</title>
<polygon fill="#bfbfbf" stroke="black" points="0,-317.5 0,-336.5 135,-336.5 135,-317.5 0,-317.5"/>
<text text-anchor="middle" x="67.5" y="-324.5" font-family="Helvetica,sans-Serif" font-size="10.00">scram::core::Bdd::products</text>
</g>
<!-- Node2 -->
<g id="node2" class="node"><title>Node2</title>
<g id="a_node2"><a xlink:href="classscram_1_1core_1_1Gate.xhtml#aa793eeaa12244c5b39a0d80e5b1518ae" target="_top" xlink:title="scram::core::Gate::args">
<polygon fill="white" stroke="black" points="193,-662.5 193,-681.5 313,-681.5 313,-662.5 193,-662.5"/>
<text text-anchor="middle" x="253" y="-669.5" font-family="Helvetica,sans-Serif" font-size="10.00">scram::core::Gate::args</text>
</a>
</g>
</g>
<!-- Node1&#45;&gt;Node2 -->
<g id="edge1" class="edge"><title>Node1&#45;&gt;Node2</title>
<path fill="none" stroke="midnightblue" d="M68.3389,-336.769C68.1749,-380.801 73.6057,-562.579 171,-653 174.645,-656.384 178.776,-659.202 183.195,-661.544"/>
<polygon fill="midnightblue" stroke="midnightblue" points="182.047,-664.864 192.608,-665.713 184.882,-658.463 182.047,-664.864"/>
</g>
<!-- Node3 -->
<g id="node3" class="node"><title>Node3</title>
<g id="a_node3"><a xlink:href="classscram_1_1core_1_1Bdd.xhtml#a85ca781ff5bec86a44c217fb4b26ff76" target="_top" xlink:title="Helper function to clear and set vertex marks. ">
<polygon fill="white" stroke="black" points="179,-606.5 179,-625.5 327,-625.5 327,-606.5 179,-606.5"/>
<text text-anchor="middle" x="253" y="-613.5" font-family="Helvetica,sans-Serif" font-size="10.00">scram::core::Bdd::ClearMarks</text>
</a>
</g>
</g>
<!-- Node1&#45;&gt;Node3 -->
<g id="edge2" class="edge"><title>Node1&#45;&gt;Node3</title>
<path fill="none" stroke="midnightblue" d="M69.0491,-336.667C71.8163,-375.821 87.635,-524.003 171,-597 172.766,-598.546 174.634,-599.973 176.584,-601.289"/>
<polygon fill="midnightblue" stroke="midnightblue" points="175.169,-604.509 185.598,-606.376 178.61,-598.413 175.169,-604.509"/>
</g>
<!-- Node4 -->
<g id="node4" class="node"><title>Node4</title>
<g id="a_node4"><a xlink:href="classscram_1_1core_1_1Gate.xhtml#a0d070ec20569129162398c73165f65bc" target="_top" xlink:title="scram::core::Gate::\lcoherent">
<polygon fill="white" stroke="black" points="202.5,-557 202.5,-587 303.5,-587 303.5,-557 202.5,-557"/>
<text text-anchor="start" x="210.5" y="-575" font-family="Helvetica,sans-Serif" font-size="10.00">scram::core::Gate::</text>
<text text-anchor="middle" x="253" y="-564" font-family="Helvetica,sans-Serif" font-size="10.00">coherent</text>
</a>
</g>
</g>
<!-- Node1&#45;&gt;Node4 -->
<g id="edge4" class="edge"><title>Node1&#45;&gt;Node4</title>
<path fill="none" stroke="midnightblue" d="M70.0754,-336.648C76.1869,-370.931 101.536,-488.017 171,-548 177.383,-553.512 184.985,-557.758 192.936,-561.03"/>
<polygon fill="midnightblue" stroke="midnightblue" points="191.785,-564.335 202.379,-564.44 194.163,-557.752 191.785,-564.335"/>
</g>
<!-- Node5 -->
<g id="node5" class="node"><title>Node5</title>
<g id="a_node5"><a xlink:href="classscram_1_1core_1_1CacheTable.xhtml#ae97b2ee82cab1f6944e8bb7c973575d6" target="_top" xlink:title="Emplaces a new entry. ">
<polygon fill="white" stroke="black" points="189.5,-508 189.5,-538 316.5,-538 316.5,-508 189.5,-508"/>
<text text-anchor="start" x="197.5" y="-526" font-family="Helvetica,sans-Serif" font-size="10.00">scram::core::CacheTable</text>
<text text-anchor="middle" x="253" y="-515" font-family="Helvetica,sans-Serif" font-size="10.00">::emplace</text>
</a>
</g>
</g>
<!-- Node1&#45;&gt;Node5 -->
<g id="edge5" class="edge"><title>Node1&#45;&gt;Node5</title>
<path fill="none" stroke="midnightblue" d="M71.5198,-336.903C81.0087,-366.33 113.089,-453.989 171,-499 173.953,-501.295 177.121,-503.371 180.433,-505.249"/>
<polygon fill="midnightblue" stroke="midnightblue" points="178.974,-508.433 189.484,-509.771 182.102,-502.171 178.974,-508.433"/>
</g>
<!-- Node6 -->
<g id="node6" class="node"><title>Node6</title>
<g id="a_node6"><a xlink:href="classscram_1_1core_1_1WeakIntrusivePtr.xhtml#a7c782e61588664e379a54ad68b6a0c39" target="_top" xlink:title="scram::core::WeakIntrusive\lPtr::expired">
<polygon fill="white" stroke="black" points="184.5,-459 184.5,-489 321.5,-489 321.5,-459 184.5,-459"/>
<text text-anchor="start" x="192.5" y="-477" font-family="Helvetica,sans-Serif" font-size="10.00">scram::core::WeakIntrusive</text>
<text text-anchor="middle" x="253" y="-466" font-family="Helvetica,sans-Serif" font-size="10.00">Ptr::expired</text>
</a>
</g>
</g>
<!-- Node1&#45;&gt;Node6 -->
<g id="edge6" class="edge"><title>Node1&#45;&gt;Node6</title>
<path fill="none" stroke="midnightblue" d="M73.7999,-336.644C87.0308,-359.813 123.864,-418.979 171,-450 173.412,-451.587 175.932,-453.073 178.529,-454.462"/>
<polygon fill="midnightblue" stroke="midnightblue" points="177.083,-457.65 187.613,-458.825 180.114,-451.34 177.083,-457.65"/>
</g>
<!-- Node7 -->
<g id="node7" class="node"><title>Node7</title>
<g id="a_node7"><a xlink:href="classscram_1_1core_1_1Node.xhtml#a62121e217b0da73112af7e07275f2c15" target="_top" xlink:title="scram::core::Node::\lindex">
<polygon fill="white" stroke="black" points="201,-410 201,-440 305,-440 305,-410 201,-410"/>
<text text-anchor="start" x="209" y="-428" font-family="Helvetica,sans-Serif" font-size="10.00">scram::core::Node::</text>
<text text-anchor="middle" x="253" y="-417" font-family="Helvetica,sans-Serif" font-size="10.00">index</text>
</a>
</g>
</g>
<!-- Node1&#45;&gt;Node7 -->
<g id="edge7" class="edge"><title>Node1&#45;&gt;Node7</title>
<path fill="none" stroke="midnightblue" d="M79.0816,-336.535C96.8535,-352.091 134.36,-382.998 171,-401 177.426,-404.157 184.346,-406.983 191.338,-409.489"/>
<polygon fill="midnightblue" stroke="midnightblue" points="190.284,-412.827 200.878,-412.709 192.523,-406.194 190.284,-412.827"/>
</g>
<!-- Node8 -->
<g id="node8" class="node"><title>Node8</title>
<g id="a_node8"><a xlink:href="classscram_1_1core_1_1Gate.xhtml#aeaaa462ccbdef3cb95d70d966ce1740a" target="_top" xlink:title="scram::core::Gate::\lIsConstant">
<polygon fill="white" stroke="black" points="202.5,-361 202.5,-391 303.5,-391 303.5,-361 202.5,-361"/>
<text text-anchor="start" x="210.5" y="-379" font-family="Helvetica,sans-Serif" font-size="10.00">scram::core::Gate::</text>
<text text-anchor="middle" x="253" y="-368" font-family="Helvetica,sans-Serif" font-size="10.00">IsConstant</text>
</a>
</g>
</g>
<!-- Node1&#45;&gt;Node8 -->
<g id="edge8" class="edge"><title>Node1&#45;&gt;Node8</title>
<path fill="none" stroke="midnightblue" d="M104.316,-336.564C129.43,-343.27 163.584,-352.39 192.722,-360.171"/>
<polygon fill="midnightblue" stroke="midnightblue" points="191.827,-363.555 202.391,-362.753 193.633,-356.792 191.827,-363.555"/>
</g>
<!-- Node9 -->
<g id="node9" class="node"><title>Node9</title>
<g id="a_node9"><a xlink:href="classscram_1_1core_1_1WeakIntrusivePtr.xhtml#ad1e3be6267e1316cbc4fb440fc08dde1" target="_top" xlink:title="scram::core::WeakIntrusive\lPtr::lock">
<polygon fill="white" stroke="black" points="184.5,-312 184.5,-342 321.5,-342 321.5,-312 184.5,-312"/>
<text text-anchor="start" x="192.5" y="-330" font-family="Helvetica,sans-Serif" font-size="10.00">scram::core::WeakIntrusive</text>
<text text-anchor="middle" x="253" y="-319" font-family="Helvetica,sans-Serif" font-size="10.00">Ptr::lock</text>
</a>
</g>
</g>
<!-- Node1&#45;&gt;Node9 -->
<g id="edge9" class="edge"><title>Node1&#45;&gt;Node9</title>
<path fill="none" stroke="midnightblue" d="M135.007,-327C147.714,-327 161.12,-327 174.145,-327"/>
<polygon fill="midnightblue" stroke="midnightblue" points="174.487,-330.5 184.487,-327 174.487,-323.5 174.487,-330.5"/>
</g>
<!-- Node10 -->
<g id="node10" class="node"><title>Node10</title>
<g id="a_node10"><a xlink:href="classscram_1_1core_1_1Gate.xhtml#a93fa477d60140843c4abae7de52fffa1" target="_top" xlink:title="scram::core::Gate::\lmodule">
<polygon fill="white" stroke="black" points="202.5,-263 202.5,-293 303.5,-293 303.5,-263 202.5,-263"/>
<text text-anchor="start" x="210.5" y="-281" font-family="Helvetica,sans-Serif" font-size="10.00">scram::core::Gate::</text>
<text text-anchor="middle" x="253" y="-270" font-family="Helvetica,sans-Serif" font-size="10.00">module</text>
</a>
</g>
</g>
<!-- Node1&#45;&gt;Node10 -->
<g id="edge10" class="edge"><title>Node1&#45;&gt;Node10</title>
<path fill="none" stroke="midnightblue" d="M104.316,-317.436C129.43,-310.73 163.584,-301.61 192.722,-293.829"/>
<polygon fill="midnightblue" stroke="midnightblue" points="193.633,-297.208 202.391,-291.247 191.827,-290.445 193.633,-297.208"/>
</g>
<!-- Node11 -->
<g id="node11" class="node"><title>Node11</title>
<g id="a_node11"><a xlink:href="classscram_1_1core_1_1Node.xhtml#a8b76f2081293edc1cf85ddf8cb2ac2ed" target="_top" xlink:title="scram::core::Node::\lorder">
<polygon fill="white" stroke="black" points="201,-214 201,-244 305,-244 305,-214 201,-214"/>
<text text-anchor="start" x="209" y="-232" font-family="Helvetica,sans-Serif" font-size="10.00">scram::core::Node::</text>
<text text-anchor="middle" x="253" y="-221" font-family="Helvetica,sans-Serif" font-size="10.00">order</text>
</a>
</g>
</g>
<!-- Node1&#45;&gt;Node11 -->
<g id="edge11" class="edge"><title>Node1&#45;&gt;Node11</title>
<path fill="none" stroke="midnightblue" d="M79.4188,-317.402C97.3741,-302.058 134.769,-271.911 171,-254 177.44,-250.816 184.369,-247.938 191.366,-245.364"/>
<polygon fill="midnightblue" stroke="midnightblue" points="192.616,-248.635 200.911,-242.043 190.316,-242.024 192.616,-248.635"/>
</g>
<!-- Node12 -->
<g id="node12" class="node"><title>Node12</title>
<g id="a_node12"><a xlink:href="classscram_1_1core_1_1NodeParentManager.xhtml#a6fca1af860a85acc2907699d1d1be716" target="_top" xlink:title="scram::core::NodeParentManager\l::parents">
<polygon fill="white" stroke="black" points="171,-165 171,-195 335,-195 335,-165 171,-165"/>
<text text-anchor="start" x="179" y="-183" font-family="Helvetica,sans-Serif" font-size="10.00">scram::core::NodeParentManager</text>
<text text-anchor="middle" x="253" y="-172" font-family="Helvetica,sans-Serif" font-size="10.00">::parents</text>
</a>
</g>
</g>
<!-- Node1&#45;&gt;Node12 -->
<g id="edge12" class="edge"><title>Node1&#45;&gt;Node12</title>
<path fill="none" stroke="midnightblue" d="M73.8435,-317.469C87.1711,-294.567 124.203,-236.043 171,-205 174.062,-202.969 177.298,-201.096 180.643,-199.37"/>
<polygon fill="midnightblue" stroke="midnightblue" points="182.133,-202.537 189.714,-195.136 179.172,-196.194 182.133,-202.537"/>
</g>
<!-- Node13 -->
<g id="node13" class="node"><title>Node13</title>
<g id="a_node13"><a xlink:href="classscram_1_1core_1_1Ite.xhtml#a55a7d6955f67d68f01287950c7efc782" target="_top" xlink:title="Recovers a shared pointer to Ite from a pointer to Vertex. ">
<polygon fill="white" stroke="black" points="201,-126.5 201,-145.5 305,-145.5 305,-126.5 201,-126.5"/>
<text text-anchor="middle" x="253" y="-133.5" font-family="Helvetica,sans-Serif" font-size="10.00">scram::core::Ite::Ptr</text>
</a>
</g>
</g>
<!-- Node1&#45;&gt;Node13 -->
<g id="edge13" class="edge"><title>Node1&#45;&gt;Node13</title>
<path fill="none" stroke="midnightblue" d="M71.3132,-317.447C80.4211,-288.262 111.988,-199.611 171,-156 177.006,-151.561 183.879,-148.099 191.026,-145.4"/>
<polygon fill="midnightblue" stroke="midnightblue" points="192.47,-148.61 200.886,-142.173 190.293,-141.957 192.47,-148.61"/>
</g>
<!-- Node14 -->
<g id="node14" class="node"><title>Node14</title>
<g id="a_node14"><a xlink:href="classext_1_1linear__map.xhtml#a670bc30d04c01d2fb124d5ebbc8ade71" target="_top" xlink:title="ext::linear_map::size">
<polygon fill="white" stroke="black" points="199.5,-88.5 199.5,-107.5 306.5,-107.5 306.5,-88.5 199.5,-88.5"/>
<text text-anchor="middle" x="253" y="-95.5" font-family="Helvetica,sans-Serif" font-size="10.00">ext::linear_map::size</text>
</a>
</g>
</g>
<!-- Node1&#45;&gt;Node14 -->
<g id="edge14" class="edge"><title>Node1&#45;&gt;Node14</title>
<path fill="none" stroke="midnightblue" d="M70.2088,-317.225C76.625,-283.584 102.508,-171.661 171,-117 176.461,-112.641 182.751,-109.252 189.361,-106.62"/>
<polygon fill="midnightblue" stroke="midnightblue" points="190.866,-109.806 199.215,-103.283 188.621,-103.176 190.866,-109.806"/>
</g>
<!-- Node15 -->
<g id="node15" class="node"><title>Node15</title>
<g id="a_node15"><a xlink:href="structscram_1_1core_1_1Bdd_1_1Function.xhtml#abed3bea3547fa39e96f4dee788311e00" target="_top" xlink:title="Swaps with another function. ">
<polygon fill="white" stroke="black" points="185.5,-39 185.5,-69 320.5,-69 320.5,-39 185.5,-39"/>
<text text-anchor="start" x="193.5" y="-57" font-family="Helvetica,sans-Serif" font-size="10.00">scram::core::Bdd::Function</text>
<text text-anchor="middle" x="253" y="-46" font-family="Helvetica,sans-Serif" font-size="10.00">::swap</text>
</a>
</g>
</g>
<!-- Node1&#45;&gt;Node15 -->
<g id="edge15" class="edge"><title>Node1&#45;&gt;Node15</title>
<path fill="none" stroke="midnightblue" d="M69.5791,-317.263C74.191,-280.36 95.5951,-147.73 171,-79 172.723,-77.4293 174.544,-75.9572 176.442,-74.5776"/>
<polygon fill="midnightblue" stroke="midnightblue" points="178.583,-77.3673 185.211,-69.1018 174.875,-71.4299 178.583,-77.3673"/>
</g>
<!-- Node16 -->
<g id="node16" class="node"><title>Node16</title>
<g id="a_node16"><a xlink:href="classscram_1_1core_1_1Gate.xhtml#ad5a5766ce9dbbd2104c0bb07b9639a48" target="_top" xlink:title="scram::core::Gate::type">
<polygon fill="white" stroke="black" points="193,-0.5 193,-19.5 313,-19.5 313,-0.5 193,-0.5"/>
<text text-anchor="middle" x="253" y="-7.5" font-family="Helvetica,sans-Serif" font-size="10.00">scram::core::Gate::type</text>
</a>
</g>
</g>
<!-- Node1&#45;&gt;Node16 -->
<g id="edge16" class="edge"><title>Node1&#45;&gt;Node16</title>
<path fill="none" stroke="midnightblue" d="M68.7032,-317.279C70.1201,-275.78 81.397,-111.861 171,-30 174.683,-26.6355 178.84,-23.8143 183.279,-21.451"/>
<polygon fill="midnightblue" stroke="midnightblue" points="185.029,-24.5021 192.72,-17.2161 182.164,-18.1152 185.029,-24.5021"/>
</g>
<!-- Node3&#45;&gt;Node3 -->
<g id="edge3" class="edge"><title>Node3&#45;&gt;Node3</title>
<path fill="none" stroke="midnightblue" d="M224.64,-625.757C210.844,-634.565 220.297,-644 253,-644 275.483,-644 286.978,-639.541 287.483,-633.891"/>
<polygon fill="midnightblue" stroke="midnightblue" points="290.17,-631.642 281.36,-625.757 284.577,-635.851 290.17,-631.642"/>
</g>
</g>
</svg>
        <g id="navigator" transform="translate(0 0)" fill="#404254">
                <rect fill="#f2f5e9" fill-opacity="0.5" stroke="#606060" stroke-width=".5" x="0" y="0" width="60" height="60"/>
                <use id="zoomplus" xlink:href="#zoomPlus" x="17" y="9" onmousedown="handleZoom(evt,'in')"/>
                <use id="zoomminus" xlink:href="#zoomMin" x="42" y="9" onmousedown="handleZoom(evt,'out')"/>
                <use id="reset" xlink:href="#resetDef" x="30" y="36" onmousedown="handleReset()"/>
                <g id="arrowUp" xlink:href="#dirArrow" transform="translate(30 24)" onmousedown="handlePan(0,-1)">
                  <use xlink:href="#rim" fill="#404040">
                        <set attributeName="fill" to="#808080" begin="arrowUp.mouseover" end="arrowUp.mouseout"/>
                  </use>
                  <path fill="none" stroke="white" stroke-width="1.5" d="M0,-3.0v7 M-2.5,-0.5L0,-3.0L2.5,-0.5"/>
                </g>
                <g id="arrowRight" xlink:href="#dirArrow" transform="rotate(90) translate(36 -43)" onmousedown="handlePan(1,0)">
                  <use xlink:href="#rim" fill="#404040">
                        <set attributeName="fill" to="#808080" begin="arrowRight.mouseover" end="arrowRight.mouseout"/>
                  </use>
                  <path fill="none" stroke="white" stroke-width="1.5" d="M0,-3.0v7 M-2.5,-0.5L0,-3.0L2.5,-0.5"/>
                </g>
                <g id="arrowDown" xlink:href="#dirArrow" transform="rotate(180) translate(-30 -48)" onmousedown="handlePan(0,1)">
                  <use xlink:href="#rim" fill="#404040">
                        <set attributeName="fill" to="#808080" begin="arrowDown.mouseover" end="arrowDown.mouseout"/>
                  </use>
                  <path fill="none" stroke="white" stroke-width="1.5" d="M0,-3.0v7 M-2.5,-0.5L0,-3.0L2.5,-0.5"/>
                </g>
                <g id="arrowLeft" xlink:href="#dirArrow" transform="rotate(270) translate(-36 17)" onmousedown="handlePan(-1,0)">
                  <use xlink:href="#rim" fill="#404040">
                        <set attributeName="fill" to="#808080" begin="arrowLeft.mouseover" end="arrowLeft.mouseout"/>
                  </use>
                  <path fill="none" stroke="white" stroke-width="1.5" d="M0,-3.0v7 M-2.5,-0.5L0,-3.0L2.5,-0.5"/>
                </g>
        </g>
        <svg viewBox="0 0 15 15" width="100%" height="30px" preserveAspectRatio="xMaxYMin meet">
         <g id="arrow_out" transform="scale(0.3 0.3)">
          <a xlink:href="classscram_1_1core_1_1Bdd_abb75e2b30e88c46634b4a4b7df90cf8a_cgraph_org.svg" target="_base">
           <rect id="button" ry="5" rx="5" y="6" x="6" height="38" width="38"
                fill="#f2f5e9" fill-opacity="0.5" stroke="#606060" stroke-width="1.0"/>
           <path id="arrow"
             d="M 11.500037,31.436501 C 11.940474,20.09759 22.043105,11.32322 32.158766,21.979434 L 37.068811,17.246167 C 37.068811,17.246167 37.088388,32 37.088388,32 L 22.160133,31.978069 C 22.160133,31.978069 26.997745,27.140456 26.997745,27.140456 C 18.528582,18.264221 13.291696,25.230495 11.500037,31.436501 z"
             style="fill:#404040;"/>
          </a>
         </g>
        </svg>
</svg>
