<?xml version="1.0" encoding="UTF-8" standalone="no"?>
<!DOCTYPE svg PUBLIC "-//W3C//DTD SVG 1.1//EN"
 "http://www.w3.org/Graphics/SVG/1.1/DTD/svg11.dtd">
<!-- Generated by graphviz version 2.38.0 (20140413.2041)
 -->
<!-- Title: scram::core::Preprocessor::GroupDistributiveArgs Pages: 1 -->
<svg width="476pt" height="39pt"
 viewBox="0.00 0.00 476.00 39.00" xmlns="http://www.w3.org/2000/svg" xmlns:xlink="http://www.w3.org/1999/xlink">
<g id="graph0" class="graph" transform="scale(1 1) rotate(0) translate(4 35)">
<title>scram::core::Preprocessor::GroupDistributiveArgs</title>
<polygon fill="white" stroke="none" points="-4,4 -4,-35 472,-35 472,4 -4,4"/>
<!-- Node1 -->
<g id="node1" class="node"><title>Node1</title>
<polygon fill="#bfbfbf" stroke="black" points="0,-0.5 0,-30.5 132,-30.5 132,-0.5 0,-0.5"/>
<text text-anchor="start" x="8" y="-18.5" font-family="Helvetica,sans-Serif" font-size="10.00">scram::core::Preprocessor</text>
<text text-anchor="middle" x="66" y="-7.5" font-family="Helvetica,sans-Serif" font-size="10.00">::GroupDistributiveArgs</text>
</g>
<!-- Node2 -->
<g id="node2" class="node"><title>Node2</title>
<g id="a_node2"><a xlink:href="classscram_1_1core_1_1Preprocessor.xhtml#a4b29173b8f6d18031d7a8cacbac15ce1" target="_top" xlink:title="Manipulates gates with distributive arguments. ">
<polygon fill="white" stroke="black" points="168,-0.5 168,-30.5 300,-30.5 300,-0.5 168,-0.5"/>
<text text-anchor="start" x="176" y="-18.5" font-family="Helvetica,sans-Serif" font-size="10.00">scram::core::Preprocessor</text>
<text text-anchor="middle" x="234" y="-7.5" font-family="Helvetica,sans-Serif" font-size="10.00">::HandleDistributiveArgs</text>
</a>
</g>
</g>
<!-- Node1&#45;&gt;Node2 -->
<g id="edge1" class="edge"><title>Node1&#45;&gt;Node2</title>
<path fill="none" stroke="midnightblue" d="M142.393,-15.5C150.869,-15.5 159.452,-15.5 167.784,-15.5"/>
<polygon fill="midnightblue" stroke="midnightblue" points="142.131,-12.0001 132.131,-15.5 142.131,-19.0001 142.131,-12.0001"/>
</g>
<!-- Node3 -->
<g id="node3" class="node"><title>Node3</title>
<g id="a_node3"><a xlink:href="classscram_1_1core_1_1Preprocessor.xhtml#a79fe8e90f0e8fbc20a76610aaf09fe6e" target="_top" xlink:title="Detects and manipulates AND and OR gate distributivity. ">
<polygon fill="white" stroke="black" points="336,-0.5 336,-30.5 468,-30.5 468,-0.5 336,-0.5"/>
<text text-anchor="start" x="344" y="-18.5" font-family="Helvetica,sans-Serif" font-size="10.00">scram::core::Preprocessor</text>
<text text-anchor="middle" x="402" y="-7.5" font-family="Helvetica,sans-Serif" font-size="10.00">::DetectDistributivity</text>
</a>
</g>
</g>
<!-- Node2&#45;&gt;Node3 -->
<g id="edge2" class="edge"><title>Node2&#45;&gt;Node3</title>
<path fill="none" stroke="midnightblue" d="M310.393,-15.5C318.869,-15.5 327.452,-15.5 335.784,-15.5"/>
<polygon fill="midnightblue" stroke="midnightblue" points="310.131,-12.0001 300.131,-15.5 310.131,-19.0001 310.131,-12.0001"/>
</g>
</g>
</svg>
