<?xml version="1.0" encoding="UTF-8" standalone="no"?>
<!DOCTYPE svg PUBLIC "-//W3C//DTD SVG 1.1//EN"
 "http://www.w3.org/Graphics/SVG/1.1/DTD/svg11.dtd">
<!-- Generated by graphviz version 2.38.0 (20140413.2041)
 -->
<!-- Title: scram::core::ProbabilityAnalyzer&lt; Bdd &gt;::bdd_graph Pages: 1 -->
<svg width="346pt" height="96pt"
 viewBox="0.00 0.00 346.00 95.50" xmlns="http://www.w3.org/2000/svg" xmlns:xlink="http://www.w3.org/1999/xlink">
<g id="graph0" class="graph" transform="scale(1 1) rotate(0) translate(4 91.5)">
<title>scram::core::ProbabilityAnalyzer&lt; Bdd &gt;::bdd_graph</title>
<polygon fill="white" stroke="none" points="-4,4 -4,-91.5 342,-91.5 342,4 -4,4"/>
<!-- Node1 -->
<g id="node1" class="node"><title>Node1</title>
<polygon fill="#bfbfbf" stroke="black" points="0,-22.5 0,-52.5 141,-52.5 141,-22.5 0,-22.5"/>
<text text-anchor="start" x="8" y="-40.5" font-family="Helvetica,sans-Serif" font-size="10.00">scram::core::Probability</text>
<text text-anchor="middle" x="70.5" y="-29.5" font-family="Helvetica,sans-Serif" font-size="10.00">Analyzer&lt; Bdd &gt;::bdd_graph</text>
</g>
<!-- Node2 -->
<g id="node2" class="node"><title>Node2</title>
<g id="a_node2"><a xlink:href="fault__tree__analysis_8cc.xhtml#ae728f907b1ba93340d9c376af734cd6c" target="_top" xlink:title="Helper function to compute a Boolean product probability. ">
<polygon fill="white" stroke="black" points="177,-50 177,-69 338,-69 338,-50 177,-50"/>
<text text-anchor="middle" x="257.5" y="-57" font-family="Helvetica,sans-Serif" font-size="10.00">scram::core::CalculateProbability</text>
</a>
</g>
</g>
<!-- Node1&#45;&gt;Node2 -->
<g id="edge1" class="edge"><title>Node1&#45;&gt;Node2</title>
<path fill="none" stroke="midnightblue" d="M141.177,-45.7859C149.569,-46.7839 158.229,-47.8138 166.856,-48.8396"/>
<polygon fill="midnightblue" stroke="midnightblue" points="166.606,-52.3345 176.95,-50.04 167.433,-45.3835 166.606,-52.3345"/>
</g>
<!-- Node3 -->
<g id="node3" class="node"><title>Node3</title>
<g id="a_node3"><a xlink:href="classscram_1_1core_1_1ProbabilityAnalyzerBase.xhtml#a9497e06d2d9a5ab524179b45c37011b2" target="_top" xlink:title="scram::core::Probability\lAnalyzerBase::p_vars">
<polygon fill="white" stroke="black" points="197.5,-0.5 197.5,-30.5 317.5,-30.5 317.5,-0.5 197.5,-0.5"/>
<text text-anchor="start" x="205.5" y="-18.5" font-family="Helvetica,sans-Serif" font-size="10.00">scram::core::Probability</text>
<text text-anchor="middle" x="257.5" y="-7.5" font-family="Helvetica,sans-Serif" font-size="10.00">AnalyzerBase::p_vars</text>
</a>
</g>
</g>
<!-- Node1&#45;&gt;Node3 -->
<g id="edge3" class="edge"><title>Node1&#45;&gt;Node3</title>
<path fill="none" stroke="midnightblue" d="M141.177,-29.2141C156.24,-27.4228 172.164,-25.5291 187.212,-23.7396"/>
<polygon fill="midnightblue" stroke="midnightblue" points="187.952,-27.1764 197.469,-22.5199 187.125,-20.2254 187.952,-27.1764"/>
</g>
<!-- Node2&#45;&gt;Node2 -->
<g id="edge2" class="edge"><title>Node2&#45;&gt;Node2</title>
<path fill="none" stroke="midnightblue" d="M228.832,-69.2571C214.885,-78.0653 224.441,-87.5 257.5,-87.5 280.228,-87.5 291.847,-83.0406 292.357,-77.3913"/>
<polygon fill="midnightblue" stroke="midnightblue" points="295.009,-75.0958 286.168,-69.2571 289.438,-79.3346 295.009,-75.0958"/>
</g>
</g>
</svg>
