<?xml version="1.0" encoding="UTF-8" standalone="no"?>
<!DOCTYPE svg PUBLIC "-//W3C//DTD SVG 1.1//EN"
 "http://www.w3.org/Graphics/SVG/1.1/DTD/svg11.dtd">
<!-- Generated by graphviz version 2.38.0 (20140413.2041)
 -->
<!-- Title: scram::mef::Sub::Min Pages: 1 -->
<svg width="458pt" height="165pt"
 viewBox="0.00 0.00 458.00 165.00" xmlns="http://www.w3.org/2000/svg" xmlns:xlink="http://www.w3.org/1999/xlink">
<g id="graph0" class="graph" transform="scale(1 1) rotate(0) translate(4 161)">
<title>scram::mef::Sub::Min</title>
<polygon fill="white" stroke="none" points="-4,4 -4,-161 454,-161 454,4 -4,4"/>
<!-- Node1 -->
<g id="node1" class="node"><title>Node1</title>
<polygon fill="#bfbfbf" stroke="black" points="0,-69 0,-88 111,-88 111,-69 0,-69"/>
<text text-anchor="middle" x="55.5" y="-76" font-family="Helvetica,sans-Serif" font-size="10.00">scram::mef::Sub::Min</text>
</g>
<!-- Node2 -->
<g id="node2" class="node"><title>Node2</title>
<g id="a_node2"><a xlink:href="classscram_1_1mef_1_1Expression.xhtml#ad4d7901b9be9105c9799167cac7af3e1" target="_top" xlink:title="scram::mef::Expression\l::args">
<polygon fill="white" stroke="black" points="159.5,-126.5 159.5,-156.5 280.5,-156.5 280.5,-126.5 159.5,-126.5"/>
<text text-anchor="start" x="167.5" y="-144.5" font-family="Helvetica,sans-Serif" font-size="10.00">scram::mef::Expression</text>
<text text-anchor="middle" x="220" y="-133.5" font-family="Helvetica,sans-Serif" font-size="10.00">::args</text>
</a>
</g>
</g>
<!-- Node1&#45;&gt;Node2 -->
<g id="edge1" class="edge"><title>Node1&#45;&gt;Node2</title>
<path fill="none" stroke="midnightblue" d="M78.2879,-88.1055C96.522,-96.0337 123.29,-107.416 147,-116.5 152.757,-118.706 158.804,-120.937 164.844,-123.111"/>
<polygon fill="midnightblue" stroke="midnightblue" points="163.693,-126.416 174.287,-126.468 166.038,-119.82 163.693,-126.416"/>
</g>
<!-- Node3 -->
<g id="node3" class="node"><title>Node3</title>
<g id="a_node3"><a xlink:href="classscram_1_1mef_1_1Expression.xhtml#a6b2d7f3d3abf98002c8cccee426edecc" target="_top" xlink:title="scram::mef::Expression::Max">
<polygon fill="white" stroke="black" points="147,-88 147,-107 293,-107 293,-88 147,-88"/>
<text text-anchor="middle" x="220" y="-95" font-family="Helvetica,sans-Serif" font-size="10.00">scram::mef::Expression::Max</text>
</a>
</g>
</g>
<!-- Node1&#45;&gt;Node3 -->
<g id="edge2" class="edge"><title>Node1&#45;&gt;Node3</title>
<path fill="none" stroke="midnightblue" d="M111.062,-84.8796C119.346,-85.8482 128.046,-86.8654 136.762,-87.8844"/>
<polygon fill="midnightblue" stroke="midnightblue" points="136.637,-91.3936 146.976,-89.0787 137.45,-84.441 136.637,-91.3936"/>
</g>
<!-- Node5 -->
<g id="node5" class="node"><title>Node5</title>
<g id="a_node5"><a xlink:href="classscram_1_1mef_1_1Expression.xhtml#a9601745b7f61ec67c8074a4043367152" target="_top" xlink:title="scram::mef::Expression::Min">
<polygon fill="white" stroke="black" points="148.5,-50 148.5,-69 291.5,-69 291.5,-50 148.5,-50"/>
<text text-anchor="middle" x="220" y="-57" font-family="Helvetica,sans-Serif" font-size="10.00">scram::mef::Expression::Min</text>
</a>
</g>
</g>
<!-- Node1&#45;&gt;Node5 -->
<g id="edge4" class="edge"><title>Node1&#45;&gt;Node5</title>
<path fill="none" stroke="midnightblue" d="M111.062,-72.1204C119.865,-71.0912 129.137,-70.007 138.399,-68.9241"/>
<polygon fill="midnightblue" stroke="midnightblue" points="138.895,-72.39 148.421,-67.7523 138.082,-65.4374 138.895,-72.39"/>
</g>
<!-- Node6 -->
<g id="node6" class="node"><title>Node6</title>
<g id="a_node6"><a xlink:href="classscram_1_1mef_1_1Expression.xhtml#a5cf00d8b2ff843ad029a501a89ee572a" target="_top" xlink:title="scram::mef::Expression\l::Sample">
<polygon fill="white" stroke="black" points="159.5,-0.5 159.5,-30.5 280.5,-30.5 280.5,-0.5 159.5,-0.5"/>
<text text-anchor="start" x="167.5" y="-18.5" font-family="Helvetica,sans-Serif" font-size="10.00">scram::mef::Expression</text>
<text text-anchor="middle" x="220" y="-7.5" font-family="Helvetica,sans-Serif" font-size="10.00">::Sample</text>
</a>
</g>
</g>
<!-- Node1&#45;&gt;Node6 -->
<g id="edge6" class="edge"><title>Node1&#45;&gt;Node6</title>
<path fill="none" stroke="midnightblue" d="M78.2879,-68.8945C96.522,-60.9663 123.29,-49.5837 147,-40.5 152.757,-38.2943 158.804,-36.0634 164.844,-33.8894"/>
<polygon fill="midnightblue" stroke="midnightblue" points="166.038,-37.1797 174.287,-30.5319 163.693,-30.5842 166.038,-37.1797"/>
</g>
<!-- Node4 -->
<g id="node4" class="node"><title>Node4</title>
<g id="a_node4"><a xlink:href="classscram_1_1mef_1_1Expression.xhtml#ac7e0dd118eafdfa943944172c1625a4e" target="_top" xlink:title="scram::mef::Expression\l::Mean">
<polygon fill="white" stroke="black" points="329,-63.5 329,-93.5 450,-93.5 450,-63.5 329,-63.5"/>
<text text-anchor="start" x="337" y="-81.5" font-family="Helvetica,sans-Serif" font-size="10.00">scram::mef::Expression</text>
<text text-anchor="middle" x="389.5" y="-70.5" font-family="Helvetica,sans-Serif" font-size="10.00">::Mean</text>
</a>
</g>
</g>
<!-- Node3&#45;&gt;Node4 -->
<g id="edge3" class="edge"><title>Node3&#45;&gt;Node4</title>
<path fill="none" stroke="midnightblue" d="M293.007,-89.332C301.611,-88.3561 310.383,-87.361 318.951,-86.3891"/>
<polygon fill="midnightblue" stroke="midnightblue" points="319.351,-89.8663 328.893,-85.2614 318.562,-82.9109 319.351,-89.8663"/>
</g>
<!-- Node5&#45;&gt;Node4 -->
<g id="edge5" class="edge"><title>Node5&#45;&gt;Node4</title>
<path fill="none" stroke="midnightblue" d="M291.55,-67.5026C300.579,-68.5269 309.819,-69.5749 318.834,-70.5976"/>
<polygon fill="midnightblue" stroke="midnightblue" points="318.563,-74.0892 328.894,-71.7387 319.352,-67.1338 318.563,-74.0892"/>
</g>
</g>
</svg>
