<?xml version="1.0" encoding="UTF-8" standalone="no"?>
<!DOCTYPE svg PUBLIC "-//W3C//DTD SVG 1.1//EN"
 "http://www.w3.org/Graphics/SVG/1.1/DTD/svg11.dtd">
<!-- Generated by graphviz version 2.38.0 (20140413.2041)
 -->
<!-- Title: scram::mef::ExponentialExpression::Max Pages: 1 -->
<svg width="544pt" height="39pt"
 viewBox="0.00 0.00 544.00 39.00" xmlns="http://www.w3.org/2000/svg" xmlns:xlink="http://www.w3.org/1999/xlink">
<g id="graph0" class="graph" transform="scale(1 1) rotate(0) translate(4 35)">
<title>scram::mef::ExponentialExpression::Max</title>
<polygon fill="white" stroke="none" points="-4,4 -4,-35 540,-35 540,4 -4,4"/>
<!-- Node1 -->
<g id="node1" class="node"><title>Node1</title>
<polygon fill="#bfbfbf" stroke="black" points="0,-6 0,-25 197,-25 197,-6 0,-6"/>
<text text-anchor="middle" x="98.5" y="-13" font-family="Helvetica,sans-Serif" font-size="10.00">scram::mef::ExponentialExpression::Max</text>
</g>
<!-- Node2 -->
<g id="node2" class="node"><title>Node2</title>
<g id="a_node2"><a xlink:href="classscram_1_1mef_1_1Expression.xhtml#a6b2d7f3d3abf98002c8cccee426edecc" target="_top" xlink:title="scram::mef::Expression::Max">
<polygon fill="white" stroke="black" points="233,-6 233,-25 379,-25 379,-6 233,-6"/>
<text text-anchor="middle" x="306" y="-13" font-family="Helvetica,sans-Serif" font-size="10.00">scram::mef::Expression::Max</text>
</a>
</g>
</g>
<!-- Node1&#45;&gt;Node2 -->
<g id="edge1" class="edge"><title>Node1&#45;&gt;Node2</title>
<path fill="none" stroke="midnightblue" d="M197.134,-15.5C205.675,-15.5 214.262,-15.5 222.661,-15.5"/>
<polygon fill="midnightblue" stroke="midnightblue" points="222.795,-19.0001 232.794,-15.5 222.794,-12.0001 222.795,-19.0001"/>
</g>
<!-- Node3 -->
<g id="node3" class="node"><title>Node3</title>
<g id="a_node3"><a xlink:href="classscram_1_1mef_1_1Expression.xhtml#ac7e0dd118eafdfa943944172c1625a4e" target="_top" xlink:title="scram::mef::Expression\l::Mean">
<polygon fill="white" stroke="black" points="415,-0.5 415,-30.5 536,-30.5 536,-0.5 415,-0.5"/>
<text text-anchor="start" x="423" y="-18.5" font-family="Helvetica,sans-Serif" font-size="10.00">scram::mef::Expression</text>
<text text-anchor="middle" x="475.5" y="-7.5" font-family="Helvetica,sans-Serif" font-size="10.00">::Mean</text>
</a>
</g>
</g>
<!-- Node2&#45;&gt;Node3 -->
<g id="edge2" class="edge"><title>Node2&#45;&gt;Node3</title>
<path fill="none" stroke="midnightblue" d="M379.007,-15.5C387.517,-15.5 396.192,-15.5 404.672,-15.5"/>
<polygon fill="midnightblue" stroke="midnightblue" points="404.893,-19.0001 414.893,-15.5 404.893,-12.0001 404.893,-19.0001"/>
</g>
</g>
</svg>
