<?xml version="1.0" encoding="UTF-8" standalone="no"?>
<!DOCTYPE svg PUBLIC "-//W3C//DTD SVG 1.1//EN"
 "http://www.w3.org/Graphics/SVG/1.1/DTD/svg11.dtd">
<!-- Generated by graphviz version 2.38.0 (20140413.2041)
 -->
<!-- Title: scram::core::Product::end Pages: 1 -->
<svg width="479pt" height="158pt"
 viewBox="0.00 0.00 479.00 158.00" xmlns="http://www.w3.org/2000/svg" xmlns:xlink="http://www.w3.org/1999/xlink">
<g id="graph0" class="graph" transform="scale(1 1) rotate(0) translate(4 154)">
<title>scram::core::Product::end</title>
<polygon fill="white" stroke="none" points="-4,4 -4,-154 475,-154 475,4 -4,4"/>
<!-- Node1 -->
<g id="node1" class="node"><title>Node1</title>
<polygon fill="#bfbfbf" stroke="black" points="0,-56.5 0,-75.5 130,-75.5 130,-56.5 0,-56.5"/>
<text text-anchor="middle" x="65" y="-63.5" font-family="Helvetica,sans-Serif" font-size="10.00">scram::core::Product::end</text>
</g>
<!-- Node2 -->
<g id="node2" class="node"><title>Node2</title>
<g id="a_node2"><a xlink:href="fault__tree__analysis_8cc.xhtml#ae728f907b1ba93340d9c376af734cd6c" target="_top" xlink:title="Helper function to compute a Boolean product probability. ">
<polygon fill="white" stroke="black" points="166,-112.5 166,-131.5 327,-131.5 327,-112.5 166,-112.5"/>
<text text-anchor="middle" x="246.5" y="-119.5" font-family="Helvetica,sans-Serif" font-size="10.00">scram::core::CalculateProbability</text>
</a>
</g>
</g>
<!-- Node1&#45;&gt;Node2 -->
<g id="edge1" class="edge"><title>Node1&#45;&gt;Node2</title>
<path fill="none" stroke="midnightblue" d="M89.5693,-75.6322C109.663,-83.6229 139.428,-94.9406 166,-103 174.199,-105.487 182.952,-107.857 191.543,-110.028"/>
<polygon fill="midnightblue" stroke="midnightblue" points="190.963,-113.49 201.509,-112.48 192.635,-106.692 190.963,-113.49"/>
</g>
<!-- Node3 -->
<g id="node3" class="node"><title>Node3</title>
<g id="a_node3"><a xlink:href="fault__tree__analysis_8cc.xhtml#a686e89790b4b25c69dc35922d1b40688" target="_top" xlink:title="Helper function to determine order of a Boolean product. ">
<polygon fill="white" stroke="black" points="189.5,-56.5 189.5,-75.5 303.5,-75.5 303.5,-56.5 189.5,-56.5"/>
<text text-anchor="middle" x="246.5" y="-63.5" font-family="Helvetica,sans-Serif" font-size="10.00">scram::core::GetOrder</text>
</a>
</g>
</g>
<!-- Node1&#45;&gt;Node3 -->
<g id="edge3" class="edge"><title>Node1&#45;&gt;Node3</title>
<path fill="none" stroke="midnightblue" d="M130.043,-66C145.901,-66 162.928,-66 178.904,-66"/>
<polygon fill="midnightblue" stroke="midnightblue" points="179.228,-69.5001 189.228,-66 179.228,-62.5001 179.228,-69.5001"/>
</g>
<!-- Node6 -->
<g id="node6" class="node"><title>Node6</title>
<g id="a_node6"><a xlink:href="fault__tree__analysis_8cc.xhtml#ae462a016941b9c817b69891ea5dfd1e1" target="_top" xlink:title="Prints a collection of products to the standard error. ">
<polygon fill="white" stroke="black" points="199,-0.5 199,-19.5 294,-19.5 294,-0.5 199,-0.5"/>
<text text-anchor="middle" x="246.5" y="-7.5" font-family="Helvetica,sans-Serif" font-size="10.00">scram::core::Print</text>
</a>
</g>
</g>
<!-- Node1&#45;&gt;Node6 -->
<g id="edge7" class="edge"><title>Node1&#45;&gt;Node6</title>
<path fill="none" stroke="midnightblue" d="M96.8572,-56.3733C126.834,-47.021 172.506,-32.7725 205.31,-22.5385"/>
<polygon fill="midnightblue" stroke="midnightblue" points="206.542,-25.8206 215.046,-19.5011 204.457,-19.1382 206.542,-25.8206"/>
</g>
<!-- Node2&#45;&gt;Node2 -->
<g id="edge2" class="edge"><title>Node2&#45;&gt;Node2</title>
<path fill="none" stroke="midnightblue" d="M220.298,-131.757C207.551,-140.565 216.285,-150 246.5,-150 266.801,-150 277.404,-145.741 278.311,-140.275"/>
<polygon fill="midnightblue" stroke="midnightblue" points="281.125,-138.184 272.702,-131.757 275.279,-142.034 281.125,-138.184"/>
</g>
<!-- Node3&#45;&gt;Node3 -->
<g id="edge5" class="edge"><title>Node3&#45;&gt;Node3</title>
<path fill="none" stroke="midnightblue" d="M220.298,-75.7571C207.551,-84.5653 216.285,-94 246.5,-94 266.801,-94 277.404,-89.741 278.311,-84.2746"/>
<polygon fill="midnightblue" stroke="midnightblue" points="281.125,-82.1836 272.702,-75.7571 275.279,-86.0337 281.125,-82.1836"/>
</g>
<!-- Node4 -->
<g id="node4" class="node"><title>Node4</title>
<g id="a_node4"><a xlink:href="classscram_1_1core_1_1Product.xhtml#a76fc3f1f84ea87d601c5c268639137a9" target="_top" xlink:title="scram::core::Product\l::empty">
<polygon fill="white" stroke="black" points="363,-75 363,-105 471,-105 471,-75 363,-75"/>
<text text-anchor="start" x="371" y="-93" font-family="Helvetica,sans-Serif" font-size="10.00">scram::core::Product</text>
<text text-anchor="middle" x="417" y="-82" font-family="Helvetica,sans-Serif" font-size="10.00">::empty</text>
</a>
</g>
</g>
<!-- Node3&#45;&gt;Node4 -->
<g id="edge4" class="edge"><title>Node3&#45;&gt;Node4</title>
<path fill="none" stroke="midnightblue" d="M303.608,-73.9917C319.464,-76.2501 336.823,-78.7226 353.053,-81.0343"/>
<polygon fill="midnightblue" stroke="midnightblue" points="352.595,-84.5043 362.989,-82.4495 353.583,-77.5743 352.595,-84.5043"/>
</g>
<!-- Node5 -->
<g id="node5" class="node"><title>Node5</title>
<g id="a_node5"><a xlink:href="classscram_1_1core_1_1Product.xhtml#a23c2873c9198ab74446508995c8925e2" target="_top" xlink:title="scram::core::Product\l::size">
<polygon fill="white" stroke="black" points="363,-26 363,-56 471,-56 471,-26 363,-26"/>
<text text-anchor="start" x="371" y="-44" font-family="Helvetica,sans-Serif" font-size="10.00">scram::core::Product</text>
<text text-anchor="middle" x="417" y="-33" font-family="Helvetica,sans-Serif" font-size="10.00">::size</text>
</a>
</g>
</g>
<!-- Node3&#45;&gt;Node5 -->
<g id="edge6" class="edge"><title>Node3&#45;&gt;Node5</title>
<path fill="none" stroke="midnightblue" d="M303.608,-57.6754C319.464,-55.3228 336.823,-52.7473 353.053,-50.3393"/>
<polygon fill="midnightblue" stroke="midnightblue" points="353.611,-53.7949 362.989,-48.8651 352.584,-46.8707 353.611,-53.7949"/>
</g>
<!-- Node6&#45;&gt;Node6 -->
<g id="edge8" class="edge"><title>Node6&#45;&gt;Node6</title>
<path fill="none" stroke="midnightblue" d="M220.298,-19.7571C207.551,-28.5653 216.285,-38 246.5,-38 266.801,-38 277.404,-33.741 278.311,-28.2746"/>
<polygon fill="midnightblue" stroke="midnightblue" points="281.125,-26.1836 272.702,-19.7571 275.279,-30.0337 281.125,-26.1836"/>
</g>
</g>
</svg>
