<?xml version="1.0" encoding="UTF-8" standalone="no"?>
<!DOCTYPE svg PUBLIC "-//W3C//DTD SVG 1.1//EN"
 "http://www.w3.org/Graphics/SVG/1.1/DTD/svg11.dtd">
<!-- Generated by graphviz version 2.38.0 (20140413.2041)
 -->
<!-- Title: scram::mef::PrimaryEvent Pages: 1 -->
<svg width="414pt" height="706pt"
 viewBox="0.00 0.00 413.50 706.00" xmlns="http://www.w3.org/2000/svg" xmlns:xlink="http://www.w3.org/1999/xlink">
<g id="graph0" class="graph" transform="scale(1 1) rotate(0) translate(4 702)">
<title>scram::mef::PrimaryEvent</title>
<polygon fill="white" stroke="none" points="-4,4 -4,-702 409.5,-702 409.5,4 -4,4"/>
<!-- Node1 -->
<g id="node1" class="node"><title>Node1</title>
<polygon fill="#bfbfbf" stroke="black" points="158.5,-320.5 158.5,-399.5 289.5,-399.5 289.5,-320.5 158.5,-320.5"/>
<text text-anchor="middle" x="224" y="-387.5" font-family="Helvetica,sans-Serif" font-size="10.00">scram::mef::PrimaryEvent</text>
<polyline fill="none" stroke="black" points="158.5,-380.5 289.5,-380.5 "/>
<text text-anchor="middle" x="224" y="-368.5" font-family="Helvetica,sans-Serif" font-size="10.00"> </text>
<polyline fill="none" stroke="black" points="158.5,-361.5 289.5,-361.5 "/>
<text text-anchor="start" x="166.5" y="-349.5" font-family="Helvetica,sans-Serif" font-size="10.00">+ ~PrimaryEvent()</text>
<text text-anchor="start" x="166.5" y="-338.5" font-family="Helvetica,sans-Serif" font-size="10.00">+ has_expression()</text>
<text text-anchor="start" x="166.5" y="-327.5" font-family="Helvetica,sans-Serif" font-size="10.00"># has_expression()</text>
</g>
<!-- Node7 -->
<g id="node7" class="node"><title>Node7</title>
<g id="a_node7"><a xlink:href="classscram_1_1mef_1_1BasicEvent.xhtml" target="_top" xlink:title="Representation of a basic event in a fault tree. ">
<polygon fill="white" stroke="black" points="92,-127.5 92,-283.5 214,-283.5 214,-127.5 92,-127.5"/>
<text text-anchor="middle" x="153" y="-271.5" font-family="Helvetica,sans-Serif" font-size="10.00">scram::mef::BasicEvent</text>
<polyline fill="none" stroke="black" points="92,-264.5 214,-264.5 "/>
<text text-anchor="middle" x="153" y="-252.5" font-family="Helvetica,sans-Serif" font-size="10.00"> </text>
<polyline fill="none" stroke="black" points="92,-245.5 214,-245.5 "/>
<text text-anchor="start" x="100" y="-233.5" font-family="Helvetica,sans-Serif" font-size="10.00">+ ~BasicEvent()</text>
<text text-anchor="start" x="100" y="-222.5" font-family="Helvetica,sans-Serif" font-size="10.00">+ expression()</text>
<text text-anchor="start" x="100" y="-211.5" font-family="Helvetica,sans-Serif" font-size="10.00">+ p()</text>
<text text-anchor="start" x="100" y="-200.5" font-family="Helvetica,sans-Serif" font-size="10.00">+ SampleProbability()</text>
<text text-anchor="start" x="100" y="-189.5" font-family="Helvetica,sans-Serif" font-size="10.00">+ Reset()</text>
<text text-anchor="start" x="100" y="-178.5" font-family="Helvetica,sans-Serif" font-size="10.00">+ IsConstant()</text>
<text text-anchor="start" x="100" y="-167.5" font-family="Helvetica,sans-Serif" font-size="10.00">+ Validate()</text>
<text text-anchor="start" x="100" y="-156.5" font-family="Helvetica,sans-Serif" font-size="10.00">+ HasCcf()</text>
<text text-anchor="start" x="100" y="-145.5" font-family="Helvetica,sans-Serif" font-size="10.00">+ ccf_gate()</text>
<text text-anchor="start" x="100" y="-134.5" font-family="Helvetica,sans-Serif" font-size="10.00">+ ccf_gate()</text>
</a>
</g>
</g>
<!-- Node1&#45;&gt;Node7 -->
<g id="edge6" class="edge"><title>Node1&#45;&gt;Node7</title>
<path fill="none" stroke="midnightblue" d="M201.613,-310.916C197.555,-302.2 193.231,-292.912 188.899,-283.608"/>
<polygon fill="none" stroke="midnightblue" points="198.506,-312.535 205.9,-320.123 204.852,-309.58 198.506,-312.535"/>
</g>
<!-- Node9 -->
<g id="node9" class="node"><title>Node9</title>
<g id="a_node9"><a xlink:href="classscram_1_1mef_1_1HouseEvent.xhtml" target="_top" xlink:title="Representation of a house event in a fault tree. ">
<polygon fill="white" stroke="black" points="232,-171.5 232,-239.5 358,-239.5 358,-171.5 232,-171.5"/>
<text text-anchor="middle" x="295" y="-227.5" font-family="Helvetica,sans-Serif" font-size="10.00">scram::mef::HouseEvent</text>
<polyline fill="none" stroke="black" points="232,-220.5 358,-220.5 "/>
<text text-anchor="middle" x="295" y="-208.5" font-family="Helvetica,sans-Serif" font-size="10.00"> </text>
<polyline fill="none" stroke="black" points="232,-201.5 358,-201.5 "/>
<text text-anchor="start" x="240" y="-189.5" font-family="Helvetica,sans-Serif" font-size="10.00">+ state()</text>
<text text-anchor="start" x="240" y="-178.5" font-family="Helvetica,sans-Serif" font-size="10.00">+ state()</text>
</a>
</g>
</g>
<!-- Node1&#45;&gt;Node9 -->
<g id="edge8" class="edge"><title>Node1&#45;&gt;Node9</title>
<path fill="none" stroke="midnightblue" d="M246.441,-310.8C257.231,-287.623 269.892,-260.43 279.58,-239.621"/>
<polygon fill="none" stroke="midnightblue" points="243.148,-309.58 242.1,-320.123 249.494,-312.535 243.148,-309.58"/>
</g>
<!-- Node2 -->
<g id="node2" class="node"><title>Node2</title>
<g id="a_node2"><a xlink:href="classscram_1_1mef_1_1Event.xhtml" target="_top" xlink:title="Abstract base class for general fault tree events. ">
<polygon fill="white" stroke="black" points="175,-436.5 175,-526.5 273,-526.5 273,-436.5 175,-436.5"/>
<text text-anchor="middle" x="224" y="-514.5" font-family="Helvetica,sans-Serif" font-size="10.00">scram::mef::Event</text>
<polyline fill="none" stroke="black" points="175,-507.5 273,-507.5 "/>
<text text-anchor="middle" x="224" y="-495.5" font-family="Helvetica,sans-Serif" font-size="10.00"> </text>
<polyline fill="none" stroke="black" points="175,-488.5 273,-488.5 "/>
<text text-anchor="start" x="183" y="-476.5" font-family="Helvetica,sans-Serif" font-size="10.00">+ Event()</text>
<text text-anchor="start" x="183" y="-465.5" font-family="Helvetica,sans-Serif" font-size="10.00">+ ~Event()</text>
<text text-anchor="start" x="183" y="-454.5" font-family="Helvetica,sans-Serif" font-size="10.00">+ orphan()</text>
<text text-anchor="start" x="183" y="-443.5" font-family="Helvetica,sans-Serif" font-size="10.00">+ orphan()</text>
</a>
</g>
</g>
<!-- Node2&#45;&gt;Node1 -->
<g id="edge1" class="edge"><title>Node2&#45;&gt;Node1</title>
<path fill="none" stroke="midnightblue" d="M224,-426.079C224,-417.234 224,-408.233 224,-399.858"/>
<polygon fill="none" stroke="midnightblue" points="220.5,-426.342 224,-436.342 227.5,-426.342 220.5,-426.342"/>
</g>
<!-- Node3 -->
<g id="node3" class="node"><title>Node3</title>
<g id="a_node3"><a xlink:href="classscram_1_1mef_1_1Element.xhtml" target="_top" xlink:title="Mixin class that represents any element of analysis that can have extra descriptions, such as attributes and a label. ">
<polygon fill="white" stroke="black" points="0,-563.5 0,-697.5 108,-697.5 108,-563.5 0,-563.5"/>
<text text-anchor="middle" x="54" y="-685.5" font-family="Helvetica,sans-Serif" font-size="10.00">scram::mef::Element</text>
<polyline fill="none" stroke="black" points="0,-678.5 108,-678.5 "/>
<text text-anchor="middle" x="54" y="-666.5" font-family="Helvetica,sans-Serif" font-size="10.00"> </text>
<polyline fill="none" stroke="black" points="0,-659.5 108,-659.5 "/>
<text text-anchor="start" x="8" y="-647.5" font-family="Helvetica,sans-Serif" font-size="10.00">+ Element()</text>
<text text-anchor="start" x="8" y="-636.5" font-family="Helvetica,sans-Serif" font-size="10.00">+ name()</text>
<text text-anchor="start" x="8" y="-625.5" font-family="Helvetica,sans-Serif" font-size="10.00">+ label()</text>
<text text-anchor="start" x="8" y="-614.5" font-family="Helvetica,sans-Serif" font-size="10.00">+ label()</text>
<text text-anchor="start" x="8" y="-603.5" font-family="Helvetica,sans-Serif" font-size="10.00">+ AddAttribute()</text>
<text text-anchor="start" x="8" y="-592.5" font-family="Helvetica,sans-Serif" font-size="10.00">+ HasAttribute()</text>
<text text-anchor="start" x="8" y="-581.5" font-family="Helvetica,sans-Serif" font-size="10.00">+ GetAttribute()</text>
<text text-anchor="start" x="8" y="-570.5" font-family="Helvetica,sans-Serif" font-size="10.00"># ~Element()</text>
</a>
</g>
</g>
<!-- Node3&#45;&gt;Node2 -->
<g id="edge2" class="edge"><title>Node3&#45;&gt;Node2</title>
<path fill="none" stroke="midnightblue" d="M115.608,-564.249C116.073,-563.83 116.537,-563.414 117,-563 135.123,-546.823 156.28,-530.44 174.974,-516.714"/>
<polygon fill="none" stroke="midnightblue" points="113.018,-561.878 108.07,-571.246 117.78,-567.009 113.018,-561.878"/>
</g>
<!-- Node4 -->
<g id="node4" class="node"><title>Node4</title>
<g id="a_node4"><a xlink:href="classscram_1_1mef_1_1Role.xhtml" target="_top" xlink:title="Mixin class that manages private or public roles for elements as needed. ">
<polygon fill="white" stroke="black" points="126,-585.5 126,-675.5 218,-675.5 218,-585.5 126,-585.5"/>
<text text-anchor="middle" x="172" y="-663.5" font-family="Helvetica,sans-Serif" font-size="10.00">scram::mef::Role</text>
<polyline fill="none" stroke="black" points="126,-656.5 218,-656.5 "/>
<text text-anchor="middle" x="172" y="-644.5" font-family="Helvetica,sans-Serif" font-size="10.00"> </text>
<polyline fill="none" stroke="black" points="126,-637.5 218,-637.5 "/>
<text text-anchor="start" x="134" y="-625.5" font-family="Helvetica,sans-Serif" font-size="10.00">+ Role()</text>
<text text-anchor="start" x="134" y="-614.5" font-family="Helvetica,sans-Serif" font-size="10.00">+ role()</text>
<text text-anchor="start" x="134" y="-603.5" font-family="Helvetica,sans-Serif" font-size="10.00">+ base_path()</text>
<text text-anchor="start" x="134" y="-592.5" font-family="Helvetica,sans-Serif" font-size="10.00"># ~Role()</text>
</a>
</g>
</g>
<!-- Node4&#45;&gt;Node2 -->
<g id="edge3" class="edge"><title>Node4&#45;&gt;Node2</title>
<path fill="none" stroke="midnightblue" d="M191.079,-575.566C196.78,-559.449 202.96,-541.979 208.409,-526.574"/>
<polygon fill="none" stroke="midnightblue" points="187.637,-574.8 187.602,-585.395 194.236,-577.135 187.637,-574.8"/>
</g>
<!-- Node5 -->
<g id="node5" class="node"><title>Node5</title>
<g id="a_node5"><a xlink:href="classscram_1_1mef_1_1Id.xhtml" target="_top" xlink:title="Mixin class for assigning unique identifiers to elements. ">
<polygon fill="white" stroke="black" points="236,-591 236,-670 316,-670 316,-591 236,-591"/>
<text text-anchor="middle" x="276" y="-658" font-family="Helvetica,sans-Serif" font-size="10.00">scram::mef::Id</text>
<polyline fill="none" stroke="black" points="236,-651 316,-651 "/>
<text text-anchor="middle" x="276" y="-639" font-family="Helvetica,sans-Serif" font-size="10.00"> </text>
<polyline fill="none" stroke="black" points="236,-632 316,-632 "/>
<text text-anchor="start" x="244" y="-620" font-family="Helvetica,sans-Serif" font-size="10.00">+ Id()</text>
<text text-anchor="start" x="244" y="-609" font-family="Helvetica,sans-Serif" font-size="10.00">+ id()</text>
<text text-anchor="start" x="244" y="-598" font-family="Helvetica,sans-Serif" font-size="10.00"># ~Id()</text>
</a>
</g>
</g>
<!-- Node5&#45;&gt;Node2 -->
<g id="edge4" class="edge"><title>Node5&#45;&gt;Node2</title>
<path fill="none" stroke="midnightblue" d="M258.963,-581.337C252.724,-563.699 245.7,-543.843 239.593,-526.58"/>
<polygon fill="none" stroke="midnightblue" points="255.703,-582.617 262.338,-590.877 262.302,-580.283 255.703,-582.617"/>
</g>
<!-- Node6 -->
<g id="node6" class="node"><title>Node6</title>
<polygon fill="white" stroke="#bfbfbf" points="334.5,-602 334.5,-659 405.5,-659 405.5,-602 334.5,-602"/>
<text text-anchor="middle" x="370" y="-647" font-family="Helvetica,sans-Serif" font-size="10.00">noncopyable</text>
<polyline fill="none" stroke="#bfbfbf" points="334.5,-640 405.5,-640 "/>
<text text-anchor="middle" x="370" y="-628" font-family="Helvetica,sans-Serif" font-size="10.00"> </text>
<polyline fill="none" stroke="#bfbfbf" points="334.5,-621 405.5,-621 "/>
<text text-anchor="middle" x="370" y="-609" font-family="Helvetica,sans-Serif" font-size="10.00"> </text>
</g>
<!-- Node6&#45;&gt;Node2 -->
<g id="edge5" class="edge"><title>Node6&#45;&gt;Node2</title>
<path fill="none" stroke="#8b1a1a" d="M348.484,-593.443C341.581,-583.126 333.504,-572.195 325,-563 309.547,-546.291 290.47,-530.178 273.073,-516.814"/>
<polygon fill="none" stroke="#8b1a1a" points="345.606,-595.436 353.99,-601.913 351.475,-591.621 345.606,-595.436"/>
</g>
<!-- Node8 -->
<g id="node8" class="node"><title>Node8</title>
<g id="a_node8"><a xlink:href="classscram_1_1mef_1_1CcfEvent.xhtml" target="_top" xlink:title="A basic event that represents a multiple failure of a group of events due to a common cause...">
<polygon fill="white" stroke="black" points="96.5,-0.5 96.5,-90.5 209.5,-90.5 209.5,-0.5 96.5,-0.5"/>
<text text-anchor="middle" x="153" y="-78.5" font-family="Helvetica,sans-Serif" font-size="10.00">scram::mef::CcfEvent</text>
<polyline fill="none" stroke="black" points="96.5,-71.5 209.5,-71.5 "/>
<text text-anchor="middle" x="153" y="-59.5" font-family="Helvetica,sans-Serif" font-size="10.00"> </text>
<polyline fill="none" stroke="black" points="96.5,-52.5 209.5,-52.5 "/>
<text text-anchor="start" x="104.5" y="-40.5" font-family="Helvetica,sans-Serif" font-size="10.00">+ CcfEvent()</text>
<text text-anchor="start" x="104.5" y="-29.5" font-family="Helvetica,sans-Serif" font-size="10.00">+ ccf_group()</text>
<text text-anchor="start" x="104.5" y="-18.5" font-family="Helvetica,sans-Serif" font-size="10.00">+ members()</text>
<text text-anchor="start" x="104.5" y="-7.5" font-family="Helvetica,sans-Serif" font-size="10.00">+ members()</text>
</a>
</g>
</g>
<!-- Node7&#45;&gt;Node8 -->
<g id="edge7" class="edge"><title>Node7&#45;&gt;Node8</title>
<path fill="none" stroke="midnightblue" d="M153,-117.082C153,-108.019 153,-99.1063 153,-90.8271"/>
<polygon fill="none" stroke="midnightblue" points="149.5,-117.351 153,-127.351 156.5,-117.351 149.5,-117.351"/>
</g>
</g>
</svg>
