<?xml version="1.0" encoding="UTF-8" standalone="no"?>
<!DOCTYPE svg PUBLIC "-//W3C//DTD SVG 1.1//EN"
 "http://www.w3.org/Graphics/SVG/1.1/DTD/svg11.dtd">
<!-- Generated by graphviz version 2.38.0 (20140413.2041)
 -->
<!-- Title: scram::core::Bdd::Bdd Pages: 1 -->
<svg width="307pt" height="281pt"
 viewBox="0.00 0.00 307.00 281.00" xmlns="http://www.w3.org/2000/svg" xmlns:xlink="http://www.w3.org/1999/xlink">
<g id="graph0" class="graph" transform="scale(1 1) rotate(0) translate(4 277)">
<title>scram::core::Bdd::Bdd</title>
<polygon fill="white" stroke="none" points="-4,4 -4,-277 303,-277 303,4 -4,4"/>
<!-- Node1 -->
<g id="node1" class="node"><title>Node1</title>
<polygon fill="#bfbfbf" stroke="black" points="0,-117.5 0,-136.5 115,-136.5 115,-117.5 0,-117.5"/>
<text text-anchor="middle" x="57.5" y="-124.5" font-family="Helvetica,sans-Serif" font-size="10.00">scram::core::Bdd::Bdd</text>
</g>
<!-- Node2 -->
<g id="node2" class="node"><title>Node2</title>
<g id="a_node2"><a xlink:href="classscram_1_1core_1_1Bdd.xhtml#a85ca781ff5bec86a44c217fb4b26ff76" target="_top" xlink:title="Helper function to clear and set vertex marks. ">
<polygon fill="white" stroke="black" points="151,-235.5 151,-254.5 299,-254.5 299,-235.5 151,-235.5"/>
<text text-anchor="middle" x="225" y="-242.5" font-family="Helvetica,sans-Serif" font-size="10.00">scram::core::Bdd::ClearMarks</text>
</a>
</g>
</g>
<!-- Node1&#45;&gt;Node2 -->
<g id="edge1" class="edge"><title>Node1&#45;&gt;Node2</title>
<path fill="none" stroke="midnightblue" d="M64.6302,-136.574C77.8702,-156.448 111.183,-202.296 151,-226 154.671,-228.186 158.592,-230.123 162.64,-231.839"/>
<polygon fill="midnightblue" stroke="midnightblue" points="161.664,-235.211 172.256,-235.457 164.129,-228.66 161.664,-235.211"/>
</g>
<!-- Node3 -->
<g id="node3" class="node"><title>Node3</title>
<g id="a_node3"><a xlink:href="classscram_1_1core_1_1BooleanGraph.xhtml#ae4be33280c2916ee145fb3776f75fdad" target="_top" xlink:title="scram::core::BooleanGraph\l::complement">
<polygon fill="white" stroke="black" points="157,-186 157,-216 293,-216 293,-186 157,-186"/>
<text text-anchor="start" x="165" y="-204" font-family="Helvetica,sans-Serif" font-size="10.00">scram::core::BooleanGraph</text>
<text text-anchor="middle" x="225" y="-193" font-family="Helvetica,sans-Serif" font-size="10.00">::complement</text>
</a>
</g>
</g>
<!-- Node1&#45;&gt;Node3 -->
<g id="edge3" class="edge"><title>Node1&#45;&gt;Node3</title>
<path fill="none" stroke="midnightblue" d="M74.1136,-136.556C92.1674,-147.339 123,-164.943 151,-177 155.365,-178.88 159.929,-180.701 164.552,-182.444"/>
<polygon fill="midnightblue" stroke="midnightblue" points="163.485,-185.78 174.079,-185.904 165.875,-179.2 163.485,-185.78"/>
</g>
<!-- Node4 -->
<g id="node4" class="node"><title>Node4</title>
<g id="a_node4"><a xlink:href="classscram_1_1core_1_1CacheTable.xhtml#a53efbf8c170ca5f0dd0122d655dca012" target="_top" xlink:title="Prepares the table for more entries. ">
<polygon fill="white" stroke="black" points="161.5,-137 161.5,-167 288.5,-167 288.5,-137 161.5,-137"/>
<text text-anchor="start" x="169.5" y="-155" font-family="Helvetica,sans-Serif" font-size="10.00">scram::core::CacheTable</text>
<text text-anchor="middle" x="225" y="-144" font-family="Helvetica,sans-Serif" font-size="10.00">::reserve</text>
</a>
</g>
</g>
<!-- Node1&#45;&gt;Node4 -->
<g id="edge4" class="edge"><title>Node1&#45;&gt;Node4</title>
<path fill="none" stroke="midnightblue" d="M115.456,-135.604C126.997,-137.347 139.283,-139.203 151.283,-141.016"/>
<polygon fill="midnightblue" stroke="midnightblue" points="150.862,-144.492 161.273,-142.525 151.908,-137.57 150.862,-144.492"/>
</g>
<!-- Node5 -->
<g id="node5" class="node"><title>Node5</title>
<g id="a_node5"><a xlink:href="classscram_1_1core_1_1BooleanGraph.xhtml#a2621e916248269f99f5e968dc78e1491" target="_top" xlink:title="scram::core::BooleanGraph\l::root">
<polygon fill="white" stroke="black" points="157,-88 157,-118 293,-118 293,-88 157,-88"/>
<text text-anchor="start" x="165" y="-106" font-family="Helvetica,sans-Serif" font-size="10.00">scram::core::BooleanGraph</text>
<text text-anchor="middle" x="225" y="-95" font-family="Helvetica,sans-Serif" font-size="10.00">::root</text>
</a>
</g>
</g>
<!-- Node1&#45;&gt;Node5 -->
<g id="edge5" class="edge"><title>Node1&#45;&gt;Node5</title>
<path fill="none" stroke="midnightblue" d="M115.456,-118.741C125.588,-117.271 136.294,-115.719 146.877,-114.184"/>
<polygon fill="midnightblue" stroke="midnightblue" points="147.568,-117.62 156.963,-112.721 146.564,-110.693 147.568,-117.62"/>
</g>
<!-- Node6 -->
<g id="node6" class="node"><title>Node6</title>
<g id="a_node6"><a xlink:href="classscram_1_1core_1_1CacheTable.xhtml#a371345f30fc0280f2f8b45c3602d0b76" target="_top" xlink:title="scram::core::CacheTable\l::size">
<polygon fill="white" stroke="black" points="161.5,-39 161.5,-69 288.5,-69 288.5,-39 161.5,-39"/>
<text text-anchor="start" x="169.5" y="-57" font-family="Helvetica,sans-Serif" font-size="10.00">scram::core::CacheTable</text>
<text text-anchor="middle" x="225" y="-46" font-family="Helvetica,sans-Serif" font-size="10.00">::size</text>
</a>
</g>
</g>
<!-- Node1&#45;&gt;Node6 -->
<g id="edge6" class="edge"><title>Node1&#45;&gt;Node6</title>
<path fill="none" stroke="midnightblue" d="M75.1833,-117.38C93.4309,-107.089 123.721,-90.6723 151,-79 156.08,-76.8262 161.419,-74.7038 166.8,-72.6728"/>
<polygon fill="midnightblue" stroke="midnightblue" points="168.301,-75.8504 176.487,-69.1241 165.894,-69.2776 168.301,-75.8504"/>
</g>
<!-- Node7 -->
<g id="node7" class="node"><title>Node7</title>
<g id="a_node7"><a xlink:href="classscram_1_1core_1_1Bdd.xhtml#a7ef48b098f618469a9347005f90a2280" target="_top" xlink:title="To handle incomplete ZBDD type with unique pointers. ">
<polygon fill="white" stroke="black" points="164.5,-0.5 164.5,-19.5 285.5,-19.5 285.5,-0.5 164.5,-0.5"/>
<text text-anchor="middle" x="225" y="-7.5" font-family="Helvetica,sans-Serif" font-size="10.00">scram::core::Bdd::~Bdd</text>
</a>
</g>
</g>
<!-- Node1&#45;&gt;Node7 -->
<g id="edge7" class="edge"><title>Node1&#45;&gt;Node7</title>
<path fill="none" stroke="midnightblue" d="M64.9084,-117.366C78.4221,-97.8198 111.84,-53.3817 151,-30 155.4,-27.3727 160.154,-25.0818 165.051,-23.0856"/>
<polygon fill="midnightblue" stroke="midnightblue" points="166.4,-26.3192 174.591,-19.5994 163.997,-19.7444 166.4,-26.3192"/>
</g>
<!-- Node2&#45;&gt;Node2 -->
<g id="edge2" class="edge"><title>Node2&#45;&gt;Node2</title>
<path fill="none" stroke="midnightblue" d="M199.415,-254.757C186.968,-263.565 195.496,-273 225,-273 244.823,-273 255.177,-268.741 256.063,-263.275"/>
<polygon fill="midnightblue" stroke="midnightblue" points="258.938,-261.275 250.585,-254.757 253.051,-265.061 258.938,-261.275"/>
</g>
</g>
</svg>
