<?xml version="1.0" encoding="UTF-8" standalone="no"?>
<!DOCTYPE svg PUBLIC "-//W3C//DTD SVG 1.1//EN"
 "http://www.w3.org/Graphics/SVG/1.1/DTD/svg11.dtd">
<!-- Generated by graphviz version 2.38.0 (20140413.2041)
 -->
<!-- Title: scram::core::CustomPreprocessor&lt; Bdd &gt; Pages: 1 -->
<svg width="175pt" height="408pt"
 viewBox="0.00 0.00 175.00 408.00" xmlns="http://www.w3.org/2000/svg" xmlns:xlink="http://www.w3.org/1999/xlink">
<g id="graph0" class="graph" transform="scale(1 1) rotate(0) translate(4 404)">
<title>scram::core::CustomPreprocessor&lt; Bdd &gt;</title>
<polygon fill="white" stroke="none" points="-4,4 -4,-404 171,-404 171,4 -4,4"/>
<!-- Node1 -->
<g id="node1" class="node"><title>Node1</title>
<polygon fill="#bfbfbf" stroke="black" points="-1.42109e-14,-0.5 -1.42109e-14,-68.5 167,-68.5 167,-0.5 -1.42109e-14,-0.5"/>
<text text-anchor="start" x="8" y="-56.5" font-family="Helvetica,sans-Serif" font-size="10.00">scram::core::CustomPreprocessor</text>
<text text-anchor="middle" x="83.5" y="-45.5" font-family="Helvetica,sans-Serif" font-size="10.00">&lt; Bdd &gt;</text>
<polyline fill="none" stroke="black" points="-1.42109e-14,-38.5 167,-38.5 "/>
<text text-anchor="middle" x="83.5" y="-26.5" font-family="Helvetica,sans-Serif" font-size="10.00"> </text>
<polyline fill="none" stroke="black" points="-1.42109e-14,-19.5 167,-19.5 "/>
<text text-anchor="start" x="8" y="-7.5" font-family="Helvetica,sans-Serif" font-size="10.00">+ Run()</text>
</g>
<!-- Node2 -->
<g id="node2" class="node"><title>Node2</title>
<g id="a_node2"><a xlink:href="classscram_1_1core_1_1Preprocessor.xhtml" target="_top" xlink:title="The class provides main preprocessing operations over a Boolean graph to simplify the fault tree and ...">
<polygon fill="white" stroke="black" points="17.5,-105.5 17.5,-305.5 149.5,-305.5 149.5,-105.5 17.5,-105.5"/>
<text text-anchor="middle" x="83.5" y="-293.5" font-family="Helvetica,sans-Serif" font-size="10.00">scram::core::Preprocessor</text>
<polyline fill="none" stroke="black" points="17.5,-286.5 149.5,-286.5 "/>
<text text-anchor="middle" x="83.5" y="-274.5" font-family="Helvetica,sans-Serif" font-size="10.00"> </text>
<polyline fill="none" stroke="black" points="17.5,-267.5 149.5,-267.5 "/>
<text text-anchor="start" x="25.5" y="-255.5" font-family="Helvetica,sans-Serif" font-size="10.00">+ Preprocessor()</text>
<text text-anchor="start" x="25.5" y="-244.5" font-family="Helvetica,sans-Serif" font-size="10.00">+ ~Preprocessor()</text>
<text text-anchor="start" x="25.5" y="-233.5" font-family="Helvetica,sans-Serif" font-size="10.00">+ Run()</text>
<text text-anchor="start" x="25.5" y="-222.5" font-family="Helvetica,sans-Serif" font-size="10.00"># RunPhaseOne()</text>
<text text-anchor="start" x="25.5" y="-211.5" font-family="Helvetica,sans-Serif" font-size="10.00"># RunPhaseTwo()</text>
<text text-anchor="start" x="25.5" y="-200.5" font-family="Helvetica,sans-Serif" font-size="10.00"># RunPhaseThree()</text>
<text text-anchor="start" x="25.5" y="-189.5" font-family="Helvetica,sans-Serif" font-size="10.00"># RunPhaseFour()</text>
<text text-anchor="start" x="25.5" y="-178.5" font-family="Helvetica,sans-Serif" font-size="10.00"># RunPhaseFive()</text>
<text text-anchor="start" x="25.5" y="-167.5" font-family="Helvetica,sans-Serif" font-size="10.00"># CheckRootGate()</text>
<text text-anchor="start" x="25.5" y="-156.5" font-family="Helvetica,sans-Serif" font-size="10.00"># RemoveNullGates()</text>
<text text-anchor="start" x="25.5" y="-145.5" font-family="Helvetica,sans-Serif" font-size="10.00"># RemoveConstants()</text>
<text text-anchor="start" x="25.5" y="-134.5" font-family="Helvetica,sans-Serif" font-size="10.00"># PropagateConstant()</text>
<text text-anchor="start" x="25.5" y="-123.5" font-family="Helvetica,sans-Serif" font-size="10.00"># PropagateConstant()</text>
<text text-anchor="start" x="25.5" y="-112.5" font-family="Helvetica,sans-Serif" font-size="10.00">and 61 more...</text>
</a>
</g>
</g>
<!-- Node2&#45;&gt;Node1 -->
<g id="edge1" class="edge"><title>Node2&#45;&gt;Node1</title>
<path fill="none" stroke="midnightblue" d="M83.5,-94.9218C83.5,-85.5767 83.5,-76.6815 83.5,-68.7534"/>
<polygon fill="none" stroke="midnightblue" points="80.0001,-95.2144 83.5,-105.214 87.0001,-95.2145 80.0001,-95.2144"/>
</g>
<!-- Node3 -->
<g id="node3" class="node"><title>Node3</title>
<polygon fill="white" stroke="#bfbfbf" points="48,-342.5 48,-399.5 119,-399.5 119,-342.5 48,-342.5"/>
<text text-anchor="middle" x="83.5" y="-387.5" font-family="Helvetica,sans-Serif" font-size="10.00">noncopyable</text>
<polyline fill="none" stroke="#bfbfbf" points="48,-380.5 119,-380.5 "/>
<text text-anchor="middle" x="83.5" y="-368.5" font-family="Helvetica,sans-Serif" font-size="10.00"> </text>
<polyline fill="none" stroke="#bfbfbf" points="48,-361.5 119,-361.5 "/>
<text text-anchor="middle" x="83.5" y="-349.5" font-family="Helvetica,sans-Serif" font-size="10.00"> </text>
</g>
<!-- Node3&#45;&gt;Node2 -->
<g id="edge2" class="edge"><title>Node3&#45;&gt;Node2</title>
<path fill="none" stroke="#8b1a1a" d="M83.5,-332.04C83.5,-323.867 83.5,-314.865 83.5,-305.549"/>
<polygon fill="none" stroke="#8b1a1a" points="80.0001,-332.264 83.5,-342.264 87.0001,-332.264 80.0001,-332.264"/>
</g>
</g>
</svg>
