<?xml version="1.0" encoding="UTF-8" standalone="no"?>
<!DOCTYPE svg PUBLIC "-//W3C//DTD SVG 1.1//EN"
 "http://www.w3.org/Graphics/SVG/1.1/DTD/svg11.dtd">
<!-- Generated by graphviz version 2.38.0 (20140413.2041)
 -->
<!-- Title: scram::mef::Expression::Min Pages: 1 -->
<!--zoomable 611 -->
<svg id="main" version="1.1" xmlns="http://www.w3.org/2000/svg" xmlns:xlink="http://www.w3.org/1999/xlink" xml:space="preserve" onload="init(evt)">
<style type="text/css"><![CDATA[
.edge:hover path { stroke: red; }
.edge:hover polygon { stroke: red; fill: red; }
]]></style>
<script type="text/javascript"><![CDATA[
var edges = document.getElementsByTagName('g');
if (edges && edges.length) {
  for (var i=0;i<edges.length;i++) {
    if (edges[i].id.substr(0,4)=='edge') {
      edges[i].setAttribute('class','edge');
    }
  }
}
]]></script>
        <defs>
                <circle id="rim" cx="0" cy="0" r="7"/>
                <circle id="rim2" cx="0" cy="0" r="3.5"/>
                <g id="zoomPlus">
                        <use xlink:href="#rim" fill="#404040">
                                <set attributeName="fill" to="#808080" begin="zoomplus.mouseover" end="zoomplus.mouseout"/>
                        </use>
                        <path d="M-4,0h8M0,-4v8" fill="none" stroke="white" stroke-width="1.5" pointer-events="none"/>
                </g>
                <g id="zoomMin">
                        <use xlink:href="#rim" fill="#404040">
                                <set attributeName="fill" to="#808080" begin="zoomminus.mouseover" end="zoomminus.mouseout"/>
                        </use>
                        <path d="M-4,0h8" fill="none" stroke="white" stroke-width="1.5" pointer-events="none"/>
                </g>
                <g id="dirArrow">
                        <path fill="none" stroke="white" stroke-width="1.5" d="M0,-3.0v7 M-2.5,-0.5L0,-3.0L2.5,-0.5"/>
                </g>
               <g id="resetDef">
                       <use xlink:href="#rim2" fill="#404040">
                               <set attributeName="fill" to="#808080" begin="reset.mouseover" end="reset.mouseout"/>
                       </use>
               </g>
        </defs>

<script type="text/javascript">
var viewWidth = 381;
var viewHeight = 611;
var sectionId = 'dynsection-10';
</script>
<script xlink:href="svgpan.js"/>
<svg id="graph" class="graph">
<g id="viewport">
<title>scram::mef::Expression::Min</title>
<polygon fill="white" stroke="none" points="-4,4 -4,-606.5 377,-606.5 377,4 -4,4"/>
<!-- Node1 -->
<g id="node1" class="node"><title>Node1</title>
<polygon fill="#bfbfbf" stroke="black" points="0,-324 0,-343 143,-343 143,-324 0,-324"/>
<text text-anchor="middle" x="71.5" y="-331" font-family="Helvetica,sans-Serif" font-size="10.00">scram::mef::Expression::Min</text>
</g>
<!-- Node2 -->
<g id="node2" class="node"><title>Node2</title>
<g id="a_node2"><a xlink:href="classscram_1_1mef_1_1Neg.xhtml#aff5035560166429b589032c821d0054f" target="_top" xlink:title="scram::mef::Neg::Max">
<polygon fill="white" stroke="black" points="218.5,-583 218.5,-602 333.5,-602 333.5,-583 218.5,-583"/>
<text text-anchor="middle" x="276" y="-590" font-family="Helvetica,sans-Serif" font-size="10.00">scram::mef::Neg::Max</text>
</a>
</g>
</g>
<!-- Node1&#45;&gt;Node2 -->
<g id="edge1" class="edge"><title>Node1&#45;&gt;Node2</title>
<path fill="none" stroke="midnightblue" d="M75.0813,-353.138C82.2675,-399.452 106.956,-515.92 179,-573.5 190.148,-582.41 204.317,-587.519 218.323,-590.361"/>
<polygon fill="midnightblue" stroke="midnightblue" points="78.5374,-352.582 73.644,-343.185 71.6093,-353.583 78.5374,-352.582"/>
</g>
<!-- Node3 -->
<g id="node3" class="node"><title>Node3</title>
<g id="a_node3"><a xlink:href="classscram_1_1mef_1_1Sub.xhtml#ad362e2542f6148aa32ff024ef957ee24" target="_top" xlink:title="scram::mef::Sub::Max">
<polygon fill="white" stroke="black" points="219,-545 219,-564 333,-564 333,-545 219,-545"/>
<text text-anchor="middle" x="276" y="-552" font-family="Helvetica,sans-Serif" font-size="10.00">scram::mef::Sub::Max</text>
</a>
</g>
</g>
<!-- Node1&#45;&gt;Node3 -->
<g id="edge2" class="edge"><title>Node1&#45;&gt;Node3</title>
<path fill="none" stroke="midnightblue" d="M76.7524,-352.771C86.8135,-393.542 116.106,-488.624 179,-535.5 190.443,-544.029 204.712,-549.006 218.721,-551.844"/>
<polygon fill="midnightblue" stroke="midnightblue" points="80.1526,-351.941 74.4589,-343.006 73.338,-353.541 80.1526,-351.941"/>
</g>
<!-- Node4 -->
<g id="node4" class="node"><title>Node4</title>
<g id="a_node4"><a xlink:href="classscram_1_1mef_1_1ExponentialExpression.xhtml#a2e97ea7d13408b598a7938f60273a1fe" target="_top" xlink:title="scram::mef::ExponentialExpression::Min">
<polygon fill="white" stroke="black" points="179,-507 179,-526 373,-526 373,-507 179,-507"/>
<text text-anchor="middle" x="276" y="-514" font-family="Helvetica,sans-Serif" font-size="10.00">scram::mef::ExponentialExpression::Min</text>
</a>
</g>
</g>
<!-- Node1&#45;&gt;Node4 -->
<g id="edge3" class="edge"><title>Node1&#45;&gt;Node4</title>
<path fill="none" stroke="midnightblue" d="M79.1809,-352.699C92.374,-387.581 125.244,-461.107 179,-497.5 184.628,-501.31 190.84,-504.393 197.318,-506.884"/>
<polygon fill="midnightblue" stroke="midnightblue" points="82.4306,-351.394 75.7168,-343.198 75.8541,-353.792 82.4306,-351.394"/>
</g>
<!-- Node5 -->
<g id="node5" class="node"><title>Node5</title>
<g id="a_node5"><a xlink:href="classscram_1_1mef_1_1Add.xhtml#aa2b2101f0f40604e342f9f7477fdef87" target="_top" xlink:title="scram::mef::Add::Min">
<polygon fill="white" stroke="black" points="220.5,-469 220.5,-488 331.5,-488 331.5,-469 220.5,-469"/>
<text text-anchor="middle" x="276" y="-476" font-family="Helvetica,sans-Serif" font-size="10.00">scram::mef::Add::Min</text>
</a>
</g>
</g>
<!-- Node1&#45;&gt;Node5 -->
<g id="edge4" class="edge"><title>Node1&#45;&gt;Node5</title>
<path fill="none" stroke="midnightblue" d="M82.6615,-352.143C99.0175,-380.242 133.962,-432.976 179,-459.5 191.444,-466.828 206.208,-471.385 220.379,-474.202"/>
<polygon fill="midnightblue" stroke="midnightblue" points="85.6366,-350.293 77.6653,-343.314 79.5444,-353.741 85.6366,-350.293"/>
</g>
<!-- Node6 -->
<g id="node6" class="node"><title>Node6</title>
<g id="a_node6"><a xlink:href="classscram_1_1mef_1_1Parameter.xhtml#ac4b5d8872182b5c0d0ac01b7c269dfd5" target="_top" xlink:title="scram::mef::Parameter::Min">
<polygon fill="white" stroke="black" points="206.5,-431 206.5,-450 345.5,-450 345.5,-431 206.5,-431"/>
<text text-anchor="middle" x="276" y="-438" font-family="Helvetica,sans-Serif" font-size="10.00">scram::mef::Parameter::Min</text>
</a>
</g>
</g>
<!-- Node1&#45;&gt;Node6 -->
<g id="edge5" class="edge"><title>Node1&#45;&gt;Node6</title>
<path fill="none" stroke="midnightblue" d="M88.1359,-350.837C107.437,-371.096 142.242,-404.061 179,-421.5 187.519,-425.542 196.857,-428.724 206.257,-431.23"/>
<polygon fill="midnightblue" stroke="midnightblue" points="90.4543,-348.191 81.0764,-343.26 85.3329,-352.963 90.4543,-348.191"/>
</g>
<!-- Node7 -->
<g id="node7" class="node"><title>Node7</title>
<g id="a_node7"><a xlink:href="classscram_1_1mef_1_1Sub.xhtml#a9f22864663589361efd64b28768d82d0" target="_top" xlink:title="scram::mef::Sub::Min">
<polygon fill="white" stroke="black" points="220.5,-393 220.5,-412 331.5,-412 331.5,-393 220.5,-393"/>
<text text-anchor="middle" x="276" y="-400" font-family="Helvetica,sans-Serif" font-size="10.00">scram::mef::Sub::Min</text>
</a>
</g>
</g>
<!-- Node1&#45;&gt;Node7 -->
<g id="edge6" class="edge"><title>Node1&#45;&gt;Node7</title>
<path fill="none" stroke="midnightblue" d="M98.6571,-347.983C119.777,-359.131 150.558,-374.164 179,-383.5 192.156,-387.818 206.665,-391.313 220.333,-394.07"/>
<polygon fill="midnightblue" stroke="midnightblue" points="100.143,-344.809 89.6761,-343.169 96.8363,-350.978 100.143,-344.809"/>
</g>
<!-- Node8 -->
<g id="node8" class="node"><title>Node8</title>
<g id="a_node8"><a xlink:href="classscram_1_1mef_1_1ExponentialExpression.xhtml#a9780ad4bfee039cdb147a4f3cc4a4823" target="_top" xlink:title="scram::mef::ExponentialExpression\l::Validate">
<polygon fill="white" stroke="black" points="190,-343.5 190,-373.5 362,-373.5 362,-343.5 190,-343.5"/>
<text text-anchor="start" x="198" y="-361.5" font-family="Helvetica,sans-Serif" font-size="10.00">scram::mef::ExponentialExpression</text>
<text text-anchor="middle" x="276" y="-350.5" font-family="Helvetica,sans-Serif" font-size="10.00">::Validate</text>
</a>
</g>
</g>
<!-- Node1&#45;&gt;Node8 -->
<g id="edge7" class="edge"><title>Node1&#45;&gt;Node8</title>
<path fill="none" stroke="midnightblue" d="M153.056,-343.445C165.113,-344.934 177.579,-346.473 189.729,-347.973"/>
<polygon fill="midnightblue" stroke="midnightblue" points="153.394,-339.96 143.04,-342.209 152.536,-346.908 153.394,-339.96"/>
</g>
<!-- Node9 -->
<g id="node9" class="node"><title>Node9</title>
<g id="a_node9"><a xlink:href="classscram_1_1mef_1_1UniformDeviate.xhtml#a558a657077fa6d4c1000d21863d56fda" target="_top" xlink:title="scram::mef::UniformDeviate\l::Validate">
<polygon fill="white" stroke="black" points="206,-294.5 206,-324.5 346,-324.5 346,-294.5 206,-294.5"/>
<text text-anchor="start" x="214" y="-312.5" font-family="Helvetica,sans-Serif" font-size="10.00">scram::mef::UniformDeviate</text>
<text text-anchor="middle" x="276" y="-301.5" font-family="Helvetica,sans-Serif" font-size="10.00">::Validate</text>
</a>
</g>
</g>
<!-- Node1&#45;&gt;Node9 -->
<g id="edge8" class="edge"><title>Node1&#45;&gt;Node9</title>
<path fill="none" stroke="midnightblue" d="M153.171,-323.939C170.571,-321.877 188.818,-319.714 205.737,-317.709"/>
<polygon fill="midnightblue" stroke="midnightblue" points="152.559,-320.487 143.04,-325.14 153.383,-327.438 152.559,-320.487"/>
</g>
<!-- Node10 -->
<g id="node10" class="node"><title>Node10</title>
<g id="a_node10"><a xlink:href="classscram_1_1mef_1_1NormalDeviate.xhtml#a00e2955e101aa9725b2dd503c5f4c61a" target="_top" xlink:title="scram::mef::NormalDeviate\l::Validate">
<polygon fill="white" stroke="black" points="207.5,-245.5 207.5,-275.5 344.5,-275.5 344.5,-245.5 207.5,-245.5"/>
<text text-anchor="start" x="215.5" y="-263.5" font-family="Helvetica,sans-Serif" font-size="10.00">scram::mef::NormalDeviate</text>
<text text-anchor="middle" x="276" y="-252.5" font-family="Helvetica,sans-Serif" font-size="10.00">::Validate</text>
</a>
</g>
</g>
<!-- Node1&#45;&gt;Node10 -->
<g id="edge9" class="edge"><title>Node1&#45;&gt;Node10</title>
<path fill="none" stroke="midnightblue" d="M100.408,-319.357C121.588,-309.01 151.634,-295.153 179,-285.5 189.232,-281.891 200.242,-278.544 211.028,-275.549"/>
<polygon fill="midnightblue" stroke="midnightblue" points="98.7568,-316.269 91.3415,-323.836 101.857,-322.545 98.7568,-316.269"/>
</g>
<!-- Node11 -->
<g id="node11" class="node"><title>Node11</title>
<g id="a_node11"><a xlink:href="classscram_1_1mef_1_1GlmExpression.xhtml#a1b309aac9f4156cb3c54735b8f7528cd" target="_top" xlink:title="Validates the expression. ">
<polygon fill="white" stroke="black" points="206.5,-196.5 206.5,-226.5 345.5,-226.5 345.5,-196.5 206.5,-196.5"/>
<text text-anchor="start" x="214.5" y="-214.5" font-family="Helvetica,sans-Serif" font-size="10.00">scram::mef::GlmExpression</text>
<text text-anchor="middle" x="276" y="-203.5" font-family="Helvetica,sans-Serif" font-size="10.00">::Validate</text>
</a>
</g>
</g>
<!-- Node1&#45;&gt;Node11 -->
<g id="edge10" class="edge"><title>Node1&#45;&gt;Node11</title>
<path fill="none" stroke="midnightblue" d="M86.8207,-316.037C105.686,-294.182 140.957,-257.123 179,-236.5 187.479,-231.904 196.842,-228.122 206.297,-225.018"/>
<polygon fill="midnightblue" stroke="midnightblue" points="83.9887,-313.965 80.2068,-323.862 89.335,-318.484 83.9887,-313.965"/>
</g>
<!-- Node12 -->
<g id="node12" class="node"><title>Node12</title>
<g id="a_node12"><a xlink:href="classscram_1_1mef_1_1LogNormalDeviate.xhtml#a146823c655ffc212ea49060f75c7ab47" target="_top" xlink:title="scram::mef::LogNormalDeviate\l::Validate">
<polygon fill="white" stroke="black" points="199.5,-147.5 199.5,-177.5 352.5,-177.5 352.5,-147.5 199.5,-147.5"/>
<text text-anchor="start" x="207.5" y="-165.5" font-family="Helvetica,sans-Serif" font-size="10.00">scram::mef::LogNormalDeviate</text>
<text text-anchor="middle" x="276" y="-154.5" font-family="Helvetica,sans-Serif" font-size="10.00">::Validate</text>
</a>
</g>
</g>
<!-- Node1&#45;&gt;Node12 -->
<g id="edge11" class="edge"><title>Node1&#45;&gt;Node12</title>
<path fill="none" stroke="midnightblue" d="M81.0002,-314.53C96.0751,-283.116 130.533,-220.492 179,-187.5 185.264,-183.236 192.211,-179.699 199.421,-176.765"/>
<polygon fill="midnightblue" stroke="midnightblue" points="77.6861,-313.356 76.6388,-323.899 84.0322,-316.311 77.6861,-313.356"/>
</g>
<!-- Node13 -->
<g id="node13" class="node"><title>Node13</title>
<g id="a_node13"><a xlink:href="classscram_1_1mef_1_1WeibullExpression.xhtml#a59851c3a89342bf4fe6518fa8414fac1" target="_top" xlink:title="Validates the expression. ">
<polygon fill="white" stroke="black" points="199.5,-98.5 199.5,-128.5 352.5,-128.5 352.5,-98.5 199.5,-98.5"/>
<text text-anchor="start" x="207.5" y="-116.5" font-family="Helvetica,sans-Serif" font-size="10.00">scram::mef::WeibullExpression</text>
<text text-anchor="middle" x="276" y="-105.5" font-family="Helvetica,sans-Serif" font-size="10.00">::Validate</text>
</a>
</g>
</g>
<!-- Node1&#45;&gt;Node13 -->
<g id="edge12" class="edge"><title>Node1&#45;&gt;Node13</title>
<path fill="none" stroke="midnightblue" d="M77.5541,-313.817C88.7587,-274.257 119.523,-184.931 179,-138.5 185.109,-133.731 192.037,-129.866 199.306,-126.735"/>
<polygon fill="midnightblue" stroke="midnightblue" points="74.1464,-313.01 74.9049,-323.578 80.9021,-314.844 74.1464,-313.01"/>
</g>
<!-- Node14 -->
<g id="node14" class="node"><title>Node14</title>
<g id="a_node14"><a xlink:href="classscram_1_1mef_1_1GammaDeviate.xhtml#a4e6270b70787e8ab6f58c605ddebf674" target="_top" xlink:title="scram::mef::GammaDeviate\l::Validate">
<polygon fill="white" stroke="black" points="206,-49.5 206,-79.5 346,-79.5 346,-49.5 206,-49.5"/>
<text text-anchor="start" x="214" y="-67.5" font-family="Helvetica,sans-Serif" font-size="10.00">scram::mef::GammaDeviate</text>
<text text-anchor="middle" x="276" y="-56.5" font-family="Helvetica,sans-Serif" font-size="10.00">::Validate</text>
</a>
</g>
</g>
<!-- Node1&#45;&gt;Node14 -->
<g id="edge13" class="edge"><title>Node1&#45;&gt;Node14</title>
<path fill="none" stroke="midnightblue" d="M75.206,-313.825C82.6639,-267.373 107.901,-150.242 179,-89.5 186.726,-82.8997 195.99,-78.0138 205.672,-74.4026"/>
<polygon fill="midnightblue" stroke="midnightblue" points="71.7316,-313.394 73.7081,-323.803 78.654,-314.433 71.7316,-313.394"/>
</g>
<!-- Node15 -->
<g id="node15" class="node"><title>Node15</title>
<g id="a_node15"><a xlink:href="classscram_1_1mef_1_1BetaDeviate.xhtml#aa65f2fd1412e180085e80bbcbace562b" target="_top" xlink:title="scram::mef::BetaDeviate\l::Validate">
<polygon fill="white" stroke="black" points="213,-0.5 213,-30.5 339,-30.5 339,-0.5 213,-0.5"/>
<text text-anchor="start" x="221" y="-18.5" font-family="Helvetica,sans-Serif" font-size="10.00">scram::mef::BetaDeviate</text>
<text text-anchor="middle" x="276" y="-7.5" font-family="Helvetica,sans-Serif" font-size="10.00">::Validate</text>
</a>
</g>
</g>
<!-- Node1&#45;&gt;Node15 -->
<g id="edge14" class="edge"><title>Node1&#45;&gt;Node15</title>
<path fill="none" stroke="midnightblue" d="M73.5886,-313.916C77.5993,-261.348 96.0319,-116.023 179,-40.5 188.425,-31.9209 200.422,-26.2127 212.718,-22.4324"/>
<polygon fill="midnightblue" stroke="midnightblue" points="70.0943,-313.714 72.9188,-323.926 77.0787,-314.182 70.0943,-313.714"/>
</g>
</g>
</svg>
        <g id="navigator" transform="translate(0 0)" fill="#404254">
                <rect fill="#f2f5e9" fill-opacity="0.5" stroke="#606060" stroke-width=".5" x="0" y="0" width="60" height="60"/>
                <use id="zoomplus" xlink:href="#zoomPlus" x="17" y="9" onmousedown="handleZoom(evt,'in')"/>
                <use id="zoomminus" xlink:href="#zoomMin" x="42" y="9" onmousedown="handleZoom(evt,'out')"/>
                <use id="reset" xlink:href="#resetDef" x="30" y="36" onmousedown="handleReset()"/>
                <g id="arrowUp" xlink:href="#dirArrow" transform="translate(30 24)" onmousedown="handlePan(0,-1)">
                  <use xlink:href="#rim" fill="#404040">
                        <set attributeName="fill" to="#808080" begin="arrowUp.mouseover" end="arrowUp.mouseout"/>
                  </use>
                  <path fill="none" stroke="white" stroke-width="1.5" d="M0,-3.0v7 M-2.5,-0.5L0,-3.0L2.5,-0.5"/>
                </g>
                <g id="arrowRight" xlink:href="#dirArrow" transform="rotate(90) translate(36 -43)" onmousedown="handlePan(1,0)">
                  <use xlink:href="#rim" fill="#404040">
                        <set attributeName="fill" to="#808080" begin="arrowRight.mouseover" end="arrowRight.mouseout"/>
                  </use>
                  <path fill="none" stroke="white" stroke-width="1.5" d="M0,-3.0v7 M-2.5,-0.5L0,-3.0L2.5,-0.5"/>
                </g>
                <g id="arrowDown" xlink:href="#dirArrow" transform="rotate(180) translate(-30 -48)" onmousedown="handlePan(0,1)">
                  <use xlink:href="#rim" fill="#404040">
                        <set attributeName="fill" to="#808080" begin="arrowDown.mouseover" end="arrowDown.mouseout"/>
                  </use>
                  <path fill="none" stroke="white" stroke-width="1.5" d="M0,-3.0v7 M-2.5,-0.5L0,-3.0L2.5,-0.5"/>
                </g>
                <g id="arrowLeft" xlink:href="#dirArrow" transform="rotate(270) translate(-36 17)" onmousedown="handlePan(-1,0)">
                  <use xlink:href="#rim" fill="#404040">
                        <set attributeName="fill" to="#808080" begin="arrowLeft.mouseover" end="arrowLeft.mouseout"/>
                  </use>
                  <path fill="none" stroke="white" stroke-width="1.5" d="M0,-3.0v7 M-2.5,-0.5L0,-3.0L2.5,-0.5"/>
                </g>
        </g>
        <svg viewBox="0 0 15 15" width="100%" height="30px" preserveAspectRatio="xMaxYMin meet">
         <g id="arrow_out" transform="scale(0.3 0.3)">
          <a xlink:href="classscram_1_1mef_1_1Expression_a9601745b7f61ec67c8074a4043367152_icgraph_org.svg" target="_base">
           <rect id="button" ry="5" rx="5" y="6" x="6" height="38" width="38"
                fill="#f2f5e9" fill-opacity="0.5" stroke="#606060" stroke-width="1.0"/>
           <path id="arrow"
             d="M 11.500037,31.436501 C 11.940474,20.09759 22.043105,11.32322 32.158766,21.979434 L 37.068811,17.246167 C 37.068811,17.246167 37.088388,32 37.088388,32 L 22.160133,31.978069 C 22.160133,31.978069 26.997745,27.140456 26.997745,27.140456 C 18.528582,18.264221 13.291696,25.230495 11.500037,31.436501 z"
             style="fill:#404040;"/>
          </a>
         </g>
        </svg>
</svg>
