<?xml version="1.0" encoding="UTF-8" standalone="no"?>
<!DOCTYPE svg PUBLIC "-//W3C//DTD SVG 1.1//EN"
 "http://www.w3.org/Graphics/SVG/1.1/DTD/svg11.dtd">
<!-- Generated by graphviz version 2.38.0 (20140413.2041)
 -->
<!-- Title: scram::core::Zbdd::root Pages: 1 -->
<svg width="344pt" height="306pt"
 viewBox="0.00 0.00 344.00 305.50" xmlns="http://www.w3.org/2000/svg" xmlns:xlink="http://www.w3.org/1999/xlink">
<g id="graph0" class="graph" transform="scale(1 1) rotate(0) translate(4 301.5)">
<title>scram::core::Zbdd::root</title>
<polygon fill="white" stroke="none" points="-4,4 -4,-301.5 340,-301.5 340,4 -4,4"/>
<!-- Node1 -->
<g id="node1" class="node"><title>Node1</title>
<polygon fill="#bfbfbf" stroke="black" points="0,-128 0,-147 119,-147 119,-128 0,-128"/>
<text text-anchor="middle" x="59.5" y="-135" font-family="Helvetica,sans-Serif" font-size="10.00">scram::core::Zbdd::root</text>
</g>
<!-- Node2 -->
<g id="node2" class="node"><title>Node2</title>
<g id="a_node2"><a xlink:href="classscram_1_1core_1_1zbdd_1_1CutSetContainer.xhtml#a49532388bd9b917f4351f94f728518aa" target="_top" xlink:title="Eliminates all complements from cut sets. ">
<polygon fill="white" stroke="black" points="177.5,-256 177.5,-297 313.5,-297 313.5,-256 177.5,-256"/>
<text text-anchor="start" x="185.5" y="-285" font-family="Helvetica,sans-Serif" font-size="10.00">scram::core::zbdd::</text>
<text text-anchor="start" x="185.5" y="-274" font-family="Helvetica,sans-Serif" font-size="10.00">CutSetContainer::Eliminate</text>
<text text-anchor="middle" x="245.5" y="-263" font-family="Helvetica,sans-Serif" font-size="10.00">Complements</text>
</a>
</g>
</g>
<!-- Node1&#45;&gt;Node2 -->
<g id="edge1" class="edge"><title>Node1&#45;&gt;Node2</title>
<path fill="none" stroke="midnightblue" d="M71.773,-155.728C87.554,-179.807 118.438,-222.021 155,-246.5 161.809,-251.059 169.372,-254.981 177.135,-258.342"/>
<polygon fill="midnightblue" stroke="midnightblue" points="74.6443,-153.721 66.309,-147.181 68.7466,-157.492 74.6443,-153.721"/>
</g>
<!-- Node3 -->
<g id="node3" class="node"><title>Node3</title>
<g id="a_node3"><a xlink:href="classscram_1_1core_1_1zbdd_1_1CutSetContainer.xhtml#aa0848a768a2bcf4b22618e676a8bbaeb" target="_top" xlink:title="Extracts (removes!) intermediate cut sets containing a node with a given index. ">
<polygon fill="white" stroke="black" points="155,-196 155,-237 336,-237 336,-196 155,-196"/>
<text text-anchor="start" x="163" y="-225" font-family="Helvetica,sans-Serif" font-size="10.00">scram::core::zbdd::</text>
<text text-anchor="start" x="163" y="-214" font-family="Helvetica,sans-Serif" font-size="10.00">CutSetContainer::ExtractIntermediate</text>
<text text-anchor="middle" x="245.5" y="-203" font-family="Helvetica,sans-Serif" font-size="10.00">CutSets</text>
</a>
</g>
</g>
<!-- Node1&#45;&gt;Node3 -->
<g id="edge2" class="edge"><title>Node1&#45;&gt;Node3</title>
<path fill="none" stroke="midnightblue" d="M85.2463,-152.115C103.982,-162.801 130.576,-177.174 155,-187.5 161.92,-190.426 169.243,-193.237 176.601,-195.879"/>
<polygon fill="midnightblue" stroke="midnightblue" points="86.8821,-149.018 76.4714,-147.051 83.3834,-155.081 86.8821,-149.018"/>
</g>
<!-- Node4 -->
<g id="node4" class="node"><title>Node4</title>
<g id="a_node4"><a xlink:href="classscram_1_1core_1_1zbdd_1_1CutSetContainer.xhtml#a478c89f64731781882b50ec55898900b" target="_top" xlink:title="Gathers all module indices in the cut sets. ">
<polygon fill="white" stroke="black" points="165,-147.5 165,-177.5 326,-177.5 326,-147.5 165,-147.5"/>
<text text-anchor="start" x="173" y="-165.5" font-family="Helvetica,sans-Serif" font-size="10.00">scram::core::zbdd::</text>
<text text-anchor="middle" x="245.5" y="-154.5" font-family="Helvetica,sans-Serif" font-size="10.00">CutSetContainer::GatherModules</text>
</a>
</g>
</g>
<!-- Node1&#45;&gt;Node4 -->
<g id="edge3" class="edge"><title>Node1&#45;&gt;Node4</title>
<path fill="none" stroke="midnightblue" d="M129.266,-146.843C140.87,-148.42 153.002,-150.068 164.855,-151.679"/>
<polygon fill="midnightblue" stroke="midnightblue" points="129.605,-143.357 119.225,-145.479 128.662,-150.293 129.605,-143.357"/>
</g>
<!-- Node5 -->
<g id="node5" class="node"><title>Node5</title>
<g id="a_node5"><a xlink:href="classscram_1_1core_1_1zbdd_1_1CutSetContainer.xhtml#a9f6c0cef12a80aefbfb357022d558053" target="_top" xlink:title="Finds a gate in intermediate cut sets. ">
<polygon fill="white" stroke="black" points="169,-98.5 169,-128.5 322,-128.5 322,-98.5 169,-98.5"/>
<text text-anchor="start" x="177" y="-116.5" font-family="Helvetica,sans-Serif" font-size="10.00">scram::core::zbdd::</text>
<text text-anchor="middle" x="245.5" y="-105.5" font-family="Helvetica,sans-Serif" font-size="10.00">CutSetContainer::GetNextGate</text>
</a>
</g>
</g>
<!-- Node1&#45;&gt;Node5 -->
<g id="edge4" class="edge"><title>Node1&#45;&gt;Node5</title>
<path fill="none" stroke="midnightblue" d="M129.388,-128.515C142.26,-126.836 155.778,-125.072 168.841,-123.369"/>
<polygon fill="midnightblue" stroke="midnightblue" points="128.688,-125.076 119.225,-129.84 129.593,-132.017 128.688,-125.076"/>
</g>
<!-- Node6 -->
<g id="node6" class="node"><title>Node6</title>
<g id="a_node6"><a xlink:href="classscram_1_1core_1_1zbdd_1_1CutSetContainer.xhtml#a87489caef0ebb8e4b62c600455da84a2" target="_top" xlink:title="Merges a set of cut sets into the main container. ">
<polygon fill="white" stroke="black" points="184.5,-49.5 184.5,-79.5 306.5,-79.5 306.5,-49.5 184.5,-49.5"/>
<text text-anchor="start" x="192.5" y="-67.5" font-family="Helvetica,sans-Serif" font-size="10.00">scram::core::zbdd::</text>
<text text-anchor="middle" x="245.5" y="-56.5" font-family="Helvetica,sans-Serif" font-size="10.00">CutSetContainer::Merge</text>
</a>
</g>
</g>
<!-- Node1&#45;&gt;Node6 -->
<g id="edge5" class="edge"><title>Node1&#45;&gt;Node6</title>
<path fill="none" stroke="midnightblue" d="M85.5396,-123.062C104.234,-112.711 130.648,-98.9783 155,-89.5 164.321,-85.8719 174.377,-82.5349 184.265,-79.5606"/>
<polygon fill="midnightblue" stroke="midnightblue" points="83.7802,-120.036 76.7723,-127.982 87.2058,-126.14 83.7802,-120.036"/>
</g>
<!-- Node7 -->
<g id="node7" class="node"><title>Node7</title>
<g id="a_node7"><a xlink:href="classscram_1_1core_1_1zbdd_1_1CutSetContainer.xhtml#a1648d3f24a95302fac2a40e95f743dda" target="_top" xlink:title="Minimizes cut sets in the container. ">
<polygon fill="white" stroke="black" points="178.5,-0.5 178.5,-30.5 312.5,-30.5 312.5,-0.5 178.5,-0.5"/>
<text text-anchor="start" x="186.5" y="-18.5" font-family="Helvetica,sans-Serif" font-size="10.00">scram::core::zbdd::</text>
<text text-anchor="middle" x="245.5" y="-7.5" font-family="Helvetica,sans-Serif" font-size="10.00">CutSetContainer::Minimize</text>
</a>
</g>
</g>
<!-- Node1&#45;&gt;Node7 -->
<g id="edge6" class="edge"><title>Node1&#45;&gt;Node7</title>
<path fill="none" stroke="midnightblue" d="M73.0367,-119.788C89.4223,-97.9404 120.167,-61.1637 155,-40.5 162.215,-36.2198 170.192,-32.647 178.323,-29.6707"/>
<polygon fill="midnightblue" stroke="midnightblue" points="70.1908,-117.75 67.1086,-127.887 75.8393,-121.885 70.1908,-117.75"/>
</g>
</g>
</svg>
