<?xml version="1.0" encoding="UTF-8" standalone="no"?>
<!DOCTYPE svg PUBLIC "-//W3C//DTD SVG 1.1//EN"
 "http://www.w3.org/Graphics/SVG/1.1/DTD/svg11.dtd">
<!-- Generated by graphviz version 2.38.0 (20140413.2041)
 -->
<!-- Title: scram::core::Preprocessor::NormalizeGates Pages: 1 -->
<svg width="1237pt" height="196pt"
 viewBox="0.00 0.00 1237.00 196.00" xmlns="http://www.w3.org/2000/svg" xmlns:xlink="http://www.w3.org/1999/xlink">
<g id="graph0" class="graph" transform="scale(1 1) rotate(0) translate(4 192)">
<title>scram::core::Preprocessor::NormalizeGates</title>
<polygon fill="white" stroke="none" points="-4,4 -4,-192 1233,-192 1233,4 -4,4"/>
<!-- Node1 -->
<g id="node1" class="node"><title>Node1</title>
<polygon fill="#bfbfbf" stroke="black" points="0,-76.5 0,-106.5 132,-106.5 132,-76.5 0,-76.5"/>
<text text-anchor="start" x="8" y="-94.5" font-family="Helvetica,sans-Serif" font-size="10.00">scram::core::Preprocessor</text>
<text text-anchor="middle" x="66" y="-83.5" font-family="Helvetica,sans-Serif" font-size="10.00">::NormalizeGates</text>
</g>
<!-- Node2 -->
<g id="node2" class="node"><title>Node2</title>
<g id="a_node2"><a xlink:href="classscram_1_1core_1_1Preprocessor.xhtml#a44f820b6fe2c23594c818432b33e26a6" target="_top" xlink:title="Container of unique gates by semantics. ">
<polygon fill="white" stroke="black" points="168,-101.5 168,-131.5 300,-131.5 300,-101.5 168,-101.5"/>
<text text-anchor="start" x="176" y="-119.5" font-family="Helvetica,sans-Serif" font-size="10.00">scram::core::Preprocessor</text>
<text text-anchor="middle" x="234" y="-108.5" font-family="Helvetica,sans-Serif" font-size="10.00">::RunPhaseOne</text>
</a>
</g>
</g>
<!-- Node1&#45;&gt;Node2 -->
<g id="edge1" class="edge"><title>Node1&#45;&gt;Node2</title>
<path fill="none" stroke="midnightblue" d="M142.114,-102.812C150.681,-104.103 159.361,-105.41 167.784,-106.678"/>
<polygon fill="midnightblue" stroke="midnightblue" points="142.541,-99.3373 132.131,-101.309 141.498,-106.259 142.541,-99.3373"/>
</g>
<!-- Node11 -->
<g id="node11" class="node"><title>Node11</title>
<g id="a_node11"><a xlink:href="classscram_1_1core_1_1Preprocessor.xhtml#abf2c66723172a85b2ae87ef2a034cd1f" target="_top" xlink:title="Application of gate normalization. ">
<polygon fill="white" stroke="black" points="168,-52.5 168,-82.5 300,-82.5 300,-52.5 168,-52.5"/>
<text text-anchor="start" x="176" y="-70.5" font-family="Helvetica,sans-Serif" font-size="10.00">scram::core::Preprocessor</text>
<text text-anchor="middle" x="234" y="-59.5" font-family="Helvetica,sans-Serif" font-size="10.00">::RunPhaseThree</text>
</a>
</g>
</g>
<!-- Node1&#45;&gt;Node11 -->
<g id="edge10" class="edge"><title>Node1&#45;&gt;Node11</title>
<path fill="none" stroke="midnightblue" d="M142.114,-80.6402C150.681,-79.4016 159.361,-78.1466 167.784,-76.9288"/>
<polygon fill="midnightblue" stroke="midnightblue" points="141.527,-77.1885 132.131,-82.0834 142.529,-84.1164 141.527,-77.1885"/>
</g>
<!-- Node3 -->
<g id="node3" class="node"><title>Node3</title>
<g id="a_node3"><a xlink:href="classscram_1_1core_1_1Preprocessor.xhtml#a2b6705e815fa3d02119c405b483766d5" target="_top" xlink:title="Runs the default preprocessing that achieves the graph in a normal form. ">
<polygon fill="white" stroke="black" points="336,-82 336,-101 492,-101 492,-82 336,-82"/>
<text text-anchor="middle" x="414" y="-89" font-family="Helvetica,sans-Serif" font-size="10.00">scram::core::Preprocessor::Run</text>
</a>
</g>
</g>
<!-- Node2&#45;&gt;Node3 -->
<g id="edge2" class="edge"><title>Node2&#45;&gt;Node3</title>
<path fill="none" stroke="midnightblue" d="M310.132,-105.948C321.761,-104.314 333.713,-102.636 345.168,-101.027"/>
<polygon fill="midnightblue" stroke="midnightblue" points="309.434,-102.511 300.018,-107.368 310.407,-109.443 309.434,-102.511"/>
</g>
<!-- Node4 -->
<g id="node4" class="node"><title>Node4</title>
<g id="a_node4"><a xlink:href="classscram_1_1core_1_1FaultTreeAnalyzer.xhtml#af6d3e735d4200c3efed0164c58aabf57" target="_top" xlink:title="Runs fault tree analysis with the given algorithm. ">
<polygon fill="white" stroke="black" points="534.5,-157.5 534.5,-187.5 688.5,-187.5 688.5,-157.5 534.5,-157.5"/>
<text text-anchor="start" x="542.5" y="-175.5" font-family="Helvetica,sans-Serif" font-size="10.00">scram::core::FaultTreeAnalyzer</text>
<text text-anchor="middle" x="611.5" y="-164.5" font-family="Helvetica,sans-Serif" font-size="10.00">::Analyze</text>
</a>
</g>
</g>
<!-- Node3&#45;&gt;Node4 -->
<g id="edge3" class="edge"><title>Node3&#45;&gt;Node4</title>
<path fill="none" stroke="midnightblue" d="M440.688,-106.173C463.194,-118.609 497.052,-136.313 528,-148.5 536.189,-151.725 544.985,-154.738 553.674,-157.465"/>
<polygon fill="midnightblue" stroke="midnightblue" points="442.216,-103.018 431.779,-101.198 438.803,-109.129 442.216,-103.018"/>
</g>
<!-- Node8 -->
<g id="node8" class="node"><title>Node8</title>
<g id="a_node8"><a xlink:href="classscram_1_1core_1_1ProbabilityAnalyzer_3_01Bdd_01_4.xhtml#a517506c181102100cc6a3e96710813c6" target="_top" xlink:title="Calculates the total probability with a different set of probability values than the one given upon c...">
<polygon fill="white" stroke="black" points="532,-98 532,-139 691,-139 691,-98 532,-98"/>
<text text-anchor="start" x="540" y="-127" font-family="Helvetica,sans-Serif" font-size="10.00">scram::core::Probability</text>
<text text-anchor="start" x="540" y="-116" font-family="Helvetica,sans-Serif" font-size="10.00">Analyzer&lt; Bdd &gt;::CalculateTotal</text>
<text text-anchor="middle" x="611.5" y="-105" font-family="Helvetica,sans-Serif" font-size="10.00">Probability</text>
</a>
</g>
</g>
<!-- Node3&#45;&gt;Node8 -->
<g id="edge7" class="edge"><title>Node3&#45;&gt;Node8</title>
<path fill="none" stroke="midnightblue" d="M493.86,-102.391C506.383,-104.121 519.335,-105.909 531.853,-107.638"/>
<polygon fill="midnightblue" stroke="midnightblue" points="494.311,-98.9203 483.926,-101.019 493.353,-105.854 494.311,-98.9203"/>
</g>
<!-- Node9 -->
<g id="node9" class="node"><title>Node9</title>
<g id="a_node9"><a xlink:href="classscram_1_1core_1_1CustomPreprocessor_3_01Bdd_01_4.xhtml#a8cf4307236cd521e39a2c6feb21f3214" target="_top" xlink:title="Performs preprocessing for analyses with Binary Decision Diagrams. ">
<polygon fill="white" stroke="black" points="528,-49.5 528,-79.5 695,-79.5 695,-49.5 528,-49.5"/>
<text text-anchor="start" x="536" y="-67.5" font-family="Helvetica,sans-Serif" font-size="10.00">scram::core::CustomPreprocessor</text>
<text text-anchor="middle" x="611.5" y="-56.5" font-family="Helvetica,sans-Serif" font-size="10.00">&lt; Bdd &gt;::Run</text>
</a>
</g>
</g>
<!-- Node3&#45;&gt;Node9 -->
<g id="edge8" class="edge"><title>Node3&#45;&gt;Node9</title>
<path fill="none" stroke="midnightblue" d="M494.026,-80.5859C505.146,-79.0501 516.602,-77.468 527.789,-75.9231"/>
<polygon fill="midnightblue" stroke="midnightblue" points="493.353,-77.1455 483.926,-81.9808 494.311,-84.0797 493.353,-77.1455"/>
</g>
<!-- Node10 -->
<g id="node10" class="node"><title>Node10</title>
<g id="a_node10"><a xlink:href="classscram_1_1core_1_1CustomPreprocessor_3_01Zbdd_01_4.xhtml#a5185075f852c647c7aa4313d23420ee5" target="_top" xlink:title="Performs preprocessing for analyses with Zero&#45;Suppressed Binary Decision Diagrams. ">
<polygon fill="white" stroke="black" points="528,-0.5 528,-30.5 695,-30.5 695,-0.5 528,-0.5"/>
<text text-anchor="start" x="536" y="-18.5" font-family="Helvetica,sans-Serif" font-size="10.00">scram::core::CustomPreprocessor</text>
<text text-anchor="middle" x="611.5" y="-7.5" font-family="Helvetica,sans-Serif" font-size="10.00">&lt; Zbdd &gt;::Run</text>
</a>
</g>
</g>
<!-- Node3&#45;&gt;Node10 -->
<g id="edge9" class="edge"><title>Node3&#45;&gt;Node10</title>
<path fill="none" stroke="midnightblue" d="M442.435,-77.4826C465.023,-66.2825 498.081,-50.6657 528,-39.5 536.525,-36.3185 545.671,-33.2906 554.659,-30.5236"/>
<polygon fill="midnightblue" stroke="midnightblue" points="440.811,-74.3811 433.435,-81.9863 443.944,-80.6411 440.811,-74.3811"/>
</g>
<!-- Node5 -->
<g id="node5" class="node"><title>Node5</title>
<g id="a_node5"><a xlink:href="classscram_1_1core_1_1RiskAnalysis.xhtml#a7aed757ac5a7a96878c2706a7a9710bb" target="_top" xlink:title="Analyzes the model and performs computations specified in the settings. ">
<polygon fill="white" stroke="black" points="731,-157.5 731,-187.5 863,-187.5 863,-157.5 731,-157.5"/>
<text text-anchor="start" x="739" y="-175.5" font-family="Helvetica,sans-Serif" font-size="10.00">scram::core::RiskAnalysis</text>
<text text-anchor="middle" x="797" y="-164.5" font-family="Helvetica,sans-Serif" font-size="10.00">::Analyze</text>
</a>
</g>
</g>
<!-- Node4&#45;&gt;Node5 -->
<g id="edge4" class="edge"><title>Node4&#45;&gt;Node5</title>
<path fill="none" stroke="midnightblue" d="M698.954,-172.5C709.672,-172.5 720.486,-172.5 730.81,-172.5"/>
<polygon fill="midnightblue" stroke="midnightblue" points="698.726,-169 688.726,-172.5 698.726,-176 698.726,-169"/>
</g>
<!-- Node6 -->
<g id="node6" class="node"><title>Node6</title>
<g id="a_node6"><a xlink:href="classscram_1_1core_1_1RiskAnalysis.xhtml#a337f7e9fe02b1581e872590d6f7baa01" target="_top" xlink:title="scram::core::RiskAnalysis\l::model">
<polygon fill="white" stroke="black" points="899,-157.5 899,-187.5 1031,-187.5 1031,-157.5 899,-157.5"/>
<text text-anchor="start" x="907" y="-175.5" font-family="Helvetica,sans-Serif" font-size="10.00">scram::core::RiskAnalysis</text>
<text text-anchor="middle" x="965" y="-164.5" font-family="Helvetica,sans-Serif" font-size="10.00">::model</text>
</a>
</g>
</g>
<!-- Node5&#45;&gt;Node6 -->
<g id="edge5" class="edge"><title>Node5&#45;&gt;Node6</title>
<path fill="none" stroke="midnightblue" d="M873.393,-172.5C881.869,-172.5 890.452,-172.5 898.784,-172.5"/>
<polygon fill="midnightblue" stroke="midnightblue" points="873.131,-169 863.131,-172.5 873.131,-176 873.131,-169"/>
</g>
<!-- Node7 -->
<g id="node7" class="node"><title>Node7</title>
<g id="a_node7"><a xlink:href="reporter_8cc.xhtml#ad6460094a94fb73e56c2a4a5efc598ed" target="_top" xlink:title="Describes all performed analyses deduced from settings. ">
<polygon fill="white" stroke="black" points="1067,-157.5 1067,-187.5 1229,-187.5 1229,-157.5 1067,-157.5"/>
<text text-anchor="start" x="1075" y="-175.5" font-family="Helvetica,sans-Serif" font-size="10.00">scram::ReportCalculatedQuantity</text>
<text text-anchor="middle" x="1148" y="-164.5" font-family="Helvetica,sans-Serif" font-size="10.00">&lt; core::RiskAnalysis &gt;</text>
</a>
</g>
</g>
<!-- Node6&#45;&gt;Node7 -->
<g id="edge6" class="edge"><title>Node6&#45;&gt;Node7</title>
<path fill="none" stroke="midnightblue" d="M1041.24,-172.5C1049.65,-172.5 1058.24,-172.5 1066.71,-172.5"/>
<polygon fill="midnightblue" stroke="midnightblue" points="1041.09,-169 1031.09,-172.5 1041.09,-176 1041.09,-169"/>
</g>
<!-- Node11&#45;&gt;Node3 -->
<g id="edge11" class="edge"><title>Node11&#45;&gt;Node3</title>
<path fill="none" stroke="midnightblue" d="M310.173,-77.6357C320.874,-79.0785 331.849,-80.5583 342.457,-81.9886"/>
<polygon fill="midnightblue" stroke="midnightblue" points="310.396,-74.1341 300.018,-76.2664 309.46,-81.0713 310.396,-74.1341"/>
</g>
</g>
</svg>
