<?xml version="1.0" encoding="UTF-8" standalone="no"?>
<!DOCTYPE svg PUBLIC "-//W3C//DTD SVG 1.1//EN"
 "http://www.w3.org/Graphics/SVG/1.1/DTD/svg11.dtd">
<!-- Generated by graphviz version 2.38.0 (20140413.2041)
 -->
<!-- Title: scram::core::CacheTable::reserve Pages: 1 -->
<svg width="304pt" height="66pt"
 viewBox="0.00 0.00 304.00 66.00" xmlns="http://www.w3.org/2000/svg" xmlns:xlink="http://www.w3.org/1999/xlink">
<g id="graph0" class="graph" transform="scale(1 1) rotate(0) translate(4 62)">
<title>scram::core::CacheTable::reserve</title>
<polygon fill="white" stroke="none" points="-4,4 -4,-62 300,-62 300,4 -4,4"/>
<!-- Node1 -->
<g id="node1" class="node"><title>Node1</title>
<polygon fill="#bfbfbf" stroke="black" points="0,-14 0,-44 127,-44 127,-14 0,-14"/>
<text text-anchor="start" x="8" y="-32" font-family="Helvetica,sans-Serif" font-size="10.00">scram::core::CacheTable</text>
<text text-anchor="middle" x="63.5" y="-21" font-family="Helvetica,sans-Serif" font-size="10.00">::reserve</text>
</g>
<!-- Node2 -->
<g id="node2" class="node"><title>Node2</title>
<g id="a_node2"><a xlink:href="classscram_1_1core_1_1Bdd.xhtml#ab9548d4c5f9afaa96dc24e17e2a01a57" target="_top" xlink:title="Runs the Qualitative analysis with the representation of a Boolean graph as ROBDD. ">
<polygon fill="white" stroke="black" points="163,-38.5 163,-57.5 296,-57.5 296,-38.5 163,-38.5"/>
<text text-anchor="middle" x="229.5" y="-45.5" font-family="Helvetica,sans-Serif" font-size="10.00">scram::core::Bdd::Analyze</text>
</a>
</g>
</g>
<!-- Node1&#45;&gt;Node2 -->
<g id="edge1" class="edge"><title>Node1&#45;&gt;Node2</title>
<path fill="none" stroke="midnightblue" d="M137.575,-37.466C145.956,-38.4369 154.463,-39.4225 162.74,-40.3815"/>
<polygon fill="midnightblue" stroke="midnightblue" points="137.774,-33.9657 127.438,-36.2916 136.968,-40.9192 137.774,-33.9657"/>
</g>
<!-- Node3 -->
<g id="node3" class="node"><title>Node3</title>
<g id="a_node3"><a xlink:href="classscram_1_1core_1_1Bdd.xhtml#a16eaf1b11082887e008e0c90cb39ceb3" target="_top" xlink:title="Constructor with the analysis target. ">
<polygon fill="white" stroke="black" points="172,-0.5 172,-19.5 287,-19.5 287,-0.5 172,-0.5"/>
<text text-anchor="middle" x="229.5" y="-7.5" font-family="Helvetica,sans-Serif" font-size="10.00">scram::core::Bdd::Bdd</text>
</a>
</g>
</g>
<!-- Node1&#45;&gt;Node3 -->
<g id="edge2" class="edge"><title>Node1&#45;&gt;Node3</title>
<path fill="none" stroke="midnightblue" d="M137.493,-20.5436C149.031,-19.2067 160.811,-17.842 171.903,-16.557"/>
<polygon fill="midnightblue" stroke="midnightblue" points="136.968,-17.0808 127.438,-21.7084 137.774,-24.0343 136.968,-17.0808"/>
</g>
</g>
</svg>
