<?xml version="1.0" encoding="UTF-8" standalone="no"?>
<!DOCTYPE svg PUBLIC "-//W3C//DTD SVG 1.1//EN"
 "http://www.w3.org/Graphics/SVG/1.1/DTD/svg11.dtd">
<!-- Generated by graphviz version 2.38.0 (20140413.2041)
 -->
<!-- Title: scram::core::Preprocessor Pages: 1 -->
<svg width="360pt" height="513pt"
 viewBox="0.00 0.00 360.00 513.00" xmlns="http://www.w3.org/2000/svg" xmlns:xlink="http://www.w3.org/1999/xlink">
<g id="graph0" class="graph" transform="scale(1 1) rotate(0) translate(4 509)">
<title>scram::core::Preprocessor</title>
<polygon fill="white" stroke="none" points="-4,4 -4,-509 356,-509 356,4 -4,4"/>
<!-- Node1 -->
<g id="node1" class="node"><title>Node1</title>
<polygon fill="#bfbfbf" stroke="black" points="109.5,-210.5 109.5,-410.5 241.5,-410.5 241.5,-210.5 109.5,-210.5"/>
<text text-anchor="middle" x="175.5" y="-398.5" font-family="Helvetica,sans-Serif" font-size="10.00">scram::core::Preprocessor</text>
<polyline fill="none" stroke="black" points="109.5,-391.5 241.5,-391.5 "/>
<text text-anchor="middle" x="175.5" y="-379.5" font-family="Helvetica,sans-Serif" font-size="10.00"> </text>
<polyline fill="none" stroke="black" points="109.5,-372.5 241.5,-372.5 "/>
<text text-anchor="start" x="117.5" y="-360.5" font-family="Helvetica,sans-Serif" font-size="10.00">+ Preprocessor()</text>
<text text-anchor="start" x="117.5" y="-349.5" font-family="Helvetica,sans-Serif" font-size="10.00">+ ~Preprocessor()</text>
<text text-anchor="start" x="117.5" y="-338.5" font-family="Helvetica,sans-Serif" font-size="10.00">+ Run()</text>
<text text-anchor="start" x="117.5" y="-327.5" font-family="Helvetica,sans-Serif" font-size="10.00"># RunPhaseOne()</text>
<text text-anchor="start" x="117.5" y="-316.5" font-family="Helvetica,sans-Serif" font-size="10.00"># RunPhaseTwo()</text>
<text text-anchor="start" x="117.5" y="-305.5" font-family="Helvetica,sans-Serif" font-size="10.00"># RunPhaseThree()</text>
<text text-anchor="start" x="117.5" y="-294.5" font-family="Helvetica,sans-Serif" font-size="10.00"># RunPhaseFour()</text>
<text text-anchor="start" x="117.5" y="-283.5" font-family="Helvetica,sans-Serif" font-size="10.00"># RunPhaseFive()</text>
<text text-anchor="start" x="117.5" y="-272.5" font-family="Helvetica,sans-Serif" font-size="10.00"># CheckRootGate()</text>
<text text-anchor="start" x="117.5" y="-261.5" font-family="Helvetica,sans-Serif" font-size="10.00"># RemoveNullGates()</text>
<text text-anchor="start" x="117.5" y="-250.5" font-family="Helvetica,sans-Serif" font-size="10.00"># RemoveConstants()</text>
<text text-anchor="start" x="117.5" y="-239.5" font-family="Helvetica,sans-Serif" font-size="10.00"># PropagateConstant()</text>
<text text-anchor="start" x="117.5" y="-228.5" font-family="Helvetica,sans-Serif" font-size="10.00"># PropagateConstant()</text>
<text text-anchor="start" x="117.5" y="-217.5" font-family="Helvetica,sans-Serif" font-size="10.00">and 61 more...</text>
</g>
<!-- Node3 -->
<g id="node3" class="node"><title>Node3</title>
<g id="a_node3"><a xlink:href="classscram_1_1core_1_1CustomPreprocessor_3_01Bdd_01_4.xhtml" target="_top" xlink:title="Specialization of preprocessing for BDD based analyses. ">
<polygon fill="white" stroke="black" points="0,-105.5 0,-173.5 167,-173.5 167,-105.5 0,-105.5"/>
<text text-anchor="start" x="8" y="-161.5" font-family="Helvetica,sans-Serif" font-size="10.00">scram::core::CustomPreprocessor</text>
<text text-anchor="middle" x="83.5" y="-150.5" font-family="Helvetica,sans-Serif" font-size="10.00">&lt; Bdd &gt;</text>
<polyline fill="none" stroke="black" points="0,-143.5 167,-143.5 "/>
<text text-anchor="middle" x="83.5" y="-131.5" font-family="Helvetica,sans-Serif" font-size="10.00"> </text>
<polyline fill="none" stroke="black" points="0,-124.5 167,-124.5 "/>
<text text-anchor="start" x="8" y="-112.5" font-family="Helvetica,sans-Serif" font-size="10.00">+ Run()</text>
</a>
</g>
</g>
<!-- Node1&#45;&gt;Node3 -->
<g id="edge2" class="edge"><title>Node1&#45;&gt;Node3</title>
<path fill="none" stroke="midnightblue" d="M116.662,-201.417C111.277,-191.526 106.148,-182.103 101.602,-173.753"/>
<polygon fill="none" stroke="midnightblue" points="113.596,-203.105 121.451,-210.214 119.744,-199.758 113.596,-203.105"/>
</g>
<!-- Node4 -->
<g id="node4" class="node"><title>Node4</title>
<g id="a_node4"><a xlink:href="classscram_1_1core_1_1CustomPreprocessor_3_01Zbdd_01_4.xhtml" target="_top" xlink:title="Specialization of preprocessing for ZBDD based analyses. ">
<polygon fill="white" stroke="black" points="185,-105.5 185,-173.5 352,-173.5 352,-105.5 185,-105.5"/>
<text text-anchor="start" x="193" y="-161.5" font-family="Helvetica,sans-Serif" font-size="10.00">scram::core::CustomPreprocessor</text>
<text text-anchor="middle" x="268.5" y="-150.5" font-family="Helvetica,sans-Serif" font-size="10.00">&lt; Zbdd &gt;</text>
<polyline fill="none" stroke="black" points="185,-143.5 352,-143.5 "/>
<text text-anchor="middle" x="268.5" y="-131.5" font-family="Helvetica,sans-Serif" font-size="10.00"> </text>
<polyline fill="none" stroke="black" points="185,-124.5 352,-124.5 "/>
<text text-anchor="start" x="193" y="-112.5" font-family="Helvetica,sans-Serif" font-size="10.00">+ Run()</text>
</a>
</g>
</g>
<!-- Node1&#45;&gt;Node4 -->
<g id="edge3" class="edge"><title>Node1&#45;&gt;Node4</title>
<path fill="none" stroke="midnightblue" d="M234.978,-201.417C240.421,-191.526 245.606,-182.103 250.201,-173.753"/>
<polygon fill="none" stroke="midnightblue" points="231.891,-199.766 230.136,-210.214 238.024,-203.141 231.891,-199.766"/>
</g>
<!-- Node2 -->
<g id="node2" class="node"><title>Node2</title>
<polygon fill="white" stroke="#bfbfbf" points="140,-447.5 140,-504.5 211,-504.5 211,-447.5 140,-447.5"/>
<text text-anchor="middle" x="175.5" y="-492.5" font-family="Helvetica,sans-Serif" font-size="10.00">noncopyable</text>
<polyline fill="none" stroke="#bfbfbf" points="140,-485.5 211,-485.5 "/>
<text text-anchor="middle" x="175.5" y="-473.5" font-family="Helvetica,sans-Serif" font-size="10.00"> </text>
<polyline fill="none" stroke="#bfbfbf" points="140,-466.5 211,-466.5 "/>
<text text-anchor="middle" x="175.5" y="-454.5" font-family="Helvetica,sans-Serif" font-size="10.00"> </text>
</g>
<!-- Node2&#45;&gt;Node1 -->
<g id="edge1" class="edge"><title>Node2&#45;&gt;Node1</title>
<path fill="none" stroke="#8b1a1a" d="M175.5,-437.04C175.5,-428.867 175.5,-419.865 175.5,-410.549"/>
<polygon fill="none" stroke="#8b1a1a" points="172,-437.264 175.5,-447.264 179,-437.264 172,-437.264"/>
</g>
<!-- Node5 -->
<g id="node5" class="node"><title>Node5</title>
<g id="a_node5"><a xlink:href="classscram_1_1core_1_1CustomPreprocessor_3_01Mocus_01_4.xhtml" target="_top" xlink:title="Specialization of preprocessing for MOCUS based analyses. ">
<polygon fill="white" stroke="black" points="185,-0.5 185,-68.5 352,-68.5 352,-0.5 185,-0.5"/>
<text text-anchor="start" x="193" y="-56.5" font-family="Helvetica,sans-Serif" font-size="10.00">scram::core::CustomPreprocessor</text>
<text text-anchor="middle" x="268.5" y="-45.5" font-family="Helvetica,sans-Serif" font-size="10.00">&lt; Mocus &gt;</text>
<polyline fill="none" stroke="black" points="185,-38.5 352,-38.5 "/>
<text text-anchor="middle" x="268.5" y="-26.5" font-family="Helvetica,sans-Serif" font-size="10.00"> </text>
<polyline fill="none" stroke="black" points="185,-19.5 352,-19.5 "/>
<text text-anchor="start" x="193" y="-7.5" font-family="Helvetica,sans-Serif" font-size="10.00">+ Run()</text>
</a>
</g>
</g>
<!-- Node4&#45;&gt;Node5 -->
<g id="edge4" class="edge"><title>Node4&#45;&gt;Node5</title>
<path fill="none" stroke="midnightblue" d="M268.5,-95.1362C268.5,-86.256 268.5,-77.0447 268.5,-68.5947"/>
<polygon fill="none" stroke="midnightblue" points="265,-95.3432 268.5,-105.343 272,-95.3432 265,-95.3432"/>
</g>
</g>
</svg>
