<?xml version="1.0" encoding="UTF-8" standalone="no"?>
<!DOCTYPE svg PUBLIC "-//W3C//DTD SVG 1.1//EN"
 "http://www.w3.org/Graphics/SVG/1.1/DTD/svg11.dtd">
<!-- Generated by graphviz version 2.38.0 (20140413.2041)
 -->
<!-- Title: scram::core::Preprocessor::PropagateConstant Pages: 1 -->
<svg width="476pt" height="61pt"
 viewBox="0.00 0.00 476.00 61.00" xmlns="http://www.w3.org/2000/svg" xmlns:xlink="http://www.w3.org/1999/xlink">
<g id="graph0" class="graph" transform="scale(1 1) rotate(0) translate(4 57)">
<title>scram::core::Preprocessor::PropagateConstant</title>
<polygon fill="white" stroke="none" points="-4,4 -4,-57 472,-57 472,4 -4,4"/>
<!-- Node1 -->
<g id="node1" class="node"><title>Node1</title>
<polygon fill="#bfbfbf" stroke="black" points="0,-0.5 0,-30.5 132,-30.5 132,-0.5 0,-0.5"/>
<text text-anchor="start" x="8" y="-18.5" font-family="Helvetica,sans-Serif" font-size="10.00">scram::core::Preprocessor</text>
<text text-anchor="middle" x="66" y="-7.5" font-family="Helvetica,sans-Serif" font-size="10.00">::PropagateConstant</text>
</g>
<!-- Node2 -->
<g id="node2" class="node"><title>Node2</title>
<g id="a_node2"><a xlink:href="classscram_1_1core_1_1Preprocessor.xhtml#a4931fe17580d91b31d8c2077f64dc728" target="_top" xlink:title="Propagates a Boolean constant bottom&#45;up. ">
<polygon fill="white" stroke="black" points="168,-22.5 168,-52.5 300,-52.5 300,-22.5 168,-22.5"/>
<text text-anchor="start" x="176" y="-40.5" font-family="Helvetica,sans-Serif" font-size="10.00">scram::core::Preprocessor</text>
<text text-anchor="middle" x="234" y="-29.5" font-family="Helvetica,sans-Serif" font-size="10.00">::PropagateConstant</text>
</a>
</g>
</g>
<!-- Node1&#45;&gt;Node2 -->
<g id="edge1" class="edge"><title>Node1&#45;&gt;Node2</title>
<path fill="none" stroke="midnightblue" d="M132.131,-24.1318C140.553,-25.248 149.232,-26.3983 157.8,-27.5337"/>
<polygon fill="midnightblue" stroke="midnightblue" points="157.411,-31.0127 167.784,-28.8569 158.331,-24.0734 157.411,-31.0127"/>
</g>
<!-- Node3 -->
<g id="node3" class="node"><title>Node3</title>
<g id="a_node3"><a xlink:href="classscram_1_1core_1_1Preprocessor.xhtml#a860e7142f3e0b33ca799f1d8218eb091" target="_top" xlink:title="Propagate NULL type gates bottom&#45;up. ">
<polygon fill="white" stroke="black" points="336,-22.5 336,-52.5 468,-52.5 468,-22.5 336,-22.5"/>
<text text-anchor="start" x="344" y="-40.5" font-family="Helvetica,sans-Serif" font-size="10.00">scram::core::Preprocessor</text>
<text text-anchor="middle" x="402" y="-29.5" font-family="Helvetica,sans-Serif" font-size="10.00">::PropagateNullGate</text>
</a>
</g>
</g>
<!-- Node1&#45;&gt;Node3 -->
<g id="edge4" class="edge"><title>Node1&#45;&gt;Node3</title>
<path fill="none" stroke="midnightblue" d="M132.017,-10.6065C178.88,-8.13356 243.55,-6.88516 300,-13.5 312.43,-14.9565 325.547,-17.3886 338.065,-20.1599"/>
<polygon fill="midnightblue" stroke="midnightblue" points="337.42,-23.6029 347.951,-22.443 338.995,-16.7824 337.42,-23.6029"/>
</g>
<!-- Node2&#45;&gt;Node3 -->
<g id="edge2" class="edge"><title>Node2&#45;&gt;Node3</title>
<path fill="none" stroke="midnightblue" d="M300.131,-30.891C308.461,-30.7577 317.044,-30.7189 325.521,-30.7747"/>
<polygon fill="midnightblue" stroke="midnightblue" points="325.746,-34.2773 335.784,-30.8897 325.824,-27.2778 325.746,-34.2773"/>
</g>
<!-- Node3&#45;&gt;Node2 -->
<g id="edge3" class="edge"><title>Node3&#45;&gt;Node2</title>
<path fill="none" stroke="midnightblue" d="M335.784,-44.1103C327.452,-44.243 318.869,-44.2812 310.393,-44.2247"/>
<polygon fill="midnightblue" stroke="midnightblue" points="310.17,-40.7221 300.131,-44.109 310.091,-47.7216 310.17,-40.7221"/>
</g>
</g>
</svg>
