<?xml version="1.0" encoding="UTF-8" standalone="no"?>
<!DOCTYPE svg PUBLIC "-//W3C//DTD SVG 1.1//EN"
 "http://www.w3.org/Graphics/SVG/1.1/DTD/svg11.dtd">
<!-- Generated by graphviz version 2.38.0 (20140413.2041)
 -->
<!-- Title: scram::core::Preprocessor::ProcessMultipleDefinitions Pages: 1 -->
<svg width="651pt" height="179pt"
 viewBox="0.00 0.00 651.00 179.00" xmlns="http://www.w3.org/2000/svg" xmlns:xlink="http://www.w3.org/1999/xlink">
<g id="graph0" class="graph" transform="scale(1 1) rotate(0) translate(4 175)">
<title>scram::core::Preprocessor::ProcessMultipleDefinitions</title>
<polygon fill="white" stroke="none" points="-4,4 -4,-175 647,-175 647,4 -4,4"/>
<!-- Node1 -->
<g id="node1" class="node"><title>Node1</title>
<polygon fill="#bfbfbf" stroke="black" points="0,-71.5 0,-101.5 139,-101.5 139,-71.5 0,-71.5"/>
<text text-anchor="start" x="8" y="-89.5" font-family="Helvetica,sans-Serif" font-size="10.00">scram::core::Preprocessor</text>
<text text-anchor="middle" x="69.5" y="-78.5" font-family="Helvetica,sans-Serif" font-size="10.00">::ProcessMultipleDefinitions</text>
</g>
<!-- Node2 -->
<g id="node2" class="node"><title>Node2</title>
<g id="a_node2"><a xlink:href="classscram_1_1core_1_1Preprocessor.xhtml#ac3279b95fc83a2ae909c011de083d57e" target="_top" xlink:title="Clears all constant gates registered for removal by algorithms or other preprocessing functions...">
<polygon fill="white" stroke="black" points="175,-138.5 175,-168.5 307,-168.5 307,-138.5 175,-138.5"/>
<text text-anchor="start" x="183" y="-156.5" font-family="Helvetica,sans-Serif" font-size="10.00">scram::core::Preprocessor</text>
<text text-anchor="middle" x="241" y="-145.5" font-family="Helvetica,sans-Serif" font-size="10.00">::ClearConstGates</text>
</a>
</g>
</g>
<!-- Node1&#45;&gt;Node2 -->
<g id="edge1" class="edge"><title>Node1&#45;&gt;Node2</title>
<path fill="none" stroke="midnightblue" d="M108.539,-101.536C133.314,-111.329 165.834,-124.184 192.331,-134.657"/>
<polygon fill="midnightblue" stroke="midnightblue" points="191.209,-137.977 201.795,-138.398 193.782,-131.467 191.209,-137.977"/>
</g>
<!-- Node5 -->
<g id="node5" class="node"><title>Node5</title>
<g id="a_node5"><a xlink:href="classscram_1_1core_1_1Preprocessor.xhtml#ae483f228040c0d2422792c9cf0d05886" target="_top" xlink:title="Clears all NULL type gates registered for removal by algorithms or other preprocessing functions...">
<polygon fill="white" stroke="black" points="343,-91.5 343,-121.5 475,-121.5 475,-91.5 343,-91.5"/>
<text text-anchor="start" x="351" y="-109.5" font-family="Helvetica,sans-Serif" font-size="10.00">scram::core::Preprocessor</text>
<text text-anchor="middle" x="409" y="-98.5" font-family="Helvetica,sans-Serif" font-size="10.00">::ClearNullGates</text>
</a>
</g>
</g>
<!-- Node1&#45;&gt;Node5 -->
<g id="edge5" class="edge"><title>Node1&#45;&gt;Node5</title>
<path fill="none" stroke="midnightblue" d="M139.205,-90.5714C195.387,-93.9007 274.723,-98.6021 332.638,-102.034"/>
<polygon fill="midnightblue" stroke="midnightblue" points="332.639,-105.54 342.829,-102.638 333.054,-98.5525 332.639,-105.54"/>
</g>
<!-- Node6 -->
<g id="node6" class="node"><title>Node6</title>
<g id="a_node6"><a xlink:href="classscram_1_1core_1_1Preprocessor.xhtml#ae0bdf196274427420631bc20f95cb72a" target="_top" xlink:title="Traverses the Boolean graph to collect multiple definitions of gates. ">
<polygon fill="white" stroke="black" points="175,-49.5 175,-79.5 307,-79.5 307,-49.5 175,-49.5"/>
<text text-anchor="start" x="183" y="-67.5" font-family="Helvetica,sans-Serif" font-size="10.00">scram::core::Preprocessor</text>
<text text-anchor="middle" x="241" y="-56.5" font-family="Helvetica,sans-Serif" font-size="10.00">::DetectMultipleDefinitions</text>
</a>
</g>
</g>
<!-- Node1&#45;&gt;Node6 -->
<g id="edge7" class="edge"><title>Node1&#45;&gt;Node6</title>
<path fill="none" stroke="midnightblue" d="M139.442,-77.5518C147.783,-76.4692 156.335,-75.3592 164.76,-74.2656"/>
<polygon fill="midnightblue" stroke="midnightblue" points="165.485,-77.701 174.952,-72.9429 164.584,-70.7592 165.485,-77.701"/>
</g>
<!-- Node7 -->
<g id="node7" class="node"><title>Node7</title>
<g id="a_node7"><a xlink:href="classscram_1_1core_1_1Preprocessor.xhtml#a26434bec1bc5a496f80c9cbad1ed3a62" target="_top" xlink:title="Replaces one gate in the graph with another. ">
<polygon fill="white" stroke="black" points="175,-0.5 175,-30.5 307,-30.5 307,-0.5 175,-0.5"/>
<text text-anchor="start" x="183" y="-18.5" font-family="Helvetica,sans-Serif" font-size="10.00">scram::core::Preprocessor</text>
<text text-anchor="middle" x="241" y="-7.5" font-family="Helvetica,sans-Serif" font-size="10.00">::ReplaceGate</text>
</a>
</g>
</g>
<!-- Node1&#45;&gt;Node7 -->
<g id="edge8" class="edge"><title>Node1&#45;&gt;Node7</title>
<path fill="none" stroke="midnightblue" d="M103.741,-71.3856C124.191,-62.208 150.992,-50.3945 175,-40.5 180.03,-38.4268 185.301,-36.3101 190.571,-34.229"/>
<polygon fill="midnightblue" stroke="midnightblue" points="191.968,-37.4409 200.006,-30.539 189.418,-30.9218 191.968,-37.4409"/>
</g>
<!-- Node3 -->
<g id="node3" class="node"><title>Node3</title>
<g id="a_node3"><a xlink:href="classscram_1_1core_1_1Preprocessor.xhtml#a4931fe17580d91b31d8c2077f64dc728" target="_top" xlink:title="Propagates a Boolean constant bottom&#45;up. ">
<polygon fill="white" stroke="black" points="343,-140.5 343,-170.5 475,-170.5 475,-140.5 343,-140.5"/>
<text text-anchor="start" x="351" y="-158.5" font-family="Helvetica,sans-Serif" font-size="10.00">scram::core::Preprocessor</text>
<text text-anchor="middle" x="409" y="-147.5" font-family="Helvetica,sans-Serif" font-size="10.00">::PropagateConstant</text>
</a>
</g>
</g>
<!-- Node2&#45;&gt;Node3 -->
<g id="edge2" class="edge"><title>Node2&#45;&gt;Node3</title>
<path fill="none" stroke="midnightblue" d="M307.131,-154.285C315.461,-154.385 324.044,-154.488 332.521,-154.591"/>
<polygon fill="midnightblue" stroke="midnightblue" points="332.743,-158.093 342.784,-154.714 332.827,-151.094 332.743,-158.093"/>
</g>
<!-- Node4 -->
<g id="node4" class="node"><title>Node4</title>
<g id="a_node4"><a xlink:href="classscram_1_1core_1_1Preprocessor.xhtml#a860e7142f3e0b33ca799f1d8218eb091" target="_top" xlink:title="Propagate NULL type gates bottom&#45;up. ">
<polygon fill="white" stroke="black" points="511,-140.5 511,-170.5 643,-170.5 643,-140.5 511,-140.5"/>
<text text-anchor="start" x="519" y="-158.5" font-family="Helvetica,sans-Serif" font-size="10.00">scram::core::Preprocessor</text>
<text text-anchor="middle" x="577" y="-147.5" font-family="Helvetica,sans-Serif" font-size="10.00">::PropagateNullGate</text>
</a>
</g>
</g>
<!-- Node3&#45;&gt;Node4 -->
<g id="edge3" class="edge"><title>Node3&#45;&gt;Node4</title>
<path fill="none" stroke="midnightblue" d="M475.131,-148.891C483.461,-148.758 492.044,-148.719 500.521,-148.775"/>
<polygon fill="midnightblue" stroke="midnightblue" points="500.746,-152.277 510.784,-148.89 500.824,-145.278 500.746,-152.277"/>
</g>
<!-- Node4&#45;&gt;Node3 -->
<g id="edge4" class="edge"><title>Node4&#45;&gt;Node3</title>
<path fill="none" stroke="midnightblue" d="M510.784,-162.11C502.452,-162.243 493.869,-162.281 485.393,-162.225"/>
<polygon fill="midnightblue" stroke="midnightblue" points="485.17,-158.722 475.131,-162.109 485.091,-165.722 485.17,-158.722"/>
</g>
<!-- Node5&#45;&gt;Node4 -->
<g id="edge6" class="edge"><title>Node5&#45;&gt;Node4</title>
<path fill="none" stroke="midnightblue" d="M461.16,-121.601C478.281,-126.655 497.532,-132.338 515.308,-137.585"/>
<polygon fill="midnightblue" stroke="midnightblue" points="514.427,-140.974 525.009,-140.448 516.409,-134.26 514.427,-140.974"/>
</g>
</g>
</svg>
