<?xml version="1.0" encoding="UTF-8" standalone="no"?>
<!DOCTYPE svg PUBLIC "-//W3C//DTD SVG 1.1//EN"
 "http://www.w3.org/Graphics/SVG/1.1/DTD/svg11.dtd">
<!-- Generated by graphviz version 2.38.0 (20140413.2041)
 -->
<!-- Title: scram::core::FaultTreeAnalysis::Convert Pages: 1 -->
<svg width="350pt" height="243pt"
 viewBox="0.00 0.00 350.00 243.00" xmlns="http://www.w3.org/2000/svg" xmlns:xlink="http://www.w3.org/1999/xlink">
<g id="graph0" class="graph" transform="scale(1 1) rotate(0) translate(4 239)">
<title>scram::core::FaultTreeAnalysis::Convert</title>
<polygon fill="white" stroke="none" points="-4,4 -4,-239 346,-239 346,4 -4,4"/>
<!-- Node1 -->
<g id="node1" class="node"><title>Node1</title>
<polygon fill="#bfbfbf" stroke="black" points="0,-93.5 0,-123.5 153,-123.5 153,-93.5 0,-93.5"/>
<text text-anchor="start" x="8" y="-111.5" font-family="Helvetica,sans-Serif" font-size="10.00">scram::core::FaultTreeAnalysis</text>
<text text-anchor="middle" x="76.5" y="-100.5" font-family="Helvetica,sans-Serif" font-size="10.00">::Convert</text>
</g>
<!-- Node2 -->
<g id="node2" class="node"><title>Node2</title>
<g id="a_node2"><a xlink:href="classscram_1_1core_1_1Analysis.xhtml#abb78b5ecbaae6f4e7ccbca0b51cf2187" target="_top" xlink:title="Appends a warning message to the analysis warnings. ">
<polygon fill="white" stroke="black" points="209.5,-204.5 209.5,-234.5 321.5,-234.5 321.5,-204.5 209.5,-204.5"/>
<text text-anchor="start" x="217.5" y="-222.5" font-family="Helvetica,sans-Serif" font-size="10.00">scram::core::Analysis</text>
<text text-anchor="middle" x="265.5" y="-211.5" font-family="Helvetica,sans-Serif" font-size="10.00">::AddWarning</text>
</a>
</g>
</g>
<!-- Node1&#45;&gt;Node2 -->
<g id="edge1" class="edge"><title>Node1&#45;&gt;Node2</title>
<path fill="none" stroke="midnightblue" d="M93.2126,-123.758C113.715,-142.923 151.425,-175.69 189,-195.5 192.46,-197.324 196.083,-199.039 199.79,-200.647"/>
<polygon fill="midnightblue" stroke="midnightblue" points="198.549,-203.92 209.132,-204.423 201.172,-197.43 198.549,-203.92"/>
</g>
<!-- Node3 -->
<g id="node3" class="node"><title>Node3</title>
<g id="a_node3"><a xlink:href="classscram_1_1core_1_1Settings.xhtml#a0e43ec0f017d23a4fa4e376c4060d380" target="_top" xlink:title="scram::core::Settings\l::limit_order">
<polygon fill="white" stroke="black" points="210.5,-155.5 210.5,-185.5 320.5,-185.5 320.5,-155.5 210.5,-155.5"/>
<text text-anchor="start" x="218.5" y="-173.5" font-family="Helvetica,sans-Serif" font-size="10.00">scram::core::Settings</text>
<text text-anchor="middle" x="265.5" y="-162.5" font-family="Helvetica,sans-Serif" font-size="10.00">::limit_order</text>
</a>
</g>
</g>
<!-- Node1&#45;&gt;Node3 -->
<g id="edge2" class="edge"><title>Node1&#45;&gt;Node3</title>
<path fill="none" stroke="midnightblue" d="M122.797,-123.538C143.05,-130.261 167.22,-138.28 189,-145.5 195.516,-147.66 202.349,-149.924 209.13,-152.17"/>
<polygon fill="midnightblue" stroke="midnightblue" points="208.391,-155.612 218.985,-155.434 210.592,-148.967 208.391,-155.612"/>
</g>
<!-- Node4 -->
<g id="node4" class="node"><title>Node4</title>
<g id="a_node4"><a xlink:href="fault__tree__analysis_8cc.xhtml#ae462a016941b9c817b69891ea5dfd1e1" target="_top" xlink:title="Prints a collection of products to the standard error. ">
<polygon fill="white" stroke="black" points="218,-99 218,-118 313,-118 313,-99 218,-99"/>
<text text-anchor="middle" x="265.5" y="-106" font-family="Helvetica,sans-Serif" font-size="10.00">scram::core::Print</text>
</a>
</g>
</g>
<!-- Node1&#45;&gt;Node4 -->
<g id="edge3" class="edge"><title>Node1&#45;&gt;Node4</title>
<path fill="none" stroke="midnightblue" d="M153.021,-108.5C171.153,-108.5 190.222,-108.5 207.361,-108.5"/>
<polygon fill="midnightblue" stroke="midnightblue" points="207.757,-112 217.757,-108.5 207.757,-105 207.757,-112"/>
</g>
<!-- Node5 -->
<g id="node5" class="node"><title>Node5</title>
<g id="a_node5"><a xlink:href="classscram_1_1core_1_1FaultTreeAnalysis.xhtml#a6175bdcb7609a1ac498c5d533421e575" target="_top" xlink:title="scram::core::FaultTreeAnalysis\l::product_events">
<polygon fill="white" stroke="black" points="189,-49.5 189,-79.5 342,-79.5 342,-49.5 189,-49.5"/>
<text text-anchor="start" x="197" y="-67.5" font-family="Helvetica,sans-Serif" font-size="10.00">scram::core::FaultTreeAnalysis</text>
<text text-anchor="middle" x="265.5" y="-56.5" font-family="Helvetica,sans-Serif" font-size="10.00">::product_events</text>
</a>
</g>
</g>
<!-- Node1&#45;&gt;Node5 -->
<g id="edge5" class="edge"><title>Node1&#45;&gt;Node5</title>
<path fill="none" stroke="midnightblue" d="M141.332,-93.4808C157.191,-89.7492 174.321,-85.7186 190.618,-81.884"/>
<polygon fill="midnightblue" stroke="midnightblue" points="191.706,-85.2236 200.639,-79.5262 190.103,-78.4097 191.706,-85.2236"/>
</g>
<!-- Node6 -->
<g id="node6" class="node"><title>Node6</title>
<g id="a_node6"><a xlink:href="classscram_1_1core_1_1Analysis.xhtml#ab04a96c555ba726368fa3868a8701610" target="_top" xlink:title="scram::core::Analysis\l::settings">
<polygon fill="white" stroke="black" points="209.5,-0.5 209.5,-30.5 321.5,-30.5 321.5,-0.5 209.5,-0.5"/>
<text text-anchor="start" x="217.5" y="-18.5" font-family="Helvetica,sans-Serif" font-size="10.00">scram::core::Analysis</text>
<text text-anchor="middle" x="265.5" y="-7.5" font-family="Helvetica,sans-Serif" font-size="10.00">::settings</text>
</a>
</g>
</g>
<!-- Node1&#45;&gt;Node6 -->
<g id="edge6" class="edge"><title>Node1&#45;&gt;Node6</title>
<path fill="none" stroke="midnightblue" d="M98.8916,-93.4159C120.756,-78.4963 156.081,-55.7451 189,-40.5 193.734,-38.3078 198.715,-36.2181 203.767,-34.2485"/>
<polygon fill="midnightblue" stroke="midnightblue" points="205.375,-37.3844 213.523,-30.6133 202.931,-30.8249 205.375,-37.3844"/>
</g>
<!-- Node4&#45;&gt;Node4 -->
<g id="edge4" class="edge"><title>Node4&#45;&gt;Node4</title>
<path fill="none" stroke="midnightblue" d="M236.524,-118.257C222.427,-127.065 232.086,-136.5 265.5,-136.5 288.472,-136.5 300.216,-132.041 300.732,-126.391"/>
<polygon fill="midnightblue" stroke="midnightblue" points="303.347,-124.05 294.476,-118.257 297.798,-128.318 303.347,-124.05"/>
</g>
</g>
</svg>
