<?xml version="1.0" encoding="UTF-8" standalone="no"?>
<!DOCTYPE svg PUBLIC "-//W3C//DTD SVG 1.1//EN"
 "http://www.w3.org/Graphics/SVG/1.1/DTD/svg11.dtd">
<!-- Generated by graphviz version 2.38.0 (20140413.2041)
 -->
<!-- Title: scram::mef::Add::Min Pages: 1 -->
<svg width="455pt" height="127pt"
 viewBox="0.00 0.00 455.00 127.00" xmlns="http://www.w3.org/2000/svg" xmlns:xlink="http://www.w3.org/1999/xlink">
<g id="graph0" class="graph" transform="scale(1 1) rotate(0) translate(4 123)">
<title>scram::mef::Add::Min</title>
<polygon fill="white" stroke="none" points="-4,4 -4,-123 451,-123 451,4 -4,4"/>
<!-- Node1 -->
<g id="node1" class="node"><title>Node1</title>
<polygon fill="#bfbfbf" stroke="black" points="0,-50 0,-69 111,-69 111,-50 0,-50"/>
<text text-anchor="middle" x="55.5" y="-57" font-family="Helvetica,sans-Serif" font-size="10.00">scram::mef::Add::Min</text>
</g>
<!-- Node2 -->
<g id="node2" class="node"><title>Node2</title>
<g id="a_node2"><a xlink:href="classscram_1_1mef_1_1Expression.xhtml#ad4d7901b9be9105c9799167cac7af3e1" target="_top" xlink:title="scram::mef::Expression\l::args">
<polygon fill="white" stroke="black" points="158,-88.5 158,-118.5 279,-118.5 279,-88.5 158,-88.5"/>
<text text-anchor="start" x="166" y="-106.5" font-family="Helvetica,sans-Serif" font-size="10.00">scram::mef::Expression</text>
<text text-anchor="middle" x="218.5" y="-95.5" font-family="Helvetica,sans-Serif" font-size="10.00">::args</text>
</a>
</g>
</g>
<!-- Node1&#45;&gt;Node2 -->
<g id="edge1" class="edge"><title>Node1&#45;&gt;Node2</title>
<path fill="none" stroke="midnightblue" d="M91.4346,-69.0473C109.319,-73.9349 131.676,-80.0451 152.577,-85.7571"/>
<polygon fill="midnightblue" stroke="midnightblue" points="151.805,-89.1745 162.374,-88.4346 153.651,-82.4221 151.805,-89.1745"/>
</g>
<!-- Node3 -->
<g id="node3" class="node"><title>Node3</title>
<g id="a_node3"><a xlink:href="classscram_1_1mef_1_1Expression.xhtml#a9601745b7f61ec67c8074a4043367152" target="_top" xlink:title="scram::mef::Expression::Min">
<polygon fill="white" stroke="black" points="147,-50 147,-69 290,-69 290,-50 147,-50"/>
<text text-anchor="middle" x="218.5" y="-57" font-family="Helvetica,sans-Serif" font-size="10.00">scram::mef::Expression::Min</text>
</a>
</g>
</g>
<!-- Node1&#45;&gt;Node3 -->
<g id="edge2" class="edge"><title>Node1&#45;&gt;Node3</title>
<path fill="none" stroke="midnightblue" d="M111.007,-59.5C119.269,-59.5 127.94,-59.5 136.616,-59.5"/>
<polygon fill="midnightblue" stroke="midnightblue" points="136.781,-63.0001 146.781,-59.5 136.781,-56.0001 136.781,-63.0001"/>
</g>
<!-- Node5 -->
<g id="node5" class="node"><title>Node5</title>
<g id="a_node5"><a xlink:href="classscram_1_1mef_1_1Expression.xhtml#a5cf00d8b2ff843ad029a501a89ee572a" target="_top" xlink:title="scram::mef::Expression\l::Sample">
<polygon fill="white" stroke="black" points="158,-0.5 158,-30.5 279,-30.5 279,-0.5 158,-0.5"/>
<text text-anchor="start" x="166" y="-18.5" font-family="Helvetica,sans-Serif" font-size="10.00">scram::mef::Expression</text>
<text text-anchor="middle" x="218.5" y="-7.5" font-family="Helvetica,sans-Serif" font-size="10.00">::Sample</text>
</a>
</g>
</g>
<!-- Node1&#45;&gt;Node5 -->
<g id="edge4" class="edge"><title>Node1&#45;&gt;Node5</title>
<path fill="none" stroke="midnightblue" d="M91.4346,-49.9527C109.319,-45.0651 131.676,-38.9549 152.577,-33.2429"/>
<polygon fill="midnightblue" stroke="midnightblue" points="153.651,-36.5779 162.374,-30.5654 151.805,-29.8255 153.651,-36.5779"/>
</g>
<!-- Node4 -->
<g id="node4" class="node"><title>Node4</title>
<g id="a_node4"><a xlink:href="classscram_1_1mef_1_1Expression.xhtml#ac7e0dd118eafdfa943944172c1625a4e" target="_top" xlink:title="scram::mef::Expression\l::Mean">
<polygon fill="white" stroke="black" points="326,-44.5 326,-74.5 447,-74.5 447,-44.5 326,-44.5"/>
<text text-anchor="start" x="334" y="-62.5" font-family="Helvetica,sans-Serif" font-size="10.00">scram::mef::Expression</text>
<text text-anchor="middle" x="386.5" y="-51.5" font-family="Helvetica,sans-Serif" font-size="10.00">::Mean</text>
</a>
</g>
</g>
<!-- Node3&#45;&gt;Node4 -->
<g id="edge3" class="edge"><title>Node3&#45;&gt;Node4</title>
<path fill="none" stroke="midnightblue" d="M290.38,-59.5C298.775,-59.5 307.339,-59.5 315.719,-59.5"/>
<polygon fill="midnightblue" stroke="midnightblue" points="315.825,-63.0001 325.825,-59.5 315.825,-56.0001 315.825,-63.0001"/>
</g>
</g>
</svg>
