<?xml version="1.0" encoding="UTF-8" standalone="no"?>
<!DOCTYPE svg PUBLIC "-//W3C//DTD SVG 1.1//EN"
 "http://www.w3.org/Graphics/SVG/1.1/DTD/svg11.dtd">
<!-- Generated by graphviz version 2.38.0 (20140413.2041)
 -->
<!-- Title: scram::core::Preprocessor::BooleanOptimization Pages: 1 -->
<svg width="820pt" height="517pt"
 viewBox="0.00 0.00 820.00 516.50" xmlns="http://www.w3.org/2000/svg" xmlns:xlink="http://www.w3.org/1999/xlink">
<g id="graph0" class="graph" transform="scale(1 1) rotate(0) translate(4 512.5)">
<title>scram::core::Preprocessor::BooleanOptimization</title>
<polygon fill="white" stroke="none" points="-4,4 -4,-512.5 816,-512.5 816,4 -4,4"/>
<!-- Node1 -->
<g id="node1" class="node"><title>Node1</title>
<polygon fill="#bfbfbf" stroke="black" points="0,-340.5 0,-370.5 132,-370.5 132,-340.5 0,-340.5"/>
<text text-anchor="start" x="8" y="-358.5" font-family="Helvetica,sans-Serif" font-size="10.00">scram::core::Preprocessor</text>
<text text-anchor="middle" x="66" y="-347.5" font-family="Helvetica,sans-Serif" font-size="10.00">::BooleanOptimization</text>
</g>
<!-- Node2 -->
<g id="node2" class="node"><title>Node2</title>
<g id="a_node2"><a xlink:href="classscram_1_1core_1_1Preprocessor.xhtml#a394fb1b5b5f9ee31dc81ad8d64353ee3" target="_top" xlink:title="Traverses the graph to find nodes that have more than one parent. ">
<polygon fill="white" stroke="black" points="168,-439.5 168,-469.5 300,-469.5 300,-439.5 168,-439.5"/>
<text text-anchor="start" x="176" y="-457.5" font-family="Helvetica,sans-Serif" font-size="10.00">scram::core::Preprocessor</text>
<text text-anchor="middle" x="234" y="-446.5" font-family="Helvetica,sans-Serif" font-size="10.00">::GatherCommonNodes</text>
</a>
</g>
</g>
<!-- Node1&#45;&gt;Node2 -->
<g id="edge1" class="edge"><title>Node1&#45;&gt;Node2</title>
<path fill="none" stroke="midnightblue" d="M92.2118,-370.536C120.692,-387.521 167.193,-415.253 198.898,-434.162"/>
<polygon fill="midnightblue" stroke="midnightblue" points="197.442,-437.369 207.823,-439.485 201.028,-431.357 197.442,-437.369"/>
</g>
<!-- Node5 -->
<g id="node5" class="node"><title>Node5</title>
<g id="a_node5"><a xlink:href="classscram_1_1core_1_1Preprocessor.xhtml#a4086c57695d49b4770915d5d53bd47de" target="_top" xlink:title="Tries to simplify the graph by removing redundancies generated by a common node. ">
<polygon fill="white" stroke="black" points="168,-218.5 168,-248.5 300,-248.5 300,-218.5 168,-218.5"/>
<text text-anchor="start" x="176" y="-236.5" font-family="Helvetica,sans-Serif" font-size="10.00">scram::core::Preprocessor</text>
<text text-anchor="middle" x="234" y="-225.5" font-family="Helvetica,sans-Serif" font-size="10.00">::ProcessCommonNode</text>
</a>
</g>
</g>
<!-- Node1&#45;&gt;Node5 -->
<g id="edge4" class="edge"><title>Node1&#45;&gt;Node5</title>
<path fill="none" stroke="midnightblue" d="M87.6884,-340.295C117.049,-318.717 170.923,-279.123 204.182,-254.679"/>
<polygon fill="midnightblue" stroke="midnightblue" points="206.587,-257.255 212.572,-248.513 202.442,-251.615 206.587,-257.255"/>
</g>
<!-- Node3 -->
<g id="node3" class="node"><title>Node3</title>
<g id="a_node3"><a xlink:href="classscram_1_1core_1_1Gate.xhtml#aa793eeaa12244c5b39a0d80e5b1518ae" target="_top" xlink:title="scram::core::Gate::args">
<polygon fill="white" stroke="black" points="346,-489 346,-508 466,-508 466,-489 346,-489"/>
<text text-anchor="middle" x="406" y="-496" font-family="Helvetica,sans-Serif" font-size="10.00">scram::core::Gate::args</text>
</a>
</g>
</g>
<!-- Node2&#45;&gt;Node3 -->
<g id="edge2" class="edge"><title>Node2&#45;&gt;Node3</title>
<path fill="none" stroke="midnightblue" d="M293.029,-469.519C314.341,-475.035 338.176,-481.204 358.36,-486.428"/>
<polygon fill="midnightblue" stroke="midnightblue" points="357.689,-489.87 368.247,-488.988 359.443,-483.093 357.689,-489.87"/>
</g>
<!-- Node4 -->
<g id="node4" class="node"><title>Node4</title>
<g id="a_node4"><a xlink:href="classscram_1_1core_1_1Node.xhtml#a54799feee1f1e91f848d11f3918e3e88" target="_top" xlink:title="Registers the visit time for this node upon graph traversal. ">
<polygon fill="white" stroke="black" points="354,-439.5 354,-469.5 458,-469.5 458,-439.5 354,-439.5"/>
<text text-anchor="start" x="362" y="-457.5" font-family="Helvetica,sans-Serif" font-size="10.00">scram::core::Node::</text>
<text text-anchor="middle" x="406" y="-446.5" font-family="Helvetica,sans-Serif" font-size="10.00">Visit</text>
</a>
</g>
</g>
<!-- Node2&#45;&gt;Node4 -->
<g id="edge3" class="edge"><title>Node2&#45;&gt;Node4</title>
<path fill="none" stroke="midnightblue" d="M300.24,-454.5C314.556,-454.5 329.664,-454.5 343.813,-454.5"/>
<polygon fill="midnightblue" stroke="midnightblue" points="343.922,-458 353.922,-454.5 343.922,-451 343.922,-458"/>
</g>
<!-- Node6 -->
<g id="node6" class="node"><title>Node6</title>
<g id="a_node6"><a xlink:href="classscram_1_1core_1_1Preprocessor.xhtml#a3b83bc14261cee28f0e1553222b7d5e5" target="_top" xlink:title="Marks ancestor gates true. ">
<polygon fill="white" stroke="black" points="340,-390.5 340,-420.5 472,-420.5 472,-390.5 340,-390.5"/>
<text text-anchor="start" x="348" y="-408.5" font-family="Helvetica,sans-Serif" font-size="10.00">scram::core::Preprocessor</text>
<text text-anchor="middle" x="406" y="-397.5" font-family="Helvetica,sans-Serif" font-size="10.00">::MarkAncestors</text>
</a>
</g>
</g>
<!-- Node5&#45;&gt;Node6 -->
<g id="edge5" class="edge"><title>Node5&#45;&gt;Node6</title>
<path fill="none" stroke="midnightblue" d="M241.471,-248.883C254.787,-278.738 288.08,-344.817 336,-381.5 337.8,-382.878 339.685,-384.181 341.635,-385.412"/>
<polygon fill="midnightblue" stroke="midnightblue" points="340.091,-388.558 350.531,-390.362 343.495,-382.441 340.091,-388.558"/>
</g>
<!-- Node7 -->
<g id="node7" class="node"><title>Node7</title>
<g id="a_node7"><a xlink:href="classscram_1_1core_1_1Preprocessor.xhtml#ae9a8bac98061d7f82633486ed6a36861" target="_top" xlink:title="Propagates failure or success of a common node by setting its ancestors&#39; optimization values to 1 or ...">
<polygon fill="white" stroke="black" points="340,-341.5 340,-371.5 472,-371.5 472,-341.5 340,-341.5"/>
<text text-anchor="start" x="348" y="-359.5" font-family="Helvetica,sans-Serif" font-size="10.00">scram::core::Preprocessor</text>
<text text-anchor="middle" x="406" y="-348.5" font-family="Helvetica,sans-Serif" font-size="10.00">::PropagateState</text>
</a>
</g>
</g>
<!-- Node5&#45;&gt;Node7 -->
<g id="edge6" class="edge"><title>Node5&#45;&gt;Node7</title>
<path fill="none" stroke="midnightblue" d="M246.778,-248.695C264.151,-270.165 298.648,-309.338 336,-332.5 338.611,-334.119 341.345,-335.646 344.156,-337.085"/>
<polygon fill="midnightblue" stroke="midnightblue" points="342.797,-340.313 353.338,-341.381 345.763,-333.973 342.797,-340.313"/>
</g>
<!-- Node10 -->
<g id="node10" class="node"><title>Node10</title>
<g id="a_node10"><a xlink:href="classscram_1_1core_1_1Preprocessor.xhtml#a4539f18d3dde97514ca267b41d30d220" target="_top" xlink:title="Collects failure or success destinations and marks non&#45;redundant nodes. ">
<polygon fill="white" stroke="black" points="340,-292.5 340,-322.5 472,-322.5 472,-292.5 340,-292.5"/>
<text text-anchor="start" x="348" y="-310.5" font-family="Helvetica,sans-Serif" font-size="10.00">scram::core::Preprocessor</text>
<text text-anchor="middle" x="406" y="-299.5" font-family="Helvetica,sans-Serif" font-size="10.00">::CollectStateDestinations</text>
</a>
</g>
</g>
<!-- Node5&#45;&gt;Node10 -->
<g id="edge9" class="edge"><title>Node5&#45;&gt;Node10</title>
<path fill="none" stroke="midnightblue" d="M263.291,-248.693C283.3,-259.143 310.921,-272.979 336,-283.5 340.375,-285.335 344.945,-287.147 349.558,-288.902"/>
<polygon fill="midnightblue" stroke="midnightblue" points="348.45,-292.224 359.043,-292.416 350.882,-285.66 348.45,-292.224"/>
</g>
<!-- Node11 -->
<g id="node11" class="node"><title>Node11</title>
<g id="a_node11"><a xlink:href="classscram_1_1core_1_1Preprocessor.xhtml#ad79145fdd5487ef0537728f74e6a94e4" target="_top" xlink:title="Detects if parents of a node are redundant. ">
<polygon fill="white" stroke="black" points="339,-243.5 339,-273.5 473,-273.5 473,-243.5 339,-243.5"/>
<text text-anchor="start" x="347" y="-261.5" font-family="Helvetica,sans-Serif" font-size="10.00">scram::core::Preprocessor</text>
<text text-anchor="middle" x="406" y="-250.5" font-family="Helvetica,sans-Serif" font-size="10.00">::CollectRedundantParents</text>
</a>
</g>
</g>
<!-- Node5&#45;&gt;Node11 -->
<g id="edge10" class="edge"><title>Node5&#45;&gt;Node11</title>
<path fill="none" stroke="midnightblue" d="M300.24,-243.094C309.622,-244.474 319.344,-245.903 328.913,-247.311"/>
<polygon fill="midnightblue" stroke="midnightblue" points="328.407,-250.774 338.81,-248.766 329.425,-243.848 328.407,-250.774"/>
</g>
<!-- Node12 -->
<g id="node12" class="node"><title>Node12</title>
<g id="a_node12"><a xlink:href="classscram_1_1core_1_1Preprocessor.xhtml#a6edfe2a6d9836942944921a8de0c011e" target="_top" xlink:title="Detects if parents of a node are redundant. ">
<polygon fill="white" stroke="black" points="336,-194.5 336,-224.5 476,-224.5 476,-194.5 336,-194.5"/>
<text text-anchor="start" x="344" y="-212.5" font-family="Helvetica,sans-Serif" font-size="10.00">scram::core::Preprocessor</text>
<text text-anchor="middle" x="406" y="-201.5" font-family="Helvetica,sans-Serif" font-size="10.00">::ProcessRedundantParents</text>
</a>
</g>
</g>
<!-- Node5&#45;&gt;Node12 -->
<g id="edge11" class="edge"><title>Node5&#45;&gt;Node12</title>
<path fill="none" stroke="midnightblue" d="M300.24,-224.29C308.653,-223.102 317.339,-221.876 325.943,-220.661"/>
<polygon fill="midnightblue" stroke="midnightblue" points="326.572,-224.107 335.985,-219.243 325.594,-217.176 326.572,-224.107"/>
</g>
<!-- Node13 -->
<g id="node13" class="node"><title>Node13</title>
<g id="a_node13"><a xlink:href="classscram_1_1core_1_1Preprocessor.xhtml#aa42b66bb888f665bc68324cca15452ad" target="_top" xlink:title="Transforms failure or success destination according to the logic and the common node. ">
<polygon fill="white" stroke="black" points="337.5,-145.5 337.5,-175.5 474.5,-175.5 474.5,-145.5 337.5,-145.5"/>
<text text-anchor="start" x="345.5" y="-163.5" font-family="Helvetica,sans-Serif" font-size="10.00">scram::core::Preprocessor</text>
<text text-anchor="middle" x="406" y="-152.5" font-family="Helvetica,sans-Serif" font-size="10.00">::ProcessStateDestinations</text>
</a>
</g>
</g>
<!-- Node5&#45;&gt;Node13 -->
<g id="edge12" class="edge"><title>Node5&#45;&gt;Node13</title>
<path fill="none" stroke="midnightblue" d="M263.76,-218.434C283.749,-208.239 311.157,-194.805 336,-184.5 340.452,-182.653 345.102,-180.826 349.794,-179.053"/>
<polygon fill="midnightblue" stroke="midnightblue" points="351.26,-182.243 359.434,-175.502 348.84,-175.675 351.26,-182.243"/>
</g>
<!-- Node15 -->
<g id="node15" class="node"><title>Node15</title>
<g id="a_node15"><a xlink:href="classscram_1_1core_1_1Preprocessor.xhtml#a5eb477e9ecd0552b2b554d7df56df652" target="_top" xlink:title="Clears all the ancestor marks used in Boolean optimization steps. ">
<polygon fill="white" stroke="black" points="340,-96.5 340,-126.5 472,-126.5 472,-96.5 340,-96.5"/>
<text text-anchor="start" x="348" y="-114.5" font-family="Helvetica,sans-Serif" font-size="10.00">scram::core::Preprocessor</text>
<text text-anchor="middle" x="406" y="-103.5" font-family="Helvetica,sans-Serif" font-size="10.00">::ClearStateMarks</text>
</a>
</g>
</g>
<!-- Node5&#45;&gt;Node15 -->
<g id="edge14" class="edge"><title>Node5&#45;&gt;Node15</title>
<path fill="none" stroke="midnightblue" d="M246.812,-218.465C264.226,-197.221 298.774,-158.453 336,-135.5 338.615,-133.888 341.352,-132.366 344.166,-130.932"/>
<polygon fill="midnightblue" stroke="midnightblue" points="345.771,-134.045 353.354,-126.646 342.812,-127.701 345.771,-134.045"/>
</g>
<!-- Node16 -->
<g id="node16" class="node"><title>Node16</title>
<g id="a_node16"><a xlink:href="classscram_1_1core_1_1Preprocessor.xhtml#ac3279b95fc83a2ae909c011de083d57e" target="_top" xlink:title="Clears all constant gates registered for removal by algorithms or other preprocessing functions...">
<polygon fill="white" stroke="black" points="340,-47.5 340,-77.5 472,-77.5 472,-47.5 340,-47.5"/>
<text text-anchor="start" x="348" y="-65.5" font-family="Helvetica,sans-Serif" font-size="10.00">scram::core::Preprocessor</text>
<text text-anchor="middle" x="406" y="-54.5" font-family="Helvetica,sans-Serif" font-size="10.00">::ClearConstGates</text>
</a>
</g>
</g>
<!-- Node5&#45;&gt;Node16 -->
<g id="edge15" class="edge"><title>Node5&#45;&gt;Node16</title>
<path fill="none" stroke="midnightblue" d="M241.499,-218.221C254.866,-188.569 288.243,-122.938 336,-86.5 337.802,-85.1248 339.689,-83.8246 341.641,-82.5957"/>
<polygon fill="midnightblue" stroke="midnightblue" points="343.499,-85.5672 350.542,-77.6523 340.1,-79.4476 343.499,-85.5672"/>
</g>
<!-- Node19 -->
<g id="node19" class="node"><title>Node19</title>
<g id="a_node19"><a xlink:href="classscram_1_1core_1_1Preprocessor.xhtml#ae483f228040c0d2422792c9cf0d05886" target="_top" xlink:title="Clears all NULL type gates registered for removal by algorithms or other preprocessing functions...">
<polygon fill="white" stroke="black" points="512,-0.5 512,-30.5 644,-30.5 644,-0.5 512,-0.5"/>
<text text-anchor="start" x="520" y="-18.5" font-family="Helvetica,sans-Serif" font-size="10.00">scram::core::Preprocessor</text>
<text text-anchor="middle" x="578" y="-7.5" font-family="Helvetica,sans-Serif" font-size="10.00">::ClearNullGates</text>
</a>
</g>
</g>
<!-- Node5&#45;&gt;Node19 -->
<g id="edge19" class="edge"><title>Node5&#45;&gt;Node19</title>
<path fill="none" stroke="midnightblue" d="M237.68,-218.484C245.305,-180.659 270.924,-81.3557 336,-37.5 384.26,-4.97661 450.851,-1.20771 501.808,-4.5982"/>
<polygon fill="midnightblue" stroke="midnightblue" points="501.542,-8.08797 511.781,-5.36536 502.079,-1.10859 501.542,-8.08797"/>
</g>
<!-- Node8 -->
<g id="node8" class="node"><title>Node8</title>
<g id="a_node8"><a xlink:href="classscram_1_1core_1_1Node.xhtml#a90ef93c4b0667215d2a8c3a3eb4f3822" target="_top" xlink:title="scram::core::Node::\lopti_value">
<polygon fill="white" stroke="black" points="526,-365.5 526,-395.5 630,-395.5 630,-365.5 526,-365.5"/>
<text text-anchor="start" x="534" y="-383.5" font-family="Helvetica,sans-Serif" font-size="10.00">scram::core::Node::</text>
<text text-anchor="middle" x="578" y="-372.5" font-family="Helvetica,sans-Serif" font-size="10.00">opti_value</text>
</a>
</g>
</g>
<!-- Node7&#45;&gt;Node8 -->
<g id="edge7" class="edge"><title>Node7&#45;&gt;Node8</title>
<path fill="none" stroke="midnightblue" d="M472.24,-365.71C486.556,-367.731 501.664,-369.864 515.813,-371.862"/>
<polygon fill="midnightblue" stroke="midnightblue" points="515.531,-375.357 525.922,-373.289 516.51,-368.425 515.531,-375.357"/>
</g>
<!-- Node9 -->
<g id="node9" class="node"><title>Node9</title>
<g id="a_node9"><a xlink:href="classscram_1_1core_1_1Preprocessor.xhtml#a019e679ad9077caac8c48253d42647ff" target="_top" xlink:title="Determines if a gate fails or succeeds due to failed/succeeded arguments. ">
<polygon fill="white" stroke="black" points="512,-316.5 512,-346.5 644,-346.5 644,-316.5 512,-316.5"/>
<text text-anchor="start" x="520" y="-334.5" font-family="Helvetica,sans-Serif" font-size="10.00">scram::core::Preprocessor</text>
<text text-anchor="middle" x="578" y="-323.5" font-family="Helvetica,sans-Serif" font-size="10.00">::DetermineGateState</text>
</a>
</g>
</g>
<!-- Node7&#45;&gt;Node9 -->
<g id="edge8" class="edge"><title>Node7&#45;&gt;Node9</title>
<path fill="none" stroke="midnightblue" d="M472.24,-346.906C481.9,-345.485 491.92,-344.012 501.763,-342.564"/>
<polygon fill="midnightblue" stroke="midnightblue" points="502.55,-345.986 511.934,-341.068 501.531,-339.061 502.55,-345.986"/>
</g>
<!-- Node14 -->
<g id="node14" class="node"><title>Node14</title>
<g id="a_node14"><a xlink:href="classscram_1_1core_1_1Preprocessor.xhtml#a26434bec1bc5a496f80c9cbad1ed3a62" target="_top" xlink:title="Replaces one gate in the graph with another. ">
<polygon fill="white" stroke="black" points="512,-145.5 512,-175.5 644,-175.5 644,-145.5 512,-145.5"/>
<text text-anchor="start" x="520" y="-163.5" font-family="Helvetica,sans-Serif" font-size="10.00">scram::core::Preprocessor</text>
<text text-anchor="middle" x="578" y="-152.5" font-family="Helvetica,sans-Serif" font-size="10.00">::ReplaceGate</text>
</a>
</g>
</g>
<!-- Node13&#45;&gt;Node14 -->
<g id="edge13" class="edge"><title>Node13&#45;&gt;Node14</title>
<path fill="none" stroke="midnightblue" d="M474.677,-160.5C483.557,-160.5 492.701,-160.5 501.698,-160.5"/>
<polygon fill="midnightblue" stroke="midnightblue" points="501.771,-164 511.771,-160.5 501.771,-157 501.771,-164"/>
</g>
<!-- Node17 -->
<g id="node17" class="node"><title>Node17</title>
<g id="a_node17"><a xlink:href="classscram_1_1core_1_1Preprocessor.xhtml#a4931fe17580d91b31d8c2077f64dc728" target="_top" xlink:title="Propagates a Boolean constant bottom&#45;up. ">
<polygon fill="white" stroke="black" points="512,-49.5 512,-79.5 644,-79.5 644,-49.5 512,-49.5"/>
<text text-anchor="start" x="520" y="-67.5" font-family="Helvetica,sans-Serif" font-size="10.00">scram::core::Preprocessor</text>
<text text-anchor="middle" x="578" y="-56.5" font-family="Helvetica,sans-Serif" font-size="10.00">::PropagateConstant</text>
</a>
</g>
</g>
<!-- Node16&#45;&gt;Node17 -->
<g id="edge16" class="edge"><title>Node16&#45;&gt;Node17</title>
<path fill="none" stroke="midnightblue" d="M472.24,-63.2675C481.9,-63.3812 491.92,-63.4991 501.763,-63.6149"/>
<polygon fill="midnightblue" stroke="midnightblue" points="501.894,-67.1165 511.934,-63.7345 501.976,-60.117 501.894,-67.1165"/>
</g>
<!-- Node18 -->
<g id="node18" class="node"><title>Node18</title>
<g id="a_node18"><a xlink:href="classscram_1_1core_1_1Preprocessor.xhtml#a860e7142f3e0b33ca799f1d8218eb091" target="_top" xlink:title="Propagate NULL type gates bottom&#45;up. ">
<polygon fill="white" stroke="black" points="680,-49.5 680,-79.5 812,-79.5 812,-49.5 680,-49.5"/>
<text text-anchor="start" x="688" y="-67.5" font-family="Helvetica,sans-Serif" font-size="10.00">scram::core::Preprocessor</text>
<text text-anchor="middle" x="746" y="-56.5" font-family="Helvetica,sans-Serif" font-size="10.00">::PropagateNullGate</text>
</a>
</g>
</g>
<!-- Node17&#45;&gt;Node18 -->
<g id="edge17" class="edge"><title>Node17&#45;&gt;Node18</title>
<path fill="none" stroke="midnightblue" d="M644.131,-57.891C652.461,-57.7577 661.044,-57.7189 669.521,-57.7747"/>
<polygon fill="midnightblue" stroke="midnightblue" points="669.746,-61.2773 679.784,-57.8897 669.824,-54.2778 669.746,-61.2773"/>
</g>
<!-- Node18&#45;&gt;Node17 -->
<g id="edge18" class="edge"><title>Node18&#45;&gt;Node17</title>
<path fill="none" stroke="midnightblue" d="M679.784,-71.1103C671.452,-71.243 662.869,-71.2812 654.393,-71.2247"/>
<polygon fill="midnightblue" stroke="midnightblue" points="654.17,-67.7221 644.131,-71.109 654.091,-74.7216 654.17,-67.7221"/>
</g>
<!-- Node19&#45;&gt;Node18 -->
<g id="edge20" class="edge"><title>Node19&#45;&gt;Node18</title>
<path fill="none" stroke="midnightblue" d="M630.16,-30.6014C647.281,-35.6551 666.532,-41.3376 684.308,-46.5848"/>
<polygon fill="midnightblue" stroke="midnightblue" points="683.427,-49.9741 694.009,-49.4484 685.409,-43.2605 683.427,-49.9741"/>
</g>
</g>
</svg>
