<?xml version="1.0" encoding="UTF-8" standalone="no"?>
<!DOCTYPE svg PUBLIC "-//W3C//DTD SVG 1.1//EN"
 "http://www.w3.org/Graphics/SVG/1.1/DTD/svg11.dtd">
<!-- Generated by graphviz version 2.38.0 (20140413.2041)
 -->
<!-- Title: scram::mef::Expression::Sample Pages: 1 -->
<!--zoomable 503 -->
<svg id="main" version="1.1" xmlns="http://www.w3.org/2000/svg" xmlns:xlink="http://www.w3.org/1999/xlink" xml:space="preserve" onload="init(evt)">
<style type="text/css"><![CDATA[
.edge:hover path { stroke: red; }
.edge:hover polygon { stroke: red; fill: red; }
]]></style>
<script type="text/javascript"><![CDATA[
var edges = document.getElementsByTagName('g');
if (edges && edges.length) {
  for (var i=0;i<edges.length;i++) {
    if (edges[i].id.substr(0,4)=='edge') {
      edges[i].setAttribute('class','edge');
    }
  }
}
]]></script>
        <defs>
                <circle id="rim" cx="0" cy="0" r="7"/>
                <circle id="rim2" cx="0" cy="0" r="3.5"/>
                <g id="zoomPlus">
                        <use xlink:href="#rim" fill="#404040">
                                <set attributeName="fill" to="#808080" begin="zoomplus.mouseover" end="zoomplus.mouseout"/>
                        </use>
                        <path d="M-4,0h8M0,-4v8" fill="none" stroke="white" stroke-width="1.5" pointer-events="none"/>
                </g>
                <g id="zoomMin">
                        <use xlink:href="#rim" fill="#404040">
                                <set attributeName="fill" to="#808080" begin="zoomminus.mouseover" end="zoomminus.mouseout"/>
                        </use>
                        <path d="M-4,0h8" fill="none" stroke="white" stroke-width="1.5" pointer-events="none"/>
                </g>
                <g id="dirArrow">
                        <path fill="none" stroke="white" stroke-width="1.5" d="M0,-3.0v7 M-2.5,-0.5L0,-3.0L2.5,-0.5"/>
                </g>
               <g id="resetDef">
                       <use xlink:href="#rim2" fill="#404040">
                               <set attributeName="fill" to="#808080" begin="reset.mouseover" end="reset.mouseout"/>
                       </use>
               </g>
        </defs>

<script type="text/javascript">
var viewWidth = 359;
var viewHeight = 503;
var sectionId = 'dynsection-4';
</script>
<script xlink:href="svgpan.js"/>
<svg id="graph" class="graph">
<g id="viewport">
<title>scram::mef::Expression::Sample</title>
<polygon fill="white" stroke="none" points="-4,4 -4,-498.5 355,-498.5 355,4 -4,4"/>
<!-- Node1 -->
<g id="node1" class="node"><title>Node1</title>
<polygon fill="#bfbfbf" stroke="black" points="0,-248.5 0,-278.5 121,-278.5 121,-248.5 0,-248.5"/>
<text text-anchor="start" x="8" y="-266.5" font-family="Helvetica,sans-Serif" font-size="10.00">scram::mef::Expression</text>
<text text-anchor="middle" x="60.5" y="-255.5" font-family="Helvetica,sans-Serif" font-size="10.00">::Sample</text>
</g>
<!-- Node2 -->
<g id="node2" class="node"><title>Node2</title>
<g id="a_node2"><a xlink:href="classscram_1_1mef_1_1GammaDeviate.xhtml#a853def23b4ff78a5c774699f0eaf27ba" target="_top" xlink:title="scram::mef::GammaDeviate::Max">
<polygon fill="white" stroke="black" points="171.5,-475 171.5,-494 336.5,-494 336.5,-475 171.5,-475"/>
<text text-anchor="middle" x="254" y="-482" font-family="Helvetica,sans-Serif" font-size="10.00">scram::mef::GammaDeviate::Max</text>
</a>
</g>
</g>
<!-- Node1&#45;&gt;Node2 -->
<g id="edge1" class="edge"><title>Node1&#45;&gt;Node2</title>
<path fill="none" stroke="midnightblue" d="M65.8219,-288.513C74.6878,-331.815 99.1888,-420.421 157,-465.5 161.823,-469.261 167.189,-472.34 172.848,-474.854"/>
<polygon fill="midnightblue" stroke="midnightblue" points="69.2274,-287.689 63.8939,-278.535 62.3545,-289.017 69.2274,-287.689"/>
</g>
<!-- Node3 -->
<g id="node3" class="node"><title>Node3</title>
<g id="a_node3"><a xlink:href="classscram_1_1mef_1_1BetaDeviate.xhtml#a8143423beabd8a74c3093f1b8a68787b" target="_top" xlink:title="scram::mef::BetaDeviate::Max">
<polygon fill="white" stroke="black" points="178.5,-437 178.5,-456 329.5,-456 329.5,-437 178.5,-437"/>
<text text-anchor="middle" x="254" y="-444" font-family="Helvetica,sans-Serif" font-size="10.00">scram::mef::BetaDeviate::Max</text>
</a>
</g>
</g>
<!-- Node1&#45;&gt;Node3 -->
<g id="edge2" class="edge"><title>Node1&#45;&gt;Node3</title>
<path fill="none" stroke="midnightblue" d="M68.7609,-288.492C80.7727,-325.14 108.412,-392.854 157,-427.5 163.363,-432.037 170.539,-435.558 178.031,-438.28"/>
<polygon fill="midnightblue" stroke="midnightblue" points="71.9922,-287.1 65.6554,-278.609 65.3141,-289.199 71.9922,-287.1"/>
</g>
<!-- Node4 -->
<g id="node4" class="node"><title>Node4</title>
<g id="a_node4"><a xlink:href="classscram_1_1mef_1_1GlmExpression.xhtml#a8ee502d7486c54d01114f6705998eacb" target="_top" xlink:title="scram::mef::GlmExpression\l::Mean">
<polygon fill="white" stroke="black" points="184.5,-387.5 184.5,-417.5 323.5,-417.5 323.5,-387.5 184.5,-387.5"/>
<text text-anchor="start" x="192.5" y="-405.5" font-family="Helvetica,sans-Serif" font-size="10.00">scram::mef::GlmExpression</text>
<text text-anchor="middle" x="254" y="-394.5" font-family="Helvetica,sans-Serif" font-size="10.00">::Mean</text>
</a>
</g>
</g>
<!-- Node1&#45;&gt;Node4 -->
<g id="edge3" class="edge"><title>Node1&#45;&gt;Node4</title>
<path fill="none" stroke="midnightblue" d="M75.2824,-287.528C91.5007,-313.624 120.857,-354.632 157,-377.5 165.369,-382.795 174.821,-386.972 184.448,-390.267"/>
<polygon fill="midnightblue" stroke="midnightblue" points="78.0831,-285.396 69.9134,-278.65 72.0932,-289.018 78.0831,-285.396"/>
</g>
<!-- Node5 -->
<g id="node5" class="node"><title>Node5</title>
<g id="a_node5"><a xlink:href="classscram_1_1mef_1_1Neg.xhtml#a7da67dab2e2355c05a5d1726852a03b1" target="_top" xlink:title="scram::mef::Neg::Min">
<polygon fill="white" stroke="black" points="198,-349 198,-368 310,-368 310,-349 198,-349"/>
<text text-anchor="middle" x="254" y="-356" font-family="Helvetica,sans-Serif" font-size="10.00">scram::mef::Neg::Min</text>
</a>
</g>
</g>
<!-- Node1&#45;&gt;Node5 -->
<g id="edge4" class="edge"><title>Node1&#45;&gt;Node5</title>
<path fill="none" stroke="midnightblue" d="M83.0022,-285.672C101.118,-303.017 128.568,-326.33 157,-339.5 169.641,-345.356 184.034,-349.409 197.759,-352.215"/>
<polygon fill="midnightblue" stroke="midnightblue" points="85.4272,-283.148 75.834,-278.652 80.5291,-288.149 85.4272,-283.148"/>
</g>
<!-- Node6 -->
<g id="node6" class="node"><title>Node6</title>
<g id="a_node6"><a xlink:href="classscram_1_1mef_1_1ExponentialExpression.xhtml#a2e97ea7d13408b598a7938f60273a1fe" target="_top" xlink:title="scram::mef::ExponentialExpression::Min">
<polygon fill="white" stroke="black" points="157,-311 157,-330 351,-330 351,-311 157,-311"/>
<text text-anchor="middle" x="254" y="-318" font-family="Helvetica,sans-Serif" font-size="10.00">scram::mef::ExponentialExpression::Min</text>
</a>
</g>
</g>
<!-- Node1&#45;&gt;Node6 -->
<g id="edge5" class="edge"><title>Node1&#45;&gt;Node6</title>
<path fill="none" stroke="midnightblue" d="M104.257,-282.455C120.536,-289.154 139.403,-296.305 157,-301.5 169.384,-305.156 182.876,-308.315 195.727,-310.951"/>
<polygon fill="midnightblue" stroke="midnightblue" points="105.577,-279.213 95.0012,-278.581 102.875,-285.67 105.577,-279.213"/>
</g>
<!-- Node7 -->
<g id="node7" class="node"><title>Node7</title>
<g id="a_node7"><a xlink:href="classscram_1_1mef_1_1Add.xhtml#aa2b2101f0f40604e342f9f7477fdef87" target="_top" xlink:title="scram::mef::Add::Min">
<polygon fill="white" stroke="black" points="198.5,-273 198.5,-292 309.5,-292 309.5,-273 198.5,-273"/>
<text text-anchor="middle" x="254" y="-280" font-family="Helvetica,sans-Serif" font-size="10.00">scram::mef::Add::Min</text>
</a>
</g>
</g>
<!-- Node1&#45;&gt;Node7 -->
<g id="edge6" class="edge"><title>Node1&#45;&gt;Node7</title>
<path fill="none" stroke="midnightblue" d="M131.066,-270.402C153.234,-272.602 177.43,-275.002 198.382,-277.081"/>
<polygon fill="midnightblue" stroke="midnightblue" points="131.339,-266.912 121.042,-269.408 130.648,-273.878 131.339,-266.912"/>
</g>
<!-- Node8 -->
<g id="node8" class="node"><title>Node8</title>
<g id="a_node8"><a xlink:href="classscram_1_1mef_1_1Parameter.xhtml#ac4b5d8872182b5c0d0ac01b7c269dfd5" target="_top" xlink:title="scram::mef::Parameter::Min">
<polygon fill="white" stroke="black" points="184.5,-235 184.5,-254 323.5,-254 323.5,-235 184.5,-235"/>
<text text-anchor="middle" x="254" y="-242" font-family="Helvetica,sans-Serif" font-size="10.00">scram::mef::Parameter::Min</text>
</a>
</g>
</g>
<!-- Node1&#45;&gt;Node8 -->
<g id="edge7" class="edge"><title>Node1&#45;&gt;Node8</title>
<path fill="none" stroke="midnightblue" d="M131.114,-256.593C148.496,-254.869 167.123,-253.02 184.454,-251.301"/>
<polygon fill="midnightblue" stroke="midnightblue" points="130.648,-253.122 121.042,-257.592 131.339,-260.088 130.648,-253.122"/>
</g>
<!-- Node9 -->
<g id="node9" class="node"><title>Node9</title>
<g id="a_node9"><a xlink:href="classscram_1_1mef_1_1Sub.xhtml#a9f22864663589361efd64b28768d82d0" target="_top" xlink:title="scram::mef::Sub::Min">
<polygon fill="white" stroke="black" points="198.5,-197 198.5,-216 309.5,-216 309.5,-197 198.5,-197"/>
<text text-anchor="middle" x="254" y="-204" font-family="Helvetica,sans-Serif" font-size="10.00">scram::mef::Sub::Min</text>
</a>
</g>
</g>
<!-- Node1&#45;&gt;Node9 -->
<g id="edge8" class="edge"><title>Node1&#45;&gt;Node9</title>
<path fill="none" stroke="midnightblue" d="M104.257,-244.545C120.536,-237.846 139.403,-230.695 157,-225.5 170.199,-221.604 184.656,-218.271 198.254,-215.535"/>
<polygon fill="midnightblue" stroke="midnightblue" points="102.875,-241.33 95.0012,-248.419 105.577,-247.787 102.875,-241.33"/>
</g>
<!-- Node10 -->
<g id="node10" class="node"><title>Node10</title>
<g id="a_node10"><a xlink:href="classscram_1_1mef_1_1UniformDeviate.xhtml#a558a657077fa6d4c1000d21863d56fda" target="_top" xlink:title="scram::mef::UniformDeviate\l::Validate">
<polygon fill="white" stroke="black" points="184,-147.5 184,-177.5 324,-177.5 324,-147.5 184,-147.5"/>
<text text-anchor="start" x="192" y="-165.5" font-family="Helvetica,sans-Serif" font-size="10.00">scram::mef::UniformDeviate</text>
<text text-anchor="middle" x="254" y="-154.5" font-family="Helvetica,sans-Serif" font-size="10.00">::Validate</text>
</a>
</g>
</g>
<!-- Node1&#45;&gt;Node10 -->
<g id="edge9" class="edge"><title>Node1&#45;&gt;Node10</title>
<path fill="none" stroke="midnightblue" d="M84.0336,-241.014C102.273,-224.007 129.386,-201.301 157,-187.5 165.396,-183.304 174.568,-179.761 183.805,-176.784"/>
<polygon fill="midnightblue" stroke="midnightblue" points="81.1339,-238.942 76.3078,-248.374 85.9623,-244.011 81.1339,-238.942"/>
</g>
<!-- Node11 -->
<g id="node11" class="node"><title>Node11</title>
<g id="a_node11"><a xlink:href="classscram_1_1mef_1_1NormalDeviate.xhtml#a00e2955e101aa9725b2dd503c5f4c61a" target="_top" xlink:title="scram::mef::NormalDeviate\l::Validate">
<polygon fill="white" stroke="black" points="185.5,-98.5 185.5,-128.5 322.5,-128.5 322.5,-98.5 185.5,-98.5"/>
<text text-anchor="start" x="193.5" y="-116.5" font-family="Helvetica,sans-Serif" font-size="10.00">scram::mef::NormalDeviate</text>
<text text-anchor="middle" x="254" y="-105.5" font-family="Helvetica,sans-Serif" font-size="10.00">::Validate</text>
</a>
</g>
</g>
<!-- Node1&#45;&gt;Node11 -->
<g id="edge10" class="edge"><title>Node1&#45;&gt;Node11</title>
<path fill="none" stroke="midnightblue" d="M73.5537,-239.26C88.9751,-210.781 118.378,-164.169 157,-138.5 165.606,-132.78 175.452,-128.368 185.483,-124.965"/>
<polygon fill="midnightblue" stroke="midnightblue" points="70.4264,-237.687 68.8667,-248.166 76.621,-240.947 70.4264,-237.687"/>
</g>
<!-- Node12 -->
<g id="node12" class="node"><title>Node12</title>
<g id="a_node12"><a xlink:href="classscram_1_1mef_1_1Expression.xhtml#af3e09d926b52f6077aa85c26454c4e18" target="_top" xlink:title="Validates the expression. ">
<polygon fill="white" stroke="black" points="193.5,-49.5 193.5,-79.5 314.5,-79.5 314.5,-49.5 193.5,-49.5"/>
<text text-anchor="start" x="201.5" y="-67.5" font-family="Helvetica,sans-Serif" font-size="10.00">scram::mef::Expression</text>
<text text-anchor="middle" x="254" y="-56.5" font-family="Helvetica,sans-Serif" font-size="10.00">::Validate</text>
</a>
</g>
</g>
<!-- Node1&#45;&gt;Node12 -->
<g id="edge11" class="edge"><title>Node1&#45;&gt;Node12</title>
<path fill="none" stroke="midnightblue" d="M68.2679,-238.46C79.8839,-200.367 107.303,-128.213 157,-89.5 167.53,-81.2975 180.482,-75.7702 193.426,-72.05"/>
<polygon fill="midnightblue" stroke="midnightblue" points="64.8541,-237.664 65.4053,-248.244 71.5725,-239.629 64.8541,-237.664"/>
</g>
<!-- Node13 -->
<g id="node13" class="node"><title>Node13</title>
<g id="a_node13"><a xlink:href="classscram_1_1mef_1_1LogNormalDeviate.xhtml#a146823c655ffc212ea49060f75c7ab47" target="_top" xlink:title="scram::mef::LogNormalDeviate\l::Validate">
<polygon fill="white" stroke="black" points="177.5,-0.5 177.5,-30.5 330.5,-30.5 330.5,-0.5 177.5,-0.5"/>
<text text-anchor="start" x="185.5" y="-18.5" font-family="Helvetica,sans-Serif" font-size="10.00">scram::mef::LogNormalDeviate</text>
<text text-anchor="middle" x="254" y="-7.5" font-family="Helvetica,sans-Serif" font-size="10.00">::Validate</text>
</a>
</g>
</g>
<!-- Node1&#45;&gt;Node13 -->
<g id="edge12" class="edge"><title>Node1&#45;&gt;Node13</title>
<path fill="none" stroke="midnightblue" d="M64.9723,-238.282C72.7193,-191.932 95.8173,-93.138 157,-40.5 163.006,-35.3331 169.953,-31.2159 177.309,-27.938"/>
<polygon fill="midnightblue" stroke="midnightblue" points="61.4822,-237.946 63.3933,-248.367 68.398,-239.029 61.4822,-237.946"/>
</g>
</g>
</svg>
        <g id="navigator" transform="translate(0 0)" fill="#404254">
                <rect fill="#f2f5e9" fill-opacity="0.5" stroke="#606060" stroke-width=".5" x="0" y="0" width="60" height="60"/>
                <use id="zoomplus" xlink:href="#zoomPlus" x="17" y="9" onmousedown="handleZoom(evt,'in')"/>
                <use id="zoomminus" xlink:href="#zoomMin" x="42" y="9" onmousedown="handleZoom(evt,'out')"/>
                <use id="reset" xlink:href="#resetDef" x="30" y="36" onmousedown="handleReset()"/>
                <g id="arrowUp" xlink:href="#dirArrow" transform="translate(30 24)" onmousedown="handlePan(0,-1)">
                  <use xlink:href="#rim" fill="#404040">
                        <set attributeName="fill" to="#808080" begin="arrowUp.mouseover" end="arrowUp.mouseout"/>
                  </use>
                  <path fill="none" stroke="white" stroke-width="1.5" d="M0,-3.0v7 M-2.5,-0.5L0,-3.0L2.5,-0.5"/>
                </g>
                <g id="arrowRight" xlink:href="#dirArrow" transform="rotate(90) translate(36 -43)" onmousedown="handlePan(1,0)">
                  <use xlink:href="#rim" fill="#404040">
                        <set attributeName="fill" to="#808080" begin="arrowRight.mouseover" end="arrowRight.mouseout"/>
                  </use>
                  <path fill="none" stroke="white" stroke-width="1.5" d="M0,-3.0v7 M-2.5,-0.5L0,-3.0L2.5,-0.5"/>
                </g>
                <g id="arrowDown" xlink:href="#dirArrow" transform="rotate(180) translate(-30 -48)" onmousedown="handlePan(0,1)">
                  <use xlink:href="#rim" fill="#404040">
                        <set attributeName="fill" to="#808080" begin="arrowDown.mouseover" end="arrowDown.mouseout"/>
                  </use>
                  <path fill="none" stroke="white" stroke-width="1.5" d="M0,-3.0v7 M-2.5,-0.5L0,-3.0L2.5,-0.5"/>
                </g>
                <g id="arrowLeft" xlink:href="#dirArrow" transform="rotate(270) translate(-36 17)" onmousedown="handlePan(-1,0)">
                  <use xlink:href="#rim" fill="#404040">
                        <set attributeName="fill" to="#808080" begin="arrowLeft.mouseover" end="arrowLeft.mouseout"/>
                  </use>
                  <path fill="none" stroke="white" stroke-width="1.5" d="M0,-3.0v7 M-2.5,-0.5L0,-3.0L2.5,-0.5"/>
                </g>
        </g>
        <svg viewBox="0 0 15 15" width="100%" height="30px" preserveAspectRatio="xMaxYMin meet">
         <g id="arrow_out" transform="scale(0.3 0.3)">
          <a xlink:href="classscram_1_1mef_1_1Expression_a5cf00d8b2ff843ad029a501a89ee572a_icgraph_org.svg" target="_base">
           <rect id="button" ry="5" rx="5" y="6" x="6" height="38" width="38"
                fill="#f2f5e9" fill-opacity="0.5" stroke="#606060" stroke-width="1.0"/>
           <path id="arrow"
             d="M 11.500037,31.436501 C 11.940474,20.09759 22.043105,11.32322 32.158766,21.979434 L 37.068811,17.246167 C 37.068811,17.246167 37.088388,32 37.088388,32 L 22.160133,31.978069 C 22.160133,31.978069 26.997745,27.140456 26.997745,27.140456 C 18.528582,18.264221 13.291696,25.230495 11.500037,31.436501 z"
             style="fill:#404040;"/>
          </a>
         </g>
        </svg>
</svg>
