<?xml version="1.0" encoding="UTF-8" standalone="no"?>
<!DOCTYPE svg PUBLIC "-//W3C//DTD SVG 1.1//EN"
 "http://www.w3.org/Graphics/SVG/1.1/DTD/svg11.dtd">
<!-- Generated by graphviz version 2.38.0 (20140413.2041)
 -->
<!-- Title: scram::core::Preprocessor::RunPhaseFive Pages: 1 -->
<svg width="1174pt" height="729pt"
 viewBox="0.00 0.00 1174.00 729.00" xmlns="http://www.w3.org/2000/svg" xmlns:xlink="http://www.w3.org/1999/xlink">
<g id="graph0" class="graph" transform="scale(1 1) rotate(0) translate(4 725)">
<title>scram::core::Preprocessor::RunPhaseFive</title>
<polygon fill="white" stroke="none" points="-4,4 -4,-725 1170,-725 1170,4 -4,4"/>
<!-- Node1 -->
<g id="node1" class="node"><title>Node1</title>
<polygon fill="#bfbfbf" stroke="black" points="0,-551.5 0,-581.5 132,-581.5 132,-551.5 0,-551.5"/>
<text text-anchor="start" x="8" y="-569.5" font-family="Helvetica,sans-Serif" font-size="10.00">scram::core::Preprocessor</text>
<text text-anchor="middle" x="66" y="-558.5" font-family="Helvetica,sans-Serif" font-size="10.00">::RunPhaseFive</text>
</g>
<!-- Node2 -->
<g id="node2" class="node"><title>Node2</title>
<g id="a_node2"><a xlink:href="classscram_1_1core_1_1Preprocessor.xhtml#a3f1b4becb281bc02b61e8f72595a0666" target="_top" xlink:title="Checks the root gate of the graph for further processing. ">
<polygon fill="white" stroke="black" points="341.5,-683.5 341.5,-713.5 473.5,-713.5 473.5,-683.5 341.5,-683.5"/>
<text text-anchor="start" x="349.5" y="-701.5" font-family="Helvetica,sans-Serif" font-size="10.00">scram::core::Preprocessor</text>
<text text-anchor="middle" x="407.5" y="-690.5" font-family="Helvetica,sans-Serif" font-size="10.00">::CheckRootGate</text>
</a>
</g>
</g>
<!-- Node1&#45;&gt;Node2 -->
<g id="edge1" class="edge"><title>Node1&#45;&gt;Node2</title>
<path fill="none" stroke="midnightblue" d="M105.614,-581.514C167.815,-605.698 290.078,-653.234 358.041,-679.659"/>
<polygon fill="midnightblue" stroke="midnightblue" points="357.072,-683.037 367.661,-683.399 359.609,-676.513 357.072,-683.037"/>
</g>
<!-- Node3 -->
<g id="node3" class="node"><title>Node3</title>
<g id="a_node3"><a xlink:href="classscram_1_1core_1_1Preprocessor.xhtml#a00288bef180767d7c79e3c79a33ef2d8" target="_top" xlink:title="Runs gate coalescence on the whole Boolean graph. ">
<polygon fill="white" stroke="black" points="341.5,-507.5 341.5,-537.5 473.5,-537.5 473.5,-507.5 341.5,-507.5"/>
<text text-anchor="start" x="349.5" y="-525.5" font-family="Helvetica,sans-Serif" font-size="10.00">scram::core::Preprocessor</text>
<text text-anchor="middle" x="407.5" y="-514.5" font-family="Helvetica,sans-Serif" font-size="10.00">::CoalesceGates</text>
</a>
</g>
</g>
<!-- Node1&#45;&gt;Node3 -->
<g id="edge2" class="edge"><title>Node1&#45;&gt;Node3</title>
<path fill="none" stroke="midnightblue" d="M120.653,-551.495C135.854,-547.715 152.488,-544.02 168,-541.5 222.24,-532.687 284.112,-527.909 331.244,-525.349"/>
<polygon fill="midnightblue" stroke="midnightblue" points="331.568,-528.836 341.372,-524.82 331.203,-521.846 331.568,-528.836"/>
</g>
<!-- Node7 -->
<g id="node7" class="node"><title>Node7</title>
<g id="a_node7"><a xlink:href="classscram_1_1core_1_1Preprocessor.xhtml#a9d5f89471499508eb9e6c01ea43e0f15" target="_top" xlink:title="Preprocessing phase of the original structure of the graph. ">
<polygon fill="white" stroke="black" points="168,-551.5 168,-581.5 300,-581.5 300,-551.5 168,-551.5"/>
<text text-anchor="start" x="176" y="-569.5" font-family="Helvetica,sans-Serif" font-size="10.00">scram::core::Preprocessor</text>
<text text-anchor="middle" x="234" y="-558.5" font-family="Helvetica,sans-Serif" font-size="10.00">::RunPhaseTwo</text>
</a>
</g>
</g>
<!-- Node1&#45;&gt;Node7 -->
<g id="edge7" class="edge"><title>Node1&#45;&gt;Node7</title>
<path fill="none" stroke="midnightblue" d="M132.131,-566.5C140.461,-566.5 149.044,-566.5 157.521,-566.5"/>
<polygon fill="midnightblue" stroke="midnightblue" points="157.784,-570 167.784,-566.5 157.784,-563 157.784,-570"/>
</g>
<!-- Node4 -->
<g id="node4" class="node"><title>Node4</title>
<g id="a_node4"><a xlink:href="classscram_1_1core_1_1Preprocessor.xhtml#ac3279b95fc83a2ae909c011de083d57e" target="_top" xlink:title="Clears all constant gates registered for removal by algorithms or other preprocessing functions...">
<polygon fill="white" stroke="black" points="694,-553.5 694,-583.5 826,-583.5 826,-553.5 694,-553.5"/>
<text text-anchor="start" x="702" y="-571.5" font-family="Helvetica,sans-Serif" font-size="10.00">scram::core::Preprocessor</text>
<text text-anchor="middle" x="760" y="-560.5" font-family="Helvetica,sans-Serif" font-size="10.00">::ClearConstGates</text>
</a>
</g>
</g>
<!-- Node3&#45;&gt;Node4 -->
<g id="edge3" class="edge"><title>Node3&#45;&gt;Node4</title>
<path fill="none" stroke="midnightblue" d="M473.605,-531.044C533.147,-538.859 621.214,-550.417 683.75,-558.624"/>
<polygon fill="midnightblue" stroke="midnightblue" points="683.577,-562.131 693.947,-559.962 684.488,-555.191 683.577,-562.131"/>
</g>
<!-- Node5 -->
<g id="node5" class="node"><title>Node5</title>
<g id="a_node5"><a xlink:href="classscram_1_1core_1_1Preprocessor.xhtml#a4931fe17580d91b31d8c2077f64dc728" target="_top" xlink:title="Propagates a Boolean constant bottom&#45;up. ">
<polygon fill="white" stroke="black" points="866,-611.5 866,-641.5 998,-641.5 998,-611.5 866,-611.5"/>
<text text-anchor="start" x="874" y="-629.5" font-family="Helvetica,sans-Serif" font-size="10.00">scram::core::Preprocessor</text>
<text text-anchor="middle" x="932" y="-618.5" font-family="Helvetica,sans-Serif" font-size="10.00">::PropagateConstant</text>
</a>
</g>
</g>
<!-- Node4&#45;&gt;Node5 -->
<g id="edge4" class="edge"><title>Node4&#45;&gt;Node5</title>
<path fill="none" stroke="midnightblue" d="M805.222,-583.587C827.259,-591.106 854.088,-600.259 877.298,-608.178"/>
<polygon fill="midnightblue" stroke="midnightblue" points="876.405,-611.572 887,-611.488 878.666,-604.947 876.405,-611.572"/>
</g>
<!-- Node6 -->
<g id="node6" class="node"><title>Node6</title>
<g id="a_node6"><a xlink:href="classscram_1_1core_1_1Preprocessor.xhtml#a860e7142f3e0b33ca799f1d8218eb091" target="_top" xlink:title="Propagate NULL type gates bottom&#45;up. ">
<polygon fill="white" stroke="black" points="1034,-611.5 1034,-641.5 1166,-641.5 1166,-611.5 1034,-611.5"/>
<text text-anchor="start" x="1042" y="-629.5" font-family="Helvetica,sans-Serif" font-size="10.00">scram::core::Preprocessor</text>
<text text-anchor="middle" x="1100" y="-618.5" font-family="Helvetica,sans-Serif" font-size="10.00">::PropagateNullGate</text>
</a>
</g>
</g>
<!-- Node5&#45;&gt;Node6 -->
<g id="edge5" class="edge"><title>Node5&#45;&gt;Node6</title>
<path fill="none" stroke="midnightblue" d="M998.131,-619.891C1006.46,-619.758 1015.04,-619.719 1023.52,-619.775"/>
<polygon fill="midnightblue" stroke="midnightblue" points="1023.75,-623.277 1033.78,-619.89 1023.82,-616.278 1023.75,-623.277"/>
</g>
<!-- Node6&#45;&gt;Node5 -->
<g id="edge6" class="edge"><title>Node6&#45;&gt;Node5</title>
<path fill="none" stroke="midnightblue" d="M1033.78,-633.11C1025.45,-633.243 1016.87,-633.281 1008.39,-633.225"/>
<polygon fill="midnightblue" stroke="midnightblue" points="1008.17,-629.722 998.131,-633.109 1008.09,-636.722 1008.17,-629.722"/>
</g>
<!-- Node7&#45;&gt;Node2 -->
<g id="edge26" class="edge"><title>Node7&#45;&gt;Node2</title>
<path fill="none" stroke="midnightblue" d="M246.898,-581.833C264.417,-603.561 299.091,-643.448 336,-668.5 341.694,-672.365 347.966,-675.893 354.349,-679.062"/>
<polygon fill="midnightblue" stroke="midnightblue" points="353.186,-682.382 363.727,-683.446 356.151,-676.04 353.186,-682.382"/>
</g>
<!-- Node7&#45;&gt;Node3 -->
<g id="edge27" class="edge"><title>Node7&#45;&gt;Node3</title>
<path fill="none" stroke="midnightblue" d="M293.541,-551.481C307.811,-547.82 323.203,-543.871 337.895,-540.101"/>
<polygon fill="midnightblue" stroke="midnightblue" points="339.115,-543.402 347.932,-537.526 337.376,-536.621 339.115,-543.402"/>
</g>
<!-- Node8 -->
<g id="node8" class="node"><title>Node8</title>
<g id="a_node8"><a xlink:href="classscram_1_1core_1_1Preprocessor.xhtml#aebc709ad2e097c24e837889a6a9e4696" target="_top" xlink:title="Propagates failures of common nodes to detect redundancy. ">
<polygon fill="white" stroke="black" points="341.5,-406.5 341.5,-436.5 473.5,-436.5 473.5,-406.5 341.5,-406.5"/>
<text text-anchor="start" x="349.5" y="-424.5" font-family="Helvetica,sans-Serif" font-size="10.00">scram::core::Preprocessor</text>
<text text-anchor="middle" x="407.5" y="-413.5" font-family="Helvetica,sans-Serif" font-size="10.00">::BooleanOptimization</text>
</a>
</g>
</g>
<!-- Node7&#45;&gt;Node8 -->
<g id="edge8" class="edge"><title>Node7&#45;&gt;Node8</title>
<path fill="none" stroke="midnightblue" d="M253.029,-551.257C283.602,-525.408 345.708,-472.898 380.819,-443.213"/>
<polygon fill="midnightblue" stroke="midnightblue" points="383.336,-445.668 388.712,-436.539 378.816,-440.323 383.336,-445.668"/>
</g>
<!-- Node24 -->
<g id="node24" class="node"><title>Node24</title>
<g id="a_node24"><a xlink:href="classscram_1_1core_1_1Preprocessor.xhtml#ae12f3096132d7f6e9daa779724255f7e" target="_top" xlink:title="The Shannon decomposition for common nodes in the Boolean graph. ">
<polygon fill="white" stroke="black" points="336,-264.5 336,-294.5 479,-294.5 479,-264.5 336,-264.5"/>
<text text-anchor="start" x="344" y="-282.5" font-family="Helvetica,sans-Serif" font-size="10.00">scram::core::Preprocessor</text>
<text text-anchor="middle" x="407.5" y="-271.5" font-family="Helvetica,sans-Serif" font-size="10.00">::DecomposeCommonNodes</text>
</a>
</g>
</g>
<!-- Node7&#45;&gt;Node24 -->
<g id="edge28" class="edge"><title>Node7&#45;&gt;Node24</title>
<path fill="none" stroke="midnightblue" d="M243.886,-551.472C261.434,-521.81 301.805,-453.651 336,-396.5 355.349,-364.162 377.841,-326.89 392.119,-303.269"/>
<polygon fill="midnightblue" stroke="midnightblue" points="395.165,-304.996 397.344,-294.627 389.175,-301.374 395.165,-304.996"/>
</g>
<!-- Node26 -->
<g id="node26" class="node"><title>Node26</title>
<g id="a_node26"><a xlink:href="classscram_1_1core_1_1Preprocessor.xhtml#a4737f354474154b3cea9773c25616d27" target="_top" xlink:title="Detects and manipulates AND and OR gate distributivity for the whole graph. ">
<polygon fill="white" stroke="black" points="518.5,-668.5 518.5,-698.5 650.5,-698.5 650.5,-668.5 518.5,-668.5"/>
<text text-anchor="start" x="526.5" y="-686.5" font-family="Helvetica,sans-Serif" font-size="10.00">scram::core::Preprocessor</text>
<text text-anchor="middle" x="584.5" y="-675.5" font-family="Helvetica,sans-Serif" font-size="10.00">::DetectDistributivity</text>
</a>
</g>
</g>
<!-- Node7&#45;&gt;Node26 -->
<g id="edge31" class="edge"><title>Node7&#45;&gt;Node26</title>
<path fill="none" stroke="midnightblue" d="M252.707,-581.665C271.937,-597.322 304.184,-621.273 336,-634.5 391.246,-657.468 457.997,-669.876 508.248,-676.454"/>
<polygon fill="midnightblue" stroke="midnightblue" points="508.031,-679.954 518.39,-677.732 508.906,-673.009 508.031,-679.954"/>
</g>
<!-- Node27 -->
<g id="node27" class="node"><title>Node27</title>
<g id="a_node27"><a xlink:href="classscram_1_1core_1_1Preprocessor.xhtml#aa9856913eee7b854abfbe8d8330566d3" target="_top" xlink:title="Traverses the Boolean graph to detect modules. ">
<polygon fill="white" stroke="black" points="341.5,-215.5 341.5,-245.5 473.5,-245.5 473.5,-215.5 341.5,-215.5"/>
<text text-anchor="start" x="349.5" y="-233.5" font-family="Helvetica,sans-Serif" font-size="10.00">scram::core::Preprocessor</text>
<text text-anchor="middle" x="407.5" y="-222.5" font-family="Helvetica,sans-Serif" font-size="10.00">::DetectModules</text>
</a>
</g>
</g>
<!-- Node7&#45;&gt;Node27 -->
<g id="edge33" class="edge"><title>Node7&#45;&gt;Node27</title>
<path fill="none" stroke="midnightblue" d="M235.345,-551.42C237.306,-501.751 250.298,-341.502 336,-254.5 336.944,-253.541 337.928,-252.621 338.947,-251.738"/>
<polygon fill="midnightblue" stroke="midnightblue" points="341.306,-254.351 347.363,-245.659 337.207,-248.677 341.306,-254.351"/>
</g>
<!-- Node34 -->
<g id="node34" class="node"><title>Node34</title>
<g id="a_node34"><a xlink:href="classscram_1_1core_1_1Preprocessor.xhtml#ab97a52e27ad8bf7ed049ae1a764f8fba" target="_top" xlink:title="Identifies common arguments of gates, and merges the common arguments into new gates. ">
<polygon fill="white" stroke="black" points="341.5,-595.5 341.5,-625.5 473.5,-625.5 473.5,-595.5 341.5,-595.5"/>
<text text-anchor="start" x="349.5" y="-613.5" font-family="Helvetica,sans-Serif" font-size="10.00">scram::core::Preprocessor</text>
<text text-anchor="middle" x="407.5" y="-602.5" font-family="Helvetica,sans-Serif" font-size="10.00">::MergeCommonArgs</text>
</a>
</g>
</g>
<!-- Node7&#45;&gt;Node34 -->
<g id="edge42" class="edge"><title>Node7&#45;&gt;Node34</title>
<path fill="none" stroke="midnightblue" d="M293.541,-581.519C307.811,-585.18 323.203,-589.129 337.895,-592.899"/>
<polygon fill="midnightblue" stroke="midnightblue" points="337.376,-596.379 347.932,-595.474 339.115,-589.598 337.376,-596.379"/>
</g>
<!-- Node35 -->
<g id="node35" class="node"><title>Node35</title>
<g id="a_node35"><a xlink:href="classscram_1_1core_1_1Preprocessor.xhtml#ac0abd7f5b54f98643644110b160569bd" target="_top" xlink:title="Detects and replaces multiple definitions of gates. ">
<polygon fill="white" stroke="black" points="515,-597.5 515,-627.5 654,-627.5 654,-597.5 515,-597.5"/>
<text text-anchor="start" x="523" y="-615.5" font-family="Helvetica,sans-Serif" font-size="10.00">scram::core::Preprocessor</text>
<text text-anchor="middle" x="584.5" y="-604.5" font-family="Helvetica,sans-Serif" font-size="10.00">::ProcessMultipleDefinitions</text>
</a>
</g>
</g>
<!-- Node7&#45;&gt;Node35 -->
<g id="edge43" class="edge"><title>Node7&#45;&gt;Node35</title>
<path fill="none" stroke="midnightblue" d="M300.105,-568.471C349.473,-570.713 418.859,-575.468 479,-585.5 493.341,-587.892 508.59,-591.315 522.877,-594.923"/>
<polygon fill="midnightblue" stroke="midnightblue" points="522.034,-598.32 532.592,-597.441 523.79,-591.544 522.034,-598.32"/>
</g>
<!-- Node9 -->
<g id="node9" class="node"><title>Node9</title>
<g id="a_node9"><a xlink:href="classscram_1_1core_1_1Preprocessor.xhtml#a394fb1b5b5f9ee31dc81ad8d64353ee3" target="_top" xlink:title="Traverses the graph to find nodes that have more than one parent. ">
<polygon fill="white" stroke="black" points="518.5,-264.5 518.5,-294.5 650.5,-294.5 650.5,-264.5 518.5,-264.5"/>
<text text-anchor="start" x="526.5" y="-282.5" font-family="Helvetica,sans-Serif" font-size="10.00">scram::core::Preprocessor</text>
<text text-anchor="middle" x="584.5" y="-271.5" font-family="Helvetica,sans-Serif" font-size="10.00">::GatherCommonNodes</text>
</a>
</g>
</g>
<!-- Node8&#45;&gt;Node9 -->
<g id="edge9" class="edge"><title>Node8&#45;&gt;Node9</title>
<path fill="none" stroke="midnightblue" d="M427.228,-406.304C458.411,-381.001 521.073,-330.155 556.85,-301.124"/>
<polygon fill="midnightblue" stroke="midnightblue" points="559.347,-303.606 564.907,-294.587 554.936,-298.17 559.347,-303.606"/>
</g>
<!-- Node12 -->
<g id="node12" class="node"><title>Node12</title>
<g id="a_node12"><a xlink:href="classscram_1_1core_1_1Preprocessor.xhtml#a4086c57695d49b4770915d5d53bd47de" target="_top" xlink:title="Tries to simplify the graph by removing redundancies generated by a common node. ">
<polygon fill="white" stroke="black" points="518.5,-406.5 518.5,-436.5 650.5,-436.5 650.5,-406.5 518.5,-406.5"/>
<text text-anchor="start" x="526.5" y="-424.5" font-family="Helvetica,sans-Serif" font-size="10.00">scram::core::Preprocessor</text>
<text text-anchor="middle" x="584.5" y="-413.5" font-family="Helvetica,sans-Serif" font-size="10.00">::ProcessCommonNode</text>
</a>
</g>
</g>
<!-- Node8&#45;&gt;Node12 -->
<g id="edge12" class="edge"><title>Node8&#45;&gt;Node12</title>
<path fill="none" stroke="midnightblue" d="M473.664,-421.5C484.938,-421.5 496.742,-421.5 508.257,-421.5"/>
<polygon fill="midnightblue" stroke="midnightblue" points="508.282,-425 518.282,-421.5 508.282,-418 508.282,-425"/>
</g>
<!-- Node10 -->
<g id="node10" class="node"><title>Node10</title>
<g id="a_node10"><a xlink:href="classscram_1_1core_1_1Gate.xhtml#aa793eeaa12244c5b39a0d80e5b1518ae" target="_top" xlink:title="scram::core::Gate::args">
<polygon fill="white" stroke="black" points="700,-123 700,-142 820,-142 820,-123 700,-123"/>
<text text-anchor="middle" x="760" y="-130" font-family="Helvetica,sans-Serif" font-size="10.00">scram::core::Gate::args</text>
</a>
</g>
</g>
<!-- Node9&#45;&gt;Node10 -->
<g id="edge10" class="edge"><title>Node9&#45;&gt;Node10</title>
<path fill="none" stroke="midnightblue" d="M640.912,-264.428C645.706,-261.654 650.177,-258.376 654,-254.5 688.054,-219.976 654.572,-184.613 690,-151.5 691.696,-149.915 693.513,-148.459 695.423,-147.124"/>
<polygon fill="midnightblue" stroke="midnightblue" points="697.395,-150.027 704.312,-142.002 693.9,-143.961 697.395,-150.027"/>
</g>
<!-- Node11 -->
<g id="node11" class="node"><title>Node11</title>
<g id="a_node11"><a xlink:href="classscram_1_1core_1_1Node.xhtml#a54799feee1f1e91f848d11f3918e3e88" target="_top" xlink:title="Registers the visit time for this node upon graph traversal. ">
<polygon fill="white" stroke="black" points="708,-161.5 708,-191.5 812,-191.5 812,-161.5 708,-161.5"/>
<text text-anchor="start" x="716" y="-179.5" font-family="Helvetica,sans-Serif" font-size="10.00">scram::core::Node::</text>
<text text-anchor="middle" x="760" y="-168.5" font-family="Helvetica,sans-Serif" font-size="10.00">Visit</text>
</a>
</g>
</g>
<!-- Node9&#45;&gt;Node11 -->
<g id="edge11" class="edge"><title>Node9&#45;&gt;Node11</title>
<path fill="none" stroke="midnightblue" d="M637.867,-264.418C643.605,-261.617 649.124,-258.334 654,-254.5 676.674,-236.67 667.191,-218.157 690,-200.5 692.741,-198.378 695.683,-196.436 698.752,-194.659"/>
<polygon fill="midnightblue" stroke="midnightblue" points="700.378,-197.759 707.675,-190.078 697.18,-191.532 700.378,-197.759"/>
</g>
<!-- Node12&#45;&gt;Node4 -->
<g id="edge23" class="edge"><title>Node12&#45;&gt;Node4</title>
<path fill="none" stroke="midnightblue" d="M594.834,-436.846C611.119,-462.412 647.107,-513.836 690,-543.5 692.725,-545.384 695.608,-547.144 698.588,-548.784"/>
<polygon fill="midnightblue" stroke="midnightblue" points="697.254,-552.029 707.765,-553.355 700.374,-545.764 697.254,-552.029"/>
</g>
<!-- Node13 -->
<g id="node13" class="node"><title>Node13</title>
<g id="a_node13"><a xlink:href="classscram_1_1core_1_1Preprocessor.xhtml#a3b83bc14261cee28f0e1553222b7d5e5" target="_top" xlink:title="Marks ancestor gates true. ">
<polygon fill="white" stroke="black" points="694,-357.5 694,-387.5 826,-387.5 826,-357.5 694,-357.5"/>
<text text-anchor="start" x="702" y="-375.5" font-family="Helvetica,sans-Serif" font-size="10.00">scram::core::Preprocessor</text>
<text text-anchor="middle" x="760" y="-364.5" font-family="Helvetica,sans-Serif" font-size="10.00">::MarkAncestors</text>
</a>
</g>
</g>
<!-- Node12&#45;&gt;Node13 -->
<g id="edge13" class="edge"><title>Node12&#45;&gt;Node13</title>
<path fill="none" stroke="midnightblue" d="M638.971,-406.399C657.031,-401.298 677.359,-395.557 696.081,-390.27"/>
<polygon fill="midnightblue" stroke="midnightblue" points="697.033,-393.638 705.705,-387.552 695.13,-386.901 697.033,-393.638"/>
</g>
<!-- Node14 -->
<g id="node14" class="node"><title>Node14</title>
<g id="a_node14"><a xlink:href="classscram_1_1core_1_1Preprocessor.xhtml#ae9a8bac98061d7f82633486ed6a36861" target="_top" xlink:title="Propagates failure or success of a common node by setting its ancestors&#39; optimization values to 1 or ...">
<polygon fill="white" stroke="black" points="694,-308.5 694,-338.5 826,-338.5 826,-308.5 694,-308.5"/>
<text text-anchor="start" x="702" y="-326.5" font-family="Helvetica,sans-Serif" font-size="10.00">scram::core::Preprocessor</text>
<text text-anchor="middle" x="760" y="-315.5" font-family="Helvetica,sans-Serif" font-size="10.00">::PropagateState</text>
</a>
</g>
</g>
<!-- Node12&#45;&gt;Node14 -->
<g id="edge14" class="edge"><title>Node12&#45;&gt;Node14</title>
<path fill="none" stroke="midnightblue" d="M603.363,-406.461C623.403,-390.178 657.388,-364.29 690,-347.5 693.453,-345.722 697.068,-344.026 700.756,-342.418"/>
<polygon fill="midnightblue" stroke="midnightblue" points="702.108,-345.646 710.023,-338.604 699.444,-339.173 702.108,-345.646"/>
</g>
<!-- Node17 -->
<g id="node17" class="node"><title>Node17</title>
<g id="a_node17"><a xlink:href="classscram_1_1core_1_1Preprocessor.xhtml#a4539f18d3dde97514ca267b41d30d220" target="_top" xlink:title="Collects failure or success destinations and marks non&#45;redundant nodes. ">
<polygon fill="white" stroke="black" points="694,-259.5 694,-289.5 826,-289.5 826,-259.5 694,-259.5"/>
<text text-anchor="start" x="702" y="-277.5" font-family="Helvetica,sans-Serif" font-size="10.00">scram::core::Preprocessor</text>
<text text-anchor="middle" x="760" y="-266.5" font-family="Helvetica,sans-Serif" font-size="10.00">::CollectStateDestinations</text>
</a>
</g>
</g>
<!-- Node12&#45;&gt;Node17 -->
<g id="edge17" class="edge"><title>Node12&#45;&gt;Node17</title>
<path fill="none" stroke="midnightblue" d="M594.504,-406.377C610.555,-380.651 646.542,-328.272 690,-298.5 692.152,-297.026 694.403,-295.634 696.723,-294.32"/>
<polygon fill="midnightblue" stroke="midnightblue" points="698.624,-297.281 705.957,-289.634 695.455,-291.039 698.624,-297.281"/>
</g>
<!-- Node18 -->
<g id="node18" class="node"><title>Node18</title>
<g id="a_node18"><a xlink:href="classscram_1_1core_1_1Preprocessor.xhtml#ad79145fdd5487ef0537728f74e6a94e4" target="_top" xlink:title="Detects if parents of a node are redundant. ">
<polygon fill="white" stroke="black" points="693,-210.5 693,-240.5 827,-240.5 827,-210.5 693,-210.5"/>
<text text-anchor="start" x="701" y="-228.5" font-family="Helvetica,sans-Serif" font-size="10.00">scram::core::Preprocessor</text>
<text text-anchor="middle" x="760" y="-217.5" font-family="Helvetica,sans-Serif" font-size="10.00">::CollectRedundantParents</text>
</a>
</g>
</g>
<!-- Node12&#45;&gt;Node18 -->
<g id="edge18" class="edge"><title>Node12&#45;&gt;Node18</title>
<path fill="none" stroke="midnightblue" d="M594.399,-406.229C618.364,-365.188 682.935,-255.211 690,-249.5 691.591,-248.214 693.254,-246.995 694.976,-245.84"/>
<polygon fill="midnightblue" stroke="midnightblue" points="697.123,-248.64 703.995,-240.576 693.594,-242.594 697.123,-248.64"/>
</g>
<!-- Node19 -->
<g id="node19" class="node"><title>Node19</title>
<g id="a_node19"><a xlink:href="classscram_1_1core_1_1Preprocessor.xhtml#a6edfe2a6d9836942944921a8de0c011e" target="_top" xlink:title="Detects if parents of a node are redundant. ">
<polygon fill="white" stroke="black" points="690,-455.5 690,-485.5 830,-485.5 830,-455.5 690,-455.5"/>
<text text-anchor="start" x="698" y="-473.5" font-family="Helvetica,sans-Serif" font-size="10.00">scram::core::Preprocessor</text>
<text text-anchor="middle" x="760" y="-462.5" font-family="Helvetica,sans-Serif" font-size="10.00">::ProcessRedundantParents</text>
</a>
</g>
</g>
<!-- Node12&#45;&gt;Node19 -->
<g id="edge19" class="edge"><title>Node12&#45;&gt;Node19</title>
<path fill="none" stroke="midnightblue" d="M638.971,-436.601C657.031,-441.702 677.359,-447.443 696.081,-452.73"/>
<polygon fill="midnightblue" stroke="midnightblue" points="695.13,-456.099 705.705,-455.448 697.033,-449.362 695.13,-456.099"/>
</g>
<!-- Node20 -->
<g id="node20" class="node"><title>Node20</title>
<g id="a_node20"><a xlink:href="classscram_1_1core_1_1Preprocessor.xhtml#aa42b66bb888f665bc68324cca15452ad" target="_top" xlink:title="Transforms failure or success destination according to the logic and the common node. ">
<polygon fill="white" stroke="black" points="691.5,-504.5 691.5,-534.5 828.5,-534.5 828.5,-504.5 691.5,-504.5"/>
<text text-anchor="start" x="699.5" y="-522.5" font-family="Helvetica,sans-Serif" font-size="10.00">scram::core::Preprocessor</text>
<text text-anchor="middle" x="760" y="-511.5" font-family="Helvetica,sans-Serif" font-size="10.00">::ProcessStateDestinations</text>
</a>
</g>
</g>
<!-- Node12&#45;&gt;Node20 -->
<g id="edge20" class="edge"><title>Node12&#45;&gt;Node20</title>
<path fill="none" stroke="midnightblue" d="M603.807,-436.53C623.959,-452.525 657.785,-477.782 690,-494.5 694.054,-496.604 698.325,-498.608 702.673,-500.5"/>
<polygon fill="midnightblue" stroke="midnightblue" points="701.682,-503.878 712.261,-504.458 704.353,-497.407 701.682,-503.878"/>
</g>
<!-- Node22 -->
<g id="node22" class="node"><title>Node22</title>
<g id="a_node22"><a xlink:href="classscram_1_1core_1_1Preprocessor.xhtml#a5eb477e9ecd0552b2b554d7df56df652" target="_top" xlink:title="Clears all the ancestor marks used in Boolean optimization steps. ">
<polygon fill="white" stroke="black" points="694,-406.5 694,-436.5 826,-436.5 826,-406.5 694,-406.5"/>
<text text-anchor="start" x="702" y="-424.5" font-family="Helvetica,sans-Serif" font-size="10.00">scram::core::Preprocessor</text>
<text text-anchor="middle" x="760" y="-413.5" font-family="Helvetica,sans-Serif" font-size="10.00">::ClearStateMarks</text>
</a>
</g>
</g>
<!-- Node12&#45;&gt;Node22 -->
<g id="edge22" class="edge"><title>Node12&#45;&gt;Node22</title>
<path fill="none" stroke="midnightblue" d="M650.599,-421.5C661.421,-421.5 672.723,-421.5 683.771,-421.5"/>
<polygon fill="midnightblue" stroke="midnightblue" points="683.825,-425 693.825,-421.5 683.825,-418 683.825,-425"/>
</g>
<!-- Node23 -->
<g id="node23" class="node"><title>Node23</title>
<g id="a_node23"><a xlink:href="classscram_1_1core_1_1Preprocessor.xhtml#ae483f228040c0d2422792c9cf0d05886" target="_top" xlink:title="Clears all NULL type gates registered for removal by algorithms or other preprocessing functions...">
<polygon fill="white" stroke="black" points="694,-690.5 694,-720.5 826,-720.5 826,-690.5 694,-690.5"/>
<text text-anchor="start" x="702" y="-708.5" font-family="Helvetica,sans-Serif" font-size="10.00">scram::core::Preprocessor</text>
<text text-anchor="middle" x="760" y="-697.5" font-family="Helvetica,sans-Serif" font-size="10.00">::ClearNullGates</text>
</a>
</g>
</g>
<!-- Node12&#45;&gt;Node23 -->
<g id="edge24" class="edge"><title>Node12&#45;&gt;Node23</title>
<path fill="none" stroke="midnightblue" d="M591.845,-436.561C604.072,-465.651 631.662,-531.629 654,-587.5 670.454,-628.655 658.321,-649.502 690,-680.5 691.468,-681.937 693.026,-683.292 694.655,-684.57"/>
<polygon fill="midnightblue" stroke="midnightblue" points="693.055,-687.709 703.319,-690.337 696.934,-681.882 693.055,-687.709"/>
</g>
<!-- Node15 -->
<g id="node15" class="node"><title>Node15</title>
<g id="a_node15"><a xlink:href="classscram_1_1core_1_1Node.xhtml#a90ef93c4b0667215d2a8c3a3eb4f3822" target="_top" xlink:title="scram::core::Node::\lopti_value">
<polygon fill="white" stroke="black" points="880,-283.5 880,-313.5 984,-313.5 984,-283.5 880,-283.5"/>
<text text-anchor="start" x="888" y="-301.5" font-family="Helvetica,sans-Serif" font-size="10.00">scram::core::Node::</text>
<text text-anchor="middle" x="932" y="-290.5" font-family="Helvetica,sans-Serif" font-size="10.00">opti_value</text>
</a>
</g>
</g>
<!-- Node14&#45;&gt;Node15 -->
<g id="edge15" class="edge"><title>Node14&#45;&gt;Node15</title>
<path fill="none" stroke="midnightblue" d="M826.24,-313.906C840.556,-311.801 855.664,-309.579 869.813,-307.498"/>
<polygon fill="midnightblue" stroke="midnightblue" points="870.538,-310.929 879.922,-306.011 869.52,-304.004 870.538,-310.929"/>
</g>
<!-- Node16 -->
<g id="node16" class="node"><title>Node16</title>
<g id="a_node16"><a xlink:href="classscram_1_1core_1_1Preprocessor.xhtml#a019e679ad9077caac8c48253d42647ff" target="_top" xlink:title="Determines if a gate fails or succeeds due to failed/succeeded arguments. ">
<polygon fill="white" stroke="black" points="866,-332.5 866,-362.5 998,-362.5 998,-332.5 866,-332.5"/>
<text text-anchor="start" x="874" y="-350.5" font-family="Helvetica,sans-Serif" font-size="10.00">scram::core::Preprocessor</text>
<text text-anchor="middle" x="932" y="-339.5" font-family="Helvetica,sans-Serif" font-size="10.00">::DetermineGateState</text>
</a>
</g>
</g>
<!-- Node14&#45;&gt;Node16 -->
<g id="edge16" class="edge"><title>Node14&#45;&gt;Node16</title>
<path fill="none" stroke="midnightblue" d="M826.24,-332.71C835.9,-334.074 845.92,-335.489 855.763,-336.878"/>
<polygon fill="midnightblue" stroke="midnightblue" points="855.543,-340.382 865.934,-338.314 856.522,-333.451 855.543,-340.382"/>
</g>
<!-- Node21 -->
<g id="node21" class="node"><title>Node21</title>
<g id="a_node21"><a xlink:href="classscram_1_1core_1_1Preprocessor.xhtml#a26434bec1bc5a496f80c9cbad1ed3a62" target="_top" xlink:title="Replaces one gate in the graph with another. ">
<polygon fill="white" stroke="black" points="866,-516.5 866,-546.5 998,-546.5 998,-516.5 866,-516.5"/>
<text text-anchor="start" x="874" y="-534.5" font-family="Helvetica,sans-Serif" font-size="10.00">scram::core::Preprocessor</text>
<text text-anchor="middle" x="932" y="-523.5" font-family="Helvetica,sans-Serif" font-size="10.00">::ReplaceGate</text>
</a>
</g>
</g>
<!-- Node20&#45;&gt;Node21 -->
<g id="edge21" class="edge"><title>Node20&#45;&gt;Node21</title>
<path fill="none" stroke="midnightblue" d="M828.677,-524.277C837.557,-524.904 846.701,-525.549 855.698,-526.185"/>
<polygon fill="midnightblue" stroke="midnightblue" points="855.549,-529.683 865.771,-526.896 856.042,-522.7 855.549,-529.683"/>
</g>
<!-- Node23&#45;&gt;Node6 -->
<g id="edge25" class="edge"><title>Node23&#45;&gt;Node6</title>
<path fill="none" stroke="midnightblue" d="M826.156,-690.477C873.778,-679.472 939.917,-664.14 998,-650.5 1007.12,-648.359 1016.69,-646.099 1026.16,-643.856"/>
<polygon fill="midnightblue" stroke="midnightblue" points="1027.05,-647.242 1035.98,-641.53 1025.44,-640.431 1027.05,-647.242"/>
</g>
<!-- Node24&#45;&gt;Node9 -->
<g id="edge29" class="edge"><title>Node24&#45;&gt;Node9</title>
<path fill="none" stroke="midnightblue" d="M479.175,-279.5C488.649,-279.5 498.397,-279.5 507.951,-279.5"/>
<polygon fill="midnightblue" stroke="midnightblue" points="508.22,-283 518.22,-279.5 508.22,-276 508.22,-283"/>
</g>
<!-- Node25 -->
<g id="node25" class="node"><title>Node25</title>
<g id="a_node25"><a xlink:href="classscram_1_1core_1_1Preprocessor.xhtml#ac83a0afe1f22761907f2a017abd96268" target="_top" xlink:title="Traverses the given gate and assigns time of visit to nodes. ">
<polygon fill="white" stroke="black" points="518.5,-215.5 518.5,-245.5 650.5,-245.5 650.5,-215.5 518.5,-215.5"/>
<text text-anchor="start" x="526.5" y="-233.5" font-family="Helvetica,sans-Serif" font-size="10.00">scram::core::Preprocessor</text>
<text text-anchor="middle" x="584.5" y="-222.5" font-family="Helvetica,sans-Serif" font-size="10.00">::AssignTiming</text>
</a>
</g>
</g>
<!-- Node24&#45;&gt;Node25 -->
<g id="edge30" class="edge"><title>Node24&#45;&gt;Node25</title>
<path fill="none" stroke="midnightblue" d="M462.434,-264.399C480.65,-259.298 501.153,-253.557 520.037,-248.27"/>
<polygon fill="midnightblue" stroke="midnightblue" points="521.058,-251.618 529.744,-245.552 519.171,-244.878 521.058,-251.618"/>
</g>
<!-- Node26&#45;&gt;Node23 -->
<g id="edge32" class="edge"><title>Node26&#45;&gt;Node23</title>
<path fill="none" stroke="midnightblue" d="M650.599,-691.755C661.421,-693.127 672.723,-694.56 683.771,-695.961"/>
<polygon fill="midnightblue" stroke="midnightblue" points="683.464,-699.45 693.825,-697.236 684.345,-692.506 683.464,-699.45"/>
</g>
<!-- Node27&#45;&gt;Node25 -->
<g id="edge34" class="edge"><title>Node27&#45;&gt;Node25</title>
<path fill="none" stroke="midnightblue" d="M473.664,-230.5C484.938,-230.5 496.742,-230.5 508.257,-230.5"/>
<polygon fill="midnightblue" stroke="midnightblue" points="508.282,-234 518.282,-230.5 508.282,-227 508.282,-234"/>
</g>
<!-- Node28 -->
<g id="node28" class="node"><title>Node28</title>
<g id="a_node28"><a xlink:href="classscram_1_1core_1_1Preprocessor.xhtml#afbce0b5c45a445c3b70ae298b9518281" target="_top" xlink:title="Determines modules from original gates that have been already timed. ">
<polygon fill="white" stroke="black" points="518.5,-119.5 518.5,-149.5 650.5,-149.5 650.5,-119.5 518.5,-119.5"/>
<text text-anchor="start" x="526.5" y="-137.5" font-family="Helvetica,sans-Serif" font-size="10.00">scram::core::Preprocessor</text>
<text text-anchor="middle" x="584.5" y="-126.5" font-family="Helvetica,sans-Serif" font-size="10.00">::FindModules</text>
</a>
</g>
</g>
<!-- Node27&#45;&gt;Node28 -->
<g id="edge35" class="edge"><title>Node27&#45;&gt;Node28</title>
<path fill="none" stroke="midnightblue" d="M436.229,-215.289C466.182,-198.858 514.033,-172.608 547.018,-154.513"/>
<polygon fill="midnightblue" stroke="midnightblue" points="548.816,-157.519 555.9,-149.64 545.45,-151.381 548.816,-157.519"/>
</g>
<!-- Node29 -->
<g id="node29" class="node"><title>Node29</title>
<g id="a_node29"><a xlink:href="classscram_1_1core_1_1Preprocessor.xhtml#a4e97ffcda9c98ffc5aff93214f827c18" target="_top" xlink:title="Processes gate arguments found during the module detection. ">
<polygon fill="white" stroke="black" points="694,-73.5 694,-103.5 826,-103.5 826,-73.5 694,-73.5"/>
<text text-anchor="start" x="702" y="-91.5" font-family="Helvetica,sans-Serif" font-size="10.00">scram::core::Preprocessor</text>
<text text-anchor="middle" x="760" y="-80.5" font-family="Helvetica,sans-Serif" font-size="10.00">::ProcessModularArgs</text>
</a>
</g>
</g>
<!-- Node28&#45;&gt;Node29 -->
<g id="edge36" class="edge"><title>Node28&#45;&gt;Node29</title>
<path fill="none" stroke="midnightblue" d="M642.31,-119.438C658.27,-115.207 675.77,-110.567 692.251,-106.197"/>
<polygon fill="midnightblue" stroke="midnightblue" points="693.589,-109.463 702.358,-103.517 691.795,-102.697 693.589,-109.463"/>
</g>
<!-- Node30 -->
<g id="node30" class="node"><title>Node30</title>
<g id="a_node30"><a xlink:href="classscram_1_1core_1_1Preprocessor.xhtml#a434534b6a7c3fccc82c073e6aced90b1" target="_top" xlink:title="Creates a new module as an argument of an existing gate if the logic of the existing parent gate allo...">
<polygon fill="white" stroke="black" points="1034,-120.5 1034,-150.5 1166,-150.5 1166,-120.5 1034,-120.5"/>
<text text-anchor="start" x="1042" y="-138.5" font-family="Helvetica,sans-Serif" font-size="10.00">scram::core::Preprocessor</text>
<text text-anchor="middle" x="1100" y="-127.5" font-family="Helvetica,sans-Serif" font-size="10.00">::CreateNewModule</text>
</a>
</g>
</g>
<!-- Node29&#45;&gt;Node30 -->
<g id="edge37" class="edge"><title>Node29&#45;&gt;Node30</title>
<path fill="none" stroke="midnightblue" d="M807.304,-103.531C815.018,-106.528 822.835,-109.88 830,-113.5 847.164,-122.171 847.595,-131.928 866,-137.5 917.13,-152.981 977.512,-151.958 1023.99,-147.338"/>
<polygon fill="midnightblue" stroke="midnightblue" points="1024.42,-150.813 1033.99,-146.268 1023.68,-143.852 1024.42,-150.813"/>
</g>
<!-- Node31 -->
<g id="node31" class="node"><title>Node31</title>
<g id="a_node31"><a xlink:href="classscram_1_1core_1_1Preprocessor.xhtml#aa65bdffb78291a0e41a34d34bf3fa198" target="_top" xlink:title="Checks if a group of modular arguments share anything with non&#45;modular arguments. ...">
<polygon fill="white" stroke="black" points="866,-49.5 866,-79.5 998,-79.5 998,-49.5 866,-49.5"/>
<text text-anchor="start" x="874" y="-67.5" font-family="Helvetica,sans-Serif" font-size="10.00">scram::core::Preprocessor</text>
<text text-anchor="middle" x="932" y="-56.5" font-family="Helvetica,sans-Serif" font-size="10.00">::FilterModularArgs</text>
</a>
</g>
</g>
<!-- Node29&#45;&gt;Node31 -->
<g id="edge38" class="edge"><title>Node29&#45;&gt;Node31</title>
<path fill="none" stroke="midnightblue" d="M826.24,-79.2896C835.9,-77.9259 845.92,-76.5113 855.763,-75.1217"/>
<polygon fill="midnightblue" stroke="midnightblue" points="856.522,-78.5494 865.934,-73.6857 855.543,-71.6181 856.522,-78.5494"/>
</g>
<!-- Node32 -->
<g id="node32" class="node"><title>Node32</title>
<g id="a_node32"><a xlink:href="classscram_1_1core_1_1Preprocessor.xhtml#a5c10e807e558b06a1573c08ed13e205e" target="_top" xlink:title="Groups modular arguments by their common elements. ">
<polygon fill="white" stroke="black" points="866,-0.5 866,-30.5 998,-30.5 998,-0.5 866,-0.5"/>
<text text-anchor="start" x="874" y="-18.5" font-family="Helvetica,sans-Serif" font-size="10.00">scram::core::Preprocessor</text>
<text text-anchor="middle" x="932" y="-7.5" font-family="Helvetica,sans-Serif" font-size="10.00">::GroupModularArgs</text>
</a>
</g>
</g>
<!-- Node29&#45;&gt;Node32 -->
<g id="edge39" class="edge"><title>Node29&#45;&gt;Node32</title>
<path fill="none" stroke="midnightblue" d="M791.484,-73.4571C812.282,-63.3966 840.564,-50.1093 866,-39.5 870.172,-37.7598 874.52,-36.0134 878.902,-34.3"/>
<polygon fill="midnightblue" stroke="midnightblue" points="880.413,-37.4689 888.495,-30.6173 877.905,-30.9339 880.413,-37.4689"/>
</g>
<!-- Node33 -->
<g id="node33" class="node"><title>Node33</title>
<g id="a_node33"><a xlink:href="classscram_1_1core_1_1Preprocessor.xhtml#affe78b1e830afb73585affe0ada477be" target="_top" xlink:title="Creates new module gates from groups of modular arguments if the logic of the parent gate allows sub&#45;...">
<polygon fill="white" stroke="black" points="866,-98.5 866,-128.5 998,-128.5 998,-98.5 866,-98.5"/>
<text text-anchor="start" x="874" y="-116.5" font-family="Helvetica,sans-Serif" font-size="10.00">scram::core::Preprocessor</text>
<text text-anchor="middle" x="932" y="-105.5" font-family="Helvetica,sans-Serif" font-size="10.00">::CreateNewModules</text>
</a>
</g>
</g>
<!-- Node29&#45;&gt;Node33 -->
<g id="edge40" class="edge"><title>Node29&#45;&gt;Node33</title>
<path fill="none" stroke="midnightblue" d="M826.24,-98.0942C835.9,-99.5147 845.92,-100.988 855.763,-102.436"/>
<polygon fill="midnightblue" stroke="midnightblue" points="855.531,-105.939 865.934,-103.932 856.55,-99.0137 855.531,-105.939"/>
</g>
<!-- Node33&#45;&gt;Node30 -->
<g id="edge41" class="edge"><title>Node33&#45;&gt;Node30</title>
<path fill="none" stroke="midnightblue" d="M998.131,-122.132C1006.55,-123.248 1015.23,-124.398 1023.8,-125.534"/>
<polygon fill="midnightblue" stroke="midnightblue" points="1023.41,-129.013 1033.78,-126.857 1024.33,-122.073 1023.41,-129.013"/>
</g>
<!-- Node35&#45;&gt;Node4 -->
<g id="edge46" class="edge"><title>Node35&#45;&gt;Node4</title>
<path fill="none" stroke="midnightblue" d="M644.724,-597.481C659.299,-593.784 675.031,-589.795 690.023,-585.993"/>
<polygon fill="midnightblue" stroke="midnightblue" points="690.916,-589.377 699.749,-583.526 689.195,-582.592 690.916,-589.377"/>
</g>
<!-- Node35&#45;&gt;Node21 -->
<g id="edge45" class="edge"><title>Node35&#45;&gt;Node21</title>
<path fill="none" stroke="midnightblue" d="M654.066,-615.194C704.004,-615.182 772.654,-611.026 830,-592.5 857.168,-583.723 884.691,-566.422 904.129,-552.48"/>
<polygon fill="midnightblue" stroke="midnightblue" points="906.214,-555.292 912.201,-546.55 902.07,-549.651 906.214,-555.292"/>
</g>
<!-- Node35&#45;&gt;Node23 -->
<g id="edge47" class="edge"><title>Node35&#45;&gt;Node23</title>
<path fill="none" stroke="midnightblue" d="M608.203,-627.668C636.325,-646.396 681.572,-676.301 690,-680.5 694.266,-682.625 698.758,-684.664 703.32,-686.594"/>
<polygon fill="midnightblue" stroke="midnightblue" points="702.147,-689.896 712.73,-690.401 704.772,-683.406 702.147,-689.896"/>
</g>
<!-- Node36 -->
<g id="node36" class="node"><title>Node36</title>
<g id="a_node36"><a xlink:href="classscram_1_1core_1_1Preprocessor.xhtml#ae0bdf196274427420631bc20f95cb72a" target="_top" xlink:title="Traverses the Boolean graph to collect multiple definitions of gates. ">
<polygon fill="white" stroke="black" points="694,-641.5 694,-671.5 826,-671.5 826,-641.5 694,-641.5"/>
<text text-anchor="start" x="702" y="-659.5" font-family="Helvetica,sans-Serif" font-size="10.00">scram::core::Preprocessor</text>
<text text-anchor="middle" x="760" y="-648.5" font-family="Helvetica,sans-Serif" font-size="10.00">::DetectMultipleDefinitions</text>
</a>
</g>
</g>
<!-- Node35&#45;&gt;Node36 -->
<g id="edge44" class="edge"><title>Node35&#45;&gt;Node36</title>
<path fill="none" stroke="midnightblue" d="M644.724,-627.519C659.299,-631.216 675.031,-635.205 690.023,-639.007"/>
<polygon fill="midnightblue" stroke="midnightblue" points="689.195,-642.408 699.749,-641.474 690.916,-635.623 689.195,-642.408"/>
</g>
</g>
</svg>
