<?xml version="1.0" encoding="UTF-8" standalone="no"?>
<!DOCTYPE svg PUBLIC "-//W3C//DTD SVG 1.1//EN"
 "http://www.w3.org/Graphics/SVG/1.1/DTD/svg11.dtd">
<!-- Generated by graphviz version 2.38.0 (20140413.2041)
 -->
<!-- Title: scram::core::Preprocessor::RunPhaseOne Pages: 1 -->
<!--zoomable 234 -->
<svg id="main" version="1.1" xmlns="http://www.w3.org/2000/svg" xmlns:xlink="http://www.w3.org/1999/xlink" xml:space="preserve" onload="init(evt)">
<style type="text/css"><![CDATA[
.edge:hover path { stroke: red; }
.edge:hover polygon { stroke: red; fill: red; }
]]></style>
<script type="text/javascript"><![CDATA[
var edges = document.getElementsByTagName('g');
if (edges && edges.length) {
  for (var i=0;i<edges.length;i++) {
    if (edges[i].id.substr(0,4)=='edge') {
      edges[i].setAttribute('class','edge');
    }
  }
}
]]></script>
        <defs>
                <circle id="rim" cx="0" cy="0" r="7"/>
                <circle id="rim2" cx="0" cy="0" r="3.5"/>
                <g id="zoomPlus">
                        <use xlink:href="#rim" fill="#404040">
                                <set attributeName="fill" to="#808080" begin="zoomplus.mouseover" end="zoomplus.mouseout"/>
                        </use>
                        <path d="M-4,0h8M0,-4v8" fill="none" stroke="white" stroke-width="1.5" pointer-events="none"/>
                </g>
                <g id="zoomMin">
                        <use xlink:href="#rim" fill="#404040">
                                <set attributeName="fill" to="#808080" begin="zoomminus.mouseover" end="zoomminus.mouseout"/>
                        </use>
                        <path d="M-4,0h8" fill="none" stroke="white" stroke-width="1.5" pointer-events="none"/>
                </g>
                <g id="dirArrow">
                        <path fill="none" stroke="white" stroke-width="1.5" d="M0,-3.0v7 M-2.5,-0.5L0,-3.0L2.5,-0.5"/>
                </g>
               <g id="resetDef">
                       <use xlink:href="#rim2" fill="#404040">
                               <set attributeName="fill" to="#808080" begin="reset.mouseover" end="reset.mouseout"/>
                       </use>
               </g>
        </defs>

<script type="text/javascript">
var viewWidth = 838;
var viewHeight = 234;
var sectionId = 'dynsection-3';
</script>
<script xlink:href="svgpan.js"/>
<svg id="graph" class="graph">
<g id="viewport">
<title>scram::core::Preprocessor::RunPhaseOne</title>
<polygon fill="white" stroke="none" points="-4,4 -4,-230 834,-230 834,4 -4,4"/>
<!-- Node1 -->
<g id="node1" class="node"><title>Node1</title>
<polygon fill="#bfbfbf" stroke="black" points="0,-73.5 0,-103.5 132,-103.5 132,-73.5 0,-73.5"/>
<text text-anchor="start" x="8" y="-91.5" font-family="Helvetica,sans-Serif" font-size="10.00">scram::core::Preprocessor</text>
<text text-anchor="middle" x="66" y="-80.5" font-family="Helvetica,sans-Serif" font-size="10.00">::RunPhaseOne</text>
</g>
<!-- Node2 -->
<g id="node2" class="node"><title>Node2</title>
<g id="a_node2"><a xlink:href="classscram_1_1core_1_1Preprocessor.xhtml#a3f1b4becb281bc02b61e8f72595a0666" target="_top" xlink:title="Checks the root gate of the graph for further processing. ">
<polygon fill="white" stroke="black" points="168,-147.5 168,-177.5 300,-177.5 300,-147.5 168,-147.5"/>
<text text-anchor="start" x="176" y="-165.5" font-family="Helvetica,sans-Serif" font-size="10.00">scram::core::Preprocessor</text>
<text text-anchor="middle" x="234" y="-154.5" font-family="Helvetica,sans-Serif" font-size="10.00">::CheckRootGate</text>
</a>
</g>
</g>
<!-- Node1&#45;&gt;Node2 -->
<g id="edge1" class="edge"><title>Node1&#45;&gt;Node2</title>
<path fill="none" stroke="midnightblue" d="M96.305,-103.53C116.303,-113.585 143.506,-126.871 168,-137.5 172.731,-139.553 177.69,-141.616 182.67,-143.629"/>
<polygon fill="midnightblue" stroke="midnightblue" points="181.632,-146.982 192.218,-147.421 184.216,-140.477 181.632,-146.982"/>
</g>
<!-- Node3 -->
<g id="node3" class="node"><title>Node3</title>
<g id="a_node3"><a xlink:href="classscram_1_1core_1_1Preprocessor.xhtml#ad13e133278ea7563c1ba037c05c35aa2" target="_top" xlink:title="Normalizes the gates of the whole Boolean graph into OR, AND gates. ">
<polygon fill="white" stroke="black" points="168,-98.5 168,-128.5 300,-128.5 300,-98.5 168,-98.5"/>
<text text-anchor="start" x="176" y="-116.5" font-family="Helvetica,sans-Serif" font-size="10.00">scram::core::Preprocessor</text>
<text text-anchor="middle" x="234" y="-105.5" font-family="Helvetica,sans-Serif" font-size="10.00">::NormalizeGates</text>
</a>
</g>
</g>
<!-- Node1&#45;&gt;Node3 -->
<g id="edge2" class="edge"><title>Node1&#45;&gt;Node3</title>
<path fill="none" stroke="midnightblue" d="M132.131,-98.3089C140.553,-99.5773 149.232,-100.884 157.8,-102.175"/>
<polygon fill="midnightblue" stroke="midnightblue" points="157.374,-105.65 167.784,-103.678 158.417,-98.7281 157.374,-105.65"/>
</g>
<!-- Node13 -->
<g id="node13" class="node"><title>Node13</title>
<g id="a_node13"><a xlink:href="classscram_1_1core_1_1Preprocessor.xhtml#a9a75384aa66719901b61bbc0a2117470" target="_top" xlink:title="Removes all Boolean constants from the Boolean graph according to the Boolean logic of the gates...">
<polygon fill="white" stroke="black" points="168,-0.5 168,-30.5 300,-30.5 300,-0.5 168,-0.5"/>
<text text-anchor="start" x="176" y="-18.5" font-family="Helvetica,sans-Serif" font-size="10.00">scram::core::Preprocessor</text>
<text text-anchor="middle" x="234" y="-7.5" font-family="Helvetica,sans-Serif" font-size="10.00">::RemoveConstants</text>
</a>
</g>
</g>
<!-- Node1&#45;&gt;Node13 -->
<g id="edge13" class="edge"><title>Node1&#45;&gt;Node13</title>
<path fill="none" stroke="midnightblue" d="M96.2589,-73.3629C116.237,-63.2614 143.435,-49.964 168,-39.5 172.159,-37.7284 176.497,-35.9598 180.873,-34.2315"/>
<polygon fill="midnightblue" stroke="midnightblue" points="182.391,-37.3971 190.456,-30.5267 179.867,-30.8679 182.391,-37.3971"/>
</g>
<!-- Node14 -->
<g id="node14" class="node"><title>Node14</title>
<g id="a_node14"><a xlink:href="classscram_1_1core_1_1Preprocessor.xhtml#aa85dfc5e3a2e7d20bdc22388ff6cf6c8" target="_top" xlink:title="Removes argument gates of NULL type, which means these arg gates have only one argument. ">
<polygon fill="white" stroke="black" points="168,-49.5 168,-79.5 300,-79.5 300,-49.5 168,-49.5"/>
<text text-anchor="start" x="176" y="-67.5" font-family="Helvetica,sans-Serif" font-size="10.00">scram::core::Preprocessor</text>
<text text-anchor="middle" x="234" y="-56.5" font-family="Helvetica,sans-Serif" font-size="10.00">::RemoveNullGates</text>
</a>
</g>
</g>
<!-- Node1&#45;&gt;Node14 -->
<g id="edge15" class="edge"><title>Node1&#45;&gt;Node14</title>
<path fill="none" stroke="midnightblue" d="M132.131,-79.0834C140.553,-77.8658 149.232,-76.611 157.8,-75.3723"/>
<polygon fill="midnightblue" stroke="midnightblue" points="158.388,-78.8238 167.784,-73.9288 157.386,-71.8958 158.388,-78.8238"/>
</g>
<!-- Node4 -->
<g id="node4" class="node"><title>Node4</title>
<g id="a_node4"><a xlink:href="classscram_1_1core_1_1Preprocessor.xhtml#afb4e28af2f1ec12db694af6e93ffbd1d" target="_top" xlink:title="Assigns order for Boolean graph variables. ">
<polygon fill="white" stroke="black" points="349,-195.5 349,-225.5 481,-225.5 481,-195.5 349,-195.5"/>
<text text-anchor="start" x="357" y="-213.5" font-family="Helvetica,sans-Serif" font-size="10.00">scram::core::Preprocessor</text>
<text text-anchor="middle" x="415" y="-202.5" font-family="Helvetica,sans-Serif" font-size="10.00">::AssignOrder</text>
</a>
</g>
</g>
<!-- Node3&#45;&gt;Node4 -->
<g id="edge3" class="edge"><title>Node3&#45;&gt;Node4</title>
<path fill="none" stroke="midnightblue" d="M285.167,-128.614C290.407,-131.174 295.467,-134.121 300,-137.5 321.381,-153.436 314.277,-170.033 336,-185.5 338.722,-187.438 341.602,-189.231 344.587,-190.889"/>
<polygon fill="midnightblue" stroke="midnightblue" points="343.295,-194.156 353.809,-195.47 346.41,-187.887 343.295,-194.156"/>
</g>
<!-- Node6 -->
<g id="node6" class="node"><title>Node6</title>
<g id="a_node6"><a xlink:href="classscram_1_1core_1_1Preprocessor.xhtml#a6ee8f65454835d8de931a2d38bf8b276" target="_top" xlink:title="Notifies all parents of negative gates, such as NOT, NOR, and NAND, before transforming these gates i...">
<polygon fill="white" stroke="black" points="336,-146.5 336,-176.5 494,-176.5 494,-146.5 336,-146.5"/>
<text text-anchor="start" x="344" y="-164.5" font-family="Helvetica,sans-Serif" font-size="10.00">scram::core::Preprocessor</text>
<text text-anchor="middle" x="415" y="-153.5" font-family="Helvetica,sans-Serif" font-size="10.00">::NotifyParentsOfNegativeGates</text>
</a>
</g>
</g>
<!-- Node3&#45;&gt;Node6 -->
<g id="edge5" class="edge"><title>Node3&#45;&gt;Node6</title>
<path fill="none" stroke="midnightblue" d="M291.146,-128.556C309.306,-133.426 329.605,-138.869 348.388,-143.906"/>
<polygon fill="midnightblue" stroke="midnightblue" points="347.488,-147.288 358.054,-146.498 349.301,-140.527 347.488,-147.288"/>
</g>
<!-- Node7 -->
<g id="node7" class="node"><title>Node7</title>
<g id="a_node7"><a xlink:href="classscram_1_1core_1_1Preprocessor.xhtml#abfe2eda90c983750e28db49900a4909d" target="_top" xlink:title="Normalizes complex gates into OR, AND gates. ">
<polygon fill="white" stroke="black" points="349,-97.5 349,-127.5 481,-127.5 481,-97.5 349,-97.5"/>
<text text-anchor="start" x="357" y="-115.5" font-family="Helvetica,sans-Serif" font-size="10.00">scram::core::Preprocessor</text>
<text text-anchor="middle" x="415" y="-104.5" font-family="Helvetica,sans-Serif" font-size="10.00">::NormalizeGate</text>
</a>
</g>
</g>
<!-- Node3&#45;&gt;Node7 -->
<g id="edge6" class="edge"><title>Node3&#45;&gt;Node7</title>
<path fill="none" stroke="midnightblue" d="M300.129,-113.136C312.671,-113.066 325.903,-112.992 338.735,-112.92"/>
<polygon fill="midnightblue" stroke="midnightblue" points="338.939,-116.419 348.919,-112.864 338.9,-109.42 338.939,-116.419"/>
</g>
<!-- Node10 -->
<g id="node10" class="node"><title>Node10</title>
<g id="a_node10"><a xlink:href="classscram_1_1core_1_1Preprocessor.xhtml#ae483f228040c0d2422792c9cf0d05886" target="_top" xlink:title="Clears all NULL type gates registered for removal by algorithms or other preprocessing functions...">
<polygon fill="white" stroke="black" points="349,-48.5 349,-78.5 481,-78.5 481,-48.5 349,-48.5"/>
<text text-anchor="start" x="357" y="-66.5" font-family="Helvetica,sans-Serif" font-size="10.00">scram::core::Preprocessor</text>
<text text-anchor="middle" x="415" y="-55.5" font-family="Helvetica,sans-Serif" font-size="10.00">::ClearNullGates</text>
</a>
</g>
</g>
<!-- Node3&#45;&gt;Node10 -->
<g id="edge9" class="edge"><title>Node3&#45;&gt;Node10</title>
<path fill="none" stroke="midnightblue" d="M288.706,-98.4984C308.087,-93.0846 330.149,-86.922 350.303,-81.2925"/>
<polygon fill="midnightblue" stroke="midnightblue" points="351.333,-84.6387 360.023,-78.5774 349.45,-77.8968 351.333,-84.6387"/>
</g>
<!-- Node5 -->
<g id="node5" class="node"><title>Node5</title>
<g id="a_node5"><a xlink:href="classscram_1_1core_1_1Preprocessor.xhtml#ada629022465a68893952232659d41e11" target="_top" xlink:title="Assigns topological ordering to nodes of the Boolean Graph. ">
<polygon fill="white" stroke="black" points="530,-195.5 530,-225.5 662,-225.5 662,-195.5 530,-195.5"/>
<text text-anchor="start" x="538" y="-213.5" font-family="Helvetica,sans-Serif" font-size="10.00">scram::core::Preprocessor</text>
<text text-anchor="middle" x="596" y="-202.5" font-family="Helvetica,sans-Serif" font-size="10.00">::TopologicalOrder</text>
</a>
</g>
</g>
<!-- Node4&#45;&gt;Node5 -->
<g id="edge4" class="edge"><title>Node4&#45;&gt;Node5</title>
<path fill="none" stroke="midnightblue" d="M481.129,-210.5C493.671,-210.5 506.903,-210.5 519.735,-210.5"/>
<polygon fill="midnightblue" stroke="midnightblue" points="519.919,-214 529.919,-210.5 519.919,-207 519.919,-214"/>
</g>
<!-- Node8 -->
<g id="node8" class="node"><title>Node8</title>
<g id="a_node8"><a xlink:href="classscram_1_1core_1_1Preprocessor.xhtml#a45cf08c3809e801be50eda53dd68fca6" target="_top" xlink:title="Normalizes a gate with XOR logic. ">
<polygon fill="white" stroke="black" points="530,-144.5 530,-174.5 662,-174.5 662,-144.5 530,-144.5"/>
<text text-anchor="start" x="538" y="-162.5" font-family="Helvetica,sans-Serif" font-size="10.00">scram::core::Preprocessor</text>
<text text-anchor="middle" x="596" y="-151.5" font-family="Helvetica,sans-Serif" font-size="10.00">::NormalizeXorGate</text>
</a>
</g>
</g>
<!-- Node7&#45;&gt;Node8 -->
<g id="edge7" class="edge"><title>Node7&#45;&gt;Node8</title>
<path fill="none" stroke="midnightblue" d="M473.129,-127.5C490.567,-132.079 509.901,-137.155 527.935,-141.891"/>
<polygon fill="midnightblue" stroke="midnightblue" points="527.239,-145.327 537.8,-144.481 529.017,-138.556 527.239,-145.327"/>
</g>
<!-- Node9 -->
<g id="node9" class="node"><title>Node9</title>
<g id="a_node9"><a xlink:href="classscram_1_1core_1_1Preprocessor.xhtml#a56b5719bcfcfd1678928befe31d9b729" target="_top" xlink:title="Normalizes a VOTE gate with a vote number. ">
<polygon fill="white" stroke="black" points="530,-95.5 530,-125.5 662,-125.5 662,-95.5 530,-95.5"/>
<text text-anchor="start" x="538" y="-113.5" font-family="Helvetica,sans-Serif" font-size="10.00">scram::core::Preprocessor</text>
<text text-anchor="middle" x="596" y="-102.5" font-family="Helvetica,sans-Serif" font-size="10.00">::NormalizeVoteGate</text>
</a>
</g>
</g>
<!-- Node7&#45;&gt;Node9 -->
<g id="edge8" class="edge"><title>Node7&#45;&gt;Node9</title>
<path fill="none" stroke="midnightblue" d="M481.129,-111.772C493.671,-111.632 506.903,-111.484 519.735,-111.341"/>
<polygon fill="midnightblue" stroke="midnightblue" points="519.959,-114.839 529.919,-111.227 519.881,-107.839 519.959,-114.839"/>
</g>
<!-- Node11 -->
<g id="node11" class="node"><title>Node11</title>
<g id="a_node11"><a xlink:href="classscram_1_1core_1_1Preprocessor.xhtml#a860e7142f3e0b33ca799f1d8218eb091" target="_top" xlink:title="Propagate NULL type gates bottom&#45;up. ">
<polygon fill="white" stroke="black" points="530,-45.5 530,-75.5 662,-75.5 662,-45.5 530,-45.5"/>
<text text-anchor="start" x="538" y="-63.5" font-family="Helvetica,sans-Serif" font-size="10.00">scram::core::Preprocessor</text>
<text text-anchor="middle" x="596" y="-52.5" font-family="Helvetica,sans-Serif" font-size="10.00">::PropagateNullGate</text>
</a>
</g>
</g>
<!-- Node10&#45;&gt;Node11 -->
<g id="edge10" class="edge"><title>Node10&#45;&gt;Node11</title>
<path fill="none" stroke="midnightblue" d="M481.129,-62.4084C493.671,-62.1983 506.903,-61.9765 519.735,-61.7614"/>
<polygon fill="midnightblue" stroke="midnightblue" points="519.979,-65.2579 529.919,-61.5907 519.862,-58.2589 519.979,-65.2579"/>
</g>
<!-- Node12 -->
<g id="node12" class="node"><title>Node12</title>
<g id="a_node12"><a xlink:href="classscram_1_1core_1_1Preprocessor.xhtml#a4931fe17580d91b31d8c2077f64dc728" target="_top" xlink:title="Propagates a Boolean constant bottom&#45;up. ">
<polygon fill="white" stroke="black" points="698,-45.5 698,-75.5 830,-75.5 830,-45.5 698,-45.5"/>
<text text-anchor="start" x="706" y="-63.5" font-family="Helvetica,sans-Serif" font-size="10.00">scram::core::Preprocessor</text>
<text text-anchor="middle" x="764" y="-52.5" font-family="Helvetica,sans-Serif" font-size="10.00">::PropagateConstant</text>
</a>
</g>
</g>
<!-- Node11&#45;&gt;Node12 -->
<g id="edge11" class="edge"><title>Node11&#45;&gt;Node12</title>
<path fill="none" stroke="midnightblue" d="M662.131,-53.891C670.461,-53.7577 679.044,-53.7189 687.521,-53.7747"/>
<polygon fill="midnightblue" stroke="midnightblue" points="687.746,-57.2773 697.784,-53.8897 687.824,-50.2778 687.746,-57.2773"/>
</g>
<!-- Node12&#45;&gt;Node11 -->
<g id="edge12" class="edge"><title>Node12&#45;&gt;Node11</title>
<path fill="none" stroke="midnightblue" d="M697.784,-67.1103C689.452,-67.243 680.869,-67.2812 672.393,-67.2247"/>
<polygon fill="midnightblue" stroke="midnightblue" points="672.17,-63.7221 662.131,-67.109 672.091,-70.7216 672.17,-63.7221"/>
</g>
<!-- Node13&#45;&gt;Node12 -->
<g id="edge14" class="edge"><title>Node13&#45;&gt;Node12</title>
<path fill="none" stroke="midnightblue" d="M300.122,-14.6057C384.181,-14.3521 534.77,-16.9568 662,-35.5 674.624,-37.3398 687.969,-40.0671 700.676,-43.0521"/>
<polygon fill="midnightblue" stroke="midnightblue" points="700.161,-46.5288 710.705,-45.4893 701.814,-39.7268 700.161,-46.5288"/>
</g>
<!-- Node14&#45;&gt;Node10 -->
<g id="edge16" class="edge"><title>Node14&#45;&gt;Node10</title>
<path fill="none" stroke="midnightblue" d="M300.129,-64.1361C312.671,-64.0661 325.903,-63.9922 338.735,-63.9205"/>
<polygon fill="midnightblue" stroke="midnightblue" points="338.939,-67.4195 348.919,-63.8636 338.9,-60.4196 338.939,-67.4195"/>
</g>
</g>
</svg>
        <g id="navigator" transform="translate(0 0)" fill="#404254">
                <rect fill="#f2f5e9" fill-opacity="0.5" stroke="#606060" stroke-width=".5" x="0" y="0" width="60" height="60"/>
                <use id="zoomplus" xlink:href="#zoomPlus" x="17" y="9" onmousedown="handleZoom(evt,'in')"/>
                <use id="zoomminus" xlink:href="#zoomMin" x="42" y="9" onmousedown="handleZoom(evt,'out')"/>
                <use id="reset" xlink:href="#resetDef" x="30" y="36" onmousedown="handleReset()"/>
                <g id="arrowUp" xlink:href="#dirArrow" transform="translate(30 24)" onmousedown="handlePan(0,-1)">
                  <use xlink:href="#rim" fill="#404040">
                        <set attributeName="fill" to="#808080" begin="arrowUp.mouseover" end="arrowUp.mouseout"/>
                  </use>
                  <path fill="none" stroke="white" stroke-width="1.5" d="M0,-3.0v7 M-2.5,-0.5L0,-3.0L2.5,-0.5"/>
                </g>
                <g id="arrowRight" xlink:href="#dirArrow" transform="rotate(90) translate(36 -43)" onmousedown="handlePan(1,0)">
                  <use xlink:href="#rim" fill="#404040">
                        <set attributeName="fill" to="#808080" begin="arrowRight.mouseover" end="arrowRight.mouseout"/>
                  </use>
                  <path fill="none" stroke="white" stroke-width="1.5" d="M0,-3.0v7 M-2.5,-0.5L0,-3.0L2.5,-0.5"/>
                </g>
                <g id="arrowDown" xlink:href="#dirArrow" transform="rotate(180) translate(-30 -48)" onmousedown="handlePan(0,1)">
                  <use xlink:href="#rim" fill="#404040">
                        <set attributeName="fill" to="#808080" begin="arrowDown.mouseover" end="arrowDown.mouseout"/>
                  </use>
                  <path fill="none" stroke="white" stroke-width="1.5" d="M0,-3.0v7 M-2.5,-0.5L0,-3.0L2.5,-0.5"/>
                </g>
                <g id="arrowLeft" xlink:href="#dirArrow" transform="rotate(270) translate(-36 17)" onmousedown="handlePan(-1,0)">
                  <use xlink:href="#rim" fill="#404040">
                        <set attributeName="fill" to="#808080" begin="arrowLeft.mouseover" end="arrowLeft.mouseout"/>
                  </use>
                  <path fill="none" stroke="white" stroke-width="1.5" d="M0,-3.0v7 M-2.5,-0.5L0,-3.0L2.5,-0.5"/>
                </g>
        </g>
        <svg viewBox="0 0 15 15" width="100%" height="30px" preserveAspectRatio="xMaxYMin meet">
         <g id="arrow_out" transform="scale(0.3 0.3)">
          <a xlink:href="classscram_1_1core_1_1Preprocessor_a44f820b6fe2c23594c818432b33e26a6_cgraph_org.svg" target="_base">
           <rect id="button" ry="5" rx="5" y="6" x="6" height="38" width="38"
                fill="#f2f5e9" fill-opacity="0.5" stroke="#606060" stroke-width="1.0"/>
           <path id="arrow"
             d="M 11.500037,31.436501 C 11.940474,20.09759 22.043105,11.32322 32.158766,21.979434 L 37.068811,17.246167 C 37.068811,17.246167 37.088388,32 37.088388,32 L 22.160133,31.978069 C 22.160133,31.978069 26.997745,27.140456 26.997745,27.140456 C 18.528582,18.264221 13.291696,25.230495 11.500037,31.436501 z"
             style="fill:#404040;"/>
          </a>
         </g>
        </svg>
</svg>
