<?xml version="1.0" encoding="UTF-8" standalone="no"?>
<!DOCTYPE svg PUBLIC "-//W3C//DTD SVG 1.1//EN"
 "http://www.w3.org/Graphics/SVG/1.1/DTD/svg11.dtd">
<!-- Generated by graphviz version 2.38.0 (20140413.2041)
 -->
<!-- Title: scram::core::Settings::approximation Pages: 1 -->
<svg width="652pt" height="176pt"
 viewBox="0.00 0.00 652.00 176.00" xmlns="http://www.w3.org/2000/svg" xmlns:xlink="http://www.w3.org/1999/xlink">
<g id="graph0" class="graph" transform="scale(1 1) rotate(0) translate(4 172)">
<title>scram::core::Settings::approximation</title>
<polygon fill="white" stroke="none" points="-4,4 -4,-172 648,-172 648,4 -4,4"/>
<!-- Node1 -->
<g id="node1" class="node"><title>Node1</title>
<polygon fill="#bfbfbf" stroke="black" points="0,-66.5 0,-96.5 110,-96.5 110,-66.5 0,-66.5"/>
<text text-anchor="start" x="8" y="-84.5" font-family="Helvetica,sans-Serif" font-size="10.00">scram::core::Settings</text>
<text text-anchor="middle" x="55" y="-73.5" font-family="Helvetica,sans-Serif" font-size="10.00">::approximation</text>
</g>
<!-- Node2 -->
<g id="node2" class="node"><title>Node2</title>
<g id="a_node2"><a xlink:href="classscram_1_1core_1_1Settings.xhtml#ad7b46344a4e25e34fa76bc9971f97eb9" target="_top" xlink:title="Sets the algorithm for Qualitative analysis. ">
<polygon fill="white" stroke="black" points="157,-137.5 157,-167.5 267,-167.5 267,-137.5 157,-137.5"/>
<text text-anchor="start" x="165" y="-155.5" font-family="Helvetica,sans-Serif" font-size="10.00">scram::core::Settings</text>
<text text-anchor="middle" x="212" y="-144.5" font-family="Helvetica,sans-Serif" font-size="10.00">::algorithm</text>
</a>
</g>
</g>
<!-- Node1&#45;&gt;Node2 -->
<g id="edge1" class="edge"><title>Node1&#45;&gt;Node2</title>
<path fill="none" stroke="midnightblue" d="M91.894,-101.586C108.174,-110.346 127.816,-120.434 146,-128.5 152.928,-131.573 160.382,-134.587 167.685,-137.385"/>
<polygon fill="midnightblue" stroke="midnightblue" points="93.1907,-98.3077 82.7332,-96.6075 89.848,-104.458 93.1907,-98.3077"/>
</g>
<!-- Node3 -->
<g id="node3" class="node"><title>Node3</title>
<g id="a_node3"><a xlink:href="classscram_1_1core_1_1RiskAnalysis.xhtml#a7aed757ac5a7a96878c2706a7a9710bb" target="_top" xlink:title="Analyzes the model and performs computations specified in the settings. ">
<polygon fill="white" stroke="black" points="146,-88.5 146,-118.5 278,-118.5 278,-88.5 146,-88.5"/>
<text text-anchor="start" x="154" y="-106.5" font-family="Helvetica,sans-Serif" font-size="10.00">scram::core::RiskAnalysis</text>
<text text-anchor="middle" x="212" y="-95.5" font-family="Helvetica,sans-Serif" font-size="10.00">::Analyze</text>
</a>
</g>
</g>
<!-- Node1&#45;&gt;Node3 -->
<g id="edge2" class="edge"><title>Node1&#45;&gt;Node3</title>
<path fill="none" stroke="midnightblue" d="M120.366,-90.6359C128.802,-91.8331 137.45,-93.0607 145.898,-94.2597"/>
<polygon fill="midnightblue" stroke="midnightblue" points="120.604,-87.1346 110.211,-89.1945 119.62,-94.0652 120.604,-87.1346"/>
</g>
<!-- Node6 -->
<g id="node6" class="node"><title>Node6</title>
<g id="a_node6"><a xlink:href="classscram_1_1Config.xhtml#ab0d7940fbb627fab9867821e133eab5d" target="_top" xlink:title="A constructor with configurations for analysis. ">
<polygon fill="white" stroke="black" points="155.5,-50 155.5,-69 268.5,-69 268.5,-50 155.5,-50"/>
<text text-anchor="middle" x="212" y="-57" font-family="Helvetica,sans-Serif" font-size="10.00">scram::Config::Config</text>
</a>
</g>
</g>
<!-- Node1&#45;&gt;Node6 -->
<g id="edge5" class="edge"><title>Node1&#45;&gt;Node6</title>
<path fill="none" stroke="midnightblue" d="M120.28,-72.3764C131.888,-70.7288 143.904,-69.0234 155.243,-67.4139"/>
<polygon fill="midnightblue" stroke="midnightblue" points="119.62,-68.9348 110.211,-73.8055 120.604,-75.8654 119.62,-68.9348"/>
</g>
<!-- Node7 -->
<g id="node7" class="node"><title>Node7</title>
<g id="a_node7"><a xlink:href="classscram_1_1core_1_1Settings.xhtml#a738f782afa0f5dba1ffec83caff540e3" target="_top" xlink:title="Sets a flag to calculate prime implicants instead of minimal cut sets. ">
<polygon fill="white" stroke="black" points="157,-0.5 157,-30.5 267,-30.5 267,-0.5 157,-0.5"/>
<text text-anchor="start" x="165" y="-18.5" font-family="Helvetica,sans-Serif" font-size="10.00">scram::core::Settings</text>
<text text-anchor="middle" x="212" y="-7.5" font-family="Helvetica,sans-Serif" font-size="10.00">::prime_implicants</text>
</a>
</g>
</g>
<!-- Node1&#45;&gt;Node7 -->
<g id="edge6" class="edge"><title>Node1&#45;&gt;Node7</title>
<path fill="none" stroke="midnightblue" d="M97.0537,-62.1678C112.331,-55.1404 129.873,-47.2674 146,-40.5 153.916,-37.1783 162.44,-33.7761 170.627,-30.5936"/>
<polygon fill="midnightblue" stroke="midnightblue" points="95.4738,-59.0422 87.8666,-66.4166 98.4122,-65.3956 95.4738,-59.0422"/>
</g>
<!-- Node4 -->
<g id="node4" class="node"><title>Node4</title>
<g id="a_node4"><a xlink:href="classscram_1_1core_1_1RiskAnalysis.xhtml#a337f7e9fe02b1581e872590d6f7baa01" target="_top" xlink:title="scram::core::RiskAnalysis\l::model">
<polygon fill="white" stroke="black" points="314,-88.5 314,-118.5 446,-118.5 446,-88.5 314,-88.5"/>
<text text-anchor="start" x="322" y="-106.5" font-family="Helvetica,sans-Serif" font-size="10.00">scram::core::RiskAnalysis</text>
<text text-anchor="middle" x="380" y="-95.5" font-family="Helvetica,sans-Serif" font-size="10.00">::model</text>
</a>
</g>
</g>
<!-- Node3&#45;&gt;Node4 -->
<g id="edge3" class="edge"><title>Node3&#45;&gt;Node4</title>
<path fill="none" stroke="midnightblue" d="M288.393,-103.5C296.869,-103.5 305.452,-103.5 313.784,-103.5"/>
<polygon fill="midnightblue" stroke="midnightblue" points="288.131,-100 278.131,-103.5 288.131,-107 288.131,-100"/>
</g>
<!-- Node5 -->
<g id="node5" class="node"><title>Node5</title>
<g id="a_node5"><a xlink:href="reporter_8cc.xhtml#ad6460094a94fb73e56c2a4a5efc598ed" target="_top" xlink:title="Describes all performed analyses deduced from settings. ">
<polygon fill="white" stroke="black" points="482,-88.5 482,-118.5 644,-118.5 644,-88.5 482,-88.5"/>
<text text-anchor="start" x="490" y="-106.5" font-family="Helvetica,sans-Serif" font-size="10.00">scram::ReportCalculatedQuantity</text>
<text text-anchor="middle" x="563" y="-95.5" font-family="Helvetica,sans-Serif" font-size="10.00">&lt; core::RiskAnalysis &gt;</text>
</a>
</g>
</g>
<!-- Node4&#45;&gt;Node5 -->
<g id="edge4" class="edge"><title>Node4&#45;&gt;Node5</title>
<path fill="none" stroke="midnightblue" d="M456.239,-103.5C464.65,-103.5 473.243,-103.5 481.714,-103.5"/>
<polygon fill="midnightblue" stroke="midnightblue" points="456.089,-100 446.089,-103.5 456.089,-107 456.089,-100"/>
</g>
</g>
</svg>
