<?xml version="1.0" encoding="UTF-8" standalone="no"?>
<!DOCTYPE svg PUBLIC "-//W3C//DTD SVG 1.1//EN"
 "http://www.w3.org/Graphics/SVG/1.1/DTD/svg11.dtd">
<!-- Generated by graphviz version 2.38.0 (20140413.2041)
 -->
<!-- Title: scram::mef::Role::role Pages: 1 -->
<svg width="430pt" height="175pt"
 viewBox="0.00 0.00 430.00 175.00" xmlns="http://www.w3.org/2000/svg" xmlns:xlink="http://www.w3.org/1999/xlink">
<g id="graph0" class="graph" transform="scale(1 1) rotate(0) translate(4 171)">
<title>scram::mef::Role::role</title>
<polygon fill="white" stroke="none" points="-4,4 -4,-171 426,-171 426,4 -4,4"/>
<!-- Node1 -->
<g id="node1" class="node"><title>Node1</title>
<polygon fill="#bfbfbf" stroke="black" points="0,-87.5 0,-106.5 114,-106.5 114,-87.5 0,-87.5"/>
<text text-anchor="middle" x="57" y="-94.5" font-family="Helvetica,sans-Serif" font-size="10.00">scram::mef::Role::role</text>
</g>
<!-- Node2 -->
<g id="node2" class="node"><title>Node2</title>
<g id="a_node2"><a xlink:href="classscram_1_1mef_1_1Id.xhtml#a170b11fbe61285a335f0908f96b02d59" target="_top" xlink:title="Mangles the element name to be unique. ">
<polygon fill="white" stroke="black" points="162,-147.5 162,-166.5 257,-166.5 257,-147.5 162,-147.5"/>
<text text-anchor="middle" x="209.5" y="-154.5" font-family="Helvetica,sans-Serif" font-size="10.00">scram::mef::Id::Id</text>
</a>
</g>
</g>
<!-- Node1&#45;&gt;Node2 -->
<g id="edge1" class="edge"><title>Node1&#45;&gt;Node2</title>
<path fill="none" stroke="midnightblue" d="M91.2764,-110.266C119.412,-121.483 159.057,-137.288 184.266,-147.339"/>
<polygon fill="midnightblue" stroke="midnightblue" points="92.4324,-106.959 81.8472,-106.507 89.84,-113.462 92.4324,-106.959"/>
</g>
<!-- Node3 -->
<g id="node3" class="node"><title>Node3</title>
<g id="a_node3"><a xlink:href="classscram_1_1mef_1_1Parameter.xhtml#adc65022ef0cc3955e9bb81d63a437809" target="_top" xlink:title="Creates a parameter as a variable for future references. ">
<polygon fill="white" stroke="black" points="305,-123 305,-153 422,-153 422,-123 305,-123"/>
<text text-anchor="start" x="313" y="-141" font-family="Helvetica,sans-Serif" font-size="10.00">scram::mef::Parameter</text>
<text text-anchor="middle" x="363.5" y="-130" font-family="Helvetica,sans-Serif" font-size="10.00">::Parameter</text>
</a>
</g>
</g>
<!-- Node1&#45;&gt;Node3 -->
<g id="edge5" class="edge"><title>Node1&#45;&gt;Node3</title>
<path fill="none" stroke="midnightblue" d="M124.343,-105.933C178.213,-113.186 253.414,-123.312 304.812,-130.233"/>
<polygon fill="midnightblue" stroke="midnightblue" points="124.582,-102.434 114.205,-104.568 123.648,-109.371 124.582,-102.434"/>
</g>
<!-- Node4 -->
<g id="node4" class="node"><title>Node4</title>
<g id="a_node4"><a xlink:href="classscram_1_1mef_1_1Initializer.xhtml#a8fb6959baa83f7619b3ca9ed8423d40a" target="_top" xlink:title="Reads input files with the structure of analysis constructs. ">
<polygon fill="white" stroke="black" points="154,-60 154,-90 265,-90 265,-60 154,-60"/>
<text text-anchor="start" x="162" y="-78" font-family="Helvetica,sans-Serif" font-size="10.00">scram::mef::Initializer</text>
<text text-anchor="middle" x="209.5" y="-67" font-family="Helvetica,sans-Serif" font-size="10.00">::Initializer</text>
</a>
</g>
</g>
<!-- Node1&#45;&gt;Node4 -->
<g id="edge3" class="edge"><title>Node1&#45;&gt;Node4</title>
<path fill="none" stroke="midnightblue" d="M123.946,-87.36C133.953,-85.8972 144.183,-84.4018 153.913,-82.9794"/>
<polygon fill="midnightblue" stroke="midnightblue" points="123.429,-83.8983 114.041,-88.808 124.442,-90.8247 123.429,-83.8983"/>
</g>
<!-- Node5 -->
<g id="node5" class="node"><title>Node5</title>
<g id="a_node5"><a xlink:href="structscram_1_1mef_1_1Initializer_1_1Extractor_3_01Histogram_00-1_01_4.xhtml#ac0e94ff09dd707d3c253937a172e7fc7" target="_top" xlink:title="Constructs Histogram deviate expression expression arguments in XML elements. ">
<polygon fill="white" stroke="black" points="150,-0.5 150,-41.5 269,-41.5 269,-0.5 150,-0.5"/>
<text text-anchor="start" x="158" y="-29.5" font-family="Helvetica,sans-Serif" font-size="10.00">scram::mef::Initializer</text>
<text text-anchor="start" x="158" y="-18.5" font-family="Helvetica,sans-Serif" font-size="10.00">::Extractor&lt; Histogram,</text>
<text text-anchor="middle" x="209.5" y="-7.5" font-family="Helvetica,sans-Serif" font-size="10.00">&#45;1 &gt;::operator()</text>
</a>
</g>
</g>
<!-- Node1&#45;&gt;Node5 -->
<g id="edge4" class="edge"><title>Node1&#45;&gt;Node5</title>
<path fill="none" stroke="midnightblue" d="M86.268,-82.7251C109.258,-71.1156 142,-54.5814 167.811,-41.5471"/>
<polygon fill="midnightblue" stroke="midnightblue" points="84.4096,-79.7426 77.0609,-87.3745 87.5651,-85.9911 84.4096,-79.7426"/>
</g>
<!-- Node2&#45;&gt;Node3 -->
<g id="edge2" class="edge"><title>Node2&#45;&gt;Node3</title>
<path fill="none" stroke="midnightblue" d="M267.417,-149.885C279.641,-148.357 292.569,-146.741 304.822,-145.21"/>
<polygon fill="midnightblue" stroke="midnightblue" points="266.834,-146.431 257.345,-151.144 267.702,-153.377 266.834,-146.431"/>
</g>
</g>
</svg>
