<?xml version="1.0" encoding="UTF-8" standalone="no"?>
<!DOCTYPE svg PUBLIC "-//W3C//DTD SVG 1.1//EN"
 "http://www.w3.org/Graphics/SVG/1.1/DTD/svg11.dtd">
<!-- Generated by graphviz version 2.38.0 (20140413.2041)
 -->
<!-- Title: scram::mef::NodeMark::mark Pages: 1 -->
<svg width="280pt" height="99pt"
 viewBox="0.00 0.00 280.00 98.50" xmlns="http://www.w3.org/2000/svg" xmlns:xlink="http://www.w3.org/1999/xlink">
<g id="graph0" class="graph" transform="scale(1 1) rotate(0) translate(4 94.5)">
<title>scram::mef::NodeMark::mark</title>
<polygon fill="white" stroke="none" points="-4,4 -4,-94.5 276,-94.5 276,4 -4,4"/>
<!-- Node1 -->
<g id="node1" class="node"><title>Node1</title>
<polygon fill="#bfbfbf" stroke="black" points="0,-33 0,-63 117,-63 117,-33 0,-33"/>
<text text-anchor="start" x="8" y="-51" font-family="Helvetica,sans-Serif" font-size="10.00">scram::mef::NodeMark</text>
<text text-anchor="middle" x="58.5" y="-40" font-family="Helvetica,sans-Serif" font-size="10.00">::mark</text>
</g>
<!-- Node2 -->
<g id="node2" class="node"><title>Node2</title>
<g id="a_node2"><a xlink:href="classscram_1_1mef_1_1FaultTree.xhtml#a9535bd49edb4598ead887faf8dadd9f2" target="_top" xlink:title="Collects top event gates in this fault tree with components. ">
<polygon fill="white" stroke="black" points="156,-60 156,-90 269,-90 269,-60 156,-60"/>
<text text-anchor="start" x="164" y="-78" font-family="Helvetica,sans-Serif" font-size="10.00">scram::mef::FaultTree</text>
<text text-anchor="middle" x="212.5" y="-67" font-family="Helvetica,sans-Serif" font-size="10.00">::CollectTopEvents</text>
</a>
</g>
</g>
<!-- Node1&#45;&gt;Node2 -->
<g id="edge1" class="edge"><title>Node1&#45;&gt;Node2</title>
<path fill="none" stroke="midnightblue" d="M127.246,-60.0339C136.782,-61.7277 146.493,-63.4526 155.769,-65.1004"/>
<polygon fill="midnightblue" stroke="midnightblue" points="127.856,-56.5875 117.398,-58.2846 126.632,-63.4796 127.856,-56.5875"/>
</g>
<!-- Node3 -->
<g id="node3" class="node"><title>Node3</title>
<g id="a_node3"><a xlink:href="structscram_1_1mef_1_1Initializer_1_1Extractor_3_01Histogram_00-1_01_4.xhtml#ac0e94ff09dd707d3c253937a172e7fc7" target="_top" xlink:title="Constructs Histogram deviate expression expression arguments in XML elements. ">
<polygon fill="white" stroke="black" points="153,-0.5 153,-41.5 272,-41.5 272,-0.5 153,-0.5"/>
<text text-anchor="start" x="161" y="-29.5" font-family="Helvetica,sans-Serif" font-size="10.00">scram::mef::Initializer</text>
<text text-anchor="start" x="161" y="-18.5" font-family="Helvetica,sans-Serif" font-size="10.00">::Extractor&lt; Histogram,</text>
<text text-anchor="middle" x="212.5" y="-7.5" font-family="Helvetica,sans-Serif" font-size="10.00">&#45;1 &gt;::operator()</text>
</a>
</g>
</g>
<!-- Node1&#45;&gt;Node3 -->
<g id="edge2" class="edge"><title>Node1&#45;&gt;Node3</title>
<path fill="none" stroke="midnightblue" d="M127.282,-35.9597C135.778,-34.4505 144.413,-32.9168 152.755,-31.435"/>
<polygon fill="midnightblue" stroke="midnightblue" points="126.632,-32.5204 117.398,-37.7154 127.856,-39.4125 126.632,-32.5204"/>
</g>
</g>
</svg>
