<?xml version="1.0" encoding="UTF-8" standalone="no"?>
<!DOCTYPE svg PUBLIC "-//W3C//DTD SVG 1.1//EN"
 "http://www.w3.org/Graphics/SVG/1.1/DTD/svg11.dtd">
<!-- Generated by graphviz version 2.38.0 (20140413.2041)
 -->
<!-- Title: scram::mef::Component::components Pages: 1 -->
<svg width="432pt" height="382pt"
 viewBox="0.00 0.00 432.00 382.00" xmlns="http://www.w3.org/2000/svg" xmlns:xlink="http://www.w3.org/1999/xlink">
<g id="graph0" class="graph" transform="scale(1 1) rotate(0) translate(4 378)">
<title>scram::mef::Component::components</title>
<polygon fill="white" stroke="none" points="-4,4 -4,-378 428,-378 428,4 -4,4"/>
<!-- Node1 -->
<g id="node1" class="node"><title>Node1</title>
<polygon fill="#bfbfbf" stroke="black" points="0,-171.5 0,-201.5 122,-201.5 122,-171.5 0,-171.5"/>
<text text-anchor="start" x="8" y="-189.5" font-family="Helvetica,sans-Serif" font-size="10.00">scram::mef::Component</text>
<text text-anchor="middle" x="61" y="-178.5" font-family="Helvetica,sans-Serif" font-size="10.00">::components</text>
</g>
<!-- Node2 -->
<g id="node2" class="node"><title>Node2</title>
<g id="a_node2"><a xlink:href="classscram_1_1mef_1_1Component.xhtml#a1be65078ba5109830655771471d0cdf5" target="_top" xlink:title="Adds a basic event into this component container. ">
<polygon fill="white" stroke="black" points="158,-343.5 158,-373.5 280,-373.5 280,-343.5 158,-343.5"/>
<text text-anchor="start" x="166" y="-361.5" font-family="Helvetica,sans-Serif" font-size="10.00">scram::mef::Component</text>
<text text-anchor="middle" x="219" y="-350.5" font-family="Helvetica,sans-Serif" font-size="10.00">::AddBasicEvent</text>
</a>
</g>
</g>
<!-- Node1&#45;&gt;Node2 -->
<g id="edge1" class="edge"><title>Node1&#45;&gt;Node2</title>
<path fill="none" stroke="midnightblue" d="M68.0881,-201.7C80.6355,-231.233 112.098,-296.774 158,-334.5 159.56,-335.782 161.197,-337.003 162.894,-338.164"/>
<polygon fill="midnightblue" stroke="midnightblue" points="161.4,-341.349 171.777,-343.487 164.997,-335.344 161.4,-341.349"/>
</g>
<!-- Node3 -->
<g id="node3" class="node"><title>Node3</title>
<g id="a_node3"><a xlink:href="classscram_1_1mef_1_1Component.xhtml#a96be4497b7269c094864d096ee0c789c" target="_top" xlink:title="Adds a CCF group and its members into this component container. ">
<polygon fill="white" stroke="black" points="158,-294.5 158,-324.5 280,-324.5 280,-294.5 158,-294.5"/>
<text text-anchor="start" x="166" y="-312.5" font-family="Helvetica,sans-Serif" font-size="10.00">scram::mef::Component</text>
<text text-anchor="middle" x="219" y="-301.5" font-family="Helvetica,sans-Serif" font-size="10.00">::AddCcfGroup</text>
</a>
</g>
</g>
<!-- Node1&#45;&gt;Node3 -->
<g id="edge2" class="edge"><title>Node1&#45;&gt;Node3</title>
<path fill="none" stroke="midnightblue" d="M73.1699,-201.504C89.6526,-222.741 122.405,-261.634 158,-285.5 160.161,-286.949 162.422,-288.332 164.749,-289.65"/>
<polygon fill="midnightblue" stroke="midnightblue" points="163.475,-292.931 173.967,-294.407 166.685,-286.71 163.475,-292.931"/>
</g>
<!-- Node5 -->
<g id="node5" class="node"><title>Node5</title>
<g id="a_node5"><a xlink:href="classscram_1_1mef_1_1Component.xhtml#a223846da8f5f38b27022cdb1143a258e" target="_top" xlink:title="Adds a member component container into this component container. ">
<polygon fill="white" stroke="black" points="158,-245.5 158,-275.5 280,-275.5 280,-245.5 158,-245.5"/>
<text text-anchor="start" x="166" y="-263.5" font-family="Helvetica,sans-Serif" font-size="10.00">scram::mef::Component</text>
<text text-anchor="middle" x="219" y="-252.5" font-family="Helvetica,sans-Serif" font-size="10.00">::AddComponent</text>
</a>
</g>
</g>
<!-- Node1&#45;&gt;Node5 -->
<g id="edge4" class="edge"><title>Node1&#45;&gt;Node5</title>
<path fill="none" stroke="midnightblue" d="M89.3643,-201.681C108.377,-211.997 134.432,-225.681 158,-236.5 161.624,-238.164 165.399,-239.828 169.213,-241.461"/>
<polygon fill="midnightblue" stroke="midnightblue" points="168.132,-244.803 178.708,-245.436 170.835,-238.346 168.132,-244.803"/>
</g>
<!-- Node6 -->
<g id="node6" class="node"><title>Node6</title>
<g id="a_node6"><a xlink:href="classscram_1_1mef_1_1Component.xhtml#a13bc34265c377d54084bda85de38e5ef" target="_top" xlink:title="Adds a gate into this component container. ">
<polygon fill="white" stroke="black" points="158,-196.5 158,-226.5 280,-226.5 280,-196.5 158,-196.5"/>
<text text-anchor="start" x="166" y="-214.5" font-family="Helvetica,sans-Serif" font-size="10.00">scram::mef::Component</text>
<text text-anchor="middle" x="219" y="-203.5" font-family="Helvetica,sans-Serif" font-size="10.00">::AddGate</text>
</a>
</g>
</g>
<!-- Node1&#45;&gt;Node6 -->
<g id="edge5" class="edge"><title>Node1&#45;&gt;Node6</title>
<path fill="none" stroke="midnightblue" d="M122.314,-196.166C130.695,-197.509 139.363,-198.898 147.904,-200.267"/>
<polygon fill="midnightblue" stroke="midnightblue" points="147.419,-203.733 157.847,-201.86 148.527,-196.822 147.419,-203.733"/>
</g>
<!-- Node7 -->
<g id="node7" class="node"><title>Node7</title>
<g id="a_node7"><a xlink:href="classscram_1_1mef_1_1Component.xhtml#af39cf695b8aff1bbc17ee6545e3b33f2" target="_top" xlink:title="Adds a house event into this component container. ">
<polygon fill="white" stroke="black" points="158,-147.5 158,-177.5 280,-177.5 280,-147.5 158,-147.5"/>
<text text-anchor="start" x="166" y="-165.5" font-family="Helvetica,sans-Serif" font-size="10.00">scram::mef::Component</text>
<text text-anchor="middle" x="219" y="-154.5" font-family="Helvetica,sans-Serif" font-size="10.00">::AddHouseEvent</text>
</a>
</g>
</g>
<!-- Node1&#45;&gt;Node7 -->
<g id="edge6" class="edge"><title>Node1&#45;&gt;Node7</title>
<path fill="none" stroke="midnightblue" d="M122.314,-177.221C130.695,-175.932 139.363,-174.598 147.904,-173.284"/>
<polygon fill="midnightblue" stroke="midnightblue" points="148.495,-176.734 157.847,-171.754 147.431,-169.816 148.495,-176.734"/>
</g>
<!-- Node8 -->
<g id="node8" class="node"><title>Node8</title>
<g id="a_node8"><a xlink:href="classscram_1_1mef_1_1Component.xhtml#a5b857d255c4d6471a7c0101c36493c75" target="_top" xlink:title="Adds a parameter into this component container. ">
<polygon fill="white" stroke="black" points="158,-98.5 158,-128.5 280,-128.5 280,-98.5 158,-98.5"/>
<text text-anchor="start" x="166" y="-116.5" font-family="Helvetica,sans-Serif" font-size="10.00">scram::mef::Component</text>
<text text-anchor="middle" x="219" y="-105.5" font-family="Helvetica,sans-Serif" font-size="10.00">::AddParameter</text>
</a>
</g>
</g>
<!-- Node1&#45;&gt;Node8 -->
<g id="edge7" class="edge"><title>Node1&#45;&gt;Node8</title>
<path fill="none" stroke="midnightblue" d="M90.7361,-171.483C109.68,-161.745 135.126,-148.969 158,-138.5 162.326,-136.52 166.854,-134.515 171.4,-132.545"/>
<polygon fill="midnightblue" stroke="midnightblue" points="172.878,-135.72 180.7,-128.574 170.128,-129.283 172.878,-135.72"/>
</g>
<!-- Node9 -->
<g id="node9" class="node"><title>Node9</title>
<g id="a_node9"><a xlink:href="classscram_1_1mef_1_1Component.xhtml#a83d4c556f58ec061175b71895877375b" target="_top" xlink:title="scram::mef::Component\l::gates">
<polygon fill="white" stroke="black" points="158,-49.5 158,-79.5 280,-79.5 280,-49.5 158,-49.5"/>
<text text-anchor="start" x="166" y="-67.5" font-family="Helvetica,sans-Serif" font-size="10.00">scram::mef::Component</text>
<text text-anchor="middle" x="219" y="-56.5" font-family="Helvetica,sans-Serif" font-size="10.00">::gates</text>
</a>
</g>
</g>
<!-- Node1&#45;&gt;Node9 -->
<g id="edge8" class="edge"><title>Node1&#45;&gt;Node9</title>
<path fill="none" stroke="midnightblue" d="M73.8463,-171.182C90.6393,-150.328 123.215,-112.926 158,-89.5 160.848,-87.5823 163.866,-85.7674 166.973,-84.0579"/>
<polygon fill="midnightblue" stroke="midnightblue" points="168.573,-87.1712 175.903,-79.5213 165.402,-80.9305 168.573,-87.1712"/>
</g>
<!-- Node10 -->
<g id="node10" class="node"><title>Node10</title>
<g id="a_node10"><a xlink:href="classscram_1_1mef_1_1Component.xhtml#a63441da08667fe6826f3ae0c0a5a94fe" target="_top" xlink:title="Recursively traverses components to gather gates relevant to the whole component. ...">
<polygon fill="white" stroke="black" points="158,-0.5 158,-30.5 280,-30.5 280,-0.5 158,-0.5"/>
<text text-anchor="start" x="166" y="-18.5" font-family="Helvetica,sans-Serif" font-size="10.00">scram::mef::Component</text>
<text text-anchor="middle" x="219" y="-7.5" font-family="Helvetica,sans-Serif" font-size="10.00">::GatherGates</text>
</a>
</g>
</g>
<!-- Node1&#45;&gt;Node10 -->
<g id="edge9" class="edge"><title>Node1&#45;&gt;Node10</title>
<path fill="none" stroke="midnightblue" d="M68.3896,-171.113C81.2475,-141.869 112.918,-77.8568 158,-40.5 160.015,-38.8304 162.157,-37.2582 164.387,-35.7794"/>
<polygon fill="midnightblue" stroke="midnightblue" points="166.482,-38.6081 173.338,-30.5303 162.941,-32.5698 166.482,-38.6081"/>
</g>
<!-- Node4 -->
<g id="node4" class="node"><title>Node4</title>
<g id="a_node4"><a xlink:href="classscram_1_1mef_1_1Element.xhtml#adb401e2ca84aa98cb60797bec2500a81" target="_top" xlink:title="scram::mef::Element\l::name">
<polygon fill="white" stroke="black" points="316,-147.5 316,-177.5 424,-177.5 424,-147.5 316,-147.5"/>
<text text-anchor="start" x="324" y="-165.5" font-family="Helvetica,sans-Serif" font-size="10.00">scram::mef::Element</text>
<text text-anchor="middle" x="370" y="-154.5" font-family="Helvetica,sans-Serif" font-size="10.00">::name</text>
</a>
</g>
</g>
<!-- Node3&#45;&gt;Node4 -->
<g id="edge3" class="edge"><title>Node3&#45;&gt;Node4</title>
<path fill="none" stroke="midnightblue" d="M265.745,-294.433C270.792,-291.847 275.665,-288.881 280,-285.5 314.765,-258.381 342.097,-214.186 356.867,-186.809"/>
<polygon fill="midnightblue" stroke="midnightblue" points="360.004,-188.363 361.559,-177.883 353.808,-185.106 360.004,-188.363"/>
</g>
<!-- Node10&#45;&gt;Node4 -->
<g id="edge10" class="edge"><title>Node10&#45;&gt;Node4</title>
<path fill="none" stroke="midnightblue" d="M264.179,-30.5848C269.779,-33.4334 275.215,-36.727 280,-40.5 314.439,-67.6537 341.871,-111.411 356.749,-138.48"/>
<polygon fill="midnightblue" stroke="midnightblue" points="353.67,-140.144 361.479,-147.304 359.84,-136.837 353.67,-140.144"/>
</g>
</g>
</svg>
