<?xml version="1.0" encoding="UTF-8" standalone="no"?>
<!DOCTYPE svg PUBLIC "-//W3C//DTD SVG 1.1//EN"
 "http://www.w3.org/Graphics/SVG/1.1/DTD/svg11.dtd">
<!-- Generated by graphviz version 2.38.0 (20140413.2041)
 -->
<!-- Title: scram::mef::BinaryExpression Pages: 1 -->
<!--zoomable 491 -->
<svg id="main" version="1.1" xmlns="http://www.w3.org/2000/svg" xmlns:xlink="http://www.w3.org/1999/xlink" xml:space="preserve" onload="init(evt)">
<style type="text/css"><![CDATA[
.edge:hover path { stroke: red; }
.edge:hover polygon { stroke: red; fill: red; }
]]></style>
<script type="text/javascript"><![CDATA[
var edges = document.getElementsByTagName('g');
if (edges && edges.length) {
  for (var i=0;i<edges.length;i++) {
    if (edges[i].id.substr(0,4)=='edge') {
      edges[i].setAttribute('class','edge');
    }
  }
}
]]></script>
        <defs>
                <circle id="rim" cx="0" cy="0" r="7"/>
                <circle id="rim2" cx="0" cy="0" r="3.5"/>
                <g id="zoomPlus">
                        <use xlink:href="#rim" fill="#404040">
                                <set attributeName="fill" to="#808080" begin="zoomplus.mouseover" end="zoomplus.mouseout"/>
                        </use>
                        <path d="M-4,0h8M0,-4v8" fill="none" stroke="white" stroke-width="1.5" pointer-events="none"/>
                </g>
                <g id="zoomMin">
                        <use xlink:href="#rim" fill="#404040">
                                <set attributeName="fill" to="#808080" begin="zoomminus.mouseover" end="zoomminus.mouseout"/>
                        </use>
                        <path d="M-4,0h8" fill="none" stroke="white" stroke-width="1.5" pointer-events="none"/>
                </g>
                <g id="dirArrow">
                        <path fill="none" stroke="white" stroke-width="1.5" d="M0,-3.0v7 M-2.5,-0.5L0,-3.0L2.5,-0.5"/>
                </g>
               <g id="resetDef">
                       <use xlink:href="#rim2" fill="#404040">
                               <set attributeName="fill" to="#808080" begin="reset.mouseover" end="reset.mouseout"/>
                       </use>
               </g>
        </defs>

<script type="text/javascript">
var viewWidth = 415;
var viewHeight = 491;
var sectionId = 'dynsection-0';
</script>
<script xlink:href="svgpan.js"/>
<svg id="graph" class="graph">
<g id="viewport">
<title>scram::mef::BinaryExpression</title>
<polygon fill="white" stroke="none" points="-4,4 -4,-487 411,-487 411,4 -4,4"/>
<!-- Node1 -->
<g id="node1" class="node"><title>Node1</title>
<polygon fill="#bfbfbf" stroke="black" points="129,-127.5 129,-184.5 278,-184.5 278,-127.5 129,-127.5"/>
<text text-anchor="middle" x="203.5" y="-172.5" font-family="Helvetica,sans-Serif" font-size="10.00">scram::mef::BinaryExpression</text>
<polyline fill="none" stroke="black" points="129,-165.5 278,-165.5 "/>
<text text-anchor="middle" x="203.5" y="-153.5" font-family="Helvetica,sans-Serif" font-size="10.00"> </text>
<polyline fill="none" stroke="black" points="129,-146.5 278,-146.5 "/>
<text text-anchor="start" x="137" y="-134.5" font-family="Helvetica,sans-Serif" font-size="10.00">+ BinaryExpression()</text>
</g>
<!-- Node4 -->
<g id="node4" class="node"><title>Node4</title>
<g id="a_node4"><a xlink:href="classscram_1_1mef_1_1Add.xhtml" target="_top" xlink:title="This expression adds all the given expressions&#39; values. ">
<polygon fill="white" stroke="black" points="0,-6 0,-85 89,-85 89,-6 0,-6"/>
<text text-anchor="middle" x="44.5" y="-73" font-family="Helvetica,sans-Serif" font-size="10.00">scram::mef::Add</text>
<polyline fill="none" stroke="black" points="0,-66 89,-66 "/>
<text text-anchor="middle" x="44.5" y="-54" font-family="Helvetica,sans-Serif" font-size="10.00"> </text>
<polyline fill="none" stroke="black" points="0,-47 89,-47 "/>
<text text-anchor="start" x="8" y="-35" font-family="Helvetica,sans-Serif" font-size="10.00">+ Mean()</text>
<text text-anchor="start" x="8" y="-24" font-family="Helvetica,sans-Serif" font-size="10.00">+ Max()</text>
<text text-anchor="start" x="8" y="-13" font-family="Helvetica,sans-Serif" font-size="10.00">+ Min()</text>
</a>
</g>
</g>
<!-- Node1&#45;&gt;Node4 -->
<g id="edge3" class="edge"><title>Node1&#45;&gt;Node4</title>
<path fill="none" stroke="midnightblue" d="M145.511,-122.203C129.625,-112.627 112.622,-101.815 97.5,-91 94.7636,-89.0431 91.9918,-86.9819 89.225,-84.8627"/>
<polygon fill="none" stroke="midnightblue" points="143.822,-125.271 154.203,-127.389 147.409,-119.26 143.822,-125.271"/>
</g>
<!-- Node5 -->
<g id="node5" class="node"><title>Node5</title>
<g id="a_node5"><a xlink:href="classscram_1_1mef_1_1Div.xhtml" target="_top" xlink:title="This expression performs division operation. ">
<polygon fill="white" stroke="black" points="107,-0.5 107,-90.5 194,-90.5 194,-0.5 107,-0.5"/>
<text text-anchor="middle" x="150.5" y="-78.5" font-family="Helvetica,sans-Serif" font-size="10.00">scram::mef::Div</text>
<polyline fill="none" stroke="black" points="107,-71.5 194,-71.5 "/>
<text text-anchor="middle" x="150.5" y="-59.5" font-family="Helvetica,sans-Serif" font-size="10.00"> </text>
<polyline fill="none" stroke="black" points="107,-52.5 194,-52.5 "/>
<text text-anchor="start" x="115" y="-40.5" font-family="Helvetica,sans-Serif" font-size="10.00">+ Validate()</text>
<text text-anchor="start" x="115" y="-29.5" font-family="Helvetica,sans-Serif" font-size="10.00">+ Mean()</text>
<text text-anchor="start" x="115" y="-18.5" font-family="Helvetica,sans-Serif" font-size="10.00">+ Max()</text>
<text text-anchor="start" x="115" y="-7.5" font-family="Helvetica,sans-Serif" font-size="10.00">+ Min()</text>
</a>
</g>
</g>
<!-- Node1&#45;&gt;Node5 -->
<g id="edge4" class="edge"><title>Node1&#45;&gt;Node5</title>
<path fill="none" stroke="midnightblue" d="M185.595,-118.345C181.235,-109.42 176.528,-99.7828 172.02,-90.5541"/>
<polygon fill="none" stroke="midnightblue" points="182.455,-119.891 189.989,-127.34 188.744,-116.819 182.455,-119.891"/>
</g>
<!-- Node6 -->
<g id="node6" class="node"><title>Node6</title>
<g id="a_node6"><a xlink:href="classscram_1_1mef_1_1Mul.xhtml" target="_top" xlink:title="This expression performs multiplication operation. ">
<polygon fill="white" stroke="black" points="212.5,-6 212.5,-85 300.5,-85 300.5,-6 212.5,-6"/>
<text text-anchor="middle" x="256.5" y="-73" font-family="Helvetica,sans-Serif" font-size="10.00">scram::mef::Mul</text>
<polyline fill="none" stroke="black" points="212.5,-66 300.5,-66 "/>
<text text-anchor="middle" x="256.5" y="-54" font-family="Helvetica,sans-Serif" font-size="10.00"> </text>
<polyline fill="none" stroke="black" points="212.5,-47 300.5,-47 "/>
<text text-anchor="start" x="220.5" y="-35" font-family="Helvetica,sans-Serif" font-size="10.00">+ Mean()</text>
<text text-anchor="start" x="220.5" y="-24" font-family="Helvetica,sans-Serif" font-size="10.00">+ Max()</text>
<text text-anchor="start" x="220.5" y="-13" font-family="Helvetica,sans-Serif" font-size="10.00">+ Min()</text>
</a>
</g>
</g>
<!-- Node1&#45;&gt;Node6 -->
<g id="edge5" class="edge"><title>Node1&#45;&gt;Node6</title>
<path fill="none" stroke="midnightblue" d="M221.438,-118.278C226.647,-107.615 232.35,-95.9395 237.615,-85.1613"/>
<polygon fill="none" stroke="midnightblue" points="218.256,-116.819 217.011,-127.34 224.545,-119.891 218.256,-116.819"/>
</g>
<!-- Node7 -->
<g id="node7" class="node"><title>Node7</title>
<g id="a_node7"><a xlink:href="classscram_1_1mef_1_1Sub.xhtml" target="_top" xlink:title="This expression performs subtraction operation. ">
<polygon fill="white" stroke="black" points="318,-6 318,-85 407,-85 407,-6 318,-6"/>
<text text-anchor="middle" x="362.5" y="-73" font-family="Helvetica,sans-Serif" font-size="10.00">scram::mef::Sub</text>
<polyline fill="none" stroke="black" points="318,-66 407,-66 "/>
<text text-anchor="middle" x="362.5" y="-54" font-family="Helvetica,sans-Serif" font-size="10.00"> </text>
<polyline fill="none" stroke="black" points="318,-47 407,-47 "/>
<text text-anchor="start" x="326" y="-35" font-family="Helvetica,sans-Serif" font-size="10.00">+ Mean()</text>
<text text-anchor="start" x="326" y="-24" font-family="Helvetica,sans-Serif" font-size="10.00">+ Max()</text>
<text text-anchor="start" x="326" y="-13" font-family="Helvetica,sans-Serif" font-size="10.00">+ Min()</text>
</a>
</g>
</g>
<!-- Node1&#45;&gt;Node7 -->
<g id="edge6" class="edge"><title>Node1&#45;&gt;Node7</title>
<path fill="none" stroke="midnightblue" d="M261.489,-122.203C277.375,-112.627 294.378,-101.815 309.5,-91 312.236,-89.0431 315.008,-86.9819 317.775,-84.8627"/>
<polygon fill="none" stroke="midnightblue" points="259.591,-119.26 252.797,-127.389 263.178,-125.271 259.591,-119.26"/>
</g>
<!-- Node2 -->
<g id="node2" class="node"><title>Node2</title>
<g id="a_node2"><a xlink:href="classscram_1_1mef_1_1Expression.xhtml" target="_top" xlink:title="Abstract base class for all sorts of expressions to describe events. ">
<polygon fill="white" stroke="black" points="143,-221.5 143,-388.5 264,-388.5 264,-221.5 143,-221.5"/>
<text text-anchor="middle" x="203.5" y="-376.5" font-family="Helvetica,sans-Serif" font-size="10.00">scram::mef::Expression</text>
<polyline fill="none" stroke="black" points="143,-369.5 264,-369.5 "/>
<text text-anchor="middle" x="203.5" y="-357.5" font-family="Helvetica,sans-Serif" font-size="10.00"> </text>
<polyline fill="none" stroke="black" points="143,-350.5 264,-350.5 "/>
<text text-anchor="start" x="151" y="-338.5" font-family="Helvetica,sans-Serif" font-size="10.00">+ Expression()</text>
<text text-anchor="start" x="151" y="-327.5" font-family="Helvetica,sans-Serif" font-size="10.00">+ ~Expression()</text>
<text text-anchor="start" x="151" y="-316.5" font-family="Helvetica,sans-Serif" font-size="10.00">+ args()</text>
<text text-anchor="start" x="151" y="-305.5" font-family="Helvetica,sans-Serif" font-size="10.00">+ Validate()</text>
<text text-anchor="start" x="151" y="-294.5" font-family="Helvetica,sans-Serif" font-size="10.00">+ Mean()</text>
<text text-anchor="start" x="151" y="-283.5" font-family="Helvetica,sans-Serif" font-size="10.00">+ Sample()</text>
<text text-anchor="start" x="151" y="-272.5" font-family="Helvetica,sans-Serif" font-size="10.00">+ Reset()</text>
<text text-anchor="start" x="151" y="-261.5" font-family="Helvetica,sans-Serif" font-size="10.00">+ IsConstant()</text>
<text text-anchor="start" x="151" y="-250.5" font-family="Helvetica,sans-Serif" font-size="10.00">+ Max()</text>
<text text-anchor="start" x="151" y="-239.5" font-family="Helvetica,sans-Serif" font-size="10.00">+ Min()</text>
<text text-anchor="start" x="151" y="-228.5" font-family="Helvetica,sans-Serif" font-size="10.00"># AddArg()</text>
</a>
</g>
</g>
<!-- Node2&#45;&gt;Node1 -->
<g id="edge1" class="edge"><title>Node2&#45;&gt;Node1</title>
<path fill="none" stroke="midnightblue" d="M203.5,-211.36C203.5,-201.786 203.5,-192.677 203.5,-184.748"/>
<polygon fill="none" stroke="midnightblue" points="200,-211.476 203.5,-221.476 207,-211.476 200,-211.476"/>
</g>
<!-- Node3 -->
<g id="node3" class="node"><title>Node3</title>
<polygon fill="white" stroke="#bfbfbf" points="168,-425.5 168,-482.5 239,-482.5 239,-425.5 168,-425.5"/>
<text text-anchor="middle" x="203.5" y="-470.5" font-family="Helvetica,sans-Serif" font-size="10.00">noncopyable</text>
<polyline fill="none" stroke="#bfbfbf" points="168,-463.5 239,-463.5 "/>
<text text-anchor="middle" x="203.5" y="-451.5" font-family="Helvetica,sans-Serif" font-size="10.00"> </text>
<polyline fill="none" stroke="#bfbfbf" points="168,-444.5 239,-444.5 "/>
<text text-anchor="middle" x="203.5" y="-432.5" font-family="Helvetica,sans-Serif" font-size="10.00"> </text>
</g>
<!-- Node3&#45;&gt;Node2 -->
<g id="edge2" class="edge"><title>Node3&#45;&gt;Node2</title>
<path fill="none" stroke="#8b1a1a" d="M203.5,-415.35C203.5,-407.08 203.5,-398.008 203.5,-388.738"/>
<polygon fill="none" stroke="#8b1a1a" points="200,-415.35 203.5,-425.35 207,-415.35 200,-415.35"/>
</g>
</g>
</svg>
        <g id="navigator" transform="translate(0 0)" fill="#404254">
                <rect fill="#f2f5e9" fill-opacity="0.5" stroke="#606060" stroke-width=".5" x="0" y="0" width="60" height="60"/>
                <use id="zoomplus" xlink:href="#zoomPlus" x="17" y="9" onmousedown="handleZoom(evt,'in')"/>
                <use id="zoomminus" xlink:href="#zoomMin" x="42" y="9" onmousedown="handleZoom(evt,'out')"/>
                <use id="reset" xlink:href="#resetDef" x="30" y="36" onmousedown="handleReset()"/>
                <g id="arrowUp" xlink:href="#dirArrow" transform="translate(30 24)" onmousedown="handlePan(0,-1)">
                  <use xlink:href="#rim" fill="#404040">
                        <set attributeName="fill" to="#808080" begin="arrowUp.mouseover" end="arrowUp.mouseout"/>
                  </use>
                  <path fill="none" stroke="white" stroke-width="1.5" d="M0,-3.0v7 M-2.5,-0.5L0,-3.0L2.5,-0.5"/>
                </g>
                <g id="arrowRight" xlink:href="#dirArrow" transform="rotate(90) translate(36 -43)" onmousedown="handlePan(1,0)">
                  <use xlink:href="#rim" fill="#404040">
                        <set attributeName="fill" to="#808080" begin="arrowRight.mouseover" end="arrowRight.mouseout"/>
                  </use>
                  <path fill="none" stroke="white" stroke-width="1.5" d="M0,-3.0v7 M-2.5,-0.5L0,-3.0L2.5,-0.5"/>
                </g>
                <g id="arrowDown" xlink:href="#dirArrow" transform="rotate(180) translate(-30 -48)" onmousedown="handlePan(0,1)">
                  <use xlink:href="#rim" fill="#404040">
                        <set attributeName="fill" to="#808080" begin="arrowDown.mouseover" end="arrowDown.mouseout"/>
                  </use>
                  <path fill="none" stroke="white" stroke-width="1.5" d="M0,-3.0v7 M-2.5,-0.5L0,-3.0L2.5,-0.5"/>
                </g>
                <g id="arrowLeft" xlink:href="#dirArrow" transform="rotate(270) translate(-36 17)" onmousedown="handlePan(-1,0)">
                  <use xlink:href="#rim" fill="#404040">
                        <set attributeName="fill" to="#808080" begin="arrowLeft.mouseover" end="arrowLeft.mouseout"/>
                  </use>
                  <path fill="none" stroke="white" stroke-width="1.5" d="M0,-3.0v7 M-2.5,-0.5L0,-3.0L2.5,-0.5"/>
                </g>
        </g>
        <svg viewBox="0 0 15 15" width="100%" height="30px" preserveAspectRatio="xMaxYMin meet">
         <g id="arrow_out" transform="scale(0.3 0.3)">
          <a xlink:href="classscram_1_1mef_1_1BinaryExpression__inherit__graph_org.svg" target="_base">
           <rect id="button" ry="5" rx="5" y="6" x="6" height="38" width="38"
                fill="#f2f5e9" fill-opacity="0.5" stroke="#606060" stroke-width="1.0"/>
           <path id="arrow"
             d="M 11.500037,31.436501 C 11.940474,20.09759 22.043105,11.32322 32.158766,21.979434 L 37.068811,17.246167 C 37.068811,17.246167 37.088388,32 37.088388,32 L 22.160133,31.978069 C 22.160133,31.978069 26.997745,27.140456 26.997745,27.140456 C 18.528582,18.264221 13.291696,25.230495 11.500037,31.436501 z"
             style="fill:#404040;"/>
          </a>
         </g>
        </svg>
</svg>
