<?xml version="1.0" encoding="UTF-8" standalone="no"?>
<!DOCTYPE svg PUBLIC "-//W3C//DTD SVG 1.1//EN"
 "http://www.w3.org/Graphics/SVG/1.1/DTD/svg11.dtd">
<!-- Generated by graphviz version 2.38.0 (20140413.2041)
 -->
<!-- Title: scram::core::Zbdd Pages: 1 -->
<svg width="161pt" height="606pt"
 viewBox="0.00 0.00 161.00 606.00" xmlns="http://www.w3.org/2000/svg" xmlns:xlink="http://www.w3.org/1999/xlink">
<g id="graph0" class="graph" transform="scale(1 1) rotate(0) translate(4 602)">
<title>scram::core::Zbdd</title>
<polygon fill="white" stroke="none" points="-4,4 -4,-602 157,-602 157,4 -4,4"/>
<!-- Node1 -->
<g id="node1" class="node"><title>Node1</title>
<polygon fill="#bfbfbf" stroke="black" points="23.5,-204.5 23.5,-503.5 129.5,-503.5 129.5,-204.5 23.5,-204.5"/>
<text text-anchor="middle" x="76.5" y="-491.5" font-family="Helvetica,sans-Serif" font-size="10.00">scram::core::Zbdd</text>
<polyline fill="none" stroke="black" points="23.5,-484.5 129.5,-484.5 "/>
<text text-anchor="start" x="31.5" y="-472.5" font-family="Helvetica,sans-Serif" font-size="10.00"># kBase_</text>
<text text-anchor="start" x="31.5" y="-461.5" font-family="Helvetica,sans-Serif" font-size="10.00"># kEmpty_</text>
<polyline fill="none" stroke="black" points="23.5,-454.5 129.5,-454.5 "/>
<text text-anchor="start" x="31.5" y="-442.5" font-family="Helvetica,sans-Serif" font-size="10.00">+ Zbdd()</text>
<text text-anchor="start" x="31.5" y="-431.5" font-family="Helvetica,sans-Serif" font-size="10.00">+ Zbdd()</text>
<text text-anchor="start" x="31.5" y="-420.5" font-family="Helvetica,sans-Serif" font-size="10.00">+ ~Zbdd()</text>
<text text-anchor="start" x="31.5" y="-409.5" font-family="Helvetica,sans-Serif" font-size="10.00">+ Analyze()</text>
<text text-anchor="start" x="31.5" y="-398.5" font-family="Helvetica,sans-Serif" font-size="10.00">+ products()</text>
<text text-anchor="start" x="31.5" y="-387.5" font-family="Helvetica,sans-Serif" font-size="10.00"># Zbdd()</text>
<text text-anchor="start" x="31.5" y="-376.5" font-family="Helvetica,sans-Serif" font-size="10.00"># root()</text>
<text text-anchor="start" x="31.5" y="-365.5" font-family="Helvetica,sans-Serif" font-size="10.00"># root()</text>
<text text-anchor="start" x="31.5" y="-354.5" font-family="Helvetica,sans-Serif" font-size="10.00"># settings()</text>
<text text-anchor="start" x="31.5" y="-343.5" font-family="Helvetica,sans-Serif" font-size="10.00"># modules()</text>
<text text-anchor="start" x="31.5" y="-332.5" font-family="Helvetica,sans-Serif" font-size="10.00"># Log()</text>
<text text-anchor="start" x="31.5" y="-321.5" font-family="Helvetica,sans-Serif" font-size="10.00"># FindOrAddVertex()</text>
<text text-anchor="start" x="31.5" y="-310.5" font-family="Helvetica,sans-Serif" font-size="10.00"># FindOrAddVertex()</text>
<text text-anchor="start" x="31.5" y="-299.5" font-family="Helvetica,sans-Serif" font-size="10.00"># Apply()</text>
<text text-anchor="start" x="31.5" y="-288.5" font-family="Helvetica,sans-Serif" font-size="10.00"># Apply()</text>
<text text-anchor="start" x="31.5" y="-277.5" font-family="Helvetica,sans-Serif" font-size="10.00">and 12 more...</text>
<text text-anchor="start" x="31.5" y="-266.5" font-family="Helvetica,sans-Serif" font-size="10.00"># Apply()</text>
<text text-anchor="start" x="31.5" y="-255.5" font-family="Helvetica,sans-Serif" font-size="10.00"># Apply()</text>
<text text-anchor="start" x="31.5" y="-244.5" font-family="Helvetica,sans-Serif" font-size="10.00">* and_table_</text>
<text text-anchor="start" x="31.5" y="-233.5" font-family="Helvetica,sans-Serif" font-size="10.00">* or_table_</text>
<text text-anchor="start" x="31.5" y="-222.5" font-family="Helvetica,sans-Serif" font-size="10.00">* Apply()</text>
<text text-anchor="start" x="31.5" y="-211.5" font-family="Helvetica,sans-Serif" font-size="10.00">* Apply()</text>
</g>
<!-- Node3 -->
<g id="node3" class="node"><title>Node3</title>
<g id="a_node3"><a xlink:href="classscram_1_1core_1_1zbdd_1_1CutSetContainer.xhtml" target="_top" xlink:title="Storage for generated cut sets in MOCUS. ">
<polygon fill="white" stroke="black" points="0,-0.5 0,-167.5 153,-167.5 153,-0.5 0,-0.5"/>
<text text-anchor="start" x="8" y="-155.5" font-family="Helvetica,sans-Serif" font-size="10.00">scram::core::zbdd::</text>
<text text-anchor="middle" x="76.5" y="-144.5" font-family="Helvetica,sans-Serif" font-size="10.00">CutSetContainer</text>
<polyline fill="none" stroke="black" points="0,-137.5 153,-137.5 "/>
<text text-anchor="middle" x="76.5" y="-125.5" font-family="Helvetica,sans-Serif" font-size="10.00"> </text>
<polyline fill="none" stroke="black" points="0,-118.5 153,-118.5 "/>
<text text-anchor="start" x="8" y="-106.5" font-family="Helvetica,sans-Serif" font-size="10.00">+ CutSetContainer()</text>
<text text-anchor="start" x="8" y="-95.5" font-family="Helvetica,sans-Serif" font-size="10.00">+ ConvertGate()</text>
<text text-anchor="start" x="8" y="-84.5" font-family="Helvetica,sans-Serif" font-size="10.00">+ GetNextGate()</text>
<text text-anchor="start" x="8" y="-73.5" font-family="Helvetica,sans-Serif" font-size="10.00">+ ExtractIntermediateCutSets()</text>
<text text-anchor="start" x="8" y="-62.5" font-family="Helvetica,sans-Serif" font-size="10.00">+ ExpandGate()</text>
<text text-anchor="start" x="8" y="-51.5" font-family="Helvetica,sans-Serif" font-size="10.00">+ Merge()</text>
<text text-anchor="start" x="8" y="-40.5" font-family="Helvetica,sans-Serif" font-size="10.00">+ EliminateComplements()</text>
<text text-anchor="start" x="8" y="-29.5" font-family="Helvetica,sans-Serif" font-size="10.00">+ EliminateConstantModules()</text>
<text text-anchor="start" x="8" y="-18.5" font-family="Helvetica,sans-Serif" font-size="10.00">+ Minimize()</text>
<text text-anchor="start" x="8" y="-7.5" font-family="Helvetica,sans-Serif" font-size="10.00">+ GatherModules()</text>
</a>
</g>
</g>
<!-- Node1&#45;&gt;Node3 -->
<g id="edge2" class="edge"><title>Node1&#45;&gt;Node3</title>
<path fill="none" stroke="midnightblue" d="M76.5,-194.245C76.5,-185.212 76.5,-176.334 76.5,-167.784"/>
<polygon fill="none" stroke="midnightblue" points="73.0001,-194.5 76.5,-204.5 80.0001,-194.5 73.0001,-194.5"/>
</g>
<!-- Node2 -->
<g id="node2" class="node"><title>Node2</title>
<polygon fill="white" stroke="#bfbfbf" points="41,-540.5 41,-597.5 112,-597.5 112,-540.5 41,-540.5"/>
<text text-anchor="middle" x="76.5" y="-585.5" font-family="Helvetica,sans-Serif" font-size="10.00">noncopyable</text>
<polyline fill="none" stroke="#bfbfbf" points="41,-578.5 112,-578.5 "/>
<text text-anchor="middle" x="76.5" y="-566.5" font-family="Helvetica,sans-Serif" font-size="10.00"> </text>
<polyline fill="none" stroke="#bfbfbf" points="41,-559.5 112,-559.5 "/>
<text text-anchor="middle" x="76.5" y="-547.5" font-family="Helvetica,sans-Serif" font-size="10.00"> </text>
</g>
<!-- Node2&#45;&gt;Node1 -->
<g id="edge1" class="edge"><title>Node2&#45;&gt;Node1</title>
<path fill="none" stroke="#8b1a1a" d="M76.5,-529.923C76.5,-521.996 76.5,-513.193 76.5,-503.872"/>
<polygon fill="none" stroke="#8b1a1a" points="73.0001,-530.154 76.5,-540.154 80.0001,-530.154 73.0001,-530.154"/>
</g>
</g>
</svg>
