<?xml version="1.0" encoding="UTF-8" standalone="no"?>
<!DOCTYPE svg PUBLIC "-//W3C//DTD SVG 1.1//EN"
 "http://www.w3.org/Graphics/SVG/1.1/DTD/svg11.dtd">
<!-- Generated by graphviz version 2.38.0 (20140413.2041)
 -->
<!-- Title: scram::core::BooleanGraph Pages: 1 -->
<svg width="144pt" height="248pt"
 viewBox="0.00 0.00 144.00 248.00" xmlns="http://www.w3.org/2000/svg" xmlns:xlink="http://www.w3.org/1999/xlink">
<g id="graph0" class="graph" transform="scale(1 1) rotate(0) translate(4 244)">
<title>scram::core::BooleanGraph</title>
<polygon fill="white" stroke="none" points="-4,4 -4,-244 140,-244 140,4 -4,4"/>
<!-- Node1 -->
<g id="node1" class="node"><title>Node1</title>
<polygon fill="#bfbfbf" stroke="black" points="0,-0.5 0,-145.5 136,-145.5 136,-0.5 0,-0.5"/>
<text text-anchor="middle" x="68" y="-133.5" font-family="Helvetica,sans-Serif" font-size="10.00">scram::core::BooleanGraph</text>
<polyline fill="none" stroke="black" points="0,-126.5 136,-126.5 "/>
<text text-anchor="middle" x="68" y="-114.5" font-family="Helvetica,sans-Serif" font-size="10.00"> </text>
<polyline fill="none" stroke="black" points="0,-107.5 136,-107.5 "/>
<text text-anchor="start" x="8" y="-95.5" font-family="Helvetica,sans-Serif" font-size="10.00">+ BooleanGraph()</text>
<text text-anchor="start" x="8" y="-84.5" font-family="Helvetica,sans-Serif" font-size="10.00">+ coherent()</text>
<text text-anchor="start" x="8" y="-73.5" font-family="Helvetica,sans-Serif" font-size="10.00">+ normal()</text>
<text text-anchor="start" x="8" y="-62.5" font-family="Helvetica,sans-Serif" font-size="10.00">+ root()</text>
<text text-anchor="start" x="8" y="-51.5" font-family="Helvetica,sans-Serif" font-size="10.00">+ complement()</text>
<text text-anchor="start" x="8" y="-40.5" font-family="Helvetica,sans-Serif" font-size="10.00">+ basic_events()</text>
<text text-anchor="start" x="8" y="-29.5" font-family="Helvetica,sans-Serif" font-size="10.00">+ GetBasicEvent()</text>
<text text-anchor="start" x="8" y="-18.5" font-family="Helvetica,sans-Serif" font-size="10.00">+ Print()</text>
<text text-anchor="start" x="8" y="-7.5" font-family="Helvetica,sans-Serif" font-size="10.00">+ Log()</text>
</g>
<!-- Node2 -->
<g id="node2" class="node"><title>Node2</title>
<polygon fill="white" stroke="#bfbfbf" points="32.5,-182.5 32.5,-239.5 103.5,-239.5 103.5,-182.5 32.5,-182.5"/>
<text text-anchor="middle" x="68" y="-227.5" font-family="Helvetica,sans-Serif" font-size="10.00">noncopyable</text>
<polyline fill="none" stroke="#bfbfbf" points="32.5,-220.5 103.5,-220.5 "/>
<text text-anchor="middle" x="68" y="-208.5" font-family="Helvetica,sans-Serif" font-size="10.00"> </text>
<polyline fill="none" stroke="#bfbfbf" points="32.5,-201.5 103.5,-201.5 "/>
<text text-anchor="middle" x="68" y="-189.5" font-family="Helvetica,sans-Serif" font-size="10.00"> </text>
</g>
<!-- Node2&#45;&gt;Node1 -->
<g id="edge1" class="edge"><title>Node2&#45;&gt;Node1</title>
<path fill="none" stroke="#8b1a1a" d="M68,-172.356C68,-163.999 68,-154.872 68,-145.656"/>
<polygon fill="none" stroke="#8b1a1a" points="64.5001,-172.478 68,-182.478 71.5001,-172.478 64.5001,-172.478"/>
</g>
</g>
</svg>
