<?xml version="1.0" encoding="UTF-8" standalone="no"?>
<!DOCTYPE svg PUBLIC "-//W3C//DTD SVG 1.1//EN"
 "http://www.w3.org/Graphics/SVG/1.1/DTD/svg11.dtd">
<!-- Generated by graphviz version 2.38.0 (20140413.2041)
 -->
<!-- Title: scram::core::Preprocessor::DecomposeCommonNodes Pages: 1 -->
<svg width="475pt" height="110pt"
 viewBox="0.00 0.00 475.00 110.00" xmlns="http://www.w3.org/2000/svg" xmlns:xlink="http://www.w3.org/1999/xlink">
<g id="graph0" class="graph" transform="scale(1 1) rotate(0) translate(4 106)">
<title>scram::core::Preprocessor::DecomposeCommonNodes</title>
<polygon fill="white" stroke="none" points="-4,4 -4,-106 471,-106 471,4 -4,4"/>
<!-- Node1 -->
<g id="node1" class="node"><title>Node1</title>
<polygon fill="#bfbfbf" stroke="black" points="0,-46.5 0,-76.5 143,-76.5 143,-46.5 0,-46.5"/>
<text text-anchor="start" x="8" y="-64.5" font-family="Helvetica,sans-Serif" font-size="10.00">scram::core::Preprocessor</text>
<text text-anchor="middle" x="71.5" y="-53.5" font-family="Helvetica,sans-Serif" font-size="10.00">::DecomposeCommonNodes</text>
</g>
<!-- Node2 -->
<g id="node2" class="node"><title>Node2</title>
<g id="a_node2"><a xlink:href="classscram_1_1core_1_1Preprocessor.xhtml#ac83a0afe1f22761907f2a017abd96268" target="_top" xlink:title="Traverses the given gate and assigns time of visit to nodes. ">
<polygon fill="white" stroke="black" points="179,-71.5 179,-101.5 311,-101.5 311,-71.5 179,-71.5"/>
<text text-anchor="start" x="187" y="-89.5" font-family="Helvetica,sans-Serif" font-size="10.00">scram::core::Preprocessor</text>
<text text-anchor="middle" x="245" y="-78.5" font-family="Helvetica,sans-Serif" font-size="10.00">::AssignTiming</text>
</a>
</g>
</g>
<!-- Node1&#45;&gt;Node2 -->
<g id="edge1" class="edge"><title>Node1&#45;&gt;Node2</title>
<path fill="none" stroke="midnightblue" d="M143.246,-71.8128C151.734,-73.0502 160.426,-74.3172 168.973,-75.5631"/>
<polygon fill="midnightblue" stroke="midnightblue" points="168.518,-79.0338 178.919,-77.0129 169.528,-72.107 168.518,-79.0338"/>
</g>
<!-- Node3 -->
<g id="node3" class="node"><title>Node3</title>
<g id="a_node3"><a xlink:href="classscram_1_1core_1_1Preprocessor.xhtml#a394fb1b5b5f9ee31dc81ad8d64353ee3" target="_top" xlink:title="Traverses the graph to find nodes that have more than one parent. ">
<polygon fill="white" stroke="black" points="179,-22.5 179,-52.5 311,-52.5 311,-22.5 179,-22.5"/>
<text text-anchor="start" x="187" y="-40.5" font-family="Helvetica,sans-Serif" font-size="10.00">scram::core::Preprocessor</text>
<text text-anchor="middle" x="245" y="-29.5" font-family="Helvetica,sans-Serif" font-size="10.00">::GatherCommonNodes</text>
</a>
</g>
</g>
<!-- Node1&#45;&gt;Node3 -->
<g id="edge2" class="edge"><title>Node1&#45;&gt;Node3</title>
<path fill="none" stroke="midnightblue" d="M143.246,-51.5997C151.734,-50.4118 160.426,-49.1955 168.973,-47.9995"/>
<polygon fill="midnightblue" stroke="midnightblue" points="169.5,-51.4598 178.919,-46.6076 168.53,-44.5274 169.5,-51.4598"/>
</g>
<!-- Node4 -->
<g id="node4" class="node"><title>Node4</title>
<g id="a_node4"><a xlink:href="classscram_1_1core_1_1Gate.xhtml#aa793eeaa12244c5b39a0d80e5b1518ae" target="_top" xlink:title="scram::core::Gate::args">
<polygon fill="white" stroke="black" points="347,-50 347,-69 467,-69 467,-50 347,-50"/>
<text text-anchor="middle" x="407" y="-57" font-family="Helvetica,sans-Serif" font-size="10.00">scram::core::Gate::args</text>
</a>
</g>
</g>
<!-- Node3&#45;&gt;Node4 -->
<g id="edge3" class="edge"><title>Node3&#45;&gt;Node4</title>
<path fill="none" stroke="midnightblue" d="M311.078,-46.4482C319.597,-47.6196 328.351,-48.8232 336.933,-50.0033"/>
<polygon fill="midnightblue" stroke="midnightblue" points="336.521,-53.4795 346.905,-51.3744 337.475,-46.5448 336.521,-53.4795"/>
</g>
<!-- Node5 -->
<g id="node5" class="node"><title>Node5</title>
<g id="a_node5"><a xlink:href="classscram_1_1core_1_1Node.xhtml#a54799feee1f1e91f848d11f3918e3e88" target="_top" xlink:title="Registers the visit time for this node upon graph traversal. ">
<polygon fill="white" stroke="black" points="355,-0.5 355,-30.5 459,-30.5 459,-0.5 355,-0.5"/>
<text text-anchor="start" x="363" y="-18.5" font-family="Helvetica,sans-Serif" font-size="10.00">scram::core::Node::</text>
<text text-anchor="middle" x="407" y="-7.5" font-family="Helvetica,sans-Serif" font-size="10.00">Visit</text>
</a>
</g>
</g>
<!-- Node3&#45;&gt;Node5 -->
<g id="edge4" class="edge"><title>Node3&#45;&gt;Node5</title>
<path fill="none" stroke="midnightblue" d="M311.078,-28.5518C322.206,-27.0216 333.734,-25.4366 344.758,-23.9208"/>
<polygon fill="midnightblue" stroke="midnightblue" points="345.285,-27.3814 354.715,-22.5517 344.331,-20.4466 345.285,-27.3814"/>
</g>
</g>
</svg>
