<?xml version="1.0" encoding="UTF-8" standalone="no"?>
<!DOCTYPE svg PUBLIC "-//W3C//DTD SVG 1.1//EN"
 "http://www.w3.org/Graphics/SVG/1.1/DTD/svg11.dtd">
<!-- Generated by graphviz version 2.38.0 (20140413.2041)
 -->
<!-- Title: scram::core::Preprocessor::ProcessStateDestinations Pages: 1 -->
<svg width="1746pt" height="218pt"
 viewBox="0.00 0.00 1746.00 218.00" xmlns="http://www.w3.org/2000/svg" xmlns:xlink="http://www.w3.org/1999/xlink">
<g id="graph0" class="graph" transform="scale(1 1) rotate(0) translate(4 214)">
<title>scram::core::Preprocessor::ProcessStateDestinations</title>
<polygon fill="white" stroke="none" points="-4,4 -4,-214 1742,-214 1742,4 -4,4"/>
<!-- Node1 -->
<g id="node1" class="node"><title>Node1</title>
<polygon fill="#bfbfbf" stroke="black" points="0,-66.5 0,-96.5 137,-96.5 137,-66.5 0,-66.5"/>
<text text-anchor="start" x="8" y="-84.5" font-family="Helvetica,sans-Serif" font-size="10.00">scram::core::Preprocessor</text>
<text text-anchor="middle" x="68.5" y="-73.5" font-family="Helvetica,sans-Serif" font-size="10.00">::ProcessStateDestinations</text>
</g>
<!-- Node2 -->
<g id="node2" class="node"><title>Node2</title>
<g id="a_node2"><a xlink:href="classscram_1_1core_1_1Preprocessor.xhtml#a4086c57695d49b4770915d5d53bd47de" target="_top" xlink:title="Tries to simplify the graph by removing redundancies generated by a common node. ">
<polygon fill="white" stroke="black" points="173,-66.5 173,-96.5 305,-96.5 305,-66.5 173,-66.5"/>
<text text-anchor="start" x="181" y="-84.5" font-family="Helvetica,sans-Serif" font-size="10.00">scram::core::Preprocessor</text>
<text text-anchor="middle" x="239" y="-73.5" font-family="Helvetica,sans-Serif" font-size="10.00">::ProcessCommonNode</text>
</a>
</g>
</g>
<!-- Node1&#45;&gt;Node2 -->
<g id="edge1" class="edge"><title>Node1&#45;&gt;Node2</title>
<path fill="none" stroke="midnightblue" d="M147.116,-81.5C155.734,-81.5 164.445,-81.5 172.886,-81.5"/>
<polygon fill="midnightblue" stroke="midnightblue" points="147.065,-78.0001 137.065,-81.5 147.064,-85.0001 147.065,-78.0001"/>
</g>
<!-- Node3 -->
<g id="node3" class="node"><title>Node3</title>
<g id="a_node3"><a xlink:href="classscram_1_1core_1_1Preprocessor.xhtml#aebc709ad2e097c24e837889a6a9e4696" target="_top" xlink:title="Propagates failures of common nodes to detect redundancy. ">
<polygon fill="white" stroke="black" points="341,-66.5 341,-96.5 473,-96.5 473,-66.5 341,-66.5"/>
<text text-anchor="start" x="349" y="-84.5" font-family="Helvetica,sans-Serif" font-size="10.00">scram::core::Preprocessor</text>
<text text-anchor="middle" x="407" y="-73.5" font-family="Helvetica,sans-Serif" font-size="10.00">::BooleanOptimization</text>
</a>
</g>
</g>
<!-- Node2&#45;&gt;Node3 -->
<g id="edge2" class="edge"><title>Node2&#45;&gt;Node3</title>
<path fill="none" stroke="midnightblue" d="M315.393,-81.5C323.869,-81.5 332.452,-81.5 340.784,-81.5"/>
<polygon fill="midnightblue" stroke="midnightblue" points="315.131,-78.0001 305.131,-81.5 315.131,-85.0001 315.131,-78.0001"/>
</g>
<!-- Node4 -->
<g id="node4" class="node"><title>Node4</title>
<g id="a_node4"><a xlink:href="classscram_1_1core_1_1Preprocessor.xhtml#a9d5f89471499508eb9e6c01ea43e0f15" target="_top" xlink:title="Preprocessing phase of the original structure of the graph. ">
<polygon fill="white" stroke="black" points="509,-66.5 509,-96.5 641,-96.5 641,-66.5 509,-66.5"/>
<text text-anchor="start" x="517" y="-84.5" font-family="Helvetica,sans-Serif" font-size="10.00">scram::core::Preprocessor</text>
<text text-anchor="middle" x="575" y="-73.5" font-family="Helvetica,sans-Serif" font-size="10.00">::RunPhaseTwo</text>
</a>
</g>
</g>
<!-- Node3&#45;&gt;Node4 -->
<g id="edge3" class="edge"><title>Node3&#45;&gt;Node4</title>
<path fill="none" stroke="midnightblue" d="M483.393,-81.5C491.869,-81.5 500.452,-81.5 508.784,-81.5"/>
<polygon fill="midnightblue" stroke="midnightblue" points="483.131,-78.0001 473.131,-81.5 483.131,-85.0001 483.131,-78.0001"/>
</g>
<!-- Node5 -->
<g id="node5" class="node"><title>Node5</title>
<g id="a_node5"><a xlink:href="classscram_1_1core_1_1Preprocessor.xhtml#a2b6705e815fa3d02119c405b483766d5" target="_top" xlink:title="Runs the default preprocessing that achieves the graph in a normal form. ">
<polygon fill="white" stroke="black" points="845,-101 845,-120 1001,-120 1001,-101 845,-101"/>
<text text-anchor="middle" x="923" y="-108" font-family="Helvetica,sans-Serif" font-size="10.00">scram::core::Preprocessor::Run</text>
</a>
</g>
</g>
<!-- Node4&#45;&gt;Node5 -->
<g id="edge4" class="edge"><title>Node4&#45;&gt;Node5</title>
<path fill="none" stroke="midnightblue" d="M609.964,-101.39C628.985,-111.375 653.537,-122.408 677,-127.5 748.043,-142.916 833.131,-130.257 882.042,-120.081"/>
<polygon fill="midnightblue" stroke="midnightblue" points="611.562,-98.2751 601.1,-96.6033 608.236,-104.434 611.562,-98.2751"/>
</g>
<!-- Node13 -->
<g id="node13" class="node"><title>Node13</title>
<g id="a_node13"><a xlink:href="classscram_1_1core_1_1Preprocessor.xhtml#a3569bbcd5e863c750cdfa69115399600" target="_top" xlink:title="The final phase that cleans up the graph, and puts the structure of the graph ready for analysis...">
<polygon fill="white" stroke="black" points="857,-44.5 857,-74.5 989,-74.5 989,-44.5 857,-44.5"/>
<text text-anchor="start" x="865" y="-62.5" font-family="Helvetica,sans-Serif" font-size="10.00">scram::core::Preprocessor</text>
<text text-anchor="middle" x="923" y="-51.5" font-family="Helvetica,sans-Serif" font-size="10.00">::RunPhaseFive</text>
</a>
</g>
</g>
<!-- Node4&#45;&gt;Node13 -->
<g id="edge12" class="edge"><title>Node4&#45;&gt;Node13</title>
<path fill="none" stroke="midnightblue" d="M651.097,-76.7251C712.493,-72.8213 798.413,-67.3581 856.918,-63.6381"/>
<polygon fill="midnightblue" stroke="midnightblue" points="650.838,-73.2344 641.08,-77.362 651.282,-80.2203 650.838,-73.2344"/>
</g>
<!-- Node14 -->
<g id="node14" class="node"><title>Node14</title>
<g id="a_node14"><a xlink:href="classscram_1_1core_1_1Preprocessor.xhtml#a5c224938dfba861f061525658bd7b156" target="_top" xlink:title="Propagation of complements. ">
<polygon fill="white" stroke="black" points="677,-0.5 677,-30.5 809,-30.5 809,-0.5 677,-0.5"/>
<text text-anchor="start" x="685" y="-18.5" font-family="Helvetica,sans-Serif" font-size="10.00">scram::core::Preprocessor</text>
<text text-anchor="middle" x="743" y="-7.5" font-family="Helvetica,sans-Serif" font-size="10.00">::RunPhaseFour</text>
</a>
</g>
</g>
<!-- Node4&#45;&gt;Node14 -->
<g id="edge14" class="edge"><title>Node4&#45;&gt;Node14</title>
<path fill="none" stroke="midnightblue" d="M623.58,-62.5827C649.131,-52.424 680.193,-40.0737 704.093,-30.5713"/>
<polygon fill="midnightblue" stroke="midnightblue" points="622.083,-59.4112 614.084,-66.3583 624.669,-65.916 622.083,-59.4112"/>
</g>
<!-- Node15 -->
<g id="node15" class="node"><title>Node15</title>
<g id="a_node15"><a xlink:href="classscram_1_1core_1_1Preprocessor.xhtml#abf2c66723172a85b2ae87ef2a034cd1f" target="_top" xlink:title="Application of gate normalization. ">
<polygon fill="white" stroke="black" points="677,-88.5 677,-118.5 809,-118.5 809,-88.5 677,-88.5"/>
<text text-anchor="start" x="685" y="-106.5" font-family="Helvetica,sans-Serif" font-size="10.00">scram::core::Preprocessor</text>
<text text-anchor="middle" x="743" y="-95.5" font-family="Helvetica,sans-Serif" font-size="10.00">::RunPhaseThree</text>
</a>
</g>
</g>
<!-- Node4&#45;&gt;Node15 -->
<g id="edge16" class="edge"><title>Node4&#45;&gt;Node15</title>
<path fill="none" stroke="midnightblue" d="M651.114,-91.4548C659.681,-92.5902 668.361,-93.7406 676.784,-94.8569"/>
<polygon fill="midnightblue" stroke="midnightblue" points="651.504,-87.9761 641.131,-90.1318 650.585,-94.9154 651.504,-87.9761"/>
</g>
<!-- Node6 -->
<g id="node6" class="node"><title>Node6</title>
<g id="a_node6"><a xlink:href="classscram_1_1core_1_1FaultTreeAnalyzer.xhtml#af6d3e735d4200c3efed0164c58aabf57" target="_top" xlink:title="Runs fault tree analysis with the given algorithm. ">
<polygon fill="white" stroke="black" points="1043.5,-179.5 1043.5,-209.5 1197.5,-209.5 1197.5,-179.5 1043.5,-179.5"/>
<text text-anchor="start" x="1051.5" y="-197.5" font-family="Helvetica,sans-Serif" font-size="10.00">scram::core::FaultTreeAnalyzer</text>
<text text-anchor="middle" x="1120.5" y="-186.5" font-family="Helvetica,sans-Serif" font-size="10.00">::Analyze</text>
</a>
</g>
</g>
<!-- Node5&#45;&gt;Node6 -->
<g id="edge5" class="edge"><title>Node5&#45;&gt;Node6</title>
<path fill="none" stroke="midnightblue" d="M948.427,-125.358C970.851,-138.535 1005.31,-157.634 1037,-170.5 1045.02,-173.754 1053.64,-176.766 1062.17,-179.477"/>
<polygon fill="midnightblue" stroke="midnightblue" points="949.981,-122.21 939.596,-120.108 946.404,-128.227 949.981,-122.21"/>
</g>
<!-- Node10 -->
<g id="node10" class="node"><title>Node10</title>
<g id="a_node10"><a xlink:href="classscram_1_1core_1_1ProbabilityAnalyzer_3_01Bdd_01_4.xhtml#a517506c181102100cc6a3e96710813c6" target="_top" xlink:title="Calculates the total probability with a different set of probability values than the one given upon c...">
<polygon fill="white" stroke="black" points="1041,-120 1041,-161 1200,-161 1200,-120 1041,-120"/>
<text text-anchor="start" x="1049" y="-149" font-family="Helvetica,sans-Serif" font-size="10.00">scram::core::Probability</text>
<text text-anchor="start" x="1049" y="-138" font-family="Helvetica,sans-Serif" font-size="10.00">Analyzer&lt; Bdd &gt;::CalculateTotal</text>
<text text-anchor="middle" x="1120.5" y="-127" font-family="Helvetica,sans-Serif" font-size="10.00">Probability</text>
</a>
</g>
</g>
<!-- Node5&#45;&gt;Node10 -->
<g id="edge9" class="edge"><title>Node5&#45;&gt;Node10</title>
<path fill="none" stroke="midnightblue" d="M996.039,-121.555C1010.57,-123.785 1025.92,-126.14 1040.67,-128.404"/>
<polygon fill="midnightblue" stroke="midnightblue" points="996.541,-118.091 986.126,-120.033 995.479,-125.01 996.541,-118.091"/>
</g>
<!-- Node11 -->
<g id="node11" class="node"><title>Node11</title>
<g id="a_node11"><a xlink:href="classscram_1_1core_1_1CustomPreprocessor_3_01Bdd_01_4.xhtml#a8cf4307236cd521e39a2c6feb21f3214" target="_top" xlink:title="Performs preprocessing for analyses with Binary Decision Diagrams. ">
<polygon fill="white" stroke="black" points="1037,-71.5 1037,-101.5 1204,-101.5 1204,-71.5 1037,-71.5"/>
<text text-anchor="start" x="1045" y="-89.5" font-family="Helvetica,sans-Serif" font-size="10.00">scram::core::CustomPreprocessor</text>
<text text-anchor="middle" x="1120.5" y="-78.5" font-family="Helvetica,sans-Serif" font-size="10.00">&lt; Bdd &gt;::Run</text>
</a>
</g>
</g>
<!-- Node5&#45;&gt;Node11 -->
<g id="edge10" class="edge"><title>Node5&#45;&gt;Node11</title>
<path fill="none" stroke="midnightblue" d="M1011.44,-99.7657C1019.84,-98.735 1028.33,-97.6917 1036.68,-96.6667"/>
<polygon fill="midnightblue" stroke="midnightblue" points="1010.77,-96.3221 1001.27,-101.015 1011.62,-103.27 1010.77,-96.3221"/>
</g>
<!-- Node12 -->
<g id="node12" class="node"><title>Node12</title>
<g id="a_node12"><a xlink:href="classscram_1_1core_1_1CustomPreprocessor_3_01Zbdd_01_4.xhtml#a5185075f852c647c7aa4313d23420ee5" target="_top" xlink:title="Performs preprocessing for analyses with Zero&#45;Suppressed Binary Decision Diagrams. ">
<polygon fill="white" stroke="black" points="1037,-22.5 1037,-52.5 1204,-52.5 1204,-22.5 1037,-22.5"/>
<text text-anchor="start" x="1045" y="-40.5" font-family="Helvetica,sans-Serif" font-size="10.00">scram::core::CustomPreprocessor</text>
<text text-anchor="middle" x="1120.5" y="-29.5" font-family="Helvetica,sans-Serif" font-size="10.00">&lt; Zbdd &gt;::Run</text>
</a>
</g>
</g>
<!-- Node5&#45;&gt;Node12 -->
<g id="edge11" class="edge"><title>Node5&#45;&gt;Node12</title>
<path fill="none" stroke="midnightblue" d="M965.607,-97.7108C977.262,-93.6472 989.801,-88.8122 1001,-83.5 1017.94,-75.464 1019.85,-69.0744 1037,-61.5 1044.51,-58.186 1052.59,-55.1882 1060.67,-52.5237"/>
<polygon fill="midnightblue" stroke="midnightblue" points="964.425,-94.4158 956.074,-100.936 966.668,-101.047 964.425,-94.4158"/>
</g>
<!-- Node7 -->
<g id="node7" class="node"><title>Node7</title>
<g id="a_node7"><a xlink:href="classscram_1_1core_1_1RiskAnalysis.xhtml#a7aed757ac5a7a96878c2706a7a9710bb" target="_top" xlink:title="Analyzes the model and performs computations specified in the settings. ">
<polygon fill="white" stroke="black" points="1240,-179.5 1240,-209.5 1372,-209.5 1372,-179.5 1240,-179.5"/>
<text text-anchor="start" x="1248" y="-197.5" font-family="Helvetica,sans-Serif" font-size="10.00">scram::core::RiskAnalysis</text>
<text text-anchor="middle" x="1306" y="-186.5" font-family="Helvetica,sans-Serif" font-size="10.00">::Analyze</text>
</a>
</g>
</g>
<!-- Node6&#45;&gt;Node7 -->
<g id="edge6" class="edge"><title>Node6&#45;&gt;Node7</title>
<path fill="none" stroke="midnightblue" d="M1207.95,-194.5C1218.67,-194.5 1229.49,-194.5 1239.81,-194.5"/>
<polygon fill="midnightblue" stroke="midnightblue" points="1207.73,-191 1197.73,-194.5 1207.73,-198 1207.73,-191"/>
</g>
<!-- Node8 -->
<g id="node8" class="node"><title>Node8</title>
<g id="a_node8"><a xlink:href="classscram_1_1core_1_1RiskAnalysis.xhtml#a337f7e9fe02b1581e872590d6f7baa01" target="_top" xlink:title="scram::core::RiskAnalysis\l::model">
<polygon fill="white" stroke="black" points="1408,-179.5 1408,-209.5 1540,-209.5 1540,-179.5 1408,-179.5"/>
<text text-anchor="start" x="1416" y="-197.5" font-family="Helvetica,sans-Serif" font-size="10.00">scram::core::RiskAnalysis</text>
<text text-anchor="middle" x="1474" y="-186.5" font-family="Helvetica,sans-Serif" font-size="10.00">::model</text>
</a>
</g>
</g>
<!-- Node7&#45;&gt;Node8 -->
<g id="edge7" class="edge"><title>Node7&#45;&gt;Node8</title>
<path fill="none" stroke="midnightblue" d="M1382.39,-194.5C1390.87,-194.5 1399.45,-194.5 1407.78,-194.5"/>
<polygon fill="midnightblue" stroke="midnightblue" points="1382.13,-191 1372.13,-194.5 1382.13,-198 1382.13,-191"/>
</g>
<!-- Node9 -->
<g id="node9" class="node"><title>Node9</title>
<g id="a_node9"><a xlink:href="reporter_8cc.xhtml#ad6460094a94fb73e56c2a4a5efc598ed" target="_top" xlink:title="Describes all performed analyses deduced from settings. ">
<polygon fill="white" stroke="black" points="1576,-179.5 1576,-209.5 1738,-209.5 1738,-179.5 1576,-179.5"/>
<text text-anchor="start" x="1584" y="-197.5" font-family="Helvetica,sans-Serif" font-size="10.00">scram::ReportCalculatedQuantity</text>
<text text-anchor="middle" x="1657" y="-186.5" font-family="Helvetica,sans-Serif" font-size="10.00">&lt; core::RiskAnalysis &gt;</text>
</a>
</g>
</g>
<!-- Node8&#45;&gt;Node9 -->
<g id="edge8" class="edge"><title>Node8&#45;&gt;Node9</title>
<path fill="none" stroke="midnightblue" d="M1550.24,-194.5C1558.65,-194.5 1567.24,-194.5 1575.71,-194.5"/>
<polygon fill="midnightblue" stroke="midnightblue" points="1550.09,-191 1540.09,-194.5 1550.09,-198 1550.09,-191"/>
</g>
<!-- Node13&#45;&gt;Node12 -->
<g id="edge13" class="edge"><title>Node13&#45;&gt;Node12</title>
<path fill="none" stroke="midnightblue" d="M999.313,-51.0248C1011.64,-49.6381 1024.46,-48.1948 1036.95,-46.7896"/>
<polygon fill="midnightblue" stroke="midnightblue" points="998.645,-47.5779 989.099,-52.1743 999.427,-54.534 998.645,-47.5779"/>
</g>
<!-- Node14&#45;&gt;Node12 -->
<g id="edge15" class="edge"><title>Node14&#45;&gt;Node12</title>
<path fill="none" stroke="midnightblue" d="M819.66,-19.9328C882.581,-23.6193 971.998,-28.8581 1036.8,-32.6546"/>
<polygon fill="midnightblue" stroke="midnightblue" points="819.595,-16.4231 809.407,-19.3321 819.185,-23.4111 819.595,-16.4231"/>
</g>
<!-- Node15&#45;&gt;Node5 -->
<g id="edge17" class="edge"><title>Node15&#45;&gt;Node5</title>
<path fill="none" stroke="midnightblue" d="M819.221,-106.458C827.672,-106.79 836.292,-107.129 844.768,-107.463"/>
<polygon fill="midnightblue" stroke="midnightblue" points="819.148,-102.953 809.018,-106.057 818.872,-109.947 819.148,-102.953"/>
</g>
</g>
</svg>
