<?xml version="1.0" encoding="UTF-8" standalone="no"?>
<!DOCTYPE svg PUBLIC "-//W3C//DTD SVG 1.1//EN"
 "http://www.w3.org/Graphics/SVG/1.1/DTD/svg11.dtd">
<!-- Generated by graphviz version 2.38.0 (20140413.2041)
 -->
<!-- Title: scram::core::Settings::num_quantiles Pages: 1 -->
<svg width="326pt" height="78pt"
 viewBox="0.00 0.00 326.00 77.50" xmlns="http://www.w3.org/2000/svg" xmlns:xlink="http://www.w3.org/1999/xlink">
<g id="graph0" class="graph" transform="scale(1 1) rotate(0) translate(4 73.5)">
<title>scram::core::Settings::num_quantiles</title>
<polygon fill="white" stroke="none" points="-4,4 -4,-73.5 322,-73.5 322,4 -4,4"/>
<!-- Node1 -->
<g id="node1" class="node"><title>Node1</title>
<polygon fill="#bfbfbf" stroke="black" points="0,-22.5 0,-52.5 110,-52.5 110,-22.5 0,-22.5"/>
<text text-anchor="start" x="8" y="-40.5" font-family="Helvetica,sans-Serif" font-size="10.00">scram::core::Settings</text>
<text text-anchor="middle" x="55" y="-29.5" font-family="Helvetica,sans-Serif" font-size="10.00">::num_quantiles</text>
</g>
<!-- Node2 -->
<g id="node2" class="node"><title>Node2</title>
<g id="a_node2"><a xlink:href="classscram_1_1Config.xhtml#ab0d7940fbb627fab9867821e133eab5d" target="_top" xlink:title="A constructor with configurations for analysis. ">
<polygon fill="white" stroke="black" points="175.5,-50 175.5,-69 288.5,-69 288.5,-50 175.5,-50"/>
<text text-anchor="middle" x="232" y="-57" font-family="Helvetica,sans-Serif" font-size="10.00">scram::Config::Config</text>
</a>
</g>
</g>
<!-- Node1&#45;&gt;Node2 -->
<g id="edge1" class="edge"><title>Node1&#45;&gt;Node2</title>
<path fill="none" stroke="midnightblue" d="M120.542,-45.6138C138.555,-47.8784 157.966,-50.3186 175.415,-52.5121"/>
<polygon fill="midnightblue" stroke="midnightblue" points="120.77,-42.1151 110.412,-44.3403 119.897,-49.0604 120.77,-42.1151"/>
</g>
<!-- Node3 -->
<g id="node3" class="node"><title>Node3</title>
<g id="a_node3"><a xlink:href="classscram_1_1core_1_1UncertaintyAnalysis.xhtml#a9fd9c1d88b952527b0ee0132d15c45b3" target="_top" xlink:title="Samples each uncertain event probability. ">
<polygon fill="white" stroke="black" points="146,-0.5 146,-30.5 318,-30.5 318,-0.5 146,-0.5"/>
<text text-anchor="start" x="154" y="-18.5" font-family="Helvetica,sans-Serif" font-size="10.00">scram::core::Uncertainty</text>
<text text-anchor="middle" x="232" y="-7.5" font-family="Helvetica,sans-Serif" font-size="10.00">Analysis::SampleEventProbabilities</text>
</a>
</g>
</g>
<!-- Node1&#45;&gt;Node3 -->
<g id="edge2" class="edge"><title>Node1&#45;&gt;Node3</title>
<path fill="none" stroke="midnightblue" d="M120.349,-29.4104C128.635,-28.3688 137.219,-27.2896 145.775,-26.214"/>
<polygon fill="midnightblue" stroke="midnightblue" points="119.897,-25.9396 110.412,-30.6597 120.77,-32.8849 119.897,-25.9396"/>
</g>
</g>
</svg>
