<?xml version="1.0" encoding="UTF-8" standalone="no"?>
<!DOCTYPE svg PUBLIC "-//W3C//DTD SVG 1.1//EN"
 "http://www.w3.org/Graphics/SVG/1.1/DTD/svg11.dtd">
<!-- Generated by graphviz version 2.38.0 (20140413.2041)
 -->
<!-- Title: scram::mef::GammaDeviate::Max Pages: 1 -->
<svg width="536pt" height="116pt"
 viewBox="0.00 0.00 536.00 115.50" xmlns="http://www.w3.org/2000/svg" xmlns:xlink="http://www.w3.org/1999/xlink">
<g id="graph0" class="graph" transform="scale(1 1) rotate(0) translate(4 111.5)">
<title>scram::mef::GammaDeviate::Max</title>
<polygon fill="white" stroke="none" points="-4,4 -4,-111.5 532,-111.5 532,4 -4,4"/>
<!-- Node1 -->
<g id="node1" class="node"><title>Node1</title>
<polygon fill="#bfbfbf" stroke="black" points="0,-50 0,-69 165,-69 165,-50 0,-50"/>
<text text-anchor="middle" x="82.5" y="-57" font-family="Helvetica,sans-Serif" font-size="10.00">scram::mef::GammaDeviate::Max</text>
</g>
<!-- Node2 -->
<g id="node2" class="node"><title>Node2</title>
<g id="a_node2"><a xlink:href="classscram_1_1Random.xhtml#ac70a7248ce1258d1fbee8c316717ac2b" target="_top" xlink:title="RNG from a Gamma distribution. ">
<polygon fill="white" stroke="black" points="201,-88 201,-107 371,-107 371,-88 201,-88"/>
<text text-anchor="middle" x="286" y="-95" font-family="Helvetica,sans-Serif" font-size="10.00">scram::Random::GammaGenerator</text>
</a>
</g>
</g>
<!-- Node1&#45;&gt;Node2 -->
<g id="edge1" class="edge"><title>Node1&#45;&gt;Node2</title>
<path fill="none" stroke="midnightblue" d="M134.087,-69.04C161.513,-74.2122 195.598,-80.6401 224.432,-86.0778"/>
<polygon fill="midnightblue" stroke="midnightblue" points="223.917,-89.5422 234.392,-87.9561 225.214,-82.6635 223.917,-89.5422"/>
</g>
<!-- Node3 -->
<g id="node3" class="node"><title>Node3</title>
<g id="a_node3"><a xlink:href="classscram_1_1mef_1_1Expression.xhtml#a6b2d7f3d3abf98002c8cccee426edecc" target="_top" xlink:title="scram::mef::Expression::Max">
<polygon fill="white" stroke="black" points="213,-50 213,-69 359,-69 359,-50 213,-50"/>
<text text-anchor="middle" x="286" y="-57" font-family="Helvetica,sans-Serif" font-size="10.00">scram::mef::Expression::Max</text>
</a>
</g>
</g>
<!-- Node1&#45;&gt;Node3 -->
<g id="edge2" class="edge"><title>Node1&#45;&gt;Node3</title>
<path fill="none" stroke="midnightblue" d="M165.167,-59.5C177.525,-59.5 190.281,-59.5 202.654,-59.5"/>
<polygon fill="midnightblue" stroke="midnightblue" points="202.939,-63.0001 212.939,-59.5 202.939,-56.0001 202.939,-63.0001"/>
</g>
<!-- Node5 -->
<g id="node5" class="node"><title>Node5</title>
<g id="a_node5"><a xlink:href="classscram_1_1mef_1_1Expression.xhtml#a5cf00d8b2ff843ad029a501a89ee572a" target="_top" xlink:title="scram::mef::Expression\l::Sample">
<polygon fill="white" stroke="black" points="225.5,-0.5 225.5,-30.5 346.5,-30.5 346.5,-0.5 225.5,-0.5"/>
<text text-anchor="start" x="233.5" y="-18.5" font-family="Helvetica,sans-Serif" font-size="10.00">scram::mef::Expression</text>
<text text-anchor="middle" x="286" y="-7.5" font-family="Helvetica,sans-Serif" font-size="10.00">::Sample</text>
</a>
</g>
</g>
<!-- Node1&#45;&gt;Node5 -->
<g id="edge4" class="edge"><title>Node1&#45;&gt;Node5</title>
<path fill="none" stroke="midnightblue" d="M127.222,-49.9527C153.013,-44.3211 186.236,-37.0663 215.539,-30.6676"/>
<polygon fill="midnightblue" stroke="midnightblue" points="216.287,-34.0869 225.31,-28.534 214.794,-27.248 216.287,-34.0869"/>
</g>
<!-- Node4 -->
<g id="node4" class="node"><title>Node4</title>
<g id="a_node4"><a xlink:href="classscram_1_1mef_1_1Expression.xhtml#ac7e0dd118eafdfa943944172c1625a4e" target="_top" xlink:title="scram::mef::Expression\l::Mean">
<polygon fill="white" stroke="black" points="407,-44.5 407,-74.5 528,-74.5 528,-44.5 407,-44.5"/>
<text text-anchor="start" x="415" y="-62.5" font-family="Helvetica,sans-Serif" font-size="10.00">scram::mef::Expression</text>
<text text-anchor="middle" x="467.5" y="-51.5" font-family="Helvetica,sans-Serif" font-size="10.00">::Mean</text>
</a>
</g>
</g>
<!-- Node3&#45;&gt;Node4 -->
<g id="edge3" class="edge"><title>Node3&#45;&gt;Node4</title>
<path fill="none" stroke="midnightblue" d="M359.234,-59.5C371.563,-59.5 384.352,-59.5 396.619,-59.5"/>
<polygon fill="midnightblue" stroke="midnightblue" points="396.779,-63.0001 406.779,-59.5 396.779,-56.0001 396.779,-63.0001"/>
</g>
</g>
</svg>
