<?xml version="1.0" encoding="UTF-8" standalone="no"?>
<!DOCTYPE svg PUBLIC "-//W3C//DTD SVG 1.1//EN"
 "http://www.w3.org/Graphics/SVG/1.1/DTD/svg11.dtd">
<!-- Generated by graphviz version 2.38.0 (20140413.2041)
 -->
<!-- Title: scram::mef::Element::GetAttribute Pages: 1 -->
<svg width="433pt" height="39pt"
 viewBox="0.00 0.00 433.00 39.00" xmlns="http://www.w3.org/2000/svg" xmlns:xlink="http://www.w3.org/1999/xlink">
<g id="graph0" class="graph" transform="scale(1 1) rotate(0) translate(4 35)">
<title>scram::mef::Element::GetAttribute</title>
<polygon fill="white" stroke="none" points="-4,4 -4,-35 429,-35 429,4 -4,4"/>
<!-- Node1 -->
<g id="node1" class="node"><title>Node1</title>
<polygon fill="#bfbfbf" stroke="black" points="0,-0.5 0,-30.5 108,-30.5 108,-0.5 0,-0.5"/>
<text text-anchor="start" x="8" y="-18.5" font-family="Helvetica,sans-Serif" font-size="10.00">scram::mef::Element</text>
<text text-anchor="middle" x="54" y="-7.5" font-family="Helvetica,sans-Serif" font-size="10.00">::GetAttribute</text>
</g>
<!-- Node2 -->
<g id="node2" class="node"><title>Node2</title>
<g id="a_node2"><a xlink:href="classscram_1_1mef_1_1Gate.xhtml#abeb0d7efda63e877e150f54719da1ba8" target="_top" xlink:title="Checks if a gate is initialized correctly. ">
<polygon fill="white" stroke="black" points="144,-6 144,-25 278,-25 278,-6 144,-6"/>
<text text-anchor="middle" x="211" y="-13" font-family="Helvetica,sans-Serif" font-size="10.00">scram::mef::Gate::Validate</text>
</a>
</g>
</g>
<!-- Node1&#45;&gt;Node2 -->
<g id="edge1" class="edge"><title>Node1&#45;&gt;Node2</title>
<path fill="none" stroke="midnightblue" d="M118.459,-15.5C126.869,-15.5 135.507,-15.5 143.959,-15.5"/>
<polygon fill="midnightblue" stroke="midnightblue" points="118.342,-12.0001 108.342,-15.5 118.342,-19.0001 118.342,-12.0001"/>
</g>
<!-- Node3 -->
<g id="node3" class="node"><title>Node3</title>
<g id="a_node3"><a xlink:href="classscram_1_1mef_1_1Initializer.xhtml#a8fb6959baa83f7619b3ca9ed8423d40a" target="_top" xlink:title="Reads input files with the structure of analysis constructs. ">
<polygon fill="white" stroke="black" points="314,-0.5 314,-30.5 425,-30.5 425,-0.5 314,-0.5"/>
<text text-anchor="start" x="322" y="-18.5" font-family="Helvetica,sans-Serif" font-size="10.00">scram::mef::Initializer</text>
<text text-anchor="middle" x="369.5" y="-7.5" font-family="Helvetica,sans-Serif" font-size="10.00">::Initializer</text>
</a>
</g>
</g>
<!-- Node2&#45;&gt;Node3 -->
<g id="edge2" class="edge"><title>Node2&#45;&gt;Node3</title>
<path fill="none" stroke="midnightblue" d="M288.415,-15.5C297.004,-15.5 305.623,-15.5 313.857,-15.5"/>
<polygon fill="midnightblue" stroke="midnightblue" points="288.37,-12.0001 278.37,-15.5 288.37,-19.0001 288.37,-12.0001"/>
</g>
</g>
</svg>
