<?xml version="1.0" encoding="UTF-8" standalone="no"?>
<!DOCTYPE svg PUBLIC "-//W3C//DTD SVG 1.1//EN"
 "http://www.w3.org/Graphics/SVG/1.1/DTD/svg11.dtd">
<!-- Generated by graphviz version 2.38.0 (20140413.2041)
 -->
<!-- Title: scram::core::Zbdd::modules Pages: 1 -->
<svg width="276pt" height="284pt"
 viewBox="0.00 0.00 276.00 284.00" xmlns="http://www.w3.org/2000/svg" xmlns:xlink="http://www.w3.org/1999/xlink">
<g id="graph0" class="graph" transform="scale(1 1) rotate(0) translate(4 280)">
<title>scram::core::Zbdd::modules</title>
<polygon fill="white" stroke="none" points="-4,4 -4,-280 272,-280 272,4 -4,4"/>
<!-- Node1 -->
<g id="node1" class="node"><title>Node1</title>
<polygon fill="#bfbfbf" stroke="black" points="0,-122.5 0,-152.5 102,-152.5 102,-122.5 0,-122.5"/>
<text text-anchor="start" x="8" y="-140.5" font-family="Helvetica,sans-Serif" font-size="10.00">scram::core::Zbdd::</text>
<text text-anchor="middle" x="51" y="-129.5" font-family="Helvetica,sans-Serif" font-size="10.00">modules</text>
</g>
<!-- Node2 -->
<g id="node2" class="node"><title>Node2</title>
<g id="a_node2"><a xlink:href="classscram_1_1core_1_1NonTerminal.xhtml#adcdd0c5114aa6a1d32a03928adc07c49" target="_top" xlink:title="scram::core::NonTerminal\l\&lt; SetNode \&gt;::coherent">
<polygon fill="white" stroke="black" points="138,-245.5 138,-275.5 268,-275.5 268,-245.5 138,-245.5"/>
<text text-anchor="start" x="146" y="-263.5" font-family="Helvetica,sans-Serif" font-size="10.00">scram::core::NonTerminal</text>
<text text-anchor="middle" x="203" y="-252.5" font-family="Helvetica,sans-Serif" font-size="10.00">&lt; SetNode &gt;::coherent</text>
</a>
</g>
</g>
<!-- Node1&#45;&gt;Node2 -->
<g id="edge1" class="edge"><title>Node1&#45;&gt;Node2</title>
<path fill="none" stroke="midnightblue" d="M61.577,-152.671C75.8203,-174.111 104.531,-213.249 138,-236.5 140.132,-237.981 142.367,-239.384 144.671,-240.712"/>
<polygon fill="midnightblue" stroke="midnightblue" points="143.348,-243.968 153.836,-245.465 146.57,-237.754 143.348,-243.968"/>
</g>
<!-- Node3 -->
<g id="node3" class="node"><title>Node3</title>
<g id="a_node3"><a xlink:href="classscram_1_1core_1_1NonTerminal.xhtml#a7b184b2ba68a289aae9f3737f1d13b97" target="_top" xlink:title="scram::core::NonTerminal\l\&lt; SetNode \&gt;::high">
<polygon fill="white" stroke="black" points="138,-196.5 138,-226.5 268,-226.5 268,-196.5 138,-196.5"/>
<text text-anchor="start" x="146" y="-214.5" font-family="Helvetica,sans-Serif" font-size="10.00">scram::core::NonTerminal</text>
<text text-anchor="middle" x="203" y="-203.5" font-family="Helvetica,sans-Serif" font-size="10.00">&lt; SetNode &gt;::high</text>
</a>
</g>
</g>
<!-- Node1&#45;&gt;Node3 -->
<g id="edge2" class="edge"><title>Node1&#45;&gt;Node3</title>
<path fill="none" stroke="midnightblue" d="M75.5132,-152.615C92.4801,-163.16 116.152,-177.142 138,-187.5 141.74,-189.273 145.648,-191.008 149.61,-192.683"/>
<polygon fill="midnightblue" stroke="midnightblue" points="148.316,-195.935 158.897,-196.471 150.96,-189.454 148.316,-195.935"/>
</g>
<!-- Node4 -->
<g id="node4" class="node"><title>Node4</title>
<g id="a_node4"><a xlink:href="classscram_1_1core_1_1NonTerminal.xhtml#aeeaafd82ae5890a7ec3462c68ffc8628" target="_top" xlink:title="scram::core::NonTerminal\l\&lt; SetNode \&gt;::index">
<polygon fill="white" stroke="black" points="138,-147.5 138,-177.5 268,-177.5 268,-147.5 138,-147.5"/>
<text text-anchor="start" x="146" y="-165.5" font-family="Helvetica,sans-Serif" font-size="10.00">scram::core::NonTerminal</text>
<text text-anchor="middle" x="203" y="-154.5" font-family="Helvetica,sans-Serif" font-size="10.00">&lt; SetNode &gt;::index</text>
</a>
</g>
</g>
<!-- Node1&#45;&gt;Node4 -->
<g id="edge3" class="edge"><title>Node1&#45;&gt;Node4</title>
<path fill="none" stroke="midnightblue" d="M102.365,-145.894C110.562,-147.26 119.201,-148.7 127.826,-150.138"/>
<polygon fill="midnightblue" stroke="midnightblue" points="127.476,-153.628 137.916,-151.819 128.627,-146.723 127.476,-153.628"/>
</g>
<!-- Node5 -->
<g id="node5" class="node"><title>Node5</title>
<g id="a_node5"><a xlink:href="classscram_1_1core_1_1NonTerminal.xhtml#adeb100923176ebd5f820c75b79280796" target="_top" xlink:title="scram::core::NonTerminal\l\&lt; SetNode \&gt;::low">
<polygon fill="white" stroke="black" points="138,-98.5 138,-128.5 268,-128.5 268,-98.5 138,-98.5"/>
<text text-anchor="start" x="146" y="-116.5" font-family="Helvetica,sans-Serif" font-size="10.00">scram::core::NonTerminal</text>
<text text-anchor="middle" x="203" y="-105.5" font-family="Helvetica,sans-Serif" font-size="10.00">&lt; SetNode &gt;::low</text>
</a>
</g>
</g>
<!-- Node1&#45;&gt;Node5 -->
<g id="edge4" class="edge"><title>Node1&#45;&gt;Node5</title>
<path fill="none" stroke="midnightblue" d="M102.365,-129.442C110.562,-128.13 119.201,-126.748 127.826,-125.368"/>
<polygon fill="midnightblue" stroke="midnightblue" points="128.594,-128.79 137.916,-123.753 127.488,-121.877 128.594,-128.79"/>
</g>
<!-- Node6 -->
<g id="node6" class="node"><title>Node6</title>
<g id="a_node6"><a xlink:href="classscram_1_1core_1_1NonTerminal.xhtml#a9230422e92d086c34f67bcb864bfc8a9" target="_top" xlink:title="scram::core::NonTerminal\l\&lt; SetNode \&gt;::module">
<polygon fill="white" stroke="black" points="138,-49.5 138,-79.5 268,-79.5 268,-49.5 138,-49.5"/>
<text text-anchor="start" x="146" y="-67.5" font-family="Helvetica,sans-Serif" font-size="10.00">scram::core::NonTerminal</text>
<text text-anchor="middle" x="203" y="-56.5" font-family="Helvetica,sans-Serif" font-size="10.00">&lt; SetNode &gt;::module</text>
</a>
</g>
</g>
<!-- Node1&#45;&gt;Node6 -->
<g id="edge5" class="edge"><title>Node1&#45;&gt;Node6</title>
<path fill="none" stroke="midnightblue" d="M77.1101,-122.286C94.011,-112.347 116.968,-99.4204 138,-89.5 142.356,-87.4454 146.93,-85.417 151.545,-83.4577"/>
<polygon fill="midnightblue" stroke="midnightblue" points="153.11,-86.598 161.018,-79.5467 150.439,-80.1277 153.11,-86.598"/>
</g>
<!-- Node7 -->
<g id="node7" class="node"><title>Node7</title>
<g id="a_node7"><a xlink:href="classscram_1_1core_1_1NonTerminal.xhtml#af5853746ad388f479a7aa45c5d843466" target="_top" xlink:title="scram::core::NonTerminal\l\&lt; SetNode \&gt;::order">
<polygon fill="white" stroke="black" points="138,-0.5 138,-30.5 268,-30.5 268,-0.5 138,-0.5"/>
<text text-anchor="start" x="146" y="-18.5" font-family="Helvetica,sans-Serif" font-size="10.00">scram::core::NonTerminal</text>
<text text-anchor="middle" x="203" y="-7.5" font-family="Helvetica,sans-Serif" font-size="10.00">&lt; SetNode &gt;::order</text>
</a>
</g>
</g>
<!-- Node1&#45;&gt;Node7 -->
<g id="edge6" class="edge"><title>Node1&#45;&gt;Node7</title>
<path fill="none" stroke="midnightblue" d="M61.9345,-122.354C76.3982,-101.359 105.14,-63.4138 138,-40.5 140.691,-38.6237 143.542,-36.862 146.488,-35.2119"/>
<polygon fill="midnightblue" stroke="midnightblue" points="148.227,-38.2543 155.546,-30.5938 145.047,-32.0181 148.227,-38.2543"/>
</g>
</g>
</svg>
