<?xml version="1.0" encoding="UTF-8" standalone="no"?>
<!DOCTYPE svg PUBLIC "-//W3C//DTD SVG 1.1//EN"
 "http://www.w3.org/Graphics/SVG/1.1/DTD/svg11.dtd">
<!-- Generated by graphviz version 2.38.0 (20140413.2041)
 -->
<!-- Title: scram::core::BooleanGraph::root Pages: 1 -->
<svg width="302pt" height="166pt"
 viewBox="0.00 0.00 302.00 165.50" xmlns="http://www.w3.org/2000/svg" xmlns:xlink="http://www.w3.org/1999/xlink">
<g id="graph0" class="graph" transform="scale(1 1) rotate(0) translate(4 161.5)">
<title>scram::core::BooleanGraph::root</title>
<polygon fill="white" stroke="none" points="-4,4 -4,-161.5 298,-161.5 298,4 -4,4"/>
<!-- Node1 -->
<g id="node1" class="node"><title>Node1</title>
<polygon fill="#bfbfbf" stroke="black" points="0,-61 0,-91 136,-91 136,-61 0,-61"/>
<text text-anchor="start" x="8" y="-79" font-family="Helvetica,sans-Serif" font-size="10.00">scram::core::BooleanGraph</text>
<text text-anchor="middle" x="68" y="-68" font-family="Helvetica,sans-Serif" font-size="10.00">::root</text>
</g>
<!-- Node2 -->
<g id="node2" class="node"><title>Node2</title>
<g id="a_node2"><a xlink:href="classscram_1_1core_1_1Mocus.xhtml#a008348c27bdc85ad9d0d106b18dcc1a2" target="_top" xlink:title="Finds minimal cut sets from the Boolean graph. ">
<polygon fill="white" stroke="black" points="181,-127 181,-157 285,-157 285,-127 181,-127"/>
<text text-anchor="start" x="189" y="-145" font-family="Helvetica,sans-Serif" font-size="10.00">scram::core::Mocus</text>
<text text-anchor="middle" x="233" y="-134" font-family="Helvetica,sans-Serif" font-size="10.00">::Analyze</text>
</a>
</g>
</g>
<!-- Node1&#45;&gt;Node2 -->
<g id="edge1" class="edge"><title>Node1&#45;&gt;Node2</title>
<path fill="none" stroke="midnightblue" d="M115.72,-94.9173C140.809,-105.076 171.31,-117.426 194.779,-126.929"/>
<polygon fill="midnightblue" stroke="midnightblue" points="116.978,-91.6507 106.395,-91.1417 114.351,-98.139 116.978,-91.6507"/>
</g>
<!-- Node3 -->
<g id="node3" class="node"><title>Node3</title>
<g id="a_node3"><a xlink:href="classscram_1_1core_1_1Bdd.xhtml#a16eaf1b11082887e008e0c90cb39ceb3" target="_top" xlink:title="Constructor with the analysis target. ">
<polygon fill="white" stroke="black" points="175.5,-88.5 175.5,-107.5 290.5,-107.5 290.5,-88.5 175.5,-88.5"/>
<text text-anchor="middle" x="233" y="-95.5" font-family="Helvetica,sans-Serif" font-size="10.00">scram::core::Bdd::Bdd</text>
</a>
</g>
</g>
<!-- Node1&#45;&gt;Node3 -->
<g id="edge2" class="edge"><title>Node1&#45;&gt;Node3</title>
<path fill="none" stroke="midnightblue" d="M146.354,-86.4404C156.109,-87.7571 165.944,-89.0845 175.298,-90.347"/>
<polygon fill="midnightblue" stroke="midnightblue" points="146.618,-82.9444 136.239,-85.0753 145.681,-89.8815 146.618,-82.9444"/>
</g>
<!-- Node4 -->
<g id="node4" class="node"><title>Node4</title>
<g id="a_node4"><a xlink:href="classscram_1_1core_1_1Mocus.xhtml#af92f2483abeea91acbf203e0f2397760" target="_top" xlink:title="Prepares a Boolean graph for analysis with the MOCUS algorithm. ">
<polygon fill="white" stroke="black" points="181,-39 181,-69 285,-69 285,-39 181,-39"/>
<text text-anchor="start" x="189" y="-57" font-family="Helvetica,sans-Serif" font-size="10.00">scram::core::Mocus</text>
<text text-anchor="middle" x="233" y="-46" font-family="Helvetica,sans-Serif" font-size="10.00">::Mocus</text>
</a>
</g>
</g>
<!-- Node1&#45;&gt;Node4 -->
<g id="edge3" class="edge"><title>Node1&#45;&gt;Node4</title>
<path fill="none" stroke="midnightblue" d="M146.449,-65.5467C158.128,-63.9705 169.917,-62.3793 180.856,-60.9029"/>
<polygon fill="midnightblue" stroke="midnightblue" points="145.681,-62.1185 136.239,-66.9247 146.618,-69.0556 145.681,-62.1185"/>
</g>
<!-- Node5 -->
<g id="node5" class="node"><title>Node5</title>
<g id="a_node5"><a xlink:href="boolean__graph_8cc.xhtml#a751ad5b9fa22eda4a00b23010c27e03d" target="_top" xlink:title="Prints the BooleanGraph as a fault tree in the Aralia format. ">
<polygon fill="white" stroke="black" points="172,-0.5 172,-19.5 294,-19.5 294,-0.5 172,-0.5"/>
<text text-anchor="middle" x="233" y="-7.5" font-family="Helvetica,sans-Serif" font-size="10.00">scram::core::operator&lt;&lt;</text>
</a>
</g>
</g>
<!-- Node1&#45;&gt;Node5 -->
<g id="edge4" class="edge"><title>Node1&#45;&gt;Node5</title>
<path fill="none" stroke="midnightblue" d="M109.819,-56.6602C128.58,-48.0598 151.233,-38.0761 172,-30 181.415,-26.3387 191.812,-22.726 201.269,-19.5997"/>
<polygon fill="midnightblue" stroke="midnightblue" points="108.283,-53.5146 100.672,-60.885 111.218,-59.8695 108.283,-53.5146"/>
</g>
</g>
</svg>
