<?xml version="1.0" encoding="UTF-8" standalone="no"?>
<!DOCTYPE svg PUBLIC "-//W3C//DTD SVG 1.1//EN"
 "http://www.w3.org/Graphics/SVG/1.1/DTD/svg11.dtd">
<!-- Generated by graphviz version 2.38.0 (20140413.2041)
 -->
<!-- Title: scram::core::Preprocessor::MergeCommonArgs Pages: 1 -->
<!--zoomable 473 -->
<svg id="main" version="1.1" xmlns="http://www.w3.org/2000/svg" xmlns:xlink="http://www.w3.org/1999/xlink" xml:space="preserve" onload="init(evt)">
<style type="text/css"><![CDATA[
.edge:hover path { stroke: red; }
.edge:hover polygon { stroke: red; fill: red; }
]]></style>
<script type="text/javascript"><![CDATA[
var edges = document.getElementsByTagName('g');
if (edges && edges.length) {
  for (var i=0;i<edges.length;i++) {
    if (edges[i].id.substr(0,4)=='edge') {
      edges[i].setAttribute('class','edge');
    }
  }
}
]]></script>
        <defs>
                <circle id="rim" cx="0" cy="0" r="7"/>
                <circle id="rim2" cx="0" cy="0" r="3.5"/>
                <g id="zoomPlus">
                        <use xlink:href="#rim" fill="#404040">
                                <set attributeName="fill" to="#808080" begin="zoomplus.mouseover" end="zoomplus.mouseout"/>
                        </use>
                        <path d="M-4,0h8M0,-4v8" fill="none" stroke="white" stroke-width="1.5" pointer-events="none"/>
                </g>
                <g id="zoomMin">
                        <use xlink:href="#rim" fill="#404040">
                                <set attributeName="fill" to="#808080" begin="zoomminus.mouseover" end="zoomminus.mouseout"/>
                        </use>
                        <path d="M-4,0h8" fill="none" stroke="white" stroke-width="1.5" pointer-events="none"/>
                </g>
                <g id="dirArrow">
                        <path fill="none" stroke="white" stroke-width="1.5" d="M0,-3.0v7 M-2.5,-0.5L0,-3.0L2.5,-0.5"/>
                </g>
               <g id="resetDef">
                       <use xlink:href="#rim2" fill="#404040">
                               <set attributeName="fill" to="#808080" begin="reset.mouseover" end="reset.mouseout"/>
                       </use>
               </g>
        </defs>

<script type="text/javascript">
var viewWidth = 644;
var viewHeight = 473;
var sectionId = 'dynsection-56';
</script>
<script xlink:href="svgpan.js"/>
<svg id="graph" class="graph">
<g id="viewport">
<title>scram::core::Preprocessor::MergeCommonArgs</title>
<polygon fill="white" stroke="none" points="-4,4 -4,-469 640,-469 640,4 -4,4"/>
<!-- Node1 -->
<g id="node1" class="node"><title>Node1</title>
<polygon fill="#bfbfbf" stroke="black" points="0,-220.5 0,-250.5 132,-250.5 132,-220.5 0,-220.5"/>
<text text-anchor="start" x="8" y="-238.5" font-family="Helvetica,sans-Serif" font-size="10.00">scram::core::Preprocessor</text>
<text text-anchor="middle" x="66" y="-227.5" font-family="Helvetica,sans-Serif" font-size="10.00">::MergeCommonArgs</text>
</g>
<!-- Node2 -->
<g id="node2" class="node"><title>Node2</title>
<g id="a_node2"><a xlink:href="classscram_1_1core_1_1Preprocessor.xhtml#ac3279b95fc83a2ae909c011de083d57e" target="_top" xlink:title="Clears all constant gates registered for removal by algorithms or other preprocessing functions...">
<polygon fill="white" stroke="black" points="168,-432.5 168,-462.5 300,-462.5 300,-432.5 168,-432.5"/>
<text text-anchor="start" x="176" y="-450.5" font-family="Helvetica,sans-Serif" font-size="10.00">scram::core::Preprocessor</text>
<text text-anchor="middle" x="234" y="-439.5" font-family="Helvetica,sans-Serif" font-size="10.00">::ClearConstGates</text>
</a>
</g>
</g>
<!-- Node1&#45;&gt;Node2 -->
<g id="edge1" class="edge"><title>Node1&#45;&gt;Node2</title>
<path fill="none" stroke="midnightblue" d="M71.8492,-250.626C83.3895,-284.485 115.509,-367.263 168,-416.5 172.323,-420.555 177.274,-424.171 182.472,-427.372"/>
<polygon fill="midnightblue" stroke="midnightblue" points="180.951,-430.532 191.385,-432.371 184.375,-424.427 180.951,-430.532"/>
</g>
<!-- Node5 -->
<g id="node5" class="node"><title>Node5</title>
<g id="a_node5"><a xlink:href="classscram_1_1core_1_1Preprocessor.xhtml#ae483f228040c0d2422792c9cf0d05886" target="_top" xlink:title="Clears all NULL type gates registered for removal by algorithms or other preprocessing functions...">
<polygon fill="white" stroke="black" points="336,-385.5 336,-415.5 468,-415.5 468,-385.5 336,-385.5"/>
<text text-anchor="start" x="344" y="-403.5" font-family="Helvetica,sans-Serif" font-size="10.00">scram::core::Preprocessor</text>
<text text-anchor="middle" x="402" y="-392.5" font-family="Helvetica,sans-Serif" font-size="10.00">::ClearNullGates</text>
</a>
</g>
</g>
<!-- Node1&#45;&gt;Node5 -->
<g id="edge5" class="edge"><title>Node1&#45;&gt;Node5</title>
<path fill="none" stroke="midnightblue" d="M72.1586,-250.588C83.7104,-281.764 114.892,-352.923 168,-383.5 215.418,-410.801 277.564,-414.049 325.747,-411.013"/>
<polygon fill="midnightblue" stroke="midnightblue" points="326.089,-414.498 335.807,-410.277 325.578,-407.516 326.089,-414.498"/>
</g>
<!-- Node6 -->
<g id="node6" class="node"><title>Node6</title>
<g id="a_node6"><a xlink:href="classscram_1_1core_1_1Preprocessor.xhtml#aba011f495cdec8449a315c17fe67a8c0" target="_top" xlink:title="Filters merge candidates and their shared arguments to detect opportunities for simplifications like ...">
<polygon fill="white" stroke="black" points="168,-343.5 168,-373.5 300,-373.5 300,-343.5 168,-343.5"/>
<text text-anchor="start" x="176" y="-361.5" font-family="Helvetica,sans-Serif" font-size="10.00">scram::core::Preprocessor</text>
<text text-anchor="middle" x="234" y="-350.5" font-family="Helvetica,sans-Serif" font-size="10.00">::FilterMergeCandidates</text>
</a>
</g>
</g>
<!-- Node1&#45;&gt;Node6 -->
<g id="edge7" class="edge"><title>Node1&#45;&gt;Node6</title>
<path fill="none" stroke="midnightblue" d="M78.8379,-250.599C96.2838,-271.952 130.869,-310.985 168,-334.5 170.56,-336.121 173.245,-337.656 176.006,-339.105"/>
<polygon fill="midnightblue" stroke="midnightblue" points="174.495,-342.261 185.024,-343.444 177.53,-335.954 174.495,-342.261"/>
</g>
<!-- Node7 -->
<g id="node7" class="node"><title>Node7</title>
<g id="a_node7"><a xlink:href="classscram_1_1core_1_1Preprocessor.xhtml#aef197badfb47bb3c604fd93d6260e635" target="_top" xlink:title="Gathers common arguments of the gates in the group of a specific operator. ">
<polygon fill="white" stroke="black" points="168,-294.5 168,-324.5 300,-324.5 300,-294.5 168,-294.5"/>
<text text-anchor="start" x="176" y="-312.5" font-family="Helvetica,sans-Serif" font-size="10.00">scram::core::Preprocessor</text>
<text text-anchor="middle" x="234" y="-301.5" font-family="Helvetica,sans-Serif" font-size="10.00">::GatherCommonArgs</text>
</a>
</g>
</g>
<!-- Node1&#45;&gt;Node7 -->
<g id="edge8" class="edge"><title>Node1&#45;&gt;Node7</title>
<path fill="none" stroke="midnightblue" d="M95.3542,-250.544C115.392,-260.926 143.022,-274.742 168,-285.5 172.088,-287.261 176.352,-289.014 180.656,-290.725"/>
<polygon fill="midnightblue" stroke="midnightblue" points="179.5,-294.03 190.088,-294.389 182.035,-287.505 179.5,-294.03"/>
</g>
<!-- Node8 -->
<g id="node8" class="node"><title>Node8</title>
<g id="a_node8"><a xlink:href="classscram_1_1core_1_1Preprocessor.xhtml#af4dae5abf76e5da8b8c9f4371550b7dc" target="_top" xlink:title="Gathers all modules in the Boolean graph. ">
<polygon fill="white" stroke="black" points="168,-245.5 168,-275.5 300,-275.5 300,-245.5 168,-245.5"/>
<text text-anchor="start" x="176" y="-263.5" font-family="Helvetica,sans-Serif" font-size="10.00">scram::core::Preprocessor</text>
<text text-anchor="middle" x="234" y="-252.5" font-family="Helvetica,sans-Serif" font-size="10.00">::GatherModules</text>
</a>
</g>
</g>
<!-- Node1&#45;&gt;Node8 -->
<g id="edge9" class="edge"><title>Node1&#45;&gt;Node8</title>
<path fill="none" stroke="midnightblue" d="M132.131,-245.309C140.553,-246.577 149.232,-247.884 157.8,-249.175"/>
<polygon fill="midnightblue" stroke="midnightblue" points="157.374,-252.65 167.784,-250.678 158.417,-245.728 157.374,-252.65"/>
</g>
<!-- Node11 -->
<g id="node11" class="node"><title>Node11</title>
<g id="a_node11"><a xlink:href="classscram_1_1core_1_1Preprocessor.xhtml#adabd895d60a8ee0950f75da9a98fa155" target="_top" xlink:title="Groups candidates with common arguments. ">
<polygon fill="white" stroke="black" points="168,-196.5 168,-226.5 300,-226.5 300,-196.5 168,-196.5"/>
<text text-anchor="start" x="176" y="-214.5" font-family="Helvetica,sans-Serif" font-size="10.00">scram::core::Preprocessor</text>
<text text-anchor="middle" x="234" y="-203.5" font-family="Helvetica,sans-Serif" font-size="10.00">::GroupCandidatesByArgs</text>
</a>
</g>
</g>
<!-- Node1&#45;&gt;Node11 -->
<g id="edge12" class="edge"><title>Node1&#45;&gt;Node11</title>
<path fill="none" stroke="midnightblue" d="M132.131,-226.083C140.553,-224.866 149.232,-223.611 157.8,-222.372"/>
<polygon fill="midnightblue" stroke="midnightblue" points="158.388,-225.824 167.784,-220.929 157.386,-218.896 158.388,-225.824"/>
</g>
<!-- Node12 -->
<g id="node12" class="node"><title>Node12</title>
<g id="a_node12"><a xlink:href="classscram_1_1core_1_1Preprocessor.xhtml#a4f35278c0542722dc42cc74358522a64" target="_top" xlink:title="Groups common args for merging. ">
<polygon fill="white" stroke="black" points="168,-147.5 168,-177.5 300,-177.5 300,-147.5 168,-147.5"/>
<text text-anchor="start" x="176" y="-165.5" font-family="Helvetica,sans-Serif" font-size="10.00">scram::core::Preprocessor</text>
<text text-anchor="middle" x="234" y="-154.5" font-family="Helvetica,sans-Serif" font-size="10.00">::GroupCommonArgs</text>
</a>
</g>
</g>
<!-- Node1&#45;&gt;Node12 -->
<g id="edge13" class="edge"><title>Node1&#45;&gt;Node12</title>
<path fill="none" stroke="midnightblue" d="M97.2197,-220.395C117.145,-210.62 143.915,-197.837 168,-187.5 172.739,-185.466 177.704,-183.416 182.687,-181.411"/>
<polygon fill="midnightblue" stroke="midnightblue" points="184.23,-184.564 192.239,-177.628 181.653,-178.056 184.23,-184.564"/>
</g>
<!-- Node15 -->
<g id="node15" class="node"><title>Node15</title>
<g id="a_node15"><a xlink:href="classscram_1_1core_1_1Preprocessor.xhtml#af9b5fba2247a02afe6cf480a405b6ca0" target="_top" xlink:title="Finds intersections of common arguments of gates. ">
<polygon fill="white" stroke="black" points="168,-98.5 168,-128.5 300,-128.5 300,-98.5 168,-98.5"/>
<text text-anchor="start" x="176" y="-116.5" font-family="Helvetica,sans-Serif" font-size="10.00">scram::core::Preprocessor</text>
<text text-anchor="middle" x="234" y="-105.5" font-family="Helvetica,sans-Serif" font-size="10.00">::GroupCommonParents</text>
</a>
</g>
</g>
<!-- Node1&#45;&gt;Node15 -->
<g id="edge16" class="edge"><title>Node1&#45;&gt;Node15</title>
<path fill="none" stroke="midnightblue" d="M79.2437,-220.438C96.915,-199.541 131.478,-161.713 168,-138.5 171.09,-136.536 174.358,-134.687 177.72,-132.953"/>
<polygon fill="midnightblue" stroke="midnightblue" points="179.258,-136.097 186.776,-128.632 176.243,-129.779 179.258,-136.097"/>
</g>
<!-- Node16 -->
<g id="node16" class="node"><title>Node16</title>
<g id="a_node16"><a xlink:href="classscram_1_1core_1_1Preprocessor.xhtml#a13778626bd9ce007e01b7bbd8d11e850" target="_top" xlink:title="Marks common arguments of gates with a specific operator. ">
<polygon fill="white" stroke="black" points="168,-49.5 168,-79.5 300,-79.5 300,-49.5 168,-49.5"/>
<text text-anchor="start" x="176" y="-67.5" font-family="Helvetica,sans-Serif" font-size="10.00">scram::core::Preprocessor</text>
<text text-anchor="middle" x="234" y="-56.5" font-family="Helvetica,sans-Serif" font-size="10.00">::MarkCommonArgs</text>
</a>
</g>
</g>
<!-- Node1&#45;&gt;Node16 -->
<g id="edge17" class="edge"><title>Node1&#45;&gt;Node16</title>
<path fill="none" stroke="midnightblue" d="M73.6324,-220.461C87.2317,-191.248 120.999,-126.461 168,-89.5 170.272,-87.7133 172.687,-86.0423 175.197,-84.4809"/>
<polygon fill="midnightblue" stroke="midnightblue" points="176.983,-87.4926 184.036,-79.586 173.592,-81.369 176.983,-87.4926"/>
</g>
<!-- Node17 -->
<g id="node17" class="node"><title>Node17</title>
<g id="a_node17"><a xlink:href="classscram_1_1core_1_1Preprocessor.xhtml#acf534fb9d9510d712a78cb5d27572ec1" target="_top" xlink:title="Transforms common arguments of gates into new gates. ">
<polygon fill="white" stroke="black" points="168,-0.5 168,-30.5 300,-30.5 300,-0.5 168,-0.5"/>
<text text-anchor="start" x="176" y="-18.5" font-family="Helvetica,sans-Serif" font-size="10.00">scram::core::Preprocessor</text>
<text text-anchor="middle" x="234" y="-7.5" font-family="Helvetica,sans-Serif" font-size="10.00">::TransformCommonArgs</text>
</a>
</g>
</g>
<!-- Node1&#45;&gt;Node17 -->
<g id="edge18" class="edge"><title>Node1&#45;&gt;Node17</title>
<path fill="none" stroke="midnightblue" d="M70.852,-220.256C80.7583,-184.033 110.471,-91.9873 168,-40.5 169.892,-38.8067 171.911,-37.223 174.023,-35.7423"/>
<polygon fill="midnightblue" stroke="midnightblue" points="175.852,-38.7265 182.563,-30.5278 172.204,-32.7522 175.852,-38.7265"/>
</g>
<!-- Node3 -->
<g id="node3" class="node"><title>Node3</title>
<g id="a_node3"><a xlink:href="classscram_1_1core_1_1Preprocessor.xhtml#a4931fe17580d91b31d8c2077f64dc728" target="_top" xlink:title="Propagates a Boolean constant bottom&#45;up. ">
<polygon fill="white" stroke="black" points="336,-434.5 336,-464.5 468,-464.5 468,-434.5 336,-434.5"/>
<text text-anchor="start" x="344" y="-452.5" font-family="Helvetica,sans-Serif" font-size="10.00">scram::core::Preprocessor</text>
<text text-anchor="middle" x="402" y="-441.5" font-family="Helvetica,sans-Serif" font-size="10.00">::PropagateConstant</text>
</a>
</g>
</g>
<!-- Node2&#45;&gt;Node3 -->
<g id="edge2" class="edge"><title>Node2&#45;&gt;Node3</title>
<path fill="none" stroke="midnightblue" d="M300.131,-448.285C308.461,-448.385 317.044,-448.488 325.521,-448.591"/>
<polygon fill="midnightblue" stroke="midnightblue" points="325.743,-452.093 335.784,-448.714 325.827,-445.094 325.743,-452.093"/>
</g>
<!-- Node4 -->
<g id="node4" class="node"><title>Node4</title>
<g id="a_node4"><a xlink:href="classscram_1_1core_1_1Preprocessor.xhtml#a860e7142f3e0b33ca799f1d8218eb091" target="_top" xlink:title="Propagate NULL type gates bottom&#45;up. ">
<polygon fill="white" stroke="black" points="504,-434.5 504,-464.5 636,-464.5 636,-434.5 504,-434.5"/>
<text text-anchor="start" x="512" y="-452.5" font-family="Helvetica,sans-Serif" font-size="10.00">scram::core::Preprocessor</text>
<text text-anchor="middle" x="570" y="-441.5" font-family="Helvetica,sans-Serif" font-size="10.00">::PropagateNullGate</text>
</a>
</g>
</g>
<!-- Node3&#45;&gt;Node4 -->
<g id="edge3" class="edge"><title>Node3&#45;&gt;Node4</title>
<path fill="none" stroke="midnightblue" d="M468.131,-442.891C476.461,-442.758 485.044,-442.719 493.521,-442.775"/>
<polygon fill="midnightblue" stroke="midnightblue" points="493.746,-446.277 503.784,-442.89 493.824,-439.278 493.746,-446.277"/>
</g>
<!-- Node4&#45;&gt;Node3 -->
<g id="edge4" class="edge"><title>Node4&#45;&gt;Node3</title>
<path fill="none" stroke="midnightblue" d="M503.784,-456.11C495.452,-456.243 486.869,-456.281 478.393,-456.225"/>
<polygon fill="midnightblue" stroke="midnightblue" points="478.17,-452.722 468.131,-456.109 478.091,-459.722 478.17,-452.722"/>
</g>
<!-- Node5&#45;&gt;Node4 -->
<g id="edge6" class="edge"><title>Node5&#45;&gt;Node4</title>
<path fill="none" stroke="midnightblue" d="M454.16,-415.601C471.281,-420.655 490.532,-426.338 508.308,-431.585"/>
<polygon fill="midnightblue" stroke="midnightblue" points="507.427,-434.974 518.009,-434.448 509.409,-428.26 507.427,-434.974"/>
</g>
<!-- Node9 -->
<g id="node9" class="node"><title>Node9</title>
<g id="a_node9"><a xlink:href="classscram_1_1core_1_1Gate.xhtml#aa793eeaa12244c5b39a0d80e5b1518ae" target="_top" xlink:title="scram::core::Gate::args">
<polygon fill="white" stroke="black" points="342,-270 342,-289 462,-289 462,-270 342,-270"/>
<text text-anchor="middle" x="402" y="-277" font-family="Helvetica,sans-Serif" font-size="10.00">scram::core::Gate::args</text>
</a>
</g>
</g>
<!-- Node8&#45;&gt;Node9 -->
<g id="edge10" class="edge"><title>Node8&#45;&gt;Node9</title>
<path fill="none" stroke="midnightblue" d="M300.131,-267.955C310.594,-269.152 321.454,-270.395 332.004,-271.603"/>
<polygon fill="midnightblue" stroke="midnightblue" points="331.667,-275.087 342,-272.747 332.463,-268.132 331.667,-275.087"/>
</g>
<!-- Node10 -->
<g id="node10" class="node"><title>Node10</title>
<g id="a_node10"><a xlink:href="classscram_1_1core_1_1Gate.xhtml#ab0e18a9481c5e712cbb0b0ff27ba72a5" target="_top" xlink:title="Marks are used for linear traversal of graphs. ">
<polygon fill="white" stroke="black" points="340.5,-232 340.5,-251 463.5,-251 463.5,-232 340.5,-232"/>
<text text-anchor="middle" x="402" y="-239" font-family="Helvetica,sans-Serif" font-size="10.00">scram::core::Gate::mark</text>
</a>
</g>
</g>
<!-- Node8&#45;&gt;Node10 -->
<g id="edge11" class="edge"><title>Node8&#45;&gt;Node10</title>
<path fill="none" stroke="midnightblue" d="M300.131,-253.045C310.077,-251.907 320.383,-250.727 330.439,-249.576"/>
<polygon fill="midnightblue" stroke="midnightblue" points="330.852,-253.052 340.389,-248.437 330.056,-246.097 330.852,-253.052"/>
</g>
<!-- Node13 -->
<g id="node13" class="node"><title>Node13</title>
<g id="a_node13"><a xlink:href="classscram_1_1core_1_1Preprocessor.xhtml#a3c51e098f0ff45be068f68296323f45f" target="_top" xlink:title="Finds an optimal way of grouping options. ">
<polygon fill="white" stroke="black" points="336,-147.5 336,-177.5 468,-177.5 468,-147.5 336,-147.5"/>
<text text-anchor="start" x="344" y="-165.5" font-family="Helvetica,sans-Serif" font-size="10.00">scram::core::Preprocessor</text>
<text text-anchor="middle" x="402" y="-154.5" font-family="Helvetica,sans-Serif" font-size="10.00">::FindOptionGroup</text>
</a>
</g>
</g>
<!-- Node12&#45;&gt;Node13 -->
<g id="edge14" class="edge"><title>Node12&#45;&gt;Node13</title>
<path fill="none" stroke="midnightblue" d="M300.131,-162.5C308.461,-162.5 317.044,-162.5 325.521,-162.5"/>
<polygon fill="midnightblue" stroke="midnightblue" points="325.784,-166 335.784,-162.5 325.784,-159 325.784,-166"/>
</g>
<!-- Node14 -->
<g id="node14" class="node"><title>Node14</title>
<g id="a_node14"><a xlink:href="classscram_1_1core_1_1Preprocessor.xhtml#adbaee2a993e0538280dc437d0a3b849f" target="_top" xlink:title="Finds the starting option for group formation. ">
<polygon fill="white" stroke="black" points="504,-147.5 504,-177.5 636,-177.5 636,-147.5 504,-147.5"/>
<text text-anchor="start" x="512" y="-165.5" font-family="Helvetica,sans-Serif" font-size="10.00">scram::core::Preprocessor</text>
<text text-anchor="middle" x="570" y="-154.5" font-family="Helvetica,sans-Serif" font-size="10.00">::FindBaseOption</text>
</a>
</g>
</g>
<!-- Node13&#45;&gt;Node14 -->
<g id="edge15" class="edge"><title>Node13&#45;&gt;Node14</title>
<path fill="none" stroke="midnightblue" d="M468.131,-162.5C476.461,-162.5 485.044,-162.5 493.521,-162.5"/>
<polygon fill="midnightblue" stroke="midnightblue" points="493.784,-166 503.784,-162.5 493.784,-159 493.784,-166"/>
</g>
</g>
</svg>
        <g id="navigator" transform="translate(0 0)" fill="#404254">
                <rect fill="#f2f5e9" fill-opacity="0.5" stroke="#606060" stroke-width=".5" x="0" y="0" width="60" height="60"/>
                <use id="zoomplus" xlink:href="#zoomPlus" x="17" y="9" onmousedown="handleZoom(evt,'in')"/>
                <use id="zoomminus" xlink:href="#zoomMin" x="42" y="9" onmousedown="handleZoom(evt,'out')"/>
                <use id="reset" xlink:href="#resetDef" x="30" y="36" onmousedown="handleReset()"/>
                <g id="arrowUp" xlink:href="#dirArrow" transform="translate(30 24)" onmousedown="handlePan(0,-1)">
                  <use xlink:href="#rim" fill="#404040">
                        <set attributeName="fill" to="#808080" begin="arrowUp.mouseover" end="arrowUp.mouseout"/>
                  </use>
                  <path fill="none" stroke="white" stroke-width="1.5" d="M0,-3.0v7 M-2.5,-0.5L0,-3.0L2.5,-0.5"/>
                </g>
                <g id="arrowRight" xlink:href="#dirArrow" transform="rotate(90) translate(36 -43)" onmousedown="handlePan(1,0)">
                  <use xlink:href="#rim" fill="#404040">
                        <set attributeName="fill" to="#808080" begin="arrowRight.mouseover" end="arrowRight.mouseout"/>
                  </use>
                  <path fill="none" stroke="white" stroke-width="1.5" d="M0,-3.0v7 M-2.5,-0.5L0,-3.0L2.5,-0.5"/>
                </g>
                <g id="arrowDown" xlink:href="#dirArrow" transform="rotate(180) translate(-30 -48)" onmousedown="handlePan(0,1)">
                  <use xlink:href="#rim" fill="#404040">
                        <set attributeName="fill" to="#808080" begin="arrowDown.mouseover" end="arrowDown.mouseout"/>
                  </use>
                  <path fill="none" stroke="white" stroke-width="1.5" d="M0,-3.0v7 M-2.5,-0.5L0,-3.0L2.5,-0.5"/>
                </g>
                <g id="arrowLeft" xlink:href="#dirArrow" transform="rotate(270) translate(-36 17)" onmousedown="handlePan(-1,0)">
                  <use xlink:href="#rim" fill="#404040">
                        <set attributeName="fill" to="#808080" begin="arrowLeft.mouseover" end="arrowLeft.mouseout"/>
                  </use>
                  <path fill="none" stroke="white" stroke-width="1.5" d="M0,-3.0v7 M-2.5,-0.5L0,-3.0L2.5,-0.5"/>
                </g>
        </g>
        <svg viewBox="0 0 15 15" width="100%" height="30px" preserveAspectRatio="xMaxYMin meet">
         <g id="arrow_out" transform="scale(0.3 0.3)">
          <a xlink:href="classscram_1_1core_1_1Preprocessor_a651b32816243e37c58b7835220997ef2_cgraph_org.svg" target="_base">
           <rect id="button" ry="5" rx="5" y="6" x="6" height="38" width="38"
                fill="#f2f5e9" fill-opacity="0.5" stroke="#606060" stroke-width="1.0"/>
           <path id="arrow"
             d="M 11.500037,31.436501 C 11.940474,20.09759 22.043105,11.32322 32.158766,21.979434 L 37.068811,17.246167 C 37.068811,17.246167 37.088388,32 37.088388,32 L 22.160133,31.978069 C 22.160133,31.978069 26.997745,27.140456 26.997745,27.140456 C 18.528582,18.264221 13.291696,25.230495 11.500037,31.436501 z"
             style="fill:#404040;"/>
          </a>
         </g>
        </svg>
</svg>
