<?xml version="1.0" encoding="UTF-8" standalone="no"?>
<!DOCTYPE svg PUBLIC "-//W3C//DTD SVG 1.1//EN"
 "http://www.w3.org/Graphics/SVG/1.1/DTD/svg11.dtd">
<!-- Generated by graphviz version 2.38.0 (20140413.2041)
 -->
<!-- Title: scram::core::Preprocessor::ProcessModularArgs Pages: 1 -->
<svg width="476pt" height="159pt"
 viewBox="0.00 0.00 476.00 159.00" xmlns="http://www.w3.org/2000/svg" xmlns:xlink="http://www.w3.org/1999/xlink">
<g id="graph0" class="graph" transform="scale(1 1) rotate(0) translate(4 155)">
<title>scram::core::Preprocessor::ProcessModularArgs</title>
<polygon fill="white" stroke="none" points="-4,4 -4,-155 472,-155 472,4 -4,4"/>
<!-- Node1 -->
<g id="node1" class="node"><title>Node1</title>
<polygon fill="#bfbfbf" stroke="black" points="0,-73.5 0,-103.5 132,-103.5 132,-73.5 0,-73.5"/>
<text text-anchor="start" x="8" y="-91.5" font-family="Helvetica,sans-Serif" font-size="10.00">scram::core::Preprocessor</text>
<text text-anchor="middle" x="66" y="-80.5" font-family="Helvetica,sans-Serif" font-size="10.00">::ProcessModularArgs</text>
</g>
<!-- Node2 -->
<g id="node2" class="node"><title>Node2</title>
<g id="a_node2"><a xlink:href="classscram_1_1core_1_1Preprocessor.xhtml#a434534b6a7c3fccc82c073e6aced90b1" target="_top" xlink:title="Creates a new module as an argument of an existing gate if the logic of the existing parent gate allo...">
<polygon fill="white" stroke="black" points="336,-120.5 336,-150.5 468,-150.5 468,-120.5 336,-120.5"/>
<text text-anchor="start" x="344" y="-138.5" font-family="Helvetica,sans-Serif" font-size="10.00">scram::core::Preprocessor</text>
<text text-anchor="middle" x="402" y="-127.5" font-family="Helvetica,sans-Serif" font-size="10.00">::CreateNewModule</text>
</a>
</g>
</g>
<!-- Node1&#45;&gt;Node2 -->
<g id="edge1" class="edge"><title>Node1&#45;&gt;Node2</title>
<path fill="none" stroke="midnightblue" d="M89.9104,-103.679C109.659,-115.797 139.423,-131.814 168,-138.5 219.636,-150.581 279.484,-149.504 325.594,-145.575"/>
<polygon fill="midnightblue" stroke="midnightblue" points="326.172,-149.037 335.811,-144.639 325.534,-142.066 326.172,-149.037"/>
</g>
<!-- Node3 -->
<g id="node3" class="node"><title>Node3</title>
<g id="a_node3"><a xlink:href="classscram_1_1core_1_1Preprocessor.xhtml#affe78b1e830afb73585affe0ada477be" target="_top" xlink:title="Creates new module gates from groups of modular arguments if the logic of the parent gate allows sub&#45;...">
<polygon fill="white" stroke="black" points="168,-98.5 168,-128.5 300,-128.5 300,-98.5 168,-98.5"/>
<text text-anchor="start" x="176" y="-116.5" font-family="Helvetica,sans-Serif" font-size="10.00">scram::core::Preprocessor</text>
<text text-anchor="middle" x="234" y="-105.5" font-family="Helvetica,sans-Serif" font-size="10.00">::CreateNewModules</text>
</a>
</g>
</g>
<!-- Node1&#45;&gt;Node3 -->
<g id="edge2" class="edge"><title>Node1&#45;&gt;Node3</title>
<path fill="none" stroke="midnightblue" d="M132.131,-98.3089C140.553,-99.5773 149.232,-100.884 157.8,-102.175"/>
<polygon fill="midnightblue" stroke="midnightblue" points="157.374,-105.65 167.784,-103.678 158.417,-98.7281 157.374,-105.65"/>
</g>
<!-- Node4 -->
<g id="node4" class="node"><title>Node4</title>
<g id="a_node4"><a xlink:href="classscram_1_1core_1_1Preprocessor.xhtml#aa65bdffb78291a0e41a34d34bf3fa198" target="_top" xlink:title="Checks if a group of modular arguments share anything with non&#45;modular arguments. ...">
<polygon fill="white" stroke="black" points="168,-49.5 168,-79.5 300,-79.5 300,-49.5 168,-49.5"/>
<text text-anchor="start" x="176" y="-67.5" font-family="Helvetica,sans-Serif" font-size="10.00">scram::core::Preprocessor</text>
<text text-anchor="middle" x="234" y="-56.5" font-family="Helvetica,sans-Serif" font-size="10.00">::FilterModularArgs</text>
</a>
</g>
</g>
<!-- Node1&#45;&gt;Node4 -->
<g id="edge4" class="edge"><title>Node1&#45;&gt;Node4</title>
<path fill="none" stroke="midnightblue" d="M132.131,-79.0834C140.553,-77.8658 149.232,-76.611 157.8,-75.3723"/>
<polygon fill="midnightblue" stroke="midnightblue" points="158.388,-78.8238 167.784,-73.9288 157.386,-71.8958 158.388,-78.8238"/>
</g>
<!-- Node5 -->
<g id="node5" class="node"><title>Node5</title>
<g id="a_node5"><a xlink:href="classscram_1_1core_1_1Preprocessor.xhtml#a5c10e807e558b06a1573c08ed13e205e" target="_top" xlink:title="Groups modular arguments by their common elements. ">
<polygon fill="white" stroke="black" points="168,-0.5 168,-30.5 300,-30.5 300,-0.5 168,-0.5"/>
<text text-anchor="start" x="176" y="-18.5" font-family="Helvetica,sans-Serif" font-size="10.00">scram::core::Preprocessor</text>
<text text-anchor="middle" x="234" y="-7.5" font-family="Helvetica,sans-Serif" font-size="10.00">::GroupModularArgs</text>
</a>
</g>
</g>
<!-- Node1&#45;&gt;Node5 -->
<g id="edge5" class="edge"><title>Node1&#45;&gt;Node5</title>
<path fill="none" stroke="midnightblue" d="M97.2197,-73.3947C117.145,-63.6199 143.915,-50.8368 168,-40.5 172.739,-38.4659 177.704,-36.4156 182.687,-34.4109"/>
<polygon fill="midnightblue" stroke="midnightblue" points="184.23,-37.5645 192.239,-30.6284 181.653,-31.0562 184.23,-37.5645"/>
</g>
<!-- Node3&#45;&gt;Node2 -->
<g id="edge3" class="edge"><title>Node3&#45;&gt;Node2</title>
<path fill="none" stroke="midnightblue" d="M300.131,-122.132C308.553,-123.248 317.232,-124.398 325.8,-125.534"/>
<polygon fill="midnightblue" stroke="midnightblue" points="325.411,-129.013 335.784,-126.857 326.331,-122.073 325.411,-129.013"/>
</g>
</g>
</svg>
