<?xml version="1.0" encoding="UTF-8" standalone="no"?>
<!DOCTYPE svg PUBLIC "-//W3C//DTD SVG 1.1//EN"
 "http://www.w3.org/Graphics/SVG/1.1/DTD/svg11.dtd">
<!-- Generated by graphviz version 2.38.0 (20140413.2041)
 -->
<!-- Title: scram::mef::Expression::args Pages: 1 -->
<svg width="314pt" height="377pt"
 viewBox="0.00 0.00 314.00 376.50" xmlns="http://www.w3.org/2000/svg" xmlns:xlink="http://www.w3.org/1999/xlink">
<g id="graph0" class="graph" transform="scale(1 1) rotate(0) translate(4 372.5)">
<title>scram::mef::Expression::args</title>
<polygon fill="white" stroke="none" points="-4,4 -4,-372.5 310,-372.5 310,4 -4,4"/>
<!-- Node1 -->
<g id="node1" class="node"><title>Node1</title>
<polygon fill="#bfbfbf" stroke="black" points="0,-147 0,-177 121,-177 121,-147 0,-147"/>
<text text-anchor="start" x="8" y="-165" font-family="Helvetica,sans-Serif" font-size="10.00">scram::mef::Expression</text>
<text text-anchor="middle" x="60.5" y="-154" font-family="Helvetica,sans-Serif" font-size="10.00">::args</text>
</g>
<!-- Node2 -->
<g id="node2" class="node"><title>Node2</title>
<g id="a_node2"><a xlink:href="classscram_1_1mef_1_1BinaryExpression.xhtml#a2fb02fdc2b351bf8b180fd9847e77519" target="_top" xlink:title="Checks the number of provided arguments upon initialization. ">
<polygon fill="white" stroke="black" points="157,-338 157,-368 306,-368 306,-338 157,-338"/>
<text text-anchor="start" x="165" y="-356" font-family="Helvetica,sans-Serif" font-size="10.00">scram::mef::BinaryExpression</text>
<text text-anchor="middle" x="231.5" y="-345" font-family="Helvetica,sans-Serif" font-size="10.00">::BinaryExpression</text>
</a>
</g>
</g>
<!-- Node1&#45;&gt;Node2 -->
<g id="edge1" class="edge"><title>Node1&#45;&gt;Node2</title>
<path fill="none" stroke="midnightblue" d="M69.3835,-187.25C82.0425,-223.739 110.331,-290.992 157,-329 161.163,-332.391 165.82,-335.308 170.714,-337.816"/>
<polygon fill="midnightblue" stroke="midnightblue" points="72.5805,-185.775 66.0889,-177.402 65.9421,-187.995 72.5805,-185.775"/>
</g>
<!-- Node3 -->
<g id="node3" class="node"><title>Node3</title>
<g id="a_node3"><a xlink:href="cycle_8h.xhtml#a2cdb529c18dd257f342fe68192801b4e" target="_top" xlink:title="Retrieves connectors from a connector. ">
<polygon fill="white" stroke="black" points="181,-289 181,-319 282,-319 282,-289 181,-289"/>
<text text-anchor="start" x="189" y="-307" font-family="Helvetica,sans-Serif" font-size="10.00">scram::mef::cycle::</text>
<text text-anchor="middle" x="231.5" y="-296" font-family="Helvetica,sans-Serif" font-size="10.00">GetConnectors</text>
</a>
</g>
</g>
<!-- Node1&#45;&gt;Node3 -->
<g id="edge2" class="edge"><title>Node1&#45;&gt;Node3</title>
<path fill="none" stroke="midnightblue" d="M74.8774,-185.687C91.0563,-212.288 120.69,-254.998 157,-280 164.186,-284.948 172.462,-288.931 180.81,-292.119"/>
<polygon fill="midnightblue" stroke="midnightblue" points="77.8393,-183.819 69.7269,-177.005 71.8189,-187.391 77.8393,-183.819"/>
</g>
<!-- Node4 -->
<g id="node4" class="node"><title>Node4</title>
<g id="a_node4"><a xlink:href="cycle_8h.xhtml#a17ce6226d352271752ef495762868a03" target="_top" xlink:title="Retrieves nodes from a connector. ">
<polygon fill="white" stroke="black" points="181,-240 181,-270 282,-270 282,-240 181,-240"/>
<text text-anchor="start" x="189" y="-258" font-family="Helvetica,sans-Serif" font-size="10.00">scram::mef::cycle::</text>
<text text-anchor="middle" x="231.5" y="-247" font-family="Helvetica,sans-Serif" font-size="10.00">GetNodes</text>
</a>
</g>
</g>
<!-- Node1&#45;&gt;Node4 -->
<g id="edge3" class="edge"><title>Node1&#45;&gt;Node4</title>
<path fill="none" stroke="midnightblue" d="M86.9852,-183.787C105.451,-198.702 131.547,-218.05 157,-231 164.418,-234.774 172.554,-238.128 180.625,-241.043"/>
<polygon fill="midnightblue" stroke="midnightblue" points="89.0167,-180.926 79.0673,-177.284 84.5742,-186.336 89.0167,-180.926"/>
</g>
<!-- Node5 -->
<g id="node5" class="node"><title>Node5</title>
<g id="a_node5"><a xlink:href="classscram_1_1mef_1_1Histogram.xhtml#a8bd55eb329dface96d792fb51fae3eb6" target="_top" xlink:title="Histogram distribution setup. ">
<polygon fill="white" stroke="black" points="173,-191 173,-221 290,-221 290,-191 173,-191"/>
<text text-anchor="start" x="181" y="-209" font-family="Helvetica,sans-Serif" font-size="10.00">scram::mef::Histogram</text>
<text text-anchor="middle" x="231.5" y="-198" font-family="Helvetica,sans-Serif" font-size="10.00">::Histogram</text>
</a>
</g>
</g>
<!-- Node1&#45;&gt;Node5 -->
<g id="edge4" class="edge"><title>Node1&#45;&gt;Node5</title>
<path fill="none" stroke="midnightblue" d="M129.077,-179.594C143.554,-183.363 158.722,-187.312 172.786,-190.974"/>
<polygon fill="midnightblue" stroke="midnightblue" points="129.747,-176.152 119.188,-177.019 127.983,-182.926 129.747,-176.152"/>
</g>
<!-- Node6 -->
<g id="node6" class="node"><title>Node6</title>
<g id="a_node6"><a xlink:href="classscram_1_1mef_1_1Mul.xhtml#a0bf0978d21e3124febae69aff2a5e48c" target="_top" xlink:title="scram::mef::Mul::Mean">
<polygon fill="white" stroke="black" points="172.5,-152.5 172.5,-171.5 290.5,-171.5 290.5,-152.5 172.5,-152.5"/>
<text text-anchor="middle" x="231.5" y="-159.5" font-family="Helvetica,sans-Serif" font-size="10.00">scram::mef::Mul::Mean</text>
</a>
</g>
</g>
<!-- Node1&#45;&gt;Node6 -->
<g id="edge5" class="edge"><title>Node1&#45;&gt;Node6</title>
<path fill="none" stroke="midnightblue" d="M131.368,-162C144.983,-162 159.12,-162 172.307,-162"/>
<polygon fill="midnightblue" stroke="midnightblue" points="131.083,-158.5 121.083,-162 131.083,-165.5 131.083,-158.5"/>
</g>
<!-- Node7 -->
<g id="node7" class="node"><title>Node7</title>
<g id="a_node7"><a xlink:href="classscram_1_1mef_1_1Div.xhtml#acb849e9339e68a6e2da69a1ed13b39cc" target="_top" xlink:title="scram::mef::Div::Mean">
<polygon fill="white" stroke="black" points="173,-114.5 173,-133.5 290,-133.5 290,-114.5 173,-114.5"/>
<text text-anchor="middle" x="231.5" y="-121.5" font-family="Helvetica,sans-Serif" font-size="10.00">scram::mef::Div::Mean</text>
</a>
</g>
</g>
<!-- Node1&#45;&gt;Node7 -->
<g id="edge6" class="edge"><title>Node1&#45;&gt;Node7</title>
<path fill="none" stroke="midnightblue" d="M131.087,-146.353C150.447,-142 170.886,-137.404 188.163,-133.519"/>
<polygon fill="midnightblue" stroke="midnightblue" points="130.072,-142.994 121.083,-148.603 131.607,-149.824 130.072,-142.994"/>
</g>
<!-- Node8 -->
<g id="node8" class="node"><title>Node8</title>
<g id="a_node8"><a xlink:href="classscram_1_1mef_1_1Add.xhtml#aa2b2101f0f40604e342f9f7477fdef87" target="_top" xlink:title="scram::mef::Add::Min">
<polygon fill="white" stroke="black" points="176,-76.5 176,-95.5 287,-95.5 287,-76.5 176,-76.5"/>
<text text-anchor="middle" x="231.5" y="-83.5" font-family="Helvetica,sans-Serif" font-size="10.00">scram::mef::Add::Min</text>
</a>
</g>
</g>
<!-- Node1&#45;&gt;Node8 -->
<g id="edge7" class="edge"><title>Node1&#45;&gt;Node8</title>
<path fill="none" stroke="midnightblue" d="M91.3962,-141.132C109.659,-129.167 133.879,-114.654 157,-105 165.878,-101.293 175.67,-98.155 185.132,-95.5632"/>
<polygon fill="midnightblue" stroke="midnightblue" points="89.3196,-138.31 82.94,-146.769 93.2021,-144.134 89.3196,-138.31"/>
</g>
<!-- Node9 -->
<g id="node9" class="node"><title>Node9</title>
<g id="a_node9"><a xlink:href="classscram_1_1mef_1_1Sub.xhtml#a9f22864663589361efd64b28768d82d0" target="_top" xlink:title="scram::mef::Sub::Min">
<polygon fill="white" stroke="black" points="176,-38.5 176,-57.5 287,-57.5 287,-38.5 176,-38.5"/>
<text text-anchor="middle" x="231.5" y="-45.5" font-family="Helvetica,sans-Serif" font-size="10.00">scram::mef::Sub::Min</text>
</a>
</g>
</g>
<!-- Node1&#45;&gt;Node9 -->
<g id="edge8" class="edge"><title>Node1&#45;&gt;Node9</title>
<path fill="none" stroke="midnightblue" d="M78.9404,-138.579C96.3556,-116.845 125.07,-85.1919 157,-67 163.756,-63.1506 171.303,-60.0663 178.916,-57.599"/>
<polygon fill="midnightblue" stroke="midnightblue" points="76.0271,-136.623 72.6214,-146.655 81.5401,-140.937 76.0271,-136.623"/>
</g>
<!-- Node10 -->
<g id="node10" class="node"><title>Node10</title>
<g id="a_node10"><a xlink:href="classscram_1_1mef_1_1Div.xhtml#a7aa2e954d532b10230ae7a2a808192de" target="_top" xlink:title="scram::mef::Div::Validate">
<polygon fill="white" stroke="black" points="167.5,-0.5 167.5,-19.5 295.5,-19.5 295.5,-0.5 167.5,-0.5"/>
<text text-anchor="middle" x="231.5" y="-7.5" font-family="Helvetica,sans-Serif" font-size="10.00">scram::mef::Div::Validate</text>
</a>
</g>
</g>
<!-- Node1&#45;&gt;Node10 -->
<g id="edge9" class="edge"><title>Node1&#45;&gt;Node10</title>
<path fill="none" stroke="midnightblue" d="M72.6727,-137.152C87.5528,-106.935 116.754,-56.5639 157,-29 162.654,-25.1273 169.044,-22.0439 175.638,-19.5891"/>
<polygon fill="midnightblue" stroke="midnightblue" points="69.3288,-136.032 68.1801,-146.565 75.6462,-139.048 69.3288,-136.032"/>
</g>
</g>
</svg>
