<?xml version="1.0" encoding="UTF-8" standalone="no"?>
<!DOCTYPE svg PUBLIC "-//W3C//DTD SVG 1.1//EN"
 "http://www.w3.org/Graphics/SVG/1.1/DTD/svg11.dtd">
<!-- Generated by graphviz version 2.38.0 (20140413.2041)
 -->
<!-- Title: scram::core::UniqueTable&lt; T &gt; Pages: 1 -->
<svg width="294pt" height="314pt"
 viewBox="0.00 0.00 293.50 314.00" xmlns="http://www.w3.org/2000/svg" xmlns:xlink="http://www.w3.org/1999/xlink">
<g id="graph0" class="graph" transform="scale(1 1) rotate(0) translate(4 310)">
<title>scram::core::UniqueTable&lt; T &gt;</title>
<polygon fill="white" stroke="none" points="-4,4 -4,-310 289.5,-310 289.5,4 -4,4"/>
<!-- Node1 -->
<g id="node1" class="node"><title>Node1</title>
<polygon fill="#bfbfbf" stroke="black" points="63,-182.5 63,-305.5 216,-305.5 216,-182.5 63,-182.5"/>
<text text-anchor="middle" x="139.5" y="-293.5" font-family="Helvetica,sans-Serif" font-size="10.00">scram::core::UniqueTable&lt; T &gt;</text>
<polyline fill="none" stroke="black" points="63,-286.5 216,-286.5 "/>
<text text-anchor="middle" x="139.5" y="-274.5" font-family="Helvetica,sans-Serif" font-size="10.00"> </text>
<polyline fill="none" stroke="black" points="63,-267.5 216,-267.5 "/>
<text text-anchor="start" x="71" y="-255.5" font-family="Helvetica,sans-Serif" font-size="10.00">+ UniqueTable()</text>
<text text-anchor="start" x="71" y="-244.5" font-family="Helvetica,sans-Serif" font-size="10.00">+ size()</text>
<text text-anchor="start" x="71" y="-233.5" font-family="Helvetica,sans-Serif" font-size="10.00">+ clear()</text>
<text text-anchor="start" x="71" y="-222.5" font-family="Helvetica,sans-Serif" font-size="10.00">+ Release()</text>
<text text-anchor="start" x="71" y="-211.5" font-family="Helvetica,sans-Serif" font-size="10.00">+ FindOrAdd()</text>
<text text-anchor="start" x="71" y="-200.5" font-family="Helvetica,sans-Serif" font-size="10.00">* Bucket</text>
<text text-anchor="start" x="71" y="-189.5" font-family="Helvetica,sans-Serif" font-size="10.00">* Table</text>
</g>
<!-- Node2 -->
<g id="node2" class="node"><title>Node2</title>
<g id="a_node2"><a xlink:href="classscram_1_1core_1_1UniqueTable.xhtml" target="_top" xlink:title="{scram::core::UniqueTable\l\&lt; scram::core::SetNode \&gt;\n||+ UniqueTable()\l+ size()\l+ clear()\l+ Release()\l+ FindOrAdd()\l* Bucket\l* Table\l}">
<polygon fill="white" stroke="black" points="0,-0.5 0,-134.5 131,-134.5 131,-0.5 0,-0.5"/>
<text text-anchor="start" x="8" y="-122.5" font-family="Helvetica,sans-Serif" font-size="10.00">scram::core::UniqueTable</text>
<text text-anchor="middle" x="65.5" y="-111.5" font-family="Helvetica,sans-Serif" font-size="10.00">&lt; scram::core::SetNode &gt;</text>
<polyline fill="none" stroke="black" points="0,-104.5 131,-104.5 "/>
<text text-anchor="middle" x="65.5" y="-92.5" font-family="Helvetica,sans-Serif" font-size="10.00"> </text>
<polyline fill="none" stroke="black" points="0,-85.5 131,-85.5 "/>
<text text-anchor="start" x="8" y="-73.5" font-family="Helvetica,sans-Serif" font-size="10.00">+ UniqueTable()</text>
<text text-anchor="start" x="8" y="-62.5" font-family="Helvetica,sans-Serif" font-size="10.00">+ size()</text>
<text text-anchor="start" x="8" y="-51.5" font-family="Helvetica,sans-Serif" font-size="10.00">+ clear()</text>
<text text-anchor="start" x="8" y="-40.5" font-family="Helvetica,sans-Serif" font-size="10.00">+ Release()</text>
<text text-anchor="start" x="8" y="-29.5" font-family="Helvetica,sans-Serif" font-size="10.00">+ FindOrAdd()</text>
<text text-anchor="start" x="8" y="-18.5" font-family="Helvetica,sans-Serif" font-size="10.00">* Bucket</text>
<text text-anchor="start" x="8" y="-7.5" font-family="Helvetica,sans-Serif" font-size="10.00">* Table</text>
</a>
</g>
</g>
<!-- Node1&#45;&gt;Node2 -->
<g id="edge1" class="edge"><title>Node1&#45;&gt;Node2</title>
<path fill="none" stroke="orange" d="M78.0049,-173.604C76.3442,-170.445 74.8306,-167.239 73.5,-164 69.7383,-154.843 67.2931,-144.784 65.7555,-134.736"/>
<polygon fill="orange" stroke="orange" points="75.0266,-175.446 83.0449,-182.371 81.0953,-171.957 75.0266,-175.446"/>
<text text-anchor="middle" x="132.5" y="-156" font-family="Helvetica,sans-Serif" font-size="10.00"> &lt; scram::core::SetNode &gt;</text>
</g>
<!-- Node3 -->
<g id="node3" class="node"><title>Node3</title>
<g id="a_node3"><a xlink:href="classscram_1_1core_1_1UniqueTable.xhtml" target="_top" xlink:title="{scram::core::UniqueTable\l\&lt; scram::core::Ite \&gt;\n||+ UniqueTable()\l+ size()\l+ clear()\l+ Release()\l+ FindOrAdd()\l* Bucket\l* Table\l}">
<polygon fill="white" stroke="black" points="149,-0.5 149,-134.5 278,-134.5 278,-0.5 149,-0.5"/>
<text text-anchor="start" x="157" y="-122.5" font-family="Helvetica,sans-Serif" font-size="10.00">scram::core::UniqueTable</text>
<text text-anchor="middle" x="213.5" y="-111.5" font-family="Helvetica,sans-Serif" font-size="10.00">&lt; scram::core::Ite &gt;</text>
<polyline fill="none" stroke="black" points="149,-104.5 278,-104.5 "/>
<text text-anchor="middle" x="213.5" y="-92.5" font-family="Helvetica,sans-Serif" font-size="10.00"> </text>
<polyline fill="none" stroke="black" points="149,-85.5 278,-85.5 "/>
<text text-anchor="start" x="157" y="-73.5" font-family="Helvetica,sans-Serif" font-size="10.00">+ UniqueTable()</text>
<text text-anchor="start" x="157" y="-62.5" font-family="Helvetica,sans-Serif" font-size="10.00">+ size()</text>
<text text-anchor="start" x="157" y="-51.5" font-family="Helvetica,sans-Serif" font-size="10.00">+ clear()</text>
<text text-anchor="start" x="157" y="-40.5" font-family="Helvetica,sans-Serif" font-size="10.00">+ Release()</text>
<text text-anchor="start" x="157" y="-29.5" font-family="Helvetica,sans-Serif" font-size="10.00">+ FindOrAdd()</text>
<text text-anchor="start" x="157" y="-18.5" font-family="Helvetica,sans-Serif" font-size="10.00">* Bucket</text>
<text text-anchor="start" x="157" y="-7.5" font-family="Helvetica,sans-Serif" font-size="10.00">* Table</text>
</a>
</g>
</g>
<!-- Node1&#45;&gt;Node3 -->
<g id="edge2" class="edge"><title>Node1&#45;&gt;Node3</title>
<path fill="none" stroke="orange" d="M187.304,-173.069C188.801,-170.049 190.208,-167.019 191.5,-164 195.449,-154.771 198.746,-144.723 201.482,-134.725"/>
<polygon fill="orange" stroke="orange" points="184.122,-171.599 182.57,-182.08 190.319,-174.855 184.122,-171.599"/>
<text text-anchor="middle" x="240" y="-156" font-family="Helvetica,sans-Serif" font-size="10.00"> &lt; scram::core::Ite &gt;</text>
</g>
</g>
</svg>
