<?xml version="1.0" encoding="UTF-8" standalone="no"?>
<!DOCTYPE svg PUBLIC "-//W3C//DTD SVG 1.1//EN"
 "http://www.w3.org/Graphics/SVG/1.1/DTD/svg11.dtd">
<!-- Generated by graphviz version 2.38.0 (20140413.2041)
 -->
<!-- Title: scram::core::Zbdd::EliminateConstantModules Pages: 1 -->
<svg width="622pt" height="302pt"
 viewBox="0.00 0.00 622.00 302.00" xmlns="http://www.w3.org/2000/svg" xmlns:xlink="http://www.w3.org/1999/xlink">
<g id="graph0" class="graph" transform="scale(1 1) rotate(0) translate(4 298)">
<title>scram::core::Zbdd::EliminateConstantModules</title>
<polygon fill="white" stroke="none" points="-4,4 -4,-298 618,-298 618,4 -4,4"/>
<!-- Node1 -->
<g id="node1" class="node"><title>Node1</title>
<polygon fill="#bfbfbf" stroke="black" points="0,-167.5 0,-197.5 134,-197.5 134,-167.5 0,-167.5"/>
<text text-anchor="start" x="8" y="-185.5" font-family="Helvetica,sans-Serif" font-size="10.00">scram::core::Zbdd::</text>
<text text-anchor="middle" x="67" y="-174.5" font-family="Helvetica,sans-Serif" font-size="10.00">EliminateConstantModules</text>
</g>
<!-- Node2 -->
<g id="node2" class="node"><title>Node2</title>
<g id="a_node2"><a xlink:href="classscram_1_1core_1_1Settings.xhtml#a0e43ec0f017d23a4fa4e376c4060d380" target="_top" xlink:title="scram::core::Settings\l::limit_order">
<polygon fill="white" stroke="black" points="170,-263.5 170,-293.5 280,-293.5 280,-263.5 170,-263.5"/>
<text text-anchor="start" x="178" y="-281.5" font-family="Helvetica,sans-Serif" font-size="10.00">scram::core::Settings</text>
<text text-anchor="middle" x="225" y="-270.5" font-family="Helvetica,sans-Serif" font-size="10.00">::limit_order</text>
</a>
</g>
</g>
<!-- Node1&#45;&gt;Node2 -->
<g id="edge1" class="edge"><title>Node1&#45;&gt;Node2</title>
<path fill="none" stroke="midnightblue" d="M90.4117,-197.621C110.897,-211.293 142.152,-231.78 170,-248.5 175.491,-251.797 181.359,-255.188 187.129,-258.45"/>
<polygon fill="midnightblue" stroke="midnightblue" points="185.611,-261.611 196.047,-263.438 189.028,-255.502 185.611,-261.611"/>
</g>
<!-- Node3 -->
<g id="node3" class="node"><title>Node3</title>
<g id="a_node3"><a xlink:href="classscram_1_1core_1_1Zbdd.xhtml#a3dbb8ef5da2882daf6c39e9724eae459" target="_top" xlink:title="Removes subsets in ZBDD. ">
<polygon fill="white" stroke="black" points="174,-115.5 174,-145.5 276,-145.5 276,-115.5 174,-115.5"/>
<text text-anchor="start" x="182" y="-133.5" font-family="Helvetica,sans-Serif" font-size="10.00">scram::core::Zbdd::</text>
<text text-anchor="middle" x="225" y="-122.5" font-family="Helvetica,sans-Serif" font-size="10.00">Minimize</text>
</a>
</g>
</g>
<!-- Node1&#45;&gt;Node3 -->
<g id="edge2" class="edge"><title>Node1&#45;&gt;Node3</title>
<path fill="none" stroke="midnightblue" d="M113.122,-167.459C130.665,-161.612 150.925,-154.858 169.289,-148.737"/>
<polygon fill="midnightblue" stroke="midnightblue" points="170.6,-151.989 178.98,-145.507 168.386,-145.349 170.6,-151.989"/>
</g>
<!-- Node4 -->
<g id="node4" class="node"><title>Node4</title>
<g id="a_node4"><a xlink:href="classscram_1_1core_1_1SetNode.xhtml#adfcfad8dde1eb94ed51d8075a5ad6344" target="_top" xlink:title="&lt; For destructive extraction of products. ">
<polygon fill="white" stroke="black" points="483,-187 483,-206 614,-206 614,-187 483,-187"/>
<text text-anchor="middle" x="548.5" y="-194" font-family="Helvetica,sans-Serif" font-size="10.00">scram::core::SetNode::Ptr</text>
</a>
</g>
</g>
<!-- Node1&#45;&gt;Node4 -->
<g id="edge10" class="edge"><title>Node1&#45;&gt;Node4</title>
<path fill="none" stroke="midnightblue" d="M134.243,-188.618C184.156,-192.91 254.309,-198.264 316,-200.5 374.184,-202.609 388.789,-201.658 447,-200.5 455.345,-200.334 464.076,-200.091 472.76,-199.804"/>
<polygon fill="midnightblue" stroke="midnightblue" points="473.034,-203.297 482.906,-199.451 472.79,-196.301 473.034,-203.297"/>
</g>
<!-- Node7 -->
<g id="node7" class="node"><title>Node7</title>
<g id="a_node7"><a xlink:href="classscram_1_1core_1_1Terminal.xhtml#a7a25b0b40498f4876571a5dac4e724c3" target="_top" xlink:title="scram::core::Terminal\l::value">
<polygon fill="white" stroke="black" points="325.5,-0.5 325.5,-30.5 437.5,-30.5 437.5,-0.5 325.5,-0.5"/>
<text text-anchor="start" x="333.5" y="-18.5" font-family="Helvetica,sans-Serif" font-size="10.00">scram::core::Terminal</text>
<text text-anchor="middle" x="381.5" y="-7.5" font-family="Helvetica,sans-Serif" font-size="10.00">::value</text>
</a>
</g>
</g>
<!-- Node1&#45;&gt;Node7 -->
<g id="edge11" class="edge"><title>Node1&#45;&gt;Node7</title>
<path fill="none" stroke="midnightblue" d="M85.9823,-167.266C105.75,-150.969 138.849,-124.974 170,-106.5 231.408,-70.0816 250.054,-66.8566 316,-39.5 320.211,-37.7532 324.6,-35.9939 329.019,-34.2647"/>
<polygon fill="midnightblue" stroke="midnightblue" points="330.612,-37.402 338.688,-30.5437 328.098,-30.8691 330.612,-37.402"/>
</g>
<!-- Node3&#45;&gt;Node4 -->
<g id="edge3" class="edge"><title>Node3&#45;&gt;Node4</title>
<path fill="none" stroke="midnightblue" d="M248.605,-145.567C266.188,-156.457 291.616,-170.447 316,-177.5 366.96,-192.241 426.677,-196.849 472.694,-197.846"/>
<polygon fill="midnightblue" stroke="midnightblue" points="472.834,-201.349 482.89,-198.013 472.949,-194.35 472.834,-201.349"/>
</g>
<!-- Node5 -->
<g id="node5" class="node"><title>Node5</title>
<g id="a_node5"><a xlink:href="classscram_1_1core_1_1Terminal.xhtml#ab615ba4379a9ae2a882177a6d120ece9" target="_top" xlink:title="Recovers a shared pointer to Terminal from a pointer to Vertex. ">
<polygon fill="white" stroke="black" points="316,-99 316,-118 447,-118 447,-99 316,-99"/>
<text text-anchor="middle" x="381.5" y="-106" font-family="Helvetica,sans-Serif" font-size="10.00">scram::core::Terminal::Ptr</text>
</a>
</g>
</g>
<!-- Node3&#45;&gt;Node5 -->
<g id="edge4" class="edge"><title>Node3&#45;&gt;Node5</title>
<path fill="none" stroke="midnightblue" d="M276.162,-123.357C285.678,-122.002 295.822,-120.558 305.905,-119.122"/>
<polygon fill="midnightblue" stroke="midnightblue" points="306.536,-122.567 315.943,-117.693 305.55,-115.637 306.536,-122.567"/>
</g>
<!-- Node6 -->
<g id="node6" class="node"><title>Node6</title>
<g id="a_node6"><a xlink:href="classscram_1_1core_1_1Zbdd.xhtml#a42af18229ba2e80201bc0fdac07b7091" target="_top" xlink:title="Finds or adds a unique SetNode in the ZBDD. ">
<polygon fill="white" stroke="black" points="330.5,-137.5 330.5,-167.5 432.5,-167.5 432.5,-137.5 330.5,-137.5"/>
<text text-anchor="start" x="338.5" y="-155.5" font-family="Helvetica,sans-Serif" font-size="10.00">scram::core::Zbdd::</text>
<text text-anchor="middle" x="381.5" y="-144.5" font-family="Helvetica,sans-Serif" font-size="10.00">FindOrAddVertex</text>
</a>
</g>
</g>
<!-- Node3&#45;&gt;Node6 -->
<g id="edge5" class="edge"><title>Node3&#45;&gt;Node6</title>
<path fill="none" stroke="midnightblue" d="M276.162,-137.643C290.265,-139.651 305.748,-141.856 320.369,-143.938"/>
<polygon fill="midnightblue" stroke="midnightblue" points="319.932,-147.411 330.326,-145.355 320.919,-140.481 319.932,-147.411"/>
</g>
<!-- Node3&#45;&gt;Node7 -->
<g id="edge7" class="edge"><title>Node3&#45;&gt;Node7</title>
<path fill="none" stroke="midnightblue" d="M241.185,-115.425C252.037,-104.626 266.965,-89.7146 280,-76.5 296.112,-60.1655 296.779,-52.0288 316,-39.5 318.393,-37.9403 320.901,-36.4626 323.483,-35.0651"/>
<polygon fill="midnightblue" stroke="midnightblue" points="325.064,-38.1877 332.48,-30.6208 321.964,-31.9117 325.064,-38.1877"/>
</g>
<!-- Node9 -->
<g id="node9" class="node"><title>Node9</title>
<g id="a_node9"><a xlink:href="classscram_1_1core_1_1Settings.xhtml#ae64f362fceb44402e101140dfc1725ba" target="_top" xlink:title="scram::core::Settings\l::prime_implicants">
<polygon fill="white" stroke="black" points="326.5,-49.5 326.5,-79.5 436.5,-79.5 436.5,-49.5 326.5,-49.5"/>
<text text-anchor="start" x="334.5" y="-67.5" font-family="Helvetica,sans-Serif" font-size="10.00">scram::core::Settings</text>
<text text-anchor="middle" x="381.5" y="-56.5" font-family="Helvetica,sans-Serif" font-size="10.00">::prime_implicants</text>
</a>
</g>
</g>
<!-- Node3&#45;&gt;Node9 -->
<g id="edge9" class="edge"><title>Node3&#45;&gt;Node9</title>
<path fill="none" stroke="midnightblue" d="M257.875,-115.437C275,-107.482 296.537,-97.6972 316,-89.5 320.789,-87.4832 325.801,-85.434 330.825,-83.421"/>
<polygon fill="midnightblue" stroke="midnightblue" points="332.434,-86.5481 340.444,-79.6125 329.857,-80.0397 332.434,-86.5481"/>
</g>
<!-- Node6&#45;&gt;Node4 -->
<g id="edge6" class="edge"><title>Node6&#45;&gt;Node4</title>
<path fill="none" stroke="midnightblue" d="M432.902,-165.941C454.91,-171.809 480.529,-178.641 501.956,-184.355"/>
<polygon fill="midnightblue" stroke="midnightblue" points="501.225,-187.782 511.79,-186.977 503.029,-181.019 501.225,-187.782"/>
</g>
<!-- Node8 -->
<g id="node8" class="node"><title>Node8</title>
<g id="a_node8"><a xlink:href="classscram_1_1core_1_1Vertex.xhtml#a8a4a6e9871c7b80b9951fea57617d438" target="_top" xlink:title="scram::core::Vertex::id">
<polygon fill="white" stroke="black" points="490.5,-6 490.5,-25 606.5,-25 606.5,-6 490.5,-6"/>
<text text-anchor="middle" x="548.5" y="-13" font-family="Helvetica,sans-Serif" font-size="10.00">scram::core::Vertex::id</text>
</a>
</g>
</g>
<!-- Node7&#45;&gt;Node8 -->
<g id="edge8" class="edge"><title>Node7&#45;&gt;Node8</title>
<path fill="none" stroke="midnightblue" d="M437.902,-15.5C451.462,-15.5 466.121,-15.5 480.173,-15.5"/>
<polygon fill="midnightblue" stroke="midnightblue" points="480.272,-19.0001 490.272,-15.5 480.272,-12.0001 480.272,-19.0001"/>
</g>
</g>
</svg>
