<?xml version="1.0" encoding="UTF-8" standalone="no"?>
<!DOCTYPE svg PUBLIC "-//W3C//DTD SVG 1.1//EN"
 "http://www.w3.org/Graphics/SVG/1.1/DTD/svg11.dtd">
<!-- Generated by graphviz version 2.38.0 (20140413.2041)
 -->
<!-- Title: scram::core::Zbdd::settings Pages: 1 -->
<svg width="327pt" height="235pt"
 viewBox="0.00 0.00 327.00 234.50" xmlns="http://www.w3.org/2000/svg" xmlns:xlink="http://www.w3.org/1999/xlink">
<g id="graph0" class="graph" transform="scale(1 1) rotate(0) translate(4 230.5)">
<title>scram::core::Zbdd::settings</title>
<polygon fill="white" stroke="none" points="-4,4 -4,-230.5 323,-230.5 323,4 -4,4"/>
<!-- Node1 -->
<g id="node1" class="node"><title>Node1</title>
<polygon fill="#bfbfbf" stroke="black" points="0,-93 0,-123 102,-123 102,-93 0,-93"/>
<text text-anchor="start" x="8" y="-111" font-family="Helvetica,sans-Serif" font-size="10.00">scram::core::Zbdd::</text>
<text text-anchor="middle" x="51" y="-100" font-family="Helvetica,sans-Serif" font-size="10.00">settings</text>
</g>
<!-- Node2 -->
<g id="node2" class="node"><title>Node2</title>
<g id="a_node2"><a xlink:href="classscram_1_1core_1_1zbdd_1_1CutSetContainer.xhtml#a15ccbd5b839be87c831a743f0100588e" target="_top" xlink:title="Converts a Boolean graph gate into intermediate cut sets. ">
<polygon fill="white" stroke="black" points="153,-196 153,-226 304,-226 304,-196 153,-196"/>
<text text-anchor="start" x="161" y="-214" font-family="Helvetica,sans-Serif" font-size="10.00">scram::core::zbdd::</text>
<text text-anchor="middle" x="228.5" y="-203" font-family="Helvetica,sans-Serif" font-size="10.00">CutSetContainer::ConvertGate</text>
</a>
</g>
</g>
<!-- Node1&#45;&gt;Node2 -->
<g id="edge1" class="edge"><title>Node1&#45;&gt;Node2</title>
<path fill="none" stroke="midnightblue" d="M71.1526,-130.811C87.2614,-148.591 111.807,-172.605 138,-187 144.203,-190.409 150.918,-193.355 157.786,-195.897"/>
<polygon fill="midnightblue" stroke="midnightblue" points="73.6145,-128.311 64.3692,-123.136 68.3697,-132.947 73.6145,-128.311"/>
</g>
<!-- Node3 -->
<g id="node3" class="node"><title>Node3</title>
<g id="a_node3"><a xlink:href="classscram_1_1core_1_1zbdd_1_1CutSetContainer.xhtml#a59985023f1eba639571610ad9a0b2a41" target="_top" xlink:title="Expands the intermediate ZBDD representation of a gate in intermediate cut sets containing the gate...">
<polygon fill="white" stroke="black" points="154,-147 154,-177 303,-177 303,-147 154,-147"/>
<text text-anchor="start" x="162" y="-165" font-family="Helvetica,sans-Serif" font-size="10.00">scram::core::zbdd::</text>
<text text-anchor="middle" x="228.5" y="-154" font-family="Helvetica,sans-Serif" font-size="10.00">CutSetContainer::ExpandGate</text>
</a>
</g>
</g>
<!-- Node1&#45;&gt;Node3 -->
<g id="edge2" class="edge"><title>Node1&#45;&gt;Node3</title>
<path fill="none" stroke="midnightblue" d="M102.827,-126.425C114.34,-130.404 126.548,-134.472 138,-138 147.993,-141.078 158.682,-144.141 169.068,-146.997"/>
<polygon fill="midnightblue" stroke="midnightblue" points="103.946,-123.109 93.3514,-123.117 101.639,-129.718 103.946,-123.109"/>
</g>
<!-- Node4 -->
<g id="node4" class="node"><title>Node4</title>
<g id="a_node4"><a xlink:href="classscram_1_1core_1_1zbdd_1_1CutSetContainer.xhtml#aa0848a768a2bcf4b22618e676a8bbaeb" target="_top" xlink:title="Extracts (removes!) intermediate cut sets containing a node with a given index. ">
<polygon fill="white" stroke="black" points="138,-87.5 138,-128.5 319,-128.5 319,-87.5 138,-87.5"/>
<text text-anchor="start" x="146" y="-116.5" font-family="Helvetica,sans-Serif" font-size="10.00">scram::core::zbdd::</text>
<text text-anchor="start" x="146" y="-105.5" font-family="Helvetica,sans-Serif" font-size="10.00">CutSetContainer::ExtractIntermediate</text>
<text text-anchor="middle" x="228.5" y="-94.5" font-family="Helvetica,sans-Serif" font-size="10.00">CutSets</text>
</a>
</g>
</g>
<!-- Node1&#45;&gt;Node4 -->
<g id="edge3" class="edge"><title>Node1&#45;&gt;Node4</title>
<path fill="none" stroke="midnightblue" d="M112.452,-108C120.642,-108 129.184,-108 137.752,-108"/>
<polygon fill="midnightblue" stroke="midnightblue" points="112.291,-104.5 102.291,-108 112.291,-111.5 112.291,-104.5"/>
</g>
<!-- Node5 -->
<g id="node5" class="node"><title>Node5</title>
<g id="a_node5"><a xlink:href="classscram_1_1core_1_1zbdd_1_1CutSetContainer.xhtml#a87489caef0ebb8e4b62c600455da84a2" target="_top" xlink:title="Merges a set of cut sets into the main container. ">
<polygon fill="white" stroke="black" points="167.5,-39 167.5,-69 289.5,-69 289.5,-39 167.5,-39"/>
<text text-anchor="start" x="175.5" y="-57" font-family="Helvetica,sans-Serif" font-size="10.00">scram::core::zbdd::</text>
<text text-anchor="middle" x="228.5" y="-46" font-family="Helvetica,sans-Serif" font-size="10.00">CutSetContainer::Merge</text>
</a>
</g>
</g>
<!-- Node1&#45;&gt;Node5 -->
<g id="edge4" class="edge"><title>Node1&#45;&gt;Node5</title>
<path fill="none" stroke="midnightblue" d="M102.827,-89.575C114.34,-85.5957 126.548,-81.5277 138,-78 147.993,-74.9217 158.682,-71.8593 169.068,-69.0033"/>
<polygon fill="midnightblue" stroke="midnightblue" points="101.639,-86.2825 93.3514,-92.883 103.946,-92.8913 101.639,-86.2825"/>
</g>
<!-- Node6 -->
<g id="node6" class="node"><title>Node6</title>
<g id="a_node6"><a xlink:href="classscram_1_1core_1_1Zbdd.xhtml#af92e04ed908364e0177ce444d7b72712" target="_top" xlink:title="Default constructor to initialize member variables. ">
<polygon fill="white" stroke="black" points="166.5,-0.5 166.5,-19.5 290.5,-19.5 290.5,-0.5 166.5,-0.5"/>
<text text-anchor="middle" x="228.5" y="-7.5" font-family="Helvetica,sans-Serif" font-size="10.00">scram::core::Zbdd::Zbdd</text>
</a>
</g>
</g>
<!-- Node1&#45;&gt;Node6 -->
<g id="edge5" class="edge"><title>Node1&#45;&gt;Node6</title>
<path fill="none" stroke="midnightblue" d="M71.0511,-85.1888C87.1019,-67.4674 111.619,-43.676 138,-30 146.764,-25.4569 156.532,-21.9413 166.305,-19.222"/>
<polygon fill="midnightblue" stroke="midnightblue" points="68.287,-83.0314 64.2958,-92.8457 73.5362,-87.6624 68.287,-83.0314"/>
</g>
</g>
</svg>
