<?xml version="1.0" encoding="UTF-8" standalone="no"?>
<!DOCTYPE svg PUBLIC "-//W3C//DTD SVG 1.1//EN"
 "http://www.w3.org/Graphics/SVG/1.1/DTD/svg11.dtd">
<!-- Generated by graphviz version 2.38.0 (20140413.2041)
 -->
<!-- Title: scram::core::Mocus::products Pages: 1 -->
<svg width="284pt" height="274pt"
 viewBox="0.00 0.00 284.00 273.50" xmlns="http://www.w3.org/2000/svg" xmlns:xlink="http://www.w3.org/1999/xlink">
<g id="graph0" class="graph" transform="scale(1 1) rotate(0) translate(4 269.5)">
<title>scram::core::Mocus::products</title>
<polygon fill="white" stroke="none" points="-4,4 -4,-269.5 280,-269.5 280,4 -4,4"/>
<!-- Node1 -->
<g id="node1" class="node"><title>Node1</title>
<polygon fill="#bfbfbf" stroke="black" points="0,-122.5 0,-152.5 104,-152.5 104,-122.5 0,-122.5"/>
<text text-anchor="start" x="8" y="-140.5" font-family="Helvetica,sans-Serif" font-size="10.00">scram::core::Mocus</text>
<text text-anchor="middle" x="52" y="-129.5" font-family="Helvetica,sans-Serif" font-size="10.00">::products</text>
</g>
<!-- Node2 -->
<g id="node2" class="node"><title>Node2</title>
<g id="a_node2"><a xlink:href="classscram_1_1core_1_1Gate.xhtml#aa793eeaa12244c5b39a0d80e5b1518ae" target="_top" xlink:title="scram::core::Gate::args">
<polygon fill="white" stroke="black" points="148,-246 148,-265 268,-265 268,-246 148,-246"/>
<text text-anchor="middle" x="208" y="-253" font-family="Helvetica,sans-Serif" font-size="10.00">scram::core::Gate::args</text>
</a>
</g>
</g>
<!-- Node1&#45;&gt;Node2 -->
<g id="edge1" class="edge"><title>Node1&#45;&gt;Node2</title>
<path fill="none" stroke="midnightblue" d="M62.2419,-152.683C76.3096,-174.502 105.172,-214.515 140,-236.5 143.355,-238.618 146.95,-240.505 150.67,-242.185"/>
<polygon fill="midnightblue" stroke="midnightblue" points="149.519,-245.494 160.104,-245.951 152.114,-238.993 149.519,-245.494"/>
</g>
<!-- Node3 -->
<g id="node3" class="node"><title>Node3</title>
<g id="a_node3"><a xlink:href="classscram_1_1core_1_1BooleanGraph.xhtml#ac1b754a3afaf07be5cbec37c155ab634" target="_top" xlink:title="scram::core::BooleanGraph\l::basic_events">
<polygon fill="white" stroke="black" points="140,-196.5 140,-226.5 276,-226.5 276,-196.5 140,-196.5"/>
<text text-anchor="start" x="148" y="-214.5" font-family="Helvetica,sans-Serif" font-size="10.00">scram::core::BooleanGraph</text>
<text text-anchor="middle" x="208" y="-203.5" font-family="Helvetica,sans-Serif" font-size="10.00">::basic_events</text>
</a>
</g>
</g>
<!-- Node1&#45;&gt;Node3 -->
<g id="edge2" class="edge"><title>Node1&#45;&gt;Node3</title>
<path fill="none" stroke="midnightblue" d="M76.7629,-152.694C93.9159,-163.276 117.859,-177.271 140,-187.5 143.849,-189.278 147.869,-191.011 151.947,-192.678"/>
<polygon fill="midnightblue" stroke="midnightblue" points="150.922,-196.036 161.509,-196.441 153.485,-189.522 150.922,-196.036"/>
</g>
<!-- Node4 -->
<g id="node4" class="node"><title>Node4</title>
<g id="a_node4"><a xlink:href="classscram_1_1core_1_1Gate.xhtml#a0d070ec20569129162398c73165f65bc" target="_top" xlink:title="scram::core::Gate::\lcoherent">
<polygon fill="white" stroke="black" points="157.5,-147.5 157.5,-177.5 258.5,-177.5 258.5,-147.5 157.5,-147.5"/>
<text text-anchor="start" x="165.5" y="-165.5" font-family="Helvetica,sans-Serif" font-size="10.00">scram::core::Gate::</text>
<text text-anchor="middle" x="208" y="-154.5" font-family="Helvetica,sans-Serif" font-size="10.00">coherent</text>
</a>
</g>
</g>
<!-- Node1&#45;&gt;Node4 -->
<g id="edge3" class="edge"><title>Node1&#45;&gt;Node4</title>
<path fill="none" stroke="midnightblue" d="M104.28,-145.825C118.009,-148.053 132.971,-150.482 147.121,-152.779"/>
<polygon fill="midnightblue" stroke="midnightblue" points="146.82,-156.276 157.251,-154.424 147.942,-149.367 146.82,-156.276"/>
</g>
<!-- Node5 -->
<g id="node5" class="node"><title>Node5</title>
<g id="a_node5"><a xlink:href="classscram_1_1core_1_1Node.xhtml#a62121e217b0da73112af7e07275f2c15" target="_top" xlink:title="scram::core::Node::\lindex">
<polygon fill="white" stroke="black" points="156,-98.5 156,-128.5 260,-128.5 260,-98.5 156,-98.5"/>
<text text-anchor="start" x="164" y="-116.5" font-family="Helvetica,sans-Serif" font-size="10.00">scram::core::Node::</text>
<text text-anchor="middle" x="208" y="-105.5" font-family="Helvetica,sans-Serif" font-size="10.00">index</text>
</a>
</g>
</g>
<!-- Node1&#45;&gt;Node5 -->
<g id="edge4" class="edge"><title>Node1&#45;&gt;Node5</title>
<path fill="none" stroke="midnightblue" d="M104.28,-129.508C117.657,-127.424 132.205,-125.156 146.031,-123.002"/>
<polygon fill="midnightblue" stroke="midnightblue" points="146.602,-126.455 155.944,-121.457 145.524,-119.538 146.602,-126.455"/>
</g>
<!-- Node6 -->
<g id="node6" class="node"><title>Node6</title>
<g id="a_node6"><a xlink:href="classscram_1_1core_1_1Settings.xhtml#a0e43ec0f017d23a4fa4e376c4060d380" target="_top" xlink:title="scram::core::Settings\l::limit_order">
<polygon fill="white" stroke="black" points="153,-49.5 153,-79.5 263,-79.5 263,-49.5 153,-49.5"/>
<text text-anchor="start" x="161" y="-67.5" font-family="Helvetica,sans-Serif" font-size="10.00">scram::core::Settings</text>
<text text-anchor="middle" x="208" y="-56.5" font-family="Helvetica,sans-Serif" font-size="10.00">::limit_order</text>
</a>
</g>
</g>
<!-- Node1&#45;&gt;Node6 -->
<g id="edge5" class="edge"><title>Node1&#45;&gt;Node6</title>
<path fill="none" stroke="midnightblue" d="M77.9985,-122.423C95.1185,-112.419 118.525,-99.366 140,-89.5 144.606,-87.3839 149.447,-85.3069 154.331,-83.3103"/>
<polygon fill="midnightblue" stroke="midnightblue" points="155.723,-86.5237 163.726,-79.5808 153.14,-80.0177 155.723,-86.5237"/>
</g>
<!-- Node7 -->
<g id="node7" class="node"><title>Node7</title>
<g id="a_node7"><a xlink:href="classscram_1_1core_1_1Gate.xhtml#a93fa477d60140843c4abae7de52fffa1" target="_top" xlink:title="scram::core::Gate::\lmodule">
<polygon fill="white" stroke="black" points="157.5,-0.5 157.5,-30.5 258.5,-30.5 258.5,-0.5 157.5,-0.5"/>
<text text-anchor="start" x="165.5" y="-18.5" font-family="Helvetica,sans-Serif" font-size="10.00">scram::core::Gate::</text>
<text text-anchor="middle" x="208" y="-7.5" font-family="Helvetica,sans-Serif" font-size="10.00">module</text>
</a>
</g>
</g>
<!-- Node1&#45;&gt;Node7 -->
<g id="edge6" class="edge"><title>Node1&#45;&gt;Node7</title>
<path fill="none" stroke="midnightblue" d="M63.0425,-122.29C77.6656,-101.218 106.731,-63.1833 140,-40.5 142.856,-38.5526 145.884,-36.7331 149.011,-35.0367"/>
<polygon fill="midnightblue" stroke="midnightblue" points="150.619,-38.1466 158.032,-30.5778 147.517,-31.8713 150.619,-38.1466"/>
</g>
</g>
</svg>
