<?xml version="1.0" encoding="UTF-8" standalone="no"?>
<!DOCTYPE svg PUBLIC "-//W3C//DTD SVG 1.1//EN"
 "http://www.w3.org/Graphics/SVG/1.1/DTD/svg11.dtd">
<!-- Generated by graphviz version 2.38.0 (20140413.2041)
 -->
<!-- Title: scram::core::Preprocessor::RunPhaseThree Pages: 1 -->
<svg width="1189pt" height="732pt"
 viewBox="0.00 0.00 1189.00 732.00" xmlns="http://www.w3.org/2000/svg" xmlns:xlink="http://www.w3.org/1999/xlink">
<g id="graph0" class="graph" transform="scale(1 1) rotate(0) translate(4 728)">
<title>scram::core::Preprocessor::RunPhaseThree</title>
<polygon fill="white" stroke="none" points="-4,4 -4,-728 1185,-728 1185,4 -4,4"/>
<!-- Node1 -->
<g id="node1" class="node"><title>Node1</title>
<polygon fill="#bfbfbf" stroke="black" points="0,-453.5 0,-483.5 132,-483.5 132,-453.5 0,-453.5"/>
<text text-anchor="start" x="8" y="-471.5" font-family="Helvetica,sans-Serif" font-size="10.00">scram::core::Preprocessor</text>
<text text-anchor="middle" x="66" y="-460.5" font-family="Helvetica,sans-Serif" font-size="10.00">::RunPhaseThree</text>
</g>
<!-- Node2 -->
<g id="node2" class="node"><title>Node2</title>
<g id="a_node2"><a xlink:href="classscram_1_1core_1_1Preprocessor.xhtml#a3f1b4becb281bc02b61e8f72595a0666" target="_top" xlink:title="Checks the root gate of the graph for further processing. ">
<polygon fill="white" stroke="black" points="349,-622.5 349,-652.5 481,-652.5 481,-622.5 349,-622.5"/>
<text text-anchor="start" x="357" y="-640.5" font-family="Helvetica,sans-Serif" font-size="10.00">scram::core::Preprocessor</text>
<text text-anchor="middle" x="415" y="-629.5" font-family="Helvetica,sans-Serif" font-size="10.00">::CheckRootGate</text>
</a>
</g>
</g>
<!-- Node1&#45;&gt;Node2 -->
<g id="edge1" class="edge"><title>Node1&#45;&gt;Node2</title>
<path fill="none" stroke="midnightblue" d="M91.4729,-483.559C137.865,-511.658 242.356,-572.816 336,-612.5 341.368,-614.775 347.018,-616.962 352.72,-619.032"/>
<polygon fill="midnightblue" stroke="midnightblue" points="351.733,-622.395 362.328,-622.399 354.048,-615.789 351.733,-622.395"/>
</g>
<!-- Node3 -->
<g id="node3" class="node"><title>Node3</title>
<g id="a_node3"><a xlink:href="classscram_1_1core_1_1Preprocessor.xhtml#ad13e133278ea7563c1ba037c05c35aa2" target="_top" xlink:title="Normalizes the gates of the whole Boolean graph into OR, AND gates. ">
<polygon fill="white" stroke="black" points="168,-199.5 168,-229.5 300,-229.5 300,-199.5 168,-199.5"/>
<text text-anchor="start" x="176" y="-217.5" font-family="Helvetica,sans-Serif" font-size="10.00">scram::core::Preprocessor</text>
<text text-anchor="middle" x="234" y="-206.5" font-family="Helvetica,sans-Serif" font-size="10.00">::NormalizeGates</text>
</a>
</g>
</g>
<!-- Node1&#45;&gt;Node3 -->
<g id="edge2" class="edge"><title>Node1&#45;&gt;Node3</title>
<path fill="none" stroke="midnightblue" d="M76.8869,-453.372C104.739,-410.754 184.004,-289.469 217.624,-238.027"/>
<polygon fill="midnightblue" stroke="midnightblue" points="220.624,-239.835 223.165,-229.549 214.764,-236.005 220.624,-239.835"/>
</g>
<!-- Node13 -->
<g id="node13" class="node"><title>Node13</title>
<g id="a_node13"><a xlink:href="classscram_1_1core_1_1Preprocessor.xhtml#a9d5f89471499508eb9e6c01ea43e0f15" target="_top" xlink:title="Preprocessing phase of the original structure of the graph. ">
<polygon fill="white" stroke="black" points="168,-453.5 168,-483.5 300,-483.5 300,-453.5 168,-453.5"/>
<text text-anchor="start" x="176" y="-471.5" font-family="Helvetica,sans-Serif" font-size="10.00">scram::core::Preprocessor</text>
<text text-anchor="middle" x="234" y="-460.5" font-family="Helvetica,sans-Serif" font-size="10.00">::RunPhaseTwo</text>
</a>
</g>
</g>
<!-- Node1&#45;&gt;Node13 -->
<g id="edge13" class="edge"><title>Node1&#45;&gt;Node13</title>
<path fill="none" stroke="midnightblue" d="M132.131,-468.5C140.461,-468.5 149.044,-468.5 157.521,-468.5"/>
<polygon fill="midnightblue" stroke="midnightblue" points="157.784,-472 167.784,-468.5 157.784,-465 157.784,-472"/>
</g>
<!-- Node4 -->
<g id="node4" class="node"><title>Node4</title>
<g id="a_node4"><a xlink:href="classscram_1_1core_1_1Preprocessor.xhtml#afb4e28af2f1ec12db694af6e93ffbd1d" target="_top" xlink:title="Assigns order for Boolean graph variables. ">
<polygon fill="white" stroke="black" points="349,-150.5 349,-180.5 481,-180.5 481,-150.5 349,-150.5"/>
<text text-anchor="start" x="357" y="-168.5" font-family="Helvetica,sans-Serif" font-size="10.00">scram::core::Preprocessor</text>
<text text-anchor="middle" x="415" y="-157.5" font-family="Helvetica,sans-Serif" font-size="10.00">::AssignOrder</text>
</a>
</g>
</g>
<!-- Node3&#45;&gt;Node4 -->
<g id="edge3" class="edge"><title>Node3&#45;&gt;Node4</title>
<path fill="none" stroke="midnightblue" d="M290.166,-199.399C308.884,-194.275 329.963,-188.504 349.353,-183.197"/>
<polygon fill="midnightblue" stroke="midnightblue" points="350.295,-186.568 359.016,-180.552 348.446,-179.816 350.295,-186.568"/>
</g>
<!-- Node6 -->
<g id="node6" class="node"><title>Node6</title>
<g id="a_node6"><a xlink:href="classscram_1_1core_1_1Preprocessor.xhtml#a6ee8f65454835d8de931a2d38bf8b276" target="_top" xlink:title="Notifies all parents of negative gates, such as NOT, NOR, and NAND, before transforming these gates i...">
<polygon fill="white" stroke="black" points="336,-101.5 336,-131.5 494,-131.5 494,-101.5 336,-101.5"/>
<text text-anchor="start" x="344" y="-119.5" font-family="Helvetica,sans-Serif" font-size="10.00">scram::core::Preprocessor</text>
<text text-anchor="middle" x="415" y="-108.5" font-family="Helvetica,sans-Serif" font-size="10.00">::NotifyParentsOfNegativeGates</text>
</a>
</g>
</g>
<!-- Node3&#45;&gt;Node6 -->
<g id="edge5" class="edge"><title>Node3&#45;&gt;Node6</title>
<path fill="none" stroke="midnightblue" d="M251.716,-199.497C270.859,-183.001 303.754,-156.694 336,-140.5 339.703,-138.64 343.579,-136.892 347.539,-135.254"/>
<polygon fill="midnightblue" stroke="midnightblue" points="348.829,-138.508 356.89,-131.633 346.301,-131.98 348.829,-138.508"/>
</g>
<!-- Node7 -->
<g id="node7" class="node"><title>Node7</title>
<g id="a_node7"><a xlink:href="classscram_1_1core_1_1Preprocessor.xhtml#abfe2eda90c983750e28db49900a4909d" target="_top" xlink:title="Normalizes complex gates into OR, AND gates. ">
<polygon fill="white" stroke="black" points="349,-199.5 349,-229.5 481,-229.5 481,-199.5 349,-199.5"/>
<text text-anchor="start" x="357" y="-217.5" font-family="Helvetica,sans-Serif" font-size="10.00">scram::core::Preprocessor</text>
<text text-anchor="middle" x="415" y="-206.5" font-family="Helvetica,sans-Serif" font-size="10.00">::NormalizeGate</text>
</a>
</g>
</g>
<!-- Node3&#45;&gt;Node7 -->
<g id="edge6" class="edge"><title>Node3&#45;&gt;Node7</title>
<path fill="none" stroke="midnightblue" d="M300.129,-214.5C312.671,-214.5 325.903,-214.5 338.735,-214.5"/>
<polygon fill="midnightblue" stroke="midnightblue" points="338.919,-218 348.919,-214.5 338.919,-211 338.919,-218"/>
</g>
<!-- Node10 -->
<g id="node10" class="node"><title>Node10</title>
<g id="a_node10"><a xlink:href="classscram_1_1core_1_1Preprocessor.xhtml#ae483f228040c0d2422792c9cf0d05886" target="_top" xlink:title="Clears all NULL type gates registered for removal by algorithms or other preprocessing functions...">
<polygon fill="white" stroke="black" points="709,-392.5 709,-422.5 841,-422.5 841,-392.5 709,-392.5"/>
<text text-anchor="start" x="717" y="-410.5" font-family="Helvetica,sans-Serif" font-size="10.00">scram::core::Preprocessor</text>
<text text-anchor="middle" x="775" y="-399.5" font-family="Helvetica,sans-Serif" font-size="10.00">::ClearNullGates</text>
</a>
</g>
</g>
<!-- Node3&#45;&gt;Node10 -->
<g id="edge9" class="edge"><title>Node3&#45;&gt;Node10</title>
<path fill="none" stroke="midnightblue" d="M248.466,-229.705C266.482,-249.087 300.318,-282.263 336,-300.5 454.291,-360.957 608.234,-388.28 698.575,-399.831"/>
<polygon fill="midnightblue" stroke="midnightblue" points="698.374,-403.333 708.731,-401.097 699.24,-396.387 698.374,-403.333"/>
</g>
<!-- Node5 -->
<g id="node5" class="node"><title>Node5</title>
<g id="a_node5"><a xlink:href="classscram_1_1core_1_1Preprocessor.xhtml#ada629022465a68893952232659d41e11" target="_top" xlink:title="Assigns topological ordering to nodes of the Boolean Graph. ">
<polygon fill="white" stroke="black" points="533.5,-101.5 533.5,-131.5 665.5,-131.5 665.5,-101.5 533.5,-101.5"/>
<text text-anchor="start" x="541.5" y="-119.5" font-family="Helvetica,sans-Serif" font-size="10.00">scram::core::Preprocessor</text>
<text text-anchor="middle" x="599.5" y="-108.5" font-family="Helvetica,sans-Serif" font-size="10.00">::TopologicalOrder</text>
</a>
</g>
</g>
<!-- Node4&#45;&gt;Node5 -->
<g id="edge4" class="edge"><title>Node4&#45;&gt;Node5</title>
<path fill="none" stroke="midnightblue" d="M472.245,-150.399C491.329,-145.275 512.82,-139.504 532.589,-134.197"/>
<polygon fill="midnightblue" stroke="midnightblue" points="533.69,-137.525 542.441,-131.552 531.875,-130.764 533.69,-137.525"/>
</g>
<!-- Node8 -->
<g id="node8" class="node"><title>Node8</title>
<g id="a_node8"><a xlink:href="classscram_1_1core_1_1Preprocessor.xhtml#a45cf08c3809e801be50eda53dd68fca6" target="_top" xlink:title="Normalizes a gate with XOR logic. ">
<polygon fill="white" stroke="black" points="533.5,-150.5 533.5,-180.5 665.5,-180.5 665.5,-150.5 533.5,-150.5"/>
<text text-anchor="start" x="541.5" y="-168.5" font-family="Helvetica,sans-Serif" font-size="10.00">scram::core::Preprocessor</text>
<text text-anchor="middle" x="599.5" y="-157.5" font-family="Helvetica,sans-Serif" font-size="10.00">::NormalizeXorGate</text>
</a>
</g>
</g>
<!-- Node7&#45;&gt;Node8 -->
<g id="edge7" class="edge"><title>Node7&#45;&gt;Node8</title>
<path fill="none" stroke="midnightblue" d="M472.245,-199.399C491.329,-194.275 512.82,-188.504 532.589,-183.197"/>
<polygon fill="midnightblue" stroke="midnightblue" points="533.69,-186.525 542.441,-180.552 531.875,-179.764 533.69,-186.525"/>
</g>
<!-- Node9 -->
<g id="node9" class="node"><title>Node9</title>
<g id="a_node9"><a xlink:href="classscram_1_1core_1_1Preprocessor.xhtml#a56b5719bcfcfd1678928befe31d9b729" target="_top" xlink:title="Normalizes a VOTE gate with a vote number. ">
<polygon fill="white" stroke="black" points="533.5,-199.5 533.5,-229.5 665.5,-229.5 665.5,-199.5 533.5,-199.5"/>
<text text-anchor="start" x="541.5" y="-217.5" font-family="Helvetica,sans-Serif" font-size="10.00">scram::core::Preprocessor</text>
<text text-anchor="middle" x="599.5" y="-206.5" font-family="Helvetica,sans-Serif" font-size="10.00">::NormalizeVoteGate</text>
</a>
</g>
</g>
<!-- Node7&#45;&gt;Node9 -->
<g id="edge8" class="edge"><title>Node7&#45;&gt;Node9</title>
<path fill="none" stroke="midnightblue" d="M481.114,-214.5C494.788,-214.5 509.317,-214.5 523.324,-214.5"/>
<polygon fill="midnightblue" stroke="midnightblue" points="523.411,-218 533.411,-214.5 523.411,-211 523.411,-218"/>
</g>
<!-- Node11 -->
<g id="node11" class="node"><title>Node11</title>
<g id="a_node11"><a xlink:href="classscram_1_1core_1_1Preprocessor.xhtml#a860e7142f3e0b33ca799f1d8218eb091" target="_top" xlink:title="Propagate NULL type gates bottom&#45;up. ">
<polygon fill="white" stroke="black" points="881,-387.5 881,-417.5 1013,-417.5 1013,-387.5 881,-387.5"/>
<text text-anchor="start" x="889" y="-405.5" font-family="Helvetica,sans-Serif" font-size="10.00">scram::core::Preprocessor</text>
<text text-anchor="middle" x="947" y="-394.5" font-family="Helvetica,sans-Serif" font-size="10.00">::PropagateNullGate</text>
</a>
</g>
</g>
<!-- Node10&#45;&gt;Node11 -->
<g id="edge10" class="edge"><title>Node10&#45;&gt;Node11</title>
<path fill="none" stroke="midnightblue" d="M841.24,-405.581C850.9,-405.297 860.92,-405.002 870.763,-404.713"/>
<polygon fill="midnightblue" stroke="midnightblue" points="871.042,-408.206 880.934,-404.414 870.836,-401.209 871.042,-408.206"/>
</g>
<!-- Node12 -->
<g id="node12" class="node"><title>Node12</title>
<g id="a_node12"><a xlink:href="classscram_1_1core_1_1Preprocessor.xhtml#a4931fe17580d91b31d8c2077f64dc728" target="_top" xlink:title="Propagates a Boolean constant bottom&#45;up. ">
<polygon fill="white" stroke="black" points="1049,-387.5 1049,-417.5 1181,-417.5 1181,-387.5 1049,-387.5"/>
<text text-anchor="start" x="1057" y="-405.5" font-family="Helvetica,sans-Serif" font-size="10.00">scram::core::Preprocessor</text>
<text text-anchor="middle" x="1115" y="-394.5" font-family="Helvetica,sans-Serif" font-size="10.00">::PropagateConstant</text>
</a>
</g>
</g>
<!-- Node11&#45;&gt;Node12 -->
<g id="edge11" class="edge"><title>Node11&#45;&gt;Node12</title>
<path fill="none" stroke="midnightblue" d="M1013.13,-395.891C1021.46,-395.758 1030.04,-395.719 1038.52,-395.775"/>
<polygon fill="midnightblue" stroke="midnightblue" points="1038.75,-399.277 1048.78,-395.89 1038.82,-392.278 1038.75,-399.277"/>
</g>
<!-- Node12&#45;&gt;Node11 -->
<g id="edge12" class="edge"><title>Node12&#45;&gt;Node11</title>
<path fill="none" stroke="midnightblue" d="M1048.78,-409.11C1040.45,-409.243 1031.87,-409.281 1023.39,-409.225"/>
<polygon fill="midnightblue" stroke="midnightblue" points="1023.17,-405.722 1013.13,-409.109 1023.09,-412.722 1023.17,-405.722"/>
</g>
<!-- Node13&#45;&gt;Node2 -->
<g id="edge32" class="edge"><title>Node13&#45;&gt;Node2</title>
<path fill="none" stroke="midnightblue" d="M243.855,-483.558C263.596,-516.688 311.41,-594.395 336,-612.5 338.634,-614.439 341.424,-616.232 344.321,-617.888"/>
<polygon fill="midnightblue" stroke="midnightblue" points="342.786,-621.034 353.284,-622.461 345.967,-614.799 342.786,-621.034"/>
</g>
<!-- Node14 -->
<g id="node14" class="node"><title>Node14</title>
<g id="a_node14"><a xlink:href="classscram_1_1core_1_1Preprocessor.xhtml#aebc709ad2e097c24e837889a6a9e4696" target="_top" xlink:title="Propagates failures of common nodes to detect redundancy. ">
<polygon fill="white" stroke="black" points="349,-261.5 349,-291.5 481,-291.5 481,-261.5 349,-261.5"/>
<text text-anchor="start" x="357" y="-279.5" font-family="Helvetica,sans-Serif" font-size="10.00">scram::core::Preprocessor</text>
<text text-anchor="middle" x="415" y="-268.5" font-family="Helvetica,sans-Serif" font-size="10.00">::BooleanOptimization</text>
</a>
</g>
</g>
<!-- Node13&#45;&gt;Node14 -->
<g id="edge14" class="edge"><title>Node13&#45;&gt;Node14</title>
<path fill="none" stroke="midnightblue" d="M240.599,-453.277C252.983,-421.596 285.653,-348.073 336,-306.5 340.659,-302.653 345.865,-299.264 351.319,-296.286"/>
<polygon fill="midnightblue" stroke="midnightblue" points="353.267,-299.226 360.676,-291.652 350.161,-292.953 353.267,-299.226"/>
</g>
<!-- Node30 -->
<g id="node30" class="node"><title>Node30</title>
<g id="a_node30"><a xlink:href="classscram_1_1core_1_1Preprocessor.xhtml#a00288bef180767d7c79e3c79a33ef2d8" target="_top" xlink:title="Runs gate coalescence on the whole Boolean graph. ">
<polygon fill="white" stroke="black" points="533.5,-299.5 533.5,-329.5 665.5,-329.5 665.5,-299.5 533.5,-299.5"/>
<text text-anchor="start" x="541.5" y="-317.5" font-family="Helvetica,sans-Serif" font-size="10.00">scram::core::Preprocessor</text>
<text text-anchor="middle" x="599.5" y="-306.5" font-family="Helvetica,sans-Serif" font-size="10.00">::CoalesceGates</text>
</a>
</g>
</g>
<!-- Node13&#45;&gt;Node30 -->
<g id="edge33" class="edge"><title>Node13&#45;&gt;Node30</title>
<path fill="none" stroke="midnightblue" d="M247.357,-453.409C264.901,-433.01 299.031,-396.956 336,-377.5 394.761,-346.575 468.884,-330.584 523.366,-322.468"/>
<polygon fill="midnightblue" stroke="midnightblue" points="523.901,-325.927 533.303,-321.043 522.907,-318.998 523.901,-325.927"/>
</g>
<!-- Node31 -->
<g id="node31" class="node"><title>Node31</title>
<g id="a_node31"><a xlink:href="classscram_1_1core_1_1Preprocessor.xhtml#ae12f3096132d7f6e9daa779724255f7e" target="_top" xlink:title="The Shannon decomposition for common nodes in the Boolean graph. ">
<polygon fill="white" stroke="black" points="343.5,-524.5 343.5,-554.5 486.5,-554.5 486.5,-524.5 343.5,-524.5"/>
<text text-anchor="start" x="351.5" y="-542.5" font-family="Helvetica,sans-Serif" font-size="10.00">scram::core::Preprocessor</text>
<text text-anchor="middle" x="415" y="-531.5" font-family="Helvetica,sans-Serif" font-size="10.00">::DecomposeCommonNodes</text>
</a>
</g>
</g>
<!-- Node13&#45;&gt;Node31 -->
<g id="edge35" class="edge"><title>Node13&#45;&gt;Node31</title>
<path fill="none" stroke="midnightblue" d="M265.543,-483.543C285.373,-493.026 311.917,-505.193 336,-514.5 341.919,-516.787 348.145,-519.037 354.39,-521.193"/>
<polygon fill="midnightblue" stroke="midnightblue" points="353.586,-524.615 364.18,-524.494 355.823,-517.982 353.586,-524.615"/>
</g>
<!-- Node33 -->
<g id="node33" class="node"><title>Node33</title>
<g id="a_node33"><a xlink:href="classscram_1_1core_1_1Preprocessor.xhtml#a4737f354474154b3cea9773c25616d27" target="_top" xlink:title="Detects and manipulates AND and OR gate distributivity for the whole graph. ">
<polygon fill="white" stroke="black" points="349,-475.5 349,-505.5 481,-505.5 481,-475.5 349,-475.5"/>
<text text-anchor="start" x="357" y="-493.5" font-family="Helvetica,sans-Serif" font-size="10.00">scram::core::Preprocessor</text>
<text text-anchor="middle" x="415" y="-482.5" font-family="Helvetica,sans-Serif" font-size="10.00">::DetectDistributivity</text>
</a>
</g>
</g>
<!-- Node13&#45;&gt;Node33 -->
<g id="edge38" class="edge"><title>Node13&#45;&gt;Node33</title>
<path fill="none" stroke="midnightblue" d="M300.129,-476.505C312.671,-478.046 325.903,-479.672 338.735,-481.25"/>
<polygon fill="midnightblue" stroke="midnightblue" points="338.567,-484.755 348.919,-482.501 339.421,-477.807 338.567,-484.755"/>
</g>
<!-- Node34 -->
<g id="node34" class="node"><title>Node34</title>
<g id="a_node34"><a xlink:href="classscram_1_1core_1_1Preprocessor.xhtml#aa9856913eee7b854abfbe8d8330566d3" target="_top" xlink:title="Traverses the Boolean graph to detect modules. ">
<polygon fill="white" stroke="black" points="349,-573.5 349,-603.5 481,-603.5 481,-573.5 349,-573.5"/>
<text text-anchor="start" x="357" y="-591.5" font-family="Helvetica,sans-Serif" font-size="10.00">scram::core::Preprocessor</text>
<text text-anchor="middle" x="415" y="-580.5" font-family="Helvetica,sans-Serif" font-size="10.00">::DetectModules</text>
</a>
</g>
</g>
<!-- Node13&#45;&gt;Node34 -->
<g id="edge40" class="edge"><title>Node13&#45;&gt;Node34</title>
<path fill="none" stroke="midnightblue" d="M247.134,-483.525C264.675,-504.315 299.083,-541.747 336,-563.5 339.652,-565.652 343.512,-567.642 347.481,-569.479"/>
<polygon fill="midnightblue" stroke="midnightblue" points="346.323,-572.789 356.894,-573.489 349.066,-566.349 346.323,-572.789"/>
</g>
<!-- Node41 -->
<g id="node41" class="node"><title>Node41</title>
<g id="a_node41"><a xlink:href="classscram_1_1core_1_1Preprocessor.xhtml#ab97a52e27ad8bf7ed049ae1a764f8fba" target="_top" xlink:title="Identifies common arguments of gates, and merges the common arguments into new gates. ">
<polygon fill="white" stroke="black" points="349,-387.5 349,-417.5 481,-417.5 481,-387.5 349,-387.5"/>
<text text-anchor="start" x="357" y="-405.5" font-family="Helvetica,sans-Serif" font-size="10.00">scram::core::Preprocessor</text>
<text text-anchor="middle" x="415" y="-394.5" font-family="Helvetica,sans-Serif" font-size="10.00">::MergeCommonArgs</text>
</a>
</g>
</g>
<!-- Node13&#45;&gt;Node41 -->
<g id="edge49" class="edge"><title>Node13&#45;&gt;Node41</title>
<path fill="none" stroke="midnightblue" d="M276.066,-453.358C302.103,-443.758 335.967,-431.272 363.624,-421.074"/>
<polygon fill="midnightblue" stroke="midnightblue" points="364.953,-424.315 373.125,-417.571 362.531,-417.747 364.953,-424.315"/>
</g>
<!-- Node42 -->
<g id="node42" class="node"><title>Node42</title>
<g id="a_node42"><a xlink:href="classscram_1_1core_1_1Preprocessor.xhtml#ac0abd7f5b54f98643644110b160569bd" target="_top" xlink:title="Detects and replaces multiple definitions of gates. ">
<polygon fill="white" stroke="black" points="530,-431.5 530,-461.5 669,-461.5 669,-431.5 530,-431.5"/>
<text text-anchor="start" x="538" y="-449.5" font-family="Helvetica,sans-Serif" font-size="10.00">scram::core::Preprocessor</text>
<text text-anchor="middle" x="599.5" y="-438.5" font-family="Helvetica,sans-Serif" font-size="10.00">::ProcessMultipleDefinitions</text>
</a>
</g>
</g>
<!-- Node13&#45;&gt;Node42 -->
<g id="edge50" class="edge"><title>Node13&#45;&gt;Node42</title>
<path fill="none" stroke="midnightblue" d="M300.406,-464.541C361.911,-460.819 454.082,-455.241 519.631,-451.273"/>
<polygon fill="midnightblue" stroke="midnightblue" points="520.144,-454.749 529.914,-450.651 519.721,-447.762 520.144,-454.749"/>
</g>
<!-- Node15 -->
<g id="node15" class="node"><title>Node15</title>
<g id="a_node15"><a xlink:href="classscram_1_1core_1_1Preprocessor.xhtml#a394fb1b5b5f9ee31dc81ad8d64353ee3" target="_top" xlink:title="Traverses the graph to find nodes that have more than one parent. ">
<polygon fill="white" stroke="black" points="533.5,-524.5 533.5,-554.5 665.5,-554.5 665.5,-524.5 533.5,-524.5"/>
<text text-anchor="start" x="541.5" y="-542.5" font-family="Helvetica,sans-Serif" font-size="10.00">scram::core::Preprocessor</text>
<text text-anchor="middle" x="599.5" y="-531.5" font-family="Helvetica,sans-Serif" font-size="10.00">::GatherCommonNodes</text>
</a>
</g>
</g>
<!-- Node14&#45;&gt;Node15 -->
<g id="edge15" class="edge"><title>Node14&#45;&gt;Node15</title>
<path fill="none" stroke="midnightblue" d="M429.932,-291.596C446.84,-310.522 475.391,-344.5 494,-377.5 515.771,-416.107 505.876,-433.318 530,-470.5 541.444,-488.137 557.967,-504.946 571.918,-517.557"/>
<polygon fill="midnightblue" stroke="midnightblue" points="569.958,-520.494 579.778,-524.472 574.582,-515.239 569.958,-520.494"/>
</g>
<!-- Node18 -->
<g id="node18" class="node"><title>Node18</title>
<g id="a_node18"><a xlink:href="classscram_1_1core_1_1Preprocessor.xhtml#a4086c57695d49b4770915d5d53bd47de" target="_top" xlink:title="Tries to simplify the graph by removing redundancies generated by a common node. ">
<polygon fill="white" stroke="black" points="533.5,-248.5 533.5,-278.5 665.5,-278.5 665.5,-248.5 533.5,-248.5"/>
<text text-anchor="start" x="541.5" y="-266.5" font-family="Helvetica,sans-Serif" font-size="10.00">scram::core::Preprocessor</text>
<text text-anchor="middle" x="599.5" y="-255.5" font-family="Helvetica,sans-Serif" font-size="10.00">::ProcessCommonNode</text>
</a>
</g>
</g>
<!-- Node14&#45;&gt;Node18 -->
<g id="edge18" class="edge"><title>Node14&#45;&gt;Node18</title>
<path fill="none" stroke="midnightblue" d="M481.114,-271.862C494.788,-270.888 509.317,-269.853 523.324,-268.855"/>
<polygon fill="midnightblue" stroke="midnightblue" points="523.685,-272.338 533.411,-268.136 523.188,-265.356 523.685,-272.338"/>
</g>
<!-- Node16 -->
<g id="node16" class="node"><title>Node16</title>
<g id="a_node16"><a xlink:href="classscram_1_1core_1_1Gate.xhtml#aa793eeaa12244c5b39a0d80e5b1518ae" target="_top" xlink:title="scram::core::Gate::args">
<polygon fill="white" stroke="black" points="715,-579 715,-598 835,-598 835,-579 715,-579"/>
<text text-anchor="middle" x="775" y="-586" font-family="Helvetica,sans-Serif" font-size="10.00">scram::core::Gate::args</text>
</a>
</g>
</g>
<!-- Node15&#45;&gt;Node16 -->
<g id="edge16" class="edge"><title>Node15&#45;&gt;Node16</title>
<path fill="none" stroke="midnightblue" d="M653.971,-554.601C678.517,-561.534 707.251,-569.649 730.451,-576.201"/>
<polygon fill="midnightblue" stroke="midnightblue" points="729.781,-579.648 740.355,-578.998 731.683,-572.912 729.781,-579.648"/>
</g>
<!-- Node17 -->
<g id="node17" class="node"><title>Node17</title>
<g id="a_node17"><a xlink:href="classscram_1_1core_1_1Node.xhtml#a54799feee1f1e91f848d11f3918e3e88" target="_top" xlink:title="Registers the visit time for this node upon graph traversal. ">
<polygon fill="white" stroke="black" points="723,-529.5 723,-559.5 827,-559.5 827,-529.5 723,-529.5"/>
<text text-anchor="start" x="731" y="-547.5" font-family="Helvetica,sans-Serif" font-size="10.00">scram::core::Node::</text>
<text text-anchor="middle" x="775" y="-536.5" font-family="Helvetica,sans-Serif" font-size="10.00">Visit</text>
</a>
</g>
</g>
<!-- Node15&#45;&gt;Node17 -->
<g id="edge17" class="edge"><title>Node15&#45;&gt;Node17</title>
<path fill="none" stroke="midnightblue" d="M665.599,-541.376C680.989,-541.82 697.352,-542.291 712.574,-542.73"/>
<polygon fill="midnightblue" stroke="midnightblue" points="712.807,-546.238 722.904,-543.027 713.009,-539.241 712.807,-546.238"/>
</g>
<!-- Node18&#45;&gt;Node10 -->
<g id="edge31" class="edge"><title>Node18&#45;&gt;Node10</title>
<path fill="none" stroke="midnightblue" d="M654.1,-278.578C659.553,-281.593 664.668,-285.197 669,-289.5 700.443,-320.737 673.321,-351.502 705,-382.5 706.468,-383.937 708.026,-385.292 709.655,-386.57"/>
<polygon fill="midnightblue" stroke="midnightblue" points="708.055,-389.709 718.319,-392.337 711.934,-383.882 708.055,-389.709"/>
</g>
<!-- Node19 -->
<g id="node19" class="node"><title>Node19</title>
<g id="a_node19"><a xlink:href="classscram_1_1core_1_1Preprocessor.xhtml#a3b83bc14261cee28f0e1553222b7d5e5" target="_top" xlink:title="Marks ancestor gates true. ">
<polygon fill="white" stroke="black" points="709,-245.5 709,-275.5 841,-275.5 841,-245.5 709,-245.5"/>
<text text-anchor="start" x="717" y="-263.5" font-family="Helvetica,sans-Serif" font-size="10.00">scram::core::Preprocessor</text>
<text text-anchor="middle" x="775" y="-252.5" font-family="Helvetica,sans-Serif" font-size="10.00">::MarkAncestors</text>
</a>
</g>
</g>
<!-- Node18&#45;&gt;Node19 -->
<g id="edge19" class="edge"><title>Node18&#45;&gt;Node19</title>
<path fill="none" stroke="midnightblue" d="M665.599,-262.374C676.421,-262.187 687.723,-261.992 698.771,-261.801"/>
<polygon fill="midnightblue" stroke="midnightblue" points="698.887,-265.299 708.825,-261.627 698.766,-258.3 698.887,-265.299"/>
</g>
<!-- Node20 -->
<g id="node20" class="node"><title>Node20</title>
<g id="a_node20"><a xlink:href="classscram_1_1core_1_1Preprocessor.xhtml#ae9a8bac98061d7f82633486ed6a36861" target="_top" xlink:title="Propagates failure or success of a common node by setting its ancestors&#39; optimization values to 1 or ...">
<polygon fill="white" stroke="black" points="709,-196.5 709,-226.5 841,-226.5 841,-196.5 709,-196.5"/>
<text text-anchor="start" x="717" y="-214.5" font-family="Helvetica,sans-Serif" font-size="10.00">scram::core::Preprocessor</text>
<text text-anchor="middle" x="775" y="-203.5" font-family="Helvetica,sans-Serif" font-size="10.00">::PropagateState</text>
</a>
</g>
</g>
<!-- Node18&#45;&gt;Node20 -->
<g id="edge20" class="edge"><title>Node18&#45;&gt;Node20</title>
<path fill="none" stroke="midnightblue" d="M650.683,-248.459C670.555,-242.504 693.56,-235.609 714.279,-229.399"/>
<polygon fill="midnightblue" stroke="midnightblue" points="715.355,-232.73 723.929,-226.507 713.346,-226.025 715.355,-232.73"/>
</g>
<!-- Node23 -->
<g id="node23" class="node"><title>Node23</title>
<g id="a_node23"><a xlink:href="classscram_1_1core_1_1Preprocessor.xhtml#a4539f18d3dde97514ca267b41d30d220" target="_top" xlink:title="Collects failure or success destinations and marks non&#45;redundant nodes. ">
<polygon fill="white" stroke="black" points="709,-147.5 709,-177.5 841,-177.5 841,-147.5 709,-147.5"/>
<text text-anchor="start" x="717" y="-165.5" font-family="Helvetica,sans-Serif" font-size="10.00">scram::core::Preprocessor</text>
<text text-anchor="middle" x="775" y="-154.5" font-family="Helvetica,sans-Serif" font-size="10.00">::CollectStateDestinations</text>
</a>
</g>
</g>
<!-- Node18&#45;&gt;Node23 -->
<g id="edge23" class="edge"><title>Node18&#45;&gt;Node23</title>
<path fill="none" stroke="midnightblue" d="M652.802,-248.334C658.551,-245.547 664.09,-242.292 669,-238.5 691.247,-221.319 682.623,-203.511 705,-186.5 706.805,-185.128 708.694,-183.831 710.647,-182.604"/>
<polygon fill="midnightblue" stroke="midnightblue" points="712.504,-185.577 719.554,-177.668 709.111,-179.454 712.504,-185.577"/>
</g>
<!-- Node24 -->
<g id="node24" class="node"><title>Node24</title>
<g id="a_node24"><a xlink:href="classscram_1_1core_1_1Preprocessor.xhtml#ad79145fdd5487ef0537728f74e6a94e4" target="_top" xlink:title="Detects if parents of a node are redundant. ">
<polygon fill="white" stroke="black" points="708,-98.5 708,-128.5 842,-128.5 842,-98.5 708,-98.5"/>
<text text-anchor="start" x="716" y="-116.5" font-family="Helvetica,sans-Serif" font-size="10.00">scram::core::Preprocessor</text>
<text text-anchor="middle" x="775" y="-105.5" font-family="Helvetica,sans-Serif" font-size="10.00">::CollectRedundantParents</text>
</a>
</g>
</g>
<!-- Node18&#45;&gt;Node24 -->
<g id="edge24" class="edge"><title>Node18&#45;&gt;Node24</title>
<path fill="none" stroke="midnightblue" d="M655.887,-248.403C660.686,-245.635 665.165,-242.364 669,-238.5 702.57,-204.676 671.174,-171.068 705,-137.5 706.069,-136.439 707.187,-135.425 708.348,-134.456"/>
<polygon fill="midnightblue" stroke="midnightblue" points="710.386,-137.301 716.552,-128.685 706.359,-131.576 710.386,-137.301"/>
</g>
<!-- Node25 -->
<g id="node25" class="node"><title>Node25</title>
<g id="a_node25"><a xlink:href="classscram_1_1core_1_1Preprocessor.xhtml#a6edfe2a6d9836942944921a8de0c011e" target="_top" xlink:title="Detects if parents of a node are redundant. ">
<polygon fill="white" stroke="black" points="705,-49.5 705,-79.5 845,-79.5 845,-49.5 705,-49.5"/>
<text text-anchor="start" x="713" y="-67.5" font-family="Helvetica,sans-Serif" font-size="10.00">scram::core::Preprocessor</text>
<text text-anchor="middle" x="775" y="-56.5" font-family="Helvetica,sans-Serif" font-size="10.00">::ProcessRedundantParents</text>
</a>
</g>
</g>
<!-- Node18&#45;&gt;Node25 -->
<g id="edge25" class="edge"><title>Node18&#45;&gt;Node25</title>
<path fill="none" stroke="midnightblue" d="M656.982,-248.416C661.441,-245.648 665.546,-242.374 669,-238.5 714.628,-187.329 658.984,-139.323 705,-88.5 705.886,-87.5216 706.814,-86.5831 707.779,-85.6829"/>
<polygon fill="midnightblue" stroke="midnightblue" points="710.025,-88.3711 715.823,-79.5035 705.76,-82.82 710.025,-88.3711"/>
</g>
<!-- Node26 -->
<g id="node26" class="node"><title>Node26</title>
<g id="a_node26"><a xlink:href="classscram_1_1core_1_1Preprocessor.xhtml#aa42b66bb888f665bc68324cca15452ad" target="_top" xlink:title="Transforms failure or success destination according to the logic and the common node. ">
<polygon fill="white" stroke="black" points="706.5,-294.5 706.5,-324.5 843.5,-324.5 843.5,-294.5 706.5,-294.5"/>
<text text-anchor="start" x="714.5" y="-312.5" font-family="Helvetica,sans-Serif" font-size="10.00">scram::core::Preprocessor</text>
<text text-anchor="middle" x="775" y="-301.5" font-family="Helvetica,sans-Serif" font-size="10.00">::ProcessStateDestinations</text>
</a>
</g>
</g>
<!-- Node18&#45;&gt;Node26 -->
<g id="edge26" class="edge"><title>Node18&#45;&gt;Node26</title>
<path fill="none" stroke="midnightblue" d="M657.31,-278.562C673.27,-282.793 690.77,-287.433 707.251,-291.803"/>
<polygon fill="midnightblue" stroke="midnightblue" points="706.795,-295.303 717.358,-294.483 708.589,-288.537 706.795,-295.303"/>
</g>
<!-- Node28 -->
<g id="node28" class="node"><title>Node28</title>
<g id="a_node28"><a xlink:href="classscram_1_1core_1_1Preprocessor.xhtml#a5eb477e9ecd0552b2b554d7df56df652" target="_top" xlink:title="Clears all the ancestor marks used in Boolean optimization steps. ">
<polygon fill="white" stroke="black" points="709,-0.5 709,-30.5 841,-30.5 841,-0.5 709,-0.5"/>
<text text-anchor="start" x="717" y="-18.5" font-family="Helvetica,sans-Serif" font-size="10.00">scram::core::Preprocessor</text>
<text text-anchor="middle" x="775" y="-7.5" font-family="Helvetica,sans-Serif" font-size="10.00">::ClearStateMarks</text>
</a>
</g>
</g>
<!-- Node18&#45;&gt;Node28 -->
<g id="edge28" class="edge"><title>Node18&#45;&gt;Node28</title>
<path fill="none" stroke="midnightblue" d="M657.539,-248.413C661.823,-245.647 665.738,-242.373 669,-238.5 726.896,-169.751 646.583,-107.807 705,-39.5 705.742,-38.6325 706.517,-37.7963 707.322,-36.9904"/>
<polygon fill="midnightblue" stroke="midnightblue" points="709.73,-39.5435 715.285,-30.5216 705.316,-34.1103 709.73,-39.5435"/>
</g>
<!-- Node29 -->
<g id="node29" class="node"><title>Node29</title>
<g id="a_node29"><a xlink:href="classscram_1_1core_1_1Preprocessor.xhtml#ac3279b95fc83a2ae909c011de083d57e" target="_top" xlink:title="Clears all constant gates registered for removal by algorithms or other preprocessing functions...">
<polygon fill="white" stroke="black" points="709,-343.5 709,-373.5 841,-373.5 841,-343.5 709,-343.5"/>
<text text-anchor="start" x="717" y="-361.5" font-family="Helvetica,sans-Serif" font-size="10.00">scram::core::Preprocessor</text>
<text text-anchor="middle" x="775" y="-350.5" font-family="Helvetica,sans-Serif" font-size="10.00">::ClearConstGates</text>
</a>
</g>
</g>
<!-- Node18&#45;&gt;Node29 -->
<g id="edge29" class="edge"><title>Node18&#45;&gt;Node29</title>
<path fill="none" stroke="midnightblue" d="M649.657,-278.528C656.456,-281.626 663.116,-285.264 669,-289.5 689.507,-304.261 684.382,-318.894 705,-333.5 707.703,-335.415 710.569,-337.199 713.537,-338.858"/>
<polygon fill="midnightblue" stroke="midnightblue" points="712.179,-342.093 722.683,-343.471 715.331,-335.843 712.179,-342.093"/>
</g>
<!-- Node21 -->
<g id="node21" class="node"><title>Node21</title>
<g id="a_node21"><a xlink:href="classscram_1_1core_1_1Node.xhtml#a90ef93c4b0667215d2a8c3a3eb4f3822" target="_top" xlink:title="scram::core::Node::\lopti_value">
<polygon fill="white" stroke="black" points="895,-220.5 895,-250.5 999,-250.5 999,-220.5 895,-220.5"/>
<text text-anchor="start" x="903" y="-238.5" font-family="Helvetica,sans-Serif" font-size="10.00">scram::core::Node::</text>
<text text-anchor="middle" x="947" y="-227.5" font-family="Helvetica,sans-Serif" font-size="10.00">opti_value</text>
</a>
</g>
</g>
<!-- Node20&#45;&gt;Node21 -->
<g id="edge21" class="edge"><title>Node20&#45;&gt;Node21</title>
<path fill="none" stroke="midnightblue" d="M841.24,-220.71C855.556,-222.731 870.664,-224.864 884.813,-226.862"/>
<polygon fill="midnightblue" stroke="midnightblue" points="884.531,-230.357 894.922,-228.289 885.51,-223.425 884.531,-230.357"/>
</g>
<!-- Node22 -->
<g id="node22" class="node"><title>Node22</title>
<g id="a_node22"><a xlink:href="classscram_1_1core_1_1Preprocessor.xhtml#a019e679ad9077caac8c48253d42647ff" target="_top" xlink:title="Determines if a gate fails or succeeds due to failed/succeeded arguments. ">
<polygon fill="white" stroke="black" points="881,-171.5 881,-201.5 1013,-201.5 1013,-171.5 881,-171.5"/>
<text text-anchor="start" x="889" y="-189.5" font-family="Helvetica,sans-Serif" font-size="10.00">scram::core::Preprocessor</text>
<text text-anchor="middle" x="947" y="-178.5" font-family="Helvetica,sans-Serif" font-size="10.00">::DetermineGateState</text>
</a>
</g>
</g>
<!-- Node20&#45;&gt;Node22 -->
<g id="edge22" class="edge"><title>Node20&#45;&gt;Node22</title>
<path fill="none" stroke="midnightblue" d="M841.24,-201.906C850.9,-200.485 860.92,-199.012 870.763,-197.564"/>
<polygon fill="midnightblue" stroke="midnightblue" points="871.55,-200.986 880.934,-196.068 870.531,-194.061 871.55,-200.986"/>
</g>
<!-- Node27 -->
<g id="node27" class="node"><title>Node27</title>
<g id="a_node27"><a xlink:href="classscram_1_1core_1_1Preprocessor.xhtml#a26434bec1bc5a496f80c9cbad1ed3a62" target="_top" xlink:title="Replaces one gate in the graph with another. ">
<polygon fill="white" stroke="black" points="881,-436.5 881,-466.5 1013,-466.5 1013,-436.5 881,-436.5"/>
<text text-anchor="start" x="889" y="-454.5" font-family="Helvetica,sans-Serif" font-size="10.00">scram::core::Preprocessor</text>
<text text-anchor="middle" x="947" y="-443.5" font-family="Helvetica,sans-Serif" font-size="10.00">::ReplaceGate</text>
</a>
</g>
</g>
<!-- Node26&#45;&gt;Node27 -->
<g id="edge27" class="edge"><title>Node26&#45;&gt;Node27</title>
<path fill="none" stroke="midnightblue" d="M833.015,-324.591C837.367,-327.117 841.442,-330.063 845,-333.5 876.878,-364.294 849.626,-395.193 881,-426.5 882.444,-427.941 883.981,-429.301 885.59,-430.584"/>
<polygon fill="midnightblue" stroke="midnightblue" points="883.923,-433.681 894.168,-436.378 887.841,-427.88 883.923,-433.681"/>
</g>
<!-- Node29&#45;&gt;Node12 -->
<g id="edge30" class="edge"><title>Node29&#45;&gt;Node12</title>
<path fill="none" stroke="midnightblue" d="M841.225,-360.872C889.023,-363.303 955.35,-368.118 1013,-377.5 1025.24,-379.492 1038.18,-382.213 1050.56,-385.129"/>
<polygon fill="midnightblue" stroke="midnightblue" points="1049.8,-388.547 1060.35,-387.5 1051.45,-381.744 1049.8,-388.547"/>
</g>
<!-- Node30&#45;&gt;Node29 -->
<g id="edge34" class="edge"><title>Node30&#45;&gt;Node29</title>
<path fill="none" stroke="midnightblue" d="M659.724,-329.519C674.299,-333.216 690.031,-337.205 705.023,-341.007"/>
<polygon fill="midnightblue" stroke="midnightblue" points="704.195,-344.408 714.749,-343.474 705.916,-337.623 704.195,-344.408"/>
</g>
<!-- Node31&#45;&gt;Node15 -->
<g id="edge36" class="edge"><title>Node31&#45;&gt;Node15</title>
<path fill="none" stroke="midnightblue" d="M486.559,-539.5C498.549,-539.5 511.041,-539.5 523.148,-539.5"/>
<polygon fill="midnightblue" stroke="midnightblue" points="523.208,-543 533.208,-539.5 523.208,-536 523.208,-543"/>
</g>
<!-- Node32 -->
<g id="node32" class="node"><title>Node32</title>
<g id="a_node32"><a xlink:href="classscram_1_1core_1_1Preprocessor.xhtml#ac83a0afe1f22761907f2a017abd96268" target="_top" xlink:title="Traverses the given gate and assigns time of visit to nodes. ">
<polygon fill="white" stroke="black" points="533.5,-573.5 533.5,-603.5 665.5,-603.5 665.5,-573.5 533.5,-573.5"/>
<text text-anchor="start" x="541.5" y="-591.5" font-family="Helvetica,sans-Serif" font-size="10.00">scram::core::Preprocessor</text>
<text text-anchor="middle" x="599.5" y="-580.5" font-family="Helvetica,sans-Serif" font-size="10.00">::AssignTiming</text>
</a>
</g>
</g>
<!-- Node31&#45;&gt;Node32 -->
<g id="edge37" class="edge"><title>Node31&#45;&gt;Node32</title>
<path fill="none" stroke="midnightblue" d="M472.245,-554.601C491.329,-559.725 512.82,-565.496 532.589,-570.803"/>
<polygon fill="midnightblue" stroke="midnightblue" points="531.875,-574.236 542.441,-573.448 533.69,-567.475 531.875,-574.236"/>
</g>
<!-- Node33&#45;&gt;Node10 -->
<g id="edge39" class="edge"><title>Node33&#45;&gt;Node10</title>
<path fill="none" stroke="midnightblue" d="M481.256,-493.447C533.3,-493.889 607.416,-490.203 669,-470.5 697.524,-461.374 726.451,-443.214 746.7,-428.726"/>
<polygon fill="midnightblue" stroke="midnightblue" points="748.821,-431.512 754.82,-422.779 744.685,-425.864 748.821,-431.512"/>
</g>
<!-- Node34&#45;&gt;Node32 -->
<g id="edge41" class="edge"><title>Node34&#45;&gt;Node32</title>
<path fill="none" stroke="midnightblue" d="M481.114,-588.5C494.788,-588.5 509.317,-588.5 523.324,-588.5"/>
<polygon fill="midnightblue" stroke="midnightblue" points="523.411,-592 533.411,-588.5 523.411,-585 523.411,-592"/>
</g>
<!-- Node35 -->
<g id="node35" class="node"><title>Node35</title>
<g id="a_node35"><a xlink:href="classscram_1_1core_1_1Preprocessor.xhtml#afbce0b5c45a445c3b70ae298b9518281" target="_top" xlink:title="Determines modules from original gates that have been already timed. ">
<polygon fill="white" stroke="black" points="533.5,-622.5 533.5,-652.5 665.5,-652.5 665.5,-622.5 533.5,-622.5"/>
<text text-anchor="start" x="541.5" y="-640.5" font-family="Helvetica,sans-Serif" font-size="10.00">scram::core::Preprocessor</text>
<text text-anchor="middle" x="599.5" y="-629.5" font-family="Helvetica,sans-Serif" font-size="10.00">::FindModules</text>
</a>
</g>
</g>
<!-- Node34&#45;&gt;Node35 -->
<g id="edge42" class="edge"><title>Node34&#45;&gt;Node35</title>
<path fill="none" stroke="midnightblue" d="M472.245,-603.601C491.329,-608.725 512.82,-614.496 532.589,-619.803"/>
<polygon fill="midnightblue" stroke="midnightblue" points="531.875,-623.236 542.441,-622.448 533.69,-616.475 531.875,-623.236"/>
</g>
<!-- Node36 -->
<g id="node36" class="node"><title>Node36</title>
<g id="a_node36"><a xlink:href="classscram_1_1core_1_1Preprocessor.xhtml#a4e97ffcda9c98ffc5aff93214f827c18" target="_top" xlink:title="Processes gate arguments found during the module detection. ">
<polygon fill="white" stroke="black" points="709,-622.5 709,-652.5 841,-652.5 841,-622.5 709,-622.5"/>
<text text-anchor="start" x="717" y="-640.5" font-family="Helvetica,sans-Serif" font-size="10.00">scram::core::Preprocessor</text>
<text text-anchor="middle" x="775" y="-629.5" font-family="Helvetica,sans-Serif" font-size="10.00">::ProcessModularArgs</text>
</a>
</g>
</g>
<!-- Node35&#45;&gt;Node36 -->
<g id="edge43" class="edge"><title>Node35&#45;&gt;Node36</title>
<path fill="none" stroke="midnightblue" d="M665.599,-637.5C676.421,-637.5 687.723,-637.5 698.771,-637.5"/>
<polygon fill="midnightblue" stroke="midnightblue" points="698.825,-641 708.825,-637.5 698.825,-634 698.825,-641"/>
</g>
<!-- Node37 -->
<g id="node37" class="node"><title>Node37</title>
<g id="a_node37"><a xlink:href="classscram_1_1core_1_1Preprocessor.xhtml#a434534b6a7c3fccc82c073e6aced90b1" target="_top" xlink:title="Creates a new module as an argument of an existing gate if the logic of the existing parent gate allo...">
<polygon fill="white" stroke="black" points="1049,-646.5 1049,-676.5 1181,-676.5 1181,-646.5 1049,-646.5"/>
<text text-anchor="start" x="1057" y="-664.5" font-family="Helvetica,sans-Serif" font-size="10.00">scram::core::Preprocessor</text>
<text text-anchor="middle" x="1115" y="-653.5" font-family="Helvetica,sans-Serif" font-size="10.00">::CreateNewModule</text>
</a>
</g>
</g>
<!-- Node36&#45;&gt;Node37 -->
<g id="edge44" class="edge"><title>Node36&#45;&gt;Node37</title>
<path fill="none" stroke="midnightblue" d="M841.157,-632.267C888.923,-629.567 955.238,-628.185 1013,-635.5 1027.09,-637.285 1042.03,-640.418 1055.98,-643.905"/>
<polygon fill="midnightblue" stroke="midnightblue" points="1055.37,-647.363 1065.93,-646.492 1057.14,-640.589 1055.37,-647.363"/>
</g>
<!-- Node38 -->
<g id="node38" class="node"><title>Node38</title>
<g id="a_node38"><a xlink:href="classscram_1_1core_1_1Preprocessor.xhtml#aa65bdffb78291a0e41a34d34bf3fa198" target="_top" xlink:title="Checks if a group of modular arguments share anything with non&#45;modular arguments. ...">
<polygon fill="white" stroke="black" points="881,-556.5 881,-586.5 1013,-586.5 1013,-556.5 881,-556.5"/>
<text text-anchor="start" x="889" y="-574.5" font-family="Helvetica,sans-Serif" font-size="10.00">scram::core::Preprocessor</text>
<text text-anchor="middle" x="947" y="-563.5" font-family="Helvetica,sans-Serif" font-size="10.00">::FilterModularArgs</text>
</a>
</g>
</g>
<!-- Node36&#45;&gt;Node38 -->
<g id="edge45" class="edge"><title>Node36&#45;&gt;Node38</title>
<path fill="none" stroke="midnightblue" d="M815.001,-622.358C839.622,-612.8 871.609,-600.381 897.812,-590.208"/>
<polygon fill="midnightblue" stroke="midnightblue" points="899.125,-593.453 907.18,-586.571 896.591,-586.928 899.125,-593.453"/>
</g>
<!-- Node39 -->
<g id="node39" class="node"><title>Node39</title>
<g id="a_node39"><a xlink:href="classscram_1_1core_1_1Preprocessor.xhtml#a5c10e807e558b06a1573c08ed13e205e" target="_top" xlink:title="Groups modular arguments by their common elements. ">
<polygon fill="white" stroke="black" points="881,-644.5 881,-674.5 1013,-674.5 1013,-644.5 881,-644.5"/>
<text text-anchor="start" x="889" y="-662.5" font-family="Helvetica,sans-Serif" font-size="10.00">scram::core::Preprocessor</text>
<text text-anchor="middle" x="947" y="-651.5" font-family="Helvetica,sans-Serif" font-size="10.00">::GroupModularArgs</text>
</a>
</g>
</g>
<!-- Node36&#45;&gt;Node39 -->
<g id="edge46" class="edge"><title>Node36&#45;&gt;Node39</title>
<path fill="none" stroke="midnightblue" d="M841.24,-645.943C850.9,-647.193 860.92,-648.49 870.763,-649.763"/>
<polygon fill="midnightblue" stroke="midnightblue" points="870.568,-653.267 880.934,-651.08 871.466,-646.325 870.568,-653.267"/>
</g>
<!-- Node40 -->
<g id="node40" class="node"><title>Node40</title>
<g id="a_node40"><a xlink:href="classscram_1_1core_1_1Preprocessor.xhtml#affe78b1e830afb73585affe0ada477be" target="_top" xlink:title="Creates new module gates from groups of modular arguments if the logic of the parent gate allows sub&#45;...">
<polygon fill="white" stroke="black" points="881,-693.5 881,-723.5 1013,-723.5 1013,-693.5 881,-693.5"/>
<text text-anchor="start" x="889" y="-711.5" font-family="Helvetica,sans-Serif" font-size="10.00">scram::core::Preprocessor</text>
<text text-anchor="middle" x="947" y="-700.5" font-family="Helvetica,sans-Serif" font-size="10.00">::CreateNewModules</text>
</a>
</g>
</g>
<!-- Node36&#45;&gt;Node40 -->
<g id="edge47" class="edge"><title>Node36&#45;&gt;Node40</title>
<path fill="none" stroke="midnightblue" d="M808.392,-652.676C829.024,-662.174 856.404,-674.468 881,-684.5 885.365,-686.28 889.917,-688.078 894.496,-689.846"/>
<polygon fill="midnightblue" stroke="midnightblue" points="893.291,-693.132 903.882,-693.418 895.781,-686.59 893.291,-693.132"/>
</g>
<!-- Node40&#45;&gt;Node37 -->
<g id="edge48" class="edge"><title>Node40&#45;&gt;Node37</title>
<path fill="none" stroke="midnightblue" d="M1000.98,-693.5C1016.85,-689.006 1034.42,-684.032 1050.88,-679.373"/>
<polygon fill="midnightblue" stroke="midnightblue" points="1052.29,-682.611 1060.95,-676.519 1050.38,-675.876 1052.29,-682.611"/>
</g>
<!-- Node42&#45;&gt;Node10 -->
<g id="edge54" class="edge"><title>Node42&#45;&gt;Node10</title>
<path fill="none" stroke="midnightblue" d="M667.58,-431.422C677.841,-429.115 688.49,-426.721 698.91,-424.379"/>
<polygon fill="midnightblue" stroke="midnightblue" points="699.822,-427.761 708.811,-422.154 698.287,-420.932 699.822,-427.761"/>
</g>
<!-- Node42&#45;&gt;Node27 -->
<g id="edge52" class="edge"><title>Node42&#45;&gt;Node27</title>
<path fill="none" stroke="midnightblue" d="M669.173,-447.494C727.401,-448.336 810.779,-449.543 870.794,-450.412"/>
<polygon fill="midnightblue" stroke="midnightblue" points="870.916,-453.914 880.966,-450.559 871.017,-446.914 870.916,-453.914"/>
</g>
<!-- Node42&#45;&gt;Node29 -->
<g id="edge53" class="edge"><title>Node42&#45;&gt;Node29</title>
<path fill="none" stroke="midnightblue" d="M622.147,-431.333C642.76,-417.359 675.003,-396.7 705,-382.5 708.804,-380.699 712.782,-378.962 716.824,-377.302"/>
<polygon fill="midnightblue" stroke="midnightblue" points="718.291,-380.486 726.321,-373.575 715.734,-373.97 718.291,-380.486"/>
</g>
<!-- Node43 -->
<g id="node43" class="node"><title>Node43</title>
<g id="a_node43"><a xlink:href="classscram_1_1core_1_1Preprocessor.xhtml#ae0bdf196274427420631bc20f95cb72a" target="_top" xlink:title="Traverses the Boolean graph to collect multiple definitions of gates. ">
<polygon fill="white" stroke="black" points="709,-480.5 709,-510.5 841,-510.5 841,-480.5 709,-480.5"/>
<text text-anchor="start" x="717" y="-498.5" font-family="Helvetica,sans-Serif" font-size="10.00">scram::core::Preprocessor</text>
<text text-anchor="middle" x="775" y="-487.5" font-family="Helvetica,sans-Serif" font-size="10.00">::DetectMultipleDefinitions</text>
</a>
</g>
</g>
<!-- Node42&#45;&gt;Node43 -->
<g id="edge51" class="edge"><title>Node42&#45;&gt;Node43</title>
<path fill="none" stroke="midnightblue" d="M653.971,-461.601C672.031,-466.702 692.359,-472.443 711.081,-477.73"/>
<polygon fill="midnightblue" stroke="midnightblue" points="710.13,-481.099 720.705,-480.448 712.033,-474.362 710.13,-481.099"/>
</g>
</g>
</svg>
