<?xml version="1.0" encoding="UTF-8" standalone="no"?>
<!DOCTYPE svg PUBLIC "-//W3C//DTD SVG 1.1//EN"
 "http://www.w3.org/Graphics/SVG/1.1/DTD/svg11.dtd">
<!-- Generated by graphviz version 2.38.0 (20140413.2041)
 -->
<!-- Title: scram::core::Zbdd::products Pages: 1 -->
<svg width="445pt" height="78pt"
 viewBox="0.00 0.00 445.00 77.50" xmlns="http://www.w3.org/2000/svg" xmlns:xlink="http://www.w3.org/1999/xlink">
<g id="graph0" class="graph" transform="scale(1 1) rotate(0) translate(4 73.5)">
<title>scram::core::Zbdd::products</title>
<polygon fill="white" stroke="none" points="-4,4 -4,-73.5 441,-73.5 441,4 -4,4"/>
<!-- Node1 -->
<g id="node1" class="node"><title>Node1</title>
<polygon fill="#bfbfbf" stroke="black" points="0,-22.5 0,-52.5 102,-52.5 102,-22.5 0,-22.5"/>
<text text-anchor="start" x="8" y="-40.5" font-family="Helvetica,sans-Serif" font-size="10.00">scram::core::Zbdd::</text>
<text text-anchor="middle" x="51" y="-29.5" font-family="Helvetica,sans-Serif" font-size="10.00">products</text>
</g>
<!-- Node2 -->
<g id="node2" class="node"><title>Node2</title>
<g id="a_node2"><a xlink:href="classscram_1_1core_1_1Zbdd.xhtml#a516f0d2f35ad213399f83fb9ab102561" target="_top" xlink:title="Traverses ZBDD to find modules and adjusted cut&#45;offs. ">
<polygon fill="white" stroke="black" points="138,-22.5 138,-52.5 240,-52.5 240,-22.5 138,-22.5"/>
<text text-anchor="start" x="146" y="-40.5" font-family="Helvetica,sans-Serif" font-size="10.00">scram::core::Zbdd::</text>
<text text-anchor="middle" x="189" y="-29.5" font-family="Helvetica,sans-Serif" font-size="10.00">GatherModules</text>
</a>
</g>
</g>
<!-- Node1&#45;&gt;Node2 -->
<g id="edge1" class="edge"><title>Node1&#45;&gt;Node2</title>
<path fill="none" stroke="midnightblue" d="M112.511,-37.5C121.013,-37.5 129.674,-37.5 137.952,-37.5"/>
<polygon fill="midnightblue" stroke="midnightblue" points="112.255,-34.0001 102.255,-37.5 112.255,-41.0001 112.255,-34.0001"/>
</g>
<!-- Node3 -->
<g id="node3" class="node"><title>Node3</title>
<g id="a_node3"><a xlink:href="classscram_1_1core_1_1Zbdd.xhtml#af92e04ed908364e0177ce444d7b72712" target="_top" xlink:title="Default constructor to initialize member variables. ">
<polygon fill="white" stroke="black" points="294.5,-50 294.5,-69 418.5,-69 418.5,-50 294.5,-50"/>
<text text-anchor="middle" x="356.5" y="-57" font-family="Helvetica,sans-Serif" font-size="10.00">scram::core::Zbdd::Zbdd</text>
</a>
</g>
</g>
<!-- Node2&#45;&gt;Node3 -->
<g id="edge2" class="edge"><title>Node2&#45;&gt;Node3</title>
<path fill="none" stroke="midnightblue" d="M250.366,-45.5244C264.731,-47.434 280.07,-49.473 294.465,-51.3866"/>
<polygon fill="midnightblue" stroke="midnightblue" points="250.479,-42.0087 240.105,-44.1604 249.556,-48.9477 250.479,-42.0087"/>
</g>
<!-- Node4 -->
<g id="node4" class="node"><title>Node4</title>
<g id="a_node4"><a xlink:href="classscram_1_1core_1_1zbdd_1_1CutSetContainer.xhtml#a478c89f64731781882b50ec55898900b" target="_top" xlink:title="Gathers all module indices in the cut sets. ">
<polygon fill="white" stroke="black" points="276,-0.5 276,-30.5 437,-30.5 437,-0.5 276,-0.5"/>
<text text-anchor="start" x="284" y="-18.5" font-family="Helvetica,sans-Serif" font-size="10.00">scram::core::zbdd::</text>
<text text-anchor="middle" x="356.5" y="-7.5" font-family="Helvetica,sans-Serif" font-size="10.00">CutSetContainer::GatherModules</text>
</a>
</g>
</g>
<!-- Node2&#45;&gt;Node4 -->
<g id="edge3" class="edge"><title>Node2&#45;&gt;Node4</title>
<path fill="none" stroke="midnightblue" d="M250.14,-29.5055C258.525,-28.3909 267.245,-27.2318 275.919,-26.0788"/>
<polygon fill="midnightblue" stroke="midnightblue" points="249.556,-26.0523 240.105,-30.8396 250.479,-32.9913 249.556,-26.0523"/>
</g>
</g>
</svg>
