<?xml version="1.0" encoding="UTF-8" standalone="no"?>
<!DOCTYPE svg PUBLIC "-//W3C//DTD SVG 1.1//EN"
 "http://www.w3.org/Graphics/SVG/1.1/DTD/svg11.dtd">
<!-- Generated by graphviz version 2.38.0 (20140413.2041)
 -->
<!-- Title: scram::core::McubCalculator::Calculate Pages: 1 -->
<svg width="338pt" height="88pt"
 viewBox="0.00 0.00 338.00 88.00" xmlns="http://www.w3.org/2000/svg" xmlns:xlink="http://www.w3.org/1999/xlink">
<g id="graph0" class="graph" transform="scale(1 1) rotate(0) translate(4 84)">
<title>scram::core::McubCalculator::Calculate</title>
<polygon fill="white" stroke="none" points="-4,4 -4,-84 334,-84 334,4 -4,4"/>
<!-- Node1 -->
<g id="node1" class="node"><title>Node1</title>
<polygon fill="#bfbfbf" stroke="black" points="0,-24.5 0,-54.5 143,-54.5 143,-24.5 0,-24.5"/>
<text text-anchor="start" x="8" y="-42.5" font-family="Helvetica,sans-Serif" font-size="10.00">scram::core::McubCalculator</text>
<text text-anchor="middle" x="71.5" y="-31.5" font-family="Helvetica,sans-Serif" font-size="10.00">::Calculate</text>
</g>
<!-- Node2 -->
<g id="node2" class="node"><title>Node2</title>
<g id="a_node2"><a xlink:href="classscram_1_1core_1_1CutSetProbabilityCalculator.xhtml#a6fe9b29bb6435fefeb43c784f05605b1" target="_top" xlink:title="Calculates a probability of a cut set, whose members are in AND relationship with each other...">
<polygon fill="white" stroke="black" points="179,-49.5 179,-79.5 330,-79.5 330,-49.5 179,-49.5"/>
<text text-anchor="start" x="187" y="-67.5" font-family="Helvetica,sans-Serif" font-size="10.00">scram::core::CutSetProbability</text>
<text text-anchor="middle" x="254.5" y="-56.5" font-family="Helvetica,sans-Serif" font-size="10.00">Calculator::Calculate</text>
</a>
</g>
</g>
<!-- Node1&#45;&gt;Node2 -->
<g id="edge1" class="edge"><title>Node1&#45;&gt;Node2</title>
<path fill="none" stroke="midnightblue" d="M143.257,-49.2731C151.666,-50.4346 160.315,-51.6291 168.892,-52.8138"/>
<polygon fill="midnightblue" stroke="midnightblue" points="168.525,-56.2963 178.91,-54.1975 169.483,-49.3621 168.525,-56.2963"/>
</g>
<!-- Node3 -->
<g id="node3" class="node"><title>Node3</title>
<g id="a_node3"><a xlink:href="classscram_1_1core_1_1CutSetProbabilityCalculator.xhtml#a65d68a9aacfdcb5a918f5d33bd43306d" target="_top" xlink:title="Checks the special case of a unity set with probability 1. ">
<polygon fill="white" stroke="black" points="179,-0.5 179,-30.5 330,-30.5 330,-0.5 179,-0.5"/>
<text text-anchor="start" x="187" y="-18.5" font-family="Helvetica,sans-Serif" font-size="10.00">scram::core::CutSetProbability</text>
<text text-anchor="middle" x="254.5" y="-7.5" font-family="Helvetica,sans-Serif" font-size="10.00">Calculator::CheckUnity</text>
</a>
</g>
</g>
<!-- Node1&#45;&gt;Node3 -->
<g id="edge2" class="edge"><title>Node1&#45;&gt;Node3</title>
<path fill="none" stroke="midnightblue" d="M143.257,-30.1179C151.666,-29.0028 160.315,-27.8561 168.892,-26.7187"/>
<polygon fill="midnightblue" stroke="midnightblue" points="169.457,-30.1746 178.91,-25.3904 168.537,-23.2353 169.457,-30.1746"/>
</g>
</g>
</svg>
