<?xml version="1.0" encoding="UTF-8" standalone="no"?>
<!DOCTYPE svg PUBLIC "-//W3C//DTD SVG 1.1//EN"
 "http://www.w3.org/Graphics/SVG/1.1/DTD/svg11.dtd">
<!-- Generated by graphviz version 2.38.0 (20140413.2041)
 -->
<!-- Title: scram::mef::Role::base_path Pages: 1 -->
<svg width="459pt" height="175pt"
 viewBox="0.00 0.00 459.00 175.00" xmlns="http://www.w3.org/2000/svg" xmlns:xlink="http://www.w3.org/1999/xlink">
<g id="graph0" class="graph" transform="scale(1 1) rotate(0) translate(4 171)">
<title>scram::mef::Role::base_path</title>
<polygon fill="white" stroke="none" points="-4,4 -4,-171 455,-171 455,4 -4,4"/>
<!-- Node1 -->
<g id="node1" class="node"><title>Node1</title>
<polygon fill="#bfbfbf" stroke="black" points="0,-87.5 0,-106.5 143,-106.5 143,-87.5 0,-87.5"/>
<text text-anchor="middle" x="71.5" y="-94.5" font-family="Helvetica,sans-Serif" font-size="10.00">scram::mef::Role::base_path</text>
</g>
<!-- Node2 -->
<g id="node2" class="node"><title>Node2</title>
<g id="a_node2"><a xlink:href="classscram_1_1mef_1_1Id.xhtml#a170b11fbe61285a335f0908f96b02d59" target="_top" xlink:title="Mangles the element name to be unique. ">
<polygon fill="white" stroke="black" points="191,-147.5 191,-166.5 286,-166.5 286,-147.5 191,-147.5"/>
<text text-anchor="middle" x="238.5" y="-154.5" font-family="Helvetica,sans-Serif" font-size="10.00">scram::mef::Id::Id</text>
</a>
</g>
</g>
<!-- Node1&#45;&gt;Node2 -->
<g id="edge1" class="edge"><title>Node1&#45;&gt;Node2</title>
<path fill="none" stroke="midnightblue" d="M108.207,-109.984C139.197,-121.254 183.349,-137.309 211.205,-147.438"/>
<polygon fill="midnightblue" stroke="midnightblue" points="109.239,-106.635 98.6447,-106.507 106.847,-113.214 109.239,-106.635"/>
</g>
<!-- Node3 -->
<g id="node3" class="node"><title>Node3</title>
<g id="a_node3"><a xlink:href="classscram_1_1mef_1_1Parameter.xhtml#adc65022ef0cc3955e9bb81d63a437809" target="_top" xlink:title="Creates a parameter as a variable for future references. ">
<polygon fill="white" stroke="black" points="334,-123 334,-153 451,-153 451,-123 334,-123"/>
<text text-anchor="start" x="342" y="-141" font-family="Helvetica,sans-Serif" font-size="10.00">scram::mef::Parameter</text>
<text text-anchor="middle" x="392.5" y="-130" font-family="Helvetica,sans-Serif" font-size="10.00">::Parameter</text>
</a>
</g>
</g>
<!-- Node1&#45;&gt;Node3 -->
<g id="edge5" class="edge"><title>Node1&#45;&gt;Node3</title>
<path fill="none" stroke="midnightblue" d="M153.25,-107.379C209.613,-114.623 283.49,-124.118 333.942,-130.602"/>
<polygon fill="midnightblue" stroke="midnightblue" points="153.661,-103.903 143.296,-106.099 152.769,-110.846 153.661,-103.903"/>
</g>
<!-- Node4 -->
<g id="node4" class="node"><title>Node4</title>
<g id="a_node4"><a xlink:href="classscram_1_1mef_1_1Initializer.xhtml#a8fb6959baa83f7619b3ca9ed8423d40a" target="_top" xlink:title="Reads input files with the structure of analysis constructs. ">
<polygon fill="white" stroke="black" points="183,-60 183,-90 294,-90 294,-60 183,-60"/>
<text text-anchor="start" x="191" y="-78" font-family="Helvetica,sans-Serif" font-size="10.00">scram::mef::Initializer</text>
<text text-anchor="middle" x="238.5" y="-67" font-family="Helvetica,sans-Serif" font-size="10.00">::Initializer</text>
</a>
</g>
</g>
<!-- Node1&#45;&gt;Node4 -->
<g id="edge3" class="edge"><title>Node1&#45;&gt;Node4</title>
<path fill="none" stroke="midnightblue" d="M153.378,-86.2163C163.356,-84.8859 173.365,-83.5513 182.822,-82.2904"/>
<polygon fill="midnightblue" stroke="midnightblue" points="152.882,-82.7513 143.432,-87.5423 153.807,-89.6899 152.882,-82.7513"/>
</g>
<!-- Node5 -->
<g id="node5" class="node"><title>Node5</title>
<g id="a_node5"><a xlink:href="structscram_1_1mef_1_1Initializer_1_1Extractor_3_01Histogram_00-1_01_4.xhtml#ac0e94ff09dd707d3c253937a172e7fc7" target="_top" xlink:title="Constructs Histogram deviate expression expression arguments in XML elements. ">
<polygon fill="white" stroke="black" points="179,-0.5 179,-41.5 298,-41.5 298,-0.5 179,-0.5"/>
<text text-anchor="start" x="187" y="-29.5" font-family="Helvetica,sans-Serif" font-size="10.00">scram::mef::Initializer</text>
<text text-anchor="start" x="187" y="-18.5" font-family="Helvetica,sans-Serif" font-size="10.00">::Extractor&lt; Histogram,</text>
<text text-anchor="middle" x="238.5" y="-7.5" font-family="Helvetica,sans-Serif" font-size="10.00">&#45;1 &gt;::operator()</text>
</a>
</g>
</g>
<!-- Node1&#45;&gt;Node5 -->
<g id="edge4" class="edge"><title>Node1&#45;&gt;Node5</title>
<path fill="none" stroke="midnightblue" d="M102.485,-83.1889C127.734,-71.5591 164.214,-54.756 192.891,-41.5471"/>
<polygon fill="midnightblue" stroke="midnightblue" points="101.016,-80.0119 93.3974,-87.3745 103.944,-86.3699 101.016,-80.0119"/>
</g>
<!-- Node2&#45;&gt;Node3 -->
<g id="edge2" class="edge"><title>Node2&#45;&gt;Node3</title>
<path fill="none" stroke="midnightblue" d="M296.417,-149.885C308.641,-148.357 321.569,-146.741 333.822,-145.21"/>
<polygon fill="midnightblue" stroke="midnightblue" points="295.834,-146.431 286.345,-151.144 296.702,-153.377 295.834,-146.431"/>
</g>
</g>
</svg>
