<?xml version="1.0" encoding="UTF-8" standalone="no"?>
<!DOCTYPE svg PUBLIC "-//W3C//DTD SVG 1.1//EN"
 "http://www.w3.org/Graphics/SVG/1.1/DTD/svg11.dtd">
<!-- Generated by graphviz version 2.38.0 (20140413.2041)
 -->
<!-- Title: scram::core::CutSetProbabilityCalculator::CheckUnity Pages: 1 -->
<svg width="360pt" height="88pt"
 viewBox="0.00 0.00 360.00 88.00" xmlns="http://www.w3.org/2000/svg" xmlns:xlink="http://www.w3.org/1999/xlink">
<g id="graph0" class="graph" transform="scale(1 1) rotate(0) translate(4 84)">
<title>scram::core::CutSetProbabilityCalculator::CheckUnity</title>
<polygon fill="white" stroke="none" points="-4,4 -4,-84 356,-84 356,4 -4,4"/>
<!-- Node1 -->
<g id="node1" class="node"><title>Node1</title>
<polygon fill="#bfbfbf" stroke="black" points="0,-24.5 0,-54.5 151,-54.5 151,-24.5 0,-24.5"/>
<text text-anchor="start" x="8" y="-42.5" font-family="Helvetica,sans-Serif" font-size="10.00">scram::core::CutSetProbability</text>
<text text-anchor="middle" x="75.5" y="-31.5" font-family="Helvetica,sans-Serif" font-size="10.00">Calculator::CheckUnity</text>
</g>
<!-- Node2 -->
<g id="node2" class="node"><title>Node2</title>
<g id="a_node2"><a xlink:href="classscram_1_1core_1_1RareEventCalculator.xhtml#a28af9677c356275edcb3705f350659f1" target="_top" xlink:title="Calculates probabilities using the Rare&#45;Event approximation. ">
<polygon fill="white" stroke="black" points="187,-49.5 187,-79.5 352,-79.5 352,-49.5 187,-49.5"/>
<text text-anchor="start" x="195" y="-67.5" font-family="Helvetica,sans-Serif" font-size="10.00">scram::core::RareEventCalculator</text>
<text text-anchor="middle" x="269.5" y="-56.5" font-family="Helvetica,sans-Serif" font-size="10.00">::Calculate</text>
</a>
</g>
</g>
<!-- Node1&#45;&gt;Node2 -->
<g id="edge1" class="edge"><title>Node1&#45;&gt;Node2</title>
<path fill="none" stroke="midnightblue" d="M160.969,-50.4986C169.518,-51.6117 178.191,-52.741 186.711,-53.8504"/>
<polygon fill="midnightblue" stroke="midnightblue" points="161.375,-47.022 151.007,-49.2014 160.471,-53.9634 161.375,-47.022"/>
</g>
<!-- Node3 -->
<g id="node3" class="node"><title>Node3</title>
<g id="a_node3"><a xlink:href="classscram_1_1core_1_1McubCalculator.xhtml#a232ee443db7bcfe41f62698acee39f06" target="_top" xlink:title="Calculates probabilities using the minimal cut set upper bound (MCUB) approximation. ">
<polygon fill="white" stroke="black" points="198,-0.5 198,-30.5 341,-30.5 341,-0.5 198,-0.5"/>
<text text-anchor="start" x="206" y="-18.5" font-family="Helvetica,sans-Serif" font-size="10.00">scram::core::McubCalculator</text>
<text text-anchor="middle" x="269.5" y="-7.5" font-family="Helvetica,sans-Serif" font-size="10.00">::Calculate</text>
</a>
</g>
</g>
<!-- Node1&#45;&gt;Node3 -->
<g id="edge2" class="edge"><title>Node1&#45;&gt;Node3</title>
<path fill="none" stroke="midnightblue" d="M161.2,-28.9125C173.426,-27.3843 185.899,-25.8251 197.813,-24.3359"/>
<polygon fill="midnightblue" stroke="midnightblue" points="160.496,-25.4732 151.007,-30.1866 161.364,-32.4192 160.496,-25.4732"/>
</g>
</g>
</svg>
