<?xml version="1.0" encoding="UTF-8" standalone="no"?>
<!DOCTYPE svg PUBLIC "-//W3C//DTD SVG 1.1//EN"
 "http://www.w3.org/Graphics/SVG/1.1/DTD/svg11.dtd">
<!-- Generated by graphviz version 2.38.0 (20140413.2041)
 -->
<!-- Title: scram::Error Pages: 1 -->
<svg width="857pt" height="414pt"
 viewBox="0.00 0.00 857.00 414.00" xmlns="http://www.w3.org/2000/svg" xmlns:xlink="http://www.w3.org/1999/xlink">
<g id="graph0" class="graph" transform="scale(1 1) rotate(0) translate(4 410)">
<title>scram::Error</title>
<polygon fill="white" stroke="none" points="-4,4 -4,-410 853,-410 853,4 -4,4"/>
<!-- Node1 -->
<g id="node1" class="node"><title>Node1</title>
<polygon fill="#bfbfbf" stroke="black" points="385,-199.5 385,-311.5 456,-311.5 456,-199.5 385,-199.5"/>
<text text-anchor="middle" x="420.5" y="-299.5" font-family="Helvetica,sans-Serif" font-size="10.00">scram::Error</text>
<polyline fill="none" stroke="black" points="385,-292.5 456,-292.5 "/>
<text text-anchor="middle" x="420.5" y="-280.5" font-family="Helvetica,sans-Serif" font-size="10.00"> </text>
<polyline fill="none" stroke="black" points="385,-273.5 456,-273.5 "/>
<text text-anchor="start" x="393" y="-261.5" font-family="Helvetica,sans-Serif" font-size="10.00">+ Error()</text>
<text text-anchor="start" x="393" y="-250.5" font-family="Helvetica,sans-Serif" font-size="10.00">+ Error()</text>
<text text-anchor="start" x="393" y="-239.5" font-family="Helvetica,sans-Serif" font-size="10.00">+ ~Error()</text>
<text text-anchor="start" x="393" y="-228.5" font-family="Helvetica,sans-Serif" font-size="10.00">+ what()</text>
<text text-anchor="start" x="393" y="-217.5" font-family="Helvetica,sans-Serif" font-size="10.00">+ msg()</text>
<text text-anchor="start" x="393" y="-206.5" font-family="Helvetica,sans-Serif" font-size="10.00">+ msg()</text>
</g>
<!-- Node3 -->
<g id="node3" class="node"><title>Node3</title>
<g id="a_node3"><a xlink:href="structscram_1_1IllegalOperation.xhtml" target="_top" xlink:title="This error can be used to indicate that call for a function or operation is not legal. ">
<polygon fill="white" stroke="black" points="0,-105.5 0,-162.5 117,-162.5 117,-105.5 0,-105.5"/>
<text text-anchor="middle" x="58.5" y="-150.5" font-family="Helvetica,sans-Serif" font-size="10.00">scram::IllegalOperation</text>
<polyline fill="none" stroke="black" points="0,-143.5 117,-143.5 "/>
<text text-anchor="middle" x="58.5" y="-131.5" font-family="Helvetica,sans-Serif" font-size="10.00"> </text>
<polyline fill="none" stroke="black" points="0,-124.5 117,-124.5 "/>
<text text-anchor="middle" x="58.5" y="-112.5" font-family="Helvetica,sans-Serif" font-size="10.00"> </text>
</a>
</g>
</g>
<!-- Node1&#45;&gt;Node3 -->
<g id="edge2" class="edge"><title>Node1&#45;&gt;Node3</title>
<path fill="none" stroke="midnightblue" d="M374.891,-241.671C316.736,-225.003 213.31,-194.311 126.5,-163 123.498,-161.917 120.433,-160.779 117.347,-159.606"/>
<polygon fill="none" stroke="midnightblue" points="374.287,-245.139 384.863,-244.519 376.209,-238.408 374.287,-245.139"/>
</g>
<!-- Node4 -->
<g id="node4" class="node"><title>Node4</title>
<g id="a_node4"><a xlink:href="structscram_1_1InvalidArgument.xhtml" target="_top" xlink:title="This error class can be used to indicate unacceptable arguments. ">
<polygon fill="white" stroke="black" points="135.5,-105.5 135.5,-162.5 255.5,-162.5 255.5,-105.5 135.5,-105.5"/>
<text text-anchor="middle" x="195.5" y="-150.5" font-family="Helvetica,sans-Serif" font-size="10.00">scram::InvalidArgument</text>
<polyline fill="none" stroke="black" points="135.5,-143.5 255.5,-143.5 "/>
<text text-anchor="middle" x="195.5" y="-131.5" font-family="Helvetica,sans-Serif" font-size="10.00"> </text>
<polyline fill="none" stroke="black" points="135.5,-124.5 255.5,-124.5 "/>
<text text-anchor="middle" x="195.5" y="-112.5" font-family="Helvetica,sans-Serif" font-size="10.00"> </text>
</a>
</g>
</g>
<!-- Node1&#45;&gt;Node4 -->
<g id="edge3" class="edge"><title>Node1&#45;&gt;Node4</title>
<path fill="none" stroke="midnightblue" d="M375.792,-230.755C338.779,-211.097 286.154,-183.147 247.308,-162.516"/>
<polygon fill="none" stroke="midnightblue" points="374.375,-233.965 384.848,-235.565 377.658,-227.783 374.375,-233.965"/>
</g>
<!-- Node5 -->
<g id="node5" class="node"><title>Node5</title>
<g id="a_node5"><a xlink:href="structscram_1_1IOError.xhtml" target="_top" xlink:title="For input/output related errors. ">
<polygon fill="white" stroke="black" points="274,-105.5 274,-162.5 355,-162.5 355,-105.5 274,-105.5"/>
<text text-anchor="middle" x="314.5" y="-150.5" font-family="Helvetica,sans-Serif" font-size="10.00">scram::IOError</text>
<polyline fill="none" stroke="black" points="274,-143.5 355,-143.5 "/>
<text text-anchor="middle" x="314.5" y="-131.5" font-family="Helvetica,sans-Serif" font-size="10.00"> </text>
<polyline fill="none" stroke="black" points="274,-124.5 355,-124.5 "/>
<text text-anchor="middle" x="314.5" y="-112.5" font-family="Helvetica,sans-Serif" font-size="10.00"> </text>
</a>
</g>
</g>
<!-- Node1&#45;&gt;Node5 -->
<g id="edge4" class="edge"><title>Node1&#45;&gt;Node5</title>
<path fill="none" stroke="midnightblue" d="M378.092,-206.691C364.862,-191.776 350.714,-175.826 339.13,-162.767"/>
<polygon fill="none" stroke="midnightblue" points="375.654,-209.217 384.909,-214.376 380.891,-204.572 375.654,-209.217"/>
</g>
<!-- Node6 -->
<g id="node6" class="node"><title>Node6</title>
<g id="a_node6"><a xlink:href="structscram_1_1LogicError.xhtml" target="_top" xlink:title="Signals internal logic errors, for example, pre&#45;condition failure or use of functionality in ways not...">
<polygon fill="white" stroke="black" points="373.5,-105.5 373.5,-162.5 467.5,-162.5 467.5,-105.5 373.5,-105.5"/>
<text text-anchor="middle" x="420.5" y="-150.5" font-family="Helvetica,sans-Serif" font-size="10.00">scram::LogicError</text>
<polyline fill="none" stroke="black" points="373.5,-143.5 467.5,-143.5 "/>
<text text-anchor="middle" x="420.5" y="-131.5" font-family="Helvetica,sans-Serif" font-size="10.00"> </text>
<polyline fill="none" stroke="black" points="373.5,-124.5 467.5,-124.5 "/>
<text text-anchor="middle" x="420.5" y="-112.5" font-family="Helvetica,sans-Serif" font-size="10.00"> </text>
</a>
</g>
</g>
<!-- Node1&#45;&gt;Node6 -->
<g id="edge5" class="edge"><title>Node1&#45;&gt;Node6</title>
<path fill="none" stroke="midnightblue" d="M420.5,-189.146C420.5,-179.817 420.5,-170.672 420.5,-162.631"/>
<polygon fill="none" stroke="midnightblue" points="417,-189.297 420.5,-199.297 424,-189.297 417,-189.297"/>
</g>
<!-- Node7 -->
<g id="node7" class="node"><title>Node7</title>
<g id="a_node7"><a xlink:href="structscram_1_1ValidationError.xhtml" target="_top" xlink:title="For validating input parameters or user arguments. ">
<polygon fill="white" stroke="black" points="486,-105.5 486,-162.5 599,-162.5 599,-105.5 486,-105.5"/>
<text text-anchor="middle" x="542.5" y="-150.5" font-family="Helvetica,sans-Serif" font-size="10.00">scram::ValidationError</text>
<polyline fill="none" stroke="black" points="486,-143.5 599,-143.5 "/>
<text text-anchor="middle" x="542.5" y="-131.5" font-family="Helvetica,sans-Serif" font-size="10.00"> </text>
<polyline fill="none" stroke="black" points="486,-124.5 599,-124.5 "/>
<text text-anchor="middle" x="542.5" y="-112.5" font-family="Helvetica,sans-Serif" font-size="10.00"> </text>
</a>
</g>
</g>
<!-- Node1&#45;&gt;Node7 -->
<g id="edge6" class="edge"><title>Node1&#45;&gt;Node7</title>
<path fill="none" stroke="midnightblue" d="M463.695,-212.19C480.54,-195.69 499.372,-177.245 514.401,-162.524"/>
<polygon fill="none" stroke="midnightblue" points="460.81,-210.117 456.115,-219.614 465.708,-215.117 460.81,-210.117"/>
</g>
<!-- Node11 -->
<g id="node11" class="node"><title>Node11</title>
<g id="a_node11"><a xlink:href="structscram_1_1ValueError.xhtml" target="_top" xlink:title="For values that are not acceptable. ">
<polygon fill="white" stroke="black" points="617,-105.5 617,-162.5 712,-162.5 712,-105.5 617,-105.5"/>
<text text-anchor="middle" x="664.5" y="-150.5" font-family="Helvetica,sans-Serif" font-size="10.00">scram::ValueError</text>
<polyline fill="none" stroke="black" points="617,-143.5 712,-143.5 "/>
<text text-anchor="middle" x="664.5" y="-131.5" font-family="Helvetica,sans-Serif" font-size="10.00"> </text>
<polyline fill="none" stroke="black" points="617,-124.5 712,-124.5 "/>
<text text-anchor="middle" x="664.5" y="-112.5" font-family="Helvetica,sans-Serif" font-size="10.00"> </text>
</a>
</g>
</g>
<!-- Node1&#45;&gt;Node11 -->
<g id="edge10" class="edge"><title>Node1&#45;&gt;Node11</title>
<path fill="none" stroke="midnightblue" d="M465.242,-232.632C503.131,-214.107 558.884,-186.835 607.5,-163 610.569,-161.495 613.73,-159.945 616.917,-158.381"/>
<polygon fill="none" stroke="midnightblue" points="463.456,-229.609 456.009,-237.145 466.53,-235.898 463.456,-229.609"/>
</g>
<!-- Node12 -->
<g id="node12" class="node"><title>Node12</title>
<g id="a_node12"><a xlink:href="structscram_1_1XmlStreamError.xhtml" target="_top" xlink:title="Errors in using XML streaming facilities. ">
<polygon fill="white" stroke="black" points="730,-105.5 730,-162.5 849,-162.5 849,-105.5 730,-105.5"/>
<text text-anchor="middle" x="789.5" y="-150.5" font-family="Helvetica,sans-Serif" font-size="10.00">scram::XmlStreamError</text>
<polyline fill="none" stroke="black" points="730,-143.5 849,-143.5 "/>
<text text-anchor="middle" x="789.5" y="-131.5" font-family="Helvetica,sans-Serif" font-size="10.00"> </text>
<polyline fill="none" stroke="black" points="730,-124.5 849,-124.5 "/>
<text text-anchor="middle" x="789.5" y="-112.5" font-family="Helvetica,sans-Serif" font-size="10.00"> </text>
</a>
</g>
</g>
<!-- Node1&#45;&gt;Node12 -->
<g id="edge11" class="edge"><title>Node1&#45;&gt;Node12</title>
<path fill="none" stroke="midnightblue" d="M466.182,-241.944C525.356,-225.366 631.476,-194.568 720.5,-163 723.546,-161.92 726.655,-160.784 729.786,-159.613"/>
<polygon fill="none" stroke="midnightblue" points="465.087,-238.616 456.396,-244.676 466.969,-245.358 465.087,-238.616"/>
</g>
<!-- Node2 -->
<g id="node2" class="node"><title>Node2</title>
<polygon fill="white" stroke="#bfbfbf" points="381.5,-348.5 381.5,-405.5 459.5,-405.5 459.5,-348.5 381.5,-348.5"/>
<text text-anchor="middle" x="420.5" y="-393.5" font-family="Helvetica,sans-Serif" font-size="10.00">std::exception</text>
<polyline fill="none" stroke="#bfbfbf" points="381.5,-386.5 459.5,-386.5 "/>
<text text-anchor="middle" x="420.5" y="-374.5" font-family="Helvetica,sans-Serif" font-size="10.00"> </text>
<polyline fill="none" stroke="#bfbfbf" points="381.5,-367.5 459.5,-367.5 "/>
<text text-anchor="middle" x="420.5" y="-355.5" font-family="Helvetica,sans-Serif" font-size="10.00"> </text>
</g>
<!-- Node2&#45;&gt;Node1 -->
<g id="edge1" class="edge"><title>Node2&#45;&gt;Node1</title>
<path fill="none" stroke="midnightblue" d="M420.5,-338.108C420.5,-329.748 420.5,-320.725 420.5,-311.834"/>
<polygon fill="none" stroke="midnightblue" points="417,-338.284 420.5,-348.284 424,-338.284 417,-338.284"/>
</g>
<!-- Node8 -->
<g id="node8" class="node"><title>Node8</title>
<g id="a_node8"><a xlink:href="structscram_1_1CycleError.xhtml" target="_top" xlink:title="Signals unacceptable cycles in invalid structures. ">
<polygon fill="white" stroke="black" points="361.5,-6 361.5,-63 457.5,-63 457.5,-6 361.5,-6"/>
<text text-anchor="middle" x="409.5" y="-51" font-family="Helvetica,sans-Serif" font-size="10.00">scram::CycleError</text>
<polyline fill="none" stroke="black" points="361.5,-44 457.5,-44 "/>
<text text-anchor="middle" x="409.5" y="-32" font-family="Helvetica,sans-Serif" font-size="10.00"> </text>
<polyline fill="none" stroke="black" points="361.5,-25 457.5,-25 "/>
<text text-anchor="middle" x="409.5" y="-13" font-family="Helvetica,sans-Serif" font-size="10.00"> </text>
</a>
</g>
</g>
<!-- Node7&#45;&gt;Node8 -->
<g id="edge7" class="edge"><title>Node7&#45;&gt;Node8</title>
<path fill="none" stroke="midnightblue" d="M496.534,-99.3032C480.484,-87.5372 462.665,-74.4741 447.351,-63.248"/>
<polygon fill="none" stroke="midnightblue" points="494.609,-102.232 504.743,-105.321 498.748,-96.5861 494.609,-102.232"/>
</g>
<!-- Node9 -->
<g id="node9" class="node"><title>Node9</title>
<g id="a_node9"><a xlink:href="structscram_1_1DuplicateArgumentError.xhtml" target="_top" xlink:title="This error indicates that arguments must be unique. ">
<polygon fill="white" stroke="black" points="476,-0.5 476,-68.5 609,-68.5 609,-0.5 476,-0.5"/>
<text text-anchor="start" x="484" y="-56.5" font-family="Helvetica,sans-Serif" font-size="10.00">scram::DuplicateArgument</text>
<text text-anchor="middle" x="542.5" y="-45.5" font-family="Helvetica,sans-Serif" font-size="10.00">Error</text>
<polyline fill="none" stroke="black" points="476,-38.5 609,-38.5 "/>
<text text-anchor="middle" x="542.5" y="-26.5" font-family="Helvetica,sans-Serif" font-size="10.00"> </text>
<polyline fill="none" stroke="black" points="476,-19.5 609,-19.5 "/>
<text text-anchor="middle" x="542.5" y="-7.5" font-family="Helvetica,sans-Serif" font-size="10.00"> </text>
</a>
</g>
</g>
<!-- Node7&#45;&gt;Node9 -->
<g id="edge8" class="edge"><title>Node7&#45;&gt;Node9</title>
<path fill="none" stroke="midnightblue" d="M542.5,-95.0631C542.5,-86.3933 542.5,-77.2431 542.5,-68.7855"/>
<polygon fill="none" stroke="midnightblue" points="539,-95.3212 542.5,-105.321 546,-95.3212 539,-95.3212"/>
</g>
<!-- Node10 -->
<g id="node10" class="node"><title>Node10</title>
<g id="a_node10"><a xlink:href="structscram_1_1RedefinitionError.xhtml" target="_top" xlink:title="For cases when events or practically anything is redefined. ">
<polygon fill="white" stroke="black" points="627.5,-6 627.5,-63 749.5,-63 749.5,-6 627.5,-6"/>
<text text-anchor="middle" x="688.5" y="-51" font-family="Helvetica,sans-Serif" font-size="10.00">scram::RedefinitionError</text>
<polyline fill="none" stroke="black" points="627.5,-44 749.5,-44 "/>
<text text-anchor="middle" x="688.5" y="-32" font-family="Helvetica,sans-Serif" font-size="10.00"> </text>
<polyline fill="none" stroke="black" points="627.5,-25 749.5,-25 "/>
<text text-anchor="middle" x="688.5" y="-13" font-family="Helvetica,sans-Serif" font-size="10.00"> </text>
</a>
</g>
</g>
<!-- Node7&#45;&gt;Node10 -->
<g id="edge9" class="edge"><title>Node7&#45;&gt;Node10</title>
<path fill="none" stroke="midnightblue" d="M592.512,-99.6018C610.334,-87.6997 630.193,-74.4379 647.202,-63.0791"/>
<polygon fill="none" stroke="midnightblue" points="590.32,-96.8569 583.947,-105.321 594.207,-102.678 590.32,-96.8569"/>
</g>
</g>
</svg>
