<?xml version="1.0" encoding="UTF-8" standalone="no"?>
<!DOCTYPE svg PUBLIC "-//W3C//DTD SVG 1.1//EN"
 "http://www.w3.org/Graphics/SVG/1.1/DTD/svg11.dtd">
<!-- Generated by graphviz version 2.38.0 (20140413.2041)
 -->
<!-- Title: scram::mef::Event::Event Pages: 1 -->
<svg width="279pt" height="88pt"
 viewBox="0.00 0.00 279.00 88.00" xmlns="http://www.w3.org/2000/svg" xmlns:xlink="http://www.w3.org/1999/xlink">
<g id="graph0" class="graph" transform="scale(1 1) rotate(0) translate(4 84)">
<title>scram::mef::Event::Event</title>
<polygon fill="white" stroke="none" points="-4,4 -4,-84 275,-84 275,4 -4,4"/>
<!-- Node1 -->
<g id="node1" class="node"><title>Node1</title>
<polygon fill="#bfbfbf" stroke="black" points="0,-24.5 0,-54.5 104,-54.5 104,-24.5 0,-24.5"/>
<text text-anchor="start" x="8" y="-42.5" font-family="Helvetica,sans-Serif" font-size="10.00">scram::mef::Event::</text>
<text text-anchor="middle" x="52" y="-31.5" font-family="Helvetica,sans-Serif" font-size="10.00">Event</text>
</g>
<!-- Node2 -->
<g id="node2" class="node"><title>Node2</title>
<g id="a_node2"><a xlink:href="classscram_1_1mef_1_1Event.xhtml#a966f53c51a08bdde26c131c7b8474b7f" target="_top" xlink:title="Abstract class. ">
<polygon fill="white" stroke="black" points="153.5,-49.5 153.5,-79.5 257.5,-79.5 257.5,-49.5 153.5,-49.5"/>
<text text-anchor="start" x="161.5" y="-67.5" font-family="Helvetica,sans-Serif" font-size="10.00">scram::mef::Event::</text>
<text text-anchor="middle" x="205.5" y="-56.5" font-family="Helvetica,sans-Serif" font-size="10.00">~Event</text>
</a>
</g>
</g>
<!-- Node1&#45;&gt;Node2 -->
<g id="edge1" class="edge"><title>Node1&#45;&gt;Node2</title>
<path fill="none" stroke="midnightblue" d="M104.291,-47.9639C116.754,-50.0205 130.207,-52.2404 143.086,-54.3657"/>
<polygon fill="midnightblue" stroke="midnightblue" points="142.825,-57.8699 153.262,-56.0449 143.965,-50.9633 142.825,-57.8699"/>
</g>
<!-- Node3 -->
<g id="node3" class="node"><title>Node3</title>
<g id="a_node3"><a xlink:href="classscram_1_1mef_1_1PrimaryEvent.xhtml#aa48af4d6ebf9b331b4d01ae15ef6c15a" target="_top" xlink:title="Abstract class. ">
<polygon fill="white" stroke="black" points="140,-0.5 140,-30.5 271,-30.5 271,-0.5 140,-0.5"/>
<text text-anchor="start" x="148" y="-18.5" font-family="Helvetica,sans-Serif" font-size="10.00">scram::mef::PrimaryEvent</text>
<text text-anchor="middle" x="205.5" y="-7.5" font-family="Helvetica,sans-Serif" font-size="10.00">::~PrimaryEvent</text>
</a>
</g>
</g>
<!-- Node1&#45;&gt;Node3 -->
<g id="edge2" class="edge"><title>Node1&#45;&gt;Node3</title>
<path fill="none" stroke="midnightblue" d="M104.291,-31.3747C112.497,-30.0747 121.132,-28.7068 129.75,-27.3416"/>
<polygon fill="midnightblue" stroke="midnightblue" points="130.502,-30.7661 139.832,-25.7445 129.407,-23.8523 130.502,-30.7661"/>
</g>
</g>
</svg>
