<?xml version="1.0" encoding="UTF-8" standalone="no"?>
<!DOCTYPE svg PUBLIC "-//W3C//DTD SVG 1.1//EN"
 "http://www.w3.org/Graphics/SVG/1.1/DTD/svg11.dtd">
<!-- Generated by graphviz version 2.38.0 (20140413.2041)
 -->
<!-- Title: scram::core::Preprocessor::RunPhaseTwo Pages: 1 -->
<svg width="1006pt" height="729pt"
 viewBox="0.00 0.00 1006.00 728.50" xmlns="http://www.w3.org/2000/svg" xmlns:xlink="http://www.w3.org/1999/xlink">
<g id="graph0" class="graph" transform="scale(1 1) rotate(0) translate(4 724.5)">
<title>scram::core::Preprocessor::RunPhaseTwo</title>
<polygon fill="white" stroke="none" points="-4,4 -4,-724.5 1002,-724.5 1002,4 -4,4"/>
<!-- Node1 -->
<g id="node1" class="node"><title>Node1</title>
<polygon fill="#bfbfbf" stroke="black" points="0,-239.5 0,-269.5 132,-269.5 132,-239.5 0,-239.5"/>
<text text-anchor="start" x="8" y="-257.5" font-family="Helvetica,sans-Serif" font-size="10.00">scram::core::Preprocessor</text>
<text text-anchor="middle" x="66" y="-246.5" font-family="Helvetica,sans-Serif" font-size="10.00">::RunPhaseTwo</text>
</g>
<!-- Node2 -->
<g id="node2" class="node"><title>Node2</title>
<g id="a_node2"><a xlink:href="classscram_1_1core_1_1Preprocessor.xhtml#aebc709ad2e097c24e837889a6a9e4696" target="_top" xlink:title="Propagates failures of common nodes to detect redundancy. ">
<polygon fill="white" stroke="black" points="173.5,-408.5 173.5,-438.5 305.5,-438.5 305.5,-408.5 173.5,-408.5"/>
<text text-anchor="start" x="181.5" y="-426.5" font-family="Helvetica,sans-Serif" font-size="10.00">scram::core::Preprocessor</text>
<text text-anchor="middle" x="239.5" y="-415.5" font-family="Helvetica,sans-Serif" font-size="10.00">::BooleanOptimization</text>
</a>
</g>
</g>
<!-- Node1&#45;&gt;Node2 -->
<g id="edge1" class="edge"><title>Node1&#45;&gt;Node2</title>
<path fill="none" stroke="midnightblue" d="M73.8152,-269.891C87.5013,-299.1 121.081,-362.835 168,-398.5 170.454,-400.365 173.059,-402.099 175.765,-403.711"/>
<polygon fill="midnightblue" stroke="midnightblue" points="174.222,-406.855 184.696,-408.45 177.504,-400.671 174.222,-406.855"/>
</g>
<!-- Node21 -->
<g id="node21" class="node"><title>Node21</title>
<g id="a_node21"><a xlink:href="classscram_1_1core_1_1Preprocessor.xhtml#a3f1b4becb281bc02b61e8f72595a0666" target="_top" xlink:title="Checks the root gate of the graph for further processing. ">
<polygon fill="white" stroke="black" points="173.5,-359.5 173.5,-389.5 305.5,-389.5 305.5,-359.5 173.5,-359.5"/>
<text text-anchor="start" x="181.5" y="-377.5" font-family="Helvetica,sans-Serif" font-size="10.00">scram::core::Preprocessor</text>
<text text-anchor="middle" x="239.5" y="-366.5" font-family="Helvetica,sans-Serif" font-size="10.00">::CheckRootGate</text>
</a>
</g>
</g>
<!-- Node1&#45;&gt;Node21 -->
<g id="edge22" class="edge"><title>Node1&#45;&gt;Node21</title>
<path fill="none" stroke="midnightblue" d="M79.5268,-269.717C97.2682,-290.39 131.626,-327.31 168,-349.5 171.335,-351.534 174.859,-353.436 178.482,-355.207"/>
<polygon fill="midnightblue" stroke="midnightblue" points="177.087,-358.417 187.641,-359.345 179.969,-352.038 177.087,-358.417"/>
</g>
<!-- Node22 -->
<g id="node22" class="node"><title>Node22</title>
<g id="a_node22"><a xlink:href="classscram_1_1core_1_1Preprocessor.xhtml#a00288bef180767d7c79e3c79a33ef2d8" target="_top" xlink:title="Runs gate coalescence on the whole Boolean graph. ">
<polygon fill="white" stroke="black" points="173.5,-310.5 173.5,-340.5 305.5,-340.5 305.5,-310.5 173.5,-310.5"/>
<text text-anchor="start" x="181.5" y="-328.5" font-family="Helvetica,sans-Serif" font-size="10.00">scram::core::Preprocessor</text>
<text text-anchor="middle" x="239.5" y="-317.5" font-family="Helvetica,sans-Serif" font-size="10.00">::CoalesceGates</text>
</a>
</g>
</g>
<!-- Node1&#45;&gt;Node22 -->
<g id="edge23" class="edge"><title>Node1&#45;&gt;Node22</title>
<path fill="none" stroke="midnightblue" d="M98.0882,-269.503C117.908,-278.857 144.241,-290.898 168,-300.5 173.399,-302.682 179.07,-304.867 184.752,-306.986"/>
<polygon fill="midnightblue" stroke="midnightblue" points="183.685,-310.323 194.278,-310.48 186.095,-303.751 183.685,-310.323"/>
</g>
<!-- Node23 -->
<g id="node23" class="node"><title>Node23</title>
<g id="a_node23"><a xlink:href="classscram_1_1core_1_1Preprocessor.xhtml#ae12f3096132d7f6e9daa779724255f7e" target="_top" xlink:title="The Shannon decomposition for common nodes in the Boolean graph. ">
<polygon fill="white" stroke="black" points="168,-261.5 168,-291.5 311,-291.5 311,-261.5 168,-261.5"/>
<text text-anchor="start" x="176" y="-279.5" font-family="Helvetica,sans-Serif" font-size="10.00">scram::core::Preprocessor</text>
<text text-anchor="middle" x="239.5" y="-268.5" font-family="Helvetica,sans-Serif" font-size="10.00">::DecomposeCommonNodes</text>
</a>
</g>
</g>
<!-- Node1&#45;&gt;Node23 -->
<g id="edge25" class="edge"><title>Node1&#45;&gt;Node23</title>
<path fill="none" stroke="midnightblue" d="M132.326,-262.88C140.695,-263.954 149.339,-265.062 157.914,-266.162"/>
<polygon fill="midnightblue" stroke="midnightblue" points="157.563,-269.646 167.927,-267.447 158.454,-262.703 157.563,-269.646"/>
</g>
<!-- Node25 -->
<g id="node25" class="node"><title>Node25</title>
<g id="a_node25"><a xlink:href="classscram_1_1core_1_1Preprocessor.xhtml#a4737f354474154b3cea9773c25616d27" target="_top" xlink:title="Detects and manipulates AND and OR gate distributivity for the whole graph. ">
<polygon fill="white" stroke="black" points="350.5,-212.5 350.5,-242.5 482.5,-242.5 482.5,-212.5 350.5,-212.5"/>
<text text-anchor="start" x="358.5" y="-230.5" font-family="Helvetica,sans-Serif" font-size="10.00">scram::core::Preprocessor</text>
<text text-anchor="middle" x="416.5" y="-219.5" font-family="Helvetica,sans-Serif" font-size="10.00">::DetectDistributivity</text>
</a>
</g>
</g>
<!-- Node1&#45;&gt;Node25 -->
<g id="edge28" class="edge"><title>Node1&#45;&gt;Node25</title>
<path fill="none" stroke="midnightblue" d="M132.141,-249.453C191.207,-244.877 278.259,-238.133 340.269,-233.329"/>
<polygon fill="midnightblue" stroke="midnightblue" points="340.683,-236.807 350.383,-232.545 340.142,-229.828 340.683,-236.807"/>
</g>
<!-- Node26 -->
<g id="node26" class="node"><title>Node26</title>
<g id="a_node26"><a xlink:href="classscram_1_1core_1_1Preprocessor.xhtml#aa9856913eee7b854abfbe8d8330566d3" target="_top" xlink:title="Traverses the Boolean graph to detect modules. ">
<polygon fill="white" stroke="black" points="173.5,-173.5 173.5,-203.5 305.5,-203.5 305.5,-173.5 173.5,-173.5"/>
<text text-anchor="start" x="181.5" y="-191.5" font-family="Helvetica,sans-Serif" font-size="10.00">scram::core::Preprocessor</text>
<text text-anchor="middle" x="239.5" y="-180.5" font-family="Helvetica,sans-Serif" font-size="10.00">::DetectModules</text>
</a>
</g>
</g>
<!-- Node1&#45;&gt;Node26 -->
<g id="edge30" class="edge"><title>Node1&#45;&gt;Node26</title>
<path fill="none" stroke="midnightblue" d="M106.346,-239.358C131.183,-229.8 163.453,-217.381 189.887,-207.208"/>
<polygon fill="midnightblue" stroke="midnightblue" points="191.262,-210.429 199.338,-203.571 188.748,-203.896 191.262,-210.429"/>
</g>
<!-- Node33 -->
<g id="node33" class="node"><title>Node33</title>
<g id="a_node33"><a xlink:href="classscram_1_1core_1_1Preprocessor.xhtml#ab97a52e27ad8bf7ed049ae1a764f8fba" target="_top" xlink:title="Identifies common arguments of gates, and merges the common arguments into new gates. ">
<polygon fill="white" stroke="black" points="173.5,-124.5 173.5,-154.5 305.5,-154.5 305.5,-124.5 173.5,-124.5"/>
<text text-anchor="start" x="181.5" y="-142.5" font-family="Helvetica,sans-Serif" font-size="10.00">scram::core::Preprocessor</text>
<text text-anchor="middle" x="239.5" y="-131.5" font-family="Helvetica,sans-Serif" font-size="10.00">::MergeCommonArgs</text>
</a>
</g>
</g>
<!-- Node1&#45;&gt;Node33 -->
<g id="edge39" class="edge"><title>Node1&#45;&gt;Node33</title>
<path fill="none" stroke="midnightblue" d="M80.237,-239.213C98.2608,-219.254 132.378,-184.407 168,-163.5 170.843,-161.831 173.82,-160.257 176.875,-158.774"/>
<polygon fill="midnightblue" stroke="midnightblue" points="178.516,-161.875 186.219,-154.601 175.661,-155.483 178.516,-161.875"/>
</g>
<!-- Node34 -->
<g id="node34" class="node"><title>Node34</title>
<g id="a_node34"><a xlink:href="classscram_1_1core_1_1Preprocessor.xhtml#ac0abd7f5b54f98643644110b160569bd" target="_top" xlink:title="Detects and replaces multiple definitions of gates. ">
<polygon fill="white" stroke="black" points="347,-163.5 347,-193.5 486,-193.5 486,-163.5 347,-163.5"/>
<text text-anchor="start" x="355" y="-181.5" font-family="Helvetica,sans-Serif" font-size="10.00">scram::core::Preprocessor</text>
<text text-anchor="middle" x="416.5" y="-170.5" font-family="Helvetica,sans-Serif" font-size="10.00">::ProcessMultipleDefinitions</text>
</a>
</g>
</g>
<!-- Node1&#45;&gt;Node34 -->
<g id="edge40" class="edge"><title>Node1&#45;&gt;Node34</title>
<path fill="none" stroke="midnightblue" d="M72.4257,-239.443C84.2825,-209.107 115.705,-141.256 168,-114.5 224.58,-85.5514 249.828,-97.2565 311,-114.5 326.569,-118.889 360.516,-140.647 385.513,-157.59"/>
<polygon fill="midnightblue" stroke="midnightblue" points="383.705,-160.594 393.937,-163.346 387.654,-154.814 383.705,-160.594"/>
</g>
<!-- Node3 -->
<g id="node3" class="node"><title>Node3</title>
<g id="a_node3"><a xlink:href="classscram_1_1core_1_1Preprocessor.xhtml#a394fb1b5b5f9ee31dc81ad8d64353ee3" target="_top" xlink:title="Traverses the graph to find nodes that have more than one parent. ">
<polygon fill="white" stroke="black" points="350.5,-553.5 350.5,-583.5 482.5,-583.5 482.5,-553.5 350.5,-553.5"/>
<text text-anchor="start" x="358.5" y="-571.5" font-family="Helvetica,sans-Serif" font-size="10.00">scram::core::Preprocessor</text>
<text text-anchor="middle" x="416.5" y="-560.5" font-family="Helvetica,sans-Serif" font-size="10.00">::GatherCommonNodes</text>
</a>
</g>
</g>
<!-- Node2&#45;&gt;Node3 -->
<g id="edge2" class="edge"><title>Node2&#45;&gt;Node3</title>
<path fill="none" stroke="midnightblue" d="M258.897,-438.743C290.094,-464.592 353.467,-517.102 389.294,-546.787"/>
<polygon fill="midnightblue" stroke="midnightblue" points="387.416,-549.776 397.349,-553.461 391.882,-544.385 387.416,-549.776"/>
</g>
<!-- Node6 -->
<g id="node6" class="node"><title>Node6</title>
<g id="a_node6"><a xlink:href="classscram_1_1core_1_1Preprocessor.xhtml#a4086c57695d49b4770915d5d53bd47de" target="_top" xlink:title="Tries to simplify the graph by removing redundancies generated by a common node. ">
<polygon fill="white" stroke="black" points="350.5,-406.5 350.5,-436.5 482.5,-436.5 482.5,-406.5 350.5,-406.5"/>
<text text-anchor="start" x="358.5" y="-424.5" font-family="Helvetica,sans-Serif" font-size="10.00">scram::core::Preprocessor</text>
<text text-anchor="middle" x="416.5" y="-413.5" font-family="Helvetica,sans-Serif" font-size="10.00">::ProcessCommonNode</text>
</a>
</g>
</g>
<!-- Node2&#45;&gt;Node6 -->
<g id="edge5" class="edge"><title>Node2&#45;&gt;Node6</title>
<path fill="none" stroke="midnightblue" d="M305.664,-422.755C316.938,-422.626 328.742,-422.492 340.257,-422.36"/>
<polygon fill="midnightblue" stroke="midnightblue" points="340.323,-425.859 350.282,-422.245 340.243,-418.86 340.323,-425.859"/>
</g>
<!-- Node4 -->
<g id="node4" class="node"><title>Node4</title>
<g id="a_node4"><a xlink:href="classscram_1_1core_1_1Gate.xhtml#aa793eeaa12244c5b39a0d80e5b1518ae" target="_top" xlink:title="scram::core::Gate::args">
<polygon fill="white" stroke="black" points="532,-701 532,-720 652,-720 652,-701 532,-701"/>
<text text-anchor="middle" x="592" y="-708" font-family="Helvetica,sans-Serif" font-size="10.00">scram::core::Gate::args</text>
</a>
</g>
</g>
<!-- Node3&#45;&gt;Node4 -->
<g id="edge3" class="edge"><title>Node3&#45;&gt;Node4</title>
<path fill="none" stroke="midnightblue" d="M426.051,-583.515C441.668,-609.554 477.346,-663.028 522,-691.5 525.323,-693.619 528.882,-695.504 532.567,-697.182"/>
<polygon fill="midnightblue" stroke="midnightblue" points="531.341,-700.461 541.925,-700.937 533.948,-693.965 531.341,-700.461"/>
</g>
<!-- Node5 -->
<g id="node5" class="node"><title>Node5</title>
<g id="a_node5"><a xlink:href="classscram_1_1core_1_1Node.xhtml#a54799feee1f1e91f848d11f3918e3e88" target="_top" xlink:title="Registers the visit time for this node upon graph traversal. ">
<polygon fill="white" stroke="black" points="540,-651.5 540,-681.5 644,-681.5 644,-651.5 540,-651.5"/>
<text text-anchor="start" x="548" y="-669.5" font-family="Helvetica,sans-Serif" font-size="10.00">scram::core::Node::</text>
<text text-anchor="middle" x="592" y="-658.5" font-family="Helvetica,sans-Serif" font-size="10.00">Visit</text>
</a>
</g>
</g>
<!-- Node3&#45;&gt;Node5 -->
<g id="edge4" class="edge"><title>Node3&#45;&gt;Node5</title>
<path fill="none" stroke="midnightblue" d="M435.363,-583.539C455.403,-599.822 489.388,-625.71 522,-642.5 525.453,-644.278 529.068,-645.974 532.756,-647.582"/>
<polygon fill="midnightblue" stroke="midnightblue" points="531.444,-650.827 542.023,-651.396 534.108,-644.354 531.444,-650.827"/>
</g>
<!-- Node7 -->
<g id="node7" class="node"><title>Node7</title>
<g id="a_node7"><a xlink:href="classscram_1_1core_1_1Preprocessor.xhtml#a3b83bc14261cee28f0e1553222b7d5e5" target="_top" xlink:title="Marks ancestor gates true. ">
<polygon fill="white" stroke="black" points="526,-602.5 526,-632.5 658,-632.5 658,-602.5 526,-602.5"/>
<text text-anchor="start" x="534" y="-620.5" font-family="Helvetica,sans-Serif" font-size="10.00">scram::core::Preprocessor</text>
<text text-anchor="middle" x="592" y="-609.5" font-family="Helvetica,sans-Serif" font-size="10.00">::MarkAncestors</text>
</a>
</g>
</g>
<!-- Node6&#45;&gt;Node7 -->
<g id="edge6" class="edge"><title>Node6&#45;&gt;Node7</title>
<path fill="none" stroke="midnightblue" d="M425.974,-436.743C448.292,-476.691 507.938,-582.133 522,-593.5 523.591,-594.786 525.254,-596.005 526.976,-597.16"/>
<polygon fill="midnightblue" stroke="midnightblue" points="525.594,-600.406 535.995,-602.424 529.123,-594.36 525.594,-600.406"/>
</g>
<!-- Node8 -->
<g id="node8" class="node"><title>Node8</title>
<g id="a_node8"><a xlink:href="classscram_1_1core_1_1Preprocessor.xhtml#ae9a8bac98061d7f82633486ed6a36861" target="_top" xlink:title="Propagates failure or success of a common node by setting its ancestors&#39; optimization values to 1 or ...">
<polygon fill="white" stroke="black" points="526,-553.5 526,-583.5 658,-583.5 658,-553.5 526,-553.5"/>
<text text-anchor="start" x="534" y="-571.5" font-family="Helvetica,sans-Serif" font-size="10.00">scram::core::Preprocessor</text>
<text text-anchor="middle" x="592" y="-560.5" font-family="Helvetica,sans-Serif" font-size="10.00">::PropagateState</text>
</a>
</g>
</g>
<!-- Node6&#45;&gt;Node8 -->
<g id="edge7" class="edge"><title>Node6&#45;&gt;Node8</title>
<path fill="none" stroke="midnightblue" d="M426.504,-436.623C442.555,-462.349 478.542,-514.728 522,-544.5 524.152,-545.974 526.403,-547.366 528.723,-548.68"/>
<polygon fill="midnightblue" stroke="midnightblue" points="527.455,-551.961 537.957,-553.366 530.624,-545.719 527.455,-551.961"/>
</g>
<!-- Node11 -->
<g id="node11" class="node"><title>Node11</title>
<g id="a_node11"><a xlink:href="classscram_1_1core_1_1Preprocessor.xhtml#a4539f18d3dde97514ca267b41d30d220" target="_top" xlink:title="Collects failure or success destinations and marks non&#45;redundant nodes. ">
<polygon fill="white" stroke="black" points="526,-504.5 526,-534.5 658,-534.5 658,-504.5 526,-504.5"/>
<text text-anchor="start" x="534" y="-522.5" font-family="Helvetica,sans-Serif" font-size="10.00">scram::core::Preprocessor</text>
<text text-anchor="middle" x="592" y="-511.5" font-family="Helvetica,sans-Serif" font-size="10.00">::CollectStateDestinations</text>
</a>
</g>
</g>
<!-- Node6&#45;&gt;Node11 -->
<g id="edge10" class="edge"><title>Node6&#45;&gt;Node11</title>
<path fill="none" stroke="midnightblue" d="M435.363,-436.539C455.403,-452.822 489.388,-478.71 522,-495.5 525.453,-497.278 529.068,-498.974 532.756,-500.582"/>
<polygon fill="midnightblue" stroke="midnightblue" points="531.444,-503.827 542.023,-504.396 534.108,-497.354 531.444,-503.827"/>
</g>
<!-- Node12 -->
<g id="node12" class="node"><title>Node12</title>
<g id="a_node12"><a xlink:href="classscram_1_1core_1_1Preprocessor.xhtml#ad79145fdd5487ef0537728f74e6a94e4" target="_top" xlink:title="Detects if parents of a node are redundant. ">
<polygon fill="white" stroke="black" points="525,-455.5 525,-485.5 659,-485.5 659,-455.5 525,-455.5"/>
<text text-anchor="start" x="533" y="-473.5" font-family="Helvetica,sans-Serif" font-size="10.00">scram::core::Preprocessor</text>
<text text-anchor="middle" x="592" y="-462.5" font-family="Helvetica,sans-Serif" font-size="10.00">::CollectRedundantParents</text>
</a>
</g>
</g>
<!-- Node6&#45;&gt;Node12 -->
<g id="edge11" class="edge"><title>Node6&#45;&gt;Node12</title>
<path fill="none" stroke="midnightblue" d="M470.971,-436.601C489.031,-441.702 509.359,-447.443 528.081,-452.73"/>
<polygon fill="midnightblue" stroke="midnightblue" points="527.13,-456.099 537.705,-455.448 529.033,-449.362 527.13,-456.099"/>
</g>
<!-- Node13 -->
<g id="node13" class="node"><title>Node13</title>
<g id="a_node13"><a xlink:href="classscram_1_1core_1_1Preprocessor.xhtml#a6edfe2a6d9836942944921a8de0c011e" target="_top" xlink:title="Detects if parents of a node are redundant. ">
<polygon fill="white" stroke="black" points="522,-406.5 522,-436.5 662,-436.5 662,-406.5 522,-406.5"/>
<text text-anchor="start" x="530" y="-424.5" font-family="Helvetica,sans-Serif" font-size="10.00">scram::core::Preprocessor</text>
<text text-anchor="middle" x="592" y="-413.5" font-family="Helvetica,sans-Serif" font-size="10.00">::ProcessRedundantParents</text>
</a>
</g>
</g>
<!-- Node6&#45;&gt;Node13 -->
<g id="edge12" class="edge"><title>Node6&#45;&gt;Node13</title>
<path fill="none" stroke="midnightblue" d="M482.599,-421.5C492.09,-421.5 501.951,-421.5 511.686,-421.5"/>
<polygon fill="midnightblue" stroke="midnightblue" points="511.765,-425 521.765,-421.5 511.765,-418 511.765,-425"/>
</g>
<!-- Node14 -->
<g id="node14" class="node"><title>Node14</title>
<g id="a_node14"><a xlink:href="classscram_1_1core_1_1Preprocessor.xhtml#aa42b66bb888f665bc68324cca15452ad" target="_top" xlink:title="Transforms failure or success destination according to the logic and the common node. ">
<polygon fill="white" stroke="black" points="523.5,-357.5 523.5,-387.5 660.5,-387.5 660.5,-357.5 523.5,-357.5"/>
<text text-anchor="start" x="531.5" y="-375.5" font-family="Helvetica,sans-Serif" font-size="10.00">scram::core::Preprocessor</text>
<text text-anchor="middle" x="592" y="-364.5" font-family="Helvetica,sans-Serif" font-size="10.00">::ProcessStateDestinations</text>
</a>
</g>
</g>
<!-- Node6&#45;&gt;Node14 -->
<g id="edge13" class="edge"><title>Node6&#45;&gt;Node14</title>
<path fill="none" stroke="midnightblue" d="M470.971,-406.399C489.031,-401.298 509.359,-395.557 528.081,-390.27"/>
<polygon fill="midnightblue" stroke="midnightblue" points="529.033,-393.638 537.705,-387.552 527.13,-386.901 529.033,-393.638"/>
</g>
<!-- Node16 -->
<g id="node16" class="node"><title>Node16</title>
<g id="a_node16"><a xlink:href="classscram_1_1core_1_1Preprocessor.xhtml#a5eb477e9ecd0552b2b554d7df56df652" target="_top" xlink:title="Clears all the ancestor marks used in Boolean optimization steps. ">
<polygon fill="white" stroke="black" points="526,-308.5 526,-338.5 658,-338.5 658,-308.5 526,-308.5"/>
<text text-anchor="start" x="534" y="-326.5" font-family="Helvetica,sans-Serif" font-size="10.00">scram::core::Preprocessor</text>
<text text-anchor="middle" x="592" y="-315.5" font-family="Helvetica,sans-Serif" font-size="10.00">::ClearStateMarks</text>
</a>
</g>
</g>
<!-- Node6&#45;&gt;Node16 -->
<g id="edge15" class="edge"><title>Node6&#45;&gt;Node16</title>
<path fill="none" stroke="midnightblue" d="M435.363,-406.461C455.403,-390.178 489.388,-364.29 522,-347.5 525.453,-345.722 529.068,-344.026 532.756,-342.418"/>
<polygon fill="midnightblue" stroke="midnightblue" points="534.108,-345.646 542.023,-338.604 531.444,-339.173 534.108,-345.646"/>
</g>
<!-- Node17 -->
<g id="node17" class="node"><title>Node17</title>
<g id="a_node17"><a xlink:href="classscram_1_1core_1_1Preprocessor.xhtml#ac3279b95fc83a2ae909c011de083d57e" target="_top" xlink:title="Clears all constant gates registered for removal by algorithms or other preprocessing functions...">
<polygon fill="white" stroke="black" points="526,-259.5 526,-289.5 658,-289.5 658,-259.5 526,-259.5"/>
<text text-anchor="start" x="534" y="-277.5" font-family="Helvetica,sans-Serif" font-size="10.00">scram::core::Preprocessor</text>
<text text-anchor="middle" x="592" y="-266.5" font-family="Helvetica,sans-Serif" font-size="10.00">::ClearConstGates</text>
</a>
</g>
</g>
<!-- Node6&#45;&gt;Node17 -->
<g id="edge16" class="edge"><title>Node6&#45;&gt;Node17</title>
<path fill="none" stroke="midnightblue" d="M429.779,-406.154C454.87,-374.933 510.615,-306.299 522,-298.5 524.152,-297.026 526.403,-295.634 528.723,-294.32"/>
<polygon fill="midnightblue" stroke="midnightblue" points="530.624,-297.281 537.957,-289.634 527.455,-291.039 530.624,-297.281"/>
</g>
<!-- Node20 -->
<g id="node20" class="node"><title>Node20</title>
<g id="a_node20"><a xlink:href="classscram_1_1core_1_1Preprocessor.xhtml#ae483f228040c0d2422792c9cf0d05886" target="_top" xlink:title="Clears all NULL type gates registered for removal by algorithms or other preprocessing functions...">
<polygon fill="white" stroke="black" points="526,-210.5 526,-240.5 658,-240.5 658,-210.5 526,-210.5"/>
<text text-anchor="start" x="534" y="-228.5" font-family="Helvetica,sans-Serif" font-size="10.00">scram::core::Preprocessor</text>
<text text-anchor="middle" x="592" y="-217.5" font-family="Helvetica,sans-Serif" font-size="10.00">::ClearNullGates</text>
</a>
</g>
</g>
<!-- Node6&#45;&gt;Node20 -->
<g id="edge20" class="edge"><title>Node6&#45;&gt;Node20</title>
<path fill="none" stroke="midnightblue" d="M425.974,-406.257C448.292,-366.309 507.938,-260.867 522,-249.5 523.591,-248.214 525.254,-246.995 526.976,-245.84"/>
<polygon fill="midnightblue" stroke="midnightblue" points="529.123,-248.64 535.995,-240.576 525.594,-242.594 529.123,-248.64"/>
</g>
<!-- Node9 -->
<g id="node9" class="node"><title>Node9</title>
<g id="a_node9"><a xlink:href="classscram_1_1core_1_1Node.xhtml#a90ef93c4b0667215d2a8c3a3eb4f3822" target="_top" xlink:title="scram::core::Node::\lopti_value">
<polygon fill="white" stroke="black" points="712,-577.5 712,-607.5 816,-607.5 816,-577.5 712,-577.5"/>
<text text-anchor="start" x="720" y="-595.5" font-family="Helvetica,sans-Serif" font-size="10.00">scram::core::Node::</text>
<text text-anchor="middle" x="764" y="-584.5" font-family="Helvetica,sans-Serif" font-size="10.00">opti_value</text>
</a>
</g>
</g>
<!-- Node8&#45;&gt;Node9 -->
<g id="edge8" class="edge"><title>Node8&#45;&gt;Node9</title>
<path fill="none" stroke="midnightblue" d="M658.24,-577.71C672.556,-579.731 687.664,-581.864 701.813,-583.862"/>
<polygon fill="midnightblue" stroke="midnightblue" points="701.531,-587.357 711.922,-585.289 702.51,-580.425 701.531,-587.357"/>
</g>
<!-- Node10 -->
<g id="node10" class="node"><title>Node10</title>
<g id="a_node10"><a xlink:href="classscram_1_1core_1_1Preprocessor.xhtml#a019e679ad9077caac8c48253d42647ff" target="_top" xlink:title="Determines if a gate fails or succeeds due to failed/succeeded arguments. ">
<polygon fill="white" stroke="black" points="698,-528.5 698,-558.5 830,-558.5 830,-528.5 698,-528.5"/>
<text text-anchor="start" x="706" y="-546.5" font-family="Helvetica,sans-Serif" font-size="10.00">scram::core::Preprocessor</text>
<text text-anchor="middle" x="764" y="-535.5" font-family="Helvetica,sans-Serif" font-size="10.00">::DetermineGateState</text>
</a>
</g>
</g>
<!-- Node8&#45;&gt;Node10 -->
<g id="edge9" class="edge"><title>Node8&#45;&gt;Node10</title>
<path fill="none" stroke="midnightblue" d="M658.24,-558.906C667.9,-557.485 677.92,-556.012 687.763,-554.564"/>
<polygon fill="midnightblue" stroke="midnightblue" points="688.55,-557.986 697.934,-553.068 687.531,-551.061 688.55,-557.986"/>
</g>
<!-- Node15 -->
<g id="node15" class="node"><title>Node15</title>
<g id="a_node15"><a xlink:href="classscram_1_1core_1_1Preprocessor.xhtml#a26434bec1bc5a496f80c9cbad1ed3a62" target="_top" xlink:title="Replaces one gate in the graph with another. ">
<polygon fill="white" stroke="black" points="698,-333.5 698,-363.5 830,-363.5 830,-333.5 698,-333.5"/>
<text text-anchor="start" x="706" y="-351.5" font-family="Helvetica,sans-Serif" font-size="10.00">scram::core::Preprocessor</text>
<text text-anchor="middle" x="764" y="-340.5" font-family="Helvetica,sans-Serif" font-size="10.00">::ReplaceGate</text>
</a>
</g>
</g>
<!-- Node14&#45;&gt;Node15 -->
<g id="edge14" class="edge"><title>Node14&#45;&gt;Node15</title>
<path fill="none" stroke="midnightblue" d="M660.677,-362.946C669.557,-361.692 678.701,-360.401 687.698,-359.131"/>
<polygon fill="midnightblue" stroke="midnightblue" points="688.359,-362.572 697.771,-357.709 687.38,-355.641 688.359,-362.572"/>
</g>
<!-- Node18 -->
<g id="node18" class="node"><title>Node18</title>
<g id="a_node18"><a xlink:href="classscram_1_1core_1_1Preprocessor.xhtml#a4931fe17580d91b31d8c2077f64dc728" target="_top" xlink:title="Propagates a Boolean constant bottom&#45;up. ">
<polygon fill="white" stroke="black" points="698,-258.5 698,-288.5 830,-288.5 830,-258.5 698,-258.5"/>
<text text-anchor="start" x="706" y="-276.5" font-family="Helvetica,sans-Serif" font-size="10.00">scram::core::Preprocessor</text>
<text text-anchor="middle" x="764" y="-265.5" font-family="Helvetica,sans-Serif" font-size="10.00">::PropagateConstant</text>
</a>
</g>
</g>
<!-- Node17&#45;&gt;Node18 -->
<g id="edge17" class="edge"><title>Node17&#45;&gt;Node18</title>
<path fill="none" stroke="midnightblue" d="M658.24,-274.116C667.9,-274.059 677.92,-274 687.763,-273.943"/>
<polygon fill="midnightblue" stroke="midnightblue" points="687.955,-277.442 697.934,-273.883 687.914,-270.442 687.955,-277.442"/>
</g>
<!-- Node19 -->
<g id="node19" class="node"><title>Node19</title>
<g id="a_node19"><a xlink:href="classscram_1_1core_1_1Preprocessor.xhtml#a860e7142f3e0b33ca799f1d8218eb091" target="_top" xlink:title="Propagate NULL type gates bottom&#45;up. ">
<polygon fill="white" stroke="black" points="866,-258.5 866,-288.5 998,-288.5 998,-258.5 866,-258.5"/>
<text text-anchor="start" x="874" y="-276.5" font-family="Helvetica,sans-Serif" font-size="10.00">scram::core::Preprocessor</text>
<text text-anchor="middle" x="932" y="-265.5" font-family="Helvetica,sans-Serif" font-size="10.00">::PropagateNullGate</text>
</a>
</g>
</g>
<!-- Node18&#45;&gt;Node19 -->
<g id="edge18" class="edge"><title>Node18&#45;&gt;Node19</title>
<path fill="none" stroke="midnightblue" d="M830.131,-266.891C838.461,-266.758 847.044,-266.719 855.521,-266.775"/>
<polygon fill="midnightblue" stroke="midnightblue" points="855.746,-270.277 865.784,-266.89 855.824,-263.278 855.746,-270.277"/>
</g>
<!-- Node19&#45;&gt;Node18 -->
<g id="edge19" class="edge"><title>Node19&#45;&gt;Node18</title>
<path fill="none" stroke="midnightblue" d="M865.784,-280.11C857.452,-280.243 848.869,-280.281 840.393,-280.225"/>
<polygon fill="midnightblue" stroke="midnightblue" points="840.17,-276.722 830.131,-280.109 840.091,-283.722 840.17,-276.722"/>
</g>
<!-- Node20&#45;&gt;Node19 -->
<g id="edge21" class="edge"><title>Node20&#45;&gt;Node19</title>
<path fill="none" stroke="midnightblue" d="M658.222,-229.259C706.019,-232.636 772.345,-238.621 830,-248.5 841.893,-250.538 854.456,-253.214 866.529,-256.057"/>
<polygon fill="midnightblue" stroke="midnightblue" points="865.988,-259.527 876.53,-258.474 867.632,-252.723 865.988,-259.527"/>
</g>
<!-- Node22&#45;&gt;Node17 -->
<g id="edge24" class="edge"><title>Node22&#45;&gt;Node17</title>
<path fill="none" stroke="midnightblue" d="M305.712,-321.379C355.382,-317.632 425.325,-311.047 486,-300.5 499.196,-298.206 513.189,-295.172 526.51,-291.989"/>
<polygon fill="midnightblue" stroke="midnightblue" points="527.66,-295.311 536.542,-289.535 525.997,-288.512 527.66,-295.311"/>
</g>
<!-- Node23&#45;&gt;Node3 -->
<g id="edge26" class="edge"><title>Node23&#45;&gt;Node3</title>
<path fill="none" stroke="midnightblue" d="M300.239,-291.61C304.198,-294.13 307.854,-297.07 311,-300.5 356.173,-349.754 322.417,-384.353 347,-446.5 361.261,-482.552 384.367,-521.073 399.745,-544.97"/>
<polygon fill="midnightblue" stroke="midnightblue" points="396.832,-546.911 405.225,-553.377 402.696,-543.089 396.832,-546.911"/>
</g>
<!-- Node24 -->
<g id="node24" class="node"><title>Node24</title>
<g id="a_node24"><a xlink:href="classscram_1_1core_1_1Preprocessor.xhtml#ac83a0afe1f22761907f2a017abd96268" target="_top" xlink:title="Traverses the given gate and assigns time of visit to nodes. ">
<polygon fill="white" stroke="black" points="350.5,-261.5 350.5,-291.5 482.5,-291.5 482.5,-261.5 350.5,-261.5"/>
<text text-anchor="start" x="358.5" y="-279.5" font-family="Helvetica,sans-Serif" font-size="10.00">scram::core::Preprocessor</text>
<text text-anchor="middle" x="416.5" y="-268.5" font-family="Helvetica,sans-Serif" font-size="10.00">::AssignTiming</text>
</a>
</g>
</g>
<!-- Node23&#45;&gt;Node24 -->
<g id="edge27" class="edge"><title>Node23&#45;&gt;Node24</title>
<path fill="none" stroke="midnightblue" d="M311.175,-276.5C320.649,-276.5 330.397,-276.5 339.951,-276.5"/>
<polygon fill="midnightblue" stroke="midnightblue" points="340.22,-280 350.22,-276.5 340.22,-273 340.22,-280"/>
</g>
<!-- Node25&#45;&gt;Node20 -->
<g id="edge29" class="edge"><title>Node25&#45;&gt;Node20</title>
<path fill="none" stroke="midnightblue" d="M482.599,-226.75C493.421,-226.625 504.723,-226.495 515.771,-226.367"/>
<polygon fill="midnightblue" stroke="midnightblue" points="515.866,-229.866 525.825,-226.251 515.785,-222.867 515.866,-229.866"/>
</g>
<!-- Node26&#45;&gt;Node24 -->
<g id="edge31" class="edge"><title>Node26&#45;&gt;Node24</title>
<path fill="none" stroke="midnightblue" d="M263.097,-203.529C284.21,-217.165 316.903,-237.255 347,-251.5 351.532,-253.645 356.302,-255.725 361.127,-257.708"/>
<polygon fill="midnightblue" stroke="midnightblue" points="359.84,-260.963 370.426,-261.395 362.421,-254.456 359.84,-260.963"/>
</g>
<!-- Node27 -->
<g id="node27" class="node"><title>Node27</title>
<g id="a_node27"><a xlink:href="classscram_1_1core_1_1Preprocessor.xhtml#afbce0b5c45a445c3b70ae298b9518281" target="_top" xlink:title="Determines modules from original gates that have been already timed. ">
<polygon fill="white" stroke="black" points="350.5,-92.5 350.5,-122.5 482.5,-122.5 482.5,-92.5 350.5,-92.5"/>
<text text-anchor="start" x="358.5" y="-110.5" font-family="Helvetica,sans-Serif" font-size="10.00">scram::core::Preprocessor</text>
<text text-anchor="middle" x="416.5" y="-99.5" font-family="Helvetica,sans-Serif" font-size="10.00">::FindModules</text>
</a>
</g>
</g>
<!-- Node26&#45;&gt;Node27 -->
<g id="edge32" class="edge"><title>Node26&#45;&gt;Node27</title>
<path fill="none" stroke="midnightblue" d="M286.029,-173.495C294.421,-170.408 303.042,-167.019 311,-163.5 334.997,-152.888 361.007,-138.959 381.075,-127.648"/>
<polygon fill="midnightblue" stroke="midnightblue" points="382.887,-130.643 389.848,-122.656 379.426,-124.559 382.887,-130.643"/>
</g>
<!-- Node28 -->
<g id="node28" class="node"><title>Node28</title>
<g id="a_node28"><a xlink:href="classscram_1_1core_1_1Preprocessor.xhtml#a4e97ffcda9c98ffc5aff93214f827c18" target="_top" xlink:title="Processes gate arguments found during the module detection. ">
<polygon fill="white" stroke="black" points="526,-73.5 526,-103.5 658,-103.5 658,-73.5 526,-73.5"/>
<text text-anchor="start" x="534" y="-91.5" font-family="Helvetica,sans-Serif" font-size="10.00">scram::core::Preprocessor</text>
<text text-anchor="middle" x="592" y="-80.5" font-family="Helvetica,sans-Serif" font-size="10.00">::ProcessModularArgs</text>
</a>
</g>
</g>
<!-- Node27&#45;&gt;Node28 -->
<g id="edge33" class="edge"><title>Node27&#45;&gt;Node28</title>
<path fill="none" stroke="midnightblue" d="M482.599,-100.371C493.421,-99.1859 504.723,-97.9482 515.771,-96.7383"/>
<polygon fill="midnightblue" stroke="midnightblue" points="516.266,-100.205 525.825,-95.6373 515.504,-93.2468 516.266,-100.205"/>
</g>
<!-- Node29 -->
<g id="node29" class="node"><title>Node29</title>
<g id="a_node29"><a xlink:href="classscram_1_1core_1_1Preprocessor.xhtml#a434534b6a7c3fccc82c073e6aced90b1" target="_top" xlink:title="Creates a new module as an argument of an existing gate if the logic of the existing parent gate allo...">
<polygon fill="white" stroke="black" points="866,-71.5 866,-101.5 998,-101.5 998,-71.5 866,-71.5"/>
<text text-anchor="start" x="874" y="-89.5" font-family="Helvetica,sans-Serif" font-size="10.00">scram::core::Preprocessor</text>
<text text-anchor="middle" x="932" y="-78.5" font-family="Helvetica,sans-Serif" font-size="10.00">::CreateNewModule</text>
</a>
</g>
</g>
<!-- Node28&#45;&gt;Node29 -->
<g id="edge34" class="edge"><title>Node28&#45;&gt;Node29</title>
<path fill="none" stroke="midnightblue" d="M641.582,-103.515C648.563,-106.211 655.557,-109.22 662,-112.5 679.36,-121.337 679.411,-131.678 698,-137.5 753.985,-155.033 772.929,-151.092 830,-137.5 854.91,-131.568 880.639,-118.453 899.895,-107.009"/>
<polygon fill="midnightblue" stroke="midnightblue" points="901.82,-109.934 908.527,-101.733 898.17,-103.962 901.82,-109.934"/>
</g>
<!-- Node30 -->
<g id="node30" class="node"><title>Node30</title>
<g id="a_node30"><a xlink:href="classscram_1_1core_1_1Preprocessor.xhtml#aa65bdffb78291a0e41a34d34bf3fa198" target="_top" xlink:title="Checks if a group of modular arguments share anything with non&#45;modular arguments. ...">
<polygon fill="white" stroke="black" points="698,-98.5 698,-128.5 830,-128.5 830,-98.5 698,-98.5"/>
<text text-anchor="start" x="706" y="-116.5" font-family="Helvetica,sans-Serif" font-size="10.00">scram::core::Preprocessor</text>
<text text-anchor="middle" x="764" y="-105.5" font-family="Helvetica,sans-Serif" font-size="10.00">::FilterModularArgs</text>
</a>
</g>
</g>
<!-- Node28&#45;&gt;Node30 -->
<g id="edge35" class="edge"><title>Node28&#45;&gt;Node30</title>
<path fill="none" stroke="midnightblue" d="M658.24,-98.0942C667.9,-99.5147 677.92,-100.988 687.763,-102.436"/>
<polygon fill="midnightblue" stroke="midnightblue" points="687.531,-105.939 697.934,-103.932 688.55,-99.0137 687.531,-105.939"/>
</g>
<!-- Node31 -->
<g id="node31" class="node"><title>Node31</title>
<g id="a_node31"><a xlink:href="classscram_1_1core_1_1Preprocessor.xhtml#a5c10e807e558b06a1573c08ed13e205e" target="_top" xlink:title="Groups modular arguments by their common elements. ">
<polygon fill="white" stroke="black" points="698,-49.5 698,-79.5 830,-79.5 830,-49.5 698,-49.5"/>
<text text-anchor="start" x="706" y="-67.5" font-family="Helvetica,sans-Serif" font-size="10.00">scram::core::Preprocessor</text>
<text text-anchor="middle" x="764" y="-56.5" font-family="Helvetica,sans-Serif" font-size="10.00">::GroupModularArgs</text>
</a>
</g>
</g>
<!-- Node28&#45;&gt;Node31 -->
<g id="edge36" class="edge"><title>Node28&#45;&gt;Node31</title>
<path fill="none" stroke="midnightblue" d="M658.24,-79.2896C667.9,-77.9259 677.92,-76.5113 687.763,-75.1217"/>
<polygon fill="midnightblue" stroke="midnightblue" points="688.522,-78.5494 697.934,-73.6857 687.543,-71.6181 688.522,-78.5494"/>
</g>
<!-- Node32 -->
<g id="node32" class="node"><title>Node32</title>
<g id="a_node32"><a xlink:href="classscram_1_1core_1_1Preprocessor.xhtml#affe78b1e830afb73585affe0ada477be" target="_top" xlink:title="Creates new module gates from groups of modular arguments if the logic of the parent gate allows sub&#45;...">
<polygon fill="white" stroke="black" points="698,-0.5 698,-30.5 830,-30.5 830,-0.5 698,-0.5"/>
<text text-anchor="start" x="706" y="-18.5" font-family="Helvetica,sans-Serif" font-size="10.00">scram::core::Preprocessor</text>
<text text-anchor="middle" x="764" y="-7.5" font-family="Helvetica,sans-Serif" font-size="10.00">::CreateNewModules</text>
</a>
</g>
</g>
<!-- Node28&#45;&gt;Node32 -->
<g id="edge37" class="edge"><title>Node28&#45;&gt;Node32</title>
<path fill="none" stroke="midnightblue" d="M623.484,-73.4571C644.282,-63.3966 672.564,-50.1093 698,-39.5 702.172,-37.7598 706.52,-36.0134 710.902,-34.3"/>
<polygon fill="midnightblue" stroke="midnightblue" points="712.413,-37.4689 720.495,-30.6173 709.905,-30.9339 712.413,-37.4689"/>
</g>
<!-- Node32&#45;&gt;Node29 -->
<g id="edge38" class="edge"><title>Node32&#45;&gt;Node29</title>
<path fill="none" stroke="midnightblue" d="M807.503,-30.6238C815.039,-33.467 822.782,-36.4939 830,-39.5 850.373,-47.9847 872.651,-58.2436 891.088,-67.0093"/>
<polygon fill="midnightblue" stroke="midnightblue" points="889.817,-70.2813 900.349,-71.4397 892.838,-63.9667 889.817,-70.2813"/>
</g>
<!-- Node34&#45;&gt;Node15 -->
<g id="edge42" class="edge"><title>Node34&#45;&gt;Node15</title>
<path fill="none" stroke="midnightblue" d="M486.203,-166.322C539.491,-160.861 612.392,-162.586 662,-200.5 698.536,-228.423 670.892,-260.355 698,-297.5 706.423,-309.041 718.132,-319.322 729.294,-327.577"/>
<polygon fill="midnightblue" stroke="midnightblue" points="727.472,-330.575 737.661,-333.481 731.509,-324.855 727.472,-330.575"/>
</g>
<!-- Node34&#45;&gt;Node17 -->
<g id="edge43" class="edge"><title>Node34&#45;&gt;Node17</title>
<path fill="none" stroke="midnightblue" d="M470.684,-193.587C476.088,-196.145 481.306,-199.099 486,-202.5 507.306,-217.94 500.776,-233.948 522,-249.5 524.621,-251.42 527.404,-253.206 530.291,-254.865"/>
<polygon fill="midnightblue" stroke="midnightblue" points="528.716,-257.991 539.208,-259.47 531.928,-251.772 528.716,-257.991"/>
</g>
<!-- Node34&#45;&gt;Node20 -->
<g id="edge44" class="edge"><title>Node34&#45;&gt;Node20</title>
<path fill="none" stroke="midnightblue" d="M472.874,-193.5C489.62,-198.037 508.169,-203.061 525.51,-207.759"/>
<polygon fill="midnightblue" stroke="midnightblue" points="524.99,-211.244 535.557,-210.481 526.821,-204.488 524.99,-211.244"/>
</g>
<!-- Node35 -->
<g id="node35" class="node"><title>Node35</title>
<g id="a_node35"><a xlink:href="classscram_1_1core_1_1Preprocessor.xhtml#ae0bdf196274427420631bc20f95cb72a" target="_top" xlink:title="Traverses the Boolean graph to collect multiple definitions of gates. ">
<polygon fill="white" stroke="black" points="526,-122.5 526,-152.5 658,-152.5 658,-122.5 526,-122.5"/>
<text text-anchor="start" x="534" y="-140.5" font-family="Helvetica,sans-Serif" font-size="10.00">scram::core::Preprocessor</text>
<text text-anchor="middle" x="592" y="-129.5" font-family="Helvetica,sans-Serif" font-size="10.00">::DetectMultipleDefinitions</text>
</a>
</g>
</g>
<!-- Node34&#45;&gt;Node35 -->
<g id="edge41" class="edge"><title>Node34&#45;&gt;Node35</title>
<path fill="none" stroke="midnightblue" d="M481.12,-163.466C492.907,-160.681 505.308,-157.75 517.364,-154.901"/>
<polygon fill="midnightblue" stroke="midnightblue" points="518.461,-158.238 527.388,-152.532 516.851,-151.426 518.461,-158.238"/>
</g>
</g>
</svg>
