<?xml version="1.0" encoding="UTF-8" standalone="no"?>
<!DOCTYPE svg PUBLIC "-//W3C//DTD SVG 1.1//EN"
 "http://www.w3.org/Graphics/SVG/1.1/DTD/svg11.dtd">
<!-- Generated by graphviz version 2.38.0 (20140413.2041)
 -->
<!-- Title: scram::core::Preprocessor::ProcessMultipleDefinitions Pages: 1 -->
<svg width="1412pt" height="218pt"
 viewBox="0.00 0.00 1412.00 218.00" xmlns="http://www.w3.org/2000/svg" xmlns:xlink="http://www.w3.org/1999/xlink">
<g id="graph0" class="graph" transform="scale(1 1) rotate(0) translate(4 214)">
<title>scram::core::Preprocessor::ProcessMultipleDefinitions</title>
<polygon fill="white" stroke="none" points="-4,4 -4,-214 1408,-214 1408,4 -4,4"/>
<!-- Node1 -->
<g id="node1" class="node"><title>Node1</title>
<polygon fill="#bfbfbf" stroke="black" points="0,-66.5 0,-96.5 139,-96.5 139,-66.5 0,-66.5"/>
<text text-anchor="start" x="8" y="-84.5" font-family="Helvetica,sans-Serif" font-size="10.00">scram::core::Preprocessor</text>
<text text-anchor="middle" x="69.5" y="-73.5" font-family="Helvetica,sans-Serif" font-size="10.00">::ProcessMultipleDefinitions</text>
</g>
<!-- Node2 -->
<g id="node2" class="node"><title>Node2</title>
<g id="a_node2"><a xlink:href="classscram_1_1core_1_1Preprocessor.xhtml#a9d5f89471499508eb9e6c01ea43e0f15" target="_top" xlink:title="Preprocessing phase of the original structure of the graph. ">
<polygon fill="white" stroke="black" points="175,-66.5 175,-96.5 307,-96.5 307,-66.5 175,-66.5"/>
<text text-anchor="start" x="183" y="-84.5" font-family="Helvetica,sans-Serif" font-size="10.00">scram::core::Preprocessor</text>
<text text-anchor="middle" x="241" y="-73.5" font-family="Helvetica,sans-Serif" font-size="10.00">::RunPhaseTwo</text>
</a>
</g>
</g>
<!-- Node1&#45;&gt;Node2 -->
<g id="edge1" class="edge"><title>Node1&#45;&gt;Node2</title>
<path fill="none" stroke="midnightblue" d="M149.698,-81.5C158.155,-81.5 166.686,-81.5 174.952,-81.5"/>
<polygon fill="midnightblue" stroke="midnightblue" points="149.442,-78.0001 139.442,-81.5 149.442,-85.0001 149.442,-78.0001"/>
</g>
<!-- Node3 -->
<g id="node3" class="node"><title>Node3</title>
<g id="a_node3"><a xlink:href="classscram_1_1core_1_1Preprocessor.xhtml#a2b6705e815fa3d02119c405b483766d5" target="_top" xlink:title="Runs the default preprocessing that achieves the graph in a normal form. ">
<polygon fill="white" stroke="black" points="511,-101 511,-120 667,-120 667,-101 511,-101"/>
<text text-anchor="middle" x="589" y="-108" font-family="Helvetica,sans-Serif" font-size="10.00">scram::core::Preprocessor::Run</text>
</a>
</g>
</g>
<!-- Node2&#45;&gt;Node3 -->
<g id="edge2" class="edge"><title>Node2&#45;&gt;Node3</title>
<path fill="none" stroke="midnightblue" d="M275.964,-101.39C294.985,-111.375 319.537,-122.408 343,-127.5 414.043,-142.916 499.131,-130.257 548.042,-120.081"/>
<polygon fill="midnightblue" stroke="midnightblue" points="277.562,-98.2751 267.1,-96.6033 274.236,-104.434 277.562,-98.2751"/>
</g>
<!-- Node11 -->
<g id="node11" class="node"><title>Node11</title>
<g id="a_node11"><a xlink:href="classscram_1_1core_1_1Preprocessor.xhtml#a3569bbcd5e863c750cdfa69115399600" target="_top" xlink:title="The final phase that cleans up the graph, and puts the structure of the graph ready for analysis...">
<polygon fill="white" stroke="black" points="523,-44.5 523,-74.5 655,-74.5 655,-44.5 523,-44.5"/>
<text text-anchor="start" x="531" y="-62.5" font-family="Helvetica,sans-Serif" font-size="10.00">scram::core::Preprocessor</text>
<text text-anchor="middle" x="589" y="-51.5" font-family="Helvetica,sans-Serif" font-size="10.00">::RunPhaseFive</text>
</a>
</g>
</g>
<!-- Node2&#45;&gt;Node11 -->
<g id="edge10" class="edge"><title>Node2&#45;&gt;Node11</title>
<path fill="none" stroke="midnightblue" d="M317.097,-76.7251C378.493,-72.8213 464.413,-67.3581 522.918,-63.6381"/>
<polygon fill="midnightblue" stroke="midnightblue" points="316.838,-73.2344 307.08,-77.362 317.282,-80.2203 316.838,-73.2344"/>
</g>
<!-- Node12 -->
<g id="node12" class="node"><title>Node12</title>
<g id="a_node12"><a xlink:href="classscram_1_1core_1_1Preprocessor.xhtml#a5c224938dfba861f061525658bd7b156" target="_top" xlink:title="Propagation of complements. ">
<polygon fill="white" stroke="black" points="343,-0.5 343,-30.5 475,-30.5 475,-0.5 343,-0.5"/>
<text text-anchor="start" x="351" y="-18.5" font-family="Helvetica,sans-Serif" font-size="10.00">scram::core::Preprocessor</text>
<text text-anchor="middle" x="409" y="-7.5" font-family="Helvetica,sans-Serif" font-size="10.00">::RunPhaseFour</text>
</a>
</g>
</g>
<!-- Node2&#45;&gt;Node12 -->
<g id="edge12" class="edge"><title>Node2&#45;&gt;Node12</title>
<path fill="none" stroke="midnightblue" d="M289.58,-62.5827C315.131,-52.424 346.193,-40.0737 370.093,-30.5713"/>
<polygon fill="midnightblue" stroke="midnightblue" points="288.083,-59.4112 280.084,-66.3583 290.669,-65.916 288.083,-59.4112"/>
</g>
<!-- Node13 -->
<g id="node13" class="node"><title>Node13</title>
<g id="a_node13"><a xlink:href="classscram_1_1core_1_1Preprocessor.xhtml#abf2c66723172a85b2ae87ef2a034cd1f" target="_top" xlink:title="Application of gate normalization. ">
<polygon fill="white" stroke="black" points="343,-88.5 343,-118.5 475,-118.5 475,-88.5 343,-88.5"/>
<text text-anchor="start" x="351" y="-106.5" font-family="Helvetica,sans-Serif" font-size="10.00">scram::core::Preprocessor</text>
<text text-anchor="middle" x="409" y="-95.5" font-family="Helvetica,sans-Serif" font-size="10.00">::RunPhaseThree</text>
</a>
</g>
</g>
<!-- Node2&#45;&gt;Node13 -->
<g id="edge14" class="edge"><title>Node2&#45;&gt;Node13</title>
<path fill="none" stroke="midnightblue" d="M317.114,-91.4548C325.681,-92.5902 334.361,-93.7406 342.784,-94.8569"/>
<polygon fill="midnightblue" stroke="midnightblue" points="317.504,-87.9761 307.131,-90.1318 316.585,-94.9154 317.504,-87.9761"/>
</g>
<!-- Node4 -->
<g id="node4" class="node"><title>Node4</title>
<g id="a_node4"><a xlink:href="classscram_1_1core_1_1FaultTreeAnalyzer.xhtml#af6d3e735d4200c3efed0164c58aabf57" target="_top" xlink:title="Runs fault tree analysis with the given algorithm. ">
<polygon fill="white" stroke="black" points="709.5,-179.5 709.5,-209.5 863.5,-209.5 863.5,-179.5 709.5,-179.5"/>
<text text-anchor="start" x="717.5" y="-197.5" font-family="Helvetica,sans-Serif" font-size="10.00">scram::core::FaultTreeAnalyzer</text>
<text text-anchor="middle" x="786.5" y="-186.5" font-family="Helvetica,sans-Serif" font-size="10.00">::Analyze</text>
</a>
</g>
</g>
<!-- Node3&#45;&gt;Node4 -->
<g id="edge3" class="edge"><title>Node3&#45;&gt;Node4</title>
<path fill="none" stroke="midnightblue" d="M614.427,-125.358C636.851,-138.535 671.305,-157.634 703,-170.5 711.016,-173.754 719.635,-176.766 728.172,-179.477"/>
<polygon fill="midnightblue" stroke="midnightblue" points="615.981,-122.21 605.596,-120.108 612.404,-128.227 615.981,-122.21"/>
</g>
<!-- Node8 -->
<g id="node8" class="node"><title>Node8</title>
<g id="a_node8"><a xlink:href="classscram_1_1core_1_1ProbabilityAnalyzer_3_01Bdd_01_4.xhtml#a517506c181102100cc6a3e96710813c6" target="_top" xlink:title="Calculates the total probability with a different set of probability values than the one given upon c...">
<polygon fill="white" stroke="black" points="707,-120 707,-161 866,-161 866,-120 707,-120"/>
<text text-anchor="start" x="715" y="-149" font-family="Helvetica,sans-Serif" font-size="10.00">scram::core::Probability</text>
<text text-anchor="start" x="715" y="-138" font-family="Helvetica,sans-Serif" font-size="10.00">Analyzer&lt; Bdd &gt;::CalculateTotal</text>
<text text-anchor="middle" x="786.5" y="-127" font-family="Helvetica,sans-Serif" font-size="10.00">Probability</text>
</a>
</g>
</g>
<!-- Node3&#45;&gt;Node8 -->
<g id="edge7" class="edge"><title>Node3&#45;&gt;Node8</title>
<path fill="none" stroke="midnightblue" d="M662.039,-121.555C676.572,-123.785 691.921,-126.14 706.672,-128.404"/>
<polygon fill="midnightblue" stroke="midnightblue" points="662.541,-118.091 652.126,-120.033 661.479,-125.01 662.541,-118.091"/>
</g>
<!-- Node9 -->
<g id="node9" class="node"><title>Node9</title>
<g id="a_node9"><a xlink:href="classscram_1_1core_1_1CustomPreprocessor_3_01Bdd_01_4.xhtml#a8cf4307236cd521e39a2c6feb21f3214" target="_top" xlink:title="Performs preprocessing for analyses with Binary Decision Diagrams. ">
<polygon fill="white" stroke="black" points="703,-71.5 703,-101.5 870,-101.5 870,-71.5 703,-71.5"/>
<text text-anchor="start" x="711" y="-89.5" font-family="Helvetica,sans-Serif" font-size="10.00">scram::core::CustomPreprocessor</text>
<text text-anchor="middle" x="786.5" y="-78.5" font-family="Helvetica,sans-Serif" font-size="10.00">&lt; Bdd &gt;::Run</text>
</a>
</g>
</g>
<!-- Node3&#45;&gt;Node9 -->
<g id="edge8" class="edge"><title>Node3&#45;&gt;Node9</title>
<path fill="none" stroke="midnightblue" d="M677.44,-99.7657C685.836,-98.735 694.334,-97.6917 702.683,-96.6667"/>
<polygon fill="midnightblue" stroke="midnightblue" points="676.766,-96.3221 667.267,-101.015 677.619,-103.27 676.766,-96.3221"/>
</g>
<!-- Node10 -->
<g id="node10" class="node"><title>Node10</title>
<g id="a_node10"><a xlink:href="classscram_1_1core_1_1CustomPreprocessor_3_01Zbdd_01_4.xhtml#a5185075f852c647c7aa4313d23420ee5" target="_top" xlink:title="Performs preprocessing for analyses with Zero&#45;Suppressed Binary Decision Diagrams. ">
<polygon fill="white" stroke="black" points="703,-22.5 703,-52.5 870,-52.5 870,-22.5 703,-22.5"/>
<text text-anchor="start" x="711" y="-40.5" font-family="Helvetica,sans-Serif" font-size="10.00">scram::core::CustomPreprocessor</text>
<text text-anchor="middle" x="786.5" y="-29.5" font-family="Helvetica,sans-Serif" font-size="10.00">&lt; Zbdd &gt;::Run</text>
</a>
</g>
</g>
<!-- Node3&#45;&gt;Node10 -->
<g id="edge9" class="edge"><title>Node3&#45;&gt;Node10</title>
<path fill="none" stroke="midnightblue" d="M631.607,-97.7108C643.262,-93.6472 655.801,-88.8122 667,-83.5 683.942,-75.464 685.847,-69.0744 703,-61.5 710.505,-58.186 718.593,-55.1882 726.668,-52.5237"/>
<polygon fill="midnightblue" stroke="midnightblue" points="630.425,-94.4158 622.074,-100.936 632.668,-101.047 630.425,-94.4158"/>
</g>
<!-- Node5 -->
<g id="node5" class="node"><title>Node5</title>
<g id="a_node5"><a xlink:href="classscram_1_1core_1_1RiskAnalysis.xhtml#a7aed757ac5a7a96878c2706a7a9710bb" target="_top" xlink:title="Analyzes the model and performs computations specified in the settings. ">
<polygon fill="white" stroke="black" points="906,-179.5 906,-209.5 1038,-209.5 1038,-179.5 906,-179.5"/>
<text text-anchor="start" x="914" y="-197.5" font-family="Helvetica,sans-Serif" font-size="10.00">scram::core::RiskAnalysis</text>
<text text-anchor="middle" x="972" y="-186.5" font-family="Helvetica,sans-Serif" font-size="10.00">::Analyze</text>
</a>
</g>
</g>
<!-- Node4&#45;&gt;Node5 -->
<g id="edge4" class="edge"><title>Node4&#45;&gt;Node5</title>
<path fill="none" stroke="midnightblue" d="M873.954,-194.5C884.672,-194.5 895.486,-194.5 905.81,-194.5"/>
<polygon fill="midnightblue" stroke="midnightblue" points="873.726,-191 863.726,-194.5 873.726,-198 873.726,-191"/>
</g>
<!-- Node6 -->
<g id="node6" class="node"><title>Node6</title>
<g id="a_node6"><a xlink:href="classscram_1_1core_1_1RiskAnalysis.xhtml#a337f7e9fe02b1581e872590d6f7baa01" target="_top" xlink:title="scram::core::RiskAnalysis\l::model">
<polygon fill="white" stroke="black" points="1074,-179.5 1074,-209.5 1206,-209.5 1206,-179.5 1074,-179.5"/>
<text text-anchor="start" x="1082" y="-197.5" font-family="Helvetica,sans-Serif" font-size="10.00">scram::core::RiskAnalysis</text>
<text text-anchor="middle" x="1140" y="-186.5" font-family="Helvetica,sans-Serif" font-size="10.00">::model</text>
</a>
</g>
</g>
<!-- Node5&#45;&gt;Node6 -->
<g id="edge5" class="edge"><title>Node5&#45;&gt;Node6</title>
<path fill="none" stroke="midnightblue" d="M1048.39,-194.5C1056.87,-194.5 1065.45,-194.5 1073.78,-194.5"/>
<polygon fill="midnightblue" stroke="midnightblue" points="1048.13,-191 1038.13,-194.5 1048.13,-198 1048.13,-191"/>
</g>
<!-- Node7 -->
<g id="node7" class="node"><title>Node7</title>
<g id="a_node7"><a xlink:href="reporter_8cc.xhtml#ad6460094a94fb73e56c2a4a5efc598ed" target="_top" xlink:title="Describes all performed analyses deduced from settings. ">
<polygon fill="white" stroke="black" points="1242,-179.5 1242,-209.5 1404,-209.5 1404,-179.5 1242,-179.5"/>
<text text-anchor="start" x="1250" y="-197.5" font-family="Helvetica,sans-Serif" font-size="10.00">scram::ReportCalculatedQuantity</text>
<text text-anchor="middle" x="1323" y="-186.5" font-family="Helvetica,sans-Serif" font-size="10.00">&lt; core::RiskAnalysis &gt;</text>
</a>
</g>
</g>
<!-- Node6&#45;&gt;Node7 -->
<g id="edge6" class="edge"><title>Node6&#45;&gt;Node7</title>
<path fill="none" stroke="midnightblue" d="M1216.24,-194.5C1224.65,-194.5 1233.24,-194.5 1241.71,-194.5"/>
<polygon fill="midnightblue" stroke="midnightblue" points="1216.09,-191 1206.09,-194.5 1216.09,-198 1216.09,-191"/>
</g>
<!-- Node11&#45;&gt;Node10 -->
<g id="edge11" class="edge"><title>Node11&#45;&gt;Node10</title>
<path fill="none" stroke="midnightblue" d="M665.313,-51.0248C677.636,-49.6381 690.462,-48.1948 702.949,-46.7896"/>
<polygon fill="midnightblue" stroke="midnightblue" points="664.645,-47.5779 655.099,-52.1743 665.427,-54.534 664.645,-47.5779"/>
</g>
<!-- Node12&#45;&gt;Node10 -->
<g id="edge13" class="edge"><title>Node12&#45;&gt;Node10</title>
<path fill="none" stroke="midnightblue" d="M485.66,-19.9328C548.581,-23.6193 637.998,-28.8581 702.797,-32.6546"/>
<polygon fill="midnightblue" stroke="midnightblue" points="485.595,-16.4231 475.407,-19.3321 485.185,-23.4111 485.595,-16.4231"/>
</g>
<!-- Node13&#45;&gt;Node3 -->
<g id="edge15" class="edge"><title>Node13&#45;&gt;Node3</title>
<path fill="none" stroke="midnightblue" d="M485.221,-106.458C493.672,-106.79 502.292,-107.129 510.768,-107.463"/>
<polygon fill="midnightblue" stroke="midnightblue" points="485.148,-102.953 475.018,-106.057 484.872,-109.947 485.148,-102.953"/>
</g>
</g>
</svg>
