<?xml version="1.0" encoding="UTF-8" standalone="no"?>
<!DOCTYPE svg PUBLIC "-//W3C//DTD SVG 1.1//EN"
 "http://www.w3.org/Graphics/SVG/1.1/DTD/svg11.dtd">
<!-- Generated by graphviz version 2.38.0 (20140413.2041)
 -->
<!-- Title: scram::mef::MissionTime Pages: 1 -->
<svg width="169pt" height="535pt"
 viewBox="0.00 0.00 169.00 535.00" xmlns="http://www.w3.org/2000/svg" xmlns:xlink="http://www.w3.org/1999/xlink">
<g id="graph0" class="graph" transform="scale(1 1) rotate(0) translate(4 531)">
<title>scram::mef::MissionTime</title>
<polygon fill="white" stroke="none" points="-4,4 -4,-531 165,-531 165,4 -4,4"/>
<!-- Node1 -->
<g id="node1" class="node"><title>Node1</title>
<polygon fill="#bfbfbf" stroke="black" points="16.5,-0.5 16.5,-68.5 144.5,-68.5 144.5,-0.5 16.5,-0.5"/>
<text text-anchor="middle" x="80.5" y="-56.5" font-family="Helvetica,sans-Serif" font-size="10.00">scram::mef::MissionTime</text>
<polyline fill="none" stroke="black" points="16.5,-49.5 144.5,-49.5 "/>
<text text-anchor="middle" x="80.5" y="-37.5" font-family="Helvetica,sans-Serif" font-size="10.00"> </text>
<polyline fill="none" stroke="black" points="16.5,-30.5 144.5,-30.5 "/>
<text text-anchor="start" x="24.5" y="-18.5" font-family="Helvetica,sans-Serif" font-size="10.00">+ MissionTime()</text>
<text text-anchor="start" x="24.5" y="-7.5" font-family="Helvetica,sans-Serif" font-size="10.00">+ unit()</text>
</g>
<!-- Node2 -->
<g id="node2" class="node"><title>Node2</title>
<g id="a_node2"><a xlink:href="classscram_1_1mef_1_1ConstantExpression.xhtml" target="_top" xlink:title="Indicates a constant value. ">
<polygon fill="white" stroke="black" points="0,-105.5 0,-228.5 161,-228.5 161,-105.5 0,-105.5"/>
<text text-anchor="middle" x="80.5" y="-216.5" font-family="Helvetica,sans-Serif" font-size="10.00">scram::mef::ConstantExpression</text>
<polyline fill="none" stroke="black" points="0,-209.5 161,-209.5 "/>
<text text-anchor="start" x="8" y="-197.5" font-family="Helvetica,sans-Serif" font-size="10.00">+ kOne</text>
<text text-anchor="start" x="8" y="-186.5" font-family="Helvetica,sans-Serif" font-size="10.00">+ kZero</text>
<text text-anchor="start" x="8" y="-175.5" font-family="Helvetica,sans-Serif" font-size="10.00">+ kPi</text>
<polyline fill="none" stroke="black" points="0,-168.5 161,-168.5 "/>
<text text-anchor="start" x="8" y="-156.5" font-family="Helvetica,sans-Serif" font-size="10.00">+ ConstantExpression()</text>
<text text-anchor="start" x="8" y="-145.5" font-family="Helvetica,sans-Serif" font-size="10.00">+ ConstantExpression()</text>
<text text-anchor="start" x="8" y="-134.5" font-family="Helvetica,sans-Serif" font-size="10.00">+ ConstantExpression()</text>
<text text-anchor="start" x="8" y="-123.5" font-family="Helvetica,sans-Serif" font-size="10.00">+ Mean()</text>
<text text-anchor="start" x="8" y="-112.5" font-family="Helvetica,sans-Serif" font-size="10.00">+ IsConstant()</text>
</a>
</g>
</g>
<!-- Node2&#45;&gt;Node1 -->
<g id="edge1" class="edge"><title>Node2&#45;&gt;Node1</title>
<path fill="none" stroke="midnightblue" d="M80.5,-95.2438C80.5,-85.9655 80.5,-76.8368 80.5,-68.6152"/>
<polygon fill="none" stroke="midnightblue" points="77.0001,-95.3345 80.5,-105.335 84.0001,-95.3346 77.0001,-95.3345"/>
</g>
<!-- Node3 -->
<g id="node3" class="node"><title>Node3</title>
<g id="a_node3"><a xlink:href="classscram_1_1mef_1_1Expression.xhtml" target="_top" xlink:title="Abstract base class for all sorts of expressions to describe events. ">
<polygon fill="white" stroke="black" points="20,-265.5 20,-432.5 141,-432.5 141,-265.5 20,-265.5"/>
<text text-anchor="middle" x="80.5" y="-420.5" font-family="Helvetica,sans-Serif" font-size="10.00">scram::mef::Expression</text>
<polyline fill="none" stroke="black" points="20,-413.5 141,-413.5 "/>
<text text-anchor="middle" x="80.5" y="-401.5" font-family="Helvetica,sans-Serif" font-size="10.00"> </text>
<polyline fill="none" stroke="black" points="20,-394.5 141,-394.5 "/>
<text text-anchor="start" x="28" y="-382.5" font-family="Helvetica,sans-Serif" font-size="10.00">+ Expression()</text>
<text text-anchor="start" x="28" y="-371.5" font-family="Helvetica,sans-Serif" font-size="10.00">+ ~Expression()</text>
<text text-anchor="start" x="28" y="-360.5" font-family="Helvetica,sans-Serif" font-size="10.00">+ args()</text>
<text text-anchor="start" x="28" y="-349.5" font-family="Helvetica,sans-Serif" font-size="10.00">+ Validate()</text>
<text text-anchor="start" x="28" y="-338.5" font-family="Helvetica,sans-Serif" font-size="10.00">+ Mean()</text>
<text text-anchor="start" x="28" y="-327.5" font-family="Helvetica,sans-Serif" font-size="10.00">+ Sample()</text>
<text text-anchor="start" x="28" y="-316.5" font-family="Helvetica,sans-Serif" font-size="10.00">+ Reset()</text>
<text text-anchor="start" x="28" y="-305.5" font-family="Helvetica,sans-Serif" font-size="10.00">+ IsConstant()</text>
<text text-anchor="start" x="28" y="-294.5" font-family="Helvetica,sans-Serif" font-size="10.00">+ Max()</text>
<text text-anchor="start" x="28" y="-283.5" font-family="Helvetica,sans-Serif" font-size="10.00">+ Min()</text>
<text text-anchor="start" x="28" y="-272.5" font-family="Helvetica,sans-Serif" font-size="10.00"># AddArg()</text>
</a>
</g>
</g>
<!-- Node3&#45;&gt;Node2 -->
<g id="edge2" class="edge"><title>Node3&#45;&gt;Node2</title>
<path fill="none" stroke="midnightblue" d="M80.5,-255.194C80.5,-246.173 80.5,-237.189 80.5,-228.607"/>
<polygon fill="none" stroke="midnightblue" points="77.0001,-255.375 80.5,-265.375 84.0001,-255.375 77.0001,-255.375"/>
</g>
<!-- Node4 -->
<g id="node4" class="node"><title>Node4</title>
<polygon fill="white" stroke="#bfbfbf" points="45,-469.5 45,-526.5 116,-526.5 116,-469.5 45,-469.5"/>
<text text-anchor="middle" x="80.5" y="-514.5" font-family="Helvetica,sans-Serif" font-size="10.00">noncopyable</text>
<polyline fill="none" stroke="#bfbfbf" points="45,-507.5 116,-507.5 "/>
<text text-anchor="middle" x="80.5" y="-495.5" font-family="Helvetica,sans-Serif" font-size="10.00"> </text>
<polyline fill="none" stroke="#bfbfbf" points="45,-488.5 116,-488.5 "/>
<text text-anchor="middle" x="80.5" y="-476.5" font-family="Helvetica,sans-Serif" font-size="10.00"> </text>
</g>
<!-- Node4&#45;&gt;Node3 -->
<g id="edge3" class="edge"><title>Node4&#45;&gt;Node3</title>
<path fill="none" stroke="#8b1a1a" d="M80.5,-459.35C80.5,-451.08 80.5,-442.008 80.5,-432.738"/>
<polygon fill="none" stroke="#8b1a1a" points="77.0001,-459.35 80.5,-469.35 84.0001,-459.35 77.0001,-459.35"/>
</g>
</g>
</svg>
