<?xml version="1.0" encoding="UTF-8" standalone="no"?>
<!DOCTYPE svg PUBLIC "-//W3C//DTD SVG 1.1//EN"
 "http://www.w3.org/Graphics/SVG/1.1/DTD/svg11.dtd">
<!-- Generated by graphviz version 2.38.0 (20140413.2041)
 -->
<!-- Title: scram::core::Preprocessor::ClearConstGates Pages: 1 -->
<svg width="1748pt" height="218pt"
 viewBox="0.00 0.00 1748.00 218.00" xmlns="http://www.w3.org/2000/svg" xmlns:xlink="http://www.w3.org/1999/xlink">
<g id="graph0" class="graph" transform="scale(1 1) rotate(0) translate(4 214)">
<title>scram::core::Preprocessor::ClearConstGates</title>
<polygon fill="white" stroke="none" points="-4,4 -4,-214 1744,-214 1744,4 -4,4"/>
<!-- Node1 -->
<g id="node1" class="node"><title>Node1</title>
<polygon fill="#bfbfbf" stroke="black" points="0,-69.5 0,-99.5 132,-99.5 132,-69.5 0,-69.5"/>
<text text-anchor="start" x="8" y="-87.5" font-family="Helvetica,sans-Serif" font-size="10.00">scram::core::Preprocessor</text>
<text text-anchor="middle" x="66" y="-76.5" font-family="Helvetica,sans-Serif" font-size="10.00">::ClearConstGates</text>
</g>
<!-- Node2 -->
<g id="node2" class="node"><title>Node2</title>
<g id="a_node2"><a xlink:href="classscram_1_1core_1_1Preprocessor.xhtml#a00288bef180767d7c79e3c79a33ef2d8" target="_top" xlink:title="Runs gate coalescence on the whole Boolean graph. ">
<polygon fill="white" stroke="black" points="339.5,-39.5 339.5,-69.5 471.5,-69.5 471.5,-39.5 339.5,-39.5"/>
<text text-anchor="start" x="347.5" y="-57.5" font-family="Helvetica,sans-Serif" font-size="10.00">scram::core::Preprocessor</text>
<text text-anchor="middle" x="405.5" y="-46.5" font-family="Helvetica,sans-Serif" font-size="10.00">::CoalesceGates</text>
</a>
</g>
</g>
<!-- Node1&#45;&gt;Node2 -->
<g id="edge1" class="edge"><title>Node1&#45;&gt;Node2</title>
<path fill="none" stroke="midnightblue" d="M142.107,-77.8238C201.271,-72.5648 282.908,-65.3081 339.339,-60.2921"/>
<polygon fill="midnightblue" stroke="midnightblue" points="141.724,-74.344 132.073,-78.7157 142.344,-81.3165 141.724,-74.344"/>
</g>
<!-- Node16 -->
<g id="node16" class="node"><title>Node16</title>
<g id="a_node16"><a xlink:href="classscram_1_1core_1_1Preprocessor.xhtml#a651b32816243e37c58b7835220997ef2" target="_top" xlink:title="Merges common arguments for a specific group of gates. ">
<polygon fill="white" stroke="black" points="168,-6.5 168,-36.5 300,-36.5 300,-6.5 168,-6.5"/>
<text text-anchor="start" x="176" y="-24.5" font-family="Helvetica,sans-Serif" font-size="10.00">scram::core::Preprocessor</text>
<text text-anchor="middle" x="234" y="-13.5" font-family="Helvetica,sans-Serif" font-size="10.00">::MergeCommonArgs</text>
</a>
</g>
</g>
<!-- Node1&#45;&gt;Node16 -->
<g id="edge19" class="edge"><title>Node1&#45;&gt;Node16</title>
<path fill="none" stroke="midnightblue" d="M116.269,-65.8013C140.841,-56.4759 170.166,-45.3467 193.276,-36.576"/>
<polygon fill="midnightblue" stroke="midnightblue" points="114.869,-62.5894 106.761,-69.4099 117.352,-69.1339 114.869,-62.5894"/>
</g>
<!-- Node17 -->
<g id="node17" class="node"><title>Node17</title>
<g id="a_node17"><a xlink:href="classscram_1_1core_1_1Preprocessor.xhtml#a4086c57695d49b4770915d5d53bd47de" target="_top" xlink:title="Tries to simplify the graph by removing redundancies generated by a common node. ">
<polygon fill="white" stroke="black" points="168,-134.5 168,-164.5 300,-164.5 300,-134.5 168,-134.5"/>
<text text-anchor="start" x="176" y="-152.5" font-family="Helvetica,sans-Serif" font-size="10.00">scram::core::Preprocessor</text>
<text text-anchor="middle" x="234" y="-141.5" font-family="Helvetica,sans-Serif" font-size="10.00">::ProcessCommonNode</text>
</a>
</g>
</g>
<!-- Node1&#45;&gt;Node17 -->
<g id="edge20" class="edge"><title>Node1&#45;&gt;Node17</title>
<path fill="none" stroke="midnightblue" d="M114.893,-103.253C140.145,-113.141 170.711,-125.11 194.421,-134.394"/>
<polygon fill="midnightblue" stroke="midnightblue" points="116.089,-99.9628 105.501,-99.5757 113.536,-106.481 116.089,-99.9628"/>
</g>
<!-- Node19 -->
<g id="node19" class="node"><title>Node19</title>
<g id="a_node19"><a xlink:href="classscram_1_1core_1_1Preprocessor.xhtml#ac0abd7f5b54f98643644110b160569bd" target="_top" xlink:title="Detects and replaces multiple definitions of gates. ">
<polygon fill="white" stroke="black" points="336,-88.5 336,-118.5 475,-118.5 475,-88.5 336,-88.5"/>
<text text-anchor="start" x="344" y="-106.5" font-family="Helvetica,sans-Serif" font-size="10.00">scram::core::Preprocessor</text>
<text text-anchor="middle" x="405.5" y="-95.5" font-family="Helvetica,sans-Serif" font-size="10.00">::ProcessMultipleDefinitions</text>
</a>
</g>
</g>
<!-- Node1&#45;&gt;Node19 -->
<g id="edge23" class="edge"><title>Node1&#45;&gt;Node19</title>
<path fill="none" stroke="midnightblue" d="M142.269,-88.7373C200.214,-91.9994 279.643,-96.471 335.859,-99.6357"/>
<polygon fill="midnightblue" stroke="midnightblue" points="142.254,-85.2311 132.073,-88.1634 141.861,-92.22 142.254,-85.2311"/>
</g>
<!-- Node3 -->
<g id="node3" class="node"><title>Node3</title>
<g id="a_node3"><a xlink:href="classscram_1_1core_1_1Preprocessor.xhtml#a9d5f89471499508eb9e6c01ea43e0f15" target="_top" xlink:title="Preprocessing phase of the original structure of the graph. ">
<polygon fill="white" stroke="black" points="511,-88.5 511,-118.5 643,-118.5 643,-88.5 511,-88.5"/>
<text text-anchor="start" x="519" y="-106.5" font-family="Helvetica,sans-Serif" font-size="10.00">scram::core::Preprocessor</text>
<text text-anchor="middle" x="577" y="-95.5" font-family="Helvetica,sans-Serif" font-size="10.00">::RunPhaseTwo</text>
</a>
</g>
</g>
<!-- Node2&#45;&gt;Node3 -->
<g id="edge2" class="edge"><title>Node2&#45;&gt;Node3</title>
<path fill="none" stroke="midnightblue" d="M468.399,-72.3941C486.63,-77.6644 506.386,-83.3755 523.934,-88.4484"/>
<polygon fill="midnightblue" stroke="midnightblue" points="469.317,-69.0163 458.739,-69.6014 467.373,-75.741 469.317,-69.0163"/>
</g>
<!-- Node12 -->
<g id="node12" class="node"><title>Node12</title>
<g id="a_node12"><a xlink:href="classscram_1_1core_1_1Preprocessor.xhtml#a3569bbcd5e863c750cdfa69115399600" target="_top" xlink:title="The final phase that cleans up the graph, and puts the structure of the graph ready for analysis...">
<polygon fill="white" stroke="black" points="679,-0.5 679,-30.5 811,-30.5 811,-0.5 679,-0.5"/>
<text text-anchor="start" x="687" y="-18.5" font-family="Helvetica,sans-Serif" font-size="10.00">scram::core::Preprocessor</text>
<text text-anchor="middle" x="745" y="-7.5" font-family="Helvetica,sans-Serif" font-size="10.00">::RunPhaseFive</text>
</a>
</g>
</g>
<!-- Node2&#45;&gt;Node12 -->
<g id="edge17" class="edge"><title>Node2&#45;&gt;Node12</title>
<path fill="none" stroke="midnightblue" d="M474.304,-37.2571C486.459,-34.6448 499.056,-32.2443 511,-30.5 567.354,-22.2698 632.033,-18.5553 678.925,-16.8789"/>
<polygon fill="midnightblue" stroke="midnightblue" points="473.229,-33.9104 464.223,-39.4915 474.744,-40.7446 473.229,-33.9104"/>
</g>
<!-- Node15 -->
<g id="node15" class="node"><title>Node15</title>
<g id="a_node15"><a xlink:href="classscram_1_1core_1_1Preprocessor.xhtml#a3a0500bd52152df42fca486c97043140" target="_top" xlink:title="Coalesces positive argument gates with the same OR or AND logic as parents. ">
<polygon fill="white" stroke="black" points="511,-39.5 511,-69.5 643,-69.5 643,-39.5 511,-39.5"/>
<text text-anchor="start" x="519" y="-57.5" font-family="Helvetica,sans-Serif" font-size="10.00">scram::core::Preprocessor</text>
<text text-anchor="middle" x="577" y="-46.5" font-family="Helvetica,sans-Serif" font-size="10.00">::CoalesceGates</text>
</a>
</g>
</g>
<!-- Node2&#45;&gt;Node15 -->
<g id="edge18" class="edge"><title>Node2&#45;&gt;Node15</title>
<path fill="none" stroke="midnightblue" d="M481.619,-54.5C491.364,-54.5 501.281,-54.5 510.846,-54.5"/>
<polygon fill="midnightblue" stroke="midnightblue" points="481.548,-51.0001 471.548,-54.5 481.548,-58.0001 481.548,-51.0001"/>
</g>
<!-- Node4 -->
<g id="node4" class="node"><title>Node4</title>
<g id="a_node4"><a xlink:href="classscram_1_1core_1_1Preprocessor.xhtml#a2b6705e815fa3d02119c405b483766d5" target="_top" xlink:title="Runs the default preprocessing that achieves the graph in a normal form. ">
<polygon fill="white" stroke="black" points="847,-101 847,-120 1003,-120 1003,-101 847,-101"/>
<text text-anchor="middle" x="925" y="-108" font-family="Helvetica,sans-Serif" font-size="10.00">scram::core::Preprocessor::Run</text>
</a>
</g>
</g>
<!-- Node3&#45;&gt;Node4 -->
<g id="edge3" class="edge"><title>Node3&#45;&gt;Node4</title>
<path fill="none" stroke="midnightblue" d="M638.383,-120.974C651.652,-124.103 665.711,-126.88 679,-128.5 737.235,-135.6 752.516,-133.129 811,-128.5 832.091,-126.831 855.19,-123.435 874.977,-120.038"/>
<polygon fill="midnightblue" stroke="midnightblue" points="638.961,-117.512 628.415,-118.526 637.292,-124.31 638.961,-117.512"/>
</g>
<!-- Node3&#45;&gt;Node12 -->
<g id="edge11" class="edge"><title>Node3&#45;&gt;Node12</title>
<path fill="none" stroke="midnightblue" d="M634.957,-84.0466C637.728,-82.6126 640.425,-81.0973 643,-79.5 661.701,-67.8981 660.77,-57.8287 679,-45.5 687.236,-39.93 696.673,-34.9116 705.755,-30.6439"/>
<polygon fill="midnightblue" stroke="midnightblue" points="633.442,-80.8915 625.918,-88.3505 636.451,-87.2117 633.442,-80.8915"/>
</g>
<!-- Node13 -->
<g id="node13" class="node"><title>Node13</title>
<g id="a_node13"><a xlink:href="classscram_1_1core_1_1Preprocessor.xhtml#a5c224938dfba861f061525658bd7b156" target="_top" xlink:title="Propagation of complements. ">
<polygon fill="white" stroke="black" points="859,-44.5 859,-74.5 991,-74.5 991,-44.5 859,-44.5"/>
<text text-anchor="start" x="867" y="-62.5" font-family="Helvetica,sans-Serif" font-size="10.00">scram::core::Preprocessor</text>
<text text-anchor="middle" x="925" y="-51.5" font-family="Helvetica,sans-Serif" font-size="10.00">::RunPhaseFour</text>
</a>
</g>
</g>
<!-- Node3&#45;&gt;Node13 -->
<g id="edge13" class="edge"><title>Node3&#45;&gt;Node13</title>
<path fill="none" stroke="midnightblue" d="M644.52,-86.1837C655.961,-83.6393 667.78,-81.2805 679,-79.5 739.589,-69.8853 809.384,-64.7622 858.943,-62.118"/>
<polygon fill="midnightblue" stroke="midnightblue" points="643.553,-82.8143 634.586,-88.4575 645.115,-89.6378 643.553,-82.8143"/>
</g>
<!-- Node14 -->
<g id="node14" class="node"><title>Node14</title>
<g id="a_node14"><a xlink:href="classscram_1_1core_1_1Preprocessor.xhtml#abf2c66723172a85b2ae87ef2a034cd1f" target="_top" xlink:title="Application of gate normalization. ">
<polygon fill="white" stroke="black" points="679,-88.5 679,-118.5 811,-118.5 811,-88.5 679,-88.5"/>
<text text-anchor="start" x="687" y="-106.5" font-family="Helvetica,sans-Serif" font-size="10.00">scram::core::Preprocessor</text>
<text text-anchor="middle" x="745" y="-95.5" font-family="Helvetica,sans-Serif" font-size="10.00">::RunPhaseThree</text>
</a>
</g>
</g>
<!-- Node3&#45;&gt;Node14 -->
<g id="edge15" class="edge"><title>Node3&#45;&gt;Node14</title>
<path fill="none" stroke="midnightblue" d="M653.393,-103.5C661.869,-103.5 670.452,-103.5 678.784,-103.5"/>
<polygon fill="midnightblue" stroke="midnightblue" points="653.131,-100 643.131,-103.5 653.131,-107 653.131,-100"/>
</g>
<!-- Node5 -->
<g id="node5" class="node"><title>Node5</title>
<g id="a_node5"><a xlink:href="classscram_1_1core_1_1FaultTreeAnalyzer.xhtml#af6d3e735d4200c3efed0164c58aabf57" target="_top" xlink:title="Runs fault tree analysis with the given algorithm. ">
<polygon fill="white" stroke="black" points="1045.5,-179.5 1045.5,-209.5 1199.5,-209.5 1199.5,-179.5 1045.5,-179.5"/>
<text text-anchor="start" x="1053.5" y="-197.5" font-family="Helvetica,sans-Serif" font-size="10.00">scram::core::FaultTreeAnalyzer</text>
<text text-anchor="middle" x="1122.5" y="-186.5" font-family="Helvetica,sans-Serif" font-size="10.00">::Analyze</text>
</a>
</g>
</g>
<!-- Node4&#45;&gt;Node5 -->
<g id="edge4" class="edge"><title>Node4&#45;&gt;Node5</title>
<path fill="none" stroke="midnightblue" d="M950.427,-125.358C972.851,-138.535 1007.31,-157.634 1039,-170.5 1047.02,-173.754 1055.64,-176.766 1064.17,-179.477"/>
<polygon fill="midnightblue" stroke="midnightblue" points="951.981,-122.21 941.596,-120.108 948.404,-128.227 951.981,-122.21"/>
</g>
<!-- Node9 -->
<g id="node9" class="node"><title>Node9</title>
<g id="a_node9"><a xlink:href="classscram_1_1core_1_1ProbabilityAnalyzer_3_01Bdd_01_4.xhtml#a517506c181102100cc6a3e96710813c6" target="_top" xlink:title="Calculates the total probability with a different set of probability values than the one given upon c...">
<polygon fill="white" stroke="black" points="1043,-120 1043,-161 1202,-161 1202,-120 1043,-120"/>
<text text-anchor="start" x="1051" y="-149" font-family="Helvetica,sans-Serif" font-size="10.00">scram::core::Probability</text>
<text text-anchor="start" x="1051" y="-138" font-family="Helvetica,sans-Serif" font-size="10.00">Analyzer&lt; Bdd &gt;::CalculateTotal</text>
<text text-anchor="middle" x="1122.5" y="-127" font-family="Helvetica,sans-Serif" font-size="10.00">Probability</text>
</a>
</g>
</g>
<!-- Node4&#45;&gt;Node9 -->
<g id="edge8" class="edge"><title>Node4&#45;&gt;Node9</title>
<path fill="none" stroke="midnightblue" d="M998.039,-121.555C1012.57,-123.785 1027.92,-126.14 1042.67,-128.404"/>
<polygon fill="midnightblue" stroke="midnightblue" points="998.541,-118.091 988.126,-120.033 997.479,-125.01 998.541,-118.091"/>
</g>
<!-- Node10 -->
<g id="node10" class="node"><title>Node10</title>
<g id="a_node10"><a xlink:href="classscram_1_1core_1_1CustomPreprocessor_3_01Bdd_01_4.xhtml#a8cf4307236cd521e39a2c6feb21f3214" target="_top" xlink:title="Performs preprocessing for analyses with Binary Decision Diagrams. ">
<polygon fill="white" stroke="black" points="1039,-71.5 1039,-101.5 1206,-101.5 1206,-71.5 1039,-71.5"/>
<text text-anchor="start" x="1047" y="-89.5" font-family="Helvetica,sans-Serif" font-size="10.00">scram::core::CustomPreprocessor</text>
<text text-anchor="middle" x="1122.5" y="-78.5" font-family="Helvetica,sans-Serif" font-size="10.00">&lt; Bdd &gt;::Run</text>
</a>
</g>
</g>
<!-- Node4&#45;&gt;Node10 -->
<g id="edge9" class="edge"><title>Node4&#45;&gt;Node10</title>
<path fill="none" stroke="midnightblue" d="M1013.44,-99.7657C1021.84,-98.735 1030.33,-97.6917 1038.68,-96.6667"/>
<polygon fill="midnightblue" stroke="midnightblue" points="1012.77,-96.3221 1003.27,-101.015 1013.62,-103.27 1012.77,-96.3221"/>
</g>
<!-- Node11 -->
<g id="node11" class="node"><title>Node11</title>
<g id="a_node11"><a xlink:href="classscram_1_1core_1_1CustomPreprocessor_3_01Zbdd_01_4.xhtml#a5185075f852c647c7aa4313d23420ee5" target="_top" xlink:title="Performs preprocessing for analyses with Zero&#45;Suppressed Binary Decision Diagrams. ">
<polygon fill="white" stroke="black" points="1039,-22.5 1039,-52.5 1206,-52.5 1206,-22.5 1039,-22.5"/>
<text text-anchor="start" x="1047" y="-40.5" font-family="Helvetica,sans-Serif" font-size="10.00">scram::core::CustomPreprocessor</text>
<text text-anchor="middle" x="1122.5" y="-29.5" font-family="Helvetica,sans-Serif" font-size="10.00">&lt; Zbdd &gt;::Run</text>
</a>
</g>
</g>
<!-- Node4&#45;&gt;Node11 -->
<g id="edge10" class="edge"><title>Node4&#45;&gt;Node11</title>
<path fill="none" stroke="midnightblue" d="M969.216,-97.7914C980.415,-93.9905 992.322,-89.4891 1003,-84.5 1019.99,-76.5625 1021.89,-70.1698 1039,-62.5 1047.19,-58.827 1056.08,-55.5025 1064.88,-52.5648"/>
<polygon fill="midnightblue" stroke="midnightblue" points="968.017,-94.5014 959.607,-100.946 970.2,-101.152 968.017,-94.5014"/>
</g>
<!-- Node6 -->
<g id="node6" class="node"><title>Node6</title>
<g id="a_node6"><a xlink:href="classscram_1_1core_1_1RiskAnalysis.xhtml#a7aed757ac5a7a96878c2706a7a9710bb" target="_top" xlink:title="Analyzes the model and performs computations specified in the settings. ">
<polygon fill="white" stroke="black" points="1242,-179.5 1242,-209.5 1374,-209.5 1374,-179.5 1242,-179.5"/>
<text text-anchor="start" x="1250" y="-197.5" font-family="Helvetica,sans-Serif" font-size="10.00">scram::core::RiskAnalysis</text>
<text text-anchor="middle" x="1308" y="-186.5" font-family="Helvetica,sans-Serif" font-size="10.00">::Analyze</text>
</a>
</g>
</g>
<!-- Node5&#45;&gt;Node6 -->
<g id="edge5" class="edge"><title>Node5&#45;&gt;Node6</title>
<path fill="none" stroke="midnightblue" d="M1209.95,-194.5C1220.67,-194.5 1231.49,-194.5 1241.81,-194.5"/>
<polygon fill="midnightblue" stroke="midnightblue" points="1209.73,-191 1199.73,-194.5 1209.73,-198 1209.73,-191"/>
</g>
<!-- Node7 -->
<g id="node7" class="node"><title>Node7</title>
<g id="a_node7"><a xlink:href="classscram_1_1core_1_1RiskAnalysis.xhtml#a337f7e9fe02b1581e872590d6f7baa01" target="_top" xlink:title="scram::core::RiskAnalysis\l::model">
<polygon fill="white" stroke="black" points="1410,-179.5 1410,-209.5 1542,-209.5 1542,-179.5 1410,-179.5"/>
<text text-anchor="start" x="1418" y="-197.5" font-family="Helvetica,sans-Serif" font-size="10.00">scram::core::RiskAnalysis</text>
<text text-anchor="middle" x="1476" y="-186.5" font-family="Helvetica,sans-Serif" font-size="10.00">::model</text>
</a>
</g>
</g>
<!-- Node6&#45;&gt;Node7 -->
<g id="edge6" class="edge"><title>Node6&#45;&gt;Node7</title>
<path fill="none" stroke="midnightblue" d="M1384.39,-194.5C1392.87,-194.5 1401.45,-194.5 1409.78,-194.5"/>
<polygon fill="midnightblue" stroke="midnightblue" points="1384.13,-191 1374.13,-194.5 1384.13,-198 1384.13,-191"/>
</g>
<!-- Node8 -->
<g id="node8" class="node"><title>Node8</title>
<g id="a_node8"><a xlink:href="reporter_8cc.xhtml#ad6460094a94fb73e56c2a4a5efc598ed" target="_top" xlink:title="Describes all performed analyses deduced from settings. ">
<polygon fill="white" stroke="black" points="1578,-179.5 1578,-209.5 1740,-209.5 1740,-179.5 1578,-179.5"/>
<text text-anchor="start" x="1586" y="-197.5" font-family="Helvetica,sans-Serif" font-size="10.00">scram::ReportCalculatedQuantity</text>
<text text-anchor="middle" x="1659" y="-186.5" font-family="Helvetica,sans-Serif" font-size="10.00">&lt; core::RiskAnalysis &gt;</text>
</a>
</g>
</g>
<!-- Node7&#45;&gt;Node8 -->
<g id="edge7" class="edge"><title>Node7&#45;&gt;Node8</title>
<path fill="none" stroke="midnightblue" d="M1552.24,-194.5C1560.65,-194.5 1569.24,-194.5 1577.71,-194.5"/>
<polygon fill="midnightblue" stroke="midnightblue" points="1552.09,-191 1542.09,-194.5 1552.09,-198 1552.09,-191"/>
</g>
<!-- Node12&#45;&gt;Node11 -->
<g id="edge12" class="edge"><title>Node12&#45;&gt;Node11</title>
<path fill="none" stroke="midnightblue" d="M821.66,-19.9328C884.581,-23.6193 973.998,-28.8581 1038.8,-32.6546"/>
<polygon fill="midnightblue" stroke="midnightblue" points="821.595,-16.4231 811.407,-19.3321 821.185,-23.4111 821.595,-16.4231"/>
</g>
<!-- Node13&#45;&gt;Node11 -->
<g id="edge14" class="edge"><title>Node13&#45;&gt;Node11</title>
<path fill="none" stroke="midnightblue" d="M1001.31,-51.0248C1013.64,-49.6381 1026.46,-48.1948 1038.95,-46.7896"/>
<polygon fill="midnightblue" stroke="midnightblue" points="1000.64,-47.5779 991.099,-52.1743 1001.43,-54.534 1000.64,-47.5779"/>
</g>
<!-- Node14&#45;&gt;Node4 -->
<g id="edge16" class="edge"><title>Node14&#45;&gt;Node4</title>
<path fill="none" stroke="midnightblue" d="M821.221,-106.458C829.672,-106.79 838.292,-107.129 846.768,-107.463"/>
<polygon fill="midnightblue" stroke="midnightblue" points="821.148,-102.953 811.018,-106.057 820.872,-109.947 821.148,-102.953"/>
</g>
<!-- Node18 -->
<g id="node18" class="node"><title>Node18</title>
<g id="a_node18"><a xlink:href="classscram_1_1core_1_1Preprocessor.xhtml#aebc709ad2e097c24e837889a6a9e4696" target="_top" xlink:title="Propagates failures of common nodes to detect redundancy. ">
<polygon fill="white" stroke="black" points="339.5,-137.5 339.5,-167.5 471.5,-167.5 471.5,-137.5 339.5,-137.5"/>
<text text-anchor="start" x="347.5" y="-155.5" font-family="Helvetica,sans-Serif" font-size="10.00">scram::core::Preprocessor</text>
<text text-anchor="middle" x="405.5" y="-144.5" font-family="Helvetica,sans-Serif" font-size="10.00">::BooleanOptimization</text>
</a>
</g>
</g>
<!-- Node17&#45;&gt;Node18 -->
<g id="edge21" class="edge"><title>Node17&#45;&gt;Node18</title>
<path fill="none" stroke="midnightblue" d="M310.119,-150.83C319.864,-151.002 329.781,-151.178 339.346,-151.347"/>
<polygon fill="midnightblue" stroke="midnightblue" points="310.109,-147.329 300.048,-150.651 309.985,-154.328 310.109,-147.329"/>
</g>
<!-- Node18&#45;&gt;Node3 -->
<g id="edge22" class="edge"><title>Node18&#45;&gt;Node3</title>
<path fill="none" stroke="midnightblue" d="M468.399,-134.606C486.63,-129.336 506.386,-123.624 523.934,-118.552"/>
<polygon fill="midnightblue" stroke="midnightblue" points="467.373,-131.259 458.739,-137.399 469.317,-137.984 467.373,-131.259"/>
</g>
<!-- Node19&#45;&gt;Node3 -->
<g id="edge24" class="edge"><title>Node19&#45;&gt;Node3</title>
<path fill="none" stroke="midnightblue" d="M485.698,-103.5C494.155,-103.5 502.686,-103.5 510.952,-103.5"/>
<polygon fill="midnightblue" stroke="midnightblue" points="485.442,-100 475.442,-103.5 485.442,-107 485.442,-100"/>
</g>
</g>
</svg>
