<?xml version="1.0" encoding="UTF-8" standalone="no"?>
<!DOCTYPE svg PUBLIC "-//W3C//DTD SVG 1.1//EN"
 "http://www.w3.org/Graphics/SVG/1.1/DTD/svg11.dtd">
<!-- Generated by graphviz version 2.38.0 (20140413.2041)
 -->
<!-- Title: ext::linear_map::find Pages: 1 -->
<svg width="329pt" height="339pt"
 viewBox="0.00 0.00 329.00 338.50" xmlns="http://www.w3.org/2000/svg" xmlns:xlink="http://www.w3.org/1999/xlink">
<g id="graph0" class="graph" transform="scale(1 1) rotate(0) translate(4 334.5)">
<title>ext::linear_map::find</title>
<polygon fill="white" stroke="none" points="-4,4 -4,-334.5 325,-334.5 325,4 -4,4"/>
<!-- Node1 -->
<g id="node1" class="node"><title>Node1</title>
<polygon fill="#bfbfbf" stroke="black" points="0,-161.5 0,-180.5 105,-180.5 105,-161.5 0,-161.5"/>
<text text-anchor="middle" x="52.5" y="-168.5" font-family="Helvetica,sans-Serif" font-size="10.00">ext::linear_map::find</text>
</g>
<!-- Node2 -->
<g id="node2" class="node"><title>Node2</title>
<g id="a_node2"><a xlink:href="classext_1_1linear__map.xhtml#abec7fa7fbdc9f24e5028ba4db54c1eb4" target="_top" xlink:title="Accesses the value of the entry. ">
<polygon fill="white" stroke="black" points="141,-300 141,-330 321,-330 321,-300 141,-300"/>
<text text-anchor="start" x="149" y="-318" font-family="Helvetica,sans-Serif" font-size="10.00">ext::linear_map&lt; int,</text>
<text text-anchor="middle" x="231" y="-307" font-family="Helvetica,sans-Serif" font-size="10.00"> GateWeakPtr, ext::MoveEraser &gt;::at</text>
</a>
</g>
</g>
<!-- Node1&#45;&gt;Node2 -->
<g id="edge1" class="edge"><title>Node1&#45;&gt;Node2</title>
<path fill="none" stroke="midnightblue" d="M62.1368,-189.892C75.3028,-216.544 102.938,-264.844 141,-291 146.012,-294.444 151.497,-297.395 157.204,-299.922"/>
<polygon fill="midnightblue" stroke="midnightblue" points="65.2759,-188.343 57.8076,-180.828 58.9595,-191.36 65.2759,-188.343"/>
</g>
<!-- Node3 -->
<g id="node3" class="node"><title>Node3</title>
<g id="a_node3"><a xlink:href="classext_1_1linear__map.xhtml#a06ea6f3a7b047a36ebf53e4af2211161" target="_top" xlink:title="Determines if an entry with the given key in the map. ">
<polygon fill="white" stroke="black" points="152.5,-240.5 152.5,-281.5 309.5,-281.5 309.5,-240.5 152.5,-240.5"/>
<text text-anchor="start" x="160.5" y="-269.5" font-family="Helvetica,sans-Serif" font-size="10.00">ext::linear_map&lt; int,</text>
<text text-anchor="start" x="160.5" y="-258.5" font-family="Helvetica,sans-Serif" font-size="10.00"> GateWeakPtr, ext::MoveEraser</text>
<text text-anchor="middle" x="231" y="-247.5" font-family="Helvetica,sans-Serif" font-size="10.00"> &gt;::count</text>
</a>
</g>
</g>
<!-- Node1&#45;&gt;Node3 -->
<g id="edge2" class="edge"><title>Node1&#45;&gt;Node3</title>
<path fill="none" stroke="midnightblue" d="M73.4106,-187.027C90.5318,-200.21 116.302,-218.668 141,-231 147.711,-234.351 154.883,-237.466 162.135,-240.322"/>
<polygon fill="midnightblue" stroke="midnightblue" points="75.3283,-184.083 65.297,-180.673 71.0126,-189.594 75.3283,-184.083"/>
</g>
<!-- Node4 -->
<g id="node4" class="node"><title>Node4</title>
<g id="a_node4"><a xlink:href="classext_1_1linear__map.xhtml#a855a9757f53ba88c68240141f1d86bbd" target="_top" xlink:title="Attempts to build and insert an entry. ">
<polygon fill="white" stroke="black" points="152.5,-180.5 152.5,-221.5 309.5,-221.5 309.5,-180.5 152.5,-180.5"/>
<text text-anchor="start" x="160.5" y="-209.5" font-family="Helvetica,sans-Serif" font-size="10.00">ext::linear_map&lt; int,</text>
<text text-anchor="start" x="160.5" y="-198.5" font-family="Helvetica,sans-Serif" font-size="10.00"> GateWeakPtr, ext::MoveEraser</text>
<text text-anchor="middle" x="231" y="-187.5" font-family="Helvetica,sans-Serif" font-size="10.00"> &gt;::emplace</text>
</a>
</g>
</g>
<!-- Node1&#45;&gt;Node4 -->
<g id="edge3" class="edge"><title>Node1&#45;&gt;Node4</title>
<path fill="none" stroke="midnightblue" d="M114.994,-181.452C127.097,-183.509 139.941,-185.692 152.49,-187.826"/>
<polygon fill="midnightblue" stroke="midnightblue" points="115.471,-177.983 105.026,-179.758 114.298,-184.884 115.471,-177.983"/>
</g>
<!-- Node5 -->
<g id="node5" class="node"><title>Node5</title>
<g id="a_node5"><a xlink:href="classext_1_1linear__map.xhtml#a320f5c3dca95395b7a81c6a0713c8e30" target="_top" xlink:title="Erases the entry with a key. ">
<polygon fill="white" stroke="black" points="152.5,-120.5 152.5,-161.5 309.5,-161.5 309.5,-120.5 152.5,-120.5"/>
<text text-anchor="start" x="160.5" y="-149.5" font-family="Helvetica,sans-Serif" font-size="10.00">ext::linear_map&lt; int,</text>
<text text-anchor="start" x="160.5" y="-138.5" font-family="Helvetica,sans-Serif" font-size="10.00"> GateWeakPtr, ext::MoveEraser</text>
<text text-anchor="middle" x="231" y="-127.5" font-family="Helvetica,sans-Serif" font-size="10.00"> &gt;::erase</text>
</a>
</g>
</g>
<!-- Node1&#45;&gt;Node5 -->
<g id="edge4" class="edge"><title>Node1&#45;&gt;Node5</title>
<path fill="none" stroke="midnightblue" d="M114.994,-160.548C127.097,-158.491 139.941,-156.308 152.49,-154.174"/>
<polygon fill="midnightblue" stroke="midnightblue" points="114.298,-157.116 105.026,-162.242 115.471,-164.017 114.298,-157.116"/>
</g>
<!-- Node6 -->
<g id="node6" class="node"><title>Node6</title>
<g id="a_node6"><a xlink:href="classext_1_1linear__map.xhtml#a5ac43a9a0f3b364e3fa12af1b3a2ecd9" target="_top" xlink:title="Inserts a key&#45;value pair into the map if the pair is not in the map. ">
<polygon fill="white" stroke="black" points="152.5,-60.5 152.5,-101.5 309.5,-101.5 309.5,-60.5 152.5,-60.5"/>
<text text-anchor="start" x="160.5" y="-89.5" font-family="Helvetica,sans-Serif" font-size="10.00">ext::linear_map&lt; int,</text>
<text text-anchor="start" x="160.5" y="-78.5" font-family="Helvetica,sans-Serif" font-size="10.00"> GateWeakPtr, ext::MoveEraser</text>
<text text-anchor="middle" x="231" y="-67.5" font-family="Helvetica,sans-Serif" font-size="10.00"> &gt;::insert</text>
</a>
</g>
</g>
<!-- Node1&#45;&gt;Node6 -->
<g id="edge5" class="edge"><title>Node1&#45;&gt;Node6</title>
<path fill="none" stroke="midnightblue" d="M73.4106,-154.973C90.5318,-141.79 116.302,-123.332 141,-111 147.711,-107.649 154.883,-104.534 162.135,-101.678"/>
<polygon fill="midnightblue" stroke="midnightblue" points="71.0126,-152.406 65.297,-161.327 75.3283,-157.917 71.0126,-152.406"/>
</g>
<!-- Node7 -->
<g id="node7" class="node"><title>Node7</title>
<g id="a_node7"><a xlink:href="classext_1_1linear__map.xhtml#a5a9ff2b51ccd613fe71b0ba392c0a333" target="_top" xlink:title="Accesses an existing or default constructed entry. ">
<polygon fill="white" stroke="black" points="152.5,-0.5 152.5,-41.5 309.5,-41.5 309.5,-0.5 152.5,-0.5"/>
<text text-anchor="start" x="160.5" y="-29.5" font-family="Helvetica,sans-Serif" font-size="10.00">ext::linear_map&lt; int,</text>
<text text-anchor="start" x="160.5" y="-18.5" font-family="Helvetica,sans-Serif" font-size="10.00"> GateWeakPtr, ext::MoveEraser</text>
<text text-anchor="middle" x="231" y="-7.5" font-family="Helvetica,sans-Serif" font-size="10.00"> &gt;::operator[]</text>
</a>
</g>
</g>
<!-- Node1&#45;&gt;Node7 -->
<g id="edge6" class="edge"><title>Node1&#45;&gt;Node7</title>
<path fill="none" stroke="midnightblue" d="M62.5385,-152.074C76.045,-125.733 103.927,-78.1976 141,-51 145.733,-47.5278 150.895,-44.4389 156.271,-41.6941"/>
<polygon fill="midnightblue" stroke="midnightblue" points="59.2467,-150.834 57.9318,-161.347 65.5157,-153.948 59.2467,-150.834"/>
</g>
</g>
</svg>
