<?xml version="1.0" encoding="UTF-8" standalone="no"?>
<!DOCTYPE svg PUBLIC "-//W3C//DTD SVG 1.1//EN"
 "http://www.w3.org/Graphics/SVG/1.1/DTD/svg11.dtd">
<!-- Generated by graphviz version 2.38.0 (20140413.2041)
 -->
<!-- Title: scram::core::Vertex&lt; T &gt; Pages: 1 -->
<svg width="559pt" height="928pt"
 viewBox="0.00 0.00 559.00 928.00" xmlns="http://www.w3.org/2000/svg" xmlns:xlink="http://www.w3.org/1999/xlink">
<g id="graph0" class="graph" transform="scale(1 1) rotate(0) translate(4 924)">
<title>scram::core::Vertex&lt; T &gt;</title>
<polygon fill="white" stroke="none" points="-4,4 -4,-924 555,-924 555,4 -4,4"/>
<!-- Node1 -->
<g id="node1" class="node"><title>Node1</title>
<polygon fill="#bfbfbf" stroke="black" points="138,-712.5 138,-824.5 265,-824.5 265,-712.5 138,-712.5"/>
<text text-anchor="middle" x="201.5" y="-812.5" font-family="Helvetica,sans-Serif" font-size="10.00">scram::core::Vertex&lt; T &gt;</text>
<polyline fill="none" stroke="black" points="138,-805.5 265,-805.5 "/>
<text text-anchor="middle" x="201.5" y="-793.5" font-family="Helvetica,sans-Serif" font-size="10.00"> </text>
<polyline fill="none" stroke="black" points="138,-786.5 265,-786.5 "/>
<text text-anchor="start" x="146" y="-774.5" font-family="Helvetica,sans-Serif" font-size="10.00">+ Vertex()</text>
<text text-anchor="start" x="146" y="-763.5" font-family="Helvetica,sans-Serif" font-size="10.00">+ id()</text>
<text text-anchor="start" x="146" y="-752.5" font-family="Helvetica,sans-Serif" font-size="10.00">+ terminal()</text>
<text text-anchor="start" x="146" y="-741.5" font-family="Helvetica,sans-Serif" font-size="10.00">+ use_count()</text>
<text text-anchor="start" x="146" y="-730.5" font-family="Helvetica,sans-Serif" font-size="10.00">+ unique()</text>
<text text-anchor="start" x="146" y="-719.5" font-family="Helvetica,sans-Serif" font-size="10.00"># ~Vertex()</text>
</g>
<!-- Node3 -->
<g id="node3" class="node"><title>Node3</title>
<g id="a_node3"><a xlink:href="classscram_1_1core_1_1NonTerminal.xhtml" target="_top" xlink:title="Representation of non&#45;terminal vertices in BDD graphs. ">
<polygon fill="white" stroke="black" points="275.5,-453.5 275.5,-664.5 429.5,-664.5 429.5,-453.5 275.5,-453.5"/>
<text text-anchor="middle" x="352.5" y="-652.5" font-family="Helvetica,sans-Serif" font-size="10.00">scram::core::NonTerminal&lt; T &gt;</text>
<polyline fill="none" stroke="black" points="275.5,-645.5 429.5,-645.5 "/>
<text text-anchor="middle" x="352.5" y="-633.5" font-family="Helvetica,sans-Serif" font-size="10.00"> </text>
<polyline fill="none" stroke="black" points="275.5,-626.5 429.5,-626.5 "/>
<text text-anchor="start" x="283.5" y="-614.5" font-family="Helvetica,sans-Serif" font-size="10.00">+ NonTerminal()</text>
<text text-anchor="start" x="283.5" y="-603.5" font-family="Helvetica,sans-Serif" font-size="10.00">+ index()</text>
<text text-anchor="start" x="283.5" y="-592.5" font-family="Helvetica,sans-Serif" font-size="10.00">+ order()</text>
<text text-anchor="start" x="283.5" y="-581.5" font-family="Helvetica,sans-Serif" font-size="10.00">+ module()</text>
<text text-anchor="start" x="283.5" y="-570.5" font-family="Helvetica,sans-Serif" font-size="10.00">+ module()</text>
<text text-anchor="start" x="283.5" y="-559.5" font-family="Helvetica,sans-Serif" font-size="10.00">+ coherent()</text>
<text text-anchor="start" x="283.5" y="-548.5" font-family="Helvetica,sans-Serif" font-size="10.00">+ coherent()</text>
<text text-anchor="start" x="283.5" y="-537.5" font-family="Helvetica,sans-Serif" font-size="10.00">+ high()</text>
<text text-anchor="start" x="283.5" y="-526.5" font-family="Helvetica,sans-Serif" font-size="10.00">+ low()</text>
<text text-anchor="start" x="283.5" y="-515.5" font-family="Helvetica,sans-Serif" font-size="10.00">+ mark()</text>
<text text-anchor="start" x="283.5" y="-504.5" font-family="Helvetica,sans-Serif" font-size="10.00">+ mark()</text>
<text text-anchor="start" x="283.5" y="-493.5" font-family="Helvetica,sans-Serif" font-size="10.00"># ~NonTerminal()</text>
<text text-anchor="start" x="283.5" y="-482.5" font-family="Helvetica,sans-Serif" font-size="10.00"># CutBranches()</text>
<text text-anchor="start" x="283.5" y="-471.5" font-family="Helvetica,sans-Serif" font-size="10.00">* get_high_id</text>
<text text-anchor="start" x="283.5" y="-460.5" font-family="Helvetica,sans-Serif" font-size="10.00">* get_low_id</text>
</a>
</g>
</g>
<!-- Node1&#45;&gt;Node3 -->
<g id="edge2" class="edge"><title>Node1&#45;&gt;Node3</title>
<path fill="none" stroke="midnightblue" d="M247.475,-704.323C256.624,-691.751 266.459,-678.235 276.31,-664.699"/>
<polygon fill="none" stroke="midnightblue" points="244.623,-702.293 241.569,-712.439 250.283,-706.412 244.623,-702.293"/>
</g>
<!-- Node8 -->
<g id="node8" class="node"><title>Node8</title>
<g id="a_node8"><a xlink:href="classscram_1_1core_1_1Terminal.xhtml" target="_top" xlink:title="Representation of terminal vertices in BDD graphs. ">
<polygon fill="white" stroke="black" points="121.5,-519.5 121.5,-598.5 257.5,-598.5 257.5,-519.5 121.5,-519.5"/>
<text text-anchor="middle" x="189.5" y="-586.5" font-family="Helvetica,sans-Serif" font-size="10.00">scram::core::Terminal&lt; T &gt;</text>
<polyline fill="none" stroke="black" points="121.5,-579.5 257.5,-579.5 "/>
<text text-anchor="middle" x="189.5" y="-567.5" font-family="Helvetica,sans-Serif" font-size="10.00"> </text>
<polyline fill="none" stroke="black" points="121.5,-560.5 257.5,-560.5 "/>
<text text-anchor="start" x="129.5" y="-548.5" font-family="Helvetica,sans-Serif" font-size="10.00">+ Terminal()</text>
<text text-anchor="start" x="129.5" y="-537.5" font-family="Helvetica,sans-Serif" font-size="10.00">+ value()</text>
<text text-anchor="start" x="129.5" y="-526.5" font-family="Helvetica,sans-Serif" font-size="10.00">+ Ptr()</text>
</a>
</g>
</g>
<!-- Node1&#45;&gt;Node8 -->
<g id="edge7" class="edge"><title>Node1&#45;&gt;Node8</title>
<path fill="none" stroke="midnightblue" d="M197.718,-702.096C195.748,-668.045 193.408,-627.58 191.73,-598.557"/>
<polygon fill="none" stroke="midnightblue" points="194.244,-702.657 198.316,-712.439 201.232,-702.253 194.244,-702.657"/>
</g>
<!-- Node9 -->
<g id="node9" class="node"><title>Node9</title>
<g id="a_node9"><a xlink:href="classscram_1_1core_1_1Vertex.xhtml" target="_top" xlink:title="{scram::core::Vertex\l\&lt; Ite \&gt;\n||+ Vertex()\l+ id()\l+ terminal()\l+ use_count()\l+ unique()\l# ~Vertex()\l}">
<polygon fill="white" stroke="black" points="0,-497.5 0,-620.5 103,-620.5 103,-497.5 0,-497.5"/>
<text text-anchor="start" x="8" y="-608.5" font-family="Helvetica,sans-Serif" font-size="10.00">scram::core::Vertex</text>
<text text-anchor="middle" x="51.5" y="-597.5" font-family="Helvetica,sans-Serif" font-size="10.00">&lt; Ite &gt;</text>
<polyline fill="none" stroke="black" points="0,-590.5 103,-590.5 "/>
<text text-anchor="middle" x="51.5" y="-578.5" font-family="Helvetica,sans-Serif" font-size="10.00"> </text>
<polyline fill="none" stroke="black" points="0,-571.5 103,-571.5 "/>
<text text-anchor="start" x="8" y="-559.5" font-family="Helvetica,sans-Serif" font-size="10.00">+ Vertex()</text>
<text text-anchor="start" x="8" y="-548.5" font-family="Helvetica,sans-Serif" font-size="10.00">+ id()</text>
<text text-anchor="start" x="8" y="-537.5" font-family="Helvetica,sans-Serif" font-size="10.00">+ terminal()</text>
<text text-anchor="start" x="8" y="-526.5" font-family="Helvetica,sans-Serif" font-size="10.00">+ use_count()</text>
<text text-anchor="start" x="8" y="-515.5" font-family="Helvetica,sans-Serif" font-size="10.00">+ unique()</text>
<text text-anchor="start" x="8" y="-504.5" font-family="Helvetica,sans-Serif" font-size="10.00"># ~Vertex()</text>
</a>
</g>
</g>
<!-- Node1&#45;&gt;Node9 -->
<g id="edge8" class="edge"><title>Node1&#45;&gt;Node9</title>
<path fill="none" stroke="orange" d="M143.619,-704.583C132.828,-691.831 121.977,-678.257 112.5,-665 102.569,-651.108 92.8153,-635.496 84.1213,-620.642"/>
<polygon fill="orange" stroke="orange" points="141.155,-707.086 150.318,-712.406 146.473,-702.534 141.155,-707.086"/>
<text text-anchor="middle" x="150" y="-686" font-family="Helvetica,sans-Serif" font-size="10.00"> &lt; Ite &gt;</text>
</g>
<!-- Node10 -->
<g id="node10" class="node"><title>Node10</title>
<g id="a_node10"><a xlink:href="classscram_1_1core_1_1Vertex.xhtml" target="_top" xlink:title="{scram::core::Vertex\l\&lt; SetNode \&gt;\n||+ Vertex()\l+ id()\l+ terminal()\l+ use_count()\l+ unique()\l# ~Vertex()\l}">
<polygon fill="white" stroke="black" points="448,-497.5 448,-620.5 551,-620.5 551,-497.5 448,-497.5"/>
<text text-anchor="start" x="456" y="-608.5" font-family="Helvetica,sans-Serif" font-size="10.00">scram::core::Vertex</text>
<text text-anchor="middle" x="499.5" y="-597.5" font-family="Helvetica,sans-Serif" font-size="10.00">&lt; SetNode &gt;</text>
<polyline fill="none" stroke="black" points="448,-590.5 551,-590.5 "/>
<text text-anchor="middle" x="499.5" y="-578.5" font-family="Helvetica,sans-Serif" font-size="10.00"> </text>
<polyline fill="none" stroke="black" points="448,-571.5 551,-571.5 "/>
<text text-anchor="start" x="456" y="-559.5" font-family="Helvetica,sans-Serif" font-size="10.00">+ Vertex()</text>
<text text-anchor="start" x="456" y="-548.5" font-family="Helvetica,sans-Serif" font-size="10.00">+ id()</text>
<text text-anchor="start" x="456" y="-537.5" font-family="Helvetica,sans-Serif" font-size="10.00">+ terminal()</text>
<text text-anchor="start" x="456" y="-526.5" font-family="Helvetica,sans-Serif" font-size="10.00">+ use_count()</text>
<text text-anchor="start" x="456" y="-515.5" font-family="Helvetica,sans-Serif" font-size="10.00">+ unique()</text>
<text text-anchor="start" x="456" y="-504.5" font-family="Helvetica,sans-Serif" font-size="10.00"># ~Vertex()</text>
</a>
</g>
</g>
<!-- Node1&#45;&gt;Node10 -->
<g id="edge10" class="edge"><title>Node1&#45;&gt;Node10</title>
<path fill="none" stroke="orange" d="M274.762,-749.024C325.342,-733.331 391.666,-706.606 438.5,-665 452.291,-652.749 463.781,-636.606 472.932,-620.662"/>
<polygon fill="orange" stroke="orange" points="273.745,-745.675 265.188,-751.922 275.773,-752.375 273.745,-745.675"/>
<text text-anchor="middle" x="440.5" y="-686" font-family="Helvetica,sans-Serif" font-size="10.00"> &lt; SetNode &gt;</text>
</g>
<!-- Node2 -->
<g id="node2" class="node"><title>Node2</title>
<polygon fill="white" stroke="#bfbfbf" points="166,-862.5 166,-919.5 237,-919.5 237,-862.5 166,-862.5"/>
<text text-anchor="middle" x="201.5" y="-907.5" font-family="Helvetica,sans-Serif" font-size="10.00">noncopyable</text>
<polyline fill="none" stroke="#bfbfbf" points="166,-900.5 237,-900.5 "/>
<text text-anchor="middle" x="201.5" y="-888.5" font-family="Helvetica,sans-Serif" font-size="10.00"> </text>
<polyline fill="none" stroke="#bfbfbf" points="166,-881.5 237,-881.5 "/>
<text text-anchor="middle" x="201.5" y="-869.5" font-family="Helvetica,sans-Serif" font-size="10.00"> </text>
</g>
<!-- Node2&#45;&gt;Node1 -->
<g id="edge1" class="edge"><title>Node2&#45;&gt;Node1</title>
<path fill="none" stroke="#8b1a1a" d="M201.5,-852.109C201.5,-843.362 201.5,-833.883 201.5,-824.569"/>
<polygon fill="none" stroke="#8b1a1a" points="198,-852.355 201.5,-862.355 205,-852.355 198,-852.355"/>
</g>
<!-- Node4 -->
<g id="node4" class="node"><title>Node4</title>
<g id="a_node4"><a xlink:href="classscram_1_1core_1_1NonTerminal.xhtml" target="_top" xlink:title="{scram::core::NonTerminal\l\&lt; Ite \&gt;\n||+ NonTerminal()\l+ index()\l+ order()\l+ module()\l+ module()\l+ coherent()\l+ coherent()\l+ high()\l+ low()\l+ mark()\l+ mark()\l# ~NonTerminal()\l# CutBranches()\l* get_high_id\l* get_low_id\l}">
<polygon fill="white" stroke="black" points="203.5,-183.5 203.5,-405.5 333.5,-405.5 333.5,-183.5 203.5,-183.5"/>
<text text-anchor="start" x="211.5" y="-393.5" font-family="Helvetica,sans-Serif" font-size="10.00">scram::core::NonTerminal</text>
<text text-anchor="middle" x="268.5" y="-382.5" font-family="Helvetica,sans-Serif" font-size="10.00">&lt; Ite &gt;</text>
<polyline fill="none" stroke="black" points="203.5,-375.5 333.5,-375.5 "/>
<text text-anchor="middle" x="268.5" y="-363.5" font-family="Helvetica,sans-Serif" font-size="10.00"> </text>
<polyline fill="none" stroke="black" points="203.5,-356.5 333.5,-356.5 "/>
<text text-anchor="start" x="211.5" y="-344.5" font-family="Helvetica,sans-Serif" font-size="10.00">+ NonTerminal()</text>
<text text-anchor="start" x="211.5" y="-333.5" font-family="Helvetica,sans-Serif" font-size="10.00">+ index()</text>
<text text-anchor="start" x="211.5" y="-322.5" font-family="Helvetica,sans-Serif" font-size="10.00">+ order()</text>
<text text-anchor="start" x="211.5" y="-311.5" font-family="Helvetica,sans-Serif" font-size="10.00">+ module()</text>
<text text-anchor="start" x="211.5" y="-300.5" font-family="Helvetica,sans-Serif" font-size="10.00">+ module()</text>
<text text-anchor="start" x="211.5" y="-289.5" font-family="Helvetica,sans-Serif" font-size="10.00">+ coherent()</text>
<text text-anchor="start" x="211.5" y="-278.5" font-family="Helvetica,sans-Serif" font-size="10.00">+ coherent()</text>
<text text-anchor="start" x="211.5" y="-267.5" font-family="Helvetica,sans-Serif" font-size="10.00">+ high()</text>
<text text-anchor="start" x="211.5" y="-256.5" font-family="Helvetica,sans-Serif" font-size="10.00">+ low()</text>
<text text-anchor="start" x="211.5" y="-245.5" font-family="Helvetica,sans-Serif" font-size="10.00">+ mark()</text>
<text text-anchor="start" x="211.5" y="-234.5" font-family="Helvetica,sans-Serif" font-size="10.00">+ mark()</text>
<text text-anchor="start" x="211.5" y="-223.5" font-family="Helvetica,sans-Serif" font-size="10.00"># ~NonTerminal()</text>
<text text-anchor="start" x="211.5" y="-212.5" font-family="Helvetica,sans-Serif" font-size="10.00"># CutBranches()</text>
<text text-anchor="start" x="211.5" y="-201.5" font-family="Helvetica,sans-Serif" font-size="10.00">* get_high_id</text>
<text text-anchor="start" x="211.5" y="-190.5" font-family="Helvetica,sans-Serif" font-size="10.00">* get_low_id</text>
</a>
</g>
</g>
<!-- Node3&#45;&gt;Node4 -->
<g id="edge3" class="edge"><title>Node3&#45;&gt;Node4</title>
<path fill="none" stroke="orange" d="M315.974,-443.857C311.918,-431.182 307.793,-418.292 303.754,-405.668"/>
<polygon fill="orange" stroke="orange" points="312.678,-445.041 319.06,-453.499 319.345,-442.908 312.678,-445.041"/>
<text text-anchor="middle" x="330" y="-427" font-family="Helvetica,sans-Serif" font-size="10.00"> &lt; Ite &gt;</text>
</g>
<!-- Node6 -->
<g id="node6" class="node"><title>Node6</title>
<g id="a_node6"><a xlink:href="classscram_1_1core_1_1NonTerminal.xhtml" target="_top" xlink:title="{scram::core::NonTerminal\l\&lt; SetNode \&gt;\n||+ NonTerminal()\l+ index()\l+ order()\l+ module()\l+ module()\l+ coherent()\l+ coherent()\l+ high()\l+ low()\l+ mark()\l+ mark()\l# ~NonTerminal()\l# CutBranches()\l* get_high_id\l* get_low_id\l}">
<polygon fill="white" stroke="black" points="383.5,-183.5 383.5,-405.5 513.5,-405.5 513.5,-183.5 383.5,-183.5"/>
<text text-anchor="start" x="391.5" y="-393.5" font-family="Helvetica,sans-Serif" font-size="10.00">scram::core::NonTerminal</text>
<text text-anchor="middle" x="448.5" y="-382.5" font-family="Helvetica,sans-Serif" font-size="10.00">&lt; SetNode &gt;</text>
<polyline fill="none" stroke="black" points="383.5,-375.5 513.5,-375.5 "/>
<text text-anchor="middle" x="448.5" y="-363.5" font-family="Helvetica,sans-Serif" font-size="10.00"> </text>
<polyline fill="none" stroke="black" points="383.5,-356.5 513.5,-356.5 "/>
<text text-anchor="start" x="391.5" y="-344.5" font-family="Helvetica,sans-Serif" font-size="10.00">+ NonTerminal()</text>
<text text-anchor="start" x="391.5" y="-333.5" font-family="Helvetica,sans-Serif" font-size="10.00">+ index()</text>
<text text-anchor="start" x="391.5" y="-322.5" font-family="Helvetica,sans-Serif" font-size="10.00">+ order()</text>
<text text-anchor="start" x="391.5" y="-311.5" font-family="Helvetica,sans-Serif" font-size="10.00">+ module()</text>
<text text-anchor="start" x="391.5" y="-300.5" font-family="Helvetica,sans-Serif" font-size="10.00">+ module()</text>
<text text-anchor="start" x="391.5" y="-289.5" font-family="Helvetica,sans-Serif" font-size="10.00">+ coherent()</text>
<text text-anchor="start" x="391.5" y="-278.5" font-family="Helvetica,sans-Serif" font-size="10.00">+ coherent()</text>
<text text-anchor="start" x="391.5" y="-267.5" font-family="Helvetica,sans-Serif" font-size="10.00">+ high()</text>
<text text-anchor="start" x="391.5" y="-256.5" font-family="Helvetica,sans-Serif" font-size="10.00">+ low()</text>
<text text-anchor="start" x="391.5" y="-245.5" font-family="Helvetica,sans-Serif" font-size="10.00">+ mark()</text>
<text text-anchor="start" x="391.5" y="-234.5" font-family="Helvetica,sans-Serif" font-size="10.00">+ mark()</text>
<text text-anchor="start" x="391.5" y="-223.5" font-family="Helvetica,sans-Serif" font-size="10.00"># ~NonTerminal()</text>
<text text-anchor="start" x="391.5" y="-212.5" font-family="Helvetica,sans-Serif" font-size="10.00"># CutBranches()</text>
<text text-anchor="start" x="391.5" y="-201.5" font-family="Helvetica,sans-Serif" font-size="10.00">* get_high_id</text>
<text text-anchor="start" x="391.5" y="-190.5" font-family="Helvetica,sans-Serif" font-size="10.00">* get_low_id</text>
</a>
</g>
</g>
<!-- Node3&#45;&gt;Node6 -->
<g id="edge5" class="edge"><title>Node3&#45;&gt;Node6</title>
<path fill="none" stroke="orange" d="M394.244,-443.857C398.879,-431.182 403.593,-418.292 408.21,-405.668"/>
<polygon fill="orange" stroke="orange" points="390.865,-442.905 390.718,-453.499 397.439,-445.309 390.865,-442.905"/>
<text text-anchor="middle" x="430.5" y="-427" font-family="Helvetica,sans-Serif" font-size="10.00"> &lt; SetNode &gt;</text>
</g>
<!-- Node5 -->
<g id="node5" class="node"><title>Node5</title>
<g id="a_node5"><a xlink:href="classscram_1_1core_1_1Ite.xhtml" target="_top" xlink:title="Representation of non&#45;terminal if&#45;then&#45;else vertices in BDD graphs. ">
<polygon fill="white" stroke="black" points="213,-11.5 213,-134.5 324,-134.5 324,-11.5 213,-11.5"/>
<text text-anchor="middle" x="268.5" y="-122.5" font-family="Helvetica,sans-Serif" font-size="10.00">scram::core::Ite</text>
<polyline fill="none" stroke="black" points="213,-115.5 324,-115.5 "/>
<text text-anchor="middle" x="268.5" y="-103.5" font-family="Helvetica,sans-Serif" font-size="10.00"> </text>
<polyline fill="none" stroke="black" points="213,-96.5 324,-96.5 "/>
<text text-anchor="start" x="221" y="-84.5" font-family="Helvetica,sans-Serif" font-size="10.00">+ complement_edge()</text>
<text text-anchor="start" x="221" y="-73.5" font-family="Helvetica,sans-Serif" font-size="10.00">+ complement_edge()</text>
<text text-anchor="start" x="221" y="-62.5" font-family="Helvetica,sans-Serif" font-size="10.00">+ p()</text>
<text text-anchor="start" x="221" y="-51.5" font-family="Helvetica,sans-Serif" font-size="10.00">+ p()</text>
<text text-anchor="start" x="221" y="-40.5" font-family="Helvetica,sans-Serif" font-size="10.00">+ factor()</text>
<text text-anchor="start" x="221" y="-29.5" font-family="Helvetica,sans-Serif" font-size="10.00">+ factor()</text>
<text text-anchor="start" x="221" y="-18.5" font-family="Helvetica,sans-Serif" font-size="10.00">+ Ptr()</text>
</a>
</g>
</g>
<!-- Node4&#45;&gt;Node5 -->
<g id="edge4" class="edge"><title>Node4&#45;&gt;Node5</title>
<path fill="none" stroke="midnightblue" d="M268.5,-173.209C268.5,-159.881 268.5,-146.763 268.5,-134.65"/>
<polygon fill="none" stroke="midnightblue" points="265,-173.428 268.5,-183.428 272,-173.429 265,-173.428"/>
</g>
<!-- Node7 -->
<g id="node7" class="node"><title>Node7</title>
<g id="a_node7"><a xlink:href="classscram_1_1core_1_1SetNode.xhtml" target="_top" xlink:title="Representation of non&#45;terminal nodes in ZBDD. ">
<polygon fill="white" stroke="black" points="392,-0.5 392,-145.5 505,-145.5 505,-0.5 392,-0.5"/>
<text text-anchor="middle" x="448.5" y="-133.5" font-family="Helvetica,sans-Serif" font-size="10.00">scram::core::SetNode</text>
<polyline fill="none" stroke="black" points="392,-126.5 505,-126.5 "/>
<text text-anchor="middle" x="448.5" y="-114.5" font-family="Helvetica,sans-Serif" font-size="10.00"> </text>
<polyline fill="none" stroke="black" points="392,-107.5 505,-107.5 "/>
<text text-anchor="start" x="400" y="-95.5" font-family="Helvetica,sans-Serif" font-size="10.00">+ minimal()</text>
<text text-anchor="start" x="400" y="-84.5" font-family="Helvetica,sans-Serif" font-size="10.00">+ minimal()</text>
<text text-anchor="start" x="400" y="-73.5" font-family="Helvetica,sans-Serif" font-size="10.00">+ max_set_order()</text>
<text text-anchor="start" x="400" y="-62.5" font-family="Helvetica,sans-Serif" font-size="10.00">+ max_set_order()</text>
<text text-anchor="start" x="400" y="-51.5" font-family="Helvetica,sans-Serif" font-size="10.00">+ count()</text>
<text text-anchor="start" x="400" y="-40.5" font-family="Helvetica,sans-Serif" font-size="10.00">+ count()</text>
<text text-anchor="start" x="400" y="-29.5" font-family="Helvetica,sans-Serif" font-size="10.00">+ products()</text>
<text text-anchor="start" x="400" y="-18.5" font-family="Helvetica,sans-Serif" font-size="10.00">+ products()</text>
<text text-anchor="start" x="400" y="-7.5" font-family="Helvetica,sans-Serif" font-size="10.00">+ Ptr()</text>
</a>
</g>
</g>
<!-- Node6&#45;&gt;Node7 -->
<g id="edge6" class="edge"><title>Node6&#45;&gt;Node7</title>
<path fill="none" stroke="midnightblue" d="M448.5,-173.214C448.5,-163.826 448.5,-154.542 448.5,-145.64"/>
<polygon fill="none" stroke="midnightblue" points="445,-173.428 448.5,-183.428 452,-173.429 445,-173.428"/>
</g>
<!-- Node9&#45;&gt;Node4 -->
<g id="edge9" class="edge"><title>Node9&#45;&gt;Node4</title>
<path fill="none" stroke="midnightblue" d="M88.4538,-488.587C95.8932,-476.372 104.043,-464.045 112.5,-453 139.407,-417.859 173.62,-382.507 203.145,-354.224"/>
<polygon fill="none" stroke="midnightblue" points="85.2888,-487.06 83.1681,-497.441 91.2993,-490.648 85.2888,-487.06"/>
</g>
<!-- Node10&#45;&gt;Node6 -->
<g id="edge11" class="edge"><title>Node10&#45;&gt;Node6</title>
<path fill="none" stroke="midnightblue" d="M485.765,-487.305C480.89,-462.213 475.28,-433.34 469.918,-405.739"/>
<polygon fill="none" stroke="midnightblue" points="482.393,-488.299 487.736,-497.448 489.264,-486.964 482.393,-488.299"/>
</g>
</g>
</svg>
