<?xml version="1.0" encoding="UTF-8" standalone="no"?>
<!DOCTYPE svg PUBLIC "-//W3C//DTD SVG 1.1//EN"
 "http://www.w3.org/Graphics/SVG/1.1/DTD/svg11.dtd">
<!-- Generated by graphviz version 2.38.0 (20140413.2041)
 -->
<!-- Title: scram::core::Settings::prime_implicants Pages: 1 -->
<svg width="609pt" height="474pt"
 viewBox="0.00 0.00 609.00 473.50" xmlns="http://www.w3.org/2000/svg" xmlns:xlink="http://www.w3.org/1999/xlink">
<g id="graph0" class="graph" transform="scale(1 1) rotate(0) translate(4 469.5)">
<title>scram::core::Settings::prime_implicants</title>
<polygon fill="white" stroke="none" points="-4,4 -4,-469.5 605,-469.5 605,4 -4,4"/>
<!-- Node1 -->
<g id="node1" class="node"><title>Node1</title>
<polygon fill="#bfbfbf" stroke="black" points="0,-329 0,-359 110,-359 110,-329 0,-329"/>
<text text-anchor="start" x="8" y="-347" font-family="Helvetica,sans-Serif" font-size="10.00">scram::core::Settings</text>
<text text-anchor="middle" x="55" y="-336" font-family="Helvetica,sans-Serif" font-size="10.00">::prime_implicants</text>
</g>
<!-- Node2 -->
<g id="node2" class="node"><title>Node2</title>
<g id="a_node2"><a xlink:href="classscram_1_1core_1_1Settings.xhtml#ad7b46344a4e25e34fa76bc9971f97eb9" target="_top" xlink:title="Sets the algorithm for Qualitative analysis. ">
<polygon fill="white" stroke="black" points="147.5,-435 147.5,-465 257.5,-465 257.5,-435 147.5,-435"/>
<text text-anchor="start" x="155.5" y="-453" font-family="Helvetica,sans-Serif" font-size="10.00">scram::core::Settings</text>
<text text-anchor="middle" x="202.5" y="-442" font-family="Helvetica,sans-Serif" font-size="10.00">::algorithm</text>
</a>
</g>
</g>
<!-- Node1&#45;&gt;Node2 -->
<g id="edge1" class="edge"><title>Node1&#45;&gt;Node2</title>
<path fill="none" stroke="midnightblue" d="M77.4437,-366.838C94.7464,-384.346 120.35,-408.267 146,-425 151.576,-428.638 157.769,-431.999 163.937,-434.999"/>
<polygon fill="midnightblue" stroke="midnightblue" points="79.5883,-364.023 70.1075,-359.294 74.5697,-368.903 79.5883,-364.023"/>
</g>
<!-- Node3 -->
<g id="node3" class="node"><title>Node3</title>
<g id="a_node3"><a xlink:href="classscram_1_1Config.xhtml#ab0d7940fbb627fab9867821e133eab5d" target="_top" xlink:title="A constructor with configurations for analysis. ">
<polygon fill="white" stroke="black" points="146,-396.5 146,-415.5 259,-415.5 259,-396.5 146,-396.5"/>
<text text-anchor="middle" x="202.5" y="-403.5" font-family="Helvetica,sans-Serif" font-size="10.00">scram::Config::Config</text>
</a>
</g>
</g>
<!-- Node1&#45;&gt;Node3 -->
<g id="edge2" class="edge"><title>Node1&#45;&gt;Node3</title>
<path fill="none" stroke="midnightblue" d="M94.1733,-363.443C110.02,-371.197 128.713,-379.939 146,-387 154.203,-390.35 163.24,-393.618 171.597,-396.472"/>
<polygon fill="midnightblue" stroke="midnightblue" points="95.7199,-360.303 85.204,-359.011 92.6193,-366.579 95.7199,-360.303"/>
</g>
<!-- Node4 -->
<g id="node4" class="node"><title>Node4</title>
<g id="a_node4"><a xlink:href="classscram_1_1core_1_1Zbdd.xhtml#ac90d12f0c653c679d22109124fa6344c" target="_top" xlink:title="Find or adds a ZBDD SetNode vertex using information from gates. ">
<polygon fill="white" stroke="black" points="151.5,-329 151.5,-359 253.5,-359 253.5,-329 151.5,-329"/>
<text text-anchor="start" x="159.5" y="-347" font-family="Helvetica,sans-Serif" font-size="10.00">scram::core::Zbdd::</text>
<text text-anchor="middle" x="202.5" y="-336" font-family="Helvetica,sans-Serif" font-size="10.00">FindOrAddVertex</text>
</a>
</g>
</g>
<!-- Node1&#45;&gt;Node4 -->
<g id="edge3" class="edge"><title>Node1&#45;&gt;Node4</title>
<path fill="none" stroke="midnightblue" d="M120.376,-344C130.68,-344 141.211,-344 151.128,-344"/>
<polygon fill="midnightblue" stroke="midnightblue" points="120.179,-340.5 110.179,-344 120.179,-347.5 120.179,-340.5"/>
</g>
<!-- Node5 -->
<g id="node5" class="node"><title>Node5</title>
<g id="a_node5"><a xlink:href="classscram_1_1core_1_1Zbdd.xhtml#a3dbb8ef5da2882daf6c39e9724eae459" target="_top" xlink:title="Removes subsets in ZBDD. ">
<polygon fill="white" stroke="black" points="151.5,-153 151.5,-183 253.5,-183 253.5,-153 151.5,-153"/>
<text text-anchor="start" x="159.5" y="-171" font-family="Helvetica,sans-Serif" font-size="10.00">scram::core::Zbdd::</text>
<text text-anchor="middle" x="202.5" y="-160" font-family="Helvetica,sans-Serif" font-size="10.00">Minimize</text>
</a>
</g>
</g>
<!-- Node1&#45;&gt;Node5 -->
<g id="edge5" class="edge"><title>Node1&#45;&gt;Node5</title>
<path fill="none" stroke="midnightblue" d="M75.1089,-320.885C105.341,-284.316 163.385,-214.105 188.919,-183.218"/>
<polygon fill="midnightblue" stroke="midnightblue" points="72.0794,-319.057 68.4052,-328.994 77.4745,-323.517 72.0794,-319.057"/>
</g>
<!-- Node7 -->
<g id="node7" class="node"><title>Node7</title>
<g id="a_node7"><a xlink:href="classscram_1_1core_1_1Zbdd.xhtml#af92e04ed908364e0177ce444d7b72712" target="_top" xlink:title="Default constructor to initialize member variables. ">
<polygon fill="white" stroke="black" points="471,-202.5 471,-221.5 595,-221.5 595,-202.5 471,-202.5"/>
<text text-anchor="middle" x="533" y="-209.5" font-family="Helvetica,sans-Serif" font-size="10.00">scram::core::Zbdd::Zbdd</text>
</a>
</g>
</g>
<!-- Node1&#45;&gt;Node7 -->
<g id="edge16" class="edge"><title>Node1&#45;&gt;Node7</title>
<path fill="none" stroke="midnightblue" d="M117.787,-326.448C127.194,-324.088 136.823,-321.849 146,-320 270.466,-294.928 320.221,-346.48 429,-281 452.46,-266.878 442.58,-246.722 465,-231 470.544,-227.113 476.868,-224.017 483.366,-221.552"/>
<polygon fill="midnightblue" stroke="midnightblue" points="116.907,-323.06 108.092,-328.939 118.649,-329.84 116.907,-323.06"/>
</g>
<!-- Node4&#45;&gt;Node4 -->
<g id="edge4" class="edge"><title>Node4&#45;&gt;Node4</title>
<path fill="none" stroke="midnightblue" d="M176.558,-369.458C179.777,-374.179 188.425,-377.5 202.5,-377.5 225.598,-377.5 234.079,-368.557 227.944,-359.159"/>
<polygon fill="midnightblue" stroke="midnightblue" points="180.068,-369.317 177.056,-359.159 173.077,-368.978 180.068,-369.317"/>
</g>
<!-- Node6 -->
<g id="node6" class="node"><title>Node6</title>
<g id="a_node6"><a xlink:href="classscram_1_1core_1_1Zbdd.xhtml#a77945d28bd832d2735969d0b0a451c78" target="_top" xlink:title="Runs the analysis with the representation of a Boolean graph as ZBDD. ">
<polygon fill="white" stroke="black" points="311,-104 311,-134 413,-134 413,-104 311,-104"/>
<text text-anchor="start" x="319" y="-122" font-family="Helvetica,sans-Serif" font-size="10.00">scram::core::Zbdd::</text>
<text text-anchor="middle" x="362" y="-111" font-family="Helvetica,sans-Serif" font-size="10.00">Analyze</text>
</a>
</g>
</g>
<!-- Node5&#45;&gt;Node6 -->
<g id="edge6" class="edge"><title>Node5&#45;&gt;Node6</title>
<path fill="none" stroke="midnightblue" d="M261.72,-149.887C278.464,-144.678 296.54,-139.054 312.62,-134.052"/>
<polygon fill="midnightblue" stroke="midnightblue" points="260.549,-146.586 252.04,-152.899 262.629,-153.27 260.549,-146.586"/>
</g>
<!-- Node5&#45;&gt;Node7 -->
<g id="edge7" class="edge"><title>Node5&#45;&gt;Node7</title>
<path fill="none" stroke="midnightblue" d="M263.767,-185.376C274.119,-187.909 284.82,-190.249 295,-192 354.21,-202.185 422.674,-207.253 470.745,-209.731"/>
<polygon fill="midnightblue" stroke="midnightblue" points="264.53,-181.959 253.977,-182.901 262.815,-188.746 264.53,-181.959"/>
</g>
<!-- Node8 -->
<g id="node8" class="node"><title>Node8</title>
<g id="a_node8"><a xlink:href="classscram_1_1core_1_1Zbdd.xhtml#a499a8bc4bc3854e7b2928c08515243cf" target="_top" xlink:title="Specialization of Apply for AND operator for non&#45;terminal ZBDD vertices. ">
<polygon fill="white" stroke="black" points="311,-55 311,-85 413,-85 413,-55 311,-55"/>
<text text-anchor="start" x="319" y="-73" font-family="Helvetica,sans-Serif" font-size="10.00">scram::core::Zbdd::</text>
<text text-anchor="middle" x="362" y="-62" font-family="Helvetica,sans-Serif" font-size="10.00">Apply</text>
</a>
</g>
</g>
<!-- Node5&#45;&gt;Node8 -->
<g id="edge8" class="edge"><title>Node5&#45;&gt;Node8</title>
<path fill="none" stroke="midnightblue" d="M226.346,-145.905C243.965,-129.806 269.55,-108.383 295,-94 300.838,-90.7006 307.214,-87.7111 313.627,-85.0507"/>
<polygon fill="midnightblue" stroke="midnightblue" points="223.781,-143.511 218.841,-152.883 228.548,-148.638 223.781,-143.511"/>
</g>
<!-- Node9 -->
<g id="node9" class="node"><title>Node9</title>
<g id="a_node9"><a xlink:href="classscram_1_1core_1_1Zbdd.xhtml#ac3ac27090b550d973b20bd971c3de9f9" target="_top" xlink:title="Removes complements of variables from products. ">
<polygon fill="white" stroke="black" points="303,-6 303,-36 421,-36 421,-6 303,-6"/>
<text text-anchor="start" x="311" y="-24" font-family="Helvetica,sans-Serif" font-size="10.00">scram::core::Zbdd::</text>
<text text-anchor="middle" x="362" y="-13" font-family="Helvetica,sans-Serif" font-size="10.00">EliminateComplements</text>
</a>
</g>
</g>
<!-- Node5&#45;&gt;Node9 -->
<g id="edge9" class="edge"><title>Node5&#45;&gt;Node9</title>
<path fill="none" stroke="midnightblue" d="M215.743,-143.94C230.88,-116.421 259.099,-71.7293 295,-45 299.596,-41.5779 304.73,-38.6033 310.048,-36.0274"/>
<polygon fill="midnightblue" stroke="midnightblue" points="212.58,-142.432 210.943,-152.9 218.75,-145.738 212.58,-142.432"/>
</g>
<!-- Node11 -->
<g id="node11" class="node"><title>Node11</title>
<g id="a_node11"><a xlink:href="classscram_1_1core_1_1Zbdd.xhtml#aeb83fd37f2aee74ac41e6ccadba82d39" target="_top" xlink:title="Removes constant modules from products. ">
<polygon fill="white" stroke="black" points="295,-241 295,-271 429,-271 429,-241 295,-241"/>
<text text-anchor="start" x="303" y="-259" font-family="Helvetica,sans-Serif" font-size="10.00">scram::core::Zbdd::</text>
<text text-anchor="middle" x="362" y="-248" font-family="Helvetica,sans-Serif" font-size="10.00">EliminateConstantModules</text>
</a>
</g>
</g>
<!-- Node5&#45;&gt;Node11 -->
<g id="edge12" class="edge"><title>Node5&#45;&gt;Node11</title>
<path fill="none" stroke="midnightblue" d="M234.183,-188.949C251.653,-200.493 274.15,-214.723 295,-226 304.632,-231.209 315.34,-236.343 325.28,-240.85"/>
<polygon fill="midnightblue" stroke="midnightblue" points="235.804,-185.823 225.542,-183.188 231.92,-191.647 235.804,-185.823"/>
</g>
<!-- Node13 -->
<g id="node13" class="node"><title>Node13</title>
<g id="a_node13"><a xlink:href="classscram_1_1core_1_1zbdd_1_1CutSetContainer.xhtml#a1648d3f24a95302fac2a40e95f743dda" target="_top" xlink:title="Minimizes cut sets in the container. ">
<polygon fill="white" stroke="black" points="295,-153 295,-183 429,-183 429,-153 295,-153"/>
<text text-anchor="start" x="303" y="-171" font-family="Helvetica,sans-Serif" font-size="10.00">scram::core::zbdd::</text>
<text text-anchor="middle" x="362" y="-160" font-family="Helvetica,sans-Serif" font-size="10.00">CutSetContainer::Minimize</text>
</a>
</g>
</g>
<!-- Node5&#45;&gt;Node13 -->
<g id="edge15" class="edge"><title>Node5&#45;&gt;Node13</title>
<path fill="none" stroke="midnightblue" d="M264.074,-168C274.139,-168 284.623,-168 294.818,-168"/>
<polygon fill="midnightblue" stroke="midnightblue" points="263.767,-164.5 253.767,-168 263.767,-171.5 263.767,-164.5"/>
</g>
<!-- Node9&#45;&gt;Node7 -->
<g id="edge10" class="edge"><title>Node9&#45;&gt;Node7</title>
<path fill="none" stroke="midnightblue" d="M424.117,-41.3781C425.807,-42.5233 427.44,-43.7296 429,-45 484.468,-90.1724 518.244,-173.61 528.591,-202.137"/>
<polygon fill="midnightblue" stroke="midnightblue" points="425.653,-38.2204 415.263,-36.1471 422.092,-44.2472 425.653,-38.2204"/>
</g>
<!-- Node10 -->
<g id="node10" class="node"><title>Node10</title>
<g id="a_node10"><a xlink:href="classscram_1_1core_1_1zbdd_1_1CutSetContainer.xhtml#a49532388bd9b917f4351f94f728518aa" target="_top" xlink:title="Eliminates all complements from cut sets. ">
<polygon fill="white" stroke="black" points="465,-0.5 465,-41.5 601,-41.5 601,-0.5 465,-0.5"/>
<text text-anchor="start" x="473" y="-29.5" font-family="Helvetica,sans-Serif" font-size="10.00">scram::core::zbdd::</text>
<text text-anchor="start" x="473" y="-18.5" font-family="Helvetica,sans-Serif" font-size="10.00">CutSetContainer::Eliminate</text>
<text text-anchor="middle" x="533" y="-7.5" font-family="Helvetica,sans-Serif" font-size="10.00">Complements</text>
</a>
</g>
</g>
<!-- Node9&#45;&gt;Node10 -->
<g id="edge11" class="edge"><title>Node9&#45;&gt;Node10</title>
<path fill="none" stroke="midnightblue" d="M431.184,-21C442.242,-21 453.687,-21 464.723,-21"/>
<polygon fill="midnightblue" stroke="midnightblue" points="431.16,-17.5001 421.16,-21 431.16,-24.5001 431.16,-17.5001"/>
</g>
<!-- Node11&#45;&gt;Node7 -->
<g id="edge13" class="edge"><title>Node11&#45;&gt;Node7</title>
<path fill="none" stroke="midnightblue" d="M430.415,-238.448C452.616,-232.668 476.46,-226.46 495.464,-221.512"/>
<polygon fill="midnightblue" stroke="midnightblue" points="429.483,-235.074 420.688,-240.981 431.247,-241.848 429.483,-235.074"/>
</g>
<!-- Node12 -->
<g id="node12" class="node"><title>Node12</title>
<g id="a_node12"><a xlink:href="classscram_1_1core_1_1zbdd_1_1CutSetContainer.xhtml#a1022ad7a4699257a6f0c0809d8f1903d" target="_top" xlink:title="Removes constant modules from cut sets. ">
<polygon fill="white" stroke="black" points="465,-240.5 465,-281.5 601,-281.5 601,-240.5 465,-240.5"/>
<text text-anchor="start" x="473" y="-269.5" font-family="Helvetica,sans-Serif" font-size="10.00">scram::core::zbdd::</text>
<text text-anchor="start" x="473" y="-258.5" font-family="Helvetica,sans-Serif" font-size="10.00">CutSetContainer::Eliminate</text>
<text text-anchor="middle" x="533" y="-247.5" font-family="Helvetica,sans-Serif" font-size="10.00">ConstantModules</text>
</a>
</g>
</g>
<!-- Node11&#45;&gt;Node12 -->
<g id="edge14" class="edge"><title>Node11&#45;&gt;Node12</title>
<path fill="none" stroke="midnightblue" d="M439.511,-258.264C447.938,-258.513 456.471,-258.765 464.772,-259.011"/>
<polygon fill="midnightblue" stroke="midnightblue" points="439.407,-254.759 429.308,-257.962 439.2,-261.756 439.407,-254.759"/>
</g>
</g>
</svg>
