<?xml version="1.0" encoding="UTF-8" standalone="no"?>
<!DOCTYPE svg PUBLIC "-//W3C//DTD SVG 1.1//EN"
 "http://www.w3.org/Graphics/SVG/1.1/DTD/svg11.dtd">
<!-- Generated by graphviz version 2.38.0 (20140413.2041)
 -->
<!-- Title: scram::mef::NodeMark Pages: 1 -->
<svg width="236pt" height="270pt"
 viewBox="0.00 0.00 236.00 270.00" xmlns="http://www.w3.org/2000/svg" xmlns:xlink="http://www.w3.org/1999/xlink">
<g id="graph0" class="graph" transform="scale(1 1) rotate(0) translate(4 266)">
<title>scram::mef::NodeMark</title>
<polygon fill="white" stroke="none" points="-4,4 -4,-266 232,-266 232,4 -4,4"/>
<!-- Node1 -->
<g id="node1" class="node"><title>Node1</title>
<polygon fill="#bfbfbf" stroke="black" points="49,-182.5 49,-261.5 166,-261.5 166,-182.5 49,-182.5"/>
<text text-anchor="middle" x="107.5" y="-249.5" font-family="Helvetica,sans-Serif" font-size="10.00">scram::mef::NodeMark</text>
<polyline fill="none" stroke="black" points="49,-242.5 166,-242.5 "/>
<text text-anchor="middle" x="107.5" y="-230.5" font-family="Helvetica,sans-Serif" font-size="10.00"> </text>
<polyline fill="none" stroke="black" points="49,-223.5 166,-223.5 "/>
<text text-anchor="start" x="57" y="-211.5" font-family="Helvetica,sans-Serif" font-size="10.00">+ mark()</text>
<text text-anchor="start" x="57" y="-200.5" font-family="Helvetica,sans-Serif" font-size="10.00">+ mark()</text>
<text text-anchor="start" x="57" y="-189.5" font-family="Helvetica,sans-Serif" font-size="10.00"># ~NodeMark()</text>
</g>
<!-- Node2 -->
<g id="node2" class="node"><title>Node2</title>
<g id="a_node2"><a xlink:href="classscram_1_1mef_1_1Gate.xhtml" target="_top" xlink:title="A representation of a gate in a fault tree. ">
<polygon fill="white" stroke="black" points="0,-17 0,-129 93,-129 93,-17 0,-17"/>
<text text-anchor="middle" x="46.5" y="-117" font-family="Helvetica,sans-Serif" font-size="10.00">scram::mef::Gate</text>
<polyline fill="none" stroke="black" points="0,-110 93,-110 "/>
<text text-anchor="middle" x="46.5" y="-98" font-family="Helvetica,sans-Serif" font-size="10.00"> </text>
<polyline fill="none" stroke="black" points="0,-91 93,-91 "/>
<text text-anchor="start" x="8" y="-79" font-family="Helvetica,sans-Serif" font-size="10.00">+ formula()</text>
<text text-anchor="start" x="8" y="-68" font-family="Helvetica,sans-Serif" font-size="10.00">+ Validate()</text>
<text text-anchor="start" x="8" y="-57" font-family="Helvetica,sans-Serif" font-size="10.00">+ formula()</text>
<text text-anchor="start" x="8" y="-46" font-family="Helvetica,sans-Serif" font-size="10.00">+ formula()</text>
<text text-anchor="start" x="8" y="-35" font-family="Helvetica,sans-Serif" font-size="10.00">* formula()</text>
<text text-anchor="start" x="8" y="-24" font-family="Helvetica,sans-Serif" font-size="10.00">* formula()</text>
</a>
</g>
</g>
<!-- Node1&#45;&gt;Node2 -->
<g id="edge1" class="edge"><title>Node1&#45;&gt;Node2</title>
<path fill="none" stroke="midnightblue" d="M87.5632,-172.956C81.7639,-158.98 75.3833,-143.604 69.4162,-129.224"/>
<polygon fill="none" stroke="midnightblue" points="84.4074,-174.483 91.473,-182.377 90.8729,-171.8 84.4074,-174.483"/>
</g>
<!-- Node3 -->
<g id="node3" class="node"><title>Node3</title>
<g id="a_node3"><a xlink:href="classscram_1_1mef_1_1Parameter.xhtml" target="_top" xlink:title="This class provides a representation of a variable in basic event description. ">
<polygon fill="white" stroke="black" points="111,-0.5 111,-145.5 228,-145.5 228,-0.5 111,-0.5"/>
<text text-anchor="middle" x="169.5" y="-133.5" font-family="Helvetica,sans-Serif" font-size="10.00">scram::mef::Parameter</text>
<polyline fill="none" stroke="black" points="111,-126.5 228,-126.5 "/>
<text text-anchor="middle" x="169.5" y="-114.5" font-family="Helvetica,sans-Serif" font-size="10.00"> </text>
<polyline fill="none" stroke="black" points="111,-107.5 228,-107.5 "/>
<text text-anchor="start" x="119" y="-95.5" font-family="Helvetica,sans-Serif" font-size="10.00">+ Parameter()</text>
<text text-anchor="start" x="119" y="-84.5" font-family="Helvetica,sans-Serif" font-size="10.00">+ expression()</text>
<text text-anchor="start" x="119" y="-73.5" font-family="Helvetica,sans-Serif" font-size="10.00">+ unit()</text>
<text text-anchor="start" x="119" y="-62.5" font-family="Helvetica,sans-Serif" font-size="10.00">+ unit()</text>
<text text-anchor="start" x="119" y="-51.5" font-family="Helvetica,sans-Serif" font-size="10.00">+ unused()</text>
<text text-anchor="start" x="119" y="-40.5" font-family="Helvetica,sans-Serif" font-size="10.00">+ unused()</text>
<text text-anchor="start" x="119" y="-29.5" font-family="Helvetica,sans-Serif" font-size="10.00">+ Mean()</text>
<text text-anchor="start" x="119" y="-18.5" font-family="Helvetica,sans-Serif" font-size="10.00">+ Max()</text>
<text text-anchor="start" x="119" y="-7.5" font-family="Helvetica,sans-Serif" font-size="10.00">+ Min()</text>
</a>
</g>
</g>
<!-- Node1&#45;&gt;Node3 -->
<g id="edge2" class="edge"><title>Node1&#45;&gt;Node3</title>
<path fill="none" stroke="midnightblue" d="M127.708,-173.086C131.416,-164.296 135.359,-154.948 139.285,-145.64"/>
<polygon fill="none" stroke="midnightblue" points="124.451,-171.803 123.79,-182.377 130.901,-174.524 124.451,-171.803"/>
</g>
</g>
</svg>
