<?xml version="1.0" encoding="UTF-8" standalone="no"?>
<!DOCTYPE svg PUBLIC "-//W3C//DTD SVG 1.1//EN"
 "http://www.w3.org/Graphics/SVG/1.1/DTD/svg11.dtd">
<!-- Generated by graphviz version 2.38.0 (20140413.2041)
 -->
<!-- Title: scram::core::Ite Pages: 1 -->
<svg width="284pt" height="906pt"
 viewBox="0.00 0.00 283.50 906.00" xmlns="http://www.w3.org/2000/svg" xmlns:xlink="http://www.w3.org/1999/xlink">
<g id="graph0" class="graph" transform="scale(1 1) rotate(0) translate(4 902)">
<title>scram::core::Ite</title>
<polygon fill="white" stroke="none" points="-4,4 -4,-902 279.5,-902 279.5,4 -4,4"/>
<!-- Node1 -->
<g id="node1" class="node"><title>Node1</title>
<polygon fill="#bfbfbf" stroke="black" points="40,-0.5 40,-123.5 151,-123.5 151,-0.5 40,-0.5"/>
<text text-anchor="middle" x="95.5" y="-111.5" font-family="Helvetica,sans-Serif" font-size="10.00">scram::core::Ite</text>
<polyline fill="none" stroke="black" points="40,-104.5 151,-104.5 "/>
<text text-anchor="middle" x="95.5" y="-92.5" font-family="Helvetica,sans-Serif" font-size="10.00"> </text>
<polyline fill="none" stroke="black" points="40,-85.5 151,-85.5 "/>
<text text-anchor="start" x="48" y="-73.5" font-family="Helvetica,sans-Serif" font-size="10.00">+ complement_edge()</text>
<text text-anchor="start" x="48" y="-62.5" font-family="Helvetica,sans-Serif" font-size="10.00">+ complement_edge()</text>
<text text-anchor="start" x="48" y="-51.5" font-family="Helvetica,sans-Serif" font-size="10.00">+ p()</text>
<text text-anchor="start" x="48" y="-40.5" font-family="Helvetica,sans-Serif" font-size="10.00">+ p()</text>
<text text-anchor="start" x="48" y="-29.5" font-family="Helvetica,sans-Serif" font-size="10.00">+ factor()</text>
<text text-anchor="start" x="48" y="-18.5" font-family="Helvetica,sans-Serif" font-size="10.00">+ factor()</text>
<text text-anchor="start" x="48" y="-7.5" font-family="Helvetica,sans-Serif" font-size="10.00">+ Ptr()</text>
</g>
<!-- Node2 -->
<g id="node2" class="node"><title>Node2</title>
<g id="a_node2"><a xlink:href="classscram_1_1core_1_1NonTerminal.xhtml" target="_top" xlink:title="{scram::core::NonTerminal\l\&lt; Ite \&gt;\n||+ NonTerminal()\l+ index()\l+ order()\l+ module()\l+ module()\l+ coherent()\l+ coherent()\l+ high()\l+ low()\l+ mark()\l+ mark()\l# ~NonTerminal()\l# CutBranches()\l* get_high_id\l* get_low_id\l}">
<polygon fill="white" stroke="black" points="30.5,-161.5 30.5,-383.5 160.5,-383.5 160.5,-161.5 30.5,-161.5"/>
<text text-anchor="start" x="38.5" y="-371.5" font-family="Helvetica,sans-Serif" font-size="10.00">scram::core::NonTerminal</text>
<text text-anchor="middle" x="95.5" y="-360.5" font-family="Helvetica,sans-Serif" font-size="10.00">&lt; Ite &gt;</text>
<polyline fill="none" stroke="black" points="30.5,-353.5 160.5,-353.5 "/>
<text text-anchor="middle" x="95.5" y="-341.5" font-family="Helvetica,sans-Serif" font-size="10.00"> </text>
<polyline fill="none" stroke="black" points="30.5,-334.5 160.5,-334.5 "/>
<text text-anchor="start" x="38.5" y="-322.5" font-family="Helvetica,sans-Serif" font-size="10.00">+ NonTerminal()</text>
<text text-anchor="start" x="38.5" y="-311.5" font-family="Helvetica,sans-Serif" font-size="10.00">+ index()</text>
<text text-anchor="start" x="38.5" y="-300.5" font-family="Helvetica,sans-Serif" font-size="10.00">+ order()</text>
<text text-anchor="start" x="38.5" y="-289.5" font-family="Helvetica,sans-Serif" font-size="10.00">+ module()</text>
<text text-anchor="start" x="38.5" y="-278.5" font-family="Helvetica,sans-Serif" font-size="10.00">+ module()</text>
<text text-anchor="start" x="38.5" y="-267.5" font-family="Helvetica,sans-Serif" font-size="10.00">+ coherent()</text>
<text text-anchor="start" x="38.5" y="-256.5" font-family="Helvetica,sans-Serif" font-size="10.00">+ coherent()</text>
<text text-anchor="start" x="38.5" y="-245.5" font-family="Helvetica,sans-Serif" font-size="10.00">+ high()</text>
<text text-anchor="start" x="38.5" y="-234.5" font-family="Helvetica,sans-Serif" font-size="10.00">+ low()</text>
<text text-anchor="start" x="38.5" y="-223.5" font-family="Helvetica,sans-Serif" font-size="10.00">+ mark()</text>
<text text-anchor="start" x="38.5" y="-212.5" font-family="Helvetica,sans-Serif" font-size="10.00">+ mark()</text>
<text text-anchor="start" x="38.5" y="-201.5" font-family="Helvetica,sans-Serif" font-size="10.00"># ~NonTerminal()</text>
<text text-anchor="start" x="38.5" y="-190.5" font-family="Helvetica,sans-Serif" font-size="10.00"># CutBranches()</text>
<text text-anchor="start" x="38.5" y="-179.5" font-family="Helvetica,sans-Serif" font-size="10.00">* get_high_id</text>
<text text-anchor="start" x="38.5" y="-168.5" font-family="Helvetica,sans-Serif" font-size="10.00">* get_low_id</text>
</a>
</g>
</g>
<!-- Node2&#45;&gt;Node1 -->
<g id="edge1" class="edge"><title>Node2&#45;&gt;Node1</title>
<path fill="none" stroke="midnightblue" d="M95.5,-151.418C95.5,-141.841 95.5,-132.447 95.5,-123.569"/>
<polygon fill="none" stroke="midnightblue" points="92.0001,-151.45 95.5,-161.45 99.0001,-151.45 92.0001,-151.45"/>
</g>
<!-- Node3 -->
<g id="node3" class="node"><title>Node3</title>
<g id="a_node3"><a xlink:href="classscram_1_1core_1_1Vertex.xhtml" target="_top" xlink:title="{scram::core::Vertex\l\&lt; Ite \&gt;\n||+ Vertex()\l+ id()\l+ terminal()\l+ use_count()\l+ unique()\l# ~Vertex()\l}">
<polygon fill="white" stroke="black" points="0,-475.5 0,-598.5 103,-598.5 103,-475.5 0,-475.5"/>
<text text-anchor="start" x="8" y="-586.5" font-family="Helvetica,sans-Serif" font-size="10.00">scram::core::Vertex</text>
<text text-anchor="middle" x="51.5" y="-575.5" font-family="Helvetica,sans-Serif" font-size="10.00">&lt; Ite &gt;</text>
<polyline fill="none" stroke="black" points="0,-568.5 103,-568.5 "/>
<text text-anchor="middle" x="51.5" y="-556.5" font-family="Helvetica,sans-Serif" font-size="10.00"> </text>
<polyline fill="none" stroke="black" points="0,-549.5 103,-549.5 "/>
<text text-anchor="start" x="8" y="-537.5" font-family="Helvetica,sans-Serif" font-size="10.00">+ Vertex()</text>
<text text-anchor="start" x="8" y="-526.5" font-family="Helvetica,sans-Serif" font-size="10.00">+ id()</text>
<text text-anchor="start" x="8" y="-515.5" font-family="Helvetica,sans-Serif" font-size="10.00">+ terminal()</text>
<text text-anchor="start" x="8" y="-504.5" font-family="Helvetica,sans-Serif" font-size="10.00">+ use_count()</text>
<text text-anchor="start" x="8" y="-493.5" font-family="Helvetica,sans-Serif" font-size="10.00">+ unique()</text>
<text text-anchor="start" x="8" y="-482.5" font-family="Helvetica,sans-Serif" font-size="10.00"># ~Vertex()</text>
</a>
</g>
</g>
<!-- Node3&#45;&gt;Node2 -->
<g id="edge2" class="edge"><title>Node3&#45;&gt;Node2</title>
<path fill="none" stroke="midnightblue" d="M63.3498,-465.305C67.5557,-440.213 72.3954,-411.34 77.0218,-383.739"/>
<polygon fill="none" stroke="midnightblue" points="59.8511,-465.007 61.6497,-475.448 66.7548,-466.164 59.8511,-465.007"/>
</g>
<!-- Node4 -->
<g id="node4" class="node"><title>Node4</title>
<polygon fill="white" stroke="#bfbfbf" points="45,-840.5 45,-897.5 116,-897.5 116,-840.5 45,-840.5"/>
<text text-anchor="middle" x="80.5" y="-885.5" font-family="Helvetica,sans-Serif" font-size="10.00">noncopyable</text>
<polyline fill="none" stroke="#bfbfbf" points="45,-878.5 116,-878.5 "/>
<text text-anchor="middle" x="80.5" y="-866.5" font-family="Helvetica,sans-Serif" font-size="10.00"> </text>
<polyline fill="none" stroke="#bfbfbf" points="45,-859.5 116,-859.5 "/>
<text text-anchor="middle" x="80.5" y="-847.5" font-family="Helvetica,sans-Serif" font-size="10.00"> </text>
</g>
<!-- Node4&#45;&gt;Node3 -->
<g id="edge3" class="edge"><title>Node4&#45;&gt;Node3</title>
<path fill="none" stroke="#8b1a1a" d="M74.1449,-830.132C72.8012,-821.25 71.4916,-811.807 70.5,-803 62.6304,-733.101 57.3943,-652.442 54.4468,-598.646"/>
<polygon fill="none" stroke="#8b1a1a" points="70.7208,-830.89 75.7209,-840.231 77.6371,-829.811 70.7208,-830.89"/>
</g>
<!-- Node5 -->
<g id="node5" class="node"><title>Node5</title>
<g id="a_node5"><a xlink:href="classscram_1_1core_1_1Vertex.xhtml" target="_top" xlink:title="Representation of a vertex in BDD graphs. ">
<polygon fill="white" stroke="black" points="80,-690.5 80,-802.5 207,-802.5 207,-690.5 80,-690.5"/>
<text text-anchor="middle" x="143.5" y="-790.5" font-family="Helvetica,sans-Serif" font-size="10.00">scram::core::Vertex&lt; T &gt;</text>
<polyline fill="none" stroke="black" points="80,-783.5 207,-783.5 "/>
<text text-anchor="middle" x="143.5" y="-771.5" font-family="Helvetica,sans-Serif" font-size="10.00"> </text>
<polyline fill="none" stroke="black" points="80,-764.5 207,-764.5 "/>
<text text-anchor="start" x="88" y="-752.5" font-family="Helvetica,sans-Serif" font-size="10.00">+ Vertex()</text>
<text text-anchor="start" x="88" y="-741.5" font-family="Helvetica,sans-Serif" font-size="10.00">+ id()</text>
<text text-anchor="start" x="88" y="-730.5" font-family="Helvetica,sans-Serif" font-size="10.00">+ terminal()</text>
<text text-anchor="start" x="88" y="-719.5" font-family="Helvetica,sans-Serif" font-size="10.00">+ use_count()</text>
<text text-anchor="start" x="88" y="-708.5" font-family="Helvetica,sans-Serif" font-size="10.00">+ unique()</text>
<text text-anchor="start" x="88" y="-697.5" font-family="Helvetica,sans-Serif" font-size="10.00"># ~Vertex()</text>
</a>
</g>
</g>
<!-- Node4&#45;&gt;Node5 -->
<g id="edge5" class="edge"><title>Node4&#45;&gt;Node5</title>
<path fill="none" stroke="#8b1a1a" d="M99.7093,-831.258C104.447,-822.196 109.625,-812.292 114.709,-802.569"/>
<polygon fill="none" stroke="#8b1a1a" points="96.4851,-829.871 94.9535,-840.355 102.688,-833.115 96.4851,-829.871"/>
</g>
<!-- Node5&#45;&gt;Node3 -->
<g id="edge4" class="edge"><title>Node5&#45;&gt;Node3</title>
<path fill="none" stroke="orange" d="M114.89,-680.973C103.267,-654.757 89.9068,-624.624 78.4577,-598.801"/>
<polygon fill="orange" stroke="orange" points="111.834,-682.715 119.087,-690.439 118.234,-679.878 111.834,-682.715"/>
<text text-anchor="middle" x="125" y="-664" font-family="Helvetica,sans-Serif" font-size="10.00"> &lt; Ite &gt;</text>
</g>
<!-- Node6 -->
<g id="node6" class="node"><title>Node6</title>
<g id="a_node6"><a xlink:href="classscram_1_1core_1_1NonTerminal.xhtml" target="_top" xlink:title="Representation of non&#45;terminal vertices in BDD graphs. ">
<polygon fill="white" stroke="black" points="121.5,-431.5 121.5,-642.5 275.5,-642.5 275.5,-431.5 121.5,-431.5"/>
<text text-anchor="middle" x="198.5" y="-630.5" font-family="Helvetica,sans-Serif" font-size="10.00">scram::core::NonTerminal&lt; T &gt;</text>
<polyline fill="none" stroke="black" points="121.5,-623.5 275.5,-623.5 "/>
<text text-anchor="middle" x="198.5" y="-611.5" font-family="Helvetica,sans-Serif" font-size="10.00"> </text>
<polyline fill="none" stroke="black" points="121.5,-604.5 275.5,-604.5 "/>
<text text-anchor="start" x="129.5" y="-592.5" font-family="Helvetica,sans-Serif" font-size="10.00">+ NonTerminal()</text>
<text text-anchor="start" x="129.5" y="-581.5" font-family="Helvetica,sans-Serif" font-size="10.00">+ index()</text>
<text text-anchor="start" x="129.5" y="-570.5" font-family="Helvetica,sans-Serif" font-size="10.00">+ order()</text>
<text text-anchor="start" x="129.5" y="-559.5" font-family="Helvetica,sans-Serif" font-size="10.00">+ module()</text>
<text text-anchor="start" x="129.5" y="-548.5" font-family="Helvetica,sans-Serif" font-size="10.00">+ module()</text>
<text text-anchor="start" x="129.5" y="-537.5" font-family="Helvetica,sans-Serif" font-size="10.00">+ coherent()</text>
<text text-anchor="start" x="129.5" y="-526.5" font-family="Helvetica,sans-Serif" font-size="10.00">+ coherent()</text>
<text text-anchor="start" x="129.5" y="-515.5" font-family="Helvetica,sans-Serif" font-size="10.00">+ high()</text>
<text text-anchor="start" x="129.5" y="-504.5" font-family="Helvetica,sans-Serif" font-size="10.00">+ low()</text>
<text text-anchor="start" x="129.5" y="-493.5" font-family="Helvetica,sans-Serif" font-size="10.00">+ mark()</text>
<text text-anchor="start" x="129.5" y="-482.5" font-family="Helvetica,sans-Serif" font-size="10.00">+ mark()</text>
<text text-anchor="start" x="129.5" y="-471.5" font-family="Helvetica,sans-Serif" font-size="10.00"># ~NonTerminal()</text>
<text text-anchor="start" x="129.5" y="-460.5" font-family="Helvetica,sans-Serif" font-size="10.00"># CutBranches()</text>
<text text-anchor="start" x="129.5" y="-449.5" font-family="Helvetica,sans-Serif" font-size="10.00">* get_high_id</text>
<text text-anchor="start" x="129.5" y="-438.5" font-family="Helvetica,sans-Serif" font-size="10.00">* get_low_id</text>
</a>
</g>
</g>
<!-- Node5&#45;&gt;Node6 -->
<g id="edge7" class="edge"><title>Node5&#45;&gt;Node6</title>
<path fill="none" stroke="midnightblue" d="M160.724,-680.52C163.919,-668.464 167.331,-655.591 170.749,-642.699"/>
<polygon fill="none" stroke="midnightblue" points="157.274,-679.876 158.095,-690.439 164.04,-681.669 157.274,-679.876"/>
</g>
<!-- Node6&#45;&gt;Node2 -->
<g id="edge6" class="edge"><title>Node6&#45;&gt;Node2</title>
<path fill="none" stroke="orange" d="M153.712,-421.857C148.739,-409.182 143.681,-396.292 138.728,-383.668"/>
<polygon fill="orange" stroke="orange" points="150.585,-423.468 157.496,-431.499 157.101,-420.911 150.585,-423.468"/>
<text text-anchor="middle" x="167" y="-405" font-family="Helvetica,sans-Serif" font-size="10.00"> &lt; Ite &gt;</text>
</g>
</g>
</svg>
