<?xml version="1.0" encoding="UTF-8" standalone="no"?>
<!DOCTYPE svg PUBLIC "-//W3C//DTD SVG 1.1//EN"
 "http://www.w3.org/Graphics/SVG/1.1/DTD/svg11.dtd">
<!-- Generated by graphviz version 2.38.0 (20140413.2041)
 -->
<!-- Title: scram::core::Node::index Pages: 1 -->
<svg width="283pt" height="527pt"
 viewBox="0.00 0.00 283.00 526.50" xmlns="http://www.w3.org/2000/svg" xmlns:xlink="http://www.w3.org/1999/xlink">
<g id="graph0" class="graph" transform="scale(1 1) rotate(0) translate(4 522.5)">
<title>scram::core::Node::index</title>
<polygon fill="white" stroke="none" points="-4,4 -4,-522.5 279,-522.5 279,4 -4,4"/>
<!-- Node1 -->
<g id="node1" class="node"><title>Node1</title>
<polygon fill="#bfbfbf" stroke="black" points="0,-225 0,-255 104,-255 104,-225 0,-225"/>
<text text-anchor="start" x="8" y="-243" font-family="Helvetica,sans-Serif" font-size="10.00">scram::core::Node::</text>
<text text-anchor="middle" x="52" y="-232" font-family="Helvetica,sans-Serif" font-size="10.00">index</text>
</g>
<!-- Node2 -->
<g id="node2" class="node"><title>Node2</title>
<g id="a_node2"><a xlink:href="classscram_1_1core_1_1Gate.xhtml#a9f9390cdf7bfb3c552a7ef843629ddc0" target="_top" xlink:title="Clones arguments and parameters. ">
<polygon fill="white" stroke="black" points="157,-488 157,-518 258,-518 258,-488 157,-488"/>
<text text-anchor="start" x="165" y="-506" font-family="Helvetica,sans-Serif" font-size="10.00">scram::core::Gate::</text>
<text text-anchor="middle" x="207.5" y="-495" font-family="Helvetica,sans-Serif" font-size="10.00">Clone</text>
</a>
</g>
</g>
<!-- Node1&#45;&gt;Node2 -->
<g id="edge1" class="edge"><title>Node1&#45;&gt;Node2</title>
<path fill="none" stroke="midnightblue" d="M55.2524,-265.389C60.8568,-313.574 79.6656,-418.831 140,-479 144.78,-483.767 150.576,-487.593 156.73,-490.663"/>
<polygon fill="midnightblue" stroke="midnightblue" points="58.7085,-264.789 54.1697,-255.216 51.7478,-265.53 58.7085,-264.789"/>
</g>
<!-- Node3 -->
<g id="node3" class="node"><title>Node3</title>
<g id="a_node3"><a xlink:href="classscram_1_1core_1_1Gate.xhtml#afb7c7d1264436f419af973286a4b2439" target="_top" xlink:title="Adds arguments of an argument gate to this gate. ">
<polygon fill="white" stroke="black" points="157,-439 157,-469 258,-469 258,-439 157,-439"/>
<text text-anchor="start" x="165" y="-457" font-family="Helvetica,sans-Serif" font-size="10.00">scram::core::Gate::</text>
<text text-anchor="middle" x="207.5" y="-446" font-family="Helvetica,sans-Serif" font-size="10.00">CoalesceGate</text>
</a>
</g>
</g>
<!-- Node1&#45;&gt;Node3 -->
<g id="edge2" class="edge"><title>Node1&#45;&gt;Node3</title>
<path fill="none" stroke="midnightblue" d="M57.9033,-264.97C67.0619,-305.199 90.4969,-384.446 140,-430 144.877,-434.488 150.656,-438.151 156.738,-441.136"/>
<polygon fill="midnightblue" stroke="midnightblue" points="61.3188,-264.204 55.7816,-255.171 54.4773,-265.686 61.3188,-264.204"/>
</g>
<!-- Node4 -->
<g id="node4" class="node"><title>Node4</title>
<g id="a_node4"><a xlink:href="classscram_1_1core_1_1Gate.xhtml#a73d12e420aa853c4dba99b50cd7d76a6" target="_top" xlink:title="Clears all the arguments of this gate. ">
<polygon fill="white" stroke="black" points="157,-390 157,-420 258,-420 258,-390 157,-390"/>
<text text-anchor="start" x="165" y="-408" font-family="Helvetica,sans-Serif" font-size="10.00">scram::core::Gate::</text>
<text text-anchor="middle" x="207.5" y="-397" font-family="Helvetica,sans-Serif" font-size="10.00">EraseAllArgs</text>
</a>
</g>
</g>
<!-- Node1&#45;&gt;Node4 -->
<g id="edge3" class="edge"><title>Node1&#45;&gt;Node4</title>
<path fill="none" stroke="midnightblue" d="M62.2359,-264.744C75.102,-296.019 101.285,-349.555 140,-381 145.049,-385.101 150.858,-388.533 156.896,-391.397"/>
<polygon fill="midnightblue" stroke="midnightblue" points="65.331,-263.055 58.3843,-255.056 58.8262,-265.641 65.331,-263.055"/>
</g>
<!-- Node5 -->
<g id="node5" class="node"><title>Node5</title>
<g id="a_node5"><a xlink:href="classscram_1_1core_1_1Gate.xhtml#a499891e2b42db9746c9b8f53ef40ee96" target="_top" xlink:title="Removes an argument from the arguments container. ">
<polygon fill="white" stroke="black" points="157,-341 157,-371 258,-371 258,-341 157,-341"/>
<text text-anchor="start" x="165" y="-359" font-family="Helvetica,sans-Serif" font-size="10.00">scram::core::Gate::</text>
<text text-anchor="middle" x="207.5" y="-348" font-family="Helvetica,sans-Serif" font-size="10.00">EraseArg</text>
</a>
</g>
</g>
<!-- Node1&#45;&gt;Node5 -->
<g id="edge4" class="edge"><title>Node1&#45;&gt;Node5</title>
<path fill="none" stroke="midnightblue" d="M69.9406,-263.343C85.9489,-283.927 111.68,-313.452 140,-332 145.237,-335.43 151.026,-338.445 156.94,-341.076"/>
<polygon fill="midnightblue" stroke="midnightblue" points="72.5337,-260.971 63.696,-255.128 66.9607,-265.207 72.5337,-260.971"/>
</g>
<!-- Node6 -->
<g id="node6" class="node"><title>Node6</title>
<g id="a_node6"><a xlink:href="classscram_1_1core_1_1Zbdd.xhtml#ac90d12f0c653c679d22109124fa6344c" target="_top" xlink:title="Find or adds a ZBDD SetNode vertex using information from gates. ">
<polygon fill="white" stroke="black" points="156.5,-274 156.5,-304 258.5,-304 258.5,-274 156.5,-274"/>
<text text-anchor="start" x="164.5" y="-292" font-family="Helvetica,sans-Serif" font-size="10.00">scram::core::Zbdd::</text>
<text text-anchor="middle" x="207.5" y="-281" font-family="Helvetica,sans-Serif" font-size="10.00">FindOrAddVertex</text>
</a>
</g>
</g>
<!-- Node1&#45;&gt;Node6 -->
<g id="edge5" class="edge"><title>Node1&#45;&gt;Node6</title>
<path fill="none" stroke="midnightblue" d="M110.199,-258.259C126.39,-263.427 143.823,-268.992 159.349,-273.948"/>
<polygon fill="midnightblue" stroke="midnightblue" points="110.898,-254.808 100.308,-255.101 108.77,-261.477 110.898,-254.808"/>
</g>
<!-- Node7 -->
<g id="node7" class="node"><title>Node7</title>
<g id="a_node7"><a xlink:href="classscram_1_1core_1_1Preprocessor_1_1GateSet.xhtml#ae00239084858979e096032c4cf2f05b9" target="_top" xlink:title="Inserts a gate into the set if it is semantically unique. ">
<polygon fill="white" stroke="black" points="141.5,-225 141.5,-255 273.5,-255 273.5,-225 141.5,-225"/>
<text text-anchor="start" x="149.5" y="-243" font-family="Helvetica,sans-Serif" font-size="10.00">scram::core::Preprocessor</text>
<text text-anchor="middle" x="207.5" y="-232" font-family="Helvetica,sans-Serif" font-size="10.00">::GateSet::insert</text>
</a>
</g>
</g>
<!-- Node1&#45;&gt;Node7 -->
<g id="edge7" class="edge"><title>Node1&#45;&gt;Node7</title>
<path fill="none" stroke="midnightblue" d="M114.387,-240C123.276,-240 132.452,-240 141.411,-240"/>
<polygon fill="midnightblue" stroke="midnightblue" points="114.113,-236.5 104.113,-240 114.113,-243.5 114.113,-236.5"/>
</g>
<!-- Node8 -->
<g id="node8" class="node"><title>Node8</title>
<g id="a_node8"><a xlink:href="classscram_1_1core_1_1Gate.xhtml#a97e099c6298b6f9096546e839066dee4" target="_top" xlink:title="Swaps a single argument of a NULL type argument gate. ">
<polygon fill="white" stroke="black" points="157,-176 157,-206 258,-206 258,-176 157,-176"/>
<text text-anchor="start" x="165" y="-194" font-family="Helvetica,sans-Serif" font-size="10.00">scram::core::Gate::</text>
<text text-anchor="middle" x="207.5" y="-183" font-family="Helvetica,sans-Serif" font-size="10.00">JoinNullGate</text>
</a>
</g>
</g>
<!-- Node1&#45;&gt;Node8 -->
<g id="edge8" class="edge"><title>Node1&#45;&gt;Node8</title>
<path fill="none" stroke="midnightblue" d="M110.199,-221.741C126.39,-216.573 143.823,-211.008 159.349,-206.052"/>
<polygon fill="midnightblue" stroke="midnightblue" points="108.77,-218.523 100.308,-224.899 110.898,-225.192 108.77,-218.523"/>
</g>
<!-- Node9 -->
<g id="node9" class="node"><title>Node9</title>
<g id="a_node9"><a xlink:href="classscram_1_1core_1_1Mocus.xhtml#a5f8ba8972e30ac19823bbfae32095bb0" target="_top" xlink:title="scram::core::Mocus\l::products">
<polygon fill="white" stroke="black" points="155.5,-127 155.5,-157 259.5,-157 259.5,-127 155.5,-127"/>
<text text-anchor="start" x="163.5" y="-145" font-family="Helvetica,sans-Serif" font-size="10.00">scram::core::Mocus</text>
<text text-anchor="middle" x="207.5" y="-134" font-family="Helvetica,sans-Serif" font-size="10.00">::products</text>
</a>
</g>
</g>
<!-- Node1&#45;&gt;Node9 -->
<g id="edge9" class="edge"><title>Node1&#45;&gt;Node9</title>
<path fill="none" stroke="midnightblue" d="M75.3869,-217.512C92.0639,-201.729 116.008,-181.021 140,-167 146.283,-163.328 153.202,-160.021 160.13,-157.106"/>
<polygon fill="midnightblue" stroke="midnightblue" points="72.5841,-215.353 67.8154,-224.814 77.4432,-220.391 72.5841,-215.353"/>
</g>
<!-- Node10 -->
<g id="node10" class="node"><title>Node10</title>
<g id="a_node10"><a xlink:href="classscram_1_1core_1_1Bdd.xhtml#abb75e2b30e88c46634b4a4b7df90cf8a" target="_top" xlink:title="scram::core::Bdd::products">
<polygon fill="white" stroke="black" points="140,-88.5 140,-107.5 275,-107.5 275,-88.5 140,-88.5"/>
<text text-anchor="middle" x="207.5" y="-95.5" font-family="Helvetica,sans-Serif" font-size="10.00">scram::core::Bdd::products</text>
</a>
</g>
</g>
<!-- Node1&#45;&gt;Node10 -->
<g id="edge10" class="edge"><title>Node1&#45;&gt;Node10</title>
<path fill="none" stroke="midnightblue" d="M64.1368,-215.771C78.0543,-188.133 104.438,-143.481 140,-118 146.076,-113.646 153.109,-110.228 160.28,-107.548"/>
<polygon fill="midnightblue" stroke="midnightblue" points="60.9814,-214.257 59.7393,-224.779 67.2717,-217.328 60.9814,-214.257"/>
</g>
<!-- Node11 -->
<g id="node11" class="node"><title>Node11</title>
<g id="a_node11"><a xlink:href="classscram_1_1core_1_1Gate.xhtml#aff8127ed74cf083d742ede72b3c422e6" target="_top" xlink:title="Transfers this gate&#39;s argument to another gate. ">
<polygon fill="white" stroke="black" points="157,-39 157,-69 258,-69 258,-39 157,-39"/>
<text text-anchor="start" x="165" y="-57" font-family="Helvetica,sans-Serif" font-size="10.00">scram::core::Gate::</text>
<text text-anchor="middle" x="207.5" y="-46" font-family="Helvetica,sans-Serif" font-size="10.00">TransferArg</text>
</a>
</g>
</g>
<!-- Node1&#45;&gt;Node11 -->
<g id="edge11" class="edge"><title>Node1&#45;&gt;Node11</title>
<path fill="none" stroke="midnightblue" d="M60.3381,-214.938C71.8217,-179.874 97.2623,-116.294 140,-79 144.925,-74.702 150.662,-71.112 156.662,-68.1212"/>
<polygon fill="midnightblue" stroke="midnightblue" points="56.8839,-214.255 57.2186,-224.844 63.5607,-216.357 56.8839,-214.255"/>
</g>
<!-- Node12 -->
<g id="node12" class="node"><title>Node12</title>
<g id="a_node12"><a xlink:href="classscram_1_1core_1_1Zbdd.xhtml#af92e04ed908364e0177ce444d7b72712" target="_top" xlink:title="Default constructor to initialize member variables. ">
<polygon fill="white" stroke="black" points="145.5,-0.5 145.5,-19.5 269.5,-19.5 269.5,-0.5 145.5,-0.5"/>
<text text-anchor="middle" x="207.5" y="-7.5" font-family="Helvetica,sans-Serif" font-size="10.00">scram::core::Zbdd::Zbdd</text>
</a>
</g>
</g>
<!-- Node1&#45;&gt;Node12 -->
<g id="edge12" class="edge"><title>Node1&#45;&gt;Node12</title>
<path fill="none" stroke="midnightblue" d="M56.3914,-214.644C63.624,-170.63 84.6793,-80.017 140,-30 144.829,-25.6339 150.58,-22.2198 156.648,-19.5505"/>
<polygon fill="midnightblue" stroke="midnightblue" points="52.8938,-214.362 54.8379,-224.777 59.813,-215.423 52.8938,-214.362"/>
</g>
<!-- Node6&#45;&gt;Node6 -->
<g id="edge6" class="edge"><title>Node6&#45;&gt;Node6</title>
<path fill="none" stroke="midnightblue" d="M180.136,-314.458C183.532,-319.179 192.654,-322.5 207.5,-322.5 231.863,-322.5 240.809,-313.557 234.338,-304.159"/>
<polygon fill="midnightblue" stroke="midnightblue" points="183.647,-314.325 180.662,-304.159 176.656,-313.967 183.647,-314.325"/>
</g>
</g>
</svg>
