<?xml version="1.0" encoding="UTF-8" standalone="no"?>
<!DOCTYPE svg PUBLIC "-//W3C//DTD SVG 1.1//EN"
 "http://www.w3.org/Graphics/SVG/1.1/DTD/svg11.dtd">
<!-- Generated by graphviz version 2.38.0 (20140413.2041)
 -->
<!-- Title: scram::mef::Gate::Validate Pages: 1 -->
<svg width="430pt" height="127pt"
 viewBox="0.00 0.00 430.00 127.00" xmlns="http://www.w3.org/2000/svg" xmlns:xlink="http://www.w3.org/1999/xlink">
<g id="graph0" class="graph" transform="scale(1 1) rotate(0) translate(4 123)">
<title>scram::mef::Gate::Validate</title>
<polygon fill="white" stroke="none" points="-4,4 -4,-123 426,-123 426,4 -4,4"/>
<!-- Node1 -->
<g id="node1" class="node"><title>Node1</title>
<polygon fill="#bfbfbf" stroke="black" points="0,-50 0,-69 134,-69 134,-50 0,-50"/>
<text text-anchor="middle" x="67" y="-57" font-family="Helvetica,sans-Serif" font-size="10.00">scram::mef::Gate::Validate</text>
</g>
<!-- Node2 -->
<g id="node2" class="node"><title>Node2</title>
<g id="a_node2"><a xlink:href="classscram_1_1mef_1_1Element.xhtml#a7db1af9365e25a0ce332a1745441630a" target="_top" xlink:title="scram::mef::Element\l::GetAttribute">
<polygon fill="white" stroke="black" points="170,-88.5 170,-118.5 278,-118.5 278,-88.5 170,-88.5"/>
<text text-anchor="start" x="178" y="-106.5" font-family="Helvetica,sans-Serif" font-size="10.00">scram::mef::Element</text>
<text text-anchor="middle" x="224" y="-95.5" font-family="Helvetica,sans-Serif" font-size="10.00">::GetAttribute</text>
</a>
</g>
</g>
<!-- Node1&#45;&gt;Node2 -->
<g id="edge1" class="edge"><title>Node1&#45;&gt;Node2</title>
<path fill="none" stroke="midnightblue" d="M101.633,-69.0473C118.772,-73.9128 140.18,-79.9898 160.224,-85.6796"/>
<polygon fill="midnightblue" stroke="midnightblue" points="159.353,-89.0707 169.929,-88.4346 161.265,-82.3368 159.353,-89.0707"/>
</g>
<!-- Node3 -->
<g id="node3" class="node"><title>Node3</title>
<g id="a_node3"><a xlink:href="classscram_1_1mef_1_1Element.xhtml#adb401e2ca84aa98cb60797bec2500a81" target="_top" xlink:title="scram::mef::Element\l::name">
<polygon fill="white" stroke="black" points="314,-44.5 314,-74.5 422,-74.5 422,-44.5 314,-44.5"/>
<text text-anchor="start" x="322" y="-62.5" font-family="Helvetica,sans-Serif" font-size="10.00">scram::mef::Element</text>
<text text-anchor="middle" x="368" y="-51.5" font-family="Helvetica,sans-Serif" font-size="10.00">::name</text>
</a>
</g>
</g>
<!-- Node1&#45;&gt;Node3 -->
<g id="edge5" class="edge"><title>Node1&#45;&gt;Node3</title>
<path fill="none" stroke="midnightblue" d="M134.358,-59.5C184.793,-59.5 253.739,-59.5 303.465,-59.5"/>
<polygon fill="midnightblue" stroke="midnightblue" points="303.771,-63.0001 313.771,-59.5 303.771,-56.0001 303.771,-63.0001"/>
</g>
<!-- Node4 -->
<g id="node4" class="node"><title>Node4</title>
<g id="a_node4"><a xlink:href="classscram_1_1mef_1_1Element.xhtml#ae291c86b68c20c0e2b845fbbc8bddb25" target="_top" xlink:title="Checks if the element has a given attribute. ">
<polygon fill="white" stroke="black" points="170,-0.5 170,-30.5 278,-30.5 278,-0.5 170,-0.5"/>
<text text-anchor="start" x="178" y="-18.5" font-family="Helvetica,sans-Serif" font-size="10.00">scram::mef::Element</text>
<text text-anchor="middle" x="224" y="-7.5" font-family="Helvetica,sans-Serif" font-size="10.00">::HasAttribute</text>
</a>
</g>
</g>
<!-- Node1&#45;&gt;Node4 -->
<g id="edge3" class="edge"><title>Node1&#45;&gt;Node4</title>
<path fill="none" stroke="midnightblue" d="M101.633,-49.9527C118.772,-45.0872 140.18,-39.0102 160.224,-33.3204"/>
<polygon fill="midnightblue" stroke="midnightblue" points="161.265,-36.6632 169.929,-30.5654 159.353,-29.9293 161.265,-36.6632"/>
</g>
<!-- Node2&#45;&gt;Node3 -->
<g id="edge2" class="edge"><title>Node2&#45;&gt;Node3</title>
<path fill="none" stroke="midnightblue" d="M273.471,-88.4808C284.77,-84.9798 296.917,-81.2158 308.595,-77.5973"/>
<polygon fill="midnightblue" stroke="midnightblue" points="309.749,-80.904 318.265,-74.6009 307.677,-74.2176 309.749,-80.904"/>
</g>
<!-- Node4&#45;&gt;Node3 -->
<g id="edge4" class="edge"><title>Node4&#45;&gt;Node3</title>
<path fill="none" stroke="midnightblue" d="M273.471,-30.5192C284.77,-34.0202 296.917,-37.7842 308.595,-41.4027"/>
<polygon fill="midnightblue" stroke="midnightblue" points="307.677,-44.7824 318.265,-44.3991 309.749,-38.096 307.677,-44.7824"/>
</g>
</g>
</svg>
