<?xml version="1.0" encoding="UTF-8" standalone="no"?>
<!DOCTYPE svg PUBLIC "-//W3C//DTD SVG 1.1//EN"
 "http://www.w3.org/Graphics/SVG/1.1/DTD/svg11.dtd">
<!-- Generated by graphviz version 2.38.0 (20140413.2041)
 -->
<!-- Title: scram::core::Gate::args Pages: 1 -->
<svg width="1743pt" height="362pt"
 viewBox="0.00 0.00 1743.00 361.50" xmlns="http://www.w3.org/2000/svg" xmlns:xlink="http://www.w3.org/1999/xlink">
<g id="graph0" class="graph" transform="scale(1 1) rotate(0) translate(4 357.5)">
<title>scram::core::Gate::args</title>
<polygon fill="white" stroke="none" points="-4,4 -4,-357.5 1739,-357.5 1739,4 -4,4"/>
<!-- Node1 -->
<g id="node1" class="node"><title>Node1</title>
<polygon fill="#bfbfbf" stroke="black" points="0,-117.5 0,-136.5 120,-136.5 120,-117.5 0,-117.5"/>
<text text-anchor="middle" x="60" y="-124.5" font-family="Helvetica,sans-Serif" font-size="10.00">scram::core::Gate::args</text>
</g>
<!-- Node2 -->
<g id="node2" class="node"><title>Node2</title>
<g id="a_node2"><a xlink:href="classscram_1_1core_1_1Zbdd.xhtml#ac90d12f0c653c679d22109124fa6344c" target="_top" xlink:title="Find or adds a ZBDD SetNode vertex using information from gates. ">
<polygon fill="white" stroke="black" points="172.5,-235 172.5,-265 274.5,-265 274.5,-235 172.5,-235"/>
<text text-anchor="start" x="180.5" y="-253" font-family="Helvetica,sans-Serif" font-size="10.00">scram::core::Zbdd::</text>
<text text-anchor="middle" x="223.5" y="-242" font-family="Helvetica,sans-Serif" font-size="10.00">FindOrAddVertex</text>
</a>
</g>
</g>
<!-- Node1&#45;&gt;Node2 -->
<g id="edge1" class="edge"><title>Node1&#45;&gt;Node2</title>
<path fill="none" stroke="midnightblue" d="M73.7981,-144.67C90.4729,-166.546 121.59,-203.643 156,-226 161.146,-229.344 166.819,-232.297 172.616,-234.884"/>
<polygon fill="midnightblue" stroke="midnightblue" points="76.5425,-142.496 67.7575,-136.574 70.9319,-146.682 76.5425,-142.496"/>
</g>
<!-- Node3 -->
<g id="node3" class="node"><title>Node3</title>
<g id="a_node3"><a xlink:href="classscram_1_1core_1_1Preprocessor.xhtml#a394fb1b5b5f9ee31dc81ad8d64353ee3" target="_top" xlink:title="Traverses the graph to find nodes that have more than one parent. ">
<polygon fill="white" stroke="black" points="157.5,-186 157.5,-216 289.5,-216 289.5,-186 157.5,-186"/>
<text text-anchor="start" x="165.5" y="-204" font-family="Helvetica,sans-Serif" font-size="10.00">scram::core::Preprocessor</text>
<text text-anchor="middle" x="223.5" y="-193" font-family="Helvetica,sans-Serif" font-size="10.00">::GatherCommonNodes</text>
</a>
</g>
</g>
<!-- Node1&#45;&gt;Node3 -->
<g id="edge3" class="edge"><title>Node1&#45;&gt;Node3</title>
<path fill="none" stroke="midnightblue" d="M86.3293,-141.559C105.201,-152.102 131.784,-166.319 156,-177 163.075,-180.121 170.695,-183.159 178.164,-185.966"/>
<polygon fill="midnightblue" stroke="midnightblue" points="87.9026,-138.428 77.4729,-136.565 84.4642,-144.525 87.9026,-138.428"/>
</g>
<!-- Node18 -->
<g id="node18" class="node"><title>Node18</title>
<g id="a_node18"><a xlink:href="classscram_1_1core_1_1Preprocessor.xhtml#af4dae5abf76e5da8b8c9f4371550b7dc" target="_top" xlink:title="Gathers all modules in the Boolean graph. ">
<polygon fill="white" stroke="black" points="157.5,-137 157.5,-167 289.5,-167 289.5,-137 157.5,-137"/>
<text text-anchor="start" x="165.5" y="-155" font-family="Helvetica,sans-Serif" font-size="10.00">scram::core::Preprocessor</text>
<text text-anchor="middle" x="223.5" y="-144" font-family="Helvetica,sans-Serif" font-size="10.00">::GatherModules</text>
</a>
</g>
</g>
<!-- Node1&#45;&gt;Node18 -->
<g id="edge22" class="edge"><title>Node1&#45;&gt;Node18</title>
<path fill="none" stroke="midnightblue" d="M130.246,-137.719C139.221,-139.108 148.389,-140.528 157.295,-141.906"/>
<polygon fill="midnightblue" stroke="midnightblue" points="130.637,-134.238 120.22,-136.167 129.566,-141.156 130.637,-134.238"/>
</g>
<!-- Node20 -->
<g id="node20" class="node"><title>Node20</title>
<g id="a_node20"><a xlink:href="classscram_1_1core_1_1Preprocessor_1_1GateSet.xhtml#ae00239084858979e096032c4cf2f05b9" target="_top" xlink:title="Inserts a gate into the set if it is semantically unique. ">
<polygon fill="white" stroke="black" points="157.5,-88 157.5,-118 289.5,-118 289.5,-88 157.5,-88"/>
<text text-anchor="start" x="165.5" y="-106" font-family="Helvetica,sans-Serif" font-size="10.00">scram::core::Preprocessor</text>
<text text-anchor="middle" x="223.5" y="-95" font-family="Helvetica,sans-Serif" font-size="10.00">::GateSet::insert</text>
</a>
</g>
</g>
<!-- Node1&#45;&gt;Node20 -->
<g id="edge24" class="edge"><title>Node1&#45;&gt;Node20</title>
<path fill="none" stroke="midnightblue" d="M130.246,-116.71C139.221,-115.376 148.389,-114.013 157.295,-112.69"/>
<polygon fill="midnightblue" stroke="midnightblue" points="129.596,-113.268 120.22,-118.2 130.625,-120.192 129.596,-113.268"/>
</g>
<!-- Node21 -->
<g id="node21" class="node"><title>Node21</title>
<g id="a_node21"><a xlink:href="classscram_1_1core_1_1Mocus.xhtml#a5f8ba8972e30ac19823bbfae32095bb0" target="_top" xlink:title="scram::core::Mocus\l::products">
<polygon fill="white" stroke="black" points="171.5,-39 171.5,-69 275.5,-69 275.5,-39 171.5,-39"/>
<text text-anchor="start" x="179.5" y="-57" font-family="Helvetica,sans-Serif" font-size="10.00">scram::core::Mocus</text>
<text text-anchor="middle" x="223.5" y="-46" font-family="Helvetica,sans-Serif" font-size="10.00">::products</text>
</a>
</g>
</g>
<!-- Node1&#45;&gt;Node21 -->
<g id="edge25" class="edge"><title>Node1&#45;&gt;Node21</title>
<path fill="none" stroke="midnightblue" d="M87.4753,-112.652C106.33,-102.674 132.407,-89.3589 156,-79 163.792,-75.5786 172.215,-72.1854 180.363,-69.0537"/>
<polygon fill="midnightblue" stroke="midnightblue" points="85.7612,-109.599 78.584,-117.393 89.0548,-115.776 85.7612,-109.599"/>
</g>
<!-- Node22 -->
<g id="node22" class="node"><title>Node22</title>
<g id="a_node22"><a xlink:href="classscram_1_1core_1_1Bdd.xhtml#abb75e2b30e88c46634b4a4b7df90cf8a" target="_top" xlink:title="scram::core::Bdd::products">
<polygon fill="white" stroke="black" points="156,-0.5 156,-19.5 291,-19.5 291,-0.5 156,-0.5"/>
<text text-anchor="middle" x="223.5" y="-7.5" font-family="Helvetica,sans-Serif" font-size="10.00">scram::core::Bdd::products</text>
</a>
</g>
</g>
<!-- Node1&#45;&gt;Node22 -->
<g id="edge26" class="edge"><title>Node1&#45;&gt;Node22</title>
<path fill="none" stroke="midnightblue" d="M73.6024,-109.137C90.0741,-87.0959 120.981,-49.9736 156,-29 162.387,-25.175 169.58,-22.0883 176.815,-19.6066"/>
<polygon fill="midnightblue" stroke="midnightblue" points="70.7088,-107.164 67.6432,-117.306 76.3641,-111.29 70.7088,-107.164"/>
</g>
<!-- Node2&#45;&gt;Node2 -->
<g id="edge2" class="edge"><title>Node2&#45;&gt;Node2</title>
<path fill="none" stroke="midnightblue" d="M194.715,-275.458C198.287,-280.179 207.882,-283.5 223.5,-283.5 249.129,-283.5 258.54,-274.557 251.732,-265.159"/>
<polygon fill="midnightblue" stroke="midnightblue" points="198.226,-275.332 195.268,-265.159 191.236,-274.957 198.226,-275.332"/>
</g>
<!-- Node4 -->
<g id="node4" class="node"><title>Node4</title>
<g id="a_node4"><a xlink:href="classscram_1_1core_1_1Preprocessor.xhtml#aebc709ad2e097c24e837889a6a9e4696" target="_top" xlink:title="Propagates failures of common nodes to detect redundancy. ">
<polygon fill="white" stroke="black" points="332.5,-235 332.5,-265 464.5,-265 464.5,-235 332.5,-235"/>
<text text-anchor="start" x="340.5" y="-253" font-family="Helvetica,sans-Serif" font-size="10.00">scram::core::Preprocessor</text>
<text text-anchor="middle" x="398.5" y="-242" font-family="Helvetica,sans-Serif" font-size="10.00">::BooleanOptimization</text>
</a>
</g>
</g>
<!-- Node3&#45;&gt;Node4 -->
<g id="edge4" class="edge"><title>Node3&#45;&gt;Node4</title>
<path fill="none" stroke="midnightblue" d="M287.677,-218.894C306.285,-224.164 326.448,-229.876 344.359,-234.948"/>
<polygon fill="midnightblue" stroke="midnightblue" points="288.393,-215.459 277.817,-216.101 286.485,-222.194 288.393,-215.459"/>
</g>
<!-- Node17 -->
<g id="node17" class="node"><title>Node17</title>
<g id="a_node17"><a xlink:href="classscram_1_1core_1_1Preprocessor.xhtml#ae12f3096132d7f6e9daa779724255f7e" target="_top" xlink:title="The Shannon decomposition for common nodes in the Boolean graph. ">
<polygon fill="white" stroke="black" points="327,-186 327,-216 470,-216 470,-186 327,-186"/>
<text text-anchor="start" x="335" y="-204" font-family="Helvetica,sans-Serif" font-size="10.00">scram::core::Preprocessor</text>
<text text-anchor="middle" x="398.5" y="-193" font-family="Helvetica,sans-Serif" font-size="10.00">::DecomposeCommonNodes</text>
</a>
</g>
</g>
<!-- Node3&#45;&gt;Node17 -->
<g id="edge20" class="edge"><title>Node3&#45;&gt;Node17</title>
<path fill="none" stroke="midnightblue" d="M300.192,-201C309.035,-201 318.031,-201 326.803,-201"/>
<polygon fill="midnightblue" stroke="midnightblue" points="299.904,-197.5 289.904,-201 299.904,-204.5 299.904,-197.5"/>
</g>
<!-- Node5 -->
<g id="node5" class="node"><title>Node5</title>
<g id="a_node5"><a xlink:href="classscram_1_1core_1_1Preprocessor.xhtml#a9d5f89471499508eb9e6c01ea43e0f15" target="_top" xlink:title="Preprocessing phase of the original structure of the graph. ">
<polygon fill="white" stroke="black" points="506,-210 506,-240 638,-240 638,-210 506,-210"/>
<text text-anchor="start" x="514" y="-228" font-family="Helvetica,sans-Serif" font-size="10.00">scram::core::Preprocessor</text>
<text text-anchor="middle" x="572" y="-217" font-family="Helvetica,sans-Serif" font-size="10.00">::RunPhaseTwo</text>
</a>
</g>
</g>
<!-- Node4&#45;&gt;Node5 -->
<g id="edge5" class="edge"><title>Node4&#45;&gt;Node5</title>
<path fill="none" stroke="midnightblue" d="M475.018,-238.992C485.299,-237.493 495.779,-235.965 505.856,-234.496"/>
<polygon fill="midnightblue" stroke="midnightblue" points="474.217,-235.571 464.826,-240.477 475.226,-242.498 474.217,-235.571"/>
</g>
<!-- Node6 -->
<g id="node6" class="node"><title>Node6</title>
<g id="a_node6"><a xlink:href="classscram_1_1core_1_1Preprocessor.xhtml#a2b6705e815fa3d02119c405b483766d5" target="_top" xlink:title="Runs the default preprocessing that achieves the graph in a normal form. ">
<polygon fill="white" stroke="black" points="842,-247.5 842,-266.5 998,-266.5 998,-247.5 842,-247.5"/>
<text text-anchor="middle" x="920" y="-254.5" font-family="Helvetica,sans-Serif" font-size="10.00">scram::core::Preprocessor::Run</text>
</a>
</g>
</g>
<!-- Node5&#45;&gt;Node6 -->
<g id="edge6" class="edge"><title>Node5&#45;&gt;Node6</title>
<path fill="none" stroke="midnightblue" d="M606.518,-245.108C625.577,-255.364 650.307,-266.757 674,-272 743.901,-287.468 827.57,-276.174 876.832,-266.582"/>
<polygon fill="midnightblue" stroke="midnightblue" points="608.091,-241.978 597.647,-240.197 604.701,-248.102 608.091,-241.978"/>
</g>
<!-- Node14 -->
<g id="node14" class="node"><title>Node14</title>
<g id="a_node14"><a xlink:href="classscram_1_1core_1_1Preprocessor.xhtml#abf2c66723172a85b2ae87ef2a034cd1f" target="_top" xlink:title="Application of gate normalization. ">
<polygon fill="white" stroke="black" points="674,-232 674,-262 806,-262 806,-232 674,-232"/>
<text text-anchor="start" x="682" y="-250" font-family="Helvetica,sans-Serif" font-size="10.00">scram::core::Preprocessor</text>
<text text-anchor="middle" x="740" y="-239" font-family="Helvetica,sans-Serif" font-size="10.00">::RunPhaseThree</text>
</a>
</g>
</g>
<!-- Node5&#45;&gt;Node14 -->
<g id="edge14" class="edge"><title>Node5&#45;&gt;Node14</title>
<path fill="none" stroke="midnightblue" d="M648.114,-234.955C656.681,-236.09 665.361,-237.241 673.784,-238.357"/>
<polygon fill="midnightblue" stroke="midnightblue" points="648.504,-231.476 638.131,-233.632 647.585,-238.415 648.504,-231.476"/>
</g>
<!-- Node15 -->
<g id="node15" class="node"><title>Node15</title>
<g id="a_node15"><a xlink:href="classscram_1_1core_1_1Preprocessor.xhtml#a5c224938dfba861f061525658bd7b156" target="_top" xlink:title="Propagation of complements. ">
<polygon fill="white" stroke="black" points="854,-188 854,-218 986,-218 986,-188 854,-188"/>
<text text-anchor="start" x="862" y="-206" font-family="Helvetica,sans-Serif" font-size="10.00">scram::core::Preprocessor</text>
<text text-anchor="middle" x="920" y="-195" font-family="Helvetica,sans-Serif" font-size="10.00">::RunPhaseFour</text>
</a>
</g>
</g>
<!-- Node5&#45;&gt;Node15 -->
<g id="edge16" class="edge"><title>Node5&#45;&gt;Node15</title>
<path fill="none" stroke="midnightblue" d="M648.097,-220.225C709.493,-216.321 795.413,-210.858 853.918,-207.138"/>
<polygon fill="midnightblue" stroke="midnightblue" points="647.838,-216.734 638.08,-220.862 648.282,-223.72 647.838,-216.734"/>
</g>
<!-- Node16 -->
<g id="node16" class="node"><title>Node16</title>
<g id="a_node16"><a xlink:href="classscram_1_1core_1_1Preprocessor.xhtml#a3569bbcd5e863c750cdfa69115399600" target="_top" xlink:title="The final phase that cleans up the graph, and puts the structure of the graph ready for analysis...">
<polygon fill="white" stroke="black" points="674,-144 674,-174 806,-174 806,-144 674,-144"/>
<text text-anchor="start" x="682" y="-162" font-family="Helvetica,sans-Serif" font-size="10.00">scram::core::Preprocessor</text>
<text text-anchor="middle" x="740" y="-151" font-family="Helvetica,sans-Serif" font-size="10.00">::RunPhaseFive</text>
</a>
</g>
</g>
<!-- Node5&#45;&gt;Node16 -->
<g id="edge18" class="edge"><title>Node5&#45;&gt;Node16</title>
<path fill="none" stroke="midnightblue" d="M620.58,-206.083C646.131,-195.924 677.193,-183.574 701.093,-174.071"/>
<polygon fill="midnightblue" stroke="midnightblue" points="619.083,-202.911 611.084,-209.858 621.669,-209.416 619.083,-202.911"/>
</g>
<!-- Node7 -->
<g id="node7" class="node"><title>Node7</title>
<g id="a_node7"><a xlink:href="classscram_1_1core_1_1FaultTreeAnalyzer.xhtml#af6d3e735d4200c3efed0164c58aabf57" target="_top" xlink:title="Runs fault tree analysis with the given algorithm. ">
<polygon fill="white" stroke="black" points="1040.5,-323 1040.5,-353 1194.5,-353 1194.5,-323 1040.5,-323"/>
<text text-anchor="start" x="1048.5" y="-341" font-family="Helvetica,sans-Serif" font-size="10.00">scram::core::FaultTreeAnalyzer</text>
<text text-anchor="middle" x="1117.5" y="-330" font-family="Helvetica,sans-Serif" font-size="10.00">::Analyze</text>
</a>
</g>
</g>
<!-- Node6&#45;&gt;Node7 -->
<g id="edge7" class="edge"><title>Node6&#45;&gt;Node7</title>
<path fill="none" stroke="midnightblue" d="M946.688,-271.673C969.194,-284.109 1003.05,-301.813 1034,-314 1042.19,-317.225 1050.99,-320.238 1059.67,-322.965"/>
<polygon fill="midnightblue" stroke="midnightblue" points="948.216,-268.518 937.779,-266.698 944.803,-274.629 948.216,-268.518"/>
</g>
<!-- Node11 -->
<g id="node11" class="node"><title>Node11</title>
<g id="a_node11"><a xlink:href="classscram_1_1core_1_1CustomPreprocessor_3_01Bdd_01_4.xhtml#a8cf4307236cd521e39a2c6feb21f3214" target="_top" xlink:title="Performs preprocessing for analyses with Binary Decision Diagrams. ">
<polygon fill="white" stroke="black" points="1034,-274 1034,-304 1201,-304 1201,-274 1034,-274"/>
<text text-anchor="start" x="1042" y="-292" font-family="Helvetica,sans-Serif" font-size="10.00">scram::core::CustomPreprocessor</text>
<text text-anchor="middle" x="1117.5" y="-281" font-family="Helvetica,sans-Serif" font-size="10.00">&lt; Bdd &gt;::Run</text>
</a>
</g>
</g>
<!-- Node6&#45;&gt;Node11 -->
<g id="edge11" class="edge"><title>Node6&#45;&gt;Node11</title>
<path fill="none" stroke="midnightblue" d="M989.004,-268.131C1003.52,-270.507 1019,-273.042 1034,-275.496"/>
<polygon fill="midnightblue" stroke="midnightblue" points="989.561,-264.676 979.127,-266.514 988.43,-271.584 989.561,-264.676"/>
</g>
<!-- Node12 -->
<g id="node12" class="node"><title>Node12</title>
<g id="a_node12"><a xlink:href="classscram_1_1core_1_1CustomPreprocessor_3_01Zbdd_01_4.xhtml#a5185075f852c647c7aa4313d23420ee5" target="_top" xlink:title="Performs preprocessing for analyses with Zero&#45;Suppressed Binary Decision Diagrams. ">
<polygon fill="white" stroke="black" points="1034,-166 1034,-196 1201,-196 1201,-166 1034,-166"/>
<text text-anchor="start" x="1042" y="-184" font-family="Helvetica,sans-Serif" font-size="10.00">scram::core::CustomPreprocessor</text>
<text text-anchor="middle" x="1117.5" y="-173" font-family="Helvetica,sans-Serif" font-size="10.00">&lt; Zbdd &gt;::Run</text>
</a>
</g>
</g>
<!-- Node6&#45;&gt;Node12 -->
<g id="edge12" class="edge"><title>Node6&#45;&gt;Node12</title>
<path fill="none" stroke="midnightblue" d="M960.408,-243.953C972.681,-239.416 986.108,-233.957 998,-228 1014.98,-219.497 1016.71,-212.843 1034,-205 1041.34,-201.673 1049.25,-198.681 1057.17,-196.032"/>
<polygon fill="midnightblue" stroke="midnightblue" points="959.09,-240.708 950.864,-247.385 961.459,-247.295 959.09,-240.708"/>
</g>
<!-- Node13 -->
<g id="node13" class="node"><title>Node13</title>
<g id="a_node13"><a xlink:href="classscram_1_1core_1_1ProbabilityAnalyzer_3_01Bdd_01_4.xhtml#a517506c181102100cc6a3e96710813c6" target="_top" xlink:title="Calculates the total probability with a different set of probability values than the one given upon c...">
<polygon fill="white" stroke="black" points="1038,-214.5 1038,-255.5 1197,-255.5 1197,-214.5 1038,-214.5"/>
<text text-anchor="start" x="1046" y="-243.5" font-family="Helvetica,sans-Serif" font-size="10.00">scram::core::Probability</text>
<text text-anchor="start" x="1046" y="-232.5" font-family="Helvetica,sans-Serif" font-size="10.00">Analyzer&lt; Bdd &gt;::CalculateTotal</text>
<text text-anchor="middle" x="1117.5" y="-221.5" font-family="Helvetica,sans-Serif" font-size="10.00">Probability</text>
</a>
</g>
</g>
<!-- Node6&#45;&gt;Node13 -->
<g id="edge13" class="edge"><title>Node6&#45;&gt;Node13</title>
<path fill="none" stroke="midnightblue" d="M1008.42,-247.162C1018.23,-246.058 1028.18,-244.939 1037.87,-243.848"/>
<polygon fill="midnightblue" stroke="midnightblue" points="1007.81,-243.709 998.267,-248.305 1008.6,-250.665 1007.81,-243.709"/>
</g>
<!-- Node8 -->
<g id="node8" class="node"><title>Node8</title>
<g id="a_node8"><a xlink:href="classscram_1_1core_1_1RiskAnalysis.xhtml#a7aed757ac5a7a96878c2706a7a9710bb" target="_top" xlink:title="Analyzes the model and performs computations specified in the settings. ">
<polygon fill="white" stroke="black" points="1237,-323 1237,-353 1369,-353 1369,-323 1237,-323"/>
<text text-anchor="start" x="1245" y="-341" font-family="Helvetica,sans-Serif" font-size="10.00">scram::core::RiskAnalysis</text>
<text text-anchor="middle" x="1303" y="-330" font-family="Helvetica,sans-Serif" font-size="10.00">::Analyze</text>
</a>
</g>
</g>
<!-- Node7&#45;&gt;Node8 -->
<g id="edge8" class="edge"><title>Node7&#45;&gt;Node8</title>
<path fill="none" stroke="midnightblue" d="M1204.95,-338C1215.67,-338 1226.49,-338 1236.81,-338"/>
<polygon fill="midnightblue" stroke="midnightblue" points="1204.73,-334.5 1194.73,-338 1204.73,-341.5 1204.73,-334.5"/>
</g>
<!-- Node9 -->
<g id="node9" class="node"><title>Node9</title>
<g id="a_node9"><a xlink:href="classscram_1_1core_1_1RiskAnalysis.xhtml#a337f7e9fe02b1581e872590d6f7baa01" target="_top" xlink:title="scram::core::RiskAnalysis\l::model">
<polygon fill="white" stroke="black" points="1405,-323 1405,-353 1537,-353 1537,-323 1405,-323"/>
<text text-anchor="start" x="1413" y="-341" font-family="Helvetica,sans-Serif" font-size="10.00">scram::core::RiskAnalysis</text>
<text text-anchor="middle" x="1471" y="-330" font-family="Helvetica,sans-Serif" font-size="10.00">::model</text>
</a>
</g>
</g>
<!-- Node8&#45;&gt;Node9 -->
<g id="edge9" class="edge"><title>Node8&#45;&gt;Node9</title>
<path fill="none" stroke="midnightblue" d="M1379.39,-338C1387.87,-338 1396.45,-338 1404.78,-338"/>
<polygon fill="midnightblue" stroke="midnightblue" points="1379.13,-334.5 1369.13,-338 1379.13,-341.5 1379.13,-334.5"/>
</g>
<!-- Node10 -->
<g id="node10" class="node"><title>Node10</title>
<g id="a_node10"><a xlink:href="reporter_8cc.xhtml#ad6460094a94fb73e56c2a4a5efc598ed" target="_top" xlink:title="Describes all performed analyses deduced from settings. ">
<polygon fill="white" stroke="black" points="1573,-323 1573,-353 1735,-353 1735,-323 1573,-323"/>
<text text-anchor="start" x="1581" y="-341" font-family="Helvetica,sans-Serif" font-size="10.00">scram::ReportCalculatedQuantity</text>
<text text-anchor="middle" x="1654" y="-330" font-family="Helvetica,sans-Serif" font-size="10.00">&lt; core::RiskAnalysis &gt;</text>
</a>
</g>
</g>
<!-- Node9&#45;&gt;Node10 -->
<g id="edge10" class="edge"><title>Node9&#45;&gt;Node10</title>
<path fill="none" stroke="midnightblue" d="M1547.24,-338C1555.65,-338 1564.24,-338 1572.71,-338"/>
<polygon fill="midnightblue" stroke="midnightblue" points="1547.09,-334.5 1537.09,-338 1547.09,-341.5 1547.09,-334.5"/>
</g>
<!-- Node14&#45;&gt;Node6 -->
<g id="edge15" class="edge"><title>Node14&#45;&gt;Node6</title>
<path fill="none" stroke="midnightblue" d="M816.221,-251.226C824.672,-251.701 833.292,-252.185 841.768,-252.661"/>
<polygon fill="midnightblue" stroke="midnightblue" points="816.198,-247.719 806.018,-250.653 815.806,-254.708 816.198,-247.719"/>
</g>
<!-- Node15&#45;&gt;Node12 -->
<g id="edge17" class="edge"><title>Node15&#45;&gt;Node12</title>
<path fill="none" stroke="midnightblue" d="M996.313,-194.525C1008.64,-193.138 1021.46,-191.695 1033.95,-190.29"/>
<polygon fill="midnightblue" stroke="midnightblue" points="995.645,-191.078 986.099,-195.674 996.427,-198.034 995.645,-191.078"/>
</g>
<!-- Node16&#45;&gt;Node12 -->
<g id="edge19" class="edge"><title>Node16&#45;&gt;Node12</title>
<path fill="none" stroke="midnightblue" d="M816.66,-163.433C879.581,-167.119 968.998,-172.358 1033.8,-176.155"/>
<polygon fill="midnightblue" stroke="midnightblue" points="816.595,-159.923 806.407,-162.832 816.185,-166.911 816.595,-159.923"/>
</g>
<!-- Node17&#45;&gt;Node5 -->
<g id="edge21" class="edge"><title>Node17&#45;&gt;Node5</title>
<path fill="none" stroke="midnightblue" d="M480.283,-212.305C488.877,-213.508 497.538,-214.72 505.919,-215.892"/>
<polygon fill="midnightblue" stroke="midnightblue" points="480.634,-208.82 470.246,-210.9 479.664,-215.753 480.634,-208.82"/>
</g>
<!-- Node19 -->
<g id="node19" class="node"><title>Node19</title>
<g id="a_node19"><a xlink:href="classscram_1_1core_1_1Preprocessor.xhtml#a651b32816243e37c58b7835220997ef2" target="_top" xlink:title="Merges common arguments for a specific group of gates. ">
<polygon fill="white" stroke="black" points="332.5,-137 332.5,-167 464.5,-167 464.5,-137 332.5,-137"/>
<text text-anchor="start" x="340.5" y="-155" font-family="Helvetica,sans-Serif" font-size="10.00">scram::core::Preprocessor</text>
<text text-anchor="middle" x="398.5" y="-144" font-family="Helvetica,sans-Serif" font-size="10.00">::MergeCommonArgs</text>
</a>
</g>
</g>
<!-- Node18&#45;&gt;Node19 -->
<g id="edge23" class="edge"><title>Node18&#45;&gt;Node19</title>
<path fill="none" stroke="midnightblue" d="M300.098,-152C310.826,-152 321.782,-152 332.291,-152"/>
<polygon fill="midnightblue" stroke="midnightblue" points="299.904,-148.5 289.904,-152 299.904,-155.5 299.904,-148.5"/>
</g>
</g>
</svg>
