<?xml version="1.0" encoding="UTF-8" standalone="no"?>
<!DOCTYPE svg PUBLIC "-//W3C//DTD SVG 1.1//EN"
 "http://www.w3.org/Graphics/SVG/1.1/DTD/svg11.dtd">
<!-- Generated by graphviz version 2.38.0 (20140413.2041)
 -->
<!-- Title: scram::mef::Neg::Min Pages: 1 -->
<svg width="459pt" height="83pt"
 viewBox="0.00 0.00 459.00 83.00" xmlns="http://www.w3.org/2000/svg" xmlns:xlink="http://www.w3.org/1999/xlink">
<g id="graph0" class="graph" transform="scale(1 1) rotate(0) translate(4 79)">
<title>scram::mef::Neg::Min</title>
<polygon fill="white" stroke="none" points="-4,4 -4,-79 455,-79 455,4 -4,4"/>
<!-- Node1 -->
<g id="node1" class="node"><title>Node1</title>
<polygon fill="#bfbfbf" stroke="black" points="0,-28 0,-47 112,-47 112,-28 0,-28"/>
<text text-anchor="middle" x="56" y="-35" font-family="Helvetica,sans-Serif" font-size="10.00">scram::mef::Neg::Min</text>
</g>
<!-- Node2 -->
<g id="node2" class="node"><title>Node2</title>
<g id="a_node2"><a xlink:href="classscram_1_1mef_1_1Expression.xhtml#a6b2d7f3d3abf98002c8cccee426edecc" target="_top" xlink:title="scram::mef::Expression::Max">
<polygon fill="white" stroke="black" points="148,-50 148,-69 294,-69 294,-50 148,-50"/>
<text text-anchor="middle" x="221" y="-57" font-family="Helvetica,sans-Serif" font-size="10.00">scram::mef::Expression::Max</text>
</a>
</g>
</g>
<!-- Node1&#45;&gt;Node2 -->
<g id="edge1" class="edge"><title>Node1&#45;&gt;Node2</title>
<path fill="none" stroke="midnightblue" d="M112.184,-44.9482C121.002,-46.1383 130.279,-47.3905 139.539,-48.6403"/>
<polygon fill="midnightblue" stroke="midnightblue" points="139.179,-52.1233 149.557,-49.9924 140.115,-45.1862 139.179,-52.1233"/>
</g>
<!-- Node4 -->
<g id="node4" class="node"><title>Node4</title>
<g id="a_node4"><a xlink:href="classscram_1_1mef_1_1Expression.xhtml#a5cf00d8b2ff843ad029a501a89ee572a" target="_top" xlink:title="scram::mef::Expression\l::Sample">
<polygon fill="white" stroke="black" points="160.5,-0.5 160.5,-30.5 281.5,-30.5 281.5,-0.5 160.5,-0.5"/>
<text text-anchor="start" x="168.5" y="-18.5" font-family="Helvetica,sans-Serif" font-size="10.00">scram::mef::Expression</text>
<text text-anchor="middle" x="221" y="-7.5" font-family="Helvetica,sans-Serif" font-size="10.00">::Sample</text>
</a>
</g>
</g>
<!-- Node1&#45;&gt;Node4 -->
<g id="edge3" class="edge"><title>Node1&#45;&gt;Node4</title>
<path fill="none" stroke="midnightblue" d="M112.184,-30.0518C124.428,-28.3993 137.558,-26.6271 150.297,-24.9078"/>
<polygon fill="midnightblue" stroke="midnightblue" points="150.962,-28.3499 160.404,-23.5437 150.025,-21.4128 150.962,-28.3499"/>
</g>
<!-- Node3 -->
<g id="node3" class="node"><title>Node3</title>
<g id="a_node3"><a xlink:href="classscram_1_1mef_1_1Expression.xhtml#ac7e0dd118eafdfa943944172c1625a4e" target="_top" xlink:title="scram::mef::Expression\l::Mean">
<polygon fill="white" stroke="black" points="330,-44.5 330,-74.5 451,-74.5 451,-44.5 330,-44.5"/>
<text text-anchor="start" x="338" y="-62.5" font-family="Helvetica,sans-Serif" font-size="10.00">scram::mef::Expression</text>
<text text-anchor="middle" x="390.5" y="-51.5" font-family="Helvetica,sans-Serif" font-size="10.00">::Mean</text>
</a>
</g>
</g>
<!-- Node2&#45;&gt;Node3 -->
<g id="edge2" class="edge"><title>Node2&#45;&gt;Node3</title>
<path fill="none" stroke="midnightblue" d="M294.007,-59.5C302.517,-59.5 311.192,-59.5 319.672,-59.5"/>
<polygon fill="midnightblue" stroke="midnightblue" points="319.893,-63.0001 329.893,-59.5 319.893,-56.0001 319.893,-63.0001"/>
</g>
</g>
</svg>
