<?xml version="1.0" encoding="UTF-8" standalone="no"?>
<!DOCTYPE svg PUBLIC "-//W3C//DTD SVG 1.1//EN"
 "http://www.w3.org/Graphics/SVG/1.1/DTD/svg11.dtd">
<!-- Generated by graphviz version 2.38.0 (20140413.2041)
 -->
<!-- Title: scram::mef::CcfGroup::ApplyModel Pages: 1 -->
<svg width="566pt" height="164pt"
 viewBox="0.00 0.00 566.00 163.94" xmlns="http://www.w3.org/2000/svg" xmlns:xlink="http://www.w3.org/1999/xlink">
<g id="graph0" class="graph" transform="scale(1 1) rotate(0) translate(4 159.941)">
<title>scram::mef::CcfGroup::ApplyModel</title>
<polygon fill="white" stroke="none" points="-4,4 -4,-159.941 562,-159.941 562,4 -4,4"/>
<!-- Node1 -->
<g id="node1" class="node"><title>Node1</title>
<polygon fill="#bfbfbf" stroke="black" points="0,-51.4409 0,-81.4409 114,-81.4409 114,-51.4409 0,-51.4409"/>
<text text-anchor="start" x="8" y="-69.4409" font-family="Helvetica,sans-Serif" font-size="10.00">scram::mef::CcfGroup</text>
<text text-anchor="middle" x="57" y="-58.4409" font-family="Helvetica,sans-Serif" font-size="10.00">::ApplyModel</text>
</g>
<!-- Node2 -->
<g id="node2" class="node"><title>Node2</title>
<g id="a_node2"><a xlink:href="classscram_1_1mef_1_1CcfGroup.xhtml#a89c5531144ef16c6f28be333166ab839" target="_top" xlink:title="scram::mef::CcfGroup\l::distribution">
<polygon fill="white" stroke="black" points="150,-125.441 150,-155.441 264,-155.441 264,-125.441 150,-125.441"/>
<text text-anchor="start" x="158" y="-143.441" font-family="Helvetica,sans-Serif" font-size="10.00">scram::mef::CcfGroup</text>
<text text-anchor="middle" x="207" y="-132.441" font-family="Helvetica,sans-Serif" font-size="10.00">::distribution</text>
</a>
</g>
</g>
<!-- Node1&#45;&gt;Node2 -->
<g id="edge1" class="edge"><title>Node1&#45;&gt;Node2</title>
<path fill="none" stroke="midnightblue" d="M84.2317,-81.5425C102.455,-91.8239 127.426,-105.498 150,-116.441 153.337,-118.059 156.811,-119.683 160.321,-121.283"/>
<polygon fill="midnightblue" stroke="midnightblue" points="159.07,-124.557 169.628,-125.436 161.923,-118.165 159.07,-124.557"/>
</g>
<!-- Node3 -->
<g id="node3" class="node"><title>Node3</title>
<g id="a_node3"><a xlink:href="classscram_1_1mef_1_1CcfGroup.xhtml#a870cff942d6ce90dc50de37e17a151ee" target="_top" xlink:title="scram::mef::CcfGroup\l::factors">
<polygon fill="white" stroke="black" points="150,-76.4409 150,-106.441 264,-106.441 264,-76.4409 150,-76.4409"/>
<text text-anchor="start" x="158" y="-94.4409" font-family="Helvetica,sans-Serif" font-size="10.00">scram::mef::CcfGroup</text>
<text text-anchor="middle" x="207" y="-83.4409" font-family="Helvetica,sans-Serif" font-size="10.00">::factors</text>
</a>
</g>
</g>
<!-- Node1&#45;&gt;Node3 -->
<g id="edge2" class="edge"><title>Node1&#45;&gt;Node3</title>
<path fill="none" stroke="midnightblue" d="M114.375,-75.9636C122.712,-77.372 131.366,-78.8338 139.88,-80.2719"/>
<polygon fill="midnightblue" stroke="midnightblue" points="139.339,-83.73 149.782,-81.9446 140.505,-76.8278 139.339,-83.73"/>
</g>
<!-- Node4 -->
<g id="node4" class="node"><title>Node4</title>
<g id="a_node4"><a xlink:href="classscram_1_1mef_1_1CcfGroup.xhtml#ac2e32b2b8b441c3605780181651af31c" target="_top" xlink:title="scram::mef::CcfGroup\l::members">
<polygon fill="white" stroke="black" points="150,-27.4409 150,-57.4409 264,-57.4409 264,-27.4409 150,-27.4409"/>
<text text-anchor="start" x="158" y="-45.4409" font-family="Helvetica,sans-Serif" font-size="10.00">scram::mef::CcfGroup</text>
<text text-anchor="middle" x="207" y="-34.4409" font-family="Helvetica,sans-Serif" font-size="10.00">::members</text>
</a>
</g>
</g>
<!-- Node1&#45;&gt;Node4 -->
<g id="edge3" class="edge"><title>Node1&#45;&gt;Node4</title>
<path fill="none" stroke="midnightblue" d="M114.375,-57.299C122.712,-55.947 131.366,-54.5436 139.88,-53.163"/>
<polygon fill="midnightblue" stroke="midnightblue" points="140.471,-56.613 149.782,-51.5573 139.351,-49.7032 140.471,-56.613"/>
</g>
<!-- Node6 -->
<g id="node6" class="node"><title>Node6</title>
<g id="a_node6"><a xlink:href="classscram_1_1mef_1_1Element.xhtml#adb401e2ca84aa98cb60797bec2500a81" target="_top" xlink:title="scram::mef::Element\l::name">
<polygon fill="white" stroke="black" points="450,-27.4409 450,-57.4409 558,-57.4409 558,-27.4409 450,-27.4409"/>
<text text-anchor="start" x="458" y="-45.4409" font-family="Helvetica,sans-Serif" font-size="10.00">scram::mef::Element</text>
<text text-anchor="middle" x="504" y="-34.4409" font-family="Helvetica,sans-Serif" font-size="10.00">::name</text>
</a>
</g>
</g>
<!-- Node1&#45;&gt;Node6 -->
<g id="edge8" class="edge"><title>Node1&#45;&gt;Node6</title>
<path fill="none" stroke="midnightblue" d="M79.0707,-51.3396C96.9656,-39.5007 123.84,-23.9731 150,-17.4409 263.838,10.9845 297.765,-1.42563 414,-17.4409 425.436,-19.0166 437.472,-21.6805 448.868,-24.6967"/>
<polygon fill="midnightblue" stroke="midnightblue" points="448.115,-28.1199 458.686,-27.4195 449.985,-21.3745 448.115,-28.1199"/>
</g>
<!-- Node5 -->
<g id="node5" class="node"><title>Node5</title>
<g id="a_node5"><a xlink:href="classscram_1_1mef_1_1CcfGroup.xhtml#a723878c7c836a52cf9edb5c8d1a37868" target="_top" xlink:title="Adds the distribution that describes the probability of basic events in this CCF group. ">
<polygon fill="white" stroke="black" points="300,-76.4409 300,-106.441 414,-106.441 414,-76.4409 300,-76.4409"/>
<text text-anchor="start" x="308" y="-94.4409" font-family="Helvetica,sans-Serif" font-size="10.00">scram::mef::CcfGroup</text>
<text text-anchor="middle" x="357" y="-83.4409" font-family="Helvetica,sans-Serif" font-size="10.00">::AddDistribution</text>
</a>
</g>
</g>
<!-- Node4&#45;&gt;Node5 -->
<g id="edge4" class="edge"><title>Node4&#45;&gt;Node5</title>
<path fill="none" stroke="midnightblue" d="M253.613,-57.5423C268.594,-62.5024 285.405,-68.0682 301.007,-73.2338"/>
<polygon fill="midnightblue" stroke="midnightblue" points="299.945,-76.5688 310.538,-76.3893 302.145,-69.9236 299.945,-76.5688"/>
</g>
<!-- Node7 -->
<g id="node7" class="node"><title>Node7</title>
<g id="a_node7"><a xlink:href="classscram_1_1mef_1_1CcfGroup.xhtml#a8321bf4372a0575c88b7162716469d15" target="_top" xlink:title="Adds a basic event into this CCF group. ">
<polygon fill="white" stroke="black" points="300,-27.4409 300,-57.4409 414,-57.4409 414,-27.4409 300,-27.4409"/>
<text text-anchor="start" x="308" y="-45.4409" font-family="Helvetica,sans-Serif" font-size="10.00">scram::mef::CcfGroup</text>
<text text-anchor="middle" x="357" y="-34.4409" font-family="Helvetica,sans-Serif" font-size="10.00">::AddMember</text>
</a>
</g>
</g>
<!-- Node4&#45;&gt;Node7 -->
<g id="edge6" class="edge"><title>Node4&#45;&gt;Node7</title>
<path fill="none" stroke="midnightblue" d="M264.375,-42.4409C272.621,-42.4409 281.178,-42.4409 289.602,-42.4409"/>
<polygon fill="midnightblue" stroke="midnightblue" points="289.782,-45.941 299.782,-42.4409 289.782,-38.941 289.782,-45.941"/>
</g>
<!-- Node5&#45;&gt;Node6 -->
<g id="edge5" class="edge"><title>Node5&#45;&gt;Node6</title>
<path fill="none" stroke="midnightblue" d="M402.688,-76.3394C417.159,-71.4492 433.372,-65.9702 448.475,-60.8665"/>
<polygon fill="midnightblue" stroke="midnightblue" points="449.857,-64.0941 458.21,-57.5768 447.616,-57.4625 449.857,-64.0941"/>
</g>
<!-- Node7&#45;&gt;Node6 -->
<g id="edge7" class="edge"><title>Node7&#45;&gt;Node6</title>
<path fill="none" stroke="midnightblue" d="M414.061,-42.4409C422.446,-42.4409 431.141,-42.4409 439.664,-42.4409"/>
<polygon fill="midnightblue" stroke="midnightblue" points="439.943,-45.941 449.943,-42.4409 439.943,-38.941 439.943,-45.941"/>
</g>
</g>
</svg>
