<?xml version="1.0" encoding="UTF-8" standalone="no"?>
<!DOCTYPE svg PUBLIC "-//W3C//DTD SVG 1.1//EN"
 "http://www.w3.org/Graphics/SVG/1.1/DTD/svg11.dtd">
<!-- Generated by graphviz version 2.38.0 (20140413.2041)
 -->
<!-- Title: scram::mef::Component::GatherGates Pages: 1 -->
<svg width="288pt" height="88pt"
 viewBox="0.00 0.00 288.00 88.00" xmlns="http://www.w3.org/2000/svg" xmlns:xlink="http://www.w3.org/1999/xlink">
<g id="graph0" class="graph" transform="scale(1 1) rotate(0) translate(4 84)">
<title>scram::mef::Component::GatherGates</title>
<polygon fill="white" stroke="none" points="-4,4 -4,-84 284,-84 284,4 -4,4"/>
<!-- Node1 -->
<g id="node1" class="node"><title>Node1</title>
<polygon fill="#bfbfbf" stroke="black" points="0,-24.5 0,-54.5 122,-54.5 122,-24.5 0,-24.5"/>
<text text-anchor="start" x="8" y="-42.5" font-family="Helvetica,sans-Serif" font-size="10.00">scram::mef::Component</text>
<text text-anchor="middle" x="61" y="-31.5" font-family="Helvetica,sans-Serif" font-size="10.00">::GatherGates</text>
</g>
<!-- Node2 -->
<g id="node2" class="node"><title>Node2</title>
<g id="a_node2"><a xlink:href="classscram_1_1mef_1_1FaultTree.xhtml#a9535bd49edb4598ead887faf8dadd9f2" target="_top" xlink:title="Collects top event gates in this fault tree with components. ">
<polygon fill="white" stroke="black" points="162.5,-49.5 162.5,-79.5 275.5,-79.5 275.5,-49.5 162.5,-49.5"/>
<text text-anchor="start" x="170.5" y="-67.5" font-family="Helvetica,sans-Serif" font-size="10.00">scram::mef::FaultTree</text>
<text text-anchor="middle" x="219" y="-56.5" font-family="Helvetica,sans-Serif" font-size="10.00">::CollectTopEvents</text>
</a>
</g>
</g>
<!-- Node1&#45;&gt;Node2 -->
<g id="edge1" class="edge"><title>Node1&#45;&gt;Node2</title>
<path fill="none" stroke="midnightblue" d="M132.325,-50.77C142.419,-52.3877 152.687,-54.0332 162.442,-55.5966"/>
<polygon fill="midnightblue" stroke="midnightblue" points="132.742,-47.2922 122.314,-49.1657 131.634,-54.204 132.742,-47.2922"/>
</g>
<!-- Node3 -->
<g id="node3" class="node"><title>Node3</title>
<g id="a_node3"><a xlink:href="classscram_1_1mef_1_1Component.xhtml#a483f7a67e2197449902bddc48756e2cd" target="_top" xlink:title="scram::mef::Component\l::components">
<polygon fill="white" stroke="black" points="158,-0.5 158,-30.5 280,-30.5 280,-0.5 158,-0.5"/>
<text text-anchor="start" x="166" y="-18.5" font-family="Helvetica,sans-Serif" font-size="10.00">scram::mef::Component</text>
<text text-anchor="middle" x="219" y="-7.5" font-family="Helvetica,sans-Serif" font-size="10.00">::components</text>
</a>
</g>
</g>
<!-- Node1&#45;&gt;Node3 -->
<g id="edge2" class="edge"><title>Node1&#45;&gt;Node3</title>
<path fill="none" stroke="midnightblue" d="M132.259,-28.6909C140.802,-27.3766 149.469,-26.0432 157.847,-24.7543"/>
<polygon fill="midnightblue" stroke="midnightblue" points="131.665,-25.241 122.314,-30.221 132.73,-32.1596 131.665,-25.241"/>
</g>
</g>
</svg>
