<?xml version="1.0" encoding="UTF-8" standalone="no"?>
<!DOCTYPE svg PUBLIC "-//W3C//DTD SVG 1.1//EN"
 "http://www.w3.org/Graphics/SVG/1.1/DTD/svg11.dtd">
<!-- Generated by graphviz version 2.38.0 (20140413.2041)
 -->
<!-- Title: scram::core::zbdd::CutSetContainer::ExtractIntermediateCutSets Pages: 1 -->
<svg width="356pt" height="116pt"
 viewBox="0.00 0.00 356.00 115.50" xmlns="http://www.w3.org/2000/svg" xmlns:xlink="http://www.w3.org/1999/xlink">
<g id="graph0" class="graph" transform="scale(1 1) rotate(0) translate(4 111.5)">
<title>scram::core::zbdd::CutSetContainer::ExtractIntermediateCutSets</title>
<polygon fill="white" stroke="none" points="-4,4 -4,-111.5 352,-111.5 352,4 -4,4"/>
<!-- Node1 -->
<g id="node1" class="node"><title>Node1</title>
<polygon fill="#bfbfbf" stroke="black" points="0,-39 0,-80 181,-80 181,-39 0,-39"/>
<text text-anchor="start" x="8" y="-68" font-family="Helvetica,sans-Serif" font-size="10.00">scram::core::zbdd::</text>
<text text-anchor="start" x="8" y="-57" font-family="Helvetica,sans-Serif" font-size="10.00">CutSetContainer::ExtractIntermediate</text>
<text text-anchor="middle" x="90.5" y="-46" font-family="Helvetica,sans-Serif" font-size="10.00">CutSets</text>
</g>
<!-- Node2 -->
<g id="node2" class="node"><title>Node2</title>
<g id="a_node2"><a xlink:href="classscram_1_1core_1_1SetNode.xhtml#adfcfad8dde1eb94ed51d8075a5ad6344" target="_top" xlink:title="&lt; For destructive extraction of products. ">
<polygon fill="white" stroke="black" points="217,-88 217,-107 348,-107 348,-88 217,-88"/>
<text text-anchor="middle" x="282.5" y="-95" font-family="Helvetica,sans-Serif" font-size="10.00">scram::core::SetNode::Ptr</text>
</a>
</g>
</g>
<!-- Node1&#45;&gt;Node2 -->
<g id="edge1" class="edge"><title>Node1&#45;&gt;Node2</title>
<path fill="none" stroke="midnightblue" d="M181.214,-77.4429C195.685,-80.3371 210.321,-83.2641 223.771,-85.9542"/>
<polygon fill="midnightblue" stroke="midnightblue" points="223.311,-89.4315 233.804,-87.9607 224.684,-82.5674 223.311,-89.4315"/>
</g>
<!-- Node3 -->
<g id="node3" class="node"><title>Node3</title>
<g id="a_node3"><a xlink:href="classscram_1_1core_1_1Zbdd.xhtml#aa599878612e128fa09e17d0520280dbe" target="_top" xlink:title="scram::core::Zbdd::root">
<polygon fill="white" stroke="black" points="223,-50 223,-69 342,-69 342,-50 223,-50"/>
<text text-anchor="middle" x="282.5" y="-57" font-family="Helvetica,sans-Serif" font-size="10.00">scram::core::Zbdd::root</text>
</a>
</g>
</g>
<!-- Node1&#45;&gt;Node3 -->
<g id="edge2" class="edge"><title>Node1&#45;&gt;Node3</title>
<path fill="none" stroke="midnightblue" d="M181.214,-59.5C191.808,-59.5 202.489,-59.5 212.729,-59.5"/>
<polygon fill="midnightblue" stroke="midnightblue" points="212.802,-63.0001 222.802,-59.5 212.802,-56.0001 212.802,-63.0001"/>
</g>
<!-- Node4 -->
<g id="node4" class="node"><title>Node4</title>
<g id="a_node4"><a xlink:href="classscram_1_1core_1_1Zbdd.xhtml#ab71281cd644eb442dd2d3ee1c5df56c4" target="_top" xlink:title="scram::core::Zbdd::\lsettings">
<polygon fill="white" stroke="black" points="231.5,-0.5 231.5,-30.5 333.5,-30.5 333.5,-0.5 231.5,-0.5"/>
<text text-anchor="start" x="239.5" y="-18.5" font-family="Helvetica,sans-Serif" font-size="10.00">scram::core::Zbdd::</text>
<text text-anchor="middle" x="282.5" y="-7.5" font-family="Helvetica,sans-Serif" font-size="10.00">settings</text>
</a>
</g>
</g>
<!-- Node1&#45;&gt;Node4 -->
<g id="edge3" class="edge"><title>Node1&#45;&gt;Node4</title>
<path fill="none" stroke="midnightblue" d="M180.103,-38.9814C194.134,-35.7321 208.352,-32.4395 221.525,-29.3889"/>
<polygon fill="midnightblue" stroke="midnightblue" points="222.422,-32.7738 231.375,-27.1079 220.843,-25.9543 222.422,-32.7738"/>
</g>
</g>
</svg>
