<?xml version="1.0" encoding="UTF-8" standalone="no"?>
<!DOCTYPE svg PUBLIC "-//W3C//DTD SVG 1.1//EN"
 "http://www.w3.org/Graphics/SVG/1.1/DTD/svg11.dtd">
<!-- Generated by graphviz version 2.38.0 (20140413.2041)
 -->
<!-- Title: constant.cc Pages: 1 -->
<!--zoomable 285 -->
<svg id="main" version="1.1" xmlns="http://www.w3.org/2000/svg" xmlns:xlink="http://www.w3.org/1999/xlink" xml:space="preserve" onload="init(evt)">
<style type="text/css"><![CDATA[
.edge:hover path { stroke: red; }
.edge:hover polygon { stroke: red; fill: red; }
]]></style>
<script type="text/javascript"><![CDATA[
var edges = document.getElementsByTagName('g');
if (edges && edges.length) {
  for (var i=0;i<edges.length;i++) {
    if (edges[i].id.substr(0,4)=='edge') {
      edges[i].setAttribute('class','edge');
    }
  }
}
]]></script>
        <defs>
                <circle id="rim" cx="0" cy="0" r="7"/>
                <circle id="rim2" cx="0" cy="0" r="3.5"/>
                <g id="zoomPlus">
                        <use xlink:href="#rim" fill="#404040">
                                <set attributeName="fill" to="#808080" begin="zoomplus.mouseover" end="zoomplus.mouseout"/>
                        </use>
                        <path d="M-4,0h8M0,-4v8" fill="none" stroke="white" stroke-width="1.5" pointer-events="none"/>
                </g>
                <g id="zoomMin">
                        <use xlink:href="#rim" fill="#404040">
                                <set attributeName="fill" to="#808080" begin="zoomminus.mouseover" end="zoomminus.mouseout"/>
                        </use>
                        <path d="M-4,0h8" fill="none" stroke="white" stroke-width="1.5" pointer-events="none"/>
                </g>
                <g id="dirArrow">
                        <path fill="none" stroke="white" stroke-width="1.5" d="M0,-3.0v7 M-2.5,-0.5L0,-3.0L2.5,-0.5"/>
                </g>
               <g id="resetDef">
                       <use xlink:href="#rim2" fill="#404040">
                               <set attributeName="fill" to="#808080" begin="reset.mouseover" end="reset.mouseout"/>
                       </use>
               </g>
        </defs>

<script type="text/javascript">
var viewWidth = 2303;
var viewHeight = 285;
var sectionId = 'dynsection-0';
</script>
<script xlink:href="svgpan.js"/>
<svg id="graph" class="graph">
<g id="viewport">
<title>constant.cc</title>
<polygon fill="white" stroke="none" points="-4,4 -4,-281 2299,-281 2299,4 -4,4"/>
<!-- Node1 -->
<g id="node1" class="node"><title>Node1</title>
<polygon fill="#bfbfbf" stroke="black" points="1144,-257.5 1144,-276.5 1212,-276.5 1212,-257.5 1144,-257.5"/>
<text text-anchor="middle" x="1178" y="-264.5" font-family="Helvetica,sans-Serif" font-size="10.00">constant.cc</text>
</g>
<!-- Node2 -->
<g id="node2" class="node"><title>Node2</title>
<g id="a_node2"><a xlink:href="constant_8h.xhtml" target="_top" xlink:title="Constant expressions that cannot have uncertainties. ">
<polygon fill="white" stroke="black" points="192,-190.5 192,-209.5 254,-209.5 254,-190.5 192,-190.5"/>
<text text-anchor="middle" x="223" y="-197.5" font-family="Helvetica,sans-Serif" font-size="10.00">constant.h</text>
</a>
</g>
</g>
<!-- Node1&#45;&gt;Node2 -->
<g id="edge1" class="edge"><title>Node1&#45;&gt;Node2</title>
<path fill="none" stroke="midnightblue" d="M1143.77,-265.873C999.673,-265.096 441.892,-259.607 271,-221 263.493,-219.304 255.663,-216.52 248.557,-213.56"/>
<polygon fill="midnightblue" stroke="midnightblue" points="249.975,-210.36 239.415,-209.501 247.135,-216.758 249.975,-210.36"/>
</g>
<!-- Node13 -->
<g id="node13" class="node"><title>Node13</title>
<polygon fill="white" stroke="#bfbfbf" points="359.5,-185 359.5,-215 470.5,-215 470.5,-185 359.5,-185"/>
<text text-anchor="start" x="367.5" y="-203" font-family="Helvetica,sans-Serif" font-size="10.00">boost/math/constants</text>
<text text-anchor="middle" x="415" y="-192" font-family="Helvetica,sans-Serif" font-size="10.00">/constants.hpp</text>
</g>
<!-- Node1&#45;&gt;Node13 -->
<g id="edge14" class="edge"><title>Node1&#45;&gt;Node13</title>
<path fill="none" stroke="midnightblue" d="M1143.88,-266.608C1042.04,-267.823 731.717,-267.179 480,-221 475.242,-220.127 470.343,-219.021 465.468,-217.78"/>
<polygon fill="midnightblue" stroke="midnightblue" points="466.121,-214.33 455.552,-215.071 464.277,-221.083 466.121,-214.33"/>
</g>
<!-- Node14 -->
<g id="node14" class="node"><title>Node14</title>
<polygon fill="white" stroke="#bfbfbf" points="488.5,-185 488.5,-215 601.5,-215 601.5,-185 488.5,-185"/>
<text text-anchor="start" x="496.5" y="-203" font-family="Helvetica,sans-Serif" font-size="10.00">/usr/include/boost</text>
<text text-anchor="middle" x="545" y="-192" font-family="Helvetica,sans-Serif" font-size="10.00">/math/tools/config.hpp</text>
</g>
<!-- Node1&#45;&gt;Node14 -->
<g id="edge15" class="edge"><title>Node1&#45;&gt;Node14</title>
<path fill="none" stroke="midnightblue" d="M1143.79,-265.835C1055.03,-264.859 810.398,-258.67 611,-221 606.25,-220.103 601.357,-218.991 596.483,-217.755"/>
<polygon fill="midnightblue" stroke="midnightblue" points="597.127,-214.303 586.56,-215.071 595.3,-221.06 597.127,-214.303"/>
</g>
<!-- Node15 -->
<g id="node15" class="node"><title>Node15</title>
<polygon fill="white" stroke="#bfbfbf" points="619.5,-185 619.5,-215 744.5,-215 744.5,-185 619.5,-185"/>
<text text-anchor="start" x="627.5" y="-203" font-family="Helvetica,sans-Serif" font-size="10.00">/usr/include/boost</text>
<text text-anchor="middle" x="682" y="-192" font-family="Helvetica,sans-Serif" font-size="10.00">/math/policies/policy.hpp</text>
</g>
<!-- Node1&#45;&gt;Node15 -->
<g id="edge16" class="edge"><title>Node1&#45;&gt;Node15</title>
<path fill="none" stroke="midnightblue" d="M1143.92,-264.297C1071.55,-260.263 897.431,-248.338 754,-221 748.875,-220.023 743.583,-218.859 738.303,-217.592"/>
<polygon fill="midnightblue" stroke="midnightblue" points="738.764,-214.099 728.211,-215.048 737.052,-220.886 738.764,-214.099"/>
</g>
<!-- Node16 -->
<g id="node16" class="node"><title>Node16</title>
<polygon fill="white" stroke="#bfbfbf" points="763,-185 763,-215 889,-215 889,-185 763,-185"/>
<text text-anchor="start" x="771" y="-203" font-family="Helvetica,sans-Serif" font-size="10.00">/usr/include/boost</text>
<text text-anchor="middle" x="826" y="-192" font-family="Helvetica,sans-Serif" font-size="10.00">/math/tools/precision.hpp</text>
</g>
<!-- Node1&#45;&gt;Node16 -->
<g id="edge17" class="edge"><title>Node1&#45;&gt;Node16</title>
<path fill="none" stroke="midnightblue" d="M1143.72,-261.746C1090.71,-254.885 985.782,-240.183 898,-221 893.334,-219.98 888.522,-218.84 883.701,-217.636"/>
<polygon fill="midnightblue" stroke="midnightblue" points="884.395,-214.201 873.838,-215.09 882.646,-220.978 884.395,-214.201"/>
</g>
<!-- Node17 -->
<g id="node17" class="node"><title>Node17</title>
<polygon fill="white" stroke="#bfbfbf" points="907,-185 907,-215 1001,-215 1001,-185 907,-185"/>
<text text-anchor="start" x="915" y="-203" font-family="Helvetica,sans-Serif" font-size="10.00">/usr/include/boost</text>
<text text-anchor="middle" x="954" y="-192" font-family="Helvetica,sans-Serif" font-size="10.00">/lexical_cast.hpp</text>
</g>
<!-- Node1&#45;&gt;Node17 -->
<g id="edge18" class="edge"><title>Node1&#45;&gt;Node17</title>
<path fill="none" stroke="midnightblue" d="M1143.98,-257.751C1109.88,-249.281 1055.98,-235.341 1010,-221 1007.27,-220.15 1004.48,-219.25 1001.67,-218.321"/>
<polygon fill="midnightblue" stroke="midnightblue" points="1002.71,-214.977 992.118,-215.08 1000.46,-221.606 1002.71,-214.977"/>
</g>
<!-- Node18 -->
<g id="node18" class="node"><title>Node18</title>
<polygon fill="white" stroke="#bfbfbf" points="1019,-185 1019,-215 1113,-215 1113,-185 1019,-185"/>
<text text-anchor="start" x="1027" y="-203" font-family="Helvetica,sans-Serif" font-size="10.00">/usr/include/boost</text>
<text text-anchor="middle" x="1066" y="-192" font-family="Helvetica,sans-Serif" font-size="10.00">/mpl/if.hpp</text>
</g>
<!-- Node1&#45;&gt;Node18 -->
<g id="edge19" class="edge"><title>Node1&#45;&gt;Node18</title>
<path fill="none" stroke="midnightblue" d="M1162.9,-257.234C1146.59,-247.774 1120.13,-232.414 1098.97,-220.136"/>
<polygon fill="midnightblue" stroke="midnightblue" points="1100.68,-217.081 1090.28,-215.089 1097.17,-223.136 1100.68,-217.081"/>
</g>
<!-- Node19 -->
<g id="node19" class="node"><title>Node19</title>
<polygon fill="white" stroke="#bfbfbf" points="1131,-185 1131,-215 1225,-215 1225,-185 1131,-185"/>
<text text-anchor="start" x="1139" y="-203" font-family="Helvetica,sans-Serif" font-size="10.00">/usr/include/boost</text>
<text text-anchor="middle" x="1178" y="-192" font-family="Helvetica,sans-Serif" font-size="10.00">/mpl/and.hpp</text>
</g>
<!-- Node1&#45;&gt;Node19 -->
<g id="edge20" class="edge"><title>Node1&#45;&gt;Node19</title>
<path fill="none" stroke="midnightblue" d="M1178,-257.234C1178,-249.041 1178,-236.423 1178,-225.214"/>
<polygon fill="midnightblue" stroke="midnightblue" points="1181.5,-225.089 1178,-215.089 1174.5,-225.089 1181.5,-225.089"/>
</g>
<!-- Node20 -->
<g id="node20" class="node"><title>Node20</title>
<polygon fill="white" stroke="#bfbfbf" points="1243,-185 1243,-215 1337,-215 1337,-185 1243,-185"/>
<text text-anchor="start" x="1251" y="-203" font-family="Helvetica,sans-Serif" font-size="10.00">/usr/include/boost</text>
<text text-anchor="middle" x="1290" y="-192" font-family="Helvetica,sans-Serif" font-size="10.00">/mpl/int.hpp</text>
</g>
<!-- Node1&#45;&gt;Node20 -->
<g id="edge21" class="edge"><title>Node1&#45;&gt;Node20</title>
<path fill="none" stroke="midnightblue" d="M1193.1,-257.234C1209.41,-247.774 1235.87,-232.414 1257.03,-220.136"/>
<polygon fill="midnightblue" stroke="midnightblue" points="1258.83,-223.136 1265.72,-215.089 1255.32,-217.081 1258.83,-223.136"/>
</g>
<!-- Node21 -->
<g id="node21" class="node"><title>Node21</title>
<polygon fill="white" stroke="#bfbfbf" points="1355.5,-185 1355.5,-215 1502.5,-215 1502.5,-185 1355.5,-185"/>
<text text-anchor="start" x="1363.5" y="-203" font-family="Helvetica,sans-Serif" font-size="10.00">/usr/include/boost</text>
<text text-anchor="middle" x="1429" y="-192" font-family="Helvetica,sans-Serif" font-size="10.00">/type_traits/is_convertible.hpp</text>
</g>
<!-- Node1&#45;&gt;Node21 -->
<g id="edge22" class="edge"><title>Node1&#45;&gt;Node21</title>
<path fill="none" stroke="midnightblue" d="M1211.07,-257.436C1250.05,-247.341 1315.73,-230.333 1364.82,-217.622"/>
<polygon fill="midnightblue" stroke="midnightblue" points="1365.91,-220.954 1374.71,-215.059 1364.15,-214.178 1365.91,-220.954"/>
</g>
<!-- Node22 -->
<g id="node22" class="node"><title>Node22</title>
<polygon fill="white" stroke="#bfbfbf" points="1520.5,-185 1520.5,-215 1615.5,-215 1615.5,-185 1520.5,-185"/>
<text text-anchor="start" x="1528.5" y="-203" font-family="Helvetica,sans-Serif" font-size="10.00">/usr/include/boost</text>
<text text-anchor="middle" x="1568" y="-192" font-family="Helvetica,sans-Serif" font-size="10.00">/utility/declval.hpp</text>
</g>
<!-- Node1&#45;&gt;Node22 -->
<g id="edge23" class="edge"><title>Node1&#45;&gt;Node22</title>
<path fill="none" stroke="midnightblue" d="M1212.09,-263.77C1273.01,-259.265 1404.26,-247.191 1512,-221 1515.41,-220.17 1518.91,-219.207 1522.41,-218.162"/>
<polygon fill="midnightblue" stroke="midnightblue" points="1523.73,-221.414 1532.19,-215.038 1521.6,-214.746 1523.73,-221.414"/>
</g>
<!-- Node23 -->
<g id="node23" class="node"><title>Node23</title>
<polygon fill="white" stroke="#bfbfbf" points="1633.5,-179.5 1633.5,-220.5 1762.5,-220.5 1762.5,-179.5 1633.5,-179.5"/>
<text text-anchor="start" x="1641.5" y="-208.5" font-family="Helvetica,sans-Serif" font-size="10.00">/usr/include/boost</text>
<text text-anchor="start" x="1641.5" y="-197.5" font-family="Helvetica,sans-Serif" font-size="10.00">/math/constants/calculate</text>
<text text-anchor="middle" x="1698" y="-186.5" font-family="Helvetica,sans-Serif" font-size="10.00">_constants.hpp</text>
</g>
<!-- Node1&#45;&gt;Node23 -->
<g id="edge24" class="edge"><title>Node1&#45;&gt;Node23</title>
<path fill="none" stroke="midnightblue" d="M1212.2,-264.507C1285.86,-260.876 1465.05,-249.81 1623.34,-221.165"/>
<polygon fill="midnightblue" stroke="midnightblue" points="1624.05,-224.593 1633.25,-219.343 1622.78,-217.709 1624.05,-224.593"/>
</g>
<!-- Node24 -->
<g id="node24" class="node"><title>Node24</title>
<polygon fill="white" stroke="#bfbfbf" points="1781,-179.5 1781,-220.5 1901,-220.5 1901,-179.5 1781,-179.5"/>
<text text-anchor="start" x="1789" y="-208.5" font-family="Helvetica,sans-Serif" font-size="10.00">/usr/include/boost</text>
<text text-anchor="start" x="1789" y="-197.5" font-family="Helvetica,sans-Serif" font-size="10.00">/math/special_functions</text>
<text text-anchor="middle" x="1841" y="-186.5" font-family="Helvetica,sans-Serif" font-size="10.00">/trunc.hpp</text>
</g>
<!-- Node1&#45;&gt;Node24 -->
<g id="edge25" class="edge"><title>Node1&#45;&gt;Node24</title>
<path fill="none" stroke="midnightblue" d="M1212.13,-265.868C1302.22,-265.002 1553.82,-259.221 1770.98,-220.98"/>
<polygon fill="midnightblue" stroke="midnightblue" points="1771.74,-224.399 1780.96,-219.193 1770.5,-217.509 1771.74,-224.399"/>
</g>
<!-- Node25 -->
<g id="node25" class="node"><title>Node25</title>
<polygon fill="white" stroke="#bfbfbf" points="1919,-179.5 1919,-220.5 2039,-220.5 2039,-179.5 1919,-179.5"/>
<text text-anchor="start" x="1927" y="-208.5" font-family="Helvetica,sans-Serif" font-size="10.00">/usr/include/boost</text>
<text text-anchor="start" x="1927" y="-197.5" font-family="Helvetica,sans-Serif" font-size="10.00">/math/special_functions</text>
<text text-anchor="middle" x="1979" y="-186.5" font-family="Helvetica,sans-Serif" font-size="10.00">/math_fwd.hpp</text>
</g>
<!-- Node1&#45;&gt;Node25 -->
<g id="edge26" class="edge"><title>Node1&#45;&gt;Node25</title>
<path fill="none" stroke="midnightblue" d="M1212.24,-266.562C1316.07,-267.704 1636.41,-267.096 1908.89,-220.976"/>
<polygon fill="midnightblue" stroke="midnightblue" points="1909.71,-224.387 1918.97,-219.245 1908.52,-217.488 1909.71,-224.387"/>
</g>
<!-- Node26 -->
<g id="node26" class="node"><title>Node26</title>
<polygon fill="white" stroke="#bfbfbf" points="2057,-179.5 2057,-220.5 2157,-220.5 2157,-179.5 2057,-179.5"/>
<text text-anchor="start" x="2065" y="-208.5" font-family="Helvetica,sans-Serif" font-size="10.00">/usr/include/boost</text>
<text text-anchor="start" x="2065" y="-197.5" font-family="Helvetica,sans-Serif" font-size="10.00">/math/policies/error</text>
<text text-anchor="middle" x="2107" y="-186.5" font-family="Helvetica,sans-Serif" font-size="10.00">_handling.hpp</text>
</g>
<!-- Node1&#45;&gt;Node26 -->
<g id="edge27" class="edge"><title>Node1&#45;&gt;Node26</title>
<path fill="none" stroke="midnightblue" d="M1212.18,-265.485C1349.75,-263.224 1863.91,-252.904 2046.71,-220.899"/>
<polygon fill="midnightblue" stroke="midnightblue" points="2047.51,-224.31 2056.72,-219.061 2046.25,-217.425 2047.51,-224.31"/>
</g>
<!-- Node27 -->
<g id="node27" class="node"><title>Node27</title>
<polygon fill="white" stroke="#bfbfbf" points="2175,-179.5 2175,-220.5 2295,-220.5 2295,-179.5 2175,-179.5"/>
<text text-anchor="start" x="2183" y="-208.5" font-family="Helvetica,sans-Serif" font-size="10.00">/usr/include/boost</text>
<text text-anchor="start" x="2183" y="-197.5" font-family="Helvetica,sans-Serif" font-size="10.00">/math/special_functions</text>
<text text-anchor="middle" x="2235" y="-186.5" font-family="Helvetica,sans-Serif" font-size="10.00">/fpclassify.hpp</text>
</g>
<!-- Node1&#45;&gt;Node27 -->
<g id="edge28" class="edge"><title>Node1&#45;&gt;Node27</title>
<path fill="none" stroke="midnightblue" d="M1212.07,-265.529C1361.06,-263.306 1956.84,-252.679 2165.07,-220.882"/>
<polygon fill="midnightblue" stroke="midnightblue" points="2165.66,-224.332 2174.98,-219.303 2164.56,-217.42 2165.66,-224.332"/>
</g>
<!-- Node28 -->
<g id="node28" class="node"><title>Node28</title>
<g id="a_node28"><a xlink:href="error_8h.xhtml" target="_top" xlink:title="Exceptions for SCRAM. ">
<polygon fill="white" stroke="black" points="280.5,-190.5 280.5,-209.5 341.5,-209.5 341.5,-190.5 280.5,-190.5"/>
<text text-anchor="middle" x="311" y="-197.5" font-family="Helvetica,sans-Serif" font-size="10.00">src/error.h</text>
</a>
</g>
</g>
<!-- Node1&#45;&gt;Node28 -->
<g id="edge29" class="edge"><title>Node1&#45;&gt;Node28</title>
<path fill="none" stroke="midnightblue" d="M1143.54,-265.986C1007.04,-265.645 504.24,-261.602 351,-221 345.184,-219.459 339.223,-217.018 333.738,-214.363"/>
<polygon fill="midnightblue" stroke="midnightblue" points="334.993,-211.068 324.514,-209.502 331.729,-217.261 334.993,-211.068"/>
</g>
<!-- Node3 -->
<g id="node3" class="node"><title>Node3</title>
<g id="a_node3"><a xlink:href="expression_8h.xhtml" target="_top" xlink:title="Provides the base class for all expressions and units for expression values. ">
<polygon fill="white" stroke="black" points="172.5,-123.5 172.5,-142.5 261.5,-142.5 261.5,-123.5 172.5,-123.5"/>
<text text-anchor="middle" x="217" y="-130.5" font-family="Helvetica,sans-Serif" font-size="10.00">src/expression.h</text>
</a>
</g>
</g>
<!-- Node2&#45;&gt;Node3 -->
<g id="edge2" class="edge"><title>Node2&#45;&gt;Node3</title>
<path fill="none" stroke="midnightblue" d="M222.191,-190.234C221.309,-180.683 219.872,-165.118 218.734,-152.783"/>
<polygon fill="midnightblue" stroke="midnightblue" points="222.201,-152.263 217.796,-142.627 215.23,-152.907 222.201,-152.263"/>
</g>
<!-- Node4 -->
<g id="node4" class="node"><title>Node4</title>
<polygon fill="white" stroke="#bfbfbf" points="145,-6 145,-25 191,-25 191,-6 145,-6"/>
<text text-anchor="middle" x="168" y="-13" font-family="Helvetica,sans-Serif" font-size="10.00">cstdint</text>
</g>
<!-- Node3&#45;&gt;Node4 -->
<g id="edge3" class="edge"><title>Node3&#45;&gt;Node4</title>
<path fill="none" stroke="midnightblue" d="M214.793,-123.393C211.427,-110.762 204.497,-86.5824 196,-67 191.084,-55.6697 184.414,-43.5486 178.818,-34.0221"/>
<polygon fill="midnightblue" stroke="midnightblue" points="181.649,-31.9381 173.493,-25.1757 175.652,-35.5483 181.649,-31.9381"/>
</g>
<!-- Node5 -->
<g id="node5" class="node"><title>Node5</title>
<polygon fill="white" stroke="#bfbfbf" points="0,-67.5 0,-86.5 52,-86.5 52,-67.5 0,-67.5"/>
<text text-anchor="middle" x="26" y="-74.5" font-family="Helvetica,sans-Serif" font-size="10.00">memory</text>
</g>
<!-- Node3&#45;&gt;Node5 -->
<g id="edge4" class="edge"><title>Node3&#45;&gt;Node5</title>
<path fill="none" stroke="midnightblue" d="M186.735,-123.444C152.795,-113.848 97.796,-98.2984 61.7608,-88.1104"/>
<polygon fill="midnightblue" stroke="midnightblue" points="62.7081,-84.7411 52.1331,-85.3884 60.8037,-91.4771 62.7081,-84.7411"/>
</g>
<!-- Node6 -->
<g id="node6" class="node"><title>Node6</title>
<polygon fill="white" stroke="#bfbfbf" points="209,-6 209,-25 253,-25 253,-6 209,-6"/>
<text text-anchor="middle" x="231" y="-13" font-family="Helvetica,sans-Serif" font-size="10.00">vector</text>
</g>
<!-- Node3&#45;&gt;Node6 -->
<g id="edge5" class="edge"><title>Node3&#45;&gt;Node6</title>
<path fill="none" stroke="midnightblue" d="M220.305,-123.191C223.486,-114.23 228.085,-99.8695 230,-87 232.587,-69.6125 232.586,-49.5471 232.087,-35.2799"/>
<polygon fill="midnightblue" stroke="midnightblue" points="235.581,-35.0693 231.62,-25.243 228.589,-35.395 235.581,-35.0693"/>
</g>
<!-- Node7 -->
<g id="node7" class="node"><title>Node7</title>
<polygon fill="white" stroke="#bfbfbf" points="70.5,-67.5 70.5,-86.5 187.5,-86.5 187.5,-67.5 70.5,-67.5"/>
<text text-anchor="middle" x="129" y="-74.5" font-family="Helvetica,sans-Serif" font-size="10.00">boost/noncopyable.hpp</text>
</g>
<!-- Node3&#45;&gt;Node7 -->
<g id="edge6" class="edge"><title>Node3&#45;&gt;Node7</title>
<path fill="none" stroke="midnightblue" d="M202.861,-123.324C189.134,-114.9 168.064,-101.971 151.936,-92.0741"/>
<polygon fill="midnightblue" stroke="midnightblue" points="153.457,-88.9016 143.104,-86.6545 149.796,-94.8678 153.457,-88.9016"/>
</g>
<!-- Node8 -->
<g id="node8" class="node"><title>Node8</title>
<g id="a_node8"><a xlink:href="element_8h.xhtml" target="_top" xlink:title="Helper classes, structs, and properties common to all other classes. ">
<polygon fill="white" stroke="black" points="305.5,-67.5 305.5,-86.5 364.5,-86.5 364.5,-67.5 305.5,-67.5"/>
<text text-anchor="middle" x="335" y="-74.5" font-family="Helvetica,sans-Serif" font-size="10.00">element.h</text>
</a>
</g>
</g>
<!-- Node3&#45;&gt;Node8 -->
<g id="edge7" class="edge"><title>Node3&#45;&gt;Node8</title>
<path fill="none" stroke="midnightblue" d="M235.697,-123.444C254.944,-114.636 285.152,-100.812 307.2,-90.722"/>
<polygon fill="midnightblue" stroke="midnightblue" points="308.753,-93.8603 316.39,-86.5164 305.84,-87.4951 308.753,-93.8603"/>
</g>
<!-- Node8&#45;&gt;Node4 -->
<g id="edge8" class="edge"><title>Node8&#45;&gt;Node4</title>
<path fill="none" stroke="midnightblue" d="M306.511,-67.4479C278.977,-58.9614 236.227,-45.2013 200,-31 198.58,-30.4435 197.133,-29.8574 195.676,-29.2528"/>
<polygon fill="midnightblue" stroke="midnightblue" points="196.703,-25.8831 186.137,-25.1118 193.916,-32.3042 196.703,-25.8831"/>
</g>
<!-- Node8&#45;&gt;Node6 -->
<g id="edge10" class="edge"><title>Node8&#45;&gt;Node6</title>
<path fill="none" stroke="midnightblue" d="M320.099,-67.4751C303.032,-57.7106 274.839,-41.5807 254.738,-30.0808"/>
<polygon fill="midnightblue" stroke="midnightblue" points="256.291,-26.9371 245.873,-25.0091 252.815,-33.013 256.291,-26.9371"/>
</g>
<!-- Node9 -->
<g id="node9" class="node"><title>Node9</title>
<polygon fill="white" stroke="#bfbfbf" points="728.5,-6 728.5,-25 769.5,-25 769.5,-6 728.5,-6"/>
<text text-anchor="middle" x="749" y="-13" font-family="Helvetica,sans-Serif" font-size="10.00">string</text>
</g>
<!-- Node8&#45;&gt;Node9 -->
<g id="edge9" class="edge"><title>Node8&#45;&gt;Node9</title>
<path fill="none" stroke="midnightblue" d="M364.675,-75.9961C430.214,-75.2447 591.674,-69.2942 720,-31 721.669,-30.502 723.358,-29.9126 725.038,-29.2612"/>
<polygon fill="midnightblue" stroke="midnightblue" points="726.681,-32.3596 734.356,-25.0563 723.802,-25.9791 726.681,-32.3596"/>
</g>
<!-- Node10 -->
<g id="node10" class="node"><title>Node10</title>
<polygon fill="white" stroke="#bfbfbf" points="553.5,-6 553.5,-25 710.5,-25 710.5,-6 553.5,-6"/>
<text text-anchor="middle" x="632" y="-13" font-family="Helvetica,sans-Serif" font-size="10.00">boost/multi_index_container.hpp</text>
</g>
<!-- Node8&#45;&gt;Node10 -->
<g id="edge11" class="edge"><title>Node8&#45;&gt;Node10</title>
<path fill="none" stroke="midnightblue" d="M364.563,-70.0774C414.668,-60.0396 516.905,-39.5577 579.444,-27.0289"/>
<polygon fill="midnightblue" stroke="midnightblue" points="580.386,-30.4098 589.504,-25.0135 579.011,-23.5461 580.386,-30.4098"/>
</g>
<!-- Node11 -->
<g id="node11" class="node"><title>Node11</title>
<polygon fill="white" stroke="#bfbfbf" points="271,-0.5 271,-30.5 399,-30.5 399,-0.5 271,-0.5"/>
<text text-anchor="start" x="279" y="-18.5" font-family="Helvetica,sans-Serif" font-size="10.00">boost/multi_index/hashed</text>
<text text-anchor="middle" x="335" y="-7.5" font-family="Helvetica,sans-Serif" font-size="10.00">_index.hpp</text>
</g>
<!-- Node8&#45;&gt;Node11 -->
<g id="edge12" class="edge"><title>Node8&#45;&gt;Node11</title>
<path fill="none" stroke="midnightblue" d="M335,-67.4751C335,-60.471 335,-50.1919 335,-40.6956"/>
<polygon fill="midnightblue" stroke="midnightblue" points="338.5,-40.5229 335,-30.523 331.5,-40.523 338.5,-40.5229"/>
</g>
<!-- Node12 -->
<g id="node12" class="node"><title>Node12</title>
<polygon fill="white" stroke="#bfbfbf" points="417,-0.5 417,-30.5 535,-30.5 535,-0.5 417,-0.5"/>
<text text-anchor="start" x="425" y="-18.5" font-family="Helvetica,sans-Serif" font-size="10.00">boost/multi_index/mem</text>
<text text-anchor="middle" x="476" y="-7.5" font-family="Helvetica,sans-Serif" font-size="10.00">_fun.hpp</text>
</g>
<!-- Node8&#45;&gt;Node12 -->
<g id="edge13" class="edge"><title>Node8&#45;&gt;Node12</title>
<path fill="none" stroke="midnightblue" d="M355.202,-67.4751C375.548,-58.8895 407.555,-45.3827 433.512,-34.4291"/>
<polygon fill="midnightblue" stroke="midnightblue" points="434.917,-37.6356 442.769,-30.523 432.195,-31.1863 434.917,-37.6356"/>
</g>
<!-- Node28&#45;&gt;Node9 -->
<g id="edge31" class="edge"><title>Node28&#45;&gt;Node9</title>
<path fill="none" stroke="midnightblue" d="M327.59,-190.322C334.73,-186.687 343.211,-182.502 351,-179 512.159,-106.539 558.841,-103.461 720,-31 721.155,-30.4806 722.331,-29.9405 723.516,-29.3874"/>
<polygon fill="midnightblue" stroke="midnightblue" points="725.071,-32.523 732.55,-25.0184 722.024,-26.2212 725.071,-32.523"/>
</g>
<!-- Node29 -->
<g id="node29" class="node"><title>Node29</title>
<polygon fill="white" stroke="#bfbfbf" points="281.5,-123.5 281.5,-142.5 340.5,-142.5 340.5,-123.5 281.5,-123.5"/>
<text text-anchor="middle" x="311" y="-130.5" font-family="Helvetica,sans-Serif" font-size="10.00">exception</text>
</g>
<!-- Node28&#45;&gt;Node29 -->
<g id="edge30" class="edge"><title>Node28&#45;&gt;Node29</title>
<path fill="none" stroke="midnightblue" d="M311,-190.234C311,-180.683 311,-165.118 311,-152.783"/>
<polygon fill="midnightblue" stroke="midnightblue" points="314.5,-152.627 311,-142.627 307.5,-152.627 314.5,-152.627"/>
</g>
</g>
</svg>
        <g id="navigator" transform="translate(0 0)" fill="#404254">
                <rect fill="#f2f5e9" fill-opacity="0.5" stroke="#606060" stroke-width=".5" x="0" y="0" width="60" height="60"/>
                <use id="zoomplus" xlink:href="#zoomPlus" x="17" y="9" onmousedown="handleZoom(evt,'in')"/>
                <use id="zoomminus" xlink:href="#zoomMin" x="42" y="9" onmousedown="handleZoom(evt,'out')"/>
                <use id="reset" xlink:href="#resetDef" x="30" y="36" onmousedown="handleReset()"/>
                <g id="arrowUp" xlink:href="#dirArrow" transform="translate(30 24)" onmousedown="handlePan(0,-1)">
                  <use xlink:href="#rim" fill="#404040">
                        <set attributeName="fill" to="#808080" begin="arrowUp.mouseover" end="arrowUp.mouseout"/>
                  </use>
                  <path fill="none" stroke="white" stroke-width="1.5" d="M0,-3.0v7 M-2.5,-0.5L0,-3.0L2.5,-0.5"/>
                </g>
                <g id="arrowRight" xlink:href="#dirArrow" transform="rotate(90) translate(36 -43)" onmousedown="handlePan(1,0)">
                  <use xlink:href="#rim" fill="#404040">
                        <set attributeName="fill" to="#808080" begin="arrowRight.mouseover" end="arrowRight.mouseout"/>
                  </use>
                  <path fill="none" stroke="white" stroke-width="1.5" d="M0,-3.0v7 M-2.5,-0.5L0,-3.0L2.5,-0.5"/>
                </g>
                <g id="arrowDown" xlink:href="#dirArrow" transform="rotate(180) translate(-30 -48)" onmousedown="handlePan(0,1)">
                  <use xlink:href="#rim" fill="#404040">
                        <set attributeName="fill" to="#808080" begin="arrowDown.mouseover" end="arrowDown.mouseout"/>
                  </use>
                  <path fill="none" stroke="white" stroke-width="1.5" d="M0,-3.0v7 M-2.5,-0.5L0,-3.0L2.5,-0.5"/>
                </g>
                <g id="arrowLeft" xlink:href="#dirArrow" transform="rotate(270) translate(-36 17)" onmousedown="handlePan(-1,0)">
                  <use xlink:href="#rim" fill="#404040">
                        <set attributeName="fill" to="#808080" begin="arrowLeft.mouseover" end="arrowLeft.mouseout"/>
                  </use>
                  <path fill="none" stroke="white" stroke-width="1.5" d="M0,-3.0v7 M-2.5,-0.5L0,-3.0L2.5,-0.5"/>
                </g>
        </g>
        <svg viewBox="0 0 15 15" width="100%" height="30px" preserveAspectRatio="xMaxYMin meet">
         <g id="arrow_out" transform="scale(0.3 0.3)">
          <a xlink:href="constant_8cc__incl_org.svg" target="_base">
           <rect id="button" ry="5" rx="5" y="6" x="6" height="38" width="38"
                fill="#f2f5e9" fill-opacity="0.5" stroke="#606060" stroke-width="1.0"/>
           <path id="arrow"
             d="M 11.500037,31.436501 C 11.940474,20.09759 22.043105,11.32322 32.158766,21.979434 L 37.068811,17.246167 C 37.068811,17.246167 37.088388,32 37.088388,32 L 22.160133,31.978069 C 22.160133,31.978069 26.997745,27.140456 26.997745,27.140456 C 18.528582,18.264221 13.291696,25.230495 11.500037,31.436501 z"
             style="fill:#404040;"/>
          </a>
         </g>
        </svg>
</svg>
