<?xml version="1.0" encoding="UTF-8" standalone="no"?>
<!DOCTYPE svg PUBLIC "-//W3C//DTD SVG 1.1//EN"
 "http://www.w3.org/Graphics/SVG/1.1/DTD/svg11.dtd">
<!-- Generated by graphviz version 2.38.0 (20140413.2041)
 -->
<!-- Title: cycle.cc Pages: 1 -->
<!--zoomable 319 -->
<svg id="main" version="1.1" xmlns="http://www.w3.org/2000/svg" xmlns:xlink="http://www.w3.org/1999/xlink" xml:space="preserve" onload="init(evt)">
<style type="text/css"><![CDATA[
.edge:hover path { stroke: red; }
.edge:hover polygon { stroke: red; fill: red; }
]]></style>
<script type="text/javascript"><![CDATA[
var edges = document.getElementsByTagName('g');
if (edges && edges.length) {
  for (var i=0;i<edges.length;i++) {
    if (edges[i].id.substr(0,4)=='edge') {
      edges[i].setAttribute('class','edge');
    }
  }
}
]]></script>
        <defs>
                <circle id="rim" cx="0" cy="0" r="7"/>
                <circle id="rim2" cx="0" cy="0" r="3.5"/>
                <g id="zoomPlus">
                        <use xlink:href="#rim" fill="#404040">
                                <set attributeName="fill" to="#808080" begin="zoomplus.mouseover" end="zoomplus.mouseout"/>
                        </use>
                        <path d="M-4,0h8M0,-4v8" fill="none" stroke="white" stroke-width="1.5" pointer-events="none"/>
                </g>
                <g id="zoomMin">
                        <use xlink:href="#rim" fill="#404040">
                                <set attributeName="fill" to="#808080" begin="zoomminus.mouseover" end="zoomminus.mouseout"/>
                        </use>
                        <path d="M-4,0h8" fill="none" stroke="white" stroke-width="1.5" pointer-events="none"/>
                </g>
                <g id="dirArrow">
                        <path fill="none" stroke="white" stroke-width="1.5" d="M0,-3.0v7 M-2.5,-0.5L0,-3.0L2.5,-0.5"/>
                </g>
               <g id="resetDef">
                       <use xlink:href="#rim2" fill="#404040">
                               <set attributeName="fill" to="#808080" begin="reset.mouseover" end="reset.mouseout"/>
                       </use>
               </g>
        </defs>

<script type="text/javascript">
var viewWidth = 637;
var viewHeight = 319;
var sectionId = 'dynsection-0';
</script>
<script xlink:href="svgpan.js"/>
<svg id="graph" class="graph">
<g id="viewport">
<title>cycle.cc</title>
<polygon fill="white" stroke="none" points="-4,4 -4,-315 632.5,-315 632.5,4 -4,4"/>
<!-- Node1 -->
<g id="node1" class="node"><title>Node1</title>
<polygon fill="#bfbfbf" stroke="black" points="218,-291.5 218,-310.5 271,-310.5 271,-291.5 218,-291.5"/>
<text text-anchor="middle" x="244.5" y="-298.5" font-family="Helvetica,sans-Serif" font-size="10.00">cycle.cc</text>
</g>
<!-- Node2 -->
<g id="node2" class="node"><title>Node2</title>
<g id="a_node2"><a xlink:href="cycle_8h.xhtml" target="_top" xlink:title="Validation facilities to detect and print cycles in graphs. ">
<polygon fill="white" stroke="black" points="185.5,-235.5 185.5,-254.5 233.5,-254.5 233.5,-235.5 185.5,-235.5"/>
<text text-anchor="middle" x="209.5" y="-242.5" font-family="Helvetica,sans-Serif" font-size="10.00">cycle.h</text>
</a>
</g>
</g>
<!-- Node1&#45;&gt;Node2 -->
<g id="edge1" class="edge"><title>Node1&#45;&gt;Node2</title>
<path fill="none" stroke="midnightblue" d="M238.72,-291.083C233.828,-283.534 226.673,-272.495 220.667,-263.23"/>
<polygon fill="midnightblue" stroke="midnightblue" points="223.548,-261.239 215.172,-254.751 217.674,-265.046 223.548,-261.239"/>
</g>
<!-- Node17 -->
<g id="node17" class="node"><title>Node17</title>
<polygon fill="white" stroke="#bfbfbf" points="251.5,-235.5 251.5,-254.5 307.5,-254.5 307.5,-235.5 251.5,-235.5"/>
<text text-anchor="middle" x="279.5" y="-242.5" font-family="Helvetica,sans-Serif" font-size="10.00">algorithm</text>
</g>
<!-- Node1&#45;&gt;Node17 -->
<g id="edge31" class="edge"><title>Node1&#45;&gt;Node17</title>
<path fill="none" stroke="midnightblue" d="M250.28,-291.083C255.172,-283.534 262.327,-272.495 268.333,-263.23"/>
<polygon fill="midnightblue" stroke="midnightblue" points="271.326,-265.046 273.828,-254.751 265.452,-261.239 271.326,-265.046"/>
</g>
<!-- Node3 -->
<g id="node3" class="node"><title>Node3</title>
<polygon fill="white" stroke="#bfbfbf" points="0,-6 0,-25 41,-25 41,-6 0,-6"/>
<text text-anchor="middle" x="20.5" y="-13" font-family="Helvetica,sans-Serif" font-size="10.00">string</text>
</g>
<!-- Node2&#45;&gt;Node3 -->
<g id="edge2" class="edge"><title>Node2&#45;&gt;Node3</title>
<path fill="none" stroke="midnightblue" d="M185.454,-238.887C160.674,-232.694 121.9,-220.343 94.5,-199 49.0957,-163.633 45.0413,-142.415 29.5,-87 24.7151,-69.9384 22.4664,-49.8333 21.4141,-35.4684"/>
<polygon fill="midnightblue" stroke="midnightblue" points="24.8993,-35.1167 20.8012,-25.3466 17.9121,-35.5399 24.8993,-35.1167"/>
</g>
<!-- Node4 -->
<g id="node4" class="node"><title>Node4</title>
<polygon fill="white" stroke="#bfbfbf" points="584.5,-6 584.5,-25 628.5,-25 628.5,-6 584.5,-6"/>
<text text-anchor="middle" x="606.5" y="-13" font-family="Helvetica,sans-Serif" font-size="10.00">vector</text>
</g>
<!-- Node2&#45;&gt;Node4 -->
<g id="edge3" class="edge"><title>Node2&#45;&gt;Node4</title>
<path fill="none" stroke="midnightblue" d="M233.533,-237.156C308.035,-215.886 530.949,-151.83 544.5,-143 571.965,-125.104 578.173,-116.484 592.5,-87 600.418,-70.7047 603.858,-50.2167 605.352,-35.5331"/>
<polygon fill="midnightblue" stroke="midnightblue" points="608.871,-35.4403 606.182,-25.1924 601.893,-34.8804 608.871,-35.4403"/>
</g>
<!-- Node5 -->
<g id="node5" class="node"><title>Node5</title>
<g id="a_node5"><a xlink:href="event_8h.xhtml" target="_top" xlink:title="Contains event classes for fault trees. ">
<polygon fill="white" stroke="black" points="257,-179.5 257,-198.5 306,-198.5 306,-179.5 257,-179.5"/>
<text text-anchor="middle" x="281.5" y="-186.5" font-family="Helvetica,sans-Serif" font-size="10.00">event.h</text>
</a>
</g>
</g>
<!-- Node2&#45;&gt;Node5 -->
<g id="edge4" class="edge"><title>Node2&#45;&gt;Node5</title>
<path fill="none" stroke="midnightblue" d="M221.068,-235.324C231.92,-227.185 248.381,-214.839 261.383,-205.087"/>
<polygon fill="midnightblue" stroke="midnightblue" points="263.821,-207.634 269.721,-198.834 259.621,-202.034 263.821,-207.634"/>
</g>
<!-- Node16 -->
<g id="node16" class="node"><title>Node16</title>
<g id="a_node16"><a xlink:href="parameter_8h.xhtml" target="_top" xlink:title="Parameter expressions that act like a shareable variable. ">
<polygon fill="white" stroke="black" points="103.5,-179.5 103.5,-198.5 171.5,-198.5 171.5,-179.5 103.5,-179.5"/>
<text text-anchor="middle" x="137.5" y="-186.5" font-family="Helvetica,sans-Serif" font-size="10.00">parameter.h</text>
</a>
</g>
</g>
<!-- Node2&#45;&gt;Node16 -->
<g id="edge26" class="edge"><title>Node2&#45;&gt;Node16</title>
<path fill="none" stroke="midnightblue" d="M197.932,-235.324C187.08,-227.185 170.619,-214.839 157.617,-205.087"/>
<polygon fill="midnightblue" stroke="midnightblue" points="159.379,-202.034 149.279,-198.834 155.179,-207.634 159.379,-202.034"/>
</g>
<!-- Node5&#45;&gt;Node3 -->
<g id="edge7" class="edge"><title>Node5&#45;&gt;Node3</title>
<path fill="none" stroke="midnightblue" d="M270.086,-179.387C242.875,-158.985 171.805,-106.461 109.5,-67 88.6055,-53.7662 64.1156,-39.991 46.1203,-30.1771"/>
<polygon fill="midnightblue" stroke="midnightblue" points="47.3154,-26.8442 36.8551,-25.1611 43.9828,-33 47.3154,-26.8442"/>
</g>
<!-- Node5&#45;&gt;Node4 -->
<g id="edge8" class="edge"><title>Node5&#45;&gt;Node4</title>
<path fill="none" stroke="midnightblue" d="M306.185,-188.2C350.946,-187.539 447.275,-181.341 516.5,-143 559.987,-118.914 587.528,-63.8728 599.528,-34.9823"/>
<polygon fill="midnightblue" stroke="midnightblue" points="602.931,-35.8951 603.367,-25.3092 596.425,-33.3129 602.931,-35.8951"/>
</g>
<!-- Node6 -->
<g id="node6" class="node"><title>Node6</title>
<polygon fill="white" stroke="#bfbfbf" points="517.5,-6 517.5,-25 563.5,-25 563.5,-6 517.5,-6"/>
<text text-anchor="middle" x="540.5" y="-13" font-family="Helvetica,sans-Serif" font-size="10.00">cstdint</text>
</g>
<!-- Node5&#45;&gt;Node6 -->
<g id="edge5" class="edge"><title>Node5&#45;&gt;Node6</title>
<path fill="none" stroke="midnightblue" d="M306.094,-187.504C361.357,-184.894 494.943,-169.888 551.5,-87 562.052,-71.536 556.312,-49.7611 549.838,-34.5155"/>
<polygon fill="midnightblue" stroke="midnightblue" points="552.859,-32.7157 545.431,-25.1617 546.527,-35.6996 552.859,-32.7157"/>
</g>
<!-- Node7 -->
<g id="node7" class="node"><title>Node7</title>
<polygon fill="white" stroke="#bfbfbf" points="48.5,-67.5 48.5,-86.5 100.5,-86.5 100.5,-67.5 48.5,-67.5"/>
<text text-anchor="middle" x="74.5" y="-74.5" font-family="Helvetica,sans-Serif" font-size="10.00">memory</text>
</g>
<!-- Node5&#45;&gt;Node7 -->
<g id="edge6" class="edge"><title>Node5&#45;&gt;Node7</title>
<path fill="none" stroke="midnightblue" d="M256.71,-180.965C231.804,-173.384 192.738,-160.074 161.5,-143 135.577,-128.831 108.795,-107.657 91.9171,-93.3599"/>
<polygon fill="midnightblue" stroke="midnightblue" points="93.9117,-90.4586 84.0506,-86.5842 89.3433,-95.7624 93.9117,-90.4586"/>
</g>
<!-- Node8 -->
<g id="node8" class="node"><title>Node8</title>
<polygon fill="white" stroke="#bfbfbf" points="349,-67.5 349,-86.5 466,-86.5 466,-67.5 349,-67.5"/>
<text text-anchor="middle" x="407.5" y="-74.5" font-family="Helvetica,sans-Serif" font-size="10.00">boost/noncopyable.hpp</text>
</g>
<!-- Node5&#45;&gt;Node8 -->
<g id="edge9" class="edge"><title>Node5&#45;&gt;Node8</title>
<path fill="none" stroke="midnightblue" d="M306.299,-183.911C330.603,-178.622 367.033,-167.059 388.5,-143 399.865,-130.264 404.45,-111.067 406.29,-96.8341"/>
<polygon fill="midnightblue" stroke="midnightblue" points="409.791,-96.9889 407.254,-86.7023 402.823,-96.3256 409.791,-96.9889"/>
</g>
<!-- Node9 -->
<g id="node9" class="node"><title>Node9</title>
<g id="a_node9"><a xlink:href="element_8h.xhtml" target="_top" xlink:title="Helper classes, structs, and properties common to all other classes. ">
<polygon fill="white" stroke="black" points="195,-67.5 195,-86.5 254,-86.5 254,-67.5 195,-67.5"/>
<text text-anchor="middle" x="224.5" y="-74.5" font-family="Helvetica,sans-Serif" font-size="10.00">element.h</text>
</a>
</g>
</g>
<!-- Node5&#45;&gt;Node9 -->
<g id="edge10" class="edge"><title>Node5&#45;&gt;Node9</title>
<path fill="none" stroke="midnightblue" d="M269.532,-179.434C259.093,-171.286 244.417,-158.061 236.5,-143 228.908,-128.557 226.047,-110.106 225.005,-96.5549"/>
<polygon fill="midnightblue" stroke="midnightblue" points="228.498,-96.3282 224.492,-86.5197 221.507,-96.6851 228.498,-96.3282"/>
</g>
<!-- Node13 -->
<g id="node13" class="node"><title>Node13</title>
<g id="a_node13"><a xlink:href="error_8h.xhtml" target="_top" xlink:title="Exceptions for SCRAM. ">
<polygon fill="white" stroke="black" points="335.5,-123.5 335.5,-142.5 379.5,-142.5 379.5,-123.5 335.5,-123.5"/>
<text text-anchor="middle" x="357.5" y="-130.5" font-family="Helvetica,sans-Serif" font-size="10.00">error.h</text>
</a>
</g>
</g>
<!-- Node5&#45;&gt;Node13 -->
<g id="edge17" class="edge"><title>Node5&#45;&gt;Node13</title>
<path fill="none" stroke="midnightblue" d="M293.711,-179.324C305.276,-171.107 322.875,-158.602 336.661,-148.807"/>
<polygon fill="midnightblue" stroke="midnightblue" points="338.943,-151.479 345.067,-142.834 334.888,-145.773 338.943,-151.479"/>
</g>
<!-- Node15 -->
<g id="node15" class="node"><title>Node15</title>
<g id="a_node15"><a xlink:href="expression_8h.xhtml" target="_top" xlink:title="Provides the base class for all expressions and units for expression values. ">
<polygon fill="white" stroke="black" points="245.5,-123.5 245.5,-142.5 317.5,-142.5 317.5,-123.5 245.5,-123.5"/>
<text text-anchor="middle" x="281.5" y="-130.5" font-family="Helvetica,sans-Serif" font-size="10.00">expression.h</text>
</a>
</g>
</g>
<!-- Node5&#45;&gt;Node15 -->
<g id="edge20" class="edge"><title>Node5&#45;&gt;Node15</title>
<path fill="none" stroke="midnightblue" d="M281.5,-179.083C281.5,-172.006 281.5,-161.861 281.5,-152.986"/>
<polygon fill="midnightblue" stroke="midnightblue" points="285,-152.751 281.5,-142.751 278,-152.751 285,-152.751"/>
</g>
<!-- Node9&#45;&gt;Node3 -->
<g id="edge12" class="edge"><title>Node9&#45;&gt;Node3</title>
<path fill="none" stroke="midnightblue" d="M194.922,-69.0975C152.595,-59.0924 76.9368,-40.6997 50.5,-31 49.0744,-30.477 47.6258,-29.9087 46.1738,-29.3101"/>
<polygon fill="midnightblue" stroke="midnightblue" points="47.3077,-25.9824 36.7518,-25.0744 44.4374,-32.367 47.3077,-25.9824"/>
</g>
<!-- Node9&#45;&gt;Node4 -->
<g id="edge13" class="edge"><title>Node9&#45;&gt;Node4</title>
<path fill="none" stroke="midnightblue" d="M254.24,-72.6281C332.82,-63.6516 542.045,-39.293 572.5,-31 574.799,-30.3741 577.146,-29.6247 579.479,-28.801"/>
<polygon fill="midnightblue" stroke="midnightblue" points="580.807,-32.0397 588.83,-25.1209 578.243,-25.5259 580.807,-32.0397"/>
</g>
<!-- Node9&#45;&gt;Node6 -->
<g id="edge11" class="edge"><title>Node9&#45;&gt;Node6</title>
<path fill="none" stroke="midnightblue" d="M254.282,-69.6889C259.03,-68.7461 263.894,-67.8174 268.5,-67 374.268,-48.2303 404.315,-60.867 507.5,-31 509.649,-30.378 511.841,-29.6469 514.023,-28.8494"/>
<polygon fill="midnightblue" stroke="midnightblue" points="515.404,-32.066 523.352,-25.0596 512.77,-25.5808 515.404,-32.066"/>
</g>
<!-- Node10 -->
<g id="node10" class="node"><title>Node10</title>
<polygon fill="white" stroke="#bfbfbf" points="342,-6 342,-25 499,-25 499,-6 342,-6"/>
<text text-anchor="middle" x="420.5" y="-13" font-family="Helvetica,sans-Serif" font-size="10.00">boost/multi_index_container.hpp</text>
</g>
<!-- Node9&#45;&gt;Node10 -->
<g id="edge14" class="edge"><title>Node9&#45;&gt;Node10</title>
<path fill="none" stroke="midnightblue" d="M252.582,-67.4751C286.785,-57.092 344.697,-39.5116 382.77,-27.9538"/>
<polygon fill="midnightblue" stroke="midnightblue" points="383.918,-31.2631 392.47,-25.0091 381.885,-24.5649 383.918,-31.2631"/>
</g>
<!-- Node11 -->
<g id="node11" class="node"><title>Node11</title>
<polygon fill="white" stroke="#bfbfbf" points="59.5,-0.5 59.5,-30.5 187.5,-30.5 187.5,-0.5 59.5,-0.5"/>
<text text-anchor="start" x="67.5" y="-18.5" font-family="Helvetica,sans-Serif" font-size="10.00">boost/multi_index/hashed</text>
<text text-anchor="middle" x="123.5" y="-7.5" font-family="Helvetica,sans-Serif" font-size="10.00">_index.hpp</text>
</g>
<!-- Node9&#45;&gt;Node11 -->
<g id="edge15" class="edge"><title>Node9&#45;&gt;Node11</title>
<path fill="none" stroke="midnightblue" d="M210.029,-67.4751C196.094,-59.266 174.523,-46.5581 156.405,-35.8845"/>
<polygon fill="midnightblue" stroke="midnightblue" points="157.696,-32.5832 147.304,-30.523 154.143,-38.6144 157.696,-32.5832"/>
</g>
<!-- Node12 -->
<g id="node12" class="node"><title>Node12</title>
<polygon fill="white" stroke="#bfbfbf" points="205.5,-0.5 205.5,-30.5 323.5,-30.5 323.5,-0.5 205.5,-0.5"/>
<text text-anchor="start" x="213.5" y="-18.5" font-family="Helvetica,sans-Serif" font-size="10.00">boost/multi_index/mem</text>
<text text-anchor="middle" x="264.5" y="-7.5" font-family="Helvetica,sans-Serif" font-size="10.00">_fun.hpp</text>
</g>
<!-- Node9&#45;&gt;Node12 -->
<g id="edge16" class="edge"><title>Node9&#45;&gt;Node12</title>
<path fill="none" stroke="midnightblue" d="M230.231,-67.4751C235.243,-60.0192 242.751,-48.8519 249.462,-38.8685"/>
<polygon fill="midnightblue" stroke="midnightblue" points="252.398,-40.7747 255.073,-30.523 246.589,-36.8693 252.398,-40.7747"/>
</g>
<!-- Node13&#45;&gt;Node3 -->
<g id="edge19" class="edge"><title>Node13&#45;&gt;Node3</title>
<path fill="none" stroke="midnightblue" d="M335.173,-125.424C332.26,-124.593 329.311,-123.767 326.5,-123 264.102,-105.981 246.417,-108.731 185.5,-87 165.648,-79.9181 161.879,-75.2887 142.5,-67 102.13,-49.733 90.7407,-48.5668 50.5,-31 49.3071,-30.4793 48.0922,-29.938 46.8683,-29.384"/>
<polygon fill="midnightblue" stroke="midnightblue" points="48.0686,-26.0814 37.5279,-25.0116 45.1008,-32.4212 48.0686,-26.0814"/>
</g>
<!-- Node14 -->
<g id="node14" class="node"><title>Node14</title>
<polygon fill="white" stroke="#bfbfbf" points="484,-67.5 484,-86.5 543,-86.5 543,-67.5 484,-67.5"/>
<text text-anchor="middle" x="513.5" y="-74.5" font-family="Helvetica,sans-Serif" font-size="10.00">exception</text>
</g>
<!-- Node13&#45;&gt;Node14 -->
<g id="edge18" class="edge"><title>Node13&#45;&gt;Node14</title>
<path fill="none" stroke="midnightblue" d="M379.52,-124.378C405.402,-115.419 448.664,-100.443 479.009,-89.9393"/>
<polygon fill="midnightblue" stroke="midnightblue" points="480.456,-93.1423 488.76,-86.5637 478.166,-86.5274 480.456,-93.1423"/>
</g>
<!-- Node15&#45;&gt;Node4 -->
<g id="edge23" class="edge"><title>Node15&#45;&gt;Node4</title>
<path fill="none" stroke="midnightblue" d="M286.594,-123.091C295.365,-108.658 314.783,-80.4316 339.5,-67 431.569,-16.9688 471.745,-59.7769 572.5,-31 574.791,-30.3457 577.132,-29.5763 579.461,-28.7388"/>
<polygon fill="midnightblue" stroke="midnightblue" points="580.8,-31.9732 588.806,-25.0341 578.22,-25.4659 580.8,-31.9732"/>
</g>
<!-- Node15&#45;&gt;Node6 -->
<g id="edge21" class="edge"><title>Node15&#45;&gt;Node6</title>
<path fill="none" stroke="midnightblue" d="M282.196,-123.291C283.821,-109.145 289.162,-81.3221 306.5,-67 376.47,-9.20149 420.682,-57.4392 507.5,-31 509.431,-30.4121 511.399,-29.7421 513.364,-29.0202"/>
<polygon fill="midnightblue" stroke="midnightblue" points="515.032,-32.1204 522.981,-25.1161 512.399,-25.6344 515.032,-32.1204"/>
</g>
<!-- Node15&#45;&gt;Node7 -->
<g id="edge22" class="edge"><title>Node15&#45;&gt;Node7</title>
<path fill="none" stroke="midnightblue" d="M248.7,-123.444C211.027,-113.616 149.413,-97.5427 110.459,-87.3807"/>
<polygon fill="midnightblue" stroke="midnightblue" points="111.152,-83.9443 100.592,-84.8067 109.385,-90.7176 111.152,-83.9443"/>
</g>
<!-- Node15&#45;&gt;Node8 -->
<g id="edge24" class="edge"><title>Node15&#45;&gt;Node8</title>
<path fill="none" stroke="midnightblue" d="M301.465,-123.444C322.109,-114.596 354.563,-100.687 378.132,-90.5865"/>
<polygon fill="midnightblue" stroke="midnightblue" points="379.816,-93.6727 387.628,-86.5164 377.058,-87.2387 379.816,-93.6727"/>
</g>
<!-- Node15&#45;&gt;Node9 -->
<g id="edge25" class="edge"><title>Node15&#45;&gt;Node9</title>
<path fill="none" stroke="midnightblue" d="M272.342,-123.324C263.999,-115.42 251.468,-103.548 241.323,-93.9377"/>
<polygon fill="midnightblue" stroke="midnightblue" points="243.491,-91.1705 233.825,-86.8339 238.677,-96.2522 243.491,-91.1705"/>
</g>
<!-- Node16&#45;&gt;Node3 -->
<g id="edge28" class="edge"><title>Node16&#45;&gt;Node3</title>
<path fill="none" stroke="midnightblue" d="M122.218,-179.444C108.597,-171.302 88.6786,-158.081 74.5,-143 54.3958,-121.617 51.2241,-113.907 39.5,-87 32.1482,-70.1277 27.0241,-49.7172 23.9656,-35.2087"/>
<polygon fill="midnightblue" stroke="midnightblue" points="27.3243,-34.1509 21.9524,-25.0189 20.4571,-35.5077 27.3243,-34.1509"/>
</g>
<!-- Node16&#45;&gt;Node7 -->
<g id="edge27" class="edge"><title>Node16&#45;&gt;Node7</title>
<path fill="none" stroke="midnightblue" d="M122.654,-179.271C110.625,-171.374 94.2821,-158.607 85.5,-143 77.5195,-128.818 75.0107,-110.338 74.3573,-96.7091"/>
<polygon fill="midnightblue" stroke="midnightblue" points="77.8547,-96.5349 74.1654,-86.6031 70.856,-96.6678 77.8547,-96.5349"/>
</g>
<!-- Node16&#45;&gt;Node9 -->
<g id="edge29" class="edge"><title>Node16&#45;&gt;Node9</title>
<path fill="none" stroke="midnightblue" d="M144.327,-179.368C158.748,-161.135 192.527,-118.426 211.311,-94.6752"/>
<polygon fill="midnightblue" stroke="midnightblue" points="214.247,-96.606 217.705,-86.5914 208.756,-92.2636 214.247,-96.606"/>
</g>
<!-- Node16&#45;&gt;Node15 -->
<g id="edge30" class="edge"><title>Node16&#45;&gt;Node15</title>
<path fill="none" stroke="midnightblue" d="M160.317,-179.444C184.332,-170.438 222.329,-156.189 249.369,-146.049"/>
<polygon fill="midnightblue" stroke="midnightblue" points="250.655,-149.305 258.79,-142.516 248.197,-142.751 250.655,-149.305"/>
</g>
</g>
</svg>
        <g id="navigator" transform="translate(0 0)" fill="#404254">
                <rect fill="#f2f5e9" fill-opacity="0.5" stroke="#606060" stroke-width=".5" x="0" y="0" width="60" height="60"/>
                <use id="zoomplus" xlink:href="#zoomPlus" x="17" y="9" onmousedown="handleZoom(evt,'in')"/>
                <use id="zoomminus" xlink:href="#zoomMin" x="42" y="9" onmousedown="handleZoom(evt,'out')"/>
                <use id="reset" xlink:href="#resetDef" x="30" y="36" onmousedown="handleReset()"/>
                <g id="arrowUp" xlink:href="#dirArrow" transform="translate(30 24)" onmousedown="handlePan(0,-1)">
                  <use xlink:href="#rim" fill="#404040">
                        <set attributeName="fill" to="#808080" begin="arrowUp.mouseover" end="arrowUp.mouseout"/>
                  </use>
                  <path fill="none" stroke="white" stroke-width="1.5" d="M0,-3.0v7 M-2.5,-0.5L0,-3.0L2.5,-0.5"/>
                </g>
                <g id="arrowRight" xlink:href="#dirArrow" transform="rotate(90) translate(36 -43)" onmousedown="handlePan(1,0)">
                  <use xlink:href="#rim" fill="#404040">
                        <set attributeName="fill" to="#808080" begin="arrowRight.mouseover" end="arrowRight.mouseout"/>
                  </use>
                  <path fill="none" stroke="white" stroke-width="1.5" d="M0,-3.0v7 M-2.5,-0.5L0,-3.0L2.5,-0.5"/>
                </g>
                <g id="arrowDown" xlink:href="#dirArrow" transform="rotate(180) translate(-30 -48)" onmousedown="handlePan(0,1)">
                  <use xlink:href="#rim" fill="#404040">
                        <set attributeName="fill" to="#808080" begin="arrowDown.mouseover" end="arrowDown.mouseout"/>
                  </use>
                  <path fill="none" stroke="white" stroke-width="1.5" d="M0,-3.0v7 M-2.5,-0.5L0,-3.0L2.5,-0.5"/>
                </g>
                <g id="arrowLeft" xlink:href="#dirArrow" transform="rotate(270) translate(-36 17)" onmousedown="handlePan(-1,0)">
                  <use xlink:href="#rim" fill="#404040">
                        <set attributeName="fill" to="#808080" begin="arrowLeft.mouseover" end="arrowLeft.mouseout"/>
                  </use>
                  <path fill="none" stroke="white" stroke-width="1.5" d="M0,-3.0v7 M-2.5,-0.5L0,-3.0L2.5,-0.5"/>
                </g>
        </g>
        <svg viewBox="0 0 15 15" width="100%" height="30px" preserveAspectRatio="xMaxYMin meet">
         <g id="arrow_out" transform="scale(0.3 0.3)">
          <a xlink:href="cycle_8cc__incl_org.svg" target="_base">
           <rect id="button" ry="5" rx="5" y="6" x="6" height="38" width="38"
                fill="#f2f5e9" fill-opacity="0.5" stroke="#606060" stroke-width="1.0"/>
           <path id="arrow"
             d="M 11.500037,31.436501 C 11.940474,20.09759 22.043105,11.32322 32.158766,21.979434 L 37.068811,17.246167 C 37.068811,17.246167 37.088388,32 37.088388,32 L 22.160133,31.978069 C 22.160133,31.978069 26.997745,27.140456 26.997745,27.140456 C 18.528582,18.264221 13.291696,25.230495 11.500037,31.436501 z"
             style="fill:#404040;"/>
          </a>
         </g>
        </svg>
</svg>
