<?xml version="1.0" encoding="UTF-8" standalone="no"?>
<!DOCTYPE svg PUBLIC "-//W3C//DTD SVG 1.1//EN"
 "http://www.w3.org/Graphics/SVG/1.1/DTD/svg11.dtd">
<!-- Generated by graphviz version 2.38.0 (20140413.2041)
 -->
<!-- Title: scram::mef::cycle::GetNodes Pages: 1 -->
<svg width="266pt" height="106pt"
 viewBox="0.00 0.00 266.00 106.00" xmlns="http://www.w3.org/2000/svg" xmlns:xlink="http://www.w3.org/1999/xlink">
<g id="graph0" class="graph" transform="scale(1 1) rotate(0) translate(4 102)">
<title>scram::mef::cycle::GetNodes</title>
<polygon fill="white" stroke="none" points="-4,4 -4,-102 262,-102 262,4 -4,4"/>
<!-- Node1 -->
<g id="node1" class="node"><title>Node1</title>
<polygon fill="#bfbfbf" stroke="black" points="0,-33.5 0,-63.5 101,-63.5 101,-33.5 0,-33.5"/>
<text text-anchor="start" x="8" y="-51.5" font-family="Helvetica,sans-Serif" font-size="10.00">scram::mef::cycle::</text>
<text text-anchor="middle" x="50.5" y="-40.5" font-family="Helvetica,sans-Serif" font-size="10.00">GetNodes</text>
</g>
<!-- Node2 -->
<g id="node2" class="node"><title>Node2</title>
<g id="a_node2"><a xlink:href="classscram_1_1mef_1_1Expression.xhtml#ad4d7901b9be9105c9799167cac7af3e1" target="_top" xlink:title="scram::mef::Expression\l::args">
<polygon fill="white" stroke="black" points="137,-67.5 137,-97.5 258,-97.5 258,-67.5 137,-67.5"/>
<text text-anchor="start" x="145" y="-85.5" font-family="Helvetica,sans-Serif" font-size="10.00">scram::mef::Expression</text>
<text text-anchor="middle" x="197.5" y="-74.5" font-family="Helvetica,sans-Serif" font-size="10.00">::args</text>
</a>
</g>
</g>
<!-- Node1&#45;&gt;Node2 -->
<g id="edge1" class="edge"><title>Node1&#45;&gt;Node2</title>
<path fill="none" stroke="midnightblue" d="M101.401,-60.2009C109.585,-62.12 118.196,-64.1392 126.756,-66.1463"/>
<polygon fill="midnightblue" stroke="midnightblue" points="126.218,-69.6149 136.753,-68.4903 127.816,-62.7998 126.218,-69.6149"/>
</g>
<!-- Node3 -->
<g id="node3" class="node"><title>Node3</title>
<g id="a_node3"><a xlink:href="cycle_8h.xhtml#ac1279787280e6e95fefd75ad5b2c177a" target="_top" xlink:title="Retrieves nodes from a connector. ">
<polygon fill="white" stroke="black" points="147,-0.5 147,-30.5 248,-30.5 248,-0.5 147,-0.5"/>
<text text-anchor="start" x="155" y="-18.5" font-family="Helvetica,sans-Serif" font-size="10.00">scram::mef::cycle::</text>
<text text-anchor="middle" x="197.5" y="-7.5" font-family="Helvetica,sans-Serif" font-size="10.00">GetNodes</text>
</a>
</g>
</g>
<!-- Node1&#45;&gt;Node3 -->
<g id="edge2" class="edge"><title>Node1&#45;&gt;Node3</title>
<path fill="none" stroke="midnightblue" d="M101.401,-37.1433C112.921,-34.5215 125.287,-31.7071 137.165,-29.0039"/>
<polygon fill="midnightblue" stroke="midnightblue" points="138.024,-32.3978 146.998,-26.7659 136.471,-25.5723 138.024,-32.3978"/>
</g>
<!-- Node3&#45;&gt;Node3 -->
<g id="edge3" class="edge"><title>Node3&#45;&gt;Node3</title>
<path fill="none" stroke="midnightblue" d="M172.056,-30.659C165.921,-40.0566 174.402,-49 197.5,-49 211.575,-49 220.223,-45.679 223.442,-40.9579"/>
<polygon fill="midnightblue" stroke="midnightblue" points="226.923,-40.4779 222.944,-30.659 219.932,-40.8167 226.923,-40.4779"/>
</g>
</g>
</svg>
