<?xml version="1.0" encoding="UTF-8" standalone="no"?>
<!DOCTYPE svg PUBLIC "-//W3C//DTD SVG 1.1//EN"
 "http://www.w3.org/Graphics/SVG/1.1/DTD/svg11.dtd">
<!-- Generated by graphviz version 2.38.0 (20140413.2041)
 -->
<!-- Title: scram::mef::cycle::ContinueConnector Pages: 1 -->
<svg width="383pt" height="258pt"
 viewBox="0.00 0.00 383.00 258.00" xmlns="http://www.w3.org/2000/svg" xmlns:xlink="http://www.w3.org/1999/xlink">
<g id="graph0" class="graph" transform="scale(1 1) rotate(0) translate(4 254)">
<title>scram::mef::cycle::ContinueConnector</title>
<polygon fill="white" stroke="none" points="-4,4 -4,-254 379,-254 379,4 -4,4"/>
<!-- Node1 -->
<g id="node1" class="node"><title>Node1</title>
<polygon fill="#bfbfbf" stroke="black" points="0,-100.5 0,-130.5 101,-130.5 101,-100.5 0,-100.5"/>
<text text-anchor="start" x="8" y="-118.5" font-family="Helvetica,sans-Serif" font-size="10.00">scram::mef::cycle::</text>
<text text-anchor="middle" x="50.5" y="-107.5" font-family="Helvetica,sans-Serif" font-size="10.00">ContinueConnector</text>
</g>
<!-- Node2 -->
<g id="node2" class="node"><title>Node2</title>
<g id="a_node2"><a xlink:href="cycle_8h.xhtml#aa171bdba0b088457d0a26b9b78562bee" target="_top" xlink:title="Traverses nodes with connectors to find a cycle. ">
<polygon fill="white" stroke="black" points="137,-201.5 137,-231.5 238,-231.5 238,-201.5 137,-201.5"/>
<text text-anchor="start" x="145" y="-219.5" font-family="Helvetica,sans-Serif" font-size="10.00">scram::mef::cycle::</text>
<text text-anchor="middle" x="187.5" y="-208.5" font-family="Helvetica,sans-Serif" font-size="10.00">DetectCycle</text>
</a>
</g>
</g>
<!-- Node1&#45;&gt;Node2 -->
<g id="edge1" class="edge"><title>Node1&#45;&gt;Node2</title>
<path fill="none" stroke="midnightblue" d="M65.864,-130.796C82.0402,-147.431 109.654,-174.099 137,-192.5 139.08,-193.9 141.254,-195.264 143.481,-196.587"/>
<polygon fill="midnightblue" stroke="midnightblue" points="141.803,-199.659 152.243,-201.463 145.207,-193.542 141.803,-199.659"/>
</g>
<!-- Node4 -->
<g id="node4" class="node"><title>Node4</title>
<g id="a_node4"><a xlink:href="cycle_8h.xhtml#ab4edc4da0dc37e4f9410df2c127a985d" target="_top" xlink:title="Retrieves connectors from a connector. ">
<polygon fill="white" stroke="black" points="137,-134.5 137,-164.5 238,-164.5 238,-134.5 137,-134.5"/>
<text text-anchor="start" x="145" y="-152.5" font-family="Helvetica,sans-Serif" font-size="10.00">scram::mef::cycle::</text>
<text text-anchor="middle" x="187.5" y="-141.5" font-family="Helvetica,sans-Serif" font-size="10.00">GetConnectors</text>
</a>
</g>
</g>
<!-- Node1&#45;&gt;Node4 -->
<g id="edge5" class="edge"><title>Node1&#45;&gt;Node4</title>
<path fill="none" stroke="midnightblue" d="M101.002,-127.967C109.332,-130.065 118.056,-132.262 126.614,-134.418"/>
<polygon fill="midnightblue" stroke="midnightblue" points="126,-137.872 136.552,-136.92 127.709,-131.084 126,-137.872"/>
</g>
<!-- Node5 -->
<g id="node5" class="node"><title>Node5</title>
<g id="a_node5"><a xlink:href="cycle_8h.xhtml#ac1279787280e6e95fefd75ad5b2c177a" target="_top" xlink:title="Retrieves nodes from a connector. ">
<polygon fill="white" stroke="black" points="137,-67.5 137,-97.5 238,-97.5 238,-67.5 137,-67.5"/>
<text text-anchor="start" x="145" y="-85.5" font-family="Helvetica,sans-Serif" font-size="10.00">scram::mef::cycle::</text>
<text text-anchor="middle" x="187.5" y="-74.5" font-family="Helvetica,sans-Serif" font-size="10.00">GetNodes</text>
</a>
</g>
</g>
<!-- Node1&#45;&gt;Node5 -->
<g id="edge7" class="edge"><title>Node1&#45;&gt;Node5</title>
<path fill="none" stroke="midnightblue" d="M101.002,-103.399C109.332,-101.363 118.056,-99.2308 126.614,-97.1387"/>
<polygon fill="midnightblue" stroke="midnightblue" points="127.669,-100.484 136.552,-94.7096 126.007,-93.6843 127.669,-100.484"/>
</g>
<!-- Node6 -->
<g id="node6" class="node"><title>Node6</title>
<g id="a_node6"><a xlink:href="cycle_8cc.xhtml#a01c9d88b1399bae82aef8d4dfef37014" target="_top" xlink:title="Prints the detected cycle from the output produced by cycle detection functions. ">
<polygon fill="white" stroke="black" points="137,-0.5 137,-30.5 238,-30.5 238,-0.5 137,-0.5"/>
<text text-anchor="start" x="145" y="-18.5" font-family="Helvetica,sans-Serif" font-size="10.00">scram::mef::cycle::</text>
<text text-anchor="middle" x="187.5" y="-7.5" font-family="Helvetica,sans-Serif" font-size="10.00">PrintCycle</text>
</a>
</g>
</g>
<!-- Node1&#45;&gt;Node6 -->
<g id="edge9" class="edge"><title>Node1&#45;&gt;Node6</title>
<path fill="none" stroke="midnightblue" d="M72.0036,-100.312C94.933,-83.3274 132.226,-55.703 157.988,-36.6197"/>
<polygon fill="midnightblue" stroke="midnightblue" points="160.294,-39.2679 166.246,-30.5031 156.127,-33.643 160.294,-39.2679"/>
</g>
<!-- Node2&#45;&gt;Node2 -->
<g id="edge2" class="edge"><title>Node2&#45;&gt;Node2</title>
<path fill="none" stroke="midnightblue" d="M163.799,-231.659C158.084,-241.057 165.984,-250 187.5,-250 200.611,-250 208.666,-246.679 211.666,-241.958"/>
<polygon fill="midnightblue" stroke="midnightblue" points="215.148,-241.491 211.201,-231.659 208.155,-241.807 215.148,-241.491"/>
</g>
<!-- Node3 -->
<g id="node3" class="node"><title>Node3</title>
<g id="a_node3"><a xlink:href="cycle_8h.xhtml#a46b3599407a818c753d9116f05a87a94" target="_top" xlink:title="Determines the connectors between nodes. ">
<polygon fill="white" stroke="black" points="274,-201.5 274,-231.5 375,-231.5 375,-201.5 274,-201.5"/>
<text text-anchor="start" x="282" y="-219.5" font-family="Helvetica,sans-Serif" font-size="10.00">scram::mef::cycle::</text>
<text text-anchor="middle" x="324.5" y="-208.5" font-family="Helvetica,sans-Serif" font-size="10.00">GetConnector</text>
</a>
</g>
</g>
<!-- Node2&#45;&gt;Node3 -->
<g id="edge3" class="edge"><title>Node2&#45;&gt;Node3</title>
<path fill="none" stroke="midnightblue" d="M238.002,-216.5C246.241,-216.5 254.866,-216.5 263.335,-216.5"/>
<polygon fill="midnightblue" stroke="midnightblue" points="263.552,-220 273.552,-216.5 263.552,-213 263.552,-220"/>
</g>
<!-- Node3&#45;&gt;Node3 -->
<g id="edge4" class="edge"><title>Node3&#45;&gt;Node3</title>
<path fill="none" stroke="midnightblue" d="M300.799,-231.659C295.084,-241.057 302.984,-250 324.5,-250 337.611,-250 345.666,-246.679 348.666,-241.958"/>
<polygon fill="midnightblue" stroke="midnightblue" points="352.148,-241.491 348.201,-231.659 345.155,-241.807 352.148,-241.491"/>
</g>
<!-- Node4&#45;&gt;Node4 -->
<g id="edge6" class="edge"><title>Node4&#45;&gt;Node4</title>
<path fill="none" stroke="midnightblue" d="M163.799,-164.659C158.084,-174.057 165.984,-183 187.5,-183 200.611,-183 208.666,-179.679 211.666,-174.958"/>
<polygon fill="midnightblue" stroke="midnightblue" points="215.148,-174.491 211.201,-164.659 208.155,-174.807 215.148,-174.491"/>
</g>
<!-- Node5&#45;&gt;Node5 -->
<g id="edge8" class="edge"><title>Node5&#45;&gt;Node5</title>
<path fill="none" stroke="midnightblue" d="M163.799,-97.659C158.084,-107.057 165.984,-116 187.5,-116 200.611,-116 208.666,-112.679 211.666,-107.958"/>
<polygon fill="midnightblue" stroke="midnightblue" points="215.148,-107.491 211.201,-97.659 208.155,-107.807 215.148,-107.491"/>
</g>
<!-- Node6&#45;&gt;Node6 -->
<g id="edge10" class="edge"><title>Node6&#45;&gt;Node6</title>
<path fill="none" stroke="midnightblue" d="M163.799,-30.659C158.084,-40.0566 165.984,-49 187.5,-49 200.611,-49 208.666,-45.679 211.666,-40.9579"/>
<polygon fill="midnightblue" stroke="midnightblue" points="215.148,-40.491 211.201,-30.659 208.155,-40.8066 215.148,-40.491"/>
</g>
</g>
</svg>
