<?xml version="1.0" encoding="UTF-8" standalone="no"?>
<!DOCTYPE svg PUBLIC "-//W3C//DTD SVG 1.1//EN"
 "http://www.w3.org/Graphics/SVG/1.1/DTD/svg11.dtd">
<!-- Generated by graphviz version 2.38.0 (20140413.2041)
 -->
<!-- Title: scram::mef::cycle::GetConnectors Pages: 1 -->
<!--zoomable 258 -->
<svg id="main" version="1.1" xmlns="http://www.w3.org/2000/svg" xmlns:xlink="http://www.w3.org/1999/xlink" xml:space="preserve" onload="init(evt)">
<style type="text/css"><![CDATA[
.edge:hover path { stroke: red; }
.edge:hover polygon { stroke: red; fill: red; }
]]></style>
<script type="text/javascript"><![CDATA[
var edges = document.getElementsByTagName('g');
if (edges && edges.length) {
  for (var i=0;i<edges.length;i++) {
    if (edges[i].id.substr(0,4)=='edge') {
      edges[i].setAttribute('class','edge');
    }
  }
}
]]></script>
        <defs>
                <circle id="rim" cx="0" cy="0" r="7"/>
                <circle id="rim2" cx="0" cy="0" r="3.5"/>
                <g id="zoomPlus">
                        <use xlink:href="#rim" fill="#404040">
                                <set attributeName="fill" to="#808080" begin="zoomplus.mouseover" end="zoomplus.mouseout"/>
                        </use>
                        <path d="M-4,0h8M0,-4v8" fill="none" stroke="white" stroke-width="1.5" pointer-events="none"/>
                </g>
                <g id="zoomMin">
                        <use xlink:href="#rim" fill="#404040">
                                <set attributeName="fill" to="#808080" begin="zoomminus.mouseover" end="zoomminus.mouseout"/>
                        </use>
                        <path d="M-4,0h8" fill="none" stroke="white" stroke-width="1.5" pointer-events="none"/>
                </g>
                <g id="dirArrow">
                        <path fill="none" stroke="white" stroke-width="1.5" d="M0,-3.0v7 M-2.5,-0.5L0,-3.0L2.5,-0.5"/>
                </g>
               <g id="resetDef">
                       <use xlink:href="#rim2" fill="#404040">
                               <set attributeName="fill" to="#808080" begin="reset.mouseover" end="reset.mouseout"/>
                       </use>
               </g>
        </defs>

<script type="text/javascript">
var viewWidth = 540;
var viewHeight = 258;
var sectionId = 'dynsection-12';
</script>
<script xlink:href="svgpan.js"/>
<svg id="graph" class="graph">
<g id="viewport">
<title>scram::mef::cycle::GetConnectors</title>
<polygon fill="white" stroke="none" points="-4,4 -4,-254 536,-254 536,4 -4,4"/>
<!-- Node1 -->
<g id="node1" class="node"><title>Node1</title>
<polygon fill="#bfbfbf" stroke="black" points="0,-67.5 0,-97.5 101,-97.5 101,-67.5 0,-67.5"/>
<text text-anchor="start" x="8" y="-85.5" font-family="Helvetica,sans-Serif" font-size="10.00">scram::mef::cycle::</text>
<text text-anchor="middle" x="50.5" y="-74.5" font-family="Helvetica,sans-Serif" font-size="10.00">GetConnectors</text>
</g>
<!-- Node2 -->
<g id="node2" class="node"><title>Node2</title>
<g id="a_node2"><a xlink:href="classscram_1_1mef_1_1Expression.xhtml#ad4d7901b9be9105c9799167cac7af3e1" target="_top" xlink:title="scram::mef::Expression\l::args">
<polygon fill="white" stroke="black" points="137,-116.5 137,-146.5 258,-146.5 258,-116.5 137,-116.5"/>
<text text-anchor="start" x="145" y="-134.5" font-family="Helvetica,sans-Serif" font-size="10.00">scram::mef::Expression</text>
<text text-anchor="middle" x="197.5" y="-123.5" font-family="Helvetica,sans-Serif" font-size="10.00">::args</text>
</a>
</g>
</g>
<!-- Node1&#45;&gt;Node2 -->
<g id="edge1" class="edge"><title>Node1&#45;&gt;Node2</title>
<path fill="none" stroke="midnightblue" d="M96.1879,-97.6014C110.659,-102.492 126.872,-107.971 141.975,-113.074"/>
<polygon fill="midnightblue" stroke="midnightblue" points="141.116,-116.478 151.71,-116.364 143.357,-109.847 141.116,-116.478"/>
</g>
<!-- Node3 -->
<g id="node3" class="node"><title>Node3</title>
<g id="a_node3"><a xlink:href="cycle_8h.xhtml#a5ef074c191f83ce2c79187459b2231d7" target="_top" xlink:title="Helper function to check for cyclic references through connectors. ">
<polygon fill="white" stroke="black" points="147,-67.5 147,-97.5 248,-97.5 248,-67.5 147,-67.5"/>
<text text-anchor="start" x="155" y="-85.5" font-family="Helvetica,sans-Serif" font-size="10.00">scram::mef::cycle::</text>
<text text-anchor="middle" x="197.5" y="-74.5" font-family="Helvetica,sans-Serif" font-size="10.00">ContinueConnector</text>
</a>
</g>
</g>
<!-- Node1&#45;&gt;Node3 -->
<g id="edge2" class="edge"><title>Node1&#45;&gt;Node3</title>
<path fill="none" stroke="midnightblue" d="M101.401,-82.5C112.806,-82.5 125.04,-82.5 136.808,-82.5"/>
<polygon fill="midnightblue" stroke="midnightblue" points="136.998,-86.0001 146.998,-82.5 136.998,-79.0001 136.998,-86.0001"/>
</g>
<!-- Node7 -->
<g id="node7" class="node"><title>Node7</title>
<g id="a_node7"><a xlink:href="cycle_8h.xhtml#ab4edc4da0dc37e4f9410df2c127a985d" target="_top" xlink:title="Retrieves connectors from a connector. ">
<polygon fill="white" stroke="black" points="294,-0.5 294,-30.5 395,-30.5 395,-0.5 294,-0.5"/>
<text text-anchor="start" x="302" y="-18.5" font-family="Helvetica,sans-Serif" font-size="10.00">scram::mef::cycle::</text>
<text text-anchor="middle" x="344.5" y="-7.5" font-family="Helvetica,sans-Serif" font-size="10.00">GetConnectors</text>
</a>
</g>
</g>
<!-- Node1&#45;&gt;Node7 -->
<g id="edge13" class="edge"><title>Node1&#45;&gt;Node7</title>
<path fill="none" stroke="midnightblue" d="M100.59,-67.3814C112.458,-63.9386 125.14,-60.4345 137,-57.5 186.049,-45.3637 242.278,-34.098 283.664,-26.2958"/>
<polygon fill="midnightblue" stroke="midnightblue" points="284.401,-29.7187 293.586,-24.438 283.112,-22.8383 284.401,-29.7187"/>
</g>
<!-- Node4 -->
<g id="node4" class="node"><title>Node4</title>
<g id="a_node4"><a xlink:href="cycle_8h.xhtml#ac1279787280e6e95fefd75ad5b2c177a" target="_top" xlink:title="Retrieves nodes from a connector. ">
<polygon fill="white" stroke="black" points="294,-201.5 294,-231.5 395,-231.5 395,-201.5 294,-201.5"/>
<text text-anchor="start" x="302" y="-219.5" font-family="Helvetica,sans-Serif" font-size="10.00">scram::mef::cycle::</text>
<text text-anchor="middle" x="344.5" y="-208.5" font-family="Helvetica,sans-Serif" font-size="10.00">GetNodes</text>
</a>
</g>
</g>
<!-- Node3&#45;&gt;Node4 -->
<g id="edge3" class="edge"><title>Node3&#45;&gt;Node4</title>
<path fill="none" stroke="midnightblue" d="M246.155,-97.5336C250.465,-100.089 254.512,-103.057 258,-106.5 287.49,-135.608 265.517,-162.406 294,-192.5 294.886,-193.436 295.817,-194.341 296.784,-195.214"/>
<polygon fill="midnightblue" stroke="midnightblue" points="294.728,-198.048 304.809,-201.309 298.962,-192.473 294.728,-198.048"/>
</g>
<!-- Node5 -->
<g id="node5" class="node"><title>Node5</title>
<g id="a_node5"><a xlink:href="cycle_8h.xhtml#aa171bdba0b088457d0a26b9b78562bee" target="_top" xlink:title="Traverses nodes with connectors to find a cycle. ">
<polygon fill="white" stroke="black" points="294,-134.5 294,-164.5 395,-164.5 395,-134.5 294,-134.5"/>
<text text-anchor="start" x="302" y="-152.5" font-family="Helvetica,sans-Serif" font-size="10.00">scram::mef::cycle::</text>
<text text-anchor="middle" x="344.5" y="-141.5" font-family="Helvetica,sans-Serif" font-size="10.00">DetectCycle</text>
</a>
</g>
</g>
<!-- Node3&#45;&gt;Node5 -->
<g id="edge5" class="edge"><title>Node3&#45;&gt;Node5</title>
<path fill="none" stroke="midnightblue" d="M237.106,-97.5312C244.102,-100.408 251.302,-103.471 258,-106.5 260.5,-107.631 283.195,-119.048 304.572,-129.833"/>
<polygon fill="midnightblue" stroke="midnightblue" points="303.086,-133.004 313.591,-134.385 306.24,-126.754 303.086,-133.004"/>
</g>
<!-- Node3&#45;&gt;Node7 -->
<g id="edge9" class="edge"><title>Node3&#45;&gt;Node7</title>
<path fill="none" stroke="midnightblue" d="M231.041,-67.4639C251.863,-57.8426 279.08,-45.2663 301.524,-34.896"/>
<polygon fill="midnightblue" stroke="midnightblue" points="303.208,-37.9735 310.817,-30.6017 300.271,-31.6191 303.208,-37.9735"/>
</g>
<!-- Node8 -->
<g id="node8" class="node"><title>Node8</title>
<g id="a_node8"><a xlink:href="cycle_8cc.xhtml#a01c9d88b1399bae82aef8d4dfef37014" target="_top" xlink:title="Prints the detected cycle from the output produced by cycle detection functions. ">
<polygon fill="white" stroke="black" points="294,-67.5 294,-97.5 395,-97.5 395,-67.5 294,-67.5"/>
<text text-anchor="start" x="302" y="-85.5" font-family="Helvetica,sans-Serif" font-size="10.00">scram::mef::cycle::</text>
<text text-anchor="middle" x="344.5" y="-74.5" font-family="Helvetica,sans-Serif" font-size="10.00">PrintCycle</text>
</a>
</g>
</g>
<!-- Node3&#45;&gt;Node8 -->
<g id="edge11" class="edge"><title>Node3&#45;&gt;Node8</title>
<path fill="none" stroke="midnightblue" d="M248.401,-82.5C259.806,-82.5 272.04,-82.5 283.808,-82.5"/>
<polygon fill="midnightblue" stroke="midnightblue" points="283.998,-86.0001 293.998,-82.5 283.998,-79.0001 283.998,-86.0001"/>
</g>
<!-- Node4&#45;&gt;Node4 -->
<g id="edge4" class="edge"><title>Node4&#45;&gt;Node4</title>
<path fill="none" stroke="midnightblue" d="M320.799,-231.659C315.084,-241.057 322.984,-250 344.5,-250 357.611,-250 365.666,-246.679 368.666,-241.958"/>
<polygon fill="midnightblue" stroke="midnightblue" points="372.148,-241.491 368.201,-231.659 365.155,-241.807 372.148,-241.491"/>
</g>
<!-- Node5&#45;&gt;Node5 -->
<g id="edge6" class="edge"><title>Node5&#45;&gt;Node5</title>
<path fill="none" stroke="midnightblue" d="M320.799,-164.659C315.084,-174.057 322.984,-183 344.5,-183 357.611,-183 365.666,-179.679 368.666,-174.958"/>
<polygon fill="midnightblue" stroke="midnightblue" points="372.148,-174.491 368.201,-164.659 365.155,-174.807 372.148,-174.491"/>
</g>
<!-- Node6 -->
<g id="node6" class="node"><title>Node6</title>
<g id="a_node6"><a xlink:href="cycle_8h.xhtml#a46b3599407a818c753d9116f05a87a94" target="_top" xlink:title="Determines the connectors between nodes. ">
<polygon fill="white" stroke="black" points="431,-134.5 431,-164.5 532,-164.5 532,-134.5 431,-134.5"/>
<text text-anchor="start" x="439" y="-152.5" font-family="Helvetica,sans-Serif" font-size="10.00">scram::mef::cycle::</text>
<text text-anchor="middle" x="481.5" y="-141.5" font-family="Helvetica,sans-Serif" font-size="10.00">GetConnector</text>
</a>
</g>
</g>
<!-- Node5&#45;&gt;Node6 -->
<g id="edge7" class="edge"><title>Node5&#45;&gt;Node6</title>
<path fill="none" stroke="midnightblue" d="M395.002,-149.5C403.241,-149.5 411.866,-149.5 420.335,-149.5"/>
<polygon fill="midnightblue" stroke="midnightblue" points="420.552,-153 430.552,-149.5 420.552,-146 420.552,-153"/>
</g>
<!-- Node6&#45;&gt;Node6 -->
<g id="edge8" class="edge"><title>Node6&#45;&gt;Node6</title>
<path fill="none" stroke="midnightblue" d="M457.799,-164.659C452.084,-174.057 459.984,-183 481.5,-183 494.611,-183 502.666,-179.679 505.666,-174.958"/>
<polygon fill="midnightblue" stroke="midnightblue" points="509.148,-174.491 505.201,-164.659 502.155,-174.807 509.148,-174.491"/>
</g>
<!-- Node7&#45;&gt;Node7 -->
<g id="edge10" class="edge"><title>Node7&#45;&gt;Node7</title>
<path fill="none" stroke="midnightblue" d="M320.799,-30.659C315.084,-40.0566 322.984,-49 344.5,-49 357.611,-49 365.666,-45.679 368.666,-40.9579"/>
<polygon fill="midnightblue" stroke="midnightblue" points="372.148,-40.491 368.201,-30.659 365.155,-40.8066 372.148,-40.491"/>
</g>
<!-- Node8&#45;&gt;Node8 -->
<g id="edge12" class="edge"><title>Node8&#45;&gt;Node8</title>
<path fill="none" stroke="midnightblue" d="M320.799,-97.659C315.084,-107.057 322.984,-116 344.5,-116 357.611,-116 365.666,-112.679 368.666,-107.958"/>
<polygon fill="midnightblue" stroke="midnightblue" points="372.148,-107.491 368.201,-97.659 365.155,-107.807 372.148,-107.491"/>
</g>
</g>
</svg>
        <g id="navigator" transform="translate(0 0)" fill="#404254">
                <rect fill="#f2f5e9" fill-opacity="0.5" stroke="#606060" stroke-width=".5" x="0" y="0" width="60" height="60"/>
                <use id="zoomplus" xlink:href="#zoomPlus" x="17" y="9" onmousedown="handleZoom(evt,'in')"/>
                <use id="zoomminus" xlink:href="#zoomMin" x="42" y="9" onmousedown="handleZoom(evt,'out')"/>
                <use id="reset" xlink:href="#resetDef" x="30" y="36" onmousedown="handleReset()"/>
                <g id="arrowUp" xlink:href="#dirArrow" transform="translate(30 24)" onmousedown="handlePan(0,-1)">
                  <use xlink:href="#rim" fill="#404040">
                        <set attributeName="fill" to="#808080" begin="arrowUp.mouseover" end="arrowUp.mouseout"/>
                  </use>
                  <path fill="none" stroke="white" stroke-width="1.5" d="M0,-3.0v7 M-2.5,-0.5L0,-3.0L2.5,-0.5"/>
                </g>
                <g id="arrowRight" xlink:href="#dirArrow" transform="rotate(90) translate(36 -43)" onmousedown="handlePan(1,0)">
                  <use xlink:href="#rim" fill="#404040">
                        <set attributeName="fill" to="#808080" begin="arrowRight.mouseover" end="arrowRight.mouseout"/>
                  </use>
                  <path fill="none" stroke="white" stroke-width="1.5" d="M0,-3.0v7 M-2.5,-0.5L0,-3.0L2.5,-0.5"/>
                </g>
                <g id="arrowDown" xlink:href="#dirArrow" transform="rotate(180) translate(-30 -48)" onmousedown="handlePan(0,1)">
                  <use xlink:href="#rim" fill="#404040">
                        <set attributeName="fill" to="#808080" begin="arrowDown.mouseover" end="arrowDown.mouseout"/>
                  </use>
                  <path fill="none" stroke="white" stroke-width="1.5" d="M0,-3.0v7 M-2.5,-0.5L0,-3.0L2.5,-0.5"/>
                </g>
                <g id="arrowLeft" xlink:href="#dirArrow" transform="rotate(270) translate(-36 17)" onmousedown="handlePan(-1,0)">
                  <use xlink:href="#rim" fill="#404040">
                        <set attributeName="fill" to="#808080" begin="arrowLeft.mouseover" end="arrowLeft.mouseout"/>
                  </use>
                  <path fill="none" stroke="white" stroke-width="1.5" d="M0,-3.0v7 M-2.5,-0.5L0,-3.0L2.5,-0.5"/>
                </g>
        </g>
        <svg viewBox="0 0 15 15" width="100%" height="30px" preserveAspectRatio="xMaxYMin meet">
         <g id="arrow_out" transform="scale(0.3 0.3)">
          <a xlink:href="cycle_8h_a2cdb529c18dd257f342fe68192801b4e_cgraph_org.svg" target="_base">
           <rect id="button" ry="5" rx="5" y="6" x="6" height="38" width="38"
                fill="#f2f5e9" fill-opacity="0.5" stroke="#606060" stroke-width="1.0"/>
           <path id="arrow"
             d="M 11.500037,31.436501 C 11.940474,20.09759 22.043105,11.32322 32.158766,21.979434 L 37.068811,17.246167 C 37.068811,17.246167 37.088388,32 37.088388,32 L 22.160133,31.978069 C 22.160133,31.978069 26.997745,27.140456 26.997745,27.140456 C 18.528582,18.264221 13.291696,25.230495 11.500037,31.436501 z"
             style="fill:#404040;"/>
          </a>
         </g>
        </svg>
</svg>
