<?xml version="1.0" encoding="UTF-8" standalone="no"?>
<!DOCTYPE svg PUBLIC "-//W3C//DTD SVG 1.1//EN"
 "http://www.w3.org/Graphics/SVG/1.1/DTD/svg11.dtd">
<!-- Generated by graphviz version 2.38.0 (20140413.2041)
 -->
<!-- Title: scram::mef::cycle::GetConnector Pages: 1 -->
<svg width="520pt" height="57pt"
 viewBox="0.00 0.00 520.00 57.00" xmlns="http://www.w3.org/2000/svg" xmlns:xlink="http://www.w3.org/1999/xlink">
<g id="graph0" class="graph" transform="scale(1 1) rotate(0) translate(4 53)">
<title>scram::mef::cycle::GetConnector</title>
<polygon fill="white" stroke="none" points="-4,4 -4,-53 516,-53 516,4 -4,4"/>
<!-- Node1 -->
<g id="node1" class="node"><title>Node1</title>
<polygon fill="#bfbfbf" stroke="black" points="0,-0.5 0,-30.5 101,-30.5 101,-0.5 0,-0.5"/>
<text text-anchor="start" x="8" y="-18.5" font-family="Helvetica,sans-Serif" font-size="10.00">scram::mef::cycle::</text>
<text text-anchor="middle" x="50.5" y="-7.5" font-family="Helvetica,sans-Serif" font-size="10.00">GetConnector</text>
</g>
<!-- Node1&#45;&gt;Node1 -->
<g id="edge5" class="edge"><title>Node1&#45;&gt;Node1</title>
<path fill="none" stroke="midnightblue" d="M26.3344,-40.9579C29.3337,-45.679 37.3889,-49 50.5,-49 72.0156,-49 79.9159,-40.0566 74.2008,-30.659"/>
<polygon fill="midnightblue" stroke="midnightblue" points="29.8447,-40.8066 26.7992,-30.659 22.8519,-40.491 29.8447,-40.8066"/>
</g>
<!-- Node2 -->
<g id="node2" class="node"><title>Node2</title>
<g id="a_node2"><a xlink:href="cycle_8h.xhtml#aa171bdba0b088457d0a26b9b78562bee" target="_top" xlink:title="Traverses nodes with connectors to find a cycle. ">
<polygon fill="white" stroke="black" points="137,-0.5 137,-30.5 238,-30.5 238,-0.5 137,-0.5"/>
<text text-anchor="start" x="145" y="-18.5" font-family="Helvetica,sans-Serif" font-size="10.00">scram::mef::cycle::</text>
<text text-anchor="middle" x="187.5" y="-7.5" font-family="Helvetica,sans-Serif" font-size="10.00">DetectCycle</text>
</a>
</g>
</g>
<!-- Node1&#45;&gt;Node2 -->
<g id="edge1" class="edge"><title>Node1&#45;&gt;Node2</title>
<path fill="none" stroke="midnightblue" d="M111.207,-15.5C119.67,-15.5 128.299,-15.5 136.552,-15.5"/>
<polygon fill="midnightblue" stroke="midnightblue" points="111.002,-12.0001 101.002,-15.5 111.002,-19.0001 111.002,-12.0001"/>
</g>
<!-- Node2&#45;&gt;Node2 -->
<g id="edge2" class="edge"><title>Node2&#45;&gt;Node2</title>
<path fill="none" stroke="midnightblue" d="M163.334,-40.9579C166.334,-45.679 174.389,-49 187.5,-49 209.016,-49 216.916,-40.0566 211.201,-30.659"/>
<polygon fill="midnightblue" stroke="midnightblue" points="166.845,-40.8066 163.799,-30.659 159.852,-40.491 166.845,-40.8066"/>
</g>
<!-- Node3 -->
<g id="node3" class="node"><title>Node3</title>
<g id="a_node3"><a xlink:href="cycle_8h.xhtml#a5ef074c191f83ce2c79187459b2231d7" target="_top" xlink:title="Helper function to check for cyclic references through connectors. ">
<polygon fill="white" stroke="black" points="274,-0.5 274,-30.5 375,-30.5 375,-0.5 274,-0.5"/>
<text text-anchor="start" x="282" y="-18.5" font-family="Helvetica,sans-Serif" font-size="10.00">scram::mef::cycle::</text>
<text text-anchor="middle" x="324.5" y="-7.5" font-family="Helvetica,sans-Serif" font-size="10.00">ContinueConnector</text>
</a>
</g>
</g>
<!-- Node2&#45;&gt;Node3 -->
<g id="edge3" class="edge"><title>Node2&#45;&gt;Node3</title>
<path fill="none" stroke="midnightblue" d="M248.207,-15.5C256.67,-15.5 265.299,-15.5 273.552,-15.5"/>
<polygon fill="midnightblue" stroke="midnightblue" points="248.002,-12.0001 238.002,-15.5 248.002,-19.0001 248.002,-12.0001"/>
</g>
<!-- Node4 -->
<g id="node4" class="node"><title>Node4</title>
<g id="a_node4"><a xlink:href="cycle_8h.xhtml#a2cdb529c18dd257f342fe68192801b4e" target="_top" xlink:title="Retrieves connectors from a connector. ">
<polygon fill="white" stroke="black" points="411,-0.5 411,-30.5 512,-30.5 512,-0.5 411,-0.5"/>
<text text-anchor="start" x="419" y="-18.5" font-family="Helvetica,sans-Serif" font-size="10.00">scram::mef::cycle::</text>
<text text-anchor="middle" x="461.5" y="-7.5" font-family="Helvetica,sans-Serif" font-size="10.00">GetConnectors</text>
</a>
</g>
</g>
<!-- Node3&#45;&gt;Node4 -->
<g id="edge4" class="edge"><title>Node3&#45;&gt;Node4</title>
<path fill="none" stroke="midnightblue" d="M385.207,-15.5C393.67,-15.5 402.299,-15.5 410.552,-15.5"/>
<polygon fill="midnightblue" stroke="midnightblue" points="385.002,-12.0001 375.002,-15.5 385.002,-19.0001 385.002,-12.0001"/>
</g>
</g>
</svg>
