<?xml version="1.0" encoding="UTF-8" standalone="no"?>
<!DOCTYPE svg PUBLIC "-//W3C//DTD SVG 1.1//EN"
 "http://www.w3.org/Graphics/SVG/1.1/DTD/svg11.dtd">
<!-- Generated by graphviz version 2.38.0 (20140413.2041)
 -->
<!-- Title: scram::mef::cycle::GetConnector Pages: 1 -->
<svg width="246pt" height="57pt"
 viewBox="0.00 0.00 246.00 57.00" xmlns="http://www.w3.org/2000/svg" xmlns:xlink="http://www.w3.org/1999/xlink">
<g id="graph0" class="graph" transform="scale(1 1) rotate(0) translate(4 53)">
<title>scram::mef::cycle::GetConnector</title>
<polygon fill="white" stroke="none" points="-4,4 -4,-53 242,-53 242,4 -4,4"/>
<!-- Node1 -->
<g id="node1" class="node"><title>Node1</title>
<polygon fill="#bfbfbf" stroke="black" points="0,-0.5 0,-30.5 101,-30.5 101,-0.5 0,-0.5"/>
<text text-anchor="start" x="8" y="-18.5" font-family="Helvetica,sans-Serif" font-size="10.00">scram::mef::cycle::</text>
<text text-anchor="middle" x="50.5" y="-7.5" font-family="Helvetica,sans-Serif" font-size="10.00">GetConnector</text>
</g>
<!-- Node2 -->
<g id="node2" class="node"><title>Node2</title>
<g id="a_node2"><a xlink:href="cycle_8h.xhtml#a46b3599407a818c753d9116f05a87a94" target="_top" xlink:title="Determines the connectors between nodes. ">
<polygon fill="white" stroke="black" points="137,-0.5 137,-30.5 238,-30.5 238,-0.5 137,-0.5"/>
<text text-anchor="start" x="145" y="-18.5" font-family="Helvetica,sans-Serif" font-size="10.00">scram::mef::cycle::</text>
<text text-anchor="middle" x="187.5" y="-7.5" font-family="Helvetica,sans-Serif" font-size="10.00">GetConnector</text>
</a>
</g>
</g>
<!-- Node1&#45;&gt;Node2 -->
<g id="edge1" class="edge"><title>Node1&#45;&gt;Node2</title>
<path fill="none" stroke="midnightblue" d="M101.002,-15.5C109.241,-15.5 117.866,-15.5 126.335,-15.5"/>
<polygon fill="midnightblue" stroke="midnightblue" points="126.552,-19.0001 136.552,-15.5 126.552,-12.0001 126.552,-19.0001"/>
</g>
<!-- Node2&#45;&gt;Node2 -->
<g id="edge2" class="edge"><title>Node2&#45;&gt;Node2</title>
<path fill="none" stroke="midnightblue" d="M163.799,-30.659C158.084,-40.0566 165.984,-49 187.5,-49 200.611,-49 208.666,-45.679 211.666,-40.9579"/>
<polygon fill="midnightblue" stroke="midnightblue" points="215.148,-40.491 211.201,-30.659 208.155,-40.8066 215.148,-40.491"/>
</g>
</g>
</svg>
