<?xml version="1.0" encoding="UTF-8" standalone="no"?>
<!DOCTYPE svg PUBLIC "-//W3C//DTD SVG 1.1//EN"
 "http://www.w3.org/Graphics/SVG/1.1/DTD/svg11.dtd">
<!-- Generated by graphviz version 2.38.0 (20140413.2041)
 -->
<!-- Title: element.h Pages: 1 -->
<!--zoomable 476 -->
<svg id="main" version="1.1" xmlns="http://www.w3.org/2000/svg" xmlns:xlink="http://www.w3.org/1999/xlink" xml:space="preserve" onload="init(evt)">
<style type="text/css"><![CDATA[
.edge:hover path { stroke: red; }
.edge:hover polygon { stroke: red; fill: red; }
]]></style>
<script type="text/javascript"><![CDATA[
var edges = document.getElementsByTagName('g');
if (edges && edges.length) {
  for (var i=0;i<edges.length;i++) {
    if (edges[i].id.substr(0,4)=='edge') {
      edges[i].setAttribute('class','edge');
    }
  }
}
]]></script>
        <defs>
                <circle id="rim" cx="0" cy="0" r="7"/>
                <circle id="rim2" cx="0" cy="0" r="3.5"/>
                <g id="zoomPlus">
                        <use xlink:href="#rim" fill="#404040">
                                <set attributeName="fill" to="#808080" begin="zoomplus.mouseover" end="zoomplus.mouseout"/>
                        </use>
                        <path d="M-4,0h8M0,-4v8" fill="none" stroke="white" stroke-width="1.5" pointer-events="none"/>
                </g>
                <g id="zoomMin">
                        <use xlink:href="#rim" fill="#404040">
                                <set attributeName="fill" to="#808080" begin="zoomminus.mouseover" end="zoomminus.mouseout"/>
                        </use>
                        <path d="M-4,0h8" fill="none" stroke="white" stroke-width="1.5" pointer-events="none"/>
                </g>
                <g id="dirArrow">
                        <path fill="none" stroke="white" stroke-width="1.5" d="M0,-3.0v7 M-2.5,-0.5L0,-3.0L2.5,-0.5"/>
                </g>
               <g id="resetDef">
                       <use xlink:href="#rim2" fill="#404040">
                               <set attributeName="fill" to="#808080" begin="reset.mouseover" end="reset.mouseout"/>
                       </use>
               </g>
        </defs>

<script type="text/javascript">
var viewWidth = 2012;
var viewHeight = 476;
var sectionId = 'dynsection-1';
</script>
<script xlink:href="svgpan.js"/>
<svg id="graph" class="graph">
<g id="viewport">
<title>element.h</title>
<polygon fill="white" stroke="none" points="-4,4 -4,-472 2008,-472 2008,4 -4,4"/>
<!-- Node1 -->
<g id="node1" class="node"><title>Node1</title>
<polygon fill="#bfbfbf" stroke="black" points="971,-448.5 971,-467.5 1030,-467.5 1030,-448.5 971,-448.5"/>
<text text-anchor="middle" x="1000.5" y="-455.5" font-family="Helvetica,sans-Serif" font-size="10.00">element.h</text>
</g>
<!-- Node2 -->
<g id="node2" class="node"><title>Node2</title>
<g id="a_node2"><a xlink:href="event_8h.xhtml" target="_top" xlink:title="Contains event classes for fault trees. ">
<polygon fill="white" stroke="black" points="1158,-336.5 1158,-355.5 1207,-355.5 1207,-336.5 1158,-336.5"/>
<text text-anchor="middle" x="1182.5" y="-343.5" font-family="Helvetica,sans-Serif" font-size="10.00">event.h</text>
</a>
</g>
</g>
<!-- Node1&#45;&gt;Node2 -->
<g id="edge1" class="edge"><title>Node1&#45;&gt;Node2</title>
<path fill="none" stroke="midnightblue" d="M1023.65,-443.009C1061.85,-419.919 1136.98,-374.51 1168.29,-355.591"/>
<polygon fill="midnightblue" stroke="midnightblue" points="1021.53,-440.2 1014.78,-448.368 1025.15,-446.191 1021.53,-440.2"/>
</g>
<!-- Node4 -->
<g id="node4" class="node"><title>Node4</title>
<g id="a_node4"><a xlink:href="ccf__group_8h.xhtml" target="_top" xlink:title="Functional containers for basic events grouped by common cause failure. ">
<polygon fill="white" stroke="black" points="935.5,-280.5 935.5,-299.5 1003.5,-299.5 1003.5,-280.5 935.5,-280.5"/>
<text text-anchor="middle" x="969.5" y="-287.5" font-family="Helvetica,sans-Serif" font-size="10.00">ccf_group.h</text>
</a>
</g>
</g>
<!-- Node1&#45;&gt;Node4 -->
<g id="edge64" class="edge"><title>Node1&#45;&gt;Node4</title>
<path fill="none" stroke="midnightblue" d="M996.939,-437.93C990.214,-401.92 975.893,-325.231 971.1,-299.568"/>
<polygon fill="midnightblue" stroke="midnightblue" points="993.557,-438.888 998.833,-448.075 1000.44,-437.603 993.557,-438.888"/>
</g>
<!-- Node7 -->
<g id="node7" class="node"><title>Node7</title>
<g id="a_node7"><a xlink:href="fault__tree_8h.xhtml" target="_top" xlink:title="Fault Tree and Component containers. ">
<polygon fill="white" stroke="black" points="1050,-224.5 1050,-243.5 1115,-243.5 1115,-224.5 1050,-224.5"/>
<text text-anchor="middle" x="1082.5" y="-231.5" font-family="Helvetica,sans-Serif" font-size="10.00">fault_tree.h</text>
</a>
</g>
</g>
<!-- Node1&#45;&gt;Node7 -->
<g id="edge67" class="edge"><title>Node1&#45;&gt;Node7</title>
<path fill="none" stroke="midnightblue" d="M1007.2,-438.872C1023.91,-393.627 1066.99,-276.993 1079.22,-243.884"/>
<polygon fill="midnightblue" stroke="midnightblue" points="1003.9,-437.704 1003.71,-448.297 1010.46,-440.13 1003.9,-437.704"/>
</g>
<!-- Node9 -->
<g id="node9" class="node"><title>Node9</title>
<g id="a_node9"><a xlink:href="initializer_8h.xhtml" target="_top" xlink:title="A facility that processes input files into analysis constructs. ">
<polygon fill="white" stroke="black" points="841,-112.5 841,-131.5 904,-131.5 904,-112.5 841,-112.5"/>
<text text-anchor="middle" x="872.5" y="-119.5" font-family="Helvetica,sans-Serif" font-size="10.00">initializer.h</text>
</a>
</g>
</g>
<!-- Node1&#45;&gt;Node9 -->
<g id="edge68" class="edge"><title>Node1&#45;&gt;Node9</title>
<path fill="none" stroke="midnightblue" d="M960.804,-449.418C910.849,-437.309 831.5,-408.409 831.5,-347 831.5,-347 831.5,-347 831.5,-289 831.5,-227.254 858.566,-156.259 868.716,-131.807"/>
<polygon fill="midnightblue" stroke="midnightblue" points="960.145,-452.857 970.675,-451.686 961.713,-446.035 960.145,-452.857"/>
</g>
<!-- Node12 -->
<g id="node12" class="node"><title>Node12</title>
<g id="a_node12"><a xlink:href="model_8h.xhtml" target="_top" xlink:title="Representation for a model container for risk analysis. ">
<polygon fill="white" stroke="black" points="1179,-168.5 1179,-187.5 1230,-187.5 1230,-168.5 1179,-168.5"/>
<text text-anchor="middle" x="1204.5" y="-175.5" font-family="Helvetica,sans-Serif" font-size="10.00">model.h</text>
</a>
</g>
</g>
<!-- Node1&#45;&gt;Node12 -->
<g id="edge69" class="edge"><title>Node1&#45;&gt;Node12</title>
<path fill="none" stroke="midnightblue" d="M1040.18,-455.7C1189.13,-449.911 1711.57,-421.132 1811.5,-300 1850.62,-252.584 1809.31,-252.11 1732.5,-224 1638.44,-189.575 1322.39,-181.156 1230.04,-179.408"/>
<polygon fill="midnightblue" stroke="midnightblue" points="1039.97,-452.205 1030.11,-456.078 1040.23,-459.2 1039.97,-452.205"/>
</g>
<!-- Node24 -->
<g id="node24" class="node"><title>Node24</title>
<g id="a_node24"><a xlink:href="expression_8h.xhtml" target="_top" xlink:title="Provides the base class for all expressions and units for expression values. ">
<polygon fill="white" stroke="black" points="542.5,-392.5 542.5,-411.5 614.5,-411.5 614.5,-392.5 542.5,-392.5"/>
<text text-anchor="middle" x="578.5" y="-399.5" font-family="Helvetica,sans-Serif" font-size="10.00">expression.h</text>
</a>
</g>
</g>
<!-- Node1&#45;&gt;Node24 -->
<g id="edge38" class="edge"><title>Node1&#45;&gt;Node24</title>
<path fill="none" stroke="midnightblue" d="M960.69,-451.906C878.913,-441.441 693.12,-417.667 614.602,-407.62"/>
<polygon fill="midnightblue" stroke="midnightblue" points="960.462,-455.405 970.826,-453.203 961.351,-448.462 960.462,-455.405"/>
</g>
<!-- Node29 -->
<g id="node29" class="node"><title>Node29</title>
<g id="a_node29"><a xlink:href="parameter_8h.xhtml" target="_top" xlink:title="Parameter expressions that act like a shareable variable. ">
<polygon fill="white" stroke="black" points="694.5,-280.5 694.5,-299.5 762.5,-299.5 762.5,-280.5 694.5,-280.5"/>
<text text-anchor="middle" x="728.5" y="-287.5" font-family="Helvetica,sans-Serif" font-size="10.00">parameter.h</text>
</a>
</g>
</g>
<!-- Node1&#45;&gt;Node29 -->
<g id="edge65" class="edge"><title>Node1&#45;&gt;Node29</title>
<path fill="none" stroke="midnightblue" d="M960.76,-455.009C921.425,-451.349 860.956,-441.025 817.5,-412 772.828,-382.163 742.421,-321.995 732.247,-299.63"/>
<polygon fill="midnightblue" stroke="midnightblue" points="960.517,-458.501 970.772,-455.839 961.095,-451.525 960.517,-458.501"/>
</g>
<!-- Node36 -->
<g id="node36" class="node"><title>Node36</title>
<g id="a_node36"><a xlink:href="element_8cc.xhtml" target="_top" xlink:title="Implementation of helper features for all elements of the analysis. ">
<polygon fill="white" stroke="black" points="1939,-392.5 1939,-411.5 2004,-411.5 2004,-392.5 1939,-392.5"/>
<text text-anchor="middle" x="1971.5" y="-399.5" font-family="Helvetica,sans-Serif" font-size="10.00">element.cc</text>
</a>
</g>
</g>
<!-- Node1&#45;&gt;Node36 -->
<g id="edge66" class="edge"><title>Node1&#45;&gt;Node36</title>
<path fill="none" stroke="midnightblue" d="M1040.3,-457.055C1168.79,-456.807 1584.03,-452.684 1924.5,-412 1929.2,-411.438 1934.14,-410.68 1938.98,-409.842"/>
<polygon fill="midnightblue" stroke="midnightblue" points="1040.14,-453.555 1030.15,-457.067 1040.15,-460.555 1040.14,-453.555"/>
</g>
<!-- Node3 -->
<g id="node3" class="node"><title>Node3</title>
<g id="a_node3"><a xlink:href="boolean__graph_8cc.xhtml" target="_top" xlink:title="Implementation of indexed nodes, variables, gates, and the Boolean graph. ">
<polygon fill="white" stroke="black" points="1136,-280.5 1136,-299.5 1229,-299.5 1229,-280.5 1136,-280.5"/>
<text text-anchor="middle" x="1182.5" y="-287.5" font-family="Helvetica,sans-Serif" font-size="10.00">boolean_graph.cc</text>
</a>
</g>
</g>
<!-- Node2&#45;&gt;Node3 -->
<g id="edge2" class="edge"><title>Node2&#45;&gt;Node3</title>
<path fill="none" stroke="midnightblue" d="M1182.5,-325.805C1182.5,-316.91 1182.5,-306.78 1182.5,-299.751"/>
<polygon fill="midnightblue" stroke="midnightblue" points="1179,-326.083 1182.5,-336.083 1186,-326.083 1179,-326.083"/>
</g>
<!-- Node2&#45;&gt;Node4 -->
<g id="edge3" class="edge"><title>Node2&#45;&gt;Node4</title>
<path fill="none" stroke="midnightblue" d="M1147.83,-336.212C1107.93,-326.095 1042.82,-309.589 1003.29,-299.567"/>
<polygon fill="midnightblue" stroke="midnightblue" points="1147.1,-339.635 1157.65,-338.7 1148.82,-332.85 1147.1,-339.635"/>
</g>
<!-- Node6 -->
<g id="node6" class="node"><title>Node6</title>
<g id="a_node6"><a xlink:href="event_8cc.xhtml" target="_top" xlink:title="Implementation of Event Class and its derived classes. ">
<polygon fill="white" stroke="black" points="1465.5,-224.5 1465.5,-243.5 1519.5,-243.5 1519.5,-224.5 1465.5,-224.5"/>
<text text-anchor="middle" x="1492.5" y="-231.5" font-family="Helvetica,sans-Serif" font-size="10.00">event.cc</text>
</a>
</g>
</g>
<!-- Node2&#45;&gt;Node6 -->
<g id="edge28" class="edge"><title>Node2&#45;&gt;Node6</title>
<path fill="none" stroke="midnightblue" d="M1217.55,-345.054C1339.41,-344.88 1739.34,-341.155 1777.5,-300 1783.54,-293.482 1783.27,-286.758 1777.5,-280 1744.47,-241.346 1584.62,-235.699 1519.84,-235.017"/>
<polygon fill="midnightblue" stroke="midnightblue" points="1217.29,-341.554 1207.29,-345.061 1217.29,-348.554 1217.29,-341.554"/>
</g>
<!-- Node2&#45;&gt;Node7 -->
<g id="edge29" class="edge"><title>Node2&#45;&gt;Node7</title>
<path fill="none" stroke="midnightblue" d="M1148.12,-335.973C1129.1,-329.193 1106.71,-317.922 1093.5,-300 1081.01,-283.048 1080.79,-256.885 1081.66,-243.51"/>
<polygon fill="midnightblue" stroke="midnightblue" points="1147.1,-339.322 1157.69,-339.121 1149.29,-332.672 1147.1,-339.322"/>
</g>
<!-- Node2&#45;&gt;Node9 -->
<g id="edge32" class="edge"><title>Node2&#45;&gt;Node9</title>
<path fill="none" stroke="midnightblue" d="M1147.57,-343.29C1085.33,-339.546 958.768,-328.55 926.5,-300 874.768,-254.229 871.841,-160.494 872.231,-131.644"/>
<polygon fill="midnightblue" stroke="midnightblue" points="1147.51,-346.792 1157.69,-343.869 1147.91,-339.804 1147.51,-346.792"/>
</g>
<!-- Node2&#45;&gt;Node12 -->
<g id="edge33" class="edge"><title>Node2&#45;&gt;Node12</title>
<path fill="none" stroke="midnightblue" d="M1217.28,-345.128C1340.95,-345.225 1754.15,-342.354 1793.5,-300 1873.79,-213.578 1353.28,-185.443 1230.18,-180.035"/>
<polygon fill="midnightblue" stroke="midnightblue" points="1217.22,-341.628 1207.22,-345.113 1217.21,-348.628 1217.22,-341.628"/>
</g>
<!-- Node14 -->
<g id="node14" class="node"><title>Node14</title>
<g id="a_node14"><a xlink:href="reporter_8h.xhtml" target="_top" xlink:title="Reporter of results. ">
<polygon fill="white" stroke="black" points="1149.5,-56.5 1149.5,-75.5 1207.5,-75.5 1207.5,-56.5 1149.5,-56.5"/>
<text text-anchor="middle" x="1178.5" y="-63.5" font-family="Helvetica,sans-Serif" font-size="10.00">reporter.h</text>
</a>
</g>
</g>
<!-- Node2&#45;&gt;Node14 -->
<g id="edge35" class="edge"><title>Node2&#45;&gt;Node14</title>
<path fill="none" stroke="midnightblue" d="M1156.64,-330.947C1145.49,-323.383 1133.63,-312.932 1127.5,-300 1107.73,-258.277 1161.1,-112.442 1175.19,-75.537"/>
<polygon fill="midnightblue" stroke="midnightblue" points="1154.97,-334.032 1165.3,-336.386 1158.69,-328.104 1154.97,-334.032"/>
</g>
<!-- Node16 -->
<g id="node16" class="node"><title>Node16</title>
<g id="a_node16"><a xlink:href="risk__analysis_8h.xhtml" target="_top" xlink:title="Contains the main system for performing analysis. ">
<polygon fill="white" stroke="black" points="1288.5,-112.5 1288.5,-131.5 1370.5,-131.5 1370.5,-112.5 1288.5,-112.5"/>
<text text-anchor="middle" x="1329.5" y="-119.5" font-family="Helvetica,sans-Serif" font-size="10.00">risk_analysis.h</text>
</a>
</g>
</g>
<!-- Node2&#45;&gt;Node16 -->
<g id="edge36" class="edge"><title>Node2&#45;&gt;Node16</title>
<path fill="none" stroke="midnightblue" d="M1217.45,-345.207C1343.7,-345.595 1770.86,-343.65 1811.5,-300 1942.71,-159.071 1509.36,-129.951 1370.74,-124.292"/>
<polygon fill="midnightblue" stroke="midnightblue" points="1217.21,-341.706 1207.2,-345.168 1217.18,-348.706 1217.21,-341.706"/>
</g>
<!-- Node18 -->
<g id="node18" class="node"><title>Node18</title>
<g id="a_node18"><a xlink:href="cycle_8h.xhtml" target="_top" xlink:title="Validation facilities to detect and print cycles in graphs. ">
<polygon fill="white" stroke="black" points="755.5,-224.5 755.5,-243.5 803.5,-243.5 803.5,-224.5 755.5,-224.5"/>
<text text-anchor="middle" x="779.5" y="-231.5" font-family="Helvetica,sans-Serif" font-size="10.00">cycle.h</text>
</a>
</g>
</g>
<!-- Node2&#45;&gt;Node18 -->
<g id="edge25" class="edge"><title>Node2&#45;&gt;Node18</title>
<path fill="none" stroke="midnightblue" d="M1147.48,-343.628C1092.11,-340.565 981.577,-330.793 893.5,-300 853.283,-285.939 810.992,-257.738 791.116,-243.556"/>
<polygon fill="midnightblue" stroke="midnightblue" points="1147.63,-347.141 1157.8,-344.156 1147.99,-340.15 1147.63,-347.141"/>
</g>
<!-- Node20 -->
<g id="node20" class="node"><title>Node20</title>
<g id="a_node20"><a xlink:href="fault__tree__analysis_8cc.xhtml" target="_top" xlink:title="Implementation of fault tree analysis. ">
<polygon fill="white" stroke="black" points="1246.5,-280.5 1246.5,-299.5 1358.5,-299.5 1358.5,-280.5 1246.5,-280.5"/>
<text text-anchor="middle" x="1302.5" y="-287.5" font-family="Helvetica,sans-Serif" font-size="10.00">fault_tree_analysis.cc</text>
</a>
</g>
</g>
<!-- Node2&#45;&gt;Node20 -->
<g id="edge30" class="edge"><title>Node2&#45;&gt;Node20</title>
<path fill="none" stroke="midnightblue" d="M1210.87,-332.232C1233.32,-322.131 1264.04,-308.309 1283.57,-299.516"/>
<polygon fill="midnightblue" stroke="midnightblue" points="1209.2,-329.148 1201.51,-336.444 1212.07,-335.532 1209.2,-329.148"/>
</g>
<!-- Node21 -->
<g id="node21" class="node"><title>Node21</title>
<g id="a_node21"><a xlink:href="importance__analysis_8cc.xhtml" target="_top" xlink:title="Implementations of functions to provide quantitative importance informations. ">
<polygon fill="white" stroke="black" points="1377,-280.5 1377,-299.5 1496,-299.5 1496,-280.5 1377,-280.5"/>
<text text-anchor="middle" x="1436.5" y="-287.5" font-family="Helvetica,sans-Serif" font-size="10.00">importance_analysis.cc</text>
</a>
</g>
</g>
<!-- Node2&#45;&gt;Node21 -->
<g id="edge31" class="edge"><title>Node2&#45;&gt;Node21</title>
<path fill="none" stroke="midnightblue" d="M1217.27,-337.609C1263.98,-327.677 1346.84,-310.062 1396.22,-299.564"/>
<polygon fill="midnightblue" stroke="midnightblue" points="1216.37,-334.221 1207.32,-339.724 1217.83,-341.068 1216.37,-334.221"/>
</g>
<!-- Node22 -->
<g id="node22" class="node"><title>Node22</title>
<g id="a_node22"><a xlink:href="probability__analysis_8cc.xhtml" target="_top" xlink:title="Implementations of functions to provide probability analysis. ">
<polygon fill="white" stroke="black" points="1514.5,-280.5 1514.5,-299.5 1630.5,-299.5 1630.5,-280.5 1514.5,-280.5"/>
<text text-anchor="middle" x="1572.5" y="-287.5" font-family="Helvetica,sans-Serif" font-size="10.00">probability_analysis.cc</text>
</a>
</g>
</g>
<!-- Node2&#45;&gt;Node22 -->
<g id="edge34" class="edge"><title>Node2&#45;&gt;Node22</title>
<path fill="none" stroke="midnightblue" d="M1217.23,-340.192C1284.21,-330.917 1431.91,-310.467 1514.21,-299.071"/>
<polygon fill="midnightblue" stroke="midnightblue" points="1216.62,-336.743 1207.19,-341.581 1217.58,-343.676 1216.62,-336.743"/>
</g>
<!-- Node23 -->
<g id="node23" class="node"><title>Node23</title>
<g id="a_node23"><a xlink:href="uncertainty__analysis_8cc.xhtml" target="_top" xlink:title="Implements the functionality to run Monte Carlo simulations. ">
<polygon fill="white" stroke="black" points="1649,-280.5 1649,-299.5 1768,-299.5 1768,-280.5 1649,-280.5"/>
<text text-anchor="middle" x="1708.5" y="-287.5" font-family="Helvetica,sans-Serif" font-size="10.00">uncertainty_analysis.cc</text>
</a>
</g>
</g>
<!-- Node2&#45;&gt;Node23 -->
<g id="edge37" class="edge"><title>Node2&#45;&gt;Node23</title>
<path fill="none" stroke="midnightblue" d="M1217.33,-341.948C1293.81,-335.164 1482.15,-318.004 1639.5,-300 1642.5,-299.657 1645.57,-299.295 1648.68,-298.921"/>
<polygon fill="midnightblue" stroke="midnightblue" points="1216.95,-338.468 1207.3,-342.835 1217.57,-345.441 1216.95,-338.468"/>
</g>
<!-- Node5 -->
<g id="node5" class="node"><title>Node5</title>
<g id="a_node5"><a xlink:href="ccf__group_8cc.xhtml" target="_top" xlink:title="Implementation of various common cause failure models. ">
<polygon fill="white" stroke="black" points="458,-224.5 458,-243.5 531,-243.5 531,-224.5 458,-224.5"/>
<text text-anchor="middle" x="494.5" y="-231.5" font-family="Helvetica,sans-Serif" font-size="10.00">ccf_group.cc</text>
</a>
</g>
</g>
<!-- Node4&#45;&gt;Node5 -->
<g id="edge4" class="edge"><title>Node4&#45;&gt;Node5</title>
<path fill="none" stroke="midnightblue" d="M925.403,-283.987C832.363,-273.41 617.471,-248.98 531.263,-239.179"/>
<polygon fill="midnightblue" stroke="midnightblue" points="925.008,-287.464 935.339,-285.116 925.799,-280.509 925.008,-287.464"/>
</g>
<!-- Node4&#45;&gt;Node6 -->
<g id="edge5" class="edge"><title>Node4&#45;&gt;Node6</title>
<path fill="none" stroke="midnightblue" d="M1013.76,-284.43C1118.68,-273.597 1380.05,-246.61 1465.21,-237.818"/>
<polygon fill="midnightblue" stroke="midnightblue" points="1013.4,-280.948 1003.82,-285.457 1014.12,-287.911 1013.4,-280.948"/>
</g>
<!-- Node4&#45;&gt;Node7 -->
<g id="edge6" class="edge"><title>Node4&#45;&gt;Node7</title>
<path fill="none" stroke="midnightblue" d="M996.503,-276.096C1017.61,-266.007 1046.36,-252.27 1064.68,-243.516"/>
<polygon fill="midnightblue" stroke="midnightblue" points="994.919,-272.974 987.405,-280.444 997.937,-279.29 994.919,-272.974"/>
</g>
<!-- Node4&#45;&gt;Node9 -->
<g id="edge22" class="edge"><title>Node4&#45;&gt;Node9</title>
<path fill="none" stroke="midnightblue" d="M964.978,-270.552C958.288,-245.689 944.055,-200.772 921.5,-168 911.416,-153.348 895.732,-140.04 884.835,-131.761"/>
<polygon fill="midnightblue" stroke="midnightblue" points="961.643,-271.635 967.524,-280.448 968.422,-269.891 961.643,-271.635"/>
</g>
<!-- Node4&#45;&gt;Node12 -->
<g id="edge23" class="edge"><title>Node4&#45;&gt;Node12</title>
<path fill="none" stroke="midnightblue" d="M983.222,-272.616C996.447,-257.842 1017.75,-236.561 1040.5,-224 1085.6,-199.094 1145.42,-187.233 1178.93,-182.206"/>
<polygon fill="midnightblue" stroke="midnightblue" points="980.334,-270.604 976.419,-280.449 985.619,-275.194 980.334,-270.604"/>
</g>
<!-- Node15 -->
<g id="node15" class="node"><title>Node15</title>
<g id="a_node15"><a xlink:href="reporter_8cc.xhtml" target="_top" xlink:title="Implements Reporter class. ">
<polygon fill="white" stroke="black" points="952,-0.5 952,-19.5 1015,-19.5 1015,-0.5 952,-0.5"/>
<text text-anchor="middle" x="983.5" y="-7.5" font-family="Helvetica,sans-Serif" font-size="10.00">reporter.cc</text>
</a>
</g>
</g>
<!-- Node4&#45;&gt;Node15 -->
<g id="edge24" class="edge"><title>Node4&#45;&gt;Node15</title>
<path fill="none" stroke="midnightblue" d="M973.281,-270.644C977.427,-248.879 983.5,-211.459 983.5,-179 983.5,-179 983.5,-179 983.5,-121 983.5,-83.1875 983.5,-38.0636 983.5,-19.5578"/>
<polygon fill="midnightblue" stroke="midnightblue" points="969.84,-270 971.33,-280.489 976.707,-271.36 969.84,-270"/>
</g>
<!-- Node8 -->
<g id="node8" class="node"><title>Node8</title>
<g id="a_node8"><a xlink:href="fault__tree_8cc.xhtml" target="_top" xlink:title="Implementation of fault tree and component containers. ">
<polygon fill="white" stroke="black" points="1050,-168.5 1050,-187.5 1121,-187.5 1121,-168.5 1050,-168.5"/>
<text text-anchor="middle" x="1085.5" y="-175.5" font-family="Helvetica,sans-Serif" font-size="10.00">fault_tree.cc</text>
</a>
</g>
</g>
<!-- Node7&#45;&gt;Node8 -->
<g id="edge7" class="edge"><title>Node7&#45;&gt;Node8</title>
<path fill="none" stroke="midnightblue" d="M1083.57,-213.805C1084.06,-204.91 1084.62,-194.78 1085.01,-187.751"/>
<polygon fill="midnightblue" stroke="midnightblue" points="1080.06,-213.904 1083,-224.083 1087.04,-214.293 1080.06,-213.904"/>
</g>
<!-- Node7&#45;&gt;Node9 -->
<g id="edge8" class="edge"><title>Node7&#45;&gt;Node9</title>
<path fill="none" stroke="midnightblue" d="M1057.1,-219.496C1032.26,-206.303 993.323,-185.684 959.5,-168 935.087,-155.236 906.733,-140.606 889.201,-131.583"/>
<polygon fill="midnightblue" stroke="midnightblue" points="1055.74,-222.732 1066.21,-224.333 1059.02,-216.55 1055.74,-222.732"/>
</g>
<!-- Node7&#45;&gt;Node12 -->
<g id="edge11" class="edge"><title>Node7&#45;&gt;Node12</title>
<path fill="none" stroke="midnightblue" d="M1111.04,-220.368C1133.89,-210.255 1165.31,-196.349 1185.26,-187.516"/>
<polygon fill="midnightblue" stroke="midnightblue" points="1109.56,-217.196 1101.83,-224.444 1112.39,-223.597 1109.56,-217.196"/>
</g>
<!-- Node17 -->
<g id="node17" class="node"><title>Node17</title>
<g id="a_node17"><a xlink:href="risk__analysis_8cc.xhtml" target="_top" xlink:title="Implementation of risk analysis handler. ">
<polygon fill="white" stroke="black" points="1320,-56.5 1320,-75.5 1407,-75.5 1407,-56.5 1320,-56.5"/>
<text text-anchor="middle" x="1363.5" y="-63.5" font-family="Helvetica,sans-Serif" font-size="10.00">risk_analysis.cc</text>
</a>
</g>
</g>
<!-- Node7&#45;&gt;Node17 -->
<g id="edge21" class="edge"><title>Node7&#45;&gt;Node17</title>
<path fill="none" stroke="midnightblue" d="M1125.74,-233.242C1193.59,-230.96 1323.13,-215.262 1379.5,-132 1391.36,-114.485 1378.27,-89.0212 1369.71,-75.7633"/>
<polygon fill="midnightblue" stroke="midnightblue" points="1125.31,-229.751 1115.4,-233.501 1125.49,-236.749 1125.31,-229.751"/>
</g>
<!-- Node10 -->
<g id="node10" class="node"><title>Node10</title>
<g id="a_node10"><a xlink:href="initializer_8cc.xhtml" target="_top" xlink:title="Implementation of input file processing into analysis constructs. ">
<polygon fill="white" stroke="black" points="179.5,-56.5 179.5,-75.5 247.5,-75.5 247.5,-56.5 179.5,-56.5"/>
<text text-anchor="middle" x="213.5" y="-63.5" font-family="Helvetica,sans-Serif" font-size="10.00">initializer.cc</text>
</a>
</g>
</g>
<!-- Node9&#45;&gt;Node10 -->
<g id="edge9" class="edge"><title>Node9&#45;&gt;Node10</title>
<path fill="none" stroke="midnightblue" d="M830.704,-117.575C709.392,-107.635 358.812,-78.9072 247.704,-69.8028"/>
<polygon fill="midnightblue" stroke="midnightblue" points="830.463,-121.067 840.715,-118.395 831.034,-114.09 830.463,-121.067"/>
</g>
<!-- Node11 -->
<g id="node11" class="node"><title>Node11</title>
<g id="a_node11"><a xlink:href="scram_8cc.xhtml" target="_top" xlink:title="Main entrance. ">
<polygon fill="white" stroke="black" points="1150,-0.5 1150,-19.5 1207,-19.5 1207,-0.5 1150,-0.5"/>
<text text-anchor="middle" x="1178.5" y="-7.5" font-family="Helvetica,sans-Serif" font-size="10.00">scram.cc</text>
</a>
</g>
</g>
<!-- Node9&#45;&gt;Node11 -->
<g id="edge10" class="edge"><title>Node9&#45;&gt;Node11</title>
<path fill="none" stroke="midnightblue" d="M905.977,-108.966C968.221,-86.5904 1100.35,-39.0916 1154.55,-19.6104"/>
<polygon fill="midnightblue" stroke="midnightblue" points="904.483,-105.783 896.257,-112.46 906.851,-112.371 904.483,-105.783"/>
</g>
<!-- Node12&#45;&gt;Node9 -->
<g id="edge12" class="edge"><title>Node12&#45;&gt;Node9</title>
<path fill="none" stroke="midnightblue" d="M1168.81,-171.196C1103.67,-160.599 966.461,-138.283 904.303,-128.173"/>
<polygon fill="midnightblue" stroke="midnightblue" points="1168.57,-174.701 1179,-172.852 1169.69,-167.792 1168.57,-174.701"/>
</g>
<!-- Node13 -->
<g id="node13" class="node"><title>Node13</title>
<g id="a_node13"><a xlink:href="model_8cc.xhtml" target="_top" xlink:title="Implementation of functions in Model class. ">
<polygon fill="white" stroke="black" points="1176.5,-112.5 1176.5,-131.5 1232.5,-131.5 1232.5,-112.5 1176.5,-112.5"/>
<text text-anchor="middle" x="1204.5" y="-119.5" font-family="Helvetica,sans-Serif" font-size="10.00">model.cc</text>
</a>
</g>
</g>
<!-- Node12&#45;&gt;Node13 -->
<g id="edge13" class="edge"><title>Node12&#45;&gt;Node13</title>
<path fill="none" stroke="midnightblue" d="M1204.5,-157.805C1204.5,-148.91 1204.5,-138.78 1204.5,-131.751"/>
<polygon fill="midnightblue" stroke="midnightblue" points="1201,-158.083 1204.5,-168.083 1208,-158.083 1201,-158.083"/>
</g>
<!-- Node12&#45;&gt;Node14 -->
<g id="edge14" class="edge"><title>Node12&#45;&gt;Node14</title>
<path fill="none" stroke="midnightblue" d="M1223.18,-161.389C1236.4,-148.348 1250.34,-129.18 1241.5,-112 1232.7,-94.9095 1214.08,-82.8711 1199.35,-75.5733"/>
<polygon fill="midnightblue" stroke="midnightblue" points="1220.66,-158.957 1215.66,-168.298 1225.39,-164.113 1220.66,-158.957"/>
</g>
<!-- Node12&#45;&gt;Node16 -->
<g id="edge17" class="edge"><title>Node12&#45;&gt;Node16</title>
<path fill="none" stroke="midnightblue" d="M1233.74,-164.368C1257.15,-154.255 1289.34,-140.349 1309.79,-131.516"/>
<polygon fill="midnightblue" stroke="midnightblue" points="1232.1,-161.265 1224.31,-168.444 1234.87,-167.691 1232.1,-161.265"/>
</g>
<!-- Node14&#45;&gt;Node11 -->
<g id="edge16" class="edge"><title>Node14&#45;&gt;Node11</title>
<path fill="none" stroke="midnightblue" d="M1178.5,-45.8045C1178.5,-36.9102 1178.5,-26.7798 1178.5,-19.7511"/>
<polygon fill="midnightblue" stroke="midnightblue" points="1175,-46.083 1178.5,-56.083 1182,-46.083 1175,-46.083"/>
</g>
<!-- Node14&#45;&gt;Node15 -->
<g id="edge15" class="edge"><title>Node14&#45;&gt;Node15</title>
<path fill="none" stroke="midnightblue" d="M1139.44,-54.1826C1102.68,-44.0047 1048.37,-28.9651 1014.51,-19.5865"/>
<polygon fill="midnightblue" stroke="midnightblue" points="1138.74,-57.6198 1149.31,-56.9157 1140.6,-50.8737 1138.74,-57.6198"/>
</g>
<!-- Node16&#45;&gt;Node11 -->
<g id="edge20" class="edge"><title>Node16&#45;&gt;Node11</title>
<path fill="none" stroke="midnightblue" d="M1309.48,-106.417C1277.54,-83.1513 1216.04,-38.3501 1190.29,-19.5914"/>
<polygon fill="midnightblue" stroke="midnightblue" points="1307.51,-109.309 1317.65,-112.368 1311.63,-103.651 1307.51,-109.309"/>
</g>
<!-- Node16&#45;&gt;Node14 -->
<g id="edge18" class="edge"><title>Node16&#45;&gt;Node14</title>
<path fill="none" stroke="midnightblue" d="M1296.05,-109.039C1267.64,-98.8786 1227.56,-84.5457 1202.31,-75.5164"/>
<polygon fill="midnightblue" stroke="midnightblue" points="1294.98,-112.372 1305.57,-112.444 1297.34,-105.781 1294.98,-112.372"/>
</g>
<!-- Node16&#45;&gt;Node17 -->
<g id="edge19" class="edge"><title>Node16&#45;&gt;Node17</title>
<path fill="none" stroke="midnightblue" d="M1340.48,-103.566C1346.33,-94.2747 1353.27,-83.2484 1357.99,-75.7511"/>
<polygon fill="midnightblue" stroke="midnightblue" points="1337.48,-101.756 1335.11,-112.083 1343.4,-105.486 1337.48,-101.756"/>
</g>
<!-- Node18&#45;&gt;Node10 -->
<g id="edge27" class="edge"><title>Node18&#45;&gt;Node10</title>
<path fill="none" stroke="midnightblue" d="M745.338,-222.981C642.731,-192.887 338.444,-103.644 242.69,-75.5609"/>
<polygon fill="midnightblue" stroke="midnightblue" points="744.599,-226.411 755.18,-225.867 746.569,-219.694 744.599,-226.411"/>
</g>
<!-- Node19 -->
<g id="node19" class="node"><title>Node19</title>
<g id="a_node19"><a xlink:href="cycle_8cc.xhtml" target="_top" xlink:title="Implementation of helper facilities to work with cycles. ">
<polygon fill="white" stroke="black" points="756,-168.5 756,-187.5 809,-187.5 809,-168.5 756,-168.5"/>
<text text-anchor="middle" x="782.5" y="-175.5" font-family="Helvetica,sans-Serif" font-size="10.00">cycle.cc</text>
</a>
</g>
</g>
<!-- Node18&#45;&gt;Node19 -->
<g id="edge26" class="edge"><title>Node18&#45;&gt;Node19</title>
<path fill="none" stroke="midnightblue" d="M780.566,-213.805C781.061,-204.91 781.623,-194.78 782.014,-187.751"/>
<polygon fill="midnightblue" stroke="midnightblue" points="777.056,-213.904 779.995,-224.083 784.045,-214.293 777.056,-213.904"/>
</g>
<!-- Node24&#45;&gt;Node2 -->
<g id="edge39" class="edge"><title>Node24&#45;&gt;Node2</title>
<path fill="none" stroke="midnightblue" d="M624.955,-396.847C745.632,-386.058 1066.02,-357.414 1157.68,-349.219"/>
<polygon fill="midnightblue" stroke="midnightblue" points="624.571,-393.367 614.923,-397.744 625.195,-400.339 624.571,-393.367"/>
</g>
<!-- Node24&#45;&gt;Node4 -->
<g id="edge40" class="edge"><title>Node24&#45;&gt;Node4</title>
<path fill="none" stroke="midnightblue" d="M618.858,-389.646C697.439,-367.539 869.379,-319.167 939.164,-299.535"/>
<polygon fill="midnightblue" stroke="midnightblue" points="617.534,-386.383 608.856,-392.46 619.43,-393.121 617.534,-386.383"/>
</g>
<!-- Node24&#45;&gt;Node9 -->
<g id="edge63" class="edge"><title>Node24&#45;&gt;Node9</title>
<path fill="none" stroke="midnightblue" d="M583.716,-382.39C589.341,-360.65 597.5,-323.511 597.5,-291 597.5,-291 597.5,-291 597.5,-233 597.5,-181.065 768.72,-142.602 840.954,-128.686"/>
<polygon fill="midnightblue" stroke="midnightblue" points="580.282,-381.683 581.062,-392.249 587.041,-383.502 580.282,-381.683"/>
</g>
<!-- Node25 -->
<g id="node25" class="node"><title>Node25</title>
<g id="a_node25"><a xlink:href="arithmetic_8h.xhtml" target="_top" xlink:title="A collection of arithmetic expressions. ">
<polygon fill="white" stroke="black" points="352.5,-280.5 352.5,-299.5 420.5,-299.5 420.5,-280.5 352.5,-280.5"/>
<text text-anchor="middle" x="386.5" y="-287.5" font-family="Helvetica,sans-Serif" font-size="10.00">arithmetic.h</text>
</a>
</g>
</g>
<!-- Node24&#45;&gt;Node25 -->
<g id="edge41" class="edge"><title>Node24&#45;&gt;Node25</title>
<path fill="none" stroke="midnightblue" d="M554.589,-387.301C514.449,-364.304 434.658,-318.591 401.496,-299.591"/>
<polygon fill="midnightblue" stroke="midnightblue" points="553.017,-390.434 563.434,-392.368 556.497,-384.36 553.017,-390.434"/>
</g>
<!-- Node27 -->
<g id="node27" class="node"><title>Node27</title>
<g id="a_node27"><a xlink:href="constant_8h.xhtml" target="_top" xlink:title="Constant expressions that cannot have uncertainties. ">
<polygon fill="white" stroke="black" points="458.5,-280.5 458.5,-299.5 520.5,-299.5 520.5,-280.5 458.5,-280.5"/>
<text text-anchor="middle" x="489.5" y="-287.5" font-family="Helvetica,sans-Serif" font-size="10.00">constant.h</text>
</a>
</g>
</g>
<!-- Node24&#45;&gt;Node27 -->
<g id="edge45" class="edge"><title>Node24&#45;&gt;Node27</title>
<path fill="none" stroke="midnightblue" d="M565.219,-384.586C546.032,-360.871 511.24,-317.869 496.451,-299.591"/>
<polygon fill="midnightblue" stroke="midnightblue" points="562.505,-386.796 571.516,-392.368 567.947,-382.393 562.505,-386.796"/>
</g>
<!-- Node24&#45;&gt;Node29 -->
<g id="edge49" class="edge"><title>Node24&#45;&gt;Node29</title>
<path fill="none" stroke="midnightblue" d="M598.386,-386.417C630.112,-363.151 691.204,-318.35 716.784,-299.591"/>
<polygon fill="midnightblue" stroke="midnightblue" points="596.265,-383.632 590.27,-392.368 600.404,-389.277 596.265,-383.632"/>
</g>
<!-- Node31 -->
<g id="node31" class="node"><title>Node31</title>
<g id="a_node31"><a xlink:href="exponential_8h.xhtml" target="_top" xlink:title="Expressions and distributions that are described with exponential formulas. ">
<polygon fill="white" stroke="black" points="247.5,-336.5 247.5,-355.5 321.5,-355.5 321.5,-336.5 247.5,-336.5"/>
<text text-anchor="middle" x="284.5" y="-343.5" font-family="Helvetica,sans-Serif" font-size="10.00">exponential.h</text>
</a>
</g>
</g>
<!-- Node24&#45;&gt;Node31 -->
<g id="edge56" class="edge"><title>Node24&#45;&gt;Node31</title>
<path fill="none" stroke="midnightblue" d="M532.436,-392.539C474.293,-381.86 375.411,-363.698 321.773,-353.846"/>
<polygon fill="midnightblue" stroke="midnightblue" points="531.982,-396.014 542.45,-394.379 533.247,-389.13 531.982,-396.014"/>
</g>
<!-- Node33 -->
<g id="node33" class="node"><title>Node33</title>
<g id="a_node33"><a xlink:href="random__deviate_8h.xhtml" target="_top" xlink:title="A collection of deviate expressions with random distributions sampled at run&#45;time. ">
<polygon fill="white" stroke="black" points="95.5,-336.5 95.5,-355.5 189.5,-355.5 189.5,-336.5 95.5,-336.5"/>
<text text-anchor="middle" x="142.5" y="-343.5" font-family="Helvetica,sans-Serif" font-size="10.00">random_deviate.h</text>
</a>
</g>
</g>
<!-- Node24&#45;&gt;Node33 -->
<g id="edge59" class="edge"><title>Node24&#45;&gt;Node33</title>
<path fill="none" stroke="midnightblue" d="M532.508,-395.304C449.119,-384.976 273.825,-363.265 189.617,-352.836"/>
<polygon fill="midnightblue" stroke="midnightblue" points="532.095,-398.779 542.449,-396.535 532.955,-391.832 532.095,-398.779"/>
</g>
<!-- Node35 -->
<g id="node35" class="node"><title>Node35</title>
<g id="a_node35"><a xlink:href="expression_8cc.xhtml" target="_top" xlink:title="Implementation of the expression base class. ">
<polygon fill="white" stroke="black" points="0,-336.5 0,-355.5 77,-355.5 77,-336.5 0,-336.5"/>
<text text-anchor="middle" x="38.5" y="-343.5" font-family="Helvetica,sans-Serif" font-size="10.00">expression.cc</text>
</a>
</g>
</g>
<!-- Node24&#45;&gt;Node35 -->
<g id="edge62" class="edge"><title>Node24&#45;&gt;Node35</title>
<path fill="none" stroke="midnightblue" d="M532.137,-398.22C444.699,-392.655 249.568,-378.694 86.5,-356 83.4769,-355.579 80.3548,-355.099 77.2213,-354.584"/>
<polygon fill="midnightblue" stroke="midnightblue" points="532.056,-401.722 542.256,-398.858 532.496,-394.736 532.056,-401.722"/>
</g>
<!-- Node25&#45;&gt;Node5 -->
<g id="edge42" class="edge"><title>Node25&#45;&gt;Node5</title>
<path fill="none" stroke="midnightblue" d="M413.048,-275.726C433.046,-265.727 459.887,-252.307 477.191,-243.655"/>
<polygon fill="midnightblue" stroke="midnightblue" points="411.231,-272.721 403.852,-280.324 414.362,-278.982 411.231,-272.721"/>
</g>
<!-- Node25&#45;&gt;Node10 -->
<g id="edge44" class="edge"><title>Node25&#45;&gt;Node10</title>
<path fill="none" stroke="midnightblue" d="M342.36,-281.7C302.044,-274.08 246.63,-260.887 232.5,-244 190.059,-193.275 205.297,-103.67 211.439,-75.6334"/>
<polygon fill="midnightblue" stroke="midnightblue" points="341.783,-285.152 352.251,-283.516 343.047,-278.267 341.783,-285.152"/>
</g>
<!-- Node26 -->
<g id="node26" class="node"><title>Node26</title>
<g id="a_node26"><a xlink:href="arithmetic_8cc.xhtml" target="_top" xlink:title="Implementation of various arithmetic expressions. ">
<polygon fill="white" stroke="black" points="242,-224.5 242,-243.5 315,-243.5 315,-224.5 242,-224.5"/>
<text text-anchor="middle" x="278.5" y="-231.5" font-family="Helvetica,sans-Serif" font-size="10.00">arithmetic.cc</text>
</a>
</g>
</g>
<!-- Node25&#45;&gt;Node26 -->
<g id="edge43" class="edge"><title>Node25&#45;&gt;Node26</title>
<path fill="none" stroke="midnightblue" d="M359.952,-275.726C339.954,-265.727 313.113,-252.307 295.809,-243.655"/>
<polygon fill="midnightblue" stroke="midnightblue" points="358.638,-278.982 369.148,-280.324 361.769,-272.721 358.638,-278.982"/>
</g>
<!-- Node27&#45;&gt;Node5 -->
<g id="edge46" class="edge"><title>Node27&#45;&gt;Node5</title>
<path fill="none" stroke="midnightblue" d="M491.25,-270.101C492.08,-261.136 493.032,-250.858 493.69,-243.751"/>
<polygon fill="midnightblue" stroke="midnightblue" points="487.763,-269.803 490.326,-280.083 494.733,-270.448 487.763,-269.803"/>
</g>
<!-- Node27&#45;&gt;Node9 -->
<g id="edge48" class="edge"><title>Node27&#45;&gt;Node9</title>
<path fill="none" stroke="midnightblue" d="M469.084,-273.851C453.776,-260.585 437.247,-240.851 448.5,-224 492.678,-157.846 750.285,-132.229 840.948,-125.186"/>
<polygon fill="midnightblue" stroke="midnightblue" points="467.307,-276.916 477.279,-280.496 471.716,-271.479 467.307,-276.916"/>
</g>
<!-- Node28 -->
<g id="node28" class="node"><title>Node28</title>
<g id="a_node28"><a xlink:href="constant_8cc.xhtml" target="_top" xlink:title="Implementation of various constant expressions. ">
<polygon fill="white" stroke="black" points="333.5,-224.5 333.5,-243.5 401.5,-243.5 401.5,-224.5 333.5,-224.5"/>
<text text-anchor="middle" x="367.5" y="-231.5" font-family="Helvetica,sans-Serif" font-size="10.00">constant.cc</text>
</a>
</g>
</g>
<!-- Node27&#45;&gt;Node28 -->
<g id="edge47" class="edge"><title>Node27&#45;&gt;Node28</title>
<path fill="none" stroke="midnightblue" d="M460.961,-276.368C438.114,-266.255 406.695,-252.349 386.741,-243.516"/>
<polygon fill="midnightblue" stroke="midnightblue" points="459.608,-279.597 470.169,-280.444 462.441,-273.196 459.608,-279.597"/>
</g>
<!-- Node29&#45;&gt;Node7 -->
<g id="edge51" class="edge"><title>Node29&#45;&gt;Node7</title>
<path fill="none" stroke="midnightblue" d="M772.888,-282.229C845.009,-271.227 985.981,-249.723 1049.76,-239.994"/>
<polygon fill="midnightblue" stroke="midnightblue" points="772.122,-278.805 762.765,-283.773 773.178,-285.725 772.122,-278.805"/>
</g>
<!-- Node29&#45;&gt;Node9 -->
<g id="edge53" class="edge"><title>Node29&#45;&gt;Node9</title>
<path fill="none" stroke="midnightblue" d="M725.798,-270.151C723.172,-244.142 722.543,-197.162 746.5,-168 769.649,-139.821 811.795,-129.28 840.93,-125.342"/>
<polygon fill="midnightblue" stroke="midnightblue" points="722.338,-270.691 727.022,-280.195 729.287,-269.845 722.338,-270.691"/>
</g>
<!-- Node29&#45;&gt;Node12 -->
<g id="edge52" class="edge"><title>Node29&#45;&gt;Node12</title>
<path fill="none" stroke="midnightblue" d="M772.49,-278.817C827.803,-266.014 925.68,-243.366 1009.5,-224 1070.26,-209.961 1141.69,-193.485 1178.95,-184.893"/>
<polygon fill="midnightblue" stroke="midnightblue" points="771.624,-275.425 762.671,-281.09 773.202,-282.245 771.624,-275.425"/>
</g>
<!-- Node29&#45;&gt;Node15 -->
<g id="edge55" class="edge"><title>Node29&#45;&gt;Node15</title>
<path fill="none" stroke="midnightblue" d="M684.289,-281.309C645.799,-272.405 598.735,-254.851 616.5,-224 690.943,-94.7223 877.249,-36.6906 951.868,-18.0814"/>
<polygon fill="midnightblue" stroke="midnightblue" points="683.835,-284.792 694.35,-283.492 685.32,-277.951 683.835,-284.792"/>
</g>
<!-- Node29&#45;&gt;Node18 -->
<g id="edge50" class="edge"><title>Node29&#45;&gt;Node18</title>
<path fill="none" stroke="midnightblue" d="M743.878,-272.718C752.867,-263.2 763.859,-251.561 771.235,-243.751"/>
<polygon fill="midnightblue" stroke="midnightblue" points="741.243,-270.41 736.922,-280.083 746.332,-275.216 741.243,-270.41"/>
</g>
<!-- Node30 -->
<g id="node30" class="node"><title>Node30</title>
<g id="a_node30"><a xlink:href="parameter_8cc.xhtml" target="_top" xlink:title="Implementation of expression parameters. ">
<polygon fill="white" stroke="black" points="625.5,-224.5 625.5,-243.5 699.5,-243.5 699.5,-224.5 625.5,-224.5"/>
<text text-anchor="middle" x="662.5" y="-231.5" font-family="Helvetica,sans-Serif" font-size="10.00">parameter.cc</text>
</a>
</g>
</g>
<!-- Node29&#45;&gt;Node30 -->
<g id="edge54" class="edge"><title>Node29&#45;&gt;Node30</title>
<path fill="none" stroke="midnightblue" d="M709.946,-273.82C698.122,-264.145 683.214,-251.948 673.297,-243.834"/>
<polygon fill="midnightblue" stroke="midnightblue" points="707.94,-276.7 717.896,-280.324 712.373,-271.283 707.94,-276.7"/>
</g>
<!-- Node31&#45;&gt;Node10 -->
<g id="edge58" class="edge"><title>Node31&#45;&gt;Node10</title>
<path fill="none" stroke="midnightblue" d="M256.234,-331.772C223.937,-314.473 175.5,-280.881 175.5,-235 175.5,-235 175.5,-235 175.5,-177 175.5,-137.399 197.775,-93.957 208.216,-75.769"/>
<polygon fill="midnightblue" stroke="midnightblue" points="254.77,-334.955 265.264,-336.415 257.971,-328.73 254.77,-334.955"/>
</g>
<!-- Node32 -->
<g id="node32" class="node"><title>Node32</title>
<g id="a_node32"><a xlink:href="exponential_8cc.xhtml" target="_top" xlink:title="Implementation of various exponential expressions. ">
<polygon fill="white" stroke="black" points="244.5,-280.5 244.5,-299.5 324.5,-299.5 324.5,-280.5 244.5,-280.5"/>
<text text-anchor="middle" x="284.5" y="-287.5" font-family="Helvetica,sans-Serif" font-size="10.00">exponential.cc</text>
</a>
</g>
</g>
<!-- Node31&#45;&gt;Node32 -->
<g id="edge57" class="edge"><title>Node31&#45;&gt;Node32</title>
<path fill="none" stroke="midnightblue" d="M284.5,-325.805C284.5,-316.91 284.5,-306.78 284.5,-299.751"/>
<polygon fill="midnightblue" stroke="midnightblue" points="281,-326.083 284.5,-336.083 288,-326.083 281,-326.083"/>
</g>
<!-- Node33&#45;&gt;Node10 -->
<g id="edge61" class="edge"><title>Node33&#45;&gt;Node10</title>
<path fill="none" stroke="midnightblue" d="M141.129,-326.263C139.649,-304.38 137.5,-267.085 137.5,-235 137.5,-235 137.5,-235 137.5,-177 137.5,-132.201 180.696,-92.4292 201.957,-75.5672"/>
<polygon fill="midnightblue" stroke="midnightblue" points="137.653,-326.719 141.846,-336.448 144.635,-326.227 137.653,-326.719"/>
</g>
<!-- Node34 -->
<g id="node34" class="node"><title>Node34</title>
<g id="a_node34"><a xlink:href="random__deviate_8cc.xhtml" target="_top" xlink:title="Implementations of random deviate expressions. ">
<polygon fill="white" stroke="black" points="10,-280.5 10,-299.5 109,-299.5 109,-280.5 10,-280.5"/>
<text text-anchor="middle" x="59.5" y="-287.5" font-family="Helvetica,sans-Serif" font-size="10.00">random_deviate.cc</text>
</a>
</g>
</g>
<!-- Node33&#45;&gt;Node34 -->
<g id="edge60" class="edge"><title>Node33&#45;&gt;Node34</title>
<path fill="none" stroke="midnightblue" d="M120.401,-330.622C105.238,-320.757 85.6172,-307.992 72.8023,-299.655"/>
<polygon fill="midnightblue" stroke="midnightblue" points="118.874,-333.804 129.165,-336.324 122.691,-327.937 118.874,-333.804"/>
</g>
</g>
</svg>
        <g id="navigator" transform="translate(0 0)" fill="#404254">
                <rect fill="#f2f5e9" fill-opacity="0.5" stroke="#606060" stroke-width=".5" x="0" y="0" width="60" height="60"/>
                <use id="zoomplus" xlink:href="#zoomPlus" x="17" y="9" onmousedown="handleZoom(evt,'in')"/>
                <use id="zoomminus" xlink:href="#zoomMin" x="42" y="9" onmousedown="handleZoom(evt,'out')"/>
                <use id="reset" xlink:href="#resetDef" x="30" y="36" onmousedown="handleReset()"/>
                <g id="arrowUp" xlink:href="#dirArrow" transform="translate(30 24)" onmousedown="handlePan(0,-1)">
                  <use xlink:href="#rim" fill="#404040">
                        <set attributeName="fill" to="#808080" begin="arrowUp.mouseover" end="arrowUp.mouseout"/>
                  </use>
                  <path fill="none" stroke="white" stroke-width="1.5" d="M0,-3.0v7 M-2.5,-0.5L0,-3.0L2.5,-0.5"/>
                </g>
                <g id="arrowRight" xlink:href="#dirArrow" transform="rotate(90) translate(36 -43)" onmousedown="handlePan(1,0)">
                  <use xlink:href="#rim" fill="#404040">
                        <set attributeName="fill" to="#808080" begin="arrowRight.mouseover" end="arrowRight.mouseout"/>
                  </use>
                  <path fill="none" stroke="white" stroke-width="1.5" d="M0,-3.0v7 M-2.5,-0.5L0,-3.0L2.5,-0.5"/>
                </g>
                <g id="arrowDown" xlink:href="#dirArrow" transform="rotate(180) translate(-30 -48)" onmousedown="handlePan(0,1)">
                  <use xlink:href="#rim" fill="#404040">
                        <set attributeName="fill" to="#808080" begin="arrowDown.mouseover" end="arrowDown.mouseout"/>
                  </use>
                  <path fill="none" stroke="white" stroke-width="1.5" d="M0,-3.0v7 M-2.5,-0.5L0,-3.0L2.5,-0.5"/>
                </g>
                <g id="arrowLeft" xlink:href="#dirArrow" transform="rotate(270) translate(-36 17)" onmousedown="handlePan(-1,0)">
                  <use xlink:href="#rim" fill="#404040">
                        <set attributeName="fill" to="#808080" begin="arrowLeft.mouseover" end="arrowLeft.mouseout"/>
                  </use>
                  <path fill="none" stroke="white" stroke-width="1.5" d="M0,-3.0v7 M-2.5,-0.5L0,-3.0L2.5,-0.5"/>
                </g>
        </g>
        <svg viewBox="0 0 15 15" width="100%" height="30px" preserveAspectRatio="xMaxYMin meet">
         <g id="arrow_out" transform="scale(0.3 0.3)">
          <a xlink:href="element_8h__dep__incl_org.svg" target="_base">
           <rect id="button" ry="5" rx="5" y="6" x="6" height="38" width="38"
                fill="#f2f5e9" fill-opacity="0.5" stroke="#606060" stroke-width="1.0"/>
           <path id="arrow"
             d="M 11.500037,31.436501 C 11.940474,20.09759 22.043105,11.32322 32.158766,21.979434 L 37.068811,17.246167 C 37.068811,17.246167 37.088388,32 37.088388,32 L 22.160133,31.978069 C 22.160133,31.978069 26.997745,27.140456 26.997745,27.140456 C 18.528582,18.264221 13.291696,25.230495 11.500037,31.436501 z"
             style="fill:#404040;"/>
          </a>
         </g>
        </svg>
</svg>
