<?xml version="1.0" encoding="UTF-8" standalone="no"?>
<!DOCTYPE svg PUBLIC "-//W3C//DTD SVG 1.1//EN"
 "http://www.w3.org/Graphics/SVG/1.1/DTD/svg11.dtd">
<!-- Generated by graphviz version 2.38.0 (20140413.2041)
 -->
<!-- Title: scram::mef::GetFullPath Pages: 1 -->
<svg width="470pt" height="52pt"
 viewBox="0.00 0.00 470.00 51.50" xmlns="http://www.w3.org/2000/svg" xmlns:xlink="http://www.w3.org/1999/xlink">
<g id="graph0" class="graph" transform="scale(1 1) rotate(0) translate(4 47.5)">
<title>scram::mef::GetFullPath</title>
<polygon fill="white" stroke="none" points="-4,4 -4,-47.5 466,-47.5 466,4 -4,4"/>
<!-- Node1 -->
<g id="node1" class="node"><title>Node1</title>
<polygon fill="#bfbfbf" stroke="black" points="0,-6 0,-25 124,-25 124,-6 0,-6"/>
<text text-anchor="middle" x="62" y="-13" font-family="Helvetica,sans-Serif" font-size="10.00">scram::mef::GetFullPath</text>
</g>
<!-- Node1&#45;&gt;Node1 -->
<g id="edge3" class="edge"><title>Node1&#45;&gt;Node1</title>
<path fill="none" stroke="midnightblue" d="M34.0009,-34.1539C35.1712,-39.4368 44.5043,-43.5 62,-43.5 88.6602,-43.5 96.3666,-34.0653 85.1194,-25.2571"/>
<polygon fill="midnightblue" stroke="midnightblue" points="37.1403,-35.708 38.8806,-25.2571 31.0029,-32.3417 37.1403,-35.708"/>
</g>
<!-- Node2 -->
<g id="node2" class="node"><title>Node2</title>
<g id="a_node2"><a xlink:href="classscram_1_1mef_1_1Model.xhtml#a5c8b03561207b374fc06dd61c0cf3ace" target="_top" xlink:title="scram::mef::Model::\lccf_groups">
<polygon fill="white" stroke="black" points="160,-0.5 160,-30.5 264,-30.5 264,-0.5 160,-0.5"/>
<text text-anchor="start" x="168" y="-18.5" font-family="Helvetica,sans-Serif" font-size="10.00">scram::mef::Model::</text>
<text text-anchor="middle" x="212" y="-7.5" font-family="Helvetica,sans-Serif" font-size="10.00">ccf_groups</text>
</a>
</g>
</g>
<!-- Node1&#45;&gt;Node2 -->
<g id="edge1" class="edge"><title>Node1&#45;&gt;Node2</title>
<path fill="none" stroke="midnightblue" d="M134.211,-15.5C142.909,-15.5 151.659,-15.5 159.979,-15.5"/>
<polygon fill="midnightblue" stroke="midnightblue" points="134.052,-12.0001 124.052,-15.5 134.052,-19.0001 134.052,-12.0001"/>
</g>
<!-- Node3 -->
<g id="node3" class="node"><title>Node3</title>
<g id="a_node3"><a xlink:href="reporter_8cc.xhtml#ad6460094a94fb73e56c2a4a5efc598ed" target="_top" xlink:title="Describes all performed analyses deduced from settings. ">
<polygon fill="white" stroke="black" points="300,-0.5 300,-30.5 462,-30.5 462,-0.5 300,-0.5"/>
<text text-anchor="start" x="308" y="-18.5" font-family="Helvetica,sans-Serif" font-size="10.00">scram::ReportCalculatedQuantity</text>
<text text-anchor="middle" x="381" y="-7.5" font-family="Helvetica,sans-Serif" font-size="10.00">&lt; core::RiskAnalysis &gt;</text>
</a>
</g>
</g>
<!-- Node2&#45;&gt;Node3 -->
<g id="edge2" class="edge"><title>Node2&#45;&gt;Node3</title>
<path fill="none" stroke="midnightblue" d="M274.04,-15.5C282.413,-15.5 291.112,-15.5 299.764,-15.5"/>
<polygon fill="midnightblue" stroke="midnightblue" points="274.013,-12.0001 264.013,-15.5 274.013,-19.0001 274.013,-12.0001"/>
</g>
</g>
</svg>
