<?xml version="1.0" encoding="UTF-8" standalone="no"?>
<!DOCTYPE svg PUBLIC "-//W3C//DTD SVG 1.1//EN"
 "http://www.w3.org/Graphics/SVG/1.1/DTD/svg11.dtd">
<!-- Generated by graphviz version 2.38.0 (20140413.2041)
 -->
<!-- Title: error.h Pages: 1 -->
<svg width="2184pt" height="420pt"
 viewBox="0.00 0.00 2183.50 420.00" xmlns="http://www.w3.org/2000/svg" xmlns:xlink="http://www.w3.org/1999/xlink">
<g id="graph0" class="graph" transform="scale(1 1) rotate(0) translate(4 416)">
<title>error.h</title>
<polygon fill="white" stroke="none" points="-4,4 -4,-416 2179.5,-416 2179.5,4 -4,4"/>
<!-- Node1 -->
<g id="node1" class="node"><title>Node1</title>
<polygon fill="#bfbfbf" stroke="black" points="1447,-392.5 1447,-411.5 1491,-411.5 1491,-392.5 1447,-392.5"/>
<text text-anchor="middle" x="1469" y="-399.5" font-family="Helvetica,sans-Serif" font-size="10.00">error.h</text>
</g>
<!-- Node2 -->
<g id="node2" class="node"><title>Node2</title>
<g id="a_node2"><a xlink:href="event_8h.xhtml" target="_top" xlink:title="Contains event classes for fault trees. ">
<polygon fill="white" stroke="black" points="491.5,-336.5 491.5,-355.5 540.5,-355.5 540.5,-336.5 491.5,-336.5"/>
<text text-anchor="middle" x="516" y="-343.5" font-family="Helvetica,sans-Serif" font-size="10.00">event.h</text>
</a>
</g>
</g>
<!-- Node1&#45;&gt;Node2 -->
<g id="edge1" class="edge"><title>Node1&#45;&gt;Node2</title>
<path fill="none" stroke="midnightblue" d="M1436.56,-399.162C1287.71,-390.728 671.715,-355.823 540.608,-348.394"/>
<polygon fill="midnightblue" stroke="midnightblue" points="1436.66,-402.673 1446.85,-399.745 1437.06,-395.684 1436.66,-402.673"/>
</g>
<!-- Node8 -->
<g id="node8" class="node"><title>Node8</title>
<g id="a_node8"><a xlink:href="fault__tree_8cc.xhtml" target="_top" xlink:title="Implementation of fault tree and component containers. ">
<polygon fill="white" stroke="black" points="66.5,-168.5 66.5,-187.5 137.5,-187.5 137.5,-168.5 66.5,-168.5"/>
<text text-anchor="middle" x="102" y="-175.5" font-family="Helvetica,sans-Serif" font-size="10.00">fault_tree.cc</text>
</a>
</g>
</g>
<!-- Node1&#45;&gt;Node8 -->
<g id="edge44" class="edge"><title>Node1&#45;&gt;Node8</title>
<path fill="none" stroke="midnightblue" d="M1436.35,-400.819C1311.91,-399.853 855.567,-393.781 482,-356 322.645,-339.884 241.486,-410.981 126,-300 94.1901,-269.431 98.0337,-209.709 100.749,-187.546"/>
<polygon fill="midnightblue" stroke="midnightblue" points="1436.67,-404.321 1446.7,-400.893 1436.72,-397.322 1436.67,-404.321"/>
</g>
<!-- Node10 -->
<g id="node10" class="node"><title>Node10</title>
<g id="a_node10"><a xlink:href="initializer_8cc.xhtml" target="_top" xlink:title="Implementation of input file processing into analysis constructs. ">
<polygon fill="white" stroke="black" points="1161,-56.5 1161,-75.5 1229,-75.5 1229,-56.5 1161,-56.5"/>
<text text-anchor="middle" x="1195" y="-63.5" font-family="Helvetica,sans-Serif" font-size="10.00">initializer.cc</text>
</a>
</g>
</g>
<!-- Node1&#45;&gt;Node10 -->
<g id="edge45" class="edge"><title>Node1&#45;&gt;Node10</title>
<path fill="none" stroke="midnightblue" d="M1436.97,-397.002C1408.1,-391.91 1365.99,-380.603 1338,-356 1243.82,-273.213 1204.97,-114.038 1196.73,-75.5373"/>
<polygon fill="midnightblue" stroke="midnightblue" points="1436.53,-400.476 1446.96,-398.61 1437.65,-393.565 1436.53,-400.476"/>
</g>
<!-- Node11 -->
<g id="node11" class="node"><title>Node11</title>
<g id="a_node11"><a xlink:href="scram_8cc.xhtml" target="_top" xlink:title="Main entrance. ">
<polygon fill="white" stroke="black" points="248.5,-0.5 248.5,-19.5 305.5,-19.5 305.5,-0.5 248.5,-0.5"/>
<text text-anchor="middle" x="277" y="-7.5" font-family="Helvetica,sans-Serif" font-size="10.00">scram.cc</text>
</a>
</g>
</g>
<!-- Node1&#45;&gt;Node11 -->
<g id="edge54" class="edge"><title>Node1&#45;&gt;Node11</title>
<path fill="none" stroke="midnightblue" d="M1436.78,-400.515C1248.87,-397.601 298.385,-381.683 171,-356 91.2984,-339.931 0,-372.305 0,-291 0,-291 0,-291 0,-121 0,-67.963 177.626,-29.3305 248.399,-16.0428"/>
<polygon fill="midnightblue" stroke="midnightblue" points="1436.8,-404.015 1446.85,-400.67 1436.91,-397.016 1436.8,-404.015"/>
</g>
<!-- Node15 -->
<g id="node15" class="node"><title>Node15</title>
<g id="a_node15"><a xlink:href="reporter_8cc.xhtml" target="_top" xlink:title="Implements Reporter class. ">
<polygon fill="white" stroke="black" points="512.5,-0.5 512.5,-19.5 575.5,-19.5 575.5,-0.5 512.5,-0.5"/>
<text text-anchor="middle" x="544" y="-7.5" font-family="Helvetica,sans-Serif" font-size="10.00">reporter.cc</text>
</a>
</g>
</g>
<!-- Node1&#45;&gt;Node15 -->
<g id="edge53" class="edge"><title>Node1&#45;&gt;Node15</title>
<path fill="none" stroke="midnightblue" d="M1437.17,-389.518C1420.97,-382.198 1402.18,-371.196 1390,-356 1371.09,-332.417 1370,-321.225 1370,-291 1370,-291 1370,-291 1370,-121 1370,-55.6062 1301.18,-72.8847 1238,-56 1110.42,-21.9024 694.143,-13.22 575.701,-11.4152"/>
<polygon fill="midnightblue" stroke="midnightblue" points="1436.27,-392.935 1446.84,-393.605 1438.99,-386.488 1436.27,-392.935"/>
</g>
<!-- Node24 -->
<g id="node24" class="node"><title>Node24</title>
<g id="a_node24"><a xlink:href="element_8cc.xhtml" target="_top" xlink:title="Implementation of helper features for all elements of the analysis. ">
<polygon fill="white" stroke="black" points="1398.5,-336.5 1398.5,-355.5 1463.5,-355.5 1463.5,-336.5 1398.5,-336.5"/>
<text text-anchor="middle" x="1431" y="-343.5" font-family="Helvetica,sans-Serif" font-size="10.00">element.cc</text>
</a>
</g>
</g>
<!-- Node1&#45;&gt;Node24 -->
<g id="edge38" class="edge"><title>Node1&#45;&gt;Node24</title>
<path fill="none" stroke="midnightblue" d="M1456.94,-383.855C1450.36,-374.505 1442.49,-363.327 1437.16,-355.751"/>
<polygon fill="midnightblue" stroke="midnightblue" points="1454.11,-385.919 1462.73,-392.083 1459.83,-381.891 1454.11,-385.919"/>
</g>
<!-- Node25 -->
<g id="node25" class="node"><title>Node25</title>
<g id="a_node25"><a xlink:href="error_8cc.xhtml" target="_top" xlink:title="Implementation of the exceptions for use in SCRAM. ">
<polygon fill="white" stroke="black" points="1482,-336.5 1482,-355.5 1532,-355.5 1532,-336.5 1482,-336.5"/>
<text text-anchor="middle" x="1507" y="-343.5" font-family="Helvetica,sans-Serif" font-size="10.00">error.cc</text>
</a>
</g>
</g>
<!-- Node1&#45;&gt;Node25 -->
<g id="edge39" class="edge"><title>Node1&#45;&gt;Node25</title>
<path fill="none" stroke="midnightblue" d="M1481.06,-383.855C1487.64,-374.505 1495.51,-363.327 1500.84,-355.751"/>
<polygon fill="midnightblue" stroke="midnightblue" points="1478.17,-381.891 1475.27,-392.083 1483.89,-385.919 1478.17,-381.891"/>
</g>
<!-- Node26 -->
<g id="node26" class="node"><title>Node26</title>
<g id="a_node26"><a xlink:href="arithmetic_8cc.xhtml" target="_top" xlink:title="Implementation of various arithmetic expressions. ">
<polygon fill="white" stroke="black" points="1550.5,-336.5 1550.5,-355.5 1623.5,-355.5 1623.5,-336.5 1550.5,-336.5"/>
<text text-anchor="middle" x="1587" y="-343.5" font-family="Helvetica,sans-Serif" font-size="10.00">arithmetic.cc</text>
</a>
</g>
</g>
<!-- Node1&#45;&gt;Node26 -->
<g id="edge40" class="edge"><title>Node1&#45;&gt;Node26</title>
<path fill="none" stroke="midnightblue" d="M1496.9,-388.232C1518.97,-378.131 1549.18,-364.309 1568.39,-355.516"/>
<polygon fill="midnightblue" stroke="midnightblue" points="1495.33,-385.1 1487.7,-392.444 1498.25,-391.465 1495.33,-385.1"/>
</g>
<!-- Node27 -->
<g id="node27" class="node"><title>Node27</title>
<g id="a_node27"><a xlink:href="constant_8cc.xhtml" target="_top" xlink:title="Implementation of various constant expressions. ">
<polygon fill="white" stroke="black" points="1642,-336.5 1642,-355.5 1710,-355.5 1710,-336.5 1642,-336.5"/>
<text text-anchor="middle" x="1676" y="-343.5" font-family="Helvetica,sans-Serif" font-size="10.00">constant.cc</text>
</a>
</g>
</g>
<!-- Node1&#45;&gt;Node27 -->
<g id="edge41" class="edge"><title>Node1&#45;&gt;Node27</title>
<path fill="none" stroke="midnightblue" d="M1500.84,-392.695C1539.42,-382.628 1604.12,-365.751 1643.16,-355.568"/>
<polygon fill="midnightblue" stroke="midnightblue" points="1499.95,-389.31 1491.15,-395.221 1501.71,-396.083 1499.95,-389.31"/>
</g>
<!-- Node28 -->
<g id="node28" class="node"><title>Node28</title>
<g id="a_node28"><a xlink:href="exponential_8cc.xhtml" target="_top" xlink:title="Implementation of various exponential expressions. ">
<polygon fill="white" stroke="black" points="1728,-336.5 1728,-355.5 1808,-355.5 1808,-336.5 1728,-336.5"/>
<text text-anchor="middle" x="1768" y="-343.5" font-family="Helvetica,sans-Serif" font-size="10.00">exponential.cc</text>
</a>
</g>
</g>
<!-- Node1&#45;&gt;Node28 -->
<g id="edge42" class="edge"><title>Node1&#45;&gt;Node28</title>
<path fill="none" stroke="midnightblue" d="M1501.08,-395.263C1548.67,-386.745 1640.74,-370.23 1719,-356 1721.89,-355.474 1724.88,-354.929 1727.89,-354.379"/>
<polygon fill="midnightblue" stroke="midnightblue" points="1500.3,-391.846 1491.08,-397.053 1501.54,-398.737 1500.3,-391.846"/>
</g>
<!-- Node29 -->
<g id="node29" class="node"><title>Node29</title>
<g id="a_node29"><a xlink:href="random__deviate_8cc.xhtml" target="_top" xlink:title="Implementations of random deviate expressions. ">
<polygon fill="white" stroke="black" points="1826.5,-336.5 1826.5,-355.5 1925.5,-355.5 1925.5,-336.5 1826.5,-336.5"/>
<text text-anchor="middle" x="1876" y="-343.5" font-family="Helvetica,sans-Serif" font-size="10.00">random_deviate.cc</text>
</a>
</g>
</g>
<!-- Node1&#45;&gt;Node29 -->
<g id="edge43" class="edge"><title>Node1&#45;&gt;Node29</title>
<path fill="none" stroke="midnightblue" d="M1501.23,-397.081C1562.7,-389.552 1700.91,-372.358 1817,-356 1820.08,-355.566 1823.24,-355.111 1826.44,-354.644"/>
<polygon fill="midnightblue" stroke="midnightblue" points="1500.51,-393.643 1491.01,-398.331 1501.36,-400.591 1500.51,-393.643"/>
</g>
<!-- Node30 -->
<g id="node30" class="node"><title>Node30</title>
<g id="a_node30"><a xlink:href="xml_8h.xhtml" target="_top" xlink:title="XML helper facilities to work with libxml++. ">
<polygon fill="white" stroke="black" points="1300.5,-168.5 1300.5,-187.5 1341.5,-187.5 1341.5,-168.5 1300.5,-168.5"/>
<text text-anchor="middle" x="1321" y="-175.5" font-family="Helvetica,sans-Serif" font-size="10.00">xml.h</text>
</a>
</g>
</g>
<!-- Node1&#45;&gt;Node30 -->
<g id="edge46" class="edge"><title>Node1&#45;&gt;Node30</title>
<path fill="none" stroke="midnightblue" d="M1436.58,-396.619C1410.87,-391.4 1376.05,-380.12 1356,-356 1313.15,-304.451 1317.48,-215.399 1320.06,-187.567"/>
<polygon fill="midnightblue" stroke="midnightblue" points="1436.16,-400.1 1446.62,-398.449 1437.41,-393.213 1436.16,-400.1"/>
</g>
<!-- Node31 -->
<g id="node31" class="node"><title>Node31</title>
<g id="a_node31"><a xlink:href="logger_8cc.xhtml" target="_top" xlink:title="Initializing static members of Logger class. ">
<polygon fill="white" stroke="black" points="1944,-336.5 1944,-355.5 2000,-355.5 2000,-336.5 1944,-336.5"/>
<text text-anchor="middle" x="1972" y="-343.5" font-family="Helvetica,sans-Serif" font-size="10.00">logger.cc</text>
</a>
</g>
</g>
<!-- Node1&#45;&gt;Node31 -->
<g id="edge48" class="edge"><title>Node1&#45;&gt;Node31</title>
<path fill="none" stroke="midnightblue" d="M1501.86,-399.438C1578.3,-395.454 1773.83,-383.242 1935,-356 1937.87,-355.515 1940.84,-354.931 1943.8,-354.296"/>
<polygon fill="midnightblue" stroke="midnightblue" points="1501.27,-395.963 1491.46,-399.967 1501.62,-402.954 1501.27,-395.963"/>
</g>
<!-- Node32 -->
<g id="node32" class="node"><title>Node32</title>
<g id="a_node32"><a xlink:href="parameter_8cc.xhtml" target="_top" xlink:title="Implementation of expression parameters. ">
<polygon fill="white" stroke="black" points="2018,-336.5 2018,-355.5 2092,-355.5 2092,-336.5 2018,-336.5"/>
<text text-anchor="middle" x="2055" y="-343.5" font-family="Helvetica,sans-Serif" font-size="10.00">parameter.cc</text>
</a>
</g>
</g>
<!-- Node1&#45;&gt;Node32 -->
<g id="edge49" class="edge"><title>Node1&#45;&gt;Node32</title>
<path fill="none" stroke="midnightblue" d="M1501.41,-399.546C1585.5,-395.502 1817.53,-382.627 2009,-356 2011.9,-355.596 2014.9,-355.129 2017.9,-354.622"/>
<polygon fill="midnightblue" stroke="midnightblue" points="1501.04,-396.059 1491.21,-400.027 1501.37,-403.051 1501.04,-396.059"/>
</g>
<!-- Node33 -->
<g id="node33" class="node"><title>Node33</title>
<g id="a_node33"><a xlink:href="xml__stream_8h.xhtml" target="_top" xlink:title="Facilities to stream data in XML format. ">
<polygon fill="white" stroke="black" points="1187,-336.5 1187,-355.5 1263,-355.5 1263,-336.5 1187,-336.5"/>
<text text-anchor="middle" x="1225" y="-343.5" font-family="Helvetica,sans-Serif" font-size="10.00">xml_stream.h</text>
</a>
</g>
</g>
<!-- Node1&#45;&gt;Node33 -->
<g id="edge50" class="edge"><title>Node1&#45;&gt;Node33</title>
<path fill="none" stroke="midnightblue" d="M1436.87,-393.889C1392.04,-383.968 1310.86,-366.001 1263.05,-355.422"/>
<polygon fill="midnightblue" stroke="midnightblue" points="1436.4,-397.369 1446.92,-396.113 1437.91,-390.534 1436.4,-397.369"/>
</g>
<!-- Node35 -->
<g id="node35" class="node"><title>Node35</title>
<g id="a_node35"><a xlink:href="settings_8cc.xhtml" target="_top" xlink:title="Implementation of Settings Builder. ">
<polygon fill="white" stroke="black" points="2110.5,-336.5 2110.5,-355.5 2175.5,-355.5 2175.5,-336.5 2110.5,-336.5"/>
<text text-anchor="middle" x="2143" y="-343.5" font-family="Helvetica,sans-Serif" font-size="10.00">settings.cc</text>
</a>
</g>
</g>
<!-- Node1&#45;&gt;Node35 -->
<g id="edge55" class="edge"><title>Node1&#45;&gt;Node35</title>
<path fill="none" stroke="midnightblue" d="M1501.45,-400.291C1594.97,-397.906 1872.89,-388.399 2101,-356 2103.95,-355.581 2107.01,-355.072 2110.06,-354.514"/>
<polygon fill="midnightblue" stroke="midnightblue" points="1501.14,-396.798 1491.23,-400.542 1501.31,-403.796 1501.14,-396.798"/>
</g>
<!-- Node3 -->
<g id="node3" class="node"><title>Node3</title>
<g id="a_node3"><a xlink:href="boolean__graph_8cc.xhtml" target="_top" xlink:title="Implementation of indexed nodes, variables, gates, and the Boolean graph. ">
<polygon fill="white" stroke="black" points="352.5,-280.5 352.5,-299.5 445.5,-299.5 445.5,-280.5 352.5,-280.5"/>
<text text-anchor="middle" x="399" y="-287.5" font-family="Helvetica,sans-Serif" font-size="10.00">boolean_graph.cc</text>
</a>
</g>
</g>
<!-- Node2&#45;&gt;Node3 -->
<g id="edge2" class="edge"><title>Node2&#45;&gt;Node3</title>
<path fill="none" stroke="midnightblue" d="M488.336,-332.232C466.451,-322.131 436.503,-308.309 417.452,-299.516"/>
<polygon fill="midnightblue" stroke="midnightblue" points="486.915,-335.431 497.461,-336.444 489.848,-329.075 486.915,-335.431"/>
</g>
<!-- Node4 -->
<g id="node4" class="node"><title>Node4</title>
<g id="a_node4"><a xlink:href="ccf__group_8h.xhtml" target="_top" xlink:title="Functional containers for basic events grouped by common cause failure. ">
<polygon fill="white" stroke="black" points="266,-280.5 266,-299.5 334,-299.5 334,-280.5 266,-280.5"/>
<text text-anchor="middle" x="300" y="-287.5" font-family="Helvetica,sans-Serif" font-size="10.00">ccf_group.h</text>
</a>
</g>
</g>
<!-- Node2&#45;&gt;Node4 -->
<g id="edge3" class="edge"><title>Node2&#45;&gt;Node4</title>
<path fill="none" stroke="midnightblue" d="M481.271,-336.318C440.768,-326.192 374.25,-309.562 334.043,-299.511"/>
<polygon fill="midnightblue" stroke="midnightblue" points="480.672,-339.776 491.222,-338.806 482.37,-332.985 480.672,-339.776"/>
</g>
<!-- Node6 -->
<g id="node6" class="node"><title>Node6</title>
<g id="a_node6"><a xlink:href="event_8cc.xhtml" target="_top" xlink:title="Implementation of Event Class and its derived classes. ">
<polygon fill="white" stroke="black" points="711,-224.5 711,-243.5 765,-243.5 765,-224.5 711,-224.5"/>
<text text-anchor="middle" x="738" y="-231.5" font-family="Helvetica,sans-Serif" font-size="10.00">event.cc</text>
</a>
</g>
</g>
<!-- Node2&#45;&gt;Node6 -->
<g id="edge28" class="edge"><title>Node2&#45;&gt;Node6</title>
<path fill="none" stroke="midnightblue" d="M550.662,-343.463C639.924,-339.152 872.298,-325.557 895,-300 933.596,-256.551 819.818,-241.481 765.324,-236.843"/>
<polygon fill="midnightblue" stroke="midnightblue" points="550.333,-339.975 540.509,-343.943 550.664,-346.967 550.333,-339.975"/>
</g>
<!-- Node7 -->
<g id="node7" class="node"><title>Node7</title>
<g id="a_node7"><a xlink:href="fault__tree_8h.xhtml" target="_top" xlink:title="Fault Tree and Component containers. ">
<polygon fill="white" stroke="black" points="168.5,-224.5 168.5,-243.5 233.5,-243.5 233.5,-224.5 168.5,-224.5"/>
<text text-anchor="middle" x="201" y="-231.5" font-family="Helvetica,sans-Serif" font-size="10.00">fault_tree.h</text>
</a>
</g>
</g>
<!-- Node2&#45;&gt;Node7 -->
<g id="edge29" class="edge"><title>Node2&#45;&gt;Node7</title>
<path fill="none" stroke="midnightblue" d="M480.792,-343.989C411.875,-341.32 262.526,-331.914 224,-300 206.854,-285.797 202.482,-257.919 201.373,-243.736"/>
<polygon fill="midnightblue" stroke="midnightblue" points="481.013,-347.5 491.133,-344.362 481.265,-340.504 481.013,-347.5"/>
</g>
<!-- Node9 -->
<g id="node9" class="node"><title>Node9</title>
<g id="a_node9"><a xlink:href="initializer_8h.xhtml" target="_top" xlink:title="A facility that processes input files into analysis constructs. ">
<polygon fill="white" stroke="black" points="395.5,-112.5 395.5,-131.5 458.5,-131.5 458.5,-112.5 395.5,-112.5"/>
<text text-anchor="middle" x="427" y="-119.5" font-family="Helvetica,sans-Serif" font-size="10.00">initializer.h</text>
</a>
</g>
</g>
<!-- Node2&#45;&gt;Node9 -->
<g id="edge32" class="edge"><title>Node2&#45;&gt;Node9</title>
<path fill="none" stroke="midnightblue" d="M506.278,-327.234C501.969,-319.054 496.984,-309.151 493,-300 468.08,-242.764 467.262,-226.321 445,-168 440.139,-155.265 434.222,-140.627 430.532,-131.595"/>
<polygon fill="midnightblue" stroke="midnightblue" points="503.273,-329.037 511.087,-336.192 509.44,-325.726 503.273,-329.037"/>
</g>
<!-- Node12 -->
<g id="node12" class="node"><title>Node12</title>
<g id="a_node12"><a xlink:href="model_8h.xhtml" target="_top" xlink:title="Representation for a model container for risk analysis. ">
<polygon fill="white" stroke="black" points="274.5,-168.5 274.5,-187.5 325.5,-187.5 325.5,-168.5 274.5,-168.5"/>
<text text-anchor="middle" x="300" y="-175.5" font-family="Helvetica,sans-Serif" font-size="10.00">model.h</text>
</a>
</g>
</g>
<!-- Node2&#45;&gt;Node12 -->
<g id="edge33" class="edge"><title>Node2&#45;&gt;Node12</title>
<path fill="none" stroke="midnightblue" d="M481.114,-344.265C417.194,-342.103 285.248,-333.579 257,-300 227.723,-265.197 272.411,-209.025 291.774,-187.641"/>
<polygon fill="midnightblue" stroke="midnightblue" points="481.025,-347.764 491.127,-344.57 481.239,-340.767 481.025,-347.764"/>
</g>
<!-- Node14 -->
<g id="node14" class="node"><title>Node14</title>
<g id="a_node14"><a xlink:href="reporter_8h.xhtml" target="_top" xlink:title="Reporter of results. ">
<polygon fill="white" stroke="black" points="288,-56.5 288,-75.5 346,-75.5 346,-56.5 288,-56.5"/>
<text text-anchor="middle" x="317" y="-63.5" font-family="Helvetica,sans-Serif" font-size="10.00">reporter.h</text>
</a>
</g>
</g>
<!-- Node2&#45;&gt;Node14 -->
<g id="edge35" class="edge"><title>Node2&#45;&gt;Node14</title>
<path fill="none" stroke="midnightblue" d="M481.154,-342.996C410.61,-338.446 253.636,-325.683 207,-300 178.286,-284.187 170.373,-274.744 159,-244 133.26,-174.419 216.93,-160.376 267,-112 280.438,-99.0165 296.61,-84.6843 306.849,-75.7609"/>
<polygon fill="midnightblue" stroke="midnightblue" points="481.109,-346.499 491.309,-343.632 481.547,-339.513 481.109,-346.499"/>
</g>
<!-- Node16 -->
<g id="node16" class="node"><title>Node16</title>
<g id="a_node16"><a xlink:href="risk__analysis_8h.xhtml" target="_top" xlink:title="Contains the main system for performing analysis. ">
<polygon fill="white" stroke="black" points="138,-112.5 138,-131.5 220,-131.5 220,-112.5 138,-112.5"/>
<text text-anchor="middle" x="179" y="-119.5" font-family="Helvetica,sans-Serif" font-size="10.00">risk_analysis.h</text>
</a>
</g>
</g>
<!-- Node2&#45;&gt;Node16 -->
<g id="edge36" class="edge"><title>Node2&#45;&gt;Node16</title>
<path fill="none" stroke="midnightblue" d="M481.256,-344.801C397.031,-343.725 184.589,-337.286 126,-300 70.1521,-264.458 19.147,-222.308 57,-168 75.137,-141.979 110.114,-130.965 137.983,-126.324"/>
<polygon fill="midnightblue" stroke="midnightblue" points="481.299,-348.302 491.337,-344.912 481.376,-341.302 481.299,-348.302"/>
</g>
<!-- Node18 -->
<g id="node18" class="node"><title>Node18</title>
<g id="a_node18"><a xlink:href="cycle_8h.xhtml" target="_top" xlink:title="Validation facilities to detect and print cycles in graphs. ">
<polygon fill="white" stroke="black" points="1080,-280.5 1080,-299.5 1128,-299.5 1128,-280.5 1080,-280.5"/>
<text text-anchor="middle" x="1104" y="-287.5" font-family="Helvetica,sans-Serif" font-size="10.00">cycle.h</text>
</a>
</g>
</g>
<!-- Node2&#45;&gt;Node18 -->
<g id="edge25" class="edge"><title>Node2&#45;&gt;Node18</title>
<path fill="none" stroke="midnightblue" d="M550.741,-344.414C638.561,-342.451 876.307,-334.138 1071,-300 1073.92,-299.487 1076.97,-298.831 1079.97,-298.108"/>
<polygon fill="midnightblue" stroke="midnightblue" points="550.473,-340.918 540.549,-344.628 550.62,-347.917 550.473,-340.918"/>
</g>
<!-- Node20 -->
<g id="node20" class="node"><title>Node20</title>
<g id="a_node20"><a xlink:href="fault__tree__analysis_8cc.xhtml" target="_top" xlink:title="Implementation of fault tree analysis. ">
<polygon fill="white" stroke="black" points="502,-280.5 502,-299.5 614,-299.5 614,-280.5 502,-280.5"/>
<text text-anchor="middle" x="558" y="-287.5" font-family="Helvetica,sans-Serif" font-size="10.00">fault_tree_analysis.cc</text>
</a>
</g>
</g>
<!-- Node2&#45;&gt;Node20 -->
<g id="edge30" class="edge"><title>Node2&#45;&gt;Node20</title>
<path fill="none" stroke="midnightblue" d="M529.11,-328.144C536.428,-318.736 545.241,-307.405 551.194,-299.751"/>
<polygon fill="midnightblue" stroke="midnightblue" points="526.312,-326.041 522.935,-336.083 531.838,-330.338 526.312,-326.041"/>
</g>
<!-- Node21 -->
<g id="node21" class="node"><title>Node21</title>
<g id="a_node21"><a xlink:href="importance__analysis_8cc.xhtml" target="_top" xlink:title="Implementations of functions to provide quantitative importance informations. ">
<polygon fill="white" stroke="black" points="632.5,-280.5 632.5,-299.5 751.5,-299.5 751.5,-280.5 632.5,-280.5"/>
<text text-anchor="middle" x="692" y="-287.5" font-family="Helvetica,sans-Serif" font-size="10.00">importance_analysis.cc</text>
</a>
</g>
</g>
<!-- Node2&#45;&gt;Node21 -->
<g id="edge31" class="edge"><title>Node2&#45;&gt;Node21</title>
<path fill="none" stroke="midnightblue" d="M550.586,-334.388C583.792,-324.2 633.32,-309.004 664.089,-299.564"/>
<polygon fill="midnightblue" stroke="midnightblue" points="549.377,-331.098 540.843,-337.378 551.43,-337.79 549.377,-331.098"/>
</g>
<!-- Node22 -->
<g id="node22" class="node"><title>Node22</title>
<g id="a_node22"><a xlink:href="probability__analysis_8cc.xhtml" target="_top" xlink:title="Implementations of functions to provide probability analysis. ">
<polygon fill="white" stroke="black" points="770,-280.5 770,-299.5 886,-299.5 886,-280.5 770,-280.5"/>
<text text-anchor="middle" x="828" y="-287.5" font-family="Helvetica,sans-Serif" font-size="10.00">probability_analysis.cc</text>
</a>
</g>
</g>
<!-- Node2&#45;&gt;Node22 -->
<g id="edge34" class="edge"><title>Node2&#45;&gt;Node22</title>
<path fill="none" stroke="midnightblue" d="M550.794,-338.978C606.358,-329.361 715.314,-310.503 778.823,-299.511"/>
<polygon fill="midnightblue" stroke="midnightblue" points="549.999,-335.563 540.743,-340.718 551.193,-342.461 549.999,-335.563"/>
</g>
<!-- Node23 -->
<g id="node23" class="node"><title>Node23</title>
<g id="a_node23"><a xlink:href="uncertainty__analysis_8cc.xhtml" target="_top" xlink:title="Implements the functionality to run Monte Carlo simulations. ">
<polygon fill="white" stroke="black" points="942.5,-280.5 942.5,-299.5 1061.5,-299.5 1061.5,-280.5 942.5,-280.5"/>
<text text-anchor="middle" x="1002" y="-287.5" font-family="Helvetica,sans-Serif" font-size="10.00">uncertainty_analysis.cc</text>
</a>
</g>
</g>
<!-- Node2&#45;&gt;Node23 -->
<g id="edge37" class="edge"><title>Node2&#45;&gt;Node23</title>
<path fill="none" stroke="midnightblue" d="M550.779,-341.347C621.733,-333.861 788.284,-316.126 928,-300 932.628,-299.466 937.418,-298.904 942.233,-298.333"/>
<polygon fill="midnightblue" stroke="midnightblue" points="550.202,-337.888 540.624,-342.417 550.936,-344.849 550.202,-337.888"/>
</g>
<!-- Node5 -->
<g id="node5" class="node"><title>Node5</title>
<g id="a_node5"><a xlink:href="ccf__group_8cc.xhtml" target="_top" xlink:title="Implementation of various common cause failure models. ">
<polygon fill="white" stroke="black" points="328.5,-224.5 328.5,-243.5 401.5,-243.5 401.5,-224.5 328.5,-224.5"/>
<text text-anchor="middle" x="365" y="-231.5" font-family="Helvetica,sans-Serif" font-size="10.00">ccf_group.cc</text>
</a>
</g>
</g>
<!-- Node4&#45;&gt;Node5 -->
<g id="edge4" class="edge"><title>Node4&#45;&gt;Node5</title>
<path fill="none" stroke="midnightblue" d="M318.273,-273.82C329.918,-264.145 344.599,-251.948 354.367,-243.834"/>
<polygon fill="midnightblue" stroke="midnightblue" points="315.899,-271.242 310.443,-280.324 320.372,-276.626 315.899,-271.242"/>
</g>
<!-- Node4&#45;&gt;Node6 -->
<g id="edge5" class="edge"><title>Node4&#45;&gt;Node6</title>
<path fill="none" stroke="midnightblue" d="M344.517,-279.889C488.021,-257.154 647.689,-242.566 710.584,-237.24"/>
<polygon fill="midnightblue" stroke="midnightblue" points="343.534,-276.502 334.214,-281.54 344.642,-283.413 343.534,-276.502"/>
</g>
<!-- Node4&#45;&gt;Node7 -->
<g id="edge6" class="edge"><title>Node4&#45;&gt;Node7</title>
<path fill="none" stroke="midnightblue" d="M275.163,-275.453C256.886,-265.483 232.584,-252.228 216.867,-243.655"/>
<polygon fill="midnightblue" stroke="midnightblue" points="273.639,-278.608 284.094,-280.324 276.991,-272.463 273.639,-278.608"/>
</g>
<!-- Node4&#45;&gt;Node9 -->
<g id="edge22" class="edge"><title>Node4&#45;&gt;Node9</title>
<path fill="none" stroke="midnightblue" d="M339.856,-277.317C367.499,-268.391 400.918,-255.677 410,-244 436.568,-209.84 431.588,-153.286 428.469,-131.721"/>
<polygon fill="midnightblue" stroke="midnightblue" points="338.475,-274.082 329.989,-280.425 340.578,-280.759 338.475,-274.082"/>
</g>
<!-- Node4&#45;&gt;Node12 -->
<g id="edge23" class="edge"><title>Node4&#45;&gt;Node12</title>
<path fill="none" stroke="midnightblue" d="M300,-270.348C300,-246.254 300,-205.308 300,-187.591"/>
<polygon fill="midnightblue" stroke="midnightblue" points="296.5,-270.368 300,-280.368 303.5,-270.369 296.5,-270.368"/>
</g>
<!-- Node4&#45;&gt;Node15 -->
<g id="edge24" class="edge"><title>Node4&#45;&gt;Node15</title>
<path fill="none" stroke="midnightblue" d="M343.609,-277.766C376.046,-268.712 416.872,-255.62 430,-244 504.189,-178.337 535.058,-53.4559 542.272,-19.6316"/>
<polygon fill="midnightblue" stroke="midnightblue" points="342.57,-274.421 333.851,-280.44 344.421,-281.172 342.57,-274.421"/>
</g>
<!-- Node7&#45;&gt;Node8 -->
<g id="edge7" class="edge"><title>Node7&#45;&gt;Node8</title>
<path fill="none" stroke="midnightblue" d="M176.163,-219.453C157.886,-209.483 133.584,-196.228 117.867,-187.655"/>
<polygon fill="midnightblue" stroke="midnightblue" points="174.639,-222.608 185.094,-224.324 177.991,-216.463 174.639,-222.608"/>
</g>
<!-- Node7&#45;&gt;Node9 -->
<g id="edge8" class="edge"><title>Node7&#45;&gt;Node9</title>
<path fill="none" stroke="midnightblue" d="M243.564,-221.95C270.295,-214.205 305.066,-202.629 334,-188 366.346,-171.645 400.238,-145.221 416.744,-131.652"/>
<polygon fill="midnightblue" stroke="midnightblue" points="242.41,-218.639 233.741,-224.73 244.316,-225.375 242.41,-218.639"/>
</g>
<!-- Node7&#45;&gt;Node12 -->
<g id="edge11" class="edge"><title>Node7&#45;&gt;Node12</title>
<path fill="none" stroke="midnightblue" d="M225.837,-219.453C244.114,-209.483 268.416,-196.228 284.133,-187.655"/>
<polygon fill="midnightblue" stroke="midnightblue" points="224.009,-216.463 216.906,-224.324 227.361,-222.608 224.009,-216.463"/>
</g>
<!-- Node17 -->
<g id="node17" class="node"><title>Node17</title>
<g id="a_node17"><a xlink:href="risk__analysis_8cc.xhtml" target="_top" xlink:title="Implementation of risk analysis handler. ">
<polygon fill="white" stroke="black" points="100.5,-56.5 100.5,-75.5 187.5,-75.5 187.5,-56.5 100.5,-56.5"/>
<text text-anchor="middle" x="144" y="-63.5" font-family="Helvetica,sans-Serif" font-size="10.00">risk_analysis.cc</text>
</a>
</g>
</g>
<!-- Node7&#45;&gt;Node17 -->
<g id="edge21" class="edge"><title>Node7&#45;&gt;Node17</title>
<path fill="none" stroke="midnightblue" d="M184.72,-217.078C167.057,-198.554 139.918,-166.124 129,-132 122.647,-112.145 132.644,-88.0762 139.139,-75.5351"/>
<polygon fill="midnightblue" stroke="midnightblue" points="182.353,-219.664 191.856,-224.349 187.349,-214.76 182.353,-219.664"/>
</g>
<!-- Node9&#45;&gt;Node10 -->
<g id="edge9" class="edge"><title>Node9&#45;&gt;Node10</title>
<path fill="none" stroke="midnightblue" d="M468.566,-118.077C604.681,-108.507 1035.47,-78.2171 1160.6,-69.4185"/>
<polygon fill="midnightblue" stroke="midnightblue" points="468.268,-114.59 458.538,-118.782 468.759,-121.572 468.268,-114.59"/>
</g>
<!-- Node9&#45;&gt;Node11 -->
<g id="edge10" class="edge"><title>Node9&#45;&gt;Node11</title>
<path fill="none" stroke="midnightblue" d="M411.295,-105.026C397.242,-91.1851 375.72,-71.0698 355,-56 335.15,-41.5631 310.31,-27.9088 294.067,-19.5072"/>
<polygon fill="midnightblue" stroke="midnightblue" points="409.094,-107.775 418.643,-112.365 414.041,-102.822 409.094,-107.775"/>
</g>
<!-- Node12&#45;&gt;Node9 -->
<g id="edge12" class="edge"><title>Node12&#45;&gt;Node9</title>
<path fill="none" stroke="midnightblue" d="M329.391,-164.503C353.2,-154.38 386.106,-140.388 406.971,-131.516"/>
<polygon fill="midnightblue" stroke="midnightblue" points="327.957,-161.31 320.124,-168.444 330.696,-167.751 327.957,-161.31"/>
</g>
<!-- Node13 -->
<g id="node13" class="node"><title>Node13</title>
<g id="a_node13"><a xlink:href="model_8cc.xhtml" target="_top" xlink:title="Implementation of functions in Model class. ">
<polygon fill="white" stroke="black" points="276,-112.5 276,-131.5 332,-131.5 332,-112.5 276,-112.5"/>
<text text-anchor="middle" x="304" y="-119.5" font-family="Helvetica,sans-Serif" font-size="10.00">model.cc</text>
</a>
</g>
</g>
<!-- Node12&#45;&gt;Node13 -->
<g id="edge13" class="edge"><title>Node12&#45;&gt;Node13</title>
<path fill="none" stroke="midnightblue" d="M301.4,-158.101C302.064,-149.136 302.825,-138.858 303.352,-131.751"/>
<polygon fill="midnightblue" stroke="midnightblue" points="297.909,-157.852 300.661,-168.083 304.89,-158.369 297.909,-157.852"/>
</g>
<!-- Node12&#45;&gt;Node14 -->
<g id="edge14" class="edge"><title>Node12&#45;&gt;Node14</title>
<path fill="none" stroke="midnightblue" d="M319.251,-161.745C327.632,-153.869 336.546,-143.502 341,-132 348.732,-112.033 334.109,-88.4075 324.48,-75.8646"/>
<polygon fill="midnightblue" stroke="midnightblue" points="316.763,-159.271 311.541,-168.49 321.372,-164.54 316.763,-159.271"/>
</g>
<!-- Node12&#45;&gt;Node16 -->
<g id="edge17" class="edge"><title>Node12&#45;&gt;Node16</title>
<path fill="none" stroke="midnightblue" d="M271.694,-164.368C249.035,-154.255 217.874,-140.349 198.083,-131.516"/>
<polygon fill="midnightblue" stroke="midnightblue" points="270.269,-167.564 280.827,-168.444 273.122,-161.172 270.269,-167.564"/>
</g>
<!-- Node14&#45;&gt;Node11 -->
<g id="edge16" class="edge"><title>Node14&#45;&gt;Node11</title>
<path fill="none" stroke="midnightblue" d="M304.3,-47.8554C297.374,-38.5048 289.094,-27.3265 283.482,-19.7511"/>
<polygon fill="midnightblue" stroke="midnightblue" points="301.63,-50.1307 310.395,-56.083 307.255,-45.9641 301.63,-50.1307"/>
</g>
<!-- Node14&#45;&gt;Node15 -->
<g id="edge15" class="edge"><title>Node14&#45;&gt;Node15</title>
<path fill="none" stroke="midnightblue" d="M356.025,-55.7166C400.237,-45.1991 471.442,-28.2606 512.348,-18.5295"/>
<polygon fill="midnightblue" stroke="midnightblue" points="355.13,-52.3317 346.212,-58.051 356.75,-59.1416 355.13,-52.3317"/>
</g>
<!-- Node16&#45;&gt;Node11 -->
<g id="edge20" class="edge"><title>Node16&#45;&gt;Node11</title>
<path fill="none" stroke="midnightblue" d="M193.347,-104.897C214.415,-81.2486 252.991,-37.9493 269.346,-19.5914"/>
<polygon fill="midnightblue" stroke="midnightblue" points="190.729,-102.574 186.69,-112.368 195.955,-107.23 190.729,-102.574"/>
</g>
<!-- Node16&#45;&gt;Node14 -->
<g id="edge18" class="edge"><title>Node16&#45;&gt;Node14</title>
<path fill="none" stroke="midnightblue" d="M210.249,-108.772C236.171,-98.6287 272.362,-84.4669 295.236,-75.5164"/>
<polygon fill="midnightblue" stroke="midnightblue" points="208.904,-105.54 200.867,-112.444 211.454,-112.059 208.904,-105.54"/>
</g>
<!-- Node16&#45;&gt;Node17 -->
<g id="edge19" class="edge"><title>Node16&#45;&gt;Node17</title>
<path fill="none" stroke="midnightblue" d="M167.7,-103.566C161.678,-94.2747 154.531,-83.2484 149.672,-75.7511"/>
<polygon fill="midnightblue" stroke="midnightblue" points="164.844,-105.595 173.22,-112.083 170.719,-101.788 164.844,-105.595"/>
</g>
<!-- Node18&#45;&gt;Node10 -->
<g id="edge27" class="edge"><title>Node18&#45;&gt;Node10</title>
<path fill="none" stroke="midnightblue" d="M1111.43,-270.872C1129.98,-225.627 1177.79,-108.993 1191.36,-75.8837"/>
<polygon fill="midnightblue" stroke="midnightblue" points="1108.12,-269.717 1107.57,-280.297 1114.6,-272.372 1108.12,-269.717"/>
</g>
<!-- Node19 -->
<g id="node19" class="node"><title>Node19</title>
<g id="a_node19"><a xlink:href="cycle_8cc.xhtml" target="_top" xlink:title="Implementation of helper facilities to work with cycles. ">
<polygon fill="white" stroke="black" points="1036.5,-224.5 1036.5,-243.5 1089.5,-243.5 1089.5,-224.5 1036.5,-224.5"/>
<text text-anchor="middle" x="1063" y="-231.5" font-family="Helvetica,sans-Serif" font-size="10.00">cycle.cc</text>
</a>
</g>
</g>
<!-- Node18&#45;&gt;Node19 -->
<g id="edge26" class="edge"><title>Node18&#45;&gt;Node19</title>
<path fill="none" stroke="midnightblue" d="M1090.98,-271.855C1083.88,-262.505 1075.4,-251.327 1069.64,-243.751"/>
<polygon fill="midnightblue" stroke="midnightblue" points="1088.39,-274.235 1097.23,-280.083 1093.97,-270.002 1088.39,-274.235"/>
</g>
<!-- Node30&#45;&gt;Node10 -->
<g id="edge47" class="edge"><title>Node30&#45;&gt;Node10</title>
<path fill="none" stroke="midnightblue" d="M1314.69,-158.693C1309.03,-144.479 1299.52,-125.056 1286,-112 1268.13,-94.7353 1242.34,-82.8375 1222.77,-75.6321"/>
<polygon fill="midnightblue" stroke="midnightblue" points="1311.52,-160.196 1318.28,-168.355 1318.08,-157.762 1311.52,-160.196"/>
</g>
<!-- Node33&#45;&gt;Node14 -->
<g id="edge51" class="edge"><title>Node33&#45;&gt;Node14</title>
<path fill="none" stroke="midnightblue" d="M1207.92,-329.591C1198.44,-320.97 1186.48,-309.979 1176,-300 1141.18,-266.844 1141.46,-246.566 1099,-224 832.742,-82.4944 453.66,-68.1252 346.324,-66.9903"/>
<polygon fill="midnightblue" stroke="midnightblue" points="1205.75,-332.351 1215.51,-336.473 1210.45,-327.164 1205.75,-332.351"/>
</g>
<!-- Node34 -->
<g id="node34" class="node"><title>Node34</title>
<g id="a_node34"><a xlink:href="xml__stream_8cc.xhtml" target="_top" xlink:title="Implementation of facilities to stream for XML data. ">
<polygon fill="white" stroke="black" points="1184.5,-280.5 1184.5,-299.5 1265.5,-299.5 1265.5,-280.5 1184.5,-280.5"/>
<text text-anchor="middle" x="1225" y="-287.5" font-family="Helvetica,sans-Serif" font-size="10.00">xml_stream.cc</text>
</a>
</g>
</g>
<!-- Node33&#45;&gt;Node34 -->
<g id="edge52" class="edge"><title>Node33&#45;&gt;Node34</title>
<path fill="none" stroke="midnightblue" d="M1225,-325.805C1225,-316.91 1225,-306.78 1225,-299.751"/>
<polygon fill="midnightblue" stroke="midnightblue" points="1221.5,-326.083 1225,-336.083 1228.5,-326.083 1221.5,-326.083"/>
</g>
</g>
</svg>
