<?xml version="1.0" encoding="UTF-8" standalone="no"?>
<!DOCTYPE svg PUBLIC "-//W3C//DTD SVG 1.1//EN"
 "http://www.w3.org/Graphics/SVG/1.1/DTD/svg11.dtd">
<!-- Generated by graphviz version 2.38.0 (20140413.2041)
 -->
<!-- Title: event.h Pages: 1 -->
<!--zoomable 364 -->
<svg id="main" version="1.1" xmlns="http://www.w3.org/2000/svg" xmlns:xlink="http://www.w3.org/1999/xlink" xml:space="preserve" onload="init(evt)">
<style type="text/css"><![CDATA[
.edge:hover path { stroke: red; }
.edge:hover polygon { stroke: red; fill: red; }
]]></style>
<script type="text/javascript"><![CDATA[
var edges = document.getElementsByTagName('g');
if (edges && edges.length) {
  for (var i=0;i<edges.length;i++) {
    if (edges[i].id.substr(0,4)=='edge') {
      edges[i].setAttribute('class','edge');
    }
  }
}
]]></script>
        <defs>
                <circle id="rim" cx="0" cy="0" r="7"/>
                <circle id="rim2" cx="0" cy="0" r="3.5"/>
                <g id="zoomPlus">
                        <use xlink:href="#rim" fill="#404040">
                                <set attributeName="fill" to="#808080" begin="zoomplus.mouseover" end="zoomplus.mouseout"/>
                        </use>
                        <path d="M-4,0h8M0,-4v8" fill="none" stroke="white" stroke-width="1.5" pointer-events="none"/>
                </g>
                <g id="zoomMin">
                        <use xlink:href="#rim" fill="#404040">
                                <set attributeName="fill" to="#808080" begin="zoomminus.mouseover" end="zoomminus.mouseout"/>
                        </use>
                        <path d="M-4,0h8" fill="none" stroke="white" stroke-width="1.5" pointer-events="none"/>
                </g>
                <g id="dirArrow">
                        <path fill="none" stroke="white" stroke-width="1.5" d="M0,-3.0v7 M-2.5,-0.5L0,-3.0L2.5,-0.5"/>
                </g>
               <g id="resetDef">
                       <use xlink:href="#rim2" fill="#404040">
                               <set attributeName="fill" to="#808080" begin="reset.mouseover" end="reset.mouseout"/>
                       </use>
               </g>
        </defs>

<script type="text/javascript">
var viewWidth = 1209;
var viewHeight = 364;
var sectionId = 'dynsection-1';
</script>
<script xlink:href="svgpan.js"/>
<svg id="graph" class="graph">
<g id="viewport">
<title>event.h</title>
<polygon fill="white" stroke="none" points="-4,4 -4,-360 1205,-360 1205,4 -4,4"/>
<!-- Node1 -->
<g id="node1" class="node"><title>Node1</title>
<polygon fill="#bfbfbf" stroke="black" points="512,-336.5 512,-355.5 561,-355.5 561,-336.5 512,-336.5"/>
<text text-anchor="middle" x="536.5" y="-343.5" font-family="Helvetica,sans-Serif" font-size="10.00">event.h</text>
</g>
<!-- Node2 -->
<g id="node2" class="node"><title>Node2</title>
<g id="a_node2"><a xlink:href="boolean__graph_8cc.xhtml" target="_top" xlink:title="Implementation of indexed nodes, variables, gates, and the Boolean graph. ">
<polygon fill="white" stroke="black" points="0,-280.5 0,-299.5 93,-299.5 93,-280.5 0,-280.5"/>
<text text-anchor="middle" x="46.5" y="-287.5" font-family="Helvetica,sans-Serif" font-size="10.00">boolean_graph.cc</text>
</a>
</g>
</g>
<!-- Node1&#45;&gt;Node2 -->
<g id="edge1" class="edge"><title>Node1&#45;&gt;Node2</title>
<path fill="none" stroke="midnightblue" d="M501.767,-341.855C428.692,-335.129 253.735,-318.449 107.5,-300 102.827,-299.41 97.9581,-298.758 93.0991,-298.081"/>
<polygon fill="midnightblue" stroke="midnightblue" points="501.516,-345.347 511.793,-342.774 502.155,-338.376 501.516,-345.347"/>
</g>
<!-- Node3 -->
<g id="node3" class="node"><title>Node3</title>
<g id="a_node3"><a xlink:href="ccf__group_8h.xhtml" target="_top" xlink:title="Functional containers for basic events grouped by common cause failure. ">
<polygon fill="white" stroke="black" points="338.5,-280.5 338.5,-299.5 406.5,-299.5 406.5,-280.5 338.5,-280.5"/>
<text text-anchor="middle" x="372.5" y="-287.5" font-family="Helvetica,sans-Serif" font-size="10.00">ccf_group.h</text>
</a>
</g>
</g>
<!-- Node1&#45;&gt;Node3 -->
<g id="edge2" class="edge"><title>Node1&#45;&gt;Node3</title>
<path fill="none" stroke="midnightblue" d="M502.049,-333.656C471.18,-323.492 426.574,-308.805 398.578,-299.587"/>
<polygon fill="midnightblue" stroke="midnightblue" points="501.355,-337.113 511.948,-336.916 503.544,-330.464 501.355,-337.113"/>
</g>
<!-- Node5 -->
<g id="node5" class="node"><title>Node5</title>
<g id="a_node5"><a xlink:href="event_8cc.xhtml" target="_top" xlink:title="Implementation of Event Class and its derived classes. ">
<polygon fill="white" stroke="black" points="187.5,-224.5 187.5,-243.5 241.5,-243.5 241.5,-224.5 187.5,-224.5"/>
<text text-anchor="middle" x="214.5" y="-231.5" font-family="Helvetica,sans-Serif" font-size="10.00">event.cc</text>
</a>
</g>
</g>
<!-- Node1&#45;&gt;Node5 -->
<g id="edge27" class="edge"><title>Node1&#45;&gt;Node5</title>
<path fill="none" stroke="midnightblue" d="M501.955,-340.727C460.106,-334.822 387.948,-322.285 329.5,-300 289.642,-284.803 246.995,-257.376 226.652,-243.513"/>
<polygon fill="midnightblue" stroke="midnightblue" points="501.533,-344.201 511.915,-342.087 502.48,-337.266 501.533,-344.201"/>
</g>
<!-- Node6 -->
<g id="node6" class="node"><title>Node6</title>
<g id="a_node6"><a xlink:href="fault__tree_8h.xhtml" target="_top" xlink:title="Fault Tree and Component containers. ">
<polygon fill="white" stroke="black" points="504,-224.5 504,-243.5 569,-243.5 569,-224.5 504,-224.5"/>
<text text-anchor="middle" x="536.5" y="-231.5" font-family="Helvetica,sans-Serif" font-size="10.00">fault_tree.h</text>
</a>
</g>
</g>
<!-- Node1&#45;&gt;Node6 -->
<g id="edge28" class="edge"><title>Node1&#45;&gt;Node6</title>
<path fill="none" stroke="midnightblue" d="M536.5,-326.348C536.5,-302.254 536.5,-261.308 536.5,-243.591"/>
<polygon fill="midnightblue" stroke="midnightblue" points="533,-326.368 536.5,-336.368 540,-326.369 533,-326.368"/>
</g>
<!-- Node8 -->
<g id="node8" class="node"><title>Node8</title>
<g id="a_node8"><a xlink:href="initializer_8h.xhtml" target="_top" xlink:title="A facility that processes input files into analysis constructs. ">
<polygon fill="white" stroke="black" points="543,-112.5 543,-131.5 606,-131.5 606,-112.5 543,-112.5"/>
<text text-anchor="middle" x="574.5" y="-119.5" font-family="Helvetica,sans-Serif" font-size="10.00">initializer.h</text>
</a>
</g>
</g>
<!-- Node1&#45;&gt;Node8 -->
<g id="edge31" class="edge"><title>Node1&#45;&gt;Node8</title>
<path fill="none" stroke="midnightblue" d="M546.004,-327.642C559.888,-303.111 587.36,-257.554 617.5,-224 634.156,-205.457 649.954,-210.583 660.5,-188 673.408,-160.359 635.013,-141.566 605.413,-131.559"/>
<polygon fill="midnightblue" stroke="midnightblue" points="542.88,-326.059 541.068,-336.498 548.994,-329.467 542.88,-326.059"/>
</g>
<!-- Node11 -->
<g id="node11" class="node"><title>Node11</title>
<g id="a_node11"><a xlink:href="model_8h.xhtml" target="_top" xlink:title="Representation for a model container for risk analysis. ">
<polygon fill="white" stroke="black" points="350,-168.5 350,-187.5 401,-187.5 401,-168.5 350,-168.5"/>
<text text-anchor="middle" x="375.5" y="-175.5" font-family="Helvetica,sans-Serif" font-size="10.00">model.h</text>
</a>
</g>
</g>
<!-- Node1&#45;&gt;Node11 -->
<g id="edge32" class="edge"><title>Node1&#45;&gt;Node11</title>
<path fill="none" stroke="midnightblue" d="M501.595,-342.274C451.976,-337.627 358.721,-326.017 283.5,-300 233.516,-282.712 205.711,-289.352 178.5,-244 140.7,-180.999 288.241,-177.13 349.739,-178.158"/>
<polygon fill="midnightblue" stroke="midnightblue" points="501.515,-345.781 511.788,-343.188 502.14,-338.809 501.515,-345.781"/>
</g>
<!-- Node13 -->
<g id="node13" class="node"><title>Node13</title>
<g id="a_node13"><a xlink:href="reporter_8h.xhtml" target="_top" xlink:title="Reporter of results. ">
<polygon fill="white" stroke="black" points="345.5,-56.5 345.5,-75.5 403.5,-75.5 403.5,-56.5 345.5,-56.5"/>
<text text-anchor="middle" x="374.5" y="-63.5" font-family="Helvetica,sans-Serif" font-size="10.00">reporter.h</text>
</a>
</g>
</g>
<!-- Node1&#45;&gt;Node13 -->
<g id="edge34" class="edge"><title>Node1&#45;&gt;Node13</title>
<path fill="none" stroke="midnightblue" d="M501.598,-343.231C401.653,-337.223 121.5,-313.389 121.5,-235 121.5,-235 121.5,-235 121.5,-177 121.5,-80.2509 279.023,-67.6958 345.478,-66.704"/>
<polygon fill="midnightblue" stroke="midnightblue" points="501.598,-346.737 511.783,-343.819 502.001,-339.749 501.598,-346.737"/>
</g>
<!-- Node15 -->
<g id="node15" class="node"><title>Node15</title>
<g id="a_node15"><a xlink:href="risk__analysis_8h.xhtml" target="_top" xlink:title="Contains the main system for performing analysis. ">
<polygon fill="white" stroke="black" points="403.5,-112.5 403.5,-131.5 485.5,-131.5 485.5,-112.5 403.5,-112.5"/>
<text text-anchor="middle" x="444.5" y="-119.5" font-family="Helvetica,sans-Serif" font-size="10.00">risk_analysis.h</text>
</a>
</g>
</g>
<!-- Node1&#45;&gt;Node15 -->
<g id="edge35" class="edge"><title>Node1&#45;&gt;Node15</title>
<path fill="none" stroke="midnightblue" d="M528.987,-326.872C510.237,-281.627 461.903,-164.993 448.182,-131.884"/>
<polygon fill="midnightblue" stroke="midnightblue" points="525.832,-328.399 532.893,-336.297 532.298,-325.719 525.832,-328.399"/>
</g>
<!-- Node17 -->
<g id="node17" class="node"><title>Node17</title>
<g id="a_node17"><a xlink:href="cycle_8h.xhtml" target="_top" xlink:title="Validation facilities to detect and print cycles in graphs. ">
<polygon fill="white" stroke="black" points="613.5,-280.5 613.5,-299.5 661.5,-299.5 661.5,-280.5 613.5,-280.5"/>
<text text-anchor="middle" x="637.5" y="-287.5" font-family="Helvetica,sans-Serif" font-size="10.00">cycle.h</text>
</a>
</g>
</g>
<!-- Node1&#45;&gt;Node17 -->
<g id="edge24" class="edge"><title>Node1&#45;&gt;Node17</title>
<path fill="none" stroke="midnightblue" d="M561.583,-331.59C580.257,-321.605 605.204,-308.267 621.313,-299.655"/>
<polygon fill="midnightblue" stroke="midnightblue" points="559.896,-328.522 552.727,-336.324 563.196,-334.696 559.896,-328.522"/>
</g>
<!-- Node19 -->
<g id="node19" class="node"><title>Node19</title>
<g id="a_node19"><a xlink:href="fault__tree__analysis_8cc.xhtml" target="_top" xlink:title="Implementation of fault tree analysis. ">
<polygon fill="white" stroke="black" points="679.5,-280.5 679.5,-299.5 791.5,-299.5 791.5,-280.5 679.5,-280.5"/>
<text text-anchor="middle" x="735.5" y="-287.5" font-family="Helvetica,sans-Serif" font-size="10.00">fault_tree_analysis.cc</text>
</a>
</g>
</g>
<!-- Node1&#45;&gt;Node19 -->
<g id="edge29" class="edge"><title>Node1&#45;&gt;Node19</title>
<path fill="none" stroke="midnightblue" d="M571.272,-335.564C608.795,-325.382 668.015,-309.313 704.151,-299.507"/>
<polygon fill="midnightblue" stroke="midnightblue" points="570.035,-332.273 561.301,-338.27 571.869,-339.029 570.035,-332.273"/>
</g>
<!-- Node20 -->
<g id="node20" class="node"><title>Node20</title>
<g id="a_node20"><a xlink:href="importance__analysis_8cc.xhtml" target="_top" xlink:title="Implementations of functions to provide quantitative importance informations. ">
<polygon fill="white" stroke="black" points="810,-280.5 810,-299.5 929,-299.5 929,-280.5 810,-280.5"/>
<text text-anchor="middle" x="869.5" y="-287.5" font-family="Helvetica,sans-Serif" font-size="10.00">importance_analysis.cc</text>
</a>
</g>
</g>
<!-- Node1&#45;&gt;Node20 -->
<g id="edge30" class="edge"><title>Node1&#45;&gt;Node20</title>
<path fill="none" stroke="midnightblue" d="M571.476,-339.328C630.058,-329.828 748.331,-310.649 816.956,-299.521"/>
<polygon fill="midnightblue" stroke="midnightblue" points="570.568,-335.93 561.257,-340.985 571.688,-342.839 570.568,-335.93"/>
</g>
<!-- Node21 -->
<g id="node21" class="node"><title>Node21</title>
<g id="a_node21"><a xlink:href="probability__analysis_8cc.xhtml" target="_top" xlink:title="Implementations of functions to provide probability analysis. ">
<polygon fill="white" stroke="black" points="947.5,-280.5 947.5,-299.5 1063.5,-299.5 1063.5,-280.5 947.5,-280.5"/>
<text text-anchor="middle" x="1005.5" y="-287.5" font-family="Helvetica,sans-Serif" font-size="10.00">probability_analysis.cc</text>
</a>
</g>
</g>
<!-- Node1&#45;&gt;Node21 -->
<g id="edge33" class="edge"><title>Node1&#45;&gt;Node21</title>
<path fill="none" stroke="midnightblue" d="M571.466,-341.348C641.287,-333.998 802.921,-316.692 938.5,-300 941.412,-299.641 944.394,-299.267 947.405,-298.883"/>
<polygon fill="midnightblue" stroke="midnightblue" points="571.035,-337.874 561.456,-342.4 571.767,-344.836 571.035,-337.874"/>
</g>
<!-- Node22 -->
<g id="node22" class="node"><title>Node22</title>
<g id="a_node22"><a xlink:href="uncertainty__analysis_8cc.xhtml" target="_top" xlink:title="Implements the functionality to run Monte Carlo simulations. ">
<polygon fill="white" stroke="black" points="1082,-280.5 1082,-299.5 1201,-299.5 1201,-280.5 1082,-280.5"/>
<text text-anchor="middle" x="1141.5" y="-287.5" font-family="Helvetica,sans-Serif" font-size="10.00">uncertainty_analysis.cc</text>
</a>
</g>
</g>
<!-- Node1&#45;&gt;Node22 -->
<g id="edge36" class="edge"><title>Node1&#45;&gt;Node22</title>
<path fill="none" stroke="midnightblue" d="M571.287,-342.636C656.737,-336.707 883.728,-320.225 1072.5,-300 1075.5,-299.678 1078.58,-299.334 1081.68,-298.973"/>
<polygon fill="midnightblue" stroke="midnightblue" points="570.849,-339.158 561.114,-343.338 571.331,-346.141 570.849,-339.158"/>
</g>
<!-- Node4 -->
<g id="node4" class="node"><title>Node4</title>
<g id="a_node4"><a xlink:href="ccf__group_8cc.xhtml" target="_top" xlink:title="Implementation of various common cause failure models. ">
<polygon fill="white" stroke="black" points="336,-224.5 336,-243.5 409,-243.5 409,-224.5 336,-224.5"/>
<text text-anchor="middle" x="372.5" y="-231.5" font-family="Helvetica,sans-Serif" font-size="10.00">ccf_group.cc</text>
</a>
</g>
</g>
<!-- Node3&#45;&gt;Node4 -->
<g id="edge3" class="edge"><title>Node3&#45;&gt;Node4</title>
<path fill="none" stroke="midnightblue" d="M372.5,-269.805C372.5,-260.91 372.5,-250.78 372.5,-243.751"/>
<polygon fill="midnightblue" stroke="midnightblue" points="369,-270.083 372.5,-280.083 376,-270.083 369,-270.083"/>
</g>
<!-- Node3&#45;&gt;Node5 -->
<g id="edge4" class="edge"><title>Node3&#45;&gt;Node5</title>
<path fill="none" stroke="midnightblue" d="M337.892,-277.172C308.141,-267.004 265.953,-252.585 239.418,-243.516"/>
<polygon fill="midnightblue" stroke="midnightblue" points="336.87,-280.521 347.464,-280.444 339.134,-273.898 336.87,-280.521"/>
</g>
<!-- Node3&#45;&gt;Node6 -->
<g id="edge5" class="edge"><title>Node3&#45;&gt;Node6</title>
<path fill="none" stroke="midnightblue" d="M408.02,-277.304C438.922,-267.129 482.973,-252.625 510.635,-243.516"/>
<polygon fill="midnightblue" stroke="midnightblue" points="406.89,-273.992 398.486,-280.444 409.079,-280.64 406.89,-273.992"/>
</g>
<!-- Node3&#45;&gt;Node8 -->
<g id="edge21" class="edge"><title>Node3&#45;&gt;Node8</title>
<path fill="none" stroke="midnightblue" d="M390.996,-273.801C432.426,-239.754 531.583,-158.268 564.029,-131.605"/>
<polygon fill="midnightblue" stroke="midnightblue" points="388.58,-271.256 383.076,-280.309 393.024,-276.664 388.58,-271.256"/>
</g>
<!-- Node3&#45;&gt;Node11 -->
<g id="edge22" class="edge"><title>Node3&#45;&gt;Node11</title>
<path fill="none" stroke="midnightblue" d="M351.073,-274.134C335.837,-261.579 319.398,-242.702 327.5,-224 334.311,-208.278 349.62,-195.531 361.13,-187.67"/>
<polygon fill="midnightblue" stroke="midnightblue" points="349.188,-277.1 359.25,-280.418 353.453,-271.55 349.188,-277.1"/>
</g>
<!-- Node14 -->
<g id="node14" class="node"><title>Node14</title>
<g id="a_node14"><a xlink:href="reporter_8cc.xhtml" target="_top" xlink:title="Implements Reporter class. ">
<polygon fill="white" stroke="black" points="277,-0.5 277,-19.5 340,-19.5 340,-0.5 277,-0.5"/>
<text text-anchor="middle" x="308.5" y="-7.5" font-family="Helvetica,sans-Serif" font-size="10.00">reporter.cc</text>
</a>
</g>
</g>
<!-- Node3&#45;&gt;Node14 -->
<g id="edge23" class="edge"><title>Node3&#45;&gt;Node14</title>
<path fill="none" stroke="midnightblue" d="M350.511,-274.208C340.175,-266.295 328.414,-255.763 320.5,-244 291.156,-200.388 291.059,-183.863 282.5,-132 275.503,-89.6006 295.308,-39.5977 304.307,-19.7503"/>
<polygon fill="midnightblue" stroke="midnightblue" points="348.6,-277.146 358.743,-280.209 352.723,-271.49 348.6,-277.146"/>
</g>
<!-- Node7 -->
<g id="node7" class="node"><title>Node7</title>
<g id="a_node7"><a xlink:href="fault__tree_8cc.xhtml" target="_top" xlink:title="Implementation of fault tree and component containers. ">
<polygon fill="white" stroke="black" points="580,-168.5 580,-187.5 651,-187.5 651,-168.5 580,-168.5"/>
<text text-anchor="middle" x="615.5" y="-175.5" font-family="Helvetica,sans-Serif" font-size="10.00">fault_tree.cc</text>
</a>
</g>
</g>
<!-- Node6&#45;&gt;Node7 -->
<g id="edge6" class="edge"><title>Node6&#45;&gt;Node7</title>
<path fill="none" stroke="midnightblue" d="M557.534,-218.622C571.966,-208.757 590.641,-195.992 602.839,-187.655"/>
<polygon fill="midnightblue" stroke="midnightblue" points="555.473,-215.791 549.193,-224.324 559.423,-221.57 555.473,-215.791"/>
</g>
<!-- Node6&#45;&gt;Node8 -->
<g id="edge7" class="edge"><title>Node6&#45;&gt;Node8</title>
<path fill="none" stroke="midnightblue" d="M542.831,-214.674C551.139,-190.625 565.384,-149.388 571.532,-131.591"/>
<polygon fill="midnightblue" stroke="midnightblue" points="539.439,-213.774 539.482,-224.368 546.055,-216.059 539.439,-213.774"/>
</g>
<!-- Node6&#45;&gt;Node11 -->
<g id="edge10" class="edge"><title>Node6&#45;&gt;Node11</title>
<path fill="none" stroke="midnightblue" d="M501.235,-221.172C470.919,-211.004 427.93,-196.585 400.892,-187.516"/>
<polygon fill="midnightblue" stroke="midnightblue" points="500.395,-224.582 510.989,-224.444 502.621,-217.945 500.395,-224.582"/>
</g>
<!-- Node16 -->
<g id="node16" class="node"><title>Node16</title>
<g id="a_node16"><a xlink:href="risk__analysis_8cc.xhtml" target="_top" xlink:title="Implementation of risk analysis handler. ">
<polygon fill="white" stroke="black" points="460,-56.5 460,-75.5 547,-75.5 547,-56.5 460,-56.5"/>
<text text-anchor="middle" x="503.5" y="-63.5" font-family="Helvetica,sans-Serif" font-size="10.00">risk_analysis.cc</text>
</a>
</g>
</g>
<!-- Node6&#45;&gt;Node16 -->
<g id="edge20" class="edge"><title>Node6&#45;&gt;Node16</title>
<path fill="none" stroke="midnightblue" d="M532.709,-213.93C525.55,-177.92 510.305,-101.231 505.203,-75.5681"/>
<polygon fill="midnightblue" stroke="midnightblue" points="529.343,-214.95 534.726,-224.075 536.209,-213.585 529.343,-214.95"/>
</g>
<!-- Node9 -->
<g id="node9" class="node"><title>Node9</title>
<g id="a_node9"><a xlink:href="initializer_8cc.xhtml" target="_top" xlink:title="Implementation of input file processing into analysis constructs. ">
<polygon fill="white" stroke="black" points="643.5,-56.5 643.5,-75.5 711.5,-75.5 711.5,-56.5 643.5,-56.5"/>
<text text-anchor="middle" x="677.5" y="-63.5" font-family="Helvetica,sans-Serif" font-size="10.00">initializer.cc</text>
</a>
</g>
</g>
<!-- Node8&#45;&gt;Node9 -->
<g id="edge8" class="edge"><title>Node8&#45;&gt;Node9</title>
<path fill="none" stroke="midnightblue" d="M600.079,-107.59C619.123,-97.6052 644.564,-84.2672 660.992,-75.6545"/>
<polygon fill="midnightblue" stroke="midnightblue" points="598.28,-104.581 591.049,-112.324 601.531,-110.78 598.28,-104.581"/>
</g>
<!-- Node10 -->
<g id="node10" class="node"><title>Node10</title>
<g id="a_node10"><a xlink:href="scram_8cc.xhtml" target="_top" xlink:title="Main entrance. ">
<polygon fill="white" stroke="black" points="403,-0.5 403,-19.5 460,-19.5 460,-0.5 403,-0.5"/>
<text text-anchor="middle" x="431.5" y="-7.5" font-family="Helvetica,sans-Serif" font-size="10.00">scram.cc</text>
</a>
</g>
</g>
<!-- Node8&#45;&gt;Node10 -->
<g id="edge9" class="edge"><title>Node8&#45;&gt;Node10</title>
<path fill="none" stroke="midnightblue" d="M573.8,-102.014C572.297,-87.6989 568.06,-68.4658 556.5,-56 531.329,-28.8556 488.586,-18.0595 460.199,-13.7822"/>
<polygon fill="midnightblue" stroke="midnightblue" points="570.324,-102.482 574.506,-112.216 577.307,-101.998 570.324,-102.482"/>
</g>
<!-- Node11&#45;&gt;Node8 -->
<g id="edge11" class="edge"><title>Node11&#45;&gt;Node8</title>
<path fill="none" stroke="midnightblue" d="M411.103,-167.339C448.644,-157.152 507.218,-141.257 543.093,-131.522"/>
<polygon fill="midnightblue" stroke="midnightblue" points="409.843,-164.054 401.108,-170.051 411.676,-170.81 409.843,-164.054"/>
</g>
<!-- Node12 -->
<g id="node12" class="node"><title>Node12</title>
<g id="a_node12"><a xlink:href="model_8cc.xhtml" target="_top" xlink:title="Implementation of functions in Model class. ">
<polygon fill="white" stroke="black" points="291.5,-112.5 291.5,-131.5 347.5,-131.5 347.5,-112.5 291.5,-112.5"/>
<text text-anchor="middle" x="319.5" y="-119.5" font-family="Helvetica,sans-Serif" font-size="10.00">model.cc</text>
</a>
</g>
</g>
<!-- Node11&#45;&gt;Node12 -->
<g id="edge12" class="edge"><title>Node11&#45;&gt;Node12</title>
<path fill="none" stroke="midnightblue" d="M359.17,-161.253C349.235,-151.673 336.912,-139.791 328.661,-131.834"/>
<polygon fill="midnightblue" stroke="midnightblue" points="356.875,-163.902 366.503,-168.324 361.734,-158.863 356.875,-163.902"/>
</g>
<!-- Node11&#45;&gt;Node13 -->
<g id="edge13" class="edge"><title>Node11&#45;&gt;Node13</title>
<path fill="none" stroke="midnightblue" d="M375.33,-158.348C375.111,-134.254 374.739,-93.3079 374.578,-75.5914"/>
<polygon fill="midnightblue" stroke="midnightblue" points="371.831,-158.401 375.422,-168.368 378.83,-158.337 371.831,-158.401"/>
</g>
<!-- Node11&#45;&gt;Node15 -->
<g id="edge16" class="edge"><title>Node11&#45;&gt;Node15</title>
<path fill="none" stroke="midnightblue" d="M394.538,-162.101C406.956,-152.382 422.743,-140.027 433.212,-131.834"/>
<polygon fill="midnightblue" stroke="midnightblue" points="392.304,-159.405 386.586,-168.324 396.618,-164.917 392.304,-159.405"/>
</g>
<!-- Node13&#45;&gt;Node10 -->
<g id="edge15" class="edge"><title>Node13&#45;&gt;Node10</title>
<path fill="none" stroke="midnightblue" d="M391.121,-49.2533C401.234,-39.6731 413.777,-27.7906 422.175,-19.8339"/>
<polygon fill="midnightblue" stroke="midnightblue" points="388.51,-46.9056 383.658,-56.324 393.325,-51.9873 388.51,-46.9056"/>
</g>
<!-- Node13&#45;&gt;Node14 -->
<g id="edge14" class="edge"><title>Node13&#45;&gt;Node14</title>
<path fill="none" stroke="midnightblue" d="M355.946,-49.8197C344.122,-40.1452 329.214,-27.9481 319.297,-19.8339"/>
<polygon fill="midnightblue" stroke="midnightblue" points="353.94,-52.7004 363.896,-56.324 358.373,-47.2827 353.94,-52.7004"/>
</g>
<!-- Node15&#45;&gt;Node10 -->
<g id="edge19" class="edge"><title>Node15&#45;&gt;Node10</title>
<path fill="none" stroke="midnightblue" d="M442.296,-102.348C439.448,-78.2538 434.609,-37.3079 432.515,-19.5914"/>
<polygon fill="midnightblue" stroke="midnightblue" points="438.83,-102.848 443.48,-112.368 445.782,-102.027 438.83,-102.848"/>
</g>
<!-- Node15&#45;&gt;Node13 -->
<g id="edge17" class="edge"><title>Node15&#45;&gt;Node13</title>
<path fill="none" stroke="midnightblue" d="M425.186,-106.101C412.588,-96.3824 396.572,-84.0269 385.951,-75.8339"/>
<polygon fill="midnightblue" stroke="midnightblue" points="423.198,-108.987 433.253,-112.324 427.473,-103.445 423.198,-108.987"/>
</g>
<!-- Node15&#45;&gt;Node16 -->
<g id="edge18" class="edge"><title>Node15&#45;&gt;Node16</title>
<path fill="none" stroke="midnightblue" d="M461.395,-105.537C471.915,-95.9087 485.069,-83.8694 493.848,-75.8339"/>
<polygon fill="midnightblue" stroke="midnightblue" points="458.993,-102.99 453.979,-112.324 463.719,-108.154 458.993,-102.99"/>
</g>
<!-- Node17&#45;&gt;Node9 -->
<g id="edge26" class="edge"><title>Node17&#45;&gt;Node9</title>
<path fill="none" stroke="midnightblue" d="M661.621,-274.473C671.937,-266.828 682.884,-256.445 688.5,-244 715.348,-184.506 690.185,-102.164 680.742,-75.6163"/>
<polygon fill="midnightblue" stroke="midnightblue" points="659.494,-271.688 653.234,-280.236 663.458,-277.457 659.494,-271.688"/>
</g>
<!-- Node18 -->
<g id="node18" class="node"><title>Node18</title>
<g id="a_node18"><a xlink:href="cycle_8cc.xhtml" target="_top" xlink:title="Implementation of helper facilities to work with cycles. ">
<polygon fill="white" stroke="black" points="626,-224.5 626,-243.5 679,-243.5 679,-224.5 626,-224.5"/>
<text text-anchor="middle" x="652.5" y="-231.5" font-family="Helvetica,sans-Serif" font-size="10.00">cycle.cc</text>
</a>
</g>
</g>
<!-- Node17&#45;&gt;Node18 -->
<g id="edge25" class="edge"><title>Node17&#45;&gt;Node18</title>
<path fill="none" stroke="midnightblue" d="M642.668,-270.396C645.177,-261.362 648.073,-250.936 650.069,-243.751"/>
<polygon fill="midnightblue" stroke="midnightblue" points="639.281,-269.511 639.977,-280.083 646.026,-271.385 639.281,-269.511"/>
</g>
</g>
</svg>
        <g id="navigator" transform="translate(0 0)" fill="#404254">
                <rect fill="#f2f5e9" fill-opacity="0.5" stroke="#606060" stroke-width=".5" x="0" y="0" width="60" height="60"/>
                <use id="zoomplus" xlink:href="#zoomPlus" x="17" y="9" onmousedown="handleZoom(evt,'in')"/>
                <use id="zoomminus" xlink:href="#zoomMin" x="42" y="9" onmousedown="handleZoom(evt,'out')"/>
                <use id="reset" xlink:href="#resetDef" x="30" y="36" onmousedown="handleReset()"/>
                <g id="arrowUp" xlink:href="#dirArrow" transform="translate(30 24)" onmousedown="handlePan(0,-1)">
                  <use xlink:href="#rim" fill="#404040">
                        <set attributeName="fill" to="#808080" begin="arrowUp.mouseover" end="arrowUp.mouseout"/>
                  </use>
                  <path fill="none" stroke="white" stroke-width="1.5" d="M0,-3.0v7 M-2.5,-0.5L0,-3.0L2.5,-0.5"/>
                </g>
                <g id="arrowRight" xlink:href="#dirArrow" transform="rotate(90) translate(36 -43)" onmousedown="handlePan(1,0)">
                  <use xlink:href="#rim" fill="#404040">
                        <set attributeName="fill" to="#808080" begin="arrowRight.mouseover" end="arrowRight.mouseout"/>
                  </use>
                  <path fill="none" stroke="white" stroke-width="1.5" d="M0,-3.0v7 M-2.5,-0.5L0,-3.0L2.5,-0.5"/>
                </g>
                <g id="arrowDown" xlink:href="#dirArrow" transform="rotate(180) translate(-30 -48)" onmousedown="handlePan(0,1)">
                  <use xlink:href="#rim" fill="#404040">
                        <set attributeName="fill" to="#808080" begin="arrowDown.mouseover" end="arrowDown.mouseout"/>
                  </use>
                  <path fill="none" stroke="white" stroke-width="1.5" d="M0,-3.0v7 M-2.5,-0.5L0,-3.0L2.5,-0.5"/>
                </g>
                <g id="arrowLeft" xlink:href="#dirArrow" transform="rotate(270) translate(-36 17)" onmousedown="handlePan(-1,0)">
                  <use xlink:href="#rim" fill="#404040">
                        <set attributeName="fill" to="#808080" begin="arrowLeft.mouseover" end="arrowLeft.mouseout"/>
                  </use>
                  <path fill="none" stroke="white" stroke-width="1.5" d="M0,-3.0v7 M-2.5,-0.5L0,-3.0L2.5,-0.5"/>
                </g>
        </g>
        <svg viewBox="0 0 15 15" width="100%" height="30px" preserveAspectRatio="xMaxYMin meet">
         <g id="arrow_out" transform="scale(0.3 0.3)">
          <a xlink:href="event_8h__dep__incl_org.svg" target="_base">
           <rect id="button" ry="5" rx="5" y="6" x="6" height="38" width="38"
                fill="#f2f5e9" fill-opacity="0.5" stroke="#606060" stroke-width="1.0"/>
           <path id="arrow"
             d="M 11.500037,31.436501 C 11.940474,20.09759 22.043105,11.32322 32.158766,21.979434 L 37.068811,17.246167 C 37.068811,17.246167 37.088388,32 37.088388,32 L 22.160133,31.978069 C 22.160133,31.978069 26.997745,27.140456 26.997745,27.140456 C 18.528582,18.264221 13.291696,25.230495 11.500037,31.436501 z"
             style="fill:#404040;"/>
          </a>
         </g>
        </svg>
</svg>
