<?xml version="1.0" encoding="UTF-8" standalone="no"?>
<!DOCTYPE svg PUBLIC "-//W3C//DTD SVG 1.1//EN"
 "http://www.w3.org/Graphics/SVG/1.1/DTD/svg11.dtd">
<!-- Generated by graphviz version 2.38.0 (20140413.2041)
 -->
<!-- Title: event.cc Pages: 1 -->
<svg width="702pt" height="319pt"
 viewBox="0.00 0.00 701.62 319.00" xmlns="http://www.w3.org/2000/svg" xmlns:xlink="http://www.w3.org/1999/xlink">
<g id="graph0" class="graph" transform="scale(1 1) rotate(0) translate(4 315)">
<title>event.cc</title>
<polygon fill="white" stroke="none" points="-4,4 -4,-315 697.615,-315 697.615,4 -4,4"/>
<!-- Node1 -->
<g id="node1" class="node"><title>Node1</title>
<polygon fill="#bfbfbf" stroke="black" points="319.615,-291.5 319.615,-310.5 373.615,-310.5 373.615,-291.5 319.615,-291.5"/>
<text text-anchor="middle" x="346.615" y="-298.5" font-family="Helvetica,sans-Serif" font-size="10.00">event.cc</text>
</g>
<!-- Node2 -->
<g id="node2" class="node"><title>Node2</title>
<g id="a_node2"><a xlink:href="event_8h.xhtml" target="_top" xlink:title="Contains event classes for fault trees. ">
<polygon fill="white" stroke="black" points="234.115,-179.5 234.115,-198.5 283.115,-198.5 283.115,-179.5 234.115,-179.5"/>
<text text-anchor="middle" x="258.615" y="-186.5" font-family="Helvetica,sans-Serif" font-size="10.00">event.h</text>
</a>
</g>
</g>
<!-- Node1&#45;&gt;Node2 -->
<g id="edge1" class="edge"><title>Node1&#45;&gt;Node2</title>
<path fill="none" stroke="midnightblue" d="M322.672,-291.375C306.105,-284.173 284.904,-272.276 272.615,-255 263.101,-241.625 259.837,-223.056 258.815,-209.188"/>
<polygon fill="midnightblue" stroke="midnightblue" points="262.299,-208.712 258.396,-198.862 255.304,-208.996 262.299,-208.712"/>
</g>
<!-- Node15 -->
<g id="node15" class="node"><title>Node15</title>
<polygon fill="white" stroke="#bfbfbf" points="282.115,-235.5 282.115,-254.5 411.115,-254.5 411.115,-235.5 282.115,-235.5"/>
<text text-anchor="middle" x="346.615" y="-242.5" font-family="Helvetica,sans-Serif" font-size="10.00">boost/range/algorithm.hpp</text>
</g>
<!-- Node1&#45;&gt;Node15 -->
<g id="edge23" class="edge"><title>Node1&#45;&gt;Node15</title>
<path fill="none" stroke="midnightblue" d="M346.615,-291.083C346.615,-284.006 346.615,-273.861 346.615,-264.986"/>
<polygon fill="midnightblue" stroke="midnightblue" points="350.115,-264.751 346.615,-254.751 343.115,-264.751 350.115,-264.751"/>
</g>
<!-- Node16 -->
<g id="node16" class="node"><title>Node16</title>
<g id="a_node16"><a xlink:href="ccf__group_8h.xhtml" target="_top" xlink:title="Functional containers for basic events grouped by common cause failure. ">
<polygon fill="white" stroke="black" points="429.615,-235.5 429.615,-254.5 497.615,-254.5 497.615,-235.5 429.615,-235.5"/>
<text text-anchor="middle" x="463.615" y="-242.5" font-family="Helvetica,sans-Serif" font-size="10.00">ccf_group.h</text>
</a>
</g>
</g>
<!-- Node1&#45;&gt;Node16 -->
<g id="edge24" class="edge"><title>Node1&#45;&gt;Node16</title>
<path fill="none" stroke="midnightblue" d="M365.154,-291.444C384.238,-282.636 414.19,-268.812 436.051,-258.722"/>
<polygon fill="midnightblue" stroke="midnightblue" points="437.55,-261.885 445.163,-254.516 434.617,-255.529 437.55,-261.885"/>
</g>
<!-- Node3 -->
<g id="node3" class="node"><title>Node3</title>
<polygon fill="white" stroke="#bfbfbf" points="127.615,-6 127.615,-25 173.615,-25 173.615,-6 127.615,-6"/>
<text text-anchor="middle" x="150.615" y="-13" font-family="Helvetica,sans-Serif" font-size="10.00">cstdint</text>
</g>
<!-- Node2&#45;&gt;Node3 -->
<g id="edge2" class="edge"><title>Node2&#45;&gt;Node3</title>
<path fill="none" stroke="midnightblue" d="M253.111,-179.26C236.137,-152.306 184.38,-70.1165 161.588,-33.9237"/>
<polygon fill="midnightblue" stroke="midnightblue" points="164.271,-31.6162 155.98,-25.0194 158.347,-35.3464 164.271,-31.6162"/>
</g>
<!-- Node4 -->
<g id="node4" class="node"><title>Node4</title>
<polygon fill="white" stroke="#bfbfbf" points="422.615,-67.5 422.615,-86.5 474.615,-86.5 474.615,-67.5 422.615,-67.5"/>
<text text-anchor="middle" x="448.615" y="-74.5" font-family="Helvetica,sans-Serif" font-size="10.00">memory</text>
</g>
<!-- Node2&#45;&gt;Node4 -->
<g id="edge3" class="edge"><title>Node2&#45;&gt;Node4</title>
<path fill="none" stroke="midnightblue" d="M283.193,-184.773C326.025,-178.659 411.778,-164.083 432.615,-143 444.476,-130.999 448.03,-111.704 448.884,-97.2476"/>
<polygon fill="midnightblue" stroke="midnightblue" points="452.39,-96.9937 449.097,-86.9235 445.392,-96.849 452.39,-96.9937"/>
</g>
<!-- Node5 -->
<g id="node5" class="node"><title>Node5</title>
<polygon fill="white" stroke="#bfbfbf" points="68.1154,-6 68.1154,-25 109.115,-25 109.115,-6 68.1154,-6"/>
<text text-anchor="middle" x="88.6154" y="-13" font-family="Helvetica,sans-Serif" font-size="10.00">string</text>
</g>
<!-- Node2&#45;&gt;Node5 -->
<g id="edge4" class="edge"><title>Node2&#45;&gt;Node5</title>
<path fill="none" stroke="midnightblue" d="M249.951,-179.26C222.891,-151.96 139.665,-68 104.53,-32.5546"/>
<polygon fill="midnightblue" stroke="midnightblue" points="106.586,-29.6575 97.0602,-25.0194 101.614,-34.5854 106.586,-29.6575"/>
</g>
<!-- Node6 -->
<g id="node6" class="node"><title>Node6</title>
<polygon fill="white" stroke="#bfbfbf" points="649.615,-6 649.615,-25 693.615,-25 693.615,-6 649.615,-6"/>
<text text-anchor="middle" x="671.615" y="-13" font-family="Helvetica,sans-Serif" font-size="10.00">vector</text>
</g>
<!-- Node2&#45;&gt;Node6 -->
<g id="edge5" class="edge"><title>Node2&#45;&gt;Node6</title>
<path fill="none" stroke="midnightblue" d="M265.203,-179.438C283.234,-156.702 336.036,-94.6624 395.615,-67 495.439,-20.6525 535.207,-62.6508 640.615,-31 642.493,-30.4361 644.402,-29.7767 646.303,-29.0557"/>
<polygon fill="midnightblue" stroke="midnightblue" points="647.74,-32.2477 655.556,-25.0951 644.986,-25.8124 647.74,-32.2477"/>
</g>
<!-- Node7 -->
<g id="node7" class="node"><title>Node7</title>
<polygon fill="white" stroke="#bfbfbf" points="493.115,-67.5 493.115,-86.5 610.115,-86.5 610.115,-67.5 493.115,-67.5"/>
<text text-anchor="middle" x="551.615" y="-74.5" font-family="Helvetica,sans-Serif" font-size="10.00">boost/noncopyable.hpp</text>
</g>
<!-- Node2&#45;&gt;Node7 -->
<g id="edge6" class="edge"><title>Node2&#45;&gt;Node7</title>
<path fill="none" stroke="midnightblue" d="M283.373,-185.101C321.118,-180.06 394.766,-167.762 452.615,-143 482.967,-130.008 514.192,-107.742 533.254,-92.947"/>
<polygon fill="midnightblue" stroke="midnightblue" points="535.673,-95.496 541.343,-86.5464 531.329,-90.0065 535.673,-95.496"/>
</g>
<!-- Node8 -->
<g id="node8" class="node"><title>Node8</title>
<g id="a_node8"><a xlink:href="element_8h.xhtml" target="_top" xlink:title="Helper classes, structs, and properties common to all other classes. ">
<polygon fill="white" stroke="black" points="243.115,-67.5 243.115,-86.5 302.115,-86.5 302.115,-67.5 243.115,-67.5"/>
<text text-anchor="middle" x="272.615" y="-74.5" font-family="Helvetica,sans-Serif" font-size="10.00">element.h</text>
</a>
</g>
</g>
<!-- Node2&#45;&gt;Node8 -->
<g id="edge7" class="edge"><title>Node2&#45;&gt;Node8</title>
<path fill="none" stroke="midnightblue" d="M259.714,-179.368C261.973,-161.617 267.185,-120.666 270.248,-96.5974"/>
<polygon fill="midnightblue" stroke="midnightblue" points="273.731,-96.9533 271.522,-86.5914 266.787,-96.0695 273.731,-96.9533"/>
</g>
<!-- Node12 -->
<g id="node12" class="node"><title>Node12</title>
<g id="a_node12"><a xlink:href="error_8h.xhtml" target="_top" xlink:title="Exceptions for SCRAM. ">
<polygon fill="white" stroke="black" points="20.6154,-123.5 20.6154,-142.5 64.6154,-142.5 64.6154,-123.5 20.6154,-123.5"/>
<text text-anchor="middle" x="42.6154" y="-130.5" font-family="Helvetica,sans-Serif" font-size="10.00">error.h</text>
</a>
</g>
</g>
<!-- Node2&#45;&gt;Node12 -->
<g id="edge14" class="edge"><title>Node2&#45;&gt;Node12</title>
<path fill="none" stroke="midnightblue" d="M233.837,-181.806C194.546,-171.983 117.966,-152.838 74.5886,-141.993"/>
<polygon fill="midnightblue" stroke="midnightblue" points="75.3828,-138.584 64.8325,-139.554 73.685,-145.375 75.3828,-138.584"/>
</g>
<!-- Node14 -->
<g id="node14" class="node"><title>Node14</title>
<g id="a_node14"><a xlink:href="expression_8h.xhtml" target="_top" xlink:title="Provides the base class for all expressions and units for expression values. ">
<polygon fill="white" stroke="black" points="351.615,-123.5 351.615,-142.5 423.615,-142.5 423.615,-123.5 351.615,-123.5"/>
<text text-anchor="middle" x="387.615" y="-130.5" font-family="Helvetica,sans-Serif" font-size="10.00">expression.h</text>
</a>
</g>
</g>
<!-- Node2&#45;&gt;Node14 -->
<g id="edge17" class="edge"><title>Node2&#45;&gt;Node14</title>
<path fill="none" stroke="midnightblue" d="M279.056,-179.444C300.286,-170.557 333.714,-156.563 357.87,-146.451"/>
<polygon fill="midnightblue" stroke="midnightblue" points="359.398,-149.606 367.271,-142.516 356.695,-143.149 359.398,-149.606"/>
</g>
<!-- Node8&#45;&gt;Node3 -->
<g id="edge8" class="edge"><title>Node8&#45;&gt;Node3</title>
<path fill="none" stroke="midnightblue" d="M255.136,-67.4751C234.752,-57.5338 200.84,-40.9947 177.191,-29.461"/>
<polygon fill="midnightblue" stroke="midnightblue" points="178.585,-26.2468 168.063,-25.0091 175.516,-32.5385 178.585,-26.2468"/>
</g>
<!-- Node8&#45;&gt;Node5 -->
<g id="edge9" class="edge"><title>Node8&#45;&gt;Node5</title>
<path fill="none" stroke="midnightblue" d="M242.898,-68.8803C211.525,-61.0034 160.86,-47.2521 118.615,-31 117.232,-30.4677 115.825,-29.8968 114.413,-29.3001"/>
<polygon fill="midnightblue" stroke="midnightblue" points="115.77,-26.0728 105.217,-25.1294 112.879,-32.4477 115.77,-26.0728"/>
</g>
<!-- Node8&#45;&gt;Node6 -->
<g id="edge10" class="edge"><title>Node8&#45;&gt;Node6</title>
<path fill="none" stroke="midnightblue" d="M302.371,-69.5313C307.122,-68.6089 311.994,-67.7278 316.615,-67 459.737,-44.4593 501.137,-70.2156 640.615,-31 642.546,-30.4572 644.506,-29.8056 646.455,-29.0831"/>
<polygon fill="midnightblue" stroke="midnightblue" points="648.079,-32.1955 655.909,-25.0579 645.337,-25.7548 648.079,-32.1955"/>
</g>
<!-- Node9 -->
<g id="node9" class="node"><title>Node9</title>
<polygon fill="white" stroke="#bfbfbf" points="328.115,-6 328.115,-25 485.115,-25 485.115,-6 328.115,-6"/>
<text text-anchor="middle" x="406.615" y="-13" font-family="Helvetica,sans-Serif" font-size="10.00">boost/multi_index_container.hpp</text>
</g>
<!-- Node8&#45;&gt;Node9 -->
<g id="edge11" class="edge"><title>Node8&#45;&gt;Node9</title>
<path fill="none" stroke="midnightblue" d="M291.814,-67.4751C314.402,-57.4455 352.114,-40.7002 378.116,-29.1546"/>
<polygon fill="midnightblue" stroke="midnightblue" points="379.733,-32.2662 387.452,-25.0091 376.892,-25.8685 379.733,-32.2662"/>
</g>
<!-- Node10 -->
<g id="node10" class="node"><title>Node10</title>
<polygon fill="white" stroke="#bfbfbf" points="503.615,-0.5 503.615,-30.5 631.615,-30.5 631.615,-0.5 503.615,-0.5"/>
<text text-anchor="start" x="511.615" y="-18.5" font-family="Helvetica,sans-Serif" font-size="10.00">boost/multi_index/hashed</text>
<text text-anchor="middle" x="567.615" y="-7.5" font-family="Helvetica,sans-Serif" font-size="10.00">_index.hpp</text>
</g>
<!-- Node8&#45;&gt;Node10 -->
<g id="edge12" class="edge"><title>Node8&#45;&gt;Node10</title>
<path fill="none" stroke="midnightblue" d="M302.435,-69.8871C307.178,-68.9186 312.031,-67.9301 316.615,-67 376.015,-54.9496 443.348,-41.4091 493.31,-31.3847"/>
<polygon fill="midnightblue" stroke="midnightblue" points="494.265,-34.763 503.381,-29.3645 492.888,-27.8997 494.265,-34.763"/>
</g>
<!-- Node11 -->
<g id="node11" class="node"><title>Node11</title>
<polygon fill="white" stroke="#bfbfbf" points="191.615,-0.5 191.615,-30.5 309.615,-30.5 309.615,-0.5 191.615,-0.5"/>
<text text-anchor="start" x="199.615" y="-18.5" font-family="Helvetica,sans-Serif" font-size="10.00">boost/multi_index/mem</text>
<text text-anchor="middle" x="250.615" y="-7.5" font-family="Helvetica,sans-Serif" font-size="10.00">_fun.hpp</text>
</g>
<!-- Node8&#45;&gt;Node11 -->
<g id="edge13" class="edge"><title>Node8&#45;&gt;Node11</title>
<path fill="none" stroke="midnightblue" d="M269.463,-67.4751C266.818,-60.3204 262.909,-49.7483 259.336,-40.0841"/>
<polygon fill="midnightblue" stroke="midnightblue" points="262.551,-38.6885 255.8,-30.523 255.986,-41.1162 262.551,-38.6885"/>
</g>
<!-- Node12&#45;&gt;Node5 -->
<g id="edge16" class="edge"><title>Node12&#45;&gt;Node5</title>
<path fill="none" stroke="midnightblue" d="M30.9908,-123.453C15.6741,-111.095 -8.03539,-87.4738 3.61536,-67 15.308,-46.4526 39.0227,-33.3972 58.4391,-25.7197"/>
<polygon fill="midnightblue" stroke="midnightblue" points="59.6473,-29.0046 67.8335,-22.2788 57.2398,-22.4317 59.6473,-29.0046"/>
</g>
<!-- Node13 -->
<g id="node13" class="node"><title>Node13</title>
<polygon fill="white" stroke="#bfbfbf" points="13.1154,-67.5 13.1154,-86.5 72.1154,-86.5 72.1154,-67.5 13.1154,-67.5"/>
<text text-anchor="middle" x="42.6154" y="-74.5" font-family="Helvetica,sans-Serif" font-size="10.00">exception</text>
</g>
<!-- Node12&#45;&gt;Node13 -->
<g id="edge15" class="edge"><title>Node12&#45;&gt;Node13</title>
<path fill="none" stroke="midnightblue" d="M42.6154,-123.083C42.6154,-116.006 42.6154,-105.861 42.6154,-96.9865"/>
<polygon fill="midnightblue" stroke="midnightblue" points="46.1155,-96.751 42.6154,-86.7511 39.1155,-96.7511 46.1155,-96.751"/>
</g>
<!-- Node14&#45;&gt;Node3 -->
<g id="edge18" class="edge"><title>Node14&#45;&gt;Node3</title>
<path fill="none" stroke="midnightblue" d="M351.423,-125.889C319.125,-119.42 271.255,-107.281 233.615,-87 206.969,-72.6427 181.191,-48.6712 165.615,-32.7252"/>
<polygon fill="midnightblue" stroke="midnightblue" points="167.884,-30.0328 158.45,-25.2114 162.818,-34.8637 167.884,-30.0328"/>
</g>
<!-- Node14&#45;&gt;Node4 -->
<g id="edge19" class="edge"><title>Node14&#45;&gt;Node4</title>
<path fill="none" stroke="midnightblue" d="M397.416,-123.324C406.433,-115.341 420.021,-103.313 430.933,-93.6529"/>
<polygon fill="midnightblue" stroke="midnightblue" points="433.469,-96.083 438.636,-86.8339 428.829,-90.8416 433.469,-96.083"/>
</g>
<!-- Node14&#45;&gt;Node6 -->
<g id="edge20" class="edge"><title>Node14&#45;&gt;Node6</title>
<path fill="none" stroke="midnightblue" d="M388.422,-123.242C390.229,-109.027 395.949,-81.1053 413.615,-67 493.442,-3.26383 542.95,-60.933 640.615,-31 642.49,-30.4254 644.396,-29.7581 646.295,-29.0314"/>
<polygon fill="midnightblue" stroke="midnightblue" points="647.738,-32.2209 655.545,-25.0583 644.975,-25.7892 647.738,-32.2209"/>
</g>
<!-- Node14&#45;&gt;Node7 -->
<g id="edge21" class="edge"><title>Node14&#45;&gt;Node7</title>
<path fill="none" stroke="midnightblue" d="M413.602,-123.444C441.311,-114.32 485.368,-99.8133 516.231,-89.6509"/>
<polygon fill="midnightblue" stroke="midnightblue" points="517.347,-92.9684 525.751,-86.5164 515.158,-86.3196 517.347,-92.9684"/>
</g>
<!-- Node14&#45;&gt;Node8 -->
<g id="edge22" class="edge"><title>Node14&#45;&gt;Node8</title>
<path fill="none" stroke="midnightblue" d="M369.393,-123.444C350.72,-114.675 321.459,-100.935 299.998,-90.8579"/>
<polygon fill="midnightblue" stroke="midnightblue" points="301.292,-87.5988 290.752,-86.5164 298.316,-93.935 301.292,-87.5988"/>
</g>
<!-- Node16&#45;&gt;Node2 -->
<g id="edge31" class="edge"><title>Node16&#45;&gt;Node2</title>
<path fill="none" stroke="midnightblue" d="M431.133,-235.444C393.408,-225.506 331.446,-209.185 292.95,-199.044"/>
<polygon fill="midnightblue" stroke="midnightblue" points="293.787,-195.645 283.225,-196.483 292.004,-202.415 293.787,-195.645"/>
</g>
<!-- Node16&#45;&gt;Node4 -->
<g id="edge25" class="edge"><title>Node16&#45;&gt;Node4</title>
<path fill="none" stroke="midnightblue" d="M471.288,-235.459C478.394,-226.927 488.469,-213.088 492.615,-199 495.125,-190.473 494.429,-187.702 492.615,-179 486.17,-148.067 469.72,-114.997 458.862,-95.4296"/>
<polygon fill="midnightblue" stroke="midnightblue" points="461.77,-93.4641 453.776,-86.511 455.689,-96.9317 461.77,-93.4641"/>
</g>
<!-- Node16&#45;&gt;Node5 -->
<g id="edge26" class="edge"><title>Node16&#45;&gt;Node5</title>
<path fill="none" stroke="midnightblue" d="M429.518,-236.958C426.174,-236.288 422.83,-235.625 419.615,-235 333.106,-218.169 299.912,-244.799 224.615,-199 157.961,-158.458 113.226,-71.8979 96.246,-34.4169"/>
<polygon fill="midnightblue" stroke="midnightblue" points="99.4318,-32.9666 92.1978,-25.2257 93.0256,-35.7882 99.4318,-32.9666"/>
</g>
<!-- Node16&#45;&gt;Node6 -->
<g id="edge28" class="edge"><title>Node16&#45;&gt;Node6</title>
<path fill="none" stroke="midnightblue" d="M478.19,-235.381C491.745,-227.002 512.121,-213.453 527.615,-199 585.075,-145.401 638.425,-67.7705 660.682,-33.6636"/>
<polygon fill="midnightblue" stroke="midnightblue" points="663.628,-35.5534 666.113,-25.254 657.748,-31.756 663.628,-35.5534"/>
</g>
<!-- Node16&#45;&gt;Node7 -->
<g id="edge29" class="edge"><title>Node16&#45;&gt;Node7</title>
<path fill="none" stroke="midnightblue" d="M474.357,-235.37C484.186,-226.982 498.54,-213.428 507.615,-199 528.463,-165.856 541.382,-121.416 547.461,-96.6576"/>
<polygon fill="midnightblue" stroke="midnightblue" points="550.902,-97.3133 549.777,-86.7784 544.087,-95.7156 550.902,-97.3133"/>
</g>
<!-- Node16&#45;&gt;Node8 -->
<g id="edge30" class="edge"><title>Node16&#45;&gt;Node8</title>
<path fill="none" stroke="midnightblue" d="M452.772,-235.27C431.401,-217.995 382.456,-178.082 342.615,-143 323.887,-126.509 302.992,-106.948 288.947,-93.6232"/>
<polygon fill="midnightblue" stroke="midnightblue" points="291.193,-90.9292 281.537,-86.5687 286.366,-95.999 291.193,-90.9292"/>
</g>
<!-- Node16&#45;&gt;Node14 -->
<g id="edge32" class="edge"><title>Node16&#45;&gt;Node14</title>
<path fill="none" stroke="midnightblue" d="M457.652,-235.368C445.11,-217.215 415.806,-174.802 399.354,-150.99"/>
<polygon fill="midnightblue" stroke="midnightblue" points="402.115,-148.829 393.551,-142.591 396.356,-152.808 402.115,-148.829"/>
</g>
<!-- Node17 -->
<g id="node17" class="node"><title>Node17</title>
<polygon fill="white" stroke="#bfbfbf" points="443.615,-179.5 443.615,-198.5 483.615,-198.5 483.615,-179.5 443.615,-179.5"/>
<text text-anchor="middle" x="463.615" y="-186.5" font-family="Helvetica,sans-Serif" font-size="10.00">utility</text>
</g>
<!-- Node16&#45;&gt;Node17 -->
<g id="edge27" class="edge"><title>Node16&#45;&gt;Node17</title>
<path fill="none" stroke="midnightblue" d="M463.615,-235.083C463.615,-228.006 463.615,-217.861 463.615,-208.986"/>
<polygon fill="midnightblue" stroke="midnightblue" points="467.115,-208.751 463.615,-198.751 460.115,-208.751 467.115,-208.751"/>
</g>
</g>
</svg>
