<?xml version="1.0" encoding="UTF-8" standalone="no"?>
<!DOCTYPE svg PUBLIC "-//W3C//DTD SVG 1.1//EN"
 "http://www.w3.org/Graphics/SVG/1.1/DTD/svg11.dtd">
<!-- Generated by graphviz version 2.38.0 (20140413.2041)
 -->
<!-- Title: exponential.cc Pages: 1 -->
<!--zoomable 263 -->
<svg id="main" version="1.1" xmlns="http://www.w3.org/2000/svg" xmlns:xlink="http://www.w3.org/1999/xlink" xml:space="preserve" onload="init(evt)">
<style type="text/css"><![CDATA[
.edge:hover path { stroke: red; }
.edge:hover polygon { stroke: red; fill: red; }
]]></style>
<script type="text/javascript"><![CDATA[
var edges = document.getElementsByTagName('g');
if (edges && edges.length) {
  for (var i=0;i<edges.length;i++) {
    if (edges[i].id.substr(0,4)=='edge') {
      edges[i].setAttribute('class','edge');
    }
  }
}
]]></script>
        <defs>
                <circle id="rim" cx="0" cy="0" r="7"/>
                <circle id="rim2" cx="0" cy="0" r="3.5"/>
                <g id="zoomPlus">
                        <use xlink:href="#rim" fill="#404040">
                                <set attributeName="fill" to="#808080" begin="zoomplus.mouseover" end="zoomplus.mouseout"/>
                        </use>
                        <path d="M-4,0h8M0,-4v8" fill="none" stroke="white" stroke-width="1.5" pointer-events="none"/>
                </g>
                <g id="zoomMin">
                        <use xlink:href="#rim" fill="#404040">
                                <set attributeName="fill" to="#808080" begin="zoomminus.mouseover" end="zoomminus.mouseout"/>
                        </use>
                        <path d="M-4,0h8" fill="none" stroke="white" stroke-width="1.5" pointer-events="none"/>
                </g>
                <g id="dirArrow">
                        <path fill="none" stroke="white" stroke-width="1.5" d="M0,-3.0v7 M-2.5,-0.5L0,-3.0L2.5,-0.5"/>
                </g>
               <g id="resetDef">
                       <use xlink:href="#rim2" fill="#404040">
                               <set attributeName="fill" to="#808080" begin="reset.mouseover" end="reset.mouseout"/>
                       </use>
               </g>
        </defs>

<script type="text/javascript">
var viewWidth = 778;
var viewHeight = 263;
var sectionId = 'dynsection-0';
</script>
<script xlink:href="svgpan.js"/>
<svg id="graph" class="graph">
<g id="viewport">
<title>exponential.cc</title>
<polygon fill="white" stroke="none" points="-4,4 -4,-259 773.5,-259 773.5,4 -4,4"/>
<!-- Node1 -->
<g id="node1" class="node"><title>Node1</title>
<polygon fill="#bfbfbf" stroke="black" points="253,-235.5 253,-254.5 333,-254.5 333,-235.5 253,-235.5"/>
<text text-anchor="middle" x="293" y="-242.5" font-family="Helvetica,sans-Serif" font-size="10.00">exponential.cc</text>
</g>
<!-- Node2 -->
<g id="node2" class="node"><title>Node2</title>
<g id="a_node2"><a xlink:href="exponential_8h.xhtml" target="_top" xlink:title="Expressions and distributions that are described with exponential formulas. ">
<polygon fill="white" stroke="black" points="198,-179.5 198,-198.5 272,-198.5 272,-179.5 198,-179.5"/>
<text text-anchor="middle" x="235" y="-186.5" font-family="Helvetica,sans-Serif" font-size="10.00">exponential.h</text>
</a>
</g>
</g>
<!-- Node1&#45;&gt;Node2 -->
<g id="edge1" class="edge"><title>Node1&#45;&gt;Node2</title>
<path fill="none" stroke="midnightblue" d="M283.681,-235.324C275.107,-227.341 262.188,-215.313 251.812,-205.653"/>
<polygon fill="midnightblue" stroke="midnightblue" points="254.192,-203.086 244.488,-198.834 249.422,-208.21 254.192,-203.086"/>
</g>
<!-- Node14 -->
<g id="node14" class="node"><title>Node14</title>
<g id="a_node14"><a xlink:href="error_8h.xhtml" target="_top" xlink:title="Exceptions for SCRAM. ">
<polygon fill="white" stroke="black" points="540.5,-179.5 540.5,-198.5 601.5,-198.5 601.5,-179.5 540.5,-179.5"/>
<text text-anchor="middle" x="571" y="-186.5" font-family="Helvetica,sans-Serif" font-size="10.00">src/error.h</text>
</a>
</g>
</g>
<!-- Node1&#45;&gt;Node14 -->
<g id="edge15" class="edge"><title>Node1&#45;&gt;Node14</title>
<path fill="none" stroke="midnightblue" d="M333.127,-236.206C385.707,-225.992 477.424,-208.177 530.292,-197.907"/>
<polygon fill="midnightblue" stroke="midnightblue" points="531.175,-201.301 540.324,-195.959 529.84,-194.43 531.175,-201.301"/>
</g>
<!-- Node3 -->
<g id="node3" class="node"><title>Node3</title>
<polygon fill="white" stroke="#bfbfbf" points="129,-123.5 129,-142.5 173,-142.5 173,-123.5 129,-123.5"/>
<text text-anchor="middle" x="151" y="-130.5" font-family="Helvetica,sans-Serif" font-size="10.00">cmath</text>
</g>
<!-- Node2&#45;&gt;Node3 -->
<g id="edge2" class="edge"><title>Node2&#45;&gt;Node3</title>
<path fill="none" stroke="midnightblue" d="M221.504,-179.324C208.4,-170.9 188.288,-157.971 172.893,-148.074"/>
<polygon fill="midnightblue" stroke="midnightblue" points="174.767,-145.118 164.463,-142.655 170.982,-151.006 174.767,-145.118"/>
</g>
<!-- Node4 -->
<g id="node4" class="node"><title>Node4</title>
<g id="a_node4"><a xlink:href="expression_8h.xhtml" target="_top" xlink:title="Provides the base class for all expressions and units for expression values. ">
<polygon fill="white" stroke="black" points="190.5,-123.5 190.5,-142.5 279.5,-142.5 279.5,-123.5 190.5,-123.5"/>
<text text-anchor="middle" x="235" y="-130.5" font-family="Helvetica,sans-Serif" font-size="10.00">src/expression.h</text>
</a>
</g>
</g>
<!-- Node2&#45;&gt;Node4 -->
<g id="edge3" class="edge"><title>Node2&#45;&gt;Node4</title>
<path fill="none" stroke="midnightblue" d="M235,-179.083C235,-172.006 235,-161.861 235,-152.986"/>
<polygon fill="midnightblue" stroke="midnightblue" points="238.5,-152.751 235,-142.751 231.5,-152.751 238.5,-152.751"/>
</g>
<!-- Node5 -->
<g id="node5" class="node"><title>Node5</title>
<polygon fill="white" stroke="#bfbfbf" points="145,-6 145,-25 191,-25 191,-6 145,-6"/>
<text text-anchor="middle" x="168" y="-13" font-family="Helvetica,sans-Serif" font-size="10.00">cstdint</text>
</g>
<!-- Node4&#45;&gt;Node5 -->
<g id="edge4" class="edge"><title>Node4&#45;&gt;Node5</title>
<path fill="none" stroke="midnightblue" d="M229.964,-123.319C219.003,-104.422 192.798,-59.2483 178.221,-34.1206"/>
<polygon fill="midnightblue" stroke="midnightblue" points="181.14,-32.1758 173.094,-25.282 175.085,-35.6882 181.14,-32.1758"/>
</g>
<!-- Node6 -->
<g id="node6" class="node"><title>Node6</title>
<polygon fill="white" stroke="#bfbfbf" points="0,-67.5 0,-86.5 52,-86.5 52,-67.5 0,-67.5"/>
<text text-anchor="middle" x="26" y="-74.5" font-family="Helvetica,sans-Serif" font-size="10.00">memory</text>
</g>
<!-- Node4&#45;&gt;Node6 -->
<g id="edge5" class="edge"><title>Node4&#45;&gt;Node6</title>
<path fill="none" stroke="midnightblue" d="M201.883,-123.444C163.659,-113.567 101.026,-97.3846 61.7288,-87.2314"/>
<polygon fill="midnightblue" stroke="midnightblue" points="62.5861,-83.838 52.0285,-84.7251 60.835,-90.6154 62.5861,-83.838"/>
</g>
<!-- Node7 -->
<g id="node7" class="node"><title>Node7</title>
<polygon fill="white" stroke="#bfbfbf" points="209,-6 209,-25 253,-25 253,-6 209,-6"/>
<text text-anchor="middle" x="231" y="-13" font-family="Helvetica,sans-Serif" font-size="10.00">vector</text>
</g>
<!-- Node4&#45;&gt;Node7 -->
<g id="edge6" class="edge"><title>Node4&#45;&gt;Node7</title>
<path fill="none" stroke="midnightblue" d="M234.699,-123.319C234.057,-104.757 232.536,-60.8391 231.657,-35.4734"/>
<polygon fill="midnightblue" stroke="midnightblue" points="235.148,-35.1548 231.304,-25.282 228.152,-35.3972 235.148,-35.1548"/>
</g>
<!-- Node8 -->
<g id="node8" class="node"><title>Node8</title>
<polygon fill="white" stroke="#bfbfbf" points="70.5,-67.5 70.5,-86.5 187.5,-86.5 187.5,-67.5 70.5,-67.5"/>
<text text-anchor="middle" x="129" y="-74.5" font-family="Helvetica,sans-Serif" font-size="10.00">boost/noncopyable.hpp</text>
</g>
<!-- Node4&#45;&gt;Node8 -->
<g id="edge7" class="edge"><title>Node4&#45;&gt;Node8</title>
<path fill="none" stroke="midnightblue" d="M217.969,-123.324C200.97,-114.664 174.624,-101.242 155.007,-91.249"/>
<polygon fill="midnightblue" stroke="midnightblue" points="156.488,-88.0752 145.988,-86.6545 153.31,-94.3125 156.488,-88.0752"/>
</g>
<!-- Node9 -->
<g id="node9" class="node"><title>Node9</title>
<g id="a_node9"><a xlink:href="element_8h.xhtml" target="_top" xlink:title="Helper classes, structs, and properties common to all other classes. ">
<polygon fill="white" stroke="black" points="305.5,-67.5 305.5,-86.5 364.5,-86.5 364.5,-67.5 305.5,-67.5"/>
<text text-anchor="middle" x="335" y="-74.5" font-family="Helvetica,sans-Serif" font-size="10.00">element.h</text>
</a>
</g>
</g>
<!-- Node4&#45;&gt;Node9 -->
<g id="edge8" class="edge"><title>Node4&#45;&gt;Node9</title>
<path fill="none" stroke="midnightblue" d="M251.067,-123.324C266.958,-114.743 291.507,-101.486 309.958,-91.5224"/>
<polygon fill="midnightblue" stroke="midnightblue" points="311.837,-94.4857 318.973,-86.6545 308.511,-88.3264 311.837,-94.4857"/>
</g>
<!-- Node9&#45;&gt;Node5 -->
<g id="edge9" class="edge"><title>Node9&#45;&gt;Node5</title>
<path fill="none" stroke="midnightblue" d="M306.511,-67.4479C278.977,-58.9614 236.227,-45.2013 200,-31 198.58,-30.4435 197.133,-29.8574 195.676,-29.2528"/>
<polygon fill="midnightblue" stroke="midnightblue" points="196.703,-25.8831 186.137,-25.1118 193.916,-32.3042 196.703,-25.8831"/>
</g>
<!-- Node9&#45;&gt;Node7 -->
<g id="edge11" class="edge"><title>Node9&#45;&gt;Node7</title>
<path fill="none" stroke="midnightblue" d="M320.099,-67.4751C303.032,-57.7106 274.839,-41.5807 254.738,-30.0808"/>
<polygon fill="midnightblue" stroke="midnightblue" points="256.291,-26.9371 245.873,-25.0091 252.815,-33.013 256.291,-26.9371"/>
</g>
<!-- Node10 -->
<g id="node10" class="node"><title>Node10</title>
<polygon fill="white" stroke="#bfbfbf" points="728.5,-6 728.5,-25 769.5,-25 769.5,-6 728.5,-6"/>
<text text-anchor="middle" x="749" y="-13" font-family="Helvetica,sans-Serif" font-size="10.00">string</text>
</g>
<!-- Node9&#45;&gt;Node10 -->
<g id="edge10" class="edge"><title>Node9&#45;&gt;Node10</title>
<path fill="none" stroke="midnightblue" d="M364.675,-75.9961C430.214,-75.2447 591.674,-69.2942 720,-31 721.669,-30.502 723.358,-29.9126 725.038,-29.2612"/>
<polygon fill="midnightblue" stroke="midnightblue" points="726.681,-32.3596 734.356,-25.0563 723.802,-25.9791 726.681,-32.3596"/>
</g>
<!-- Node11 -->
<g id="node11" class="node"><title>Node11</title>
<polygon fill="white" stroke="#bfbfbf" points="553.5,-6 553.5,-25 710.5,-25 710.5,-6 553.5,-6"/>
<text text-anchor="middle" x="632" y="-13" font-family="Helvetica,sans-Serif" font-size="10.00">boost/multi_index_container.hpp</text>
</g>
<!-- Node9&#45;&gt;Node11 -->
<g id="edge12" class="edge"><title>Node9&#45;&gt;Node11</title>
<path fill="none" stroke="midnightblue" d="M364.563,-70.0774C414.668,-60.0396 516.905,-39.5577 579.444,-27.0289"/>
<polygon fill="midnightblue" stroke="midnightblue" points="580.386,-30.4098 589.504,-25.0135 579.011,-23.5461 580.386,-30.4098"/>
</g>
<!-- Node12 -->
<g id="node12" class="node"><title>Node12</title>
<polygon fill="white" stroke="#bfbfbf" points="271,-0.5 271,-30.5 399,-30.5 399,-0.5 271,-0.5"/>
<text text-anchor="start" x="279" y="-18.5" font-family="Helvetica,sans-Serif" font-size="10.00">boost/multi_index/hashed</text>
<text text-anchor="middle" x="335" y="-7.5" font-family="Helvetica,sans-Serif" font-size="10.00">_index.hpp</text>
</g>
<!-- Node9&#45;&gt;Node12 -->
<g id="edge13" class="edge"><title>Node9&#45;&gt;Node12</title>
<path fill="none" stroke="midnightblue" d="M335,-67.4751C335,-60.471 335,-50.1919 335,-40.6956"/>
<polygon fill="midnightblue" stroke="midnightblue" points="338.5,-40.5229 335,-30.523 331.5,-40.523 338.5,-40.5229"/>
</g>
<!-- Node13 -->
<g id="node13" class="node"><title>Node13</title>
<polygon fill="white" stroke="#bfbfbf" points="417,-0.5 417,-30.5 535,-30.5 535,-0.5 417,-0.5"/>
<text text-anchor="start" x="425" y="-18.5" font-family="Helvetica,sans-Serif" font-size="10.00">boost/multi_index/mem</text>
<text text-anchor="middle" x="476" y="-7.5" font-family="Helvetica,sans-Serif" font-size="10.00">_fun.hpp</text>
</g>
<!-- Node9&#45;&gt;Node13 -->
<g id="edge14" class="edge"><title>Node9&#45;&gt;Node13</title>
<path fill="none" stroke="midnightblue" d="M355.202,-67.4751C375.548,-58.8895 407.555,-45.3827 433.512,-34.4291"/>
<polygon fill="midnightblue" stroke="midnightblue" points="434.917,-37.6356 442.769,-30.523 432.195,-31.1863 434.917,-37.6356"/>
</g>
<!-- Node14&#45;&gt;Node10 -->
<g id="edge17" class="edge"><title>Node14&#45;&gt;Node10</title>
<path fill="none" stroke="midnightblue" d="M571.674,-179.172C573.084,-165.831 577.35,-140.258 590,-123 608.365,-97.9437 684.746,-52.6631 724.581,-30.0767"/>
<polygon fill="midnightblue" stroke="midnightblue" points="726.414,-33.0616 733.409,-25.1042 722.978,-26.9627 726.414,-33.0616"/>
</g>
<!-- Node15 -->
<g id="node15" class="node"><title>Node15</title>
<polygon fill="white" stroke="#bfbfbf" points="599.5,-123.5 599.5,-142.5 658.5,-142.5 658.5,-123.5 599.5,-123.5"/>
<text text-anchor="middle" x="629" y="-130.5" font-family="Helvetica,sans-Serif" font-size="10.00">exception</text>
</g>
<!-- Node14&#45;&gt;Node15 -->
<g id="edge16" class="edge"><title>Node14&#45;&gt;Node15</title>
<path fill="none" stroke="midnightblue" d="M580.319,-179.324C588.893,-171.341 601.812,-159.313 612.188,-149.653"/>
<polygon fill="midnightblue" stroke="midnightblue" points="614.578,-152.21 619.512,-142.834 609.808,-147.086 614.578,-152.21"/>
</g>
</g>
</svg>
        <g id="navigator" transform="translate(0 0)" fill="#404254">
                <rect fill="#f2f5e9" fill-opacity="0.5" stroke="#606060" stroke-width=".5" x="0" y="0" width="60" height="60"/>
                <use id="zoomplus" xlink:href="#zoomPlus" x="17" y="9" onmousedown="handleZoom(evt,'in')"/>
                <use id="zoomminus" xlink:href="#zoomMin" x="42" y="9" onmousedown="handleZoom(evt,'out')"/>
                <use id="reset" xlink:href="#resetDef" x="30" y="36" onmousedown="handleReset()"/>
                <g id="arrowUp" xlink:href="#dirArrow" transform="translate(30 24)" onmousedown="handlePan(0,-1)">
                  <use xlink:href="#rim" fill="#404040">
                        <set attributeName="fill" to="#808080" begin="arrowUp.mouseover" end="arrowUp.mouseout"/>
                  </use>
                  <path fill="none" stroke="white" stroke-width="1.5" d="M0,-3.0v7 M-2.5,-0.5L0,-3.0L2.5,-0.5"/>
                </g>
                <g id="arrowRight" xlink:href="#dirArrow" transform="rotate(90) translate(36 -43)" onmousedown="handlePan(1,0)">
                  <use xlink:href="#rim" fill="#404040">
                        <set attributeName="fill" to="#808080" begin="arrowRight.mouseover" end="arrowRight.mouseout"/>
                  </use>
                  <path fill="none" stroke="white" stroke-width="1.5" d="M0,-3.0v7 M-2.5,-0.5L0,-3.0L2.5,-0.5"/>
                </g>
                <g id="arrowDown" xlink:href="#dirArrow" transform="rotate(180) translate(-30 -48)" onmousedown="handlePan(0,1)">
                  <use xlink:href="#rim" fill="#404040">
                        <set attributeName="fill" to="#808080" begin="arrowDown.mouseover" end="arrowDown.mouseout"/>
                  </use>
                  <path fill="none" stroke="white" stroke-width="1.5" d="M0,-3.0v7 M-2.5,-0.5L0,-3.0L2.5,-0.5"/>
                </g>
                <g id="arrowLeft" xlink:href="#dirArrow" transform="rotate(270) translate(-36 17)" onmousedown="handlePan(-1,0)">
                  <use xlink:href="#rim" fill="#404040">
                        <set attributeName="fill" to="#808080" begin="arrowLeft.mouseover" end="arrowLeft.mouseout"/>
                  </use>
                  <path fill="none" stroke="white" stroke-width="1.5" d="M0,-3.0v7 M-2.5,-0.5L0,-3.0L2.5,-0.5"/>
                </g>
        </g>
        <svg viewBox="0 0 15 15" width="100%" height="30px" preserveAspectRatio="xMaxYMin meet">
         <g id="arrow_out" transform="scale(0.3 0.3)">
          <a xlink:href="exponential_8cc__incl_org.svg" target="_base">
           <rect id="button" ry="5" rx="5" y="6" x="6" height="38" width="38"
                fill="#f2f5e9" fill-opacity="0.5" stroke="#606060" stroke-width="1.0"/>
           <path id="arrow"
             d="M 11.500037,31.436501 C 11.940474,20.09759 22.043105,11.32322 32.158766,21.979434 L 37.068811,17.246167 C 37.068811,17.246167 37.088388,32 37.088388,32 L 22.160133,31.978069 C 22.160133,31.978069 26.997745,27.140456 26.997745,27.140456 C 18.528582,18.264221 13.291696,25.230495 11.500037,31.436501 z"
             style="fill:#404040;"/>
          </a>
         </g>
        </svg>
</svg>
