<?xml version="1.0" encoding="UTF-8" standalone="no"?>
<!DOCTYPE svg PUBLIC "-//W3C//DTD SVG 1.1//EN"
 "http://www.w3.org/Graphics/SVG/1.1/DTD/svg11.dtd">
<!-- Generated by graphviz version 2.38.0 (20140413.2041)
 -->
<!-- Title: exponential.h Pages: 1 -->
<svg width="633pt" height="207pt"
 viewBox="0.00 0.00 632.50 207.00" xmlns="http://www.w3.org/2000/svg" xmlns:xlink="http://www.w3.org/1999/xlink">
<g id="graph0" class="graph" transform="scale(1 1) rotate(0) translate(4 203)">
<title>exponential.h</title>
<polygon fill="white" stroke="none" points="-4,4 -4,-203 628.5,-203 628.5,4 -4,4"/>
<!-- Node1 -->
<g id="node1" class="node"><title>Node1</title>
<polygon fill="#bfbfbf" stroke="black" points="99,-179.5 99,-198.5 173,-198.5 173,-179.5 99,-179.5"/>
<text text-anchor="middle" x="136" y="-186.5" font-family="Helvetica,sans-Serif" font-size="10.00">exponential.h</text>
</g>
<!-- Node2 -->
<g id="node2" class="node"><title>Node2</title>
<polygon fill="white" stroke="#bfbfbf" points="72,-123.5 72,-142.5 116,-142.5 116,-123.5 72,-123.5"/>
<text text-anchor="middle" x="94" y="-130.5" font-family="Helvetica,sans-Serif" font-size="10.00">cmath</text>
</g>
<!-- Node1&#45;&gt;Node2 -->
<g id="edge1" class="edge"><title>Node1&#45;&gt;Node2</title>
<path fill="none" stroke="midnightblue" d="M129.065,-179.083C123.071,-171.377 114.248,-160.033 106.952,-150.653"/>
<polygon fill="midnightblue" stroke="midnightblue" points="109.709,-148.496 100.806,-142.751 104.183,-152.793 109.709,-148.496"/>
</g>
<!-- Node3 -->
<g id="node3" class="node"><title>Node3</title>
<g id="a_node3"><a xlink:href="expression_8h.xhtml" target="_top" xlink:title="Provides the base class for all expressions and units for expression values. ">
<polygon fill="white" stroke="black" points="133.5,-123.5 133.5,-142.5 222.5,-142.5 222.5,-123.5 133.5,-123.5"/>
<text text-anchor="middle" x="178" y="-130.5" font-family="Helvetica,sans-Serif" font-size="10.00">src/expression.h</text>
</a>
</g>
</g>
<!-- Node1&#45;&gt;Node3 -->
<g id="edge2" class="edge"><title>Node1&#45;&gt;Node3</title>
<path fill="none" stroke="midnightblue" d="M142.935,-179.083C148.929,-171.377 157.752,-160.033 165.048,-150.653"/>
<polygon fill="midnightblue" stroke="midnightblue" points="167.817,-152.793 171.194,-142.751 162.291,-148.496 167.817,-152.793"/>
</g>
<!-- Node4 -->
<g id="node4" class="node"><title>Node4</title>
<polygon fill="white" stroke="#bfbfbf" points="0,-6 0,-25 46,-25 46,-6 0,-6"/>
<text text-anchor="middle" x="23" y="-13" font-family="Helvetica,sans-Serif" font-size="10.00">cstdint</text>
</g>
<!-- Node3&#45;&gt;Node4 -->
<g id="edge3" class="edge"><title>Node3&#45;&gt;Node4</title>
<path fill="none" stroke="midnightblue" d="M166.35,-123.319C140.093,-103.753 76.0317,-56.0172 43.1695,-31.5295"/>
<polygon fill="midnightblue" stroke="midnightblue" points="44.8953,-28.4507 34.7854,-25.282 40.7127,-34.0637 44.8953,-28.4507"/>
</g>
<!-- Node5 -->
<g id="node5" class="node"><title>Node5</title>
<polygon fill="white" stroke="#bfbfbf" points="226,-67.5 226,-86.5 278,-86.5 278,-67.5 226,-67.5"/>
<text text-anchor="middle" x="252" y="-74.5" font-family="Helvetica,sans-Serif" font-size="10.00">memory</text>
</g>
<!-- Node3&#45;&gt;Node5 -->
<g id="edge4" class="edge"><title>Node3&#45;&gt;Node5</title>
<path fill="none" stroke="midnightblue" d="M189.889,-123.324C201.15,-115.107 218.287,-102.602 231.709,-92.8069"/>
<polygon fill="midnightblue" stroke="midnightblue" points="233.88,-95.5559 239.894,-86.8339 229.753,-89.9014 233.88,-95.5559"/>
</g>
<!-- Node6 -->
<g id="node6" class="node"><title>Node6</title>
<polygon fill="white" stroke="#bfbfbf" points="64,-6 64,-25 108,-25 108,-6 64,-6"/>
<text text-anchor="middle" x="86" y="-13" font-family="Helvetica,sans-Serif" font-size="10.00">vector</text>
</g>
<!-- Node3&#45;&gt;Node6 -->
<g id="edge5" class="edge"><title>Node3&#45;&gt;Node6</title>
<path fill="none" stroke="midnightblue" d="M170.045,-123.191C162.029,-114.23 149.393,-99.8686 139,-87 124.636,-69.2147 109,-48.196 98.4612,-33.7642"/>
<polygon fill="midnightblue" stroke="midnightblue" points="101.045,-31.3657 92.3361,-25.3319 95.3814,-35.4797 101.045,-31.3657"/>
</g>
<!-- Node7 -->
<g id="node7" class="node"><title>Node7</title>
<polygon fill="white" stroke="#bfbfbf" points="296.5,-67.5 296.5,-86.5 413.5,-86.5 413.5,-67.5 296.5,-67.5"/>
<text text-anchor="middle" x="355" y="-74.5" font-family="Helvetica,sans-Serif" font-size="10.00">boost/noncopyable.hpp</text>
</g>
<!-- Node3&#45;&gt;Node7 -->
<g id="edge6" class="edge"><title>Node3&#45;&gt;Node7</title>
<path fill="none" stroke="midnightblue" d="M206.046,-123.444C236.082,-114.28 283.913,-99.6876 317.243,-89.5192"/>
<polygon fill="midnightblue" stroke="midnightblue" points="318.542,-92.7822 327.085,-86.5164 316.499,-86.0869 318.542,-92.7822"/>
</g>
<!-- Node8 -->
<g id="node8" class="node"><title>Node8</title>
<g id="a_node8"><a xlink:href="element_8h.xhtml" target="_top" xlink:title="Helper classes, structs, and properties common to all other classes. ">
<polygon fill="white" stroke="black" points="148.5,-67.5 148.5,-86.5 207.5,-86.5 207.5,-67.5 148.5,-67.5"/>
<text text-anchor="middle" x="178" y="-74.5" font-family="Helvetica,sans-Serif" font-size="10.00">element.h</text>
</a>
</g>
</g>
<!-- Node3&#45;&gt;Node8 -->
<g id="edge7" class="edge"><title>Node3&#45;&gt;Node8</title>
<path fill="none" stroke="midnightblue" d="M178,-123.083C178,-116.006 178,-105.861 178,-96.9865"/>
<polygon fill="midnightblue" stroke="midnightblue" points="181.5,-96.751 178,-86.7511 174.5,-96.7511 181.5,-96.751"/>
</g>
<!-- Node8&#45;&gt;Node4 -->
<g id="edge8" class="edge"><title>Node8&#45;&gt;Node4</title>
<path fill="none" stroke="midnightblue" d="M152.819,-67.4067C127.809,-58.727 88.4654,-44.6814 55,-31 53.5886,-30.423 52.1476,-29.8204 50.6964,-29.2027"/>
<polygon fill="midnightblue" stroke="midnightblue" points="51.737,-25.837 41.1738,-25.0187 48.9211,-32.2457 51.737,-25.837"/>
</g>
<!-- Node8&#45;&gt;Node6 -->
<g id="edge10" class="edge"><title>Node8&#45;&gt;Node6</title>
<path fill="none" stroke="midnightblue" d="M164.819,-67.4751C149.926,-57.8431 125.456,-42.0175 107.727,-30.5517"/>
<polygon fill="midnightblue" stroke="midnightblue" points="109.455,-27.5008 99.1569,-25.0091 105.653,-33.3787 109.455,-27.5008"/>
</g>
<!-- Node9 -->
<g id="node9" class="node"><title>Node9</title>
<polygon fill="white" stroke="#bfbfbf" points="408.5,-6 408.5,-25 449.5,-25 449.5,-6 408.5,-6"/>
<text text-anchor="middle" x="429" y="-13" font-family="Helvetica,sans-Serif" font-size="10.00">string</text>
</g>
<!-- Node8&#45;&gt;Node9 -->
<g id="edge9" class="edge"><title>Node8&#45;&gt;Node9</title>
<path fill="none" stroke="midnightblue" d="M207.789,-69.0239C210.896,-68.3266 214.01,-67.6405 217,-67 297.627,-49.7273 320.801,-57.1534 399,-31 400.622,-30.4576 402.269,-29.8471 403.914,-29.1914"/>
<polygon fill="midnightblue" stroke="midnightblue" points="405.404,-32.3595 413.124,-25.1028 402.564,-25.9617 405.404,-32.3595"/>
</g>
<!-- Node10 -->
<g id="node10" class="node"><title>Node10</title>
<polygon fill="white" stroke="#bfbfbf" points="467.5,-6 467.5,-25 624.5,-25 624.5,-6 467.5,-6"/>
<text text-anchor="middle" x="546" y="-13" font-family="Helvetica,sans-Serif" font-size="10.00">boost/multi_index_container.hpp</text>
</g>
<!-- Node8&#45;&gt;Node10 -->
<g id="edge11" class="edge"><title>Node8&#45;&gt;Node10</title>
<path fill="none" stroke="midnightblue" d="M207.759,-68.8771C210.872,-68.2085 213.996,-67.5691 217,-67 323.839,-46.7586 351.588,-47.9389 459,-31 467.682,-29.6309 476.844,-28.1467 485.835,-26.668"/>
<polygon fill="midnightblue" stroke="midnightblue" points="486.583,-30.0919 495.878,-25.0072 485.441,-23.1857 486.583,-30.0919"/>
</g>
<!-- Node11 -->
<g id="node11" class="node"><title>Node11</title>
<polygon fill="white" stroke="#bfbfbf" points="126,-0.5 126,-30.5 254,-30.5 254,-0.5 126,-0.5"/>
<text text-anchor="start" x="134" y="-18.5" font-family="Helvetica,sans-Serif" font-size="10.00">boost/multi_index/hashed</text>
<text text-anchor="middle" x="190" y="-7.5" font-family="Helvetica,sans-Serif" font-size="10.00">_index.hpp</text>
</g>
<!-- Node8&#45;&gt;Node11 -->
<g id="edge12" class="edge"><title>Node8&#45;&gt;Node11</title>
<path fill="none" stroke="midnightblue" d="M179.719,-67.4751C181.147,-60.3957 183.25,-49.9705 185.182,-40.3896"/>
<polygon fill="midnightblue" stroke="midnightblue" points="188.626,-41.0176 187.172,-30.523 181.764,-39.6336 188.626,-41.0176"/>
</g>
<!-- Node12 -->
<g id="node12" class="node"><title>Node12</title>
<polygon fill="white" stroke="#bfbfbf" points="272,-0.5 272,-30.5 390,-30.5 390,-0.5 272,-0.5"/>
<text text-anchor="start" x="280" y="-18.5" font-family="Helvetica,sans-Serif" font-size="10.00">boost/multi_index/mem</text>
<text text-anchor="middle" x="331" y="-7.5" font-family="Helvetica,sans-Serif" font-size="10.00">_fun.hpp</text>
</g>
<!-- Node8&#45;&gt;Node12 -->
<g id="edge13" class="edge"><title>Node8&#45;&gt;Node12</title>
<path fill="none" stroke="midnightblue" d="M199.921,-67.4751C222.095,-58.8518 257.035,-45.2641 285.267,-34.2852"/>
<polygon fill="midnightblue" stroke="midnightblue" points="286.889,-37.4095 294.941,-30.523 284.352,-30.8855 286.889,-37.4095"/>
</g>
</g>
</svg>
