<?xml version="1.0" encoding="UTF-8" standalone="no"?>
<!DOCTYPE svg PUBLIC "-//W3C//DTD SVG 1.1//EN"
 "http://www.w3.org/Graphics/SVG/1.1/DTD/svg11.dtd">
<!-- Generated by graphviz version 2.38.0 (20140413.2041)
 -->
<!-- Title: expression.cc Pages: 1 -->
<!--zoomable 218 -->
<svg id="main" version="1.1" xmlns="http://www.w3.org/2000/svg" xmlns:xlink="http://www.w3.org/1999/xlink" xml:space="preserve" onload="init(evt)">
<style type="text/css"><![CDATA[
.edge:hover path { stroke: red; }
.edge:hover polygon { stroke: red; fill: red; }
]]></style>
<script type="text/javascript"><![CDATA[
var edges = document.getElementsByTagName('g');
if (edges && edges.length) {
  for (var i=0;i<edges.length;i++) {
    if (edges[i].id.substr(0,4)=='edge') {
      edges[i].setAttribute('class','edge');
    }
  }
}
]]></script>
        <defs>
                <circle id="rim" cx="0" cy="0" r="7"/>
                <circle id="rim2" cx="0" cy="0" r="3.5"/>
                <g id="zoomPlus">
                        <use xlink:href="#rim" fill="#404040">
                                <set attributeName="fill" to="#808080" begin="zoomplus.mouseover" end="zoomplus.mouseout"/>
                        </use>
                        <path d="M-4,0h8M0,-4v8" fill="none" stroke="white" stroke-width="1.5" pointer-events="none"/>
                </g>
                <g id="zoomMin">
                        <use xlink:href="#rim" fill="#404040">
                                <set attributeName="fill" to="#808080" begin="zoomminus.mouseover" end="zoomminus.mouseout"/>
                        </use>
                        <path d="M-4,0h8" fill="none" stroke="white" stroke-width="1.5" pointer-events="none"/>
                </g>
                <g id="dirArrow">
                        <path fill="none" stroke="white" stroke-width="1.5" d="M0,-3.0v7 M-2.5,-0.5L0,-3.0L2.5,-0.5"/>
                </g>
               <g id="resetDef">
                       <use xlink:href="#rim2" fill="#404040">
                               <set attributeName="fill" to="#808080" begin="reset.mouseover" end="reset.mouseout"/>
                       </use>
               </g>
        </defs>

<script type="text/javascript">
var viewWidth = 763;
var viewHeight = 218;
var sectionId = 'dynsection-0';
</script>
<script xlink:href="svgpan.js"/>
<svg id="graph" class="graph">
<g id="viewport">
<title>expression.cc</title>
<polygon fill="white" stroke="none" points="-4,4 -4,-214 759,-214 759,4 -4,4"/>
<!-- Node1 -->
<g id="node1" class="node"><title>Node1</title>
<polygon fill="#bfbfbf" stroke="black" points="451.5,-190.5 451.5,-209.5 528.5,-209.5 528.5,-190.5 451.5,-190.5"/>
<text text-anchor="middle" x="490" y="-197.5" font-family="Helvetica,sans-Serif" font-size="10.00">expression.cc</text>
</g>
<!-- Node2 -->
<g id="node2" class="node"><title>Node2</title>
<g id="a_node2"><a xlink:href="expression_8h.xhtml" target="_top" xlink:title="Provides the base class for all expressions and units for expression values. ">
<polygon fill="white" stroke="black" points="384,-134.5 384,-153.5 456,-153.5 456,-134.5 384,-134.5"/>
<text text-anchor="middle" x="420" y="-141.5" font-family="Helvetica,sans-Serif" font-size="10.00">expression.h</text>
</a>
</g>
</g>
<!-- Node1&#45;&gt;Node2 -->
<g id="edge1" class="edge"><title>Node1&#45;&gt;Node2</title>
<path fill="none" stroke="midnightblue" d="M478.753,-190.324C468.203,-182.185 452.199,-169.839 439.558,-160.087"/>
<polygon fill="midnightblue" stroke="midnightblue" points="441.507,-157.171 431.451,-153.834 437.231,-162.713 441.507,-157.171"/>
</g>
<!-- Node12 -->
<g id="node12" class="node"><title>Node12</title>
<g id="a_node12"><a xlink:href="ext_8h.xhtml" target="_top" xlink:title="Helpful facilities as an extension to the standard library or Boost. ">
<polygon fill="white" stroke="black" points="557,-134.5 557,-153.5 595,-153.5 595,-134.5 557,-134.5"/>
<text text-anchor="middle" x="576" y="-141.5" font-family="Helvetica,sans-Serif" font-size="10.00">ext.h</text>
</a>
</g>
</g>
<!-- Node1&#45;&gt;Node12 -->
<g id="edge13" class="edge"><title>Node1&#45;&gt;Node12</title>
<path fill="none" stroke="midnightblue" d="M503.817,-190.324C517.233,-181.9 537.824,-168.971 553.586,-159.074"/>
<polygon fill="midnightblue" stroke="midnightblue" points="555.609,-161.936 562.217,-153.655 551.887,-156.008 555.609,-161.936"/>
</g>
<!-- Node3 -->
<g id="node3" class="node"><title>Node3</title>
<polygon fill="white" stroke="#bfbfbf" points="579,-6 579,-25 625,-25 625,-6 579,-6"/>
<text text-anchor="middle" x="602" y="-13" font-family="Helvetica,sans-Serif" font-size="10.00">cstdint</text>
</g>
<!-- Node2&#45;&gt;Node3 -->
<g id="edge2" class="edge"><title>Node2&#45;&gt;Node3</title>
<path fill="none" stroke="midnightblue" d="M426.291,-134.459C437.862,-119.23 463.922,-87.1044 492,-67 493.81,-65.7042 541.428,-43.9936 573.413,-29.4646"/>
<polygon fill="midnightblue" stroke="midnightblue" points="575.111,-32.5377 582.769,-25.2168 572.217,-26.1639 575.111,-32.5377"/>
</g>
<!-- Node4 -->
<g id="node4" class="node"><title>Node4</title>
<polygon fill="white" stroke="#bfbfbf" points="501,-73 501,-92 553,-92 553,-73 501,-73"/>
<text text-anchor="middle" x="527" y="-80" font-family="Helvetica,sans-Serif" font-size="10.00">memory</text>
</g>
<!-- Node2&#45;&gt;Node4 -->
<g id="edge3" class="edge"><title>Node2&#45;&gt;Node4</title>
<path fill="none" stroke="midnightblue" d="M435.33,-134.475C452.97,-124.666 482.16,-108.435 502.858,-96.925"/>
<polygon fill="midnightblue" stroke="midnightblue" points="504.659,-99.9279 511.698,-92.0091 501.257,-93.8102 504.659,-99.9279"/>
</g>
<!-- Node5 -->
<g id="node5" class="node"><title>Node5</title>
<polygon fill="white" stroke="#bfbfbf" points="0,-6 0,-25 44,-25 44,-6 0,-6"/>
<text text-anchor="middle" x="22" y="-13" font-family="Helvetica,sans-Serif" font-size="10.00">vector</text>
</g>
<!-- Node2&#45;&gt;Node5 -->
<g id="edge4" class="edge"><title>Node2&#45;&gt;Node5</title>
<path fill="none" stroke="midnightblue" d="M383.721,-134.958C347.36,-126.646 289.911,-112.826 241,-98 156.111,-72.2681 135.045,-64.7181 53,-31 51.6261,-30.4354 50.2249,-29.8427 48.8148,-29.2329"/>
<polygon fill="midnightblue" stroke="midnightblue" points="50.1315,-25.9874 39.576,-25.0749 47.2586,-32.3707 50.1315,-25.9874"/>
</g>
<!-- Node6 -->
<g id="node6" class="node"><title>Node6</title>
<polygon fill="white" stroke="#bfbfbf" points="327.5,-73 327.5,-92 444.5,-92 444.5,-73 327.5,-73"/>
<text text-anchor="middle" x="386" y="-80" font-family="Helvetica,sans-Serif" font-size="10.00">boost/noncopyable.hpp</text>
</g>
<!-- Node2&#45;&gt;Node6 -->
<g id="edge5" class="edge"><title>Node2&#45;&gt;Node6</title>
<path fill="none" stroke="midnightblue" d="M415.129,-134.475C410.13,-125.727 402.211,-111.869 395.891,-100.809"/>
<polygon fill="midnightblue" stroke="midnightblue" points="398.863,-98.955 390.862,-92.0091 392.785,-102.428 398.863,-98.955"/>
</g>
<!-- Node7 -->
<g id="node7" class="node"><title>Node7</title>
<g id="a_node7"><a xlink:href="element_8h.xhtml" target="_top" xlink:title="Helper classes, structs, and properties common to all other classes. ">
<polygon fill="white" stroke="black" points="250.5,-73 250.5,-92 309.5,-92 309.5,-73 250.5,-73"/>
<text text-anchor="middle" x="280" y="-80" font-family="Helvetica,sans-Serif" font-size="10.00">element.h</text>
</a>
</g>
</g>
<!-- Node2&#45;&gt;Node7 -->
<g id="edge6" class="edge"><title>Node2&#45;&gt;Node7</title>
<path fill="none" stroke="midnightblue" d="M399.941,-134.475C376.238,-124.401 336.594,-107.553 309.417,-96.0023"/>
<polygon fill="midnightblue" stroke="midnightblue" points="310.594,-92.6994 300.021,-92.0091 307.856,-99.1417 310.594,-92.6994"/>
</g>
<!-- Node7&#45;&gt;Node3 -->
<g id="edge7" class="edge"><title>Node7&#45;&gt;Node3</title>
<path fill="none" stroke="midnightblue" d="M299.844,-72.9734C305.614,-70.7565 311.984,-68.5567 318,-67 427.529,-38.6575 461.385,-62.6653 570,-31 571.932,-30.4367 573.898,-29.7776 575.857,-29.0569"/>
<polygon fill="midnightblue" stroke="midnightblue" points="577.506,-32.1619 585.402,-25.0969 574.824,-25.6963 577.506,-32.1619"/>
</g>
<!-- Node7&#45;&gt;Node5 -->
<g id="edge9" class="edge"><title>Node7&#45;&gt;Node5</title>
<path fill="none" stroke="midnightblue" d="M250.414,-77.0431C206.539,-69.961 121.984,-54.4905 53,-31 51.3373,-30.4338 49.6452,-29.805 47.9527,-29.1356"/>
<polygon fill="midnightblue" stroke="midnightblue" points="49.0226,-25.7845 38.456,-25.0113 46.2341,-32.2052 49.0226,-25.7845"/>
</g>
<!-- Node8 -->
<g id="node8" class="node"><title>Node8</title>
<polygon fill="white" stroke="#bfbfbf" points="62.5,-6 62.5,-25 103.5,-25 103.5,-6 62.5,-6"/>
<text text-anchor="middle" x="83" y="-13" font-family="Helvetica,sans-Serif" font-size="10.00">string</text>
</g>
<!-- Node7&#45;&gt;Node8 -->
<g id="edge8" class="edge"><title>Node7&#45;&gt;Node8</title>
<path fill="none" stroke="midnightblue" d="M250.344,-74.2362C216.363,-65.5364 159.274,-49.7627 112,-31 110.793,-30.5211 109.569,-30.0108 108.339,-29.4787"/>
<polygon fill="midnightblue" stroke="midnightblue" points="109.575,-26.193 99.034,-25.1301 106.612,-32.5347 109.575,-26.193"/>
</g>
<!-- Node9 -->
<g id="node9" class="node"><title>Node9</title>
<polygon fill="white" stroke="#bfbfbf" points="121.5,-6 121.5,-25 278.5,-25 278.5,-6 121.5,-6"/>
<text text-anchor="middle" x="200" y="-13" font-family="Helvetica,sans-Serif" font-size="10.00">boost/multi_index_container.hpp</text>
</g>
<!-- Node7&#45;&gt;Node9 -->
<g id="edge10" class="edge"><title>Node7&#45;&gt;Node9</title>
<path fill="none" stroke="midnightblue" d="M269.211,-72.7338C256.256,-62.208 234.313,-44.3793 218.606,-31.6174"/>
<polygon fill="midnightblue" stroke="midnightblue" points="220.586,-28.7169 210.618,-25.1273 216.172,-34.1497 220.586,-28.7169"/>
</g>
<!-- Node10 -->
<g id="node10" class="node"><title>Node10</title>
<polygon fill="white" stroke="#bfbfbf" points="297,-0.5 297,-30.5 425,-30.5 425,-0.5 297,-0.5"/>
<text text-anchor="start" x="305" y="-18.5" font-family="Helvetica,sans-Serif" font-size="10.00">boost/multi_index/hashed</text>
<text text-anchor="middle" x="361" y="-7.5" font-family="Helvetica,sans-Serif" font-size="10.00">_index.hpp</text>
</g>
<!-- Node7&#45;&gt;Node10 -->
<g id="edge11" class="edge"><title>Node7&#45;&gt;Node10</title>
<path fill="none" stroke="midnightblue" d="M290.924,-72.7338C302.292,-63.6115 320.495,-49.0038 335.5,-36.9631"/>
<polygon fill="midnightblue" stroke="midnightblue" points="337.834,-39.5775 343.443,-30.589 333.453,-34.118 337.834,-39.5775"/>
</g>
<!-- Node11 -->
<g id="node11" class="node"><title>Node11</title>
<polygon fill="white" stroke="#bfbfbf" points="443,-0.5 443,-30.5 561,-30.5 561,-0.5 443,-0.5"/>
<text text-anchor="start" x="451" y="-18.5" font-family="Helvetica,sans-Serif" font-size="10.00">boost/multi_index/mem</text>
<text text-anchor="middle" x="502" y="-7.5" font-family="Helvetica,sans-Serif" font-size="10.00">_fun.hpp</text>
</g>
<!-- Node7&#45;&gt;Node11 -->
<g id="edge12" class="edge"><title>Node7&#45;&gt;Node11</title>
<path fill="none" stroke="midnightblue" d="M301.574,-72.8538C306.907,-70.8313 312.631,-68.7565 318,-67 356.562,-54.3835 400.345,-42.2795 435.525,-33.0856"/>
<polygon fill="midnightblue" stroke="midnightblue" points="436.409,-36.4724 445.208,-30.5717 434.649,-29.697 436.409,-36.4724"/>
</g>
<!-- Node12&#45;&gt;Node4 -->
<g id="edge15" class="edge"><title>Node12&#45;&gt;Node4</title>
<path fill="none" stroke="midnightblue" d="M568.979,-134.475C561.557,-125.462 549.667,-111.025 540.433,-99.8118"/>
<polygon fill="midnightblue" stroke="midnightblue" points="543.066,-97.5034 534.007,-92.0091 537.663,-101.953 543.066,-97.5034"/>
</g>
<!-- Node13 -->
<g id="node13" class="node"><title>Node13</title>
<polygon fill="white" stroke="#bfbfbf" points="699,-73 699,-92 755,-92 755,-73 699,-73"/>
<text text-anchor="middle" x="727" y="-80" font-family="Helvetica,sans-Serif" font-size="10.00">algorithm</text>
</g>
<!-- Node12&#45;&gt;Node13 -->
<g id="edge14" class="edge"><title>Node12&#45;&gt;Node13</title>
<path fill="none" stroke="midnightblue" d="M595.124,-135.464C620.364,-125.519 665.134,-107.878 695.431,-95.9396"/>
<polygon fill="midnightblue" stroke="midnightblue" points="697.081,-99.0514 705.101,-92.129 694.514,-92.5387 697.081,-99.0514"/>
</g>
<!-- Node14 -->
<g id="node14" class="node"><title>Node14</title>
<polygon fill="white" stroke="#bfbfbf" points="571,-67.5 571,-97.5 681,-97.5 681,-67.5 571,-67.5"/>
<text text-anchor="start" x="579" y="-85.5" font-family="Helvetica,sans-Serif" font-size="10.00">boost/range/algorithm</text>
<text text-anchor="middle" x="626" y="-74.5" font-family="Helvetica,sans-Serif" font-size="10.00">/find_if.hpp</text>
</g>
<!-- Node12&#45;&gt;Node14 -->
<g id="edge16" class="edge"><title>Node12&#45;&gt;Node14</title>
<path fill="none" stroke="midnightblue" d="M583.164,-134.475C589.556,-126.869 599.194,-115.399 607.71,-105.265"/>
<polygon fill="midnightblue" stroke="midnightblue" points="610.462,-107.43 614.216,-97.523 605.103,-102.927 610.462,-107.43"/>
</g>
</g>
</svg>
        <g id="navigator" transform="translate(0 0)" fill="#404254">
                <rect fill="#f2f5e9" fill-opacity="0.5" stroke="#606060" stroke-width=".5" x="0" y="0" width="60" height="60"/>
                <use id="zoomplus" xlink:href="#zoomPlus" x="17" y="9" onmousedown="handleZoom(evt,'in')"/>
                <use id="zoomminus" xlink:href="#zoomMin" x="42" y="9" onmousedown="handleZoom(evt,'out')"/>
                <use id="reset" xlink:href="#resetDef" x="30" y="36" onmousedown="handleReset()"/>
                <g id="arrowUp" xlink:href="#dirArrow" transform="translate(30 24)" onmousedown="handlePan(0,-1)">
                  <use xlink:href="#rim" fill="#404040">
                        <set attributeName="fill" to="#808080" begin="arrowUp.mouseover" end="arrowUp.mouseout"/>
                  </use>
                  <path fill="none" stroke="white" stroke-width="1.5" d="M0,-3.0v7 M-2.5,-0.5L0,-3.0L2.5,-0.5"/>
                </g>
                <g id="arrowRight" xlink:href="#dirArrow" transform="rotate(90) translate(36 -43)" onmousedown="handlePan(1,0)">
                  <use xlink:href="#rim" fill="#404040">
                        <set attributeName="fill" to="#808080" begin="arrowRight.mouseover" end="arrowRight.mouseout"/>
                  </use>
                  <path fill="none" stroke="white" stroke-width="1.5" d="M0,-3.0v7 M-2.5,-0.5L0,-3.0L2.5,-0.5"/>
                </g>
                <g id="arrowDown" xlink:href="#dirArrow" transform="rotate(180) translate(-30 -48)" onmousedown="handlePan(0,1)">
                  <use xlink:href="#rim" fill="#404040">
                        <set attributeName="fill" to="#808080" begin="arrowDown.mouseover" end="arrowDown.mouseout"/>
                  </use>
                  <path fill="none" stroke="white" stroke-width="1.5" d="M0,-3.0v7 M-2.5,-0.5L0,-3.0L2.5,-0.5"/>
                </g>
                <g id="arrowLeft" xlink:href="#dirArrow" transform="rotate(270) translate(-36 17)" onmousedown="handlePan(-1,0)">
                  <use xlink:href="#rim" fill="#404040">
                        <set attributeName="fill" to="#808080" begin="arrowLeft.mouseover" end="arrowLeft.mouseout"/>
                  </use>
                  <path fill="none" stroke="white" stroke-width="1.5" d="M0,-3.0v7 M-2.5,-0.5L0,-3.0L2.5,-0.5"/>
                </g>
        </g>
        <svg viewBox="0 0 15 15" width="100%" height="30px" preserveAspectRatio="xMaxYMin meet">
         <g id="arrow_out" transform="scale(0.3 0.3)">
          <a xlink:href="expression_8cc__incl_org.svg" target="_base">
           <rect id="button" ry="5" rx="5" y="6" x="6" height="38" width="38"
                fill="#f2f5e9" fill-opacity="0.5" stroke="#606060" stroke-width="1.0"/>
           <path id="arrow"
             d="M 11.500037,31.436501 C 11.940474,20.09759 22.043105,11.32322 32.158766,21.979434 L 37.068811,17.246167 C 37.068811,17.246167 37.088388,32 37.088388,32 L 22.160133,31.978069 C 22.160133,31.978069 26.997745,27.140456 26.997745,27.140456 C 18.528582,18.264221 13.291696,25.230495 11.500037,31.436501 z"
             style="fill:#404040;"/>
          </a>
         </g>
        </svg>
</svg>
