<?xml version="1.0" encoding="UTF-8" standalone="no"?>
<!DOCTYPE svg PUBLIC "-//W3C//DTD SVG 1.1//EN"
 "http://www.w3.org/Graphics/SVG/1.1/DTD/svg11.dtd">
<!-- Generated by graphviz version 2.38.0 (20140413.2041)
 -->
<!-- Title: ext.h Pages: 1 -->
<svg width="1062pt" height="476pt"
 viewBox="0.00 0.00 1062.30 476.00" xmlns="http://www.w3.org/2000/svg" xmlns:xlink="http://www.w3.org/1999/xlink">
<g id="graph0" class="graph" transform="scale(1 1) rotate(0) translate(4 472)">
<title>ext.h</title>
<polygon fill="white" stroke="none" points="-4,4 -4,-472 1058.3,-472 1058.3,4 -4,4"/>
<!-- Node1 -->
<g id="node1" class="node"><title>Node1</title>
<polygon fill="#bfbfbf" stroke="black" points="753.3,-448.5 753.3,-467.5 791.3,-467.5 791.3,-448.5 753.3,-448.5"/>
<text text-anchor="middle" x="772.3" y="-455.5" font-family="Helvetica,sans-Serif" font-size="10.00">ext.h</text>
</g>
<!-- Node2 -->
<g id="node2" class="node"><title>Node2</title>
<g id="a_node2"><a xlink:href="boolean__graph_8h.xhtml" target="_top" xlink:title="Classes and facilities to represent simplified fault trees as Boolean graphs with event and gate indi...">
<polygon fill="white" stroke="black" points="402.3,-392.5 402.3,-411.5 490.3,-411.5 490.3,-392.5 402.3,-392.5"/>
<text text-anchor="middle" x="446.3" y="-399.5" font-family="Helvetica,sans-Serif" font-size="10.00">boolean_graph.h</text>
</a>
</g>
</g>
<!-- Node1&#45;&gt;Node2 -->
<g id="edge1" class="edge"><title>Node1&#45;&gt;Node2</title>
<path fill="none" stroke="midnightblue" d="M742.661,-452.09C685.128,-442.56 558.055,-421.512 490.515,-410.324"/>
<polygon fill="midnightblue" stroke="midnightblue" points="742.446,-455.602 752.884,-453.784 743.59,-448.697 742.446,-455.602"/>
</g>
<!-- Node4 -->
<g id="node4" class="node"><title>Node4</title>
<g id="a_node4"><a xlink:href="bdd_8cc.xhtml" target="_top" xlink:title="Implementation of BDD fault tree analysis algorithms. ">
<polygon fill="white" stroke="black" points="549.3,-168.5 549.3,-187.5 595.3,-187.5 595.3,-168.5 549.3,-168.5"/>
<text text-anchor="middle" x="572.3" y="-175.5" font-family="Helvetica,sans-Serif" font-size="10.00">bdd.cc</text>
</a>
</g>
</g>
<!-- Node1&#45;&gt;Node4 -->
<g id="edge41" class="edge"><title>Node1&#45;&gt;Node4</title>
<path fill="none" stroke="midnightblue" d="M759.318,-439.734C732.284,-403.677 668.149,-317.617 616.3,-244 602.333,-224.169 586.517,-200.49 578.175,-187.903"/>
<polygon fill="midnightblue" stroke="midnightblue" points="756.839,-442.261 765.642,-448.157 762.438,-438.059 756.839,-442.261"/>
</g>
<!-- Node8 -->
<g id="node8" class="node"><title>Node8</title>
<g id="a_node8"><a xlink:href="risk__analysis_8cc.xhtml" target="_top" xlink:title="Implementation of risk analysis handler. ">
<polygon fill="white" stroke="black" points="579.8,-56.5 579.8,-75.5 666.8,-75.5 666.8,-56.5 579.8,-56.5"/>
<text text-anchor="middle" x="623.3" y="-63.5" font-family="Helvetica,sans-Serif" font-size="10.00">risk_analysis.cc</text>
</a>
</g>
</g>
<!-- Node1&#45;&gt;Node8 -->
<g id="edge46" class="edge"><title>Node1&#45;&gt;Node8</title>
<path fill="none" stroke="midnightblue" d="M777.763,-438.378C790.587,-391.286 818.941,-264.347 783.3,-168 763.811,-115.317 698.969,-87.9508 658.059,-75.5859"/>
<polygon fill="midnightblue" stroke="midnightblue" points="774.365,-437.532 775.02,-448.107 781.102,-439.432 774.365,-437.532"/>
</g>
<!-- Node9 -->
<g id="node9" class="node"><title>Node9</title>
<g id="a_node9"><a xlink:href="zbdd_8cc.xhtml" target="_top" xlink:title="Implementation of Zero&#45;Suppressed BDD algorithms. ">
<polygon fill="white" stroke="black" points="723.8,-168.5 723.8,-187.5 774.8,-187.5 774.8,-168.5 723.8,-168.5"/>
<text text-anchor="middle" x="749.3" y="-175.5" font-family="Helvetica,sans-Serif" font-size="10.00">zbdd.cc</text>
</a>
</g>
</g>
<!-- Node1&#45;&gt;Node9 -->
<g id="edge47" class="edge"><title>Node1&#45;&gt;Node9</title>
<path fill="none" stroke="midnightblue" d="M767.084,-438.39C761.459,-416.65 753.3,-379.511 753.3,-347 753.3,-347 753.3,-347 753.3,-289 753.3,-251.163 750.907,-206.052 749.823,-187.554"/>
<polygon fill="midnightblue" stroke="midnightblue" points="763.759,-439.502 769.738,-448.249 770.518,-437.683 763.759,-439.502"/>
</g>
<!-- Node24 -->
<g id="node24" class="node"><title>Node24</title>
<g id="a_node24"><a xlink:href="preprocessor_8cc.xhtml" target="_top" xlink:title="Implementation of preprocessing algorithms. ">
<polygon fill="white" stroke="black" points="119.3,-280.5 119.3,-299.5 205.3,-299.5 205.3,-280.5 119.3,-280.5"/>
<text text-anchor="middle" x="162.3" y="-287.5" font-family="Helvetica,sans-Serif" font-size="10.00">preprocessor.cc</text>
</a>
</g>
</g>
<!-- Node1&#45;&gt;Node24 -->
<g id="edge45" class="edge"><title>Node1&#45;&gt;Node24</title>
<path fill="none" stroke="midnightblue" d="M743.01,-455.373C678.969,-451.414 521.929,-439.509 393.3,-412 311.786,-394.567 283.116,-403.042 214.3,-356 192.11,-340.831 174.714,-313.391 166.86,-299.519"/>
<polygon fill="midnightblue" stroke="midnightblue" points="742.975,-458.877 753.167,-455.982 743.394,-451.89 742.975,-458.877"/>
</g>
<!-- Node25 -->
<g id="node25" class="node"><title>Node25</title>
<g id="a_node25"><a xlink:href="element_8cc.xhtml" target="_top" xlink:title="Implementation of helper features for all elements of the analysis. ">
<polygon fill="white" stroke="black" points="819.8,-392.5 819.8,-411.5 884.8,-411.5 884.8,-392.5 819.8,-392.5"/>
<text text-anchor="middle" x="852.3" y="-399.5" font-family="Helvetica,sans-Serif" font-size="10.00">element.cc</text>
</a>
</g>
</g>
<!-- Node1&#45;&gt;Node25 -->
<g id="edge42" class="edge"><title>Node1&#45;&gt;Node25</title>
<path fill="none" stroke="midnightblue" d="M793.601,-442.622C808.215,-432.757 827.127,-419.992 839.479,-411.655"/>
<polygon fill="midnightblue" stroke="midnightblue" points="791.484,-439.828 785.154,-448.324 795.4,-445.63 791.484,-439.828"/>
</g>
<!-- Node26 -->
<g id="node26" class="node"><title>Node26</title>
<g id="a_node26"><a xlink:href="expression_8cc.xhtml" target="_top" xlink:title="Implementation of the expression base class. ">
<polygon fill="white" stroke="black" points="902.8,-392.5 902.8,-411.5 979.8,-411.5 979.8,-392.5 902.8,-392.5"/>
<text text-anchor="middle" x="941.3" y="-399.5" font-family="Helvetica,sans-Serif" font-size="10.00">expression.cc</text>
</a>
</g>
</g>
<!-- Node1&#45;&gt;Node26 -->
<g id="edge43" class="edge"><title>Node1&#45;&gt;Node26</title>
<path fill="none" stroke="midnightblue" d="M800.953,-447.845C832.722,-437.694 883.562,-421.449 914.546,-411.549"/>
<polygon fill="midnightblue" stroke="midnightblue" points="799.818,-444.533 791.358,-450.91 801.949,-451.201 799.818,-444.533"/>
</g>
<!-- Node27 -->
<g id="node27" class="node"><title>Node27</title>
<g id="a_node27"><a xlink:href="model_8cc.xhtml" target="_top" xlink:title="Implementation of functions in Model class. ">
<polygon fill="white" stroke="black" points="998.3,-392.5 998.3,-411.5 1054.3,-411.5 1054.3,-392.5 998.3,-392.5"/>
<text text-anchor="middle" x="1026.3" y="-399.5" font-family="Helvetica,sans-Serif" font-size="10.00">model.cc</text>
</a>
</g>
</g>
<!-- Node1&#45;&gt;Node27 -->
<g id="edge44" class="edge"><title>Node1&#45;&gt;Node27</title>
<path fill="none" stroke="midnightblue" d="M801.376,-451.203C842.906,-442.865 921.571,-426.85 988.3,-412 991.477,-411.293 994.798,-410.535 998.098,-409.769"/>
<polygon fill="midnightblue" stroke="midnightblue" points="800.525,-447.804 791.408,-453.201 801.9,-454.668 800.525,-447.804"/>
</g>
<!-- Node3 -->
<g id="node3" class="node"><title>Node3</title>
<g id="a_node3"><a xlink:href="bdd_8h.xhtml" target="_top" xlink:title="Fault tree analysis with the Binary Decision Diagram algorithms. ">
<polygon fill="white" stroke="black" points="500.8,-280.5 500.8,-299.5 541.8,-299.5 541.8,-280.5 500.8,-280.5"/>
<text text-anchor="middle" x="521.3" y="-287.5" font-family="Helvetica,sans-Serif" font-size="10.00">bdd.h</text>
</a>
</g>
</g>
<!-- Node2&#45;&gt;Node3 -->
<g id="edge2" class="edge"><title>Node2&#45;&gt;Node3</title>
<path fill="none" stroke="midnightblue" d="M469.4,-386.784C480.453,-378.932 493.046,-368.281 501.3,-356 513.287,-338.166 518.339,-312.836 520.258,-299.683"/>
<polygon fill="midnightblue" stroke="midnightblue" points="467.314,-383.969 460.977,-392.46 471.226,-389.774 467.314,-383.969"/>
</g>
<!-- Node6 -->
<g id="node6" class="node"><title>Node6</title>
<g id="a_node6"><a xlink:href="mocus_8h.xhtml" target="_top" xlink:title="Fault tree analysis with the MOCUS algorithm. ">
<polygon fill="white" stroke="black" points="651.3,-168.5 651.3,-187.5 705.3,-187.5 705.3,-168.5 651.3,-168.5"/>
<text text-anchor="middle" x="678.3" y="-175.5" font-family="Helvetica,sans-Serif" font-size="10.00">mocus.h</text>
</a>
</g>
</g>
<!-- Node2&#45;&gt;Node6 -->
<g id="edge40" class="edge"><title>Node2&#45;&gt;Node6</title>
<path fill="none" stroke="midnightblue" d="M483.626,-388.923C538.6,-368.854 639.251,-322.84 680.3,-244 689.789,-225.774 684.775,-200.61 681.084,-187.585"/>
<polygon fill="midnightblue" stroke="midnightblue" points="482.17,-385.726 473.918,-392.371 484.512,-392.323 482.17,-385.726"/>
</g>
<!-- Node16 -->
<g id="node16" class="node"><title>Node16</title>
<g id="a_node16"><a xlink:href="probability__analysis_8h.xhtml" target="_top" xlink:title="Contains functionality to do numerical analysis of probabilities. ">
<polygon fill="white" stroke="black" points="259.3,-224.5 259.3,-243.5 369.3,-243.5 369.3,-224.5 259.3,-224.5"/>
<text text-anchor="middle" x="314.3" y="-231.5" font-family="Helvetica,sans-Serif" font-size="10.00">probability_analysis.h</text>
</a>
</g>
</g>
<!-- Node2&#45;&gt;Node16 -->
<g id="edge39" class="edge"><title>Node2&#45;&gt;Node16</title>
<path fill="none" stroke="midnightblue" d="M424.945,-386.479C413.847,-378.311 400.508,-367.467 390.3,-356 373.064,-336.637 333.316,-268.241 319.302,-243.78"/>
<polygon fill="midnightblue" stroke="midnightblue" points="423.091,-389.456 433.263,-392.418 427.158,-383.759 423.091,-389.456"/>
</g>
<!-- Node20 -->
<g id="node20" class="node"><title>Node20</title>
<g id="a_node20"><a xlink:href="boolean__graph_8cc.xhtml" target="_top" xlink:title="Implementation of indexed nodes, variables, gates, and the Boolean graph. ">
<polygon fill="white" stroke="black" points="399.8,-336.5 399.8,-355.5 492.8,-355.5 492.8,-336.5 399.8,-336.5"/>
<text text-anchor="middle" x="446.3" y="-343.5" font-family="Helvetica,sans-Serif" font-size="10.00">boolean_graph.cc</text>
</a>
</g>
</g>
<!-- Node2&#45;&gt;Node20 -->
<g id="edge30" class="edge"><title>Node2&#45;&gt;Node20</title>
<path fill="none" stroke="midnightblue" d="M446.3,-381.805C446.3,-372.91 446.3,-362.78 446.3,-355.751"/>
<polygon fill="midnightblue" stroke="midnightblue" points="442.8,-382.083 446.3,-392.083 449.8,-382.083 442.8,-382.083"/>
</g>
<!-- Node21 -->
<g id="node21" class="node"><title>Node21</title>
<g id="a_node21"><a xlink:href="fault__tree__analysis_8h.xhtml" target="_top" xlink:title="Fault Tree Analysis. ">
<polygon fill="white" stroke="black" points="223.8,-280.5 223.8,-299.5 330.8,-299.5 330.8,-280.5 223.8,-280.5"/>
<text text-anchor="middle" x="277.3" y="-287.5" font-family="Helvetica,sans-Serif" font-size="10.00">fault_tree_analysis.h</text>
</a>
</g>
</g>
<!-- Node2&#45;&gt;Node21 -->
<g id="edge31" class="edge"><title>Node2&#45;&gt;Node21</title>
<path fill="none" stroke="midnightblue" d="M417.231,-388.235C399.409,-379.943 376.422,-368.398 357.3,-356 329.972,-338.281 301.066,-312.903 286.639,-299.712"/>
<polygon fill="midnightblue" stroke="midnightblue" points="415.993,-391.518 426.543,-392.491 418.903,-385.151 415.993,-391.518"/>
</g>
<!-- Node23 -->
<g id="node23" class="node"><title>Node23</title>
<g id="a_node23"><a xlink:href="preprocessor_8h.xhtml" target="_top" xlink:title="A collection of Boolean graph preprocessing algorithms that simplify fault trees for analysis...">
<polygon fill="white" stroke="black" points="223.8,-336.5 223.8,-355.5 304.8,-355.5 304.8,-336.5 223.8,-336.5"/>
<text text-anchor="middle" x="264.3" y="-343.5" font-family="Helvetica,sans-Serif" font-size="10.00">preprocessor.h</text>
</a>
</g>
</g>
<!-- Node2&#45;&gt;Node23 -->
<g id="edge36" class="edge"><title>Node2&#45;&gt;Node23</title>
<path fill="none" stroke="midnightblue" d="M407.769,-389.568C373.436,-379.381 323.967,-364.703 293.004,-355.516"/>
<polygon fill="midnightblue" stroke="midnightblue" points="406.879,-392.954 417.462,-392.444 408.87,-386.244 406.879,-392.954"/>
</g>
<!-- Node3&#45;&gt;Node4 -->
<g id="edge3" class="edge"><title>Node3&#45;&gt;Node4</title>
<path fill="none" stroke="midnightblue" d="M529.646,-270.998C540.774,-246.997 560.028,-205.468 568.317,-187.591"/>
<polygon fill="midnightblue" stroke="midnightblue" points="526.333,-269.824 525.302,-280.368 532.684,-272.768 526.333,-269.824"/>
</g>
<!-- Node5 -->
<g id="node5" class="node"><title>Node5</title>
<g id="a_node5"><a xlink:href="zbdd_8h.xhtml" target="_top" xlink:title="Zero&#45;Suppressed Binary Decision Diagram facilities. ">
<polygon fill="white" stroke="black" points="625.3,-224.5 625.3,-243.5 671.3,-243.5 671.3,-224.5 625.3,-224.5"/>
<text text-anchor="middle" x="648.3" y="-231.5" font-family="Helvetica,sans-Serif" font-size="10.00">zbdd.h</text>
</a>
</g>
</g>
<!-- Node3&#45;&gt;Node5 -->
<g id="edge4" class="edge"><title>Node3&#45;&gt;Node5</title>
<path fill="none" stroke="midnightblue" d="M550.691,-276.503C574.5,-266.38 607.406,-252.388 628.271,-243.516"/>
<polygon fill="midnightblue" stroke="midnightblue" points="549.257,-273.31 541.424,-280.444 551.996,-279.751 549.257,-273.31"/>
</g>
<!-- Node3&#45;&gt;Node8 -->
<g id="edge29" class="edge"><title>Node3&#45;&gt;Node8</title>
<path fill="none" stroke="midnightblue" d="M521.233,-270.262C521.803,-245.717 525.118,-201.831 540.3,-168 558.048,-128.45 595.515,-91.694 613.397,-75.5783"/>
<polygon fill="midnightblue" stroke="midnightblue" points="517.732,-270.316 521.132,-280.351 524.732,-270.386 517.732,-270.316"/>
</g>
<!-- Node10 -->
<g id="node10" class="node"><title>Node10</title>
<g id="a_node10"><a xlink:href="importance__analysis_8h.xhtml" target="_top" xlink:title="Contains functionality to do numerical analysis of importance factors. ">
<polygon fill="white" stroke="black" points="379.3,-168.5 379.3,-187.5 493.3,-187.5 493.3,-168.5 379.3,-168.5"/>
<text text-anchor="middle" x="436.3" y="-175.5" font-family="Helvetica,sans-Serif" font-size="10.00">importance_analysis.h</text>
</a>
</g>
</g>
<!-- Node3&#45;&gt;Node10 -->
<g id="edge11" class="edge"><title>Node3&#45;&gt;Node10</title>
<path fill="none" stroke="midnightblue" d="M508.374,-272.272C490,-248.494 457.001,-205.789 442.939,-187.591"/>
<polygon fill="midnightblue" stroke="midnightblue" points="505.746,-274.596 514.63,-280.368 511.285,-270.316 505.746,-274.596"/>
</g>
<!-- Node3&#45;&gt;Node16 -->
<g id="edge20" class="edge"><title>Node3&#45;&gt;Node16</title>
<path fill="none" stroke="midnightblue" d="M490.604,-280.992C452.109,-270.95 386.392,-253.807 346.986,-243.527"/>
<polygon fill="midnightblue" stroke="midnightblue" points="490.136,-284.487 500.695,-283.625 491.903,-277.714 490.136,-284.487"/>
</g>
<!-- Node5&#45;&gt;Node4 -->
<g id="edge5" class="edge"><title>Node5&#45;&gt;Node4</title>
<path fill="none" stroke="midnightblue" d="M627.724,-218.38C613.988,-208.62 596.375,-196.106 584.733,-187.834"/>
<polygon fill="midnightblue" stroke="midnightblue" points="625.91,-221.385 636.089,-224.324 629.965,-215.679 625.91,-221.385"/>
</g>
<!-- Node5&#45;&gt;Node6 -->
<g id="edge6" class="edge"><title>Node5&#45;&gt;Node6</title>
<path fill="none" stroke="midnightblue" d="M658.148,-215.275C663.275,-206.045 669.317,-195.17 673.438,-187.751"/>
<polygon fill="midnightblue" stroke="midnightblue" points="655.051,-213.642 653.254,-224.083 661.17,-217.041 655.051,-213.642"/>
</g>
<!-- Node5&#45;&gt;Node8 -->
<g id="edge9" class="edge"><title>Node5&#45;&gt;Node8</title>
<path fill="none" stroke="midnightblue" d="M645.428,-213.93C640.005,-177.92 628.455,-101.231 624.591,-75.5681"/>
<polygon fill="midnightblue" stroke="midnightblue" points="642.006,-214.708 646.956,-224.075 648.928,-213.665 642.006,-214.708"/>
</g>
<!-- Node5&#45;&gt;Node9 -->
<g id="edge10" class="edge"><title>Node5&#45;&gt;Node9</title>
<path fill="none" stroke="midnightblue" d="M673.383,-219.59C692.057,-209.605 717.004,-196.267 733.113,-187.655"/>
<polygon fill="midnightblue" stroke="midnightblue" points="671.696,-216.522 664.528,-224.324 674.996,-222.696 671.696,-216.522"/>
</g>
<!-- Node7 -->
<g id="node7" class="node"><title>Node7</title>
<g id="a_node7"><a xlink:href="mocus_8cc.xhtml" target="_top" xlink:title="Implementation of the MOCUS algorithm. ">
<polygon fill="white" stroke="black" points="651.8,-112.5 651.8,-131.5 710.8,-131.5 710.8,-112.5 651.8,-112.5"/>
<text text-anchor="middle" x="681.3" y="-119.5" font-family="Helvetica,sans-Serif" font-size="10.00">mocus.cc</text>
</a>
</g>
</g>
<!-- Node6&#45;&gt;Node7 -->
<g id="edge7" class="edge"><title>Node6&#45;&gt;Node7</title>
<path fill="none" stroke="midnightblue" d="M679.367,-157.805C679.861,-148.91 680.423,-138.78 680.814,-131.751"/>
<polygon fill="midnightblue" stroke="midnightblue" points="675.856,-157.904 678.796,-168.083 682.845,-158.293 675.856,-157.904"/>
</g>
<!-- Node6&#45;&gt;Node8 -->
<g id="edge8" class="edge"><title>Node6&#45;&gt;Node8</title>
<path fill="none" stroke="midnightblue" d="M698.779,-161.754C713.895,-148.57 730.11,-129.006 719.3,-112 707.253,-93.0484 684.886,-81.94 664.771,-75.5034"/>
<polygon fill="midnightblue" stroke="midnightblue" points="696.21,-159.333 690.674,-168.366 700.635,-164.757 696.21,-159.333"/>
</g>
<!-- Node11 -->
<g id="node11" class="node"><title>Node11</title>
<g id="a_node11"><a xlink:href="importance__analysis_8cc.xhtml" target="_top" xlink:title="Implementations of functions to provide quantitative importance informations. ">
<polygon fill="white" stroke="black" points="373.8,-112.5 373.8,-131.5 492.8,-131.5 492.8,-112.5 373.8,-112.5"/>
<text text-anchor="middle" x="433.3" y="-119.5" font-family="Helvetica,sans-Serif" font-size="10.00">importance_analysis.cc</text>
</a>
</g>
</g>
<!-- Node10&#45;&gt;Node11 -->
<g id="edge12" class="edge"><title>Node10&#45;&gt;Node11</title>
<path fill="none" stroke="midnightblue" d="M435.234,-157.805C434.74,-148.91 434.177,-138.78 433.786,-131.751"/>
<polygon fill="midnightblue" stroke="midnightblue" points="431.755,-158.293 435.805,-168.083 438.745,-157.904 431.755,-158.293"/>
</g>
<!-- Node12 -->
<g id="node12" class="node"><title>Node12</title>
<g id="a_node12"><a xlink:href="reporter_8h.xhtml" target="_top" xlink:title="Reporter of results. ">
<polygon fill="white" stroke="black" points="40.3001,-56.5 40.3001,-75.5 98.3001,-75.5 98.3001,-56.5 40.3001,-56.5"/>
<text text-anchor="middle" x="69.3001" y="-63.5" font-family="Helvetica,sans-Serif" font-size="10.00">reporter.h</text>
</a>
</g>
</g>
<!-- Node10&#45;&gt;Node12 -->
<g id="edge13" class="edge"><title>Node10&#45;&gt;Node12</title>
<path fill="none" stroke="midnightblue" d="M414.063,-162.979C389.557,-148.147 348.531,-125.113 310.3,-112 236.421,-86.6592 144.63,-74.5259 98.5634,-69.686"/>
<polygon fill="midnightblue" stroke="midnightblue" points="412.551,-166.158 422.903,-168.41 416.215,-160.193 412.551,-166.158"/>
</g>
<!-- Node15 -->
<g id="node15" class="node"><title>Node15</title>
<g id="a_node15"><a xlink:href="risk__analysis_8h.xhtml" target="_top" xlink:title="Contains the main system for performing analysis. ">
<polygon fill="white" stroke="black" points="219.3,-112.5 219.3,-131.5 301.3,-131.5 301.3,-112.5 219.3,-112.5"/>
<text text-anchor="middle" x="260.3" y="-119.5" font-family="Helvetica,sans-Serif" font-size="10.00">risk_analysis.h</text>
</a>
</g>
</g>
<!-- Node10&#45;&gt;Node15 -->
<g id="edge16" class="edge"><title>Node10&#45;&gt;Node15</title>
<path fill="none" stroke="midnightblue" d="M398.611,-165.436C365.428,-155.255 317.872,-140.664 288.057,-131.516"/>
<polygon fill="midnightblue" stroke="midnightblue" points="397.826,-168.856 408.412,-168.444 399.879,-162.164 397.826,-168.856"/>
</g>
<!-- Node13 -->
<g id="node13" class="node"><title>Node13</title>
<g id="a_node13"><a xlink:href="reporter_8cc.xhtml" target="_top" xlink:title="Implements Reporter class. ">
<polygon fill="white" stroke="black" points="37.8001,-0.5 37.8001,-19.5 100.8,-19.5 100.8,-0.5 37.8001,-0.5"/>
<text text-anchor="middle" x="69.3001" y="-7.5" font-family="Helvetica,sans-Serif" font-size="10.00">reporter.cc</text>
</a>
</g>
</g>
<!-- Node12&#45;&gt;Node13 -->
<g id="edge14" class="edge"><title>Node12&#45;&gt;Node13</title>
<path fill="none" stroke="midnightblue" d="M69.3001,-45.8045C69.3001,-36.9102 69.3001,-26.7798 69.3001,-19.7511"/>
<polygon fill="midnightblue" stroke="midnightblue" points="65.8002,-46.083 69.3001,-56.083 72.8002,-46.083 65.8002,-46.083"/>
</g>
<!-- Node14 -->
<g id="node14" class="node"><title>Node14</title>
<g id="a_node14"><a xlink:href="scram_8cc.xhtml" target="_top" xlink:title="Main entrance. ">
<polygon fill="white" stroke="black" points="150.8,-0.5 150.8,-19.5 207.8,-19.5 207.8,-0.5 150.8,-0.5"/>
<text text-anchor="middle" x="179.3" y="-7.5" font-family="Helvetica,sans-Serif" font-size="10.00">scram.cc</text>
</a>
</g>
</g>
<!-- Node12&#45;&gt;Node14 -->
<g id="edge15" class="edge"><title>Node12&#45;&gt;Node14</title>
<path fill="none" stroke="midnightblue" d="M96.0622,-51.8622C116.459,-41.8492 143.966,-28.3458 161.671,-19.6545"/>
<polygon fill="midnightblue" stroke="midnightblue" points="94.4079,-48.7753 86.9735,-56.324 97.4926,-55.059 94.4079,-48.7753"/>
</g>
<!-- Node15&#45;&gt;Node8 -->
<g id="edge18" class="edge"><title>Node15&#45;&gt;Node8</title>
<path fill="none" stroke="midnightblue" d="M311.752,-113.346C383.55,-102.665 512.529,-83.4783 579.798,-73.4713"/>
<polygon fill="midnightblue" stroke="midnightblue" points="310.964,-109.925 301.587,-114.858 311.994,-116.848 310.964,-109.925"/>
</g>
<!-- Node15&#45;&gt;Node12 -->
<g id="edge17" class="edge"><title>Node15&#45;&gt;Node12</title>
<path fill="none" stroke="midnightblue" d="M220.237,-109.673C183.844,-99.3841 131.021,-84.4498 98.4835,-75.2508"/>
<polygon fill="midnightblue" stroke="midnightblue" points="219.461,-113.091 230.036,-112.444 221.365,-106.355 219.461,-113.091"/>
</g>
<!-- Node15&#45;&gt;Node14 -->
<g id="edge19" class="edge"><title>Node15&#45;&gt;Node14</title>
<path fill="none" stroke="midnightblue" d="M247.983,-104.272C230.473,-80.4942 199.027,-37.7889 185.627,-19.5914"/>
<polygon fill="midnightblue" stroke="midnightblue" points="245.196,-106.391 253.944,-112.368 250.833,-102.241 245.196,-106.391"/>
</g>
<!-- Node16&#45;&gt;Node10 -->
<g id="edge21" class="edge"><title>Node16&#45;&gt;Node10</title>
<path fill="none" stroke="midnightblue" d="M342.84,-220.368C365.686,-210.255 397.105,-196.349 417.059,-187.516"/>
<polygon fill="midnightblue" stroke="midnightblue" points="341.359,-217.196 333.631,-224.444 344.192,-223.597 341.359,-217.196"/>
</g>
<!-- Node16&#45;&gt;Node12 -->
<g id="edge23" class="edge"><title>Node16&#45;&gt;Node12</title>
<path fill="none" stroke="midnightblue" d="M249.187,-227.197C169.259,-219.404 42.4935,-204.601 28.3001,-188 -1.10323,-153.608 42.3904,-97.1923 61.2729,-75.6922"/>
<polygon fill="midnightblue" stroke="midnightblue" points="248.884,-230.684 259.173,-228.158 249.554,-223.716 248.884,-230.684"/>
</g>
<!-- Node16&#45;&gt;Node15 -->
<g id="edge24" class="edge"><title>Node16&#45;&gt;Node15</title>
<path fill="none" stroke="midnightblue" d="M326.184,-215.268C333.678,-201.69 340.522,-182.834 332.3,-168 322.439,-150.208 302.287,-138.522 285.805,-131.528"/>
<polygon fill="midnightblue" stroke="midnightblue" points="323.025,-213.727 320.819,-224.089 329.006,-217.364 323.025,-213.727"/>
</g>
<!-- Node17 -->
<g id="node17" class="node"><title>Node17</title>
<g id="a_node17"><a xlink:href="probability__analysis_8cc.xhtml" target="_top" xlink:title="Implementations of functions to provide probability analysis. ">
<polygon fill="white" stroke="black" points="207.3,-168.5 207.3,-187.5 323.3,-187.5 323.3,-168.5 207.3,-168.5"/>
<text text-anchor="middle" x="265.3" y="-175.5" font-family="Helvetica,sans-Serif" font-size="10.00">probability_analysis.cc</text>
</a>
</g>
</g>
<!-- Node16&#45;&gt;Node17 -->
<g id="edge22" class="edge"><title>Node16&#45;&gt;Node17</title>
<path fill="none" stroke="midnightblue" d="M299.266,-216.431C290.678,-206.967 280.257,-195.483 273.241,-187.751"/>
<polygon fill="midnightblue" stroke="midnightblue" points="296.897,-219.029 306.209,-224.083 302.081,-214.325 296.897,-219.029"/>
</g>
<!-- Node18 -->
<g id="node18" class="node"><title>Node18</title>
<g id="a_node18"><a xlink:href="uncertainty__analysis_8h.xhtml" target="_top" xlink:title="Provides functionality for uncertainty analysis with Monte Carlo method. ">
<polygon fill="white" stroke="black" points="37.3001,-168.5 37.3001,-187.5 151.3,-187.5 151.3,-168.5 37.3001,-168.5"/>
<text text-anchor="middle" x="94.3001" y="-175.5" font-family="Helvetica,sans-Serif" font-size="10.00">uncertainty_analysis.h</text>
</a>
</g>
</g>
<!-- Node16&#45;&gt;Node18 -->
<g id="edge25" class="edge"><title>Node16&#45;&gt;Node18</title>
<path fill="none" stroke="midnightblue" d="M269.582,-222.024C228.024,-211.823 166.988,-196.841 128.997,-187.516"/>
<polygon fill="midnightblue" stroke="midnightblue" points="268.894,-225.459 279.44,-224.444 270.563,-218.661 268.894,-225.459"/>
</g>
<!-- Node18&#45;&gt;Node12 -->
<g id="edge27" class="edge"><title>Node18&#45;&gt;Node12</title>
<path fill="none" stroke="midnightblue" d="M83.7414,-159.635C79.3679,-151.535 74.7515,-141.583 72.3001,-132 67.2611,-112.3 67.8251,-88.1682 68.604,-75.5761"/>
<polygon fill="midnightblue" stroke="midnightblue" points="80.784,-161.514 88.7938,-168.449 86.8569,-158.032 80.784,-161.514"/>
</g>
<!-- Node18&#45;&gt;Node15 -->
<g id="edge26" class="edge"><title>Node18&#45;&gt;Node15</title>
<path fill="none" stroke="midnightblue" d="M130.253,-165.304C161.532,-155.129 206.121,-140.625 234.12,-131.516"/>
<polygon fill="midnightblue" stroke="midnightblue" points="129.03,-162.022 120.603,-168.444 131.196,-168.678 129.03,-162.022"/>
</g>
<!-- Node19 -->
<g id="node19" class="node"><title>Node19</title>
<g id="a_node19"><a xlink:href="uncertainty__analysis_8cc.xhtml" target="_top" xlink:title="Implements the functionality to run Monte Carlo simulations. ">
<polygon fill="white" stroke="black" points="81.8001,-112.5 81.8001,-131.5 200.8,-131.5 200.8,-112.5 81.8001,-112.5"/>
<text text-anchor="middle" x="141.3" y="-119.5" font-family="Helvetica,sans-Serif" font-size="10.00">uncertainty_analysis.cc</text>
</a>
</g>
</g>
<!-- Node18&#45;&gt;Node19 -->
<g id="edge28" class="edge"><title>Node18&#45;&gt;Node19</title>
<path fill="none" stroke="midnightblue" d="M108.721,-160.431C116.958,-150.967 126.954,-139.483 133.683,-131.751"/>
<polygon fill="midnightblue" stroke="midnightblue" points="105.986,-158.242 102.061,-168.083 111.267,-162.838 105.986,-158.242"/>
</g>
<!-- Node21&#45;&gt;Node12 -->
<g id="edge34" class="edge"><title>Node21&#45;&gt;Node12</title>
<path fill="none" stroke="midnightblue" d="M213.363,-279.111C142.438,-267.879 37.0162,-250.295 30.3001,-244 -12.6043,-203.788 -4.45417,-164.863 21.3001,-112 28.9046,-96.3913 44.4006,-83.4536 55.7361,-75.5179"/>
<polygon fill="midnightblue" stroke="midnightblue" points="213.138,-282.619 223.561,-280.72 214.229,-275.704 213.138,-282.619"/>
</g>
<!-- Node21&#45;&gt;Node15 -->
<g id="edge35" class="edge"><title>Node21&#45;&gt;Node15</title>
<path fill="none" stroke="midnightblue" d="M259.425,-273.364C240.073,-255.13 210.359,-222.99 198.3,-188 195.404,-179.596 194.263,-175.919 198.3,-168 206.999,-150.937 225.529,-138.832 240.078,-131.505"/>
<polygon fill="midnightblue" stroke="midnightblue" points="257.262,-276.129 267.003,-280.296 261.986,-270.964 257.262,-276.129"/>
</g>
<!-- Node21&#45;&gt;Node16 -->
<g id="edge33" class="edge"><title>Node21&#45;&gt;Node16</title>
<path fill="none" stroke="midnightblue" d="M289.246,-271.566C295.612,-262.275 303.167,-251.248 308.304,-243.751"/>
<polygon fill="midnightblue" stroke="midnightblue" points="286.175,-269.855 283.41,-280.083 291.95,-273.812 286.175,-269.855"/>
</g>
<!-- Node22 -->
<g id="node22" class="node"><title>Node22</title>
<g id="a_node22"><a xlink:href="fault__tree__analysis_8cc.xhtml" target="_top" xlink:title="Implementation of fault tree analysis. ">
<polygon fill="white" stroke="black" points="39.3001,-224.5 39.3001,-243.5 151.3,-243.5 151.3,-224.5 39.3001,-224.5"/>
<text text-anchor="middle" x="95.3001" y="-231.5" font-family="Helvetica,sans-Serif" font-size="10.00">fault_tree_analysis.cc</text>
</a>
</g>
</g>
<!-- Node21&#45;&gt;Node22 -->
<g id="edge32" class="edge"><title>Node21&#45;&gt;Node22</title>
<path fill="none" stroke="midnightblue" d="M238.769,-277.568C204.436,-267.381 154.967,-252.703 124.004,-243.516"/>
<polygon fill="midnightblue" stroke="midnightblue" points="237.879,-280.954 248.462,-280.444 239.87,-274.244 237.879,-280.954"/>
</g>
<!-- Node23&#45;&gt;Node21 -->
<g id="edge37" class="edge"><title>Node23&#45;&gt;Node21</title>
<path fill="none" stroke="midnightblue" d="M268.85,-326.101C271.008,-317.136 273.482,-306.858 275.193,-299.751"/>
<polygon fill="midnightblue" stroke="midnightblue" points="265.385,-325.542 266.447,-336.083 272.19,-327.18 265.385,-325.542"/>
</g>
<!-- Node23&#45;&gt;Node24 -->
<g id="edge38" class="edge"><title>Node23&#45;&gt;Node24</title>
<path fill="none" stroke="midnightblue" d="M238.969,-331.59C220.11,-321.605 194.916,-308.267 178.648,-299.655"/>
<polygon fill="midnightblue" stroke="midnightblue" points="237.437,-334.738 247.912,-336.324 240.712,-328.552 237.437,-334.738"/>
</g>
</g>
</svg>
