<?xml version="1.0" encoding="UTF-8" standalone="no"?>
<!DOCTYPE svg PUBLIC "-//W3C//DTD SVG 1.1//EN"
 "http://www.w3.org/Graphics/SVG/1.1/DTD/svg11.dtd">
<!-- Generated by graphviz version 2.38.0 (20140413.2041)
 -->
<!-- Title: fault_tree.h Pages: 1 -->
<svg width="972pt" height="319pt"
 viewBox="0.00 0.00 972.00 319.00" xmlns="http://www.w3.org/2000/svg" xmlns:xlink="http://www.w3.org/1999/xlink">
<g id="graph0" class="graph" transform="scale(1 1) rotate(0) translate(4 315)">
<title>fault_tree.h</title>
<polygon fill="white" stroke="none" points="-4,4 -4,-315 968,-315 968,4 -4,4"/>
<!-- Node1 -->
<g id="node1" class="node"><title>Node1</title>
<polygon fill="#bfbfbf" stroke="black" points="349.5,-291.5 349.5,-310.5 414.5,-310.5 414.5,-291.5 349.5,-291.5"/>
<text text-anchor="middle" x="382" y="-298.5" font-family="Helvetica,sans-Serif" font-size="10.00">fault_tree.h</text>
</g>
<!-- Node2 -->
<g id="node2" class="node"><title>Node2</title>
<polygon fill="white" stroke="#bfbfbf" points="164,-67.5 164,-86.5 216,-86.5 216,-67.5 164,-67.5"/>
<text text-anchor="middle" x="190" y="-74.5" font-family="Helvetica,sans-Serif" font-size="10.00">memory</text>
</g>
<!-- Node1&#45;&gt;Node2 -->
<g id="edge1" class="edge"><title>Node1&#45;&gt;Node2</title>
<path fill="none" stroke="midnightblue" d="M349.232,-299.253C290.396,-295.868 168.73,-279.04 123,-199 101.395,-161.185 144.034,-116.217 170.73,-93.2127"/>
<polygon fill="midnightblue" stroke="midnightblue" points="173.287,-95.6386 178.736,-86.5524 168.81,-90.2573 173.287,-95.6386"/>
</g>
<!-- Node3 -->
<g id="node3" class="node"><title>Node3</title>
<polygon fill="white" stroke="#bfbfbf" points="55.5,-6 55.5,-25 96.5,-25 96.5,-6 55.5,-6"/>
<text text-anchor="middle" x="76" y="-13" font-family="Helvetica,sans-Serif" font-size="10.00">string</text>
</g>
<!-- Node1&#45;&gt;Node3 -->
<g id="edge2" class="edge"><title>Node1&#45;&gt;Node3</title>
<path fill="none" stroke="midnightblue" d="M349.431,-297.641C257.053,-290.062 0,-262.465 0,-190 0,-190 0,-190 0,-132 0,-90.3123 34.9778,-52.0299 57.4751,-31.7185"/>
<polygon fill="midnightblue" stroke="midnightblue" points="59.8638,-34.2796 65.1111,-25.0755 55.2693,-28.9985 59.8638,-34.2796"/>
</g>
<!-- Node4 -->
<g id="node4" class="node"><title>Node4</title>
<polygon fill="white" stroke="#bfbfbf" points="886,-235.5 886,-254.5 964,-254.5 964,-235.5 886,-235.5"/>
<text text-anchor="middle" x="925" y="-242.5" font-family="Helvetica,sans-Serif" font-size="10.00">unordered_set</text>
</g>
<!-- Node1&#45;&gt;Node4 -->
<g id="edge3" class="edge"><title>Node1&#45;&gt;Node4</title>
<path fill="none" stroke="midnightblue" d="M414.782,-297.861C493.709,-292.522 700.467,-277.407 872,-255 873.275,-254.833 874.567,-254.659 875.87,-254.477"/>
<polygon fill="midnightblue" stroke="midnightblue" points="876.6,-257.907 885.977,-252.975 875.571,-250.983 876.6,-257.907"/>
</g>
<!-- Node5 -->
<g id="node5" class="node"><title>Node5</title>
<polygon fill="white" stroke="#bfbfbf" points="637,-6 637,-25 681,-25 681,-6 637,-6"/>
<text text-anchor="middle" x="659" y="-13" font-family="Helvetica,sans-Serif" font-size="10.00">vector</text>
</g>
<!-- Node1&#45;&gt;Node5 -->
<g id="edge4" class="edge"><title>Node1&#45;&gt;Node5</title>
<path fill="none" stroke="midnightblue" d="M414.717,-299.455C522.259,-296.793 858,-281.178 858,-190 858,-190 858,-190 858,-132 858,-55.8192 747.563,-29.0432 691.23,-20.3405"/>
<polygon fill="midnightblue" stroke="midnightblue" points="691.454,-16.8367 681.057,-18.8747 690.455,-23.7651 691.454,-16.8367"/>
</g>
<!-- Node6 -->
<g id="node6" class="node"><title>Node6</title>
<polygon fill="white" stroke="#bfbfbf" points="674.5,-67.5 674.5,-86.5 791.5,-86.5 791.5,-67.5 674.5,-67.5"/>
<text text-anchor="middle" x="733" y="-74.5" font-family="Helvetica,sans-Serif" font-size="10.00">boost/noncopyable.hpp</text>
</g>
<!-- Node1&#45;&gt;Node6 -->
<g id="edge5" class="edge"><title>Node1&#45;&gt;Node6</title>
<path fill="none" stroke="midnightblue" d="M414.537,-294.705C481.978,-281.904 637.045,-242.649 713,-143 723.279,-129.515 728.319,-110.704 730.764,-96.787"/>
<polygon fill="midnightblue" stroke="midnightblue" points="734.23,-97.2718 732.218,-86.8698 727.304,-96.256 734.23,-97.2718"/>
</g>
<!-- Node7 -->
<g id="node7" class="node"><title>Node7</title>
<g id="a_node7"><a xlink:href="ccf__group_8h.xhtml" target="_top" xlink:title="Functional containers for basic events grouped by common cause failure. ">
<polygon fill="white" stroke="black" points="348,-235.5 348,-254.5 416,-254.5 416,-235.5 348,-235.5"/>
<text text-anchor="middle" x="382" y="-242.5" font-family="Helvetica,sans-Serif" font-size="10.00">ccf_group.h</text>
</a>
</g>
</g>
<!-- Node1&#45;&gt;Node7 -->
<g id="edge6" class="edge"><title>Node1&#45;&gt;Node7</title>
<path fill="none" stroke="midnightblue" d="M382,-291.083C382,-284.006 382,-273.861 382,-264.986"/>
<polygon fill="midnightblue" stroke="midnightblue" points="385.5,-264.751 382,-254.751 378.5,-264.751 385.5,-264.751"/>
</g>
<!-- Node9 -->
<g id="node9" class="node"><title>Node9</title>
<g id="a_node9"><a xlink:href="element_8h.xhtml" target="_top" xlink:title="Helper classes, structs, and properties common to all other classes. ">
<polygon fill="white" stroke="black" points="328.5,-67.5 328.5,-86.5 387.5,-86.5 387.5,-67.5 328.5,-67.5"/>
<text text-anchor="middle" x="358" y="-74.5" font-family="Helvetica,sans-Serif" font-size="10.00">element.h</text>
</a>
</g>
</g>
<!-- Node1&#45;&gt;Node9 -->
<g id="edge36" class="edge"><title>Node1&#45;&gt;Node9</title>
<path fill="none" stroke="midnightblue" d="M368.716,-291.382C346.378,-275.996 302.064,-241.401 285,-199 268.553,-158.131 311.095,-115.063 337.965,-92.9884"/>
<polygon fill="midnightblue" stroke="midnightblue" points="340.379,-95.5416 346.044,-86.5885 336.032,-90.0547 340.379,-95.5416"/>
</g>
<!-- Node14 -->
<g id="node14" class="node"><title>Node14</title>
<g id="a_node14"><a xlink:href="event_8h.xhtml" target="_top" xlink:title="Contains event classes for fault trees. ">
<polygon fill="white" stroke="black" points="478.5,-179.5 478.5,-198.5 527.5,-198.5 527.5,-179.5 478.5,-179.5"/>
<text text-anchor="middle" x="503" y="-186.5" font-family="Helvetica,sans-Serif" font-size="10.00">event.h</text>
</a>
</g>
</g>
<!-- Node1&#45;&gt;Node14 -->
<g id="edge37" class="edge"><title>Node1&#45;&gt;Node14</title>
<path fill="none" stroke="midnightblue" d="M391.495,-291.368C411.905,-272.814 460.196,-228.913 486.019,-205.438"/>
<polygon fill="midnightblue" stroke="midnightblue" points="488.504,-207.908 493.549,-198.591 483.796,-202.728 488.504,-207.908"/>
</g>
<!-- Node18 -->
<g id="node18" class="node"><title>Node18</title>
<g id="a_node18"><a xlink:href="parameter_8h.xhtml" target="_top" xlink:title="Parameter expressions that act like a shareable variable. ">
<polygon fill="white" stroke="black" points="132,-179.5 132,-198.5 200,-198.5 200,-179.5 132,-179.5"/>
<text text-anchor="middle" x="166" y="-186.5" font-family="Helvetica,sans-Serif" font-size="10.00">parameter.h</text>
</a>
</g>
</g>
<!-- Node1&#45;&gt;Node18 -->
<g id="edge38" class="edge"><title>Node1&#45;&gt;Node18</title>
<path fill="none" stroke="midnightblue" d="M349.307,-291.769C322.283,-284.25 283.395,-271.755 252,-255 226.129,-241.193 199.71,-219.937 183.106,-205.523"/>
<polygon fill="midnightblue" stroke="midnightblue" points="185.182,-202.687 175.372,-198.685 180.545,-207.931 185.182,-202.687"/>
</g>
<!-- Node7&#45;&gt;Node2 -->
<g id="edge7" class="edge"><title>Node7&#45;&gt;Node2</title>
<path fill="none" stroke="midnightblue" d="M355.007,-235.381C334.419,-227.928 306.103,-215.711 285,-199 247.125,-169.007 215.343,-120.986 199.954,-95.3901"/>
<polygon fill="midnightblue" stroke="midnightblue" points="202.966,-93.6079 194.88,-86.7623 196.932,-97.1565 202.966,-93.6079"/>
</g>
<!-- Node7&#45;&gt;Node3 -->
<g id="edge8" class="edge"><title>Node7&#45;&gt;Node3</title>
<path fill="none" stroke="midnightblue" d="M347.568,-242.541C284.785,-239.171 155.195,-228.717 123,-199 76.1557,-155.762 73.3921,-72.622 74.7451,-35.3666"/>
<polygon fill="midnightblue" stroke="midnightblue" points="78.2409,-35.5374 75.2529,-25.3726 71.2499,-35.1821 78.2409,-35.5374"/>
</g>
<!-- Node7&#45;&gt;Node5 -->
<g id="edge10" class="edge"><title>Node7&#45;&gt;Node5</title>
<path fill="none" stroke="midnightblue" d="M416.138,-244.411C501.783,-243.297 724.368,-226.598 801,-87 825.494,-42.3806 740.498,-25.4362 691.419,-19.467"/>
<polygon fill="midnightblue" stroke="midnightblue" points="691.581,-15.9633 681.252,-18.3237 690.799,-22.9195 691.581,-15.9633"/>
</g>
<!-- Node7&#45;&gt;Node6 -->
<g id="edge11" class="edge"><title>Node7&#45;&gt;Node6</title>
<path fill="none" stroke="midnightblue" d="M416.425,-240.348C477.253,-232.355 605.218,-208.467 689,-143 705.053,-130.456 717.362,-110.396 724.826,-95.8757"/>
<polygon fill="midnightblue" stroke="midnightblue" points="727.98,-97.3928 729.205,-86.869 721.684,-94.3318 727.98,-97.3928"/>
</g>
<!-- Node8 -->
<g id="node8" class="node"><title>Node8</title>
<polygon fill="white" stroke="#bfbfbf" points="294,-179.5 294,-198.5 334,-198.5 334,-179.5 294,-179.5"/>
<text text-anchor="middle" x="314" y="-186.5" font-family="Helvetica,sans-Serif" font-size="10.00">utility</text>
</g>
<!-- Node7&#45;&gt;Node8 -->
<g id="edge9" class="edge"><title>Node7&#45;&gt;Node8</title>
<path fill="none" stroke="midnightblue" d="M371.075,-235.324C360.825,-227.185 345.279,-214.839 332.999,-205.087"/>
<polygon fill="midnightblue" stroke="midnightblue" points="335.132,-202.312 325.124,-198.834 330.779,-207.794 335.132,-202.312"/>
</g>
<!-- Node7&#45;&gt;Node9 -->
<g id="edge12" class="edge"><title>Node7&#45;&gt;Node9</title>
<path fill="none" stroke="midnightblue" d="M380.71,-235.075C376.932,-208.945 365.838,-132.211 360.686,-96.577"/>
<polygon fill="midnightblue" stroke="midnightblue" points="364.134,-95.9644 359.239,-86.5681 357.206,-96.9661 364.134,-95.9644"/>
</g>
<!-- Node7&#45;&gt;Node14 -->
<g id="edge19" class="edge"><title>Node7&#45;&gt;Node14</title>
<path fill="none" stroke="midnightblue" d="M401.173,-235.444C420.909,-226.636 451.885,-212.812 474.493,-202.722"/>
<polygon fill="midnightblue" stroke="midnightblue" points="476.211,-205.788 483.917,-198.516 473.359,-199.396 476.211,-205.788"/>
</g>
<!-- Node17 -->
<g id="node17" class="node"><title>Node17</title>
<g id="a_node17"><a xlink:href="expression_8h.xhtml" target="_top" xlink:title="Provides the base class for all expressions and units for expression values. ">
<polygon fill="white" stroke="black" points="408,-123.5 408,-142.5 480,-142.5 480,-123.5 408,-123.5"/>
<text text-anchor="middle" x="444" y="-130.5" font-family="Helvetica,sans-Serif" font-size="10.00">expression.h</text>
</a>
</g>
</g>
<!-- Node7&#45;&gt;Node17 -->
<g id="edge35" class="edge"><title>Node7&#45;&gt;Node17</title>
<path fill="none" stroke="midnightblue" d="M386.865,-235.368C397.052,-217.296 420.791,-175.176 434.245,-151.307"/>
<polygon fill="midnightblue" stroke="midnightblue" points="437.296,-153.022 439.158,-142.591 431.198,-149.584 437.296,-153.022"/>
</g>
<!-- Node9&#45;&gt;Node3 -->
<g id="edge14" class="edge"><title>Node9&#45;&gt;Node3</title>
<path fill="none" stroke="midnightblue" d="M328.202,-69.7774C323.456,-68.8232 318.597,-67.8678 314,-67 221.809,-49.5975 195.324,-59.6919 106,-31 104.334,-30.4648 102.643,-29.8537 100.956,-29.192"/>
<polygon fill="midnightblue" stroke="midnightblue" points="102.102,-25.8718 91.5404,-25.0264 99.2692,-32.2732 102.102,-25.8718"/>
</g>
<!-- Node9&#45;&gt;Node5 -->
<g id="edge15" class="edge"><title>Node9&#45;&gt;Node5</title>
<path fill="none" stroke="midnightblue" d="M387.751,-72.083C448.197,-63.9543 583.414,-44.8571 628,-31 629.872,-30.4181 631.777,-29.7452 633.675,-29.0146"/>
<polygon fill="midnightblue" stroke="midnightblue" points="635.121,-32.2025 642.922,-25.0329 632.353,-25.7732 635.121,-32.2025"/>
</g>
<!-- Node10 -->
<g id="node10" class="node"><title>Node10</title>
<polygon fill="white" stroke="#bfbfbf" points="573,-6 573,-25 619,-25 619,-6 573,-6"/>
<text text-anchor="middle" x="596" y="-13" font-family="Helvetica,sans-Serif" font-size="10.00">cstdint</text>
</g>
<!-- Node9&#45;&gt;Node10 -->
<g id="edge13" class="edge"><title>Node9&#45;&gt;Node10</title>
<path fill="none" stroke="midnightblue" d="M387.737,-69.8127C440.485,-58.7872 546.457,-36.3912 563,-31 564.874,-30.3892 566.787,-29.7092 568.7,-28.9862"/>
<polygon fill="midnightblue" stroke="midnightblue" points="570.17,-32.1663 578.096,-25.1353 567.515,-25.6893 570.17,-32.1663"/>
</g>
<!-- Node11 -->
<g id="node11" class="node"><title>Node11</title>
<polygon fill="white" stroke="#bfbfbf" points="397.5,-6 397.5,-25 554.5,-25 554.5,-6 397.5,-6"/>
<text text-anchor="middle" x="476" y="-13" font-family="Helvetica,sans-Serif" font-size="10.00">boost/multi_index_container.hpp</text>
</g>
<!-- Node9&#45;&gt;Node11 -->
<g id="edge16" class="edge"><title>Node9&#45;&gt;Node11</title>
<path fill="none" stroke="midnightblue" d="M374.907,-67.4751C394.534,-57.578 427.131,-41.1416 449.99,-29.6151"/>
<polygon fill="midnightblue" stroke="midnightblue" points="451.772,-32.6367 459.125,-25.0091 448.62,-26.3863 451.772,-32.6367"/>
</g>
<!-- Node12 -->
<g id="node12" class="node"><title>Node12</title>
<polygon fill="white" stroke="#bfbfbf" points="115,-0.5 115,-30.5 243,-30.5 243,-0.5 115,-0.5"/>
<text text-anchor="start" x="123" y="-18.5" font-family="Helvetica,sans-Serif" font-size="10.00">boost/multi_index/hashed</text>
<text text-anchor="middle" x="179" y="-7.5" font-family="Helvetica,sans-Serif" font-size="10.00">_index.hpp</text>
</g>
<!-- Node9&#45;&gt;Node12 -->
<g id="edge17" class="edge"><title>Node9&#45;&gt;Node12</title>
<path fill="none" stroke="midnightblue" d="M332.354,-67.4751C305.958,-58.7012 264.102,-44.788 230.781,-33.7123"/>
<polygon fill="midnightblue" stroke="midnightblue" points="231.78,-30.356 221.187,-30.523 229.572,-36.9987 231.78,-30.356"/>
</g>
<!-- Node13 -->
<g id="node13" class="node"><title>Node13</title>
<polygon fill="white" stroke="#bfbfbf" points="261,-0.5 261,-30.5 379,-30.5 379,-0.5 261,-0.5"/>
<text text-anchor="start" x="269" y="-18.5" font-family="Helvetica,sans-Serif" font-size="10.00">boost/multi_index/mem</text>
<text text-anchor="middle" x="320" y="-7.5" font-family="Helvetica,sans-Serif" font-size="10.00">_fun.hpp</text>
</g>
<!-- Node9&#45;&gt;Node13 -->
<g id="edge18" class="edge"><title>Node9&#45;&gt;Node13</title>
<path fill="none" stroke="midnightblue" d="M352.556,-67.4751C347.842,-60.0945 340.806,-49.0772 334.479,-39.1714"/>
<polygon fill="midnightblue" stroke="midnightblue" points="337.288,-37.067 328.956,-30.523 331.389,-40.8347 337.288,-37.067"/>
</g>
<!-- Node14&#45;&gt;Node2 -->
<g id="edge21" class="edge"><title>Node14&#45;&gt;Node2</title>
<path fill="none" stroke="midnightblue" d="M478.159,-180.141C450.642,-171.365 405.004,-156.603 366,-143 315.473,-125.378 257.315,-103.605 222.129,-90.2657"/>
<polygon fill="midnightblue" stroke="midnightblue" points="223.001,-86.853 212.41,-86.574 220.515,-93.3968 223.001,-86.853"/>
</g>
<!-- Node14&#45;&gt;Node3 -->
<g id="edge22" class="edge"><title>Node14&#45;&gt;Node3</title>
<path fill="none" stroke="midnightblue" d="M483.037,-179.431C462.081,-170.421 428.187,-155.8 399,-143 378.956,-134.21 374.038,-131.802 354,-123 296.775,-97.863 283.677,-88.5297 225,-67 173.126,-47.9665 157.477,-51.0843 106,-31 104.619,-30.4612 103.214,-29.885 101.803,-29.2842"/>
<polygon fill="midnightblue" stroke="midnightblue" points="103.165,-26.0584 92.6133,-25.1004 100.264,-32.4293 103.165,-26.0584"/>
</g>
<!-- Node14&#45;&gt;Node5 -->
<g id="edge23" class="edge"><title>Node14&#45;&gt;Node5</title>
<path fill="none" stroke="midnightblue" d="M527.746,-183.112C551.224,-177.289 586.084,-165.396 608,-143 637.852,-112.494 650.95,-62.2331 656.088,-35.1599"/>
<polygon fill="midnightblue" stroke="midnightblue" points="659.572,-35.5522 657.828,-25.1019 652.674,-34.3588 659.572,-35.5522"/>
</g>
<!-- Node14&#45;&gt;Node6 -->
<g id="edge24" class="edge"><title>Node14&#45;&gt;Node6</title>
<path fill="none" stroke="midnightblue" d="M527.703,-184.431C559.783,-179.034 616.782,-166.797 660,-143 683.113,-130.274 705.079,-109.029 718.765,-94.3073"/>
<polygon fill="midnightblue" stroke="midnightblue" points="721.705,-96.2736 725.812,-86.5072 716.511,-91.5808 721.705,-96.2736"/>
</g>
<!-- Node14&#45;&gt;Node9 -->
<g id="edge25" class="edge"><title>Node14&#45;&gt;Node9</title>
<path fill="none" stroke="midnightblue" d="M503.647,-179.237C504.164,-165.514 503.101,-138.884 489,-123 465.864,-96.9399 426.944,-85.9639 397.524,-81.3453"/>
<polygon fill="midnightblue" stroke="midnightblue" points="397.941,-77.8697 387.555,-79.9624 396.979,-84.8033 397.941,-77.8697"/>
</g>
<!-- Node14&#45;&gt;Node10 -->
<g id="edge20" class="edge"><title>Node14&#45;&gt;Node10</title>
<path fill="none" stroke="midnightblue" d="M527.583,-182.297C547.78,-176.207 575.226,-164.395 589,-143 610.262,-109.974 605.267,-61.4702 600.301,-35.1516"/>
<polygon fill="midnightblue" stroke="midnightblue" points="603.66,-34.1166 598.183,-25.0472 596.809,-35.5525 603.66,-34.1166"/>
</g>
<!-- Node15 -->
<g id="node15" class="node"><title>Node15</title>
<g id="a_node15"><a xlink:href="error_8h.xhtml" target="_top" xlink:title="Exceptions for SCRAM. ">
<polygon fill="white" stroke="black" points="536,-123.5 536,-142.5 580,-142.5 580,-123.5 536,-123.5"/>
<text text-anchor="middle" x="558" y="-130.5" font-family="Helvetica,sans-Serif" font-size="10.00">error.h</text>
</a>
</g>
</g>
<!-- Node14&#45;&gt;Node15 -->
<g id="edge26" class="edge"><title>Node14&#45;&gt;Node15</title>
<path fill="none" stroke="midnightblue" d="M512.082,-179.083C520.171,-171.141 532.195,-159.335 541.91,-149.797"/>
<polygon fill="midnightblue" stroke="midnightblue" points="544.403,-152.254 549.087,-142.751 539.499,-147.26 544.403,-152.254"/>
</g>
<!-- Node14&#45;&gt;Node17 -->
<g id="edge29" class="edge"><title>Node14&#45;&gt;Node17</title>
<path fill="none" stroke="midnightblue" d="M493.521,-179.324C484.799,-171.341 471.657,-159.313 461.102,-149.653"/>
<polygon fill="midnightblue" stroke="midnightblue" points="463.392,-147.004 453.652,-142.834 458.666,-152.167 463.392,-147.004"/>
</g>
<!-- Node15&#45;&gt;Node3 -->
<g id="edge28" class="edge"><title>Node15&#45;&gt;Node3</title>
<path fill="none" stroke="midnightblue" d="M540.996,-123.465C512.02,-109.316 450.872,-81.1595 396,-67 270.241,-34.5483 230.571,-67.7487 106,-31 104.127,-30.4476 102.227,-29.7888 100.339,-29.0613"/>
<polygon fill="midnightblue" stroke="midnightblue" points="101.747,-25.8569 91.1845,-25.0255 98.9229,-32.2621 101.747,-25.8569"/>
</g>
<!-- Node16 -->
<g id="node16" class="node"><title>Node16</title>
<polygon fill="white" stroke="#bfbfbf" points="520.5,-67.5 520.5,-86.5 579.5,-86.5 579.5,-67.5 520.5,-67.5"/>
<text text-anchor="middle" x="550" y="-74.5" font-family="Helvetica,sans-Serif" font-size="10.00">exception</text>
</g>
<!-- Node15&#45;&gt;Node16 -->
<g id="edge27" class="edge"><title>Node15&#45;&gt;Node16</title>
<path fill="none" stroke="midnightblue" d="M556.679,-123.083C555.619,-115.927 554.094,-105.635 552.769,-96.6911"/>
<polygon fill="midnightblue" stroke="midnightblue" points="556.224,-96.1302 551.296,-86.7511 549.3,-97.1561 556.224,-96.1302"/>
</g>
<!-- Node17&#45;&gt;Node2 -->
<g id="edge31" class="edge"><title>Node17&#45;&gt;Node2</title>
<path fill="none" stroke="midnightblue" d="M407.878,-124.32C359.645,-114.066 274.687,-96.0044 226.343,-85.7264"/>
<polygon fill="midnightblue" stroke="midnightblue" points="226.831,-82.252 216.321,-83.5959 225.375,-89.099 226.831,-82.252"/>
</g>
<!-- Node17&#45;&gt;Node5 -->
<g id="edge32" class="edge"><title>Node17&#45;&gt;Node5</title>
<path fill="none" stroke="midnightblue" d="M450.828,-123.071C461.953,-109.122 485.337,-82.1873 511,-67 557.821,-39.291 577.237,-50.5727 628,-31 629.421,-30.4523 630.867,-29.8689 632.321,-29.2625"/>
<polygon fill="midnightblue" stroke="midnightblue" points="634.079,-32.3116 641.805,-25.0608 631.244,-25.9116 634.079,-32.3116"/>
</g>
<!-- Node17&#45;&gt;Node6 -->
<g id="edge33" class="edge"><title>Node17&#45;&gt;Node6</title>
<path fill="none" stroke="midnightblue" d="M480.018,-125.27C529.549,-116.015 619.155,-99.2721 677.346,-88.399"/>
<polygon fill="midnightblue" stroke="midnightblue" points="678.285,-91.7842 687.472,-86.5069 677,-84.9032 678.285,-91.7842"/>
</g>
<!-- Node17&#45;&gt;Node9 -->
<g id="edge34" class="edge"><title>Node17&#45;&gt;Node9</title>
<path fill="none" stroke="midnightblue" d="M430.183,-123.324C416.767,-114.9 396.176,-101.971 380.414,-92.0741"/>
<polygon fill="midnightblue" stroke="midnightblue" points="382.113,-89.0081 371.783,-86.6545 378.391,-94.9364 382.113,-89.0081"/>
</g>
<!-- Node17&#45;&gt;Node10 -->
<g id="edge30" class="edge"><title>Node17&#45;&gt;Node10</title>
<path fill="none" stroke="midnightblue" d="M440.269,-123.418C435.05,-109.944 427.526,-83.6484 440,-67 474.155,-21.416 509.481,-50.4975 563,-31 564.657,-30.3962 566.35,-29.7496 568.05,-29.0769"/>
<polygon fill="midnightblue" stroke="midnightblue" points="569.794,-32.1413 577.671,-25.0556 567.094,-25.6828 569.794,-32.1413"/>
</g>
<!-- Node18&#45;&gt;Node2 -->
<g id="edge39" class="edge"><title>Node18&#45;&gt;Node2</title>
<path fill="none" stroke="midnightblue" d="M166.945,-179.089C168.377,-166.491 171.424,-142.801 176,-123 178.075,-114.021 181.035,-104.231 183.699,-96.0827"/>
<polygon fill="midnightblue" stroke="midnightblue" points="187.044,-97.1167 186.931,-86.5225 180.412,-94.8747 187.044,-97.1167"/>
</g>
<!-- Node18&#45;&gt;Node3 -->
<g id="edge40" class="edge"><title>Node18&#45;&gt;Node3</title>
<path fill="none" stroke="midnightblue" d="M161.413,-179.26C147.268,-152.306 104.137,-70.1165 85.1436,-33.9237"/>
<polygon fill="midnightblue" stroke="midnightblue" points="88.2169,-32.2477 80.4708,-25.0194 82.0185,-35.5006 88.2169,-32.2477"/>
</g>
<!-- Node18&#45;&gt;Node9 -->
<g id="edge41" class="edge"><title>Node18&#45;&gt;Node9</title>
<path fill="none" stroke="midnightblue" d="M175.758,-179.341C191.145,-165.994 222.352,-140.147 252,-123 274.859,-109.78 302.347,-98.2224 323.603,-90.1312"/>
<polygon fill="midnightblue" stroke="midnightblue" points="325.043,-93.3295 333.189,-86.555 322.597,-86.7709 325.043,-93.3295"/>
</g>
<!-- Node18&#45;&gt;Node17 -->
<g id="edge42" class="edge"><title>Node18&#45;&gt;Node17</title>
<path fill="none" stroke="midnightblue" d="M200.088,-181.379C249.772,-171.728 342.208,-153.773 397.915,-142.952"/>
<polygon fill="midnightblue" stroke="midnightblue" points="398.721,-146.361 407.87,-141.018 397.386,-139.489 398.721,-146.361"/>
</g>
</g>
</svg>
