<?xml version="1.0" encoding="UTF-8" standalone="no"?>
<!DOCTYPE svg PUBLIC "-//W3C//DTD SVG 1.1//EN"
 "http://www.w3.org/Graphics/SVG/1.1/DTD/svg11.dtd">
<!-- Generated by graphviz version 2.38.0 (20140413.2041)
 -->
<!-- Title: scram::core::GetOrder Pages: 1 -->
<svg width="266pt" height="88pt"
 viewBox="0.00 0.00 266.00 88.00" xmlns="http://www.w3.org/2000/svg" xmlns:xlink="http://www.w3.org/1999/xlink">
<g id="graph0" class="graph" transform="scale(1 1) rotate(0) translate(4 84)">
<title>scram::core::GetOrder</title>
<polygon fill="white" stroke="none" points="-4,4 -4,-84 262,-84 262,4 -4,4"/>
<!-- Node1 -->
<g id="node1" class="node"><title>Node1</title>
<polygon fill="#bfbfbf" stroke="black" points="0,-30 0,-49 114,-49 114,-30 0,-30"/>
<text text-anchor="middle" x="57" y="-37" font-family="Helvetica,sans-Serif" font-size="10.00">scram::core::GetOrder</text>
</g>
<!-- Node1&#45;&gt;Node1 -->
<g id="edge2" class="edge"><title>Node1&#45;&gt;Node1</title>
<path fill="none" stroke="midnightblue" d="M34.4972,-49.2571C23.5498,-58.0653 31.0508,-67.5 57,-67.5 74.0292,-67.5 83.1133,-63.4368 84.2525,-58.1539"/>
<polygon fill="midnightblue" stroke="midnightblue" points="87.2999,-56.4303 79.5028,-49.2571 81.1248,-59.727 87.2999,-56.4303"/>
</g>
<!-- Node2 -->
<g id="node2" class="node"><title>Node2</title>
<g id="a_node2"><a xlink:href="classscram_1_1core_1_1Product.xhtml#a76fc3f1f84ea87d601c5c268639137a9" target="_top" xlink:title="scram::core::Product\l::empty">
<polygon fill="white" stroke="black" points="150,-49.5 150,-79.5 258,-79.5 258,-49.5 150,-49.5"/>
<text text-anchor="start" x="158" y="-67.5" font-family="Helvetica,sans-Serif" font-size="10.00">scram::core::Product</text>
<text text-anchor="middle" x="204" y="-56.5" font-family="Helvetica,sans-Serif" font-size="10.00">::empty</text>
</a>
</g>
</g>
<!-- Node1&#45;&gt;Node2 -->
<g id="edge1" class="edge"><title>Node1&#45;&gt;Node2</title>
<path fill="none" stroke="midnightblue" d="M113.232,-49.0227C121.954,-50.5266 131.031,-52.0915 139.915,-53.6233"/>
<polygon fill="midnightblue" stroke="midnightblue" points="139.386,-57.0837 149.836,-55.3337 140.576,-50.1854 139.386,-57.0837"/>
</g>
<!-- Node3 -->
<g id="node3" class="node"><title>Node3</title>
<g id="a_node3"><a xlink:href="classscram_1_1core_1_1Product.xhtml#a23c2873c9198ab74446508995c8925e2" target="_top" xlink:title="scram::core::Product\l::size">
<polygon fill="white" stroke="black" points="150,-0.5 150,-30.5 258,-30.5 258,-0.5 150,-0.5"/>
<text text-anchor="start" x="158" y="-18.5" font-family="Helvetica,sans-Serif" font-size="10.00">scram::core::Product</text>
<text text-anchor="middle" x="204" y="-7.5" font-family="Helvetica,sans-Serif" font-size="10.00">::size</text>
</a>
</g>
</g>
<!-- Node1&#45;&gt;Node3 -->
<g id="edge3" class="edge"><title>Node1&#45;&gt;Node3</title>
<path fill="none" stroke="midnightblue" d="M114.061,-30.221C122.538,-28.8178 131.332,-27.3623 139.945,-25.9367"/>
<polygon fill="midnightblue" stroke="midnightblue" points="140.649,-29.3679 149.943,-24.2818 139.506,-22.4619 140.649,-29.3679"/>
</g>
</g>
</svg>
