<?xml version="1.0" encoding="UTF-8" standalone="no"?>
<!DOCTYPE svg PUBLIC "-//W3C//DTD SVG 1.1//EN"
 "http://www.w3.org/Graphics/SVG/1.1/DTD/svg11.dtd">
<!-- Generated by graphviz version 2.38.0 (20140413.2041)
 -->
<!-- Title: fault_tree.h Pages: 1 -->
<svg width="353pt" height="252pt"
 viewBox="0.00 0.00 352.50 252.00" xmlns="http://www.w3.org/2000/svg" xmlns:xlink="http://www.w3.org/1999/xlink">
<g id="graph0" class="graph" transform="scale(1 1) rotate(0) translate(4 248)">
<title>fault_tree.h</title>
<polygon fill="white" stroke="none" points="-4,4 -4,-248 348.5,-248 348.5,4 -4,4"/>
<!-- Node1 -->
<g id="node1" class="node"><title>Node1</title>
<polygon fill="#bfbfbf" stroke="black" points="108.5,-224.5 108.5,-243.5 173.5,-243.5 173.5,-224.5 108.5,-224.5"/>
<text text-anchor="middle" x="141" y="-231.5" font-family="Helvetica,sans-Serif" font-size="10.00">fault_tree.h</text>
</g>
<!-- Node2 -->
<g id="node2" class="node"><title>Node2</title>
<g id="a_node2"><a xlink:href="fault__tree_8cc.xhtml" target="_top" xlink:title="Implementation of fault tree and component containers. ">
<polygon fill="white" stroke="black" points="14.5,-168.5 14.5,-187.5 85.5,-187.5 85.5,-168.5 14.5,-168.5"/>
<text text-anchor="middle" x="50" y="-175.5" font-family="Helvetica,sans-Serif" font-size="10.00">fault_tree.cc</text>
</a>
</g>
</g>
<!-- Node1&#45;&gt;Node2 -->
<g id="edge1" class="edge"><title>Node1&#45;&gt;Node2</title>
<path fill="none" stroke="midnightblue" d="M117.706,-219.177C100.961,-209.241 78.8996,-196.149 64.5844,-187.655"/>
<polygon fill="midnightblue" stroke="midnightblue" points="115.993,-222.231 126.379,-224.324 119.566,-216.211 115.993,-222.231"/>
</g>
<!-- Node3 -->
<g id="node3" class="node"><title>Node3</title>
<g id="a_node3"><a xlink:href="initializer_8h.xhtml" target="_top" xlink:title="A facility that processes input files into analysis constructs. ">
<polygon fill="white" stroke="black" points="11.5,-112.5 11.5,-131.5 74.5,-131.5 74.5,-112.5 11.5,-112.5"/>
<text text-anchor="middle" x="43" y="-119.5" font-family="Helvetica,sans-Serif" font-size="10.00">initializer.h</text>
</a>
</g>
</g>
<!-- Node1&#45;&gt;Node3 -->
<g id="edge2" class="edge"><title>Node1&#45;&gt;Node3</title>
<path fill="none" stroke="midnightblue" d="M130.038,-215.719C121.075,-202.146 107.687,-183.082 94,-168 81.4623,-154.184 64.9739,-140.281 54.1873,-131.661"/>
<polygon fill="midnightblue" stroke="midnightblue" points="127.11,-217.636 135.486,-224.123 132.983,-213.828 127.11,-217.636"/>
</g>
<!-- Node6 -->
<g id="node6" class="node"><title>Node6</title>
<g id="a_node6"><a xlink:href="model_8h.xhtml" target="_top" xlink:title="Representation for a model container for risk analysis. ">
<polygon fill="white" stroke="black" points="142.5,-168.5 142.5,-187.5 193.5,-187.5 193.5,-168.5 142.5,-168.5"/>
<text text-anchor="middle" x="168" y="-175.5" font-family="Helvetica,sans-Serif" font-size="10.00">model.h</text>
</a>
</g>
</g>
<!-- Node1&#45;&gt;Node6 -->
<g id="edge5" class="edge"><title>Node1&#45;&gt;Node6</title>
<path fill="none" stroke="midnightblue" d="M150.009,-214.983C154.592,-205.817 159.954,-195.092 163.624,-187.751"/>
<polygon fill="midnightblue" stroke="midnightblue" points="146.8,-213.573 145.459,-224.083 153.061,-216.704 146.8,-213.573"/>
</g>
<!-- Node11 -->
<g id="node11" class="node"><title>Node11</title>
<g id="a_node11"><a xlink:href="risk__analysis_8cc.xhtml" target="_top" xlink:title="Implementation of risk analysis handler. ">
<polygon fill="white" stroke="black" points="257.5,-56.5 257.5,-75.5 344.5,-75.5 344.5,-56.5 257.5,-56.5"/>
<text text-anchor="middle" x="301" y="-63.5" font-family="Helvetica,sans-Serif" font-size="10.00">risk_analysis.cc</text>
</a>
</g>
</g>
<!-- Node1&#45;&gt;Node11 -->
<g id="edge15" class="edge"><title>Node1&#45;&gt;Node11</title>
<path fill="none" stroke="midnightblue" d="M176.357,-220.761C213.182,-205.969 269.166,-177.274 296,-132 306.503,-114.28 304.599,-88.9024 302.621,-75.7118"/>
<polygon fill="midnightblue" stroke="midnightblue" points="175.038,-217.518 166.978,-224.395 177.567,-224.046 175.038,-217.518"/>
</g>
<!-- Node4 -->
<g id="node4" class="node"><title>Node4</title>
<g id="a_node4"><a xlink:href="initializer_8cc.xhtml" target="_top" xlink:title="Implementation of input file processing into analysis constructs. ">
<polygon fill="white" stroke="black" points="0,-56.5 0,-75.5 68,-75.5 68,-56.5 0,-56.5"/>
<text text-anchor="middle" x="34" y="-63.5" font-family="Helvetica,sans-Serif" font-size="10.00">initializer.cc</text>
</a>
</g>
</g>
<!-- Node3&#45;&gt;Node4 -->
<g id="edge3" class="edge"><title>Node3&#45;&gt;Node4</title>
<path fill="none" stroke="midnightblue" d="M39.8501,-102.101C38.356,-93.1357 36.643,-82.8579 35.4585,-75.7511"/>
<polygon fill="midnightblue" stroke="midnightblue" points="36.4174,-102.794 41.5138,-112.083 43.3221,-101.644 36.4174,-102.794"/>
</g>
<!-- Node5 -->
<g id="node5" class="node"><title>Node5</title>
<g id="a_node5"><a xlink:href="scram_8cc.xhtml" target="_top" xlink:title="Main entrance. ">
<polygon fill="white" stroke="black" points="97.5,-0.5 97.5,-19.5 154.5,-19.5 154.5,-0.5 97.5,-0.5"/>
<text text-anchor="middle" x="126" y="-7.5" font-family="Helvetica,sans-Serif" font-size="10.00">scram.cc</text>
</a>
</g>
</g>
<!-- Node3&#45;&gt;Node5 -->
<g id="edge4" class="edge"><title>Node3&#45;&gt;Node5</title>
<path fill="none" stroke="midnightblue" d="M55.5611,-104.384C61.9778,-95.8936 69.9079,-85.3972 77,-76 92.1533,-55.9214 109.924,-32.3398 119.346,-19.8337"/>
<polygon fill="midnightblue" stroke="midnightblue" points="52.7586,-102.287 49.5208,-112.375 58.3428,-106.508 52.7586,-102.287"/>
</g>
<!-- Node6&#45;&gt;Node3 -->
<g id="edge6" class="edge"><title>Node6&#45;&gt;Node3</title>
<path fill="none" stroke="midnightblue" d="M138.759,-164.368C115.35,-154.255 83.1587,-140.349 62.714,-131.516"/>
<polygon fill="midnightblue" stroke="midnightblue" points="137.625,-167.691 148.193,-168.444 140.401,-161.265 137.625,-167.691"/>
</g>
<!-- Node7 -->
<g id="node7" class="node"><title>Node7</title>
<g id="a_node7"><a xlink:href="model_8cc.xhtml" target="_top" xlink:title="Implementation of functions in Model class. ">
<polygon fill="white" stroke="black" points="231,-112.5 231,-131.5 287,-131.5 287,-112.5 231,-112.5"/>
<text text-anchor="middle" x="259" y="-119.5" font-family="Helvetica,sans-Serif" font-size="10.00">model.cc</text>
</a>
</g>
</g>
<!-- Node6&#45;&gt;Node7 -->
<g id="edge7" class="edge"><title>Node6&#45;&gt;Node7</title>
<path fill="none" stroke="midnightblue" d="M191.294,-163.177C208.039,-153.241 230.1,-140.149 244.416,-131.655"/>
<polygon fill="midnightblue" stroke="midnightblue" points="189.434,-160.211 182.621,-168.324 193.007,-166.231 189.434,-160.211"/>
</g>
<!-- Node8 -->
<g id="node8" class="node"><title>Node8</title>
<g id="a_node8"><a xlink:href="reporter_8h.xhtml" target="_top" xlink:title="Reporter of results. ">
<polygon fill="white" stroke="black" points="168,-56.5 168,-75.5 226,-75.5 226,-56.5 168,-56.5"/>
<text text-anchor="middle" x="197" y="-63.5" font-family="Helvetica,sans-Serif" font-size="10.00">reporter.h</text>
</a>
</g>
</g>
<!-- Node6&#45;&gt;Node8 -->
<g id="edge8" class="edge"><title>Node6&#45;&gt;Node8</title>
<path fill="none" stroke="midnightblue" d="M175.094,-158.939C178.117,-150.795 181.513,-141.003 184,-132 189.515,-112.033 193.702,-88.0096 195.701,-75.5055"/>
<polygon fill="midnightblue" stroke="midnightblue" points="171.744,-157.901 171.441,-168.491 178.282,-160.401 171.744,-157.901"/>
</g>
<!-- Node10 -->
<g id="node10" class="node"><title>Node10</title>
<g id="a_node10"><a xlink:href="risk__analysis_8h.xhtml" target="_top" xlink:title="Contains the main system for performing analysis. ">
<polygon fill="white" stroke="black" points="93,-112.5 93,-131.5 175,-131.5 175,-112.5 93,-112.5"/>
<text text-anchor="middle" x="134" y="-119.5" font-family="Helvetica,sans-Serif" font-size="10.00">risk_analysis.h</text>
</a>
</g>
</g>
<!-- Node6&#45;&gt;Node10 -->
<g id="edge11" class="edge"><title>Node6&#45;&gt;Node10</title>
<path fill="none" stroke="midnightblue" d="M157.023,-159.566C151.173,-150.275 144.23,-139.248 139.51,-131.751"/>
<polygon fill="midnightblue" stroke="midnightblue" points="154.096,-161.486 162.386,-168.083 160.019,-157.756 154.096,-161.486"/>
</g>
<!-- Node8&#45;&gt;Node5 -->
<g id="edge10" class="edge"><title>Node8&#45;&gt;Node5</title>
<path fill="none" stroke="midnightblue" d="M177.41,-50.1008C164.632,-40.3824 148.387,-28.0269 137.615,-19.8339"/>
<polygon fill="midnightblue" stroke="midnightblue" points="175.514,-53.0561 185.593,-56.324 179.752,-47.4844 175.514,-53.0561"/>
</g>
<!-- Node9 -->
<g id="node9" class="node"><title>Node9</title>
<g id="a_node9"><a xlink:href="reporter_8cc.xhtml" target="_top" xlink:title="Implements Reporter class. ">
<polygon fill="white" stroke="black" points="172.5,-0.5 172.5,-19.5 235.5,-19.5 235.5,-0.5 172.5,-0.5"/>
<text text-anchor="middle" x="204" y="-7.5" font-family="Helvetica,sans-Serif" font-size="10.00">reporter.cc</text>
</a>
</g>
</g>
<!-- Node8&#45;&gt;Node9 -->
<g id="edge9" class="edge"><title>Node8&#45;&gt;Node9</title>
<path fill="none" stroke="midnightblue" d="M199.45,-46.1005C200.612,-37.1357 201.944,-26.8579 202.866,-19.7511"/>
<polygon fill="midnightblue" stroke="midnightblue" points="195.971,-45.716 198.156,-56.083 202.912,-46.6159 195.971,-45.716"/>
</g>
<!-- Node10&#45;&gt;Node5 -->
<g id="edge14" class="edge"><title>Node10&#45;&gt;Node5</title>
<path fill="none" stroke="midnightblue" d="M132.643,-102.348C130.891,-78.2538 127.913,-37.3079 126.625,-19.5914"/>
<polygon fill="midnightblue" stroke="midnightblue" points="129.156,-102.649 133.372,-112.368 136.138,-102.141 129.156,-102.649"/>
</g>
<!-- Node10&#45;&gt;Node8 -->
<g id="edge12" class="edge"><title>Node10&#45;&gt;Node8</title>
<path fill="none" stroke="midnightblue" d="M152.04,-105.537C163.273,-95.9087 177.319,-83.8694 186.694,-75.8339"/>
<polygon fill="midnightblue" stroke="midnightblue" points="149.437,-103.159 144.122,-112.324 153.992,-108.473 149.437,-103.159"/>
</g>
<!-- Node10&#45;&gt;Node11 -->
<g id="edge13" class="edge"><title>Node10&#45;&gt;Node11</title>
<path fill="none" stroke="midnightblue" d="M170.17,-109.304C201.637,-99.1294 246.494,-84.6246 274.662,-75.5164"/>
<polygon fill="midnightblue" stroke="midnightblue" points="168.9,-106.037 160.462,-112.444 171.053,-112.697 168.9,-106.037"/>
</g>
</g>
</svg>
