<?xml version="1.0" encoding="UTF-8" standalone="no"?>
<!DOCTYPE svg PUBLIC "-//W3C//DTD SVG 1.1//EN"
 "http://www.w3.org/Graphics/SVG/1.1/DTD/svg11.dtd">
<!-- Generated by graphviz version 2.38.0 (20140413.2041)
 -->
<!-- Title: fault_tree.cc Pages: 1 -->
<!--zoomable 375 -->
<svg id="main" version="1.1" xmlns="http://www.w3.org/2000/svg" xmlns:xlink="http://www.w3.org/1999/xlink" xml:space="preserve" onload="init(evt)">
<style type="text/css"><![CDATA[
.edge:hover path { stroke: red; }
.edge:hover polygon { stroke: red; fill: red; }
]]></style>
<script type="text/javascript"><![CDATA[
var edges = document.getElementsByTagName('g');
if (edges && edges.length) {
  for (var i=0;i<edges.length;i++) {
    if (edges[i].id.substr(0,4)=='edge') {
      edges[i].setAttribute('class','edge');
    }
  }
}
]]></script>
        <defs>
                <circle id="rim" cx="0" cy="0" r="7"/>
                <circle id="rim2" cx="0" cy="0" r="3.5"/>
                <g id="zoomPlus">
                        <use xlink:href="#rim" fill="#404040">
                                <set attributeName="fill" to="#808080" begin="zoomplus.mouseover" end="zoomplus.mouseout"/>
                        </use>
                        <path d="M-4,0h8M0,-4v8" fill="none" stroke="white" stroke-width="1.5" pointer-events="none"/>
                </g>
                <g id="zoomMin">
                        <use xlink:href="#rim" fill="#404040">
                                <set attributeName="fill" to="#808080" begin="zoomminus.mouseover" end="zoomminus.mouseout"/>
                        </use>
                        <path d="M-4,0h8" fill="none" stroke="white" stroke-width="1.5" pointer-events="none"/>
                </g>
                <g id="dirArrow">
                        <path fill="none" stroke="white" stroke-width="1.5" d="M0,-3.0v7 M-2.5,-0.5L0,-3.0L2.5,-0.5"/>
                </g>
               <g id="resetDef">
                       <use xlink:href="#rim2" fill="#404040">
                               <set attributeName="fill" to="#808080" begin="reset.mouseover" end="reset.mouseout"/>
                       </use>
               </g>
        </defs>

<script type="text/javascript">
var viewWidth = 891;
var viewHeight = 375;
var sectionId = 'dynsection-0';
</script>
<script xlink:href="svgpan.js"/>
<svg id="graph" class="graph">
<g id="viewport">
<title>fault_tree.cc</title>
<polygon fill="white" stroke="none" points="-4,4 -4,-371 887,-371 887,4 -4,4"/>
<!-- Node1 -->
<g id="node1" class="node"><title>Node1</title>
<polygon fill="#bfbfbf" stroke="black" points="582.5,-347.5 582.5,-366.5 653.5,-366.5 653.5,-347.5 582.5,-347.5"/>
<text text-anchor="middle" x="618" y="-354.5" font-family="Helvetica,sans-Serif" font-size="10.00">fault_tree.cc</text>
</g>
<!-- Node2 -->
<g id="node2" class="node"><title>Node2</title>
<g id="a_node2"><a xlink:href="fault__tree_8h.xhtml" target="_top" xlink:title="Fault Tree and Component containers. ">
<polygon fill="white" stroke="black" points="416.5,-291.5 416.5,-310.5 481.5,-310.5 481.5,-291.5 416.5,-291.5"/>
<text text-anchor="middle" x="449" y="-298.5" font-family="Helvetica,sans-Serif" font-size="10.00">fault_tree.h</text>
</a>
</g>
</g>
<!-- Node1&#45;&gt;Node2 -->
<g id="edge1" class="edge"><title>Node1&#45;&gt;Node2</title>
<path fill="none" stroke="midnightblue" d="M591.221,-347.444C562.667,-338.32 517.267,-323.813 485.463,-313.651"/>
<polygon fill="midnightblue" stroke="midnightblue" points="486.244,-310.226 475.653,-310.516 484.114,-316.894 486.244,-310.226"/>
</g>
<!-- Node16 -->
<g id="node16" class="node"><title>Node16</title>
<g id="a_node16"><a xlink:href="error_8h.xhtml" target="_top" xlink:title="Exceptions for SCRAM. ">
<polygon fill="white" stroke="black" points="726,-123.5 726,-142.5 770,-142.5 770,-123.5 726,-123.5"/>
<text text-anchor="middle" x="748" y="-130.5" font-family="Helvetica,sans-Serif" font-size="10.00">error.h</text>
</a>
</g>
</g>
<!-- Node1&#45;&gt;Node16 -->
<g id="edge44" class="edge"><title>Node1&#45;&gt;Node16</title>
<path fill="none" stroke="midnightblue" d="M628.711,-347.455C648.143,-331.392 689.293,-294.719 712,-255 730.969,-221.82 740.8,-177.698 745.14,-152.937"/>
<polygon fill="midnightblue" stroke="midnightblue" points="748.646,-153.183 746.803,-142.75 741.737,-152.055 748.646,-153.183"/>
</g>
<!-- Node3 -->
<g id="node3" class="node"><title>Node3</title>
<polygon fill="white" stroke="#bfbfbf" points="240,-67.5 240,-86.5 292,-86.5 292,-67.5 240,-67.5"/>
<text text-anchor="middle" x="266" y="-74.5" font-family="Helvetica,sans-Serif" font-size="10.00">memory</text>
</g>
<!-- Node2&#45;&gt;Node3 -->
<g id="edge2" class="edge"><title>Node2&#45;&gt;Node3</title>
<path fill="none" stroke="midnightblue" d="M416.156,-299.774C365.168,-298.251 264.937,-290.517 189,-255 154.154,-238.702 139.162,-233.91 123,-199 98.2139,-145.463 180.362,-107.042 230.339,-89.1967"/>
<polygon fill="midnightblue" stroke="midnightblue" points="231.556,-92.479 239.864,-85.9036 229.269,-85.8633 231.556,-92.479"/>
</g>
<!-- Node4 -->
<g id="node4" class="node"><title>Node4</title>
<polygon fill="white" stroke="#bfbfbf" points="55.5,-6 55.5,-25 96.5,-25 96.5,-6 55.5,-6"/>
<text text-anchor="middle" x="76" y="-13" font-family="Helvetica,sans-Serif" font-size="10.00">string</text>
</g>
<!-- Node2&#45;&gt;Node4 -->
<g id="edge3" class="edge"><title>Node2&#45;&gt;Node4</title>
<path fill="none" stroke="midnightblue" d="M416.347,-299.009C313.025,-295 0,-275.774 0,-190 0,-190 0,-190 0,-132 0,-90.3123 34.9778,-52.0299 57.4751,-31.7185"/>
<polygon fill="midnightblue" stroke="midnightblue" points="59.8638,-34.2796 65.1111,-25.0755 55.2693,-28.9985 59.8638,-34.2796"/>
</g>
<!-- Node5 -->
<g id="node5" class="node"><title>Node5</title>
<polygon fill="white" stroke="#bfbfbf" points="456,-235.5 456,-254.5 534,-254.5 534,-235.5 456,-235.5"/>
<text text-anchor="middle" x="495" y="-242.5" font-family="Helvetica,sans-Serif" font-size="10.00">unordered_set</text>
</g>
<!-- Node2&#45;&gt;Node5 -->
<g id="edge4" class="edge"><title>Node2&#45;&gt;Node5</title>
<path fill="none" stroke="midnightblue" d="M456.596,-291.083C463.227,-283.298 473.021,-271.801 481.058,-262.367"/>
<polygon fill="midnightblue" stroke="midnightblue" points="483.725,-264.633 487.545,-254.751 478.396,-260.094 483.725,-264.633"/>
</g>
<!-- Node6 -->
<g id="node6" class="node"><title>Node6</title>
<polygon fill="white" stroke="#bfbfbf" points="707,-6 707,-25 751,-25 751,-6 707,-6"/>
<text text-anchor="middle" x="729" y="-13" font-family="Helvetica,sans-Serif" font-size="10.00">vector</text>
</g>
<!-- Node2&#45;&gt;Node6 -->
<g id="edge5" class="edge"><title>Node2&#45;&gt;Node6</title>
<path fill="none" stroke="midnightblue" d="M481.621,-298.739C582.552,-293.96 883,-272.782 883,-190 883,-190 883,-190 883,-132 883,-71.4129 805.77,-38.7144 760.693,-24.7891"/>
<polygon fill="midnightblue" stroke="midnightblue" points="761.646,-21.4212 751.064,-21.9478 759.665,-28.135 761.646,-21.4212"/>
</g>
<!-- Node7 -->
<g id="node7" class="node"><title>Node7</title>
<polygon fill="white" stroke="#bfbfbf" points="545.5,-67.5 545.5,-86.5 662.5,-86.5 662.5,-67.5 545.5,-67.5"/>
<text text-anchor="middle" x="604" y="-74.5" font-family="Helvetica,sans-Serif" font-size="10.00">boost/noncopyable.hpp</text>
</g>
<!-- Node2&#45;&gt;Node7 -->
<g id="edge6" class="edge"><title>Node2&#45;&gt;Node7</title>
<path fill="none" stroke="midnightblue" d="M481.627,-292.789C505.487,-286.187 537.483,-274.422 560,-255 601.993,-218.779 604.681,-197.487 615,-143 617.962,-127.362 614.46,-109.533 610.643,-96.5084"/>
<polygon fill="midnightblue" stroke="midnightblue" points="613.922,-95.2753 607.497,-86.8509 607.266,-97.4432 613.922,-95.2753"/>
</g>
<!-- Node8 -->
<g id="node8" class="node"><title>Node8</title>
<g id="a_node8"><a xlink:href="ccf__group_8h.xhtml" target="_top" xlink:title="Functional containers for basic events grouped by common cause failure. ">
<polygon fill="white" stroke="black" points="370,-235.5 370,-254.5 438,-254.5 438,-235.5 370,-235.5"/>
<text text-anchor="middle" x="404" y="-242.5" font-family="Helvetica,sans-Serif" font-size="10.00">ccf_group.h</text>
</a>
</g>
</g>
<!-- Node2&#45;&gt;Node8 -->
<g id="edge7" class="edge"><title>Node2&#45;&gt;Node8</title>
<path fill="none" stroke="midnightblue" d="M441.569,-291.083C435.147,-283.377 425.694,-272.033 417.878,-262.653"/>
<polygon fill="midnightblue" stroke="midnightblue" points="420.383,-260.193 411.293,-254.751 415.006,-264.674 420.383,-260.193"/>
</g>
<!-- Node10 -->
<g id="node10" class="node"><title>Node10</title>
<g id="a_node10"><a xlink:href="element_8h.xhtml" target="_top" xlink:title="Helper classes, structs, and properties common to all other classes. ">
<polygon fill="white" stroke="black" points="353.5,-67.5 353.5,-86.5 412.5,-86.5 412.5,-67.5 353.5,-67.5"/>
<text text-anchor="middle" x="383" y="-74.5" font-family="Helvetica,sans-Serif" font-size="10.00">element.h</text>
</a>
</g>
</g>
<!-- Node2&#45;&gt;Node10 -->
<g id="edge37" class="edge"><title>Node2&#45;&gt;Node10</title>
<path fill="none" stroke="midnightblue" d="M416.267,-292.445C396.548,-286.024 373,-274.614 361,-255 329.806,-204.012 358.162,-129.282 374,-95.6038"/>
<polygon fill="midnightblue" stroke="midnightblue" points="377.182,-97.0625 378.433,-86.5417 370.895,-93.9863 377.182,-97.0625"/>
</g>
<!-- Node15 -->
<g id="node15" class="node"><title>Node15</title>
<g id="a_node15"><a xlink:href="event_8h.xhtml" target="_top" xlink:title="Contains event classes for fault trees. ">
<polygon fill="white" stroke="black" points="513.5,-179.5 513.5,-198.5 562.5,-198.5 562.5,-179.5 513.5,-179.5"/>
<text text-anchor="middle" x="538" y="-186.5" font-family="Helvetica,sans-Serif" font-size="10.00">event.h</text>
</a>
</g>
</g>
<!-- Node2&#45;&gt;Node15 -->
<g id="edge38" class="edge"><title>Node2&#45;&gt;Node15</title>
<path fill="none" stroke="midnightblue" d="M481.556,-293.727C503.034,-287.717 529.595,-276.279 543,-255 551.663,-241.248 549.034,-222.47 545.054,-208.632"/>
<polygon fill="midnightblue" stroke="midnightblue" points="548.253,-207.16 541.764,-198.785 541.614,-209.379 548.253,-207.16"/>
</g>
<!-- Node19 -->
<g id="node19" class="node"><title>Node19</title>
<g id="a_node19"><a xlink:href="parameter_8h.xhtml" target="_top" xlink:title="Parameter expressions that act like a shareable variable. ">
<polygon fill="white" stroke="black" points="132,-179.5 132,-198.5 200,-198.5 200,-179.5 132,-179.5"/>
<text text-anchor="middle" x="166" y="-186.5" font-family="Helvetica,sans-Serif" font-size="10.00">parameter.h</text>
</a>
</g>
</g>
<!-- Node2&#45;&gt;Node19 -->
<g id="edge39" class="edge"><title>Node2&#45;&gt;Node19</title>
<path fill="none" stroke="midnightblue" d="M416.292,-300.992C368.252,-300.937 277.449,-294.952 214,-255 196.06,-243.704 182.574,-223.093 174.534,-208.101"/>
<polygon fill="midnightblue" stroke="midnightblue" points="177.476,-206.16 169.851,-198.803 171.224,-209.309 177.476,-206.16"/>
</g>
<!-- Node8&#45;&gt;Node3 -->
<g id="edge8" class="edge"><title>Node8&#45;&gt;Node3</title>
<path fill="none" stroke="midnightblue" d="M392.69,-235.282C372.047,-218.939 327.746,-181.828 299,-143 288.185,-128.393 279.119,-109.719 273.243,-96.1381"/>
<polygon fill="midnightblue" stroke="midnightblue" points="276.313,-94.4037 269.242,-86.5133 269.849,-97.0907 276.313,-94.4037"/>
</g>
<!-- Node8&#45;&gt;Node4 -->
<g id="edge9" class="edge"><title>Node8&#45;&gt;Node4</title>
<path fill="none" stroke="midnightblue" d="M369.806,-243.078C303.012,-240.568 158.613,-231.437 123,-199 75.8706,-156.073 73.2559,-72.7706 74.6963,-35.4198"/>
<polygon fill="midnightblue" stroke="midnightblue" points="78.1931,-35.5707 75.2287,-25.399 71.203,-35.1992 78.1931,-35.5707"/>
</g>
<!-- Node8&#45;&gt;Node6 -->
<g id="edge11" class="edge"><title>Node8&#45;&gt;Node6</title>
<path fill="none" stroke="midnightblue" d="M438.296,-236.471C476.28,-227.984 539.261,-213.474 593,-199 676.361,-176.548 707.157,-190.873 779,-143 811.857,-121.106 845.41,-100.798 825,-67 811.155,-44.0734 783.065,-31.0345 760.83,-23.973"/>
<polygon fill="midnightblue" stroke="midnightblue" points="761.678,-20.5747 751.098,-21.1351 759.718,-27.2948 761.678,-20.5747"/>
</g>
<!-- Node8&#45;&gt;Node7 -->
<g id="edge12" class="edge"><title>Node8&#45;&gt;Node7</title>
<path fill="none" stroke="midnightblue" d="M438.04,-236.726C484.063,-226.606 561.511,-208.461 571,-199 598.536,-171.547 603.714,-123.518 604.327,-96.9761"/>
<polygon fill="midnightblue" stroke="midnightblue" points="607.827,-96.7513 604.356,-86.7411 600.827,-96.7308 607.827,-96.7513"/>
</g>
<!-- Node9 -->
<g id="node9" class="node"><title>Node9</title>
<polygon fill="white" stroke="#bfbfbf" points="408,-179.5 408,-198.5 448,-198.5 448,-179.5 408,-179.5"/>
<text text-anchor="middle" x="428" y="-186.5" font-family="Helvetica,sans-Serif" font-size="10.00">utility</text>
</g>
<!-- Node8&#45;&gt;Node9 -->
<g id="edge10" class="edge"><title>Node8&#45;&gt;Node9</title>
<path fill="none" stroke="midnightblue" d="M407.963,-235.083C411.213,-227.77 415.919,-217.181 419.954,-208.103"/>
<polygon fill="midnightblue" stroke="midnightblue" points="423.248,-209.311 424.111,-198.751 416.851,-206.468 423.248,-209.311"/>
</g>
<!-- Node8&#45;&gt;Node10 -->
<g id="edge13" class="edge"><title>Node8&#45;&gt;Node10</title>
<path fill="none" stroke="midnightblue" d="M402.871,-235.075C399.565,-208.945 389.858,-132.211 385.35,-96.577"/>
<polygon fill="midnightblue" stroke="midnightblue" points="388.811,-96.0497 384.084,-86.5681 381.867,-96.9283 388.811,-96.0497"/>
</g>
<!-- Node8&#45;&gt;Node15 -->
<g id="edge20" class="edge"><title>Node8&#45;&gt;Node15</title>
<path fill="none" stroke="midnightblue" d="M425.233,-235.444C447.384,-226.517 482.319,-212.439 507.436,-202.317"/>
<polygon fill="midnightblue" stroke="midnightblue" points="508.9,-205.501 516.867,-198.516 506.283,-199.008 508.9,-205.501"/>
</g>
<!-- Node18 -->
<g id="node18" class="node"><title>Node18</title>
<g id="a_node18"><a xlink:href="expression_8h.xhtml" target="_top" xlink:title="Provides the base class for all expressions and units for expression values. ">
<polygon fill="white" stroke="black" points="408,-123.5 408,-142.5 480,-142.5 480,-123.5 408,-123.5"/>
<text text-anchor="middle" x="444" y="-130.5" font-family="Helvetica,sans-Serif" font-size="10.00">expression.h</text>
</a>
</g>
</g>
<!-- Node8&#45;&gt;Node18 -->
<g id="edge36" class="edge"><title>Node8&#45;&gt;Node18</title>
<path fill="none" stroke="midnightblue" d="M420.334,-235.387C432.955,-227.72 449.497,-215.213 457,-199 463.933,-184.019 459.015,-165.42 453.351,-151.96"/>
<polygon fill="midnightblue" stroke="midnightblue" points="456.475,-150.379 449.057,-142.814 450.139,-153.354 456.475,-150.379"/>
</g>
<!-- Node10&#45;&gt;Node4 -->
<g id="edge15" class="edge"><title>Node10&#45;&gt;Node4</title>
<path fill="none" stroke="midnightblue" d="M353.216,-69.7043C348.468,-68.7594 343.605,-67.8262 339,-67 235.863,-48.4954 206.05,-62.142 106,-31 104.329,-30.4799 102.634,-29.8803 100.944,-29.2272"/>
<polygon fill="midnightblue" stroke="midnightblue" points="102.085,-25.9055 91.5225,-25.0831 99.2671,-32.3131 102.085,-25.9055"/>
</g>
<!-- Node10&#45;&gt;Node6 -->
<g id="edge16" class="edge"><title>Node10&#45;&gt;Node6</title>
<path fill="none" stroke="midnightblue" d="M412.799,-70.8756C477.372,-59.7714 629.758,-33.5661 696.609,-22.0701"/>
<polygon fill="midnightblue" stroke="midnightblue" points="697.315,-25.5001 706.578,-20.3559 696.129,-18.6014 697.315,-25.5001"/>
</g>
<!-- Node11 -->
<g id="node11" class="node"><title>Node11</title>
<polygon fill="white" stroke="#bfbfbf" points="573,-6 573,-25 619,-25 619,-6 573,-6"/>
<text text-anchor="middle" x="596" y="-13" font-family="Helvetica,sans-Serif" font-size="10.00">cstdint</text>
</g>
<!-- Node10&#45;&gt;Node11 -->
<g id="edge14" class="edge"><title>Node10&#45;&gt;Node11</title>
<path fill="none" stroke="midnightblue" d="M412.833,-69.1881C456.423,-59.1247 535.34,-40.4583 563,-31 564.865,-30.3622 566.771,-29.6618 568.679,-28.9239"/>
<polygon fill="midnightblue" stroke="midnightblue" points="570.163,-32.0977 578.063,-25.0377 567.485,-25.6303 570.163,-32.0977"/>
</g>
<!-- Node12 -->
<g id="node12" class="node"><title>Node12</title>
<polygon fill="white" stroke="#bfbfbf" points="397.5,-6 397.5,-25 554.5,-25 554.5,-6 397.5,-6"/>
<text text-anchor="middle" x="476" y="-13" font-family="Helvetica,sans-Serif" font-size="10.00">boost/multi_index_container.hpp</text>
</g>
<!-- Node10&#45;&gt;Node12 -->
<g id="edge17" class="edge"><title>Node10&#45;&gt;Node12</title>
<path fill="none" stroke="midnightblue" d="M396.325,-67.4751C411.38,-57.8431 436.116,-42.0175 454.037,-30.5517"/>
<polygon fill="midnightblue" stroke="midnightblue" points="456.163,-33.3466 462.7,-25.0091 452.39,-27.4501 456.163,-33.3466"/>
</g>
<!-- Node13 -->
<g id="node13" class="node"><title>Node13</title>
<polygon fill="white" stroke="#bfbfbf" points="115,-0.5 115,-30.5 243,-30.5 243,-0.5 115,-0.5"/>
<text text-anchor="start" x="123" y="-18.5" font-family="Helvetica,sans-Serif" font-size="10.00">boost/multi_index/hashed</text>
<text text-anchor="middle" x="179" y="-7.5" font-family="Helvetica,sans-Serif" font-size="10.00">_index.hpp</text>
</g>
<!-- Node10&#45;&gt;Node13 -->
<g id="edge18" class="edge"><title>Node10&#45;&gt;Node13</title>
<path fill="none" stroke="midnightblue" d="M353.772,-67.4751C323.432,-58.6259 275.167,-44.5487 237.038,-33.4277"/>
<polygon fill="midnightblue" stroke="midnightblue" points="237.659,-29.963 227.079,-30.523 235.699,-36.683 237.659,-29.963"/>
</g>
<!-- Node14 -->
<g id="node14" class="node"><title>Node14</title>
<polygon fill="white" stroke="#bfbfbf" points="261,-0.5 261,-30.5 379,-30.5 379,-0.5 261,-0.5"/>
<text text-anchor="start" x="269" y="-18.5" font-family="Helvetica,sans-Serif" font-size="10.00">boost/multi_index/mem</text>
<text text-anchor="middle" x="320" y="-7.5" font-family="Helvetica,sans-Serif" font-size="10.00">_fun.hpp</text>
</g>
<!-- Node10&#45;&gt;Node14 -->
<g id="edge19" class="edge"><title>Node10&#45;&gt;Node14</title>
<path fill="none" stroke="midnightblue" d="M373.974,-67.4751C365.76,-59.7179 353.293,-47.9435 342.409,-37.6645"/>
<polygon fill="midnightblue" stroke="midnightblue" points="344.521,-34.8447 334.848,-30.523 339.715,-39.9338 344.521,-34.8447"/>
</g>
<!-- Node15&#45;&gt;Node3 -->
<g id="edge22" class="edge"><title>Node15&#45;&gt;Node3</title>
<path fill="none" stroke="midnightblue" d="M513.316,-184.576C464.965,-177.568 359.727,-160.749 328,-143 307.036,-131.272 288.854,-110.126 277.696,-95.1404"/>
<polygon fill="midnightblue" stroke="midnightblue" points="280.357,-92.8445 271.694,-86.7454 274.662,-96.9158 280.357,-92.8445"/>
</g>
<!-- Node15&#45;&gt;Node4 -->
<g id="edge23" class="edge"><title>Node15&#45;&gt;Node4</title>
<path fill="none" stroke="midnightblue" d="M513.372,-182.764C484.762,-176.073 436.672,-162.918 399,-143 350.273,-117.237 351.303,-89.5301 301,-67 220.568,-30.9755 189.757,-58.4212 106,-31 104.375,-30.4679 102.725,-29.8653 101.078,-29.2157"/>
<polygon fill="midnightblue" stroke="midnightblue" points="102.424,-25.9844 91.863,-25.1425 99.5942,-32.3868 102.424,-25.9844"/>
</g>
<!-- Node15&#45;&gt;Node6 -->
<g id="edge24" class="edge"><title>Node15&#45;&gt;Node6</title>
<path fill="none" stroke="midnightblue" d="M551.258,-179.454C576.127,-163.107 630.878,-125.589 671,-87 688.406,-70.2588 705.64,-48.47 716.74,-33.5735"/>
<polygon fill="midnightblue" stroke="midnightblue" points="719.718,-35.4309 722.805,-25.2958 714.071,-31.2936 719.718,-35.4309"/>
</g>
<!-- Node15&#45;&gt;Node7 -->
<g id="edge25" class="edge"><title>Node15&#45;&gt;Node7</title>
<path fill="none" stroke="midnightblue" d="M543.179,-179.368C554.023,-161.296 579.294,-119.176 593.616,-95.3074"/>
<polygon fill="midnightblue" stroke="midnightblue" points="596.701,-96.9671 598.845,-86.5914 590.699,-93.3656 596.701,-96.9671"/>
</g>
<!-- Node15&#45;&gt;Node10 -->
<g id="edge26" class="edge"><title>Node15&#45;&gt;Node10</title>
<path fill="none" stroke="midnightblue" d="M533.415,-179.266C525.84,-165.583 509.492,-139.008 489,-123 469.278,-107.594 443.5,-96.4951 422.303,-89.1746"/>
<polygon fill="midnightblue" stroke="midnightblue" points="423.212,-85.789 412.619,-85.9787 421.018,-92.4364 423.212,-85.789"/>
</g>
<!-- Node15&#45;&gt;Node11 -->
<g id="edge21" class="edge"><title>Node15&#45;&gt;Node11</title>
<path fill="none" stroke="midnightblue" d="M535.38,-179.256C529.691,-158.569 518.093,-105.477 536,-67 543.188,-51.5547 557.683,-39.1436 570.625,-30.4904"/>
<polygon fill="midnightblue" stroke="midnightblue" points="572.606,-33.3796 579.228,-25.109 568.894,-27.445 572.606,-33.3796"/>
</g>
<!-- Node15&#45;&gt;Node16 -->
<g id="edge27" class="edge"><title>Node15&#45;&gt;Node16</title>
<path fill="none" stroke="midnightblue" d="M562.501,-181.7C600.583,-171.907 673.972,-153.036 716.126,-142.196"/>
<polygon fill="midnightblue" stroke="midnightblue" points="717.066,-145.568 725.879,-139.688 715.323,-138.789 717.066,-145.568"/>
</g>
<!-- Node15&#45;&gt;Node18 -->
<g id="edge30" class="edge"><title>Node15&#45;&gt;Node18</title>
<path fill="none" stroke="midnightblue" d="M522.897,-179.324C508.097,-170.822 485.306,-157.729 468.018,-147.797"/>
<polygon fill="midnightblue" stroke="midnightblue" points="469.48,-144.601 459.065,-142.655 465.993,-150.671 469.48,-144.601"/>
</g>
<!-- Node16&#45;&gt;Node4 -->
<g id="edge29" class="edge"><title>Node16&#45;&gt;Node4</title>
<path fill="none" stroke="midnightblue" d="M741.047,-123.275C728.737,-108.574 701.514,-79.2714 671,-67 554.275,-20.0587 227.68,-62.9697 106,-31 104.07,-30.4929 102.115,-29.8591 100.177,-29.142"/>
<polygon fill="midnightblue" stroke="midnightblue" points="101.389,-25.8523 90.8239,-25.0629 98.591,-32.2686 101.389,-25.8523"/>
</g>
<!-- Node17 -->
<g id="node17" class="node"><title>Node17</title>
<polygon fill="white" stroke="#bfbfbf" points="757.5,-67.5 757.5,-86.5 816.5,-86.5 816.5,-67.5 757.5,-67.5"/>
<text text-anchor="middle" x="787" y="-74.5" font-family="Helvetica,sans-Serif" font-size="10.00">exception</text>
</g>
<!-- Node16&#45;&gt;Node17 -->
<g id="edge28" class="edge"><title>Node16&#45;&gt;Node17</title>
<path fill="none" stroke="midnightblue" d="M754.44,-123.083C759.949,-115.455 768.031,-104.264 774.765,-94.9408"/>
<polygon fill="midnightblue" stroke="midnightblue" points="777.662,-96.9071 780.68,-86.7511 771.987,-92.8087 777.662,-96.9071"/>
</g>
<!-- Node18&#45;&gt;Node3 -->
<g id="edge32" class="edge"><title>Node18&#45;&gt;Node3</title>
<path fill="none" stroke="midnightblue" d="M415.795,-123.444C384.968,-114.091 335.5,-99.0844 301.919,-88.8969"/>
<polygon fill="midnightblue" stroke="midnightblue" points="302.631,-85.4554 292.046,-85.9015 300.599,-92.1539 302.631,-85.4554"/>
</g>
<!-- Node18&#45;&gt;Node6 -->
<g id="edge33" class="edge"><title>Node18&#45;&gt;Node6</title>
<path fill="none" stroke="midnightblue" d="M453.735,-123.296C469.76,-109.411 503.198,-82.263 536,-67 589.646,-42.0383 657.642,-27.9028 696.945,-21.2604"/>
<polygon fill="midnightblue" stroke="midnightblue" points="697.693,-24.6848 706.999,-19.6198 696.565,-17.7762 697.693,-24.6848"/>
</g>
<!-- Node18&#45;&gt;Node7 -->
<g id="edge34" class="edge"><title>Node18&#45;&gt;Node7</title>
<path fill="none" stroke="midnightblue" d="M469.352,-123.444C496.269,-114.359 538.996,-99.9388 569.087,-89.7831"/>
<polygon fill="midnightblue" stroke="midnightblue" points="570.41,-93.0305 578.766,-86.5164 568.172,-86.3981 570.41,-93.0305"/>
</g>
<!-- Node18&#45;&gt;Node10 -->
<g id="edge35" class="edge"><title>Node18&#45;&gt;Node10</title>
<path fill="none" stroke="midnightblue" d="M434.199,-123.324C425.182,-115.341 411.594,-103.313 400.682,-93.6529"/>
<polygon fill="midnightblue" stroke="midnightblue" points="402.787,-90.8416 392.979,-86.8339 398.147,-96.083 402.787,-90.8416"/>
</g>
<!-- Node18&#45;&gt;Node11 -->
<g id="edge31" class="edge"><title>Node18&#45;&gt;Node11</title>
<path fill="none" stroke="midnightblue" d="M444.461,-123.201C445.646,-109.428 449.879,-82.7316 465,-67 497.155,-33.5469 519.961,-48.3413 563,-31 564.415,-30.4299 565.859,-29.837 567.315,-29.2307"/>
<polygon fill="midnightblue" stroke="midnightblue" points="569.072,-32.2862 576.89,-25.1362 566.319,-25.8499 569.072,-32.2862"/>
</g>
<!-- Node19&#45;&gt;Node3 -->
<g id="edge40" class="edge"><title>Node19&#45;&gt;Node3</title>
<path fill="none" stroke="midnightblue" d="M164.991,-179.496C163.873,-166.128 163.625,-139.976 176,-123 188.969,-105.209 210.982,-94.0283 229.99,-87.2618"/>
<polygon fill="midnightblue" stroke="midnightblue" points="231.181,-90.555 239.593,-84.1141 229,-83.9032 231.181,-90.555"/>
</g>
<!-- Node19&#45;&gt;Node4 -->
<g id="edge41" class="edge"><title>Node19&#45;&gt;Node4</title>
<path fill="none" stroke="midnightblue" d="M161.413,-179.26C147.268,-152.306 104.137,-70.1165 85.1436,-33.9237"/>
<polygon fill="midnightblue" stroke="midnightblue" points="88.2169,-32.2477 80.4708,-25.0194 82.0185,-35.5006 88.2169,-32.2477"/>
</g>
<!-- Node19&#45;&gt;Node10 -->
<g id="edge42" class="edge"><title>Node19&#45;&gt;Node10</title>
<path fill="none" stroke="midnightblue" d="M169.965,-179.37C176.864,-165.34 192.428,-137.678 214,-123 252.954,-96.4938 306.782,-85.5872 343.137,-81.1077"/>
<polygon fill="midnightblue" stroke="midnightblue" points="343.814,-84.5538 353.361,-79.9602 343.033,-77.5975 343.814,-84.5538"/>
</g>
<!-- Node19&#45;&gt;Node18 -->
<g id="edge43" class="edge"><title>Node19&#45;&gt;Node18</title>
<path fill="none" stroke="midnightblue" d="M200.088,-181.379C249.772,-171.728 342.208,-153.773 397.915,-142.952"/>
<polygon fill="midnightblue" stroke="midnightblue" points="398.721,-146.361 407.87,-141.018 397.386,-139.489 398.721,-146.361"/>
</g>
</g>
</svg>
        <g id="navigator" transform="translate(0 0)" fill="#404254">
                <rect fill="#f2f5e9" fill-opacity="0.5" stroke="#606060" stroke-width=".5" x="0" y="0" width="60" height="60"/>
                <use id="zoomplus" xlink:href="#zoomPlus" x="17" y="9" onmousedown="handleZoom(evt,'in')"/>
                <use id="zoomminus" xlink:href="#zoomMin" x="42" y="9" onmousedown="handleZoom(evt,'out')"/>
                <use id="reset" xlink:href="#resetDef" x="30" y="36" onmousedown="handleReset()"/>
                <g id="arrowUp" xlink:href="#dirArrow" transform="translate(30 24)" onmousedown="handlePan(0,-1)">
                  <use xlink:href="#rim" fill="#404040">
                        <set attributeName="fill" to="#808080" begin="arrowUp.mouseover" end="arrowUp.mouseout"/>
                  </use>
                  <path fill="none" stroke="white" stroke-width="1.5" d="M0,-3.0v7 M-2.5,-0.5L0,-3.0L2.5,-0.5"/>
                </g>
                <g id="arrowRight" xlink:href="#dirArrow" transform="rotate(90) translate(36 -43)" onmousedown="handlePan(1,0)">
                  <use xlink:href="#rim" fill="#404040">
                        <set attributeName="fill" to="#808080" begin="arrowRight.mouseover" end="arrowRight.mouseout"/>
                  </use>
                  <path fill="none" stroke="white" stroke-width="1.5" d="M0,-3.0v7 M-2.5,-0.5L0,-3.0L2.5,-0.5"/>
                </g>
                <g id="arrowDown" xlink:href="#dirArrow" transform="rotate(180) translate(-30 -48)" onmousedown="handlePan(0,1)">
                  <use xlink:href="#rim" fill="#404040">
                        <set attributeName="fill" to="#808080" begin="arrowDown.mouseover" end="arrowDown.mouseout"/>
                  </use>
                  <path fill="none" stroke="white" stroke-width="1.5" d="M0,-3.0v7 M-2.5,-0.5L0,-3.0L2.5,-0.5"/>
                </g>
                <g id="arrowLeft" xlink:href="#dirArrow" transform="rotate(270) translate(-36 17)" onmousedown="handlePan(-1,0)">
                  <use xlink:href="#rim" fill="#404040">
                        <set attributeName="fill" to="#808080" begin="arrowLeft.mouseover" end="arrowLeft.mouseout"/>
                  </use>
                  <path fill="none" stroke="white" stroke-width="1.5" d="M0,-3.0v7 M-2.5,-0.5L0,-3.0L2.5,-0.5"/>
                </g>
        </g>
        <svg viewBox="0 0 15 15" width="100%" height="30px" preserveAspectRatio="xMaxYMin meet">
         <g id="arrow_out" transform="scale(0.3 0.3)">
          <a xlink:href="fault__tree_8cc__incl_org.svg" target="_base">
           <rect id="button" ry="5" rx="5" y="6" x="6" height="38" width="38"
                fill="#f2f5e9" fill-opacity="0.5" stroke="#606060" stroke-width="1.0"/>
           <path id="arrow"
             d="M 11.500037,31.436501 C 11.940474,20.09759 22.043105,11.32322 32.158766,21.979434 L 37.068811,17.246167 C 37.068811,17.246167 37.088388,32 37.088388,32 L 22.160133,31.978069 C 22.160133,31.978069 26.997745,27.140456 26.997745,27.140456 C 18.528582,18.264221 13.291696,25.230495 11.500037,31.436501 z"
             style="fill:#404040;"/>
          </a>
         </g>
        </svg>
</svg>
