<?xml version="1.0" encoding="UTF-8" standalone="no"?>
<!DOCTYPE svg PUBLIC "-//W3C//DTD SVG 1.1//EN"
 "http://www.w3.org/Graphics/SVG/1.1/DTD/svg11.dtd">
<!-- Generated by graphviz version 2.38.0 (20140413.2041)
 -->
<!-- Title: fault_tree_analysis.h Pages: 1 -->
<svg width="1215pt" height="274pt"
 viewBox="0.00 0.00 1214.52 274.00" xmlns="http://www.w3.org/2000/svg" xmlns:xlink="http://www.w3.org/1999/xlink">
<g id="graph0" class="graph" transform="scale(1 1) rotate(0) translate(4 270)">
<title>fault_tree_analysis.h</title>
<polygon fill="white" stroke="none" points="-4,4 -4,-270 1210.52,-270 1210.52,4 -4,4"/>
<!-- Node1 -->
<g id="node1" class="node"><title>Node1</title>
<polygon fill="#bfbfbf" stroke="black" points="372.503,-246.5 372.503,-265.5 479.503,-265.5 479.503,-246.5 372.503,-246.5"/>
<text text-anchor="middle" x="426.003" y="-253.5" font-family="Helvetica,sans-Serif" font-size="10.00">fault_tree_analysis.h</text>
</g>
<!-- Node2 -->
<g id="node2" class="node"><title>Node2</title>
<polygon fill="white" stroke="#bfbfbf" points="474.003,-73 474.003,-92 520.003,-92 520.003,-73 474.003,-73"/>
<text text-anchor="middle" x="497.003" y="-80" font-family="Helvetica,sans-Serif" font-size="10.00">cstdint</text>
</g>
<!-- Node1&#45;&gt;Node2 -->
<g id="edge1" class="edge"><title>Node1&#45;&gt;Node2</title>
<path fill="none" stroke="midnightblue" d="M429.621,-246.26C440.732,-219.421 474.516,-137.818 489.597,-101.39"/>
<polygon fill="midnightblue" stroke="midnightblue" points="492.885,-102.598 493.476,-92.0194 486.417,-99.9201 492.885,-102.598"/>
</g>
<!-- Node3 -->
<g id="node3" class="node"><title>Node3</title>
<polygon fill="white" stroke="#bfbfbf" points="1142,-6 1142,-25 1194,-25 1194,-6 1142,-6"/>
<text text-anchor="middle" x="1168" y="-13" font-family="Helvetica,sans-Serif" font-size="10.00">memory</text>
</g>
<!-- Node1&#45;&gt;Node3 -->
<g id="edge2" class="edge"><title>Node1&#45;&gt;Node3</title>
<path fill="none" stroke="midnightblue" d="M479.826,-252.955C604.802,-247.869 911.627,-233.351 1012,-210 1107.85,-187.702 1167.48,-189.771 1203,-98 1207.98,-85.1514 1207.11,-80.15 1203,-67 1199.05,-54.3722 1190.72,-42.1264 1183.17,-32.8567"/>
<polygon fill="midnightblue" stroke="midnightblue" points="1185.79,-30.5386 1176.61,-25.2548 1180.49,-35.1121 1185.79,-30.5386"/>
</g>
<!-- Node4 -->
<g id="node4" class="node"><title>Node4</title>
<polygon fill="white" stroke="#bfbfbf" points="21.503,-73 21.503,-92 62.503,-92 62.503,-73 21.503,-73"/>
<text text-anchor="middle" x="42.003" y="-80" font-family="Helvetica,sans-Serif" font-size="10.00">string</text>
</g>
<!-- Node1&#45;&gt;Node4 -->
<g id="edge3" class="edge"><title>Node1&#45;&gt;Node4</title>
<path fill="none" stroke="midnightblue" d="M372.444,-251.86C286.975,-246.242 123.977,-232.867 71.003,-210 35.0575,-194.483 19.7123,-189.407 3.00299,-154 -6.06349,-134.788 9.35404,-113.559 23.3958,-99.467"/>
<polygon fill="midnightblue" stroke="midnightblue" points="25.9956,-101.827 30.8909,-92.4309 21.2046,-96.7234 25.9956,-101.827"/>
</g>
<!-- Node5 -->
<g id="node5" class="node"><title>Node5</title>
<polygon fill="white" stroke="#bfbfbf" points="1094.5,-73 1094.5,-92 1177.5,-92 1177.5,-73 1094.5,-73"/>
<text text-anchor="middle" x="1136" y="-80" font-family="Helvetica,sans-Serif" font-size="10.00">unordered_map</text>
</g>
<!-- Node1&#45;&gt;Node5 -->
<g id="edge4" class="edge"><title>Node1&#45;&gt;Node5</title>
<path fill="none" stroke="midnightblue" d="M479.717,-253.692C572.239,-250.663 767.313,-240.868 929.003,-210 1015.06,-193.571 1057.24,-217.118 1118,-154 1131.26,-140.232 1135.13,-118.117 1136.08,-102.328"/>
<polygon fill="midnightblue" stroke="midnightblue" points="1139.59,-102.248 1136.35,-92.1586 1132.59,-102.062 1139.59,-102.248"/>
</g>
<!-- Node6 -->
<g id="node6" class="node"><title>Node6</title>
<polygon fill="white" stroke="#bfbfbf" points="320.003,-190.5 320.003,-209.5 398.003,-209.5 398.003,-190.5 320.003,-190.5"/>
<text text-anchor="middle" x="359.003" y="-197.5" font-family="Helvetica,sans-Serif" font-size="10.00">unordered_set</text>
</g>
<!-- Node1&#45;&gt;Node6 -->
<g id="edge5" class="edge"><title>Node1&#45;&gt;Node6</title>
<path fill="none" stroke="midnightblue" d="M415.238,-246.324C405.237,-238.263 390.116,-226.077 378.073,-216.369"/>
<polygon fill="midnightblue" stroke="midnightblue" points="379.946,-213.384 369.964,-209.834 375.553,-218.834 379.946,-213.384"/>
</g>
<!-- Node7 -->
<g id="node7" class="node"><title>Node7</title>
<polygon fill="white" stroke="#bfbfbf" points="545.003,-6 545.003,-25 589.003,-25 589.003,-6 545.003,-6"/>
<text text-anchor="middle" x="567.003" y="-13" font-family="Helvetica,sans-Serif" font-size="10.00">vector</text>
</g>
<!-- Node1&#45;&gt;Node7 -->
<g id="edge6" class="edge"><title>Node1&#45;&gt;Node7</title>
<path fill="none" stroke="midnightblue" d="M398.043,-246.459C322.39,-222.016 123.998,-148.296 195.003,-67 217.28,-41.4948 448.567,-24.1181 534.815,-18.4819"/>
<polygon fill="midnightblue" stroke="midnightblue" points="535.07,-21.9729 544.824,-17.8382 534.62,-14.9873 535.07,-21.9729"/>
</g>
<!-- Node8 -->
<g id="node8" class="node"><title>Node8</title>
<g id="a_node8"><a xlink:href="analysis_8h.xhtml" target="_top" xlink:title="Common facilities for all analysis classes. ">
<polygon fill="white" stroke="black" points="107.503,-190.5 107.503,-209.5 168.503,-209.5 168.503,-190.5 107.503,-190.5"/>
<text text-anchor="middle" x="138.003" y="-197.5" font-family="Helvetica,sans-Serif" font-size="10.00">analysis.h</text>
</a>
</g>
</g>
<!-- Node1&#45;&gt;Node8 -->
<g id="edge7" class="edge"><title>Node1&#45;&gt;Node8</title>
<path fill="none" stroke="midnightblue" d="M380.369,-246.444C324.905,-236.044 232.147,-218.652 178.91,-208.67"/>
<polygon fill="midnightblue" stroke="midnightblue" points="179.286,-205.18 168.812,-206.777 177.996,-212.06 179.286,-205.18"/>
</g>
<!-- Node11 -->
<g id="node11" class="node"><title>Node11</title>
<g id="a_node11"><a xlink:href="settings_8h.xhtml" target="_top" xlink:title="Builder for settings. ">
<polygon fill="white" stroke="black" points="12.503,-134.5 12.503,-153.5 71.503,-153.5 71.503,-134.5 12.503,-134.5"/>
<text text-anchor="middle" x="42.003" y="-141.5" font-family="Helvetica,sans-Serif" font-size="10.00">settings.h</text>
</a>
</g>
</g>
<!-- Node1&#45;&gt;Node11 -->
<g id="edge48" class="edge"><title>Node1&#45;&gt;Node11</title>
<path fill="none" stroke="midnightblue" d="M372.472,-252.238C291.963,-247.322 144.208,-235.121 98.003,-210 78.0365,-199.144 61.9778,-178.139 52.2613,-162.939"/>
<polygon fill="midnightblue" stroke="midnightblue" points="54.9914,-160.691 46.8147,-153.954 49.0053,-164.32 54.9914,-160.691"/>
</g>
<!-- Node12 -->
<g id="node12" class="node"><title>Node12</title>
<g id="a_node12"><a xlink:href="boolean__graph_8h.xhtml" target="_top" xlink:title="Classes and facilities to represent simplified fault trees as Boolean graphs with event and gate indi...">
<polygon fill="white" stroke="black" points="722.003,-134.5 722.003,-153.5 810.003,-153.5 810.003,-134.5 722.003,-134.5"/>
<text text-anchor="middle" x="766.003" y="-141.5" font-family="Helvetica,sans-Serif" font-size="10.00">boolean_graph.h</text>
</a>
</g>
</g>
<!-- Node1&#45;&gt;Node12 -->
<g id="edge13" class="edge"><title>Node1&#45;&gt;Node12</title>
<path fill="none" stroke="midnightblue" d="M452.399,-246.46C512.776,-226.926 661.028,-178.963 729.834,-156.702"/>
<polygon fill="midnightblue" stroke="midnightblue" points="730.952,-160.019 739.389,-153.61 728.797,-153.359 730.952,-160.019"/>
</g>
<!-- Node22 -->
<g id="node22" class="node"><title>Node22</title>
<g id="a_node22"><a xlink:href="logger_8h.xhtml" target="_top" xlink:title="Logging capability for various purposes, such as warnings and debugging. ">
<polygon fill="white" stroke="black" points="371.503,-134.5 371.503,-153.5 422.503,-153.5 422.503,-134.5 371.503,-134.5"/>
<text text-anchor="middle" x="397.003" y="-141.5" font-family="Helvetica,sans-Serif" font-size="10.00">logger.h</text>
</a>
</g>
</g>
<!-- Node1&#45;&gt;Node22 -->
<g id="edge34" class="edge"><title>Node1&#45;&gt;Node22</title>
<path fill="none" stroke="midnightblue" d="M423.727,-246.368C419.026,-228.537 408.154,-187.295 401.82,-163.272"/>
<polygon fill="midnightblue" stroke="midnightblue" points="405.202,-162.369 399.268,-153.591 398.433,-164.153 405.202,-162.369"/>
</g>
<!-- Node25 -->
<g id="node25" class="node"><title>Node25</title>
<g id="a_node25"><a xlink:href="preprocessor_8h.xhtml" target="_top" xlink:title="A collection of Boolean graph preprocessing algorithms that simplify fault trees for analysis...">
<polygon fill="white" stroke="black" points="839.503,-190.5 839.503,-209.5 920.503,-209.5 920.503,-190.5 839.503,-190.5"/>
<text text-anchor="middle" x="880.003" y="-197.5" font-family="Helvetica,sans-Serif" font-size="10.00">preprocessor.h</text>
</a>
</g>
</g>
<!-- Node1&#45;&gt;Node25 -->
<g id="edge39" class="edge"><title>Node1&#45;&gt;Node25</title>
<path fill="none" stroke="midnightblue" d="M479.866,-248.593C568.23,-238.083 742.772,-217.323 829.141,-207.05"/>
<polygon fill="midnightblue" stroke="midnightblue" points="829.708,-210.507 839.225,-205.85 828.881,-203.556 829.708,-210.507"/>
</g>
<!-- Node8&#45;&gt;Node4 -->
<g id="edge9" class="edge"><title>Node8&#45;&gt;Node4</title>
<path fill="none" stroke="midnightblue" d="M130.787,-190.319C114.873,-171.172 76.5333,-125.044 55.8258,-100.131"/>
<polygon fill="midnightblue" stroke="midnightblue" points="58.386,-97.7352 49.3023,-92.282 53.0027,-102.21 58.386,-97.7352"/>
</g>
<!-- Node9 -->
<g id="node9" class="node"><title>Node9</title>
<polygon fill="white" stroke="#bfbfbf" points="286.503,-6 286.503,-25 335.503,-25 335.503,-6 286.503,-6"/>
<text text-anchor="middle" x="311.003" y="-13" font-family="Helvetica,sans-Serif" font-size="10.00">cassert</text>
</g>
<!-- Node8&#45;&gt;Node9 -->
<g id="edge8" class="edge"><title>Node8&#45;&gt;Node9</title>
<path fill="none" stroke="midnightblue" d="M136.842,-190.355C134.253,-167.279 130.504,-103.504 162.003,-67 190.707,-33.736 242.168,-22.3363 276.454,-18.4574"/>
<polygon fill="midnightblue" stroke="midnightblue" points="276.885,-21.9321 286.499,-17.4792 276.207,-14.965 276.885,-21.9321"/>
</g>
<!-- Node10 -->
<g id="node10" class="node"><title>Node10</title>
<polygon fill="white" stroke="#bfbfbf" points="338.503,-73 338.503,-92 455.503,-92 455.503,-73 338.503,-73"/>
<text text-anchor="middle" x="397.003" y="-80" font-family="Helvetica,sans-Serif" font-size="10.00">boost/noncopyable.hpp</text>
</g>
<!-- Node8&#45;&gt;Node10 -->
<g id="edge10" class="edge"><title>Node8&#45;&gt;Node10</title>
<path fill="none" stroke="midnightblue" d="M157.47,-190.319C202.767,-170.119 315.4,-119.891 368.476,-96.2216"/>
<polygon fill="midnightblue" stroke="midnightblue" points="369.956,-99.3939 377.663,-92.1245 367.105,-93.0008 369.956,-99.3939"/>
</g>
<!-- Node8&#45;&gt;Node11 -->
<g id="edge11" class="edge"><title>Node8&#45;&gt;Node11</title>
<path fill="none" stroke="midnightblue" d="M122.579,-190.324C107.463,-181.822 84.1876,-168.729 66.5318,-158.797"/>
<polygon fill="midnightblue" stroke="midnightblue" points="67.8205,-155.507 57.3888,-153.655 64.3886,-161.608 67.8205,-155.507"/>
</g>
<!-- Node11&#45;&gt;Node4 -->
<g id="edge12" class="edge"><title>Node11&#45;&gt;Node4</title>
<path fill="none" stroke="midnightblue" d="M42.003,-134.475C42.003,-126.08 42.003,-112.981 42.003,-102.163"/>
<polygon fill="midnightblue" stroke="midnightblue" points="45.5031,-102.009 42.003,-92.0091 38.5031,-102.009 45.5031,-102.009"/>
</g>
<!-- Node12&#45;&gt;Node2 -->
<g id="edge14" class="edge"><title>Node12&#45;&gt;Node2</title>
<path fill="none" stroke="midnightblue" d="M727.462,-134.475C674.431,-122.745 579.873,-101.83 529.959,-90.7894"/>
<polygon fill="midnightblue" stroke="midnightblue" points="530.536,-87.3326 520.016,-88.5902 529.024,-94.1674 530.536,-87.3326"/>
</g>
<!-- Node12&#45;&gt;Node3 -->
<g id="edge17" class="edge"><title>Node12&#45;&gt;Node3</title>
<path fill="none" stroke="midnightblue" d="M810.438,-138.691C859.921,-132.999 941.79,-120.901 1009,-98 1060.4,-80.4872 1115.85,-48.8164 1145.78,-30.5391"/>
<polygon fill="midnightblue" stroke="midnightblue" points="1147.9,-33.3455 1154.57,-25.1105 1144.22,-27.3911 1147.9,-33.3455"/>
</g>
<!-- Node12&#45;&gt;Node5 -->
<g id="edge18" class="edge"><title>Node12&#45;&gt;Node5</title>
<path fill="none" stroke="midnightblue" d="M810.209,-138.233C871.231,-131.297 984.564,-117.133 1080,-98 1085.1,-96.9775 1090.43,-95.7752 1095.69,-94.5076"/>
<polygon fill="midnightblue" stroke="midnightblue" points="1096.78,-97.8433 1105.63,-92.0199 1095.08,-91.0527 1096.78,-97.8433"/>
</g>
<!-- Node12&#45;&gt;Node7 -->
<g id="edge20" class="edge"><title>Node12&#45;&gt;Node7</title>
<path fill="none" stroke="midnightblue" d="M721.706,-140.567C686.451,-136.486 637.758,-125.787 605.003,-98 585.787,-81.6981 575.696,-53.5526 570.862,-34.9797"/>
<polygon fill="midnightblue" stroke="midnightblue" points="574.232,-34.0178 568.546,-25.078 567.416,-35.6124 574.232,-34.0178"/>
</g>
<!-- Node12&#45;&gt;Node10 -->
<g id="edge22" class="edge"><title>Node12&#45;&gt;Node10</title>
<path fill="none" stroke="midnightblue" d="M721.996,-137.287C663.237,-129.461 555.988,-114.486 465.003,-98 458.611,-96.8419 451.902,-95.53 445.291,-94.1801"/>
<polygon fill="midnightblue" stroke="midnightblue" points="445.548,-90.6583 435.044,-92.0442 444.119,-97.511 445.548,-90.6583"/>
</g>
<!-- Node13 -->
<g id="node13" class="node"><title>Node13</title>
<polygon fill="white" stroke="#bfbfbf" points="766.003,-6 766.003,-25 822.003,-25 822.003,-6 766.003,-6"/>
<text text-anchor="middle" x="794.003" y="-13" font-family="Helvetica,sans-Serif" font-size="10.00">algorithm</text>
</g>
<!-- Node12&#45;&gt;Node13 -->
<g id="edge15" class="edge"><title>Node12&#45;&gt;Node13</title>
<path fill="none" stroke="midnightblue" d="M747.019,-134.398C733.117,-126.954 715.289,-114.741 707.003,-98 700.891,-85.652 700.128,-78.9399 707.003,-67 713.561,-55.6111 742.476,-40.1595 765.196,-29.3582"/>
<polygon fill="midnightblue" stroke="midnightblue" points="766.882,-32.4337 774.47,-25.0392 763.927,-26.0881 766.882,-32.4337"/>
</g>
<!-- Node14 -->
<g id="node14" class="node"><title>Node14</title>
<polygon fill="white" stroke="#bfbfbf" points="614.503,-73 614.503,-92 659.503,-92 659.503,-73 614.503,-73"/>
<text text-anchor="middle" x="637.003" y="-80" font-family="Helvetica,sans-Serif" font-size="10.00">iosfwd</text>
</g>
<!-- Node12&#45;&gt;Node14 -->
<g id="edge16" class="edge"><title>Node12&#45;&gt;Node14</title>
<path fill="none" stroke="midnightblue" d="M747.52,-134.475C725.871,-124.49 689.79,-107.848 664.77,-96.3075"/>
<polygon fill="midnightblue" stroke="midnightblue" points="665.998,-93.0193 655.451,-92.0091 663.066,-99.3757 665.998,-93.0193"/>
</g>
<!-- Node15 -->
<g id="node15" class="node"><title>Node15</title>
<polygon fill="white" stroke="#bfbfbf" points="918.003,-6 918.003,-25 958.003,-25 958.003,-6 918.003,-6"/>
<text text-anchor="middle" x="938.003" y="-13" font-family="Helvetica,sans-Serif" font-size="10.00">utility</text>
</g>
<!-- Node12&#45;&gt;Node15 -->
<g id="edge19" class="edge"><title>Node12&#45;&gt;Node15</title>
<path fill="none" stroke="midnightblue" d="M810.265,-140.724C843.395,-136.681 887.551,-125.957 915.003,-98 931.466,-81.2336 936.338,-53.6351 937.674,-35.2654"/>
<polygon fill="midnightblue" stroke="midnightblue" points="941.174,-35.3452 938.122,-25.1996 934.181,-35.0343 941.174,-35.3452"/>
</g>
<!-- Node16 -->
<g id="node16" class="node"><title>Node16</title>
<polygon fill="white" stroke="#bfbfbf" points="716.003,-67.5 716.003,-97.5 816.003,-97.5 816.003,-67.5 716.003,-67.5"/>
<text text-anchor="start" x="724.003" y="-85.5" font-family="Helvetica,sans-Serif" font-size="10.00">boost/container/flat</text>
<text text-anchor="middle" x="766.003" y="-74.5" font-family="Helvetica,sans-Serif" font-size="10.00">_set.hpp</text>
</g>
<!-- Node12&#45;&gt;Node16 -->
<g id="edge21" class="edge"><title>Node12&#45;&gt;Node16</title>
<path fill="none" stroke="midnightblue" d="M766.003,-134.475C766.003,-127.471 766.003,-117.192 766.003,-107.696"/>
<polygon fill="midnightblue" stroke="midnightblue" points="769.503,-107.523 766.003,-97.523 762.503,-107.523 769.503,-107.523"/>
</g>
<!-- Node17 -->
<g id="node17" class="node"><title>Node17</title>
<g id="a_node17"><a xlink:href="ext_8h.xhtml" target="_top" xlink:title="Helpful facilities as an extension to the standard library or Boost. ">
<polygon fill="white" stroke="black" points="962.003,-73 962.003,-92 1000,-92 1000,-73 962.003,-73"/>
<text text-anchor="middle" x="981.003" y="-80" font-family="Helvetica,sans-Serif" font-size="10.00">ext.h</text>
</a>
</g>
</g>
<!-- Node12&#45;&gt;Node17 -->
<g id="edge23" class="edge"><title>Node12&#45;&gt;Node17</title>
<path fill="none" stroke="midnightblue" d="M809.259,-134.495C846.517,-126.652 901.478,-113.842 948.003,-98 949.869,-97.3646 951.775,-96.666 953.684,-95.9295"/>
<polygon fill="midnightblue" stroke="midnightblue" points="955.167,-99.1038 963.069,-92.0464 952.491,-92.6356 955.167,-99.1038"/>
</g>
<!-- Node19 -->
<g id="node19" class="node"><title>Node19</title>
<g id="a_node19"><a xlink:href="linear__map_8h.xhtml" target="_top" xlink:title="Implementation of a vector&#45;based map for a small number of entries. ">
<polygon fill="white" stroke="black" points="834.003,-73 834.003,-92 906.003,-92 906.003,-73 834.003,-73"/>
<text text-anchor="middle" x="870.003" y="-80" font-family="Helvetica,sans-Serif" font-size="10.00">linear_map.h</text>
</a>
</g>
</g>
<!-- Node12&#45;&gt;Node19 -->
<g id="edge27" class="edge"><title>Node12&#45;&gt;Node19</title>
<path fill="none" stroke="midnightblue" d="M780.904,-134.475C797.971,-124.711 826.164,-108.581 846.265,-97.0808"/>
<polygon fill="midnightblue" stroke="midnightblue" points="848.188,-100.013 855.13,-92.0091 844.712,-93.9371 848.188,-100.013"/>
</g>
<!-- Node17&#45;&gt;Node3 -->
<g id="edge25" class="edge"><title>Node17&#45;&gt;Node3</title>
<path fill="none" stroke="midnightblue" d="M1000.31,-74.7887C1031.82,-63.8378 1094.69,-41.9847 1133.86,-28.3687"/>
<polygon fill="midnightblue" stroke="midnightblue" points="1135.22,-31.602 1143.51,-25.0127 1132.92,-24.9901 1135.22,-31.602"/>
</g>
<!-- Node17&#45;&gt;Node13 -->
<g id="edge24" class="edge"><title>Node17&#45;&gt;Node13</title>
<path fill="none" stroke="midnightblue" d="M961.957,-75.4171C933.371,-66.2132 877.738,-48.013 831.003,-31 829.107,-30.3097 827.161,-29.5878 825.201,-28.8506"/>
<polygon fill="midnightblue" stroke="midnightblue" points="826.047,-25.4266 815.457,-25.1121 823.54,-31.9621 826.047,-25.4266"/>
</g>
<!-- Node18 -->
<g id="node18" class="node"><title>Node18</title>
<polygon fill="white" stroke="#bfbfbf" points="976.003,-0.5 976.003,-30.5 1086,-30.5 1086,-0.5 976.003,-0.5"/>
<text text-anchor="start" x="984.003" y="-18.5" font-family="Helvetica,sans-Serif" font-size="10.00">boost/range/algorithm</text>
<text text-anchor="middle" x="1031" y="-7.5" font-family="Helvetica,sans-Serif" font-size="10.00">/find_if.hpp</text>
</g>
<!-- Node17&#45;&gt;Node18 -->
<g id="edge26" class="edge"><title>Node17&#45;&gt;Node18</title>
<path fill="none" stroke="midnightblue" d="M987.746,-72.7338C994.439,-64.0338 1004.97,-50.3446 1013.96,-38.6511"/>
<polygon fill="midnightblue" stroke="midnightblue" points="1016.84,-40.6493 1020.17,-30.589 1011.29,-36.3813 1016.84,-40.6493"/>
</g>
<!-- Node19&#45;&gt;Node7 -->
<g id="edge32" class="edge"><title>Node19&#45;&gt;Node7</title>
<path fill="none" stroke="midnightblue" d="M845.4,-72.9917C838.819,-70.8758 831.679,-68.7225 825.003,-67 744.715,-46.2848 648.451,-29.5388 599.318,-21.5607"/>
<polygon fill="midnightblue" stroke="midnightblue" points="599.718,-18.0801 589.289,-19.948 598.606,-24.9913 599.718,-18.0801"/>
</g>
<!-- Node19&#45;&gt;Node9 -->
<g id="edge28" class="edge"><title>Node19&#45;&gt;Node9</title>
<path fill="none" stroke="midnightblue" d="M846.437,-72.8603C839.603,-70.6416 832.075,-68.4692 825.003,-67 732.78,-47.8417 445.74,-26.1164 345.762,-18.941"/>
<polygon fill="midnightblue" stroke="midnightblue" points="345.821,-15.4364 335.597,-18.2154 345.322,-22.4186 345.821,-15.4364"/>
</g>
<!-- Node19&#45;&gt;Node13 -->
<g id="edge29" class="edge"><title>Node19&#45;&gt;Node13</title>
<path fill="none" stroke="midnightblue" d="M859.753,-72.7338C847.56,-62.3055 826.986,-44.7088 812.095,-31.9732"/>
<polygon fill="midnightblue" stroke="midnightblue" points="813.965,-28.9671 804.09,-25.1273 809.415,-34.2869 813.965,-28.9671"/>
</g>
<!-- Node19&#45;&gt;Node15 -->
<g id="edge33" class="edge"><title>Node19&#45;&gt;Node15</title>
<path fill="none" stroke="midnightblue" d="M879.174,-72.7338C889.981,-62.403 908.149,-45.0371 921.441,-32.3315"/>
<polygon fill="midnightblue" stroke="midnightblue" points="924.167,-34.5672 928.977,-25.1273 919.33,-29.5071 924.167,-34.5672"/>
</g>
<!-- Node20 -->
<g id="node20" class="node"><title>Node20</title>
<polygon fill="white" stroke="#bfbfbf" points="674.503,-6 674.503,-25 747.503,-25 747.503,-6 674.503,-6"/>
<text text-anchor="middle" x="711.003" y="-13" font-family="Helvetica,sans-Serif" font-size="10.00">initializer_list</text>
</g>
<!-- Node19&#45;&gt;Node20 -->
<g id="edge30" class="edge"><title>Node19&#45;&gt;Node20</title>
<path fill="none" stroke="midnightblue" d="M848.889,-72.8685C821.372,-61.6193 773.055,-41.8673 741.544,-28.9853"/>
<polygon fill="midnightblue" stroke="midnightblue" points="742.532,-25.6081 731.951,-25.0637 739.883,-32.0875 742.532,-25.6081"/>
</g>
<!-- Node21 -->
<g id="node21" class="node"><title>Node21</title>
<polygon fill="white" stroke="#bfbfbf" points="840.503,-6 840.503,-25 899.503,-25 899.503,-6 840.503,-6"/>
<text text-anchor="middle" x="870.003" y="-13" font-family="Helvetica,sans-Serif" font-size="10.00">stdexcept</text>
</g>
<!-- Node19&#45;&gt;Node21 -->
<g id="edge31" class="edge"><title>Node19&#45;&gt;Node21</title>
<path fill="none" stroke="midnightblue" d="M870.003,-72.7338C870.003,-63.1826 870.003,-47.6183 870.003,-35.2829"/>
<polygon fill="midnightblue" stroke="midnightblue" points="873.503,-35.1273 870.003,-25.1273 866.503,-35.1273 873.503,-35.1273"/>
</g>
<!-- Node22&#45;&gt;Node2 -->
<g id="edge35" class="edge"><title>Node22&#45;&gt;Node2</title>
<path fill="none" stroke="midnightblue" d="M411.331,-134.475C427.667,-124.755 454.605,-108.727 473.915,-97.2372"/>
<polygon fill="midnightblue" stroke="midnightblue" points="475.898,-100.13 482.702,-92.0091 472.318,-94.1146 475.898,-100.13"/>
</g>
<!-- Node22&#45;&gt;Node10 -->
<g id="edge38" class="edge"><title>Node22&#45;&gt;Node10</title>
<path fill="none" stroke="midnightblue" d="M397.003,-134.475C397.003,-126.08 397.003,-112.981 397.003,-102.163"/>
<polygon fill="midnightblue" stroke="midnightblue" points="400.503,-102.009 397.003,-92.0091 393.503,-102.009 400.503,-102.009"/>
</g>
<!-- Node23 -->
<g id="node23" class="node"><title>Node23</title>
<polygon fill="white" stroke="#bfbfbf" points="204.003,-73 204.003,-92 250.003,-92 250.003,-73 204.003,-73"/>
<text text-anchor="middle" x="227.003" y="-80" font-family="Helvetica,sans-Serif" font-size="10.00">chrono</text>
</g>
<!-- Node22&#45;&gt;Node23 -->
<g id="edge36" class="edge"><title>Node22&#45;&gt;Node23</title>
<path fill="none" stroke="midnightblue" d="M371.272,-135.537C343.329,-127.219 297.529,-112.958 259.003,-98 257.582,-97.4481 256.133,-96.8658 254.675,-96.2641"/>
<polygon fill="midnightblue" stroke="midnightblue" points="255.699,-92.8935 245.131,-92.1328 252.918,-99.3175 255.699,-92.8935"/>
</g>
<!-- Node24 -->
<g id="node24" class="node"><title>Node24</title>
<polygon fill="white" stroke="#bfbfbf" points="268.003,-73 268.003,-92 320.003,-92 320.003,-73 268.003,-73"/>
<text text-anchor="middle" x="294.003" y="-80" font-family="Helvetica,sans-Serif" font-size="10.00">sstream</text>
</g>
<!-- Node22&#45;&gt;Node24 -->
<g id="edge37" class="edge"><title>Node22&#45;&gt;Node24</title>
<path fill="none" stroke="midnightblue" d="M382.246,-134.475C365.342,-124.711 337.42,-108.581 317.513,-97.0808"/>
<polygon fill="midnightblue" stroke="midnightblue" points="319.143,-93.9805 308.733,-92.0091 315.641,-100.042 319.143,-93.9805"/>
</g>
<!-- Node25&#45;&gt;Node3 -->
<g id="edge40" class="edge"><title>Node25&#45;&gt;Node3</title>
<path fill="none" stroke="midnightblue" d="M920.579,-197.361C969.479,-194.055 1053.15,-184.082 1118,-154 1153.83,-137.381 1170.02,-133.657 1187,-98 1196.82,-77.3861 1187.42,-51.3673 1178.7,-34.3482"/>
<polygon fill="midnightblue" stroke="midnightblue" points="1181.7,-32.534 1173.8,-25.4765 1175.57,-35.9214 1181.7,-32.534"/>
</g>
<!-- Node25&#45;&gt;Node5 -->
<g id="edge42" class="edge"><title>Node25&#45;&gt;Node5</title>
<path fill="none" stroke="midnightblue" d="M920.909,-199.83C967.065,-198.778 1042.42,-190.859 1094,-154 1112.07,-141.091 1123.71,-117.769 1130.04,-101.498"/>
<polygon fill="midnightblue" stroke="midnightblue" points="1133.37,-102.598 1133.46,-92.0037 1126.78,-100.229 1133.37,-102.598"/>
</g>
<!-- Node25&#45;&gt;Node7 -->
<g id="edge44" class="edge"><title>Node25&#45;&gt;Node7</title>
<path fill="none" stroke="midnightblue" d="M839.397,-198.527C773.224,-195.344 643.18,-178.531 580.003,-98 566.008,-80.1603 564.347,-53.233 565.12,-35.2704"/>
<polygon fill="midnightblue" stroke="midnightblue" points="568.62,-35.4026 565.85,-25.1761 561.638,-34.8974 568.62,-35.4026"/>
</g>
<!-- Node25&#45;&gt;Node10 -->
<g id="edge45" class="edge"><title>Node25&#45;&gt;Node10</title>
<path fill="none" stroke="midnightblue" d="M839.344,-198.226C773.678,-195.983 640.841,-187.318 534.003,-154 490.791,-140.524 444.846,-114.06 418.662,-97.666"/>
<polygon fill="midnightblue" stroke="midnightblue" points="420.267,-94.5389 409.951,-92.1245 416.51,-100.445 420.267,-94.5389"/>
</g>
<!-- Node25&#45;&gt;Node12 -->
<g id="edge47" class="edge"><title>Node25&#45;&gt;Node12</title>
<path fill="none" stroke="midnightblue" d="M861.939,-190.444C843.428,-181.675 814.422,-167.935 793.148,-157.858"/>
<polygon fill="midnightblue" stroke="midnightblue" points="794.518,-154.634 783.982,-153.516 791.521,-160.96 794.518,-154.634"/>
</g>
<!-- Node25&#45;&gt;Node15 -->
<g id="edge43" class="edge"><title>Node25&#45;&gt;Node15</title>
<path fill="none" stroke="midnightblue" d="M880.095,-190.155C880.722,-176.32 883.952,-149.539 899.003,-134 934.792,-97.0505 978.811,-139.648 1009,-98 1017.09,-86.8449 1015.32,-79.2444 1009,-67 1003.82,-56.9493 980.466,-41.4104 961.94,-30.2237"/>
<polygon fill="midnightblue" stroke="midnightblue" points="963.721,-27.2107 953.333,-25.1248 960.153,-33.2331 963.721,-27.2107"/>
</g>
<!-- Node26 -->
<g id="node26" class="node"><title>Node26</title>
<polygon fill="white" stroke="#bfbfbf" points="908.003,-134.5 908.003,-153.5 938.003,-153.5 938.003,-134.5 908.003,-134.5"/>
<text text-anchor="middle" x="923.003" y="-141.5" font-family="Helvetica,sans-Serif" font-size="10.00">set</text>
</g>
<!-- Node25&#45;&gt;Node26 -->
<g id="edge41" class="edge"><title>Node25&#45;&gt;Node26</title>
<path fill="none" stroke="midnightblue" d="M887.104,-190.083C893.24,-182.377 902.273,-171.033 909.742,-161.653"/>
<polygon fill="midnightblue" stroke="midnightblue" points="912.543,-163.754 916.035,-153.751 907.067,-159.394 912.543,-163.754"/>
</g>
<!-- Node27 -->
<g id="node27" class="node"><title>Node27</title>
<polygon fill="white" stroke="#bfbfbf" points="956.503,-134.5 956.503,-153.5 1085.5,-153.5 1085.5,-134.5 956.503,-134.5"/>
<text text-anchor="middle" x="1021" y="-141.5" font-family="Helvetica,sans-Serif" font-size="10.00">boost/unordered_map.hpp</text>
</g>
<!-- Node25&#45;&gt;Node27 -->
<g id="edge46" class="edge"><title>Node25&#45;&gt;Node27</title>
<path fill="none" stroke="midnightblue" d="M902.345,-190.444C925.756,-181.478 962.739,-167.314 989.193,-157.183"/>
<polygon fill="midnightblue" stroke="midnightblue" points="990.679,-160.361 998.766,-153.516 988.175,-153.824 990.679,-160.361"/>
</g>
</g>
</svg>
