<?xml version="1.0" encoding="UTF-8" standalone="no"?>
<!DOCTYPE svg PUBLIC "-//W3C//DTD SVG 1.1//EN"
 "http://www.w3.org/Graphics/SVG/1.1/DTD/svg11.dtd">
<!-- Generated by graphviz version 2.38.0 (20140413.2041)
 -->
<!-- Title: importance_analysis.h Pages: 1 -->
<!--zoomable 397 -->
<svg id="main" version="1.1" xmlns="http://www.w3.org/2000/svg" xmlns:xlink="http://www.w3.org/1999/xlink" xml:space="preserve" onload="init(evt)">
<style type="text/css"><![CDATA[
.edge:hover path { stroke: red; }
.edge:hover polygon { stroke: red; fill: red; }
]]></style>
<script type="text/javascript"><![CDATA[
var edges = document.getElementsByTagName('g');
if (edges && edges.length) {
  for (var i=0;i<edges.length;i++) {
    if (edges[i].id.substr(0,4)=='edge') {
      edges[i].setAttribute('class','edge');
    }
  }
}
]]></script>
        <defs>
                <circle id="rim" cx="0" cy="0" r="7"/>
                <circle id="rim2" cx="0" cy="0" r="3.5"/>
                <g id="zoomPlus">
                        <use xlink:href="#rim" fill="#404040">
                                <set attributeName="fill" to="#808080" begin="zoomplus.mouseover" end="zoomplus.mouseout"/>
                        </use>
                        <path d="M-4,0h8M0,-4v8" fill="none" stroke="white" stroke-width="1.5" pointer-events="none"/>
                </g>
                <g id="zoomMin">
                        <use xlink:href="#rim" fill="#404040">
                                <set attributeName="fill" to="#808080" begin="zoomminus.mouseover" end="zoomminus.mouseout"/>
                        </use>
                        <path d="M-4,0h8" fill="none" stroke="white" stroke-width="1.5" pointer-events="none"/>
                </g>
                <g id="dirArrow">
                        <path fill="none" stroke="white" stroke-width="1.5" d="M0,-3.0v7 M-2.5,-0.5L0,-3.0L2.5,-0.5"/>
                </g>
               <g id="resetDef">
                       <use xlink:href="#rim2" fill="#404040">
                               <set attributeName="fill" to="#808080" begin="reset.mouseover" end="reset.mouseout"/>
                       </use>
               </g>
        </defs>

<script type="text/javascript">
var viewWidth = 1724;
var viewHeight = 397;
var sectionId = 'dynsection-0';
</script>
<script xlink:href="svgpan.js"/>
<svg id="graph" class="graph">
<g id="viewport">
<title>importance_analysis.h</title>
<polygon fill="white" stroke="none" points="-4,4 -4,-393 1719.62,-393 1719.62,4 -4,4"/>
<!-- Node1 -->
<g id="node1" class="node"><title>Node1</title>
<polygon fill="#bfbfbf" stroke="black" points="685,-369.5 685,-388.5 799,-388.5 799,-369.5 685,-369.5"/>
<text text-anchor="middle" x="742" y="-376.5" font-family="Helvetica,sans-Serif" font-size="10.00">importance_analysis.h</text>
</g>
<!-- Node2 -->
<g id="node2" class="node"><title>Node2</title>
<polygon fill="white" stroke="#bfbfbf" points="1629.5,-73 1629.5,-92 1670.5,-92 1670.5,-73 1629.5,-73"/>
<text text-anchor="middle" x="1650" y="-80" font-family="Helvetica,sans-Serif" font-size="10.00">string</text>
</g>
<!-- Node1&#45;&gt;Node2 -->
<g id="edge1" class="edge"><title>Node1&#45;&gt;Node2</title>
<path fill="none" stroke="midnightblue" d="M799.012,-374.883C895.752,-369.2 1098.11,-355.611 1268,-333 1406.35,-314.587 1444.91,-322.071 1577,-277 1628.17,-259.54 1649.77,-262.012 1685,-221 1702.13,-201.064 1699.72,-190.932 1704,-165 1706.24,-151.406 1709.48,-146.639 1704,-134 1697.54,-119.124 1684.31,-106.632 1672.56,-97.7935"/>
<polygon fill="midnightblue" stroke="midnightblue" points="1674.57,-94.9295 1664.38,-92.0217 1670.53,-100.648 1674.57,-94.9295"/>
</g>
<!-- Node3 -->
<g id="node3" class="node"><title>Node3</title>
<polygon fill="white" stroke="#bfbfbf" points="506.5,-73 506.5,-92 589.5,-92 589.5,-73 506.5,-73"/>
<text text-anchor="middle" x="548" y="-80" font-family="Helvetica,sans-Serif" font-size="10.00">unordered_map</text>
</g>
<!-- Node1&#45;&gt;Node3 -->
<g id="edge2" class="edge"><title>Node1&#45;&gt;Node3</title>
<path fill="none" stroke="midnightblue" d="M684.633,-374.924C570.831,-365.361 318.106,-326.097 209,-165 201.274,-153.592 200.004,-144.435 209,-134 245.448,-91.7204 410.563,-84.2886 496.166,-83.3348"/>
<polygon fill="midnightblue" stroke="midnightblue" points="496.228,-86.8345 506.197,-83.2487 496.168,-79.8348 496.228,-86.8345"/>
</g>
<!-- Node4 -->
<g id="node4" class="node"><title>Node4</title>
<polygon fill="white" stroke="#bfbfbf" points="636,-6 636,-25 676,-25 676,-6 636,-6"/>
<text text-anchor="middle" x="656" y="-13" font-family="Helvetica,sans-Serif" font-size="10.00">utility</text>
</g>
<!-- Node1&#45;&gt;Node4 -->
<g id="edge3" class="edge"><title>Node1&#45;&gt;Node4</title>
<path fill="none" stroke="midnightblue" d="M684.985,-375.08C517.387,-365.745 38,-333.332 38,-268 38,-268 38,-268 38,-148.5 38,-26.9596 500.917,-16.9254 625.46,-16.4252"/>
<polygon fill="midnightblue" stroke="midnightblue" points="625.797,-19.9246 635.789,-16.4031 625.782,-12.9246 625.797,-19.9246"/>
</g>
<!-- Node5 -->
<g id="node5" class="node"><title>Node5</title>
<polygon fill="white" stroke="#bfbfbf" points="168,-6 168,-25 212,-25 212,-6 168,-6"/>
<text text-anchor="middle" x="190" y="-13" font-family="Helvetica,sans-Serif" font-size="10.00">vector</text>
</g>
<!-- Node1&#45;&gt;Node5 -->
<g id="edge4" class="edge"><title>Node1&#45;&gt;Node5</title>
<path fill="none" stroke="midnightblue" d="M684.857,-376.873C552.206,-373.77 226.726,-363.227 122,-333 62.9716,-315.963 0,-329.438 0,-268 0,-268 0,-268 0,-148.5 0,-72.467 103.89,-36.7033 158.027,-23.2285"/>
<polygon fill="midnightblue" stroke="midnightblue" points="158.914,-26.6152 167.833,-20.8961 157.294,-19.8052 158.914,-26.6152"/>
</g>
<!-- Node6 -->
<g id="node6" class="node"><title>Node6</title>
<g id="a_node6"><a xlink:href="bdd_8h.xhtml" target="_top" xlink:title="Fault tree analysis with the Binary Decision Diagram algorithms. ">
<polygon fill="white" stroke="black" points="721.5,-201.5 721.5,-220.5 762.5,-220.5 762.5,-201.5 721.5,-201.5"/>
<text text-anchor="middle" x="742" y="-208.5" font-family="Helvetica,sans-Serif" font-size="10.00">bdd.h</text>
</a>
</g>
</g>
<!-- Node1&#45;&gt;Node6 -->
<g id="edge5" class="edge"><title>Node1&#45;&gt;Node6</title>
<path fill="none" stroke="midnightblue" d="M742,-369.075C742,-342.945 742,-266.211 742,-230.577"/>
<polygon fill="midnightblue" stroke="midnightblue" points="745.5,-230.568 742,-220.568 738.5,-230.568 745.5,-230.568"/>
</g>
<!-- Node24 -->
<g id="node24" class="node"><title>Node24</title>
<g id="a_node24"><a xlink:href="settings_8h.xhtml" target="_top" xlink:title="Builder for settings. ">
<polygon fill="white" stroke="black" points="1636.5,-140 1636.5,-159 1695.5,-159 1695.5,-140 1636.5,-140"/>
<text text-anchor="middle" x="1666" y="-147" font-family="Helvetica,sans-Serif" font-size="10.00">settings.h</text>
</a>
</g>
</g>
<!-- Node1&#45;&gt;Node24 -->
<g id="edge72" class="edge"><title>Node1&#45;&gt;Node24</title>
<path fill="none" stroke="midnightblue" d="M799.162,-374.083C926.305,-364.566 1241.61,-336.506 1499,-277 1575.68,-259.272 1620.98,-284.849 1667,-221 1677.71,-206.137 1675.56,-184.555 1671.92,-169.191"/>
<polygon fill="midnightblue" stroke="midnightblue" points="1675.22,-167.987 1669.17,-159.288 1668.47,-169.86 1675.22,-167.987"/>
</g>
<!-- Node25 -->
<g id="node25" class="node"><title>Node25</title>
<g id="a_node25"><a xlink:href="probability__analysis_8h.xhtml" target="_top" xlink:title="Contains functionality to do numerical analysis of probabilities. ">
<polygon fill="white" stroke="black" points="801,-313.5 801,-332.5 911,-332.5 911,-313.5 801,-313.5"/>
<text text-anchor="middle" x="856" y="-320.5" font-family="Helvetica,sans-Serif" font-size="10.00">probability_analysis.h</text>
</a>
</g>
</g>
<!-- Node1&#45;&gt;Node25 -->
<g id="edge39" class="edge"><title>Node1&#45;&gt;Node25</title>
<path fill="none" stroke="midnightblue" d="M760.064,-369.444C778.575,-360.675 807.581,-346.935 828.855,-336.858"/>
<polygon fill="midnightblue" stroke="midnightblue" points="830.482,-339.96 838.021,-332.516 827.485,-333.634 830.482,-339.96"/>
</g>
<!-- Node6&#45;&gt;Node3 -->
<g id="edge10" class="edge"><title>Node6&#45;&gt;Node3</title>
<path fill="none" stroke="midnightblue" d="M741.789,-201.372C740.93,-185.714 736.847,-152.527 718,-134 713.276,-129.356 638.038,-108.123 589.254,-94.7115"/>
<polygon fill="midnightblue" stroke="midnightblue" points="590.149,-91.3278 579.579,-92.0589 588.298,-98.0787 590.149,-91.3278"/>
</g>
<!-- Node6&#45;&gt;Node4 -->
<g id="edge11" class="edge"><title>Node6&#45;&gt;Node4</title>
<path fill="none" stroke="midnightblue" d="M733.88,-201.477C718.346,-185.688 682.691,-151.876 646,-134 584.754,-104.161 539.139,-151.532 497,-98 459.869,-50.83 569.744,-28.4018 625.581,-20.2645"/>
<polygon fill="midnightblue" stroke="midnightblue" points="626.226,-23.7085 635.65,-18.8664 625.264,-16.7751 626.226,-23.7085"/>
</g>
<!-- Node6&#45;&gt;Node5 -->
<g id="edge12" class="edge"><title>Node6&#45;&gt;Node5</title>
<path fill="none" stroke="midnightblue" d="M721.486,-209.761C628.165,-208.48 246.639,-201.053 209,-165 173.727,-131.213 180.002,-67.0097 185.833,-35.2517"/>
<polygon fill="midnightblue" stroke="midnightblue" points="189.327,-35.6319 187.884,-25.1358 182.467,-34.2411 189.327,-35.6319"/>
</g>
<!-- Node7 -->
<g id="node7" class="node"><title>Node7</title>
<polygon fill="white" stroke="#bfbfbf" points="218,-140 218,-159 262,-159 262,-140 218,-140"/>
<text text-anchor="middle" x="240" y="-147" font-family="Helvetica,sans-Serif" font-size="10.00">cmath</text>
</g>
<!-- Node6&#45;&gt;Node7 -->
<g id="edge6" class="edge"><title>Node6&#45;&gt;Node7</title>
<path fill="none" stroke="midnightblue" d="M721.355,-210.508C654.771,-211.627 440.19,-211.166 271,-165 269.065,-164.472 267.102,-163.831 265.151,-163.117"/>
<polygon fill="midnightblue" stroke="midnightblue" points="266.265,-159.788 255.692,-159.108 263.534,-166.233 266.265,-159.788"/>
</g>
<!-- Node8 -->
<g id="node8" class="node"><title>Node8</title>
<polygon fill="white" stroke="#bfbfbf" points="885,-6 885,-25 941,-25 941,-6 885,-6"/>
<text text-anchor="middle" x="913" y="-13" font-family="Helvetica,sans-Serif" font-size="10.00">algorithm</text>
</g>
<!-- Node6&#45;&gt;Node8 -->
<g id="edge7" class="edge"><title>Node6&#45;&gt;Node8</title>
<path fill="none" stroke="midnightblue" d="M746.65,-201.161C759.404,-177.468 796.938,-111.332 841,-67 855.261,-52.6514 874.048,-39.6275 888.855,-30.4009"/>
<polygon fill="midnightblue" stroke="midnightblue" points="890.748,-33.3464 897.484,-25.1688 887.118,-27.3607 890.748,-33.3464"/>
</g>
<!-- Node9 -->
<g id="node9" class="node"><title>Node9</title>
<polygon fill="white" stroke="#bfbfbf" points="280.5,-140 280.5,-159 347.5,-159 347.5,-140 280.5,-140"/>
<text text-anchor="middle" x="314" y="-147" font-family="Helvetica,sans-Serif" font-size="10.00">forward_list</text>
</g>
<!-- Node6&#45;&gt;Node9 -->
<g id="edge8" class="edge"><title>Node6&#45;&gt;Node9</title>
<path fill="none" stroke="midnightblue" d="M721.295,-209.101C663.188,-206.253 493.904,-195.729 357,-165 353.512,-164.217 349.91,-163.256 346.343,-162.205"/>
<polygon fill="midnightblue" stroke="midnightblue" points="347.101,-158.773 336.51,-159.076 344.978,-165.444 347.101,-158.773"/>
</g>
<!-- Node10 -->
<g id="node10" class="node"><title>Node10</title>
<polygon fill="white" stroke="#bfbfbf" points="1159,-6 1159,-25 1211,-25 1211,-6 1159,-6"/>
<text text-anchor="middle" x="1185" y="-13" font-family="Helvetica,sans-Serif" font-size="10.00">memory</text>
</g>
<!-- Node6&#45;&gt;Node10 -->
<g id="edge9" class="edge"><title>Node6&#45;&gt;Node10</title>
<path fill="none" stroke="midnightblue" d="M762.698,-210.652C810.488,-211.332 931.147,-208.265 1019,-165 1037.05,-156.11 1034.93,-144.658 1052,-134 1090.3,-110.085 1113.91,-128.723 1147,-98 1165.28,-81.0299 1175.54,-53.5028 1180.67,-35.2025"/>
<polygon fill="midnightblue" stroke="midnightblue" points="1184.09,-35.9657 1183.18,-25.4101 1177.31,-34.23 1184.09,-35.9657"/>
</g>
<!-- Node11 -->
<g id="node11" class="node"><title>Node11</title>
<polygon fill="white" stroke="#bfbfbf" points="366,-140 366,-159 494,-159 494,-140 366,-140"/>
<text text-anchor="middle" x="430" y="-147" font-family="Helvetica,sans-Serif" font-size="10.00">boost/functional/hash.hpp</text>
</g>
<!-- Node6&#45;&gt;Node11 -->
<g id="edge13" class="edge"><title>Node6&#45;&gt;Node11</title>
<path fill="none" stroke="midnightblue" d="M721.207,-206.157C679.7,-198.47 583.627,-180.598 503,-165 496.352,-163.714 489.366,-162.347 482.46,-160.985"/>
<polygon fill="midnightblue" stroke="midnightblue" points="482.936,-157.512 472.447,-159.006 481.578,-164.379 482.936,-157.512"/>
</g>
<!-- Node12 -->
<g id="node12" class="node"><title>Node12</title>
<polygon fill="white" stroke="#bfbfbf" points="1202.5,-73 1202.5,-92 1319.5,-92 1319.5,-73 1202.5,-73"/>
<text text-anchor="middle" x="1261" y="-80" font-family="Helvetica,sans-Serif" font-size="10.00">boost/noncopyable.hpp</text>
</g>
<!-- Node6&#45;&gt;Node12 -->
<g id="edge14" class="edge"><title>Node6&#45;&gt;Node12</title>
<path fill="none" stroke="midnightblue" d="M762.821,-210.335C814.031,-210.458 949.406,-206.501 1052,-165 1073.84,-156.165 1073.89,-144.459 1095,-134 1131.57,-115.882 1175.93,-102.797 1209.59,-94.4921"/>
<polygon fill="midnightblue" stroke="midnightblue" points="1210.76,-97.8089 1219.67,-92.0679 1209.13,-91.0029 1210.76,-97.8089"/>
</g>
<!-- Node13 -->
<g id="node13" class="node"><title>Node13</title>
<polygon fill="white" stroke="#bfbfbf" points="512.5,-134.5 512.5,-164.5 637.5,-164.5 637.5,-134.5 512.5,-134.5"/>
<text text-anchor="start" x="520.5" y="-152.5" font-family="Helvetica,sans-Serif" font-size="10.00">boost/smart_ptr/intrusive</text>
<text text-anchor="middle" x="575" y="-141.5" font-family="Helvetica,sans-Serif" font-size="10.00">_ptr.hpp</text>
</g>
<!-- Node6&#45;&gt;Node13 -->
<g id="edge15" class="edge"><title>Node6&#45;&gt;Node13</title>
<path fill="none" stroke="midnightblue" d="M721.187,-202.585C697.098,-194.002 656.607,-179.575 624.339,-168.079"/>
<polygon fill="midnightblue" stroke="midnightblue" points="625.211,-164.674 614.616,-164.615 622.862,-171.268 625.211,-164.674"/>
</g>
<!-- Node14 -->
<g id="node14" class="node"><title>Node14</title>
<g id="a_node14"><a xlink:href="boolean__graph_8h.xhtml" target="_top" xlink:title="Classes and facilities to represent simplified fault trees as Boolean graphs with event and gate indi...">
<polygon fill="white" stroke="black" points="922,-140 922,-159 1010,-159 1010,-140 922,-140"/>
<text text-anchor="middle" x="966" y="-147" font-family="Helvetica,sans-Serif" font-size="10.00">boolean_graph.h</text>
</a>
</g>
</g>
<!-- Node6&#45;&gt;Node14 -->
<g id="edge16" class="edge"><title>Node6&#45;&gt;Node14</title>
<path fill="none" stroke="midnightblue" d="M762.672,-204.509C799.275,-194.786 876.148,-174.367 924.179,-161.609"/>
<polygon fill="midnightblue" stroke="midnightblue" points="925.199,-164.959 933.966,-159.009 923.402,-158.194 925.199,-164.959"/>
</g>
<!-- Node6&#45;&gt;Node24 -->
<g id="edge37" class="edge"><title>Node6&#45;&gt;Node24</title>
<path fill="none" stroke="midnightblue" d="M762.543,-209.068C851.771,-204.963 1214.58,-187.685 1512,-165 1550.85,-162.037 1595.13,-157.774 1626.21,-154.638"/>
<polygon fill="midnightblue" stroke="midnightblue" points="1626.62,-158.114 1636.22,-153.62 1625.91,-151.15 1626.62,-158.114"/>
</g>
<!-- Node14&#45;&gt;Node3 -->
<g id="edge21" class="edge"><title>Node14&#45;&gt;Node3</title>
<path fill="none" stroke="midnightblue" d="M921.572,-141.644C905.35,-139.179 886.852,-136.413 870,-134 751.904,-117.091 721.063,-120.993 604,-98 598.896,-96.9974 593.564,-95.807 588.307,-94.5457"/>
<polygon fill="midnightblue" stroke="midnightblue" points="588.916,-91.0905 578.366,-92.0637 587.221,-97.882 588.916,-91.0905"/>
</g>
<!-- Node14&#45;&gt;Node4 -->
<g id="edge22" class="edge"><title>Node14&#45;&gt;Node4</title>
<path fill="none" stroke="midnightblue" d="M933.263,-139.937C925.039,-137.89 916.216,-135.784 908,-134 821.875,-115.303 787.125,-145.671 713,-98 689.106,-82.6334 672.381,-53.3543 663.479,-34.3933"/>
<polygon fill="midnightblue" stroke="midnightblue" points="666.599,-32.7949 659.343,-25.0748 660.201,-35.6348 666.599,-32.7949"/>
</g>
<!-- Node14&#45;&gt;Node5 -->
<g id="edge23" class="edge"><title>Node14&#45;&gt;Node5</title>
<path fill="none" stroke="midnightblue" d="M921.869,-141.794C853.198,-131.18 723.982,-110.442 679,-98 641.848,-87.7242 635.402,-76.3247 598,-67 460.938,-32.8285 291.948,-21.31 222.316,-17.8421"/>
<polygon fill="midnightblue" stroke="midnightblue" points="222.168,-14.3313 212.013,-17.3525 221.836,-21.3234 222.168,-14.3313"/>
</g>
<!-- Node14&#45;&gt;Node8 -->
<g id="edge18" class="edge"><title>Node14&#45;&gt;Node8</title>
<path fill="none" stroke="midnightblue" d="M981.689,-139.847C995.468,-131.258 1014.59,-116.687 1023,-98 1028.65,-85.436 1030.44,-78.598 1023,-67 1018.38,-59.7973 975.114,-41.3183 944.246,-28.827"/>
<polygon fill="midnightblue" stroke="midnightblue" points="945.308,-25.4819 934.724,-25.0036 942.7,-31.9778 945.308,-25.4819"/>
</g>
<!-- Node14&#45;&gt;Node10 -->
<g id="edge20" class="edge"><title>Node14&#45;&gt;Node10</title>
<path fill="none" stroke="midnightblue" d="M998.096,-139.995C1036.31,-129.488 1097.42,-111.366 1117,-98 1142.01,-80.9218 1162.94,-52.1808 1174.71,-33.7909"/>
<polygon fill="midnightblue" stroke="midnightblue" points="1177.72,-35.5792 1180.01,-25.2343 1171.77,-31.8944 1177.72,-35.5792"/>
</g>
<!-- Node14&#45;&gt;Node12 -->
<g id="edge25" class="edge"><title>Node14&#45;&gt;Node12</title>
<path fill="none" stroke="midnightblue" d="M1004.87,-139.936C1058.15,-128.196 1153.87,-107.105 1212,-94.2971"/>
<polygon fill="midnightblue" stroke="midnightblue" points="1213.03,-97.6533 1222.04,-92.0834 1211.53,-90.8173 1213.03,-97.6533"/>
</g>
<!-- Node15 -->
<g id="node15" class="node"><title>Node15</title>
<polygon fill="white" stroke="#bfbfbf" points="1376,-73 1376,-92 1422,-92 1422,-73 1376,-73"/>
<text text-anchor="middle" x="1399" y="-80" font-family="Helvetica,sans-Serif" font-size="10.00">cstdint</text>
</g>
<!-- Node14&#45;&gt;Node15 -->
<g id="edge17" class="edge"><title>Node14&#45;&gt;Node15</title>
<path fill="none" stroke="midnightblue" d="M1010.16,-143.248C1078.49,-134.917 1213.86,-117.596 1328,-98 1340.37,-95.876 1353.88,-93.2051 1365.77,-90.7362"/>
<polygon fill="midnightblue" stroke="midnightblue" points="1366.66,-94.1249 1375.73,-88.6374 1365.22,-87.2755 1366.66,-94.1249"/>
</g>
<!-- Node16 -->
<g id="node16" class="node"><title>Node16</title>
<polygon fill="white" stroke="#bfbfbf" points="850.5,-73 850.5,-92 895.5,-92 895.5,-73 850.5,-73"/>
<text text-anchor="middle" x="873" y="-80" font-family="Helvetica,sans-Serif" font-size="10.00">iosfwd</text>
</g>
<!-- Node14&#45;&gt;Node16 -->
<g id="edge19" class="edge"><title>Node14&#45;&gt;Node16</title>
<path fill="none" stroke="midnightblue" d="M953.458,-139.734C938.119,-129.013 911.941,-110.716 893.623,-97.9137"/>
<polygon fill="midnightblue" stroke="midnightblue" points="895.545,-94.9873 885.344,-92.1273 891.535,-100.725 895.545,-94.9873"/>
</g>
<!-- Node17 -->
<g id="node17" class="node"><title>Node17</title>
<polygon fill="white" stroke="#bfbfbf" points="914,-67.5 914,-97.5 1014,-97.5 1014,-67.5 914,-67.5"/>
<text text-anchor="start" x="922" y="-85.5" font-family="Helvetica,sans-Serif" font-size="10.00">boost/container/flat</text>
<text text-anchor="middle" x="964" y="-74.5" font-family="Helvetica,sans-Serif" font-size="10.00">_set.hpp</text>
</g>
<!-- Node14&#45;&gt;Node17 -->
<g id="edge24" class="edge"><title>Node14&#45;&gt;Node17</title>
<path fill="none" stroke="midnightblue" d="M965.73,-139.734C965.478,-131.541 965.09,-118.923 964.745,-107.714"/>
<polygon fill="midnightblue" stroke="midnightblue" points="968.239,-107.477 964.434,-97.589 961.243,-107.692 968.239,-107.477"/>
</g>
<!-- Node18 -->
<g id="node18" class="node"><title>Node18</title>
<g id="a_node18"><a xlink:href="ext_8h.xhtml" target="_top" xlink:title="Helpful facilities as an extension to the standard library or Boost. ">
<polygon fill="white" stroke="black" points="1070,-73 1070,-92 1108,-92 1108,-73 1070,-73"/>
<text text-anchor="middle" x="1089" y="-80" font-family="Helvetica,sans-Serif" font-size="10.00">ext.h</text>
</a>
</g>
</g>
<!-- Node14&#45;&gt;Node18 -->
<g id="edge26" class="edge"><title>Node14&#45;&gt;Node18</title>
<path fill="none" stroke="midnightblue" d="M982.333,-139.869C1003.1,-128.893 1039.19,-109.824 1063.57,-96.9385"/>
<polygon fill="midnightblue" stroke="midnightblue" points="1065.39,-99.934 1072.6,-92.1672 1062.12,-93.745 1065.39,-99.934"/>
</g>
<!-- Node20 -->
<g id="node20" class="node"><title>Node20</title>
<g id="a_node20"><a xlink:href="linear__map_8h.xhtml" target="_top" xlink:title="Implementation of a vector&#45;based map for a small number of entries. ">
<polygon fill="white" stroke="black" points="722,-73 722,-92 794,-92 794,-73 722,-73"/>
<text text-anchor="middle" x="758" y="-80" font-family="Helvetica,sans-Serif" font-size="10.00">linear_map.h</text>
</a>
</g>
</g>
<!-- Node14&#45;&gt;Node20 -->
<g id="edge30" class="edge"><title>Node14&#45;&gt;Node20</title>
<path fill="none" stroke="midnightblue" d="M938.379,-139.869C901.525,-128.351 836.15,-107.922 795.046,-95.077"/>
<polygon fill="midnightblue" stroke="midnightblue" points="795.993,-91.7058 785.404,-92.0637 793.905,-98.3872 795.993,-91.7058"/>
</g>
<!-- Node18&#45;&gt;Node8 -->
<g id="edge27" class="edge"><title>Node18&#45;&gt;Node8</title>
<path fill="none" stroke="midnightblue" d="M1070.25,-72.974C1065.62,-70.9478 1060.66,-68.8413 1056,-67 1011.3,-49.3182 999.328,-47.0145 954,-31 951.633,-30.1637 949.189,-29.3001 946.728,-28.4303"/>
<polygon fill="midnightblue" stroke="midnightblue" points="947.875,-25.1235 937.281,-25.0899 945.542,-31.7232 947.875,-25.1235"/>
</g>
<!-- Node18&#45;&gt;Node10 -->
<g id="edge28" class="edge"><title>Node18&#45;&gt;Node10</title>
<path fill="none" stroke="midnightblue" d="M1101.95,-72.7338C1117.85,-61.9644 1145.05,-43.55 1163.97,-30.7395"/>
<polygon fill="midnightblue" stroke="midnightblue" points="1165.94,-33.6321 1172.26,-25.1273 1162.02,-27.8357 1165.94,-33.6321"/>
</g>
<!-- Node19 -->
<g id="node19" class="node"><title>Node19</title>
<polygon fill="white" stroke="#bfbfbf" points="963,-0.5 963,-30.5 1073,-30.5 1073,-0.5 963,-0.5"/>
<text text-anchor="start" x="971" y="-18.5" font-family="Helvetica,sans-Serif" font-size="10.00">boost/range/algorithm</text>
<text text-anchor="middle" x="1018" y="-7.5" font-family="Helvetica,sans-Serif" font-size="10.00">/find_if.hpp</text>
</g>
<!-- Node18&#45;&gt;Node19 -->
<g id="edge29" class="edge"><title>Node18&#45;&gt;Node19</title>
<path fill="none" stroke="midnightblue" d="M1079.42,-72.7338C1069.64,-63.7804 1054.09,-49.543 1041.09,-37.6346"/>
<polygon fill="midnightblue" stroke="midnightblue" points="1043.13,-34.76 1033.39,-30.589 1038.4,-39.9231 1043.13,-34.76"/>
</g>
<!-- Node20&#45;&gt;Node4 -->
<g id="edge36" class="edge"><title>Node20&#45;&gt;Node4</title>
<path fill="none" stroke="midnightblue" d="M744.244,-72.7338C727.268,-61.9156 698.186,-43.3832 678.073,-30.5659"/>
<polygon fill="midnightblue" stroke="midnightblue" points="679.852,-27.5498 669.538,-25.1273 676.09,-33.4531 679.852,-27.5498"/>
</g>
<!-- Node20&#45;&gt;Node5 -->
<g id="edge35" class="edge"><title>Node20&#45;&gt;Node5</title>
<path fill="none" stroke="midnightblue" d="M721.883,-77.3358C696.693,-74.4333 662.298,-70.4742 632,-67 478.73,-49.4251 295.549,-28.5316 222.445,-20.1978"/>
<polygon fill="midnightblue" stroke="midnightblue" points="222.408,-16.671 212.076,-19.0159 221.616,-23.626 222.408,-16.671"/>
</g>
<!-- Node20&#45;&gt;Node8 -->
<g id="edge32" class="edge"><title>Node20&#45;&gt;Node8</title>
<path fill="none" stroke="midnightblue" d="M778.583,-72.8685C805.334,-61.6504 852.248,-41.9766 882.972,-29.0925"/>
<polygon fill="midnightblue" stroke="midnightblue" points="884.464,-32.2622 892.332,-25.1672 881.757,-25.8068 884.464,-32.2622"/>
</g>
<!-- Node21 -->
<g id="node21" class="node"><title>Node21</title>
<polygon fill="white" stroke="#bfbfbf" points="1091.5,-6 1091.5,-25 1140.5,-25 1140.5,-6 1091.5,-6"/>
<text text-anchor="middle" x="1116" y="-13" font-family="Helvetica,sans-Serif" font-size="10.00">cassert</text>
</g>
<!-- Node20&#45;&gt;Node21 -->
<g id="edge31" class="edge"><title>Node20&#45;&gt;Node21</title>
<path fill="none" stroke="midnightblue" d="M794.329,-74.9534C808.833,-72.392 825.694,-69.4798 841,-67 947.906,-49.6799 977.79,-60.4812 1082,-31 1084.29,-30.3515 1086.63,-29.5861 1088.96,-28.7514"/>
<polygon fill="midnightblue" stroke="midnightblue" points="1090.3,-31.9867 1098.31,-25.0517 1087.72,-25.4781 1090.3,-31.9867"/>
</g>
<!-- Node22 -->
<g id="node22" class="node"><title>Node22</title>
<polygon fill="white" stroke="#bfbfbf" points="709.5,-6 709.5,-25 782.5,-25 782.5,-6 709.5,-6"/>
<text text-anchor="middle" x="746" y="-13" font-family="Helvetica,sans-Serif" font-size="10.00">initializer_list</text>
</g>
<!-- Node20&#45;&gt;Node22 -->
<g id="edge33" class="edge"><title>Node20&#45;&gt;Node22</title>
<path fill="none" stroke="midnightblue" d="M756.382,-72.7338C754.618,-63.1826 751.745,-47.6183 749.468,-35.2829"/>
<polygon fill="midnightblue" stroke="midnightblue" points="752.85,-34.3257 747.593,-25.1273 745.966,-35.5966 752.85,-34.3257"/>
</g>
<!-- Node23 -->
<g id="node23" class="node"><title>Node23</title>
<polygon fill="white" stroke="#bfbfbf" points="800.5,-6 800.5,-25 859.5,-25 859.5,-6 800.5,-6"/>
<text text-anchor="middle" x="830" y="-13" font-family="Helvetica,sans-Serif" font-size="10.00">stdexcept</text>
</g>
<!-- Node20&#45;&gt;Node23 -->
<g id="edge34" class="edge"><title>Node20&#45;&gt;Node23</title>
<path fill="none" stroke="midnightblue" d="M767.71,-72.7338C779.262,-62.3055 798.753,-44.7088 812.86,-31.9732"/>
<polygon fill="midnightblue" stroke="midnightblue" points="815.366,-34.4263 820.444,-25.1273 810.676,-29.2304 815.366,-34.4263"/>
</g>
<!-- Node24&#45;&gt;Node2 -->
<g id="edge38" class="edge"><title>Node24&#45;&gt;Node2</title>
<path fill="none" stroke="midnightblue" d="M1663.84,-139.734C1661.47,-130.085 1657.58,-114.3 1654.53,-101.906"/>
<polygon fill="midnightblue" stroke="midnightblue" points="1657.91,-101.001 1652.12,-92.1273 1651.12,-102.674 1657.91,-101.001"/>
</g>
<!-- Node25&#45;&gt;Node5 -->
<g id="edge40" class="edge"><title>Node25&#45;&gt;Node5</title>
<path fill="none" stroke="midnightblue" d="M800.75,-318.688C650.047,-308.321 238.286,-270.632 166,-165 141.391,-129.038 152.41,-109.269 163,-67 165.941,-55.2618 172.189,-43.2694 177.935,-33.9182"/>
<polygon fill="midnightblue" stroke="midnightblue" points="181.055,-35.5402 183.58,-25.2507 175.19,-31.7196 181.055,-35.5402"/>
</g>
<!-- Node25&#45;&gt;Node6 -->
<g id="edge46" class="edge"><title>Node25&#45;&gt;Node6</title>
<path fill="none" stroke="midnightblue" d="M847.055,-313.368C827.908,-294.894 782.721,-251.293 758.316,-227.744"/>
<polygon fill="midnightblue" stroke="midnightblue" points="760.53,-225.016 750.904,-220.591 755.67,-230.054 760.53,-225.016"/>
</g>
<!-- Node25&#45;&gt;Node14 -->
<g id="edge47" class="edge"><title>Node25&#45;&gt;Node14</title>
<path fill="none" stroke="midnightblue" d="M861.606,-313.26C878.968,-286.191 932.062,-203.413 955.12,-167.462"/>
<polygon fill="midnightblue" stroke="midnightblue" points="958.083,-169.326 960.536,-159.019 952.191,-165.547 958.083,-169.326"/>
</g>
<!-- Node26 -->
<g id="node26" class="node"><title>Node26</title>
<g id="a_node26"><a xlink:href="analysis_8h.xhtml" target="_top" xlink:title="Common facilities for all analysis classes. ">
<polygon fill="white" stroke="black" points="1576.5,-201.5 1576.5,-220.5 1637.5,-220.5 1637.5,-201.5 1576.5,-201.5"/>
<text text-anchor="middle" x="1607" y="-208.5" font-family="Helvetica,sans-Serif" font-size="10.00">analysis.h</text>
</a>
</g>
</g>
<!-- Node25&#45;&gt;Node26 -->
<g id="edge41" class="edge"><title>Node25&#45;&gt;Node26</title>
<path fill="none" stroke="midnightblue" d="M911.246,-320.216C1039.52,-315.694 1354.4,-302.307 1457,-277 1503.54,-265.52 1553.97,-240.893 1582.89,-225.465"/>
<polygon fill="midnightblue" stroke="midnightblue" points="1584.71,-228.458 1591.84,-220.618 1581.38,-222.303 1584.71,-228.458"/>
</g>
<!-- Node27 -->
<g id="node27" class="node"><title>Node27</title>
<g id="a_node27"><a xlink:href="fault__tree__analysis_8h.xhtml" target="_top" xlink:title="Fault Tree Analysis. ">
<polygon fill="white" stroke="black" points="1341.5,-257.5 1341.5,-276.5 1448.5,-276.5 1448.5,-257.5 1341.5,-257.5"/>
<text text-anchor="middle" x="1395" y="-264.5" font-family="Helvetica,sans-Serif" font-size="10.00">fault_tree_analysis.h</text>
</a>
</g>
</g>
<!-- Node25&#45;&gt;Node27 -->
<g id="edge48" class="edge"><title>Node25&#45;&gt;Node27</title>
<path fill="none" stroke="midnightblue" d="M911.149,-316.475C1011.74,-306.397 1224.45,-285.087 1331.14,-274.398"/>
<polygon fill="midnightblue" stroke="midnightblue" points="1331.53,-277.877 1341.13,-273.397 1330.83,-270.911 1331.53,-277.877"/>
</g>
<!-- Node26&#45;&gt;Node2 -->
<g id="edge43" class="edge"><title>Node26&#45;&gt;Node2</title>
<path fill="none" stroke="midnightblue" d="M1608.76,-201.422C1611.78,-187.193 1618.48,-157.905 1627,-134 1630.94,-122.937 1636.35,-110.959 1640.92,-101.446"/>
<polygon fill="midnightblue" stroke="midnightblue" points="1644.18,-102.767 1645.46,-92.2506 1637.9,-99.6699 1644.18,-102.767"/>
</g>
<!-- Node26&#45;&gt;Node12 -->
<g id="edge44" class="edge"><title>Node26&#45;&gt;Node12</title>
<path fill="none" stroke="midnightblue" d="M1576.34,-203.076C1543.06,-195.219 1488.58,-181.349 1443,-165 1385.81,-144.485 1321.5,-113.795 1286.71,-96.5225"/>
<polygon fill="midnightblue" stroke="midnightblue" points="1288.22,-93.3646 1277.71,-92.0262 1285.09,-99.6266 1288.22,-93.3646"/>
</g>
<!-- Node26&#45;&gt;Node21 -->
<g id="edge42" class="edge"><title>Node26&#45;&gt;Node21</title>
<path fill="none" stroke="midnightblue" d="M1607.49,-201.141C1608.37,-175.594 1607.05,-101.413 1565,-67 1493.36,-8.37511 1239.81,-53.4372 1150,-31 1147.64,-30.4094 1145.23,-29.6751 1142.83,-28.8526"/>
<polygon fill="midnightblue" stroke="midnightblue" points="1143.87,-25.4988 1133.28,-25.1178 1141.32,-32.0184 1143.87,-25.4988"/>
</g>
<!-- Node26&#45;&gt;Node24 -->
<g id="edge45" class="edge"><title>Node26&#45;&gt;Node24</title>
<path fill="none" stroke="midnightblue" d="M1615.45,-201.475C1624.57,-192.285 1639.27,-177.456 1650.48,-166.156"/>
<polygon fill="midnightblue" stroke="midnightblue" points="1653.01,-168.574 1657.56,-159.009 1648.04,-163.646 1653.01,-168.574"/>
</g>
<!-- Node27&#45;&gt;Node2 -->
<g id="edge51" class="edge"><title>Node27&#45;&gt;Node2</title>
<path fill="none" stroke="midnightblue" d="M1404.51,-257.178C1418.59,-244.279 1446.01,-219.769 1471,-201 1524.79,-160.595 1591.99,-118.593 1626.75,-97.4466"/>
<polygon fill="midnightblue" stroke="midnightblue" points="1628.92,-100.227 1635.66,-92.054 1625.29,-94.2393 1628.92,-100.227"/>
</g>
<!-- Node27&#45;&gt;Node3 -->
<g id="edge52" class="edge"><title>Node27&#45;&gt;Node3</title>
<path fill="none" stroke="midnightblue" d="M1341.42,-260.413C1275.73,-253.174 1161.17,-239.284 1064,-221 959.757,-201.386 933.865,-194.578 832,-165 790.968,-153.086 782.012,-145.982 741,-134 676.435,-115.137 658.777,-116.121 594,-98 590.674,-97.0695 587.225,-96.0624 583.78,-95.0275"/>
<polygon fill="midnightblue" stroke="midnightblue" points="584.771,-91.6706 574.184,-92.0781 582.714,-98.3616 584.771,-91.6706"/>
</g>
<!-- Node27&#45;&gt;Node5 -->
<g id="edge54" class="edge"><title>Node27&#45;&gt;Node5</title>
<path fill="none" stroke="midnightblue" d="M1341.47,-265.479C1118.24,-262.787 269.233,-247.176 186,-165 151.208,-130.65 170.137,-65.7425 182.304,-34.3696"/>
<polygon fill="midnightblue" stroke="midnightblue" points="185.545,-35.6895 186.083,-25.1083 179.064,-33.0446 185.545,-35.6895"/>
</g>
<!-- Node27&#45;&gt;Node10 -->
<g id="edge50" class="edge"><title>Node27&#45;&gt;Node10</title>
<path fill="none" stroke="midnightblue" d="M1448.61,-262.205C1517.33,-256.488 1631.81,-243.824 1667,-221 1724.6,-183.639 1733.33,-108.97 1679,-67 1642.93,-39.1376 1329.4,-22.8487 1221.38,-18.0239"/>
<polygon fill="midnightblue" stroke="midnightblue" points="1221.44,-14.5231 1211.3,-17.5801 1221.13,-21.5163 1221.44,-14.5231"/>
</g>
<!-- Node27&#45;&gt;Node14 -->
<g id="edge56" class="edge"><title>Node27&#45;&gt;Node14</title>
<path fill="none" stroke="midnightblue" d="M1341.37,-261.581C1285.04,-255.944 1194.33,-244.03 1119,-221 1071.51,-206.48 1019.7,-180.205 990.203,-164.157"/>
<polygon fill="midnightblue" stroke="midnightblue" points="991.54,-160.897 981.092,-159.138 988.162,-167.029 991.54,-160.897"/>
</g>
<!-- Node27&#45;&gt;Node15 -->
<g id="edge49" class="edge"><title>Node27&#45;&gt;Node15</title>
<path fill="none" stroke="midnightblue" d="M1395.19,-257.198C1395.81,-229.193 1397.72,-141.713 1398.58,-102.66"/>
<polygon fill="midnightblue" stroke="midnightblue" points="1402.09,-102.288 1398.81,-92.214 1395.09,-102.135 1402.09,-102.288"/>
</g>
<!-- Node27&#45;&gt;Node24 -->
<g id="edge71" class="edge"><title>Node27&#45;&gt;Node24</title>
<path fill="none" stroke="midnightblue" d="M1448.66,-262.941C1513.57,-258.152 1617.7,-246.631 1646,-221 1660.27,-208.081 1664.66,-185.811 1665.86,-169.754"/>
<polygon fill="midnightblue" stroke="midnightblue" points="1669.37,-169.512 1666.27,-159.382 1662.38,-169.236 1669.37,-169.512"/>
</g>
<!-- Node27&#45;&gt;Node26 -->
<g id="edge55" class="edge"><title>Node27&#45;&gt;Node26</title>
<path fill="none" stroke="midnightblue" d="M1428.59,-257.444C1466.05,-247.903 1526.61,-232.477 1566.62,-222.286"/>
<polygon fill="midnightblue" stroke="midnightblue" points="1567.49,-225.675 1576.32,-219.815 1565.76,-218.892 1567.49,-225.675"/>
</g>
<!-- Node28 -->
<g id="node28" class="node"><title>Node28</title>
<polygon fill="white" stroke="#bfbfbf" points="1480,-201.5 1480,-220.5 1558,-220.5 1558,-201.5 1480,-201.5"/>
<text text-anchor="middle" x="1519" y="-208.5" font-family="Helvetica,sans-Serif" font-size="10.00">unordered_set</text>
</g>
<!-- Node27&#45;&gt;Node28 -->
<g id="edge53" class="edge"><title>Node27&#45;&gt;Node28</title>
<path fill="none" stroke="midnightblue" d="M1414.65,-257.444C1434.96,-248.596 1466.9,-234.687 1490.1,-224.586"/>
<polygon fill="midnightblue" stroke="midnightblue" points="1491.67,-227.718 1499.44,-220.516 1488.88,-221.3 1491.67,-227.718"/>
</g>
<!-- Node29 -->
<g id="node29" class="node"><title>Node29</title>
<g id="a_node29"><a xlink:href="logger_8h.xhtml" target="_top" xlink:title="Logging capability for various purposes, such as warnings and debugging. ">
<polygon fill="white" stroke="black" points="1452.5,-140 1452.5,-159 1503.5,-159 1503.5,-140 1452.5,-140"/>
<text text-anchor="middle" x="1478" y="-147" font-family="Helvetica,sans-Serif" font-size="10.00">logger.h</text>
</a>
</g>
</g>
<!-- Node27&#45;&gt;Node29 -->
<g id="edge57" class="edge"><title>Node27&#45;&gt;Node29</title>
<path fill="none" stroke="midnightblue" d="M1400.34,-257.429C1408.26,-244.844 1423.71,-220.72 1438,-201 1446.34,-189.49 1456.26,-176.962 1464.13,-167.263"/>
<polygon fill="midnightblue" stroke="midnightblue" points="1467.06,-169.217 1470.68,-159.262 1461.64,-164.782 1467.06,-169.217"/>
</g>
<!-- Node32 -->
<g id="node32" class="node"><title>Node32</title>
<g id="a_node32"><a xlink:href="preprocessor_8h.xhtml" target="_top" xlink:title="A collection of Boolean graph preprocessing algorithms that simplify fault trees for analysis...">
<polygon fill="white" stroke="black" points="1128.5,-201.5 1128.5,-220.5 1209.5,-220.5 1209.5,-201.5 1128.5,-201.5"/>
<text text-anchor="middle" x="1169" y="-208.5" font-family="Helvetica,sans-Serif" font-size="10.00">preprocessor.h</text>
</a>
</g>
</g>
<!-- Node27&#45;&gt;Node32 -->
<g id="edge62" class="edge"><title>Node27&#45;&gt;Node32</title>
<path fill="none" stroke="midnightblue" d="M1359.19,-257.444C1320.01,-248.083 1257.12,-233.056 1214.48,-222.868"/>
<polygon fill="midnightblue" stroke="midnightblue" points="1215.18,-219.436 1204.64,-220.516 1213.56,-226.245 1215.18,-219.436"/>
</g>
<!-- Node29&#45;&gt;Node12 -->
<g id="edge61" class="edge"><title>Node29&#45;&gt;Node12</title>
<path fill="none" stroke="midnightblue" d="M1455.25,-139.942C1449.64,-137.917 1443.62,-135.819 1438,-134 1392.28,-119.212 1339.21,-104.374 1303.19,-94.646"/>
<polygon fill="midnightblue" stroke="midnightblue" points="1304.07,-91.2582 1293.5,-92.0421 1302.25,-98.0182 1304.07,-91.2582"/>
</g>
<!-- Node29&#45;&gt;Node15 -->
<g id="edge58" class="edge"><title>Node29&#45;&gt;Node15</title>
<path fill="none" stroke="midnightblue" d="M1467.35,-139.734C1454.55,-129.208 1432.88,-111.379 1417.37,-98.6174"/>
<polygon fill="midnightblue" stroke="midnightblue" points="1419.43,-95.7782 1409.49,-92.1273 1414.98,-101.184 1419.43,-95.7782"/>
</g>
<!-- Node30 -->
<g id="node30" class="node"><title>Node30</title>
<polygon fill="white" stroke="#bfbfbf" points="1510,-73 1510,-92 1556,-92 1556,-73 1510,-73"/>
<text text-anchor="middle" x="1533" y="-80" font-family="Helvetica,sans-Serif" font-size="10.00">chrono</text>
</g>
<!-- Node29&#45;&gt;Node30 -->
<g id="edge59" class="edge"><title>Node29&#45;&gt;Node30</title>
<path fill="none" stroke="midnightblue" d="M1485.42,-139.734C1493.99,-129.598 1508.3,-112.69 1518.99,-100.056"/>
<polygon fill="midnightblue" stroke="midnightblue" points="1521.91,-102.022 1525.7,-92.1273 1516.57,-97.5004 1521.91,-102.022"/>
</g>
<!-- Node31 -->
<g id="node31" class="node"><title>Node31</title>
<polygon fill="white" stroke="#bfbfbf" points="1440,-73 1440,-92 1492,-92 1492,-73 1440,-73"/>
<text text-anchor="middle" x="1466" y="-80" font-family="Helvetica,sans-Serif" font-size="10.00">sstream</text>
</g>
<!-- Node29&#45;&gt;Node31 -->
<g id="edge60" class="edge"><title>Node29&#45;&gt;Node31</title>
<path fill="none" stroke="midnightblue" d="M1476.38,-139.734C1474.62,-130.183 1471.74,-114.618 1469.47,-102.283"/>
<polygon fill="midnightblue" stroke="midnightblue" points="1472.85,-101.326 1467.59,-92.1273 1465.97,-102.597 1472.85,-101.326"/>
</g>
<!-- Node32&#45;&gt;Node3 -->
<g id="edge65" class="edge"><title>Node32&#45;&gt;Node3</title>
<path fill="none" stroke="midnightblue" d="M1128.39,-208.974C1071.19,-206.362 964.465,-197.175 880,-165 856.268,-155.96 855.722,-143.065 832,-134 736.17,-97.379 704.441,-118.882 604,-98 598.967,-96.9536 593.708,-95.746 588.514,-94.4834"/>
<polygon fill="midnightblue" stroke="midnightblue" points="589.235,-91.0558 578.684,-92.0156 587.53,-97.8451 589.235,-91.0558"/>
</g>
<!-- Node32&#45;&gt;Node4 -->
<g id="edge66" class="edge"><title>Node32&#45;&gt;Node4</title>
<path fill="none" stroke="midnightblue" d="M1128.4,-208.448C1076.55,-205.232 984.926,-195.352 913,-165 891.294,-155.84 891.649,-143.293 870,-134 790.621,-99.9263 742.732,-156.312 679,-98 661.574,-82.0558 656.962,-54.026 655.943,-35.3589"/>
<polygon fill="midnightblue" stroke="midnightblue" points="659.437,-35.0483 655.691,-25.1377 652.439,-35.221 659.437,-35.0483"/>
</g>
<!-- Node32&#45;&gt;Node5 -->
<g id="edge67" class="edge"><title>Node32&#45;&gt;Node5</title>
<path fill="none" stroke="midnightblue" d="M1128.45,-205.559C1064.42,-198.343 936.08,-183.048 828,-165 679.955,-140.278 643.156,-132.16 497,-98 395.898,-74.3699 277.449,-41.4133 221.857,-25.6311"/>
<polygon fill="midnightblue" stroke="midnightblue" points="222.803,-22.2613 212.227,-22.8902 220.887,-28.994 222.803,-22.2613"/>
</g>
<!-- Node32&#45;&gt;Node10 -->
<g id="edge63" class="edge"><title>Node32&#45;&gt;Node10</title>
<path fill="none" stroke="midnightblue" d="M1209.6,-206.885C1240.55,-202.398 1282.12,-191.486 1308,-165 1329.72,-142.775 1323.51,-128.75 1328,-98 1329.99,-84.3669 1335.96,-78.2481 1328,-67 1303.95,-33.008 1255.05,-21.7415 1221.17,-18.095"/>
<polygon fill="midnightblue" stroke="midnightblue" points="1221.46,-14.6069 1211.18,-17.1913 1220.83,-21.5784 1221.46,-14.6069"/>
</g>
<!-- Node32&#45;&gt;Node12 -->
<g id="edge68" class="edge"><title>Node32&#45;&gt;Node12</title>
<path fill="none" stroke="midnightblue" d="M1209.72,-206.725C1237.64,-202.113 1272.8,-191.114 1291,-165 1305.02,-144.882 1289.12,-117.429 1275.65,-100.083"/>
<polygon fill="midnightblue" stroke="midnightblue" points="1278.07,-97.5115 1269,-92.0251 1272.67,-101.966 1278.07,-97.5115"/>
</g>
<!-- Node32&#45;&gt;Node14 -->
<g id="edge70" class="edge"><title>Node32&#45;&gt;Node14</title>
<path fill="none" stroke="midnightblue" d="M1139.92,-201.475C1104.42,-191.07 1044.25,-173.437 1004.83,-161.88"/>
<polygon fill="midnightblue" stroke="midnightblue" points="1005.61,-158.463 995.031,-159.009 1003.64,-165.181 1005.61,-158.463"/>
</g>
<!-- Node33 -->
<g id="node33" class="node"><title>Node33</title>
<polygon fill="white" stroke="#bfbfbf" points="1252,-140 1252,-159 1282,-159 1282,-140 1252,-140"/>
<text text-anchor="middle" x="1267" y="-147" font-family="Helvetica,sans-Serif" font-size="10.00">set</text>
</g>
<!-- Node32&#45;&gt;Node33 -->
<g id="edge64" class="edge"><title>Node32&#45;&gt;Node33</title>
<path fill="none" stroke="midnightblue" d="M1183.04,-201.475C1199.05,-191.755 1225.45,-175.727 1244.37,-164.237"/>
<polygon fill="midnightblue" stroke="midnightblue" points="1246.25,-167.191 1252.99,-159.009 1242.62,-161.207 1246.25,-167.191"/>
</g>
<!-- Node34 -->
<g id="node34" class="node"><title>Node34</title>
<polygon fill="white" stroke="#bfbfbf" points="1104.5,-140 1104.5,-159 1233.5,-159 1233.5,-140 1104.5,-140"/>
<text text-anchor="middle" x="1169" y="-147" font-family="Helvetica,sans-Serif" font-size="10.00">boost/unordered_map.hpp</text>
</g>
<!-- Node32&#45;&gt;Node34 -->
<g id="edge69" class="edge"><title>Node32&#45;&gt;Node34</title>
<path fill="none" stroke="midnightblue" d="M1169,-201.475C1169,-193.08 1169,-179.981 1169,-169.163"/>
<polygon fill="midnightblue" stroke="midnightblue" points="1172.5,-169.009 1169,-159.009 1165.5,-169.009 1172.5,-169.009"/>
</g>
</g>
</svg>
        <g id="navigator" transform="translate(0 0)" fill="#404254">
                <rect fill="#f2f5e9" fill-opacity="0.5" stroke="#606060" stroke-width=".5" x="0" y="0" width="60" height="60"/>
                <use id="zoomplus" xlink:href="#zoomPlus" x="17" y="9" onmousedown="handleZoom(evt,'in')"/>
                <use id="zoomminus" xlink:href="#zoomMin" x="42" y="9" onmousedown="handleZoom(evt,'out')"/>
                <use id="reset" xlink:href="#resetDef" x="30" y="36" onmousedown="handleReset()"/>
                <g id="arrowUp" xlink:href="#dirArrow" transform="translate(30 24)" onmousedown="handlePan(0,-1)">
                  <use xlink:href="#rim" fill="#404040">
                        <set attributeName="fill" to="#808080" begin="arrowUp.mouseover" end="arrowUp.mouseout"/>
                  </use>
                  <path fill="none" stroke="white" stroke-width="1.5" d="M0,-3.0v7 M-2.5,-0.5L0,-3.0L2.5,-0.5"/>
                </g>
                <g id="arrowRight" xlink:href="#dirArrow" transform="rotate(90) translate(36 -43)" onmousedown="handlePan(1,0)">
                  <use xlink:href="#rim" fill="#404040">
                        <set attributeName="fill" to="#808080" begin="arrowRight.mouseover" end="arrowRight.mouseout"/>
                  </use>
                  <path fill="none" stroke="white" stroke-width="1.5" d="M0,-3.0v7 M-2.5,-0.5L0,-3.0L2.5,-0.5"/>
                </g>
                <g id="arrowDown" xlink:href="#dirArrow" transform="rotate(180) translate(-30 -48)" onmousedown="handlePan(0,1)">
                  <use xlink:href="#rim" fill="#404040">
                        <set attributeName="fill" to="#808080" begin="arrowDown.mouseover" end="arrowDown.mouseout"/>
                  </use>
                  <path fill="none" stroke="white" stroke-width="1.5" d="M0,-3.0v7 M-2.5,-0.5L0,-3.0L2.5,-0.5"/>
                </g>
                <g id="arrowLeft" xlink:href="#dirArrow" transform="rotate(270) translate(-36 17)" onmousedown="handlePan(-1,0)">
                  <use xlink:href="#rim" fill="#404040">
                        <set attributeName="fill" to="#808080" begin="arrowLeft.mouseover" end="arrowLeft.mouseout"/>
                  </use>
                  <path fill="none" stroke="white" stroke-width="1.5" d="M0,-3.0v7 M-2.5,-0.5L0,-3.0L2.5,-0.5"/>
                </g>
        </g>
        <svg viewBox="0 0 15 15" width="100%" height="30px" preserveAspectRatio="xMaxYMin meet">
         <g id="arrow_out" transform="scale(0.3 0.3)">
          <a xlink:href="importance__analysis_8h__incl_org.svg" target="_base">
           <rect id="button" ry="5" rx="5" y="6" x="6" height="38" width="38"
                fill="#f2f5e9" fill-opacity="0.5" stroke="#606060" stroke-width="1.0"/>
           <path id="arrow"
             d="M 11.500037,31.436501 C 11.940474,20.09759 22.043105,11.32322 32.158766,21.979434 L 37.068811,17.246167 C 37.068811,17.246167 37.088388,32 37.088388,32 L 22.160133,31.978069 C 22.160133,31.978069 26.997745,27.140456 26.997745,27.140456 C 18.528582,18.264221 13.291696,25.230495 11.500037,31.436501 z"
             style="fill:#404040;"/>
          </a>
         </g>
        </svg>
</svg>
