<?xml version="1.0" encoding="UTF-8" standalone="no"?>
<!DOCTYPE svg PUBLIC "-//W3C//DTD SVG 1.1//EN"
 "http://www.w3.org/Graphics/SVG/1.1/DTD/svg11.dtd">
<!-- Generated by graphviz version 2.38.0 (20140413.2041)
 -->
<!-- Title: importance_analysis.h Pages: 1 -->
<svg width="334pt" height="196pt"
 viewBox="0.00 0.00 334.00 196.00" xmlns="http://www.w3.org/2000/svg" xmlns:xlink="http://www.w3.org/1999/xlink">
<g id="graph0" class="graph" transform="scale(1 1) rotate(0) translate(4 192)">
<title>importance_analysis.h</title>
<polygon fill="white" stroke="none" points="-4,4 -4,-192 330,-192 330,4 -4,4"/>
<!-- Node1 -->
<g id="node1" class="node"><title>Node1</title>
<polygon fill="#bfbfbf" stroke="black" points="90.5,-168.5 90.5,-187.5 204.5,-187.5 204.5,-168.5 90.5,-168.5"/>
<text text-anchor="middle" x="147.5" y="-175.5" font-family="Helvetica,sans-Serif" font-size="10.00">importance_analysis.h</text>
</g>
<!-- Node2 -->
<g id="node2" class="node"><title>Node2</title>
<g id="a_node2"><a xlink:href="importance__analysis_8cc.xhtml" target="_top" xlink:title="Implementations of functions to provide quantitative importance informations. ">
<polygon fill="white" stroke="black" points="0,-112.5 0,-131.5 119,-131.5 119,-112.5 0,-112.5"/>
<text text-anchor="middle" x="59.5" y="-119.5" font-family="Helvetica,sans-Serif" font-size="10.00">importance_analysis.cc</text>
</a>
</g>
</g>
<!-- Node1&#45;&gt;Node2 -->
<g id="edge1" class="edge"><title>Node1&#45;&gt;Node2</title>
<path fill="none" stroke="midnightblue" d="M124.523,-162.901C108.387,-152.999 87.3187,-140.071 73.6036,-131.655"/>
<polygon fill="midnightblue" stroke="midnightblue" points="123.007,-166.077 133.361,-168.324 126.669,-160.111 123.007,-166.077"/>
</g>
<!-- Node3 -->
<g id="node3" class="node"><title>Node3</title>
<g id="a_node3"><a xlink:href="reporter_8h.xhtml" target="_top" xlink:title="Reporter of results. ">
<polygon fill="white" stroke="black" points="121.5,-56.5 121.5,-75.5 179.5,-75.5 179.5,-56.5 121.5,-56.5"/>
<text text-anchor="middle" x="150.5" y="-63.5" font-family="Helvetica,sans-Serif" font-size="10.00">reporter.h</text>
</a>
</g>
</g>
<!-- Node1&#45;&gt;Node3 -->
<g id="edge2" class="edge"><title>Node1&#45;&gt;Node3</title>
<path fill="none" stroke="midnightblue" d="M148.009,-158.348C148.666,-134.254 149.783,-93.3079 150.266,-75.5914"/>
<polygon fill="midnightblue" stroke="midnightblue" points="144.509,-158.277 147.735,-168.368 151.507,-158.468 144.509,-158.277"/>
</g>
<!-- Node6 -->
<g id="node6" class="node"><title>Node6</title>
<g id="a_node6"><a xlink:href="risk__analysis_8h.xhtml" target="_top" xlink:title="Contains the main system for performing analysis. ">
<polygon fill="white" stroke="black" points="175.5,-112.5 175.5,-131.5 257.5,-131.5 257.5,-112.5 175.5,-112.5"/>
<text text-anchor="middle" x="216.5" y="-119.5" font-family="Helvetica,sans-Serif" font-size="10.00">risk_analysis.h</text>
</a>
</g>
</g>
<!-- Node1&#45;&gt;Node6 -->
<g id="edge5" class="edge"><title>Node1&#45;&gt;Node6</title>
<path fill="none" stroke="midnightblue" d="M166.538,-162.101C178.956,-152.382 194.743,-140.027 205.212,-131.834"/>
<polygon fill="midnightblue" stroke="midnightblue" points="164.304,-159.405 158.586,-168.324 168.618,-164.917 164.304,-159.405"/>
</g>
<!-- Node4 -->
<g id="node4" class="node"><title>Node4</title>
<g id="a_node4"><a xlink:href="reporter_8cc.xhtml" target="_top" xlink:title="Implements Reporter class. ">
<polygon fill="white" stroke="black" points="101,-0.5 101,-19.5 164,-19.5 164,-0.5 101,-0.5"/>
<text text-anchor="middle" x="132.5" y="-7.5" font-family="Helvetica,sans-Serif" font-size="10.00">reporter.cc</text>
</a>
</g>
</g>
<!-- Node3&#45;&gt;Node4 -->
<g id="edge3" class="edge"><title>Node3&#45;&gt;Node4</title>
<path fill="none" stroke="midnightblue" d="M144.299,-46.3956C141.287,-37.362 137.812,-26.936 135.417,-19.7511"/>
<polygon fill="midnightblue" stroke="midnightblue" points="141.045,-47.703 147.528,-56.083 147.686,-45.4893 141.045,-47.703"/>
</g>
<!-- Node5 -->
<g id="node5" class="node"><title>Node5</title>
<g id="a_node5"><a xlink:href="scram_8cc.xhtml" target="_top" xlink:title="Main entrance. ">
<polygon fill="white" stroke="black" points="182,-0.5 182,-19.5 239,-19.5 239,-0.5 182,-0.5"/>
<text text-anchor="middle" x="210.5" y="-7.5" font-family="Helvetica,sans-Serif" font-size="10.00">scram.cc</text>
</a>
</g>
</g>
<!-- Node3&#45;&gt;Node5 -->
<g id="edge4" class="edge"><title>Node3&#45;&gt;Node5</title>
<path fill="none" stroke="midnightblue" d="M167.681,-49.5372C178.379,-39.9087 191.756,-27.8694 200.685,-19.8339"/>
<polygon fill="midnightblue" stroke="midnightblue" points="165.232,-47.0327 160.14,-56.324 169.914,-52.2358 165.232,-47.0327"/>
</g>
<!-- Node6&#45;&gt;Node3 -->
<g id="edge6" class="edge"><title>Node6&#45;&gt;Node3</title>
<path fill="none" stroke="midnightblue" d="M197.946,-105.82C186.122,-96.1452 171.214,-83.9481 161.297,-75.8339"/>
<polygon fill="midnightblue" stroke="midnightblue" points="195.94,-108.7 205.896,-112.324 200.373,-103.283 195.94,-108.7"/>
</g>
<!-- Node6&#45;&gt;Node5 -->
<g id="edge8" class="edge"><title>Node6&#45;&gt;Node5</title>
<path fill="none" stroke="midnightblue" d="M215.483,-102.348C214.168,-78.2538 211.935,-37.3079 210.969,-19.5914"/>
<polygon fill="midnightblue" stroke="midnightblue" points="211.99,-102.574 216.029,-112.368 218.979,-102.193 211.99,-102.574"/>
</g>
<!-- Node7 -->
<g id="node7" class="node"><title>Node7</title>
<g id="a_node7"><a xlink:href="risk__analysis_8cc.xhtml" target="_top" xlink:title="Implementation of risk analysis handler. ">
<polygon fill="white" stroke="black" points="239,-56.5 239,-75.5 326,-75.5 326,-56.5 239,-56.5"/>
<text text-anchor="middle" x="282.5" y="-63.5" font-family="Helvetica,sans-Serif" font-size="10.00">risk_analysis.cc</text>
</a>
</g>
</g>
<!-- Node6&#45;&gt;Node7 -->
<g id="edge7" class="edge"><title>Node6&#45;&gt;Node7</title>
<path fill="none" stroke="midnightblue" d="M235.054,-105.82C246.878,-96.1452 261.786,-83.9481 271.703,-75.8339"/>
<polygon fill="midnightblue" stroke="midnightblue" points="232.627,-103.283 227.104,-112.324 237.06,-108.7 232.627,-103.283"/>
</g>
</g>
</svg>
