<?xml version="1.0" encoding="UTF-8" standalone="no"?>
<!DOCTYPE svg PUBLIC "-//W3C//DTD SVG 1.1//EN"
 "http://www.w3.org/Graphics/SVG/1.1/DTD/svg11.dtd">
<!-- Generated by graphviz version 2.38.0 (20140413.2041)
 -->
<!-- Title: Graphical Class Hierarchy Pages: 1 -->
<svg width="360pt" height="66pt"
 viewBox="0.00 0.00 360.00 66.00" xmlns="http://www.w3.org/2000/svg" xmlns:xlink="http://www.w3.org/1999/xlink">
<g id="graph0" class="graph" transform="scale(1 1) rotate(0) translate(4 62)">
<title>Graphical Class Hierarchy</title>
<polygon fill="white" stroke="none" points="-4,4 -4,-62 356,-62 356,4 -4,4"/>
<!-- Node1 -->
<g id="node1" class="node"><title>Node1</title>
<g id="a_node1"><a xlink:href="classscram_1_1core_1_1CutSetProbabilityCalculator.xhtml" target="_top" xlink:title="Quantitative calculator of a probability value of a single cut set. ">
<polygon fill="white" stroke="black" points="0,-14 0,-44 151,-44 151,-14 0,-14"/>
<text text-anchor="start" x="8" y="-32" font-family="Helvetica,sans-Serif" font-size="10.00">scram::core::CutSetProbability</text>
<text text-anchor="middle" x="75.5" y="-21" font-family="Helvetica,sans-Serif" font-size="10.00">Calculator</text>
</a>
</g>
</g>
<!-- Node2 -->
<g id="node2" class="node"><title>Node2</title>
<g id="a_node2"><a xlink:href="classscram_1_1core_1_1McubCalculator.xhtml" target="_top" xlink:title="Quantitative calculator of probability values with the Min&#45;Cut&#45;Upper Bound approximation. ">
<polygon fill="white" stroke="black" points="198,-38.5 198,-57.5 341,-57.5 341,-38.5 198,-38.5"/>
<text text-anchor="middle" x="269.5" y="-45.5" font-family="Helvetica,sans-Serif" font-size="10.00">scram::core::McubCalculator</text>
</a>
</g>
</g>
<!-- Node1&#45;&gt;Node2 -->
<g id="edge1" class="edge"><title>Node1&#45;&gt;Node2</title>
<path fill="none" stroke="#8b1a1a" d="M161.2,-37.3818C173.426,-38.5916 185.899,-39.826 197.813,-41.0049"/>
<polygon fill="#8b1a1a" stroke="#8b1a1a" points="161.303,-33.875 151.007,-36.3731 160.614,-40.8409 161.303,-33.875"/>
</g>
<!-- Node3 -->
<g id="node3" class="node"><title>Node3</title>
<g id="a_node3"><a xlink:href="classscram_1_1core_1_1RareEventCalculator.xhtml" target="_top" xlink:title="Quantitative calculator of probability values with the Rare&#45;Event approximation. ">
<polygon fill="white" stroke="black" points="187,-0.5 187,-19.5 352,-19.5 352,-0.5 187,-0.5"/>
<text text-anchor="middle" x="269.5" y="-7.5" font-family="Helvetica,sans-Serif" font-size="10.00">scram::core::RareEventCalculator</text>
</a>
</g>
</g>
<!-- Node1&#45;&gt;Node3 -->
<g id="edge2" class="edge"><title>Node1&#45;&gt;Node3</title>
<path fill="none" stroke="#8b1a1a" d="M160.969,-20.6411C169.518,-19.7951 178.191,-18.9368 186.711,-18.0937"/>
<polygon fill="#8b1a1a" stroke="#8b1a1a" points="160.614,-17.1591 151.007,-21.6269 161.303,-24.125 160.614,-17.1591"/>
</g>
</g>
</svg>
