<?xml version="1.0" encoding="UTF-8" standalone="no"?>
<!DOCTYPE svg PUBLIC "-//W3C//DTD SVG 1.1//EN"
 "http://www.w3.org/Graphics/SVG/1.1/DTD/svg11.dtd">
<!-- Generated by graphviz version 2.38.0 (20140413.2041)
 -->
<!-- Title: logger.h Pages: 1 -->
<svg width="324pt" height="84pt"
 viewBox="0.00 0.00 323.50 84.00" xmlns="http://www.w3.org/2000/svg" xmlns:xlink="http://www.w3.org/1999/xlink">
<g id="graph0" class="graph" transform="scale(1 1) rotate(0) translate(4 80)">
<title>logger.h</title>
<polygon fill="white" stroke="none" points="-4,4 -4,-80 319.5,-80 319.5,4 -4,4"/>
<!-- Node1 -->
<g id="node1" class="node"><title>Node1</title>
<polygon fill="#bfbfbf" stroke="black" points="94.5,-56.5 94.5,-75.5 145.5,-75.5 145.5,-56.5 94.5,-56.5"/>
<text text-anchor="middle" x="120" y="-63.5" font-family="Helvetica,sans-Serif" font-size="10.00">logger.h</text>
</g>
<!-- Node2 -->
<g id="node2" class="node"><title>Node2</title>
<polygon fill="white" stroke="#bfbfbf" points="0,-0.5 0,-19.5 46,-19.5 46,-0.5 0,-0.5"/>
<text text-anchor="middle" x="23" y="-7.5" font-family="Helvetica,sans-Serif" font-size="10.00">cstdint</text>
</g>
<!-- Node1&#45;&gt;Node2 -->
<g id="edge1" class="edge"><title>Node1&#45;&gt;Node2</title>
<path fill="none" stroke="midnightblue" d="M104.415,-56.324C89.0009,-47.7428 65.1878,-34.486 47.2903,-24.5224"/>
<polygon fill="midnightblue" stroke="midnightblue" points="48.9858,-21.4606 38.5461,-19.6545 45.5809,-27.5767 48.9858,-21.4606"/>
</g>
<!-- Node3 -->
<g id="node3" class="node"><title>Node3</title>
<polygon fill="white" stroke="#bfbfbf" points="64,-0.5 64,-19.5 110,-19.5 110,-0.5 64,-0.5"/>
<text text-anchor="middle" x="87" y="-7.5" font-family="Helvetica,sans-Serif" font-size="10.00">chrono</text>
</g>
<!-- Node1&#45;&gt;Node3 -->
<g id="edge2" class="edge"><title>Node1&#45;&gt;Node3</title>
<path fill="none" stroke="midnightblue" d="M114.551,-56.083C109.986,-48.6127 103.332,-37.7244 97.7066,-28.5199"/>
<polygon fill="midnightblue" stroke="midnightblue" points="100.549,-26.4588 92.3479,-19.7511 94.5759,-30.109 100.549,-26.4588"/>
</g>
<!-- Node4 -->
<g id="node4" class="node"><title>Node4</title>
<polygon fill="white" stroke="#bfbfbf" points="128,-0.5 128,-19.5 180,-19.5 180,-0.5 128,-0.5"/>
<text text-anchor="middle" x="154" y="-7.5" font-family="Helvetica,sans-Serif" font-size="10.00">sstream</text>
</g>
<!-- Node1&#45;&gt;Node4 -->
<g id="edge3" class="edge"><title>Node1&#45;&gt;Node4</title>
<path fill="none" stroke="midnightblue" d="M125.614,-56.083C130.367,-48.5341 137.318,-37.4948 143.152,-28.2298"/>
<polygon fill="midnightblue" stroke="midnightblue" points="146.124,-30.0783 148.49,-19.7511 140.2,-26.3486 146.124,-30.0783"/>
</g>
<!-- Node5 -->
<g id="node5" class="node"><title>Node5</title>
<polygon fill="white" stroke="#bfbfbf" points="198.5,-0.5 198.5,-19.5 315.5,-19.5 315.5,-0.5 198.5,-0.5"/>
<text text-anchor="middle" x="257" y="-7.5" font-family="Helvetica,sans-Serif" font-size="10.00">boost/noncopyable.hpp</text>
</g>
<!-- Node1&#45;&gt;Node5 -->
<g id="edge4" class="edge"><title>Node1&#45;&gt;Node5</title>
<path fill="none" stroke="midnightblue" d="M141.708,-56.4435C164.355,-47.5171 200.072,-33.4387 225.752,-23.3168"/>
<polygon fill="midnightblue" stroke="midnightblue" points="227.374,-26.4397 235.394,-19.5164 224.807,-19.9273 227.374,-26.4397"/>
</g>
</g>
</svg>
