<?xml version="1.0" encoding="UTF-8" standalone="no"?>
<!DOCTYPE svg PUBLIC "-//W3C//DTD SVG 1.1//EN"
 "http://www.w3.org/Graphics/SVG/1.1/DTD/svg11.dtd">
<!-- Generated by graphviz version 2.38.0 (20140413.2041)
 -->
<!-- Title: mocus.h Pages: 1 -->
<svg width="1180pt" height="341pt"
 viewBox="0.00 0.00 1180.00 341.00" xmlns="http://www.w3.org/2000/svg" xmlns:xlink="http://www.w3.org/1999/xlink">
<g id="graph0" class="graph" transform="scale(1 1) rotate(0) translate(4 337)">
<title>mocus.h</title>
<polygon fill="white" stroke="none" points="-4,4 -4,-337 1176,-337 1176,4 -4,4"/>
<!-- Node1 -->
<g id="node1" class="node"><title>Node1</title>
<polygon fill="#bfbfbf" stroke="black" points="334,-313.5 334,-332.5 388,-332.5 388,-313.5 334,-313.5"/>
<text text-anchor="middle" x="361" y="-320.5" font-family="Helvetica,sans-Serif" font-size="10.00">mocus.h</text>
</g>
<!-- Node2 -->
<g id="node2" class="node"><title>Node2</title>
<polygon fill="white" stroke="#bfbfbf" points="630.5,-73 630.5,-92 713.5,-92 713.5,-73 630.5,-73"/>
<text text-anchor="middle" x="672" y="-80" font-family="Helvetica,sans-Serif" font-size="10.00">unordered_map</text>
</g>
<!-- Node1&#45;&gt;Node2 -->
<g id="edge1" class="edge"><title>Node1&#45;&gt;Node2</title>
<path fill="none" stroke="midnightblue" d="M333.682,-317.718C310.447,-312.477 278.461,-301.113 263,-277 228.695,-223.498 220.407,-181.171 263,-134 315.696,-75.6401 537.578,-111.73 615,-98 620.53,-97.0194 626.314,-95.7908 631.989,-94.4661"/>
<polygon fill="midnightblue" stroke="midnightblue" points="633.127,-97.7909 642.007,-92.0107 631.461,-90.9921 633.127,-97.7909"/>
</g>
<!-- Node3 -->
<g id="node3" class="node"><title>Node3</title>
<polygon fill="white" stroke="#bfbfbf" points="996,-6 996,-25 1040,-25 1040,-6 996,-6"/>
<text text-anchor="middle" x="1018" y="-13" font-family="Helvetica,sans-Serif" font-size="10.00">vector</text>
</g>
<!-- Node1&#45;&gt;Node3 -->
<g id="edge2" class="edge"><title>Node1&#45;&gt;Node3</title>
<path fill="none" stroke="midnightblue" d="M388.448,-321.233C530.114,-316.917 1172,-292.901 1172,-212 1172,-212 1172,-212 1172,-148.5 1172,-106.686 1155.76,-95.328 1125,-67 1103.55,-47.2404 1072.98,-33.8646 1050,-25.8698"/>
<polygon fill="midnightblue" stroke="midnightblue" points="1050.95,-22.4963 1040.35,-22.6707 1048.74,-29.1405 1050.95,-22.4963"/>
</g>
<!-- Node4 -->
<g id="node4" class="node"><title>Node4</title>
<polygon fill="white" stroke="#bfbfbf" points="731.5,-73 731.5,-92 848.5,-92 848.5,-73 731.5,-73"/>
<text text-anchor="middle" x="790" y="-80" font-family="Helvetica,sans-Serif" font-size="10.00">boost/noncopyable.hpp</text>
</g>
<!-- Node1&#45;&gt;Node4 -->
<g id="edge3" class="edge"><title>Node1&#45;&gt;Node4</title>
<path fill="none" stroke="midnightblue" d="M357.336,-313.492C345.342,-284.169 310.66,-186.253 358,-134 412.574,-73.7618 641.683,-110.495 722,-98 729.134,-96.8901 736.647,-95.5073 743.971,-94.0398"/>
<polygon fill="midnightblue" stroke="midnightblue" points="744.709,-97.4614 753.79,-92.0036 743.287,-90.6072 744.709,-97.4614"/>
</g>
<!-- Node5 -->
<g id="node5" class="node"><title>Node5</title>
<g id="a_node5"><a xlink:href="boolean__graph_8h.xhtml" target="_top" xlink:title="Classes and facilities to represent simplified fault trees as Boolean graphs with event and gate indi...">
<polygon fill="white" stroke="black" points="123,-140 123,-159 211,-159 211,-140 123,-140"/>
<text text-anchor="middle" x="167" y="-147" font-family="Helvetica,sans-Serif" font-size="10.00">boolean_graph.h</text>
</a>
</g>
</g>
<!-- Node1&#45;&gt;Node5 -->
<g id="edge4" class="edge"><title>Node1&#45;&gt;Node5</title>
<path fill="none" stroke="midnightblue" d="M333.815,-318.614C289.968,-312.579 206.56,-298.54 187,-277 160.057,-247.33 161.14,-196.728 164.14,-169.379"/>
<polygon fill="midnightblue" stroke="midnightblue" points="167.643,-169.58 165.467,-159.211 160.702,-168.674 167.643,-169.58"/>
</g>
<!-- Node18 -->
<g id="node18" class="node"><title>Node18</title>
<g id="a_node18"><a xlink:href="settings_8h.xhtml" target="_top" xlink:title="Builder for settings. ">
<polygon fill="white" stroke="black" points="1046.5,-140 1046.5,-159 1105.5,-159 1105.5,-140 1046.5,-140"/>
<text text-anchor="middle" x="1076" y="-147" font-family="Helvetica,sans-Serif" font-size="10.00">settings.h</text>
</a>
</g>
</g>
<!-- Node1&#45;&gt;Node18 -->
<g id="edge25" class="edge"><title>Node1&#45;&gt;Node18</title>
<path fill="none" stroke="midnightblue" d="M388.333,-320.894C500.276,-315.916 922.947,-292.622 1032,-221 1050.8,-208.656 1063.01,-185.21 1069.7,-168.757"/>
<polygon fill="midnightblue" stroke="midnightblue" points="1073.07,-169.733 1073.3,-159.141 1066.51,-167.275 1073.07,-169.733"/>
</g>
<!-- Node20 -->
<g id="node20" class="node"><title>Node20</title>
<g id="a_node20"><a xlink:href="zbdd_8h.xhtml" target="_top" xlink:title="Zero&#45;Suppressed Binary Decision Diagram facilities. ">
<polygon fill="white" stroke="black" points="422,-257.5 422,-276.5 468,-276.5 468,-257.5 422,-257.5"/>
<text text-anchor="middle" x="445" y="-264.5" font-family="Helvetica,sans-Serif" font-size="10.00">zbdd.h</text>
</a>
</g>
</g>
<!-- Node1&#45;&gt;Node20 -->
<g id="edge27" class="edge"><title>Node1&#45;&gt;Node20</title>
<path fill="none" stroke="midnightblue" d="M374.496,-313.324C387.6,-304.9 407.712,-291.971 423.107,-282.074"/>
<polygon fill="midnightblue" stroke="midnightblue" points="425.018,-285.006 431.537,-276.655 421.233,-279.118 425.018,-285.006"/>
</g>
<!-- Node5&#45;&gt;Node2 -->
<g id="edge9" class="edge"><title>Node5&#45;&gt;Node2</title>
<path fill="none" stroke="midnightblue" d="M197.517,-139.94C206.328,-137.723 215.995,-135.531 225,-134 397.044,-104.751 444.08,-127.97 616,-98 621.503,-97.0406 627.259,-95.8136 632.898,-94.4805"/>
<polygon fill="midnightblue" stroke="midnightblue" points="633.984,-97.8168 642.841,-92.0013 632.291,-91.0247 633.984,-97.8168"/>
</g>
<!-- Node5&#45;&gt;Node3 -->
<g id="edge11" class="edge"><title>Node5&#45;&gt;Node3</title>
<path fill="none" stroke="midnightblue" d="M197.526,-139.992C206.337,-137.776 216.002,-135.571 225,-134 381.659,-106.644 433.318,-156.994 581,-98 601.887,-89.6564 600.222,-75.6117 621,-67 687.024,-39.6351 903.327,-23.6384 985.727,-18.4114"/>
<polygon fill="midnightblue" stroke="midnightblue" points="986.004,-21.901 995.767,-17.786 985.569,-14.9146 986.004,-21.901"/>
</g>
<!-- Node5&#45;&gt;Node4 -->
<g id="edge13" class="edge"><title>Node5&#45;&gt;Node4</title>
<path fill="none" stroke="midnightblue" d="M211.361,-141.122C227.576,-138.604 246.086,-135.938 263,-134 466.296,-110.705 519.497,-127.401 722,-98 729.227,-96.9507 736.836,-95.5875 744.243,-94.1174"/>
<polygon fill="midnightblue" stroke="midnightblue" points="745.079,-97.5187 754.163,-92.0659 743.661,-90.6637 745.079,-97.5187"/>
</g>
<!-- Node6 -->
<g id="node6" class="node"><title>Node6</title>
<polygon fill="white" stroke="#bfbfbf" points="48,-73 48,-92 94,-92 94,-73 48,-73"/>
<text text-anchor="middle" x="71" y="-80" font-family="Helvetica,sans-Serif" font-size="10.00">cstdint</text>
</g>
<!-- Node5&#45;&gt;Node6 -->
<g id="edge5" class="edge"><title>Node5&#45;&gt;Node6</title>
<path fill="none" stroke="midnightblue" d="M154.053,-139.734C138.147,-128.964 110.951,-110.55 92.0306,-97.7395"/>
<polygon fill="midnightblue" stroke="midnightblue" points="93.9847,-94.8357 83.7419,-92.1273 90.06,-100.632 93.9847,-94.8357"/>
</g>
<!-- Node7 -->
<g id="node7" class="node"><title>Node7</title>
<polygon fill="white" stroke="#bfbfbf" points="278,-6 278,-25 334,-25 334,-6 278,-6"/>
<text text-anchor="middle" x="306" y="-13" font-family="Helvetica,sans-Serif" font-size="10.00">algorithm</text>
</g>
<!-- Node5&#45;&gt;Node7 -->
<g id="edge6" class="edge"><title>Node5&#45;&gt;Node7</title>
<path fill="none" stroke="midnightblue" d="M188.758,-139.892C208.116,-131.425 236.327,-117.012 256,-98 275.158,-79.4853 289.947,-52.1511 298.315,-34.3338"/>
<polygon fill="midnightblue" stroke="midnightblue" points="301.567,-35.6366 302.485,-25.0815 295.185,-32.7606 301.567,-35.6366"/>
</g>
<!-- Node8 -->
<g id="node8" class="node"><title>Node8</title>
<polygon fill="white" stroke="#bfbfbf" points="168.5,-73 168.5,-92 213.5,-92 213.5,-73 168.5,-73"/>
<text text-anchor="middle" x="191" y="-80" font-family="Helvetica,sans-Serif" font-size="10.00">iosfwd</text>
</g>
<!-- Node5&#45;&gt;Node8 -->
<g id="edge7" class="edge"><title>Node5&#45;&gt;Node8</title>
<path fill="none" stroke="midnightblue" d="M170.237,-139.734C173.835,-129.988 179.746,-113.981 184.342,-101.532"/>
<polygon fill="midnightblue" stroke="midnightblue" points="187.634,-102.721 187.815,-92.1273 181.067,-100.296 187.634,-102.721"/>
</g>
<!-- Node9 -->
<g id="node9" class="node"><title>Node9</title>
<polygon fill="white" stroke="#bfbfbf" points="0,-6 0,-25 52,-25 52,-6 0,-6"/>
<text text-anchor="middle" x="26" y="-13" font-family="Helvetica,sans-Serif" font-size="10.00">memory</text>
</g>
<!-- Node5&#45;&gt;Node9 -->
<g id="edge8" class="edge"><title>Node5&#45;&gt;Node9</title>
<path fill="none" stroke="midnightblue" d="M180.454,-139.866C202.526,-124.645 242.067,-92.2617 222,-67 178.011,-11.6229 134.888,-50.8211 67,-31 64.2142,-30.1867 61.3407,-29.2907 58.4686,-28.3552"/>
<polygon fill="midnightblue" stroke="midnightblue" points="59.4329,-24.9864 48.8386,-25.0852 57.1822,-31.6147 59.4329,-24.9864"/>
</g>
<!-- Node10 -->
<g id="node10" class="node"><title>Node10</title>
<polygon fill="white" stroke="#bfbfbf" points="769,-6 769,-25 809,-25 809,-6 769,-6"/>
<text text-anchor="middle" x="789" y="-13" font-family="Helvetica,sans-Serif" font-size="10.00">utility</text>
</g>
<!-- Node5&#45;&gt;Node10 -->
<g id="edge10" class="edge"><title>Node5&#45;&gt;Node10</title>
<path fill="none" stroke="midnightblue" d="M197.839,-139.982C206.568,-137.792 216.113,-135.603 225,-134 365.845,-108.588 411.48,-149.532 545,-98 566.98,-89.5171 566.638,-76.9367 588,-67 645.2,-40.3929 718.332,-26.5434 758.742,-20.4571"/>
<polygon fill="midnightblue" stroke="midnightblue" points="759.362,-23.9041 768.757,-19.0079 758.359,-16.9762 759.362,-23.9041"/>
</g>
<!-- Node11 -->
<g id="node11" class="node"><title>Node11</title>
<polygon fill="white" stroke="#bfbfbf" points="308,-67.5 308,-97.5 408,-97.5 408,-67.5 308,-67.5"/>
<text text-anchor="start" x="316" y="-85.5" font-family="Helvetica,sans-Serif" font-size="10.00">boost/container/flat</text>
<text text-anchor="middle" x="358" y="-74.5" font-family="Helvetica,sans-Serif" font-size="10.00">_set.hpp</text>
</g>
<!-- Node5&#45;&gt;Node11 -->
<g id="edge12" class="edge"><title>Node5&#45;&gt;Node11</title>
<path fill="none" stroke="midnightblue" d="M192.363,-139.869C221.52,-129.946 270.115,-113.408 307.15,-100.805"/>
<polygon fill="midnightblue" stroke="midnightblue" points="308.44,-104.063 316.779,-97.5281 306.185,-97.4364 308.44,-104.063"/>
</g>
<!-- Node12 -->
<g id="node12" class="node"><title>Node12</title>
<g id="a_node12"><a xlink:href="ext_8h.xhtml" target="_top" xlink:title="Helpful facilities as an extension to the standard library or Boost. ">
<polygon fill="white" stroke="black" points="112,-73 112,-92 150,-92 150,-73 112,-73"/>
<text text-anchor="middle" x="131" y="-80" font-family="Helvetica,sans-Serif" font-size="10.00">ext.h</text>
</a>
</g>
</g>
<!-- Node5&#45;&gt;Node12 -->
<g id="edge14" class="edge"><title>Node5&#45;&gt;Node12</title>
<path fill="none" stroke="midnightblue" d="M162.145,-139.734C156.693,-129.89 147.704,-113.66 140.781,-101.159"/>
<polygon fill="midnightblue" stroke="midnightblue" points="143.685,-99.1795 135.778,-92.1273 137.561,-102.571 143.685,-99.1795"/>
</g>
<!-- Node14 -->
<g id="node14" class="node"><title>Node14</title>
<g id="a_node14"><a xlink:href="linear__map_8h.xhtml" target="_top" xlink:title="Implementation of a vector&#45;based map for a small number of entries. ">
<polygon fill="white" stroke="black" points="464,-73 464,-92 536,-92 536,-73 464,-73"/>
<text text-anchor="middle" x="500" y="-80" font-family="Helvetica,sans-Serif" font-size="10.00">linear_map.h</text>
</a>
</g>
</g>
<!-- Node5&#45;&gt;Node14 -->
<g id="edge18" class="edge"><title>Node5&#45;&gt;Node14</title>
<path fill="none" stroke="midnightblue" d="M199.736,-139.931C207.96,-137.885 216.783,-135.78 225,-134 267.837,-124.722 387.084,-103.404 453.621,-91.6493"/>
<polygon fill="midnightblue" stroke="midnightblue" points="454.588,-95.0328 463.828,-89.8482 453.372,-88.1393 454.588,-95.0328"/>
</g>
<!-- Node12&#45;&gt;Node7 -->
<g id="edge15" class="edge"><title>Node12&#45;&gt;Node7</title>
<path fill="none" stroke="midnightblue" d="M146.502,-72.9577C150.517,-70.8885 154.873,-68.7661 159,-67 195.331,-51.4521 238.2,-37.1668 268.238,-27.7875"/>
<polygon fill="midnightblue" stroke="midnightblue" points="269.385,-31.0967 277.905,-24.8001 267.318,-24.4088 269.385,-31.0967"/>
</g>
<!-- Node12&#45;&gt;Node9 -->
<g id="edge16" class="edge"><title>Node12&#45;&gt;Node9</title>
<path fill="none" stroke="midnightblue" d="M116.839,-72.7338C99.285,-61.8669 69.1567,-43.2161 48.4426,-30.3931"/>
<polygon fill="midnightblue" stroke="midnightblue" points="50.2813,-27.415 39.9364,-25.1273 46.5968,-33.3668 50.2813,-27.415"/>
</g>
<!-- Node13 -->
<g id="node13" class="node"><title>Node13</title>
<polygon fill="white" stroke="#bfbfbf" points="76,-0.5 76,-30.5 186,-30.5 186,-0.5 76,-0.5"/>
<text text-anchor="start" x="84" y="-18.5" font-family="Helvetica,sans-Serif" font-size="10.00">boost/range/algorithm</text>
<text text-anchor="middle" x="131" y="-7.5" font-family="Helvetica,sans-Serif" font-size="10.00">/find_if.hpp</text>
</g>
<!-- Node12&#45;&gt;Node13 -->
<g id="edge17" class="edge"><title>Node12&#45;&gt;Node13</title>
<path fill="none" stroke="midnightblue" d="M131,-72.7338C131,-64.5406 131,-51.9225 131,-40.7136"/>
<polygon fill="midnightblue" stroke="midnightblue" points="134.5,-40.589 131,-30.589 127.5,-40.5891 134.5,-40.589"/>
</g>
<!-- Node14&#45;&gt;Node3 -->
<g id="edge23" class="edge"><title>Node14&#45;&gt;Node3</title>
<path fill="none" stroke="midnightblue" d="M536.335,-75.1242C552.177,-72.4449 570.981,-69.4001 588,-67 735.962,-46.133 913.424,-27.2218 985.347,-19.8121"/>
<polygon fill="midnightblue" stroke="midnightblue" points="985.98,-23.2656 995.57,-18.7631 985.265,-16.3021 985.98,-23.2656"/>
</g>
<!-- Node14&#45;&gt;Node7 -->
<g id="edge20" class="edge"><title>Node14&#45;&gt;Node7</title>
<path fill="none" stroke="midnightblue" d="M474.238,-72.8685C440.082,-61.4245 379.662,-41.1807 341.285,-28.3223"/>
<polygon fill="midnightblue" stroke="midnightblue" points="342.153,-24.922 331.559,-25.0637 339.929,-31.5594 342.153,-24.922"/>
</g>
<!-- Node14&#45;&gt;Node10 -->
<g id="edge24" class="edge"><title>Node14&#45;&gt;Node10</title>
<path fill="none" stroke="midnightblue" d="M528.195,-72.9282C535.285,-70.8818 542.898,-68.7775 550,-67 624.46,-48.3639 713.096,-30.8371 758.646,-22.1661"/>
<polygon fill="midnightblue" stroke="midnightblue" points="759.566,-25.5542 768.74,-20.2554 758.264,-18.6763 759.566,-25.5542"/>
</g>
<!-- Node15 -->
<g id="node15" class="node"><title>Node15</title>
<polygon fill="white" stroke="#bfbfbf" points="547.5,-6 547.5,-25 596.5,-25 596.5,-6 547.5,-6"/>
<text text-anchor="middle" x="572" y="-13" font-family="Helvetica,sans-Serif" font-size="10.00">cassert</text>
</g>
<!-- Node14&#45;&gt;Node15 -->
<g id="edge19" class="edge"><title>Node14&#45;&gt;Node15</title>
<path fill="none" stroke="midnightblue" d="M509.71,-72.7338C521.262,-62.3055 540.753,-44.7088 554.86,-31.9732"/>
<polygon fill="midnightblue" stroke="midnightblue" points="557.366,-34.4263 562.444,-25.1273 552.676,-29.2304 557.366,-34.4263"/>
</g>
<!-- Node16 -->
<g id="node16" class="node"><title>Node16</title>
<polygon fill="white" stroke="#bfbfbf" points="379.5,-6 379.5,-25 452.5,-25 452.5,-6 379.5,-6"/>
<text text-anchor="middle" x="416" y="-13" font-family="Helvetica,sans-Serif" font-size="10.00">initializer_list</text>
</g>
<!-- Node14&#45;&gt;Node16 -->
<g id="edge21" class="edge"><title>Node14&#45;&gt;Node16</title>
<path fill="none" stroke="midnightblue" d="M488.671,-72.7338C474.943,-62.1106 451.601,-44.0485 435.08,-31.2642"/>
<polygon fill="midnightblue" stroke="midnightblue" points="437.2,-28.4791 427.149,-25.1273 432.916,-34.0152 437.2,-28.4791"/>
</g>
<!-- Node17 -->
<g id="node17" class="node"><title>Node17</title>
<polygon fill="white" stroke="#bfbfbf" points="470.5,-6 470.5,-25 529.5,-25 529.5,-6 470.5,-6"/>
<text text-anchor="middle" x="500" y="-13" font-family="Helvetica,sans-Serif" font-size="10.00">stdexcept</text>
</g>
<!-- Node14&#45;&gt;Node17 -->
<g id="edge22" class="edge"><title>Node14&#45;&gt;Node17</title>
<path fill="none" stroke="midnightblue" d="M500,-72.7338C500,-63.1826 500,-47.6183 500,-35.2829"/>
<polygon fill="midnightblue" stroke="midnightblue" points="503.5,-35.1273 500,-25.1273 496.5,-35.1273 503.5,-35.1273"/>
</g>
<!-- Node19 -->
<g id="node19" class="node"><title>Node19</title>
<polygon fill="white" stroke="#bfbfbf" points="1055.5,-73 1055.5,-92 1096.5,-92 1096.5,-73 1055.5,-73"/>
<text text-anchor="middle" x="1076" y="-80" font-family="Helvetica,sans-Serif" font-size="10.00">string</text>
</g>
<!-- Node18&#45;&gt;Node19 -->
<g id="edge26" class="edge"><title>Node18&#45;&gt;Node19</title>
<path fill="none" stroke="midnightblue" d="M1076,-139.734C1076,-130.183 1076,-114.618 1076,-102.283"/>
<polygon fill="midnightblue" stroke="midnightblue" points="1079.5,-102.127 1076,-92.1273 1072.5,-102.127 1079.5,-102.127"/>
</g>
<!-- Node20&#45;&gt;Node2 -->
<g id="edge32" class="edge"><title>Node20&#45;&gt;Node2</title>
<path fill="none" stroke="midnightblue" d="M421.7,-263.487C396.449,-259.38 357.317,-248.675 339,-221 317.659,-188.756 313.488,-163.056 339,-134 379.81,-87.521 554.253,-109.645 615,-98 620.39,-96.9667 626.03,-95.7281 631.576,-94.4159"/>
<polygon fill="midnightblue" stroke="midnightblue" points="632.511,-97.7904 641.386,-92.0031 630.839,-90.993 632.511,-97.7904"/>
</g>
<!-- Node20&#45;&gt;Node3 -->
<g id="edge34" class="edge"><title>Node20&#45;&gt;Node3</title>
<path fill="none" stroke="midnightblue" d="M468.036,-266.429C576.068,-267.896 1030.76,-267.825 1114,-165 1126.32,-149.785 1118.02,-86.4867 1105,-67 1092.03,-47.588 1068.87,-34.6782 1049.71,-26.7736"/>
<polygon fill="midnightblue" stroke="midnightblue" points="1050.72,-23.412 1040.13,-23.0884 1048.21,-29.9453 1050.72,-23.412"/>
</g>
<!-- Node20&#45;&gt;Node4 -->
<g id="edge36" class="edge"><title>Node20&#45;&gt;Node4</title>
<path fill="none" stroke="midnightblue" d="M433.597,-257.444C405.151,-235.117 335.858,-174.05 372,-134 424.383,-75.9531 644.765,-110.171 722,-98 728.89,-96.9143 736.134,-95.5801 743.221,-94.1647"/>
<polygon fill="midnightblue" stroke="midnightblue" points="744.348,-97.5056 753.432,-92.0526 742.931,-90.6507 744.348,-97.5056"/>
</g>
<!-- Node20&#45;&gt;Node6 -->
<g id="edge28" class="edge"><title>Node20&#45;&gt;Node6</title>
<path fill="none" stroke="midnightblue" d="M421.701,-264.886C363.323,-260.945 208.702,-243.278 114,-165 94.0028,-148.471 82.0855,-120.178 76.0359,-101.658"/>
<polygon fill="midnightblue" stroke="midnightblue" points="79.3752,-100.609 73.1354,-92.0462 72.6737,-102.631 79.3752,-100.609"/>
</g>
<!-- Node20&#45;&gt;Node9 -->
<g id="edge31" class="edge"><title>Node20&#45;&gt;Node9</title>
<path fill="none" stroke="midnightblue" d="M421.978,-264.819C373.466,-261.788 257.658,-251.677 166,-221 115.473,-204.089 97.5883,-202.763 60,-165 36.2992,-141.189 33.0087,-130.627 25,-98 21.7156,-84.6194 24.8636,-80.7771 25,-67 25.1037,-56.5269 25.3283,-44.8339 25.5384,-35.339"/>
<polygon fill="midnightblue" stroke="midnightblue" points="29.0436,-35.1563 25.7784,-25.0772 22.0455,-34.9926 29.0436,-35.1563"/>
</g>
<!-- Node20&#45;&gt;Node10 -->
<g id="edge33" class="edge"><title>Node20&#45;&gt;Node10</title>
<path fill="none" stroke="midnightblue" d="M468.178,-264.907C555.915,-260.23 865.553,-238.654 922,-165 942.435,-138.335 901.468,-73.8785 895,-67 874.443,-45.1378 842.476,-31.7197 819.019,-24.2637"/>
<polygon fill="midnightblue" stroke="midnightblue" points="819.813,-20.848 809.229,-21.3373 817.808,-27.5548 819.813,-20.848"/>
</g>
<!-- Node21 -->
<g id="node21" class="node"><title>Node21</title>
<polygon fill="white" stroke="#bfbfbf" points="614,-201.5 614,-220.5 652,-220.5 652,-201.5 614,-201.5"/>
<text text-anchor="middle" x="633" y="-208.5" font-family="Helvetica,sans-Serif" font-size="10.00">array</text>
</g>
<!-- Node20&#45;&gt;Node21 -->
<g id="edge29" class="edge"><title>Node20&#45;&gt;Node21</title>
<path fill="none" stroke="midnightblue" d="M468.225,-259.624C499.241,-251.063 555.868,-235.277 604,-221 604.101,-220.97 604.202,-220.94 604.304,-220.91"/>
<polygon fill="midnightblue" stroke="midnightblue" points="605.434,-224.224 613.99,-217.975 603.404,-217.525 605.434,-224.224"/>
</g>
<!-- Node22 -->
<g id="node22" class="node"><title>Node22</title>
<polygon fill="white" stroke="#bfbfbf" points="670.5,-201.5 670.5,-220.5 705.5,-220.5 705.5,-201.5 670.5,-201.5"/>
<text text-anchor="middle" x="688" y="-208.5" font-family="Helvetica,sans-Serif" font-size="10.00">map</text>
</g>
<!-- Node20&#45;&gt;Node22 -->
<g id="edge30" class="edge"><title>Node20&#45;&gt;Node22</title>
<path fill="none" stroke="midnightblue" d="M468.225,-262.078C506.388,-255.438 584.871,-240.964 660.664,-220.819"/>
<polygon fill="midnightblue" stroke="midnightblue" points="661.626,-224.185 670.371,-218.203 659.805,-217.426 661.626,-224.185"/>
</g>
<!-- Node23 -->
<g id="node23" class="node"><title>Node23</title>
<polygon fill="white" stroke="#bfbfbf" points="381,-140 381,-159 509,-159 509,-140 381,-140"/>
<text text-anchor="middle" x="445" y="-147" font-family="Helvetica,sans-Serif" font-size="10.00">boost/functional/hash.hpp</text>
</g>
<!-- Node20&#45;&gt;Node23 -->
<g id="edge35" class="edge"><title>Node20&#45;&gt;Node23</title>
<path fill="none" stroke="midnightblue" d="M445,-257.319C445,-238.757 445,-194.839 445,-169.473"/>
<polygon fill="midnightblue" stroke="midnightblue" points="448.5,-169.282 445,-159.282 441.5,-169.282 448.5,-169.282"/>
</g>
<!-- Node24 -->
<g id="node24" class="node"><title>Node24</title>
<g id="a_node24"><a xlink:href="bdd_8h.xhtml" target="_top" xlink:title="Fault tree analysis with the Binary Decision Diagram algorithms. ">
<polygon fill="white" stroke="black" points="554.5,-201.5 554.5,-220.5 595.5,-220.5 595.5,-201.5 554.5,-201.5"/>
<text text-anchor="middle" x="575" y="-208.5" font-family="Helvetica,sans-Serif" font-size="10.00">bdd.h</text>
</a>
</g>
</g>
<!-- Node20&#45;&gt;Node24 -->
<g id="edge37" class="edge"><title>Node20&#45;&gt;Node24</title>
<path fill="none" stroke="midnightblue" d="M465.599,-257.444C486.993,-248.557 520.681,-234.563 545.024,-224.451"/>
<polygon fill="midnightblue" stroke="midnightblue" points="546.605,-227.585 554.497,-220.516 543.92,-221.12 546.605,-227.585"/>
</g>
<!-- Node24&#45;&gt;Node2 -->
<g id="edge42" class="edge"><title>Node24&#45;&gt;Node2</title>
<path fill="none" stroke="midnightblue" d="M575.162,-201.165C575.854,-186.038 579.131,-154.801 594,-134 605.842,-117.434 624.969,-104.927 641.319,-96.5037"/>
<polygon fill="midnightblue" stroke="midnightblue" points="643.085,-99.5367 650.548,-92.0162 640.024,-93.2414 643.085,-99.5367"/>
</g>
<!-- Node24&#45;&gt;Node3 -->
<g id="edge44" class="edge"><title>Node24&#45;&gt;Node3</title>
<path fill="none" stroke="midnightblue" d="M595.533,-203.314C598.681,-202.442 601.91,-201.634 605,-201 674.452,-186.757 861.744,-202.359 922,-165 971.696,-134.188 1000.58,-67.0214 1012.12,-34.6534"/>
<polygon fill="midnightblue" stroke="midnightblue" points="1015.46,-35.7077 1015.37,-25.1133 1008.83,-33.4498 1015.46,-35.7077"/>
</g>
<!-- Node24&#45;&gt;Node4 -->
<g id="edge46" class="edge"><title>Node24&#45;&gt;Node4</title>
<path fill="none" stroke="midnightblue" d="M595.542,-203.356C598.689,-202.478 601.915,-201.657 605,-201 666.142,-187.975 842.721,-211.947 884,-165 908.053,-137.644 859.621,-110.962 823.768,-95.9372"/>
<polygon fill="midnightblue" stroke="midnightblue" points="824.643,-92.516 814.06,-92.0177 822.022,-99.007 824.643,-92.516"/>
</g>
<!-- Node24&#45;&gt;Node5 -->
<g id="edge48" class="edge"><title>Node24&#45;&gt;Node5</title>
<path fill="none" stroke="midnightblue" d="M554.488,-207.009C493.65,-198.136 312.764,-171.757 221.277,-158.415"/>
<polygon fill="midnightblue" stroke="midnightblue" points="221.51,-154.912 211.109,-156.933 220.499,-161.839 221.51,-154.912"/>
</g>
<!-- Node24&#45;&gt;Node7 -->
<g id="edge39" class="edge"><title>Node24&#45;&gt;Node7</title>
<path fill="none" stroke="midnightblue" d="M569.992,-201.105C561.09,-185.889 541.245,-154.52 518,-134 493.824,-112.658 481.585,-116.255 455,-98 437.032,-85.6622 435.517,-78.4969 417,-67 392.088,-51.5326 361.641,-38.0198 338.94,-28.8741"/>
<polygon fill="midnightblue" stroke="midnightblue" points="340.001,-25.5299 329.414,-25.1087 337.428,-32.0397 340.001,-25.5299"/>
</g>
<!-- Node24&#45;&gt;Node9 -->
<g id="edge41" class="edge"><title>Node24&#45;&gt;Node9</title>
<path fill="none" stroke="midnightblue" d="M554.487,-209.678C475.963,-208.189 194.828,-200.439 114,-165 73.0648,-147.052 60.426,-137.227 39,-98 28.397,-78.5879 25.8544,-52.951 25.5067,-35.6558"/>
<polygon fill="midnightblue" stroke="midnightblue" points="29.0082,-35.2066 25.5445,-25.194 22.0083,-35.1812 29.0082,-35.2066"/>
</g>
<!-- Node24&#45;&gt;Node10 -->
<g id="edge43" class="edge"><title>Node24&#45;&gt;Node10</title>
<path fill="none" stroke="midnightblue" d="M595.538,-203.335C598.685,-202.46 601.913,-201.645 605,-201 670.077,-187.399 857.908,-214.759 902,-165 943.622,-118.029 857.544,-57.1105 813.2,-30.2504"/>
<polygon fill="midnightblue" stroke="midnightblue" points="814.818,-27.1413 804.431,-25.053 811.249,-33.1629 814.818,-27.1413"/>
</g>
<!-- Node24&#45;&gt;Node18 -->
<g id="edge49" class="edge"><title>Node24&#45;&gt;Node18</title>
<path fill="none" stroke="midnightblue" d="M595.522,-203.256C598.671,-202.392 601.904,-201.601 605,-201 775.442,-167.89 821.921,-188.137 994,-165 1007.93,-163.127 1023.11,-160.586 1036.57,-158.153"/>
<polygon fill="midnightblue" stroke="midnightblue" points="1037.29,-161.581 1046.49,-156.328 1036.02,-154.696 1037.29,-161.581"/>
</g>
<!-- Node24&#45;&gt;Node23 -->
<g id="edge45" class="edge"><title>Node24&#45;&gt;Node23</title>
<path fill="none" stroke="midnightblue" d="M556.374,-201.475C534.557,-191.49 498.196,-174.848 472.983,-163.307"/>
<polygon fill="midnightblue" stroke="midnightblue" points="474.141,-159.988 463.591,-159.009 471.228,-166.353 474.141,-159.988"/>
</g>
<!-- Node25 -->
<g id="node25" class="node"><title>Node25</title>
<polygon fill="white" stroke="#bfbfbf" points="603,-140 603,-159 647,-159 647,-140 603,-140"/>
<text text-anchor="middle" x="625" y="-147" font-family="Helvetica,sans-Serif" font-size="10.00">cmath</text>
</g>
<!-- Node24&#45;&gt;Node25 -->
<g id="edge38" class="edge"><title>Node24&#45;&gt;Node25</title>
<path fill="none" stroke="midnightblue" d="M582.164,-201.475C589.738,-192.462 601.87,-178.025 611.293,-166.812"/>
<polygon fill="midnightblue" stroke="midnightblue" points="614.096,-168.917 617.85,-159.009 608.737,-164.413 614.096,-168.917"/>
</g>
<!-- Node26 -->
<g id="node26" class="node"><title>Node26</title>
<polygon fill="white" stroke="#bfbfbf" points="665.5,-140 665.5,-159 732.5,-159 732.5,-140 665.5,-140"/>
<text text-anchor="middle" x="699" y="-147" font-family="Helvetica,sans-Serif" font-size="10.00">forward_list</text>
</g>
<!-- Node24&#45;&gt;Node26 -->
<g id="edge40" class="edge"><title>Node24&#45;&gt;Node26</title>
<path fill="none" stroke="midnightblue" d="M592.766,-201.475C613.484,-191.534 647.952,-174.995 671.989,-163.461"/>
<polygon fill="midnightblue" stroke="midnightblue" points="673.765,-166.491 681.267,-159.009 670.737,-160.18 673.765,-166.491"/>
</g>
<!-- Node27 -->
<g id="node27" class="node"><title>Node27</title>
<polygon fill="white" stroke="#bfbfbf" points="750.5,-134.5 750.5,-164.5 875.5,-164.5 875.5,-134.5 750.5,-134.5"/>
<text text-anchor="start" x="758.5" y="-152.5" font-family="Helvetica,sans-Serif" font-size="10.00">boost/smart_ptr/intrusive</text>
<text text-anchor="middle" x="813" y="-141.5" font-family="Helvetica,sans-Serif" font-size="10.00">_ptr.hpp</text>
</g>
<!-- Node24&#45;&gt;Node27 -->
<g id="edge47" class="edge"><title>Node24&#45;&gt;Node27</title>
<path fill="none" stroke="midnightblue" d="M595.615,-203.658C598.752,-202.739 601.956,-201.825 605,-201 650.131,-188.761 701.15,-176.352 741.365,-166.898"/>
<polygon fill="midnightblue" stroke="midnightblue" points="742.408,-170.249 751.346,-164.56 740.811,-163.433 742.408,-170.249"/>
</g>
</g>
</svg>
