<?xml version="1.0" encoding="UTF-8" standalone="no"?>
<!DOCTYPE svg PUBLIC "-//W3C//DTD SVG 1.1//EN"
 "http://www.w3.org/Graphics/SVG/1.1/DTD/svg11.dtd">
<!-- Generated by graphviz version 2.38.0 (20140413.2041)
 -->
<!-- Title: model.h Pages: 1 -->
<svg width="1362pt" height="386pt"
 viewBox="0.00 0.00 1362.00 386.00" xmlns="http://www.w3.org/2000/svg" xmlns:xlink="http://www.w3.org/1999/xlink">
<g id="graph0" class="graph" transform="scale(1 1) rotate(0) translate(4 382)">
<title>model.h</title>
<polygon fill="white" stroke="none" points="-4,4 -4,-382 1358,-382 1358,4 -4,4"/>
<!-- Node1 -->
<g id="node1" class="node"><title>Node1</title>
<polygon fill="#bfbfbf" stroke="black" points="908.5,-358.5 908.5,-377.5 959.5,-377.5 959.5,-358.5 908.5,-358.5"/>
<text text-anchor="middle" x="934" y="-365.5" font-family="Helvetica,sans-Serif" font-size="10.00">model.h</text>
</g>
<!-- Node2 -->
<g id="node2" class="node"><title>Node2</title>
<polygon fill="white" stroke="#bfbfbf" points="756,-67.5 756,-86.5 808,-86.5 808,-67.5 756,-67.5"/>
<text text-anchor="middle" x="782" y="-74.5" font-family="Helvetica,sans-Serif" font-size="10.00">memory</text>
</g>
<!-- Node1&#45;&gt;Node2 -->
<g id="edge1" class="edge"><title>Node1&#45;&gt;Node2</title>
<path fill="none" stroke="midnightblue" d="M944.25,-358.469C964.994,-340.179 1010,-294.87 1010,-246 1010,-246 1010,-246 1010,-188 1010,-103.904 882.62,-84.0681 818.281,-79.4128"/>
<polygon fill="midnightblue" stroke="midnightblue" points="818.357,-75.9107 808.154,-78.768 817.912,-82.8965 818.357,-75.9107"/>
</g>
<!-- Node3 -->
<g id="node3" class="node"><title>Node3</title>
<polygon fill="white" stroke="#bfbfbf" points="825.5,-6 825.5,-25 866.5,-25 866.5,-6 825.5,-6"/>
<text text-anchor="middle" x="846" y="-13" font-family="Helvetica,sans-Serif" font-size="10.00">string</text>
</g>
<!-- Node1&#45;&gt;Node3 -->
<g id="edge2" class="edge"><title>Node1&#45;&gt;Node3</title>
<path fill="none" stroke="midnightblue" d="M951.812,-358.484C983.875,-341.77 1048,-301.415 1048,-246 1048,-246 1048,-246 1048,-132 1048,-121.972 926.457,-58.0054 871.931,-29.8132"/>
<polygon fill="midnightblue" stroke="midnightblue" points="873.367,-26.6157 862.875,-25.1415 870.157,-32.8367 873.367,-26.6157"/>
</g>
<!-- Node4 -->
<g id="node4" class="node"><title>Node4</title>
<polygon fill="white" stroke="#bfbfbf" points="1152,-297 1152,-316 1214,-316 1214,-297 1152,-297"/>
<text text-anchor="middle" x="1183" y="-304" font-family="Helvetica,sans-Serif" font-size="10.00">type_traits</text>
</g>
<!-- Node1&#45;&gt;Node4 -->
<g id="edge3" class="edge"><title>Node1&#45;&gt;Node4</title>
<path fill="none" stroke="midnightblue" d="M959.631,-362.156C998.476,-354.633 1074.46,-339.203 1138,-322 1141.35,-321.093 1144.82,-320.09 1148.28,-319.048"/>
<polygon fill="midnightblue" stroke="midnightblue" points="1149.39,-322.368 1157.9,-316.052 1147.31,-315.685 1149.39,-322.368"/>
</g>
<!-- Node5 -->
<g id="node5" class="node"><title>Node5</title>
<polygon fill="white" stroke="#bfbfbf" points="179,-6 179,-25 223,-25 223,-6 179,-6"/>
<text text-anchor="middle" x="201" y="-13" font-family="Helvetica,sans-Serif" font-size="10.00">vector</text>
</g>
<!-- Node1&#45;&gt;Node5 -->
<g id="edge4" class="edge"><title>Node1&#45;&gt;Node5</title>
<path fill="none" stroke="midnightblue" d="M908.104,-366.414C776.816,-363.334 187.975,-348.151 111,-322 54.3889,-302.767 0,-305.789 0,-246 0,-246 0,-246 0,-132 0,-55.0862 112.011,-28.6408 168.8,-20.1757"/>
<polygon fill="midnightblue" stroke="midnightblue" points="169.299,-23.6401 178.722,-18.7962 168.335,-16.7068 169.299,-23.6401"/>
</g>
<!-- Node6 -->
<g id="node6" class="node"><title>Node6</title>
<polygon fill="white" stroke="#bfbfbf" points="884.5,-6 884.5,-25 1041.5,-25 1041.5,-6 884.5,-6"/>
<text text-anchor="middle" x="963" y="-13" font-family="Helvetica,sans-Serif" font-size="10.00">boost/multi_index_container.hpp</text>
</g>
<!-- Node1&#45;&gt;Node6 -->
<g id="edge5" class="edge"><title>Node1&#45;&gt;Node6</title>
<path fill="none" stroke="midnightblue" d="M959.733,-364.712C988.502,-360.799 1034.64,-350.26 1062,-322 1086.64,-296.553 1086,-281.422 1086,-246 1086,-246 1086,-246 1086,-132 1086,-101.205 1082.45,-90.0216 1062,-67 1046.14,-49.1504 1022.48,-36.7572 1002.27,-28.7161"/>
<polygon fill="midnightblue" stroke="midnightblue" points="1003.26,-25.3513 992.671,-25.1135 1000.8,-31.9048 1003.26,-25.3513"/>
</g>
<!-- Node7 -->
<g id="node7" class="node"><title>Node7</title>
<polygon fill="white" stroke="#bfbfbf" points="1232,-291.5 1232,-321.5 1354,-321.5 1354,-291.5 1232,-291.5"/>
<text text-anchor="start" x="1240" y="-309.5" font-family="Helvetica,sans-Serif" font-size="10.00">boost/multi_index/global</text>
<text text-anchor="middle" x="1293" y="-298.5" font-family="Helvetica,sans-Serif" font-size="10.00">_fun.hpp</text>
</g>
<!-- Node1&#45;&gt;Node7 -->
<g id="edge6" class="edge"><title>Node1&#45;&gt;Node7</title>
<path fill="none" stroke="midnightblue" d="M959.587,-363.453C1008.5,-356.577 1118.89,-340.614 1222,-322.129"/>
<polygon fill="midnightblue" stroke="midnightblue" points="1222.73,-325.553 1231.95,-320.332 1221.49,-318.664 1222.73,-325.553"/>
</g>
<!-- Node8 -->
<g id="node8" class="node"><title>Node8</title>
<polygon fill="white" stroke="#bfbfbf" points="1060,-0.5 1060,-30.5 1188,-30.5 1188,-0.5 1060,-0.5"/>
<text text-anchor="start" x="1068" y="-18.5" font-family="Helvetica,sans-Serif" font-size="10.00">boost/multi_index/hashed</text>
<text text-anchor="middle" x="1124" y="-7.5" font-family="Helvetica,sans-Serif" font-size="10.00">_index.hpp</text>
</g>
<!-- Node1&#45;&gt;Node8 -->
<g id="edge7" class="edge"><title>Node1&#45;&gt;Node8</title>
<path fill="none" stroke="midnightblue" d="M959.713,-365.681C992.75,-362.716 1050.21,-353.106 1087,-322 1115.69,-297.744 1124,-283.568 1124,-246 1124,-246 1124,-246 1124,-132 1124,-100.495 1124,-64.1555 1124,-40.7831"/>
<polygon fill="midnightblue" stroke="midnightblue" points="1127.5,-40.7249 1124,-30.7249 1120.5,-40.725 1127.5,-40.7249"/>
</g>
<!-- Node9 -->
<g id="node9" class="node"><title>Node9</title>
<polygon fill="white" stroke="#bfbfbf" points="142.5,-67.5 142.5,-86.5 259.5,-86.5 259.5,-67.5 142.5,-67.5"/>
<text text-anchor="middle" x="201" y="-74.5" font-family="Helvetica,sans-Serif" font-size="10.00">boost/noncopyable.hpp</text>
</g>
<!-- Node1&#45;&gt;Node9 -->
<g id="edge8" class="edge"><title>Node1&#45;&gt;Node9</title>
<path fill="none" stroke="midnightblue" d="M908.151,-366.302C761.242,-362.003 38,-336.256 38,-246 38,-246 38,-246 38,-188 38,-132.745 103.152,-103.389 151.075,-89.2704"/>
<polygon fill="midnightblue" stroke="midnightblue" points="152.026,-92.6388 160.708,-86.5657 150.134,-85.8994 152.026,-92.6388"/>
</g>
<!-- Node10 -->
<g id="node10" class="node"><title>Node10</title>
<g id="a_node10"><a xlink:href="ccf__group_8h.xhtml" target="_top" xlink:title="Functional containers for basic events grouped by common cause failure. ">
<polygon fill="white" stroke="black" points="490,-235.5 490,-254.5 558,-254.5 558,-235.5 490,-235.5"/>
<text text-anchor="middle" x="524" y="-242.5" font-family="Helvetica,sans-Serif" font-size="10.00">ccf_group.h</text>
</a>
</g>
</g>
<!-- Node1&#45;&gt;Node10 -->
<g id="edge9" class="edge"><title>Node1&#45;&gt;Node10</title>
<path fill="none" stroke="midnightblue" d="M908.36,-365.174C842.437,-360.194 668.544,-345.183 616,-322 584.441,-308.076 555.017,-280.116 538.3,-262.267"/>
<polygon fill="midnightblue" stroke="midnightblue" points="540.875,-259.896 531.551,-254.864 535.702,-264.612 540.875,-259.896"/>
</g>
<!-- Node12 -->
<g id="node12" class="node"><title>Node12</title>
<g id="a_node12"><a xlink:href="element_8h.xhtml" target="_top" xlink:title="Helper classes, structs, and properties common to all other classes. ">
<polygon fill="white" stroke="black" points="638.5,-67.5 638.5,-86.5 697.5,-86.5 697.5,-67.5 638.5,-67.5"/>
<text text-anchor="middle" x="668" y="-74.5" font-family="Helvetica,sans-Serif" font-size="10.00">element.h</text>
</a>
</g>
</g>
<!-- Node1&#45;&gt;Node12 -->
<g id="edge39" class="edge"><title>Node1&#45;&gt;Node12</title>
<path fill="none" stroke="midnightblue" d="M931.67,-358.433C923.488,-329.733 893.574,-235.599 839,-179 798.467,-136.963 736.72,-106.341 699.57,-90.4294"/>
<polygon fill="midnightblue" stroke="midnightblue" points="700.809,-87.1535 690.233,-86.5184 698.104,-93.61 700.809,-87.1535"/>
</g>
<!-- Node15 -->
<g id="node15" class="node"><title>Node15</title>
<g id="a_node15"><a xlink:href="event_8h.xhtml" target="_top" xlink:title="Contains event classes for fault trees. ">
<polygon fill="white" stroke="black" points="401.5,-179.5 401.5,-198.5 450.5,-198.5 450.5,-179.5 401.5,-179.5"/>
<text text-anchor="middle" x="426" y="-186.5" font-family="Helvetica,sans-Serif" font-size="10.00">event.h</text>
</a>
</g>
</g>
<!-- Node1&#45;&gt;Node15 -->
<g id="edge40" class="edge"><title>Node1&#45;&gt;Node15</title>
<path fill="none" stroke="midnightblue" d="M908.191,-367.501C846.973,-367.915 688.901,-364.423 566,-322 511.53,-303.198 493.156,-298.181 455,-255 443.25,-241.702 435.556,-222.869 431.066,-208.895"/>
<polygon fill="midnightblue" stroke="midnightblue" points="434.315,-207.536 428.136,-198.929 427.599,-209.51 434.315,-207.536"/>
</g>
<!-- Node19 -->
<g id="node19" class="node"><title>Node19</title>
<g id="a_node19"><a xlink:href="fault__tree_8h.xhtml" target="_top" xlink:title="Fault Tree and Component containers. ">
<polygon fill="white" stroke="black" points="625.5,-297 625.5,-316 690.5,-316 690.5,-297 625.5,-297"/>
<text text-anchor="middle" x="658" y="-304" font-family="Helvetica,sans-Serif" font-size="10.00">fault_tree.h</text>
</a>
</g>
</g>
<!-- Node1&#45;&gt;Node19 -->
<g id="edge41" class="edge"><title>Node1&#45;&gt;Node19</title>
<path fill="none" stroke="midnightblue" d="M908.035,-361.402C860.436,-351.141 758.786,-329.227 700.82,-316.731"/>
<polygon fill="midnightblue" stroke="midnightblue" points="701.386,-313.273 690.873,-314.587 699.91,-320.116 701.386,-313.273"/>
</g>
<!-- Node21 -->
<g id="node21" class="node"><title>Node21</title>
<g id="a_node21"><a xlink:href="parameter_8h.xhtml" target="_top" xlink:title="Parameter expressions that act like a shareable variable. ">
<polygon fill="white" stroke="black" points="762,-179.5 762,-198.5 830,-198.5 830,-179.5 762,-179.5"/>
<text text-anchor="middle" x="796" y="-186.5" font-family="Helvetica,sans-Serif" font-size="10.00">parameter.h</text>
</a>
</g>
</g>
<!-- Node1&#45;&gt;Node21 -->
<g id="edge55" class="edge"><title>Node1&#45;&gt;Node21</title>
<path fill="none" stroke="midnightblue" d="M927.344,-358.463C905.902,-330.962 838.351,-244.319 809.393,-207.178"/>
<polygon fill="midnightblue" stroke="midnightblue" points="811.823,-204.603 802.914,-198.868 806.303,-208.907 811.823,-204.603"/>
</g>
<!-- Node10&#45;&gt;Node2 -->
<g id="edge10" class="edge"><title>Node10&#45;&gt;Node2</title>
<path fill="none" stroke="midnightblue" d="M556.502,-235.415C591.641,-225.796 645.036,-210.099 663,-199 708.966,-170.602 750.14,-120.801 769.801,-94.8313"/>
<polygon fill="midnightblue" stroke="midnightblue" points="772.678,-96.8282 775.831,-86.7135 767.059,-92.6541 772.678,-96.8282"/>
</g>
<!-- Node10&#45;&gt;Node3 -->
<g id="edge11" class="edge"><title>Node10&#45;&gt;Node3</title>
<path fill="none" stroke="midnightblue" d="M558.224,-236.596C561.187,-236.028 564.143,-235.487 567,-235 627.103,-224.747 797.943,-244.076 839,-199 880.601,-153.327 862.931,-71.4583 852.115,-34.9496"/>
<polygon fill="midnightblue" stroke="midnightblue" points="855.38,-33.663 849.051,-25.1658 848.699,-35.7548 855.38,-33.663"/>
</g>
<!-- Node10&#45;&gt;Node5 -->
<g id="edge13" class="edge"><title>Node10&#45;&gt;Node5</title>
<path fill="none" stroke="midnightblue" d="M489.88,-243.496C408.076,-240.147 202.421,-218.475 133,-87 120.663,-63.6352 148.35,-42.6622 172.023,-29.7845"/>
<polygon fill="midnightblue" stroke="midnightblue" points="173.843,-32.7842 181.134,-25.0975 170.641,-26.5594 173.843,-32.7842"/>
</g>
<!-- Node10&#45;&gt;Node9 -->
<g id="edge14" class="edge"><title>Node10&#45;&gt;Node9</title>
<path fill="none" stroke="midnightblue" d="M489.571,-239.239C432.526,-229.827 317.25,-204.187 242,-143 226.673,-130.537 215.36,-110.747 208.545,-96.275"/>
<polygon fill="midnightblue" stroke="midnightblue" points="211.628,-94.5903 204.385,-86.8573 205.225,-97.4189 211.628,-94.5903"/>
</g>
<!-- Node11 -->
<g id="node11" class="node"><title>Node11</title>
<polygon fill="white" stroke="#bfbfbf" points="614,-179.5 614,-198.5 654,-198.5 654,-179.5 614,-179.5"/>
<text text-anchor="middle" x="634" y="-186.5" font-family="Helvetica,sans-Serif" font-size="10.00">utility</text>
</g>
<!-- Node10&#45;&gt;Node11 -->
<g id="edge12" class="edge"><title>Node10&#45;&gt;Node11</title>
<path fill="none" stroke="midnightblue" d="M541.673,-235.324C559.394,-226.625 586.903,-213.12 607.288,-203.113"/>
<polygon fill="midnightblue" stroke="midnightblue" points="608.936,-206.203 616.37,-198.655 605.851,-199.919 608.936,-206.203"/>
</g>
<!-- Node10&#45;&gt;Node12 -->
<g id="edge15" class="edge"><title>Node10&#45;&gt;Node12</title>
<path fill="none" stroke="midnightblue" d="M531.742,-235.075C554.9,-208.38 623.876,-128.865 653.841,-94.3218"/>
<polygon fill="midnightblue" stroke="midnightblue" points="656.658,-96.4155 660.567,-86.5681 651.371,-91.8285 656.658,-96.4155"/>
</g>
<!-- Node10&#45;&gt;Node15 -->
<g id="edge22" class="edge"><title>Node10&#45;&gt;Node15</title>
<path fill="none" stroke="midnightblue" d="M508.255,-235.324C492.681,-226.743 468.623,-213.486 450.541,-203.522"/>
<polygon fill="midnightblue" stroke="midnightblue" points="452.154,-200.415 441.706,-198.655 448.776,-206.546 452.154,-200.415"/>
</g>
<!-- Node18 -->
<g id="node18" class="node"><title>Node18</title>
<g id="a_node18"><a xlink:href="expression_8h.xhtml" target="_top" xlink:title="Provides the base class for all expressions and units for expression values. ">
<polygon fill="white" stroke="black" points="454,-123.5 454,-142.5 526,-142.5 526,-123.5 454,-123.5"/>
<text text-anchor="middle" x="490" y="-130.5" font-family="Helvetica,sans-Serif" font-size="10.00">expression.h</text>
</a>
</g>
</g>
<!-- Node10&#45;&gt;Node18 -->
<g id="edge38" class="edge"><title>Node10&#45;&gt;Node18</title>
<path fill="none" stroke="midnightblue" d="M521.332,-235.368C515.82,-217.537 503.073,-176.295 495.648,-152.272"/>
<polygon fill="midnightblue" stroke="midnightblue" points="498.953,-151.112 492.656,-142.591 492.265,-153.179 498.953,-151.112"/>
</g>
<!-- Node12&#45;&gt;Node3 -->
<g id="edge17" class="edge"><title>Node12&#45;&gt;Node3</title>
<path fill="none" stroke="midnightblue" d="M693.503,-67.4751C725.788,-56.6832 781.334,-38.116 815.733,-26.6174"/>
<polygon fill="midnightblue" stroke="midnightblue" points="816.884,-29.923 825.259,-23.4332 814.665,-23.2841 816.884,-29.923"/>
</g>
<!-- Node12&#45;&gt;Node5 -->
<g id="edge18" class="edge"><title>Node12&#45;&gt;Node5</title>
<path fill="none" stroke="midnightblue" d="M638.433,-72.2329C555.188,-61.6268 319.31,-31.5737 233.079,-20.5871"/>
<polygon fill="midnightblue" stroke="midnightblue" points="233.454,-17.1067 223.092,-19.3147 232.569,-24.0506 233.454,-17.1067"/>
</g>
<!-- Node12&#45;&gt;Node6 -->
<g id="edge19" class="edge"><title>Node12&#45;&gt;Node6</title>
<path fill="none" stroke="midnightblue" d="M697.636,-70.0225C747.462,-59.9729 848.635,-39.5668 910.653,-27.0582"/>
<polygon fill="midnightblue" stroke="midnightblue" points="911.52,-30.4538 920.631,-25.0457 910.136,-23.592 911.52,-30.4538"/>
</g>
<!-- Node12&#45;&gt;Node8 -->
<g id="edge20" class="edge"><title>Node12&#45;&gt;Node8</title>
<path fill="none" stroke="midnightblue" d="M697.648,-72.5701C784.376,-62.5284 1032.6,-33.7256 1050,-31 1050.1,-30.9842 1050.2,-30.9683 1050.3,-30.9524"/>
<polygon fill="midnightblue" stroke="midnightblue" points="1050.58,-34.4542 1059.88,-29.375 1049.44,-27.5473 1050.58,-34.4542"/>
</g>
<!-- Node13 -->
<g id="node13" class="node"><title>Node13</title>
<polygon fill="white" stroke="#bfbfbf" points="533,-6 533,-25 579,-25 579,-6 533,-6"/>
<text text-anchor="middle" x="556" y="-13" font-family="Helvetica,sans-Serif" font-size="10.00">cstdint</text>
</g>
<!-- Node12&#45;&gt;Node13 -->
<g id="edge16" class="edge"><title>Node12&#45;&gt;Node13</title>
<path fill="none" stroke="midnightblue" d="M651.953,-67.4751C633.407,-57.6222 602.66,-41.2883 580.978,-29.7697"/>
<polygon fill="midnightblue" stroke="midnightblue" points="582.49,-26.6098 572.017,-25.0091 579.206,-32.7916 582.49,-26.6098"/>
</g>
<!-- Node14 -->
<g id="node14" class="node"><title>Node14</title>
<polygon fill="white" stroke="#bfbfbf" points="609,-0.5 609,-30.5 727,-30.5 727,-0.5 609,-0.5"/>
<text text-anchor="start" x="617" y="-18.5" font-family="Helvetica,sans-Serif" font-size="10.00">boost/multi_index/mem</text>
<text text-anchor="middle" x="668" y="-7.5" font-family="Helvetica,sans-Serif" font-size="10.00">_fun.hpp</text>
</g>
<!-- Node12&#45;&gt;Node14 -->
<g id="edge21" class="edge"><title>Node12&#45;&gt;Node14</title>
<path fill="none" stroke="midnightblue" d="M668,-67.4751C668,-60.471 668,-50.1919 668,-40.6956"/>
<polygon fill="midnightblue" stroke="midnightblue" points="671.5,-40.5229 668,-30.523 664.5,-40.523 671.5,-40.5229"/>
</g>
<!-- Node15&#45;&gt;Node2 -->
<g id="edge24" class="edge"><title>Node15&#45;&gt;Node2</title>
<path fill="none" stroke="midnightblue" d="M450.751,-180.352C512.646,-161.227 674.339,-111.266 746.424,-88.9927"/>
<polygon fill="midnightblue" stroke="midnightblue" points="747.46,-92.3359 755.981,-86.0396 745.393,-85.6479 747.46,-92.3359"/>
</g>
<!-- Node15&#45;&gt;Node3 -->
<g id="edge25" class="edge"><title>Node15&#45;&gt;Node3</title>
<path fill="none" stroke="midnightblue" d="M426.054,-179.117C426.628,-165.231 429.788,-138.381 445,-123 497.824,-69.5884 730.769,-32.5136 815.257,-20.611"/>
<polygon fill="midnightblue" stroke="midnightblue" points="815.833,-24.0646 825.257,-19.2226 814.87,-17.1312 815.833,-24.0646"/>
</g>
<!-- Node15&#45;&gt;Node5 -->
<g id="edge26" class="edge"><title>Node15&#45;&gt;Node5</title>
<path fill="none" stroke="midnightblue" d="M401.232,-179.482C381.284,-171.87 353.176,-159.39 332,-143 297.079,-115.971 300.057,-97.3707 268,-67 253.775,-53.5228 235.997,-40.2642 222.33,-30.7164"/>
<polygon fill="midnightblue" stroke="midnightblue" points="224.246,-27.7865 214.021,-25.013 220.285,-33.5578 224.246,-27.7865"/>
</g>
<!-- Node15&#45;&gt;Node9 -->
<g id="edge27" class="edge"><title>Node15&#45;&gt;Node9</title>
<path fill="none" stroke="midnightblue" d="M401.277,-184.127C370.078,-178.487 315.487,-166.079 274,-143 251.191,-130.311 229.438,-109.405 215.706,-94.737"/>
<polygon fill="midnightblue" stroke="midnightblue" points="217.92,-91.9698 208.6,-86.9306 212.743,-96.6818 217.92,-91.9698"/>
</g>
<!-- Node15&#45;&gt;Node12 -->
<g id="edge28" class="edge"><title>Node15&#45;&gt;Node12</title>
<path fill="none" stroke="midnightblue" d="M447.887,-179.435C470.02,-170.664 505.131,-156.448 535,-143 572.777,-125.991 615.715,-104.629 642.335,-91.141"/>
<polygon fill="midnightblue" stroke="midnightblue" points="644.036,-94.2025 651.364,-86.5505 640.864,-87.9626 644.036,-94.2025"/>
</g>
<!-- Node15&#45;&gt;Node13 -->
<g id="edge23" class="edge"><title>Node15&#45;&gt;Node13</title>
<path fill="none" stroke="midnightblue" d="M401.362,-181.687C382.26,-175.354 357.074,-163.52 345,-143 327.87,-113.888 324.079,-93.5189 345,-67 366.762,-39.4149 468.866,-25.2155 522.654,-19.5421"/>
<polygon fill="midnightblue" stroke="midnightblue" points="523.134,-23.0115 532.729,-18.5197 522.427,-16.0473 523.134,-23.0115"/>
</g>
<!-- Node16 -->
<g id="node16" class="node"><title>Node16</title>
<g id="a_node16"><a xlink:href="error_8h.xhtml" target="_top" xlink:title="Exceptions for SCRAM. ">
<polygon fill="white" stroke="black" points="354,-123.5 354,-142.5 398,-142.5 398,-123.5 354,-123.5"/>
<text text-anchor="middle" x="376" y="-130.5" font-family="Helvetica,sans-Serif" font-size="10.00">error.h</text>
</a>
</g>
</g>
<!-- Node15&#45;&gt;Node16 -->
<g id="edge29" class="edge"><title>Node15&#45;&gt;Node16</title>
<path fill="none" stroke="midnightblue" d="M417.744,-179.083C410.535,-171.298 399.89,-159.801 391.154,-150.367"/>
<polygon fill="midnightblue" stroke="midnightblue" points="393.465,-147.711 384.103,-142.751 388.329,-152.467 393.465,-147.711"/>
</g>
<!-- Node15&#45;&gt;Node18 -->
<g id="edge32" class="edge"><title>Node15&#45;&gt;Node18</title>
<path fill="none" stroke="midnightblue" d="M436.283,-179.324C445.836,-171.263 460.28,-159.077 471.784,-149.369"/>
<polygon fill="midnightblue" stroke="midnightblue" points="474.144,-151.958 479.53,-142.834 469.63,-146.608 474.144,-151.958"/>
</g>
<!-- Node16&#45;&gt;Node3 -->
<g id="edge31" class="edge"><title>Node16&#45;&gt;Node3</title>
<path fill="none" stroke="midnightblue" d="M385.036,-123.052C400.274,-108.563 432.692,-80.2575 466,-67 467.02,-66.594 724.912,-32.4973 815.211,-20.5668"/>
<polygon fill="midnightblue" stroke="midnightblue" points="815.908,-24.0052 825.364,-19.2255 814.991,-17.0655 815.908,-24.0052"/>
</g>
<!-- Node17 -->
<g id="node17" class="node"><title>Node17</title>
<polygon fill="white" stroke="#bfbfbf" points="354.5,-67.5 354.5,-86.5 413.5,-86.5 413.5,-67.5 354.5,-67.5"/>
<text text-anchor="middle" x="384" y="-74.5" font-family="Helvetica,sans-Serif" font-size="10.00">exception</text>
</g>
<!-- Node16&#45;&gt;Node17 -->
<g id="edge30" class="edge"><title>Node16&#45;&gt;Node17</title>
<path fill="none" stroke="midnightblue" d="M377.321,-123.083C378.381,-115.927 379.906,-105.635 381.231,-96.6911"/>
<polygon fill="midnightblue" stroke="midnightblue" points="384.7,-97.1561 382.704,-86.7511 377.776,-96.1302 384.7,-97.1561"/>
</g>
<!-- Node18&#45;&gt;Node2 -->
<g id="edge34" class="edge"><title>Node18&#45;&gt;Node2</title>
<path fill="none" stroke="midnightblue" d="M526.098,-125.324C582.264,-114.938 689.935,-95.0256 746.026,-84.6528"/>
<polygon fill="midnightblue" stroke="midnightblue" points="746.678,-88.0916 755.875,-82.8314 745.405,-81.2083 746.678,-88.0916"/>
</g>
<!-- Node18&#45;&gt;Node5 -->
<g id="edge35" class="edge"><title>Node18&#45;&gt;Node5</title>
<path fill="none" stroke="midnightblue" d="M483.528,-123.307C472.525,-109.186 448.748,-81.3963 422,-67 360.398,-33.8453 277.797,-22.3854 233.055,-18.4773"/>
<polygon fill="midnightblue" stroke="midnightblue" points="233.303,-14.986 223.055,-17.6757 232.743,-21.9637 233.303,-14.986"/>
</g>
<!-- Node18&#45;&gt;Node9 -->
<g id="edge36" class="edge"><title>Node18&#45;&gt;Node9</title>
<path fill="none" stroke="midnightblue" d="M453.982,-125.27C404.451,-116.015 314.845,-99.2721 256.654,-88.399"/>
<polygon fill="midnightblue" stroke="midnightblue" points="257,-84.9032 246.528,-86.5069 255.715,-91.7842 257,-84.9032"/>
</g>
<!-- Node18&#45;&gt;Node12 -->
<g id="edge37" class="edge"><title>Node18&#45;&gt;Node12</title>
<path fill="none" stroke="midnightblue" d="M518.205,-123.444C548.41,-114.28 596.511,-99.6876 630.029,-89.5192"/>
<polygon fill="midnightblue" stroke="midnightblue" points="631.374,-92.7688 639.927,-86.5164 629.342,-86.0703 631.374,-92.7688"/>
</g>
<!-- Node18&#45;&gt;Node13 -->
<g id="edge33" class="edge"><title>Node18&#45;&gt;Node13</title>
<path fill="none" stroke="midnightblue" d="M500.299,-123.312C509.713,-114.884 523.436,-101.303 532,-87 541.739,-70.7352 548.195,-49.9745 551.934,-35.2037"/>
<polygon fill="midnightblue" stroke="midnightblue" points="555.393,-35.785 554.273,-25.2495 548.578,-34.1838 555.393,-35.785"/>
</g>
<!-- Node19&#45;&gt;Node2 -->
<g id="edge42" class="edge"><title>Node19&#45;&gt;Node2</title>
<path fill="none" stroke="midnightblue" d="M690.654,-297.122C733.554,-284.161 807.167,-254.717 839,-199 859.803,-162.59 822.893,-117.337 799.341,-93.8357"/>
<polygon fill="midnightblue" stroke="midnightblue" points="801.602,-91.1541 791.969,-86.7436 796.749,-96.1988 801.602,-91.1541"/>
</g>
<!-- Node19&#45;&gt;Node3 -->
<g id="edge43" class="edge"><title>Node19&#45;&gt;Node3</title>
<path fill="none" stroke="midnightblue" d="M690.633,-300.142C723.461,-293.582 774.463,-280.107 812,-255 839.247,-236.775 843.773,-227.482 860,-199 889.254,-147.653 893.169,-123.547 876,-67 872.356,-54.9978 865.288,-42.8711 858.928,-33.5101"/>
<polygon fill="midnightblue" stroke="midnightblue" points="861.626,-31.2674 852.956,-25.1782 855.937,-35.3452 861.626,-31.2674"/>
</g>
<!-- Node19&#45;&gt;Node5 -->
<g id="edge45" class="edge"><title>Node19&#45;&gt;Node5</title>
<path fill="none" stroke="midnightblue" d="M625.35,-304.665C537.125,-300.617 291.626,-277.219 158,-143 132.142,-117.027 108.781,-99.3529 126,-67 135.248,-49.6246 153.43,-37.1549 169.575,-28.9537"/>
<polygon fill="midnightblue" stroke="midnightblue" points="171.216,-32.0495 178.763,-24.6134 168.226,-25.7202 171.216,-32.0495"/>
</g>
<!-- Node19&#45;&gt;Node9 -->
<g id="edge46" class="edge"><title>Node19&#45;&gt;Node9</title>
<path fill="none" stroke="midnightblue" d="M625.482,-300.354C560.187,-289.087 409.744,-258.372 297,-199 259.559,-179.283 244.352,-177.606 220,-143 210.38,-129.329 205.585,-110.792 203.223,-97.0122"/>
<polygon fill="midnightblue" stroke="midnightblue" points="206.638,-96.1712 201.758,-86.7671 199.709,-97.1618 206.638,-96.1712"/>
</g>
<!-- Node19&#45;&gt;Node10 -->
<g id="edge47" class="edge"><title>Node19&#45;&gt;Node10</title>
<path fill="none" stroke="midnightblue" d="M638.801,-296.975C616.213,-286.945 578.501,-270.2 552.499,-258.655"/>
<polygon fill="midnightblue" stroke="midnightblue" points="553.723,-255.369 543.163,-254.509 550.882,-261.766 553.723,-255.369"/>
</g>
<!-- Node19&#45;&gt;Node12 -->
<g id="edge48" class="edge"><title>Node19&#45;&gt;Node12</title>
<path fill="none" stroke="midnightblue" d="M659.034,-296.937C660.201,-286.904 662.061,-269.771 663,-255 666.647,-197.62 667.634,-129.606 667.901,-97.1243"/>
<polygon fill="midnightblue" stroke="midnightblue" points="671.403,-96.8738 667.97,-86.8503 664.403,-96.8264 671.403,-96.8738"/>
</g>
<!-- Node19&#45;&gt;Node15 -->
<g id="edge49" class="edge"><title>Node19&#45;&gt;Node15</title>
<path fill="none" stroke="midnightblue" d="M625.288,-301.975C587.867,-296.69 525.969,-284.03 481,-255 462.051,-242.767 446.152,-222.027 436.398,-207.265"/>
<polygon fill="midnightblue" stroke="midnightblue" points="439.208,-205.16 430.906,-198.577 433.292,-208.9 439.208,-205.16"/>
</g>
<!-- Node20 -->
<g id="node20" class="node"><title>Node20</title>
<polygon fill="white" stroke="#bfbfbf" points="576,-235.5 576,-254.5 654,-254.5 654,-235.5 576,-235.5"/>
<text text-anchor="middle" x="615" y="-242.5" font-family="Helvetica,sans-Serif" font-size="10.00">unordered_set</text>
</g>
<!-- Node19&#45;&gt;Node20 -->
<g id="edge44" class="edge"><title>Node19&#45;&gt;Node20</title>
<path fill="none" stroke="midnightblue" d="M651.839,-296.975C645.389,-288.05 635.096,-273.807 627.027,-262.643"/>
<polygon fill="midnightblue" stroke="midnightblue" points="629.844,-260.564 621.149,-254.509 624.17,-264.664 629.844,-260.564"/>
</g>
<!-- Node19&#45;&gt;Node21 -->
<g id="edge50" class="edge"><title>Node19&#45;&gt;Node21</title>
<path fill="none" stroke="midnightblue" d="M668.372,-296.819C691.649,-277.337 748.298,-229.925 777.666,-205.345"/>
<polygon fill="midnightblue" stroke="midnightblue" points="780.085,-207.884 785.507,-198.782 775.592,-202.516 780.085,-207.884"/>
</g>
<!-- Node21&#45;&gt;Node2 -->
<g id="edge51" class="edge"><title>Node21&#45;&gt;Node2</title>
<path fill="none" stroke="midnightblue" d="M794.901,-179.368C792.642,-161.617 787.43,-120.666 784.367,-96.5974"/>
<polygon fill="midnightblue" stroke="midnightblue" points="787.828,-96.0695 783.093,-86.5914 780.884,-96.9533 787.828,-96.0695"/>
</g>
<!-- Node21&#45;&gt;Node3 -->
<g id="edge52" class="edge"><title>Node21&#45;&gt;Node3</title>
<path fill="none" stroke="midnightblue" d="M798.548,-179.26C806.339,-152.536 829.96,-71.5174 840.647,-34.8618"/>
<polygon fill="midnightblue" stroke="midnightblue" points="844.077,-35.5993 843.516,-25.0194 837.357,-33.64 844.077,-35.5993"/>
</g>
<!-- Node21&#45;&gt;Node12 -->
<g id="edge53" class="edge"><title>Node21&#45;&gt;Node12</title>
<path fill="none" stroke="midnightblue" d="M785.956,-179.368C764.272,-160.733 712.838,-116.532 685.61,-93.1338"/>
<polygon fill="midnightblue" stroke="midnightblue" points="687.863,-90.4546 677.997,-86.5914 683.3,-95.7636 687.863,-90.4546"/>
</g>
<!-- Node21&#45;&gt;Node18 -->
<g id="edge54" class="edge"><title>Node21&#45;&gt;Node18</title>
<path fill="none" stroke="midnightblue" d="M761.789,-181.963C706.685,-172.238 598.2,-153.094 536.252,-142.162"/>
<polygon fill="midnightblue" stroke="midnightblue" points="536.813,-138.707 526.356,-140.416 535.596,-145.601 536.813,-138.707"/>
</g>
</g>
</svg>
