<?xml version="1.0" encoding="UTF-8" standalone="no"?>
<!DOCTYPE svg PUBLIC "-//W3C//DTD SVG 1.1//EN"
 "http://www.w3.org/Graphics/SVG/1.1/DTD/svg11.dtd">
<!-- Generated by graphviz version 2.38.0 (20140413.2041)
 -->
<!-- Title: parameter.h Pages: 1 -->
<svg width="634pt" height="308pt"
 viewBox="0.00 0.00 633.50 308.00" xmlns="http://www.w3.org/2000/svg" xmlns:xlink="http://www.w3.org/1999/xlink">
<g id="graph0" class="graph" transform="scale(1 1) rotate(0) translate(4 304)">
<title>parameter.h</title>
<polygon fill="white" stroke="none" points="-4,4 -4,-304 629.5,-304 629.5,4 -4,4"/>
<!-- Node1 -->
<g id="node1" class="node"><title>Node1</title>
<polygon fill="#bfbfbf" stroke="black" points="277.5,-280.5 277.5,-299.5 345.5,-299.5 345.5,-280.5 277.5,-280.5"/>
<text text-anchor="middle" x="311.5" y="-287.5" font-family="Helvetica,sans-Serif" font-size="10.00">parameter.h</text>
</g>
<!-- Node2 -->
<g id="node2" class="node"><title>Node2</title>
<g id="a_node2"><a xlink:href="cycle_8h.xhtml" target="_top" xlink:title="Validation facilities to detect and print cycles in graphs. ">
<polygon fill="white" stroke="black" points="43.5,-224.5 43.5,-243.5 91.5,-243.5 91.5,-224.5 43.5,-224.5"/>
<text text-anchor="middle" x="67.5" y="-231.5" font-family="Helvetica,sans-Serif" font-size="10.00">cycle.h</text>
</a>
</g>
</g>
<!-- Node1&#45;&gt;Node2 -->
<g id="edge1" class="edge"><title>Node1&#45;&gt;Node2</title>
<path fill="none" stroke="midnightblue" d="M267.349,-279.589C225.603,-270.635 161.228,-256.685 105.5,-244 101.005,-242.977 96.2165,-241.862 91.608,-240.777"/>
<polygon fill="midnightblue" stroke="midnightblue" points="266.685,-283.026 277.197,-281.698 268.152,-276.181 266.685,-283.026"/>
</g>
<!-- Node5 -->
<g id="node5" class="node"><title>Node5</title>
<g id="a_node5"><a xlink:href="fault__tree_8h.xhtml" target="_top" xlink:title="Fault Tree and Component containers. ">
<polygon fill="white" stroke="black" points="249,-224.5 249,-243.5 314,-243.5 314,-224.5 249,-224.5"/>
<text text-anchor="middle" x="281.5" y="-231.5" font-family="Helvetica,sans-Serif" font-size="10.00">fault_tree.h</text>
</a>
</g>
</g>
<!-- Node1&#45;&gt;Node5 -->
<g id="edge4" class="edge"><title>Node1&#45;&gt;Node5</title>
<path fill="none" stroke="midnightblue" d="M301.653,-271.275C296.525,-262.045 290.484,-251.17 286.362,-243.751"/>
<polygon fill="midnightblue" stroke="midnightblue" points="298.63,-273.041 306.546,-280.083 304.749,-269.642 298.63,-273.041"/>
</g>
<!-- Node7 -->
<g id="node7" class="node"><title>Node7</title>
<g id="a_node7"><a xlink:href="initializer_8h.xhtml" target="_top" xlink:title="A facility that processes input files into analysis constructs. ">
<polygon fill="white" stroke="black" points="174,-112.5 174,-131.5 237,-131.5 237,-112.5 174,-112.5"/>
<text text-anchor="middle" x="205.5" y="-119.5" font-family="Helvetica,sans-Serif" font-size="10.00">initializer.h</text>
</a>
</g>
</g>
<!-- Node1&#45;&gt;Node7 -->
<g id="edge21" class="edge"><title>Node1&#45;&gt;Node7</title>
<path fill="none" stroke="midnightblue" d="M268.575,-277.443C226.979,-263.701 166.234,-236.306 138.5,-188 124.621,-163.826 159.637,-142.794 184.11,-131.594"/>
<polygon fill="midnightblue" stroke="midnightblue" points="267.593,-280.803 278.183,-280.488 269.708,-274.13 267.593,-280.803"/>
</g>
<!-- Node9 -->
<g id="node9" class="node"><title>Node9</title>
<g id="a_node9"><a xlink:href="model_8h.xhtml" target="_top" xlink:title="Representation for a model container for risk analysis. ">
<polygon fill="white" stroke="black" points="317,-168.5 317,-187.5 368,-187.5 368,-168.5 317,-168.5"/>
<text text-anchor="middle" x="342.5" y="-175.5" font-family="Helvetica,sans-Serif" font-size="10.00">model.h</text>
</a>
</g>
</g>
<!-- Node1&#45;&gt;Node9 -->
<g id="edge20" class="edge"><title>Node1&#45;&gt;Node9</title>
<path fill="none" stroke="midnightblue" d="M316.665,-270.674C323.442,-246.625 335.063,-205.388 340.079,-187.591"/>
<polygon fill="midnightblue" stroke="midnightblue" points="313.276,-269.794 313.933,-280.368 320.014,-271.693 313.276,-269.794"/>
</g>
<!-- Node12 -->
<g id="node12" class="node"><title>Node12</title>
<g id="a_node12"><a xlink:href="reporter_8cc.xhtml" target="_top" xlink:title="Implements Reporter class. ">
<polygon fill="white" stroke="black" points="444,-0.5 444,-19.5 507,-19.5 507,-0.5 444,-0.5"/>
<text text-anchor="middle" x="475.5" y="-7.5" font-family="Helvetica,sans-Serif" font-size="10.00">reporter.cc</text>
</a>
</g>
</g>
<!-- Node1&#45;&gt;Node12 -->
<g id="edge23" class="edge"><title>Node1&#45;&gt;Node12</title>
<path fill="none" stroke="midnightblue" d="M355.501,-285.524C417.607,-277.945 523.5,-254.022 523.5,-179 523.5,-179 523.5,-179 523.5,-121 523.5,-80.161 495.363,-37.3767 482.174,-19.565"/>
<polygon fill="midnightblue" stroke="midnightblue" points="355.107,-282.046 345.561,-286.644 355.89,-289.002 355.107,-282.046"/>
</g>
<!-- Node15 -->
<g id="node15" class="node"><title>Node15</title>
<g id="a_node15"><a xlink:href="parameter_8cc.xhtml" target="_top" xlink:title="Implementation of expression parameters. ">
<polygon fill="white" stroke="black" points="551.5,-224.5 551.5,-243.5 625.5,-243.5 625.5,-224.5 551.5,-224.5"/>
<text text-anchor="middle" x="588.5" y="-231.5" font-family="Helvetica,sans-Serif" font-size="10.00">parameter.cc</text>
</a>
</g>
</g>
<!-- Node1&#45;&gt;Node15 -->
<g id="edge22" class="edge"><title>Node1&#45;&gt;Node15</title>
<path fill="none" stroke="midnightblue" d="M355.731,-280.377C409.851,-269.827 500.518,-252.152 551.245,-242.263"/>
<polygon fill="midnightblue" stroke="midnightblue" points="354.889,-276.976 345.743,-282.324 356.228,-283.846 354.889,-276.976"/>
</g>
<!-- Node3 -->
<g id="node3" class="node"><title>Node3</title>
<g id="a_node3"><a xlink:href="cycle_8cc.xhtml" target="_top" xlink:title="Implementation of helper facilities to work with cycles. ">
<polygon fill="white" stroke="black" points="0,-168.5 0,-187.5 53,-187.5 53,-168.5 0,-168.5"/>
<text text-anchor="middle" x="26.5" y="-175.5" font-family="Helvetica,sans-Serif" font-size="10.00">cycle.cc</text>
</a>
</g>
</g>
<!-- Node2&#45;&gt;Node3 -->
<g id="edge2" class="edge"><title>Node2&#45;&gt;Node3</title>
<path fill="none" stroke="midnightblue" d="M54.4828,-215.855C47.3833,-206.505 38.896,-195.327 33.1443,-187.751"/>
<polygon fill="midnightblue" stroke="midnightblue" points="51.895,-218.235 60.7297,-224.083 57.4701,-214.002 51.895,-218.235"/>
</g>
<!-- Node4 -->
<g id="node4" class="node"><title>Node4</title>
<g id="a_node4"><a xlink:href="initializer_8cc.xhtml" target="_top" xlink:title="Implementation of input file processing into analysis constructs. ">
<polygon fill="white" stroke="black" points="80.5,-56.5 80.5,-75.5 148.5,-75.5 148.5,-56.5 80.5,-56.5"/>
<text text-anchor="middle" x="114.5" y="-63.5" font-family="Helvetica,sans-Serif" font-size="10.00">initializer.cc</text>
</a>
</g>
</g>
<!-- Node2&#45;&gt;Node4 -->
<g id="edge3" class="edge"><title>Node2&#45;&gt;Node4</title>
<path fill="none" stroke="midnightblue" d="M72.7677,-214.395C82.9066,-178.585 104.777,-101.342 112.074,-75.5681"/>
<polygon fill="midnightblue" stroke="midnightblue" points="69.3836,-213.5 70.0269,-224.075 76.1189,-215.407 69.3836,-213.5"/>
</g>
<!-- Node6 -->
<g id="node6" class="node"><title>Node6</title>
<g id="a_node6"><a xlink:href="fault__tree_8cc.xhtml" target="_top" xlink:title="Implementation of fault tree and component containers. ">
<polygon fill="white" stroke="black" points="148,-168.5 148,-187.5 219,-187.5 219,-168.5 148,-168.5"/>
<text text-anchor="middle" x="183.5" y="-175.5" font-family="Helvetica,sans-Serif" font-size="10.00">fault_tree.cc</text>
</a>
</g>
</g>
<!-- Node5&#45;&gt;Node6 -->
<g id="edge5" class="edge"><title>Node5&#45;&gt;Node6</title>
<path fill="none" stroke="midnightblue" d="M256.914,-219.453C238.822,-209.483 214.765,-196.228 199.206,-187.655"/>
<polygon fill="midnightblue" stroke="midnightblue" points="255.307,-222.563 265.755,-224.324 258.685,-216.432 255.307,-222.563"/>
</g>
<!-- Node5&#45;&gt;Node7 -->
<g id="edge6" class="edge"><title>Node5&#45;&gt;Node7</title>
<path fill="none" stroke="midnightblue" d="M269.725,-215.957C253.255,-192.118 223.953,-149.709 211.436,-131.591"/>
<polygon fill="midnightblue" stroke="midnightblue" points="266.972,-218.131 275.536,-224.368 272.732,-214.152 266.972,-218.131"/>
</g>
<!-- Node5&#45;&gt;Node9 -->
<g id="edge9" class="edge"><title>Node5&#45;&gt;Node9</title>
<path fill="none" stroke="midnightblue" d="M298.967,-217.537C309.844,-207.909 323.444,-195.869 332.521,-187.834"/>
<polygon fill="midnightblue" stroke="midnightblue" points="296.468,-215.075 291.301,-224.324 301.108,-220.316 296.468,-215.075"/>
</g>
<!-- Node14 -->
<g id="node14" class="node"><title>Node14</title>
<g id="a_node14"><a xlink:href="risk__analysis_8cc.xhtml" target="_top" xlink:title="Implementation of risk analysis handler. ">
<polygon fill="white" stroke="black" points="234,-56.5 234,-75.5 321,-75.5 321,-56.5 234,-56.5"/>
<text text-anchor="middle" x="277.5" y="-63.5" font-family="Helvetica,sans-Serif" font-size="10.00">risk_analysis.cc</text>
</a>
</g>
</g>
<!-- Node5&#45;&gt;Node14 -->
<g id="edge19" class="edge"><title>Node5&#45;&gt;Node14</title>
<path fill="none" stroke="midnightblue" d="M281.04,-213.93C280.173,-177.92 278.325,-101.231 277.706,-75.5681"/>
<polygon fill="midnightblue" stroke="midnightblue" points="277.545,-214.162 281.285,-224.075 284.543,-213.994 277.545,-214.162"/>
</g>
<!-- Node7&#45;&gt;Node4 -->
<g id="edge7" class="edge"><title>Node7&#45;&gt;Node4</title>
<path fill="none" stroke="midnightblue" d="M182.206,-107.177C165.461,-97.2407 143.4,-84.1492 129.084,-75.6545"/>
<polygon fill="midnightblue" stroke="midnightblue" points="180.493,-110.231 190.879,-112.324 184.066,-104.211 180.493,-110.231"/>
</g>
<!-- Node8 -->
<g id="node8" class="node"><title>Node8</title>
<g id="a_node8"><a xlink:href="scram_8cc.xhtml" target="_top" xlink:title="Main entrance. ">
<polygon fill="white" stroke="black" points="321,-0.5 321,-19.5 378,-19.5 378,-0.5 321,-0.5"/>
<text text-anchor="middle" x="349.5" y="-7.5" font-family="Helvetica,sans-Serif" font-size="10.00">scram.cc</text>
</a>
</g>
</g>
<!-- Node7&#45;&gt;Node8 -->
<g id="edge8" class="edge"><title>Node7&#45;&gt;Node8</title>
<path fill="none" stroke="midnightblue" d="M206.524,-101.996C208.264,-87.671 212.805,-68.4335 224.5,-56 249.864,-29.0354 292.557,-18.1937 320.881,-13.8573"/>
<polygon fill="midnightblue" stroke="midnightblue" points="203.016,-101.944 205.646,-112.207 209.99,-102.543 203.016,-101.944"/>
</g>
<!-- Node9&#45;&gt;Node7 -->
<g id="edge10" class="edge"><title>Node9&#45;&gt;Node7</title>
<path fill="none" stroke="midnightblue" d="M311.477,-164.772C285.743,-154.629 249.814,-140.467 227.106,-131.516"/>
<polygon fill="midnightblue" stroke="midnightblue" points="310.205,-168.033 320.792,-168.444 312.772,-161.52 310.205,-168.033"/>
</g>
<!-- Node10 -->
<g id="node10" class="node"><title>Node10</title>
<g id="a_node10"><a xlink:href="model_8cc.xhtml" target="_top" xlink:title="Implementation of functions in Model class. ">
<polygon fill="white" stroke="black" points="439.5,-112.5 439.5,-131.5 495.5,-131.5 495.5,-112.5 439.5,-112.5"/>
<text text-anchor="middle" x="467.5" y="-119.5" font-family="Helvetica,sans-Serif" font-size="10.00">model.cc</text>
</a>
</g>
</g>
<!-- Node9&#45;&gt;Node10 -->
<g id="edge11" class="edge"><title>Node9&#45;&gt;Node10</title>
<path fill="none" stroke="midnightblue" d="M371.741,-164.368C395.15,-154.255 427.341,-140.349 447.786,-131.516"/>
<polygon fill="midnightblue" stroke="midnightblue" points="370.099,-161.265 362.307,-168.444 372.875,-167.691 370.099,-161.265"/>
</g>
<!-- Node11 -->
<g id="node11" class="node"><title>Node11</title>
<g id="a_node11"><a xlink:href="reporter_8h.xhtml" target="_top" xlink:title="Reporter of results. ">
<polygon fill="white" stroke="black" points="380.5,-56.5 380.5,-75.5 438.5,-75.5 438.5,-56.5 380.5,-56.5"/>
<text text-anchor="middle" x="409.5" y="-63.5" font-family="Helvetica,sans-Serif" font-size="10.00">reporter.h</text>
</a>
</g>
</g>
<!-- Node9&#45;&gt;Node11 -->
<g id="edge12" class="edge"><title>Node9&#45;&gt;Node11</title>
<path fill="none" stroke="midnightblue" d="M364.287,-162.042C374.233,-154.173 385.36,-143.727 392.5,-132 403.54,-113.867 407.475,-88.664 408.827,-75.6084"/>
<polygon fill="midnightblue" stroke="midnightblue" points="361.888,-159.466 355.981,-168.261 366.083,-165.07 361.888,-159.466"/>
</g>
<!-- Node13 -->
<g id="node13" class="node"><title>Node13</title>
<g id="a_node13"><a xlink:href="risk__analysis_8h.xhtml" target="_top" xlink:title="Contains the main system for performing analysis. ">
<polygon fill="white" stroke="black" points="301.5,-112.5 301.5,-131.5 383.5,-131.5 383.5,-112.5 301.5,-112.5"/>
<text text-anchor="middle" x="342.5" y="-119.5" font-family="Helvetica,sans-Serif" font-size="10.00">risk_analysis.h</text>
</a>
</g>
</g>
<!-- Node9&#45;&gt;Node13 -->
<g id="edge15" class="edge"><title>Node9&#45;&gt;Node13</title>
<path fill="none" stroke="midnightblue" d="M342.5,-157.805C342.5,-148.91 342.5,-138.78 342.5,-131.751"/>
<polygon fill="midnightblue" stroke="midnightblue" points="339,-158.083 342.5,-168.083 346,-158.083 339,-158.083"/>
</g>
<!-- Node11&#45;&gt;Node8 -->
<g id="edge14" class="edge"><title>Node11&#45;&gt;Node8</title>
<path fill="none" stroke="midnightblue" d="M392.319,-49.5372C381.621,-39.9087 368.244,-27.8694 359.315,-19.8339"/>
<polygon fill="midnightblue" stroke="midnightblue" points="390.086,-52.2358 399.86,-56.324 394.768,-47.0327 390.086,-52.2358"/>
</g>
<!-- Node11&#45;&gt;Node12 -->
<g id="edge13" class="edge"><title>Node11&#45;&gt;Node12</title>
<path fill="none" stroke="midnightblue" d="M428.054,-49.8197C439.878,-40.1452 454.786,-27.9481 464.703,-19.8339"/>
<polygon fill="midnightblue" stroke="midnightblue" points="425.627,-47.2827 420.104,-56.324 430.06,-52.7004 425.627,-47.2827"/>
</g>
<!-- Node13&#45;&gt;Node8 -->
<g id="edge18" class="edge"><title>Node13&#45;&gt;Node8</title>
<path fill="none" stroke="midnightblue" d="M343.687,-102.348C345.22,-78.2538 347.826,-37.3079 348.953,-19.5914"/>
<polygon fill="midnightblue" stroke="midnightblue" points="340.192,-102.166 343.049,-112.368 347.177,-102.611 340.192,-102.166"/>
</g>
<!-- Node13&#45;&gt;Node11 -->
<g id="edge16" class="edge"><title>Node13&#45;&gt;Node11</title>
<path fill="none" stroke="midnightblue" d="M361.335,-105.82C373.338,-96.1452 388.472,-83.9481 398.539,-75.8339"/>
<polygon fill="midnightblue" stroke="midnightblue" points="358.854,-103.324 353.265,-112.324 363.247,-108.774 358.854,-103.324"/>
</g>
<!-- Node13&#45;&gt;Node14 -->
<g id="edge17" class="edge"><title>Node13&#45;&gt;Node14</title>
<path fill="none" stroke="midnightblue" d="M324.227,-105.82C312.582,-96.1452 297.901,-83.9481 288.133,-75.8339"/>
<polygon fill="midnightblue" stroke="midnightblue" points="322.128,-108.626 332.057,-112.324 326.601,-103.242 322.128,-108.626"/>
</g>
</g>
</svg>
