<?xml version="1.0" encoding="UTF-8" standalone="no"?>
<!DOCTYPE svg PUBLIC "-//W3C//DTD SVG 1.1//EN"
 "http://www.w3.org/Graphics/SVG/1.1/DTD/svg11.dtd">
<!-- Generated by graphviz version 2.38.0 (20140413.2041)
 -->
<!-- Title: parameter.h Pages: 1 -->
<svg width="685pt" height="207pt"
 viewBox="0.00 0.00 685.00 207.00" xmlns="http://www.w3.org/2000/svg" xmlns:xlink="http://www.w3.org/1999/xlink">
<g id="graph0" class="graph" transform="scale(1 1) rotate(0) translate(4 203)">
<title>parameter.h</title>
<polygon fill="white" stroke="none" points="-4,4 -4,-203 681,-203 681,4 -4,4"/>
<!-- Node1 -->
<g id="node1" class="node"><title>Node1</title>
<polygon fill="#bfbfbf" stroke="black" points="353.5,-179.5 353.5,-198.5 421.5,-198.5 421.5,-179.5 353.5,-179.5"/>
<text text-anchor="middle" x="387.5" y="-186.5" font-family="Helvetica,sans-Serif" font-size="10.00">parameter.h</text>
</g>
<!-- Node2 -->
<g id="node2" class="node"><title>Node2</title>
<polygon fill="white" stroke="#bfbfbf" points="335.5,-67.5 335.5,-86.5 387.5,-86.5 387.5,-67.5 335.5,-67.5"/>
<text text-anchor="middle" x="361.5" y="-74.5" font-family="Helvetica,sans-Serif" font-size="10.00">memory</text>
</g>
<!-- Node1&#45;&gt;Node2 -->
<g id="edge1" class="edge"><title>Node1&#45;&gt;Node2</title>
<path fill="none" stroke="midnightblue" d="M385.46,-179.368C381.264,-161.617 371.585,-120.666 365.896,-96.5974"/>
<polygon fill="midnightblue" stroke="midnightblue" points="369.237,-95.5182 363.531,-86.5914 362.425,-97.1284 369.237,-95.5182"/>
</g>
<!-- Node3 -->
<g id="node3" class="node"><title>Node3</title>
<polygon fill="white" stroke="#bfbfbf" points="0,-6 0,-25 41,-25 41,-6 0,-6"/>
<text text-anchor="middle" x="20.5" y="-13" font-family="Helvetica,sans-Serif" font-size="10.00">string</text>
</g>
<!-- Node1&#45;&gt;Node3 -->
<g id="edge2" class="edge"><title>Node1&#45;&gt;Node3</title>
<path fill="none" stroke="midnightblue" d="M368.824,-179.413C317.75,-155.904 171.496,-88.4216 50.5,-31 49.507,-30.5288 48.4962,-30.0476 47.4756,-29.5606"/>
<polygon fill="midnightblue" stroke="midnightblue" points="48.7765,-26.3027 38.2469,-25.1293 45.7465,-32.613 48.7765,-26.3027"/>
</g>
<!-- Node4 -->
<g id="node4" class="node"><title>Node4</title>
<g id="a_node4"><a xlink:href="element_8h.xhtml" target="_top" xlink:title="Helper classes, structs, and properties common to all other classes. ">
<polygon fill="white" stroke="black" points="406,-67.5 406,-86.5 465,-86.5 465,-67.5 406,-67.5"/>
<text text-anchor="middle" x="435.5" y="-74.5" font-family="Helvetica,sans-Serif" font-size="10.00">element.h</text>
</a>
</g>
</g>
<!-- Node1&#45;&gt;Node4 -->
<g id="edge3" class="edge"><title>Node1&#45;&gt;Node4</title>
<path fill="none" stroke="midnightblue" d="M391.266,-179.368C399.083,-161.456 417.206,-119.923 427.668,-95.9482"/>
<polygon fill="midnightblue" stroke="midnightblue" points="430.959,-97.1566 431.751,-86.5914 424.544,-94.357 430.959,-97.1566"/>
</g>
<!-- Node10 -->
<g id="node10" class="node"><title>Node10</title>
<g id="a_node10"><a xlink:href="expression_8h.xhtml" target="_top" xlink:title="Provides the base class for all expressions and units for expression values. ">
<polygon fill="white" stroke="black" points="453.5,-123.5 453.5,-142.5 525.5,-142.5 525.5,-123.5 453.5,-123.5"/>
<text text-anchor="middle" x="489.5" y="-130.5" font-family="Helvetica,sans-Serif" font-size="10.00">expression.h</text>
</a>
</g>
</g>
<!-- Node1&#45;&gt;Node10 -->
<g id="edge10" class="edge"><title>Node1&#45;&gt;Node10</title>
<path fill="none" stroke="midnightblue" d="M403.888,-179.324C420.171,-170.703 445.367,-157.364 464.216,-147.386"/>
<polygon fill="midnightblue" stroke="midnightblue" points="465.952,-150.427 473.153,-142.655 462.677,-144.24 465.952,-150.427"/>
</g>
<!-- Node4&#45;&gt;Node3 -->
<g id="edge5" class="edge"><title>Node4&#45;&gt;Node3</title>
<path fill="none" stroke="midnightblue" d="M405.765,-68.7409C402.647,-68.0988 399.516,-67.5029 396.5,-67 243.998,-41.5693 199.216,-73.2733 50.5,-31 48.622,-30.4662 46.7178,-29.8211 44.8269,-29.1034"/>
<polygon fill="midnightblue" stroke="midnightblue" points="46.2303,-25.8971 35.6664,-25.088 43.42,-32.3082 46.2303,-25.8971"/>
</g>
<!-- Node5 -->
<g id="node5" class="node"><title>Node5</title>
<polygon fill="white" stroke="#bfbfbf" points="517.5,-6 517.5,-25 563.5,-25 563.5,-6 517.5,-6"/>
<text text-anchor="middle" x="540.5" y="-13" font-family="Helvetica,sans-Serif" font-size="10.00">cstdint</text>
</g>
<!-- Node4&#45;&gt;Node5 -->
<g id="edge4" class="edge"><title>Node4&#45;&gt;Node5</title>
<path fill="none" stroke="midnightblue" d="M450.544,-67.4751C467.775,-57.7106 496.24,-41.5807 516.534,-30.0808"/>
<polygon fill="midnightblue" stroke="midnightblue" points="518.509,-32.9843 525.484,-25.0091 515.058,-26.8942 518.509,-32.9843"/>
</g>
<!-- Node6 -->
<g id="node6" class="node"><title>Node6</title>
<polygon fill="white" stroke="#bfbfbf" points="581.5,-6 581.5,-25 625.5,-25 625.5,-6 581.5,-6"/>
<text text-anchor="middle" x="603.5" y="-13" font-family="Helvetica,sans-Serif" font-size="10.00">vector</text>
</g>
<!-- Node4&#45;&gt;Node6 -->
<g id="edge6" class="edge"><title>Node4&#45;&gt;Node6</title>
<path fill="none" stroke="midnightblue" d="M464.994,-67.4343C492.988,-59.0418 536.078,-45.4393 572.5,-31 573.915,-30.4389 575.358,-29.8448 576.808,-29.23"/>
<polygon fill="midnightblue" stroke="midnightblue" points="578.576,-32.2737 586.281,-25.0014 575.723,-25.8816 578.576,-32.2737"/>
</g>
<!-- Node7 -->
<g id="node7" class="node"><title>Node7</title>
<polygon fill="white" stroke="#bfbfbf" points="196,-6 196,-25 353,-25 353,-6 196,-6"/>
<text text-anchor="middle" x="274.5" y="-13" font-family="Helvetica,sans-Serif" font-size="10.00">boost/multi_index_container.hpp</text>
</g>
<!-- Node4&#45;&gt;Node7 -->
<g id="edge7" class="edge"><title>Node4&#45;&gt;Node7</title>
<path fill="none" stroke="midnightblue" d="M412.433,-67.4751C384.815,-57.2687 338.38,-40.108 307.104,-28.5492"/>
<polygon fill="midnightblue" stroke="midnightblue" points="308.118,-25.1927 297.525,-25.0091 305.691,-31.7586 308.118,-25.1927"/>
</g>
<!-- Node8 -->
<g id="node8" class="node"><title>Node8</title>
<polygon fill="white" stroke="#bfbfbf" points="371.5,-0.5 371.5,-30.5 499.5,-30.5 499.5,-0.5 371.5,-0.5"/>
<text text-anchor="start" x="379.5" y="-18.5" font-family="Helvetica,sans-Serif" font-size="10.00">boost/multi_index/hashed</text>
<text text-anchor="middle" x="435.5" y="-7.5" font-family="Helvetica,sans-Serif" font-size="10.00">_index.hpp</text>
</g>
<!-- Node4&#45;&gt;Node8 -->
<g id="edge8" class="edge"><title>Node4&#45;&gt;Node8</title>
<path fill="none" stroke="midnightblue" d="M435.5,-67.4751C435.5,-60.471 435.5,-50.1919 435.5,-40.6956"/>
<polygon fill="midnightblue" stroke="midnightblue" points="439,-40.5229 435.5,-30.523 432,-40.523 439,-40.5229"/>
</g>
<!-- Node9 -->
<g id="node9" class="node"><title>Node9</title>
<polygon fill="white" stroke="#bfbfbf" points="59.5,-0.5 59.5,-30.5 177.5,-30.5 177.5,-0.5 59.5,-0.5"/>
<text text-anchor="start" x="67.5" y="-18.5" font-family="Helvetica,sans-Serif" font-size="10.00">boost/multi_index/mem</text>
<text text-anchor="middle" x="118.5" y="-7.5" font-family="Helvetica,sans-Serif" font-size="10.00">_fun.hpp</text>
</g>
<!-- Node4&#45;&gt;Node9 -->
<g id="edge9" class="edge"><title>Node4&#45;&gt;Node9</title>
<path fill="none" stroke="midnightblue" d="M405.727,-68.9454C402.617,-68.2634 399.498,-67.6023 396.5,-67 306.743,-48.9653 281.173,-48.8636 187.687,-31.1796"/>
<polygon fill="midnightblue" stroke="midnightblue" points="188.289,-27.7313 177.81,-29.294 186.976,-34.6071 188.289,-27.7313"/>
</g>
<!-- Node10&#45;&gt;Node2 -->
<g id="edge12" class="edge"><title>Node10&#45;&gt;Node2</title>
<path fill="none" stroke="midnightblue" d="M469.218,-123.444C448.153,-114.557 414.983,-100.563 391.014,-90.4514"/>
<polygon fill="midnightblue" stroke="midnightblue" points="392.261,-87.1787 381.687,-86.5164 389.54,-93.6283 392.261,-87.1787"/>
</g>
<!-- Node10&#45;&gt;Node4 -->
<g id="edge15" class="edge"><title>Node10&#45;&gt;Node4</title>
<path fill="none" stroke="midnightblue" d="M480.583,-123.083C472.72,-115.22 461.069,-103.569 451.581,-94.0813"/>
<polygon fill="midnightblue" stroke="midnightblue" points="453.797,-91.3473 444.251,-86.7511 448.847,-96.2971 453.797,-91.3473"/>
</g>
<!-- Node10&#45;&gt;Node5 -->
<g id="edge11" class="edge"><title>Node10&#45;&gt;Node5</title>
<path fill="none" stroke="midnightblue" d="M493.247,-123.143C498.564,-110.61 508.641,-86.9965 517.5,-67 522.315,-56.133 527.831,-44.0113 532.254,-34.3681"/>
<polygon fill="midnightblue" stroke="midnightblue" points="535.539,-35.6012 536.539,-25.0537 529.18,-32.6753 535.539,-35.6012"/>
</g>
<!-- Node10&#45;&gt;Node6 -->
<g id="edge13" class="edge"><title>Node10&#45;&gt;Node6</title>
<path fill="none" stroke="midnightblue" d="M497.248,-123.443C508.692,-110.875 530.877,-86.772 550.5,-67 562.343,-55.0669 576.098,-41.9823 586.627,-32.1225"/>
<polygon fill="midnightblue" stroke="midnightblue" points="589.036,-34.6621 593.965,-25.2837 584.263,-29.5414 589.036,-34.6621"/>
</g>
<!-- Node11 -->
<g id="node11" class="node"><title>Node11</title>
<polygon fill="white" stroke="#bfbfbf" points="560,-67.5 560,-86.5 677,-86.5 677,-67.5 560,-67.5"/>
<text text-anchor="middle" x="618.5" y="-74.5" font-family="Helvetica,sans-Serif" font-size="10.00">boost/noncopyable.hpp</text>
</g>
<!-- Node10&#45;&gt;Node11 -->
<g id="edge14" class="edge"><title>Node10&#45;&gt;Node11</title>
<path fill="none" stroke="midnightblue" d="M509.94,-123.444C531.17,-114.557 564.599,-100.563 588.755,-90.4514"/>
<polygon fill="midnightblue" stroke="midnightblue" points="590.282,-93.6064 598.155,-86.5164 587.579,-87.1493 590.282,-93.6064"/>
</g>
</g>
</svg>
