<?xml version="1.0" encoding="UTF-8" standalone="no"?>
<!DOCTYPE svg PUBLIC "-//W3C//DTD SVG 1.1//EN"
 "http://www.w3.org/Graphics/SVG/1.1/DTD/svg11.dtd">
<!-- Generated by graphviz version 2.38.0 (20140413.2041)
 -->
<!-- Title: parameter.cc Pages: 1 -->
<svg width="675pt" height="263pt"
 viewBox="0.00 0.00 674.50 263.00" xmlns="http://www.w3.org/2000/svg" xmlns:xlink="http://www.w3.org/1999/xlink">
<g id="graph0" class="graph" transform="scale(1 1) rotate(0) translate(4 259)">
<title>parameter.cc</title>
<polygon fill="white" stroke="none" points="-4,4 -4,-259 670.5,-259 670.5,4 -4,4"/>
<!-- Node1 -->
<g id="node1" class="node"><title>Node1</title>
<polygon fill="#bfbfbf" stroke="black" points="379,-235.5 379,-254.5 453,-254.5 453,-235.5 379,-235.5"/>
<text text-anchor="middle" x="416" y="-242.5" font-family="Helvetica,sans-Serif" font-size="10.00">parameter.cc</text>
</g>
<!-- Node2 -->
<g id="node2" class="node"><title>Node2</title>
<g id="a_node2"><a xlink:href="parameter_8h.xhtml" target="_top" xlink:title="Parameter expressions that act like a shareable variable. ">
<polygon fill="white" stroke="black" points="277,-179.5 277,-198.5 345,-198.5 345,-179.5 277,-179.5"/>
<text text-anchor="middle" x="311" y="-186.5" font-family="Helvetica,sans-Serif" font-size="10.00">parameter.h</text>
</a>
</g>
</g>
<!-- Node1&#45;&gt;Node2 -->
<g id="edge1" class="edge"><title>Node1&#45;&gt;Node2</title>
<path fill="none" stroke="midnightblue" d="M399.13,-235.324C382.291,-226.664 356.193,-213.242 336.762,-203.249"/>
<polygon fill="midnightblue" stroke="midnightblue" points="338.322,-200.116 327.828,-198.655 335.12,-206.341 338.322,-200.116"/>
</g>
<!-- Node13 -->
<g id="node13" class="node"><title>Node13</title>
<g id="a_node13"><a xlink:href="error_8h.xhtml" target="_top" xlink:title="Exceptions for SCRAM. ">
<polygon fill="white" stroke="black" points="557,-179.5 557,-198.5 601,-198.5 601,-179.5 557,-179.5"/>
<text text-anchor="middle" x="579" y="-186.5" font-family="Helvetica,sans-Serif" font-size="10.00">error.h</text>
</a>
</g>
</g>
<!-- Node1&#45;&gt;Node13 -->
<g id="edge17" class="edge"><title>Node1&#45;&gt;Node13</title>
<path fill="none" stroke="midnightblue" d="M441.828,-235.444C470.378,-225.985 516.389,-210.742 547.152,-200.551"/>
<polygon fill="midnightblue" stroke="midnightblue" points="548.56,-203.771 556.952,-197.304 546.359,-197.127 548.56,-203.771"/>
</g>
<!-- Node3 -->
<g id="node3" class="node"><title>Node3</title>
<polygon fill="white" stroke="#bfbfbf" points="0,-67.5 0,-86.5 52,-86.5 52,-67.5 0,-67.5"/>
<text text-anchor="middle" x="26" y="-74.5" font-family="Helvetica,sans-Serif" font-size="10.00">memory</text>
</g>
<!-- Node2&#45;&gt;Node3 -->
<g id="edge2" class="edge"><title>Node2&#45;&gt;Node3</title>
<path fill="none" stroke="midnightblue" d="M276.823,-182.706C239.85,-176.242 179.664,-163.555 131,-143 99.1725,-129.557 65.8073,-107.281 45.4528,-92.62"/>
<polygon fill="midnightblue" stroke="midnightblue" points="47.4547,-89.7479 37.3184,-86.6648 43.3197,-95.3961 47.4547,-89.7479"/>
</g>
<!-- Node4 -->
<g id="node4" class="node"><title>Node4</title>
<polygon fill="white" stroke="#bfbfbf" points="587.5,-6 587.5,-25 628.5,-25 628.5,-6 587.5,-6"/>
<text text-anchor="middle" x="608" y="-13" font-family="Helvetica,sans-Serif" font-size="10.00">string</text>
</g>
<!-- Node2&#45;&gt;Node4 -->
<g id="edge3" class="edge"><title>Node2&#45;&gt;Node4</title>
<path fill="none" stroke="midnightblue" d="M325.728,-179.495C373.626,-151.837 525.277,-64.2679 584.232,-30.2244"/>
<polygon fill="midnightblue" stroke="midnightblue" points="586.273,-33.0877 593.183,-25.056 582.773,-27.0257 586.273,-33.0877"/>
</g>
<!-- Node5 -->
<g id="node5" class="node"><title>Node5</title>
<g id="a_node5"><a xlink:href="element_8h.xhtml" target="_top" xlink:title="Helper classes, structs, and properties common to all other classes. ">
<polygon fill="white" stroke="black" points="281.5,-67.5 281.5,-86.5 340.5,-86.5 340.5,-67.5 281.5,-67.5"/>
<text text-anchor="middle" x="311" y="-74.5" font-family="Helvetica,sans-Serif" font-size="10.00">element.h</text>
</a>
</g>
</g>
<!-- Node2&#45;&gt;Node5 -->
<g id="edge4" class="edge"><title>Node2&#45;&gt;Node5</title>
<path fill="none" stroke="midnightblue" d="M311,-179.368C311,-161.617 311,-120.666 311,-96.5974"/>
<polygon fill="midnightblue" stroke="midnightblue" points="314.5,-96.5914 311,-86.5914 307.5,-96.5915 314.5,-96.5914"/>
</g>
<!-- Node11 -->
<g id="node11" class="node"><title>Node11</title>
<g id="a_node11"><a xlink:href="expression_8h.xhtml" target="_top" xlink:title="Provides the base class for all expressions and units for expression values. ">
<polygon fill="white" stroke="black" points="140,-123.5 140,-142.5 212,-142.5 212,-123.5 140,-123.5"/>
<text text-anchor="middle" x="176" y="-130.5" font-family="Helvetica,sans-Serif" font-size="10.00">expression.h</text>
</a>
</g>
</g>
<!-- Node2&#45;&gt;Node11 -->
<g id="edge11" class="edge"><title>Node2&#45;&gt;Node11</title>
<path fill="none" stroke="midnightblue" d="M289.609,-179.444C267.293,-170.517 232.097,-156.439 206.792,-146.317"/>
<polygon fill="midnightblue" stroke="midnightblue" points="207.876,-142.981 197.291,-142.516 205.276,-149.48 207.876,-142.981"/>
</g>
<!-- Node5&#45;&gt;Node4 -->
<g id="edge6" class="edge"><title>Node5&#45;&gt;Node4</title>
<path fill="none" stroke="midnightblue" d="M340.883,-73.7384C390.941,-69.3409 494.472,-57.6273 578,-31 579.667,-30.4685 581.359,-29.8602 583.047,-29.2006"/>
<polygon fill="midnightblue" stroke="midnightblue" points="584.731,-32.2829 592.464,-25.0402 581.902,-25.88 584.731,-32.2829"/>
</g>
<!-- Node6 -->
<g id="node6" class="node"><title>Node6</title>
<polygon fill="white" stroke="#bfbfbf" points="3,-6 3,-25 49,-25 49,-6 3,-6"/>
<text text-anchor="middle" x="26" y="-13" font-family="Helvetica,sans-Serif" font-size="10.00">cstdint</text>
</g>
<!-- Node5&#45;&gt;Node6 -->
<g id="edge5" class="edge"><title>Node5&#45;&gt;Node6</title>
<path fill="none" stroke="midnightblue" d="M281.229,-68.9358C278.118,-68.2557 274.998,-67.5976 272,-67 177.413,-48.1479 150.252,-59.1386 58,-31 56.0748,-30.4128 54.1142,-29.736 52.1593,-29.0025"/>
<polygon fill="midnightblue" stroke="midnightblue" points="53.1991,-25.6437 42.6229,-25.0146 50.4984,-32.1017 53.1991,-25.6437"/>
</g>
<!-- Node7 -->
<g id="node7" class="node"><title>Node7</title>
<polygon fill="white" stroke="#bfbfbf" points="67,-6 67,-25 111,-25 111,-6 67,-6"/>
<text text-anchor="middle" x="89" y="-13" font-family="Helvetica,sans-Serif" font-size="10.00">vector</text>
</g>
<!-- Node5&#45;&gt;Node7 -->
<g id="edge7" class="edge"><title>Node5&#45;&gt;Node7</title>
<path fill="none" stroke="midnightblue" d="M281.469,-69.1245C228.819,-56.8553 123.852,-32.3384 120,-31 118.379,-30.4369 116.73,-29.8163 115.079,-29.1584"/>
<polygon fill="midnightblue" stroke="midnightblue" points="116.359,-25.8986 105.793,-25.1224 113.569,-32.3185 116.359,-25.8986"/>
</g>
<!-- Node8 -->
<g id="node8" class="node"><title>Node8</title>
<polygon fill="white" stroke="#bfbfbf" points="265.5,-6 265.5,-25 422.5,-25 422.5,-6 265.5,-6"/>
<text text-anchor="middle" x="344" y="-13" font-family="Helvetica,sans-Serif" font-size="10.00">boost/multi_index_container.hpp</text>
</g>
<!-- Node5&#45;&gt;Node8 -->
<g id="edge8" class="edge"><title>Node5&#45;&gt;Node8</title>
<path fill="none" stroke="midnightblue" d="M315.728,-67.4751C320.58,-58.7268 328.266,-44.8691 334.4,-33.8093"/>
<polygon fill="midnightblue" stroke="midnightblue" points="337.491,-35.4517 339.281,-25.0091 331.37,-32.0566 337.491,-35.4517"/>
</g>
<!-- Node9 -->
<g id="node9" class="node"><title>Node9</title>
<polygon fill="white" stroke="#bfbfbf" points="441,-0.5 441,-30.5 569,-30.5 569,-0.5 441,-0.5"/>
<text text-anchor="start" x="449" y="-18.5" font-family="Helvetica,sans-Serif" font-size="10.00">boost/multi_index/hashed</text>
<text text-anchor="middle" x="505" y="-7.5" font-family="Helvetica,sans-Serif" font-size="10.00">_index.hpp</text>
</g>
<!-- Node5&#45;&gt;Node9 -->
<g id="edge9" class="edge"><title>Node5&#45;&gt;Node9</title>
<path fill="none" stroke="midnightblue" d="M338.795,-67.4751C367.526,-58.6635 413.157,-44.6684 449.344,-33.5698"/>
<polygon fill="midnightblue" stroke="midnightblue" points="450.744,-36.8014 459.278,-30.523 448.691,-30.1091 450.744,-36.8014"/>
</g>
<!-- Node10 -->
<g id="node10" class="node"><title>Node10</title>
<polygon fill="white" stroke="#bfbfbf" points="129,-0.5 129,-30.5 247,-30.5 247,-0.5 129,-0.5"/>
<text text-anchor="start" x="137" y="-18.5" font-family="Helvetica,sans-Serif" font-size="10.00">boost/multi_index/mem</text>
<text text-anchor="middle" x="188" y="-7.5" font-family="Helvetica,sans-Serif" font-size="10.00">_fun.hpp</text>
</g>
<!-- Node5&#45;&gt;Node10 -->
<g id="edge10" class="edge"><title>Node5&#45;&gt;Node10</title>
<path fill="none" stroke="midnightblue" d="M293.377,-67.4751C275.94,-59.0401 248.684,-45.8551 226.26,-35.008"/>
<polygon fill="midnightblue" stroke="midnightblue" points="227.515,-31.727 216.989,-30.523 224.467,-38.0284 227.515,-31.727"/>
</g>
<!-- Node11&#45;&gt;Node3 -->
<g id="edge13" class="edge"><title>Node11&#45;&gt;Node3</title>
<path fill="none" stroke="midnightblue" d="M152.232,-123.444C127.107,-114.399 87.289,-100.064 59.0996,-89.9158"/>
<polygon fill="midnightblue" stroke="midnightblue" points="60.2512,-86.6106 49.6567,-86.5164 57.8801,-93.1968 60.2512,-86.6106"/>
</g>
<!-- Node11&#45;&gt;Node5 -->
<g id="edge16" class="edge"><title>Node11&#45;&gt;Node5</title>
<path fill="none" stroke="midnightblue" d="M197.391,-123.444C219.707,-114.517 254.903,-100.439 280.208,-90.3168"/>
<polygon fill="midnightblue" stroke="midnightblue" points="281.724,-93.4801 289.709,-86.5164 279.124,-86.9807 281.724,-93.4801"/>
</g>
<!-- Node11&#45;&gt;Node6 -->
<g id="edge12" class="edge"><title>Node11&#45;&gt;Node6</title>
<path fill="none" stroke="midnightblue" d="M164.726,-123.319C139.316,-103.753 77.321,-56.0172 45.5189,-31.5295"/>
<polygon fill="midnightblue" stroke="midnightblue" points="47.4639,-28.6098 37.4052,-25.282 43.1932,-34.1561 47.4639,-28.6098"/>
</g>
<!-- Node11&#45;&gt;Node7 -->
<g id="edge14" class="edge"><title>Node11&#45;&gt;Node7</title>
<path fill="none" stroke="midnightblue" d="M167.916,-123.292C159.801,-114.41 147.088,-100.109 137,-87 123.517,-69.4808 109.435,-48.4178 100.039,-33.9029"/>
<polygon fill="midnightblue" stroke="midnightblue" points="102.938,-31.9412 94.5935,-25.4132 97.0461,-35.7203 102.938,-31.9412"/>
</g>
<!-- Node12 -->
<g id="node12" class="node"><title>Node12</title>
<polygon fill="white" stroke="#bfbfbf" points="146.5,-67.5 146.5,-86.5 263.5,-86.5 263.5,-67.5 146.5,-67.5"/>
<text text-anchor="middle" x="205" y="-74.5" font-family="Helvetica,sans-Serif" font-size="10.00">boost/noncopyable.hpp</text>
</g>
<!-- Node11&#45;&gt;Node12 -->
<g id="edge15" class="edge"><title>Node11&#45;&gt;Node12</title>
<path fill="none" stroke="midnightblue" d="M180.789,-123.083C184.758,-115.691 190.525,-104.953 195.435,-95.8111"/>
<polygon fill="midnightblue" stroke="midnightblue" points="198.653,-97.217 200.3,-86.7511 192.486,-93.9051 198.653,-97.217"/>
</g>
<!-- Node13&#45;&gt;Node4 -->
<g id="edge19" class="edge"><title>Node13&#45;&gt;Node4</title>
<path fill="none" stroke="midnightblue" d="M580.478,-179.26C584.977,-152.651 598.579,-72.2148 604.815,-35.3382"/>
<polygon fill="midnightblue" stroke="midnightblue" points="608.343,-35.463 606.559,-25.0194 601.441,-34.2958 608.343,-35.463"/>
</g>
<!-- Node14 -->
<g id="node14" class="node"><title>Node14</title>
<polygon fill="white" stroke="#bfbfbf" points="607.5,-123.5 607.5,-142.5 666.5,-142.5 666.5,-123.5 607.5,-123.5"/>
<text text-anchor="middle" x="637" y="-130.5" font-family="Helvetica,sans-Serif" font-size="10.00">exception</text>
</g>
<!-- Node13&#45;&gt;Node14 -->
<g id="edge18" class="edge"><title>Node13&#45;&gt;Node14</title>
<path fill="none" stroke="midnightblue" d="M588.319,-179.324C596.893,-171.341 609.812,-159.313 620.188,-149.653"/>
<polygon fill="midnightblue" stroke="midnightblue" points="622.578,-152.21 627.512,-142.834 617.808,-147.086 622.578,-152.21"/>
</g>
</g>
</svg>
