<?xml version="1.0" encoding="UTF-8" standalone="no"?>
<!DOCTYPE svg PUBLIC "-//W3C//DTD SVG 1.1//EN"
 "http://www.w3.org/Graphics/SVG/1.1/DTD/svg11.dtd">
<!-- Generated by graphviz version 2.38.0 (20140413.2041)
 -->
<!-- Title: probability_analysis.h Pages: 1 -->
<svg width="506pt" height="252pt"
 viewBox="0.00 0.00 506.12 252.00" xmlns="http://www.w3.org/2000/svg" xmlns:xlink="http://www.w3.org/1999/xlink">
<g id="graph0" class="graph" transform="scale(1 1) rotate(0) translate(4 248)">
<title>probability_analysis.h</title>
<polygon fill="white" stroke="none" points="-4,4 -4,-248 502.123,-248 502.123,4 -4,4"/>
<!-- Node1 -->
<g id="node1" class="node"><title>Node1</title>
<polygon fill="#bfbfbf" stroke="black" points="167.123,-224.5 167.123,-243.5 277.123,-243.5 277.123,-224.5 167.123,-224.5"/>
<text text-anchor="middle" x="222.123" y="-231.5" font-family="Helvetica,sans-Serif" font-size="10.00">probability_analysis.h</text>
</g>
<!-- Node2 -->
<g id="node2" class="node"><title>Node2</title>
<g id="a_node2"><a xlink:href="importance__analysis_8h.xhtml" target="_top" xlink:title="Contains functionality to do numerical analysis of importance factors. ">
<polygon fill="white" stroke="black" points="80.1226,-168.5 80.1226,-187.5 194.123,-187.5 194.123,-168.5 80.1226,-168.5"/>
<text text-anchor="middle" x="137.123" y="-175.5" font-family="Helvetica,sans-Serif" font-size="10.00">importance_analysis.h</text>
</a>
</g>
</g>
<!-- Node1&#45;&gt;Node2 -->
<g id="edge1" class="edge"><title>Node1&#45;&gt;Node2</title>
<path fill="none" stroke="midnightblue" d="M199.929,-218.901C184.343,-208.999 163.993,-196.071 150.745,-187.655"/>
<polygon fill="midnightblue" stroke="midnightblue" points="198.148,-221.916 208.466,-224.324 201.902,-216.007 198.148,-221.916"/>
</g>
<!-- Node4 -->
<g id="node4" class="node"><title>Node4</title>
<g id="a_node4"><a xlink:href="reporter_8h.xhtml" target="_top" xlink:title="Reporter of results. ">
<polygon fill="white" stroke="black" points="135.123,-56.5 135.123,-75.5 193.123,-75.5 193.123,-56.5 135.123,-56.5"/>
<text text-anchor="middle" x="164.123" y="-63.5" font-family="Helvetica,sans-Serif" font-size="10.00">reporter.h</text>
</a>
</g>
</g>
<!-- Node1&#45;&gt;Node4 -->
<g id="edge11" class="edge"><title>Node1&#45;&gt;Node4</title>
<path fill="none" stroke="midnightblue" d="M157.253,-225.081C103.272,-214.439 31.0626,-189.628 4.12265,-132 -20.3197,-79.7148 82.4663,-69.3085 134.962,-67.3629"/>
<polygon fill="midnightblue" stroke="midnightblue" points="156.635,-228.526 167.106,-226.908 157.912,-221.643 156.635,-228.526"/>
</g>
<!-- Node7 -->
<g id="node7" class="node"><title>Node7</title>
<g id="a_node7"><a xlink:href="risk__analysis_8h.xhtml" target="_top" xlink:title="Contains the main system for performing analysis. ">
<polygon fill="white" stroke="black" points="189.123,-112.5 189.123,-131.5 271.123,-131.5 271.123,-112.5 189.123,-112.5"/>
<text text-anchor="middle" x="230.123" y="-119.5" font-family="Helvetica,sans-Serif" font-size="10.00">risk_analysis.h</text>
</a>
</g>
</g>
<!-- Node1&#45;&gt;Node7 -->
<g id="edge12" class="edge"><title>Node1&#45;&gt;Node7</title>
<path fill="none" stroke="midnightblue" d="M223.479,-214.348C225.231,-190.254 228.209,-149.308 229.498,-131.591"/>
<polygon fill="midnightblue" stroke="midnightblue" points="219.985,-214.141 222.75,-224.368 226.967,-214.649 219.985,-214.141"/>
</g>
<!-- Node9 -->
<g id="node9" class="node"><title>Node9</title>
<g id="a_node9"><a xlink:href="probability__analysis_8cc.xhtml" target="_top" xlink:title="Implementations of functions to provide probability analysis. ">
<polygon fill="white" stroke="black" points="382.123,-168.5 382.123,-187.5 498.123,-187.5 498.123,-168.5 382.123,-168.5"/>
<text text-anchor="middle" x="440.123" y="-175.5" font-family="Helvetica,sans-Serif" font-size="10.00">probability_analysis.cc</text>
</a>
</g>
</g>
<!-- Node1&#45;&gt;Node9 -->
<g id="edge10" class="edge"><title>Node1&#45;&gt;Node9</title>
<path fill="none" stroke="midnightblue" d="M266.434,-222.024C307.614,-211.823 368.096,-196.841 405.742,-187.516"/>
<polygon fill="midnightblue" stroke="midnightblue" points="265.53,-218.642 256.665,-224.444 267.214,-225.436 265.53,-218.642"/>
</g>
<!-- Node10 -->
<g id="node10" class="node"><title>Node10</title>
<g id="a_node10"><a xlink:href="uncertainty__analysis_8h.xhtml" target="_top" xlink:title="Provides functionality for uncertainty analysis with Monte Carlo method. ">
<polygon fill="white" stroke="black" points="250.123,-168.5 250.123,-187.5 364.123,-187.5 364.123,-168.5 250.123,-168.5"/>
<text text-anchor="middle" x="307.123" y="-175.5" font-family="Helvetica,sans-Serif" font-size="10.00">uncertainty_analysis.h</text>
</a>
</g>
</g>
<!-- Node1&#45;&gt;Node10 -->
<g id="edge13" class="edge"><title>Node1&#45;&gt;Node10</title>
<path fill="none" stroke="midnightblue" d="M244.316,-218.901C259.903,-208.999 280.252,-196.071 293.5,-187.655"/>
<polygon fill="midnightblue" stroke="midnightblue" points="242.343,-216.007 235.779,-224.324 246.097,-221.916 242.343,-216.007"/>
</g>
<!-- Node3 -->
<g id="node3" class="node"><title>Node3</title>
<g id="a_node3"><a xlink:href="importance__analysis_8cc.xhtml" target="_top" xlink:title="Implementations of functions to provide quantitative importance informations. ">
<polygon fill="white" stroke="black" points="13.6226,-112.5 13.6226,-131.5 132.623,-131.5 132.623,-112.5 13.6226,-112.5"/>
<text text-anchor="middle" x="73.1226" y="-119.5" font-family="Helvetica,sans-Serif" font-size="10.00">importance_analysis.cc</text>
</a>
</g>
</g>
<!-- Node2&#45;&gt;Node3 -->
<g id="edge2" class="edge"><title>Node2&#45;&gt;Node3</title>
<path fill="none" stroke="midnightblue" d="M119.131,-161.82C107.665,-152.145 93.2093,-139.948 83.5924,-131.834"/>
<polygon fill="midnightblue" stroke="midnightblue" points="116.94,-164.55 126.84,-168.324 121.454,-159.2 116.94,-164.55"/>
</g>
<!-- Node2&#45;&gt;Node4 -->
<g id="edge3" class="edge"><title>Node2&#45;&gt;Node4</title>
<path fill="none" stroke="midnightblue" d="M141.701,-158.348C147.615,-134.254 157.665,-93.3079 162.014,-75.5914"/>
<polygon fill="midnightblue" stroke="midnightblue" points="138.226,-157.822 139.241,-168.368 145.024,-159.491 138.226,-157.822"/>
</g>
<!-- Node2&#45;&gt;Node7 -->
<g id="edge6" class="edge"><title>Node2&#45;&gt;Node7</title>
<path fill="none" stroke="midnightblue" d="M160.928,-163.177C178.042,-153.241 200.588,-140.149 215.218,-131.655"/>
<polygon fill="midnightblue" stroke="midnightblue" points="158.955,-160.276 152.065,-168.324 162.47,-166.329 158.955,-160.276"/>
</g>
<!-- Node5 -->
<g id="node5" class="node"><title>Node5</title>
<g id="a_node5"><a xlink:href="reporter_8cc.xhtml" target="_top" xlink:title="Implements Reporter class. ">
<polygon fill="white" stroke="black" points="114.623,-0.5 114.623,-19.5 177.623,-19.5 177.623,-0.5 114.623,-0.5"/>
<text text-anchor="middle" x="146.123" y="-7.5" font-family="Helvetica,sans-Serif" font-size="10.00">reporter.cc</text>
</a>
</g>
</g>
<!-- Node4&#45;&gt;Node5 -->
<g id="edge4" class="edge"><title>Node4&#45;&gt;Node5</title>
<path fill="none" stroke="midnightblue" d="M157.921,-46.3956C154.91,-37.362 151.435,-26.936 149.04,-19.7511"/>
<polygon fill="midnightblue" stroke="midnightblue" points="154.668,-47.703 161.15,-56.083 161.308,-45.4893 154.668,-47.703"/>
</g>
<!-- Node6 -->
<g id="node6" class="node"><title>Node6</title>
<g id="a_node6"><a xlink:href="scram_8cc.xhtml" target="_top" xlink:title="Main entrance. ">
<polygon fill="white" stroke="black" points="195.623,-0.5 195.623,-19.5 252.623,-19.5 252.623,-0.5 195.623,-0.5"/>
<text text-anchor="middle" x="224.123" y="-7.5" font-family="Helvetica,sans-Serif" font-size="10.00">scram.cc</text>
</a>
</g>
</g>
<!-- Node4&#45;&gt;Node6 -->
<g id="edge5" class="edge"><title>Node4&#45;&gt;Node6</title>
<path fill="none" stroke="midnightblue" d="M181.304,-49.5372C192.002,-39.9087 205.379,-27.8694 214.307,-19.8339"/>
<polygon fill="midnightblue" stroke="midnightblue" points="178.854,-47.0327 173.763,-56.324 183.537,-52.2358 178.854,-47.0327"/>
</g>
<!-- Node7&#45;&gt;Node4 -->
<g id="edge7" class="edge"><title>Node7&#45;&gt;Node4</title>
<path fill="none" stroke="midnightblue" d="M211.569,-105.82C199.745,-96.1452 184.837,-83.9481 174.92,-75.8339"/>
<polygon fill="midnightblue" stroke="midnightblue" points="209.563,-108.7 219.519,-112.324 213.995,-103.283 209.563,-108.7"/>
</g>
<!-- Node7&#45;&gt;Node6 -->
<g id="edge9" class="edge"><title>Node7&#45;&gt;Node6</title>
<path fill="none" stroke="midnightblue" d="M229.105,-102.348C227.791,-78.2538 225.558,-37.3079 224.591,-19.5914"/>
<polygon fill="midnightblue" stroke="midnightblue" points="225.612,-102.574 229.652,-112.368 232.602,-102.193 225.612,-102.574"/>
</g>
<!-- Node8 -->
<g id="node8" class="node"><title>Node8</title>
<g id="a_node8"><a xlink:href="risk__analysis_8cc.xhtml" target="_top" xlink:title="Implementation of risk analysis handler. ">
<polygon fill="white" stroke="black" points="252.623,-56.5 252.623,-75.5 339.623,-75.5 339.623,-56.5 252.623,-56.5"/>
<text text-anchor="middle" x="296.123" y="-63.5" font-family="Helvetica,sans-Serif" font-size="10.00">risk_analysis.cc</text>
</a>
</g>
</g>
<!-- Node7&#45;&gt;Node8 -->
<g id="edge8" class="edge"><title>Node7&#45;&gt;Node8</title>
<path fill="none" stroke="midnightblue" d="M248.676,-105.82C260.501,-96.1452 275.408,-83.9481 285.326,-75.8339"/>
<polygon fill="midnightblue" stroke="midnightblue" points="246.25,-103.283 240.727,-112.324 250.683,-108.7 246.25,-103.283"/>
</g>
<!-- Node10&#45;&gt;Node4 -->
<g id="edge15" class="edge"><title>Node10&#45;&gt;Node4</title>
<path fill="none" stroke="midnightblue" d="M303.568,-158.399C299.933,-144.02 292.941,-124.519 280.123,-112 256.324,-88.7572 219.18,-77.1939 193.359,-71.6693"/>
<polygon fill="midnightblue" stroke="midnightblue" points="300.157,-159.187 305.734,-168.195 306.992,-157.675 300.157,-159.187"/>
</g>
<!-- Node10&#45;&gt;Node7 -->
<g id="edge14" class="edge"><title>Node10&#45;&gt;Node7</title>
<path fill="none" stroke="midnightblue" d="M286.222,-162.342C272.212,-152.517 254.24,-139.913 242.463,-131.655"/>
<polygon fill="midnightblue" stroke="midnightblue" points="284.554,-165.448 294.751,-168.324 288.574,-159.717 284.554,-165.448"/>
</g>
<!-- Node11 -->
<g id="node11" class="node"><title>Node11</title>
<g id="a_node11"><a xlink:href="uncertainty__analysis_8cc.xhtml" target="_top" xlink:title="Implements the functionality to run Monte Carlo simulations. ">
<polygon fill="white" stroke="black" points="327.623,-112.5 327.623,-131.5 446.623,-131.5 446.623,-112.5 327.623,-112.5"/>
<text text-anchor="middle" x="387.123" y="-119.5" font-family="Helvetica,sans-Serif" font-size="10.00">uncertainty_analysis.cc</text>
</a>
</g>
</g>
<!-- Node10&#45;&gt;Node11 -->
<g id="edge16" class="edge"><title>Node10&#45;&gt;Node11</title>
<path fill="none" stroke="midnightblue" d="M328.423,-162.622C343.038,-152.757 361.949,-139.992 374.301,-131.655"/>
<polygon fill="midnightblue" stroke="midnightblue" points="326.306,-159.828 319.976,-168.324 330.223,-165.63 326.306,-159.828"/>
</g>
</g>
</svg>
