<?xml version="1.0" encoding="UTF-8" standalone="no"?>
<!DOCTYPE svg PUBLIC "-//W3C//DTD SVG 1.1//EN"
 "http://www.w3.org/Graphics/SVG/1.1/DTD/svg11.dtd">
<!-- Generated by graphviz version 2.38.0 (20140413.2041)
 -->
<!-- Title: probability_analysis.h Pages: 1 -->
<!--zoomable 341 -->
<svg id="main" version="1.1" xmlns="http://www.w3.org/2000/svg" xmlns:xlink="http://www.w3.org/1999/xlink" xml:space="preserve" onload="init(evt)">
<style type="text/css"><![CDATA[
.edge:hover path { stroke: red; }
.edge:hover polygon { stroke: red; fill: red; }
]]></style>
<script type="text/javascript"><![CDATA[
var edges = document.getElementsByTagName('g');
if (edges && edges.length) {
  for (var i=0;i<edges.length;i++) {
    if (edges[i].id.substr(0,4)=='edge') {
      edges[i].setAttribute('class','edge');
    }
  }
}
]]></script>
        <defs>
                <circle id="rim" cx="0" cy="0" r="7"/>
                <circle id="rim2" cx="0" cy="0" r="3.5"/>
                <g id="zoomPlus">
                        <use xlink:href="#rim" fill="#404040">
                                <set attributeName="fill" to="#808080" begin="zoomplus.mouseover" end="zoomplus.mouseout"/>
                        </use>
                        <path d="M-4,0h8M0,-4v8" fill="none" stroke="white" stroke-width="1.5" pointer-events="none"/>
                </g>
                <g id="zoomMin">
                        <use xlink:href="#rim" fill="#404040">
                                <set attributeName="fill" to="#808080" begin="zoomminus.mouseover" end="zoomminus.mouseout"/>
                        </use>
                        <path d="M-4,0h8" fill="none" stroke="white" stroke-width="1.5" pointer-events="none"/>
                </g>
                <g id="dirArrow">
                        <path fill="none" stroke="white" stroke-width="1.5" d="M0,-3.0v7 M-2.5,-0.5L0,-3.0L2.5,-0.5"/>
                </g>
               <g id="resetDef">
                       <use xlink:href="#rim2" fill="#404040">
                               <set attributeName="fill" to="#808080" begin="reset.mouseover" end="reset.mouseout"/>
                       </use>
               </g>
        </defs>

<script type="text/javascript">
var viewWidth = 1802;
var viewHeight = 341;
var sectionId = 'dynsection-0';
</script>
<script xlink:href="svgpan.js"/>
<svg id="graph" class="graph">
<g id="viewport">
<title>probability_analysis.h</title>
<polygon fill="white" stroke="none" points="-4,4 -4,-337 1797.63,-337 1797.63,4 -4,4"/>
<!-- Node1 -->
<g id="node1" class="node"><title>Node1</title>
<polygon fill="#bfbfbf" stroke="black" points="681,-313.5 681,-332.5 791,-332.5 791,-313.5 681,-313.5"/>
<text text-anchor="middle" x="736" y="-320.5" font-family="Helvetica,sans-Serif" font-size="10.00">probability_analysis.h</text>
</g>
<!-- Node2 -->
<g id="node2" class="node"><title>Node2</title>
<polygon fill="white" stroke="#bfbfbf" points="416,-6 416,-25 460,-25 460,-6 416,-6"/>
<text text-anchor="middle" x="438" y="-13" font-family="Helvetica,sans-Serif" font-size="10.00">vector</text>
</g>
<!-- Node1&#45;&gt;Node2 -->
<g id="edge1" class="edge"><title>Node1&#45;&gt;Node2</title>
<path fill="none" stroke="midnightblue" d="M680.981,-319.57C510.113,-311.298 0,-280.838 0,-212 0,-212 0,-212 0,-148.5 0,-99.5743 30.7332,-89.8409 74,-67 131.389,-36.7041 327.426,-22.6682 405.517,-18.1813"/>
<polygon fill="midnightblue" stroke="midnightblue" points="405.938,-21.6634 415.727,-17.6108 405.547,-14.6743 405.938,-21.6634"/>
</g>
<!-- Node3 -->
<g id="node3" class="node"><title>Node3</title>
<g id="a_node3"><a xlink:href="analysis_8h.xhtml" target="_top" xlink:title="Common facilities for all analysis classes. ">
<polygon fill="white" stroke="black" points="124.5,-201.5 124.5,-220.5 185.5,-220.5 185.5,-201.5 124.5,-201.5"/>
<text text-anchor="middle" x="155" y="-208.5" font-family="Helvetica,sans-Serif" font-size="10.00">analysis.h</text>
</a>
</g>
</g>
<!-- Node1&#45;&gt;Node3 -->
<g id="edge2" class="edge"><title>Node1&#45;&gt;Node3</title>
<path fill="none" stroke="midnightblue" d="M689.723,-313.459C596.825,-296.275 381.033,-256.158 200,-221 198.724,-220.752 197.428,-220.499 196.12,-220.243"/>
<polygon fill="midnightblue" stroke="midnightblue" points="196.465,-216.744 185.976,-218.242 195.11,-223.612 196.465,-216.744"/>
</g>
<!-- Node8 -->
<g id="node8" class="node"><title>Node8</title>
<g id="a_node8"><a xlink:href="bdd_8h.xhtml" target="_top" xlink:title="Fault tree analysis with the Binary Decision Diagram algorithms. ">
<polygon fill="white" stroke="black" points="715.5,-201.5 715.5,-220.5 756.5,-220.5 756.5,-201.5 715.5,-201.5"/>
<text text-anchor="middle" x="736" y="-208.5" font-family="Helvetica,sans-Serif" font-size="10.00">bdd.h</text>
</a>
</g>
</g>
<!-- Node1&#45;&gt;Node8 -->
<g id="edge8" class="edge"><title>Node1&#45;&gt;Node8</title>
<path fill="none" stroke="midnightblue" d="M736,-313.368C736,-295.617 736,-254.666 736,-230.597"/>
<polygon fill="midnightblue" stroke="midnightblue" points="739.5,-230.591 736,-220.591 732.5,-230.591 739.5,-230.591"/>
</g>
<!-- Node17 -->
<g id="node17" class="node"><title>Node17</title>
<g id="a_node17"><a xlink:href="boolean__graph_8h.xhtml" target="_top" xlink:title="Classes and facilities to represent simplified fault trees as Boolean graphs with event and gate indi...">
<polygon fill="white" stroke="black" points="1204,-140 1204,-159 1292,-159 1292,-140 1204,-140"/>
<text text-anchor="middle" x="1248" y="-147" font-family="Helvetica,sans-Serif" font-size="10.00">boolean_graph.h</text>
</a>
</g>
</g>
<!-- Node1&#45;&gt;Node17 -->
<g id="edge41" class="edge"><title>Node1&#45;&gt;Node17</title>
<path fill="none" stroke="midnightblue" d="M791.356,-322.715C883.21,-321.274 1069.43,-306.953 1195,-221 1214.67,-207.534 1230.02,-184.373 1239.03,-168.288"/>
<polygon fill="midnightblue" stroke="midnightblue" points="1242.18,-169.809 1243.8,-159.338 1236,-166.517 1242.18,-169.809"/>
</g>
<!-- Node26 -->
<g id="node26" class="node"><title>Node26</title>
<g id="a_node26"><a xlink:href="fault__tree__analysis_8h.xhtml" target="_top" xlink:title="Fault Tree Analysis. ">
<polygon fill="white" stroke="black" points="880.5,-257.5 880.5,-276.5 987.5,-276.5 987.5,-257.5 880.5,-257.5"/>
<text text-anchor="middle" x="934" y="-264.5" font-family="Helvetica,sans-Serif" font-size="10.00">fault_tree_analysis.h</text>
</a>
</g>
</g>
<!-- Node1&#45;&gt;Node26 -->
<g id="edge42" class="edge"><title>Node1&#45;&gt;Node26</title>
<path fill="none" stroke="midnightblue" d="M767.374,-313.444C801.263,-304.201 855.403,-289.436 892.724,-279.257"/>
<polygon fill="midnightblue" stroke="midnightblue" points="894.046,-282.524 902.773,-276.516 892.205,-275.771 894.046,-282.524"/>
</g>
<!-- Node4 -->
<g id="node4" class="node"><title>Node4</title>
<polygon fill="white" stroke="#bfbfbf" points="681.5,-6 681.5,-25 730.5,-25 730.5,-6 681.5,-6"/>
<text text-anchor="middle" x="706" y="-13" font-family="Helvetica,sans-Serif" font-size="10.00">cassert</text>
</g>
<!-- Node3&#45;&gt;Node4 -->
<g id="edge3" class="edge"><title>Node3&#45;&gt;Node4</title>
<path fill="none" stroke="midnightblue" d="M163.176,-201.271C178.488,-185.448 213.187,-152.002 249,-134 395.452,-60.3821 592.15,-30.0632 671.083,-20.3313"/>
<polygon fill="midnightblue" stroke="midnightblue" points="671.909,-23.7575 681.421,-19.0924 671.076,-16.8072 671.909,-23.7575"/>
</g>
<!-- Node5 -->
<g id="node5" class="node"><title>Node5</title>
<polygon fill="white" stroke="#bfbfbf" points="133.5,-73 133.5,-92 174.5,-92 174.5,-73 133.5,-73"/>
<text text-anchor="middle" x="154" y="-80" font-family="Helvetica,sans-Serif" font-size="10.00">string</text>
</g>
<!-- Node3&#45;&gt;Node5 -->
<g id="edge4" class="edge"><title>Node3&#45;&gt;Node5</title>
<path fill="none" stroke="midnightblue" d="M154.931,-201.305C154.771,-180.994 154.368,-130.053 154.148,-102.277"/>
<polygon fill="midnightblue" stroke="midnightblue" points="157.648,-102.228 154.069,-92.2557 150.648,-102.283 157.648,-102.228"/>
</g>
<!-- Node6 -->
<g id="node6" class="node"><title>Node6</title>
<polygon fill="white" stroke="#bfbfbf" points="869.5,-73 869.5,-92 986.5,-92 986.5,-73 869.5,-73"/>
<text text-anchor="middle" x="928" y="-80" font-family="Helvetica,sans-Serif" font-size="10.00">boost/noncopyable.hpp</text>
</g>
<!-- Node3&#45;&gt;Node6 -->
<g id="edge5" class="edge"><title>Node3&#45;&gt;Node6</title>
<path fill="none" stroke="midnightblue" d="M172.167,-201.405C208.812,-183.21 293.883,-141.827 325,-134 539.347,-80.0827 601.16,-120.851 821,-98 833.579,-96.6924 846.96,-95.067 859.845,-93.3821"/>
<polygon fill="midnightblue" stroke="midnightblue" points="860.598,-96.8128 870.048,-92.023 859.674,-89.8741 860.598,-96.8128"/>
</g>
<!-- Node7 -->
<g id="node7" class="node"><title>Node7</title>
<g id="a_node7"><a xlink:href="settings_8h.xhtml" target="_top" xlink:title="Builder for settings. ">
<polygon fill="white" stroke="black" points="66.5,-140 66.5,-159 125.5,-159 125.5,-140 66.5,-140"/>
<text text-anchor="middle" x="96" y="-147" font-family="Helvetica,sans-Serif" font-size="10.00">settings.h</text>
</a>
</g>
</g>
<!-- Node3&#45;&gt;Node7 -->
<g id="edge6" class="edge"><title>Node3&#45;&gt;Node7</title>
<path fill="none" stroke="midnightblue" d="M146.547,-201.475C137.434,-192.285 122.73,-177.456 111.524,-166.156"/>
<polygon fill="midnightblue" stroke="midnightblue" points="113.964,-163.646 104.438,-159.009 108.993,-168.574 113.964,-163.646"/>
</g>
<!-- Node7&#45;&gt;Node5 -->
<g id="edge7" class="edge"><title>Node7&#45;&gt;Node5</title>
<path fill="none" stroke="midnightblue" d="M103.822,-139.734C112.953,-129.5 128.244,-112.364 139.551,-99.6924"/>
<polygon fill="midnightblue" stroke="midnightblue" points="142.255,-101.919 146.302,-92.1273 137.032,-97.2585 142.255,-101.919"/>
</g>
<!-- Node8&#45;&gt;Node2 -->
<g id="edge15" class="edge"><title>Node8&#45;&gt;Node2</title>
<path fill="none" stroke="midnightblue" d="M715.466,-209.325C635.946,-206.501 351.353,-194.396 325,-165 283.107,-118.27 369.324,-57.2281 413.752,-30.2933"/>
<polygon fill="midnightblue" stroke="midnightblue" points="415.723,-33.1936 422.537,-25.0809 412.151,-27.1735 415.723,-33.1936"/>
</g>
<!-- Node8&#45;&gt;Node6 -->
<g id="edge17" class="edge"><title>Node8&#45;&gt;Node6</title>
<path fill="none" stroke="midnightblue" d="M751.58,-201.425C767.306,-192.647 792.179,-178.425 813,-165 847.315,-142.874 885.751,-114.969 908.359,-98.217"/>
<polygon fill="midnightblue" stroke="midnightblue" points="910.546,-100.953 916.479,-92.1751 906.367,-95.3368 910.546,-100.953"/>
</g>
<!-- Node8&#45;&gt;Node7 -->
<g id="edge40" class="edge"><title>Node8&#45;&gt;Node7</title>
<path fill="none" stroke="midnightblue" d="M715.431,-208.088C624.476,-199.632 257.532,-165.517 135.606,-154.182"/>
<polygon fill="midnightblue" stroke="midnightblue" points="135.864,-150.691 125.582,-153.25 135.216,-157.661 135.864,-150.691"/>
</g>
<!-- Node9 -->
<g id="node9" class="node"><title>Node9</title>
<polygon fill="white" stroke="#bfbfbf" points="334,-140 334,-159 378,-159 378,-140 334,-140"/>
<text text-anchor="middle" x="356" y="-147" font-family="Helvetica,sans-Serif" font-size="10.00">cmath</text>
</g>
<!-- Node8&#45;&gt;Node9 -->
<g id="edge9" class="edge"><title>Node8&#45;&gt;Node9</title>
<path fill="none" stroke="midnightblue" d="M715.489,-209.553C660.931,-207.897 508.141,-200.212 387,-165 385.074,-164.44 383.118,-163.776 381.172,-163.045"/>
<polygon fill="midnightblue" stroke="midnightblue" points="382.293,-159.718 371.722,-159.001 379.539,-166.153 382.293,-159.718"/>
</g>
<!-- Node10 -->
<g id="node10" class="node"><title>Node10</title>
<polygon fill="white" stroke="#bfbfbf" points="1178,-6 1178,-25 1234,-25 1234,-6 1178,-6"/>
<text text-anchor="middle" x="1206" y="-13" font-family="Helvetica,sans-Serif" font-size="10.00">algorithm</text>
</g>
<!-- Node8&#45;&gt;Node10 -->
<g id="edge10" class="edge"><title>Node8&#45;&gt;Node10</title>
<path fill="none" stroke="midnightblue" d="M756.714,-210.109C823.093,-209.411 1033.67,-198.928 1162,-98 1182.5,-81.8799 1194.68,-53.4774 1200.86,-34.8228"/>
<polygon fill="midnightblue" stroke="midnightblue" points="1204.25,-35.7187 1203.82,-25.1323 1197.55,-33.6729 1204.25,-35.7187"/>
</g>
<!-- Node11 -->
<g id="node11" class="node"><title>Node11</title>
<polygon fill="white" stroke="#bfbfbf" points="396.5,-140 396.5,-159 463.5,-159 463.5,-140 396.5,-140"/>
<text text-anchor="middle" x="430" y="-147" font-family="Helvetica,sans-Serif" font-size="10.00">forward_list</text>
</g>
<!-- Node8&#45;&gt;Node11 -->
<g id="edge11" class="edge"><title>Node8&#45;&gt;Node11</title>
<path fill="none" stroke="midnightblue" d="M715.312,-207.575C670.624,-202.095 561.929,-187.456 473,-165 469.792,-164.19 466.479,-163.255 463.182,-162.259"/>
<polygon fill="midnightblue" stroke="midnightblue" points="464.051,-158.862 453.46,-159.147 461.917,-165.529 464.051,-158.862"/>
</g>
<!-- Node12 -->
<g id="node12" class="node"><title>Node12</title>
<polygon fill="white" stroke="#bfbfbf" points="1514,-6 1514,-25 1566,-25 1566,-6 1514,-6"/>
<text text-anchor="middle" x="1540" y="-13" font-family="Helvetica,sans-Serif" font-size="10.00">memory</text>
</g>
<!-- Node8&#45;&gt;Node12 -->
<g id="edge12" class="edge"><title>Node8&#45;&gt;Node12</title>
<path fill="none" stroke="midnightblue" d="M756.52,-208.891C851.73,-203.676 1248.06,-181.165 1301,-165 1327.84,-156.805 1329.88,-144.242 1356,-134 1420.23,-108.817 1454.68,-142.974 1507,-98 1525.69,-81.9377 1533.93,-53.7296 1537.47,-35.0778"/>
<polygon fill="midnightblue" stroke="midnightblue" points="1540.93,-35.5604 1539.08,-25.1286 1534.02,-34.4381 1540.93,-35.5604"/>
</g>
<!-- Node13 -->
<g id="node13" class="node"><title>Node13</title>
<polygon fill="white" stroke="#bfbfbf" points="729.5,-73 729.5,-92 812.5,-92 812.5,-73 729.5,-73"/>
<text text-anchor="middle" x="771" y="-80" font-family="Helvetica,sans-Serif" font-size="10.00">unordered_map</text>
</g>
<!-- Node8&#45;&gt;Node13 -->
<g id="edge13" class="edge"><title>Node8&#45;&gt;Node13</title>
<path fill="none" stroke="midnightblue" d="M755.296,-201.48C769.429,-194.081 787.557,-181.887 796,-165 806.499,-144.002 794.389,-117.735 783.657,-100.79"/>
<polygon fill="midnightblue" stroke="midnightblue" points="786.497,-98.7422 777.989,-92.4285 780.702,-102.67 786.497,-98.7422"/>
</g>
<!-- Node14 -->
<g id="node14" class="node"><title>Node14</title>
<polygon fill="white" stroke="#bfbfbf" points="882,-6 882,-25 922,-25 922,-6 882,-6"/>
<text text-anchor="middle" x="902" y="-13" font-family="Helvetica,sans-Serif" font-size="10.00">utility</text>
</g>
<!-- Node8&#45;&gt;Node14 -->
<g id="edge14" class="edge"><title>Node8&#45;&gt;Node14</title>
<path fill="none" stroke="midnightblue" d="M743.2,-201.346C754.202,-187.007 772.838,-157.565 762,-134 751.727,-111.664 730.273,-120.336 720,-98 714.243,-85.4827 711.661,-77.9677 720,-67 738.32,-42.9044 824.872,-27.2985 871.714,-20.4691"/>
<polygon fill="midnightblue" stroke="midnightblue" points="872.474,-23.8966 881.887,-19.033 871.495,-16.9653 872.474,-23.8966"/>
</g>
<!-- Node15 -->
<g id="node15" class="node"><title>Node15</title>
<polygon fill="white" stroke="#bfbfbf" points="482,-140 482,-159 610,-159 610,-140 482,-140"/>
<text text-anchor="middle" x="546" y="-147" font-family="Helvetica,sans-Serif" font-size="10.00">boost/functional/hash.hpp</text>
</g>
<!-- Node8&#45;&gt;Node15 -->
<g id="edge16" class="edge"><title>Node8&#45;&gt;Node15</title>
<path fill="none" stroke="midnightblue" d="M715.305,-203.519C683.63,-193.6 622.655,-174.505 583.178,-162.143"/>
<polygon fill="midnightblue" stroke="midnightblue" points="583.98,-158.726 573.391,-159.078 581.889,-165.406 583.98,-158.726"/>
</g>
<!-- Node16 -->
<g id="node16" class="node"><title>Node16</title>
<polygon fill="white" stroke="#bfbfbf" points="628.5,-134.5 628.5,-164.5 753.5,-164.5 753.5,-134.5 628.5,-134.5"/>
<text text-anchor="start" x="636.5" y="-152.5" font-family="Helvetica,sans-Serif" font-size="10.00">boost/smart_ptr/intrusive</text>
<text text-anchor="middle" x="691" y="-141.5" font-family="Helvetica,sans-Serif" font-size="10.00">_ptr.hpp</text>
</g>
<!-- Node8&#45;&gt;Node16 -->
<g id="edge18" class="edge"><title>Node8&#45;&gt;Node16</title>
<path fill="none" stroke="midnightblue" d="M729.553,-201.475C723.857,-193.944 715.297,-182.626 707.689,-172.566"/>
<polygon fill="midnightblue" stroke="midnightblue" points="710.429,-170.388 701.606,-164.523 704.846,-174.61 710.429,-170.388"/>
</g>
<!-- Node8&#45;&gt;Node17 -->
<g id="edge19" class="edge"><title>Node8&#45;&gt;Node17</title>
<path fill="none" stroke="midnightblue" d="M756.506,-209.037C820.824,-205.79 1024.17,-193.788 1190,-165 1195.77,-163.999 1201.8,-162.736 1207.72,-161.374"/>
<polygon fill="midnightblue" stroke="midnightblue" points="1208.58,-164.768 1217.48,-159.019 1206.93,-157.963 1208.58,-164.768"/>
</g>
<!-- Node17&#45;&gt;Node2 -->
<g id="edge26" class="edge"><title>Node17&#45;&gt;Node2</title>
<path fill="none" stroke="midnightblue" d="M1203.75,-144.947C1157.81,-139.78 1084.98,-127.355 1029,-98 1010.89,-88.5034 1013.71,-75.2421 995,-67 970.842,-56.3608 585.726,-27.3512 470.39,-18.8629"/>
<polygon fill="midnightblue" stroke="midnightblue" points="470.321,-15.3485 460.092,-18.1068 469.809,-22.3297 470.321,-15.3485"/>
</g>
<!-- Node17&#45;&gt;Node6 -->
<g id="edge28" class="edge"><title>Node17&#45;&gt;Node6</title>
<path fill="none" stroke="midnightblue" d="M1205.84,-139.936C1147.72,-128.131 1043.06,-106.872 980.112,-94.0853"/>
<polygon fill="midnightblue" stroke="midnightblue" points="980.499,-90.5924 970.002,-92.0317 979.105,-97.4524 980.499,-90.5924"/>
</g>
<!-- Node17&#45;&gt;Node10 -->
<g id="edge21" class="edge"><title>Node17&#45;&gt;Node10</title>
<path fill="none" stroke="midnightblue" d="M1245.24,-139.839C1238.48,-118.58 1220.94,-63.4632 1211.78,-34.6506"/>
<polygon fill="midnightblue" stroke="midnightblue" points="1215.08,-33.4892 1208.71,-25.0212 1208.41,-35.6117 1215.08,-33.4892"/>
</g>
<!-- Node17&#45;&gt;Node12 -->
<g id="edge23" class="edge"><title>Node17&#45;&gt;Node12</title>
<path fill="none" stroke="midnightblue" d="M1289.83,-139.995C1353.46,-126.946 1468.1,-102.972 1476,-98 1501.04,-82.2466 1520.32,-53.1025 1530.91,-34.2715"/>
<polygon fill="midnightblue" stroke="midnightblue" points="1534.1,-35.7204 1535.75,-25.2554 1527.94,-32.4049 1534.1,-35.7204"/>
</g>
<!-- Node17&#45;&gt;Node13 -->
<g id="edge24" class="edge"><title>Node17&#45;&gt;Node13</title>
<path fill="none" stroke="midnightblue" d="M1203.71,-143.205C1131.6,-134.477 984.342,-116.216 860,-98 847.899,-96.2272 834.895,-94.1859 822.666,-92.2053"/>
<polygon fill="midnightblue" stroke="midnightblue" points="823.046,-88.7211 812.613,-90.563 821.918,-95.6296 823.046,-88.7211"/>
</g>
<!-- Node17&#45;&gt;Node14 -->
<g id="edge25" class="edge"><title>Node17&#45;&gt;Node14</title>
<path fill="none" stroke="midnightblue" d="M1203.79,-140.251C1167.24,-132.402 1114.61,-118.689 1072,-98 1050.81,-87.7093 1049.66,-78.3272 1029,-67 997.225,-49.5769 958.161,-34.9688 931.815,-26.0181"/>
<polygon fill="midnightblue" stroke="midnightblue" points="932.636,-22.6025 922.043,-22.7594 930.422,-29.243 932.636,-22.6025"/>
</g>
<!-- Node18 -->
<g id="node18" class="node"><title>Node18</title>
<polygon fill="white" stroke="#bfbfbf" points="1599,-73 1599,-92 1645,-92 1645,-73 1599,-73"/>
<text text-anchor="middle" x="1622" y="-80" font-family="Helvetica,sans-Serif" font-size="10.00">cstdint</text>
</g>
<!-- Node17&#45;&gt;Node18 -->
<g id="edge20" class="edge"><title>Node17&#45;&gt;Node18</title>
<path fill="none" stroke="midnightblue" d="M1292,-140.853C1367.7,-127.696 1520.94,-101.063 1588.6,-89.3043"/>
<polygon fill="midnightblue" stroke="midnightblue" points="1589.45,-92.7097 1598.7,-87.5491 1588.25,-85.8131 1589.45,-92.7097"/>
</g>
<!-- Node19 -->
<g id="node19" class="node"><title>Node19</title>
<polygon fill="white" stroke="#bfbfbf" points="1247.5,-73 1247.5,-92 1292.5,-92 1292.5,-73 1247.5,-73"/>
<text text-anchor="middle" x="1270" y="-80" font-family="Helvetica,sans-Serif" font-size="10.00">iosfwd</text>
</g>
<!-- Node17&#45;&gt;Node19 -->
<g id="edge22" class="edge"><title>Node17&#45;&gt;Node19</title>
<path fill="none" stroke="midnightblue" d="M1250.97,-139.734C1254.23,-130.085 1259.58,-114.3 1263.77,-101.906"/>
<polygon fill="midnightblue" stroke="midnightblue" points="1267.19,-102.722 1267.08,-92.1273 1260.56,-100.477 1267.19,-102.722"/>
</g>
<!-- Node20 -->
<g id="node20" class="node"><title>Node20</title>
<polygon fill="white" stroke="#bfbfbf" points="1311,-67.5 1311,-97.5 1411,-97.5 1411,-67.5 1311,-67.5"/>
<text text-anchor="start" x="1319" y="-85.5" font-family="Helvetica,sans-Serif" font-size="10.00">boost/container/flat</text>
<text text-anchor="middle" x="1361" y="-74.5" font-family="Helvetica,sans-Serif" font-size="10.00">_set.hpp</text>
</g>
<!-- Node17&#45;&gt;Node20 -->
<g id="edge27" class="edge"><title>Node17&#45;&gt;Node20</title>
<path fill="none" stroke="midnightblue" d="M1263.24,-139.734C1279.69,-130.274 1306.39,-114.914 1327.73,-102.636"/>
<polygon fill="midnightblue" stroke="midnightblue" points="1329.58,-105.609 1336.51,-97.589 1326.09,-99.5413 1329.58,-105.609"/>
</g>
<!-- Node21 -->
<g id="node21" class="node"><title>Node21</title>
<g id="a_node21"><a xlink:href="ext_8h.xhtml" target="_top" xlink:title="Helpful facilities as an extension to the standard library or Boost. ">
<polygon fill="white" stroke="black" points="1429,-73 1429,-92 1467,-92 1467,-73 1429,-73"/>
<text text-anchor="middle" x="1448" y="-80" font-family="Helvetica,sans-Serif" font-size="10.00">ext.h</text>
</a>
</g>
</g>
<!-- Node17&#45;&gt;Node21 -->
<g id="edge29" class="edge"><title>Node17&#45;&gt;Node21</title>
<path fill="none" stroke="midnightblue" d="M1284.59,-139.934C1319.89,-131.166 1374.51,-116.259 1420,-98 1421.2,-97.5182 1422.42,-97.0019 1423.64,-96.4615"/>
<polygon fill="midnightblue" stroke="midnightblue" points="1425.36,-99.5179 1432.84,-92.0213 1422.32,-93.2129 1425.36,-99.5179"/>
</g>
<!-- Node23 -->
<g id="node23" class="node"><title>Node23</title>
<g id="a_node23"><a xlink:href="linear__map_8h.xhtml" target="_top" xlink:title="Implementation of a vector&#45;based map for a small number of entries. ">
<polygon fill="white" stroke="black" points="1081,-73 1081,-92 1153,-92 1153,-73 1081,-73"/>
<text text-anchor="middle" x="1117" y="-80" font-family="Helvetica,sans-Serif" font-size="10.00">linear_map.h</text>
</a>
</g>
</g>
<!-- Node17&#45;&gt;Node23 -->
<g id="edge33" class="edge"><title>Node17&#45;&gt;Node23</title>
<path fill="none" stroke="midnightblue" d="M1230.6,-139.869C1208.39,-128.845 1169.71,-109.655 1143.74,-96.7678"/>
<polygon fill="midnightblue" stroke="midnightblue" points="1144.98,-93.4767 1134.47,-92.1672 1141.87,-99.7473 1144.98,-93.4767"/>
</g>
<!-- Node21&#45;&gt;Node10 -->
<g id="edge30" class="edge"><title>Node21&#45;&gt;Node10</title>
<path fill="none" stroke="midnightblue" d="M1433.2,-72.9733C1429.02,-70.8085 1424.41,-68.6355 1420,-67 1360.31,-44.8872 1287.58,-30.1553 1244.13,-22.571"/>
<polygon fill="midnightblue" stroke="midnightblue" points="1244.45,-19.0748 1234,-20.8406 1243.27,-25.9748 1244.45,-19.0748"/>
</g>
<!-- Node21&#45;&gt;Node12 -->
<g id="edge31" class="edge"><title>Node21&#45;&gt;Node12</title>
<path fill="none" stroke="midnightblue" d="M1460.41,-72.7338C1475.58,-62.0131 1501.48,-43.7165 1519.6,-30.9137"/>
<polygon fill="midnightblue" stroke="midnightblue" points="1521.64,-33.7562 1527.79,-25.1273 1517.6,-28.0391 1521.64,-33.7562"/>
</g>
<!-- Node22 -->
<g id="node22" class="node"><title>Node22</title>
<polygon fill="white" stroke="#bfbfbf" points="1386,-0.5 1386,-30.5 1496,-30.5 1496,-0.5 1386,-0.5"/>
<text text-anchor="start" x="1394" y="-18.5" font-family="Helvetica,sans-Serif" font-size="10.00">boost/range/algorithm</text>
<text text-anchor="middle" x="1441" y="-7.5" font-family="Helvetica,sans-Serif" font-size="10.00">/find_if.hpp</text>
</g>
<!-- Node21&#45;&gt;Node22 -->
<g id="edge32" class="edge"><title>Node21&#45;&gt;Node22</title>
<path fill="none" stroke="midnightblue" d="M1447.06,-72.7338C1446.17,-64.5406 1444.81,-51.9225 1443.61,-40.7136"/>
<polygon fill="midnightblue" stroke="midnightblue" points="1447.07,-40.1567 1442.52,-30.589 1440.11,-40.9063 1447.07,-40.1567"/>
</g>
<!-- Node23&#45;&gt;Node2 -->
<g id="edge38" class="edge"><title>Node23&#45;&gt;Node2</title>
<path fill="none" stroke="midnightblue" d="M1080.7,-74.8645C1064.86,-72.1394 1046.05,-69.1304 1029,-67 816.414,-40.4443 559.038,-23.6989 470.069,-18.3569"/>
<polygon fill="midnightblue" stroke="midnightblue" points="470.258,-14.8621 460.068,-17.762 469.843,-21.8497 470.258,-14.8621"/>
</g>
<!-- Node23&#45;&gt;Node4 -->
<g id="edge34" class="edge"><title>Node23&#45;&gt;Node4</title>
<path fill="none" stroke="midnightblue" d="M1080.62,-75.4364C1064.77,-72.8125 1045.97,-69.7246 1029,-67 924.061,-50.1514 799.821,-30.9313 740.663,-21.8239"/>
<polygon fill="midnightblue" stroke="midnightblue" points="741.145,-18.357 730.73,-20.2955 740.081,-25.2756 741.145,-18.357"/>
</g>
<!-- Node23&#45;&gt;Node10 -->
<g id="edge35" class="edge"><title>Node23&#45;&gt;Node10</title>
<path fill="none" stroke="midnightblue" d="M1129,-72.7338C1143.55,-62.1106 1168.28,-44.0485 1185.78,-31.2642"/>
<polygon fill="midnightblue" stroke="midnightblue" points="1188.18,-33.8517 1194.19,-25.1273 1184.05,-28.1988 1188.18,-33.8517"/>
</g>
<!-- Node23&#45;&gt;Node14 -->
<g id="edge39" class="edge"><title>Node23&#45;&gt;Node14</title>
<path fill="none" stroke="midnightblue" d="M1088.45,-72.8685C1047.7,-60.5481 973.209,-38.0283 931.787,-25.5053"/>
<polygon fill="midnightblue" stroke="midnightblue" points="932.594,-22.0929 922.009,-22.5492 930.568,-28.7934 932.594,-22.0929"/>
</g>
<!-- Node24 -->
<g id="node24" class="node"><title>Node24</title>
<polygon fill="white" stroke="#bfbfbf" points="1002.5,-6 1002.5,-25 1075.5,-25 1075.5,-6 1002.5,-6"/>
<text text-anchor="middle" x="1039" y="-13" font-family="Helvetica,sans-Serif" font-size="10.00">initializer_list</text>
</g>
<!-- Node23&#45;&gt;Node24 -->
<g id="edge36" class="edge"><title>Node23&#45;&gt;Node24</title>
<path fill="none" stroke="midnightblue" d="M1106.48,-72.7338C1093.85,-62.208 1072.46,-44.3793 1057.14,-31.6174"/>
<polygon fill="midnightblue" stroke="midnightblue" points="1059.28,-28.8404 1049.35,-25.1273 1054.79,-34.218 1059.28,-28.8404"/>
</g>
<!-- Node25 -->
<g id="node25" class="node"><title>Node25</title>
<polygon fill="white" stroke="#bfbfbf" points="1093.5,-6 1093.5,-25 1152.5,-25 1152.5,-6 1093.5,-6"/>
<text text-anchor="middle" x="1123" y="-13" font-family="Helvetica,sans-Serif" font-size="10.00">stdexcept</text>
</g>
<!-- Node23&#45;&gt;Node25 -->
<g id="edge37" class="edge"><title>Node23&#45;&gt;Node25</title>
<path fill="none" stroke="midnightblue" d="M1117.81,-72.7338C1118.69,-63.1826 1120.13,-47.6183 1121.27,-35.2829"/>
<polygon fill="midnightblue" stroke="midnightblue" points="1124.77,-35.4067 1122.2,-25.1273 1117.8,-34.7632 1124.77,-35.4067"/>
</g>
<!-- Node26&#45;&gt;Node2 -->
<g id="edge48" class="edge"><title>Node26&#45;&gt;Node2</title>
<path fill="none" stroke="midnightblue" d="M880.314,-265.76C706.515,-264.618 166.5,-258.093 98,-221 60.4119,-200.646 40.6421,-173.492 57,-134 73.1156,-95.0935 86.5006,-86.1632 124,-67 172.987,-41.9662 335.966,-25.3067 405.792,-19.1526"/>
<polygon fill="midnightblue" stroke="midnightblue" points="406.121,-22.6374 415.782,-18.2882 405.517,-15.6634 406.121,-22.6374"/>
</g>
<!-- Node26&#45;&gt;Node3 -->
<g id="edge49" class="edge"><title>Node26&#45;&gt;Node3</title>
<path fill="none" stroke="midnightblue" d="M880.346,-265.209C758.776,-262.871 453.208,-253.927 200,-221 198.711,-220.832 197.404,-220.65 196.086,-220.454"/>
<polygon fill="midnightblue" stroke="midnightblue" points="196.333,-216.947 185.893,-218.754 195.181,-223.852 196.333,-216.947"/>
</g>
<!-- Node26&#45;&gt;Node5 -->
<g id="edge45" class="edge"><title>Node26&#45;&gt;Node5</title>
<path fill="none" stroke="midnightblue" d="M880.453,-263.111C770.799,-255.953 513.853,-232.77 310,-165 259.241,-148.125 204.956,-116.22 175.702,-97.7305"/>
<polygon fill="midnightblue" stroke="midnightblue" points="177.429,-94.68 167.12,-92.2349 173.654,-100.575 177.429,-94.68"/>
</g>
<!-- Node26&#45;&gt;Node7 -->
<g id="edge65" class="edge"><title>Node26&#45;&gt;Node7</title>
<path fill="none" stroke="midnightblue" d="M880.304,-264.769C702.842,-260.478 144.746,-245.114 115,-221 99.7987,-208.677 96.0218,-185.579 95.4187,-169.183"/>
<polygon fill="midnightblue" stroke="midnightblue" points="98.9187,-169.113 95.4068,-159.117 91.9187,-169.121 98.9187,-169.113"/>
</g>
<!-- Node26&#45;&gt;Node12 -->
<g id="edge44" class="edge"><title>Node26&#45;&gt;Node12</title>
<path fill="none" stroke="midnightblue" d="M987.557,-264.483C1141.81,-259.85 1579.92,-244.737 1640,-221 1649.29,-217.33 1785.87,-102.555 1788,-98 1793.83,-85.5158 1796.72,-77.6701 1788,-67 1761.72,-34.8324 1638.99,-22.6343 1576.61,-18.4546"/>
<polygon fill="midnightblue" stroke="midnightblue" points="1576.62,-14.9483 1566.42,-17.8073 1576.18,-21.9342 1576.62,-14.9483"/>
</g>
<!-- Node26&#45;&gt;Node13 -->
<g id="edge46" class="edge"><title>Node26&#45;&gt;Node13</title>
<path fill="none" stroke="midnightblue" d="M926.138,-257.198C900.479,-228.469 818.916,-137.148 785.495,-99.7288"/>
<polygon fill="midnightblue" stroke="midnightblue" points="788.055,-97.3409 778.783,-92.214 782.834,-102.004 788.055,-97.3409"/>
</g>
<!-- Node26&#45;&gt;Node17 -->
<g id="edge50" class="edge"><title>Node26&#45;&gt;Node17</title>
<path fill="none" stroke="midnightblue" d="M987.584,-263.414C1036.26,-259.293 1108.95,-248.621 1166,-221 1193.34,-207.764 1218.88,-183.098 1233.97,-166.737"/>
<polygon fill="midnightblue" stroke="midnightblue" points="1236.8,-168.826 1240.86,-159.042 1231.58,-164.155 1236.8,-168.826"/>
</g>
<!-- Node26&#45;&gt;Node18 -->
<g id="edge43" class="edge"><title>Node26&#45;&gt;Node18</title>
<path fill="none" stroke="midnightblue" d="M987.616,-263.29C1123.49,-255.532 1477.31,-229.505 1573,-165 1595.42,-149.887 1609.21,-120.757 1616.23,-101.728"/>
<polygon fill="midnightblue" stroke="midnightblue" points="1619.6,-102.706 1619.53,-92.1118 1612.97,-100.438 1619.6,-102.706"/>
</g>
<!-- Node27 -->
<g id="node27" class="node"><title>Node27</title>
<polygon fill="white" stroke="#bfbfbf" points="1079,-201.5 1079,-220.5 1157,-220.5 1157,-201.5 1079,-201.5"/>
<text text-anchor="middle" x="1118" y="-208.5" font-family="Helvetica,sans-Serif" font-size="10.00">unordered_set</text>
</g>
<!-- Node26&#45;&gt;Node27 -->
<g id="edge47" class="edge"><title>Node26&#45;&gt;Node27</title>
<path fill="none" stroke="midnightblue" d="M963.155,-257.444C994.513,-248.241 1044.53,-233.562 1079.2,-223.388"/>
<polygon fill="midnightblue" stroke="midnightblue" points="1080.37,-226.691 1088.98,-220.516 1078.4,-219.974 1080.37,-226.691"/>
</g>
<!-- Node28 -->
<g id="node28" class="node"><title>Node28</title>
<g id="a_node28"><a xlink:href="logger_8h.xhtml" target="_top" xlink:title="Logging capability for various purposes, such as warnings and debugging. ">
<polygon fill="white" stroke="black" points="1648.5,-140 1648.5,-159 1699.5,-159 1699.5,-140 1648.5,-140"/>
<text text-anchor="middle" x="1674" y="-147" font-family="Helvetica,sans-Serif" font-size="10.00">logger.h</text>
</a>
</g>
</g>
<!-- Node26&#45;&gt;Node28 -->
<g id="edge51" class="edge"><title>Node26&#45;&gt;Node28</title>
<path fill="none" stroke="midnightblue" d="M987.766,-264.782C1138.3,-261.044 1556.61,-248.295 1612,-221 1635.34,-209.496 1653.69,-184.919 1664.19,-168.05"/>
<polygon fill="midnightblue" stroke="midnightblue" points="1667.36,-169.555 1669.44,-159.166 1661.34,-165.991 1667.36,-169.555"/>
</g>
<!-- Node31 -->
<g id="node31" class="node"><title>Node31</title>
<g id="a_node31"><a xlink:href="preprocessor_8h.xhtml" target="_top" xlink:title="A collection of Boolean graph preprocessing algorithms that simplify fault trees for analysis...">
<polygon fill="white" stroke="black" points="979.5,-201.5 979.5,-220.5 1060.5,-220.5 1060.5,-201.5 979.5,-201.5"/>
<text text-anchor="middle" x="1020" y="-208.5" font-family="Helvetica,sans-Serif" font-size="10.00">preprocessor.h</text>
</a>
</g>
</g>
<!-- Node26&#45;&gt;Node31 -->
<g id="edge56" class="edge"><title>Node26&#45;&gt;Node31</title>
<path fill="none" stroke="midnightblue" d="M947.817,-257.324C961.233,-248.9 981.824,-235.971 997.586,-226.074"/>
<polygon fill="midnightblue" stroke="midnightblue" points="999.609,-228.936 1006.22,-220.655 995.887,-223.008 999.609,-228.936"/>
</g>
<!-- Node28&#45;&gt;Node6 -->
<g id="edge55" class="edge"><title>Node28&#45;&gt;Node6</title>
<path fill="none" stroke="midnightblue" d="M1648.12,-145.126C1623.25,-141.961 1584.6,-137.242 1551,-134 1338.5,-113.498 1284.67,-116.696 1072,-98 1047.47,-95.8436 1020.62,-93.2133 996.818,-90.7879"/>
<polygon fill="midnightblue" stroke="midnightblue" points="997.125,-87.3011 986.82,-89.763 996.411,-94.2646 997.125,-87.3011"/>
</g>
<!-- Node28&#45;&gt;Node18 -->
<g id="edge52" class="edge"><title>Node28&#45;&gt;Node18</title>
<path fill="none" stroke="midnightblue" d="M1666.99,-139.734C1658.88,-129.598 1645.35,-112.69 1635.24,-100.056"/>
<polygon fill="midnightblue" stroke="midnightblue" points="1637.88,-97.7496 1628.9,-92.1273 1632.42,-102.122 1637.88,-97.7496"/>
</g>
<!-- Node29 -->
<g id="node29" class="node"><title>Node29</title>
<polygon fill="white" stroke="#bfbfbf" points="1733,-73 1733,-92 1779,-92 1779,-73 1733,-73"/>
<text text-anchor="middle" x="1756" y="-80" font-family="Helvetica,sans-Serif" font-size="10.00">chrono</text>
</g>
<!-- Node28&#45;&gt;Node29 -->
<g id="edge53" class="edge"><title>Node28&#45;&gt;Node29</title>
<path fill="none" stroke="midnightblue" d="M1685.06,-139.734C1698.34,-129.208 1720.83,-111.379 1736.93,-98.6174"/>
<polygon fill="midnightblue" stroke="midnightblue" points="1739.45,-101.082 1745.12,-92.1273 1735.11,-95.5965 1739.45,-101.082"/>
</g>
<!-- Node30 -->
<g id="node30" class="node"><title>Node30</title>
<polygon fill="white" stroke="#bfbfbf" points="1663,-73 1663,-92 1715,-92 1715,-73 1663,-73"/>
<text text-anchor="middle" x="1689" y="-80" font-family="Helvetica,sans-Serif" font-size="10.00">sstream</text>
</g>
<!-- Node28&#45;&gt;Node30 -->
<g id="edge54" class="edge"><title>Node28&#45;&gt;Node30</title>
<path fill="none" stroke="midnightblue" d="M1676.02,-139.734C1678.25,-130.085 1681.89,-114.3 1684.75,-101.906"/>
<polygon fill="midnightblue" stroke="midnightblue" points="1688.17,-102.658 1687.01,-92.1273 1681.35,-101.084 1688.17,-102.658"/>
</g>
<!-- Node31&#45;&gt;Node2 -->
<g id="edge61" class="edge"><title>Node31&#45;&gt;Node2</title>
<path fill="none" stroke="midnightblue" d="M994.241,-201.436C899.927,-170.079 573.549,-61.5665 469.874,-27.0972"/>
<polygon fill="midnightblue" stroke="midnightblue" points="470.868,-23.7394 460.274,-23.9056 468.659,-30.3819 470.868,-23.7394"/>
</g>
<!-- Node31&#45;&gt;Node6 -->
<g id="edge62" class="edge"><title>Node31&#45;&gt;Node6</title>
<path fill="none" stroke="midnightblue" d="M1023.41,-201.263C1028.66,-186.284 1036.84,-155.264 1024,-134 1012.76,-115.383 992.121,-103.285 972.854,-95.6142"/>
<polygon fill="midnightblue" stroke="midnightblue" points="973.852,-92.2522 963.258,-92.095 971.442,-98.8242 973.852,-92.2522"/>
</g>
<!-- Node31&#45;&gt;Node12 -->
<g id="edge57" class="edge"><title>Node31&#45;&gt;Node12</title>
<path fill="none" stroke="midnightblue" d="M1060.6,-202.329C1063.78,-201.84 1066.94,-201.389 1070,-201 1123.17,-194.244 1514.55,-204.285 1551,-165 1584.18,-129.247 1562.48,-65.5333 1548.77,-34.4929"/>
<polygon fill="midnightblue" stroke="midnightblue" points="1551.89,-32.9112 1544.51,-25.3064 1545.54,-35.8516 1551.89,-32.9112"/>
</g>
<!-- Node31&#45;&gt;Node13 -->
<g id="edge59" class="edge"><title>Node31&#45;&gt;Node13</title>
<path fill="none" stroke="midnightblue" d="M1009.65,-201.484C990.8,-186.295 949.189,-154.23 910,-134 877.959,-117.46 839.24,-103.869 810.813,-94.9693"/>
<polygon fill="midnightblue" stroke="midnightblue" points="811.802,-91.6117 801.215,-92.0199 809.745,-98.3029 811.802,-91.6117"/>
</g>
<!-- Node31&#45;&gt;Node14 -->
<g id="edge60" class="edge"><title>Node31&#45;&gt;Node14</title>
<path fill="none" stroke="midnightblue" d="M1014.04,-201.307C1003.03,-185.838 978.062,-153.343 950,-134 914.529,-109.551 884.153,-133.674 860,-98 845.374,-76.3968 866.691,-49.0493 883.923,-32.1679"/>
<polygon fill="midnightblue" stroke="midnightblue" points="886.47,-34.5792 891.409,-25.2062 881.703,-29.4531 886.47,-34.5792"/>
</g>
<!-- Node31&#45;&gt;Node17 -->
<g id="edge64" class="edge"><title>Node31&#45;&gt;Node17</title>
<path fill="none" stroke="midnightblue" d="M1052.67,-201.475C1092.88,-190.982 1161.26,-173.137 1205.52,-161.587"/>
<polygon fill="midnightblue" stroke="midnightblue" points="1206.6,-164.921 1215.39,-159.009 1204.83,-158.148 1206.6,-164.921"/>
</g>
<!-- Node32 -->
<g id="node32" class="node"><title>Node32</title>
<polygon fill="white" stroke="#bfbfbf" points="1365,-140 1365,-159 1395,-159 1395,-140 1365,-140"/>
<text text-anchor="middle" x="1380" y="-147" font-family="Helvetica,sans-Serif" font-size="10.00">set</text>
</g>
<!-- Node31&#45;&gt;Node32 -->
<g id="edge58" class="edge"><title>Node31&#45;&gt;Node32</title>
<path fill="none" stroke="midnightblue" d="M1060.63,-202.509C1063.8,-201.979 1066.95,-201.47 1070,-201 1194.44,-181.841 1230.55,-201.671 1351,-165 1352.67,-164.493 1354.35,-163.896 1356.03,-163.24"/>
<polygon fill="midnightblue" stroke="midnightblue" points="1357.68,-166.335 1365.35,-159.022 1354.79,-159.959 1357.68,-166.335"/>
</g>
<!-- Node33 -->
<g id="node33" class="node"><title>Node33</title>
<polygon fill="white" stroke="#bfbfbf" points="1413.5,-140 1413.5,-159 1542.5,-159 1542.5,-140 1413.5,-140"/>
<text text-anchor="middle" x="1478" y="-147" font-family="Helvetica,sans-Serif" font-size="10.00">boost/unordered_map.hpp</text>
</g>
<!-- Node31&#45;&gt;Node33 -->
<g id="edge63" class="edge"><title>Node31&#45;&gt;Node33</title>
<path fill="none" stroke="midnightblue" d="M1060.62,-202.44C1063.79,-201.926 1066.94,-201.439 1070,-201 1217.79,-179.762 1256.38,-187.376 1404,-165 1411.74,-163.827 1419.89,-162.412 1427.85,-160.931"/>
<polygon fill="midnightblue" stroke="midnightblue" points="1428.62,-164.348 1437.78,-159.034 1427.3,-157.473 1428.62,-164.348"/>
</g>
</g>
</svg>
        <g id="navigator" transform="translate(0 0)" fill="#404254">
                <rect fill="#f2f5e9" fill-opacity="0.5" stroke="#606060" stroke-width=".5" x="0" y="0" width="60" height="60"/>
                <use id="zoomplus" xlink:href="#zoomPlus" x="17" y="9" onmousedown="handleZoom(evt,'in')"/>
                <use id="zoomminus" xlink:href="#zoomMin" x="42" y="9" onmousedown="handleZoom(evt,'out')"/>
                <use id="reset" xlink:href="#resetDef" x="30" y="36" onmousedown="handleReset()"/>
                <g id="arrowUp" xlink:href="#dirArrow" transform="translate(30 24)" onmousedown="handlePan(0,-1)">
                  <use xlink:href="#rim" fill="#404040">
                        <set attributeName="fill" to="#808080" begin="arrowUp.mouseover" end="arrowUp.mouseout"/>
                  </use>
                  <path fill="none" stroke="white" stroke-width="1.5" d="M0,-3.0v7 M-2.5,-0.5L0,-3.0L2.5,-0.5"/>
                </g>
                <g id="arrowRight" xlink:href="#dirArrow" transform="rotate(90) translate(36 -43)" onmousedown="handlePan(1,0)">
                  <use xlink:href="#rim" fill="#404040">
                        <set attributeName="fill" to="#808080" begin="arrowRight.mouseover" end="arrowRight.mouseout"/>
                  </use>
                  <path fill="none" stroke="white" stroke-width="1.5" d="M0,-3.0v7 M-2.5,-0.5L0,-3.0L2.5,-0.5"/>
                </g>
                <g id="arrowDown" xlink:href="#dirArrow" transform="rotate(180) translate(-30 -48)" onmousedown="handlePan(0,1)">
                  <use xlink:href="#rim" fill="#404040">
                        <set attributeName="fill" to="#808080" begin="arrowDown.mouseover" end="arrowDown.mouseout"/>
                  </use>
                  <path fill="none" stroke="white" stroke-width="1.5" d="M0,-3.0v7 M-2.5,-0.5L0,-3.0L2.5,-0.5"/>
                </g>
                <g id="arrowLeft" xlink:href="#dirArrow" transform="rotate(270) translate(-36 17)" onmousedown="handlePan(-1,0)">
                  <use xlink:href="#rim" fill="#404040">
                        <set attributeName="fill" to="#808080" begin="arrowLeft.mouseover" end="arrowLeft.mouseout"/>
                  </use>
                  <path fill="none" stroke="white" stroke-width="1.5" d="M0,-3.0v7 M-2.5,-0.5L0,-3.0L2.5,-0.5"/>
                </g>
        </g>
        <svg viewBox="0 0 15 15" width="100%" height="30px" preserveAspectRatio="xMaxYMin meet">
         <g id="arrow_out" transform="scale(0.3 0.3)">
          <a xlink:href="probability__analysis_8h__incl_org.svg" target="_base">
           <rect id="button" ry="5" rx="5" y="6" x="6" height="38" width="38"
                fill="#f2f5e9" fill-opacity="0.5" stroke="#606060" stroke-width="1.0"/>
           <path id="arrow"
             d="M 11.500037,31.436501 C 11.940474,20.09759 22.043105,11.32322 32.158766,21.979434 L 37.068811,17.246167 C 37.068811,17.246167 37.088388,32 37.088388,32 L 22.160133,31.978069 C 22.160133,31.978069 26.997745,27.140456 26.997745,27.140456 C 18.528582,18.264221 13.291696,25.230495 11.500037,31.436501 z"
             style="fill:#404040;"/>
          </a>
         </g>
        </svg>
</svg>
