<?xml version="1.0" encoding="UTF-8" standalone="no"?>
<!DOCTYPE svg PUBLIC "-//W3C//DTD SVG 1.1//EN"
 "http://www.w3.org/Graphics/SVG/1.1/DTD/svg11.dtd">
<!-- Generated by graphviz version 2.38.0 (20140413.2041)
 -->
<!-- Title: random.h Pages: 1 -->
<svg width="293pt" height="84pt"
 viewBox="0.00 0.00 293.00 84.00" xmlns="http://www.w3.org/2000/svg" xmlns:xlink="http://www.w3.org/1999/xlink">
<g id="graph0" class="graph" transform="scale(1 1) rotate(0) translate(4 80)">
<title>random.h</title>
<polygon fill="white" stroke="none" points="-4,4 -4,-80 289,-80 289,4 -4,4"/>
<!-- Node1 -->
<g id="node1" class="node"><title>Node1</title>
<polygon fill="#bfbfbf" stroke="black" points="120,-56.5 120,-75.5 177,-75.5 177,-56.5 120,-56.5"/>
<text text-anchor="middle" x="148.5" y="-63.5" font-family="Helvetica,sans-Serif" font-size="10.00">random.h</text>
</g>
<!-- Node2 -->
<g id="node2" class="node"><title>Node2</title>
<g id="a_node2"><a xlink:href="random__deviate_8cc.xhtml" target="_top" xlink:title="Implementations of random deviate expressions. ">
<polygon fill="white" stroke="black" points="0,-0.5 0,-19.5 99,-19.5 99,-0.5 0,-0.5"/>
<text text-anchor="middle" x="49.5" y="-7.5" font-family="Helvetica,sans-Serif" font-size="10.00">random_deviate.cc</text>
</a>
</g>
</g>
<!-- Node1&#45;&gt;Node2 -->
<g id="edge1" class="edge"><title>Node1&#45;&gt;Node2</title>
<path fill="none" stroke="midnightblue" d="M123.663,-51.4526C105.386,-41.4835 81.0844,-28.2279 65.3666,-19.6545"/>
<polygon fill="midnightblue" stroke="midnightblue" points="122.139,-54.608 132.594,-56.324 125.491,-48.4628 122.139,-54.608"/>
</g>
<!-- Node3 -->
<g id="node3" class="node"><title>Node3</title>
<g id="a_node3"><a xlink:href="random_8cc.xhtml" target="_top" xlink:title="Implementation file of various RNGs. ">
<polygon fill="white" stroke="black" points="117.5,-0.5 117.5,-19.5 179.5,-19.5 179.5,-0.5 117.5,-0.5"/>
<text text-anchor="middle" x="148.5" y="-7.5" font-family="Helvetica,sans-Serif" font-size="10.00">random.cc</text>
</a>
</g>
</g>
<!-- Node1&#45;&gt;Node3 -->
<g id="edge2" class="edge"><title>Node1&#45;&gt;Node3</title>
<path fill="none" stroke="midnightblue" d="M148.5,-45.8045C148.5,-36.9102 148.5,-26.7798 148.5,-19.7511"/>
<polygon fill="midnightblue" stroke="midnightblue" points="145,-46.083 148.5,-56.083 152,-46.083 145,-46.083"/>
</g>
<!-- Node4 -->
<g id="node4" class="node"><title>Node4</title>
<g id="a_node4"><a xlink:href="risk__analysis_8cc.xhtml" target="_top" xlink:title="Implementation of risk analysis handler. ">
<polygon fill="white" stroke="black" points="198,-0.5 198,-19.5 285,-19.5 285,-0.5 198,-0.5"/>
<text text-anchor="middle" x="241.5" y="-7.5" font-family="Helvetica,sans-Serif" font-size="10.00">risk_analysis.cc</text>
</a>
</g>
</g>
<!-- Node1&#45;&gt;Node4 -->
<g id="edge3" class="edge"><title>Node1&#45;&gt;Node4</title>
<path fill="none" stroke="midnightblue" d="M172.306,-51.1774C189.419,-41.2407 211.965,-28.1492 226.595,-19.6545"/>
<polygon fill="midnightblue" stroke="midnightblue" points="170.332,-48.2758 163.442,-56.324 173.847,-54.3293 170.332,-48.2758"/>
</g>
</g>
</svg>
