<?xml version="1.0" encoding="UTF-8" standalone="no"?>
<!DOCTYPE svg PUBLIC "-//W3C//DTD SVG 1.1//EN"
 "http://www.w3.org/Graphics/SVG/1.1/DTD/svg11.dtd">
<!-- Generated by graphviz version 2.38.0 (20140413.2041)
 -->
<!-- Title: random_deviate.h Pages: 1 -->
<svg width="633pt" height="207pt"
 viewBox="0.00 0.00 633.00 207.00" xmlns="http://www.w3.org/2000/svg" xmlns:xlink="http://www.w3.org/1999/xlink">
<g id="graph0" class="graph" transform="scale(1 1) rotate(0) translate(4 203)">
<title>random_deviate.h</title>
<polygon fill="white" stroke="none" points="-4,4 -4,-203 629,-203 629,4 -4,4"/>
<!-- Node1 -->
<g id="node1" class="node"><title>Node1</title>
<polygon fill="#bfbfbf" stroke="black" points="380,-179.5 380,-198.5 474,-198.5 474,-179.5 380,-179.5"/>
<text text-anchor="middle" x="427" y="-186.5" font-family="Helvetica,sans-Serif" font-size="10.00">random_deviate.h</text>
</g>
<!-- Node2 -->
<g id="node2" class="node"><title>Node2</title>
<polygon fill="white" stroke="#bfbfbf" points="324,-123.5 324,-142.5 364,-142.5 364,-123.5 324,-123.5"/>
<text text-anchor="middle" x="344" y="-130.5" font-family="Helvetica,sans-Serif" font-size="10.00">utility</text>
</g>
<!-- Node1&#45;&gt;Node2 -->
<g id="edge1" class="edge"><title>Node1&#45;&gt;Node2</title>
<path fill="none" stroke="midnightblue" d="M413.665,-179.324C400.838,-170.979 381.215,-158.212 366.06,-148.352"/>
<polygon fill="midnightblue" stroke="midnightblue" points="367.593,-145.174 357.302,-142.655 363.776,-151.042 367.593,-145.174"/>
</g>
<!-- Node3 -->
<g id="node3" class="node"><title>Node3</title>
<polygon fill="white" stroke="#bfbfbf" points="581,-6 581,-25 625,-25 625,-6 581,-6"/>
<text text-anchor="middle" x="603" y="-13" font-family="Helvetica,sans-Serif" font-size="10.00">vector</text>
</g>
<!-- Node1&#45;&gt;Node3 -->
<g id="edge2" class="edge"><title>Node1&#45;&gt;Node3</title>
<path fill="none" stroke="midnightblue" d="M444.616,-179.443C474.034,-164.389 533.523,-130.588 570,-87 582.981,-71.4884 592.064,-50.0162 597.369,-34.8554"/>
<polygon fill="midnightblue" stroke="midnightblue" points="600.775,-35.6997 600.566,-25.107 594.124,-33.5183 600.775,-35.6997"/>
</g>
<!-- Node4 -->
<g id="node4" class="node"><title>Node4</title>
<g id="a_node4"><a xlink:href="expression_8h.xhtml" target="_top" xlink:title="Provides the base class for all expressions and units for expression values. ">
<polygon fill="white" stroke="black" points="382.5,-123.5 382.5,-142.5 471.5,-142.5 471.5,-123.5 382.5,-123.5"/>
<text text-anchor="middle" x="427" y="-130.5" font-family="Helvetica,sans-Serif" font-size="10.00">src/expression.h</text>
</a>
</g>
</g>
<!-- Node1&#45;&gt;Node4 -->
<g id="edge3" class="edge"><title>Node1&#45;&gt;Node4</title>
<path fill="none" stroke="midnightblue" d="M427,-179.083C427,-172.006 427,-161.861 427,-152.986"/>
<polygon fill="midnightblue" stroke="midnightblue" points="430.5,-152.751 427,-142.751 423.5,-152.751 430.5,-152.751"/>
</g>
<!-- Node4&#45;&gt;Node3 -->
<g id="edge6" class="edge"><title>Node4&#45;&gt;Node3</title>
<path fill="none" stroke="midnightblue" d="M463.174,-123.466C487.829,-116.444 520.345,-104.727 545,-87 565.035,-72.5955 582.152,-49.6368 592.491,-33.8559"/>
<polygon fill="midnightblue" stroke="midnightblue" points="595.641,-35.4231 598.018,-25.0984 589.721,-31.6872 595.641,-35.4231"/>
</g>
<!-- Node5 -->
<g id="node5" class="node"><title>Node5</title>
<polygon fill="white" stroke="#bfbfbf" points="0,-6 0,-25 46,-25 46,-6 0,-6"/>
<text text-anchor="middle" x="23" y="-13" font-family="Helvetica,sans-Serif" font-size="10.00">cstdint</text>
</g>
<!-- Node4&#45;&gt;Node5 -->
<g id="edge4" class="edge"><title>Node4&#45;&gt;Node5</title>
<path fill="none" stroke="midnightblue" d="M387.535,-123.482C318.901,-108.184 173.544,-73.6393 55,-31 53.3822,-30.4181 51.7328,-29.7886 50.0782,-29.1289"/>
<polygon fill="midnightblue" stroke="midnightblue" points="51.3027,-25.8462 40.7312,-25.1439 48.5574,-32.2854 51.3027,-25.8462"/>
</g>
<!-- Node6 -->
<g id="node6" class="node"><title>Node6</title>
<polygon fill="white" stroke="#bfbfbf" points="349,-67.5 349,-86.5 401,-86.5 401,-67.5 349,-67.5"/>
<text text-anchor="middle" x="375" y="-74.5" font-family="Helvetica,sans-Serif" font-size="10.00">memory</text>
</g>
<!-- Node4&#45;&gt;Node6 -->
<g id="edge5" class="edge"><title>Node4&#45;&gt;Node6</title>
<path fill="none" stroke="midnightblue" d="M418.413,-123.083C410.841,-115.22 399.622,-103.569 390.486,-94.0813"/>
<polygon fill="midnightblue" stroke="midnightblue" points="392.885,-91.5266 383.427,-86.7511 387.842,-96.3821 392.885,-91.5266"/>
</g>
<!-- Node7 -->
<g id="node7" class="node"><title>Node7</title>
<polygon fill="white" stroke="#bfbfbf" points="419.5,-67.5 419.5,-86.5 536.5,-86.5 536.5,-67.5 419.5,-67.5"/>
<text text-anchor="middle" x="478" y="-74.5" font-family="Helvetica,sans-Serif" font-size="10.00">boost/noncopyable.hpp</text>
</g>
<!-- Node4&#45;&gt;Node7 -->
<g id="edge7" class="edge"><title>Node4&#45;&gt;Node7</title>
<path fill="none" stroke="midnightblue" d="M435.422,-123.083C442.848,-115.22 453.852,-103.569 462.812,-94.0813"/>
<polygon fill="midnightblue" stroke="midnightblue" points="465.413,-96.4244 469.735,-86.7511 460.324,-91.618 465.413,-96.4244"/>
</g>
<!-- Node8 -->
<g id="node8" class="node"><title>Node8</title>
<g id="a_node8"><a xlink:href="element_8h.xhtml" target="_top" xlink:title="Helper classes, structs, and properties common to all other classes. ">
<polygon fill="white" stroke="black" points="271.5,-67.5 271.5,-86.5 330.5,-86.5 330.5,-67.5 271.5,-67.5"/>
<text text-anchor="middle" x="301" y="-74.5" font-family="Helvetica,sans-Serif" font-size="10.00">element.h</text>
</a>
</g>
</g>
<!-- Node4&#45;&gt;Node8 -->
<g id="edge8" class="edge"><title>Node4&#45;&gt;Node8</title>
<path fill="none" stroke="midnightblue" d="M407.035,-123.444C386.391,-114.596 353.937,-100.687 330.368,-90.5865"/>
<polygon fill="midnightblue" stroke="midnightblue" points="331.442,-87.2387 320.872,-86.5164 328.684,-93.6727 331.442,-87.2387"/>
</g>
<!-- Node8&#45;&gt;Node3 -->
<g id="edge11" class="edge"><title>Node8&#45;&gt;Node3</title>
<path fill="none" stroke="midnightblue" d="M330.763,-68.8965C333.875,-68.2241 336.998,-67.5785 340,-67 442.46,-47.2554 472.184,-61.4099 572,-31 573.876,-30.4286 575.783,-29.7635 577.682,-29.0385"/>
<polygon fill="midnightblue" stroke="midnightblue" points="579.123,-32.2288 586.933,-25.0691 576.363,-25.796 579.123,-32.2288"/>
</g>
<!-- Node8&#45;&gt;Node5 -->
<g id="edge9" class="edge"><title>Node8&#45;&gt;Node5</title>
<path fill="none" stroke="midnightblue" d="M271.28,-72.9401C224.462,-67.5938 131.036,-54.7867 55,-31 53.1227,-30.4127 51.2105,-29.7433 49.3021,-29.0217"/>
<polygon fill="midnightblue" stroke="midnightblue" points="50.5457,-25.7481 39.9696,-25.1185 47.8447,-32.206 50.5457,-25.7481"/>
</g>
<!-- Node9 -->
<g id="node9" class="node"><title>Node9</title>
<polygon fill="white" stroke="#bfbfbf" points="64.5,-6 64.5,-25 105.5,-25 105.5,-6 64.5,-6"/>
<text text-anchor="middle" x="85" y="-13" font-family="Helvetica,sans-Serif" font-size="10.00">string</text>
</g>
<!-- Node8&#45;&gt;Node9 -->
<g id="edge10" class="edge"><title>Node8&#45;&gt;Node9</title>
<path fill="none" stroke="midnightblue" d="M271.239,-71.004C233.822,-64.2344 167.954,-50.6887 114,-31 112.612,-30.4935 111.204,-29.9384 109.794,-29.35"/>
<polygon fill="midnightblue" stroke="midnightblue" points="111.214,-26.1507 100.667,-25.1459 108.285,-32.5086 111.214,-26.1507"/>
</g>
<!-- Node10 -->
<g id="node10" class="node"><title>Node10</title>
<polygon fill="white" stroke="#bfbfbf" points="123.5,-6 123.5,-25 280.5,-25 280.5,-6 123.5,-6"/>
<text text-anchor="middle" x="202" y="-13" font-family="Helvetica,sans-Serif" font-size="10.00">boost/multi_index_container.hpp</text>
</g>
<!-- Node8&#45;&gt;Node10 -->
<g id="edge12" class="edge"><title>Node8&#45;&gt;Node10</title>
<path fill="none" stroke="midnightblue" d="M286.816,-67.4751C270.642,-57.7548 243.974,-41.7266 224.857,-30.2372"/>
<polygon fill="midnightblue" stroke="midnightblue" points="226.532,-27.1606 216.158,-25.0091 222.926,-33.1603 226.532,-27.1606"/>
</g>
<!-- Node11 -->
<g id="node11" class="node"><title>Node11</title>
<polygon fill="white" stroke="#bfbfbf" points="299,-0.5 299,-30.5 427,-30.5 427,-0.5 299,-0.5"/>
<text text-anchor="start" x="307" y="-18.5" font-family="Helvetica,sans-Serif" font-size="10.00">boost/multi_index/hashed</text>
<text text-anchor="middle" x="363" y="-7.5" font-family="Helvetica,sans-Serif" font-size="10.00">_index.hpp</text>
</g>
<!-- Node8&#45;&gt;Node11 -->
<g id="edge13" class="edge"><title>Node8&#45;&gt;Node11</title>
<path fill="none" stroke="midnightblue" d="M309.883,-67.4751C317.966,-59.7179 330.235,-47.9435 340.946,-37.6645"/>
<polygon fill="midnightblue" stroke="midnightblue" points="343.596,-39.9724 348.388,-30.523 338.749,-34.9218 343.596,-39.9724"/>
</g>
<!-- Node12 -->
<g id="node12" class="node"><title>Node12</title>
<polygon fill="white" stroke="#bfbfbf" points="445,-0.5 445,-30.5 563,-30.5 563,-0.5 445,-0.5"/>
<text text-anchor="start" x="453" y="-18.5" font-family="Helvetica,sans-Serif" font-size="10.00">boost/multi_index/mem</text>
<text text-anchor="middle" x="504" y="-7.5" font-family="Helvetica,sans-Serif" font-size="10.00">_fun.hpp</text>
</g>
<!-- Node8&#45;&gt;Node12 -->
<g id="edge14" class="edge"><title>Node8&#45;&gt;Node12</title>
<path fill="none" stroke="midnightblue" d="M330.085,-67.4751C360.276,-58.6259 408.304,-44.5487 446.247,-33.4277"/>
<polygon fill="midnightblue" stroke="midnightblue" points="447.545,-36.6944 456.157,-30.523 445.576,-29.977 447.545,-36.6944"/>
</g>
</g>
</svg>
