<?xml version="1.0" encoding="UTF-8" standalone="no"?>
<!DOCTYPE svg PUBLIC "-//W3C//DTD SVG 1.1//EN"
 "http://www.w3.org/Graphics/SVG/1.1/DTD/svg11.dtd">
<!-- Generated by graphviz version 2.38.0 (20140413.2041)
 -->
<!-- Title: random.h Pages: 1 -->
<svg width="503pt" height="95pt"
 viewBox="0.00 0.00 502.50 95.00" xmlns="http://www.w3.org/2000/svg" xmlns:xlink="http://www.w3.org/1999/xlink">
<g id="graph0" class="graph" transform="scale(1 1) rotate(0) translate(4 91)">
<title>random.h</title>
<polygon fill="white" stroke="none" points="-4,4 -4,-91 498.5,-91 498.5,4 -4,4"/>
<!-- Node1 -->
<g id="node1" class="node"><title>Node1</title>
<polygon fill="#bfbfbf" stroke="black" points="126,-67.5 126,-86.5 183,-86.5 183,-67.5 126,-67.5"/>
<text text-anchor="middle" x="154.5" y="-74.5" font-family="Helvetica,sans-Serif" font-size="10.00">random.h</text>
</g>
<!-- Node2 -->
<g id="node2" class="node"><title>Node2</title>
<polygon fill="white" stroke="#bfbfbf" points="0,-6 0,-25 49,-25 49,-6 0,-6"/>
<text text-anchor="middle" x="24.5" y="-13" font-family="Helvetica,sans-Serif" font-size="10.00">cassert</text>
</g>
<!-- Node1&#45;&gt;Node2 -->
<g id="edge1" class="edge"><title>Node1&#45;&gt;Node2</title>
<path fill="none" stroke="midnightblue" d="M135.874,-67.4751C114.057,-57.4897 77.6964,-40.8476 52.4828,-29.3075"/>
<polygon fill="midnightblue" stroke="midnightblue" points="53.6408,-25.9884 43.0913,-25.0091 50.7275,-32.3534 53.6408,-25.9884"/>
</g>
<!-- Node3 -->
<g id="node3" class="node"><title>Node3</title>
<polygon fill="white" stroke="#bfbfbf" points="67.5,-6 67.5,-25 111.5,-25 111.5,-6 67.5,-6"/>
<text text-anchor="middle" x="89.5" y="-13" font-family="Helvetica,sans-Serif" font-size="10.00">cmath</text>
</g>
<!-- Node1&#45;&gt;Node3 -->
<g id="edge2" class="edge"><title>Node1&#45;&gt;Node3</title>
<path fill="none" stroke="midnightblue" d="M145.187,-67.4751C135.051,-58.1966 118.636,-43.1706 106.248,-31.831"/>
<polygon fill="midnightblue" stroke="midnightblue" points="108.535,-29.1795 98.7956,-25.0091 103.809,-34.3429 108.535,-29.1795"/>
</g>
<!-- Node4 -->
<g id="node4" class="node"><title>Node4</title>
<polygon fill="white" stroke="#bfbfbf" points="130,-6 130,-25 179,-25 179,-6 130,-6"/>
<text text-anchor="middle" x="154.5" y="-13" font-family="Helvetica,sans-Serif" font-size="10.00">random</text>
</g>
<!-- Node1&#45;&gt;Node4 -->
<g id="edge3" class="edge"><title>Node1&#45;&gt;Node4</title>
<path fill="none" stroke="midnightblue" d="M154.5,-67.4751C154.5,-59.0803 154.5,-45.9806 154.5,-35.1631"/>
<polygon fill="midnightblue" stroke="midnightblue" points="158,-35.0091 154.5,-25.0091 151,-35.0091 158,-35.0091"/>
</g>
<!-- Node5 -->
<g id="node5" class="node"><title>Node5</title>
<polygon fill="white" stroke="#bfbfbf" points="197,-6 197,-25 366,-25 366,-6 197,-6"/>
<text text-anchor="middle" x="281.5" y="-13" font-family="Helvetica,sans-Serif" font-size="10.00">boost/random/beta_distribution.hpp</text>
</g>
<!-- Node1&#45;&gt;Node5 -->
<g id="edge4" class="edge"><title>Node1&#45;&gt;Node5</title>
<path fill="none" stroke="midnightblue" d="M172.696,-67.4751C194.009,-57.4897 229.531,-40.8476 254.163,-29.3075"/>
<polygon fill="midnightblue" stroke="midnightblue" points="255.767,-32.4211 263.338,-25.0091 252.797,-26.0822 255.767,-32.4211"/>
</g>
<!-- Node6 -->
<g id="node6" class="node"><title>Node6</title>
<polygon fill="white" stroke="#bfbfbf" points="384.5,-0.5 384.5,-30.5 494.5,-30.5 494.5,-0.5 384.5,-0.5"/>
<text text-anchor="start" x="392.5" y="-18.5" font-family="Helvetica,sans-Serif" font-size="10.00">boost/random/triangle</text>
<text text-anchor="middle" x="439.5" y="-7.5" font-family="Helvetica,sans-Serif" font-size="10.00">_distribution.hpp</text>
</g>
<!-- Node1&#45;&gt;Node6 -->
<g id="edge5" class="edge"><title>Node1&#45;&gt;Node6</title>
<path fill="none" stroke="midnightblue" d="M183.15,-70.3748C223.517,-62.4039 299.684,-47.1988 374.319,-31.2286"/>
<polygon fill="midnightblue" stroke="midnightblue" points="375.316,-34.5943 384.359,-29.0735 373.847,-27.7502 375.316,-34.5943"/>
</g>
</g>
</svg>
