<?xml version="1.0" encoding="UTF-8" standalone="no"?>
<!DOCTYPE svg PUBLIC "-//W3C//DTD SVG 1.1//EN"
 "http://www.w3.org/Graphics/SVG/1.1/DTD/svg11.dtd">
<!-- Generated by graphviz version 2.38.0 (20140413.2041)
 -->
<!-- Title: scram::mef::Initializer::Extractor&lt; T,&#45;1 &gt;::operator() Pages: 1 -->
<svg width="292pt" height="52pt"
 viewBox="0.00 0.00 292.00 51.50" xmlns="http://www.w3.org/2000/svg" xmlns:xlink="http://www.w3.org/1999/xlink">
<g id="graph0" class="graph" transform="scale(1 1) rotate(0) translate(4 47.5)">
<title>scram::mef::Initializer::Extractor&lt; T,&#45;1 &gt;::operator()</title>
<polygon fill="white" stroke="none" points="-4,4 -4,-47.5 288,-47.5 288,4 -4,4"/>
<!-- Node1 -->
<g id="node1" class="node"><title>Node1</title>
<polygon fill="#bfbfbf" stroke="black" points="0,-0.5 0,-30.5 145,-30.5 145,-0.5 0,-0.5"/>
<text text-anchor="start" x="8" y="-18.5" font-family="Helvetica,sans-Serif" font-size="10.00">scram::mef::Initializer</text>
<text text-anchor="middle" x="72.5" y="-7.5" font-family="Helvetica,sans-Serif" font-size="10.00">::Extractor&lt; T,&#45;1 &gt;::operator()</text>
</g>
<!-- Node2 -->
<g id="node2" class="node"><title>Node2</title>
<g id="a_node2"><a xlink:href="xml_8h.xhtml#ab908f9834f69be3009ee07445b51a673" target="_top" xlink:title="Helper function to statically cast to XML element. ">
<polygon fill="white" stroke="black" points="181,-6 181,-25 284,-25 284,-6 181,-6"/>
<text text-anchor="middle" x="232.5" y="-13" font-family="Helvetica,sans-Serif" font-size="10.00">scram::XmlElement</text>
</a>
</g>
</g>
<!-- Node1&#45;&gt;Node2 -->
<g id="edge1" class="edge"><title>Node1&#45;&gt;Node2</title>
<path fill="none" stroke="midnightblue" d="M145.103,-15.5C153.695,-15.5 162.403,-15.5 170.819,-15.5"/>
<polygon fill="midnightblue" stroke="midnightblue" points="170.91,-19.0001 180.91,-15.5 170.91,-12.0001 170.91,-19.0001"/>
</g>
<!-- Node2&#45;&gt;Node2 -->
<g id="edge2" class="edge"><title>Node2&#45;&gt;Node2</title>
<path fill="none" stroke="midnightblue" d="M207.839,-25.2571C195.842,-34.0653 204.062,-43.5 232.5,-43.5 251.606,-43.5 261.586,-39.241 262.44,-33.7746"/>
<polygon fill="midnightblue" stroke="midnightblue" points="265.404,-31.9128 257.161,-25.2571 259.454,-35.6007 265.404,-31.9128"/>
</g>
</g>
</svg>
