<?xml version="1.0" encoding="UTF-8" standalone="no"?>
<!DOCTYPE svg PUBLIC "-//W3C//DTD SVG 1.1//EN"
 "http://www.w3.org/Graphics/SVG/1.1/DTD/svg11.dtd">
<!-- Generated by graphviz version 2.38.0 (20140413.2041)
 -->
<!-- Title: scram::IOError Pages: 1 -->
<svg width="89pt" height="309pt"
 viewBox="0.00 0.00 89.00 309.00" xmlns="http://www.w3.org/2000/svg" xmlns:xlink="http://www.w3.org/1999/xlink">
<g id="graph0" class="graph" transform="scale(1 1) rotate(0) translate(4 305)">
<title>scram::IOError</title>
<polygon fill="white" stroke="none" points="-4,4 -4,-305 85,-305 85,4 -4,4"/>
<!-- Node1 -->
<g id="node1" class="node"><title>Node1</title>
<polygon fill="#bfbfbf" stroke="black" points="0,-0.5 0,-57.5 81,-57.5 81,-0.5 0,-0.5"/>
<text text-anchor="middle" x="40.5" y="-45.5" font-family="Helvetica,sans-Serif" font-size="10.00">scram::IOError</text>
<polyline fill="none" stroke="black" points="0,-38.5 81,-38.5 "/>
<text text-anchor="middle" x="40.5" y="-26.5" font-family="Helvetica,sans-Serif" font-size="10.00"> </text>
<polyline fill="none" stroke="black" points="0,-19.5 81,-19.5 "/>
<text text-anchor="middle" x="40.5" y="-7.5" font-family="Helvetica,sans-Serif" font-size="10.00"> </text>
</g>
<!-- Node2 -->
<g id="node2" class="node"><title>Node2</title>
<g id="a_node2"><a xlink:href="classscram_1_1Error.xhtml" target="_top" xlink:title="The Error class is the base class for common exceptions specific to the SCRAM code. ">
<polygon fill="white" stroke="black" points="5,-94.5 5,-206.5 76,-206.5 76,-94.5 5,-94.5"/>
<text text-anchor="middle" x="40.5" y="-194.5" font-family="Helvetica,sans-Serif" font-size="10.00">scram::Error</text>
<polyline fill="none" stroke="black" points="5,-187.5 76,-187.5 "/>
<text text-anchor="middle" x="40.5" y="-175.5" font-family="Helvetica,sans-Serif" font-size="10.00"> </text>
<polyline fill="none" stroke="black" points="5,-168.5 76,-168.5 "/>
<text text-anchor="start" x="13" y="-156.5" font-family="Helvetica,sans-Serif" font-size="10.00">+ Error()</text>
<text text-anchor="start" x="13" y="-145.5" font-family="Helvetica,sans-Serif" font-size="10.00">+ Error()</text>
<text text-anchor="start" x="13" y="-134.5" font-family="Helvetica,sans-Serif" font-size="10.00">+ ~Error()</text>
<text text-anchor="start" x="13" y="-123.5" font-family="Helvetica,sans-Serif" font-size="10.00">+ what()</text>
<text text-anchor="start" x="13" y="-112.5" font-family="Helvetica,sans-Serif" font-size="10.00">+ msg()</text>
<text text-anchor="start" x="13" y="-101.5" font-family="Helvetica,sans-Serif" font-size="10.00">+ msg()</text>
</a>
</g>
</g>
<!-- Node2&#45;&gt;Node1 -->
<g id="edge1" class="edge"><title>Node2&#45;&gt;Node1</title>
<path fill="none" stroke="midnightblue" d="M40.5,-84.146C40.5,-74.8172 40.5,-65.6722 40.5,-57.6315"/>
<polygon fill="none" stroke="midnightblue" points="37.0001,-84.2973 40.5,-94.2974 44.0001,-84.2974 37.0001,-84.2973"/>
</g>
<!-- Node3 -->
<g id="node3" class="node"><title>Node3</title>
<polygon fill="white" stroke="#bfbfbf" points="1.5,-243.5 1.5,-300.5 79.5,-300.5 79.5,-243.5 1.5,-243.5"/>
<text text-anchor="middle" x="40.5" y="-288.5" font-family="Helvetica,sans-Serif" font-size="10.00">std::exception</text>
<polyline fill="none" stroke="#bfbfbf" points="1.5,-281.5 79.5,-281.5 "/>
<text text-anchor="middle" x="40.5" y="-269.5" font-family="Helvetica,sans-Serif" font-size="10.00"> </text>
<polyline fill="none" stroke="#bfbfbf" points="1.5,-262.5 79.5,-262.5 "/>
<text text-anchor="middle" x="40.5" y="-250.5" font-family="Helvetica,sans-Serif" font-size="10.00"> </text>
</g>
<!-- Node3&#45;&gt;Node2 -->
<g id="edge2" class="edge"><title>Node3&#45;&gt;Node2</title>
<path fill="none" stroke="midnightblue" d="M40.5,-233.108C40.5,-224.748 40.5,-215.725 40.5,-206.834"/>
<polygon fill="none" stroke="midnightblue" points="37.0001,-233.284 40.5,-243.284 44.0001,-233.284 37.0001,-233.284"/>
</g>
</g>
</svg>
