<?xml version="1.0" encoding="UTF-8" standalone="no"?>
<!DOCTYPE svg PUBLIC "-//W3C//DTD SVG 1.1//EN"
 "http://www.w3.org/Graphics/SVG/1.1/DTD/svg11.dtd">
<!-- Generated by graphviz version 2.38.0 (20140413.2041)
 -->
<!-- Title: scram::mef::Initializer::Extractor&lt; Histogram,&#45;1 &gt;::operator() Pages: 1 -->
<!--zoomable 496 -->
<svg id="main" version="1.1" xmlns="http://www.w3.org/2000/svg" xmlns:xlink="http://www.w3.org/1999/xlink" xml:space="preserve" onload="init(evt)">
<style type="text/css"><![CDATA[
.edge:hover path { stroke: red; }
.edge:hover polygon { stroke: red; fill: red; }
]]></style>
<script type="text/javascript"><![CDATA[
var edges = document.getElementsByTagName('g');
if (edges && edges.length) {
  for (var i=0;i<edges.length;i++) {
    if (edges[i].id.substr(0,4)=='edge') {
      edges[i].setAttribute('class','edge');
    }
  }
}
]]></script>
        <defs>
                <circle id="rim" cx="0" cy="0" r="7"/>
                <circle id="rim2" cx="0" cy="0" r="3.5"/>
                <g id="zoomPlus">
                        <use xlink:href="#rim" fill="#404040">
                                <set attributeName="fill" to="#808080" begin="zoomplus.mouseover" end="zoomplus.mouseout"/>
                        </use>
                        <path d="M-4,0h8M0,-4v8" fill="none" stroke="white" stroke-width="1.5" pointer-events="none"/>
                </g>
                <g id="zoomMin">
                        <use xlink:href="#rim" fill="#404040">
                                <set attributeName="fill" to="#808080" begin="zoomminus.mouseover" end="zoomminus.mouseout"/>
                        </use>
                        <path d="M-4,0h8" fill="none" stroke="white" stroke-width="1.5" pointer-events="none"/>
                </g>
                <g id="dirArrow">
                        <path fill="none" stroke="white" stroke-width="1.5" d="M0,-3.0v7 M-2.5,-0.5L0,-3.0L2.5,-0.5"/>
                </g>
               <g id="resetDef">
                       <use xlink:href="#rim2" fill="#404040">
                               <set attributeName="fill" to="#808080" begin="reset.mouseover" end="reset.mouseout"/>
                       </use>
               </g>
        </defs>

<script type="text/javascript">
var viewWidth = 900;
var viewHeight = 496;
var sectionId = 'dynsection-0';
</script>
<script xlink:href="svgpan.js"/>
<svg id="graph" class="graph">
<g id="viewport">
<title>scram::mef::Initializer::Extractor&lt; Histogram,&#45;1 &gt;::operator()</title>
<polygon fill="white" stroke="none" points="-4,4 -4,-491.906 896,-491.906 896,4 -4,4"/>
<!-- Node1 -->
<g id="node1" class="node"><title>Node1</title>
<polygon fill="#bfbfbf" stroke="black" points="0,-220.5 0,-261.5 119,-261.5 119,-220.5 0,-220.5"/>
<text text-anchor="start" x="8" y="-249.5" font-family="Helvetica,sans-Serif" font-size="10.00">scram::mef::Initializer</text>
<text text-anchor="start" x="8" y="-238.5" font-family="Helvetica,sans-Serif" font-size="10.00">::Extractor&lt; Histogram,</text>
<text text-anchor="middle" x="59.5" y="-227.5" font-family="Helvetica,sans-Serif" font-size="10.00">&#45;1 &gt;::operator()</text>
</g>
<!-- Node2 -->
<g id="node2" class="node"><title>Node2</title>
<g id="a_node2"><a xlink:href="classscram_1_1mef_1_1CcfGroup.xhtml#a723878c7c836a52cf9edb5c8d1a37868" target="_top" xlink:title="Adds the distribution that describes the probability of basic events in this CCF group. ">
<polygon fill="white" stroke="black" points="634,-375 634,-405 748,-405 748,-375 634,-375"/>
<text text-anchor="start" x="642" y="-393" font-family="Helvetica,sans-Serif" font-size="10.00">scram::mef::CcfGroup</text>
<text text-anchor="middle" x="691" y="-382" font-family="Helvetica,sans-Serif" font-size="10.00">::AddDistribution</text>
</a>
</g>
</g>
<!-- Node1&#45;&gt;Node2 -->
<g id="edge1" class="edge"><title>Node1&#45;&gt;Node2</title>
<path fill="none" stroke="midnightblue" d="M66.4889,-261.574C77.6765,-295.983 105.239,-364.613 155,-397 306.253,-495.442 536.061,-440.436 638.078,-408.19"/>
<polygon fill="midnightblue" stroke="midnightblue" points="639.389,-411.445 647.837,-405.051 637.246,-404.782 639.389,-411.445"/>
</g>
<!-- Node3 -->
<g id="node3" class="node"><title>Node3</title>
<g id="a_node3"><a xlink:href="classscram_1_1mef_1_1Element.xhtml#adb401e2ca84aa98cb60797bec2500a81" target="_top" xlink:title="scram::mef::Element\l::name">
<polygon fill="white" stroke="black" points="784,-270 784,-300 892,-300 892,-270 784,-270"/>
<text text-anchor="start" x="792" y="-288" font-family="Helvetica,sans-Serif" font-size="10.00">scram::mef::Element</text>
<text text-anchor="middle" x="838" y="-277" font-family="Helvetica,sans-Serif" font-size="10.00">::name</text>
</a>
</g>
</g>
<!-- Node1&#45;&gt;Node3 -->
<g id="edge23" class="edge"><title>Node1&#45;&gt;Node3</title>
<path fill="none" stroke="midnightblue" d="M64.2687,-261.541C72.7763,-301.755 97.4018,-390.873 155,-436 239.056,-501.856 283.218,-486 390,-486 390,-486 390,-486 542,-486 638.841,-486 670.976,-473.699 748,-415 785.136,-386.699 812.319,-338.338 826.311,-309.254"/>
<polygon fill="midnightblue" stroke="midnightblue" points="829.485,-310.727 830.546,-300.186 823.143,-307.765 829.485,-310.727"/>
</g>
<!-- Node4 -->
<g id="node4" class="node"><title>Node4</title>
<g id="a_node4"><a xlink:href="classscram_1_1mef_1_1CcfGroup.xhtml#a613678c7f9dd37c42239cd7988b2c259" target="_top" xlink:title="Adds a CCF factor for the specified model. ">
<polygon fill="white" stroke="black" points="169.5,-326 169.5,-356 283.5,-356 283.5,-326 169.5,-326"/>
<text text-anchor="start" x="177.5" y="-344" font-family="Helvetica,sans-Serif" font-size="10.00">scram::mef::CcfGroup</text>
<text text-anchor="middle" x="226.5" y="-333" font-family="Helvetica,sans-Serif" font-size="10.00">::AddFactor</text>
</a>
</g>
</g>
<!-- Node1&#45;&gt;Node4 -->
<g id="edge3" class="edge"><title>Node1&#45;&gt;Node4</title>
<path fill="none" stroke="midnightblue" d="M82.287,-261.763C100.535,-278.26 127.883,-300.98 155,-316 158.875,-318.146 162.969,-320.164 167.155,-322.05"/>
<polygon fill="midnightblue" stroke="midnightblue" points="165.842,-325.295 176.415,-325.967 168.568,-318.848 165.842,-325.295"/>
</g>
<!-- Node9 -->
<g id="node9" class="node"><title>Node9</title>
<g id="a_node9"><a xlink:href="classscram_1_1mef_1_1CcfGroup.xhtml#a8321bf4372a0575c88b7162716469d15" target="_top" xlink:title="Adds a basic event into this CCF group. ">
<polygon fill="white" stroke="black" points="634,-326 634,-356 748,-356 748,-326 634,-326"/>
<text text-anchor="start" x="642" y="-344" font-family="Helvetica,sans-Serif" font-size="10.00">scram::mef::CcfGroup</text>
<text text-anchor="middle" x="691" y="-333" font-family="Helvetica,sans-Serif" font-size="10.00">::AddMember</text>
</a>
</g>
</g>
<!-- Node1&#45;&gt;Node9 -->
<g id="edge16" class="edge"><title>Node1&#45;&gt;Node9</title>
<path fill="none" stroke="midnightblue" d="M69.4041,-261.791C83.0853,-290.851 112.256,-342.668 155,-366 241.547,-413.242 503.905,-420.468 598,-391 616.589,-385.178 617.032,-375.568 634,-366 637.398,-364.084 640.971,-362.204 644.598,-360.39"/>
<polygon fill="midnightblue" stroke="midnightblue" points="646.166,-363.519 653.66,-356.03 643.131,-357.211 646.166,-363.519"/>
</g>
<!-- Node12 -->
<g id="node12" class="node"><title>Node12</title>
<g id="a_node12"><a xlink:href="classscram_1_1mef_1_1Role.xhtml#ab91a51488ee8c4ed054de1e8450c8a59" target="_top" xlink:title="scram::mef::Role::base_path">
<polygon fill="white" stroke="black" points="155,-287.5 155,-306.5 298,-306.5 298,-287.5 155,-287.5"/>
<text text-anchor="middle" x="226.5" y="-294.5" font-family="Helvetica,sans-Serif" font-size="10.00">scram::mef::Role::base_path</text>
</a>
</g>
</g>
<!-- Node1&#45;&gt;Node12 -->
<g id="edge17" class="edge"><title>Node1&#45;&gt;Node12</title>
<path fill="none" stroke="midnightblue" d="M110.151,-261.622C124.505,-267.261 140.274,-273.149 155,-278 162.116,-280.344 169.704,-282.618 177.166,-284.73"/>
<polygon fill="midnightblue" stroke="midnightblue" points="176.283,-288.118 186.854,-287.405 178.146,-281.37 176.283,-288.118"/>
</g>
<!-- Node13 -->
<g id="node13" class="node"><title>Node13</title>
<g id="a_node13"><a xlink:href="xml_8h.xhtml#a0c5491388e25d1f1badb26b56ef302e7" target="_top" xlink:title="Returns Normalized (trimmed) string value of an XML element attribute. ">
<polygon fill="white" stroke="black" points="163,-231.5 163,-250.5 290,-250.5 290,-231.5 163,-231.5"/>
<text text-anchor="middle" x="226.5" y="-238.5" font-family="Helvetica,sans-Serif" font-size="10.00">scram::GetAttributeValue</text>
</a>
</g>
</g>
<!-- Node1&#45;&gt;Node13 -->
<g id="edge18" class="edge"><title>Node1&#45;&gt;Node13</title>
<path fill="none" stroke="midnightblue" d="M119.137,-241C129.988,-241 141.441,-241 152.653,-241"/>
<polygon fill="midnightblue" stroke="midnightblue" points="152.858,-244.5 162.858,-241 152.858,-237.5 152.858,-244.5"/>
</g>
<!-- Node14 -->
<g id="node14" class="node"><title>Node14</title>
<g id="a_node14"><a xlink:href="classscram_1_1mef_1_1NodeMark.xhtml#ae433446a44a3ae40ec411b08916ec4ca" target="_top" xlink:title="scram::mef::NodeMark\l::mark">
<polygon fill="white" stroke="black" points="168,-182 168,-212 285,-212 285,-182 168,-182"/>
<text text-anchor="start" x="176" y="-200" font-family="Helvetica,sans-Serif" font-size="10.00">scram::mef::NodeMark</text>
<text text-anchor="middle" x="226.5" y="-189" font-family="Helvetica,sans-Serif" font-size="10.00">::mark</text>
</a>
</g>
</g>
<!-- Node1&#45;&gt;Node14 -->
<g id="edge20" class="edge"><title>Node1&#45;&gt;Node14</title>
<path fill="none" stroke="midnightblue" d="M119.137,-225.363C132.055,-221.919 145.826,-218.246 159.028,-214.726"/>
<polygon fill="midnightblue" stroke="midnightblue" points="160.228,-218.028 168.989,-212.07 158.424,-211.265 160.228,-218.028"/>
</g>
<!-- Node15 -->
<g id="node15" class="node"><title>Node15</title>
<g id="a_node15"><a xlink:href="classscram_1_1mef_1_1Initializer.xhtml#aa541fee61ff2be90b083f45dc1c26046" target="_top" xlink:title="scram::mef::Initializer\l::model">
<polygon fill="white" stroke="black" points="171,-133 171,-163 282,-163 282,-133 171,-133"/>
<text text-anchor="start" x="179" y="-151" font-family="Helvetica,sans-Serif" font-size="10.00">scram::mef::Initializer</text>
<text text-anchor="middle" x="226.5" y="-140" font-family="Helvetica,sans-Serif" font-size="10.00">::model</text>
</a>
</g>
</g>
<!-- Node1&#45;&gt;Node15 -->
<g id="edge21" class="edge"><title>Node1&#45;&gt;Node15</title>
<path fill="none" stroke="midnightblue" d="M84.9016,-220.475C103.278,-205.777 129.572,-186.311 155,-173 159.167,-170.819 163.566,-168.754 168.048,-166.817"/>
<polygon fill="midnightblue" stroke="midnightblue" points="169.388,-170.05 177.317,-163.023 166.737,-163.572 169.388,-170.05"/>
</g>
<!-- Node16 -->
<g id="node16" class="node"><title>Node16</title>
<g id="a_node16"><a xlink:href="classscram_1_1Error.xhtml#a35818dcc7c8dde101d4fd117adf47bc3" target="_top" xlink:title="scram::Error::msg">
<polygon fill="white" stroke="black" points="179,-94.5 179,-113.5 274,-113.5 274,-94.5 179,-94.5"/>
<text text-anchor="middle" x="226.5" y="-101.5" font-family="Helvetica,sans-Serif" font-size="10.00">scram::Error::msg</text>
</a>
</g>
</g>
<!-- Node1&#45;&gt;Node16 -->
<g id="edge22" class="edge"><title>Node1&#45;&gt;Node16</title>
<path fill="none" stroke="midnightblue" d="M71.7086,-220.387C87.0604,-194.096 117.095,-149.046 155,-124 159.398,-121.094 164.22,-118.604 169.213,-116.473"/>
<polygon fill="midnightblue" stroke="midnightblue" points="170.835,-119.602 178.958,-112.8 168.366,-113.051 170.835,-119.602"/>
</g>
<!-- Node17 -->
<g id="node17" class="node"><title>Node17</title>
<g id="a_node17"><a xlink:href="classscram_1_1mef_1_1Role.xhtml#aa1843c29411c29b27d79414d34525bbc" target="_top" xlink:title="scram::mef::Role::role">
<polygon fill="white" stroke="black" points="169.5,-56.5 169.5,-75.5 283.5,-75.5 283.5,-56.5 169.5,-56.5"/>
<text text-anchor="middle" x="226.5" y="-63.5" font-family="Helvetica,sans-Serif" font-size="10.00">scram::mef::Role::role</text>
</a>
</g>
</g>
<!-- Node1&#45;&gt;Node17 -->
<g id="edge24" class="edge"><title>Node1&#45;&gt;Node17</title>
<path fill="none" stroke="midnightblue" d="M67.2736,-220.326C79.3699,-186.708 107.925,-120.394 155,-85 157.503,-83.1181 160.179,-81.4225 162.972,-79.8948"/>
<polygon fill="midnightblue" stroke="midnightblue" points="164.648,-82.9749 172.22,-75.5642 161.679,-76.6356 164.648,-82.9749"/>
</g>
<!-- Node18 -->
<g id="node18" class="node"><title>Node18</title>
<g id="a_node18"><a xlink:href="xml_8h.xhtml#ab908f9834f69be3009ee07445b51a673" target="_top" xlink:title="Helper function to statically cast to XML element. ">
<polygon fill="white" stroke="black" points="175,-0.5 175,-19.5 278,-19.5 278,-0.5 175,-0.5"/>
<text text-anchor="middle" x="226.5" y="-7.5" font-family="Helvetica,sans-Serif" font-size="10.00">scram::XmlElement</text>
</a>
</g>
</g>
<!-- Node1&#45;&gt;Node18 -->
<g id="edge25" class="edge"><title>Node1&#45;&gt;Node18</title>
<path fill="none" stroke="midnightblue" d="M65.8731,-220.366C76.797,-181.935 104.907,-98.6205 155,-47 164.419,-37.2941 176.936,-29.6025 188.808,-23.8033"/>
<polygon fill="midnightblue" stroke="midnightblue" points="190.474,-26.8906 198.119,-19.5559 187.568,-20.522 190.474,-26.8906"/>
</g>
<!-- Node2&#45;&gt;Node3 -->
<g id="edge2" class="edge"><title>Node2&#45;&gt;Node3</title>
<path fill="none" stroke="midnightblue" d="M731.716,-374.953C737.341,-372.261 742.929,-369.262 748,-366 773.751,-349.435 799.187,-325.29 816.228,-307.672"/>
<polygon fill="midnightblue" stroke="midnightblue" points="819.085,-309.747 823.438,-300.088 814.012,-304.924 819.085,-309.747"/>
</g>
<!-- Node5 -->
<g id="node5" class="node"><title>Node5</title>
<g id="a_node5"><a xlink:href="classscram_1_1mef_1_1CcfGroup.xhtml#ab399c5ed0c1d7d0a316ac3b7244b7eb9" target="_top" xlink:title="Processes the given factors and members to create common cause failure probabilities and new events t...">
<polygon fill="white" stroke="black" points="334,-302 334,-332 448,-332 448,-302 334,-302"/>
<text text-anchor="start" x="342" y="-320" font-family="Helvetica,sans-Serif" font-size="10.00">scram::mef::CcfGroup</text>
<text text-anchor="middle" x="391" y="-309" font-family="Helvetica,sans-Serif" font-size="10.00">::ApplyModel</text>
</a>
</g>
</g>
<!-- Node4&#45;&gt;Node5 -->
<g id="edge4" class="edge"><title>Node4&#45;&gt;Node5</title>
<path fill="none" stroke="midnightblue" d="M283.879,-332.673C296.808,-330.764 310.667,-328.717 323.963,-326.753"/>
<polygon fill="midnightblue" stroke="midnightblue" points="324.615,-330.195 333.996,-325.271 323.592,-323.27 324.615,-330.195"/>
</g>
<!-- Node10 -->
<g id="node10" class="node"><title>Node10</title>
<g id="a_node10"><a xlink:href="classscram_1_1mef_1_1CcfGroup.xhtml#a31cbe59ce89f295de7bb810d8b75990e" target="_top" xlink:title="Validates the setup for the CCF model and group. ">
<polygon fill="white" stroke="black" points="634,-171 634,-201 748,-201 748,-171 634,-171"/>
<text text-anchor="start" x="642" y="-189" font-family="Helvetica,sans-Serif" font-size="10.00">scram::mef::CcfGroup</text>
<text text-anchor="middle" x="691" y="-178" font-family="Helvetica,sans-Serif" font-size="10.00">::Validate</text>
</a>
</g>
</g>
<!-- Node4&#45;&gt;Node10 -->
<g id="edge12" class="edge"><title>Node4&#45;&gt;Node10</title>
<path fill="none" stroke="midnightblue" d="M274.759,-325.923C282.648,-322.931 290.65,-319.593 298,-316 315.058,-307.662 317.336,-302.1 334,-293 398.405,-257.83 414.044,-246.16 484,-224 529.544,-209.573 582.591,-199.946 623.448,-193.992"/>
<polygon fill="midnightblue" stroke="midnightblue" points="624.152,-197.427 633.561,-192.556 623.168,-190.496 624.152,-197.427"/>
</g>
<!-- Node11 -->
<g id="node11" class="node"><title>Node11</title>
<g id="a_node11"><a xlink:href="classscram_1_1mef_1_1CcfGroup.xhtml#a25e28f28d5ebf344bc17dc7d0c50a497" target="_top" xlink:title="Checks if the provided distribution is between 0 and 1. ">
<polygon fill="white" stroke="black" points="334,-127 334,-157 448,-157 448,-127 334,-127"/>
<text text-anchor="start" x="342" y="-145" font-family="Helvetica,sans-Serif" font-size="10.00">scram::mef::CcfGroup</text>
<text text-anchor="middle" x="391" y="-134" font-family="Helvetica,sans-Serif" font-size="10.00">::ValidateDistribution</text>
</a>
</g>
</g>
<!-- Node4&#45;&gt;Node11 -->
<g id="edge14" class="edge"><title>Node4&#45;&gt;Node11</title>
<path fill="none" stroke="midnightblue" d="M283.537,-327.252C288.922,-324.219 293.896,-320.518 298,-316 342.361,-267.172 293.45,-224.035 334,-172 336.631,-168.623 339.752,-165.581 343.153,-162.849"/>
<polygon fill="midnightblue" stroke="midnightblue" points="345.3,-165.619 351.5,-157.028 341.296,-159.878 345.3,-165.619"/>
</g>
<!-- Node5&#45;&gt;Node3 -->
<g id="edge11" class="edge"><title>Node5&#45;&gt;Node3</title>
<path fill="none" stroke="midnightblue" d="M404.803,-301.996C421.088,-284.192 451.076,-255.475 484,-244 588.671,-207.518 720.29,-242.437 789.478,-266.506"/>
<polygon fill="midnightblue" stroke="midnightblue" points="788.627,-269.918 799.222,-269.969 790.971,-263.322 788.627,-269.918"/>
</g>
<!-- Node6 -->
<g id="node6" class="node"><title>Node6</title>
<g id="a_node6"><a xlink:href="classscram_1_1mef_1_1CcfGroup.xhtml#a89c5531144ef16c6f28be333166ab839" target="_top" xlink:title="scram::mef::CcfGroup\l::distribution">
<polygon fill="white" stroke="black" points="484,-253 484,-283 598,-283 598,-253 484,-253"/>
<text text-anchor="start" x="492" y="-271" font-family="Helvetica,sans-Serif" font-size="10.00">scram::mef::CcfGroup</text>
<text text-anchor="middle" x="541" y="-260" font-family="Helvetica,sans-Serif" font-size="10.00">::distribution</text>
</a>
</g>
</g>
<!-- Node5&#45;&gt;Node6 -->
<g id="edge5" class="edge"><title>Node5&#45;&gt;Node6</title>
<path fill="none" stroke="midnightblue" d="M437.613,-301.899C452.594,-296.938 469.405,-291.373 485.007,-286.207"/>
<polygon fill="midnightblue" stroke="midnightblue" points="486.145,-289.517 494.538,-283.052 483.945,-282.872 486.145,-289.517"/>
</g>
<!-- Node7 -->
<g id="node7" class="node"><title>Node7</title>
<g id="a_node7"><a xlink:href="classscram_1_1mef_1_1CcfGroup.xhtml#a870cff942d6ce90dc50de37e17a151ee" target="_top" xlink:title="scram::mef::CcfGroup\l::factors">
<polygon fill="white" stroke="black" points="484,-302 484,-332 598,-332 598,-302 484,-302"/>
<text text-anchor="start" x="492" y="-320" font-family="Helvetica,sans-Serif" font-size="10.00">scram::mef::CcfGroup</text>
<text text-anchor="middle" x="541" y="-309" font-family="Helvetica,sans-Serif" font-size="10.00">::factors</text>
</a>
</g>
</g>
<!-- Node5&#45;&gt;Node7 -->
<g id="edge6" class="edge"><title>Node5&#45;&gt;Node7</title>
<path fill="none" stroke="midnightblue" d="M448.375,-317C456.621,-317 465.178,-317 473.602,-317"/>
<polygon fill="midnightblue" stroke="midnightblue" points="473.782,-320.5 483.782,-317 473.782,-313.5 473.782,-320.5"/>
</g>
<!-- Node8 -->
<g id="node8" class="node"><title>Node8</title>
<g id="a_node8"><a xlink:href="classscram_1_1mef_1_1CcfGroup.xhtml#ac2e32b2b8b441c3605780181651af31c" target="_top" xlink:title="scram::mef::CcfGroup\l::members">
<polygon fill="white" stroke="black" points="484,-351 484,-381 598,-381 598,-351 484,-351"/>
<text text-anchor="start" x="492" y="-369" font-family="Helvetica,sans-Serif" font-size="10.00">scram::mef::CcfGroup</text>
<text text-anchor="middle" x="541" y="-358" font-family="Helvetica,sans-Serif" font-size="10.00">::members</text>
</a>
</g>
</g>
<!-- Node5&#45;&gt;Node8 -->
<g id="edge7" class="edge"><title>Node5&#45;&gt;Node8</title>
<path fill="none" stroke="midnightblue" d="M437.613,-332.101C452.594,-337.062 469.405,-342.627 485.007,-347.793"/>
<polygon fill="midnightblue" stroke="midnightblue" points="483.945,-351.128 494.538,-350.948 486.145,-344.483 483.945,-351.128"/>
</g>
<!-- Node8&#45;&gt;Node2 -->
<g id="edge8" class="edge"><title>Node8&#45;&gt;Node2</title>
<path fill="none" stroke="midnightblue" d="M598.375,-375.142C606.712,-376.494 615.366,-377.897 623.88,-379.278"/>
<polygon fill="midnightblue" stroke="midnightblue" points="623.351,-382.738 633.782,-380.884 624.471,-375.828 623.351,-382.738"/>
</g>
<!-- Node8&#45;&gt;Node9 -->
<g id="edge9" class="edge"><title>Node8&#45;&gt;Node9</title>
<path fill="none" stroke="midnightblue" d="M598.375,-356.477C606.712,-355.069 615.366,-353.607 623.88,-352.169"/>
<polygon fill="midnightblue" stroke="midnightblue" points="624.505,-355.613 633.782,-350.496 623.339,-348.711 624.505,-355.613"/>
</g>
<!-- Node9&#45;&gt;Node3 -->
<g id="edge10" class="edge"><title>Node9&#45;&gt;Node3</title>
<path fill="none" stroke="midnightblue" d="M730.857,-325.993C748.573,-319.151 769.733,-310.979 788.482,-303.738"/>
<polygon fill="midnightblue" stroke="midnightblue" points="789.968,-306.916 798.035,-300.048 787.446,-300.386 789.968,-306.916"/>
</g>
<!-- Node10&#45;&gt;Node3 -->
<g id="edge13" class="edge"><title>Node10&#45;&gt;Node3</title>
<path fill="none" stroke="midnightblue" d="M722.469,-201.131C730.905,-205.638 739.951,-210.776 748,-216 770.268,-230.451 793.952,-248.984 811.285,-263.203"/>
<polygon fill="midnightblue" stroke="midnightblue" points="809.316,-266.117 819.25,-269.8 813.781,-260.726 809.316,-266.117"/>
</g>
<!-- Node11&#45;&gt;Node3 -->
<g id="edge15" class="edge"><title>Node11&#45;&gt;Node3</title>
<path fill="none" stroke="midnightblue" d="M448.135,-131.085C521.865,-119.744 653.081,-110.112 748,-162 787.515,-183.601 813.928,-231.157 827.127,-260.401"/>
<polygon fill="midnightblue" stroke="midnightblue" points="824.059,-262.123 831.244,-269.908 830.482,-259.341 824.059,-262.123"/>
</g>
<!-- Node13&#45;&gt;Node13 -->
<g id="edge19" class="edge"><title>Node13&#45;&gt;Node13</title>
<path fill="none" stroke="midnightblue" d="M201.223,-250.757C188.926,-259.565 197.352,-269 226.5,-269 246.084,-269 256.314,-264.741 257.189,-259.275"/>
<polygon fill="midnightblue" stroke="midnightblue" points="260.094,-257.321 251.777,-250.757 254.186,-261.075 260.094,-257.321"/>
</g>
<!-- Node18&#45;&gt;Node18 -->
<g id="edge26" class="edge"><title>Node18&#45;&gt;Node18</title>
<path fill="none" stroke="midnightblue" d="M201.223,-19.7571C188.926,-28.5653 197.352,-38 226.5,-38 246.084,-38 256.314,-33.741 257.189,-28.2746"/>
<polygon fill="midnightblue" stroke="midnightblue" points="260.094,-26.3207 251.777,-19.7571 254.186,-30.0745 260.094,-26.3207"/>
</g>
</g>
</svg>
        <g id="navigator" transform="translate(0 0)" fill="#404254">
                <rect fill="#f2f5e9" fill-opacity="0.5" stroke="#606060" stroke-width=".5" x="0" y="0" width="60" height="60"/>
                <use id="zoomplus" xlink:href="#zoomPlus" x="17" y="9" onmousedown="handleZoom(evt,'in')"/>
                <use id="zoomminus" xlink:href="#zoomMin" x="42" y="9" onmousedown="handleZoom(evt,'out')"/>
                <use id="reset" xlink:href="#resetDef" x="30" y="36" onmousedown="handleReset()"/>
                <g id="arrowUp" xlink:href="#dirArrow" transform="translate(30 24)" onmousedown="handlePan(0,-1)">
                  <use xlink:href="#rim" fill="#404040">
                        <set attributeName="fill" to="#808080" begin="arrowUp.mouseover" end="arrowUp.mouseout"/>
                  </use>
                  <path fill="none" stroke="white" stroke-width="1.5" d="M0,-3.0v7 M-2.5,-0.5L0,-3.0L2.5,-0.5"/>
                </g>
                <g id="arrowRight" xlink:href="#dirArrow" transform="rotate(90) translate(36 -43)" onmousedown="handlePan(1,0)">
                  <use xlink:href="#rim" fill="#404040">
                        <set attributeName="fill" to="#808080" begin="arrowRight.mouseover" end="arrowRight.mouseout"/>
                  </use>
                  <path fill="none" stroke="white" stroke-width="1.5" d="M0,-3.0v7 M-2.5,-0.5L0,-3.0L2.5,-0.5"/>
                </g>
                <g id="arrowDown" xlink:href="#dirArrow" transform="rotate(180) translate(-30 -48)" onmousedown="handlePan(0,1)">
                  <use xlink:href="#rim" fill="#404040">
                        <set attributeName="fill" to="#808080" begin="arrowDown.mouseover" end="arrowDown.mouseout"/>
                  </use>
                  <path fill="none" stroke="white" stroke-width="1.5" d="M0,-3.0v7 M-2.5,-0.5L0,-3.0L2.5,-0.5"/>
                </g>
                <g id="arrowLeft" xlink:href="#dirArrow" transform="rotate(270) translate(-36 17)" onmousedown="handlePan(-1,0)">
                  <use xlink:href="#rim" fill="#404040">
                        <set attributeName="fill" to="#808080" begin="arrowLeft.mouseover" end="arrowLeft.mouseout"/>
                  </use>
                  <path fill="none" stroke="white" stroke-width="1.5" d="M0,-3.0v7 M-2.5,-0.5L0,-3.0L2.5,-0.5"/>
                </g>
        </g>
        <svg viewBox="0 0 15 15" width="100%" height="30px" preserveAspectRatio="xMaxYMin meet">
         <g id="arrow_out" transform="scale(0.3 0.3)">
          <a xlink:href="structscram_1_1mef_1_1Initializer_1_1Extractor_3_01Histogram_00-1_01_4_ac0e94ff09dd707d3c253937a172e7fc7_cgraph_org.svg" target="_base">
           <rect id="button" ry="5" rx="5" y="6" x="6" height="38" width="38"
                fill="#f2f5e9" fill-opacity="0.5" stroke="#606060" stroke-width="1.0"/>
           <path id="arrow"
             d="M 11.500037,31.436501 C 11.940474,20.09759 22.043105,11.32322 32.158766,21.979434 L 37.068811,17.246167 C 37.068811,17.246167 37.088388,32 37.088388,32 L 22.160133,31.978069 C 22.160133,31.978069 26.997745,27.140456 26.997745,27.140456 C 18.528582,18.264221 13.291696,25.230495 11.500037,31.436501 z"
             style="fill:#404040;"/>
          </a>
         </g>
        </svg>
</svg>
