<?xml version="1.0" encoding="UTF-8" standalone="no"?>
<!DOCTYPE svg PUBLIC "-//W3C//DTD SVG 1.1//EN"
 "http://www.w3.org/Graphics/SVG/1.1/DTD/svg11.dtd">
<!-- Generated by graphviz version 2.38.0 (20140413.2041)
 -->
<!-- Title: uncertainty_analysis.h Pages: 1 -->
<svg width="299pt" height="196pt"
 viewBox="0.00 0.00 299.00 196.00" xmlns="http://www.w3.org/2000/svg" xmlns:xlink="http://www.w3.org/1999/xlink">
<g id="graph0" class="graph" transform="scale(1 1) rotate(0) translate(4 192)">
<title>uncertainty_analysis.h</title>
<polygon fill="white" stroke="none" points="-4,4 -4,-192 295,-192 295,4 -4,4"/>
<!-- Node1 -->
<g id="node1" class="node"><title>Node1</title>
<polygon fill="#bfbfbf" stroke="black" points="55.5,-168.5 55.5,-187.5 169.5,-187.5 169.5,-168.5 55.5,-168.5"/>
<text text-anchor="middle" x="112.5" y="-175.5" font-family="Helvetica,sans-Serif" font-size="10.00">uncertainty_analysis.h</text>
</g>
<!-- Node2 -->
<g id="node2" class="node"><title>Node2</title>
<g id="a_node2"><a xlink:href="risk__analysis_8h.xhtml" target="_top" xlink:title="Contains the main system for performing analysis. ">
<polygon fill="white" stroke="black" points="71.5,-112.5 71.5,-131.5 153.5,-131.5 153.5,-112.5 71.5,-112.5"/>
<text text-anchor="middle" x="112.5" y="-119.5" font-family="Helvetica,sans-Serif" font-size="10.00">risk_analysis.h</text>
</a>
</g>
</g>
<!-- Node1&#45;&gt;Node2 -->
<g id="edge1" class="edge"><title>Node1&#45;&gt;Node2</title>
<path fill="none" stroke="midnightblue" d="M112.5,-157.805C112.5,-148.91 112.5,-138.78 112.5,-131.751"/>
<polygon fill="midnightblue" stroke="midnightblue" points="109,-158.083 112.5,-168.083 116,-158.083 109,-158.083"/>
</g>
<!-- Node3 -->
<g id="node3" class="node"><title>Node3</title>
<g id="a_node3"><a xlink:href="reporter_8h.xhtml" target="_top" xlink:title="Reporter of results. ">
<polygon fill="white" stroke="black" points="20.5,-56.5 20.5,-75.5 78.5,-75.5 78.5,-56.5 20.5,-56.5"/>
<text text-anchor="middle" x="49.5" y="-63.5" font-family="Helvetica,sans-Serif" font-size="10.00">reporter.h</text>
</a>
</g>
</g>
<!-- Node1&#45;&gt;Node3 -->
<g id="edge7" class="edge"><title>Node1&#45;&gt;Node3</title>
<path fill="none" stroke="midnightblue" d="M90.7128,-162.457C80.6176,-154.605 69.363,-144.051 62.5,-132 52.1349,-113.8 49.9371,-88.6248 49.5325,-75.5914"/>
<polygon fill="midnightblue" stroke="midnightblue" points="88.6656,-165.296 98.7983,-168.391 92.8074,-159.653 88.6656,-165.296"/>
</g>
<!-- Node7 -->
<g id="node7" class="node"><title>Node7</title>
<g id="a_node7"><a xlink:href="uncertainty__analysis_8cc.xhtml" target="_top" xlink:title="Implements the functionality to run Monte Carlo simulations. ">
<polygon fill="white" stroke="black" points="172,-112.5 172,-131.5 291,-131.5 291,-112.5 172,-112.5"/>
<text text-anchor="middle" x="231.5" y="-119.5" font-family="Helvetica,sans-Serif" font-size="10.00">uncertainty_analysis.cc</text>
</a>
</g>
</g>
<!-- Node1&#45;&gt;Node7 -->
<g id="edge8" class="edge"><title>Node1&#45;&gt;Node7</title>
<path fill="none" stroke="midnightblue" d="M140.637,-164.232C162.896,-154.131 193.356,-140.309 212.732,-131.516"/>
<polygon fill="midnightblue" stroke="midnightblue" points="139.016,-161.124 131.356,-168.444 141.909,-167.498 139.016,-161.124"/>
</g>
<!-- Node2&#45;&gt;Node3 -->
<g id="edge2" class="edge"><title>Node2&#45;&gt;Node3</title>
<path fill="none" stroke="midnightblue" d="M94.4601,-105.537C83.2269,-95.9087 69.1809,-83.8694 59.8062,-75.8339"/>
<polygon fill="midnightblue" stroke="midnightblue" points="92.5076,-108.473 102.378,-112.324 97.0632,-103.159 92.5076,-108.473"/>
</g>
<!-- Node5 -->
<g id="node5" class="node"><title>Node5</title>
<g id="a_node5"><a xlink:href="scram_8cc.xhtml" target="_top" xlink:title="Main entrance. ">
<polygon fill="white" stroke="black" points="81,-0.5 81,-19.5 138,-19.5 138,-0.5 81,-0.5"/>
<text text-anchor="middle" x="109.5" y="-7.5" font-family="Helvetica,sans-Serif" font-size="10.00">scram.cc</text>
</a>
</g>
</g>
<!-- Node2&#45;&gt;Node5 -->
<g id="edge6" class="edge"><title>Node2&#45;&gt;Node5</title>
<path fill="none" stroke="midnightblue" d="M111.991,-102.348C111.334,-78.2538 110.217,-37.3079 109.734,-19.5914"/>
<polygon fill="midnightblue" stroke="midnightblue" points="108.493,-102.468 112.265,-112.368 115.491,-102.277 108.493,-102.468"/>
</g>
<!-- Node6 -->
<g id="node6" class="node"><title>Node6</title>
<g id="a_node6"><a xlink:href="risk__analysis_8cc.xhtml" target="_top" xlink:title="Implementation of risk analysis handler. ">
<polygon fill="white" stroke="black" points="138,-56.5 138,-75.5 225,-75.5 225,-56.5 138,-56.5"/>
<text text-anchor="middle" x="181.5" y="-63.5" font-family="Helvetica,sans-Serif" font-size="10.00">risk_analysis.cc</text>
</a>
</g>
</g>
<!-- Node2&#45;&gt;Node6 -->
<g id="edge5" class="edge"><title>Node2&#45;&gt;Node6</title>
<path fill="none" stroke="midnightblue" d="M131.538,-106.101C143.956,-96.3824 159.743,-84.0269 170.212,-75.8339"/>
<polygon fill="midnightblue" stroke="midnightblue" points="129.304,-103.405 123.586,-112.324 133.618,-108.917 129.304,-103.405"/>
</g>
<!-- Node4 -->
<g id="node4" class="node"><title>Node4</title>
<g id="a_node4"><a xlink:href="reporter_8cc.xhtml" target="_top" xlink:title="Implements Reporter class. ">
<polygon fill="white" stroke="black" points="0,-0.5 0,-19.5 63,-19.5 63,-0.5 0,-0.5"/>
<text text-anchor="middle" x="31.5" y="-7.5" font-family="Helvetica,sans-Serif" font-size="10.00">reporter.cc</text>
</a>
</g>
</g>
<!-- Node3&#45;&gt;Node4 -->
<g id="edge3" class="edge"><title>Node3&#45;&gt;Node4</title>
<path fill="none" stroke="midnightblue" d="M43.2985,-46.3956C40.2873,-37.362 36.812,-26.936 34.417,-19.7511"/>
<polygon fill="midnightblue" stroke="midnightblue" points="40.0449,-47.703 46.5277,-56.083 46.6857,-45.4893 40.0449,-47.703"/>
</g>
<!-- Node3&#45;&gt;Node5 -->
<g id="edge4" class="edge"><title>Node3&#45;&gt;Node5</title>
<path fill="none" stroke="midnightblue" d="M66.6809,-49.5372C77.3792,-39.9087 90.7563,-27.8694 99.6846,-19.8339"/>
<polygon fill="midnightblue" stroke="midnightblue" points="64.2316,-47.0327 59.14,-56.324 68.9144,-52.2358 64.2316,-47.0327"/>
</g>
</g>
</svg>
