<?xml version="1.0" encoding="UTF-8" standalone="no"?>
<!DOCTYPE svg PUBLIC "-//W3C//DTD SVG 1.1//EN"
 "http://www.w3.org/Graphics/SVG/1.1/DTD/svg11.dtd">
<!-- Generated by graphviz version 2.38.0 (20140413.2041)
 -->
<!-- Title: xml.h Pages: 1 -->
<svg width="650pt" height="140pt"
 viewBox="0.00 0.00 649.50 140.00" xmlns="http://www.w3.org/2000/svg" xmlns:xlink="http://www.w3.org/1999/xlink">
<g id="graph0" class="graph" transform="scale(1 1) rotate(0) translate(4 136)">
<title>xml.h</title>
<polygon fill="white" stroke="none" points="-4,4 -4,-136 645.5,-136 645.5,4 -4,4"/>
<!-- Node1 -->
<g id="node1" class="node"><title>Node1</title>
<polygon fill="#bfbfbf" stroke="black" points="232.5,-112.5 232.5,-131.5 273.5,-131.5 273.5,-112.5 232.5,-112.5"/>
<text text-anchor="middle" x="253" y="-119.5" font-family="Helvetica,sans-Serif" font-size="10.00">xml.h</text>
</g>
<!-- Node2 -->
<g id="node2" class="node"><title>Node2</title>
<polygon fill="white" stroke="#bfbfbf" points="0,-56.5 0,-75.5 52,-75.5 52,-56.5 0,-56.5"/>
<text text-anchor="middle" x="26" y="-63.5" font-family="Helvetica,sans-Serif" font-size="10.00">memory</text>
</g>
<!-- Node1&#45;&gt;Node2 -->
<g id="edge1" class="edge"><title>Node1&#45;&gt;Node2</title>
<path fill="none" stroke="midnightblue" d="M232.455,-116.113C193.92,-106.946 110.346,-87.0647 62.1813,-75.607"/>
<polygon fill="midnightblue" stroke="midnightblue" points="62.7212,-72.1378 52.1826,-73.2285 61.1011,-78.9478 62.7212,-72.1378"/>
</g>
<!-- Node3 -->
<g id="node3" class="node"><title>Node3</title>
<polygon fill="white" stroke="#bfbfbf" points="291.5,-0.5 291.5,-19.5 332.5,-19.5 332.5,-0.5 291.5,-0.5"/>
<text text-anchor="middle" x="312" y="-7.5" font-family="Helvetica,sans-Serif" font-size="10.00">string</text>
</g>
<!-- Node1&#45;&gt;Node3 -->
<g id="edge2" class="edge"><title>Node1&#45;&gt;Node3</title>
<path fill="none" stroke="midnightblue" d="M232.273,-119.763C182.233,-116.025 61.6239,-102.097 99,-56 121.603,-28.1223 227.895,-16.8413 281.266,-12.8748"/>
<polygon fill="midnightblue" stroke="midnightblue" points="281.768,-16.3482 291.498,-12.1561 281.277,-9.36542 281.768,-16.3482"/>
</g>
<!-- Node4 -->
<g id="node4" class="node"><title>Node4</title>
<polygon fill="white" stroke="#bfbfbf" points="108,-56.5 108,-75.5 170,-75.5 170,-56.5 108,-56.5"/>
<text text-anchor="middle" x="139" y="-63.5" font-family="Helvetica,sans-Serif" font-size="10.00">type_traits</text>
</g>
<!-- Node1&#45;&gt;Node4 -->
<g id="edge3" class="edge"><title>Node1&#45;&gt;Node4</title>
<path fill="none" stroke="midnightblue" d="M234.936,-112.444C216.425,-103.675 187.419,-89.9355 166.145,-79.8579"/>
<polygon fill="midnightblue" stroke="midnightblue" points="167.515,-76.6343 156.979,-75.5164 164.518,-82.9604 167.515,-76.6343"/>
</g>
<!-- Node5 -->
<g id="node5" class="node"><title>Node5</title>
<polygon fill="white" stroke="#bfbfbf" points="188.5,-56.5 188.5,-75.5 317.5,-75.5 317.5,-56.5 188.5,-56.5"/>
<text text-anchor="middle" x="253" y="-63.5" font-family="Helvetica,sans-Serif" font-size="10.00">boost/algorithm/string.hpp</text>
</g>
<!-- Node1&#45;&gt;Node5 -->
<g id="edge4" class="edge"><title>Node1&#45;&gt;Node5</title>
<path fill="none" stroke="midnightblue" d="M253,-112.083C253,-105.006 253,-94.8611 253,-85.9865"/>
<polygon fill="midnightblue" stroke="midnightblue" points="256.5,-85.751 253,-75.7511 249.5,-85.7511 256.5,-85.751"/>
</g>
<!-- Node6 -->
<g id="node6" class="node"><title>Node6</title>
<polygon fill="white" stroke="#bfbfbf" points="336,-56.5 336,-75.5 450,-75.5 450,-56.5 336,-56.5"/>
<text text-anchor="middle" x="393" y="-63.5" font-family="Helvetica,sans-Serif" font-size="10.00">boost/lexical_cast.hpp</text>
</g>
<!-- Node1&#45;&gt;Node6 -->
<g id="edge5" class="edge"><title>Node1&#45;&gt;Node6</title>
<path fill="none" stroke="midnightblue" d="M273.657,-113.032C296.825,-104.096 334.665,-89.5007 361.52,-79.1422"/>
<polygon fill="midnightblue" stroke="midnightblue" points="362.799,-82.4003 370.87,-75.536 360.28,-75.8692 362.799,-82.4003"/>
</g>
<!-- Node7 -->
<g id="node7" class="node"><title>Node7</title>
<polygon fill="white" stroke="#bfbfbf" points="468.5,-56.5 468.5,-75.5 571.5,-75.5 571.5,-56.5 468.5,-56.5"/>
<text text-anchor="middle" x="520" y="-63.5" font-family="Helvetica,sans-Serif" font-size="10.00">libxml++/libxml++.h</text>
</g>
<!-- Node1&#45;&gt;Node7 -->
<g id="edge6" class="edge"><title>Node1&#45;&gt;Node7</title>
<path fill="none" stroke="midnightblue" d="M273.508,-116.852C314.718,-108.518 408.692,-89.5117 467.97,-77.523"/>
<polygon fill="midnightblue" stroke="midnightblue" points="468.784,-80.9292 477.892,-75.5162 467.397,-74.0681 468.784,-80.9292"/>
</g>
<!-- Node8 -->
<g id="node8" class="node"><title>Node8</title>
<g id="a_node8"><a xlink:href="error_8h.xhtml" target="_top" xlink:title="Exceptions for SCRAM. ">
<polygon fill="white" stroke="black" points="590,-56.5 590,-75.5 634,-75.5 634,-56.5 590,-56.5"/>
<text text-anchor="middle" x="612" y="-63.5" font-family="Helvetica,sans-Serif" font-size="10.00">error.h</text>
</a>
</g>
</g>
<!-- Node1&#45;&gt;Node8 -->
<g id="edge7" class="edge"><title>Node1&#45;&gt;Node8</title>
<path fill="none" stroke="midnightblue" d="M273.829,-119.136C324.487,-114.393 458.249,-100.604 579.865,-75.7341"/>
<polygon fill="midnightblue" stroke="midnightblue" points="580.637,-79.1485 589.717,-73.6891 579.214,-72.2946 580.637,-79.1485"/>
</g>
<!-- Node8&#45;&gt;Node3 -->
<g id="edge9" class="edge"><title>Node8&#45;&gt;Node3</title>
<path fill="none" stroke="midnightblue" d="M589.698,-58.3965C586.459,-57.534 583.154,-56.7061 580,-56 494.859,-36.9374 392.874,-21.933 342.811,-15.0714"/>
<polygon fill="midnightblue" stroke="midnightblue" points="343.036,-11.5699 332.656,-13.6941 342.095,-18.5064 343.036,-11.5699"/>
</g>
<!-- Node9 -->
<g id="node9" class="node"><title>Node9</title>
<polygon fill="white" stroke="#bfbfbf" points="582.5,-0.5 582.5,-19.5 641.5,-19.5 641.5,-0.5 582.5,-0.5"/>
<text text-anchor="middle" x="612" y="-7.5" font-family="Helvetica,sans-Serif" font-size="10.00">exception</text>
</g>
<!-- Node8&#45;&gt;Node9 -->
<g id="edge8" class="edge"><title>Node8&#45;&gt;Node9</title>
<path fill="none" stroke="midnightblue" d="M612,-56.083C612,-49.0059 612,-38.8611 612,-29.9865"/>
<polygon fill="midnightblue" stroke="midnightblue" points="615.5,-29.751 612,-19.7511 608.5,-29.7511 615.5,-29.751"/>
</g>
</g>
</svg>
