<?xml version="1.0" encoding="UTF-8" standalone="no"?>
<!DOCTYPE svg PUBLIC "-//W3C//DTD SVG 1.1//EN"
 "http://www.w3.org/Graphics/SVG/1.1/DTD/svg11.dtd">
<!-- Generated by graphviz version 2.38.0 (20140413.2041)
 -->
<!-- Title: scram::CastChildText Pages: 1 -->
<svg width="257pt" height="46pt"
 viewBox="0.00 0.00 257.00 46.00" xmlns="http://www.w3.org/2000/svg" xmlns:xlink="http://www.w3.org/1999/xlink">
<g id="graph0" class="graph" transform="scale(1 1) rotate(0) translate(4 42)">
<title>scram::CastChildText</title>
<polygon fill="white" stroke="none" points="-4,4 -4,-42 253,-42 253,4 -4,4"/>
<!-- Node1 -->
<g id="node1" class="node"><title>Node1</title>
<polygon fill="#bfbfbf" stroke="black" points="0,-0.5 0,-19.5 113,-19.5 113,-0.5 0,-0.5"/>
<text text-anchor="middle" x="56.5" y="-7.5" font-family="Helvetica,sans-Serif" font-size="10.00">scram::CastChildText</text>
</g>
<!-- Node1&#45;&gt;Node1 -->
<g id="edge1" class="edge"><title>Node1&#45;&gt;Node1</title>
<path fill="none" stroke="midnightblue" d="M34.6137,-19.7571C23.9663,-28.5653 31.2617,-38 56.5,-38 73.0626,-38 81.8979,-33.9368 83.0059,-28.6539"/>
<polygon fill="midnightblue" stroke="midnightblue" points="86.1008,-27.0192 78.3863,-19.7571 79.8883,-30.2449 86.1008,-27.0192"/>
</g>
<!-- Node2 -->
<g id="node2" class="node"><title>Node2</title>
<g id="a_node2"><a xlink:href="xml_8h.xhtml#a818b7826f3993c5ff58d45a237274285" target="_top" xlink:title="Returns Normalized content of an XML text node. ">
<polygon fill="white" stroke="black" points="149,-0.5 149,-19.5 249,-19.5 249,-0.5 149,-0.5"/>
<text text-anchor="middle" x="199" y="-7.5" font-family="Helvetica,sans-Serif" font-size="10.00">scram::GetContent</text>
</a>
</g>
</g>
<!-- Node1&#45;&gt;Node2 -->
<g id="edge2" class="edge"><title>Node1&#45;&gt;Node2</title>
<path fill="none" stroke="midnightblue" d="M113.029,-10C121.427,-10 130.119,-10 138.595,-10"/>
<polygon fill="midnightblue" stroke="midnightblue" points="138.792,-13.5001 148.792,-10 138.792,-6.5001 138.792,-13.5001"/>
</g>
<!-- Node2&#45;&gt;Node2 -->
<g id="edge3" class="edge"><title>Node2&#45;&gt;Node2</title>
<path fill="none" stroke="midnightblue" d="M177.114,-19.7571C166.466,-28.5653 173.762,-38 199,-38 215.563,-38 224.398,-33.9368 225.506,-28.6539"/>
<polygon fill="midnightblue" stroke="midnightblue" points="228.601,-27.0192 220.886,-19.7571 222.388,-30.2449 228.601,-27.0192"/>
</g>
</g>
</svg>
