<?xml version="1.0" encoding="UTF-8" standalone="no"?>
<!DOCTYPE svg PUBLIC "-//W3C//DTD SVG 1.1//EN"
 "http://www.w3.org/Graphics/SVG/1.1/DTD/svg11.dtd">
<!-- Generated by graphviz version 2.38.0 (20140413.2041)
 -->
<!-- Title: xml_stream.h Pages: 1 -->
<svg width="207pt" height="140pt"
 viewBox="0.00 0.00 207.00 140.00" xmlns="http://www.w3.org/2000/svg" xmlns:xlink="http://www.w3.org/1999/xlink">
<g id="graph0" class="graph" transform="scale(1 1) rotate(0) translate(4 136)">
<title>xml_stream.h</title>
<polygon fill="white" stroke="none" points="-4,4 -4,-136 203,-136 203,4 -4,4"/>
<!-- Node1 -->
<g id="node1" class="node"><title>Node1</title>
<polygon fill="#bfbfbf" stroke="black" points="76.5,-112.5 76.5,-131.5 152.5,-131.5 152.5,-112.5 76.5,-112.5"/>
<text text-anchor="middle" x="114.5" y="-119.5" font-family="Helvetica,sans-Serif" font-size="10.00">xml_stream.h</text>
</g>
<!-- Node2 -->
<g id="node2" class="node"><title>Node2</title>
<g id="a_node2"><a xlink:href="reporter_8h.xhtml" target="_top" xlink:title="Reporter of results. ">
<polygon fill="white" stroke="black" points="41.5,-56.5 41.5,-75.5 99.5,-75.5 99.5,-56.5 41.5,-56.5"/>
<text text-anchor="middle" x="70.5" y="-63.5" font-family="Helvetica,sans-Serif" font-size="10.00">reporter.h</text>
</a>
</g>
</g>
<!-- Node1&#45;&gt;Node2 -->
<g id="edge1" class="edge"><title>Node1&#45;&gt;Node2</title>
<path fill="none" stroke="midnightblue" d="M100.765,-104.144C93.0995,-94.7357 83.8667,-83.4046 77.6305,-75.7511"/>
<polygon fill="midnightblue" stroke="midnightblue" points="98.2042,-106.541 107.234,-112.083 103.631,-102.12 98.2042,-106.541"/>
</g>
<!-- Node5 -->
<g id="node5" class="node"><title>Node5</title>
<g id="a_node5"><a xlink:href="xml__stream_8cc.xhtml" target="_top" xlink:title="Implementation of facilities to stream for XML data. ">
<polygon fill="white" stroke="black" points="118,-56.5 118,-75.5 199,-75.5 199,-56.5 118,-56.5"/>
<text text-anchor="middle" x="158.5" y="-63.5" font-family="Helvetica,sans-Serif" font-size="10.00">xml_stream.cc</text>
</a>
</g>
</g>
<!-- Node1&#45;&gt;Node5 -->
<g id="edge4" class="edge"><title>Node1&#45;&gt;Node5</title>
<path fill="none" stroke="midnightblue" d="M128.235,-104.144C135.901,-94.7357 145.133,-83.4046 151.369,-75.7511"/>
<polygon fill="midnightblue" stroke="midnightblue" points="125.369,-102.12 121.766,-112.083 130.796,-106.541 125.369,-102.12"/>
</g>
<!-- Node3 -->
<g id="node3" class="node"><title>Node3</title>
<g id="a_node3"><a xlink:href="reporter_8cc.xhtml" target="_top" xlink:title="Implements Reporter class. ">
<polygon fill="white" stroke="black" points="0,-0.5 0,-19.5 63,-19.5 63,-0.5 0,-0.5"/>
<text text-anchor="middle" x="31.5" y="-7.5" font-family="Helvetica,sans-Serif" font-size="10.00">reporter.cc</text>
</a>
</g>
</g>
<!-- Node2&#45;&gt;Node3 -->
<g id="edge2" class="edge"><title>Node2&#45;&gt;Node3</title>
<path fill="none" stroke="midnightblue" d="M58.1178,-47.8554C51.3646,-38.5048 43.2914,-27.3265 37.8202,-19.7511"/>
<polygon fill="midnightblue" stroke="midnightblue" points="55.3676,-50.0254 64.0599,-56.083 61.0424,-45.927 55.3676,-50.0254"/>
</g>
<!-- Node4 -->
<g id="node4" class="node"><title>Node4</title>
<g id="a_node4"><a xlink:href="scram_8cc.xhtml" target="_top" xlink:title="Main entrance. ">
<polygon fill="white" stroke="black" points="81,-0.5 81,-19.5 138,-19.5 138,-0.5 81,-0.5"/>
<text text-anchor="middle" x="109.5" y="-7.5" font-family="Helvetica,sans-Serif" font-size="10.00">scram.cc</text>
</a>
</g>
</g>
<!-- Node2&#45;&gt;Node4 -->
<g id="edge3" class="edge"><title>Node2&#45;&gt;Node4</title>
<path fill="none" stroke="midnightblue" d="M82.8822,-47.8554C89.6354,-38.5048 97.7086,-27.3265 103.18,-19.7511"/>
<polygon fill="midnightblue" stroke="midnightblue" points="79.9576,-45.927 76.9401,-56.083 85.6324,-50.0254 79.9576,-45.927"/>
</g>
</g>
</svg>
