<?xml version="1.0" encoding="UTF-8" standalone="no"?>
<!DOCTYPE svg PUBLIC "-//W3C//DTD SVG 1.1//EN"
 "http://www.w3.org/Graphics/SVG/1.1/DTD/svg11.dtd">
<!-- Generated by graphviz version 2.38.0 (20140413.2041)
 -->
<!-- Title: scram::XmlElement Pages: 1 -->
<svg width="292pt" height="235pt"
 viewBox="0.00 0.00 292.00 235.00" xmlns="http://www.w3.org/2000/svg" xmlns:xlink="http://www.w3.org/1999/xlink">
<g id="graph0" class="graph" transform="scale(1 1) rotate(0) translate(4 231)">
<title>scram::XmlElement</title>
<polygon fill="white" stroke="none" points="-4,4 -4,-231 288,-231 288,4 -4,4"/>
<!-- Node1 -->
<g id="node1" class="node"><title>Node1</title>
<polygon fill="#bfbfbf" stroke="black" points="0,-114.5 0,-133.5 103,-133.5 103,-114.5 0,-114.5"/>
<text text-anchor="middle" x="51.5" y="-121.5" font-family="Helvetica,sans-Serif" font-size="10.00">scram::XmlElement</text>
</g>
<!-- Node1&#45;&gt;Node1 -->
<g id="edge6" class="edge"><title>Node1&#45;&gt;Node1</title>
<path fill="none" stroke="midnightblue" d="M21.5599,-142.275C22.4135,-147.741 32.3936,-152 51.5,-152 79.9375,-152 88.1577,-142.565 76.1606,-133.757"/>
<polygon fill="midnightblue" stroke="midnightblue" points="24.5458,-144.101 26.8394,-133.757 18.596,-140.413 24.5458,-144.101"/>
</g>
<!-- Node2 -->
<g id="node2" class="node"><title>Node2</title>
<g id="a_node2"><a xlink:href="classscram_1_1Config.xhtml#ab0d7940fbb627fab9867821e133eab5d" target="_top" xlink:title="A constructor with configurations for analysis. ">
<polygon fill="white" stroke="black" points="155,-207.5 155,-226.5 268,-226.5 268,-207.5 155,-207.5"/>
<text text-anchor="middle" x="211.5" y="-214.5" font-family="Helvetica,sans-Serif" font-size="10.00">scram::Config::Config</text>
</a>
</g>
</g>
<!-- Node1&#45;&gt;Node2 -->
<g id="edge1" class="edge"><title>Node1&#45;&gt;Node2</title>
<path fill="none" stroke="midnightblue" d="M68.1069,-141.26C84.2684,-158.114 111.034,-183.309 139,-198 146.277,-201.823 154.384,-204.922 162.452,-207.42"/>
<polygon fill="midnightblue" stroke="midnightblue" points="70.4553,-138.647 61.0661,-133.738 65.345,-143.431 70.4553,-138.647"/>
</g>
<!-- Node3 -->
<g id="node3" class="node"><title>Node3</title>
<g id="a_node3"><a xlink:href="classscram_1_1mef_1_1Initializer.xhtml#a8fb6959baa83f7619b3ca9ed8423d40a" target="_top" xlink:title="Reads input files with the structure of analysis constructs. ">
<polygon fill="white" stroke="black" points="156,-158 156,-188 267,-188 267,-158 156,-158"/>
<text text-anchor="start" x="164" y="-176" font-family="Helvetica,sans-Serif" font-size="10.00">scram::mef::Initializer</text>
<text text-anchor="middle" x="211.5" y="-165" font-family="Helvetica,sans-Serif" font-size="10.00">::Initializer</text>
</a>
</g>
</g>
<!-- Node1&#45;&gt;Node3 -->
<g id="edge2" class="edge"><title>Node1&#45;&gt;Node3</title>
<path fill="none" stroke="midnightblue" d="M92.9435,-136.543C113.997,-143.072 139.891,-151.102 162.013,-157.963"/>
<polygon fill="midnightblue" stroke="midnightblue" points="93.9271,-133.183 83.3391,-133.564 91.8535,-139.869 93.9271,-133.183"/>
</g>
<!-- Node4 -->
<g id="node4" class="node"><title>Node4</title>
<g id="a_node4"><a xlink:href="structscram_1_1mef_1_1Initializer_1_1Extractor.xhtml#ae29f35dea83c6f8ad98ace2bcf98e6ea" target="_top" xlink:title="Extracts and accumulates expressions to be passed to the constructor of expression T...">
<polygon fill="white" stroke="black" points="156,-109 156,-139 267,-139 267,-109 156,-109"/>
<text text-anchor="start" x="164" y="-127" font-family="Helvetica,sans-Serif" font-size="10.00">scram::mef::Initializer</text>
<text text-anchor="middle" x="211.5" y="-116" font-family="Helvetica,sans-Serif" font-size="10.00">::Extractor::operator()</text>
</a>
</g>
</g>
<!-- Node1&#45;&gt;Node4 -->
<g id="edge3" class="edge"><title>Node1&#45;&gt;Node4</title>
<path fill="none" stroke="midnightblue" d="M113.389,-124C127.393,-124 142.198,-124 155.914,-124"/>
<polygon fill="midnightblue" stroke="midnightblue" points="113.362,-120.5 103.362,-124 113.362,-127.5 113.362,-120.5"/>
</g>
<!-- Node5 -->
<g id="node5" class="node"><title>Node5</title>
<g id="a_node5"><a xlink:href="structscram_1_1mef_1_1Initializer_1_1Extractor_3_01T_00-1_01_4.xhtml#aa3a2ab99081e017bfa97747a8f6bca04" target="_top" xlink:title="Constructs an expression with a variable number of arguments. ">
<polygon fill="white" stroke="black" points="139,-60 139,-90 284,-90 284,-60 139,-60"/>
<text text-anchor="start" x="147" y="-78" font-family="Helvetica,sans-Serif" font-size="10.00">scram::mef::Initializer</text>
<text text-anchor="middle" x="211.5" y="-67" font-family="Helvetica,sans-Serif" font-size="10.00">::Extractor&lt; T,&#45;1 &gt;::operator()</text>
</a>
</g>
</g>
<!-- Node1&#45;&gt;Node5 -->
<g id="edge4" class="edge"><title>Node1&#45;&gt;Node5</title>
<path fill="none" stroke="midnightblue" d="M92.9435,-111.457C113.997,-104.928 139.891,-96.8976 162.013,-90.037"/>
<polygon fill="midnightblue" stroke="midnightblue" points="91.8535,-108.131 83.3391,-114.436 93.9271,-114.817 91.8535,-108.131"/>
</g>
<!-- Node6 -->
<g id="node6" class="node"><title>Node6</title>
<g id="a_node6"><a xlink:href="structscram_1_1mef_1_1Initializer_1_1Extractor_3_01Histogram_00-1_01_4.xhtml#ac0e94ff09dd707d3c253937a172e7fc7" target="_top" xlink:title="Constructs Histogram deviate expression expression arguments in XML elements. ">
<polygon fill="white" stroke="black" points="152,-0.5 152,-41.5 271,-41.5 271,-0.5 152,-0.5"/>
<text text-anchor="start" x="160" y="-29.5" font-family="Helvetica,sans-Serif" font-size="10.00">scram::mef::Initializer</text>
<text text-anchor="start" x="160" y="-18.5" font-family="Helvetica,sans-Serif" font-size="10.00">::Extractor&lt; Histogram,</text>
<text text-anchor="middle" x="211.5" y="-7.5" font-family="Helvetica,sans-Serif" font-size="10.00">&#45;1 &gt;::operator()</text>
</a>
</g>
</g>
<!-- Node1&#45;&gt;Node6 -->
<g id="edge5" class="edge"><title>Node1&#45;&gt;Node6</title>
<path fill="none" stroke="midnightblue" d="M69.1409,-107.259C85.7318,-91.252 112.496,-67.2177 139,-51 144.512,-47.6275 150.47,-44.465 156.514,-41.5523"/>
<polygon fill="midnightblue" stroke="midnightblue" points="66.5465,-104.902 61.8593,-114.403 71.4487,-109.898 66.5465,-104.902"/>
</g>
</g>
</svg>
