<?xml version="1.0" encoding="UTF-8" standalone="no"?>
<!DOCTYPE svg PUBLIC "-//W3C//DTD SVG 1.1//EN"
 "http://www.w3.org/Graphics/SVG/1.1/DTD/svg11.dtd">
<!-- Generated by graphviz version 2.38.0 (20140413.2041)
 -->
<!-- Title: xml_stream.cc Pages: 1 -->
<svg width="236pt" height="196pt"
 viewBox="0.00 0.00 235.50 196.00" xmlns="http://www.w3.org/2000/svg" xmlns:xlink="http://www.w3.org/1999/xlink">
<g id="graph0" class="graph" transform="scale(1 1) rotate(0) translate(4 192)">
<title>xml_stream.cc</title>
<polygon fill="white" stroke="none" points="-4,4 -4,-192 231.5,-192 231.5,4 -4,4"/>
<!-- Node1 -->
<g id="node1" class="node"><title>Node1</title>
<polygon fill="#bfbfbf" stroke="black" points="109.5,-168.5 109.5,-187.5 190.5,-187.5 190.5,-168.5 109.5,-168.5"/>
<text text-anchor="middle" x="150" y="-175.5" font-family="Helvetica,sans-Serif" font-size="10.00">xml_stream.cc</text>
</g>
<!-- Node2 -->
<g id="node2" class="node"><title>Node2</title>
<g id="a_node2"><a xlink:href="xml__stream_8h.xhtml" target="_top" xlink:title="Facilities to stream data in XML format. ">
<polygon fill="white" stroke="black" points="46,-112.5 46,-131.5 122,-131.5 122,-112.5 46,-112.5"/>
<text text-anchor="middle" x="84" y="-119.5" font-family="Helvetica,sans-Serif" font-size="10.00">xml_stream.h</text>
</a>
</g>
</g>
<!-- Node1&#45;&gt;Node2 -->
<g id="edge1" class="edge"><title>Node1&#45;&gt;Node2</title>
<path fill="none" stroke="midnightblue" d="M139.396,-168.324C129.544,-160.263 114.649,-148.077 102.785,-138.369"/>
<polygon fill="midnightblue" stroke="midnightblue" points="104.753,-135.457 94.797,-131.834 100.32,-140.875 104.753,-135.457"/>
</g>
<!-- Node6 -->
<g id="node6" class="node"><title>Node6</title>
<polygon fill="white" stroke="#bfbfbf" points="129.5,-0.5 129.5,-19.5 170.5,-19.5 170.5,-0.5 129.5,-0.5"/>
<text text-anchor="middle" x="150" y="-7.5" font-family="Helvetica,sans-Serif" font-size="10.00">string</text>
</g>
<!-- Node1&#45;&gt;Node6 -->
<g id="edge7" class="edge"><title>Node1&#45;&gt;Node6</title>
<path fill="none" stroke="midnightblue" d="M150,-168.075C150,-141.945 150,-65.2106 150,-29.577"/>
<polygon fill="midnightblue" stroke="midnightblue" points="153.5,-29.5681 150,-19.5681 146.5,-29.5681 153.5,-29.5681"/>
</g>
<!-- Node7 -->
<g id="node7" class="node"><title>Node7</title>
<polygon fill="white" stroke="#bfbfbf" points="178.5,-112.5 178.5,-131.5 227.5,-131.5 227.5,-112.5 178.5,-112.5"/>
<text text-anchor="middle" x="203" y="-119.5" font-family="Helvetica,sans-Serif" font-size="10.00">cassert</text>
</g>
<!-- Node1&#45;&gt;Node7 -->
<g id="edge6" class="edge"><title>Node1&#45;&gt;Node7</title>
<path fill="none" stroke="midnightblue" d="M158.752,-168.083C166.47,-160.22 177.905,-148.569 187.217,-139.081"/>
<polygon fill="midnightblue" stroke="midnightblue" points="189.904,-141.34 194.411,-131.751 184.908,-136.436 189.904,-141.34"/>
</g>
<!-- Node3 -->
<g id="node3" class="node"><title>Node3</title>
<polygon fill="white" stroke="#bfbfbf" points="0,-56.5 0,-75.5 52,-75.5 52,-56.5 0,-56.5"/>
<text text-anchor="middle" x="26" y="-63.5" font-family="Helvetica,sans-Serif" font-size="10.00">ostream</text>
</g>
<!-- Node2&#45;&gt;Node3 -->
<g id="edge2" class="edge"><title>Node2&#45;&gt;Node3</title>
<path fill="none" stroke="midnightblue" d="M74.6813,-112.324C66.1074,-104.341 53.1878,-92.3128 42.8124,-82.6529"/>
<polygon fill="midnightblue" stroke="midnightblue" points="45.1922,-80.0865 35.4883,-75.8339 40.4223,-85.2098 45.1922,-80.0865"/>
</g>
<!-- Node4 -->
<g id="node4" class="node"><title>Node4</title>
<g id="a_node4"><a xlink:href="error_8h.xhtml" target="_top" xlink:title="Exceptions for SCRAM. ">
<polygon fill="white" stroke="black" points="70,-56.5 70,-75.5 114,-75.5 114,-56.5 70,-56.5"/>
<text text-anchor="middle" x="92" y="-63.5" font-family="Helvetica,sans-Serif" font-size="10.00">error.h</text>
</a>
</g>
</g>
<!-- Node2&#45;&gt;Node4 -->
<g id="edge3" class="edge"><title>Node2&#45;&gt;Node4</title>
<path fill="none" stroke="midnightblue" d="M85.321,-112.083C86.3811,-104.927 87.9059,-94.6353 89.2309,-85.6911"/>
<polygon fill="midnightblue" stroke="midnightblue" points="92.7002,-86.1561 90.7035,-75.7511 85.7758,-85.1302 92.7002,-86.1561"/>
</g>
<!-- Node5 -->
<g id="node5" class="node"><title>Node5</title>
<polygon fill="white" stroke="#bfbfbf" points="52.5,-0.5 52.5,-19.5 111.5,-19.5 111.5,-0.5 52.5,-0.5"/>
<text text-anchor="middle" x="82" y="-7.5" font-family="Helvetica,sans-Serif" font-size="10.00">exception</text>
</g>
<!-- Node4&#45;&gt;Node5 -->
<g id="edge4" class="edge"><title>Node4&#45;&gt;Node5</title>
<path fill="none" stroke="midnightblue" d="M90.3487,-56.083C89.0236,-48.9272 87.1176,-38.6353 85.4613,-29.6911"/>
<polygon fill="midnightblue" stroke="midnightblue" points="88.883,-28.9466 83.6206,-19.7511 82.0001,-30.2212 88.883,-28.9466"/>
</g>
<!-- Node4&#45;&gt;Node6 -->
<g id="edge5" class="edge"><title>Node4&#45;&gt;Node6</title>
<path fill="none" stroke="midnightblue" d="M101.319,-56.324C109.893,-48.3414 122.812,-36.3128 133.188,-26.6529"/>
<polygon fill="midnightblue" stroke="midnightblue" points="135.578,-29.2098 140.512,-19.8339 130.808,-24.0865 135.578,-29.2098"/>
</g>
</g>
</svg>
