<?xml version="1.0" encoding="UTF-8" standalone="no"?>
<!DOCTYPE svg PUBLIC "-//W3C//DTD SVG 1.1//EN"
 "http://www.w3.org/Graphics/SVG/1.1/DTD/svg11.dtd">
<!-- Generated by graphviz version 2.38.0 (20140413.2041)
 -->
<!-- Title: scram::CastAttributeValue Pages: 1 -->
<svg width="303pt" height="46pt"
 viewBox="0.00 0.00 303.00 46.00" xmlns="http://www.w3.org/2000/svg" xmlns:xlink="http://www.w3.org/1999/xlink">
<g id="graph0" class="graph" transform="scale(1 1) rotate(0) translate(4 42)">
<title>scram::CastAttributeValue</title>
<polygon fill="white" stroke="none" points="-4,4 -4,-42 299,-42 299,4 -4,4"/>
<!-- Node1 -->
<g id="node1" class="node"><title>Node1</title>
<polygon fill="#bfbfbf" stroke="black" points="0,-0.5 0,-19.5 132,-19.5 132,-0.5 0,-0.5"/>
<text text-anchor="middle" x="66" y="-7.5" font-family="Helvetica,sans-Serif" font-size="10.00">scram::CastAttributeValue</text>
</g>
<!-- Node1&#45;&gt;Node1 -->
<g id="edge1" class="edge"><title>Node1&#45;&gt;Node1</title>
<path fill="none" stroke="midnightblue" d="M40.7228,-19.7571C28.4258,-28.5653 36.8516,-38 66,-38 85.5841,-38 95.8136,-33.741 96.6886,-28.2746"/>
<polygon fill="midnightblue" stroke="midnightblue" points="99.594,-26.3207 91.2772,-19.7571 93.6856,-30.0745 99.594,-26.3207"/>
</g>
<!-- Node2 -->
<g id="node2" class="node"><title>Node2</title>
<g id="a_node2"><a xlink:href="xml_8h.xhtml#a0c5491388e25d1f1badb26b56ef302e7" target="_top" xlink:title="Returns Normalized (trimmed) string value of an XML element attribute. ">
<polygon fill="white" stroke="black" points="168,-0.5 168,-19.5 295,-19.5 295,-0.5 168,-0.5"/>
<text text-anchor="middle" x="231.5" y="-7.5" font-family="Helvetica,sans-Serif" font-size="10.00">scram::GetAttributeValue</text>
</a>
</g>
</g>
<!-- Node1&#45;&gt;Node2 -->
<g id="edge2" class="edge"><title>Node1&#45;&gt;Node2</title>
<path fill="none" stroke="midnightblue" d="M132.089,-10C140.446,-10 149.046,-10 157.518,-10"/>
<polygon fill="midnightblue" stroke="midnightblue" points="157.765,-13.5001 167.765,-10 157.765,-6.5001 157.765,-13.5001"/>
</g>
<!-- Node2&#45;&gt;Node2 -->
<g id="edge3" class="edge"><title>Node2&#45;&gt;Node2</title>
<path fill="none" stroke="midnightblue" d="M206.223,-19.7571C193.926,-28.5653 202.352,-38 231.5,-38 251.084,-38 261.314,-33.741 262.189,-28.2746"/>
<polygon fill="midnightblue" stroke="midnightblue" points="265.094,-26.3207 256.777,-19.7571 259.186,-30.0745 265.094,-26.3207"/>
</g>
</g>
</svg>
