<?xml version="1.0" encoding="UTF-8" standalone="no"?>
<!DOCTYPE svg PUBLIC "-//W3C//DTD SVG 1.1//EN"
 "http://www.w3.org/Graphics/SVG/1.1/DTD/svg11.dtd">
<!-- Generated by graphviz version 2.38.0 (20140413.2041)
 -->
<!-- Title: zbdd.cc Pages: 1 -->
<!--zoomable 341 -->
<svg id="main" version="1.1" xmlns="http://www.w3.org/2000/svg" xmlns:xlink="http://www.w3.org/1999/xlink" xml:space="preserve" onload="init(evt)">
<style type="text/css"><![CDATA[
.edge:hover path { stroke: red; }
.edge:hover polygon { stroke: red; fill: red; }
]]></style>
<script type="text/javascript"><![CDATA[
var edges = document.getElementsByTagName('g');
if (edges && edges.length) {
  for (var i=0;i<edges.length;i++) {
    if (edges[i].id.substr(0,4)=='edge') {
      edges[i].setAttribute('class','edge');
    }
  }
}
]]></script>
        <defs>
                <circle id="rim" cx="0" cy="0" r="7"/>
                <circle id="rim2" cx="0" cy="0" r="3.5"/>
                <g id="zoomPlus">
                        <use xlink:href="#rim" fill="#404040">
                                <set attributeName="fill" to="#808080" begin="zoomplus.mouseover" end="zoomplus.mouseout"/>
                        </use>
                        <path d="M-4,0h8M0,-4v8" fill="none" stroke="white" stroke-width="1.5" pointer-events="none"/>
                </g>
                <g id="zoomMin">
                        <use xlink:href="#rim" fill="#404040">
                                <set attributeName="fill" to="#808080" begin="zoomminus.mouseover" end="zoomminus.mouseout"/>
                        </use>
                        <path d="M-4,0h8" fill="none" stroke="white" stroke-width="1.5" pointer-events="none"/>
                </g>
                <g id="dirArrow">
                        <path fill="none" stroke="white" stroke-width="1.5" d="M0,-3.0v7 M-2.5,-0.5L0,-3.0L2.5,-0.5"/>
                </g>
               <g id="resetDef">
                       <use xlink:href="#rim2" fill="#404040">
                               <set attributeName="fill" to="#808080" begin="reset.mouseover" end="reset.mouseout"/>
                       </use>
               </g>
        </defs>

<script type="text/javascript">
var viewWidth = 1218;
var viewHeight = 341;
var sectionId = 'dynsection-0';
</script>
<script xlink:href="svgpan.js"/>
<svg id="graph" class="graph">
<g id="viewport">
<title>zbdd.cc</title>
<polygon fill="white" stroke="none" points="-4,4 -4,-337 1214,-337 1214,4 -4,4"/>
<!-- Node1 -->
<g id="node1" class="node"><title>Node1</title>
<polygon fill="#bfbfbf" stroke="black" points="963.5,-313.5 963.5,-332.5 1014.5,-332.5 1014.5,-313.5 963.5,-313.5"/>
<text text-anchor="middle" x="989" y="-320.5" font-family="Helvetica,sans-Serif" font-size="10.00">zbdd.cc</text>
</g>
<!-- Node2 -->
<g id="node2" class="node"><title>Node2</title>
<g id="a_node2"><a xlink:href="zbdd_8h.xhtml" target="_top" xlink:title="Zero&#45;Suppressed Binary Decision Diagram facilities. ">
<polygon fill="white" stroke="black" points="742,-257.5 742,-276.5 788,-276.5 788,-257.5 742,-257.5"/>
<text text-anchor="middle" x="765" y="-264.5" font-family="Helvetica,sans-Serif" font-size="10.00">zbdd.h</text>
</a>
</g>
</g>
<!-- Node1&#45;&gt;Node2 -->
<g id="edge1" class="edge"><title>Node1&#45;&gt;Node2</title>
<path fill="none" stroke="midnightblue" d="M963.304,-315.806C922.472,-305.962 842.806,-286.757 797.873,-275.925"/>
<polygon fill="midnightblue" stroke="midnightblue" points="798.582,-272.495 788.04,-273.554 796.941,-279.3 798.582,-272.495"/>
</g>
<!-- Node14 -->
<g id="node14" class="node"><title>Node14</title>
<polygon fill="white" stroke="#bfbfbf" points="562,-6 562,-25 618,-25 618,-6 562,-6"/>
<text text-anchor="middle" x="590" y="-13" font-family="Helvetica,sans-Serif" font-size="10.00">algorithm</text>
</g>
<!-- Node1&#45;&gt;Node14 -->
<g id="edge45" class="edge"><title>Node1&#45;&gt;Node14</title>
<path fill="none" stroke="midnightblue" d="M984.555,-313.266C970.259,-285.565 923.386,-197.754 872,-134 858.588,-117.36 821.738,-77.2793 803,-67 747.012,-36.2871 672.758,-24.1358 628.336,-19.4113"/>
<polygon fill="midnightblue" stroke="midnightblue" points="628.549,-15.9153 618.253,-18.4125 627.859,-22.8812 628.549,-15.9153"/>
</g>
<!-- Node20 -->
<g id="node20" class="node"><title>Node20</title>
<g id="a_node20"><a xlink:href="ext_8h.xhtml" target="_top" xlink:title="Helpful facilities as an extension to the standard library or Boost. ">
<polygon fill="white" stroke="black" points="851,-73 851,-92 889,-92 889,-73 851,-73"/>
<text text-anchor="middle" x="870" y="-80" font-family="Helvetica,sans-Serif" font-size="10.00">ext.h</text>
</a>
</g>
</g>
<!-- Node1&#45;&gt;Node20 -->
<g id="edge47" class="edge"><title>Node1&#45;&gt;Node20</title>
<path fill="none" stroke="midnightblue" d="M990.506,-313.157C994.904,-284.382 1005.03,-191.932 965,-134 949.51,-111.58 920.821,-98.3123 899.008,-91.0472"/>
<polygon fill="midnightblue" stroke="midnightblue" points="899.829,-87.6378 889.241,-88.0346 897.765,-94.3268 899.829,-87.6378"/>
</g>
<!-- Node28 -->
<g id="node28" class="node"><title>Node28</title>
<polygon fill="white" stroke="#bfbfbf" points="1017.5,-257.5 1017.5,-276.5 1146.5,-276.5 1146.5,-257.5 1017.5,-257.5"/>
<text text-anchor="middle" x="1082" y="-264.5" font-family="Helvetica,sans-Serif" font-size="10.00">boost/range/algorithm.hpp</text>
</g>
<!-- Node1&#45;&gt;Node28 -->
<g id="edge46" class="edge"><title>Node1&#45;&gt;Node28</title>
<path fill="none" stroke="midnightblue" d="M1003.94,-313.324C1018.59,-304.822 1041.13,-291.729 1058.24,-281.797"/>
<polygon fill="midnightblue" stroke="midnightblue" points="1060.2,-284.703 1067.1,-276.655 1056.69,-278.649 1060.2,-284.703"/>
</g>
<!-- Node29 -->
<g id="node29" class="node"><title>Node29</title>
<g id="a_node29"><a xlink:href="logger_8h.xhtml" target="_top" xlink:title="Logging capability for various purposes, such as warnings and debugging. ">
<polygon fill="white" stroke="black" points="1093.5,-140 1093.5,-159 1144.5,-159 1144.5,-140 1093.5,-140"/>
<text text-anchor="middle" x="1119" y="-147" font-family="Helvetica,sans-Serif" font-size="10.00">logger.h</text>
</a>
</g>
</g>
<!-- Node1&#45;&gt;Node29 -->
<g id="edge48" class="edge"><title>Node1&#45;&gt;Node29</title>
<path fill="none" stroke="midnightblue" d="M1014.79,-318.858C1057.25,-313.098 1138.88,-299.345 1156,-277 1181.52,-243.692 1151.49,-193.193 1132.4,-167.223"/>
<polygon fill="midnightblue" stroke="midnightblue" points="1135.07,-164.948 1126.22,-159.128 1129.51,-169.198 1135.07,-164.948"/>
</g>
<!-- Node3 -->
<g id="node3" class="node"><title>Node3</title>
<polygon fill="white" stroke="#bfbfbf" points="991,-73 991,-92 1037,-92 1037,-73 991,-73"/>
<text text-anchor="middle" x="1014" y="-80" font-family="Helvetica,sans-Serif" font-size="10.00">cstdint</text>
</g>
<!-- Node2&#45;&gt;Node3 -->
<g id="edge2" class="edge"><title>Node2&#45;&gt;Node3</title>
<path fill="none" stroke="midnightblue" d="M788.348,-261.55C815.323,-255.598 860.197,-243.135 893,-221 942.258,-187.761 984.079,-129.78 1003.07,-100.891"/>
<polygon fill="midnightblue" stroke="midnightblue" points="1006.14,-102.589 1008.62,-92.2873 1000.26,-98.7977 1006.14,-102.589"/>
</g>
<!-- Node4 -->
<g id="node4" class="node"><title>Node4</title>
<polygon fill="white" stroke="#bfbfbf" points="793,-201.5 793,-220.5 831,-220.5 831,-201.5 793,-201.5"/>
<text text-anchor="middle" x="812" y="-208.5" font-family="Helvetica,sans-Serif" font-size="10.00">array</text>
</g>
<!-- Node2&#45;&gt;Node4 -->
<g id="edge3" class="edge"><title>Node2&#45;&gt;Node4</title>
<path fill="none" stroke="midnightblue" d="M772.761,-257.083C779.537,-249.298 789.543,-237.801 797.755,-228.367"/>
<polygon fill="midnightblue" stroke="midnightblue" points="800.458,-230.592 804.383,-220.751 795.178,-225.996 800.458,-230.592"/>
</g>
<!-- Node5 -->
<g id="node5" class="node"><title>Node5</title>
<polygon fill="white" stroke="#bfbfbf" points="849.5,-201.5 849.5,-220.5 884.5,-220.5 884.5,-201.5 849.5,-201.5"/>
<text text-anchor="middle" x="867" y="-208.5" font-family="Helvetica,sans-Serif" font-size="10.00">map</text>
</g>
<!-- Node2&#45;&gt;Node5 -->
<g id="edge4" class="edge"><title>Node2&#45;&gt;Node5</title>
<path fill="none" stroke="midnightblue" d="M781.388,-257.324C797.671,-248.703 822.867,-235.364 841.716,-225.386"/>
<polygon fill="midnightblue" stroke="midnightblue" points="843.452,-228.427 850.653,-220.655 840.177,-222.24 843.452,-228.427"/>
</g>
<!-- Node6 -->
<g id="node6" class="node"><title>Node6</title>
<polygon fill="white" stroke="#bfbfbf" points="929,-6 929,-25 981,-25 981,-6 929,-6"/>
<text text-anchor="middle" x="955" y="-13" font-family="Helvetica,sans-Serif" font-size="10.00">memory</text>
</g>
<!-- Node2&#45;&gt;Node6 -->
<g id="edge5" class="edge"><title>Node2&#45;&gt;Node6</title>
<path fill="none" stroke="midnightblue" d="M788.062,-262.643C819.492,-257.348 876.802,-245.082 920,-221 988.354,-182.893 1016.88,-170.64 1046,-98 1051.13,-85.2115 1052.99,-78.873 1046,-67 1034.1,-46.795 1010.89,-34.098 990.882,-26.489"/>
<polygon fill="midnightblue" stroke="midnightblue" points="991.978,-23.1643 981.383,-23.1518 989.657,-29.7686 991.978,-23.1643"/>
</g>
<!-- Node7 -->
<g id="node7" class="node"><title>Node7</title>
<polygon fill="white" stroke="#bfbfbf" points="92.5,-73 92.5,-92 175.5,-92 175.5,-73 92.5,-73"/>
<text text-anchor="middle" x="134" y="-80" font-family="Helvetica,sans-Serif" font-size="10.00">unordered_map</text>
</g>
<!-- Node2&#45;&gt;Node7 -->
<g id="edge6" class="edge"><title>Node2&#45;&gt;Node7</title>
<path fill="none" stroke="midnightblue" d="M741.925,-264.574C623.846,-257.041 90.9674,-220.143 45,-165 36.178,-154.417 38.0665,-145.906 45,-134 55.5823,-115.828 75.4058,-103.664 93.6624,-95.8377"/>
<polygon fill="midnightblue" stroke="midnightblue" points="95.0037,-99.071 103.009,-92.1312 92.4233,-92.5639 95.0037,-99.071"/>
</g>
<!-- Node8 -->
<g id="node8" class="node"><title>Node8</title>
<polygon fill="white" stroke="#bfbfbf" points="0,-6 0,-25 40,-25 40,-6 0,-6"/>
<text text-anchor="middle" x="20" y="-13" font-family="Helvetica,sans-Serif" font-size="10.00">utility</text>
</g>
<!-- Node2&#45;&gt;Node8 -->
<g id="edge7" class="edge"><title>Node2&#45;&gt;Node8</title>
<path fill="none" stroke="midnightblue" d="M741.867,-265.59C628.094,-263.427 130.922,-252.245 70,-221 41.3403,-206.301 35.265,-195.175 24,-165 7.51634,-120.846 12.5277,-64.0595 16.7457,-35.1747"/>
<polygon fill="midnightblue" stroke="midnightblue" points="20.2111,-35.6684 18.3313,-25.2417 13.2986,-34.5649 20.2111,-35.6684"/>
</g>
<!-- Node9 -->
<g id="node9" class="node"><title>Node9</title>
<polygon fill="white" stroke="#bfbfbf" points="91,-6 91,-25 135,-25 135,-6 91,-6"/>
<text text-anchor="middle" x="113" y="-13" font-family="Helvetica,sans-Serif" font-size="10.00">vector</text>
</g>
<!-- Node2&#45;&gt;Node9 -->
<g id="edge8" class="edge"><title>Node2&#45;&gt;Node9</title>
<path fill="none" stroke="midnightblue" d="M741.947,-265.53C644.028,-263.347 262.343,-252.918 147,-221 93.7453,-206.263 64.9653,-212.056 36,-165 7.07279,-118.006 63.5124,-58.959 94.527,-31.6436"/>
<polygon fill="midnightblue" stroke="midnightblue" points="96.8348,-34.2753 102.153,-25.1122 92.2815,-28.9586 96.8348,-34.2753"/>
</g>
<!-- Node10 -->
<g id="node10" class="node"><title>Node10</title>
<polygon fill="white" stroke="#bfbfbf" points="54,-140 54,-159 182,-159 182,-140 54,-140"/>
<text text-anchor="middle" x="118" y="-147" font-family="Helvetica,sans-Serif" font-size="10.00">boost/functional/hash.hpp</text>
</g>
<!-- Node2&#45;&gt;Node10 -->
<g id="edge9" class="edge"><title>Node2&#45;&gt;Node10</title>
<path fill="none" stroke="midnightblue" d="M741.818,-263.077C690.516,-256.503 563.56,-239.664 458,-221 353.192,-202.469 231.232,-175.966 165.629,-161.301"/>
<polygon fill="midnightblue" stroke="midnightblue" points="166.118,-157.824 155.595,-159.052 164.587,-164.654 166.118,-157.824"/>
</g>
<!-- Node11 -->
<g id="node11" class="node"><title>Node11</title>
<polygon fill="white" stroke="#bfbfbf" points="677.5,-73 677.5,-92 794.5,-92 794.5,-73 677.5,-73"/>
<text text-anchor="middle" x="736" y="-80" font-family="Helvetica,sans-Serif" font-size="10.00">boost/noncopyable.hpp</text>
</g>
<!-- Node2&#45;&gt;Node11 -->
<g id="edge10" class="edge"><title>Node2&#45;&gt;Node11</title>
<path fill="none" stroke="midnightblue" d="M765.384,-257.417C766.411,-243.941 770.181,-217.643 784,-201 806.601,-173.78 836.484,-195.148 855,-165 862.21,-153.26 862.605,-145.489 855,-134 841.997,-114.356 819.65,-102.331 797.809,-94.9796"/>
<polygon fill="midnightblue" stroke="midnightblue" points="798.765,-91.6119 788.177,-92.0135 796.704,-98.3018 798.765,-91.6119"/>
</g>
<!-- Node12 -->
<g id="node12" class="node"><title>Node12</title>
<g id="a_node12"><a xlink:href="bdd_8h.xhtml" target="_top" xlink:title="Fault tree analysis with the Binary Decision Diagram algorithms. ">
<polygon fill="white" stroke="black" points="467.5,-201.5 467.5,-220.5 508.5,-220.5 508.5,-201.5 467.5,-201.5"/>
<text text-anchor="middle" x="488" y="-208.5" font-family="Helvetica,sans-Serif" font-size="10.00">bdd.h</text>
</a>
</g>
</g>
<!-- Node2&#45;&gt;Node12 -->
<g id="edge11" class="edge"><title>Node2&#45;&gt;Node12</title>
<path fill="none" stroke="midnightblue" d="M741.86,-261.489C692.02,-251.773 574.53,-228.869 518.611,-217.967"/>
<polygon fill="midnightblue" stroke="midnightblue" points="519.086,-214.494 508.601,-216.016 517.746,-221.365 519.086,-214.494"/>
</g>
<!-- Node12&#45;&gt;Node6 -->
<g id="edge15" class="edge"><title>Node12&#45;&gt;Node6</title>
<path fill="none" stroke="midnightblue" d="M508.878,-209.11C577.076,-205.944 792.487,-193.843 855,-165 894.987,-146.55 904.085,-134.979 928,-98 940.616,-78.4924 947.878,-52.5287 951.629,-35.2011"/>
<polygon fill="midnightblue" stroke="midnightblue" points="955.097,-35.7058 953.608,-25.2161 948.231,-34.3449 955.097,-35.7058"/>
</g>
<!-- Node12&#45;&gt;Node7 -->
<g id="edge16" class="edge"><title>Node12&#45;&gt;Node7</title>
<path fill="none" stroke="midnightblue" d="M467.387,-207.548C432.585,-202.846 360.538,-190.665 305,-165 283.613,-155.117 282.673,-145.299 262,-134 232.631,-117.948 197.071,-104.34 170.892,-95.3096"/>
<polygon fill="midnightblue" stroke="midnightblue" points="171.945,-91.9709 161.351,-92.0769 169.699,-98.6008 171.945,-91.9709"/>
</g>
<!-- Node12&#45;&gt;Node8 -->
<g id="edge17" class="edge"><title>Node12&#45;&gt;Node8</title>
<path fill="none" stroke="midnightblue" d="M467.192,-207.159C408.725,-199.076 245.804,-175.843 224,-165 205.982,-156.039 208.412,-144.088 191,-134 143.557,-106.512 116.81,-130.971 73,-98 51.0279,-81.4639 35.5556,-52.9639 27.2096,-34.4269"/>
<polygon fill="midnightblue" stroke="midnightblue" points="30.3581,-32.8873 23.2167,-25.061 23.9189,-35.6325 30.3581,-32.8873"/>
</g>
<!-- Node12&#45;&gt;Node9 -->
<g id="edge18" class="edge"><title>Node12&#45;&gt;Node9</title>
<path fill="none" stroke="midnightblue" d="M467.315,-207.188C418.724,-200.375 298.641,-182.269 262,-165 242.284,-155.708 243.461,-143.815 224,-134 166.252,-104.874 122.675,-149.078 83,-98 67.8185,-78.4553 84.4381,-50.4687 98.3199,-32.9006"/>
<polygon fill="midnightblue" stroke="midnightblue" points="101.033,-35.1122 104.763,-25.1958 95.6632,-30.6215 101.033,-35.1122"/>
</g>
<!-- Node12&#45;&gt;Node10 -->
<g id="edge19" class="edge"><title>Node12&#45;&gt;Node10</title>
<path fill="none" stroke="midnightblue" d="M467.432,-207.053C419.683,-200.164 297.641,-182.275 196,-165 188.362,-163.702 180.314,-162.274 172.407,-160.836"/>
<polygon fill="midnightblue" stroke="midnightblue" points="172.973,-157.382 162.506,-159.019 171.709,-164.267 172.973,-157.382"/>
</g>
<!-- Node12&#45;&gt;Node11 -->
<g id="edge20" class="edge"><title>Node12&#45;&gt;Node11</title>
<path fill="none" stroke="midnightblue" d="M494.395,-201.315C506.447,-185.563 534.101,-152.229 565,-134 586.103,-121.55 646.498,-105.186 689.52,-94.5102"/>
<polygon fill="midnightblue" stroke="midnightblue" points="690.626,-97.8424 699.502,-92.0572 688.956,-91.0446 690.626,-97.8424"/>
</g>
<!-- Node13 -->
<g id="node13" class="node"><title>Node13</title>
<polygon fill="white" stroke="#bfbfbf" points="574,-140 574,-159 618,-159 618,-140 574,-140"/>
<text text-anchor="middle" x="596" y="-147" font-family="Helvetica,sans-Serif" font-size="10.00">cmath</text>
</g>
<!-- Node12&#45;&gt;Node13 -->
<g id="edge12" class="edge"><title>Node12&#45;&gt;Node13</title>
<path fill="none" stroke="midnightblue" d="M503.474,-201.475C521.278,-191.666 550.741,-175.435 571.632,-163.925"/>
<polygon fill="midnightblue" stroke="midnightblue" points="573.485,-166.9 580.555,-159.009 570.107,-160.769 573.485,-166.9"/>
</g>
<!-- Node12&#45;&gt;Node14 -->
<g id="edge13" class="edge"><title>Node12&#45;&gt;Node14</title>
<path fill="none" stroke="midnightblue" d="M477.673,-201.489C461.165,-186.851 432.307,-156.331 449,-134 482.849,-88.7198 532.199,-139.116 571,-98 586.855,-81.1994 590.344,-53.829 590.713,-35.4995"/>
<polygon fill="midnightblue" stroke="midnightblue" points="594.212,-35.3982 590.621,-25.4305 587.212,-35.4619 594.212,-35.3982"/>
</g>
<!-- Node15 -->
<g id="node15" class="node"><title>Node15</title>
<polygon fill="white" stroke="#bfbfbf" points="636.5,-140 636.5,-159 703.5,-159 703.5,-140 636.5,-140"/>
<text text-anchor="middle" x="670" y="-147" font-family="Helvetica,sans-Serif" font-size="10.00">forward_list</text>
</g>
<!-- Node12&#45;&gt;Node15 -->
<g id="edge14" class="edge"><title>Node12&#45;&gt;Node15</title>
<path fill="none" stroke="midnightblue" d="M508.749,-203.369C535.939,-194.661 585.094,-178.848 627,-165 629.576,-164.149 632.237,-163.264 634.914,-162.37"/>
<polygon fill="midnightblue" stroke="midnightblue" points="636.183,-165.636 644.551,-159.138 633.957,-159 636.183,-165.636"/>
</g>
<!-- Node16 -->
<g id="node16" class="node"><title>Node16</title>
<polygon fill="white" stroke="#bfbfbf" points="721.5,-134.5 721.5,-164.5 846.5,-164.5 846.5,-134.5 721.5,-134.5"/>
<text text-anchor="start" x="729.5" y="-152.5" font-family="Helvetica,sans-Serif" font-size="10.00">boost/smart_ptr/intrusive</text>
<text text-anchor="middle" x="784" y="-141.5" font-family="Helvetica,sans-Serif" font-size="10.00">_ptr.hpp</text>
</g>
<!-- Node12&#45;&gt;Node16 -->
<g id="edge21" class="edge"><title>Node12&#45;&gt;Node16</title>
<path fill="none" stroke="midnightblue" d="M508.692,-205.847C546.663,-198.224 630.27,-181.437 711.305,-165.139"/>
<polygon fill="midnightblue" stroke="midnightblue" points="712.058,-168.558 721.172,-163.155 710.678,-161.695 712.058,-168.558"/>
</g>
<!-- Node17 -->
<g id="node17" class="node"><title>Node17</title>
<g id="a_node17"><a xlink:href="boolean__graph_8h.xhtml" target="_top" xlink:title="Classes and facilities to represent simplified fault trees as Boolean graphs with event and gate indi...">
<polygon fill="white" stroke="black" points="314,-140 314,-159 402,-159 402,-140 314,-140"/>
<text text-anchor="middle" x="358" y="-147" font-family="Helvetica,sans-Serif" font-size="10.00">boolean_graph.h</text>
</a>
</g>
</g>
<!-- Node12&#45;&gt;Node17 -->
<g id="edge22" class="edge"><title>Node12&#45;&gt;Node17</title>
<path fill="none" stroke="midnightblue" d="M469.374,-201.475C447.557,-191.49 411.196,-174.848 385.983,-163.307"/>
<polygon fill="midnightblue" stroke="midnightblue" points="387.141,-159.988 376.591,-159.009 384.228,-166.353 387.141,-159.988"/>
</g>
<!-- Node26 -->
<g id="node26" class="node"><title>Node26</title>
<g id="a_node26"><a xlink:href="settings_8h.xhtml" target="_top" xlink:title="Builder for settings. ">
<polygon fill="white" stroke="black" points="458.5,-140 458.5,-159 517.5,-159 517.5,-140 458.5,-140"/>
<text text-anchor="middle" x="488" y="-147" font-family="Helvetica,sans-Serif" font-size="10.00">settings.h</text>
</a>
</g>
</g>
<!-- Node12&#45;&gt;Node26 -->
<g id="edge43" class="edge"><title>Node12&#45;&gt;Node26</title>
<path fill="none" stroke="midnightblue" d="M488,-201.475C488,-193.08 488,-179.981 488,-169.163"/>
<polygon fill="midnightblue" stroke="midnightblue" points="491.5,-169.009 488,-159.009 484.5,-169.009 491.5,-169.009"/>
</g>
<!-- Node17&#45;&gt;Node3 -->
<g id="edge23" class="edge"><title>Node17&#45;&gt;Node3</title>
<path fill="none" stroke="midnightblue" d="M402.331,-140.676C417.135,-138.266 433.746,-135.782 449,-134 662.368,-109.077 717.824,-124.516 931,-98 947.512,-95.9461 965.737,-92.8547 980.893,-90.0532"/>
<polygon fill="midnightblue" stroke="midnightblue" points="981.66,-93.4705 990.837,-88.1764 980.361,-86.5919 981.66,-93.4705"/>
</g>
<!-- Node17&#45;&gt;Node6 -->
<g id="edge26" class="edge"><title>Node17&#45;&gt;Node6</title>
<path fill="none" stroke="midnightblue" d="M402.337,-140.725C417.141,-138.318 433.751,-135.823 449,-134 548.39,-122.115 811.145,-147.758 898,-98 922.891,-83.7401 939.482,-53.6627 948.062,-34.3045"/>
<polygon fill="midnightblue" stroke="midnightblue" points="951.298,-35.6369 951.914,-25.0599 944.837,-32.9447 951.298,-35.6369"/>
</g>
<!-- Node17&#45;&gt;Node7 -->
<g id="edge27" class="edge"><title>Node17&#45;&gt;Node7</title>
<path fill="none" stroke="midnightblue" d="M328.255,-139.869C288.397,-128.303 217.566,-107.749 173.336,-94.9145"/>
<polygon fill="midnightblue" stroke="midnightblue" points="174.091,-91.4892 163.512,-92.0637 172.14,-98.2119 174.091,-91.4892"/>
</g>
<!-- Node17&#45;&gt;Node8 -->
<g id="edge28" class="edge"><title>Node17&#45;&gt;Node8</title>
<path fill="none" stroke="midnightblue" d="M322.939,-139.992C293.549,-131.915 251.188,-118.017 218,-98 200.489,-87.4384 201.756,-77.143 184,-67 160.976,-53.8483 90.6792,-34.5701 49.9816,-24.044"/>
<polygon fill="midnightblue" stroke="midnightblue" points="50.6332,-20.5979 40.0771,-21.5039 48.8942,-27.3785 50.6332,-20.5979"/>
</g>
<!-- Node17&#45;&gt;Node9 -->
<g id="edge29" class="edge"><title>Node17&#45;&gt;Node9</title>
<path fill="none" stroke="midnightblue" d="M339.692,-139.951C319.861,-130.467 287.507,-114.336 261,-98 240.943,-85.639 238.25,-79.0414 218,-67 193.575,-52.476 164.337,-38.6848 142.924,-29.1959"/>
<polygon fill="midnightblue" stroke="midnightblue" points="144.246,-25.954 133.681,-25.1517 141.44,-32.3669 144.246,-25.954"/>
</g>
<!-- Node17&#45;&gt;Node11 -->
<g id="edge31" class="edge"><title>Node17&#45;&gt;Node11</title>
<path fill="none" stroke="midnightblue" d="M402.234,-141.416C481.604,-128.688 642.344,-102.822 668,-98 674.306,-96.8148 680.925,-95.4965 687.455,-94.1517"/>
<polygon fill="midnightblue" stroke="midnightblue" points="688.515,-97.5058 697.586,-92.0317 687.081,-90.6542 688.515,-97.5058"/>
</g>
<!-- Node17&#45;&gt;Node14 -->
<g id="edge24" class="edge"><title>Node17&#45;&gt;Node14</title>
<path fill="none" stroke="midnightblue" d="M358.712,-139.908C360.566,-123.256 367.052,-86.5133 389,-67 434.432,-26.6085 507.446,-17.5357 551.846,-16.0357"/>
<polygon fill="midnightblue" stroke="midnightblue" points="552.025,-19.5326 561.943,-15.8087 551.867,-12.5344 552.025,-19.5326"/>
</g>
<!-- Node18 -->
<g id="node18" class="node"><title>Node18</title>
<polygon fill="white" stroke="#bfbfbf" points="398.5,-73 398.5,-92 443.5,-92 443.5,-73 398.5,-73"/>
<text text-anchor="middle" x="421" y="-80" font-family="Helvetica,sans-Serif" font-size="10.00">iosfwd</text>
</g>
<!-- Node17&#45;&gt;Node18 -->
<g id="edge25" class="edge"><title>Node17&#45;&gt;Node18</title>
<path fill="none" stroke="midnightblue" d="M366.496,-139.734C376.509,-129.403 393.341,-112.037 405.656,-99.3315"/>
<polygon fill="midnightblue" stroke="midnightblue" points="408.192,-101.744 412.638,-92.1273 403.165,-96.8721 408.192,-101.744"/>
</g>
<!-- Node19 -->
<g id="node19" class="node"><title>Node19</title>
<polygon fill="white" stroke="#bfbfbf" points="462,-67.5 462,-97.5 562,-97.5 562,-67.5 462,-67.5"/>
<text text-anchor="start" x="470" y="-85.5" font-family="Helvetica,sans-Serif" font-size="10.00">boost/container/flat</text>
<text text-anchor="middle" x="512" y="-74.5" font-family="Helvetica,sans-Serif" font-size="10.00">_set.hpp</text>
</g>
<!-- Node17&#45;&gt;Node19 -->
<g id="edge30" class="edge"><title>Node17&#45;&gt;Node19</title>
<path fill="none" stroke="midnightblue" d="M378.45,-139.869C401.558,-130.115 439.811,-113.97 469.468,-101.452"/>
<polygon fill="midnightblue" stroke="midnightblue" points="470.912,-104.641 478.764,-97.5281 468.19,-98.1922 470.912,-104.641"/>
</g>
<!-- Node17&#45;&gt;Node20 -->
<g id="edge32" class="edge"><title>Node17&#45;&gt;Node20</title>
<path fill="none" stroke="midnightblue" d="M402.36,-140.915C417.167,-138.522 433.771,-135.986 449,-134 605.817,-113.549 646.806,-122.764 803,-98 815.419,-96.031 829,-93.2173 840.668,-90.5917"/>
<polygon fill="midnightblue" stroke="midnightblue" points="841.8,-93.9223 850.757,-88.2629 840.226,-87.1017 841.8,-93.9223"/>
</g>
<!-- Node22 -->
<g id="node22" class="node"><title>Node22</title>
<g id="a_node22"><a xlink:href="linear__map_8h.xhtml" target="_top" xlink:title="Implementation of a vector&#45;based map for a small number of entries. ">
<polygon fill="white" stroke="black" points="270,-73 270,-92 342,-92 342,-73 270,-73"/>
<text text-anchor="middle" x="306" y="-80" font-family="Helvetica,sans-Serif" font-size="10.00">linear_map.h</text>
</a>
</g>
</g>
<!-- Node17&#45;&gt;Node22 -->
<g id="edge36" class="edge"><title>Node17&#45;&gt;Node22</title>
<path fill="none" stroke="midnightblue" d="M350.987,-139.734C342.878,-129.598 329.352,-112.69 319.245,-100.056"/>
<polygon fill="midnightblue" stroke="midnightblue" points="321.882,-97.7496 312.902,-92.1273 316.416,-102.122 321.882,-97.7496"/>
</g>
<!-- Node20&#45;&gt;Node6 -->
<g id="edge34" class="edge"><title>Node20&#45;&gt;Node6</title>
<path fill="none" stroke="midnightblue" d="M881.463,-72.7338C895.355,-62.1106 918.975,-44.0485 935.693,-31.2642"/>
<polygon fill="midnightblue" stroke="midnightblue" points="937.901,-33.9821 943.718,-25.1273 933.648,-28.4216 937.901,-33.9821"/>
</g>
<!-- Node20&#45;&gt;Node14 -->
<g id="edge33" class="edge"><title>Node20&#45;&gt;Node14</title>
<path fill="none" stroke="midnightblue" d="M852.455,-72.967C847.536,-70.8021 842.129,-68.6307 837,-67 764.914,-44.0809 677.591,-29.0918 628.454,-21.7709"/>
<polygon fill="midnightblue" stroke="midnightblue" points="628.677,-18.2663 618.276,-20.2831 627.664,-25.1927 628.677,-18.2663"/>
</g>
<!-- Node21 -->
<g id="node21" class="node"><title>Node21</title>
<polygon fill="white" stroke="#bfbfbf" points="801,-0.5 801,-30.5 911,-30.5 911,-0.5 801,-0.5"/>
<text text-anchor="start" x="809" y="-18.5" font-family="Helvetica,sans-Serif" font-size="10.00">boost/range/algorithm</text>
<text text-anchor="middle" x="856" y="-7.5" font-family="Helvetica,sans-Serif" font-size="10.00">/find_if.hpp</text>
</g>
<!-- Node20&#45;&gt;Node21 -->
<g id="edge35" class="edge"><title>Node20&#45;&gt;Node21</title>
<path fill="none" stroke="midnightblue" d="M868.112,-72.7338C866.329,-64.4561 863.573,-51.6619 861.141,-40.3674"/>
<polygon fill="midnightblue" stroke="midnightblue" points="864.562,-39.6279 859.035,-30.589 857.719,-41.1018 864.562,-39.6279"/>
</g>
<!-- Node22&#45;&gt;Node8 -->
<g id="edge42" class="edge"><title>Node22&#45;&gt;Node8</title>
<path fill="none" stroke="midnightblue" d="M269.899,-73.4546C225.611,-63.5628 148.245,-46.2135 82,-31 71.6049,-28.6127 60.2385,-25.9652 50.1096,-23.5928"/>
<polygon fill="midnightblue" stroke="midnightblue" points="50.6299,-20.1199 40.0947,-21.2425 49.0305,-26.9347 50.6299,-20.1199"/>
</g>
<!-- Node22&#45;&gt;Node9 -->
<g id="edge41" class="edge"><title>Node22&#45;&gt;Node9</title>
<path fill="none" stroke="midnightblue" d="M280.371,-72.8685C245.356,-61.0758 182.595,-39.9388 144.676,-27.1679"/>
<polygon fill="midnightblue" stroke="midnightblue" points="145.737,-23.8322 135.142,-23.9573 143.502,-30.466 145.737,-23.8322"/>
</g>
<!-- Node22&#45;&gt;Node14 -->
<g id="edge38" class="edge"><title>Node22&#45;&gt;Node14</title>
<path fill="none" stroke="midnightblue" d="M334.2,-72.9496C341.29,-70.9028 348.902,-68.7928 356,-67 424.555,-49.6845 505.339,-33.0799 551.82,-23.8889"/>
<polygon fill="midnightblue" stroke="midnightblue" points="552.621,-27.2985 561.757,-21.9337 551.27,-20.4302 552.621,-27.2985"/>
</g>
<!-- Node23 -->
<g id="node23" class="node"><title>Node23</title>
<polygon fill="white" stroke="#bfbfbf" points="202.5,-6 202.5,-25 251.5,-25 251.5,-6 202.5,-6"/>
<text text-anchor="middle" x="227" y="-13" font-family="Helvetica,sans-Serif" font-size="10.00">cassert</text>
</g>
<!-- Node22&#45;&gt;Node23 -->
<g id="edge37" class="edge"><title>Node22&#45;&gt;Node23</title>
<path fill="none" stroke="midnightblue" d="M295.346,-72.7338C282.553,-62.208 260.884,-44.3793 245.373,-31.6174"/>
<polygon fill="midnightblue" stroke="midnightblue" points="247.431,-28.7782 237.485,-25.1273 242.984,-34.1837 247.431,-28.7782"/>
</g>
<!-- Node24 -->
<g id="node24" class="node"><title>Node24</title>
<polygon fill="white" stroke="#bfbfbf" points="269.5,-6 269.5,-25 342.5,-25 342.5,-6 269.5,-6"/>
<text text-anchor="middle" x="306" y="-13" font-family="Helvetica,sans-Serif" font-size="10.00">initializer_list</text>
</g>
<!-- Node22&#45;&gt;Node24 -->
<g id="edge39" class="edge"><title>Node22&#45;&gt;Node24</title>
<path fill="none" stroke="midnightblue" d="M306,-72.7338C306,-63.1826 306,-47.6183 306,-35.2829"/>
<polygon fill="midnightblue" stroke="midnightblue" points="309.5,-35.1273 306,-25.1273 302.5,-35.1273 309.5,-35.1273"/>
</g>
<!-- Node25 -->
<g id="node25" class="node"><title>Node25</title>
<polygon fill="white" stroke="#bfbfbf" points="360.5,-6 360.5,-25 419.5,-25 419.5,-6 360.5,-6"/>
<text text-anchor="middle" x="390" y="-13" font-family="Helvetica,sans-Serif" font-size="10.00">stdexcept</text>
</g>
<!-- Node22&#45;&gt;Node25 -->
<g id="edge40" class="edge"><title>Node22&#45;&gt;Node25</title>
<path fill="none" stroke="midnightblue" d="M317.329,-72.7338C331.057,-62.1106 354.399,-44.0485 370.92,-31.2642"/>
<polygon fill="midnightblue" stroke="midnightblue" points="373.084,-34.0152 378.851,-25.1273 368.8,-28.4791 373.084,-34.0152"/>
</g>
<!-- Node27 -->
<g id="node27" class="node"><title>Node27</title>
<polygon fill="white" stroke="#bfbfbf" points="618.5,-73 618.5,-92 659.5,-92 659.5,-73 618.5,-73"/>
<text text-anchor="middle" x="639" y="-80" font-family="Helvetica,sans-Serif" font-size="10.00">string</text>
</g>
<!-- Node26&#45;&gt;Node27 -->
<g id="edge44" class="edge"><title>Node26&#45;&gt;Node27</title>
<path fill="none" stroke="midnightblue" d="M508.052,-139.869C533.999,-128.699 579.421,-109.147 609.357,-96.2602"/>
<polygon fill="midnightblue" stroke="midnightblue" points="611.064,-99.3359 618.865,-92.1672 608.296,-92.9063 611.064,-99.3359"/>
</g>
<!-- Node29&#45;&gt;Node3 -->
<g id="edge49" class="edge"><title>Node29&#45;&gt;Node3</title>
<path fill="none" stroke="midnightblue" d="M1104.84,-139.734C1087.29,-128.867 1057.16,-110.216 1036.44,-97.3931"/>
<polygon fill="midnightblue" stroke="midnightblue" points="1038.28,-94.415 1027.94,-92.1273 1034.6,-100.367 1038.28,-94.415"/>
</g>
<!-- Node29&#45;&gt;Node11 -->
<g id="edge52" class="edge"><title>Node29&#45;&gt;Node11</title>
<path fill="none" stroke="midnightblue" d="M1093.28,-144.134C1033,-133.904 881.308,-108.161 796.236,-93.7229"/>
<polygon fill="midnightblue" stroke="midnightblue" points="796.647,-90.2427 786.203,-92.02 795.476,-97.144 796.647,-90.2427"/>
</g>
<!-- Node30 -->
<g id="node30" class="node"><title>Node30</title>
<polygon fill="white" stroke="#bfbfbf" points="1094,-73 1094,-92 1140,-92 1140,-73 1094,-73"/>
<text text-anchor="middle" x="1117" y="-80" font-family="Helvetica,sans-Serif" font-size="10.00">chrono</text>
</g>
<!-- Node29&#45;&gt;Node30 -->
<g id="edge50" class="edge"><title>Node29&#45;&gt;Node30</title>
<path fill="none" stroke="midnightblue" d="M1118.73,-139.734C1118.44,-130.183 1117.96,-114.618 1117.58,-102.283"/>
<polygon fill="midnightblue" stroke="midnightblue" points="1121.07,-102.015 1117.27,-92.1273 1114.07,-102.23 1121.07,-102.015"/>
</g>
<!-- Node31 -->
<g id="node31" class="node"><title>Node31</title>
<polygon fill="white" stroke="#bfbfbf" points="1158,-73 1158,-92 1210,-92 1210,-73 1158,-73"/>
<text text-anchor="middle" x="1184" y="-80" font-family="Helvetica,sans-Serif" font-size="10.00">sstream</text>
</g>
<!-- Node29&#45;&gt;Node31 -->
<g id="edge51" class="edge"><title>Node29&#45;&gt;Node31</title>
<path fill="none" stroke="midnightblue" d="M1127.77,-139.734C1138.1,-129.403 1155.46,-112.037 1168.17,-99.3315"/>
<polygon fill="midnightblue" stroke="midnightblue" points="1170.78,-101.673 1175.37,-92.1273 1165.83,-96.7235 1170.78,-101.673"/>
</g>
</g>
</svg>
        <g id="navigator" transform="translate(0 0)" fill="#404254">
                <rect fill="#f2f5e9" fill-opacity="0.5" stroke="#606060" stroke-width=".5" x="0" y="0" width="60" height="60"/>
                <use id="zoomplus" xlink:href="#zoomPlus" x="17" y="9" onmousedown="handleZoom(evt,'in')"/>
                <use id="zoomminus" xlink:href="#zoomMin" x="42" y="9" onmousedown="handleZoom(evt,'out')"/>
                <use id="reset" xlink:href="#resetDef" x="30" y="36" onmousedown="handleReset()"/>
                <g id="arrowUp" xlink:href="#dirArrow" transform="translate(30 24)" onmousedown="handlePan(0,-1)">
                  <use xlink:href="#rim" fill="#404040">
                        <set attributeName="fill" to="#808080" begin="arrowUp.mouseover" end="arrowUp.mouseout"/>
                  </use>
                  <path fill="none" stroke="white" stroke-width="1.5" d="M0,-3.0v7 M-2.5,-0.5L0,-3.0L2.5,-0.5"/>
                </g>
                <g id="arrowRight" xlink:href="#dirArrow" transform="rotate(90) translate(36 -43)" onmousedown="handlePan(1,0)">
                  <use xlink:href="#rim" fill="#404040">
                        <set attributeName="fill" to="#808080" begin="arrowRight.mouseover" end="arrowRight.mouseout"/>
                  </use>
                  <path fill="none" stroke="white" stroke-width="1.5" d="M0,-3.0v7 M-2.5,-0.5L0,-3.0L2.5,-0.5"/>
                </g>
                <g id="arrowDown" xlink:href="#dirArrow" transform="rotate(180) translate(-30 -48)" onmousedown="handlePan(0,1)">
                  <use xlink:href="#rim" fill="#404040">
                        <set attributeName="fill" to="#808080" begin="arrowDown.mouseover" end="arrowDown.mouseout"/>
                  </use>
                  <path fill="none" stroke="white" stroke-width="1.5" d="M0,-3.0v7 M-2.5,-0.5L0,-3.0L2.5,-0.5"/>
                </g>
                <g id="arrowLeft" xlink:href="#dirArrow" transform="rotate(270) translate(-36 17)" onmousedown="handlePan(-1,0)">
                  <use xlink:href="#rim" fill="#404040">
                        <set attributeName="fill" to="#808080" begin="arrowLeft.mouseover" end="arrowLeft.mouseout"/>
                  </use>
                  <path fill="none" stroke="white" stroke-width="1.5" d="M0,-3.0v7 M-2.5,-0.5L0,-3.0L2.5,-0.5"/>
                </g>
        </g>
        <svg viewBox="0 0 15 15" width="100%" height="30px" preserveAspectRatio="xMaxYMin meet">
         <g id="arrow_out" transform="scale(0.3 0.3)">
          <a xlink:href="zbdd_8cc__incl_org.svg" target="_base">
           <rect id="button" ry="5" rx="5" y="6" x="6" height="38" width="38"
                fill="#f2f5e9" fill-opacity="0.5" stroke="#606060" stroke-width="1.0"/>
           <path id="arrow"
             d="M 11.500037,31.436501 C 11.940474,20.09759 22.043105,11.32322 32.158766,21.979434 L 37.068811,17.246167 C 37.068811,17.246167 37.088388,32 37.088388,32 L 22.160133,31.978069 C 22.160133,31.978069 26.997745,27.140456 26.997745,27.140456 C 18.528582,18.264221 13.291696,25.230495 11.500037,31.436501 z"
             style="fill:#404040;"/>
          </a>
         </g>
        </svg>
</svg>
