<?xml version="1.0" encoding="UTF-8" standalone="no"?>
<!DOCTYPE svg PUBLIC "-//W3C//DTD SVG 1.1//EN"
 "http://www.w3.org/Graphics/SVG/1.1/DTD/svg11.dtd">
<!-- Generated by graphviz version 2.38.0 (20140413.2041)
 -->
<!-- Title: zbdd.h Pages: 1 -->
<!--zoomable 285 -->
<svg id="main" version="1.1" xmlns="http://www.w3.org/2000/svg" xmlns:xlink="http://www.w3.org/1999/xlink" xml:space="preserve" onload="init(evt)">
<style type="text/css"><![CDATA[
.edge:hover path { stroke: red; }
.edge:hover polygon { stroke: red; fill: red; }
]]></style>
<script type="text/javascript"><![CDATA[
var edges = document.getElementsByTagName('g');
if (edges && edges.length) {
  for (var i=0;i<edges.length;i++) {
    if (edges[i].id.substr(0,4)=='edge') {
      edges[i].setAttribute('class','edge');
    }
  }
}
]]></script>
        <defs>
                <circle id="rim" cx="0" cy="0" r="7"/>
                <circle id="rim2" cx="0" cy="0" r="3.5"/>
                <g id="zoomPlus">
                        <use xlink:href="#rim" fill="#404040">
                                <set attributeName="fill" to="#808080" begin="zoomplus.mouseover" end="zoomplus.mouseout"/>
                        </use>
                        <path d="M-4,0h8M0,-4v8" fill="none" stroke="white" stroke-width="1.5" pointer-events="none"/>
                </g>
                <g id="zoomMin">
                        <use xlink:href="#rim" fill="#404040">
                                <set attributeName="fill" to="#808080" begin="zoomminus.mouseover" end="zoomminus.mouseout"/>
                        </use>
                        <path d="M-4,0h8" fill="none" stroke="white" stroke-width="1.5" pointer-events="none"/>
                </g>
                <g id="dirArrow">
                        <path fill="none" stroke="white" stroke-width="1.5" d="M0,-3.0v7 M-2.5,-0.5L0,-3.0L2.5,-0.5"/>
                </g>
               <g id="resetDef">
                       <use xlink:href="#rim2" fill="#404040">
                               <set attributeName="fill" to="#808080" begin="reset.mouseover" end="reset.mouseout"/>
                       </use>
               </g>
        </defs>

<script type="text/javascript">
var viewWidth = 1128;
var viewHeight = 285;
var sectionId = 'dynsection-0';
</script>
<script xlink:href="svgpan.js"/>
<svg id="graph" class="graph">
<g id="viewport">
<title>zbdd.h</title>
<polygon fill="white" stroke="none" points="-4,4 -4,-281 1124.49,-281 1124.49,4 -4,4"/>
<!-- Node1 -->
<g id="node1" class="node"><title>Node1</title>
<polygon fill="#bfbfbf" stroke="black" points="179.438,-257.5 179.438,-276.5 225.438,-276.5 225.438,-257.5 179.438,-257.5"/>
<text text-anchor="middle" x="202.438" y="-264.5" font-family="Helvetica,sans-Serif" font-size="10.00">zbdd.h</text>
</g>
<!-- Node2 -->
<g id="node2" class="node"><title>Node2</title>
<polygon fill="white" stroke="#bfbfbf" points="105.438,-73 105.438,-92 151.438,-92 151.438,-73 105.438,-73"/>
<text text-anchor="middle" x="128.438" y="-80" font-family="Helvetica,sans-Serif" font-size="10.00">cstdint</text>
</g>
<!-- Node1&#45;&gt;Node2 -->
<g id="edge1" class="edge"><title>Node1&#45;&gt;Node2</title>
<path fill="none" stroke="midnightblue" d="M190.268,-257.457C179.641,-249.325 164.666,-236.11 156.438,-221 135.439,-182.435 130.13,-130.011 128.826,-102.363"/>
<polygon fill="midnightblue" stroke="midnightblue" points="132.317,-102.018 128.479,-92.1429 125.321,-102.256 132.317,-102.018"/>
</g>
<!-- Node3 -->
<g id="node3" class="node"><title>Node3</title>
<polygon fill="white" stroke="#bfbfbf" points="12.4384,-201.5 12.4384,-220.5 50.4384,-220.5 50.4384,-201.5 12.4384,-201.5"/>
<text text-anchor="middle" x="31.4384" y="-208.5" font-family="Helvetica,sans-Serif" font-size="10.00">array</text>
</g>
<!-- Node1&#45;&gt;Node3 -->
<g id="edge2" class="edge"><title>Node1&#45;&gt;Node3</title>
<path fill="none" stroke="midnightblue" d="M179.142,-258.717C152.652,-250.425 107.861,-236.374 60.5271,-221.334"/>
<polygon fill="midnightblue" stroke="midnightblue" points="61.3035,-217.908 50.7131,-218.213 59.1821,-224.579 61.3035,-217.908"/>
</g>
<!-- Node4 -->
<g id="node4" class="node"><title>Node4</title>
<polygon fill="white" stroke="#bfbfbf" points="68.9384,-201.5 68.9384,-220.5 103.938,-220.5 103.938,-201.5 68.9384,-201.5"/>
<text text-anchor="middle" x="86.4384" y="-208.5" font-family="Helvetica,sans-Serif" font-size="10.00">map</text>
</g>
<!-- Node1&#45;&gt;Node4 -->
<g id="edge3" class="edge"><title>Node1&#45;&gt;Node4</title>
<path fill="none" stroke="midnightblue" d="M184.058,-257.444C165,-248.572 135.011,-234.611 113.298,-224.504"/>
<polygon fill="midnightblue" stroke="midnightblue" points="114.517,-221.21 103.974,-220.163 111.562,-227.556 114.517,-221.21"/>
</g>
<!-- Node5 -->
<g id="node5" class="node"><title>Node5</title>
<polygon fill="white" stroke="#bfbfbf" points="257.438,-6 257.438,-25 309.438,-25 309.438,-6 257.438,-6"/>
<text text-anchor="middle" x="283.438" y="-13" font-family="Helvetica,sans-Serif" font-size="10.00">memory</text>
</g>
<!-- Node1&#45;&gt;Node5 -->
<g id="edge4" class="edge"><title>Node1&#45;&gt;Node5</title>
<path fill="none" stroke="midnightblue" d="M179.434,-264.305C131.861,-260.272 25.2744,-248.325 3.43838,-221 -2.11073,-214.056 0.78307,-209.483 3.43838,-201 25.0938,-131.817 37.1827,-108.762 96.4384,-67 141.983,-34.9009 206.909,-23.198 247.048,-18.9358"/>
<polygon fill="midnightblue" stroke="midnightblue" points="247.564,-22.4024 257.183,-17.9621 246.895,-15.4345 247.564,-22.4024"/>
</g>
<!-- Node6 -->
<g id="node6" class="node"><title>Node6</title>
<polygon fill="white" stroke="#bfbfbf" points="267.938,-73 267.938,-92 350.938,-92 350.938,-73 267.938,-73"/>
<text text-anchor="middle" x="309.438" y="-80" font-family="Helvetica,sans-Serif" font-size="10.00">unordered_map</text>
</g>
<!-- Node1&#45;&gt;Node6 -->
<g id="edge5" class="edge"><title>Node1&#45;&gt;Node6</title>
<path fill="none" stroke="midnightblue" d="M198.141,-257.383C187.605,-234.909 163.195,-173.516 189.438,-134 204.728,-110.978 232.786,-98.4273 257.928,-91.5973"/>
<polygon fill="midnightblue" stroke="midnightblue" points="258.883,-94.9668 267.75,-89.1686 257.202,-88.1715 258.883,-94.9668"/>
</g>
<!-- Node7 -->
<g id="node7" class="node"><title>Node7</title>
<polygon fill="white" stroke="#bfbfbf" points="934.438,-6 934.438,-25 974.438,-25 974.438,-6 934.438,-6"/>
<text text-anchor="middle" x="954.438" y="-13" font-family="Helvetica,sans-Serif" font-size="10.00">utility</text>
</g>
<!-- Node1&#45;&gt;Node7 -->
<g id="edge6" class="edge"><title>Node1&#45;&gt;Node7</title>
<path fill="none" stroke="midnightblue" d="M225.465,-265.558C333.748,-263.33 792.872,-252.182 932.438,-221 998.244,-206.298 1023.1,-209.86 1073.44,-165 1108.08,-134.129 1136.7,-104.55 1109.44,-67 1080.91,-27.7059 1021.01,-18.3983 984.591,-16.5332"/>
<polygon fill="midnightblue" stroke="midnightblue" points="984.665,-13.0337 974.547,-16.1767 984.417,-20.0293 984.665,-13.0337"/>
</g>
<!-- Node8 -->
<g id="node8" class="node"><title>Node8</title>
<polygon fill="white" stroke="#bfbfbf" points="872.438,-6 872.438,-25 916.438,-25 916.438,-6 872.438,-6"/>
<text text-anchor="middle" x="894.438" y="-13" font-family="Helvetica,sans-Serif" font-size="10.00">vector</text>
</g>
<!-- Node1&#45;&gt;Node8 -->
<g id="edge7" class="edge"><title>Node1&#45;&gt;Node8</title>
<path fill="none" stroke="midnightblue" d="M225.804,-266.11C346.994,-266.254 903.597,-261.58 1039.44,-165 1079.29,-136.667 1120.08,-105.102 1089.44,-67 1042.67,-8.85028 996.113,-54.9553 925.438,-31 923.775,-30.4361 922.082,-29.8092 920.389,-29.1411"/>
<polygon fill="midnightblue" stroke="midnightblue" points="921.458,-25.7898 910.891,-25.0203 918.672,-32.2114 921.458,-25.7898"/>
</g>
<!-- Node9 -->
<g id="node9" class="node"><title>Node9</title>
<polygon fill="white" stroke="#bfbfbf" points="198.438,-140 198.438,-159 326.438,-159 326.438,-140 198.438,-140"/>
<text text-anchor="middle" x="262.438" y="-147" font-family="Helvetica,sans-Serif" font-size="10.00">boost/functional/hash.hpp</text>
</g>
<!-- Node1&#45;&gt;Node9 -->
<g id="edge8" class="edge"><title>Node1&#45;&gt;Node9</title>
<path fill="none" stroke="midnightblue" d="M206.948,-257.319C216.721,-238.506 240.024,-193.648 253.111,-168.455"/>
<polygon fill="midnightblue" stroke="midnightblue" points="256.372,-169.77 257.876,-159.282 250.16,-166.543 256.372,-169.77"/>
</g>
<!-- Node10 -->
<g id="node10" class="node"><title>Node10</title>
<polygon fill="white" stroke="#bfbfbf" points="963.938,-73 963.938,-92 1080.94,-92 1080.94,-73 963.938,-73"/>
<text text-anchor="middle" x="1022.44" y="-80" font-family="Helvetica,sans-Serif" font-size="10.00">boost/noncopyable.hpp</text>
</g>
<!-- Node1&#45;&gt;Node10 -->
<g id="edge9" class="edge"><title>Node1&#45;&gt;Node10</title>
<path fill="none" stroke="midnightblue" d="M225.543,-264.918C352.82,-258.731 964.707,-225.942 1019.44,-165 1034.55,-148.172 1031.97,-120.609 1027.89,-102.263"/>
<polygon fill="midnightblue" stroke="midnightblue" points="1031.25,-101.259 1025.38,-92.4421 1024.47,-102.998 1031.25,-101.259"/>
</g>
<!-- Node11 -->
<g id="node11" class="node"><title>Node11</title>
<g id="a_node11"><a xlink:href="bdd_8h.xhtml" target="_top" xlink:title="Fault tree analysis with the Binary Decision Diagram algorithms. ">
<polygon fill="white" stroke="black" points="583.938,-201.5 583.938,-220.5 624.938,-220.5 624.938,-201.5 583.938,-201.5"/>
<text text-anchor="middle" x="604.438" y="-208.5" font-family="Helvetica,sans-Serif" font-size="10.00">bdd.h</text>
</a>
</g>
</g>
<!-- Node1&#45;&gt;Node11 -->
<g id="edge10" class="edge"><title>Node1&#45;&gt;Node11</title>
<path fill="none" stroke="midnightblue" d="M225.496,-262.903C294.012,-253.699 496.42,-226.51 573.844,-216.11"/>
<polygon fill="midnightblue" stroke="midnightblue" points="574.467,-219.557 583.912,-214.757 573.535,-212.62 574.467,-219.557"/>
</g>
<!-- Node11&#45;&gt;Node5 -->
<g id="edge14" class="edge"><title>Node11&#45;&gt;Node5</title>
<path fill="none" stroke="midnightblue" d="M583.831,-207.227C552.511,-202.352 491.783,-190.267 446.438,-165 428.575,-155.046 430.534,-143.524 412.438,-134 350.237,-101.264 302.119,-153.069 258.438,-98 243.401,-79.0417 257.769,-51.0557 270.115,-33.3066"/>
<polygon fill="midnightblue" stroke="midnightblue" points="273.083,-35.1797 276.221,-25.0601 267.458,-31.0143 273.083,-35.1797"/>
</g>
<!-- Node11&#45;&gt;Node6 -->
<g id="edge15" class="edge"><title>Node11&#45;&gt;Node6</title>
<path fill="none" stroke="midnightblue" d="M583.805,-203.675C560.238,-196.059 520.88,-182.128 489.438,-165 468.749,-153.729 467.238,-145.065 446.438,-134 415.245,-117.406 377.407,-103.911 349.406,-95.0603"/>
<polygon fill="midnightblue" stroke="midnightblue" points="350.154,-91.6279 339.566,-92.0124 348.082,-98.3145 350.154,-91.6279"/>
</g>
<!-- Node11&#45;&gt;Node7 -->
<g id="edge16" class="edge"><title>Node11&#45;&gt;Node7</title>
<path fill="none" stroke="midnightblue" d="M618.06,-201.296C646.126,-183.478 709.745,-143.703 733.438,-134 794.487,-108.999 820.499,-131.315 877.438,-98 905.322,-81.6859 929.413,-52.2719 942.911,-33.5993"/>
<polygon fill="midnightblue" stroke="midnightblue" points="945.944,-35.3692 948.812,-25.1699 940.21,-31.3547 945.944,-35.3692"/>
</g>
<!-- Node11&#45;&gt;Node8 -->
<g id="edge17" class="edge"><title>Node11&#45;&gt;Node8</title>
<path fill="none" stroke="midnightblue" d="M624.958,-208.968C697.541,-205.112 938.997,-190.447 961.438,-165 979.735,-144.252 930.953,-68.5098 906.919,-33.929"/>
<polygon fill="midnightblue" stroke="midnightblue" points="909.494,-31.5061 900.873,-25.3469 903.771,-35.5376 909.494,-31.5061"/>
</g>
<!-- Node11&#45;&gt;Node9 -->
<g id="edge18" class="edge"><title>Node11&#45;&gt;Node9</title>
<path fill="none" stroke="midnightblue" d="M583.815,-206.769C538.703,-199.652 427.895,-181.912 335.438,-165 328.692,-163.766 321.605,-162.42 314.609,-161.062"/>
<polygon fill="midnightblue" stroke="midnightblue" points="314.96,-157.565 304.473,-159.076 313.613,-164.434 314.96,-157.565"/>
</g>
<!-- Node11&#45;&gt;Node10 -->
<g id="edge19" class="edge"><title>Node11&#45;&gt;Node10</title>
<path fill="none" stroke="midnightblue" d="M625.142,-210.446C697.526,-211.586 937.985,-211.721 995.438,-165 1014.2,-149.742 1020.03,-121.088 1021.78,-102.147"/>
<polygon fill="midnightblue" stroke="midnightblue" points="1025.28,-102.253 1022.41,-92.0534 1018.29,-101.814 1025.28,-102.253"/>
</g>
<!-- Node12 -->
<g id="node12" class="node"><title>Node12</title>
<polygon fill="white" stroke="#bfbfbf" points="498.438,-140 498.438,-159 542.438,-159 542.438,-140 498.438,-140"/>
<text text-anchor="middle" x="520.438" y="-147" font-family="Helvetica,sans-Serif" font-size="10.00">cmath</text>
</g>
<!-- Node11&#45;&gt;Node12 -->
<g id="edge11" class="edge"><title>Node11&#45;&gt;Node12</title>
<path fill="none" stroke="midnightblue" d="M592.403,-201.475C578.93,-191.931 556.872,-176.307 540.723,-164.868"/>
<polygon fill="midnightblue" stroke="midnightblue" points="542.635,-161.933 532.451,-159.009 538.588,-167.645 542.635,-161.933"/>
</g>
<!-- Node13 -->
<g id="node13" class="node"><title>Node13</title>
<polygon fill="white" stroke="#bfbfbf" points="562.438,-6 562.438,-25 618.438,-25 618.438,-6 562.438,-6"/>
<text text-anchor="middle" x="590.438" y="-13" font-family="Helvetica,sans-Serif" font-size="10.00">algorithm</text>
</g>
<!-- Node11&#45;&gt;Node13 -->
<g id="edge12" class="edge"><title>Node11&#45;&gt;Node13</title>
<path fill="none" stroke="midnightblue" d="M620.772,-201.387C633.394,-193.72 649.936,-181.213 657.438,-165 664.903,-148.869 660.925,-83.266 652.438,-67 644.403,-51.5994 629.411,-39.1892 616.183,-30.5254"/>
<polygon fill="midnightblue" stroke="midnightblue" points="617.765,-27.3899 607.413,-25.1352 614.1,-33.3535 617.765,-27.3899"/>
</g>
<!-- Node14 -->
<g id="node14" class="node"><title>Node14</title>
<polygon fill="white" stroke="#bfbfbf" points="742.938,-140 742.938,-159 809.938,-159 809.938,-140 742.938,-140"/>
<text text-anchor="middle" x="776.438" y="-147" font-family="Helvetica,sans-Serif" font-size="10.00">forward_list</text>
</g>
<!-- Node11&#45;&gt;Node14 -->
<g id="edge13" class="edge"><title>Node11&#45;&gt;Node14</title>
<path fill="none" stroke="midnightblue" d="M625.186,-202.823C654.136,-192.808 707.02,-174.514 741.95,-162.431"/>
<polygon fill="midnightblue" stroke="midnightblue" points="743.423,-165.625 751.729,-159.048 741.134,-159.009 743.423,-165.625"/>
</g>
<!-- Node15 -->
<g id="node15" class="node"><title>Node15</title>
<polygon fill="white" stroke="#bfbfbf" points="827.938,-134.5 827.938,-164.5 952.938,-164.5 952.938,-134.5 827.938,-134.5"/>
<text text-anchor="start" x="835.938" y="-152.5" font-family="Helvetica,sans-Serif" font-size="10.00">boost/smart_ptr/intrusive</text>
<text text-anchor="middle" x="890.438" y="-141.5" font-family="Helvetica,sans-Serif" font-size="10.00">_ptr.hpp</text>
</g>
<!-- Node11&#45;&gt;Node15 -->
<g id="edge20" class="edge"><title>Node11&#45;&gt;Node15</title>
<path fill="none" stroke="midnightblue" d="M625.007,-205.721C664.762,-197.45 753.868,-178.912 817.877,-165.596"/>
<polygon fill="midnightblue" stroke="midnightblue" points="818.846,-168.969 827.923,-163.506 817.42,-162.116 818.846,-168.969"/>
</g>
<!-- Node16 -->
<g id="node16" class="node"><title>Node16</title>
<g id="a_node16"><a xlink:href="boolean__graph_8h.xhtml" target="_top" xlink:title="Classes and facilities to represent simplified fault trees as Boolean graphs with event and gate indi...">
<polygon fill="white" stroke="black" points="560.438,-140 560.438,-159 648.438,-159 648.438,-140 560.438,-140"/>
<text text-anchor="middle" x="604.438" y="-147" font-family="Helvetica,sans-Serif" font-size="10.00">boolean_graph.h</text>
</a>
</g>
</g>
<!-- Node11&#45;&gt;Node16 -->
<g id="edge21" class="edge"><title>Node11&#45;&gt;Node16</title>
<path fill="none" stroke="midnightblue" d="M604.438,-201.475C604.438,-193.08 604.438,-179.981 604.438,-169.163"/>
<polygon fill="midnightblue" stroke="midnightblue" points="607.938,-169.009 604.438,-159.009 600.938,-169.009 607.938,-169.009"/>
</g>
<!-- Node25 -->
<g id="node25" class="node"><title>Node25</title>
<g id="a_node25"><a xlink:href="settings_8h.xhtml" target="_top" xlink:title="Builder for settings. ">
<polygon fill="white" stroke="black" points="344.938,-140 344.938,-159 403.938,-159 403.938,-140 344.938,-140"/>
<text text-anchor="middle" x="374.438" y="-147" font-family="Helvetica,sans-Serif" font-size="10.00">settings.h</text>
</a>
</g>
</g>
<!-- Node11&#45;&gt;Node25 -->
<g id="edge42" class="edge"><title>Node11&#45;&gt;Node25</title>
<path fill="none" stroke="midnightblue" d="M583.93,-205.609C549.508,-198.111 478.023,-181.996 418.438,-165 415.441,-164.145 412.343,-163.217 409.244,-162.257"/>
<polygon fill="midnightblue" stroke="midnightblue" points="410.05,-158.84 399.459,-159.134 407.922,-165.509 410.05,-158.84"/>
</g>
<!-- Node16&#45;&gt;Node2 -->
<g id="edge22" class="edge"><title>Node16&#45;&gt;Node2</title>
<path fill="none" stroke="midnightblue" d="M576.867,-139.974C568.743,-137.729 559.792,-135.515 551.438,-134 379.727,-102.855 329.147,-142.633 160.438,-98 158.283,-97.4296 156.09,-96.7264 153.914,-95.94"/>
<polygon fill="midnightblue" stroke="midnightblue" points="155.239,-92.7001 144.66,-92.1127 152.563,-99.1688 155.239,-92.7001"/>
</g>
<!-- Node16&#45;&gt;Node5 -->
<g id="edge25" class="edge"><title>Node16&#45;&gt;Node5</title>
<path fill="none" stroke="midnightblue" d="M573.939,-139.954C566.585,-137.95 558.742,-135.858 551.438,-134 483.737,-116.78 461.3,-128.47 398.438,-98 378.514,-88.3421 377.342,-80.0278 359.438,-67 341.829,-54.1868 321.217,-40.5727 305.904,-30.7126"/>
<polygon fill="midnightblue" stroke="midnightblue" points="307.439,-27.5396 297.129,-25.0991 303.667,-33.4363 307.439,-27.5396"/>
</g>
<!-- Node16&#45;&gt;Node6 -->
<g id="edge26" class="edge"><title>Node16&#45;&gt;Node6</title>
<path fill="none" stroke="midnightblue" d="M574.826,-139.972C567.232,-137.903 559.056,-135.777 551.438,-134 469.438,-114.876 447.568,-116.562 365.438,-98 360.727,-96.9352 355.81,-95.7588 350.93,-94.5502"/>
<polygon fill="midnightblue" stroke="midnightblue" points="351.597,-91.1087 341.044,-92.0497 349.88,-97.895 351.597,-91.1087"/>
</g>
<!-- Node16&#45;&gt;Node7 -->
<g id="edge27" class="edge"><title>Node16&#45;&gt;Node7</title>
<path fill="none" stroke="midnightblue" d="M648.788,-140.899C706.078,-130.72 802.371,-112.288 835.438,-98 874.806,-80.9893 914.76,-50.2622 936.896,-31.7849"/>
<polygon fill="midnightblue" stroke="midnightblue" points="939.37,-34.276 944.726,-25.135 934.839,-28.9405 939.37,-34.276"/>
</g>
<!-- Node16&#45;&gt;Node8 -->
<g id="edge28" class="edge"><title>Node16&#45;&gt;Node8</title>
<path fill="none" stroke="midnightblue" d="M648.688,-143.326C690.308,-137.083 753.383,-123.998 802.438,-98 819.157,-89.1398 856.863,-53.4434 878.455,-32.3444"/>
<polygon fill="midnightblue" stroke="midnightblue" points="881.187,-34.566 885.864,-25.0591 876.28,-29.5747 881.187,-34.566"/>
</g>
<!-- Node16&#45;&gt;Node10 -->
<g id="edge30" class="edge"><title>Node16&#45;&gt;Node10</title>
<path fill="none" stroke="midnightblue" d="M648.776,-141.605C722.774,-130.099 871.77,-106.929 957.576,-93.5863"/>
<polygon fill="midnightblue" stroke="midnightblue" points="958.374,-97.0044 967.717,-92.0093 957.298,-90.0875 958.374,-97.0044"/>
</g>
<!-- Node16&#45;&gt;Node13 -->
<g id="edge23" class="edge"><title>Node16&#45;&gt;Node13</title>
<path fill="none" stroke="midnightblue" d="M612.196,-139.945C624.662,-125.111 646.757,-93.6499 636.438,-67 631.032,-53.0375 619.771,-40.5645 609.744,-31.5076"/>
<polygon fill="midnightblue" stroke="midnightblue" points="611.989,-28.8225 602.103,-25.0134 607.456,-34.1564 611.989,-28.8225"/>
</g>
<!-- Node17 -->
<g id="node17" class="node"><title>Node17</title>
<polygon fill="white" stroke="#bfbfbf" points="463.938,-73 463.938,-92 508.938,-92 508.938,-73 463.938,-73"/>
<text text-anchor="middle" x="486.438" y="-80" font-family="Helvetica,sans-Serif" font-size="10.00">iosfwd</text>
</g>
<!-- Node16&#45;&gt;Node17 -->
<g id="edge24" class="edge"><title>Node16&#45;&gt;Node17</title>
<path fill="none" stroke="midnightblue" d="M588.524,-139.734C568.62,-128.769 534.33,-109.881 511.036,-97.0495"/>
<polygon fill="midnightblue" stroke="midnightblue" points="512.548,-93.8866 502.1,-92.1273 509.171,-100.018 512.548,-93.8866"/>
</g>
<!-- Node18 -->
<g id="node18" class="node"><title>Node18</title>
<polygon fill="white" stroke="#bfbfbf" points="527.438,-67.5 527.438,-97.5 627.438,-97.5 627.438,-67.5 527.438,-67.5"/>
<text text-anchor="start" x="535.438" y="-85.5" font-family="Helvetica,sans-Serif" font-size="10.00">boost/container/flat</text>
<text text-anchor="middle" x="577.438" y="-74.5" font-family="Helvetica,sans-Serif" font-size="10.00">_set.hpp</text>
</g>
<!-- Node16&#45;&gt;Node18 -->
<g id="edge29" class="edge"><title>Node16&#45;&gt;Node18</title>
<path fill="none" stroke="midnightblue" d="M600.797,-139.734C597.324,-131.372 591.935,-118.4 587.209,-107.022"/>
<polygon fill="midnightblue" stroke="midnightblue" points="590.359,-105.481 583.291,-97.589 583.895,-108.167 590.359,-105.481"/>
</g>
<!-- Node19 -->
<g id="node19" class="node"><title>Node19</title>
<g id="a_node19"><a xlink:href="ext_8h.xhtml" target="_top" xlink:title="Helpful facilities as an extension to the standard library or Boost. ">
<polygon fill="white" stroke="black" points="407.438,-73 407.438,-92 445.438,-92 445.438,-73 407.438,-73"/>
<text text-anchor="middle" x="426.438" y="-80" font-family="Helvetica,sans-Serif" font-size="10.00">ext.h</text>
</a>
</g>
</g>
<!-- Node16&#45;&gt;Node19 -->
<g id="edge31" class="edge"><title>Node16&#45;&gt;Node19</title>
<path fill="none" stroke="midnightblue" d="M574.624,-139.937C543.992,-130.799 495.163,-115.28 454.438,-98 453.405,-97.5617 452.358,-97.1005 451.306,-96.6231"/>
<polygon fill="midnightblue" stroke="midnightblue" points="452.456,-93.2906 441.933,-92.0599 449.392,-99.5843 452.456,-93.2906"/>
</g>
<!-- Node21 -->
<g id="node21" class="node"><title>Node21</title>
<g id="a_node21"><a xlink:href="linear__map_8h.xhtml" target="_top" xlink:title="Implementation of a vector&#45;based map for a small number of entries. ">
<polygon fill="white" stroke="black" points="721.438,-73 721.438,-92 793.438,-92 793.438,-73 721.438,-73"/>
<text text-anchor="middle" x="757.438" y="-80" font-family="Helvetica,sans-Serif" font-size="10.00">linear_map.h</text>
</a>
</g>
</g>
<!-- Node16&#45;&gt;Node21 -->
<g id="edge35" class="edge"><title>Node16&#45;&gt;Node21</title>
<path fill="none" stroke="midnightblue" d="M624.756,-139.869C651.161,-128.65 697.47,-108.977 727.798,-96.0925"/>
<polygon fill="midnightblue" stroke="midnightblue" points="729.202,-99.2987 737.037,-92.1672 726.465,-92.856 729.202,-99.2987"/>
</g>
<!-- Node19&#45;&gt;Node5 -->
<g id="edge33" class="edge"><title>Node19&#45;&gt;Node5</title>
<path fill="none" stroke="midnightblue" d="M407.449,-72.8685C382.983,-61.7476 340.235,-42.3167 311.881,-29.4286"/>
<polygon fill="midnightblue" stroke="midnightblue" points="313.058,-26.119 302.506,-25.1672 310.162,-32.4916 313.058,-26.119"/>
</g>
<!-- Node19&#45;&gt;Node13 -->
<g id="edge32" class="edge"><title>Node19&#45;&gt;Node13</title>
<path fill="none" stroke="midnightblue" d="M442.266,-72.8764C446.198,-70.8532 450.434,-68.7725 454.438,-67 487.873,-52.2015 527.122,-37.9472 554.839,-28.3787"/>
<polygon fill="midnightblue" stroke="midnightblue" points="556.169,-31.6229 564.497,-25.0731 553.903,-25.0001 556.169,-31.6229"/>
</g>
<!-- Node20 -->
<g id="node20" class="node"><title>Node20</title>
<polygon fill="white" stroke="#bfbfbf" points="371.438,-0.5 371.438,-30.5 481.438,-30.5 481.438,-0.5 371.438,-0.5"/>
<text text-anchor="start" x="379.438" y="-18.5" font-family="Helvetica,sans-Serif" font-size="10.00">boost/range/algorithm</text>
<text text-anchor="middle" x="426.438" y="-7.5" font-family="Helvetica,sans-Serif" font-size="10.00">/find_if.hpp</text>
</g>
<!-- Node19&#45;&gt;Node20 -->
<g id="edge34" class="edge"><title>Node19&#45;&gt;Node20</title>
<path fill="none" stroke="midnightblue" d="M426.438,-72.7338C426.438,-64.5406 426.438,-51.9225 426.438,-40.7136"/>
<polygon fill="midnightblue" stroke="midnightblue" points="429.938,-40.589 426.438,-30.589 422.938,-40.5891 429.938,-40.589"/>
</g>
<!-- Node21&#45;&gt;Node7 -->
<g id="edge41" class="edge"><title>Node21&#45;&gt;Node7</title>
<path fill="none" stroke="midnightblue" d="M792.133,-72.9377C826.522,-64.0183 880.429,-48.8639 925.438,-31 926.645,-30.5211 927.87,-30.0108 929.099,-29.4787"/>
<polygon fill="midnightblue" stroke="midnightblue" points="930.827,-32.5347 938.404,-25.1301 927.863,-26.193 930.827,-32.5347"/>
</g>
<!-- Node21&#45;&gt;Node8 -->
<g id="edge40" class="edge"><title>Node21&#45;&gt;Node8</title>
<path fill="none" stroke="midnightblue" d="M775.631,-72.8685C798.968,-61.7961 839.667,-42.4862 866.832,-29.5978"/>
<polygon fill="midnightblue" stroke="midnightblue" points="868.636,-32.6159 876.171,-25.1672 865.636,-26.2916 868.636,-32.6159"/>
</g>
<!-- Node21&#45;&gt;Node13 -->
<g id="edge37" class="edge"><title>Node21&#45;&gt;Node13</title>
<path fill="none" stroke="midnightblue" d="M735.349,-72.942C709.477,-62.9136 665.333,-45.7856 627.438,-31 625.607,-30.2853 623.724,-29.55 621.825,-28.8075"/>
<polygon fill="midnightblue" stroke="midnightblue" points="622.935,-25.4834 612.347,-25.0981 620.383,-32.002 622.935,-25.4834"/>
</g>
<!-- Node22 -->
<g id="node22" class="node"><title>Node22</title>
<polygon fill="white" stroke="#bfbfbf" points="804.938,-6 804.938,-25 853.938,-25 853.938,-6 804.938,-6"/>
<text text-anchor="middle" x="829.438" y="-13" font-family="Helvetica,sans-Serif" font-size="10.00">cassert</text>
</g>
<!-- Node21&#45;&gt;Node22 -->
<g id="edge36" class="edge"><title>Node21&#45;&gt;Node22</title>
<path fill="none" stroke="midnightblue" d="M767.149,-72.7338C778.7,-62.3055 798.192,-44.7088 812.299,-31.9732"/>
<polygon fill="midnightblue" stroke="midnightblue" points="814.805,-34.4263 819.882,-25.1273 810.114,-29.2304 814.805,-34.4263"/>
</g>
<!-- Node23 -->
<g id="node23" class="node"><title>Node23</title>
<polygon fill="white" stroke="#bfbfbf" points="636.938,-6 636.938,-25 709.938,-25 709.938,-6 636.938,-6"/>
<text text-anchor="middle" x="673.438" y="-13" font-family="Helvetica,sans-Serif" font-size="10.00">initializer_list</text>
</g>
<!-- Node21&#45;&gt;Node23 -->
<g id="edge38" class="edge"><title>Node21&#45;&gt;Node23</title>
<path fill="none" stroke="midnightblue" d="M746.11,-72.7338C732.381,-62.1106 709.04,-44.0485 692.518,-31.2642"/>
<polygon fill="midnightblue" stroke="midnightblue" points="694.638,-28.4791 684.588,-25.1273 690.354,-34.0152 694.638,-28.4791"/>
</g>
<!-- Node24 -->
<g id="node24" class="node"><title>Node24</title>
<polygon fill="white" stroke="#bfbfbf" points="727.938,-6 727.938,-25 786.938,-25 786.938,-6 727.938,-6"/>
<text text-anchor="middle" x="757.438" y="-13" font-family="Helvetica,sans-Serif" font-size="10.00">stdexcept</text>
</g>
<!-- Node21&#45;&gt;Node24 -->
<g id="edge39" class="edge"><title>Node21&#45;&gt;Node24</title>
<path fill="none" stroke="midnightblue" d="M757.438,-72.7338C757.438,-63.1826 757.438,-47.6183 757.438,-35.2829"/>
<polygon fill="midnightblue" stroke="midnightblue" points="760.938,-35.1273 757.438,-25.1273 753.938,-35.1273 760.938,-35.1273"/>
</g>
<!-- Node26 -->
<g id="node26" class="node"><title>Node26</title>
<polygon fill="white" stroke="#bfbfbf" points="169.938,-73 169.938,-92 210.938,-92 210.938,-73 169.938,-73"/>
<text text-anchor="middle" x="190.438" y="-80" font-family="Helvetica,sans-Serif" font-size="10.00">string</text>
</g>
<!-- Node25&#45;&gt;Node26 -->
<g id="edge43" class="edge"><title>Node25&#45;&gt;Node26</title>
<path fill="none" stroke="midnightblue" d="M351.809,-139.913C346.456,-137.93 340.758,-135.858 335.438,-134 286.876,-117.033 273.68,-115.857 225.438,-98 223.588,-97.315 221.691,-96.5915 219.783,-95.8478"/>
<polygon fill="midnightblue" stroke="midnightblue" points="220.908,-92.5279 210.324,-92.0469 218.298,-99.0231 220.908,-92.5279"/>
</g>
</g>
</svg>
        <g id="navigator" transform="translate(0 0)" fill="#404254">
                <rect fill="#f2f5e9" fill-opacity="0.5" stroke="#606060" stroke-width=".5" x="0" y="0" width="60" height="60"/>
                <use id="zoomplus" xlink:href="#zoomPlus" x="17" y="9" onmousedown="handleZoom(evt,'in')"/>
                <use id="zoomminus" xlink:href="#zoomMin" x="42" y="9" onmousedown="handleZoom(evt,'out')"/>
                <use id="reset" xlink:href="#resetDef" x="30" y="36" onmousedown="handleReset()"/>
                <g id="arrowUp" xlink:href="#dirArrow" transform="translate(30 24)" onmousedown="handlePan(0,-1)">
                  <use xlink:href="#rim" fill="#404040">
                        <set attributeName="fill" to="#808080" begin="arrowUp.mouseover" end="arrowUp.mouseout"/>
                  </use>
                  <path fill="none" stroke="white" stroke-width="1.5" d="M0,-3.0v7 M-2.5,-0.5L0,-3.0L2.5,-0.5"/>
                </g>
                <g id="arrowRight" xlink:href="#dirArrow" transform="rotate(90) translate(36 -43)" onmousedown="handlePan(1,0)">
                  <use xlink:href="#rim" fill="#404040">
                        <set attributeName="fill" to="#808080" begin="arrowRight.mouseover" end="arrowRight.mouseout"/>
                  </use>
                  <path fill="none" stroke="white" stroke-width="1.5" d="M0,-3.0v7 M-2.5,-0.5L0,-3.0L2.5,-0.5"/>
                </g>
                <g id="arrowDown" xlink:href="#dirArrow" transform="rotate(180) translate(-30 -48)" onmousedown="handlePan(0,1)">
                  <use xlink:href="#rim" fill="#404040">
                        <set attributeName="fill" to="#808080" begin="arrowDown.mouseover" end="arrowDown.mouseout"/>
                  </use>
                  <path fill="none" stroke="white" stroke-width="1.5" d="M0,-3.0v7 M-2.5,-0.5L0,-3.0L2.5,-0.5"/>
                </g>
                <g id="arrowLeft" xlink:href="#dirArrow" transform="rotate(270) translate(-36 17)" onmousedown="handlePan(-1,0)">
                  <use xlink:href="#rim" fill="#404040">
                        <set attributeName="fill" to="#808080" begin="arrowLeft.mouseover" end="arrowLeft.mouseout"/>
                  </use>
                  <path fill="none" stroke="white" stroke-width="1.5" d="M0,-3.0v7 M-2.5,-0.5L0,-3.0L2.5,-0.5"/>
                </g>
        </g>
        <svg viewBox="0 0 15 15" width="100%" height="30px" preserveAspectRatio="xMaxYMin meet">
         <g id="arrow_out" transform="scale(0.3 0.3)">
          <a xlink:href="zbdd_8h__incl_org.svg" target="_base">
           <rect id="button" ry="5" rx="5" y="6" x="6" height="38" width="38"
                fill="#f2f5e9" fill-opacity="0.5" stroke="#606060" stroke-width="1.0"/>
           <path id="arrow"
             d="M 11.500037,31.436501 C 11.940474,20.09759 22.043105,11.32322 32.158766,21.979434 L 37.068811,17.246167 C 37.068811,17.246167 37.088388,32 37.088388,32 L 22.160133,31.978069 C 22.160133,31.978069 26.997745,27.140456 26.997745,27.140456 C 18.528582,18.264221 13.291696,25.230495 11.500037,31.436501 z"
             style="fill:#404040;"/>
          </a>
         </g>
        </svg>
</svg>
